<?xml version="1.0" encoding="UTF-8"?>
<!DOCTYPE svg PUBLIC "-//W3C//DTD SVG 1.1//EN" "http://www.w3.org/Graphics/SVG/1.1/DTD/svg11.dtd">
<svg xmlns="http://www.w3.org/2000/svg" version="1.1" width="100%" viewBox="0 0 376 356" style="shape-rendering:geometricPrecision; text-rendering:geometricPrecision; image-rendering:optimizeQuality; fill-rule:evenodd; clip-rule:evenodd" xmlns:xlink="http://www.w3.org/1999/xlink">
<g><path style="opacity:0.903" fill="#2ca4dd" d="M 22.5,-0.5 C 25.5,-0.5 28.5,-0.5 31.5,-0.5C 44.4658,1.41146 57.1324,4.91146 69.5,10C 117.412,32.4388 161.078,61.1055 200.5,96C 199.695,97.1127 199.028,98.2794 198.5,99.5C 190.451,92.7829 182.117,86.4496 173.5,80.5C 168.804,76.4788 163.804,72.8122 158.5,69.5C 156.469,67.4776 154.135,65.8109 151.5,64.5C 151.027,63.0937 150.027,62.427 148.5,62.5C 148.027,61.0937 147.027,60.427 145.5,60.5C 141.852,57.3401 137.852,54.6735 133.5,52.5C 133.027,51.0937 132.027,50.427 130.5,50.5C 128.178,48.336 125.511,46.6693 122.5,45.5C 121.341,43.7497 119.674,42.7497 117.5,42.5C 116.341,40.7497 114.674,39.7497 112.5,39.5C 110.664,37.412 108.331,36.0787 105.5,35.5C 84.8205,22.4996 62.4871,13.3329 38.5,8C 7.96056,4.54729 -3.20611,17.714 5,47.5C 8.29271,58.2171 12.4594,68.5504 17.5,78.5C 17.1667,78.5 16.8333,78.5 16.5,78.5C 8.59986,65.3716 2.93319,51.3716 -0.5,36.5C -0.5,30.1667 -0.5,23.8333 -0.5,17.5C 3.19645,6.4792 10.8631,0.479202 22.5,-0.5 Z"/></g>
<g><path style="opacity:1" fill="#35a9de" d="M 105.5,35.5 C 96.0665,31.2838 86.7332,26.7838 77.5,22C 65.3039,17.4896 53.8039,13.6563 43,10.5C 35.5474,10.0595 28.2141,10.0595 21,10.5C 19.4702,11.636 18.1369,12.636 17,13.5C 15.984,12.3659 15.3173,12.6992 15,14.5C 14.6667,14.1667 14.3333,13.8333 14,13.5C 12.8333,16 11,17.8333 8.5,19C 9.63411,20.016 9.30077,20.6827 7.5,21C 8.63411,22.016 8.30077,22.6827 6.5,23C 7.66816,24.4056 7.33482,25.5723 5.5,26.5C 5.5,31.5 5.5,36.5 5.5,41.5C 6.65634,44.0461 7.65634,46.5461 8.5,49C 8.16667,49.3333 7.83333,49.6667 7.5,50C 12.3839,61.9724 17.8839,74.1391 24,86.5C 30.0221,95.6944 35.8554,105.028 41.5,114.5C 32.5077,103.188 24.5077,91.1881 17.5,78.5C 12.4594,68.5504 8.29271,58.2171 5,47.5C -3.20611,17.714 7.96056,4.54729 38.5,8C 62.4871,13.3329 84.8205,22.4996 105.5,35.5 Z"/></g>
<g><path style="opacity:1" fill="#3cacdf" d="M 105.5,35.5 C 106.167,36.5 106.833,37.5 107.5,38.5C 105.5,37.8333 103.5,37.1667 101.5,36.5C 80.6774,23.5574 58.0108,15.5574 33.5,12.5C 25.4923,12.3327 18.659,14.9994 13,20.5C 8.28273,29.0487 7.28273,38.0487 10,47.5C 14.09,63.3371 20.59,78.0038 29.5,91.5C 35.2567,99.9196 40.5901,108.586 45.5,117.5C 44.1667,116.5 42.8333,115.5 41.5,114.5C 35.8554,105.028 30.0221,95.6944 24,86.5C 17.8839,74.1391 12.3839,61.9724 7.5,50C 7.83333,49.6667 8.16667,49.3333 8.5,49C 7.65634,46.5461 6.65634,44.0461 5.5,41.5C 5.5,36.5 5.5,31.5 5.5,26.5C 7.33482,25.5723 7.66816,24.4056 6.5,23C 8.30077,22.6827 8.63411,22.016 7.5,21C 9.30077,20.6827 9.63411,20.016 8.5,19C 11,17.8333 12.8333,16 14,13.5C 14.3333,13.8333 14.6667,14.1667 15,14.5C 15.3173,12.6992 15.984,12.3659 17,13.5C 18.1369,12.636 19.4702,11.636 21,10.5C 28.2141,10.0595 35.5474,10.0595 43,10.5C 53.8039,13.6563 65.3039,17.4896 77.5,22C 86.7332,26.7838 96.0665,31.2838 105.5,35.5 Z"/></g>
<g><path style="opacity:1" fill="#41b0e0" d="M 101.5,36.5 C 100.5,36.5 99.5,36.5 98.5,36.5C 94.7373,33.952 90.7373,31.952 86.5,30.5C 84.5739,28.7073 82.2406,27.7073 79.5,27.5C 63.976,19.0553 47.3093,15.2219 29.5,16C 19.4768,17.0893 13.6435,22.5893 12,32.5C 11.3957,49.179 15.5624,64.5123 24.5,78.5C 25.3382,78.8417 25.6716,79.5084 25.5,80.5C 27.1185,84.069 28.4519,87.7356 29.5,91.5C 20.59,78.0038 14.09,63.3371 10,47.5C 7.28273,38.0487 8.28273,29.0487 13,20.5C 18.659,14.9994 25.4923,12.3327 33.5,12.5C 58.0108,15.5574 80.6774,23.5574 101.5,36.5 Z"/></g>
<g><path style="opacity:1" fill="#47b3e1" d="M 79.5,27.5 C 68.5512,23.0951 57.2179,19.9284 45.5,18C 18.0315,16.1643 8.19819,28.6643 16,55.5C 18.7455,63.2406 21.5789,70.9073 24.5,78.5C 15.5624,64.5123 11.3957,49.179 12,32.5C 13.6435,22.5893 19.4768,17.0893 29.5,16C 47.3093,15.2219 63.976,19.0553 79.5,27.5 Z"/></g>
<g><path style="opacity:1" fill="#4db7e3" d="M 79.5,27.5 C 81.4261,29.2927 83.7594,30.2927 86.5,30.5C 90.7373,31.952 94.7373,33.952 98.5,36.5C 107.933,41.8766 117.267,47.21 126.5,52.5C 138.492,60.4971 150.492,68.4971 162.5,76.5C 164.296,78.9 166.63,80.5667 169.5,81.5C 170.262,83.2624 171.596,84.2624 173.5,84.5C 181.167,90.8333 188.833,97.1667 196.5,103.5C 196.5,103.833 196.5,104.167 196.5,104.5C 169.616,83.0447 141.282,63.5447 111.5,46C 94.1185,35.9861 75.7852,28.3194 56.5,23C 25.3532,15.8158 13.1865,27.6491 20,58.5C 28.6538,82.4455 40.6538,104.446 56,124.5C 114.422,200.557 184.589,263.057 266.5,312C 281.173,320.223 296.506,326.89 312.5,332C 324.107,335.998 335.773,336.331 347.5,333C 355.346,328.642 358.679,321.975 357.5,313C 356.922,301.597 354.089,290.763 349,280.5C 334.743,253.258 317.743,227.925 298,204.5C 288.663,193.665 279.163,182.998 269.5,172.5C 269.833,172.5 270.167,172.5 270.5,172.5C 274.194,175.527 277.527,178.86 280.5,182.5C 297.79,201.765 314.124,221.765 329.5,242.5C 329.427,244.027 330.094,245.027 331.5,245.5C 332.167,245.833 332.833,246.167 333.5,246.5C 333.53,249.852 334.863,252.518 337.5,254.5C 337.427,256.027 338.094,257.027 339.5,257.5C 342.167,262.179 344.833,266.845 347.5,271.5C 377.347,334.323 359.68,353.323 294.5,328.5C 291.912,326.375 288.912,325.042 285.5,324.5C 281.818,321.992 277.818,319.992 273.5,318.5C 272.341,316.75 270.674,315.75 268.5,315.5C 245.905,302.525 224.238,288.025 203.5,272C 201.593,270.878 199.593,270.045 197.5,269.5C 197.489,267.983 196.823,266.816 195.5,266C 189.774,261.815 184.108,257.648 178.5,253.5C 165.167,241.833 151.833,230.167 138.5,218.5C 135.5,214.833 132.167,211.5 128.5,208.5C 121.5,202.167 114.833,195.5 108.5,188.5C 76.1655,155.864 48.4989,119.864 25.5,80.5C 25.6716,79.5084 25.3382,78.8417 24.5,78.5C 21.5789,70.9073 18.7455,63.2406 16,55.5C 8.19819,28.6643 18.0315,16.1643 45.5,18C 57.2179,19.9284 68.5512,23.0951 79.5,27.5 Z"/></g>
<g><path style="opacity:1" fill="#5ac2e6" d="M 108.5,47.5 C 102.937,44.8841 97.2701,42.5507 91.5,40.5C 89.2018,38.5393 86.5351,37.5393 83.5,37.5C 81.4679,36.0933 79.3013,34.7599 77,33.5C 76.6012,33.7284 76.4346,34.0618 76.5,34.5C 76.1667,34.5 75.8333,34.5 75.5,34.5C 73.8299,32.3866 71.8299,31.7199 69.5,32.5C 68.8946,30.5188 67.8946,30.1854 66.5,31.5C 65.4797,30.0462 64.313,29.7129 63,30.5C 59.4419,29.9477 55.7752,28.9477 52,27.5C 46.5455,28.0425 41.2121,29.0425 36,30.5C 35.6667,30.1667 35.3333,29.8333 35,29.5C 32.8793,31.4117 30.7126,33.245 28.5,35C 27.1667,35.6667 27.1667,36.3333 28.5,37C 26.6992,37.3173 26.3659,37.984 27.5,39C 25.4311,39.3242 25.0977,40.1575 26.5,41.5C 25.7528,45.1379 25.0862,48.8045 24.5,52.5C 24.8868,54.2743 25.5535,55.941 26.5,57.5C 25.6527,59.061 25.9861,60.561 27.5,62C 27.1667,62.3333 26.8333,62.6667 26.5,63C 27.6087,64.8761 28.6087,66.7095 29.5,68.5C 30.9418,69.8195 31.6085,71.4862 31.5,73.5C 34.3293,80.8411 37.4959,88.1744 41,95.5C 42.3712,97.0414 43.8712,98.3747 45.5,99.5C 48.8967,106.626 52.5634,113.626 56.5,120.5C 43.8058,104.465 33.6391,86.7983 26,67.5C 23.7093,60.6705 22.2093,53.6705 21.5,46.5C 21.3542,35.823 26.3542,28.9897 36.5,26C 42.8333,25.3333 49.1667,25.3333 55.5,26C 74.5051,30.1611 92.1718,37.3277 108.5,47.5 Z"/></g>
<g><path style="opacity:1" fill="#47b3e1" d="M 79.5,27.5 C 82.2406,27.7073 84.5739,28.7073 86.5,30.5C 83.7594,30.2927 81.4261,29.2927 79.5,27.5 Z"/></g>
<g><path style="opacity:0.964" fill="#65cbe7" d="M 77.5,36.5 C 77.8333,36.5 78.1667,36.5 78.5,36.5C 78.6107,37.1174 78.944,37.6174 79.5,38C 84.3358,39.2664 89.0025,40.7664 93.5,42.5C 94.5137,43.6737 95.847,44.3404 97.5,44.5C 100.914,47.5402 104.914,49.5402 109.5,50.5C 112.332,52.0604 114.998,53.8938 117.5,56C 119.154,56.6077 120.821,57.1077 122.5,57.5C 123.167,57.5 123.5,57.8333 123.5,58.5C 124.287,60.1042 125.62,60.7709 127.5,60.5C 127.833,60.5 128.167,60.5 128.5,60.5C 128.694,62.9118 130.027,63.9118 132.5,63.5C 132.973,64.9063 133.973,65.573 135.5,65.5C 136.262,67.2624 137.596,68.2624 139.5,68.5C 140.287,70.1042 141.62,70.7709 143.5,70.5C 145.795,71.4746 147.795,72.8079 149.5,74.5C 150.948,77.264 153.281,78.9307 156.5,79.5C 156.833,79.5 157.167,79.5 157.5,79.5C 159.193,82.1897 161.527,84.1897 164.5,85.5C 169.175,88.8361 173.842,92.1694 178.5,95.5C 179.539,97.5311 181.205,98.8645 183.5,99.5C 187.5,102.5 191.5,105.5 195.5,108.5C 194.318,112.418 193.318,116.418 192.5,120.5C 168.36,100.196 142.693,82.0293 115.5,66C 102.823,58.9936 89.4895,53.6603 75.5,50C 68.9159,48.8589 62.5826,49.5256 56.5,52C 52.8836,55.3282 50.8836,59.4949 50.5,64.5C 52.6606,78.4806 57.494,91.4806 65,103.5C 80.7236,128.269 98.3902,151.602 118,173.5C 156.727,215.561 199.894,252.061 247.5,283C 260.492,290.996 274.158,297.662 288.5,303C 297.333,306.486 306.333,307.153 315.5,305C 319.428,303.407 321.928,300.573 323,296.5C 323.876,289.684 323.21,283.017 321,276.5C 313.722,258.604 304.389,241.937 293,226.5C 280.253,209.749 266.753,193.582 252.5,178C 257.226,176.814 261.893,175.314 266.5,173.5C 268.458,176.792 270.791,179.792 273.5,182.5C 273.427,184.027 274.094,185.027 275.5,185.5C 276.167,185.5 276.5,185.833 276.5,186.5C 277.167,187.833 278.167,188.833 279.5,189.5C 280.728,190.306 281.728,191.306 282.5,192.5C 283.167,194.5 284.5,195.833 286.5,196.5C 286.932,197.71 287.599,198.71 288.5,199.5C 288.5,201.5 289.5,202.5 291.5,202.5C 291.285,204.179 291.952,205.179 293.5,205.5C 293.5,207.5 294.5,208.5 296.5,208.5C 296.328,209.492 296.662,210.158 297.5,210.5C 297.427,212.027 298.094,213.027 299.5,213.5C 300.5,213.833 301.167,214.5 301.5,215.5C 301.427,217.027 302.094,218.027 303.5,218.5C 303.5,219.833 304.167,220.5 305.5,220.5C 306.211,222.03 307.211,223.363 308.5,224.5C 308.554,226.632 309.554,227.965 311.5,228.5C 312.63,230.374 313.63,232.374 314.5,234.5C 314.957,235.298 315.624,235.631 316.5,235.5C 322.516,244.865 328.016,254.531 333,264.5C 333.708,265.381 334.542,266.047 335.5,266.5C 336.674,267.514 337.34,268.847 337.5,270.5C 340.371,276.728 342.705,282.894 344.5,289C 344.167,289.333 343.833,289.667 343.5,290C 345.394,291.079 345.727,292.413 344.5,294C 345.293,295.085 345.96,296.252 346.5,297.5C 346.456,301.986 346.456,306.486 346.5,311C 345.318,312.49 344.318,313.823 343.5,315C 343.833,315.333 344.167,315.667 344.5,316C 342.321,316.442 341.655,317.442 342.5,319C 341.747,320.487 340.914,320.654 340,319.5C 339.085,320.328 338.419,321.328 338,322.5C 337.667,322.167 337.333,321.833 337,321.5C 335.937,322.438 334.77,323.438 333.5,324.5C 331.983,323.089 330.649,323.256 329.5,325C 326.518,325.498 323.518,325.665 320.5,325.5C 316.975,324.11 313.475,323.11 310,322.5C 308.657,323.214 307.324,322.88 306,321.5C 305.667,321.833 305.333,322.167 305,322.5C 298.917,320.087 293.084,318.087 287.5,316.5C 276.839,311.17 266.173,305.836 255.5,300.5C 254.341,298.75 252.674,297.75 250.5,297.5C 250.167,297.5 249.833,297.5 249.5,297.5C 248.738,295.738 247.404,294.738 245.5,294.5C 244.833,294.5 244.5,294.167 244.5,293.5C 243.713,291.896 242.38,291.229 240.5,291.5C 240.027,290.094 239.027,289.427 237.5,289.5C 234.883,288.214 232.55,286.547 230.5,284.5C 226.376,280.719 221.709,277.719 216.5,275.5C 216.5,274.833 216.167,274.5 215.5,274.5C 213.853,272.674 211.853,271.34 209.5,270.5C 208.965,268.554 207.632,267.554 205.5,267.5C 203.2,265.016 200.533,263.016 197.5,261.5C 196.7,259.259 195.034,258.259 192.5,258.5C 191.598,256.659 190.264,255.326 188.5,254.5C 187.461,252.469 185.795,251.136 183.5,250.5C 182.5,250.167 181.833,249.5 181.5,248.5C 178.511,245.522 175.177,242.855 171.5,240.5C 170.5,240.167 169.833,239.5 169.5,238.5C 168.738,236.738 167.404,235.738 165.5,235.5C 165.5,234.833 165.167,234.5 164.5,234.5C 163.215,232.548 161.549,230.882 159.5,229.5C 158.222,229.218 157.222,228.551 156.5,227.5C 154.882,225.215 152.882,223.215 150.5,221.5C 147.602,220.277 145.269,218.277 143.5,215.5C 141.167,212.5 138.5,209.833 135.5,207.5C 135.167,206.5 134.5,205.833 133.5,205.5C 133.027,204.094 132.027,203.427 130.5,203.5C 126.5,198.833 122.167,194.5 117.5,190.5C 115.234,186.564 112.234,183.231 108.5,180.5C 105.806,178.473 103.473,176.139 101.5,173.5C 100.581,170.911 98.914,168.911 96.5,167.5C 95.2719,166.694 94.2719,165.694 93.5,164.5C 93.573,162.973 92.9063,161.973 91.5,161.5C 90.8333,160.833 90.1667,160.167 89.5,159.5C 89.1898,157.856 88.1898,156.856 86.5,156.5C 86.5,154.5 85.5,153.5 83.5,153.5C 83.573,151.973 82.9063,150.973 81.5,150.5C 80.8645,148.205 79.5311,146.539 77.5,145.5C 76.8645,143.205 75.5311,141.539 73.5,140.5C 73.2624,138.596 72.2624,137.262 70.5,136.5C 70.573,134.973 69.9063,133.973 68.5,133.5C 67.8333,133.5 67.5,133.167 67.5,132.5C 67.573,130.973 66.9063,129.973 65.5,129.5C 64.8333,129.5 64.5,129.167 64.5,128.5C 64.1898,126.856 63.1898,125.856 61.5,125.5C 61.5,125.167 61.5,124.833 61.5,124.5C 56.3989,115.951 51.0655,107.618 45.5,99.5C 41.2415,91.3155 37.2415,82.9821 33.5,74.5C 33.9382,74.5654 34.2716,74.3988 34.5,74C 32.9636,71.2865 31.6303,68.4531 30.5,65.5C 31.4709,64.0379 31.1376,62.7046 29.5,61.5C 29.8333,60.8333 30.1667,60.1667 30.5,59.5C 27.9239,54.9015 27.9239,50.4015 30.5,46C 29.1854,44.6054 29.5188,43.6054 31.5,43C 31.1667,42.6667 30.8333,42.3333 30.5,42C 32.2072,39.7017 34.3738,37.2017 37,34.5C 38.016,35.6341 38.6827,35.3008 39,33.5C 39.3333,33.8333 39.6667,34.1667 40,34.5C 40.6054,32.5188 41.6054,32.1854 43,33.5C 43.804,32.1955 44.9707,31.5288 46.5,31.5C 49.8333,32.8333 53.1667,32.8333 56.5,31.5C 62.4124,32.11 68.2458,33.7767 74,36.5C 75.1475,35.5419 76.1475,35.8753 77,37.5C 77.3988,37.2716 77.5654,36.9382 77.5,36.5 Z"/></g>
<g><path style="opacity:1" fill="#35a9de" d="M 105.5,35.5 C 108.331,36.0787 110.664,37.412 112.5,39.5C 110.784,39.3713 109.117,39.038 107.5,38.5C 106.833,37.5 106.167,36.5 105.5,35.5 Z"/></g>
<g><path style="opacity:1" fill="#43b1e1" d="M 98.5,36.5 C 99.5,36.5 100.5,36.5 101.5,36.5C 103.5,37.1667 105.5,37.8333 107.5,38.5C 109.336,40.588 111.669,41.9213 114.5,42.5C 115.659,44.2503 117.326,45.2503 119.5,45.5C 120.659,47.2503 122.326,48.2503 124.5,48.5C 125.167,49.8333 125.833,51.1667 126.5,52.5C 117.267,47.21 107.933,41.8766 98.5,36.5 Z"/></g>
<g><path style="opacity:1" fill="#3cacdf" d="M 107.5,38.5 C 109.117,39.038 110.784,39.3713 112.5,39.5C 113.167,40.5 113.833,41.5 114.5,42.5C 111.669,41.9213 109.336,40.588 107.5,38.5 Z"/></g>
<g><path style="opacity:1" fill="#35a9de" d="M 112.5,39.5 C 114.674,39.7497 116.341,40.7497 117.5,42.5C 116.5,42.5 115.5,42.5 114.5,42.5C 113.833,41.5 113.167,40.5 112.5,39.5 Z"/></g>
<g><path style="opacity:1" fill="#3cacdf" d="M 114.5,42.5 C 115.5,42.5 116.5,42.5 117.5,42.5C 118.167,43.5 118.833,44.5 119.5,45.5C 117.326,45.2503 115.659,44.2503 114.5,42.5 Z"/></g>
<g><path style="opacity:1" fill="#35a9de" d="M 117.5,42.5 C 119.674,42.7497 121.341,43.7497 122.5,45.5C 121.5,45.5 120.5,45.5 119.5,45.5C 118.833,44.5 118.167,43.5 117.5,42.5 Z"/></g>
<g><path style="opacity:1" fill="#3bacdf" d="M 119.5,45.5 C 120.5,45.5 121.5,45.5 122.5,45.5C 123.167,46.5 123.833,47.5 124.5,48.5C 122.326,48.2503 120.659,47.2503 119.5,45.5 Z"/></g>
<g><path style="opacity:1" fill="#35a9de" d="M 122.5,45.5 C 125.511,46.6693 128.178,48.336 130.5,50.5C 129.5,50.5 128.5,50.5 127.5,50.5C 127.027,49.0937 126.027,48.427 124.5,48.5C 123.833,47.5 123.167,46.5 122.5,45.5 Z"/></g>
<g><path style="opacity:1" fill="#3cacdf" d="M 127.5,50.5 C 128.5,50.5 129.5,50.5 130.5,50.5C 130.973,51.9063 131.973,52.573 133.5,52.5C 134.167,53.5 134.833,54.5 135.5,55.5C 133.313,54.242 130.98,53.242 128.5,52.5C 128.167,51.8333 127.833,51.1667 127.5,50.5 Z"/></g>
<g><path style="opacity:1" fill="#3fafe0" d="M 124.5,48.5 C 126.027,48.427 127.027,49.0937 127.5,50.5C 127.833,51.1667 128.167,51.8333 128.5,52.5C 127.833,52.5 127.167,52.5 126.5,52.5C 125.833,51.1667 125.167,49.8333 124.5,48.5 Z"/></g>
<g><path style="opacity:1" fill="#35a9de" d="M 130.5,50.5 C 132.027,50.427 133.027,51.0937 133.5,52.5C 131.973,52.573 130.973,51.9063 130.5,50.5 Z"/></g>
<g><path style="opacity:1" fill="#3caddf" d="M 135.5,55.5 C 137.027,55.427 138.027,56.0937 138.5,57.5C 136.973,57.573 135.973,56.9063 135.5,55.5 Z"/></g>
<g><path style="opacity:1" fill="#43b1e1" d="M 126.5,52.5 C 127.167,52.5 127.833,52.5 128.5,52.5C 130.98,53.242 133.313,54.242 135.5,55.5C 135.973,56.9063 136.973,57.573 138.5,57.5C 138.973,58.9063 139.973,59.573 141.5,59.5C 144.446,62.3131 147.779,64.6465 151.5,66.5C 151.973,67.9063 152.973,68.573 154.5,68.5C 156.55,70.5475 158.883,72.2141 161.5,73.5C 162.11,74.391 162.443,75.391 162.5,76.5C 150.492,68.4971 138.492,60.4971 126.5,52.5 Z"/></g>
<g><path style="opacity:1" fill="#3caddf" d="M 138.5,57.5 C 140.027,57.427 141.027,58.0937 141.5,59.5C 139.973,59.573 138.973,58.9063 138.5,57.5 Z"/></g>
<g><path style="opacity:1" fill="#35a9de" d="M 133.5,52.5 C 137.852,54.6735 141.852,57.3401 145.5,60.5C 144.167,60.1667 142.833,59.8333 141.5,59.5C 141.027,58.0937 140.027,57.427 138.5,57.5C 138.027,56.0937 137.027,55.427 135.5,55.5C 134.833,54.5 134.167,53.5 133.5,52.5 Z"/></g>
<g><path style="opacity:1" fill="#3cacdf" d="M 141.5,59.5 C 142.833,59.8333 144.167,60.1667 145.5,60.5C 145.973,61.9063 146.973,62.573 148.5,62.5C 148.973,63.9063 149.973,64.573 151.5,64.5C 151.5,65.1667 151.5,65.8333 151.5,66.5C 147.779,64.6465 144.446,62.3131 141.5,59.5 Z"/></g>
<g><path style="opacity:1" fill="#35a9de" d="M 145.5,60.5 C 147.027,60.427 148.027,61.0937 148.5,62.5C 146.973,62.573 145.973,61.9063 145.5,60.5 Z"/></g>
<g><path style="opacity:1" fill="#35a9de" d="M 148.5,62.5 C 150.027,62.427 151.027,63.0937 151.5,64.5C 149.973,64.573 148.973,63.9063 148.5,62.5 Z"/></g>
<g><path style="opacity:1" fill="#3caddf" d="M 151.5,66.5 C 153.027,66.427 154.027,67.0937 154.5,68.5C 152.973,68.573 151.973,67.9063 151.5,66.5 Z"/></g>
<g><path style="opacity:1" fill="#35a9de" d="M 151.5,64.5 C 154.135,65.8109 156.469,67.4776 158.5,69.5C 157.167,69.1667 155.833,68.8333 154.5,68.5C 154.027,67.0937 153.027,66.427 151.5,66.5C 151.5,65.8333 151.5,65.1667 151.5,64.5 Z"/></g>
<g><path style="opacity:1" fill="#3daddf" d="M 161.5,73.5 C 163.404,73.7376 164.738,74.7376 165.5,76.5C 164.5,76.5 163.5,76.5 162.5,76.5C 162.443,75.391 162.11,74.391 161.5,73.5 Z"/></g>
<g><path style="opacity:1" fill="#38aade" d="M 154.5,68.5 C 155.833,68.8333 157.167,69.1667 158.5,69.5C 163.804,72.8122 168.804,76.4788 173.5,80.5C 172.167,80.1667 170.833,79.8333 169.5,79.5C 167.77,78.9744 166.436,77.9744 165.5,76.5C 164.738,74.7376 163.404,73.7376 161.5,73.5C 158.883,72.2141 156.55,70.5475 154.5,68.5 Z"/></g>
<g><path style="opacity:1" fill="#44b1e1" d="M 162.5,76.5 C 163.5,76.5 164.5,76.5 165.5,76.5C 166.436,77.9744 167.77,78.9744 169.5,79.5C 169.5,80.1667 169.5,80.8333 169.5,81.5C 166.63,80.5667 164.296,78.9 162.5,76.5 Z"/></g>
<g><path style="opacity:1" fill="#3caddf" d="M 169.5,79.5 C 170.833,79.8333 172.167,80.1667 173.5,80.5C 173.5,81.1667 173.5,81.8333 173.5,82.5C 172.292,81.7659 170.959,81.4326 169.5,81.5C 169.5,80.8333 169.5,80.1667 169.5,79.5 Z"/></g>
<g><path style="opacity:1" fill="#43b1e1" d="M 169.5,81.5 C 170.959,81.4326 172.292,81.7659 173.5,82.5C 173.5,83.1667 173.5,83.8333 173.5,84.5C 171.596,84.2624 170.262,83.2624 169.5,81.5 Z"/></g>
<g><path style="opacity:1" fill="#3daddf" d="M 173.5,82.5 C 175.027,82.427 176.027,83.0937 176.5,84.5C 175.5,84.5 174.5,84.5 173.5,84.5C 173.5,83.8333 173.5,83.1667 173.5,82.5 Z"/></g>
<g><path style="opacity:1" fill="#5bc3e6" d="M 160.5,80.5 C 172.712,88.3714 184.379,97.0381 195.5,106.5C 195.5,107.167 195.5,107.833 195.5,108.5C 191.5,105.5 187.5,102.5 183.5,99.5C 182.421,97.457 180.754,96.1237 178.5,95.5C 173.842,92.1694 169.175,88.8361 164.5,85.5C 163.167,83.8333 161.833,82.1667 160.5,80.5 Z"/></g>
<g><path style="opacity:1" fill="#43b1e1" d="M 173.5,84.5 C 174.5,84.5 175.5,84.5 176.5,84.5C 183.186,90.5155 190.186,96.1822 197.5,101.5C 197.672,102.492 197.338,103.158 196.5,103.5C 188.833,97.1667 181.167,90.8333 173.5,84.5 Z"/></g>
<g><path style="opacity:0.925" fill="#2ca4dd" d="M 281.5,136.5 C 279.026,110.819 264.859,96.8189 239,94.5C 232.091,94.7314 225.591,96.3981 219.5,99.5C 219.859,97.629 220.859,96.129 222.5,95C 241.267,81.6853 259.1,82.8519 276,98.5C 284.86,110.262 286.693,122.929 281.5,136.5 Z"/></g>
<g><path style="opacity:1" fill="#38aadf" d="M 173.5,80.5 C 182.117,86.4496 190.451,92.7829 198.5,99.5C 198.167,100.167 197.833,100.833 197.5,101.5C 190.186,96.1822 183.186,90.5155 176.5,84.5C 176.027,83.0937 175.027,82.427 173.5,82.5C 173.5,81.8333 173.5,81.1667 173.5,80.5 Z"/></g>
<g><path style="opacity:0.974" fill="#35a9de" d="M 281.5,136.5 C 281.539,139.089 280.539,141.089 278.5,142.5C 278.948,137.959 278.281,133.626 276.5,129.5C 277.668,128.094 277.335,126.928 275.5,126C 275.5,124.667 275.5,123.333 275.5,122C 273.699,121.683 273.366,121.016 274.5,120C 272.699,119.683 272.366,119.016 273.5,118C 270.04,114.745 267.207,111.245 265,107.5C 263.057,107.959 261.724,106.959 261,104.5C 260.667,104.833 260.333,105.167 260,105.5C 258.43,104.386 257.097,103.053 256,101.5C 255.667,101.833 255.333,102.167 255,102.5C 252.286,100.964 249.453,99.6303 246.5,98.5C 241.517,98.6053 236.517,98.6053 231.5,98.5C 229.622,99.6422 227.788,100.642 226,101.5C 225.667,101.167 225.333,100.833 225,100.5C 222.613,102.17 220.279,103.837 218,105.5C 217.667,105.167 217.333,104.833 217,104.5C 216.051,106.093 214.885,107.426 213.5,108.5C 214.723,104.951 216.723,101.951 219.5,99.5C 225.591,96.3981 232.091,94.7314 239,94.5C 264.859,96.8189 279.026,110.819 281.5,136.5 Z"/></g>
<g><path style="opacity:0.766" fill="#2da5dd" d="M 16.5,78.5 C 16.8333,78.5 17.1667,78.5 17.5,78.5C 24.5077,91.1881 32.5077,103.188 41.5,114.5C 43.412,118.417 45.7454,122.083 48.5,125.5C 48.5,126.167 48.1667,126.5 47.5,126.5C 39.8087,116.96 32.642,106.96 26,96.5C 22.5531,90.6044 19.3865,84.6044 16.5,78.5 Z"/></g>
<g><path style="opacity:0.989" fill="#3cacdf" d="M 278.5,142.5 C 277.588,144.595 276.421,146.595 275,148.5C 274.184,149.823 273.017,150.489 271.5,150.5C 277.317,132.267 272.317,117.767 256.5,107C 238.939,98.8771 223.939,102.044 211.5,116.5C 211.56,113.659 212.226,110.993 213.5,108.5C 214.885,107.426 216.051,106.093 217,104.5C 217.333,104.833 217.667,105.167 218,105.5C 220.279,103.837 222.613,102.17 225,100.5C 225.333,100.833 225.667,101.167 226,101.5C 227.788,100.642 229.622,99.6422 231.5,98.5C 236.517,98.6053 241.517,98.6053 246.5,98.5C 249.453,99.6303 252.286,100.964 255,102.5C 255.333,102.167 255.667,101.833 256,101.5C 257.097,103.053 258.43,104.386 260,105.5C 260.333,105.167 260.667,104.833 261,104.5C 261.724,106.959 263.057,107.959 265,107.5C 267.207,111.245 270.04,114.745 273.5,118C 272.366,119.016 272.699,119.683 274.5,120C 273.366,121.016 273.699,121.683 275.5,122C 275.5,123.333 275.5,124.667 275.5,126C 277.335,126.928 277.668,128.094 276.5,129.5C 278.281,133.626 278.948,137.959 278.5,142.5 Z"/></g>
<g><path style="opacity:0.979" fill="#40b0e0" d="M 271.5,150.5 C 270.109,152.89 268.109,154.557 265.5,155.5C 274.475,137.233 270.808,122.067 254.5,110C 235.951,102.352 221.285,106.852 210.5,123.5C 210.198,120.941 210.532,118.607 211.5,116.5C 223.939,102.044 238.939,98.8771 256.5,107C 272.317,117.767 277.317,132.267 271.5,150.5 Z"/></g>
<g><path style="opacity:0.978" fill="#47b3e1" d="M 265.5,155.5 C 263.703,156.73 261.703,157.396 259.5,157.5C 271.21,141.863 269.877,127.363 255.5,114C 240.672,105.832 227.505,107.999 216,120.5C 213.959,123.248 212.459,126.248 211.5,129.5C 210.539,127.735 210.205,125.735 210.5,123.5C 221.285,106.852 235.951,102.352 254.5,110C 270.808,122.067 274.475,137.233 265.5,155.5 Z"/></g>
<g><path style="opacity:0.985" fill="#4db7e3" d="M 259.5,157.5 C 255.817,159.25 251.817,159.917 247.5,159.5C 261.975,151.198 265.475,139.531 258,124.5C 245.347,111.169 232.681,111.169 220,124.5C 216.864,130.071 215.698,136.071 216.5,142.5C 213.483,138.797 211.816,134.464 211.5,129.5C 212.459,126.248 213.959,123.248 216,120.5C 227.505,107.999 240.672,105.832 255.5,114C 269.877,127.363 271.21,141.863 259.5,157.5 Z"/></g>
<g><path style="opacity:1" fill="#61c7e7" d="M 45.5,99.5 C 51.0655,107.618 56.3989,115.951 61.5,124.5C 60.609,123.89 59.609,123.557 58.5,123.5C 58.573,121.973 57.9063,120.973 56.5,120.5C 52.5634,113.626 48.8967,106.626 45.5,99.5 Z"/></g>
<g><path style="opacity:0.977" fill="#54bde4" d="M 247.5,159.5 C 233.708,159.777 223.374,154.11 216.5,142.5C 215.698,136.071 216.864,130.071 220,124.5C 232.681,111.169 245.347,111.169 258,124.5C 265.475,139.531 261.975,151.198 247.5,159.5 Z"/></g>
<g><path style="opacity:1" fill="#37aade" d="M 41.5,114.5 C 42.8333,115.5 44.1667,116.5 45.5,117.5C 49.2624,120.929 52.2624,124.929 54.5,129.5C 54.7376,131.404 55.7376,132.738 57.5,133.5C 58.1667,135.167 58.8333,136.833 59.5,138.5C 55.4579,134.46 51.7912,130.127 48.5,125.5C 45.7454,122.083 43.412,118.417 41.5,114.5 Z"/></g>
<g><path style="opacity:1" fill="#5ac2e6" d="M 56.5,120.5 C 57.9063,120.973 58.573,121.973 58.5,123.5C 57.0937,123.027 56.427,122.027 56.5,120.5 Z"/></g>
<g><path style="opacity:1" fill="#5ac2e6" d="M 235.5,119.5 C 251.61,120.642 257.777,129.309 254,145.5C 247.203,154.984 238.703,156.817 228.5,151C 220.5,142 220.5,133 228.5,124C 231.314,122.946 233.647,121.446 235.5,119.5 Z"/></g>
<g><path style="opacity:1" fill="#5ac3e6" d="M 58.5,123.5 C 59.609,123.557 60.609,123.89 61.5,124.5C 61.5,124.833 61.5,125.167 61.5,125.5C 61.5,126.167 61.5,126.833 61.5,127.5C 59.7376,126.738 58.7376,125.404 58.5,123.5 Z"/></g>
<g><path style="opacity:0.879" fill="#2ca4dd" d="M 48.5,125.5 C 51.7912,130.127 55.4579,134.46 59.5,138.5C 60.1237,140.754 61.457,142.421 63.5,143.5C 72.4131,155.749 82.4131,167.083 93.5,177.5C 94.1667,177.5 94.5,177.833 94.5,178.5C 106.578,192.081 119.244,205.247 132.5,218C 133.094,218.464 133.761,218.631 134.5,218.5C 135.694,219.272 136.694,220.272 137.5,221.5C 140.231,225.234 143.564,228.234 147.5,230.5C 149.854,233.851 152.854,236.518 156.5,238.5C 157.272,239.694 158.272,240.694 159.5,241.5C 160.262,243.262 161.596,244.262 163.5,244.5C 169.602,250.944 176.269,256.61 183.5,261.5C 184.262,263.262 185.596,264.262 187.5,264.5C 189.909,267.544 192.909,269.878 196.5,271.5C 201.109,276.471 206.443,280.471 212.5,283.5C 213.539,285.531 215.205,286.864 217.5,287.5C 220.475,290.323 223.808,292.656 227.5,294.5C 227.973,295.906 228.973,296.573 230.5,296.5C 230.973,297.906 231.973,298.573 233.5,298.5C 233.973,299.906 234.973,300.573 236.5,300.5C 236.973,301.906 237.973,302.573 239.5,302.5C 239.973,303.906 240.973,304.573 242.5,304.5C 242.973,305.906 243.973,306.573 245.5,306.5C 246.659,308.25 248.326,309.25 250.5,309.5C 250.973,310.906 251.973,311.573 253.5,311.5C 254.659,313.25 256.326,314.25 258.5,314.5C 260.336,316.588 262.669,317.921 265.5,318.5C 267.336,320.588 269.669,321.921 272.5,322.5C 295.057,337.104 319.724,346.104 346.5,349.5C 363.296,350.456 372.296,342.623 373.5,326C 372.359,312.415 368.693,299.582 362.5,287.5C 362.5,286.833 362.5,286.167 362.5,285.5C 368.426,296.946 372.759,308.946 375.5,321.5C 375.5,326.5 375.5,331.5 375.5,336.5C 372.833,346.5 366.5,352.833 356.5,355.5C 349.833,355.5 343.167,355.5 336.5,355.5C 314.834,350.215 294.167,342.048 274.5,331C 196.388,284.257 127.888,225.757 69,155.5C 61.206,146.219 54.0394,136.553 47.5,126.5C 48.1667,126.5 48.5,126.167 48.5,125.5 Z"/></g>
<g><path style="opacity:1" fill="#5fc6e7" d="M 61.5,125.5 C 63.1898,125.856 64.1898,126.856 64.5,128.5C 63.391,128.443 62.391,128.11 61.5,127.5C 61.5,126.833 61.5,126.167 61.5,125.5 Z"/></g>
<g><path style="opacity:1" fill="#5fc5e7" d="M 235.5,125.5 C 237.67,126.768 239.837,126.768 242,125.5C 245.368,127.413 248.201,129.913 250.5,133C 251.833,136 251.833,139 250.5,142C 248.448,144.706 245.781,146.706 242.5,148C 243.696,148.654 243.696,149.154 242.5,149.5C 240.167,148.167 237.833,148.167 235.5,149.5C 234.304,149.154 234.304,148.654 235.5,148C 231.917,146.319 229.251,144.319 227.5,142C 226.167,139 226.167,136 227.5,133C 229.86,130.049 232.526,127.549 235.5,125.5 Z"/></g>
<g><path style="opacity:1" fill="#43b1e1" d="M 25.5,80.5 C 48.4989,119.864 76.1655,155.864 108.5,188.5C 107.833,188.5 107.167,188.5 106.5,188.5C 104.5,186.833 102.5,185.167 100.5,183.5C 98.9059,180.236 96.5725,177.569 93.5,175.5C 84.5683,164.563 75.2349,153.896 65.5,143.5C 64.8763,141.246 63.543,139.579 61.5,138.5C 60.8763,136.246 59.543,134.579 57.5,133.5C 57.2624,131.596 56.2624,130.262 54.5,129.5C 52.2624,124.929 49.2624,120.929 45.5,117.5C 40.5901,108.586 35.2567,99.9196 29.5,91.5C 28.4519,87.7356 27.1185,84.069 25.5,80.5 Z"/></g>
<g><path style="opacity:1" fill="#3caddf" d="M 54.5,129.5 C 56.2624,130.262 57.2624,131.596 57.5,133.5C 55.7376,132.738 54.7376,131.404 54.5,129.5 Z"/></g>
<g><path style="opacity:1" fill="#61c8e8" d="M 65.5,129.5 C 66.9063,129.973 67.573,130.973 67.5,132.5C 66.0937,132.027 65.427,131.027 65.5,129.5 Z"/></g>
<g><path style="opacity:1" fill="#61c8e7" d="M 235.5,129.5 C 242.283,128.213 246.283,130.88 247.5,137.5C 247.082,142.752 244.249,145.419 239,145.5C 232.607,145.11 229.941,141.777 231,135.5C 231.599,132.746 233.099,130.746 235.5,129.5 Z"/></g>
<g><path style="opacity:1" fill="#5bc3e6" d="M 61.5,127.5 C 62.391,128.11 63.391,128.443 64.5,128.5C 64.5,129.167 64.8333,129.5 65.5,129.5C 65.427,131.027 66.0937,132.027 67.5,132.5C 67.5,133.167 67.8333,133.5 68.5,133.5C 68.427,135.027 69.0937,136.027 70.5,136.5C 70.5,137.5 70.5,138.5 70.5,139.5C 66.7376,136.071 63.7376,132.071 61.5,127.5 Z"/></g>
<g><path style="opacity:1" fill="#3bacdf" d="M 57.5,133.5 C 59.543,134.579 60.8763,136.246 61.5,138.5C 60.8333,138.5 60.1667,138.5 59.5,138.5C 58.8333,136.833 58.1667,135.167 57.5,133.5 Z"/></g>
<g><path style="opacity:1" fill="#62c8e8" d="M 68.5,133.5 C 69.9063,133.973 70.573,134.973 70.5,136.5C 69.0937,136.027 68.427,135.027 68.5,133.5 Z"/></g>
<g><path style="opacity:1" fill="#64cae8" d="M 236.5,133.5 C 242.62,133.259 244.287,135.759 241.5,141C 235.206,141.578 233.539,139.078 236.5,133.5 Z"/></g>
<g><path style="opacity:1" fill="#60c7e7" d="M 70.5,136.5 C 72.2624,137.262 73.2624,138.596 73.5,140.5C 72.609,139.89 71.609,139.557 70.5,139.5C 70.5,138.5 70.5,137.5 70.5,136.5 Z"/></g>
<g><path style="opacity:1" fill="#35a9de" d="M 59.5,138.5 C 60.1667,138.5 60.8333,138.5 61.5,138.5C 62.1667,140.167 62.8333,141.833 63.5,143.5C 61.457,142.421 60.1237,140.754 59.5,138.5 Z"/></g>
<g><path style="opacity:1" fill="#3cacdf" d="M 61.5,138.5 C 63.543,139.579 64.8763,141.246 65.5,143.5C 64.8333,143.5 64.1667,143.5 63.5,143.5C 62.8333,141.833 62.1667,140.167 61.5,138.5 Z"/></g>
<g><path style="opacity:1" fill="#5ac3e6" d="M 70.5,139.5 C 71.609,139.557 72.609,139.89 73.5,140.5C 74.2341,141.708 74.5674,143.041 74.5,144.5C 72.457,143.421 71.1237,141.754 70.5,139.5 Z"/></g>
<g><path style="opacity:1" fill="#60c7e7" d="M 73.5,140.5 C 75.5311,141.539 76.8645,143.205 77.5,145.5C 76.609,144.89 75.609,144.557 74.5,144.5C 74.5674,143.041 74.2341,141.708 73.5,140.5 Z"/></g>
<g><path style="opacity:1" fill="#5bc3e6" d="M 74.5,144.5 C 75.609,144.557 76.609,144.89 77.5,145.5C 78.2341,146.708 78.5674,148.041 78.5,149.5C 76.457,148.421 75.1237,146.754 74.5,144.5 Z"/></g>
<g><path style="opacity:1" fill="#60c7e7" d="M 77.5,145.5 C 79.5311,146.539 80.8645,148.205 81.5,150.5C 80.609,149.89 79.609,149.557 78.5,149.5C 78.5674,148.041 78.2341,146.708 77.5,145.5 Z"/></g>
<g><path style="opacity:1" fill="#39abdf" d="M 63.5,143.5 C 64.1667,143.5 64.8333,143.5 65.5,143.5C 75.2349,153.896 84.5683,164.563 93.5,175.5C 93.5,176.167 93.5,176.833 93.5,177.5C 82.4131,167.083 72.4131,155.749 63.5,143.5 Z"/></g>
<g><path style="opacity:1" fill="#5ac2e6" d="M 78.5,149.5 C 79.609,149.557 80.609,149.89 81.5,150.5C 81.427,152.027 82.0937,153.027 83.5,153.5C 83.5,154.167 83.5,154.833 83.5,155.5C 81.3674,153.909 79.7007,151.909 78.5,149.5 Z"/></g>
<g><path style="opacity:1" fill="#5fc6e7" d="M 81.5,150.5 C 82.9063,150.973 83.573,151.973 83.5,153.5C 82.0937,153.027 81.427,152.027 81.5,150.5 Z"/></g>
<g><path style="opacity:1" fill="#5fc6e7" d="M 83.5,153.5 C 85.5,153.5 86.5,154.5 86.5,156.5C 85.8333,156.5 85.1667,156.5 84.5,156.5C 83.8333,156.5 83.5,156.167 83.5,155.5C 83.5,154.833 83.5,154.167 83.5,153.5 Z"/></g>
<g><path style="opacity:1" fill="#61c8e7" d="M 86.5,156.5 C 88.1898,156.856 89.1898,157.856 89.5,159.5C 87.8102,159.144 86.8102,158.144 86.5,156.5 Z"/></g>
<g><path style="opacity:1" fill="#61c8e8" d="M 91.5,161.5 C 92.9063,161.973 93.573,162.973 93.5,164.5C 92.0937,164.027 91.427,163.027 91.5,161.5 Z"/></g>
<g><path style="opacity:1" fill="#5bc3e6" d="M 84.5,156.5 C 85.1667,156.5 85.8333,156.5 86.5,156.5C 86.8102,158.144 87.8102,159.144 89.5,159.5C 90.1667,160.167 90.8333,160.833 91.5,161.5C 91.427,163.027 92.0937,164.027 93.5,164.5C 94.2719,165.694 95.2719,166.694 96.5,167.5C 96.8333,168.833 97.1667,170.167 97.5,171.5C 92.8223,166.821 88.489,161.821 84.5,156.5 Z"/></g>
<g><path style="opacity:0.777" fill="#2ca4dd" d="M 341.5,249.5 C 340.391,249.443 339.391,249.11 338.5,248.5C 338.573,246.973 337.906,245.973 336.5,245.5C 331.563,237.291 325.896,229.624 319.5,222.5C 318.876,220.246 317.543,218.579 315.5,217.5C 314.876,215.246 313.543,213.579 311.5,212.5C 308.514,208.183 305.18,204.183 301.5,200.5C 298.877,196.209 295.544,192.543 291.5,189.5C 288.899,185.229 285.566,181.563 281.5,178.5C 280.833,177.833 280.167,177.167 279.5,176.5C 278.581,173.911 276.914,171.911 274.5,170.5C 275.172,169.733 276.005,169.066 277,168.5C 301.019,193.665 322.519,220.665 341.5,249.5 Z"/></g>
<g><path style="opacity:1" fill="#5fc6e7" d="M 96.5,167.5 C 98.914,168.911 100.581,170.911 101.5,173.5C 100.609,172.89 99.609,172.557 98.5,172.5C 97.8333,172.5 97.5,172.167 97.5,171.5C 97.1667,170.167 96.8333,168.833 96.5,167.5 Z"/></g>
<g><path style="opacity:1" fill="#35a8de" d="M 273.5,170.5 C 273.833,170.5 274.167,170.5 274.5,170.5C 276.914,171.911 278.581,173.911 279.5,176.5C 277.167,174.833 275.167,172.833 273.5,170.5 Z"/></g>
<g><path style="opacity:0.627" fill="#44b2e1" d="M 270.5,172.5 C 270.842,171.662 271.508,171.328 272.5,171.5C 275.167,174.5 277.833,177.5 280.5,180.5C 280.5,181.167 280.5,181.833 280.5,182.5C 277.527,178.86 274.194,175.527 270.5,172.5 Z"/></g>
<g><path style="opacity:1" fill="#3cacdf" d="M 273.5,170.5 C 275.167,172.833 277.167,174.833 279.5,176.5C 280.167,177.167 280.833,177.833 281.5,178.5C 281.5,179.167 281.5,179.833 281.5,180.5C 281.167,180.5 280.833,180.5 280.5,180.5C 277.833,177.5 275.167,174.5 272.5,171.5C 272.5,170.833 272.833,170.5 273.5,170.5 Z"/></g>
<g><path style="opacity:1" fill="#3cacdf" d="M 93.5,175.5 C 96.5725,177.569 98.9059,180.236 100.5,183.5C 98.5,181.833 96.5,180.167 94.5,178.5C 94.5,177.833 94.1667,177.5 93.5,177.5C 93.5,176.833 93.5,176.167 93.5,175.5 Z"/></g>
<g><path style="opacity:1" fill="#37aade" d="M 281.5,178.5 C 285.566,181.563 288.899,185.229 291.5,189.5C 289.833,188.167 288.167,186.833 286.5,185.5C 284.473,184.139 282.806,182.473 281.5,180.5C 281.5,179.833 281.5,179.167 281.5,178.5 Z"/></g>
<g><path style="opacity:1" fill="#3cacdf" d="M 286.5,185.5 C 288.167,186.833 289.833,188.167 291.5,189.5C 291.5,190.167 291.5,190.833 291.5,191.5C 289.086,190.089 287.419,188.089 286.5,185.5 Z"/></g>
<g><path style="opacity:1" fill="#37aade" d="M 94.5,178.5 C 96.5,180.167 98.5,181.833 100.5,183.5C 102.5,185.167 104.5,186.833 106.5,188.5C 112.826,196.492 119.826,203.825 127.5,210.5C 129.833,213.167 132.167,215.833 134.5,218.5C 133.761,218.631 133.094,218.464 132.5,218C 119.244,205.247 106.578,192.081 94.5,178.5 Z"/></g>
<g><path style="opacity:1" fill="#40b0e1" d="M 106.5,188.5 C 107.167,188.5 107.833,188.5 108.5,188.5C 114.833,195.5 121.5,202.167 128.5,208.5C 128.5,209.167 128.5,209.833 128.5,210.5C 128.167,210.5 127.833,210.5 127.5,210.5C 119.826,203.825 112.826,196.492 106.5,188.5 Z"/></g>
<g><path style="opacity:1" fill="#3caddf" d="M 294.5,194.5 C 296.587,195.585 297.92,197.251 298.5,199.5C 296.413,198.415 295.08,196.749 294.5,194.5 Z"/></g>
<g><path style="opacity:1" fill="#36a9de" d="M 291.5,189.5 C 295.544,192.543 298.877,196.209 301.5,200.5C 300.833,200.5 300.167,200.5 299.5,200.5C 299.5,199.833 299.167,199.5 298.5,199.5C 297.92,197.251 296.587,195.585 294.5,194.5C 293.272,193.694 292.272,192.694 291.5,191.5C 291.5,190.833 291.5,190.167 291.5,189.5 Z"/></g>
<g><path style="opacity:1" fill="#54bde4" d="M 196.5,104.5 C 196.167,105.167 195.833,105.833 195.5,106.5C 184.379,97.0381 172.712,88.3714 160.5,80.5C 160.5,79.8333 160.167,79.5 159.5,79.5C 146.527,69.0069 132.527,60.0069 117.5,52.5C 114.992,50.0764 111.992,48.4097 108.5,47.5C 92.1718,37.3277 74.5051,30.1611 55.5,26C 49.1667,25.3333 42.8333,25.3333 36.5,26C 26.3542,28.9897 21.3542,35.823 21.5,46.5C 22.2093,53.6705 23.7093,60.6705 26,67.5C 33.6391,86.7983 43.8058,104.465 56.5,120.5C 56.427,122.027 57.0937,123.027 58.5,123.5C 58.7376,125.404 59.7376,126.738 61.5,127.5C 63.7376,132.071 66.7376,136.071 70.5,139.5C 71.1237,141.754 72.457,143.421 74.5,144.5C 75.1237,146.754 76.457,148.421 78.5,149.5C 79.7007,151.909 81.3674,153.909 83.5,155.5C 83.5,156.167 83.8333,156.5 84.5,156.5C 88.489,161.821 92.8223,166.821 97.5,171.5C 97.5,172.167 97.8333,172.5 98.5,172.5C 102.127,177.794 106.46,182.461 111.5,186.5C 112.167,187.833 113.167,188.833 114.5,189.5C 120.5,196.167 126.833,202.5 133.5,208.5C 135.569,211.573 138.236,213.906 141.5,215.5C 144.895,219.898 148.895,223.564 153.5,226.5C 156.874,230.876 160.874,234.542 165.5,237.5C 167.091,239.633 169.091,241.299 171.5,242.5C 172.262,244.262 173.596,245.262 175.5,245.5C 175.833,246.5 176.5,247.167 177.5,247.5C 179.091,249.633 181.091,251.299 183.5,252.5C 186.19,255.185 189.19,257.518 192.5,259.5C 196.254,263.548 200.587,266.882 205.5,269.5C 206.436,270.974 207.77,271.974 209.5,272.5C 211.531,274.522 213.865,276.189 216.5,277.5C 216.973,278.906 217.973,279.573 219.5,279.5C 232.313,289.413 245.98,298.079 260.5,305.5C 277.748,316.617 296.414,324.784 316.5,330C 347.953,336.549 359.453,324.383 351,293.5C 345.222,277.272 337.389,262.272 327.5,248.5C 327.155,245.802 325.822,243.802 323.5,242.5C 323.573,240.973 322.906,239.973 321.5,239.5C 321.573,237.973 320.906,236.973 319.5,236.5C 318.214,233.883 316.547,231.55 314.5,229.5C 314.262,227.596 313.262,226.262 311.5,225.5C 307.22,218.613 302.22,212.279 296.5,206.5C 295.557,203.891 293.89,201.891 291.5,200.5C 290.2,197.568 288.2,195.234 285.5,193.5C 285.5,192.833 285.167,192.5 284.5,192.5C 279.167,186.167 273.833,179.833 268.5,173.5C 268.5,172.833 268.833,172.5 269.5,172.5C 279.163,182.998 288.663,193.665 298,204.5C 317.743,227.925 334.743,253.258 349,280.5C 354.089,290.763 356.922,301.597 357.5,313C 358.679,321.975 355.346,328.642 347.5,333C 335.773,336.331 324.107,335.998 312.5,332C 296.506,326.89 281.173,320.223 266.5,312C 184.589,263.057 114.422,200.557 56,124.5C 40.6538,104.446 28.6538,82.4455 20,58.5C 13.1865,27.6491 25.3532,15.8158 56.5,23C 75.7852,28.3194 94.1185,35.9861 111.5,46C 141.282,63.5447 169.616,83.0447 196.5,104.5 Z"/></g>
<g><path style="opacity:1" fill="#61c8e8" d="M 291.5,202.5 C 292.401,203.29 293.068,204.29 293.5,205.5C 291.952,205.179 291.285,204.179 291.5,202.5 Z"/></g>
<g><path style="opacity:1" fill="#61c8e8" d="M 130.5,203.5 C 132.027,203.427 133.027,204.094 133.5,205.5C 131.973,205.573 130.973,204.906 130.5,203.5 Z"/></g>
<g><path style="opacity:1" fill="#5ac3e6" d="M 291.5,200.5 C 293.89,201.891 295.557,203.891 296.5,206.5C 295.391,206.443 294.391,206.11 293.5,205.5C 293.068,204.29 292.401,203.29 291.5,202.5C 291.5,201.833 291.5,201.167 291.5,200.5 Z"/></g>
<g><path style="opacity:1" fill="#60c7e7" d="M 288.5,199.5 C 289.391,200.11 290.391,200.443 291.5,200.5C 291.5,201.167 291.5,201.833 291.5,202.5C 289.5,202.5 288.5,201.5 288.5,199.5 Z"/></g>
<g><path style="opacity:1" fill="#5bc3e6" d="M 285.5,193.5 C 288.2,195.234 290.2,197.568 291.5,200.5C 290.391,200.443 289.391,200.11 288.5,199.5C 287.599,198.71 286.932,197.71 286.5,196.5C 285.89,195.609 285.557,194.609 285.5,193.5 Z"/></g>
<g><path style="opacity:1" fill="#5fc5e7" d="M 282.5,192.5 C 283.167,192.5 283.833,192.5 284.5,192.5C 285.167,192.5 285.5,192.833 285.5,193.5C 285.557,194.609 285.89,195.609 286.5,196.5C 284.5,195.833 283.167,194.5 282.5,192.5 Z"/></g>
<g><path style="opacity:1" fill="#5dc4e7" d="M 114.5,189.5 C 115.609,189.557 116.609,189.89 117.5,190.5C 122.167,194.5 126.5,198.833 130.5,203.5C 130.973,204.906 131.973,205.573 133.5,205.5C 134.5,205.833 135.167,206.5 135.5,207.5C 135.5,207.833 135.5,208.167 135.5,208.5C 134.833,208.5 134.167,208.5 133.5,208.5C 126.833,202.5 120.5,196.167 114.5,189.5 Z"/></g>
<g><path style="opacity:1" fill="#61c7e7" d="M 276.5,186.5 C 278.5,186.5 279.5,187.5 279.5,189.5C 278.167,188.833 277.167,187.833 276.5,186.5 Z"/></g>
<g><path style="opacity:1" fill="#5fc6e7" d="M 108.5,180.5 C 112.234,183.231 115.234,186.564 117.5,190.5C 116.609,189.89 115.609,189.557 114.5,189.5C 113.167,188.833 112.167,187.833 111.5,186.5C 110.5,184.5 109.5,182.5 108.5,180.5 Z"/></g>
<g><path style="opacity:1" fill="#61c8e8" d="M 273.5,182.5 C 274.906,182.973 275.573,183.973 275.5,185.5C 274.094,185.027 273.427,184.027 273.5,182.5 Z"/></g>
<g><path style="opacity:1" fill="#5cc3e6" d="M 266.5,173.5 C 267.167,173.5 267.833,173.5 268.5,173.5C 273.833,179.833 279.167,186.167 284.5,192.5C 283.833,192.5 283.167,192.5 282.5,192.5C 281.728,191.306 280.728,190.306 279.5,189.5C 279.5,187.5 278.5,186.5 276.5,186.5C 276.5,185.833 276.167,185.5 275.5,185.5C 275.573,183.973 274.906,182.973 273.5,182.5C 270.791,179.792 268.458,176.792 266.5,173.5 Z"/></g>
<g><path style="opacity:1" fill="#5bc3e6" d="M 98.5,172.5 C 99.609,172.557 100.609,172.89 101.5,173.5C 103.473,176.139 105.806,178.473 108.5,180.5C 109.5,182.5 110.5,184.5 111.5,186.5C 106.46,182.461 102.127,177.794 98.5,172.5 Z"/></g>
<g><path style="opacity:1" fill="#61c8e7" d="M 178.5,95.5 C 180.754,96.1237 182.421,97.457 183.5,99.5C 181.205,98.8645 179.539,97.5311 178.5,95.5 Z"/></g>
<g><path style="opacity:1" fill="#60c7e7" d="M 157.5,79.5 C 158.167,79.5 158.833,79.5 159.5,79.5C 160.167,79.5 160.5,79.8333 160.5,80.5C 161.833,82.1667 163.167,83.8333 164.5,85.5C 161.527,84.1897 159.193,82.1897 157.5,79.5 Z"/></g>
<g><path style="opacity:1" fill="#61c7e7" d="M 31.5,73.5 C 32.1667,73.8333 32.8333,74.1667 33.5,74.5C 37.2415,82.9821 41.2415,91.3155 45.5,99.5C 43.8712,98.3747 42.3712,97.0414 41,95.5C 37.4959,88.1744 34.3293,80.8411 31.5,73.5 Z"/></g>
<g><path style="opacity:1" fill="#61c9e7" d="M 149.5,74.5 C 152.135,75.8109 154.469,77.4776 156.5,79.5C 153.281,78.9307 150.948,77.264 149.5,74.5 Z"/></g>
<g><path style="opacity:1" fill="#61c9e8" d="M 139.5,68.5 C 141.153,68.6596 142.486,69.3263 143.5,70.5C 141.62,70.7709 140.287,70.1042 139.5,68.5 Z"/></g>
<g><path style="opacity:1" fill="#61c8e7" d="M 135.5,65.5 C 137.404,65.7376 138.738,66.7376 139.5,68.5C 137.596,68.2624 136.262,67.2624 135.5,65.5 Z"/></g>
<g><path style="opacity:1" fill="#61c8e7" d="M 132.5,63.5 C 134.027,63.427 135.027,64.0937 135.5,65.5C 133.973,65.573 132.973,64.9063 132.5,63.5 Z"/></g>
<g><path style="opacity:1" fill="#61c8e7" d="M 128.5,60.5 C 130.122,61.1224 131.455,62.1224 132.5,63.5C 130.027,63.9118 128.694,62.9118 128.5,60.5 Z"/></g>
<g><path style="opacity:1" fill="#5fc5e7" d="M 66.5,31.5 C 33.7001,23.633 21.3668,35.9663 29.5,68.5C 28.6087,66.7095 27.6087,64.8761 26.5,63C 26.8333,62.6667 27.1667,62.3333 27.5,62C 25.9861,60.561 25.6527,59.061 26.5,57.5C 25.5535,55.941 24.8868,54.2743 24.5,52.5C 25.0862,48.8045 25.7528,45.1379 26.5,41.5C 25.0977,40.1575 25.4311,39.3242 27.5,39C 26.3659,37.984 26.6992,37.3173 28.5,37C 27.1667,36.3333 27.1667,35.6667 28.5,35C 30.7126,33.245 32.8793,31.4117 35,29.5C 35.3333,29.8333 35.6667,30.1667 36,30.5C 41.2121,29.0425 46.5455,28.0425 52,27.5C 55.7752,28.9477 59.4419,29.9477 63,30.5C 64.313,29.7129 65.4797,30.0462 66.5,31.5 Z"/></g>
<g><path style="opacity:1" fill="#61c8e8" d="M 123.5,58.5 C 125.38,58.2291 126.713,58.8958 127.5,60.5C 125.62,60.7709 124.287,60.1042 123.5,58.5 Z"/></g>
<g><path style="opacity:1" fill="#5bc3e6" d="M 117.5,52.5 C 132.527,60.0069 146.527,69.0069 159.5,79.5C 158.833,79.5 158.167,79.5 157.5,79.5C 157.167,79.5 156.833,79.5 156.5,79.5C 154.469,77.4776 152.135,75.8109 149.5,74.5C 147.795,72.8079 145.795,71.4746 143.5,70.5C 142.486,69.3263 141.153,68.6596 139.5,68.5C 138.738,66.7376 137.404,65.7376 135.5,65.5C 135.027,64.0937 134.027,63.427 132.5,63.5C 131.455,62.1224 130.122,61.1224 128.5,60.5C 128.167,60.5 127.833,60.5 127.5,60.5C 126.713,58.8958 125.38,58.2291 123.5,58.5C 123.5,57.8333 123.167,57.5 122.5,57.5C 120.64,56.0613 118.973,54.3947 117.5,52.5 Z"/></g>
<g><path style="opacity:1" fill="#60c7e7" d="M 109.5,49.5 C 111.928,51.0435 114.594,52.0435 117.5,52.5C 118.973,54.3947 120.64,56.0613 122.5,57.5C 120.821,57.1077 119.154,56.6077 117.5,56C 114.998,53.8938 112.332,52.0604 109.5,50.5C 109.5,50.1667 109.5,49.8333 109.5,49.5 Z"/></g>
<g><path style="opacity:1" fill="#5ac2e6" d="M 108.5,47.5 C 111.992,48.4097 114.992,50.0764 117.5,52.5C 114.594,52.0435 111.928,51.0435 109.5,49.5C 109.167,48.8333 108.833,48.1667 108.5,47.5 Z"/></g>
<g><path style="opacity:1" fill="#62c9e8" d="M 97.5,44.5 C 101.5,46.1667 105.5,47.8333 109.5,49.5C 109.5,49.8333 109.5,50.1667 109.5,50.5C 104.914,49.5402 100.914,47.5402 97.5,44.5 Z"/></g>
<g><path style="opacity:1" fill="#5fc5e7" d="M 91.5,40.5 C 97.2701,42.5507 102.937,44.8841 108.5,47.5C 108.833,48.1667 109.167,48.8333 109.5,49.5C 105.5,47.8333 101.5,46.1667 97.5,44.5C 95.847,44.3404 94.5137,43.6737 93.5,42.5C 92.8333,41.8333 92.1667,41.1667 91.5,40.5 Z"/></g>
<g><path style="opacity:1" fill="#61c8e7" d="M 78.5,36.5 C 80.2161,36.6287 81.8828,36.962 83.5,37.5C 86.5351,37.5393 89.2018,38.5393 91.5,40.5C 92.1667,41.1667 92.8333,41.8333 93.5,42.5C 89.0025,40.7664 84.3358,39.2664 79.5,38C 78.944,37.6174 78.6107,37.1174 78.5,36.5 Z"/></g>
<g><path style="opacity:1" fill="#5fc6e7" d="M 83.5,37.5 C 81.8828,36.962 80.2161,36.6287 78.5,36.5C 78.1667,36.5 77.8333,36.5 77.5,36.5C 77.1667,35.8333 76.8333,35.1667 76.5,34.5C 76.4346,34.0618 76.6012,33.7284 77,33.5C 79.3013,34.7599 81.4679,36.0933 83.5,37.5 Z"/></g>
<g><path style="opacity:1" fill="#5ec5e7" d="M 75.5,34.5 C 73.3024,34.1249 71.3024,33.4582 69.5,32.5C 71.8299,31.7199 73.8299,32.3866 75.5,34.5 Z"/></g>
<g><path style="opacity:1" fill="#61c8e7" d="M 66.5,31.5 C 67.8946,30.1854 68.8946,30.5188 69.5,32.5C 71.3024,33.4582 73.3024,34.1249 75.5,34.5C 75.8333,34.5 76.1667,34.5 76.5,34.5C 76.8333,35.1667 77.1667,35.8333 77.5,36.5C 77.5654,36.9382 77.3988,37.2716 77,37.5C 76.1475,35.8753 75.1475,35.5419 74,36.5C 68.2458,33.7767 62.4124,32.11 56.5,31.5C 53.1667,32.8333 49.8333,32.8333 46.5,31.5C 44.9707,31.5288 43.804,32.1955 43,33.5C 41.6054,32.1854 40.6054,32.5188 40,34.5C 39.6667,34.1667 39.3333,33.8333 39,33.5C 38.6827,35.3008 38.016,35.6341 37,34.5C 34.3738,37.2017 32.2072,39.7017 30.5,42C 30.8333,42.3333 31.1667,42.6667 31.5,43C 29.5188,43.6054 29.1854,44.6054 30.5,46C 27.9239,50.4015 27.9239,54.9015 30.5,59.5C 30.1667,60.1667 29.8333,60.8333 29.5,61.5C 31.1376,62.7046 31.4709,64.0379 30.5,65.5C 31.6303,68.4531 32.9636,71.2865 34.5,74C 34.2716,74.3988 33.9382,74.5654 33.5,74.5C 32.8333,74.1667 32.1667,73.8333 31.5,73.5C 31.6085,71.4862 30.9418,69.8195 29.5,68.5C 21.3668,35.9663 33.7001,23.633 66.5,31.5 Z"/></g>
<g><path style="opacity:1" fill="#3caddf" d="M 299.5,200.5 C 300.167,200.5 300.833,200.5 301.5,200.5C 302.5,202.5 303.5,204.5 304.5,206.5C 301.902,205.32 300.236,203.32 299.5,200.5 Z"/></g>
<g><path style="opacity:1" fill="#36a9de" d="M 301.5,200.5 C 305.18,204.183 308.514,208.183 311.5,212.5C 310.833,212.5 310.167,212.5 309.5,212.5C 309.262,210.596 308.262,209.262 306.5,208.5C 305.5,208.167 304.833,207.5 304.5,206.5C 303.5,204.5 302.5,202.5 301.5,200.5 Z"/></g>
<g><path style="opacity:1" fill="#60c7e7" d="M 293.5,205.5 C 294.391,206.11 295.391,206.443 296.5,206.5C 296.5,207.167 296.5,207.833 296.5,208.5C 294.5,208.5 293.5,207.5 293.5,205.5 Z"/></g>
<g><path style="opacity:1" fill="#59c2e6" d="M 133.5,208.5 C 134.167,208.5 134.833,208.5 135.5,208.5C 137.5,210.833 139.5,213.167 141.5,215.5C 138.236,213.906 135.569,211.573 133.5,208.5 Z"/></g>
<g><path style="opacity:1" fill="#60c7e7" d="M 135.5,207.5 C 138.5,209.833 141.167,212.5 143.5,215.5C 142.833,215.5 142.167,215.5 141.5,215.5C 139.5,213.167 137.5,210.833 135.5,208.5C 135.5,208.167 135.5,207.833 135.5,207.5 Z"/></g>
<g><path style="opacity:1" fill="#45b2e1" d="M 128.5,208.5 C 132.167,211.5 135.5,214.833 138.5,218.5C 134.897,216.237 131.564,213.57 128.5,210.5C 128.5,209.833 128.5,209.167 128.5,208.5 Z"/></g>
<g><path style="opacity:1" fill="#61c8e8" d="M 297.5,210.5 C 298.906,210.973 299.573,211.973 299.5,213.5C 298.094,213.027 297.427,212.027 297.5,210.5 Z"/></g>
<g><path style="opacity:1" fill="#3eaddf" d="M 306.5,208.5 C 308.262,209.262 309.262,210.596 309.5,212.5C 307.468,211.952 306.468,210.619 306.5,208.5 Z"/></g>
<g><path style="opacity:1" fill="#3caddf" d="M 309.5,212.5 C 310.167,212.5 310.833,212.5 311.5,212.5C 312.167,214.167 312.833,215.833 313.5,217.5C 311.312,216.556 309.979,214.889 309.5,212.5 Z"/></g>
<g><path style="opacity:1" fill="#3caddf" d="M 127.5,210.5 C 127.833,210.5 128.167,210.5 128.5,210.5C 131.564,213.57 134.897,216.237 138.5,218.5C 138.557,219.609 138.89,220.609 139.5,221.5C 138.833,221.5 138.167,221.5 137.5,221.5C 136.694,220.272 135.694,219.272 134.5,218.5C 132.167,215.833 129.833,213.167 127.5,210.5 Z"/></g>
<g><path style="opacity:1" fill="#5bc3e6" d="M 296.5,206.5 C 302.22,212.279 307.22,218.613 311.5,225.5C 310.391,225.443 309.391,225.11 308.5,224.5C 307.211,223.363 306.211,222.03 305.5,220.5C 304.167,220.5 303.5,219.833 303.5,218.5C 303.573,216.973 302.906,215.973 301.5,215.5C 301.167,214.5 300.5,213.833 299.5,213.5C 299.573,211.973 298.906,210.973 297.5,210.5C 296.662,210.158 296.328,209.492 296.5,208.5C 296.5,207.833 296.5,207.167 296.5,206.5 Z"/></g>
<g><path style="opacity:1" fill="#61c8e8" d="M 301.5,215.5 C 302.906,215.973 303.573,216.973 303.5,218.5C 302.094,218.027 301.427,217.027 301.5,215.5 Z"/></g>
<g><path style="opacity:1" fill="#35a9de" d="M 311.5,212.5 C 313.543,213.579 314.876,215.246 315.5,217.5C 314.833,217.5 314.167,217.5 313.5,217.5C 312.833,215.833 312.167,214.167 311.5,212.5 Z"/></g>
<g><path style="opacity:1" fill="#3cacdf" d="M 313.5,217.5 C 314.167,217.5 314.833,217.5 315.5,217.5C 316.167,219.167 316.833,220.833 317.5,222.5C 315.457,221.421 314.124,219.754 313.5,217.5 Z"/></g>
<g><path style="opacity:1" fill="#5bc3e6" d="M 141.5,215.5 C 142.167,215.5 142.833,215.5 143.5,215.5C 145.269,218.277 147.602,220.277 150.5,221.5C 151.075,223.411 152.075,225.078 153.5,226.5C 148.895,223.564 144.895,219.898 141.5,215.5 Z"/></g>
<g><path style="opacity:1" fill="#61c8e7" d="M 303.5,218.5 C 304.833,218.5 305.5,219.167 305.5,220.5C 305.5,219.167 304.833,218.5 303.5,218.5 Z"/></g>
<g><path style="opacity:1" fill="#43b1e1" d="M 280.5,180.5 C 280.833,180.5 281.167,180.5 281.5,180.5C 282.806,182.473 284.473,184.139 286.5,185.5C 287.419,188.089 289.086,190.089 291.5,191.5C 292.272,192.694 293.272,193.694 294.5,194.5C 295.08,196.749 296.413,198.415 298.5,199.5C 299.167,199.5 299.5,199.833 299.5,200.5C 300.236,203.32 301.902,205.32 304.5,206.5C 304.833,207.5 305.5,208.167 306.5,208.5C 306.468,210.619 307.468,211.952 309.5,212.5C 309.979,214.889 311.312,216.556 313.5,217.5C 314.124,219.754 315.457,221.421 317.5,222.5C 318.124,224.754 319.457,226.421 321.5,227.5C 323.016,230.533 325.016,233.2 327.5,235.5C 327.427,237.027 328.094,238.027 329.5,238.5C 329.5,239.167 329.5,239.833 329.5,240.5C 329.5,241.167 329.5,241.833 329.5,242.5C 314.124,221.765 297.79,201.765 280.5,182.5C 280.5,181.833 280.5,181.167 280.5,180.5 Z"/></g>
<g><path style="opacity:1" fill="#35a9de" d="M 315.5,217.5 C 317.543,218.579 318.876,220.246 319.5,222.5C 318.833,222.5 318.167,222.5 317.5,222.5C 316.833,220.833 316.167,219.167 315.5,217.5 Z"/></g>
<g><path style="opacity:1" fill="#61c7e7" d="M 150.5,221.5 C 152.882,223.215 154.882,225.215 156.5,227.5C 155.609,226.89 154.609,226.557 153.5,226.5C 152.075,225.078 151.075,223.411 150.5,221.5 Z"/></g>
<g><path style="opacity:1" fill="#3cacdf" d="M 317.5,222.5 C 318.167,222.5 318.833,222.5 319.5,222.5C 320.167,224.167 320.833,225.833 321.5,227.5C 319.457,226.421 318.124,224.754 317.5,222.5 Z"/></g>
<g><path style="opacity:1" fill="#60c7e7" d="M 308.5,224.5 C 309.391,225.11 310.391,225.443 311.5,225.5C 311.5,226.5 311.5,227.5 311.5,228.5C 309.554,227.965 308.554,226.632 308.5,224.5 Z"/></g>
<g><path style="opacity:1" fill="#36a9de" d="M 137.5,221.5 C 138.167,221.5 138.833,221.5 139.5,221.5C 141.139,222.473 142.473,223.806 143.5,225.5C 144.833,227.167 146.167,228.833 147.5,230.5C 143.564,228.234 140.231,225.234 137.5,221.5 Z"/></g>
<g><path style="opacity:1" fill="#3caddf" d="M 143.5,225.5 C 146.427,226.757 148.761,228.757 150.5,231.5C 149.391,231.443 148.391,231.11 147.5,230.5C 146.167,228.833 144.833,227.167 143.5,225.5 Z"/></g>
<g><path style="opacity:1" fill="#5ac3e6" d="M 311.5,225.5 C 313.262,226.262 314.262,227.596 314.5,229.5C 313.391,229.443 312.391,229.11 311.5,228.5C 311.5,227.5 311.5,226.5 311.5,225.5 Z"/></g>
<g><path style="opacity:1" fill="#5bc3e6" d="M 153.5,226.5 C 154.609,226.557 155.609,226.89 156.5,227.5C 157.222,228.551 158.222,229.218 159.5,229.5C 160.144,232.144 161.811,233.811 164.5,234.5C 165.167,234.5 165.5,234.833 165.5,235.5C 165.5,236.167 165.5,236.833 165.5,237.5C 160.874,234.542 156.874,230.876 153.5,226.5 Z"/></g>
<g><path style="opacity:1" fill="#61c8e7" d="M 159.5,229.5 C 161.549,230.882 163.215,232.548 164.5,234.5C 161.811,233.811 160.144,232.144 159.5,229.5 Z"/></g>
<g><path style="opacity:1" fill="#61c8e7" d="M 311.5,228.5 C 312.391,229.11 313.391,229.443 314.5,229.5C 314.604,231.703 315.27,233.703 316.5,235.5C 315.624,235.631 314.957,235.298 314.5,234.5C 313.63,232.374 312.63,230.374 311.5,228.5 Z"/></g>
<g><path style="opacity:1" fill="#5bc3e6" d="M 314.5,229.5 C 316.547,231.55 318.214,233.883 319.5,236.5C 318.391,236.443 317.391,236.11 316.5,235.5C 315.27,233.703 314.604,231.703 314.5,229.5 Z"/></g>
<g><path style="opacity:1" fill="#37aade" d="M 319.5,222.5 C 325.896,229.624 331.563,237.291 336.5,245.5C 335.833,245.5 335.167,245.5 334.5,245.5C 333.578,243.184 331.911,241.517 329.5,240.5C 329.5,239.833 329.5,239.167 329.5,238.5C 329.573,236.973 328.906,235.973 327.5,235.5C 325.016,233.2 323.016,230.533 321.5,227.5C 320.833,225.833 320.167,224.167 319.5,222.5 Z"/></g>
<g><path style="opacity:1" fill="#36aade" d="M 147.5,230.5 C 148.391,231.11 149.391,231.443 150.5,231.5C 151.694,232.272 152.694,233.272 153.5,234.5C 154.5,235.833 155.5,237.167 156.5,238.5C 152.854,236.518 149.854,233.851 147.5,230.5 Z"/></g>
<g><path style="opacity:1" fill="#3cacdf" d="M 153.5,234.5 C 156.764,236.094 159.431,238.427 161.5,241.5C 160.833,241.5 160.167,241.5 159.5,241.5C 158.272,240.694 157.272,239.694 156.5,238.5C 155.5,237.167 154.5,235.833 153.5,234.5 Z"/></g>
<g><path style="opacity:1" fill="#3caddf" d="M 327.5,235.5 C 328.906,235.973 329.573,236.973 329.5,238.5C 328.094,238.027 327.427,237.027 327.5,235.5 Z"/></g>
<g><path style="opacity:1" fill="#60c6e7" d="M 165.5,235.5 C 167.404,235.738 168.738,236.738 169.5,238.5C 168.167,238.167 166.833,237.833 165.5,237.5C 165.5,236.833 165.5,236.167 165.5,235.5 Z"/></g>
<g><path style="opacity:1" fill="#5ac2e6" d="M 319.5,236.5 C 320.906,236.973 321.573,237.973 321.5,239.5C 320.094,239.027 319.427,238.027 319.5,236.5 Z"/></g>
<g><path style="opacity:1" fill="#43b1e1" d="M 138.5,218.5 C 151.833,230.167 165.167,241.833 178.5,253.5C 177.022,253.762 175.689,253.429 174.5,252.5C 170.446,248.442 166.113,244.775 161.5,241.5C 159.431,238.427 156.764,236.094 153.5,234.5C 152.694,233.272 151.694,232.272 150.5,231.5C 148.761,228.757 146.427,226.757 143.5,225.5C 142.473,223.806 141.139,222.473 139.5,221.5C 138.89,220.609 138.557,219.609 138.5,218.5 Z"/></g>
<g><path style="opacity:1" fill="#5bc3e6" d="M 165.5,237.5 C 166.833,237.833 168.167,238.167 169.5,238.5C 169.833,239.5 170.5,240.167 171.5,240.5C 171.5,241.167 171.5,241.833 171.5,242.5C 169.091,241.299 167.091,239.633 165.5,237.5 Z"/></g>
<g><path style="opacity:1" fill="#5ac2e6" d="M 321.5,239.5 C 322.906,239.973 323.573,240.973 323.5,242.5C 322.094,242.027 321.427,241.027 321.5,239.5 Z"/></g>
<g><path style="opacity:1" fill="#35a9de" d="M 159.5,241.5 C 160.167,241.5 160.833,241.5 161.5,241.5C 162.167,242.5 162.833,243.5 163.5,244.5C 161.596,244.262 160.262,243.262 159.5,241.5 Z"/></g>
<g><path style="opacity:1" fill="#39abdf" d="M 161.5,241.5 C 166.113,244.775 170.446,248.442 174.5,252.5C 175.689,253.429 177.022,253.762 178.5,253.5C 180.509,256.365 182.842,259.032 185.5,261.5C 184.833,261.5 184.167,261.5 183.5,261.5C 176.269,256.61 169.602,250.944 163.5,244.5C 162.833,243.5 162.167,242.5 161.5,241.5 Z"/></g>
<g><path style="opacity:1" fill="#5ac2e6" d="M 171.5,242.5 C 173.404,242.738 174.738,243.738 175.5,245.5C 173.596,245.262 172.262,244.262 171.5,242.5 Z"/></g>
<g><path style="opacity:1" fill="#48b3e1" d="M 329.5,242.5 C 330.906,242.973 331.573,243.973 331.5,245.5C 330.094,245.027 329.427,244.027 329.5,242.5 Z"/></g>
<g><path style="opacity:1" fill="#3fafe0" d="M 329.5,240.5 C 331.911,241.517 333.578,243.184 334.5,245.5C 334.5,245.833 334.5,246.167 334.5,246.5C 334.167,246.5 333.833,246.5 333.5,246.5C 332.833,246.167 332.167,245.833 331.5,245.5C 331.573,243.973 330.906,242.973 329.5,242.5C 329.5,241.833 329.5,241.167 329.5,240.5 Z"/></g>
<g><path style="opacity:1" fill="#60c7e7" d="M 316.5,235.5 C 317.391,236.11 318.391,236.443 319.5,236.5C 319.427,238.027 320.094,239.027 321.5,239.5C 321.427,241.027 322.094,242.027 323.5,242.5C 324.34,244.853 325.674,246.853 327.5,248.5C 327.485,252.471 329.152,255.471 332.5,257.5C 333.174,259.195 333.841,260.862 334.5,262.5C 334.833,263.833 335.167,265.167 335.5,266.5C 334.542,266.047 333.708,265.381 333,264.5C 328.016,254.531 322.516,244.865 316.5,235.5 Z"/></g>
<g><path style="opacity:1" fill="#59c2e6" d="M 323.5,242.5 C 325.822,243.802 327.155,245.802 327.5,248.5C 325.674,246.853 324.34,244.853 323.5,242.5 Z"/></g>
<g><path style="opacity:1" fill="#3bacdf" d="M 334.5,245.5 C 335.167,245.5 335.833,245.5 336.5,245.5C 336.427,247.027 337.094,248.027 338.5,248.5C 340.114,251.393 341.447,254.393 342.5,257.5C 339.601,254.048 336.934,250.382 334.5,246.5C 334.5,246.167 334.5,245.833 334.5,245.5 Z"/></g>
<g><path style="opacity:1" fill="#5fc6e7" d="M 171.5,240.5 C 175.177,242.855 178.511,245.522 181.5,248.5C 180.167,248.167 178.833,247.833 177.5,247.5C 176.5,247.167 175.833,246.5 175.5,245.5C 174.738,243.738 173.404,242.738 171.5,242.5C 171.5,241.833 171.5,241.167 171.5,240.5 Z"/></g>
<g><path style="opacity:1" fill="#35a8de" d="M 336.5,245.5 C 337.906,245.973 338.573,246.973 338.5,248.5C 337.094,248.027 336.427,247.027 336.5,245.5 Z"/></g>
<g><path style="opacity:1" fill="#43b1e1" d="M 333.5,246.5 C 333.833,246.5 334.167,246.5 334.5,246.5C 336.934,250.382 339.601,254.048 342.5,257.5C 344.5,261.5 346.5,265.5 348.5,269.5C 348.5,270.167 348.5,270.833 348.5,271.5C 348.167,271.5 347.833,271.5 347.5,271.5C 344.833,266.845 342.167,262.179 339.5,257.5C 339.573,255.973 338.906,254.973 337.5,254.5C 334.863,252.518 333.53,249.852 333.5,246.5 Z"/></g>
<g><path style="opacity:1" fill="#5bc3e6" d="M 177.5,247.5 C 178.833,247.833 180.167,248.167 181.5,248.5C 181.833,249.5 182.5,250.167 183.5,250.5C 183.5,251.167 183.5,251.833 183.5,252.5C 181.091,251.299 179.091,249.633 177.5,247.5 Z"/></g>
<g><path style="opacity:1" fill="#60c7e7" d="M 183.5,250.5 C 185.795,251.136 187.461,252.469 188.5,254.5C 186.95,253.559 185.284,252.893 183.5,252.5C 183.5,251.833 183.5,251.167 183.5,250.5 Z"/></g>
<g><path style="opacity:0.72" fill="#31a7dd" d="M 338.5,248.5 C 339.391,249.11 340.391,249.443 341.5,249.5C 343.326,251.147 344.66,253.147 345.5,255.5C 344.662,255.842 344.328,256.508 344.5,257.5C 343.833,257.5 343.167,257.5 342.5,257.5C 341.447,254.393 340.114,251.393 338.5,248.5 Z"/></g>
<g><path style="opacity:1" fill="#5bc3e6" d="M 183.5,252.5 C 185.284,252.893 186.95,253.559 188.5,254.5C 190.264,255.326 191.598,256.659 192.5,258.5C 192.5,258.833 192.5,259.167 192.5,259.5C 189.19,257.518 186.19,255.185 183.5,252.5 Z"/></g>
<g><path style="opacity:1" fill="#47b3e1" d="M 337.5,254.5 C 338.906,254.973 339.573,255.973 339.5,257.5C 338.094,257.027 337.427,256.027 337.5,254.5 Z"/></g>
<g><path style="opacity:1" fill="#43b1e1" d="M 178.5,253.5 C 184.108,257.648 189.774,261.815 195.5,266C 196.823,266.816 197.489,267.983 197.5,269.5C 193.5,266.833 189.5,264.167 185.5,261.5C 182.842,259.032 180.509,256.365 178.5,253.5 Z"/></g>
<g><path style="opacity:1" fill="#60c7e7" d="M 192.5,259.5 C 192.5,259.167 192.5,258.833 192.5,258.5C 195.034,258.259 196.7,259.259 197.5,261.5C 195.95,260.559 194.284,259.893 192.5,259.5 Z"/></g>
<g><path style="opacity:1" fill="#35a9de" d="M 183.5,261.5 C 184.167,261.5 184.833,261.5 185.5,261.5C 186.167,262.5 186.833,263.5 187.5,264.5C 185.596,264.262 184.262,263.262 183.5,261.5 Z"/></g>
<g><path style="opacity:1" fill="#5cc4e6" d="M 192.5,259.5 C 194.284,259.893 195.95,260.559 197.5,261.5C 200.533,263.016 203.2,265.016 205.5,267.5C 205.5,268.167 205.5,268.833 205.5,269.5C 200.587,266.882 196.254,263.548 192.5,259.5 Z"/></g>
<g><path style="opacity:1" fill="#39abdf" d="M 185.5,261.5 C 189.5,264.167 193.5,266.833 197.5,269.5C 197.833,270.167 198.167,270.833 198.5,271.5C 197.833,271.5 197.167,271.5 196.5,271.5C 192.909,269.878 189.909,267.544 187.5,264.5C 186.833,263.5 186.167,262.5 185.5,261.5 Z"/></g>
<g><path style="opacity:1" fill="#5ac2e6" d="M 327.5,248.5 C 337.389,262.272 345.222,277.272 351,293.5C 359.453,324.383 347.953,336.549 316.5,330C 296.414,324.784 277.748,316.617 260.5,305.5C 266.381,307.774 272.048,310.607 277.5,314C 280.72,315.352 284.053,316.186 287.5,316.5C 289.508,318.268 291.674,319.934 294,321.5C 298.974,322.268 303.974,323.935 309,326.5C 309.383,325.944 309.883,325.611 310.5,325.5C 312.826,326.081 315.326,327.081 318,328.5C 324.137,328.479 330.303,328.479 336.5,328.5C 337.428,326.665 338.594,326.332 340,327.5C 340.317,325.699 340.984,325.366 342,326.5C 343.861,323.973 346.027,321.806 348.5,320C 348.167,319.667 347.833,319.333 347.5,319C 348.438,317.937 349.438,316.77 350.5,315.5C 350.5,310.167 350.5,304.833 350.5,299.5C 349.344,296.954 348.344,294.454 347.5,292C 348.566,290.841 348.233,290.008 346.5,289.5C 344.929,286.004 343.595,282.337 342.5,278.5C 342.938,278.565 343.272,278.399 343.5,278C 340.852,272.525 337.852,267.358 334.5,262.5C 333.841,260.862 333.174,259.195 332.5,257.5C 329.152,255.471 327.485,252.471 327.5,248.5 Z"/></g>
<g><path style="opacity:1" fill="#60c7e7" d="M 205.5,267.5 C 207.632,267.554 208.965,268.554 209.5,270.5C 208.292,269.766 206.959,269.433 205.5,269.5C 205.5,268.833 205.5,268.167 205.5,267.5 Z"/></g>
<g><path style="opacity:1" fill="#5bc3e6" d="M 205.5,269.5 C 206.959,269.433 208.292,269.766 209.5,270.5C 209.5,271.167 209.5,271.833 209.5,272.5C 207.77,271.974 206.436,270.974 205.5,269.5 Z"/></g>
<g><path style="opacity:1" fill="#5ec5e7" d="M 334.5,262.5 C 337.852,267.358 340.852,272.525 343.5,278C 343.272,278.399 342.938,278.565 342.5,278.5C 340.833,275.833 339.167,273.167 337.5,270.5C 337.34,268.847 336.674,267.514 335.5,266.5C 335.167,265.167 334.833,263.833 334.5,262.5 Z"/></g>
<g><path style="opacity:1" fill="#47b3e1" d="M 347.5,271.5 C 347.833,271.5 348.167,271.5 348.5,271.5C 357.021,286.062 362.354,301.728 364.5,318.5C 363.561,334.103 355.227,341.77 339.5,341.5C 323.523,340.17 308.523,335.837 294.5,328.5C 359.68,353.323 377.347,334.323 347.5,271.5 Z"/></g>
<g><path style="opacity:1" fill="#3daddf" d="M 198.5,271.5 C 200.404,271.738 201.738,272.738 202.5,274.5C 200.596,274.262 199.262,273.262 198.5,271.5 Z"/></g>
<g><path style="opacity:1" fill="#61c7e7" d="M 209.5,270.5 C 211.853,271.34 213.853,272.674 215.5,274.5C 213.5,273.833 211.5,273.167 209.5,272.5C 209.5,271.833 209.5,271.167 209.5,270.5 Z"/></g>
<g><path style="opacity:1" fill="#5bc3e6" d="M 209.5,272.5 C 211.5,273.167 213.5,273.833 215.5,274.5C 216.167,274.5 216.5,274.833 216.5,275.5C 216.5,276.167 216.5,276.833 216.5,277.5C 213.865,276.189 211.531,274.522 209.5,272.5 Z"/></g>
<g><path style="opacity:0.769" fill="#2ea5dd" d="M 345.5,255.5 C 352.176,264.843 357.842,274.843 362.5,285.5C 362.5,286.167 362.5,286.833 362.5,287.5C 357.506,276.837 351.506,266.837 344.5,257.5C 344.328,256.508 344.662,255.842 345.5,255.5 Z"/></g>
<g><path style="opacity:1" fill="#35a9de" d="M 196.5,271.5 C 197.167,271.5 197.833,271.5 198.5,271.5C 199.262,273.262 200.596,274.262 202.5,274.5C 203.262,276.262 204.596,277.262 206.5,277.5C 207.262,279.262 208.596,280.262 210.5,280.5C 211.167,281.5 211.833,282.5 212.5,283.5C 206.443,280.471 201.109,276.471 196.5,271.5 Z"/></g>
<g><path style="opacity:1" fill="#3daddf" d="M 202.5,274.5 C 204.404,274.738 205.738,275.738 206.5,277.5C 204.596,277.262 203.262,276.262 202.5,274.5 Z"/></g>
<g><path style="opacity:1" fill="#35a9de" d="M 344.5,257.5 C 351.506,266.837 357.506,276.837 362.5,287.5C 368.693,299.582 372.359,312.415 373.5,326C 372.296,342.623 363.296,350.456 346.5,349.5C 319.724,346.104 295.057,337.104 272.5,322.5C 285.632,328.856 298.799,334.856 312,340.5C 313.147,339.542 314.147,339.875 315,341.5C 316.147,340.542 317.147,340.875 318,342.5C 319.147,341.542 320.147,341.875 321,343.5C 321.333,343.167 321.667,342.833 322,342.5C 324.333,343.5 326.667,344.5 329,345.5C 330.881,344.646 332.714,344.979 334.5,346.5C 335.167,346.167 335.833,345.833 336.5,345.5C 341.535,347.913 346.535,347.913 351.5,345.5C 353.306,346.859 354.806,346.525 356,344.5C 356.333,344.833 356.667,345.167 357,345.5C 358,344.5 359,343.5 360,342.5C 360.333,342.833 360.667,343.167 361,343.5C 364.982,339.703 367.815,336.203 369.5,333C 369.577,326.062 369.577,319.062 369.5,312C 367.781,307.236 365.781,302.236 363.5,297C 363.833,296.667 364.167,296.333 364.5,296C 362.578,294.54 361.911,292.873 362.5,291C 356.822,279.466 350.822,268.3 344.5,257.5 Z"/></g>
<g><path style="opacity:1" fill="#3daddf" d="M 206.5,277.5 C 208.404,277.738 209.738,278.738 210.5,280.5C 208.596,280.262 207.262,279.262 206.5,277.5 Z"/></g>
<g><path style="opacity:1" fill="#5ac2e6" d="M 216.5,277.5 C 218.027,277.427 219.027,278.094 219.5,279.5C 217.973,279.573 216.973,278.906 216.5,277.5 Z"/></g>
<g><path style="opacity:1" fill="#61c8e7" d="M 216.5,275.5 C 221.709,277.719 226.376,280.719 230.5,284.5C 226.983,282.576 223.316,280.909 219.5,279.5C 219.027,278.094 218.027,277.427 216.5,277.5C 216.5,276.833 216.5,276.167 216.5,275.5 Z"/></g>
<g><path style="opacity:1" fill="#3cacdf" d="M 342.5,257.5 C 343.167,257.5 343.833,257.5 344.5,257.5C 350.822,268.3 356.822,279.466 362.5,291C 361.911,292.873 362.578,294.54 364.5,296C 364.167,296.333 363.833,296.667 363.5,297C 365.781,302.236 367.781,307.236 369.5,312C 369.577,319.062 369.577,326.062 369.5,333C 367.815,336.203 364.982,339.703 361,343.5C 360.667,343.167 360.333,342.833 360,342.5C 359,343.5 358,344.5 357,345.5C 356.667,345.167 356.333,344.833 356,344.5C 354.806,346.525 353.306,346.859 351.5,345.5C 346.535,347.913 341.535,347.913 336.5,345.5C 335.833,345.833 335.167,346.167 334.5,346.5C 332.714,344.979 330.881,344.646 329,345.5C 326.667,344.5 324.333,343.5 322,342.5C 321.667,342.833 321.333,343.167 321,343.5C 320.147,341.875 319.147,341.542 318,342.5C 317.147,340.875 316.147,340.542 315,341.5C 314.147,339.875 313.147,339.542 312,340.5C 298.799,334.856 285.632,328.856 272.5,322.5C 271.167,321.167 269.833,319.833 268.5,318.5C 275.167,321.5 281.833,324.5 288.5,327.5C 307.554,338.903 328.22,344.069 350.5,343C 355.742,342.135 359.909,339.635 363,335.5C 365.733,330.886 367.233,325.886 367.5,320.5C 364.896,302.012 358.563,285.012 348.5,269.5C 346.5,265.5 344.5,261.5 342.5,257.5 Z"/></g>
<g><path style="opacity:1" fill="#3bacdf" d="M 210.5,280.5 C 214.841,282.282 218.508,284.948 221.5,288.5C 220.167,288.167 218.833,287.833 217.5,287.5C 215.205,286.864 213.539,285.531 212.5,283.5C 211.833,282.5 211.167,281.5 210.5,280.5 Z"/></g>
<g><path style="opacity:1" fill="#3caddf" d="M 221.5,288.5 C 223.027,288.427 224.027,289.094 224.5,290.5C 222.973,290.573 221.973,289.906 221.5,288.5 Z"/></g>
<g><path style="opacity:1" fill="#5bc3e6" d="M 219.5,279.5 C 223.316,280.909 226.983,282.576 230.5,284.5C 232.55,286.547 234.883,288.214 237.5,289.5C 237.973,290.906 238.973,291.573 240.5,291.5C 241.287,293.104 242.62,293.771 244.5,293.5C 244.5,294.167 244.833,294.5 245.5,294.5C 246.262,296.262 247.596,297.262 249.5,297.5C 249.833,297.5 250.167,297.5 250.5,297.5C 251.659,299.25 253.326,300.25 255.5,300.5C 256.973,302.395 258.64,304.061 260.5,305.5C 245.98,298.079 232.313,289.413 219.5,279.5 Z"/></g>
<g><path style="opacity:1" fill="#61c8e7" d="M 237.5,289.5 C 239.027,289.427 240.027,290.094 240.5,291.5C 238.973,291.573 237.973,290.906 237.5,289.5 Z"/></g>
<g><path style="opacity:1" fill="#35a9de" d="M 217.5,287.5 C 218.833,287.833 220.167,288.167 221.5,288.5C 221.973,289.906 222.973,290.573 224.5,290.5C 225.5,291.833 226.5,293.167 227.5,294.5C 223.808,292.656 220.475,290.323 217.5,287.5 Z"/></g>
<g><path style="opacity:1" fill="#61c9e8" d="M 240.5,291.5 C 242.38,291.229 243.713,291.896 244.5,293.5C 242.62,293.771 241.287,293.104 240.5,291.5 Z"/></g>
<g><path style="opacity:1" fill="#3cacdf" d="M 224.5,290.5 C 232.777,295.449 240.777,300.782 248.5,306.5C 247.5,306.5 246.5,306.5 245.5,306.5C 245.027,305.094 244.027,304.427 242.5,304.5C 242.027,303.094 241.027,302.427 239.5,302.5C 239.027,301.094 238.027,300.427 236.5,300.5C 236.027,299.094 235.027,298.427 233.5,298.5C 233.027,297.094 232.027,296.427 230.5,296.5C 230.027,295.094 229.027,294.427 227.5,294.5C 226.5,293.167 225.5,291.833 224.5,290.5 Z"/></g>
<g><path style="opacity:1" fill="#61c8e7" d="M 245.5,294.5 C 247.404,294.738 248.738,295.738 249.5,297.5C 247.596,297.262 246.262,296.262 245.5,294.5 Z"/></g>
<g><path style="opacity:1" fill="#35a8de" d="M 227.5,294.5 C 229.027,294.427 230.027,295.094 230.5,296.5C 228.973,296.573 227.973,295.906 227.5,294.5 Z"/></g>
<g><path style="opacity:1" fill="#35a8de" d="M 230.5,296.5 C 232.027,296.427 233.027,297.094 233.5,298.5C 231.973,298.573 230.973,297.906 230.5,296.5 Z"/></g>
<g><path style="opacity:1" fill="#61c8e7" d="M 250.5,297.5 C 252.674,297.75 254.341,298.75 255.5,300.5C 253.326,300.25 251.659,299.25 250.5,297.5 Z"/></g>
<g><path style="opacity:1" fill="#35a8de" d="M 233.5,298.5 C 235.027,298.427 236.027,299.094 236.5,300.5C 234.973,300.573 233.973,299.906 233.5,298.5 Z"/></g>
<g><path style="opacity:1" fill="#43b1e1" d="M 197.5,269.5 C 199.593,270.045 201.593,270.878 203.5,272C 224.238,288.025 245.905,302.525 268.5,315.5C 269.659,317.25 271.326,318.25 273.5,318.5C 277.818,319.992 281.818,321.992 285.5,324.5C 286.833,325.5 288.167,326.5 289.5,327.5C 289.167,327.5 288.833,327.5 288.5,327.5C 281.833,324.5 275.167,321.5 268.5,318.5C 266.664,316.412 264.331,315.079 261.5,314.5C 260.341,312.75 258.674,311.75 256.5,311.5C 254.178,309.336 251.511,307.669 248.5,306.5C 240.777,300.782 232.777,295.449 224.5,290.5C 224.027,289.094 223.027,288.427 221.5,288.5C 218.508,284.948 214.841,282.282 210.5,280.5C 209.738,278.738 208.404,277.738 206.5,277.5C 205.738,275.738 204.404,274.738 202.5,274.5C 201.738,272.738 200.404,271.738 198.5,271.5C 198.167,270.833 197.833,270.167 197.5,269.5 Z"/></g>
<g><path style="opacity:1" fill="#35a8de" d="M 236.5,300.5 C 238.027,300.427 239.027,301.094 239.5,302.5C 237.973,302.573 236.973,301.906 236.5,300.5 Z"/></g>
<g><path style="opacity:1" fill="#35a8de" d="M 239.5,302.5 C 241.027,302.427 242.027,303.094 242.5,304.5C 240.973,304.573 239.973,303.906 239.5,302.5 Z"/></g>
<g><path style="opacity:1" fill="#40b0e0" d="M 348.5,269.5 C 358.563,285.012 364.896,302.012 367.5,320.5C 367.233,325.886 365.733,330.886 363,335.5C 359.909,339.635 355.742,342.135 350.5,343C 328.22,344.069 307.554,338.903 288.5,327.5C 288.833,327.5 289.167,327.5 289.5,327.5C 291.117,328.038 292.784,328.371 294.5,328.5C 308.523,335.837 323.523,340.17 339.5,341.5C 355.227,341.77 363.561,334.103 364.5,318.5C 362.354,301.728 357.021,286.062 348.5,271.5C 348.5,270.833 348.5,270.167 348.5,269.5 Z"/></g>
<g><path style="opacity:1" fill="#35a8de" d="M 242.5,304.5 C 244.027,304.427 245.027,305.094 245.5,306.5C 243.973,306.573 242.973,305.906 242.5,304.5 Z"/></g>
<g><path style="opacity:1" fill="#35a9de" d="M 245.5,306.5 C 246.5,306.5 247.5,306.5 248.5,306.5C 249.167,307.5 249.833,308.5 250.5,309.5C 248.326,309.25 246.659,308.25 245.5,306.5 Z"/></g>
<g><path style="opacity:1" fill="#3bacdf" d="M 248.5,306.5 C 251.511,307.669 254.178,309.336 256.5,311.5C 255.5,311.5 254.5,311.5 253.5,311.5C 253.027,310.094 252.027,309.427 250.5,309.5C 249.833,308.5 249.167,307.5 248.5,306.5 Z"/></g>
<g><path style="opacity:1" fill="#35a8de" d="M 250.5,309.5 C 252.027,309.427 253.027,310.094 253.5,311.5C 251.973,311.573 250.973,310.906 250.5,309.5 Z"/></g>
<g><path style="opacity:1" fill="#35a9de" d="M 253.5,311.5 C 254.5,311.5 255.5,311.5 256.5,311.5C 257.167,312.5 257.833,313.5 258.5,314.5C 256.326,314.25 254.659,313.25 253.5,311.5 Z"/></g>
<g><path style="opacity:1" fill="#60c7e7" d="M 255.5,300.5 C 266.173,305.836 276.839,311.17 287.5,316.5C 284.053,316.186 280.72,315.352 277.5,314C 272.048,310.607 266.381,307.774 260.5,305.5C 258.64,304.061 256.973,302.395 255.5,300.5 Z"/></g>
<g><path style="opacity:1" fill="#3cacdf" d="M 256.5,311.5 C 258.674,311.75 260.341,312.75 261.5,314.5C 260.5,314.5 259.5,314.5 258.5,314.5C 257.833,313.5 257.167,312.5 256.5,311.5 Z"/></g>
<g><path style="opacity:1" fill="#5fc6e7" d="M 346.5,289.5 C 348.233,290.008 348.566,290.841 347.5,292C 348.344,294.454 349.344,296.954 350.5,299.5C 350.5,304.833 350.5,310.167 350.5,315.5C 349.438,316.77 348.438,317.937 347.5,319C 347.833,319.333 348.167,319.667 348.5,320C 346.027,321.806 343.861,323.973 342,326.5C 340.984,325.366 340.317,325.699 340,327.5C 338.594,326.332 337.428,326.665 336.5,328.5C 330.303,328.479 324.137,328.479 318,328.5C 315.326,327.081 312.826,326.081 310.5,325.5C 313.833,325.833 317.167,326.167 320.5,326.5C 327.391,327.099 334.058,326.265 340.5,324C 341.667,321.5 343.5,319.667 346,318.5C 347.946,314.404 348.78,310.07 348.5,305.5C 348.474,300.072 347.808,294.738 346.5,289.5 Z"/></g>
<g><path style="opacity:1" fill="#3cacdf" d="M 261.5,314.5 C 264.331,315.079 266.664,316.412 268.5,318.5C 267.5,318.5 266.5,318.5 265.5,318.5C 264.167,317.167 262.833,315.833 261.5,314.5 Z"/></g>
<g><path style="opacity:1" fill="#47b3e1" d="M 268.5,315.5 C 270.674,315.75 272.341,316.75 273.5,318.5C 271.326,318.25 269.659,317.25 268.5,315.5 Z"/></g>
<g><path style="opacity:1" fill="#35a9de" d="M 258.5,314.5 C 259.5,314.5 260.5,314.5 261.5,314.5C 262.833,315.833 264.167,317.167 265.5,318.5C 262.669,317.921 260.336,316.588 258.5,314.5 Z"/></g>
<g><path style="opacity:1" fill="#35a9de" d="M 265.5,318.5 C 266.5,318.5 267.5,318.5 268.5,318.5C 269.833,319.833 271.167,321.167 272.5,322.5C 269.669,321.921 267.336,320.588 265.5,318.5 Z"/></g>
<g><path style="opacity:1" fill="#62c9e7" d="M 337.5,270.5 C 339.167,273.167 340.833,275.833 342.5,278.5C 343.595,282.337 344.929,286.004 346.5,289.5C 347.808,294.738 348.474,300.072 348.5,305.5C 348.78,310.07 347.946,314.404 346,318.5C 343.5,319.667 341.667,321.5 340.5,324C 334.058,326.265 327.391,327.099 320.5,326.5C 320.5,326.167 320.5,325.833 320.5,325.5C 323.518,325.665 326.518,325.498 329.5,325C 330.649,323.256 331.983,323.089 333.5,324.5C 334.77,323.438 335.937,322.438 337,321.5C 337.333,321.833 337.667,322.167 338,322.5C 338.419,321.328 339.085,320.328 340,319.5C 340.914,320.654 341.747,320.487 342.5,319C 341.655,317.442 342.321,316.442 344.5,316C 344.167,315.667 343.833,315.333 343.5,315C 344.318,313.823 345.318,312.49 346.5,311C 346.456,306.486 346.456,301.986 346.5,297.5C 345.96,296.252 345.293,295.085 344.5,294C 345.727,292.413 345.394,291.079 343.5,290C 343.833,289.667 344.167,289.333 344.5,289C 342.705,282.894 340.371,276.728 337.5,270.5 Z"/></g>
<g><path style="opacity:1" fill="#61c8e7" d="M 287.5,316.5 C 293.084,318.087 298.917,320.087 305,322.5C 305.333,322.167 305.667,321.833 306,321.5C 307.324,322.88 308.657,323.214 310,322.5C 313.475,323.11 316.975,324.11 320.5,325.5C 320.5,325.833 320.5,326.167 320.5,326.5C 317.167,326.167 313.833,325.833 310.5,325.5C 309.883,325.611 309.383,325.944 309,326.5C 303.974,323.935 298.974,322.268 294,321.5C 291.674,319.934 289.508,318.268 287.5,316.5 Z"/></g>
<g><path style="opacity:1" fill="#47b3e1" d="M 285.5,324.5 C 288.912,325.042 291.912,326.375 294.5,328.5C 292.784,328.371 291.117,328.038 289.5,327.5C 288.167,326.5 286.833,325.5 285.5,324.5 Z"/></g>
</svg>
