<?xml version="1.0" encoding="UTF-8"?>
<!DOCTYPE svg PUBLIC "-//W3C//DTD SVG 1.1//EN" "http://www.w3.org/Graphics/SVG/1.1/DTD/svg11.dtd">
<svg xmlns="http://www.w3.org/2000/svg" version="1.1" width="100%" viewBox="0 0 413 362" style="shape-rendering:geometricPrecision; text-rendering:geometricPrecision; image-rendering:optimizeQuality; fill-rule:evenodd; clip-rule:evenodd" xmlns:xlink="http://www.w3.org/1999/xlink">
<g><path style="opacity:0.933" fill="#c2202b" d="M 8.5,-0.5 C 56.1667,-0.5 103.833,-0.5 151.5,-0.5C 151.5,5.5 151.5,11.5 151.5,17.5C 187.833,17.5 224.167,17.5 260.5,17.5C 260.5,11.5 260.5,5.5 260.5,-0.5C 308.167,-0.5 355.833,-0.5 403.5,-0.5C 402.358,1.43309 400.692,2.93309 398.5,4C 347.5,34.5 296.5,65 245.5,95.5C 230.512,78.0082 211.845,72.5082 189.5,79C 185.007,81.079 180.674,83.4123 176.5,86C 173.318,89.3493 169.985,92.516 166.5,95.5C 113.437,63.9768 60.77,31.9768 8.5,-0.5 Z"/></g>
<g><path style="opacity:1" fill="#d72d33" d="M 144.5,7.5 C 108.329,7.16824 72.3295,7.50158 36.5,8.5C 35.7109,8.21719 35.0442,7.71719 34.5,7C 71.3356,6.16894 108.002,6.33561 144.5,7.5 Z"/></g>
<g><path style="opacity:1" fill="#d82d33" d="M 376.5,8.5 C 340.671,7.50158 304.671,7.16824 268.5,7.5C 268.822,13.358 268.489,19.0247 267.5,24.5C 267.5,18.5 267.5,12.5 267.5,6.5C 304.173,6.16678 340.839,6.50011 377.5,7.5C 377.376,8.10667 377.043,8.44001 376.5,8.5 Z"/></g>
<g><path style="opacity:1" fill="#ed3a3e" d="M 36.5,8.5 C 72.3295,7.50158 108.329,7.16824 144.5,7.5C 144.5,13.1667 144.5,18.8333 144.5,24.5C 185.5,24.5 226.5,24.5 267.5,24.5C 268.489,19.0247 268.822,13.358 268.5,7.5C 304.671,7.16824 340.671,7.50158 376.5,8.5C 333.362,33.9036 290.362,59.5702 247.5,85.5C 224.949,65.8297 200.615,63.3297 174.5,78C 171.537,79.9606 168.871,82.294 166.5,85C 165.5,85.6667 164.5,85.6667 163.5,85C 121.139,59.4887 78.8056,33.9887 36.5,8.5 Z"/></g>
<g><path style="opacity:0.929" fill="#c2202b" d="M -0.5,20.5 C -0.5,20.1667 -0.5,19.8333 -0.5,19.5C 52.5631,48.2019 105.563,77.2019 158.5,106.5C 158.833,107.333 159.167,108.167 159.5,109C 152.279,138.224 162.279,159.224 189.5,172C 193.104,173.154 196.771,173.987 200.5,174.5C 199.741,236.838 198.741,299.171 197.5,361.5C 197.167,361.5 196.833,361.5 196.5,361.5C 173.264,320.697 149.764,280.031 126,239.5C 125.251,238.365 125.417,237.365 126.5,236.5C 131.333,233.918 136,231.085 140.5,228C 122.707,197.582 105.04,167.082 87.5,136.5C 86.635,135.417 85.635,135.251 84.5,136C 80.1667,138.5 75.8333,141 71.5,143.5C 47.2361,102.637 23.2361,61.6367 -0.5,20.5 Z"/></g>
<g><path style="opacity:0.929" fill="#c2202b" d="M 412.5,19.5 C 412.5,20.1667 412.5,20.8333 412.5,21.5C 388.929,62.2572 365.096,102.924 341,143.5C 336,140.5 331,137.5 326,134.5C 308.333,165.167 290.667,195.833 273,226.5C 272.251,227.635 272.417,228.635 273.5,229.5C 277.374,231.868 281.374,234.034 285.5,236C 286.517,237.049 286.684,238.216 286,239.5C 262.741,280.358 239.241,321.024 215.5,361.5C 215.167,361.5 214.833,361.5 214.5,361.5C 213.718,299.163 212.718,236.829 211.5,174.5C 235.654,170.513 250.154,156.513 255,132.5C 256.033,124.461 255.2,116.628 252.5,109C 252.645,108.228 252.978,107.561 253.5,107C 306.233,77.3011 359.233,48.1345 412.5,19.5 Z"/></g>
<g><path style="opacity:1" fill="#ed3a3e" d="M 19.5,38.5 C 62.779,62.4756 106.112,86.4756 149.5,110.5C 145.814,136.275 154.147,157.108 174.5,173C 180.338,176.779 186.671,179.279 193.5,180.5C 192.804,231.849 191.638,283.182 190,334.5C 172.033,303.037 153.866,271.704 135.5,240.5C 140.709,237.402 145.709,234.068 150.5,230.5C 130.2,195.037 109.7,159.704 89,124.5C 84,127.5 79,130.5 74,133.5C 55.578,101.928 37.4113,70.2613 19.5,38.5 Z"/></g>
<g><path style="opacity:1" fill="#ed3a3e" d="M 391.5,38.5 C 392.239,38.369 392.906,38.5357 393.5,39C 375.874,69.0848 358.374,99.2515 341,129.5C 340.221,130.728 339.221,131.728 338,132.5C 332.795,130.452 327.962,127.785 323.5,124.5C 302.707,159.918 282.04,195.418 261.5,231C 266.634,233.969 271.634,237.136 276.5,240.5C 258.333,272.167 240.167,303.833 222,335.5C 220.167,283.84 219.667,232.173 220.5,180.5C 243.46,173.912 257.293,158.912 262,135.5C 262.395,127.042 262.562,118.709 262.5,110.5C 305.692,86.74 348.692,62.74 391.5,38.5 Z"/></g>
<g><path style="opacity:0.927" fill="#c2202b" d="M 200.5,84.5 C 228.304,84.3064 243.971,97.9731 247.5,125.5C 243.168,155.829 225.834,168.996 195.5,165C 173.135,157.126 163.301,141.293 166,117.5C 170.567,99.0962 182.067,88.0962 200.5,84.5 Z"/></g>
<g><path style="opacity:1" fill="#ed3a3e" d="M 197.5,92.5 C 216.414,90.0376 229.914,97.371 238,114.5C 242.618,135.766 234.785,150.266 214.5,158C 193.114,160.94 179.28,152.107 173,131.5C 171.623,112.399 179.79,99.3991 197.5,92.5 Z"/></g>
</svg>
