<?xml version="1.0" encoding="UTF-8" standalone="no"?>
<!DOCTYPE svg PUBLIC "-//W3C//DTD SVG 1.1//EN" "http://www.w3.org/Graphics/SVG/1.1/DTD/svg11.dtd">
<svg width="100%" height="100%" viewBox="0 0 141 141" version="1.1" xmlns="http://www.w3.org/2000/svg" xmlns:xlink="http://www.w3.org/1999/xlink" xml:space="preserve" xmlns:serif="http://www.serif.com/" style="fill-rule:evenodd;clip-rule:evenodd;stroke-miterlimit:10;">
    <g transform="matrix(0,-1.33333,-1.33333,0,70.4498,58.6229)">
        <path d="M-8.875,-8.875C-13.777,-8.875 -17.75,-4.901 -17.75,0C-17.75,4.902 -13.777,8.875 -8.875,8.875C-3.974,8.875 0,4.902 0,0C0,-4.901 -3.974,-8.875 -8.875,-8.875" style="fill:rgb(10,137,69);fill-rule:nonzero;"/>
    </g>
    <g transform="matrix(0,-1.33333,-1.33333,0,70.4498,58.6229)">
        <circle cx="-8.875" cy="0" r="8.875" style="fill:none;stroke:rgb(57,174,87);stroke-width:2px;"/>
    </g>
    <g transform="matrix(1.33333,0,0,1.33333,103.32,50.6398)">
        <path d="M0,29.72L-4.34,25.38C-6.5,29.58 -9.93,33.01 -14.12,35.18L-9.79,39.51C-14.13,42.14 -19.22,43.65 -24.65,43.65C-30.08,43.65 -35.17,42.14 -39.51,39.51L-35.18,35.18C-39.37,33.01 -42.8,29.58 -44.97,25.39L-49.3,29.72C-51.93,25.38 -53.44,20.29 -53.44,14.86C-53.44,9.43 -51.93,4.34 -49.3,0L-44.97,4.33C-42.8,0.14 -39.37,-3.29 -35.17,-5.45L-39.51,-9.79C-35.17,-12.42 -30.08,-13.93 -24.65,-13.93C-19.22,-13.93 -14.13,-12.42 -9.79,-9.79L-14.13,-5.45C-9.93,-3.29 -6.5,0.14 -4.34,4.34L0,0C2.63,4.34 4.14,9.43 4.14,14.86C4.14,20.29 2.63,25.38 0,29.72M18.1,13.1C18.08,12.52 18.05,11.94 18,11.36C17.95,10.78 17.89,10.21 17.82,9.64C17.75,9.07 17.67,8.5 17.58,7.94L12.87,7.94C11.88,2.56 9.76,-2.43 6.76,-6.76C4.12,-10.59 0.8,-13.91 -3.03,-16.55C-7.36,-19.55 -12.35,-21.67 -17.73,-22.66L-17.73,-27.37C-18.29,-27.46 -18.86,-27.54 -19.43,-27.61C-20,-27.68 -20.57,-27.74 -21.15,-27.79C-21.73,-27.84 -22.31,-27.87 -22.89,-27.89C-23.47,-27.92 -24.06,-27.93 -24.65,-27.93C-25.24,-27.93 -25.83,-27.92 -26.41,-27.89C-26.56,-27.89 -26.71,-27.88 -26.85,-27.87C-27.29,-27.85 -27.72,-27.82 -28.15,-27.79L-28.19,-27.79C-28.75,-27.74 -29.32,-27.68 -29.88,-27.61C-30.43,-27.55 -30.98,-27.47 -31.53,-27.38C-31.55,-27.38 -31.57,-27.37 -31.58,-27.37L-31.58,-22.66C-36.96,-21.67 -41.95,-19.55 -46.28,-16.56C-50.11,-13.92 -53.43,-10.6 -56.07,-6.77C-59.07,-2.43 -61.19,2.56 -62.18,7.94L-66.88,7.94C-66.97,8.5 -67.05,9.07 -67.12,9.64C-67.19,10.21 -67.25,10.78 -67.3,11.36C-67.35,11.94 -67.38,12.52 -67.4,13.1C-67.43,13.68 -67.44,14.27 -67.44,14.86C-67.44,15.45 -67.43,16.04 -67.4,16.62C-67.4,16.77 -67.39,16.92 -67.38,17.06C-67.36,17.5 -67.33,17.93 -67.3,18.36L-67.3,18.4C-67.25,18.96 -67.19,19.53 -67.12,20.09C-67.06,20.64 -66.98,21.19 -66.89,21.74C-66.89,21.76 -66.88,21.78 -66.88,21.79L-62.18,21.79C-61.19,27.17 -59.07,32.16 -56.07,36.49C-53.43,40.32 -50.11,43.64 -46.28,46.28C-41.95,49.28 -36.96,51.4 -31.58,52.39L-31.58,57.09C-31.57,57.09 -31.55,57.1 -31.53,57.1C-30.98,57.19 -30.43,57.27 -29.88,57.33C-29.32,57.4 -28.75,57.46 -28.19,57.51L-28.15,57.51C-27.72,57.54 -27.29,57.57 -26.85,57.59C-26.71,57.6 -26.56,57.61 -26.41,57.61C-25.83,57.64 -25.24,57.65 -24.65,57.65C-24.06,57.65 -23.47,57.64 -22.89,57.61C-22.74,57.61 -22.59,57.6 -22.45,57.59C-22.01,57.57 -21.58,57.54 -21.15,57.51C-20,57.41 -18.86,57.27 -17.73,57.09L-17.73,52.39C-12.35,51.4 -7.36,49.28 -3.02,46.28C0.81,43.64 4.13,40.32 6.77,36.49C9.76,32.16 11.88,27.17 12.87,21.79L17.58,21.79C17.58,21.78 17.59,21.76 17.59,21.74C17.68,21.19 17.76,20.64 17.82,20.09C17.89,19.53 17.95,18.96 18,18.4L18,18.36C18.03,17.93 18.06,17.5 18.08,17.06C18.09,16.92 18.1,16.77 18.1,16.62C18.13,16.04 18.14,15.45 18.14,14.86C18.14,14.27 18.13,13.68 18.1,13.1" style="fill:rgb(10,137,69);fill-rule:nonzero;"/>
    </g>
    <g transform="matrix(1.33333,0,0,1.33333,103.32,50.6398)">
        <path d="M0,29.72L-4.34,25.38C-6.5,29.58 -9.93,33.01 -14.12,35.18L-9.79,39.51C-14.13,42.14 -19.22,43.65 -24.65,43.65C-30.08,43.65 -35.17,42.14 -39.51,39.51L-35.18,35.18C-39.37,33.01 -42.8,29.58 -44.97,25.39L-49.3,29.72C-51.93,25.38 -53.44,20.29 -53.44,14.86C-53.44,9.43 -51.93,4.34 -49.3,0L-44.97,4.33C-42.8,0.14 -39.37,-3.29 -35.17,-5.45L-39.51,-9.79C-35.17,-12.42 -30.08,-13.93 -24.65,-13.93C-19.22,-13.93 -14.13,-12.42 -9.79,-9.79L-14.13,-5.45C-9.93,-3.29 -6.5,0.14 -4.34,4.34L0,0C2.63,4.34 4.14,9.43 4.14,14.86C4.14,20.29 2.63,25.38 0,29.72ZM18.1,13.1C18.08,12.52 18.05,11.94 18,11.36C17.95,10.78 17.89,10.21 17.82,9.64C17.75,9.07 17.67,8.5 17.58,7.94L12.87,7.94C11.88,2.56 9.76,-2.43 6.76,-6.76C4.12,-10.59 0.8,-13.91 -3.03,-16.55C-7.36,-19.55 -12.35,-21.67 -17.73,-22.66L-17.73,-27.37C-18.29,-27.46 -18.86,-27.54 -19.43,-27.61C-20,-27.68 -20.57,-27.74 -21.15,-27.79C-21.73,-27.84 -22.31,-27.87 -22.89,-27.89C-23.47,-27.92 -24.06,-27.93 -24.65,-27.93C-25.24,-27.93 -25.83,-27.92 -26.41,-27.89C-26.56,-27.89 -26.71,-27.88 -26.85,-27.87C-27.29,-27.85 -27.72,-27.82 -28.15,-27.79L-28.19,-27.79C-28.75,-27.74 -29.32,-27.68 -29.88,-27.61C-30.43,-27.55 -30.98,-27.47 -31.53,-27.38C-31.55,-27.38 -31.57,-27.37 -31.58,-27.37L-31.58,-22.66C-36.96,-21.67 -41.95,-19.55 -46.28,-16.56C-50.11,-13.92 -53.43,-10.6 -56.07,-6.77C-59.07,-2.43 -61.19,2.56 -62.18,7.94L-66.88,7.94C-66.97,8.5 -67.05,9.07 -67.12,9.64C-67.19,10.21 -67.25,10.78 -67.3,11.36C-67.35,11.94 -67.38,12.52 -67.4,13.1C-67.43,13.68 -67.44,14.27 -67.44,14.86C-67.44,15.45 -67.43,16.04 -67.4,16.62C-67.4,16.77 -67.39,16.92 -67.38,17.06C-67.36,17.5 -67.33,17.93 -67.3,18.36L-67.3,18.4C-67.25,18.96 -67.19,19.53 -67.12,20.09C-67.06,20.64 -66.98,21.19 -66.89,21.74C-66.89,21.76 -66.88,21.78 -66.88,21.79L-62.18,21.79C-61.19,27.17 -59.07,32.16 -56.07,36.49C-53.43,40.32 -50.11,43.64 -46.28,46.28C-41.95,49.28 -36.96,51.4 -31.58,52.39L-31.58,57.09C-31.57,57.09 -31.55,57.1 -31.53,57.1C-30.98,57.19 -30.43,57.27 -29.88,57.33C-29.32,57.4 -28.75,57.46 -28.19,57.51L-28.15,57.51C-27.72,57.54 -27.29,57.57 -26.85,57.59C-26.71,57.6 -26.56,57.61 -26.41,57.61C-25.83,57.64 -25.24,57.65 -24.65,57.65C-24.06,57.65 -23.47,57.64 -22.89,57.61C-22.74,57.61 -22.59,57.6 -22.45,57.59C-22.01,57.57 -21.58,57.54 -21.15,57.51C-20,57.41 -18.86,57.27 -17.73,57.09L-17.73,52.39C-12.35,51.4 -7.36,49.28 -3.02,46.28C0.81,43.64 4.13,40.32 6.77,36.49C9.76,32.16 11.88,27.17 12.87,21.79L17.58,21.79C17.58,21.78 17.59,21.76 17.59,21.74C17.68,21.19 17.76,20.64 17.82,20.09C17.89,19.53 17.95,18.96 18,18.4L18,18.36C18.03,17.93 18.06,17.5 18.08,17.06C18.09,16.92 18.1,16.77 18.1,16.62C18.13,16.04 18.14,15.45 18.14,14.86C18.14,14.27 18.13,13.68 18.1,13.1Z" style="fill:none;fill-rule:nonzero;stroke:rgb(57,174,87);stroke-width:2px;"/>
    </g>
</svg>
