<?xml version="1.0" encoding="UTF-8"?>
<!DOCTYPE svg PUBLIC "-//W3C//DTD SVG 1.1//EN" "http://www.w3.org/Graphics/SVG/1.1/DTD/svg11.dtd">
<svg xmlns="http://www.w3.org/2000/svg" version="1.1" width="100%" viewBox="0 0 366 366" style="shape-rendering:geometricPrecision; text-rendering:geometricPrecision; image-rendering:optimizeQuality; fill-rule:evenodd; clip-rule:evenodd" xmlns:xlink="http://www.w3.org/1999/xlink">
<g><path style="opacity:0.944" fill="#38ae56" d="M 178.5,-0.5 C 181.5,-0.5 184.5,-0.5 187.5,-0.5C 196.699,0.407914 206.032,1.40791 215.5,2.5C 215.17,9.19979 215.503,15.8665 216.5,22.5C 283.991,39.6577 325.991,81.991 342.5,149.5C 349.167,149.5 355.833,149.5 362.5,149.5C 363.507,156.3 364.507,162.966 365.5,169.5C 365.5,178.167 365.5,186.833 365.5,195.5C 364.245,202.3 363.578,209.3 363.5,216.5C 356.5,216.5 349.5,216.5 342.5,216.5C 327.723,277.445 290.723,318.278 231.5,339C 226.292,340.802 220.959,341.969 215.5,342.5C 215.83,349.2 215.497,355.866 214.5,362.5C 208.719,363.579 203.052,364.579 197.5,365.5C 187.833,365.5 178.167,365.5 168.5,365.5C 162.37,364.253 156.037,363.586 149.5,363.5C 149.5,356.5 149.5,349.5 149.5,342.5C 95.5446,330.439 56.7112,299.439 33,249.5C 28.599,239.13 25.099,228.464 22.5,217.5C 15.8665,216.503 9.19979,216.17 2.5,216.5C 1.49448,207.691 0.494475,199.024 -0.5,190.5C -0.5,185.5 -0.5,180.5 -0.5,175.5C 0.401558,166.965 1.40156,158.298 2.5,149.5C 9.19979,149.83 15.8665,149.497 22.5,148.5C 39.4962,81.5038 81.4962,39.5038 148.5,22.5C 149.497,15.8665 149.83,9.19979 149.5,2.5C 159.298,1.37263 168.965,0.37263 178.5,-0.5 Z M 170.5,67.5 C 193.858,65.5381 215.858,70.0381 236.5,81C 230.455,86.7098 224.788,92.7098 219.5,99C 235.462,107.296 248.629,118.796 259,133.5C 261.588,137.674 263.921,142.007 266,146.5C 272,140.5 278,134.5 284,128.5C 303.265,164.528 303.265,200.528 284,236.5C 278.5,231 273,225.5 267.5,220C 266.833,219.333 266.167,219.333 265.5,220C 255.361,240.639 240.027,256.139 219.5,266.5C 224.985,272.485 230.652,278.319 236.5,284C 201.069,302.978 165.402,303.312 129.5,285C 129.167,284.667 128.833,284.333 128.5,284C 134,278.5 139.5,273 145,267.5C 145.667,266.833 145.667,266.167 145,265.5C 124.333,255.333 108.833,240 98.5,219.5C 92.5146,224.985 86.6812,230.652 81,236.5C 66.1692,207.654 63.5025,177.654 73,146.5C 75.1175,140.264 77.7841,134.264 81,128.5C 87,134.5 93,140.5 99,146.5C 109.5,125.333 125.333,109.5 146.5,99C 140.5,93 134.5,87 128.5,81C 141.88,74.1497 155.88,69.6497 170.5,67.5 Z"/></g>
<g><path style="opacity:1" fill="#0d8946" d="M 159.5,355.5 C 158.868,348.733 158.201,342.067 157.5,335.5C 99.1093,324.21 58.9426,290.876 37,235.5C 34.3384,226.518 31.8384,217.518 29.5,208.5C 23.2015,207.504 16.8682,207.17 10.5,207.5C 8.06401,191.205 7.89734,174.872 10,158.5C 16.7445,157.521 23.5778,157.188 30.5,157.5C 39.4912,108.008 65.8245,70.8415 109.5,46C 124.243,37.9189 139.909,32.7523 156.5,30.5C 158.459,24.2504 159.126,17.5837 158.5,10.5C 174.08,8.0166 189.746,7.84993 205.5,10C 207.438,16.5485 208.105,23.3818 207.5,30.5C 265.144,41.6417 305.311,74.3083 328,128.5C 331.198,137.991 333.698,147.657 335.5,157.5C 342.09,157.189 348.59,157.522 355,158.5C 356.833,174.811 356.999,191.144 355.5,207.5C 348.578,207.188 341.744,207.521 335,208.5C 323.712,266.119 290.878,305.953 236.5,328C 227.379,331.324 218.046,333.824 208.5,335.5C 207.503,342.134 207.17,348.8 207.5,355.5C 191.493,356.799 175.493,356.799 159.5,355.5 Z M 170.5,67.5 C 155.88,69.6497 141.88,74.1497 128.5,81C 134.5,87 140.5,93 146.5,99C 125.333,109.5 109.5,125.333 99,146.5C 93,140.5 87,134.5 81,128.5C 77.7841,134.264 75.1175,140.264 73,146.5C 63.5025,177.654 66.1692,207.654 81,236.5C 86.6812,230.652 92.5146,224.985 98.5,219.5C 108.833,240 124.333,255.333 145,265.5C 145.667,266.167 145.667,266.833 145,267.5C 139.5,273 134,278.5 128.5,284C 128.833,284.333 129.167,284.667 129.5,285C 165.402,303.312 201.069,302.978 236.5,284C 230.652,278.319 224.985,272.485 219.5,266.5C 240.027,256.139 255.361,240.639 265.5,220C 266.167,219.333 266.833,219.333 267.5,220C 273,225.5 278.5,231 284,236.5C 303.265,200.528 303.265,164.528 284,128.5C 278,134.5 272,140.5 266,146.5C 263.921,142.007 261.588,137.674 259,133.5C 248.629,118.796 235.462,107.296 219.5,99C 224.788,92.7098 230.455,86.7098 236.5,81C 215.858,70.0381 193.858,65.5381 170.5,67.5 Z"/></g>
<g><path style="opacity:1" fill="#229a4e" d="M 158.5,10.5 C 159.126,17.5837 158.459,24.2504 156.5,30.5C 157.132,23.7332 157.799,17.0665 158.5,10.5 Z"/></g>
<g><path style="opacity:0.943" fill="#38ae56" d="M 169.5,58.5 C 198.274,56.5529 224.94,63.0529 249.5,78C 250.451,78.7175 250.617,79.5509 250,80.5C 244.5,86 239,91.5 233.5,97C 247.671,106.005 259.338,117.505 268.5,131.5C 274.485,126.015 280.319,120.348 286,114.5C 302.59,139.661 309.257,167.327 306,197.5C 303.375,215.71 297.375,232.71 288,248.5C 287.163,250.007 285.996,250.507 284.5,250C 279.5,245 274.5,240 269.5,235C 268.833,234.333 268.167,234.333 267.5,235C 258.995,248.671 247.995,259.838 234.5,268.5C 239.485,273.985 244.652,279.319 250,284.5C 250.667,285.167 250.667,285.833 250,286.5C 214.917,308.463 177.751,312.63 138.5,299C 129.893,295.698 121.893,291.365 114.5,286C 120.348,280.319 126.015,274.485 131.5,268.5C 117.477,259.311 105.977,247.644 97,233.5C 91.5,239 86,244.5 80.5,250C 79.5509,250.617 78.7175,250.451 78,249.5C 55.7684,211.98 52.7684,172.98 69,132.5C 71.6597,126.51 74.8264,120.844 78.5,115.5C 79.0016,114.479 79.6683,114.312 80.5,115C 86,120.5 91.5,126 97,131.5C 105.833,117.333 117.333,105.833 131.5,97C 126,91.5 120.5,86 115,80.5C 114.333,79.8333 114.333,79.1667 115,78.5C 131.853,67.9788 150.019,61.3121 169.5,58.5 Z M 170.5,67.5 C 155.88,69.6497 141.88,74.1497 128.5,81C 134.5,87 140.5,93 146.5,99C 125.333,109.5 109.5,125.333 99,146.5C 93,140.5 87,134.5 81,128.5C 77.7841,134.264 75.1175,140.264 73,146.5C 63.5025,177.654 66.1692,207.654 81,236.5C 86.6812,230.652 92.5146,224.985 98.5,219.5C 108.833,240 124.333,255.333 145,265.5C 145.667,266.167 145.667,266.833 145,267.5C 139.5,273 134,278.5 128.5,284C 128.833,284.333 129.167,284.667 129.5,285C 165.402,303.312 201.069,302.978 236.5,284C 230.652,278.319 224.985,272.485 219.5,266.5C 240.027,256.139 255.361,240.639 265.5,220C 266.167,219.333 266.833,219.333 267.5,220C 273,225.5 278.5,231 284,236.5C 303.265,200.528 303.265,164.528 284,128.5C 278,134.5 272,140.5 266,146.5C 263.921,142.007 261.588,137.674 259,133.5C 248.629,118.796 235.462,107.296 219.5,99C 224.788,92.7098 230.455,86.7098 236.5,81C 215.858,70.0381 193.858,65.5381 170.5,67.5 Z"/></g>
<g><path style="opacity:0.937" fill="#38ae56" d="M 174.5,141.5 C 204.041,139.878 220.708,153.711 224.5,183C 221.234,210.935 205.567,224.602 177.5,224C 151.121,218.114 139.288,201.614 142,174.5C 146.322,157.012 157.155,146.012 174.5,141.5 Z"/></g>
<g><path style="opacity:1" fill="#0d8946" d="M 173.5,150.5 C 200.819,148.036 214.652,160.369 215,187.5C 209.723,207.896 196.556,217.062 175.5,215C 155.64,208.118 147.473,194.285 151,173.5C 155.353,162.648 162.853,154.981 173.5,150.5 Z"/></g>
<g><path style="opacity:1" fill="#229a4e" d="M 157.5,335.5 C 158.201,342.067 158.868,348.733 159.5,355.5C 157.541,349.25 156.874,342.584 157.5,335.5 Z"/></g>
</svg>
