<?xml version="1.0" encoding="UTF-8"?>
<!DOCTYPE svg PUBLIC "-//W3C//DTD SVG 1.1//EN" "http://www.w3.org/Graphics/SVG/1.1/DTD/svg11.dtd">
<svg xmlns="http://www.w3.org/2000/svg" version="1.1" width="100%" viewBox="0 0 96 96" style="shape-rendering:geometricPrecision; text-rendering:geometricPrecision; image-rendering:optimizeQuality; fill-rule:evenodd; clip-rule:evenodd" xmlns:xlink="http://www.w3.org/1999/xlink">
<g><path style="opacity:0.004" fill="#132c34" d="M 48.5,-0.5 C 49.5,-0.5 50.5,-0.5 51.5,-0.5C 52.6935,0.271873 53.6935,1.27187 54.5,2.5C 54.5654,2.93822 54.3988,3.27155 54,3.5C 51.833,2.51195 49.9997,1.17861 48.5,-0.5 Z"/></g>
<g><path style="opacity:1" fill="#38c1ec" d="M 45.5,-0.5 C 46.5,-0.5 47.5,-0.5 48.5,-0.5C 49.9997,1.17861 51.833,2.51195 54,3.5C 54.3988,3.27155 54.5654,2.93822 54.5,2.5C 54.8333,2.5 55.1667,2.5 55.5,2.5C 55.5,3.83333 56.1667,4.5 57.5,4.5C 57.5,5.16667 57.8333,5.5 58.5,5.5C 60.9236,7.24148 63.5902,8.57482 66.5,9.5C 67.6594,11.2503 69.326,12.2503 71.5,12.5C 73.3356,14.588 75.6689,15.9213 78.5,16.5C 78.5,17.1667 78.8333,17.5 79.5,17.5C 82.223,19.5313 85.223,21.198 88.5,22.5C 88.5,39.1667 88.5,55.8333 88.5,72.5C 85.7079,72.6225 83.7079,73.9558 82.5,76.5C 81.209,76.2627 80.209,76.596 79.5,77.5C 78.8333,77.5 78.5,77.8333 78.5,78.5C 76.9731,78.427 75.9731,79.0937 75.5,80.5C 73.6203,80.2291 72.287,80.8958 71.5,82.5C 71.5,83.1667 71.1667,83.5 70.5,83.5C 70.5654,83.0618 70.3988,82.7284 70,82.5C 67.9052,84.1247 65.7385,85.4581 63.5,86.5C 62.8333,86.5 62.5,86.8333 62.5,87.5C 60.847,87.6596 59.5137,88.3263 58.5,89.5C 57.8333,89.5 57.5,89.8333 57.5,90.5C 54.0516,91.3901 51.0516,93.0568 48.5,95.5C 47.5,95.5 46.5,95.5 45.5,95.5C 43.5264,94.0941 41.5264,92.5941 39.5,91C 38.552,90.5172 37.552,90.3505 36.5,90.5C 36.5,89.8333 36.1667,89.5 35.5,89.5C 34.713,87.8958 33.3797,87.2291 31.5,87.5C 31.1667,86.1667 30.8333,86.1667 30.5,87.5C 30.1667,87.5 29.8333,87.5 29.5,87.5C 25.8822,83.0153 21.2156,80.0153 15.5,78.5C 15.5,77.8333 15.1667,77.5 14.5,77.5C 13.791,76.596 12.791,76.2627 11.5,76.5C 10.1979,74.1782 8.19786,72.8449 5.5,72.5C 5.5,55.8333 5.5,39.1667 5.5,22.5C 8.29211,22.3775 10.2921,21.0442 11.5,18.5C 12.791,18.7373 13.791,18.404 14.5,17.5C 15.1667,17.5 15.5,17.1667 15.5,16.5C 18.3311,15.9213 20.6644,14.588 22.5,12.5C 22.5,11.8333 22.8333,11.5 23.5,11.5C 23.4346,11.9382 23.6012,12.2716 24,12.5C 26.3143,11.2668 28.4809,9.93342 30.5,8.5C 31.1667,8.5 31.5,8.16667 31.5,7.5C 33.153,7.3404 34.4863,6.67373 35.5,5.5C 36.1667,5.5 36.5,5.16667 36.5,4.5C 39.7799,3.19318 42.7799,1.52652 45.5,-0.5 Z"/></g>
<g><path style="opacity:0.02" fill="#14333e" d="M 42.5,-0.5 C 43.5,-0.5 44.5,-0.5 45.5,-0.5C 42.7799,1.52652 39.7799,3.19318 36.5,4.5C 36.1667,4.5 35.8333,4.5 35.5,4.5C 37.6572,2.58793 39.9906,0.921263 42.5,-0.5 Z"/></g>
<g><path style="opacity:0.004" fill="#0b1319" d="M 55.5,2.5 C 56.7095,2.93205 57.7095,3.59872 58.5,4.5C 58.1667,4.5 57.8333,4.5 57.5,4.5C 56.1667,4.5 55.5,3.83333 55.5,2.5 Z"/></g>
<g><path style="opacity:0.004" fill="#111f27" d="M 58.5,4.5 C 61.7012,5.37864 64.3678,7.04531 66.5,9.5C 63.5902,8.57482 60.9236,7.24148 58.5,5.5C 58.5,5.16667 58.5,4.83333 58.5,4.5 Z"/></g>
<g><path style="opacity:0.078" fill="#192f4c" d="M 35.5,4.5 C 35.5,4.83333 35.5,5.16667 35.5,5.5C 34.4863,6.67373 33.153,7.3404 31.5,7.5C 31.1667,7.5 30.8333,7.5 30.5,7.5C 31.7682,5.95302 33.4348,4.95302 35.5,4.5 Z"/></g>
<g><path style="opacity:0.957" fill="#1f2020" d="M 45.5,6.5 C 58.0151,12.0943 70.0151,18.761 81.5,26.5C 82.8333,40.5 82.8333,54.5 81.5,68.5C 70.0657,75.2998 58.5657,81.9664 47,88.5C 35.1219,82.4484 23.6219,75.7817 12.5,68.5C 11.1667,54.5 11.1667,40.5 12.5,26.5C 23.5397,19.7715 34.5397,13.1048 45.5,6.5 Z"/></g>
<g><path style="opacity:0.005" fill="#0a1219" d="M 30.5,7.5 C 30.5,7.83333 30.5,8.16667 30.5,8.5C 28.4809,9.93342 26.3143,11.2668 24,12.5C 23.6012,12.2716 23.4346,11.9382 23.5,11.5C 25.3356,9.41203 27.6689,8.0787 30.5,7.5 Z"/></g>
<g><path style="opacity:0.005" fill="#0b0418" d="M 66.5,9.5 C 68.9328,9.2729 70.5994,10.2729 71.5,12.5C 69.326,12.2503 67.6594,11.2503 66.5,9.5 Z"/></g>
<g><path style="opacity:0.005" fill="#0e0b19" d="M 22.5,12.5 C 20.6644,14.588 18.3311,15.9213 15.5,16.5C 15.1667,16.5 14.8333,16.5 14.5,16.5C 16.8911,14.6378 19.5578,13.3045 22.5,12.5 Z"/></g>
<g><path style="opacity:0.005" fill="#070711" d="M 71.5,12.5 C 74.4848,13.3257 77.1515,14.659 79.5,16.5C 79.1667,16.5 78.8333,16.5 78.5,16.5C 75.6689,15.9213 73.3356,14.588 71.5,12.5 Z"/></g>
<g><path style="opacity:0.09" fill="#13193a" d="M 14.5,16.5 C 14.5,16.8333 14.5,17.1667 14.5,17.5C 13.791,18.404 12.791,18.7373 11.5,18.5C 12.2905,17.5987 13.2905,16.9321 14.5,16.5 Z"/></g>
<g><path style="opacity:0.004" fill="#122327" d="M 79.5,16.5 C 83.1153,17.8174 86.1153,19.8174 88.5,22.5C 85.223,21.198 82.223,19.5313 79.5,17.5C 79.5,17.1667 79.5,16.8333 79.5,16.5 Z"/></g>
<g><path style="opacity:0.071" fill="#1c3048" d="M 11.5,18.5 C 10.2921,21.0442 8.29211,22.3775 5.5,22.5C 7.03371,20.631 9.03371,19.2977 11.5,18.5 Z"/></g>
<g><path style="opacity:1" fill="#f9f9f9" d="M 29.5,24.5 C 42.8333,24.5 56.1667,24.5 69.5,24.5C 69.6641,27.1873 69.4974,29.854 69,32.5C 60.1667,44.6667 51.3333,56.8333 42.5,69C 38.5,69.6667 34.5,69.6667 30.5,69C 39.7433,57.1789 48.7433,45.1789 57.5,33C 48.1726,32.5002 38.8393,32.3335 29.5,32.5C 29.5,29.8333 29.5,27.1667 29.5,24.5 Z"/></g>
<g><path style="opacity:0.004" fill="#0f181b" d="M 5.5,72.5 C 8.19786,72.8449 10.1979,74.1782 11.5,76.5C 8.80214,76.1551 6.80214,74.8218 5.5,72.5 Z"/></g>
<g><path style="opacity:0.008" fill="#193d4a" d="M 88.5,72.5 C 86.9663,74.369 84.9663,75.7023 82.5,76.5C 83.7079,73.9558 85.7079,72.6225 88.5,72.5 Z"/></g>
<g><path style="opacity:0.006" fill="#102527" d="M 11.5,76.5 C 12.791,76.2627 13.791,76.596 14.5,77.5C 14.5,77.8333 14.5,78.1667 14.5,78.5C 13.2905,78.0679 12.2905,77.4013 11.5,76.5 Z"/></g>
<g><path style="opacity:0.006" fill="#112426" d="M 82.5,76.5 C 81.7095,77.4013 80.7095,78.0679 79.5,78.5C 79.5,78.1667 79.5,77.8333 79.5,77.5C 80.209,76.596 81.209,76.2627 82.5,76.5 Z"/></g>
<g><path style="opacity:0.005" fill="#0f021a" d="M 78.5,78.5 C 78.8333,78.5 79.1667,78.5 79.5,78.5C 78.4863,79.6737 77.153,80.3404 75.5,80.5C 75.9731,79.0937 76.9731,78.427 78.5,78.5 Z"/></g>
<g><path style="opacity:0.004" fill="#0e0919" d="M 75.5,80.5 C 74.4863,81.6737 73.153,82.3404 71.5,82.5C 72.287,80.8958 73.6203,80.2291 75.5,80.5 Z"/></g>
<g><path style="opacity:0.005" fill="#111726" d="M 14.5,78.5 C 14.8333,78.5 15.1667,78.5 15.5,78.5C 21.2156,80.0153 25.8822,83.0153 29.5,87.5C 24.5168,84.3032 19.5168,81.3032 14.5,78.5 Z"/></g>
<g><path style="opacity:0.004" fill="#070f15" d="M 70.5,83.5 C 68.6644,85.588 66.3311,86.9213 63.5,87.5C 63.5,87.1667 63.5,86.8333 63.5,86.5C 65.7385,85.4581 67.9052,84.1247 70,82.5C 70.3988,82.7284 70.5654,83.0618 70.5,83.5 Z"/></g>
<g><path style="opacity:0.396" fill="#1c5263" d="M 30.5,87.5 C 30.8333,87.5 31.1667,87.5 31.5,87.5C 33.3797,87.2291 34.713,87.8958 35.5,89.5C 35.5,89.8333 35.5,90.1667 35.5,90.5C 33.4348,90.047 31.7682,89.047 30.5,87.5 Z"/></g>
<g><path style="opacity:0.005" fill="#0e2022" d="M 62.5,87.5 C 62.8333,87.5 63.1667,87.5 63.5,87.5C 62.2318,89.047 60.5652,90.047 58.5,90.5C 58.5,90.1667 58.5,89.8333 58.5,89.5C 59.5137,88.3263 60.847,87.6596 62.5,87.5 Z"/></g>
<g><path style="opacity:0.02" fill="#16353f" d="M 35.5,90.5 C 35.8333,90.5 36.1667,90.5 36.5,90.5C 37.552,90.3505 38.552,90.5172 39.5,91C 41.5264,92.5941 43.5264,94.0941 45.5,95.5C 44.5,95.5 43.5,95.5 42.5,95.5C 39.9906,94.0787 37.6572,92.4121 35.5,90.5 Z"/></g>
<g><path style="opacity:0.004" fill="#142c3c" d="M 57.5,90.5 C 57.8333,90.5 58.1667,90.5 58.5,90.5C 55.9906,91.9213 53.6572,93.5879 51.5,95.5C 50.5,95.5 49.5,95.5 48.5,95.5C 51.0516,93.0568 54.0516,91.3901 57.5,90.5 Z"/></g>
</svg>
