<?xml version="1.0" encoding="UTF-8"?>
<!DOCTYPE svg PUBLIC "-//W3C//DTD SVG 1.1//EN" "http://www.w3.org/Graphics/SVG/1.1/DTD/svg11.dtd">
<svg xmlns="http://www.w3.org/2000/svg" version="1.1" width="100%" viewBox="0 0 344 343" style="shape-rendering:geometricPrecision; text-rendering:geometricPrecision; image-rendering:optimizeQuality; fill-rule:evenodd; clip-rule:evenodd" xmlns:xlink="http://www.w3.org/1999/xlink">
<g><path style="opacity:0.979" fill="#d872ac" d="M 155.5,-0.5 C 166.167,-0.5 176.833,-0.5 187.5,-0.5C 254.123,8.63243 301.623,43.6324 330,104.5C 337.649,123.93 342.149,143.93 343.5,164.5C 343.5,168.833 343.5,173.167 343.5,177.5C 336.899,253.863 297.899,306.03 226.5,334C 213.602,337.944 200.602,340.777 187.5,342.5C 176.5,342.5 165.5,342.5 154.5,342.5C 89.5921,333.429 42.7588,299.429 14,240.5C 6.03312,221.471 1.19979,201.804 -0.5,181.5C -0.5,174.5 -0.5,167.5 -0.5,160.5C 7.72414,86.1032 46.7241,35.2699 116.5,8C 129.403,4.0552 142.403,1.22187 155.5,-0.5 Z"/></g>
<g><path style="opacity:1" fill="#050304" d="M 157.5,23.5 C 219.921,20.7877 267.421,45.7877 300,98.5C 318.907,133.652 323.573,170.652 314,209.5C 293.529,273.3 250.029,309.467 183.5,318C 129.788,320.887 86.2877,301.387 53,259.5C 19.0478,209.977 14.7145,157.977 40,103.5C 65.8107,57.3357 104.977,30.6691 157.5,23.5 Z"/></g>
<g><path style="opacity:1" fill="#fdfdfd" d="M 160.5,36.5 C 215.108,34.7158 256.941,56.7158 286,102.5C 313.46,155.244 310.126,205.911 276,254.5C 236.587,299.745 187.754,314.578 129.5,299C 67.3015,273.468 37.1348,226.968 39,159.5C 44.0993,113.446 66.266,78.2798 105.5,54C 122.791,44.4007 141.125,38.5674 160.5,36.5 Z"/></g>
<g><path style="opacity:1" fill="#010101" d="M 172.5,56.5 C 211.227,54.9452 242.06,69.9452 265,101.5C 296.271,151.624 294.604,200.624 260,248.5C 227.024,283.794 186.857,295.96 139.5,285C 110.557,277.885 89.2241,261.219 75.5,235C 103.864,187.001 145.198,156.001 199.5,142C 220.541,137.037 241.874,134.537 263.5,134.5C 249.742,89.07 219.409,63.07 172.5,56.5 Z"/></g>
</svg>
