<?xml version="1.0" encoding="UTF-8"?>
<!DOCTYPE svg PUBLIC "-//W3C//DTD SVG 1.1//EN" "http://www.w3.org/Graphics/SVG/1.1/DTD/svg11.dtd">
<svg xmlns="http://www.w3.org/2000/svg" version="1.1" width="100%" viewBox="0 0 96 96" style="shape-rendering:geometricPrecision; text-rendering:geometricPrecision; image-rendering:optimizeQuality; fill-rule:evenodd; clip-rule:evenodd" xmlns:xlink="http://www.w3.org/1999/xlink">
<g><path style="opacity:0.989" fill="#e9ca31" d="M 49.5,-0.5 C 52.1667,-0.5 54.8333,-0.5 57.5,-0.5C 59.9052,0.768202 62.5718,1.43487 65.5,1.5C 65.8333,1.5 66.1667,1.5 66.5,1.5C 72.1415,4.79331 77.8082,8.12664 83.5,11.5C 84.1667,11.5 84.5,11.8333 84.5,12.5C 85.8089,15.7777 87.6422,18.7777 90,21.5C 90.69,22.7383 91.19,22.7383 91.5,21.5C 92.5729,23.3469 92.5729,25.3469 91.5,27.5C 90.9217,29.1874 89.755,30.8541 88,32.5C 87.235,34.0657 87.4017,35.3991 88.5,36.5C 89.2186,38.7638 89.552,41.0971 89.5,43.5C 89.9503,49.3285 89.2836,54.9951 87.5,60.5C 87.6236,61.1067 87.9569,61.44 88.5,61.5C 88.5,61.8333 88.5,62.1667 88.5,62.5C 87.7611,62.369 87.0944,62.5357 86.5,63C 88.7375,65.0305 90.2375,67.5305 91,70.5C 91.49,69.2068 91.6567,67.8734 91.5,66.5C 92.7897,67.8819 92.7897,70.5485 91.5,74.5C 90.8826,74.3893 90.3826,74.056 90,73.5C 86.6269,78.691 82.7936,83.3576 78.5,87.5C 71.7596,91.0446 64.7596,93.7113 57.5,95.5C 54.5,95.5 51.5,95.5 48.5,95.5C 47.1995,94.1184 46.3661,92.4517 46,90.5C 45.3292,89.7476 44.4959,89.4142 43.5,89.5C 42.8333,89.5 42.5,89.1667 42.5,88.5C 37.7704,85.723 32.7704,83.3897 27.5,81.5C 24.7291,79.233 22.0625,76.733 19.5,74C 16.6074,72.8512 13.6074,72.3512 10.5,72.5C 6.68555,73.0193 4.68555,71.3527 4.5,67.5C 4.39643,65.2972 3.72976,63.2972 2.5,61.5C 3.04309,61.44 3.37642,61.1067 3.5,60.5C 2.97244,58.6639 2.30577,56.9972 1.5,55.5C 1.5,50.1667 1.5,44.8333 1.5,39.5C 2.54593,35.5448 3.54593,31.5448 4.5,27.5C 4.5,27.1667 4.5,26.8333 4.5,26.5C 5.11742,26.6107 5.61742,26.944 6,27.5C 6.60767,25.8455 7.10767,24.1789 7.5,22.5C 11.1817,22.6653 14.8484,22.4986 18.5,22C 21.0625,19.267 23.7291,16.767 26.5,14.5C 27.1667,14.5 27.5,14.1667 27.5,13.5C 31.4256,11.5262 35.4256,9.85951 39.5,8.5C 42.6145,8.44519 44.9478,7.11186 46.5,4.5C 47.7368,3.03508 48.7368,1.36841 49.5,-0.5 Z"/></g>
<g><path style="opacity:0.149" fill="#52460e" d="M 57.5,-0.5 C 60.1667,-0.5 62.8333,-0.5 65.5,-0.5C 65.5,0.166667 65.5,0.833333 65.5,1.5C 62.5718,1.43487 59.9052,0.768202 57.5,-0.5 Z"/></g>
<g><path style="opacity:0.18" fill="#806612" d="M 47.5,-0.5 C 48.1667,-0.5 48.8333,-0.5 49.5,-0.5C 48.7368,1.36841 47.7368,3.03508 46.5,4.5C 46.1667,4.5 45.8333,4.5 45.5,4.5C 45.8925,2.7162 46.5592,1.04953 47.5,-0.5 Z"/></g>
<g><path style="opacity:0.098" fill="#46360e" d="M 83.5,11.5 C 77.8082,8.12664 72.1415,4.79331 66.5,1.5C 72.9517,2.83668 78.6183,6.17001 83.5,11.5 Z"/></g>
<g><path style="opacity:0.004" fill="#2b1201" d="M 45.5,4.5 C 45.8333,4.5 46.1667,4.5 46.5,4.5C 44.9478,7.11186 42.6145,8.44519 39.5,8.5C 41.1853,6.87723 43.1853,5.5439 45.5,4.5 Z"/></g>
<g><path style="opacity:0.957" fill="#21201f" d="M 52.5,6.5 C 65.6071,7.30404 76.1071,12.9707 84,23.5C 83.2014,26.8058 82.0347,30.1391 80.5,33.5C 83.4711,43.1689 83.1378,52.6689 79.5,62C 81.4402,65.3488 82.6069,68.8488 83,72.5C 75.0125,83.0797 64.5125,88.0797 51.5,87.5C 50.3649,85.2011 49.0316,83.0344 47.5,81C 36.8091,80.1251 28.4758,75.2918 22.5,66.5C 18.8927,65.5108 15.226,65.1774 11.5,65.5C 9.55397,59.6557 8.22063,53.6557 7.5,47.5C 8.07028,41.6476 9.40361,35.9809 11.5,30.5C 14.7848,29.6764 18.1182,29.1764 21.5,29C 25.0794,24.8765 29.0794,21.2099 33.5,18C 38.5763,15.5857 43.9096,14.0857 49.5,13.5C 50.7878,11.2612 51.7878,8.92788 52.5,6.5 Z"/></g>
<g><path style="opacity:0.035" fill="#3c2b0e" d="M 39.5,8.5 C 35.4256,9.85951 31.4256,11.5262 27.5,13.5C 27.1667,13.5 26.8333,13.5 26.5,13.5C 30.1903,9.80884 34.5236,8.14217 39.5,8.5 Z"/></g>
<g><path style="opacity:0.227" fill="#60400f" d="M 84.5,12.5 C 87.5558,14.9485 89.8892,17.9485 91.5,21.5C 91.19,22.7383 90.69,22.7383 90,21.5C 87.6422,18.7777 85.8089,15.7777 84.5,12.5 Z"/></g>
<g><path style="opacity:0.005" fill="#361b06" d="M 26.5,13.5 C 26.5,13.8333 26.5,14.1667 26.5,14.5C 23.7291,16.767 21.0625,19.267 18.5,22C 14.8484,22.4986 11.1817,22.6653 7.5,22.5C 7.61071,21.8826 7.94404,21.3826 8.5,21C 11.8333,20.6667 15.1667,20.3333 18.5,20C 20.7512,17.2415 23.4179,15.0748 26.5,13.5 Z"/></g>
<g><path style="opacity:0.008" fill="#695f0d" d="M 7.5,22.5 C 7.10767,24.1789 6.60767,25.8455 6,27.5C 5.61742,26.944 5.11742,26.6107 4.5,26.5C 4.73758,24.5956 5.73758,23.2623 7.5,22.5 Z"/></g>
<g><path style="opacity:1" fill="#fafafa" d="M 43.5,32.5 C 42.5184,35.9619 42.185,39.6286 42.5,43.5C 48.8333,43.5 55.1667,43.5 61.5,43.5C 70.0505,45.9183 73.5505,51.585 72,60.5C 70.2915,65.5415 66.7915,68.3748 61.5,69C 52.1726,69.4998 42.8393,69.6665 33.5,69.5C 33.5,67.1667 33.5,64.8333 33.5,62.5C 41.6841,62.8257 49.6841,62.4924 57.5,61.5C 60.2856,61.0436 61.619,59.3769 61.5,56.5C 61.5938,54.0884 60.5938,52.255 58.5,51C 50.1733,50.5003 41.84,50.3336 33.5,50.5C 33.5,41.8333 33.5,33.1667 33.5,24.5C 45.8333,24.5 58.1667,24.5 70.5,24.5C 70.5,27.1667 70.5,29.8333 70.5,32.5C 61.5,32.5 52.5,32.5 43.5,32.5 Z"/></g>
<g><path style="opacity:0.02" fill="#716914" d="M 91.5,27.5 C 91.3059,30.3297 90.6392,32.9963 89.5,35.5C 88.8333,35.5 88.5,35.8333 88.5,36.5C 87.4017,35.3991 87.235,34.0657 88,32.5C 89.755,30.8541 90.9217,29.1874 91.5,27.5 Z"/></g>
<g><path style="opacity:0.005" fill="#110300" d="M 89.5,35.5 C 90.5664,37.7014 91.233,40.0347 91.5,42.5C 90.8333,42.5 90.5,42.8333 90.5,43.5C 90.1667,43.5 89.8333,43.5 89.5,43.5C 89.552,41.0971 89.2186,38.7638 88.5,36.5C 88.5,35.8333 88.8333,35.5 89.5,35.5 Z"/></g>
<g><path style="opacity:0.071" fill="#43300c" d="M 4.5,27.5 C 3.54593,31.5448 2.54593,35.5448 1.5,39.5C 0.885576,34.9681 1.88558,30.9681 4.5,27.5 Z"/></g>
<g><path style="opacity:0.98" fill="#909090" d="M 43.5,32.5 C 43.5,35.8333 43.5,39.1667 43.5,42.5C 49.69,42.1771 55.69,42.5104 61.5,43.5C 55.1667,43.5 48.8333,43.5 42.5,43.5C 42.185,39.6286 42.5184,35.9619 43.5,32.5 Z"/></g>
<g><path style="opacity:0.137" fill="#65580f" d="M 1.5,55.5 C 2.30577,56.9972 2.97244,58.6639 3.5,60.5C 3.37642,61.1067 3.04309,61.44 2.5,61.5C 2.16667,61.5 1.83333,61.5 1.5,61.5C 1.5,59.5 1.5,57.5 1.5,55.5 Z"/></g>
<g><path style="opacity:0.024" fill="#66501d" d="M 91.5,42.5 C 93.1942,49.189 92.1942,55.5223 88.5,61.5C 87.9569,61.44 87.6236,61.1067 87.5,60.5C 89.2836,54.9951 89.9503,49.3285 89.5,43.5C 89.8333,43.5 90.1667,43.5 90.5,43.5C 91.1667,43.5 91.5,43.1667 91.5,42.5 Z"/></g>
<g><path style="opacity:0.98" fill="#959595" d="M 57.5,61.5 C 49.6841,62.4924 41.6841,62.8257 33.5,62.5C 33.5,64.8333 33.5,67.1667 33.5,69.5C 32.5269,67.0521 32.1936,64.3854 32.5,61.5C 40.8333,61.5 49.1667,61.5 57.5,61.5 Z"/></g>
<g><path style="opacity:0.005" fill="#200900" d="M 1.5,61.5 C 1.83333,61.5 2.16667,61.5 2.5,61.5C 3.72976,63.2972 4.39643,65.2972 4.5,67.5C 2.99249,65.8185 1.99249,63.8185 1.5,61.5 Z"/></g>
<g><path style="opacity:0.031" fill="#645816" d="M 88.5,62.5 C 89.5,63.8333 90.5,65.1667 91.5,66.5C 91.6567,67.8734 91.49,69.2068 91,70.5C 90.2375,67.5305 88.7375,65.0305 86.5,63C 87.0944,62.5357 87.7611,62.369 88.5,62.5 Z"/></g>
<g><path style="opacity:0.071" fill="#2c280b" d="M 10.5,72.5 C 13.6074,72.3512 16.6074,72.8512 19.5,74C 22.0625,76.733 24.7291,79.233 27.5,81.5C 23.8391,80.3522 20.8391,78.1855 18.5,75C 15.4776,74.9016 12.8109,74.0682 10.5,72.5 Z"/></g>
<g><path style="opacity:0.012" fill="#645b0e" d="M 91.5,74.5 C 88.1667,79.8333 83.8333,84.1667 78.5,87.5C 82.7936,83.3576 86.6269,78.691 90,73.5C 90.3826,74.056 90.8826,74.3893 91.5,74.5 Z"/></g>
<g><path style="opacity:0.039" fill="#271f09" d="M 27.5,81.5 C 32.7704,83.3897 37.7704,85.723 42.5,88.5C 36.5269,87.8615 31.5269,85.5282 27.5,81.5 Z"/></g>
<g><path style="opacity:0.008" fill="#3d2f0c" d="M 78.5,87.5 C 74.3941,90.5354 70.0607,93.2021 65.5,95.5C 62.8333,95.5 60.1667,95.5 57.5,95.5C 64.7596,93.7113 71.7596,91.0446 78.5,87.5 Z"/></g>
<g><path style="opacity:0.306" fill="#836b11" d="M 43.5,89.5 C 44.4959,89.4142 45.3292,89.7476 46,90.5C 46.3661,92.4517 47.1995,94.1184 48.5,95.5C 47.8333,95.5 47.1667,95.5 46.5,95.5C 44.9752,93.7837 43.9752,91.7837 43.5,89.5 Z"/></g>
</svg>
