<svg version="1.1" id="Layer_1" xmlns="http://www.w3.org/2000/svg" xmlns:xlink="http://www.w3.org/1999/xlink" x="0px" y="0px"
	 width="100%" viewBox="0 0 313 370" enable-background="new 0 0 313 370" xml:space="preserve">
<path fill="#076633" opacity="1.000000" stroke="none" 
	d="
M1.000001,201.000000 
	C1.000000,196.975449 1.000000,192.950912 1.383653,188.307007 
	C3.583272,160.875000 26.178427,138.116211 52.410664,134.663254 
	C51.607513,129.430862 50.216496,124.203911 50.131252,118.955750 
	C49.986752,110.058968 50.303070,101.116562 51.089935,92.252296 
	C52.113029,80.726830 55.917885,69.776970 61.274593,59.691116 
	C68.252647,46.552532 77.116531,34.721416 89.045052,25.323029 
	C100.895454,15.986186 113.726089,8.820189 128.342789,5.026183 
	C134.183365,3.510165 140.111649,2.331972 146.000000,1.000000 
	C153.687576,1.000000 161.375168,1.000000 169.692764,1.387319 
	C176.984879,3.087845 183.792740,3.903389 190.282745,5.804189 
	C213.051041,12.472602 231.212753,26.084803 245.214569,44.904770 
	C258.598145,62.893764 265.579254,83.498169 265.864380,105.978851 
	C265.985321,115.513885 264.615509,125.067825 263.914734,134.730148 
	C283.956238,138.629745 299.335602,149.755035 308.275330,168.911499 
	C310.927155,174.593979 312.132080,180.951691 314.000000,187.000000 
	C314.000000,191.689255 314.000000,196.378510 313.617950,201.687897 
	C313.149078,203.796082 313.298462,205.343750 312.940186,206.763275 
	C307.034637,230.163193 292.872131,245.954483 269.547272,252.818832 
	C266.492157,253.717926 266.034576,254.831345 265.955200,257.430939 
	C265.759338,263.845459 265.402344,270.257477 264.985352,276.662354 
	C264.273071,287.602570 261.121918,297.995514 256.518097,307.791534 
	C249.688202,322.324249 240.713303,335.281738 228.041992,345.682709 
	C218.382996,353.611084 208.011719,360.011597 196.340973,364.130676 
	C188.407425,366.930756 180.125900,368.744934 172.000000,371.000000 
	C162.979111,371.000000 153.958206,371.000000 144.308441,370.613525 
	C140.777695,369.817963 137.834015,369.598846 134.980331,368.970795 
	C101.863724,361.682343 77.527710,342.631378 61.617435,312.991516 
	C52.509281,296.023590 48.766647,277.599457 50.042648,258.297943 
	C50.270081,254.857605 48.989296,253.833374 45.646282,252.848267 
	C27.071800,247.374893 13.205433,236.197266 6.028105,217.807541 
	C3.908997,212.377960 2.652049,206.611877 1.000001,201.000000 
M112.654953,343.844482 
	C129.536911,353.157196 147.417618,357.266846 166.777618,355.163544 
	C189.160934,352.731812 208.156769,343.860718 223.924301,327.660919 
	C246.026108,304.953125 253.827988,277.737610 248.784821,247.037552 
	C244.380219,220.224747 229.958099,199.261475 206.981186,184.755096 
	C187.389435,172.385910 165.792709,168.482056 142.862289,171.932053 
	C118.947533,175.530197 99.674248,187.417786 85.071014,206.192719 
	C65.634537,231.181625 60.232315,259.478882 69.286346,289.930084 
	C76.256416,313.372375 90.514755,331.423706 112.654953,343.844482 
M195.190842,24.212561 
	C176.090317,16.283575 156.442703,14.001266 136.246521,18.994440 
	C117.343597,23.667875 101.233795,33.102070 88.481293,48.008469 
	C69.550270,70.136955 61.830990,95.508003 66.655510,124.361641 
	C69.663971,142.354065 77.462807,157.974014 89.734680,171.664139 
	C93.520424,175.887390 95.520294,175.814331 99.697784,172.982315 
	C114.162537,163.176300 130.325302,157.486603 147.670486,156.148514 
	C172.582764,154.226669 196.039352,159.236969 216.884872,173.671906 
	C220.287003,176.027786 222.239990,175.526413 224.846878,172.731979 
	C246.919510,149.071594 254.557602,121.027931 248.205994,89.769844 
	C242.045486,59.452248 223.653473,37.984997 195.190842,24.212561 
M57.987782,223.534317 
	C63.363377,211.088974 69.791451,199.304688 79.729790,189.823395 
	C82.221611,187.446182 82.053383,185.735260 79.793190,183.164551 
	C71.315964,173.522675 63.715321,163.242294 59.076580,151.111649 
	C57.202576,146.210968 53.689568,146.665619 49.667088,147.605453 
	C25.677919,153.210510 9.973825,178.673752 13.855878,201.812912 
	C16.875637,219.812317 30.890377,236.309036 48.615559,241.085785 
	C51.339371,241.819809 52.436321,241.322403 53.173698,238.487610 
	C54.425449,233.675369 56.202240,228.999695 57.987782,223.534317 
M285.304291,230.821945 
	C297.716797,218.919556 303.764038,204.681854 301.089935,187.329422 
	C297.987854,167.199753 284.489716,152.458221 264.760529,147.420258 
	C260.617523,146.362320 258.260040,147.215225 256.401642,151.710403 
	C251.668381,163.159439 244.989990,173.553696 236.088058,182.267197 
	C233.040237,185.250488 233.385727,186.901733 236.174316,189.837845 
	C244.703491,198.818115 251.691498,208.947525 256.290894,220.520706 
	C259.028442,227.409027 261.320496,234.474380 263.879059,241.645660 
	C271.711456,239.676590 278.792145,236.635117 285.304291,230.821945 
z"/>
<path fill="#13642F" opacity="1.000000" stroke="none" 
	d="
M112.327591,343.673615 
	C90.514755,331.423706 76.256416,313.372375 69.286346,289.930084 
	C60.232315,259.478882 65.634537,231.181625 85.071014,206.192719 
	C99.674248,187.417786 118.947533,175.530197 142.862289,171.932053 
	C165.792709,168.482056 187.389435,172.385910 206.981186,184.755096 
	C229.958099,199.261475 244.380219,220.224747 248.784821,247.037552 
	C253.827988,277.737610 246.026108,304.953125 223.924301,327.660919 
	C208.156769,343.860718 189.160934,352.731812 166.777618,355.163544 
	C147.417618,357.266846 129.536911,353.157196 112.327591,343.673615 
M186.129776,184.251602 
	C171.334473,179.155136 156.304321,178.049118 140.885361,181.034012 
	C96.376366,189.650360 65.986382,235.583328 75.686455,279.789246 
	C85.476463,324.405029 125.384789,352.483215 170.673706,345.930542 
	C209.936066,340.249878 242.643494,306.240448 241.523148,262.077637 
	C240.580521,224.919891 221.415100,198.879364 186.129776,184.251602 
z"/>
<path fill="#13642F" opacity="1.000000" stroke="none" 
	d="
M195.543671,24.352787 
	C223.653473,37.984997 242.045486,59.452248 248.205994,89.769844 
	C254.557602,121.027931 246.919510,149.071594 224.846878,172.731979 
	C222.239990,175.526413 220.287003,176.027786 216.884872,173.671906 
	C196.039352,159.236969 172.582764,154.226669 147.670486,156.148514 
	C130.325302,157.486603 114.162537,163.176300 99.697784,172.982315 
	C95.520294,175.814331 93.520424,175.887390 89.734680,171.664139 
	C77.462807,157.974014 69.663971,142.354065 66.655510,124.361641 
	C61.830990,95.508003 69.550270,70.136955 88.481293,48.008469 
	C101.233795,33.102070 117.343597,23.667875 136.246521,18.994440 
	C156.442703,14.001266 176.090317,16.283575 195.543671,24.352787 
M106.434189,42.906708 
	C65.078377,75.422752 65.283745,132.968689 95.561531,164.661377 
	C137.061523,140.865524 178.652649,140.932800 220.093750,164.660843 
	C248.812851,135.596420 248.731934,85.830833 220.080017,52.943138 
	C191.885971,20.581005 142.636581,16.012695 106.434189,42.906708 
z"/>
<path fill="#13642F" opacity="1.000000" stroke="none" 
	d="
M57.873074,223.900482 
	C56.202240,228.999695 54.425449,233.675369 53.173698,238.487610 
	C52.436321,241.322403 51.339371,241.819809 48.615559,241.085785 
	C30.890377,236.309036 16.875637,219.812317 13.855878,201.812912 
	C9.973825,178.673752 25.677919,153.210510 49.667088,147.605453 
	C53.689568,146.665619 57.202576,146.210968 59.076580,151.111649 
	C63.715321,163.242294 71.315964,173.522675 79.793190,183.164551 
	C82.053383,185.735260 82.221611,187.446182 79.729790,189.823395 
	C69.791451,199.304688 63.363377,211.088974 57.873074,223.900482 
M50.670815,218.232910 
	C55.470356,209.888412 59.900375,201.301056 65.178131,193.270874 
	C70.013557,185.913681 70.188477,186.335236 65.245491,179.119308 
	C60.205456,171.761673 55.677048,164.053589 50.904846,156.467484 
	C33.442841,161.096451 21.399731,177.468063 22.008602,195.873978 
	C22.515463,211.196182 34.036488,227.628006 46.214931,229.983826 
	C47.570499,226.334976 48.947857,222.627472 50.670815,218.232910 
z"/>
<path fill="#13642F" opacity="1.000000" stroke="none" 
	d="
M284.994873,231.003876 
	C278.792145,236.635117 271.711456,239.676590 263.879059,241.645660 
	C261.320496,234.474380 259.028442,227.409027 256.290894,220.520706 
	C251.691498,208.947525 244.703491,198.818115 236.174316,189.837845 
	C233.385727,186.901733 233.040237,185.250488 236.088058,182.267197 
	C244.989990,173.553696 251.668381,163.159439 256.401642,151.710403 
	C258.260040,147.215225 260.617523,146.362320 264.760529,147.420258 
	C284.489716,152.458221 297.987854,167.199753 301.089935,187.329422 
	C303.764038,204.681854 297.716797,218.919556 284.994873,231.003876 
M287.060944,173.524277 
	C282.446045,166.025024 275.952209,160.722031 267.790222,157.587906 
	C266.489380,157.088364 263.771698,157.435623 263.191315,158.341293 
	C257.208038,167.678207 251.529892,177.210648 245.552597,187.040817 
	C256.352936,199.254532 264.206390,213.965240 269.352142,230.080307 
	C285.395020,225.035812 302.104431,199.407181 287.060944,173.524277 
z"/>
<path fill="#98C76C" opacity="1.000000" stroke="none" 
	d="
M186.490005,184.406799 
	C221.415100,198.879364 240.580521,224.919891 241.523148,262.077637 
	C242.643494,306.240448 209.936066,340.249878 170.673706,345.930542 
	C125.384789,352.483215 85.476463,324.405029 75.686455,279.789246 
	C65.986382,235.583328 96.376366,189.650360 140.885361,181.034012 
	C156.304321,178.049118 171.334473,179.155136 186.490005,184.406799 
z"/>
<path fill="#98C76C" opacity="1.000000" stroke="none" 
	d="
M106.708664,42.679565 
	C142.636581,16.012695 191.885971,20.581005 220.080017,52.943138 
	C248.731934,85.830833 248.812851,135.596420 220.093750,164.660843 
	C178.652649,140.932800 137.061523,140.865524 95.561531,164.661377 
	C65.283745,132.968689 65.078377,75.422752 106.708664,42.679565 
z"/>
<path fill="#97C66B" opacity="1.000000" stroke="none" 
	d="
M50.498016,218.576447 
	C48.947857,222.627472 47.570499,226.334976 46.214931,229.983826 
	C34.036488,227.628006 22.515463,211.196182 22.008602,195.873978 
	C21.399731,177.468063 33.442841,161.096451 50.904846,156.467484 
	C55.677048,164.053589 60.205456,171.761673 65.245491,179.119308 
	C70.188477,186.335236 70.013557,185.913681 65.178131,193.270874 
	C59.900375,201.301056 55.470356,209.888412 50.498016,218.576447 
z"/>
<path fill="#97C66B" opacity="1.000000" stroke="none" 
	d="
M287.260620,173.831879 
	C302.104431,199.407181 285.395020,225.035812 269.352142,230.080307 
	C264.206390,213.965240 256.352936,199.254532 245.552597,187.040817 
	C251.529892,177.210648 257.208038,167.678207 263.191315,158.341293 
	C263.771698,157.435623 266.489380,157.088364 267.790222,157.587906 
	C275.952209,160.722031 282.446045,166.025024 287.260620,173.831879 
z"/>
</svg>