<svg version="1.1" id="Layer_1" xmlns="http://www.w3.org/2000/svg" xmlns:xlink="http://www.w3.org/1999/xlink" x="0px" y="0px"
	 width="100%" viewBox="0 0 332 326" enable-background="new 0 0 332 326" xml:space="preserve">
<path fill="#838024" opacity="1.000000" stroke="none" 
	d="
M1.000000,42.000000 
	C1.000000,38.969406 1.000000,35.938812 1.362527,32.294003 
	C2.987333,22.675455 6.731410,14.887391 14.141609,9.509691 
	C18.734198,6.176777 24.023458,3.803846 29.000000,1.000000 
	C67.687561,1.000000 106.375122,1.000000 145.649536,1.357871 
	C146.780884,4.651112 147.325363,7.586483 147.816223,10.232796 
	C153.460510,9.870379 160.249664,9.093253 167.038788,9.093652 
	C173.948547,9.094058 180.858261,9.860075 186.574524,10.216443 
	C187.399658,7.081033 188.199829,4.040517 189.000000,1.000000 
	C227.354233,1.000000 265.708466,1.000000 304.678528,1.353634 
	C310.560822,4.333469 316.265320,6.348867 320.987091,9.734717 
	C327.429871,14.354633 330.365326,21.710484 333.000000,29.000000 
	C333.000000,34.022091 333.000000,39.044186 332.647675,44.678467 
	C331.819092,47.007595 331.662445,48.903606 330.816498,50.413433 
	C323.345520,63.747662 315.847961,77.068977 308.170532,90.285072 
	C298.702087,106.584274 288.908661,122.695885 279.541321,139.052170 
	C274.463562,147.918411 274.513611,148.168320 265.418762,145.253235 
	C262.768707,166.189407 255.288864,185.300568 242.893738,202.806061 
	C251.492828,203.228973 253.197205,206.240067 249.227112,213.274918 
	C243.398087,223.603729 237.400543,233.838287 231.403198,244.071060 
	C220.474808,262.717316 209.594681,281.393066 198.498123,299.939056 
	C191.544342,311.561096 183.854965,322.570648 170.000000,327.000000 
	C167.629440,327.000000 165.258896,327.000000 162.305298,326.652100 
	C151.358215,323.637054 144.368988,316.460358 139.109360,307.876068 
	C130.539627,293.889343 122.724586,279.439667 114.612801,265.173035 
	C104.731323,247.793991 94.769669,230.459259 85.054810,212.987411 
	C81.237587,206.122253 82.802917,203.251541 90.636299,201.456253 
	C78.654289,184.246170 71.943260,165.015030 68.770622,144.306564 
	C63.490986,148.375153 60.548935,147.915451 57.015629,142.473770 
	C55.072540,139.481201 53.444969,136.285172 51.636955,133.203278 
	C42.593529,117.787987 33.195179,102.568390 24.584841,86.915169 
	C16.437887,72.104362 5.689059,58.629539 1.000000,42.000000 
M208.832275,248.678131 
	C191.532166,256.214447 173.499741,260.148254 154.772995,256.778412 
	C144.062149,254.851028 133.726456,250.838806 122.969955,247.419052 
	C122.867012,247.723846 122.764061,248.028641 122.857452,249.005463 
	C126.105774,254.808426 129.228500,260.686157 132.628387,266.398926 
	C139.850403,278.533844 146.637726,290.985382 154.682205,302.557068 
	C163.186523,314.790253 168.947250,314.995056 177.303604,302.615265 
	C188.996368,285.292633 199.280350,267.019073 210.541336,248.918823 
	C210.205872,248.771744 209.870392,248.624680 208.832275,248.678131 
M98.764458,186.695709 
	C100.477997,189.152679 102.098381,191.681061 103.918900,194.056030 
	C137.035217,237.258026 193.631927,238.530777 228.468079,196.876633 
	C260.115082,159.035828 261.096130,96.943047 230.588943,58.072857 
	C215.499481,38.846916 196.335419,26.405212 171.451935,25.117279 
	C143.035873,23.646509 120.847473,36.182507 103.974655,58.252171 
	C76.250237,94.515724 74.237167,145.447113 98.764458,186.695709 
M80.130974,42.663715 
	C87.866753,33.788872 95.602531,24.914032 103.373161,15.999207 
	C83.421440,15.999207 63.293617,15.988440 43.165810,16.002193 
	C22.451763,16.016348 11.906024,34.356026 22.275362,52.375397 
	C32.146835,69.529594 42.076862,86.650101 51.988312,103.781281 
	C52.846897,105.265274 53.759087,106.718254 55.404903,109.440063 
	C58.669029,84.497200 66.292633,62.774399 80.130974,42.663715 
M312.531525,26.127096 
	C307.463043,19.115168 300.617859,15.903826 291.956512,15.961453 
	C273.131287,16.086706 254.304626,15.993577 235.478577,16.011894 
	C233.934464,16.013395 232.390518,16.183725 229.885101,16.332825 
	C259.197479,40.753803 274.040680,71.859894 279.219879,108.900284 
	C280.220673,107.570740 280.758850,106.990784 281.145111,106.322968 
	C291.981812,87.586182 302.923401,68.908447 313.568695,50.063366 
	C317.921265,42.358139 317.441193,34.413567 312.531525,26.127096 
z"/>
<path fill="#F9EE6A" opacity="1.000000" stroke="none" 
	d="
M98.562347,186.392883 
	C74.237167,145.447113 76.250237,94.515724 103.974655,58.252171 
	C120.847473,36.182507 143.035873,23.646509 171.451935,25.117279 
	C196.335419,26.405212 215.499481,38.846916 230.588943,58.072857 
	C261.096130,96.943047 260.115082,159.035828 228.468079,196.876633 
	C193.631927,238.530777 137.035217,237.258026 103.918900,194.056030 
	C102.098381,191.681061 100.477997,189.152679 98.562347,186.392883 
z"/>
<path fill="#F8ED69" opacity="1.000000" stroke="none" 
	d="
M79.929131,42.960121 
	C66.292633,62.774399 58.669029,84.497200 55.404903,109.440063 
	C53.759087,106.718254 52.846897,105.265274 51.988312,103.781281 
	C42.076862,86.650101 32.146835,69.529594 22.275362,52.375397 
	C11.906024,34.356026 22.451763,16.016348 43.165810,16.002193 
	C63.293617,15.988440 83.421440,15.999207 103.373161,15.999207 
	C95.602531,24.914032 87.866753,33.788872 79.929131,42.960121 
z"/>
<path fill="#F8ED6A" opacity="1.000000" stroke="none" 
	d="
M312.728363,26.446251 
	C317.441193,34.413567 317.921265,42.358139 313.568695,50.063366 
	C302.923401,68.908447 291.981812,87.586182 281.145111,106.322968 
	C280.758850,106.990784 280.220673,107.570740 279.219879,108.900284 
	C274.040680,71.859894 259.197479,40.753803 229.885101,16.332825 
	C232.390518,16.183725 233.934464,16.013395 235.478577,16.011894 
	C254.304626,15.993577 273.131287,16.086706 291.956512,15.961453 
	C300.617859,15.903826 307.463043,19.115168 312.728363,26.446251 
z"/>
<path fill="#F8ED69" opacity="1.000000" stroke="none" 
	d="
M123.221863,247.765244 
	C133.726456,250.838806 144.062149,254.851028 154.772995,256.778412 
	C173.499741,260.148254 191.532166,256.214447 209.338577,248.749420 
	C209.844879,248.820694 210.167023,249.152359 210.167023,249.152359 
	C199.280350,267.019073 188.996368,285.292633 177.303604,302.615265 
	C168.947250,314.995056 163.186523,314.790253 154.682205,302.557068 
	C146.637726,290.985382 139.850403,278.533844 132.628387,266.398926 
	C129.228500,260.686157 126.105774,254.808426 122.899704,248.527634 
	C122.941956,248.049805 123.221863,247.765244 123.221863,247.765244 
z"/>
<path fill="#F8ED69" opacity="1.000000" stroke="none" 
	d="
M122.801537,248.191620 
	C122.764061,248.028641 122.867012,247.723846 123.095909,247.592148 
	C123.221863,247.765244 122.941956,248.049805 122.801537,248.191620 
z"/>
<path fill="#F8ED69" opacity="1.000000" stroke="none" 
	d="
M209.689911,248.649139 
	C209.870392,248.624680 210.205872,248.771744 210.354187,249.035583 
	C210.167023,249.152359 209.844879,248.820694 209.689911,248.649139 
z"/>
</svg>