<svg version="1.1" id="Layer_1" xmlns="http://www.w3.org/2000/svg" xmlns:xlink="http://www.w3.org/1999/xlink" x="0px" y="0px"
	 width="100%" viewBox="0 0 291 357" enable-background="new 0 0 291 357" xml:space="preserve">
<path fill="#0D4E81" opacity="1.000000" stroke="none" 
	d="
M147.000000,358.000000 
	C146.555557,358.000000 146.111099,358.000000 145.328613,357.625916 
	C131.966309,331.685059 118.987015,306.095245 105.905159,280.557953 
	C92.815048,255.004547 79.593765,229.518387 66.482643,203.975708 
	C52.854141,177.425095 39.335495,150.818024 25.678057,124.282349 
	C17.542341,108.475090 9.231895,92.757759 1.000000,77.000000 
	C1.000000,76.250000 1.000000,75.500000 1.468657,74.374527 
	C24.585169,73.999046 47.233025,73.999046 70.472115,73.999046 
	C69.114220,71.716370 68.214134,70.382278 67.489777,68.958771 
	C56.823917,47.997990 46.164093,27.034071 35.568848,6.037585 
	C34.787334,4.488867 34.511124,2.685162 34.000000,1.000000 
	C108.687561,1.000000 183.375122,1.000000 258.527588,1.374135 
	C246.824249,25.732134 234.656006,49.715996 222.335495,74.000000 
	C245.744751,74.000000 268.872375,74.000000 292.000000,74.000000 
	C292.000000,74.444443 292.000000,74.888893 291.657104,75.779556 
	C289.024597,80.506485 286.678223,84.757919 284.454773,89.072708 
	C271.304596,114.591537 258.162537,140.114609 245.057388,165.656570 
	C231.807526,191.480530 218.573883,217.312897 205.388718,243.169907 
	C193.892548,265.714661 182.483429,288.303772 171.017410,310.863892 
	C163.027725,326.584137 155.006912,342.288544 147.000000,358.000000 
M184.888535,154.364410 
	C172.178406,179.150330 159.468277,203.936234 146.325211,229.566422 
	C144.525757,226.278122 143.210297,224.000626 142.010834,221.663605 
	C120.799866,180.336472 99.543129,139.032516 78.504944,97.617569 
	C76.608795,93.884895 74.442825,92.721527 70.450798,92.803818 
	C58.793346,93.044144 47.127720,92.877014 35.465370,92.902664 
	C33.740524,92.906456 32.016071,93.089294 29.395706,93.241234 
	C68.443604,169.335403 107.075737,244.619339 146.224899,320.910858 
	C185.461746,244.424362 224.101730,169.101364 263.070312,93.137825 
	C260.596527,93.029427 258.996246,92.900848 257.395782,92.898514 
	C245.566772,92.881279 233.733017,93.079468 221.911301,92.785301 
	C217.811386,92.683289 215.706482,94.097618 213.903503,97.681755 
	C204.476639,116.421356 194.804001,135.037323 184.888535,154.364410 
M158.901215,147.368607 
	C179.647308,106.908493 200.393402,66.448380 221.418182,25.444729 
	C170.804794,25.444729 121.397064,25.444729 70.987373,25.444729 
	C96.092407,74.382843 120.877266,122.696831 146.199432,172.058212 
	C150.701187,163.312256 154.633163,155.673248 158.901215,147.368607 
z"/>
<path fill="#35BCED" opacity="1.000000" stroke="none" 
	d="
M185.052673,154.030350 
	C194.804001,135.037323 204.476639,116.421356 213.903503,97.681755 
	C215.706482,94.097618 217.811386,92.683289 221.911301,92.785301 
	C233.733017,93.079468 245.566772,92.881279 257.395782,92.898514 
	C258.996246,92.900848 260.596527,93.029427 263.070312,93.137825 
	C224.101730,169.101364 185.461746,244.424362 146.224899,320.910858 
	C107.075737,244.619339 68.443604,169.335403 29.395706,93.241234 
	C32.016071,93.089294 33.740524,92.906456 35.465370,92.902664 
	C47.127720,92.877014 58.793346,93.044144 70.450798,92.803818 
	C74.442825,92.721527 76.608795,93.884895 78.504944,97.617569 
	C99.543129,139.032516 120.799866,180.336472 142.010834,221.663605 
	C143.210297,224.000626 144.525757,226.278122 146.325211,229.566422 
	C159.468277,203.936234 172.178406,179.150330 185.052673,154.030350 
z"/>
<path fill="#34BCED" opacity="1.000000" stroke="none" 
	d="
M158.733185,147.701416 
	C154.633163,155.673248 150.701187,163.312256 146.199432,172.058212 
	C120.877266,122.696831 96.092407,74.382843 70.987373,25.444729 
	C121.397064,25.444729 170.804794,25.444729 221.418182,25.444729 
	C200.393402,66.448380 179.647308,106.908493 158.733185,147.701416 
z"/>
</svg>