<svg version="1.1" id="Layer_1" xmlns="http://www.w3.org/2000/svg" xmlns:xlink="http://www.w3.org/1999/xlink" x="0px" y="0px"
	 width="100%" viewBox="0 0 256 464" enable-background="new 0 0 256 464" xml:space="preserve">
<path opacity="1.000000" stroke="none" 
	d="
M213.610504,426.027557 
	C212.375504,430.201569 214.997849,434.593750 210.979034,438.090302 
	C209.318954,439.534729 208.031815,440.379730 205.940338,440.373230 
	C195.109604,440.339447 184.277985,440.290863 173.448273,440.401825 
	C170.193268,440.435120 168.483170,439.551758 168.625000,435.913300 
	C168.832550,430.589020 168.720566,425.251160 168.692215,419.919373 
	C168.676712,417.005096 170.043304,415.650116 172.960556,415.684479 
	C176.792297,415.729614 180.627609,415.589081 184.456772,415.695435 
	C187.379135,415.776550 188.970673,414.654877 188.634369,411.620209 
	C188.287567,408.490814 189.330902,406.749756 192.603165,405.947266 
	C194.183411,405.559723 195.471191,403.853546 196.815247,402.658783 
	C198.786667,400.906342 200.698669,399.441772 203.652267,399.393494 
	C205.760376,399.359009 207.755600,398.112030 208.579727,395.745758 
	C208.843430,394.988647 209.258209,393.782532 209.769501,393.689209 
	C216.505325,392.459625 214.496536,387.230133 214.631729,383.100311 
	C214.784302,378.439880 214.612793,373.769684 214.676056,369.105011 
	C214.703812,367.058960 214.231064,365.513092 212.001160,364.972809 
	C204.183289,363.078583 197.428253,358.947357 190.681290,354.802490 
	C190.542130,354.716980 190.368820,354.593018 190.230469,354.613770 
	C184.227341,355.515381 179.656616,350.367584 174.004410,350.573792 
	C169.565186,350.735718 166.992645,346.883636 162.697098,346.533173 
	C160.830704,346.380890 158.238113,343.213318 158.566833,339.527313 
	C158.994324,334.733337 158.642792,329.872009 158.676071,325.040039 
	C158.703751,321.023987 157.647003,316.790741 163.415924,315.053864 
	C165.709579,314.363281 165.650101,310.881989 165.648849,308.342987 
	C165.643158,296.845612 165.648865,285.348267 165.651611,273.850891 
	C165.653290,266.854156 167.898483,264.039368 174.537292,262.705902 
	C183.992386,260.806793 187.014648,255.958557 184.718292,246.651215 
	C184.185989,244.493698 182.637634,244.412460 180.996948,244.041809 
	C178.771164,243.538925 177.425659,242.456207 178.365768,239.787354 
	C178.728104,238.758713 178.927734,237.011719 178.351166,236.418594 
	C173.975372,231.917023 176.101059,226.372803 175.697952,221.268417 
	C175.520782,219.024811 175.182022,216.540543 177.888931,215.167236 
	C178.318222,214.949448 178.581284,214.009689 178.583054,213.402740 
	C178.609528,204.354294 179.833359,195.181793 175.064316,186.699081 
	C173.922867,184.668793 172.546082,184.206650 170.647812,184.388687 
	C166.035690,184.831024 165.535736,182.315018 164.342239,178.341354 
	C162.685913,172.826660 161.208954,167.560318 161.653778,161.804718 
	C161.840973,159.382782 161.124496,156.707718 164.316635,155.488480 
	C165.756775,154.938416 165.236328,153.679428 164.976776,152.490479 
	C163.988541,147.963669 162.021530,143.861526 159.600739,139.977386 
	C159.034424,139.068787 158.543610,138.155991 158.744949,137.236618 
	C159.807938,132.382538 155.907654,129.387527 154.334381,125.561562 
	C153.492126,123.513321 150.800003,123.469345 148.606491,123.332451 
	C144.102005,123.051338 142.996109,120.235901 141.364319,116.209854 
	C138.203522,108.411354 139.028381,100.574829 138.570938,92.703346 
	C138.495041,91.397148 137.380966,90.881462 136.544952,90.068245 
	C133.374710,86.984383 129.977692,83.904411 131.469101,78.446045 
	C127.851685,82.976486 124.419548,87.107414 122.842651,92.729622 
	C121.641930,97.010643 124.459877,100.617081 123.445137,104.712852 
	C122.897964,106.921371 123.029800,108.824135 120.836441,110.672935 
	C118.225121,112.874054 118.403725,117.037918 116.636620,120.177818 
	C115.331421,122.496956 114.280136,123.788971 111.977417,123.269882 
	C107.202873,122.193604 104.860207,125.879364 103.811409,128.706345 
	C100.864433,136.649780 96.198357,144.016327 95.805412,152.983215 
	C95.704292,155.290726 97.083015,156.380600 97.133484,158.114227 
	C97.388115,166.859985 98.042870,175.662018 94.048897,183.911575 
	C92.636993,186.827881 91.034584,188.434784 88.854172,185.266647 
	C82.626556,187.210968 83.471596,192.031693 83.250587,196.655670 
	C83.037224,201.119980 79.326904,204.695007 80.169075,209.751511 
	C80.936852,214.361328 80.346809,214.459595 83.981842,216.861664 
	C83.997330,221.932480 81.318069,227.297455 85.830605,232.247208 
	C83.147606,233.610611 83.307518,236.110413 83.307777,238.611435 
	C83.307930,240.063583 83.693985,242.655624 82.468521,242.709991 
	C76.461418,242.976532 76.928139,248.599411 74.394379,251.683350 
	C73.568123,252.688995 72.940773,253.976257 73.863396,254.811386 
	C77.529449,258.129761 79.879921,263.286133 86.271790,262.797943 
	C90.568787,262.469696 93.279823,265.724823 93.301613,270.335419 
	C93.364609,283.665436 93.358337,296.995911 93.334114,310.326111 
	C93.329071,313.099091 93.091377,315.813171 97.131554,315.842041 
	C99.204903,315.856842 99.284081,317.586609 99.307137,319.117004 
	C99.421379,326.698242 99.482712,334.280365 99.616539,341.861206 
	C99.657501,344.181488 97.352501,346.576172 96.653450,346.563538 
	C92.463058,346.487854 89.941963,350.471680 85.885185,350.452332 
	C83.565765,350.441254 81.287323,351.043549 79.652840,353.015228 
	C78.857018,353.975281 77.715126,354.284882 76.505936,354.263916 
	C67.263046,354.103546 60.618294,360.950378 52.594444,363.243042 
	C44.132313,365.660950 46.774628,370.879456 46.369728,375.755554 
	C46.163609,378.237885 46.334267,380.751434 46.333084,383.250854 
	C46.329151,391.566895 50.238739,396.321594 57.784962,399.781738 
	C64.039474,402.649597 70.594208,405.882416 73.054771,413.268585 
	C73.928780,415.892273 75.893036,415.613983 77.878540,415.670105 
	C90.344086,416.022339 90.343971,416.026306 90.345230,428.262207 
	C90.346474,440.363220 90.346474,440.364319 78.265274,440.363953 
	C69.933861,440.363678 61.600597,440.257050 53.271931,440.407227 
	C49.827156,440.469330 48.376945,439.198944 48.635826,435.738464 
	C48.796844,433.586182 48.815678,431.386658 48.558441,429.249237 
	C48.257801,426.751190 47.781414,424.187653 44.265247,424.268982 
	C41.627831,424.329987 40.451401,421.793518 38.821270,420.456390 
	C35.333977,417.596008 31.343323,416.077118 27.427734,414.172333 
	C24.357271,412.678741 21.598692,410.645538 21.624285,406.405914 
	C21.729891,388.910553 21.632792,371.414062 21.697096,353.918304 
	C21.714437,349.199921 28.062916,342.618317 32.717892,342.750885 
	C37.394619,342.884094 40.117764,339.018158 44.181496,337.883514 
	C49.305904,336.452820 53.044727,332.265961 59.278351,332.256256 
	C66.268845,332.245361 68.652092,328.143646 68.654724,320.786896 
	C68.658897,309.123352 68.623817,297.459808 68.582413,285.796356 
	C68.580727,285.321259 68.345329,284.847015 68.145096,284.095825 
	C61.462730,284.321350 58.262657,276.642822 50.813572,277.166626 
	C52.362118,268.237366 50.962093,259.730011 51.611427,251.215118 
	C51.927269,247.073410 51.624660,242.887192 51.685658,238.722366 
	C51.721001,236.309311 51.113407,233.713486 53.826748,232.014755 
	C54.435642,231.633545 54.637001,230.213013 54.618279,229.279114 
	C54.468201,221.792801 54.784210,214.330139 55.664295,206.898346 
	C56.441944,200.331558 56.767418,193.722824 60.062946,187.623779 
	C61.228046,185.467529 60.629704,182.411896 61.088852,179.811417 
	C63.004219,168.963409 66.436882,158.441788 69.252815,147.851089 
	C71.042946,141.118423 73.747643,134.099258 76.723167,127.426292 
	C78.781334,122.810600 81.396545,117.773849 82.116302,112.065117 
	C82.793839,106.691216 86.533096,101.663231 89.116722,96.580330 
	C92.062401,90.785110 95.494507,85.223534 98.200844,79.324432 
	C100.485008,74.345535 104.161484,70.299942 106.380913,65.211029 
	C109.033272,59.129471 112.838951,53.532036 115.887093,47.558308 
	C118.147850,43.127708 121.656761,39.517574 122.144745,34.054245 
	C122.392456,31.280869 133.402237,30.653891 135.751968,33.122997 
	C138.260681,35.759148 140.365723,38.628403 140.343582,42.525196 
	C140.336807,43.717999 140.484756,44.861080 141.690857,45.536182 
	C146.440369,48.194683 146.738480,53.645832 149.281433,57.689770 
	C153.660065,64.652931 156.205185,72.535110 161.780746,79.041389 
	C165.045685,82.851357 166.595123,88.556923 169.129578,93.322388 
	C171.490433,97.761452 173.371857,102.434395 175.917572,106.819336 
	C177.777542,110.023132 177.156219,114.189499 179.250748,117.549538 
	C182.120926,122.153847 184.499634,126.985710 183.446991,132.757462 
	C183.226212,133.968018 184.631943,134.725647 185.026306,135.690735 
	C188.149475,143.333862 192.861725,150.067398 193.821808,158.958801 
	C194.566452,165.854996 195.572525,173.473343 199.501343,179.880371 
	C199.837265,180.428177 200.020721,181.081665 200.208908,181.705994 
	C203.021988,191.038635 203.975677,200.573212 203.370087,210.290024 
	C203.246414,212.274368 203.135300,214.350906 205.096390,215.720047 
	C206.197174,216.488556 206.362259,217.680466 206.278976,218.842499 
	C205.681412,227.179977 207.603363,235.396683 207.384613,243.725937 
	C207.216400,250.131638 206.797836,256.541260 209.664307,262.713013 
	C211.293732,266.221313 210.215195,270.276093 210.242447,274.086823 
	C210.252960,275.554993 209.481720,276.683563 208.027222,277.054749 
	C202.585953,278.443481 197.895996,281.438843 192.933258,283.873596 
	C190.947144,284.848022 190.307373,286.053558 190.315674,288.108948 
	C190.365417,300.439270 190.336487,312.769836 190.350861,325.100342 
	C190.352203,326.249573 190.143188,327.650024 191.304199,328.293091 
	C194.089096,329.835602 197.062912,332.539642 199.813416,332.371307 
	C209.654709,331.769012 215.992950,339.224976 224.292145,341.984772 
	C225.947098,342.535065 227.526199,342.541748 229.156693,342.704681 
	C233.172668,343.105988 236.326935,346.343750 236.331909,350.257538 
	C236.355698,368.919861 236.180313,387.584625 236.461426,406.242676 
	C236.516174,409.876190 234.725235,412.653564 232.475555,413.506897 
	C225.269211,416.240265 220.118179,421.829651 213.610504,426.027557 
z"/>
<path opacity="1.000000" stroke="none" 
	d="
M127.661179,276.696106 
	C132.953583,276.386871 135.764496,278.728241 136.337357,283.541382 
	C136.855621,287.895752 140.120956,290.994507 141.495895,295.044250 
	C142.171875,297.035248 143.324310,298.980835 143.328827,301.231049 
	C143.358963,316.223755 143.334702,331.216553 143.356400,346.209290 
	C143.364197,351.606995 145.822617,354.582581 151.071442,355.693115 
	C156.944794,356.935791 160.325851,361.146118 160.322449,367.218781 
	C160.319565,372.382935 160.179871,377.551636 160.354660,382.709686 
	C160.469910,386.110687 159.264328,387.373779 155.755966,387.429321 
	C146.361588,387.578064 146.363907,387.724457 146.344070,397.148010 
	C146.328903,404.352448 146.328903,404.350952 138.882706,404.338440 
	C132.552444,404.327820 126.217354,404.169342 119.893723,404.370026 
	C116.133354,404.489349 114.185478,403.392181 114.641586,399.308777 
	C114.843704,397.499298 114.472549,395.622467 114.704010,393.820190 
	C115.346939,388.814178 112.662445,387.305389 108.291626,387.355133 
	C100.009216,387.449463 100.689362,387.690674 100.671501,379.256409 
	C100.659554,373.613281 100.713913,367.999847 101.511940,362.358246 
	C102.027718,358.711914 104.259224,357.128326 106.965912,356.226501 
	C113.434677,354.071350 115.604866,351.649933 115.631966,345.034119 
	C115.682838,332.613800 115.815895,320.190002 115.581909,307.773926 
	C115.462677,301.447144 116.792763,295.836334 120.970444,290.989960 
	C122.047470,289.740540 121.429779,288.097778 121.681358,286.652863 
	C122.370132,282.696716 124.762093,279.667145 127.661179,276.696106 
z"/>
<path opacity="1.000000" stroke="none" 
	d="
M118.676903,197.026184 
	C118.581146,194.244629 119.263451,192.678040 121.980843,192.697495 
	C127.976036,192.740448 133.972244,192.745758 139.967102,192.680740 
	C142.655350,192.651611 143.677277,194.154160 143.275955,196.458588 
	C141.663956,205.714554 146.658325,214.056717 146.821350,222.984390 
	C146.925247,228.673965 149.344833,233.759079 150.236557,238.961594 
	C148.426605,240.876862 146.491272,240.325546 144.749649,240.335617 
	C135.422897,240.389572 126.095360,240.396057 116.768669,240.333832 
	C112.103622,240.302719 109.318741,236.808075 112.109711,233.431564 
	C116.103951,228.599335 114.257538,223.275177 115.246361,218.318680 
	C116.616302,211.451797 119.384026,204.724045 118.676903,197.026184 
z"/>
<path opacity="1.000000" stroke="none" 
	d="
M136.991119,444.329712 
	C129.826675,444.325989 123.156357,444.168396 116.497589,444.377869 
	C112.759392,444.495483 111.667137,443.026764 111.599831,439.416016 
	C111.343636,425.672485 111.237167,425.673676 125.117195,425.678436 
	C131.782684,425.680725 138.450958,425.804230 145.112610,425.646301 
	C149.026001,425.553528 150.297272,427.240997 150.386963,431.029968 
	C150.701843,444.329620 150.804016,444.327209 136.991119,444.329712 
z"/>
</svg>