<svg version="1.1" id="Layer_1" xmlns="http://www.w3.org/2000/svg" xmlns:xlink="http://www.w3.org/1999/xlink" x="0px" y="0px"
	 width="100%" viewBox="0 0 325 371" enable-background="new 0 0 325 371" xml:space="preserve">
<path fill="#871B12" opacity="1.000000" stroke="none" 
	d="
M176.000000,1.000000 
	C176.444443,1.000000 176.888901,1.000000 177.765656,1.336655 
	C181.744247,4.228466 185.331833,6.728461 188.829971,9.347884 
	C209.107742,24.531914 229.338760,39.778461 249.635437,54.937119 
	C270.172852,70.275574 290.746857,85.565315 311.354126,100.809769 
	C316.133392,104.345284 321.112732,107.610443 326.000000,111.000000 
	C326.000000,111.750000 326.000000,112.500000 325.658203,113.713554 
	C324.369415,114.787033 323.382080,115.342850 322.481445,116.014862 
	C304.393463,129.511124 286.315460,143.020798 268.312653,156.470078 
	C268.793945,157.806854 269.229401,158.991287 269.647583,160.181778 
	C274.840820,174.965225 278.293091,190.254944 278.757874,205.816223 
	C279.209930,220.952728 278.262115,236.204590 276.842072,251.303558 
	C275.305756,267.639252 270.285126,283.230774 263.377075,298.119751 
	C255.164688,315.819977 244.386169,331.652649 229.766769,344.855225 
	C216.864426,356.507172 202.364578,364.917511 185.443222,368.975128 
	C180.346756,370.197235 175.150528,371.003326 170.000000,372.000000 
	C166.307098,372.000000 162.614182,372.000000 158.289200,371.607544 
	C135.009079,370.585632 115.996292,360.897247 99.281609,346.606781 
	C79.358086,329.572845 66.519165,307.594238 58.010143,283.029266 
	C53.006927,268.585297 50.096680,253.745514 48.787670,238.417694 
	C47.179375,219.585403 47.936085,201.032776 51.817734,182.615143 
	C53.694656,173.709503 56.274761,164.952057 58.529545,156.154602 
	C45.346313,146.254669 32.155064,136.245712 18.843206,126.399811 
	C13.022591,122.094673 6.955284,118.123062 1.000000,114.000000 
	C1.000000,113.555557 1.000000,113.111107 1.333795,112.250298 
	C4.076041,109.893433 6.424979,107.873161 8.902403,106.025124 
	C27.889263,91.861931 46.914040,77.749557 65.901573,63.587261 
	C84.897781,49.418495 103.887199,35.240406 122.834099,21.005857 
	C131.611740,14.411341 140.281387,7.673090 149.000000,1.000000 
	C149.444443,1.000000 149.888901,1.000000 150.666977,1.468657 
	C151.000610,24.862261 151.000610,47.787209 151.000610,70.698761 
	C159.628220,70.698761 167.691910,70.698761 176.000000,70.698761 
	C176.000000,47.266052 176.000000,24.133026 176.000000,1.000000 
M177.011719,349.737793 
	C181.022034,348.639465 185.143341,347.839294 189.024704,346.394531 
	C214.452087,336.929688 231.610779,318.412933 243.880280,295.008575 
	C260.045502,264.173126 264.006775,231.184097 259.673523,196.999390 
	C258.813843,190.217178 256.991882,183.556931 255.411057,175.853012 
	C225.801926,197.923447 197.318176,219.155029 167.819580,241.143066 
	C167.819580,190.650162 167.819580,141.444489 167.819580,92.342903 
	C159.291901,91.013916 159.146927,91.125275 159.146591,98.691666 
	C159.144592,143.848770 159.148834,189.005875 159.133560,234.162979 
	C159.132950,236.005112 158.957611,237.847183 158.814972,240.644379 
	C129.431732,218.732407 101.043488,197.562424 71.311371,175.390274 
	C69.646782,186.565414 67.672234,196.490417 66.764572,206.512054 
	C63.459782,243.000610 70.379166,277.386475 91.224113,307.834808 
	C111.449036,337.377472 138.386444,354.996918 177.011719,349.737793 
M213.895187,170.405640 
	C239.581924,151.242111 265.268646,132.078568 291.423645,112.565697 
	C258.920685,88.326836 227.064926,64.570610 194.603409,40.362637 
	C194.603409,89.037544 194.603409,136.344849 194.603409,184.708679 
	C201.373016,179.692322 207.347443,175.265182 213.895187,170.405640 
M133.000092,179.078033 
	C133.000092,133.199661 133.000092,87.321289 133.000092,40.131203 
	C100.020760,64.734238 68.190369,88.480148 35.891273,112.575706 
	C68.294922,136.748260 100.235748,160.575577 132.779892,184.852936 
	C132.883743,182.537308 132.941910,181.240356 133.000092,179.078033 
z"/>
<path fill="#E35B6E" opacity="1.000000" stroke="none" 
	d="
M176.586288,349.817078 
	C138.386444,354.996918 111.449036,337.377472 91.224113,307.834808 
	C70.379166,277.386475 63.459782,243.000610 66.764572,206.512054 
	C67.672234,196.490417 69.646782,186.565414 71.311371,175.390274 
	C101.043488,197.562424 129.431732,218.732407 158.814972,240.644379 
	C158.957611,237.847183 159.132950,236.005112 159.133560,234.162979 
	C159.148834,189.005875 159.144592,143.848770 159.146591,98.691666 
	C159.146927,91.125275 159.291901,91.013916 167.819580,92.342903 
	C167.819580,141.444489 167.819580,190.650162 167.819580,241.143066 
	C197.318176,219.155029 225.801926,197.923447 255.411057,175.853012 
	C256.991882,183.556931 258.813843,190.217178 259.673523,196.999390 
	C264.006775,231.184097 260.045502,264.173126 243.880280,295.008575 
	C231.610779,318.412933 214.452087,336.929688 189.024704,346.394531 
	C185.143341,347.839294 181.022034,348.639465 176.586288,349.817078 
z"/>
<path fill="#E25A6D" opacity="1.000000" stroke="none" 
	d="
M213.608521,170.621857 
	C207.347443,175.265182 201.373016,179.692322 194.603409,184.708679 
	C194.603409,136.344849 194.603409,89.037544 194.603409,40.362637 
	C227.064926,64.570610 258.920685,88.326836 291.423645,112.565697 
	C265.268646,132.078568 239.581924,151.242111 213.608521,170.621857 
z"/>
<path fill="#E35B6E" opacity="1.000000" stroke="none" 
	d="
M133.000092,179.510727 
	C132.941910,181.240356 132.883743,182.537308 132.779892,184.852936 
	C100.235748,160.575577 68.294922,136.748260 35.891273,112.575706 
	C68.190369,88.480148 100.020760,64.734238 133.000092,40.131203 
	C133.000092,87.321289 133.000092,133.199661 133.000092,179.510727 
z"/>
</svg>