<svg version="1.1" id="Layer_1" xmlns="http://www.w3.org/2000/svg" xmlns:xlink="http://www.w3.org/1999/xlink" x="0px" y="0px"
	 width="100%" viewBox="0 0 480 480" enable-background="new 0 0 480 480" xml:space="preserve">
<path opacity="1.000000" stroke="none" 
	d="
M226.006561,325.846710 
	C223.550720,329.123230 221.869736,332.676056 216.788696,334.643219 
	C224.784210,314.871826 227.003006,295.849792 218.462433,276.922241 
	C217.968246,276.861115 217.474060,276.799988 216.979874,276.738861 
	C214.800751,282.057953 212.568115,287.356384 210.499939,292.718262 
	C210.187897,293.527222 210.413040,294.729889 210.777466,295.585236 
	C216.009766,307.865814 210.472855,317.885406 203.621902,327.237213 
	C196.279510,337.259857 187.012146,345.775604 180.283890,356.332428 
	C173.862625,366.407532 169.770447,377.378723 167.317200,389.020233 
	C166.959335,390.718384 166.352219,392.364044 165.509842,393.930511 
	C163.128494,378.614746 165.126633,363.981506 173.744812,351.072266 
	C180.999863,340.204895 189.263916,330.000214 197.280426,319.656525 
	C201.621201,314.055603 203.752487,307.448944 206.684814,301.149567 
	C200.561707,310.542908 193.597595,319.142181 185.380264,326.740082 
	C179.290482,332.370850 172.487793,336.558228 164.376495,338.581299 
	C150.250381,342.104492 136.836807,331.846649 136.661804,317.336090 
	C136.609497,312.997375 136.513763,308.732697 138.858490,304.752014 
	C140.301437,302.302277 139.961380,299.571777 138.510223,297.124634 
	C137.412338,295.273254 136.270386,293.417603 134.914307,291.754425 
	C121.929680,275.829712 127.695549,255.955978 136.124588,244.061432 
	C145.979996,230.154114 160.247055,223.150772 176.811722,220.742386 
	C180.364014,220.225922 180.808640,218.485153 180.657791,215.732010 
	C180.229141,207.909012 182.563629,201.032318 187.519241,194.962570 
	C188.523621,193.732391 189.329849,192.330521 191.069473,193.130753 
	C192.789734,193.922043 192.492661,195.763367 192.125580,197.109009 
	C190.204056,204.152725 191.960541,210.921249 193.355621,217.743240 
	C193.829102,220.058640 194.997284,221.620483 197.214188,222.533630 
	C218.317078,231.225952 229.259186,248.121613 234.256622,269.405762 
	C238.870209,289.055084 236.840805,307.971527 226.006561,325.846710 
z"/>
<path opacity="1.000000" stroke="none" 
	d="
M238.686646,228.656281 
	C236.878113,202.812836 248.236496,182.335281 262.831787,163.011185 
	C270.557312,152.782639 279.763550,143.885529 288.430389,134.532684 
	C304.339508,117.364326 320.344482,100.324898 333.233459,80.678108 
	C335.776459,76.801804 337.843597,72.612579 340.115234,68.559296 
	C341.058990,66.875343 341.644318,64.939430 344.332184,63.007336 
	C344.332184,70.413277 344.756744,76.988739 344.236267,83.488525 
	C343.378998,94.193199 342.988495,104.955177 340.382507,115.494148 
	C338.051483,124.920998 333.756927,133.126144 327.161255,140.189240 
	C326.483521,140.915024 325.870544,141.707870 325.292908,142.516327 
	C325.128571,142.746338 325.195160,143.141312 325.126312,143.700760 
	C328.335083,145.805588 331.362762,142.199341 334.501038,143.238770 
	C334.769928,156.148941 308.248138,187.417496 278.339935,197.756302 
	C280.470123,199.365280 280.470123,199.365280 288.467468,199.430664 
	C282.166382,208.730072 273.200531,214.477142 265.259186,221.202866 
	C257.075684,228.133682 250.817551,236.664337 244.002579,245.606827 
	C239.892853,240.510742 240.080536,234.545120 238.686646,228.656281 
z"/>
<path opacity="1.000000" stroke="none" 
	d="
M367.191467,232.356186 
	C356.884613,239.031219 345.858887,242.145065 334.018921,242.316040 
	C329.825928,242.376587 325.731781,242.447510 322.002869,244.568527 
	C325.086487,247.112747 329.519897,246.431839 334.024200,249.368500 
	C327.795502,251.758011 322.447357,253.384109 316.694977,253.331604 
	C303.728302,253.213272 290.825806,253.316895 278.374023,257.795898 
	C270.140137,260.757660 262.748077,265.031067 256.215149,270.826477 
	C255.243042,271.688843 254.416885,272.794708 252.591827,272.930725 
	C249.046692,266.023895 250.632690,259.109680 252.964539,252.412216 
	C256.668030,241.775070 264.558228,234.400818 273.294952,227.842773 
	C286.687714,217.789719 302.640442,213.362381 318.009094,207.688751 
	C334.346130,201.657608 351.159668,196.764099 366.737213,188.896393 
	C383.693420,180.332382 395.706177,166.959015 402.361603,148.999161 
	C402.931000,147.462524 403.509186,145.929138 404.346436,143.690643 
	C408.893860,148.146179 408.860535,153.277664 408.097473,158.199646 
	C405.509216,174.895248 397.213654,188.877029 387.136230,202.126892 
	C382.698059,207.962219 376.499329,211.960464 371.657349,218.037079 
	C376.022858,219.364166 378.035492,214.749634 382.283447,215.212860 
	C379.513580,223.178986 373.601044,227.759933 367.191467,232.356186 
z"/>
<path opacity="1.000000" stroke="none" 
	d="
M250.342468,297.983093 
	C250.480865,305.252686 250.316940,311.984894 247.820831,319.196289 
	C244.233307,315.407318 244.309555,311.051392 243.909180,307.285797 
	C243.316116,301.707764 242.389343,296.132782 242.588684,290.432404 
	C243.069473,276.684113 238.422531,264.465454 231.033478,253.029053 
	C225.450684,244.388260 220.355453,235.463013 213.148117,227.955063 
	C210.175217,224.858185 211.383804,220.539337 211.904282,216.921906 
	C213.417679,206.403015 213.736908,195.796219 214.520630,185.241135 
	C216.029694,164.917404 216.910797,144.548615 218.538040,124.224731 
	C219.570267,111.332458 219.827530,98.379890 220.713547,85.473663 
	C221.564301,73.080963 222.771118,60.712585 223.860107,48.336918 
	C223.895584,47.933731 224.354004,47.567753 225.203842,46.320992 
	C237.382401,61.966614 244.085663,79.329231 246.115128,98.312523 
	C248.122467,117.088875 244.118820,135.430923 239.830338,153.751190 
	C246.937469,147.883987 248.222397,138.732040 253.438309,131.551788 
	C254.356689,137.758667 254.679031,143.864227 253.918335,150.006332 
	C252.148590,164.295959 246.612091,177.490021 242.011368,190.963593 
	C237.485168,204.218964 234.385742,217.713333 235.304291,231.907776 
	C235.769241,239.092896 237.024078,245.799271 240.542511,252.339767 
	C248.081116,266.353485 251.344421,281.511230 250.342468,297.983093 
z"/>
<path opacity="1.000000" stroke="none" 
	d="
M127.610954,313.643158 
	C122.347542,325.152496 127.670135,334.387970 134.098648,344.092560 
	C129.199219,343.676819 126.651428,341.136108 124.196045,339.032410 
	C108.471848,325.560333 98.981270,308.447327 95.736420,288.031738 
	C93.645958,274.879211 95.963898,261.980652 99.403069,249.318054 
	C104.114326,231.971756 112.369980,216.603714 123.791245,202.518799 
	C135.274689,188.357193 140.333633,171.666992 136.813034,152.891342 
	C140.735123,152.947220 141.470795,155.721756 142.432144,158.028946 
	C146.843765,168.616501 145.893173,179.475906 143.799713,190.345734 
	C141.218094,203.750290 134.693390,215.565979 128.675858,227.587418 
	C123.799591,237.328903 120.679245,247.517914 120.294083,258.536652 
	C119.771492,273.487274 125.128944,286.534546 133.043869,298.683746 
	C134.838486,301.438446 135.100647,302.922150 132.944199,305.414093 
	C130.912445,307.761902 128.853333,310.250305 127.610954,313.643158 
z"/>
<path opacity="1.000000" stroke="none" 
	d="
M259.997498,280.558411 
	C272.379120,278.809998 283.933594,278.857971 295.327789,284.358582 
	C302.090576,287.623352 307.253357,292.669647 313.177155,296.832672 
	C325.330292,305.373535 338.212952,311.358215 353.492920,309.585205 
	C360.214417,308.805267 366.862274,307.376740 373.531189,306.173920 
	C374.522461,305.995148 375.442902,305.591339 377.173157,306.793152 
	C361.614441,322.746094 343.623108,325.783997 323.315063,318.325104 
	C323.071960,320.557159 324.679230,321.099365 325.202820,322.274750 
	C325.660461,323.302185 326.663452,324.126617 326.390839,325.424744 
	C311.728180,330.063324 299.642151,325.803833 288.699738,311.806366 
	C280.109192,300.817413 270.026917,291.678436 257.571014,285.265839 
	C256.580322,284.755829 255.359344,284.413818 255.094009,282.891327 
	C255.974197,281.050995 257.743439,280.777618 259.997498,280.558411 
z"/>
<path opacity="1.000000" stroke="none" 
	d="
M279.544983,337.705261 
	C277.879974,330.981354 278.734772,324.654480 278.961670,318.535797 
	C280.919678,317.823883 281.418030,318.896088 281.827759,319.711884 
	C288.744293,333.482941 299.682495,343.331024 313.428192,349.480347 
	C327.921417,355.964172 333.719330,368.349701 338.146851,381.963837 
	C340.421600,388.958313 342.183899,396.160370 343.164581,403.283813 
	C341.394745,404.509186 340.496307,403.504089 339.758331,402.712952 
	C331.265839,393.608521 320.414948,387.764313 310.240448,380.923126 
	C294.791534,370.535522 282.882080,357.322083 279.544983,337.705261 
z"/>
<path opacity="1.000000" stroke="none" 
	d="
M203.512558,416.696472 
	C210.411987,393.960571 219.782104,372.752441 232.035004,352.866333 
	C235.024246,348.014862 238.254135,343.181793 243.250015,340.038574 
	C244.479111,341.354492 243.912018,342.287262 243.384628,343.100128 
	C234.361526,357.007324 230.393997,372.721130 229.967621,388.827850 
	C229.789841,395.542694 226.587921,398.942444 223.866623,403.837891 
	C216.686417,416.754639 215.947220,430.350159 223.584564,443.626495 
	C224.722061,445.603882 225.687592,447.343262 224.507996,450.195801 
	C216.897995,450.436737 209.287003,449.877319 202.073059,446.450928 
	C197.455429,444.257751 198.268860,439.972748 198.858383,436.407867 
	C199.935928,429.892120 200.915054,423.293182 203.512558,416.696472 
z"/>
<path opacity="1.000000" stroke="none" 
	d="
M261.033936,374.890869 
	C258.506104,371.168549 256.654846,367.430878 253.591217,364.511932 
	C250.461487,361.529907 251.384216,357.216675 250.985413,353.631195 
	C250.087952,345.562500 250.014847,337.356873 254.406128,329.882599 
	C256.202637,326.824799 256.743042,323.395355 256.694336,319.801147 
	C256.575470,311.026093 256.655609,302.248322 256.655609,293.145996 
	C262.552551,293.714935 263.376434,298.974518 266.542419,301.551422 
	C268.036865,302.767822 268.908539,304.731781 270.129700,306.304718 
	C273.785400,311.013550 276.008972,315.655304 274.608917,322.251892 
	C272.848358,330.547180 275.339783,339.095123 275.375671,347.562073 
	C275.392334,351.495758 274.555878,354.893616 272.128906,358.220886 
	C268.323181,363.438477 269.245789,369.966858 268.400726,375.973328 
	C268.064056,378.366302 268.345367,380.846222 268.345367,383.878540 
	C263.515442,382.155670 263.097504,378.097290 261.033936,374.890869 
z"/>
<path opacity="1.000000" stroke="none" 
	d="
M202.566437,364.759705 
	C213.635498,342.993591 236.003967,326.384003 248.291855,327.641357 
	C221.858017,349.242310 202.805298,374.954254 197.417450,409.228058 
	C193.858612,393.883728 195.628784,379.223328 202.566437,364.759705 
z"/>
<path opacity="1.000000" stroke="none" 
	d="
M178.950943,410.535828 
	C176.848663,398.882019 177.380203,387.732635 179.613113,376.556885 
	C181.576767,366.728851 185.588928,358.040466 192.226181,350.507172 
	C198.311798,343.599976 203.382690,335.799347 211.397568,328.708801 
	C210.521866,334.092834 208.637222,337.832428 206.578369,341.343933 
	C202.306610,348.629700 197.540253,355.624603 193.232773,362.890533 
	C187.763428,372.116333 183.746857,382.086426 183.606506,392.824799 
	C183.516449,399.716736 184.366287,406.694916 184.352280,413.657776 
	C184.347534,416.015137 184.255524,418.303772 182.565689,420.460632 
	C179.811295,417.798615 180.409607,413.997284 178.950943,410.535828 
z"/>
</svg>