<?xml version="1.0" encoding="UTF-8"?>
<!DOCTYPE svg PUBLIC "-//W3C//DTD SVG 1.1//EN" "http://www.w3.org/Graphics/SVG/1.1/DTD/svg11.dtd">
<svg xmlns="http://www.w3.org/2000/svg" version="1.1" x="0px" y="0px" width="100%" viewBox="0 0 192 192" style="shape-rendering:geometricPrecision; text-rendering:geometricPrecision; image-rendering:optimizeQuality; fill-rule:evenodd; clip-rule:evenodd" xmlns:xlink="http://www.w3.org/1999/xlink">
<g><path opacity="1.0" stroke="none" d="M 97.5,55.5 C 100.836,56.1687 104.003,56.1687 107,55.5C 111.231,56.2927 115.398,57.4594 119.5,59C 127.947,63.1427 136.114,67.6427 144,72.5C 147.966,72.5304 152.133,72.3638 156.5,72C 164.201,69.9326 171.868,67.766 179.5,65.5C 181.021,65.8797 182.687,66.0464 184.5,66C 185.167,67.3333 185.833,68.6667 186.5,70C 170.931,80.1164 154.265,88.1164 136.5,94C 137.87,95.4413 138.87,97.108 139.5,99C 141.746,120.601 131.746,134.601 109.5,141C 89.5586,145.697 75.2253,138.53 66.5,119.5C 50.1423,125.35 33.4757,130.017 16.5,133.5C 13.5462,132.248 12.5462,130.248 13.5,127.5C 20.0211,123.467 26.8544,120.134 34,117.5C 39.5222,114.709 44.3555,111.042 48.5,106.5C 51.7027,97.3931 55.2027,88.3931 59,79.5C 63.6058,71.5612 70.1058,65.7278 78.5,62C 85.1288,59.4047 91.4621,57.238 97.5,55.5 Z M 94.5,69.5 C 107.861,69.1488 119.528,73.9821 129.5,84C 130.833,84.3333 132.167,84.6667 133.5,85C 130.794,87.9019 127.461,89.2352 123.5,89C 111.609,72.082 97.6089,69.4153 81.5,81C 74.5028,87.8664 72.5028,95.6997 75.5,104.5C 73.3939,108.149 70.2272,110.483 66,111.5C 64.6778,109.526 65.1778,107.692 67.5,106C 67.8223,87.4995 76.8223,75.3328 94.5,69.5 Z M 125.5,97.5 C 126.552,97.3505 127.552,97.5172 128.5,98C 127.512,111.639 120.345,121.472 107,127.5C 97.2161,128.756 88.0494,126.256 79.5,120C 78.7433,118.488 77.7433,117.154 76.5,116C 80.4483,113.795 83.4483,114.795 85.5,119C 95.228,124.291 104.895,123.791 114.5,117.5C 120.723,112.46 123.39,106.127 122.5,98.5C 123.791,98.7373 124.791,98.404 125.5,97.5 Z"/></g>
<g><path opacity="1.0" stroke="none" d="M 33.5,77.5 C 34.5,77.5 35.5,77.5 36.5,77.5C 36.5273,82.8969 39.0273,86.5636 44,88.5C 44.4828,89.448 44.6495,90.448 44.5,91.5C 38.8142,92.866 36.1476,96.5327 36.5,102.5C 35.325,102.719 34.325,102.386 33.5,101.5C 32.7569,95.9455 29.7569,92.6122 24.5,91.5C 24.3505,90.448 24.5172,89.448 25,88.5C 30.2287,86.7192 33.062,83.0525 33.5,77.5 Z"/></g>
<g><path opacity="1.0" stroke="none" d="M 157.5,90.5 C 158.552,90.3505 159.552,90.5172 160.5,91C 161.564,94.5531 163.564,97.3865 166.5,99.5C 165.64,101.272 164.307,102.605 162.5,103.5C 162.322,106.804 160.656,108.471 157.5,108.5C 157.657,107.127 157.49,105.793 157,104.5C 155.286,102.957 153.786,101.29 152.5,99.5C 153.36,97.7284 154.693,96.3951 156.5,95.5C 157.309,93.9291 157.643,92.2624 157.5,90.5 Z"/></g>
<g><path opacity="1.0" stroke="none" d="M 152.5,109.5 C 153.5,109.5 154.5,109.5 155.5,109.5C 155.184,115.546 157.851,119.546 163.5,121.5C 164.386,122.325 164.719,123.325 164.5,124.5C 158.243,125.43 155.243,129.096 155.5,135.5C 154.178,135.67 153.011,135.337 152,134.5C 151.073,129.242 148.24,125.409 143.5,123C 145.29,120.836 147.456,119.002 150,117.5C 150.941,114.846 151.774,112.179 152.5,109.5 Z"/></g>
</svg>
