<?xml version="1.0" encoding="UTF-8"?>
<!DOCTYPE svg PUBLIC "-//W3C//DTD SVG 1.1//EN" "http://www.w3.org/Graphics/SVG/1.1/DTD/svg11.dtd">
<svg xmlns="http://www.w3.org/2000/svg" version="1.1" width="100%" viewBox="0 0 408 498" style="shape-rendering:geometricPrecision; text-rendering:geometricPrecision; image-rendering:optimizeQuality; fill-rule:evenodd; clip-rule:evenodd" xmlns:xlink="http://www.w3.org/1999/xlink">
<g><path style="opacity:1.000" stroke="none" d="M 84.5,-0.5 C 84.8333,-0.5 85.1667,-0.5 85.5,-0.5C 92.2333,92.1998 99.4,184.866 107,277.5C 138.898,302.198 171.064,326.531 203.5,350.5C 235.936,326.531 268.102,302.198 300,277.5C 307.702,184.877 314.868,92.2105 321.5,-0.5C 321.833,-0.5 322.167,-0.5 322.5,-0.5C 350.54,99.0058 378.874,198.339 407.5,297.5C 407.5,298.167 407.5,298.833 407.5,299.5C 359.654,331.837 311.654,364.004 263.5,396C 242.78,429.22 223.114,463.053 204.5,497.5C 204.167,497.5 203.833,497.5 203.5,497.5C 184.426,465.024 165.592,432.357 147,399.5C 98.2258,365.554 49.0592,332.221 -0.5,299.5C -0.5,298.833 -0.5,298.167 -0.5,297.5C 28.1229,198.355 56.4563,99.0221 84.5,-0.5 Z"/></g>
<g><path style="opacity:1.000" stroke="none" d="M 203.5,-0.5 C 203.833,-0.5 204.167,-0.5 204.5,-0.5C 220.893,49.8459 237.393,100.179 254,150.5C 254.667,181.5 254.667,212.5 254,243.5C 237.449,258.852 220.616,273.852 203.5,288.5C 186.384,273.852 169.551,258.852 153,243.5C 152.333,212.5 152.333,181.5 153,150.5C 169.744,100.102 186.577,49.7682 203.5,-0.5 Z"/></g>
</svg>
