<?xml version="1.0" encoding="UTF-8"?>
<!DOCTYPE svg PUBLIC "-//W3C//DTD SVG 1.1//EN" "http://www.w3.org/Graphics/SVG/1.1/DTD/svg11.dtd">
<svg xmlns="http://www.w3.org/2000/svg" version="1.1" width="100%" height="100%" viewBox="0 0 56 54" style="shape-rendering:geometricPrecision; text-rendering:geometricPrecision; image-rendering:optimizeQuality; fill-rule:evenodd; clip-rule:evenodd" xmlns:xlink="http://www.w3.org/1999/xlink">
<g><path style="opacity:1.000" stroke="none" d="M 26.5,9.5 C 32.4829,10.6 32.8162,13.1 27.5,17C 29.9412,17.036 31.9412,17.8693 33.5,19.5C 29.6821,23.8183 25.6821,27.985 21.5,32C 24.2263,32.1816 26.8929,32.6816 29.5,33.5C 29,34.5 28.5,35.5 28,36.5C 25.2806,38.7287 22.4473,40.7287 19.5,42.5C 17.2723,41.7814 15.439,40.448 14,38.5C 7.98839,24.3532 12.1551,14.6865 26.5,9.5 Z"/></g>
<g><path style="opacity:1.000" stroke="none" d="M 41.5,18.5 C 43.7525,18.9156 45.2525,20.249 46,22.5C 48.5485,32.9 45.0485,40.4 35.5,45C 31.4425,45.7666 27.4425,45.5999 23.5,44.5C 22.479,43.9984 22.3123,43.3317 23,42.5C 27.1667,39 31.3333,35.5 35.5,32C 33.444,31.6892 31.444,31.1892 29.5,30.5C 28.479,29.9984 28.3123,29.3317 29,28.5C 33.0657,24.9228 37.2324,21.5894 41.5,18.5 Z"/></g>
<g><path style="opacity:1.000" stroke="none" d="M 55.5,41.5 C 55.5,41.8333 55.5,42.1667 55.5,42.5C 54.8299,42.0187 54.8299,41.6853 55.5,41.5 Z"/></g>
<g><path style="opacity:1.000" stroke="none" d="M 54.5,42.5 C 53.8333,43.1667 53.8333,43.1667 54.5,42.5 Z"/></g>
<g><path style="opacity:1.000" stroke="none" d="M 53.5,43.5 C 52.8333,44.1667 52.8333,44.1667 53.5,43.5 Z"/></g>
<g><path style="opacity:1.000" stroke="none" d="M 52.5,44.5 C 51.8333,45.1667 51.8333,45.1667 52.5,44.5 Z"/></g>
<g><path style="opacity:1.000" stroke="none" d="M 51.5,47.5 C 52.8333,48.1667 52.8333,48.1667 51.5,47.5 Z"/></g>
<g><path style="opacity:1.000" stroke="none" d="M 47.5,48.5 C 48.8333,49.1667 48.8333,49.1667 47.5,48.5 Z"/></g>
<g><path style="opacity:1.000" stroke="none" d="M 51.5,48.5 C 50.8333,49.1667 50.8333,49.1667 51.5,48.5 Z"/></g>
<g><path style="opacity:1.000" stroke="none" d="M 47.5,49.5 C 46.8333,50.1667 46.8333,50.1667 47.5,49.5 Z"/></g>
<g><path style="opacity:1.000" stroke="none" d="M 46.5,50.5 C 45.8333,51.1667 45.8333,51.1667 46.5,50.5 Z"/></g>
<g><path style="opacity:1.000" stroke="none" d="M 45.5,51.5 C 45.5,52.1667 45.5,52.8333 45.5,53.5C 45.1667,53.5 44.8333,53.5 44.5,53.5C 44.3284,52.5084 44.6618,51.8417 45.5,51.5 Z"/></g>
</svg>
