<?xml version="1.0" encoding="UTF-8"?>
<!DOCTYPE svg PUBLIC "-//W3C//DTD SVG 1.1//EN" "http://www.w3.org/Graphics/SVG/1.1/DTD/svg11.dtd">
<svg xmlns="http://www.w3.org/2000/svg" version="1.1" width="100%" height="100%" viewBox="0 0 750 750" style="shape-rendering:geometricPrecision; text-rendering:geometricPrecision; image-rendering:optimizeQuality; fill-rule:evenodd; clip-rule:evenodd" xmlns:xlink="http://www.w3.org/1999/xlink">
<g><path style="opacity:0.023" fill="#eb9222" d="M 408.5,28.5 C 401.155,28.3709 393.822,28.0375 386.5,27.5C 385.313,21.061 383.813,14.7277 382,8.5C 380.67,15.0061 379.17,21.3394 377.5,27.5C 370.138,27.3646 362.804,27.6979 355.5,28.5C 360.951,16.5482 369.784,8.21489 382,3.5C 394.216,8.21489 403.049,16.5482 408.5,28.5 Z"/></g>
<g><path style="opacity:0.999" fill="#a78757" d="M 386.5,27.5 C 391.665,56.4881 396.831,85.4881 402,114.5C 436.253,120.297 466.92,133.963 494,155.5C 520.949,137.28 547.782,118.947 574.5,100.5C 581.205,95.4884 587.872,90.4884 594.5,85.5C 595.833,85.5 596.5,86.1667 596.5,87.5C 592.479,92.1955 588.812,97.1955 585.5,102.5C 565.501,130.516 545.835,158.85 526.5,187.5C 547.456,214.422 561.122,244.755 567.5,278.5C 596.427,284.552 625.427,290.219 654.5,295.5C 661.458,296.995 668.458,298.495 675.5,300C 668.684,302.064 661.684,303.564 654.5,304.5C 626.268,310.039 597.935,315.039 569.5,319.5C 568.937,343.415 564.104,366.415 555,388.5C 550.203,399.259 545.037,409.759 539.5,420C 547.542,445.957 555.875,471.791 564.5,497.5C 566.742,503.377 568.242,509.377 569,515.5C 564.631,510.963 560.131,506.63 555.5,502.5C 549.536,494.868 542.869,487.868 535.5,481.5C 416.5,361.833 297.167,242.5 177.5,123.5C 173.062,119.564 168.729,115.398 164.5,111C 170.474,111.713 176.141,113.546 181.5,116.5C 207.423,126.03 233.423,135.363 259.5,144.5C 290.658,125.227 324.658,114.561 361.5,112.5C 366.833,84.1667 372.167,55.8333 377.5,27.5C 379.17,21.3394 380.67,15.0061 382,8.5C 383.813,14.7277 385.313,21.061 386.5,27.5 Z"/></g>
<g><path style="opacity:0.081" fill="#f39311" d="M 377.5,27.5 C 372.167,55.8333 366.833,84.1667 361.5,112.5C 324.658,114.561 290.658,125.227 259.5,144.5C 233.423,135.363 207.423,126.03 181.5,116.5C 185.632,111.91 187.799,106.577 188,100.5C 185.96,98.6298 184.127,96.6298 182.5,94.5C 187.492,91.7652 192.825,90.9318 198.5,92C 216.896,97.7985 235.229,103.799 253.5,110C 258.328,110.629 262.995,109.962 267.5,108C 283.964,98.8453 301.298,91.8453 319.5,87C 326.118,84.6108 331.285,80.4442 335,74.5C 338.945,64.7272 342.278,54.7272 345,44.5C 348.363,38.9909 351.863,33.6576 355.5,28.5C 362.804,27.6979 370.138,27.3646 377.5,27.5 Z"/></g>
<g><path style="opacity:0.079" fill="#f29312" d="M 386.5,27.5 C 393.822,28.0375 401.155,28.3709 408.5,28.5C 411.412,33.2626 414.579,37.9293 418,42.5C 421.444,51.9396 424.11,61.6063 426,71.5C 428.852,80.6871 434.352,87.8538 442.5,93C 458.148,100.49 473.482,108.49 488.5,117C 491.833,117.667 495.167,117.667 498.5,117C 517.998,104.416 537.665,92.0831 557.5,80C 563.237,76.0313 569.57,74.198 576.5,74.5C 573.871,77.6306 571.038,80.6306 568,83.5C 567.219,84.7287 566.719,86.062 566.5,87.5C 569.184,91.8444 571.85,96.1777 574.5,100.5C 547.782,118.947 520.949,137.28 494,155.5C 466.92,133.963 436.253,120.297 402,114.5C 396.831,85.4881 391.665,56.4881 386.5,27.5 Z"/></g>
<g><path style="opacity:1" fill="#a18770" d="M 381.5,51.5 C 386.589,74.5767 391.089,97.9101 395,121.5C 432.121,127.088 465.121,141.755 494,165.5C 516.587,150.123 539.087,134.623 561.5,119C 562.332,118.312 562.998,118.479 563.5,119.5C 547.833,142.167 532.167,164.833 516.5,187.5C 539.948,216.321 554.615,249.154 560.5,286C 584.297,290.026 607.964,294.693 631.5,300C 608.534,304.658 585.534,309.158 562.5,313.5C 561.327,351.482 550.661,386.482 530.5,418.5C 537.819,440.798 544.652,463.131 551,485.5C 432.833,367.333 314.667,249.167 196.5,131C 217.956,138.296 239.456,145.796 261,153.5C 293.293,132.707 328.793,121.374 367.5,119.5C 372.551,96.9108 377.218,74.2441 381.5,51.5 Z"/></g>
<g><path style="opacity:0.05" fill="#e99126" d="M 576.5,74.5 C 583.204,77.1773 589.204,80.8439 594.5,85.5C 587.872,90.4884 581.205,95.4884 574.5,100.5C 571.85,96.1777 569.184,91.8444 566.5,87.5C 566.719,86.062 567.219,84.7287 568,83.5C 571.038,80.6306 573.871,77.6306 576.5,74.5 Z"/></g>
<g><path style="opacity:0.037" fill="#e7912a" d="M 596.5,87.5 C 600.254,91.6065 603.254,96.2732 605.5,101.5C 603.344,105.15 600.177,107.484 596,108.5C 592.135,107.134 588.635,105.134 585.5,102.5C 588.812,97.1955 592.479,92.1955 596.5,87.5 Z"/></g>
<g><path style="opacity:0.005" fill="#e99126" d="M 182.5,94.5 C 184.127,96.6298 185.96,98.6298 188,100.5C 187.799,106.577 185.632,111.91 181.5,116.5C 176.141,113.546 170.474,111.713 164.5,111C 168.729,115.398 173.062,119.564 177.5,123.5C 174.112,126.211 170.445,128.545 166.5,130.5C 161.54,128.537 157.873,125.204 155.5,120.5C 161.225,108.442 170.225,99.7751 182.5,94.5 Z"/></g>
<g><path style="opacity:0.083" fill="#f29312" d="M 605.5,101.5 C 607.981,106.366 608.148,111.366 606,116.5C 594.186,137.966 581.186,158.633 567,178.5C 563.887,183.251 563.221,188.251 565,193.5C 573.936,209.706 582.603,226.04 591,242.5C 595.186,247.674 600.353,251.508 606.5,254C 617.204,256.874 627.87,259.874 638.5,263C 643.903,265.692 648.903,268.858 653.5,272.5C 654.358,280.132 654.691,287.799 654.5,295.5C 625.427,290.219 596.427,284.552 567.5,278.5C 561.122,244.755 547.456,214.422 526.5,187.5C 545.835,158.85 565.501,130.516 585.5,102.5C 588.635,105.134 592.135,107.134 596,108.5C 600.177,107.484 603.344,105.15 605.5,101.5 Z"/></g>
<g><path style="opacity:0.219" fill="#f4930d" d="M 155.5,120.5 C 157.873,125.204 161.54,128.537 166.5,130.5C 170.445,128.545 174.112,126.211 177.5,123.5C 297.167,242.5 416.5,361.833 535.5,481.5C 535.44,482.043 535.107,482.376 534.5,482.5C 527.487,476.246 519.487,474.413 510.5,477C 509.697,481.414 509.197,485.914 509,490.5C 508.617,491.056 508.117,491.389 507.5,491.5C 399.201,383.701 291.035,275.701 183,167.5C 174.574,156.318 165.908,145.318 157,134.5C 154.41,130.025 153.91,125.359 155.5,120.5 Z"/></g>
<g><path style="opacity:0.065" fill="#f19217" d="M 236.5,252.5 C 235.489,254.402 235.322,256.402 236,258.5C 238.581,262.898 239.914,267.565 240,272.5C 238.559,273.87 236.892,274.87 235,275.5C 231.103,274.969 227.603,273.469 224.5,271C 218.835,264.996 212.335,260.163 205,256.5C 204.235,256.57 203.735,256.903 203.5,257.5C 199.456,254.457 196.123,250.791 193.5,246.5C 195.428,244.526 197.761,243.026 200.5,242C 205.589,238.114 205.589,234.114 200.5,230C 196.767,227.477 193.101,224.977 189.5,222.5C 194.427,220.873 199.093,221.707 203.5,225C 214.69,234.031 225.69,243.198 236.5,252.5 Z"/></g>
<g><path style="opacity:0.999" fill="#a78757" d="M 193.5,246.5 C 196.123,250.791 199.456,254.457 203.5,257.5C 324.5,379.167 445.833,500.5 567.5,621.5C 572.707,627.444 578.374,632.944 584.5,638C 578.281,637.067 572.281,635.234 566.5,632.5C 540.842,622.758 515.009,613.424 489,604.5C 457.926,623.567 424.093,634.233 387.5,636.5C 381.91,664.784 376.576,693.118 371.5,721.5C 369.83,727.661 368.33,733.994 367,740.5C 365.284,734.197 363.784,727.863 362.5,721.5C 357.658,692.788 352.491,664.121 347,635.5C 312.951,628.807 282.285,614.807 255,593.5C 226.173,612.819 197.673,632.486 169.5,652.5C 164.196,655.812 159.196,659.479 154.5,663.5C 153.167,663.5 152.5,662.833 152.5,661.5C 157.399,655.383 162.066,649.049 166.5,642.5C 185.391,615.74 204.058,588.74 222.5,561.5C 201.225,534.361 187.892,503.695 182.5,469.5C 152.797,464.426 123.13,459.093 93.5,453.5C 86.9891,451.907 80.3224,450.407 73.5,449C 80.3163,446.936 87.3163,445.436 94.5,444.5C 122.717,438.857 151.051,433.857 179.5,429.5C 179.962,406.355 184.462,384.021 193,362.5C 198.27,350.961 203.77,339.628 209.5,328.5C 201.735,302.54 193.401,276.873 184.5,251.5C 182.651,245.507 181.151,239.507 180,233.5C 184.369,238.037 188.869,242.37 193.5,246.5 Z"/></g>
<g><path style="opacity:0.026" fill="#e99126" d="M 189.5,222.5 C 193.101,224.977 196.767,227.477 200.5,230C 205.589,234.114 205.589,238.114 200.5,242C 197.761,243.026 195.428,244.526 193.5,246.5C 188.869,242.37 184.369,238.037 180,233.5C 181.151,239.507 182.651,245.507 184.5,251.5C 180.156,253.589 175.656,255.256 171,256.5C 167.23,255.907 164.397,253.907 162.5,250.5C 167.437,237.23 176.437,227.896 189.5,222.5 Z"/></g>
<g><path style="opacity:0.077" fill="#f39311" d="M 162.5,250.5 C 164.397,253.907 167.23,255.907 171,256.5C 175.656,255.256 180.156,253.589 184.5,251.5C 193.401,276.873 201.735,302.54 209.5,328.5C 203.77,339.628 198.27,350.961 193,362.5C 184.462,384.021 179.962,406.355 179.5,429.5C 151.051,433.857 122.717,438.857 94.5,444.5C 94.5234,436.817 94.8567,429.15 95.5,421.5C 100.097,417.858 105.097,414.692 110.5,412C 119.454,409.178 128.454,406.511 137.5,404C 145.044,400.755 150.211,395.255 153,387.5C 158.615,369.272 165.615,351.605 174,334.5C 175.476,329.924 175.81,325.257 175,320.5C 169.2,302.297 163.866,283.964 159,265.5C 157.676,259.813 158.843,254.813 162.5,250.5 Z"/></g>
<g><path style="opacity:1" fill="#a98a59" d="M 356.5,144.5 C 414.382,141.83 462.549,161.83 501,204.5C 537.35,251.909 547.683,304.575 532,362.5C 526.636,379.895 518.636,395.895 508,410.5C 429.918,332.752 352.252,254.752 275,176.5C 274.312,175.668 274.479,175.002 275.5,174.5C 300.092,157.75 327.092,147.75 356.5,144.5 Z"/></g>
<g><path style="opacity:1" fill="#eac353" d="M 354.5,146.5 C 413.403,143.176 462.236,163.509 501,207.5C 543.395,265.323 549.061,326.656 518,391.5C 514.735,397.041 511.235,402.374 507.5,407.5C 431.18,330.68 354.68,254.014 278,177.5C 277.333,176.833 277.333,176.167 278,175.5C 301.222,159.596 326.722,149.929 354.5,146.5 Z"/></g>
<g><path style="opacity:1" fill="#804922" d="M 465.5,253.5 C 468.752,258.334 471.752,263.334 474.5,268.5C 473.883,268.611 473.383,268.944 473,269.5C 470.717,287.981 463.551,304.481 451.5,319C 451.833,319.333 452.167,319.667 452.5,320C 449.015,324.317 445.015,328.151 440.5,331.5C 439.873,332.417 439.539,333.417 439.5,334.5C 436.833,332.5 434.5,330.167 432.5,327.5C 432.421,326.07 432.754,324.736 433.5,323.5C 436.723,321.47 439.223,318.804 441,315.5C 441.333,315.833 441.667,316.167 442,316.5C 446.86,307.679 452.027,299.179 457.5,291C 456.978,290.439 456.645,289.772 456.5,289C 458.089,286.488 459.422,283.822 460.5,281C 458.859,279.354 459.193,278.354 461.5,278C 460.949,276.602 460.616,275.268 460.5,274C 462.527,272.604 462.86,270.938 461.5,269C 462.167,268.333 462.833,267.667 463.5,267C 463.123,263.328 462.79,259.328 462.5,255C 463.244,253.961 464.244,253.461 465.5,253.5 Z"/></g>
<g><path style="opacity:1" fill="#8a5025" d="M 441.5,227.5 C 450.868,234.902 458.868,243.569 465.5,253.5C 464.244,253.461 463.244,253.961 462.5,255C 462.79,259.328 463.123,263.328 463.5,267C 462.833,267.667 462.167,268.333 461.5,269C 462.86,270.938 462.527,272.604 460.5,274C 460.616,275.268 460.949,276.602 461.5,278C 459.193,278.354 458.859,279.354 460.5,281C 459.422,283.822 458.089,286.488 456.5,289C 456.645,289.772 456.978,290.439 457.5,291C 452.027,299.179 446.86,307.679 442,316.5C 441.667,316.167 441.333,315.833 441,315.5C 439.223,318.804 436.723,321.47 433.5,323.5C 432.754,324.736 432.421,326.07 432.5,327.5C 427.5,323.167 422.833,318.5 418.5,313.5C 429.013,304.453 436.679,293.287 441.5,280C 441.167,279.667 440.833,279.333 440.5,279C 442.563,277.428 443.229,275.595 442.5,273.5C 442.923,270.397 443.923,267.564 445.5,265C 445.129,258.148 445.129,251.148 445.5,244C 443.529,241.135 442.863,238.135 443.5,235C 442.023,233.116 440.69,231.116 439.5,229C 440.044,228.283 440.711,227.783 441.5,227.5 Z"/></g>
<g><path style="opacity:1" fill="#5f3318" d="M 510.5,227.5 C 519.615,242.398 525.949,258.398 529.5,275.5C 526.338,293.156 521.172,310.156 514,326.5C 512.334,325.66 512.167,326.16 513.5,328C 510.766,330.634 508.933,333.8 508,337.5C 507.25,338.126 506.416,338.626 505.5,339C 506.28,340.073 506.113,341.24 505,342.5C 502.005,345.202 499.505,348.202 497.5,351.5C 498.366,339.523 498.699,327.523 498.5,315.5C 499.219,313.909 500.219,312.409 501.5,311C 501.043,310.586 500.709,310.086 500.5,309.5C 505.935,298.515 508.935,288.181 509.5,278.5C 510.073,272.919 511.073,267.253 512.5,261.5C 511.565,257.897 511.565,254.397 512.5,251C 511.833,250 511.167,249 510.5,248C 511.013,244.749 511.346,241.416 511.5,238C 510.833,237.667 510.167,237.333 509.5,237C 511.013,234.439 510.679,231.772 508.5,229C 509.044,228.283 509.711,227.783 510.5,227.5 Z"/></g>
<g><path style="opacity:1" fill="#b46b31" d="M 384.5,279.5 C 371.525,266.858 358.859,253.858 346.5,240.5C 348.529,238.961 350.029,236.961 351,234.5C 351.333,234.833 351.667,235.167 352,235.5C 354.328,234.514 356.328,232.514 358,229.5C 358.414,229.957 358.914,230.291 359.5,230.5C 360.906,229.573 362.406,228.573 364,227.5C 368.666,228.819 372.999,228.819 377,227.5C 380.965,228.687 384.631,231.021 388,234.5C 388.333,234.167 388.667,233.833 389,233.5C 393.394,238.243 396.561,243.743 398.5,250C 397.965,252.397 397.965,255.064 398.5,258C 398.097,259.473 397.43,260.806 396.5,262C 397.055,267.206 394.722,271.539 389.5,275C 390.833,275.667 390.833,276.333 389.5,277C 387.685,277.757 386.019,278.59 384.5,279.5 Z"/></g>
<g><path style="opacity:1" fill="#ab652e" d="M 392.5,287.5 C 389.5,285.167 386.833,282.5 384.5,279.5C 386.019,278.59 387.685,277.757 389.5,277C 390.833,276.333 390.833,275.667 389.5,275C 394.722,271.539 397.055,267.206 396.5,262C 397.43,260.806 398.097,259.473 398.5,258C 397.965,255.064 397.965,252.397 398.5,250C 396.561,243.743 393.394,238.243 389,233.5C 388.667,233.833 388.333,234.167 388,234.5C 384.631,231.021 380.965,228.687 377,227.5C 372.999,228.819 368.666,228.819 364,227.5C 362.406,228.573 360.906,229.573 359.5,230.5C 358.914,230.291 358.414,229.957 358,229.5C 356.328,232.514 354.328,234.514 352,235.5C 351.667,235.167 351.333,234.833 351,234.5C 350.029,236.961 348.529,238.961 346.5,240.5C 343.833,238.5 341.5,236.167 339.5,233.5C 340.209,232.596 341.209,232.263 342.5,232.5C 342.281,231.325 342.614,230.325 343.5,229.5C 346.054,227.053 348.554,224.72 351,222.5C 351.914,223.654 352.747,223.487 353.5,222C 358.963,220.466 364.463,219.3 370,218.5C 371.398,219.051 372.732,219.384 374,219.5C 375.316,216.972 376.483,216.972 377.5,219.5C 378.991,220.244 380.491,220.91 382,221.5C 382.333,221.167 382.667,220.833 383,220.5C 390.047,224.017 395.88,228.184 400.5,233C 400.167,233.333 399.833,233.667 399.5,234C 401.833,237 404.167,240 406.5,243C 407.011,247.845 407.011,252.511 406.5,257C 409.044,259.222 409.044,261.389 406.5,263.5C 406.608,264.442 406.941,265.275 407.5,266C 404.938,268.289 403.271,271.123 402.5,274.5C 399.16,278.974 395.826,283.307 392.5,287.5 Z"/></g>
<g><path style="opacity:1" fill="#935527" d="M 424.5,215.5 C 430.727,218.73 436.393,222.73 441.5,227.5C 440.711,227.783 440.044,228.283 439.5,229C 440.69,231.116 442.023,233.116 443.5,235C 442.863,238.135 443.529,241.135 445.5,244C 445.129,251.148 445.129,258.148 445.5,265C 443.923,267.564 442.923,270.397 442.5,273.5C 443.229,275.595 442.563,277.428 440.5,279C 440.833,279.333 441.167,279.667 441.5,280C 436.679,293.287 429.013,304.453 418.5,313.5C 415.833,311.5 413.5,309.167 411.5,306.5C 414.126,303.048 417.293,299.381 421,295.5C 422.666,296.34 422.833,295.84 421.5,294C 423.473,292.027 425.473,290.027 427.5,288C 427.167,287.667 426.833,287.333 426.5,287C 427.525,284.929 428.358,282.762 429,280.5C 429.333,280.833 429.667,281.167 430,281.5C 430.358,277.743 431.858,274.576 434.5,272C 433.572,271.612 432.905,270.945 432.5,270C 433.547,268.37 434.547,266.704 435.5,265C 434.613,260.961 434.946,256.961 436.5,253C 435.315,250.943 434.315,248.943 433.5,247C 433.957,246.586 434.291,246.086 434.5,245.5C 434.054,242.724 433.054,240.224 431.5,238C 431.964,233.882 430.63,230.215 427.5,227C 428.791,224.91 428.124,223.576 425.5,223C 425.833,222.667 426.167,222.333 426.5,222C 424.864,220.566 423.864,218.733 423.5,216.5C 423.624,215.893 423.957,215.56 424.5,215.5 Z"/></g>
<g><path style="opacity:1" fill="#67381a" d="M 489.5,200.5 C 497.697,208.556 504.697,217.556 510.5,227.5C 509.711,227.783 509.044,228.283 508.5,229C 510.679,231.772 511.013,234.439 509.5,237C 510.167,237.333 510.833,237.667 511.5,238C 511.346,241.416 511.013,244.749 510.5,248C 511.167,249 511.833,250 512.5,251C 511.565,254.397 511.565,257.897 512.5,261.5C 511.073,267.253 510.073,272.919 509.5,278.5C 508.935,288.181 505.935,298.515 500.5,309.5C 500.709,310.086 501.043,310.586 501.5,311C 500.219,312.409 499.219,313.909 498.5,315.5C 497.78,308.457 496.78,301.457 495.5,294.5C 496.196,290.49 497.529,286.323 499.5,282C 499.745,278.088 499.745,274.088 499.5,270C 500.293,268.915 500.96,267.748 501.5,266.5C 500.855,259.075 500.855,250.908 501.5,242C 499.854,240.445 499.521,238.779 500.5,237C 499.833,236.333 499.167,235.667 498.5,235C 498.721,233.201 499.054,231.368 499.5,229.5C 496.477,219.421 493.144,209.755 489.5,200.5 Z"/></g>
<g><path style="opacity:1" fill="#a15f2b" d="M 404.5,299.5 C 400.167,295.833 396.167,291.833 392.5,287.5C 395.826,283.307 399.16,278.974 402.5,274.5C 403.271,271.123 404.938,268.289 407.5,266C 406.941,265.275 406.608,264.442 406.5,263.5C 409.044,261.389 409.044,259.222 406.5,257C 407.011,252.511 407.011,247.845 406.5,243C 404.167,240 401.833,237 399.5,234C 399.833,233.667 400.167,233.333 400.5,233C 395.88,228.184 390.047,224.017 383,220.5C 382.667,220.833 382.333,221.167 382,221.5C 380.491,220.91 378.991,220.244 377.5,219.5C 376.483,216.972 375.316,216.972 374,219.5C 372.732,219.384 371.398,219.051 370,218.5C 364.463,219.3 358.963,220.466 353.5,222C 352.747,223.487 351.914,223.654 351,222.5C 348.554,224.72 346.054,227.053 343.5,229.5C 342.614,230.325 342.281,231.325 342.5,232.5C 341.209,232.263 340.209,232.596 339.5,233.5C 334.833,229.5 330.5,225.167 326.5,220.5C 333.194,214.654 340.361,209.32 348,204.5C 353.223,202.062 359.223,200.396 366,199.5C 366.308,200.308 366.808,200.975 367.5,201.5C 375.709,199.462 383.542,200.796 391,205.5C 392.147,204.542 393.147,204.875 394,206.5C 394.333,206.167 394.667,205.833 395,205.5C 399.064,207.975 403.231,210.975 407.5,214.5C 410.471,217.808 413.471,221.141 416.5,224.5C 417.534,227.443 419.034,230.11 421,232.5C 423.137,239.055 424.97,246.055 426.5,253.5C 425.926,255.059 425.26,256.559 424.5,258C 425.148,260.847 425.481,263.681 425.5,266.5C 424.074,268.937 422.741,271.437 421.5,274C 422.584,276.19 421.917,277.856 419.5,279C 419.833,279.333 420.167,279.667 420.5,280C 418.519,280.605 418.185,281.605 419.5,283C 415.032,288.969 410.032,294.469 404.5,299.5 Z"/></g>
<g><path style="opacity:1" fill="#995a29" d="M 424.5,215.5 C 423.957,215.56 423.624,215.893 423.5,216.5C 423.864,218.733 424.864,220.566 426.5,222C 426.167,222.333 425.833,222.667 425.5,223C 428.124,223.576 428.791,224.91 427.5,227C 430.63,230.215 431.964,233.882 431.5,238C 433.054,240.224 434.054,242.724 434.5,245.5C 434.291,246.086 433.957,246.586 433.5,247C 434.315,248.943 435.315,250.943 436.5,253C 434.946,256.961 434.613,260.961 435.5,265C 434.547,266.704 433.547,268.37 432.5,270C 432.905,270.945 433.572,271.612 434.5,272C 431.858,274.576 430.358,277.743 430,281.5C 429.667,281.167 429.333,280.833 429,280.5C 428.358,282.762 427.525,284.929 426.5,287C 426.833,287.333 427.167,287.667 427.5,288C 425.473,290.027 423.473,292.027 421.5,294C 422.833,295.84 422.666,296.34 421,295.5C 417.293,299.381 414.126,303.048 411.5,306.5C 408.833,304.5 406.5,302.167 404.5,299.5C 410.032,294.469 415.032,288.969 419.5,283C 418.185,281.605 418.519,280.605 420.5,280C 420.167,279.667 419.833,279.333 419.5,279C 421.917,277.856 422.584,276.19 421.5,274C 422.741,271.437 424.074,268.937 425.5,266.5C 425.481,263.681 425.148,260.847 424.5,258C 425.26,256.559 425.926,255.059 426.5,253.5C 424.97,246.055 423.137,239.055 421,232.5C 419.034,230.11 417.534,227.443 416.5,224.5C 413.471,221.141 410.471,217.808 407.5,214.5C 403.231,210.975 399.064,207.975 395,205.5C 394.667,205.833 394.333,206.167 394,206.5C 393.147,204.875 392.147,204.542 391,205.5C 383.542,200.796 375.709,199.462 367.5,201.5C 366.808,200.975 366.308,200.308 366,199.5C 359.223,200.396 353.223,202.062 348,204.5C 340.361,209.32 333.194,214.654 326.5,220.5C 320.702,215.203 315.035,209.703 309.5,204C 349.73,190.023 388.063,193.856 424.5,215.5 Z"/></g>
<g><path style="opacity:1" fill="#6e3c1c" d="M 469.5,182.5 C 475.244,186.07 480.578,190.237 485.5,195C 487.464,196.451 488.797,198.284 489.5,200.5C 493.144,209.755 496.477,219.421 499.5,229.5C 499.054,231.368 498.721,233.201 498.5,235C 499.167,235.667 499.833,236.333 500.5,237C 499.521,238.779 499.854,240.445 501.5,242C 500.855,250.908 500.855,259.075 501.5,266.5C 500.96,267.748 500.293,268.915 499.5,270C 499.745,274.088 499.745,278.088 499.5,282C 497.529,286.323 496.196,290.49 495.5,294.5C 493.54,289.348 491.874,284.015 490.5,278.5C 491.039,275.578 491.039,272.411 490.5,269C 492.781,267.518 492.781,265.851 490.5,264C 491.394,261.932 492.06,259.765 492.5,257.5C 491.94,253.605 491.274,249.772 490.5,246C 491.651,241.957 490.985,237.791 488.5,233.5C 489.165,231.899 489.499,230.399 489.5,229C 488.833,228.667 488.167,228.333 487.5,228C 487.633,225.266 487.633,222.599 487.5,220C 486.5,219.167 485.5,218.333 484.5,217.5C 484.709,216.914 485.043,216.414 485.5,216C 484.101,214.938 483.101,213.605 482.5,212C 482.761,209.927 482.761,207.927 482.5,206C 480.553,203.817 478.886,201.484 477.5,199C 477.833,198.667 478.167,198.333 478.5,198C 477.167,197.333 475.833,196.667 474.5,196C 474.5,195 474.5,194 474.5,193C 471.776,190.26 469.776,187.093 468.5,183.5C 468.624,182.893 468.957,182.56 469.5,182.5 Z"/></g>
<g><path style="opacity:1" fill="#8d5125" d="M 444.5,215.5 C 413.945,192.912 379.612,183.079 341.5,186C 333.625,186.645 325.958,188.145 318.5,190.5C 318.541,188.255 319.375,187.588 321,188.5C 327.154,183.218 333.821,179.551 341,177.5C 344.128,174.948 347.461,173.615 351,173.5C 352.646,175.141 353.646,174.807 354,172.5C 355.398,173.051 356.732,173.384 358,173.5C 358.667,172.833 359.333,172.167 360,171.5C 366.158,171.921 372.158,171.921 378,171.5C 381.76,172.133 385.427,173.133 389,174.5C 389.333,174.167 389.667,173.833 390,173.5C 392.95,174.392 395.617,175.725 398,177.5C 400.184,176.892 402.184,177.559 404,179.5C 404.333,179.167 404.667,178.833 405,178.5C 406.067,179.191 407.234,179.691 408.5,180C 408.167,180.333 407.833,180.667 407.5,181C 412.877,183.113 417.877,185.78 422.5,189C 426.113,191.432 429.28,194.932 432,199.5C 432.333,199.167 432.667,198.833 433,198.5C 436.142,203.941 439.976,209.608 444.5,215.5 Z"/></g>
<g><path style="opacity:1" fill="#75411e" d="M 412.5,155.5 C 433.52,160.512 452.52,169.512 469.5,182.5C 468.957,182.56 468.624,182.893 468.5,183.5C 469.776,187.093 471.776,190.26 474.5,193C 474.5,194 474.5,195 474.5,196C 475.833,196.667 477.167,197.333 478.5,198C 478.167,198.333 477.833,198.667 477.5,199C 478.886,201.484 480.553,203.817 482.5,206C 482.761,207.927 482.761,209.927 482.5,212C 483.101,213.605 484.101,214.938 485.5,216C 485.043,216.414 484.709,216.914 484.5,217.5C 485.5,218.333 486.5,219.167 487.5,220C 487.633,222.599 487.633,225.266 487.5,228C 488.167,228.333 488.833,228.667 489.5,229C 489.499,230.399 489.165,231.899 488.5,233.5C 490.985,237.791 491.651,241.957 490.5,246C 491.274,249.772 491.94,253.605 492.5,257.5C 492.06,259.765 491.394,261.932 490.5,264C 492.781,265.851 492.781,267.518 490.5,269C 491.039,272.411 491.039,275.578 490.5,278.5C 487.538,271.902 484.538,265.235 481.5,258.5C 481.83,255.843 480.663,253.51 478,251.5C 477.257,249.559 477.424,247.726 478.5,246C 477.833,245.333 477.167,244.667 476.5,244C 477.422,241.227 477.755,238.227 477.5,235C 474.886,232.932 474.219,230.432 475.5,227.5C 474.167,224.833 472.833,222.167 471.5,219.5C 471.709,218.914 472.043,218.414 472.5,218C 469.805,216.584 469.139,214.584 470.5,212C 469.672,211.085 468.672,210.419 467.5,210C 467.833,209.667 468.167,209.333 468.5,209C 467.552,208.517 466.552,208.351 465.5,208.5C 465.444,203.951 463.777,200.117 460.5,197C 461.654,196.086 461.487,195.253 460,194.5C 459.667,194.833 459.333,195.167 459,195.5C 457.76,192.588 456.094,189.921 454,187.5C 453.097,186.299 451.931,185.465 450.5,185C 451.167,184.667 451.833,184.333 452.5,184C 450.939,183.682 449.772,182.849 449,181.5C 447.334,182.34 447.167,181.84 448.5,180C 447.464,178.383 446.297,178.216 445,179.5C 444.383,178.551 444.549,177.718 445.5,177C 443.926,176.647 442.259,175.98 440.5,175C 441.863,172.871 441.529,172.371 439.5,173.5C 438.667,172.5 437.833,171.5 437,170.5C 436.667,170.833 436.333,171.167 436,171.5C 435,170.167 434,168.833 433,167.5C 432.667,167.833 432.333,168.167 432,168.5C 431.667,167.5 431.333,166.5 431,165.5C 429.667,165.5 428.333,165.5 427,165.5C 426.667,164.5 426.333,163.5 426,162.5C 425.667,162.833 425.333,163.167 425,163.5C 421.108,160.349 416.942,157.683 412.5,155.5 Z"/></g>
<g><path style="opacity:1" fill="#864c23" d="M 460.5,230.5 C 455.14,225.472 449.807,220.472 444.5,215.5C 439.976,209.608 436.142,203.941 433,198.5C 432.667,198.833 432.333,199.167 432,199.5C 429.28,194.932 426.113,191.432 422.5,189C 417.877,185.78 412.877,183.113 407.5,181C 407.833,180.667 408.167,180.333 408.5,180C 407.234,179.691 406.067,179.191 405,178.5C 404.667,178.833 404.333,179.167 404,179.5C 402.184,177.559 400.184,176.892 398,177.5C 395.617,175.725 392.95,174.392 390,173.5C 389.667,173.833 389.333,174.167 389,174.5C 385.427,173.133 381.76,172.133 378,171.5C 372.158,171.921 366.158,171.921 360,171.5C 359.333,172.167 358.667,172.833 358,173.5C 356.732,173.384 355.398,173.051 354,172.5C 353.646,174.807 352.646,175.141 351,173.5C 347.461,173.615 344.128,174.948 341,177.5C 333.821,179.551 327.154,183.218 321,188.5C 319.375,187.588 318.541,188.255 318.5,190.5C 312.797,191.456 307.297,193.123 302,195.5C 300.358,195.022 299.191,194.022 298.5,192.5C 299.496,192.414 300.329,192.748 301,193.5C 304.515,190.318 307.682,186.818 310.5,183C 312.246,182.529 313.913,181.862 315.5,181C 320.924,177.169 325.757,173.336 330,169.5C 330.414,169.957 330.914,170.291 331.5,170.5C 333.868,168.777 336.534,168.11 339.5,168.5C 339.351,167.448 339.517,166.448 340,165.5C 341.147,166.458 342.147,166.125 343,164.5C 343.561,165.022 344.228,165.355 345,165.5C 348.267,163.078 351.433,162.411 354.5,163.5C 356.382,162.907 358.215,162.24 360,161.5C 360.308,162.308 360.808,162.975 361.5,163.5C 364.034,162.212 366.534,162.212 369,163.5C 371.197,161.269 373.53,161.269 376,163.5C 379.857,162.72 383.857,162.387 388,162.5C 390.91,165.429 394.243,166.095 398,164.5C 399.861,166.299 401.861,167.965 404,169.5C 404.333,169.167 404.667,168.833 405,168.5C 410.725,172.187 416.391,175.187 422,177.5C 423.334,179.503 424.834,181.003 426.5,182C 427.784,182.684 428.951,182.517 430,181.5C 431.944,185.11 434.277,188.443 437,191.5C 437.333,191.167 437.667,190.833 438,190.5C 440.701,195.128 443.701,198.795 447,201.5C 448.152,204.811 449.986,207.644 452.5,210C 452.034,211.299 452.034,212.799 452.5,214.5C 453.5,214.5 454.5,214.5 455.5,214.5C 455.67,215.822 455.337,216.989 454.5,218C 457.468,221.062 459.802,224.562 461.5,228.5C 461.137,229.183 460.804,229.85 460.5,230.5 Z"/></g>
<g><path style="opacity:1" fill="#7e4821" d="M 412.5,155.5 C 416.942,157.683 421.108,160.349 425,163.5C 425.333,163.167 425.667,162.833 426,162.5C 426.333,163.5 426.667,164.5 427,165.5C 428.333,165.5 429.667,165.5 431,165.5C 431.333,166.5 431.667,167.5 432,168.5C 432.333,168.167 432.667,167.833 433,167.5C 434,168.833 435,170.167 436,171.5C 436.333,171.167 436.667,170.833 437,170.5C 437.833,171.5 438.667,172.5 439.5,173.5C 441.529,172.371 441.863,172.871 440.5,175C 442.259,175.98 443.926,176.647 445.5,177C 444.549,177.718 444.383,178.551 445,179.5C 446.297,178.216 447.464,178.383 448.5,180C 447.167,181.84 447.334,182.34 449,181.5C 449.772,182.849 450.939,183.682 452.5,184C 451.833,184.333 451.167,184.667 450.5,185C 451.931,185.465 453.097,186.299 454,187.5C 456.094,189.921 457.76,192.588 459,195.5C 459.333,195.167 459.667,194.833 460,194.5C 461.487,195.253 461.654,196.086 460.5,197C 463.777,200.117 465.444,203.951 465.5,208.5C 466.552,208.351 467.552,208.517 468.5,209C 468.167,209.333 467.833,209.667 467.5,210C 468.672,210.419 469.672,211.085 470.5,212C 469.139,214.584 469.805,216.584 472.5,218C 472.043,218.414 471.709,218.914 471.5,219.5C 472.833,222.167 474.167,224.833 475.5,227.5C 474.219,230.432 474.886,232.932 477.5,235C 477.755,238.227 477.422,241.227 476.5,244C 477.167,244.667 477.833,245.333 478.5,246C 477.424,247.726 477.257,249.559 478,251.5C 480.663,253.51 481.83,255.843 481.5,258.5C 475.301,248.625 468.301,239.291 460.5,230.5C 460.804,229.85 461.137,229.183 461.5,228.5C 459.802,224.562 457.468,221.062 454.5,218C 455.337,216.989 455.67,215.822 455.5,214.5C 454.5,214.5 453.5,214.5 452.5,214.5C 452.034,212.799 452.034,211.299 452.5,210C 449.986,207.644 448.152,204.811 447,201.5C 443.701,198.795 440.701,195.128 438,190.5C 437.667,190.833 437.333,191.167 437,191.5C 434.277,188.443 431.944,185.11 430,181.5C 428.951,182.517 427.784,182.684 426.5,182C 424.834,181.003 423.334,179.503 422,177.5C 416.391,175.187 410.725,172.187 405,168.5C 404.667,168.833 404.333,169.167 404,169.5C 401.861,167.965 399.861,166.299 398,164.5C 394.243,166.095 390.91,165.429 388,162.5C 383.857,162.387 379.857,162.72 376,163.5C 373.53,161.269 371.197,161.269 369,163.5C 366.534,162.212 364.034,162.212 361.5,163.5C 360.808,162.975 360.308,162.308 360,161.5C 358.215,162.24 356.382,162.907 354.5,163.5C 351.433,162.411 348.267,163.078 345,165.5C 344.228,165.355 343.561,165.022 343,164.5C 342.147,166.125 341.147,166.458 340,165.5C 339.517,166.448 339.351,167.448 339.5,168.5C 336.534,168.11 333.868,168.777 331.5,170.5C 330.914,170.291 330.414,169.957 330,169.5C 325.757,173.336 320.924,177.169 315.5,181C 313.913,181.862 312.246,182.529 310.5,183C 307.682,186.818 304.515,190.318 301,193.5C 300.329,192.748 299.496,192.414 298.5,192.5C 292.314,187.494 287.147,181.827 283,175.5C 323.398,150.127 366.565,143.46 412.5,155.5 Z"/></g>
<g><path style="opacity:1" fill="#a18770" d="M 197.5,263.5 C 315.132,380.632 432.632,497.965 550,615.5C 550.688,616.332 550.521,616.998 549.5,617.5C 529.025,610.064 508.525,602.731 488,595.5C 455.258,616.245 419.424,627.245 380.5,628.5C 376.196,651.521 371.696,674.521 367,697.5C 362.39,674.239 358.057,650.906 354,627.5C 316.872,621.91 283.872,607.243 255,583.5C 232.413,598.877 209.913,614.377 187.5,630C 186.668,630.688 186.002,630.521 185.5,629.5C 201.167,606.833 216.833,584.167 232.5,561.5C 209.551,532.693 194.884,500.026 188.5,463.5C 164.837,458.734 141.17,453.901 117.5,449C 140.42,444.069 163.42,439.569 186.5,435.5C 187.289,408.347 193.122,382.347 204,357.5C 208.723,347.99 213.556,338.656 218.5,329.5C 211.896,307.354 204.896,285.354 197.5,263.5 Z"/></g>
<g><path style="opacity:0.014" fill="#ea9124" d="M 653.5,272.5 C 666.381,277.881 675.381,287.047 680.5,300C 675.359,312.974 666.359,322.141 653.5,327.5C 652.955,319.88 653.288,312.213 654.5,304.5C 661.684,303.564 668.684,302.064 675.5,300C 668.458,298.495 661.458,296.995 654.5,295.5C 654.691,287.799 654.358,280.132 653.5,272.5 Z"/></g>
<g><path style="opacity:0.217" fill="#f4930d" d="M 236.5,252.5 C 346.411,361.911 456.245,471.578 566,581.5C 572.955,590.79 580.288,599.79 588,608.5C 591.238,612.309 593.404,616.642 594.5,621.5C 591.334,619.166 588.667,616.333 586.5,613C 583.541,610.67 580.207,610.004 576.5,611C 573.127,614.292 570.127,617.792 567.5,621.5C 445.833,500.5 324.5,379.167 203.5,257.5C 203.735,256.903 204.235,256.57 205,256.5C 212.335,260.163 218.835,264.996 224.5,271C 227.603,273.469 231.103,274.969 235,275.5C 236.892,274.87 238.559,273.87 240,272.5C 239.914,267.565 238.581,262.898 236,258.5C 235.322,256.402 235.489,254.402 236.5,252.5 Z"/></g>
<g><path style="opacity:1" fill="#6d3c1c" d="M 485.5,299.5 C 487.073,307.082 488.073,314.749 488.5,322.5C 485.846,324.46 484.179,327.127 483.5,330.5C 482.167,331.5 480.833,332.5 479.5,333.5C 480.55,335.102 479.883,335.935 477.5,336C 478.167,336.333 478.833,336.667 479.5,337C 474.535,339.298 470.868,342.965 468.5,348C 468.833,348.333 469.167,348.667 469.5,349C 465.419,349.998 462.752,352.498 461.5,356.5C 458.167,353.833 455.167,350.833 452.5,347.5C 453.045,345.407 453.878,343.407 455,341.5C 455.333,341.833 455.667,342.167 456,342.5C 460.66,337.135 464.66,331.802 468,326.5C 468.333,326.833 468.667,327.167 469,327.5C 474.886,317.352 480.386,308.019 485.5,299.5 Z"/></g>
<g><path style="opacity:1" fill="#512914" d="M 529.5,275.5 C 534.222,292.539 535.555,309.872 533.5,327.5C 531.767,328.008 531.434,328.841 532.5,330C 530.956,330.29 529.623,330.956 528.5,332C 529.167,332.333 529.833,332.667 530.5,333C 528.262,335.104 527.262,337.438 527.5,340C 526.638,342.734 525.805,342.901 525,340.5C 524.529,342.246 523.862,343.913 523,345.5C 522.667,345.167 522.333,344.833 522,344.5C 521.468,347.264 520.634,349.93 519.5,352.5C 518.726,353.711 517.893,353.711 517,352.5C 515.887,353.76 515.72,354.927 516.5,356C 513.779,357.651 513.446,359.318 515.5,361C 512.146,363.032 508.813,365.032 505.5,367C 506.357,367.689 507.023,368.522 507.5,369.5C 503.939,372.755 500.439,376.088 497,379.5C 496.667,379.167 496.333,378.833 496,378.5C 495.138,380.087 494.471,381.754 494,383.5C 493.016,381.205 492.183,381.539 491.5,384.5C 492.262,384.911 493.262,385.077 494.5,385C 493.619,385.708 492.953,386.542 492.5,387.5C 490.855,386.521 489.521,385.188 488.5,383.5C 492.69,373.134 495.69,362.467 497.5,351.5C 499.505,348.202 502.005,345.202 505,342.5C 506.113,341.24 506.28,340.073 505.5,339C 506.416,338.626 507.25,338.126 508,337.5C 508.933,333.8 510.766,330.634 513.5,328C 512.167,326.16 512.334,325.66 514,326.5C 521.172,310.156 526.338,293.156 529.5,275.5 Z"/></g>
<g><path style="opacity:0.078" fill="#f39311" d="M 654.5,304.5 C 653.288,312.213 652.955,319.88 653.5,327.5C 649.68,330.47 645.68,333.304 641.5,336C 631.603,339.308 621.603,342.308 611.5,345C 603.956,348.245 598.789,353.745 596,361.5C 590.385,379.728 583.385,397.395 575,414.5C 573.524,419.076 573.19,423.743 574,428.5C 579.8,446.703 585.134,465.036 590,483.5C 591.089,488.556 590.256,493.222 587.5,497.5C 584.937,494.63 581.77,492.63 578,491.5C 573.297,493.103 568.797,495.103 564.5,497.5C 555.875,471.791 547.542,445.957 539.5,420C 545.037,409.759 550.203,399.259 555,388.5C 564.104,366.415 568.937,343.415 569.5,319.5C 597.935,315.039 626.268,310.039 654.5,304.5 Z"/></g>
<g><path style="opacity:1" fill="#77431f" d="M 474.5,268.5 C 479.164,278.493 482.831,288.826 485.5,299.5C 480.386,308.019 474.886,317.352 469,327.5C 468.667,327.167 468.333,326.833 468,326.5C 464.66,331.802 460.66,337.135 456,342.5C 455.667,342.167 455.333,341.833 455,341.5C 453.878,343.407 453.045,345.407 452.5,347.5C 447.833,343.5 443.5,339.167 439.5,334.5C 439.539,333.417 439.873,332.417 440.5,331.5C 445.015,328.151 449.015,324.317 452.5,320C 452.167,319.667 451.833,319.333 451.5,319C 463.551,304.481 470.717,287.981 473,269.5C 473.383,268.944 473.883,268.611 474.5,268.5 Z"/></g>
<g><path style="opacity:1" fill="#623519" d="M 488.5,322.5 C 489.126,340.744 486.293,358.41 480,375.5C 473.631,369.298 467.464,362.965 461.5,356.5C 462.752,352.498 465.419,349.998 469.5,349C 469.167,348.667 468.833,348.333 468.5,348C 470.868,342.965 474.535,339.298 479.5,337C 478.833,336.667 478.167,336.333 477.5,336C 479.883,335.935 480.55,335.102 479.5,333.5C 480.833,332.5 482.167,331.5 483.5,330.5C 484.179,327.127 485.846,324.46 488.5,322.5 Z"/></g>
<g><path style="opacity:1" fill="#472311" d="M 533.5,327.5 C 530.917,354.75 522.084,379.75 507,402.5C 501.963,397.631 497.13,392.631 492.5,387.5C 492.953,386.542 493.619,385.708 494.5,385C 493.262,385.077 492.262,384.911 491.5,384.5C 492.183,381.539 493.016,381.205 494,383.5C 494.471,381.754 495.138,380.087 496,378.5C 496.333,378.833 496.667,379.167 497,379.5C 500.439,376.088 503.939,372.755 507.5,369.5C 507.023,368.522 506.357,367.689 505.5,367C 508.813,365.032 512.146,363.032 515.5,361C 513.446,359.318 513.779,357.651 516.5,356C 515.72,354.927 515.887,353.76 517,352.5C 517.893,353.711 518.726,353.711 519.5,352.5C 520.634,349.93 521.468,347.264 522,344.5C 522.333,344.833 522.667,345.167 523,345.5C 523.862,343.913 524.529,342.246 525,340.5C 525.805,342.901 526.638,342.734 527.5,340C 527.262,337.438 528.262,335.104 530.5,333C 529.833,332.667 529.167,332.333 528.5,332C 529.623,330.956 530.956,330.29 532.5,330C 531.434,328.841 531.767,328.008 533.5,327.5 Z"/></g>
<g><path style="opacity:1" fill="#a98a59" d="M 240.5,338.5 C 319.016,416.182 396.849,494.182 474,572.5C 474.688,573.332 474.521,573.998 473.5,574.5C 429.327,603.311 381.661,611.145 330.5,598C 260.024,574.272 219.858,525.439 210,451.5C 206.609,410.054 216.776,372.387 240.5,338.5 Z"/></g>
<g><path style="opacity:1" fill="#eac252" d="M 240.5,341.5 C 317.39,417.89 394.224,494.557 471,571.5C 471.507,572.996 471.007,574.163 469.5,575C 426.282,602.248 379.949,609.248 330.5,596C 260.6,572.419 221.1,523.919 212,450.5C 208.755,410.752 218.255,374.418 240.5,341.5 Z"/></g>
<g><path style="opacity:1" fill="#995929" d="M 281.5,386.5 C 284.5,388.833 287.167,391.5 289.5,394.5C 288.737,395.268 287.737,395.768 286.5,396C 286.833,396.333 287.167,396.667 287.5,397C 284.781,398.597 282.614,400.763 281,403.5C 278.982,407.904 276.815,412.237 274.5,416.5C 274.566,419.7 274.566,422.867 274.5,426C 273.692,426.308 273.025,426.808 272.5,427.5C 273.407,429.256 273.407,431.089 272.5,433C 272.615,434.895 273.282,436.562 274.5,438C 273.826,439.751 273.493,441.417 273.5,443C 275.489,449.035 278.156,455.201 281.5,461.5C 282.376,462.251 283.376,462.751 284.5,463C 284.167,463.333 283.833,463.667 283.5,464C 287.994,468.854 292.494,473.021 297,476.5C 297.333,476.167 297.667,475.833 298,475.5C 299.243,477.833 300.909,478.5 303,477.5C 307.24,480.421 311.574,482.421 316,483.5C 321.378,483.251 327.045,483.251 333,483.5C 336.715,481.83 340.382,480.163 344,478.5C 344.333,478.833 344.667,479.167 345,479.5C 351.012,475.637 356.845,471.637 362.5,467.5C 365.167,469.5 367.5,471.833 369.5,474.5C 365.956,476.535 362.289,478.368 358.5,480C 358.833,480.333 359.167,480.667 359.5,481C 357.913,481.862 356.246,482.529 354.5,483C 354.833,483.333 355.167,483.667 355.5,484C 353.064,484.93 350.731,486.097 348.5,487.5C 347.914,487.291 347.414,486.957 347,486.5C 341.776,488.645 336.443,490.645 331,492.5C 327.212,491.714 323.546,491.714 320,492.5C 318.237,492.025 316.57,491.358 315,490.5C 313.755,490.461 312.422,490.795 311,491.5C 309.374,490.711 307.874,489.711 306.5,488.5C 305.284,489.002 304.117,489.335 303,489.5C 302.667,488.833 302.333,488.167 302,487.5C 301,487.5 300,487.5 299,487.5C 293.556,483.959 288.556,479.959 284,475.5C 283.667,475.833 283.333,476.167 283,476.5C 279.602,472.175 276.102,468.008 272.5,464C 272.833,463.667 273.167,463.333 273.5,463C 271.953,460.213 269.953,457.88 267.5,456C 268.069,453.044 268.069,450.21 267.5,447.5C 266.376,446.086 265.376,444.586 264.5,443C 265.174,441.249 265.507,439.583 265.5,438C 264.707,436.915 264.04,435.748 263.5,434.5C 264.78,432.298 264.78,430.132 263.5,428C 264.167,427.667 264.833,427.333 265.5,427C 264.949,425.602 264.616,424.268 264.5,423C 265.26,421.559 265.926,420.059 266.5,418.5C 265.572,417.232 265.405,415.899 266,414.5C 267.616,409.23 269.95,404.23 273,399.5C 275.132,396.035 277.965,393.201 281.5,391C 281.034,389.701 281.034,388.201 281.5,386.5 Z"/></g>
<g><path style="opacity:1" fill="#874e24" d="M 254.5,381.5 C 244.465,424.933 251.465,465.267 275.5,502.5C 274.178,502.33 273.011,502.663 272,503.5C 270.551,498.806 267.385,495.973 262.5,495C 261.167,494.333 261.167,493.667 262.5,493C 258.411,490.586 255.911,487.086 255,482.5C 252.851,481.348 251.018,479.848 249.5,478C 249.5,476.333 249.5,474.667 249.5,473C 247.893,471.273 246.226,469.439 244.5,467.5C 243.144,462.89 241.978,458.223 241,453.5C 240.25,452.874 239.416,452.374 238.5,452C 239.059,451.275 239.392,450.442 239.5,449.5C 238.818,445.862 238.318,442.195 238,438.5C 237.308,437.975 236.808,437.308 236.5,436.5C 237.833,434.167 237.833,431.833 236.5,429.5C 237.167,428.5 237.833,427.5 238.5,426.5C 237.975,425.808 237.308,425.308 236.5,425C 237.672,424.581 238.672,423.915 239.5,423C 238.167,422.333 238.167,421.667 239.5,421C 238.833,420.333 238.167,419.667 237.5,419C 238.455,415.901 239.289,412.734 240,409.5C 240.5,408.333 241.333,407.5 242.5,407C 241.826,405.249 241.493,403.583 241.5,402C 243.562,400.468 244.896,398.468 245.5,396C 244.833,395.667 244.167,395.333 243.5,395C 245.286,394.215 246.786,393.049 248,391.5C 250.052,387.977 252.218,384.643 254.5,381.5 Z"/></g>
<g><path style="opacity:1" fill="#7f4821" d="M 257.5,362.5 C 258.812,363.145 259.812,364.145 260.5,365.5C 258.438,370.931 256.438,376.265 254.5,381.5C 252.218,384.643 250.052,387.977 248,391.5C 246.786,393.049 245.286,394.215 243.5,395C 244.167,395.333 244.833,395.667 245.5,396C 244.896,398.468 243.562,400.468 241.5,402C 241.493,403.583 241.826,405.249 242.5,407C 241.333,407.5 240.5,408.333 240,409.5C 239.289,412.734 238.455,415.901 237.5,419C 238.167,419.667 238.833,420.333 239.5,421C 238.167,421.667 238.167,422.333 239.5,423C 238.672,423.915 237.672,424.581 236.5,425C 237.308,425.308 237.975,425.808 238.5,426.5C 237.833,427.5 237.167,428.5 236.5,429.5C 237.833,431.833 237.833,434.167 236.5,436.5C 236.808,437.308 237.308,437.975 238,438.5C 238.318,442.195 238.818,445.862 239.5,449.5C 239.392,450.442 239.059,451.275 238.5,452C 239.416,452.374 240.25,452.874 241,453.5C 241.978,458.223 243.144,462.89 244.5,467.5C 246.226,469.439 247.893,471.273 249.5,473C 249.5,474.667 249.5,476.333 249.5,478C 251.018,479.848 252.851,481.348 255,482.5C 255.911,487.086 258.411,490.586 262.5,493C 261.167,493.667 261.167,494.333 262.5,495C 267.385,495.973 270.551,498.806 272,503.5C 273.011,502.663 274.178,502.33 275.5,502.5C 280.682,509.498 286.349,516.165 292.5,522.5C 285.569,520.281 279.402,517.281 274,513.5C 273.667,513.833 273.333,514.167 273,514.5C 266.401,508.584 259.568,502.75 252.5,497C 252.833,496.667 253.167,496.333 253.5,496C 250.829,494.75 248.663,492.917 247,490.5C 244.193,484.122 240.36,477.622 235.5,471C 235.5,469.667 235.5,468.333 235.5,467C 233.299,465.316 232.633,463.316 233.5,461C 231.733,458.135 230.399,455.468 229.5,453C 229.695,449.96 229.695,446.96 229.5,444C 228.833,442.667 228.167,441.333 227.5,440C 228.167,439.667 228.833,439.333 229.5,439C 228.426,438.261 227.759,437.261 227.5,436C 229.062,429.437 229.395,423.103 228.5,417C 229.167,416.667 229.833,416.333 230.5,416C 229.591,412.856 230.257,409.522 232.5,406C 232.167,405.667 231.833,405.333 231.5,405C 237.213,388.322 245.88,374.156 257.5,362.5 Z"/></g>
<g><path style="opacity:1" fill="#74411e" d="M 250.5,355.5 C 250.75,358.505 249.417,360.338 246.5,361C 246.833,361.333 247.167,361.667 247.5,362C 245.277,362.652 244.11,364.152 244,366.5C 243.667,366.167 243.333,365.833 243,365.5C 240.656,370.383 237.656,374.716 234,378.5C 231.157,384.361 228.324,389.861 225.5,395C 225.833,395.333 226.167,395.667 226.5,396C 225.644,399.176 224.311,402.51 222.5,406C 223.458,407.147 223.125,408.147 221.5,409C 222.86,410.938 222.527,412.604 220.5,414C 221.334,416.712 221,419.379 219.5,422C 219.92,429.123 219.92,436.456 219.5,444C 221.384,445.989 221.717,447.989 220.5,450C 221.767,454.801 223.434,459.468 225.5,464C 225.167,464.333 224.833,464.667 224.5,465C 226.156,470.854 228.656,476.688 232,482.5C 235.514,488.195 239.514,493.528 244,498.5C 244.483,499.448 244.649,500.448 244.5,501.5C 245.675,501.281 246.675,501.614 247.5,502.5C 249.503,504.133 250.836,506.133 251.5,508.5C 252.552,508.351 253.552,508.517 254.5,509C 254.167,509.333 253.833,509.667 253.5,510C 255.839,511.343 258.172,512.676 260.5,514C 261.701,514.903 262.535,516.069 263,517.5C 263.333,517.167 263.667,516.833 264,516.5C 268.07,520.244 272.403,523.578 277,526.5C 278.333,526.5 279.667,526.5 281,526.5C 286,528.833 291,531.167 296,533.5C 298.508,533.152 301.008,533.819 303.5,535.5C 304.417,534.873 305.417,534.539 306.5,534.5C 311.045,537.266 315.378,540.266 319.5,543.5C 313.499,544.486 307.333,543.819 301,541.5C 300.586,541.957 300.086,542.291 299.5,542.5C 280.272,537.774 262.772,528.108 247,513.5C 246.667,513.833 246.333,514.167 246,514.5C 243.558,510.059 240.392,506.226 236.5,503C 236.833,502.667 237.167,502.333 237.5,502C 234.678,499.344 232.012,496.511 229.5,493.5C 227.103,488.909 224.436,484.576 221.5,480.5C 207.774,432.725 214.607,388.059 242,346.5C 245.038,349.369 247.871,352.369 250.5,355.5 Z"/></g>
<g><path style="opacity:1" fill="#a7632d" d="M 295.5,400.5 C 299.5,403.833 303.167,407.5 306.5,411.5C 305.203,413.916 303.536,416.082 301.5,418C 301.833,418.333 302.167,418.667 302.5,419C 300.223,421.327 298.89,423.827 298.5,426.5C 298.539,430.302 298.539,434.136 298.5,438C 302.309,449.478 310.143,456.311 322,458.5C 325.343,457.679 329.176,457.179 333.5,457C 337.195,454.49 340.862,451.99 344.5,449.5C 349.833,454.167 354.833,459.167 359.5,464.5C 358.198,465.807 356.865,465.807 355.5,464.5C 354.522,464.977 353.689,465.643 353,466.5C 352.667,466.167 352.333,465.833 352,465.5C 348.339,466.965 345.506,468.798 343.5,471C 337.257,473.213 331.091,474.713 325,475.5C 318.775,474.377 312.608,472.877 306.5,471C 303.695,469.521 301.195,467.688 299,465.5C 298.667,465.833 298.333,466.167 298,466.5C 291.514,460.069 286.348,452.569 282.5,444C 282.833,443 283.167,442 283.5,441C 282.606,438.932 281.94,436.765 281.5,434.5C 281.547,425.005 283.881,416.005 288.5,407.5C 289.376,406.749 290.376,406.249 291.5,406C 291.167,405.667 290.833,405.333 290.5,405C 292.618,403.951 294.284,402.451 295.5,400.5 Z"/></g>
<g><path style="opacity:1" fill="#79441f" d="M 250.5,355.5 C 253.167,357.5 255.5,359.833 257.5,362.5C 245.88,374.156 237.213,388.322 231.5,405C 231.833,405.333 232.167,405.667 232.5,406C 230.257,409.522 229.591,412.856 230.5,416C 229.833,416.333 229.167,416.667 228.5,417C 229.395,423.103 229.062,429.437 227.5,436C 227.759,437.261 228.426,438.261 229.5,439C 228.833,439.333 228.167,439.667 227.5,440C 228.167,441.333 228.833,442.667 229.5,444C 229.695,446.96 229.695,449.96 229.5,453C 230.399,455.468 231.733,458.135 233.5,461C 232.633,463.316 233.299,465.316 235.5,467C 235.5,468.333 235.5,469.667 235.5,471C 240.36,477.622 244.193,484.122 247,490.5C 248.663,492.917 250.829,494.75 253.5,496C 253.167,496.333 252.833,496.667 252.5,497C 259.568,502.75 266.401,508.584 273,514.5C 273.333,514.167 273.667,513.833 274,513.5C 279.402,517.281 285.569,520.281 292.5,522.5C 297.207,526.51 301.874,530.51 306.5,534.5C 305.417,534.539 304.417,534.873 303.5,535.5C 301.008,533.819 298.508,533.152 296,533.5C 291,531.167 286,528.833 281,526.5C 279.667,526.5 278.333,526.5 277,526.5C 272.403,523.578 268.07,520.244 264,516.5C 263.667,516.833 263.333,517.167 263,517.5C 262.535,516.069 261.701,514.903 260.5,514C 258.172,512.676 255.839,511.343 253.5,510C 253.833,509.667 254.167,509.333 254.5,509C 253.552,508.517 252.552,508.351 251.5,508.5C 250.836,506.133 249.503,504.133 247.5,502.5C 246.675,501.614 245.675,501.281 244.5,501.5C 244.649,500.448 244.483,499.448 244,498.5C 239.514,493.528 235.514,488.195 232,482.5C 228.656,476.688 226.156,470.854 224.5,465C 224.833,464.667 225.167,464.333 225.5,464C 223.434,459.468 221.767,454.801 220.5,450C 221.717,447.989 221.384,445.989 219.5,444C 219.92,436.456 219.92,429.123 219.5,422C 221,419.379 221.334,416.712 220.5,414C 222.527,412.604 222.86,410.938 221.5,409C 223.125,408.147 223.458,407.147 222.5,406C 224.311,402.51 225.644,399.176 226.5,396C 226.167,395.667 225.833,395.333 225.5,395C 228.324,389.861 231.157,384.361 234,378.5C 237.656,374.716 240.656,370.383 243,365.5C 243.333,365.833 243.667,366.167 244,366.5C 244.11,364.152 245.277,362.652 247.5,362C 247.167,361.667 246.833,361.333 246.5,361C 249.417,360.338 250.75,358.505 250.5,355.5 Z"/></g>
<g><path style="opacity:1" fill="#b66d32" d="M 306.5,411.5 C 319.5,423.833 332.167,436.5 344.5,449.5C 340.862,451.99 337.195,454.49 333.5,457C 329.176,457.179 325.343,457.679 322,458.5C 310.143,456.311 302.309,449.478 298.5,438C 298.539,434.136 298.539,430.302 298.5,426.5C 298.89,423.827 300.223,421.327 302.5,419C 302.167,418.667 301.833,418.333 301.5,418C 303.536,416.082 305.203,413.916 306.5,411.5 Z"/></g>
<g><path style="opacity:1" fill="#935527" d="M 281.5,386.5 C 281.034,388.201 281.034,389.701 281.5,391C 277.965,393.201 275.132,396.035 273,399.5C 269.95,404.23 267.616,409.23 266,414.5C 265.405,415.899 265.572,417.232 266.5,418.5C 265.926,420.059 265.26,421.559 264.5,423C 264.616,424.268 264.949,425.602 265.5,427C 264.833,427.333 264.167,427.667 263.5,428C 264.78,430.132 264.78,432.298 263.5,434.5C 264.04,435.748 264.707,436.915 265.5,438C 265.507,439.583 265.174,441.249 264.5,443C 265.376,444.586 266.376,446.086 267.5,447.5C 268.069,450.21 268.069,453.044 267.5,456C 269.953,457.88 271.953,460.213 273.5,463C 273.167,463.333 272.833,463.667 272.5,464C 276.102,468.008 279.602,472.175 283,476.5C 283.333,476.167 283.667,475.833 284,475.5C 288.556,479.959 293.556,483.959 299,487.5C 300,487.5 301,487.5 302,487.5C 302.333,488.167 302.667,488.833 303,489.5C 304.117,489.335 305.284,489.002 306.5,488.5C 307.874,489.711 309.374,490.711 311,491.5C 312.422,490.795 313.755,490.461 315,490.5C 316.57,491.358 318.237,492.025 320,492.5C 323.546,491.714 327.212,491.714 331,492.5C 336.443,490.645 341.776,488.645 347,486.5C 347.414,486.957 347.914,487.291 348.5,487.5C 350.731,486.097 353.064,484.93 355.5,484C 355.167,483.667 354.833,483.333 354.5,483C 356.246,482.529 357.913,481.862 359.5,481C 359.167,480.667 358.833,480.333 358.5,480C 362.289,478.368 365.956,476.535 369.5,474.5C 371.833,476.167 373.833,478.167 375.5,480.5C 363.274,490.703 349.774,497.703 335,501.5C 332.667,501.167 330.333,500.833 328,500.5C 327.667,501.167 327.333,501.833 327,502.5C 325.667,502.5 324.333,502.5 323,502.5C 322.667,501.833 322.333,501.167 322,500.5C 318.333,500.833 314.667,501.167 311,501.5C 308.171,499.87 305.171,498.536 302,497.5C 300.984,498.634 300.317,498.301 300,496.5C 298.16,497.833 297.66,497.666 298.5,496C 290.003,493.514 282.836,489.014 277,482.5C 276.601,482.728 276.435,483.062 276.5,483.5C 259.721,450.647 256.221,416.314 266,380.5C 266.619,377.968 267.619,375.635 269,373.5C 273.37,377.702 277.537,382.036 281.5,386.5 Z"/></g>
<g><path style="opacity:0.036" fill="#eb9123" d="M 95.5,421.5 C 94.8567,429.15 94.5234,436.817 94.5,444.5C 87.3163,445.436 80.3163,446.936 73.5,449C 80.3224,450.407 86.9891,451.907 93.5,453.5C 94.3924,460.791 94.7257,468.124 94.5,475.5C 81.9739,470.474 73.3072,461.64 68.5,449C 73.619,436.047 82.619,426.881 95.5,421.5 Z"/></g>
<g><path style="opacity:0.079" fill="#f29312" d="M 93.5,453.5 C 123.13,459.093 152.797,464.426 182.5,469.5C 187.892,503.695 201.225,534.361 222.5,561.5C 204.058,588.74 185.391,615.74 166.5,642.5C 163.703,640.205 161.036,637.705 158.5,635C 155.833,633 153.167,633 150.5,635C 147.631,638.038 144.631,640.871 141.5,643.5C 141.198,636.57 143.031,630.237 147,624.5C 158.939,604.899 171.272,585.565 184,566.5C 184.422,564.645 184.922,562.811 185.5,561C 184.922,559.189 184.422,557.355 184,555.5C 175.064,539.294 166.397,522.96 158,506.5C 153.814,501.326 148.647,497.492 142.5,495C 131.833,492 121.167,489 110.5,486C 104.93,482.725 99.5971,479.225 94.5,475.5C 94.7257,468.124 94.3924,460.791 93.5,453.5 Z"/></g>
<g><path style="opacity:1" fill="#a05e2b" d="M 289.5,394.5 C 291.833,396.167 293.833,398.167 295.5,400.5C 294.284,402.451 292.618,403.951 290.5,405C 290.833,405.333 291.167,405.667 291.5,406C 290.376,406.249 289.376,406.749 288.5,407.5C 283.881,416.005 281.547,425.005 281.5,434.5C 281.94,436.765 282.606,438.932 283.5,441C 283.167,442 282.833,443 282.5,444C 286.348,452.569 291.514,460.069 298,466.5C 298.333,466.167 298.667,465.833 299,465.5C 301.195,467.688 303.695,469.521 306.5,471C 312.608,472.877 318.775,474.377 325,475.5C 331.091,474.713 337.257,473.213 343.5,471C 345.506,468.798 348.339,466.965 352,465.5C 352.333,465.833 352.667,466.167 353,466.5C 353.689,465.643 354.522,464.977 355.5,464.5C 356.865,465.807 358.198,465.807 359.5,464.5C 360.833,465.167 361.833,466.167 362.5,467.5C 356.845,471.637 351.012,475.637 345,479.5C 344.667,479.167 344.333,478.833 344,478.5C 340.382,480.163 336.715,481.83 333,483.5C 327.045,483.251 321.378,483.251 316,483.5C 311.574,482.421 307.24,480.421 303,477.5C 300.909,478.5 299.243,477.833 298,475.5C 297.667,475.833 297.333,476.167 297,476.5C 292.494,473.021 287.994,468.854 283.5,464C 283.833,463.667 284.167,463.333 284.5,463C 283.376,462.751 282.376,462.251 281.5,461.5C 278.156,455.201 275.489,449.035 273.5,443C 273.493,441.417 273.826,439.751 274.5,438C 273.282,436.562 272.615,434.895 272.5,433C 273.407,431.089 273.407,429.256 272.5,427.5C 273.025,426.808 273.692,426.308 274.5,426C 274.566,422.867 274.566,419.7 274.5,416.5C 276.815,412.237 278.982,407.904 281,403.5C 282.614,400.763 284.781,398.597 287.5,397C 287.167,396.667 286.833,396.333 286.5,396C 287.737,395.768 288.737,395.268 289.5,394.5 Z"/></g>
<g><path style="opacity:0.069" fill="#f09217" d="M 535.5,481.5 C 542.869,487.868 549.536,494.868 555.5,502.5C 553.023,504.241 550.356,505.741 547.5,507C 543.33,511.855 543.997,516.188 549.5,520C 552.986,521.996 556.319,524.163 559.5,526.5C 557.034,527.634 554.367,527.801 551.5,527C 548.339,525.587 545.339,523.92 542.5,522C 534.123,514.621 525.456,507.621 516.5,501C 513.296,497.964 510.296,494.797 507.5,491.5C 508.117,491.389 508.617,491.056 509,490.5C 509.197,485.914 509.697,481.414 510.5,477C 519.487,474.413 527.487,476.246 534.5,482.5C 535.107,482.376 535.44,482.043 535.5,481.5 Z"/></g>
<g><path style="opacity:1" fill="#6e3c1c" d="M 221.5,480.5 C 224.436,484.576 227.103,488.909 229.5,493.5C 232.012,496.511 234.678,499.344 237.5,502C 237.167,502.333 236.833,502.667 236.5,503C 240.392,506.226 243.558,510.059 246,514.5C 246.333,514.167 246.667,513.833 247,513.5C 262.772,528.108 280.272,537.774 299.5,542.5C 300.086,542.291 300.586,541.957 301,541.5C 307.333,543.819 313.499,544.486 319.5,543.5C 325.36,546.262 331.026,549.262 336.5,552.5C 333.325,552.076 330.158,552.743 327,554.5C 322.047,553.783 317.047,553.117 312,552.5C 311.127,552.735 310.293,553.069 309.5,553.5C 300.642,551.194 292.475,549.194 285,547.5C 283.47,546.364 282.137,545.364 281,544.5C 280.667,544.833 280.333,545.167 280,545.5C 275.045,543.043 270.212,540.377 265.5,537.5C 264.914,537.709 264.414,538.043 264,538.5C 263.558,536.321 262.558,535.655 261,536.5C 257.071,532.579 252.571,529.413 247.5,527C 247.833,526.667 248.167,526.333 248.5,526C 245.354,523.688 242.354,521.188 239.5,518.5C 238.817,518.863 238.15,519.196 237.5,519.5C 230.225,507.352 224.892,494.352 221.5,480.5 Z"/></g>
<g><path style="opacity:1" fill="#884e24" d="M 375.5,480.5 C 379.148,484.417 382.815,488.417 386.5,492.5C 373.684,504.335 358.851,513.002 342,518.5C 333.652,517.804 325.152,517.804 316.5,518.5C 313.63,517.878 310.796,517.211 308,516.5C 307.667,516.833 307.333,517.167 307,517.5C 305.479,514.954 303.979,514.954 302.5,517.5C 291.948,507.614 283.281,496.28 276.5,483.5C 276.435,483.062 276.601,482.728 277,482.5C 282.836,489.014 290.003,493.514 298.5,496C 297.66,497.666 298.16,497.833 300,496.5C 300.317,498.301 300.984,498.634 302,497.5C 305.171,498.536 308.171,499.87 311,501.5C 314.667,501.167 318.333,500.833 322,500.5C 322.333,501.167 322.667,501.833 323,502.5C 324.333,502.5 325.667,502.5 327,502.5C 327.333,501.833 327.667,501.167 328,500.5C 330.333,500.833 332.667,501.167 335,501.5C 349.774,497.703 363.274,490.703 375.5,480.5 Z"/></g>
<g><path style="opacity:1" fill="#804822" d="M 386.5,492.5 C 389.167,494.5 391.5,496.833 393.5,499.5C 390.276,501.842 387.443,504.509 385,507.5C 384.667,507.167 384.333,506.833 384,506.5C 383,507.833 382,509.167 381,510.5C 380.667,510.167 380.333,509.833 380,509.5C 376.275,513.342 372.275,516.008 368,517.5C 352.835,525.617 337.669,528.95 322.5,527.5C 320.664,528.028 318.997,528.694 317.5,529.5C 312.317,525.74 307.317,521.74 302.5,517.5C 303.979,514.954 305.479,514.954 307,517.5C 307.333,517.167 307.667,516.833 308,516.5C 310.796,517.211 313.63,517.878 316.5,518.5C 325.152,517.804 333.652,517.804 342,518.5C 358.851,513.002 373.684,504.335 386.5,492.5 Z"/></g>
<g><path style="opacity:0.027" fill="#e99126" d="M 587.5,497.5 C 582.206,511.126 572.873,520.793 559.5,526.5C 556.319,524.163 552.986,521.996 549.5,520C 543.997,516.188 543.33,511.855 547.5,507C 550.356,505.741 553.023,504.241 555.5,502.5C 560.131,506.63 564.631,510.963 569,515.5C 568.242,509.377 566.742,503.377 564.5,497.5C 568.797,495.103 573.297,493.103 578,491.5C 581.77,492.63 584.937,494.63 587.5,497.5 Z"/></g>
<g><path style="opacity:1" fill="#77431f" d="M 393.5,499.5 C 397.5,502.833 401.167,506.5 404.5,510.5C 402.618,511.237 401.952,512.404 402.5,514C 395.741,519.443 388.908,524.609 382,529.5C 381.667,529.167 381.333,528.833 381,528.5C 379.777,531.447 377.777,532.447 375,531.5C 367.31,536.571 359.31,539.905 351,541.5C 349.701,541.034 348.201,541.034 346.5,541.5C 346.5,542.5 346.5,543.5 346.5,544.5C 336.107,540.804 326.44,535.804 317.5,529.5C 318.997,528.694 320.664,528.028 322.5,527.5C 337.669,528.95 352.835,525.617 368,517.5C 372.275,516.008 376.275,513.342 380,509.5C 380.333,509.833 380.667,510.167 381,510.5C 382,509.167 383,507.833 384,506.5C 384.333,506.833 384.667,507.167 385,507.5C 387.443,504.509 390.276,501.842 393.5,499.5 Z"/></g>
<g><path style="opacity:1" fill="#6e3d1c" d="M 404.5,510.5 C 407.167,512.5 409.5,514.833 411.5,517.5C 403.149,525.167 394.149,532.167 384.5,538.5C 383.914,538.291 383.414,537.957 383,537.5C 378.081,540.144 373.248,542.978 368.5,546C 365.833,546.667 363.167,547.333 360.5,548C 361.056,548.383 361.389,548.883 361.5,549.5C 356.368,548.208 351.368,546.541 346.5,544.5C 346.5,543.5 346.5,542.5 346.5,541.5C 348.201,541.034 349.701,541.034 351,541.5C 359.31,539.905 367.31,536.571 375,531.5C 377.777,532.447 379.777,531.447 381,528.5C 381.333,528.833 381.667,529.167 382,529.5C 388.908,524.609 395.741,519.443 402.5,514C 401.952,512.404 402.618,511.237 404.5,510.5 Z"/></g>
<g><path style="opacity:1" fill="#65371a" d="M 411.5,517.5 C 416.167,521.5 420.5,525.833 424.5,530.5C 419.166,535.247 413.832,540.08 408.5,545C 403.513,546.993 399.513,549.493 396.5,552.5C 384.821,553.588 373.154,552.588 361.5,549.5C 361.389,548.883 361.056,548.383 360.5,548C 363.167,547.333 365.833,546.667 368.5,546C 373.248,542.978 378.081,540.144 383,537.5C 383.414,537.957 383.914,538.291 384.5,538.5C 394.149,532.167 403.149,525.167 411.5,517.5 Z"/></g>
<g><path style="opacity:1" fill="#67381a" d="M 336.5,552.5 C 343.647,554.66 350.647,556.994 357.5,559.5C 351.192,560.286 345.025,561.619 339,563.5C 329.833,562.498 320.5,562.498 311,563.5C 310.333,562.833 309.667,562.167 309,561.5C 305.801,561.554 302.634,561.554 299.5,561.5C 295.229,560.372 291.062,559.038 287,557.5C 286.586,557.957 286.086,558.291 285.5,558.5C 282.508,557.113 279.675,555.446 277,553.5C 275.333,553.5 273.667,553.5 272,553.5C 266.878,550.26 262.212,547.26 258,544.5C 257.536,545.094 257.369,545.761 257.5,546.5C 249.323,538.651 242.656,529.651 237.5,519.5C 238.15,519.196 238.817,518.863 239.5,518.5C 242.354,521.188 245.354,523.688 248.5,526C 248.167,526.333 247.833,526.667 247.5,527C 252.571,529.413 257.071,532.579 261,536.5C 262.558,535.655 263.558,536.321 264,538.5C 264.414,538.043 264.914,537.709 265.5,537.5C 270.212,540.377 275.045,543.043 280,545.5C 280.333,545.167 280.667,544.833 281,544.5C 282.137,545.364 283.47,546.364 285,547.5C 292.475,549.194 300.642,551.194 309.5,553.5C 310.293,553.069 311.127,552.735 312,552.5C 317.047,553.117 322.047,553.783 327,554.5C 330.158,552.743 333.325,552.076 336.5,552.5 Z"/></g>
<g><path style="opacity:1" fill="#582e16" d="M 424.5,530.5 C 429.631,535.13 434.631,539.963 439.5,545C 425.576,549.876 411.243,552.376 396.5,552.5C 399.513,549.493 403.513,546.993 408.5,545C 413.832,540.08 419.166,535.247 424.5,530.5 Z"/></g>
<g><path style="opacity:1" fill="#5f3318" d="M 357.5,559.5 C 368.322,562.248 379.322,563.581 390.5,563.5C 387.821,565.601 384.988,567.601 382,569.5C 380.984,568.366 380.317,568.699 380,570.5C 379.667,570.167 379.333,569.833 379,569.5C 374.871,570.521 371.038,572.187 367.5,574.5C 366.833,574.167 366.167,573.833 365.5,573.5C 363.456,575.355 361.289,576.022 359,575.5C 355.269,577.371 351.436,578.037 347.5,577.5C 346.353,577.818 345.519,578.484 345,579.5C 344.586,579.043 344.086,578.709 343.5,578.5C 340.167,579.167 336.833,579.833 333.5,580.5C 326.353,580.153 319.353,580.153 312.5,580.5C 311.808,579.975 311.308,579.308 311,578.5C 308.23,579.325 305.563,579.659 303,579.5C 301.651,576.93 300.484,576.93 299.5,579.5C 283.204,571.361 269.204,560.361 257.5,546.5C 257.369,545.761 257.536,545.094 258,544.5C 262.212,547.26 266.878,550.26 272,553.5C 273.667,553.5 275.333,553.5 277,553.5C 279.675,555.446 282.508,557.113 285.5,558.5C 286.086,558.291 286.586,557.957 287,557.5C 291.062,559.038 295.229,560.372 299.5,561.5C 302.634,561.554 305.801,561.554 309,561.5C 309.667,562.167 310.333,562.833 311,563.5C 320.5,562.498 329.833,562.498 339,563.5C 345.025,561.619 351.192,560.286 357.5,559.5 Z"/></g>
<g><path style="opacity:1" fill="#482411" d="M 449.5,555.5 C 447.569,556.259 446.069,557.593 445,559.5C 444.667,559.167 444.333,558.833 444,558.5C 443.667,559.5 443.333,560.5 443,561.5C 442.667,561.167 442.333,560.833 442,560.5C 436.975,566.026 431.475,571.026 425.5,575.5C 424.575,576.641 423.741,576.641 423,575.5C 422,576.833 421,578.167 420,579.5C 419.667,579.167 419.333,578.833 419,578.5C 416.428,580.329 414.094,582.329 412,584.5C 411.586,584.043 411.086,583.709 410.5,583.5C 408.851,584.706 407.351,586.039 406,587.5C 405.667,587.167 405.333,586.833 405,586.5C 404.082,588.632 402.749,589.299 401,588.5C 397.941,590.068 394.608,592.068 391,594.5C 389.984,593.366 389.317,593.699 389,595.5C 388.667,595.167 388.333,594.833 388,594.5C 386.055,595.863 383.888,596.697 381.5,597C 380.262,597.69 380.262,598.19 381.5,598.5C 378.686,599.165 375.686,599.498 372.5,599.5C 365.462,599.16 358.462,598.493 351.5,597.5C 351.119,596.069 350.119,595.236 348.5,595C 350.061,594.682 351.228,593.849 352,592.5C 353.518,592.057 354.685,592.724 355.5,594.5C 357.801,593.044 360.135,592.711 362.5,593.5C 365.461,592.817 365.795,591.984 363.5,591C 364.766,590.691 365.933,590.191 367,589.5C 367.333,590.5 367.667,591.5 368,592.5C 368.29,590.956 368.956,589.623 370,588.5C 370.333,589.167 370.667,589.833 371,590.5C 372.788,589.642 374.622,588.642 376.5,587.5C 377.716,588.002 378.883,588.335 380,588.5C 382.403,586.848 385.07,584.848 388,582.5C 388.333,583.167 388.667,583.833 389,584.5C 392.034,583.239 395.034,581.239 398,578.5C 400.085,579.647 401.585,578.98 402.5,576.5C 403.167,576.833 403.833,577.167 404.5,577.5C 405.815,575.684 407.315,574.017 409,572.5C 409.333,572.833 409.667,573.167 410,573.5C 411.907,570.55 414.407,569.384 417.5,570C 417.167,569.667 416.833,569.333 416.5,569C 417.618,567.926 418.618,566.76 419.5,565.5C 422.789,564.524 426.122,562.857 429.5,560.5C 430.298,560.043 430.631,559.376 430.5,558.5C 436.072,557.143 441.572,555.476 447,553.5C 448.301,553.639 449.134,554.305 449.5,555.5 Z"/></g>
<g><path style="opacity:1" fill="#432010" d="M 449.5,555.5 C 455.131,560.63 460.631,565.964 466,571.5C 466.089,573.113 465.255,574.28 463.5,575C 438.356,590.436 411.023,598.27 381.5,598.5C 380.262,598.19 380.262,597.69 381.5,597C 383.888,596.697 386.055,595.863 388,594.5C 388.333,594.833 388.667,595.167 389,595.5C 389.317,593.699 389.984,593.366 391,594.5C 394.608,592.068 397.941,590.068 401,588.5C 402.749,589.299 404.082,588.632 405,586.5C 405.333,586.833 405.667,587.167 406,587.5C 407.351,586.039 408.851,584.706 410.5,583.5C 411.086,583.709 411.586,584.043 412,584.5C 414.094,582.329 416.428,580.329 419,578.5C 419.333,578.833 419.667,579.167 420,579.5C 421,578.167 422,576.833 423,575.5C 423.741,576.641 424.575,576.641 425.5,575.5C 431.475,571.026 436.975,566.026 442,560.5C 442.333,560.833 442.667,561.167 443,561.5C 443.333,560.5 443.667,559.5 444,558.5C 444.333,558.833 444.667,559.167 445,559.5C 446.069,557.593 447.569,556.259 449.5,555.5 Z"/></g>
<g><path style="opacity:1" fill="#532b14" d="M 430.5,558.5 C 430.631,559.376 430.298,560.043 429.5,560.5C 426.122,562.857 422.789,564.524 419.5,565.5C 418.618,566.76 417.618,567.926 416.5,569C 416.833,569.333 417.167,569.667 417.5,570C 414.407,569.384 411.907,570.55 410,573.5C 409.667,573.167 409.333,572.833 409,572.5C 407.315,574.017 405.815,575.684 404.5,577.5C 403.833,577.167 403.167,576.833 402.5,576.5C 401.585,578.98 400.085,579.647 398,578.5C 395.034,581.239 392.034,583.239 389,584.5C 388.667,583.833 388.333,583.167 388,582.5C 385.07,584.848 382.403,586.848 380,588.5C 378.883,588.335 377.716,588.002 376.5,587.5C 374.622,588.642 372.788,589.642 371,590.5C 370.667,589.833 370.333,589.167 370,588.5C 368.956,589.623 368.29,590.956 368,592.5C 367.667,591.5 367.333,590.5 367,589.5C 365.933,590.191 364.766,590.691 363.5,591C 365.795,591.984 365.461,592.817 362.5,593.5C 360.135,592.711 357.801,593.044 355.5,594.5C 354.685,592.724 353.518,592.057 352,592.5C 351.228,593.849 350.061,594.682 348.5,595C 350.119,595.236 351.119,596.069 351.5,597.5C 333.15,594.494 315.816,588.494 299.5,579.5C 300.484,576.93 301.651,576.93 303,579.5C 305.563,579.659 308.23,579.325 311,578.5C 311.308,579.308 311.808,579.975 312.5,580.5C 319.353,580.153 326.353,580.153 333.5,580.5C 336.833,579.833 340.167,579.167 343.5,578.5C 344.086,578.709 344.586,579.043 345,579.5C 345.519,578.484 346.353,577.818 347.5,577.5C 351.436,578.037 355.269,577.371 359,575.5C 361.289,576.022 363.456,575.355 365.5,573.5C 366.167,573.833 366.833,574.167 367.5,574.5C 371.038,572.187 374.871,570.521 379,569.5C 379.333,569.833 379.667,570.167 380,570.5C 380.317,568.699 380.984,568.366 382,569.5C 384.988,567.601 387.821,565.601 390.5,563.5C 404.125,563.964 417.459,562.297 430.5,558.5 Z"/></g>
<g><path style="opacity:0.081" fill="#f29312" d="M 362.5,721.5 C 355.782,721.163 349.116,720.496 342.5,719.5C 341.817,719.863 341.15,720.196 340.5,720.5C 337.588,715.737 334.421,711.071 331,706.5C 327.379,696.018 324.379,685.351 322,674.5C 317.892,664.725 311.059,657.559 301.5,653C 287.395,646.781 273.729,639.781 260.5,632C 253.896,630.594 247.896,631.928 242.5,636C 223.675,649.584 204.009,661.918 183.5,673C 178.366,675.148 173.366,674.981 168.5,672.5C 169.508,670.661 171.008,669.328 173,668.5C 173.833,666.833 174.667,665.167 175.5,663.5C 173.729,659.619 171.729,655.952 169.5,652.5C 197.673,632.486 226.173,612.819 255,593.5C 282.285,614.807 312.951,628.807 347,635.5C 352.491,664.121 357.658,692.788 362.5,721.5 Z"/></g>
<g><path style="opacity:0.083" fill="#f39311" d="M 566.5,632.5 C 563.789,636.753 561.456,641.253 559.5,646C 560.959,649.619 563.293,652.453 566.5,654.5C 561.508,657.235 556.175,658.068 550.5,657C 532.093,651.198 513.76,645.198 495.5,639C 490.672,638.371 486.005,639.038 481.5,641C 465.036,650.155 447.702,657.155 429.5,662C 422.882,664.389 417.715,668.556 414,674.5C 410.055,684.273 406.722,694.273 404,704.5C 400.637,710.009 397.137,715.342 393.5,720.5C 386.187,721.187 378.854,721.521 371.5,721.5C 376.576,693.118 381.91,664.784 387.5,636.5C 424.093,634.233 457.926,623.567 489,604.5C 515.009,613.424 540.842,622.758 566.5,632.5 Z"/></g>
<g><path style="opacity:0.05" fill="#e99126" d="M 166.5,642.5 C 162.066,649.049 157.399,655.383 152.5,661.5C 147.844,656.204 144.177,650.204 141.5,643.5C 144.631,640.871 147.631,638.038 150.5,635C 153.167,633 155.833,633 158.5,635C 161.036,637.705 163.703,640.205 166.5,642.5 Z"/></g>
<g><path style="opacity:0.008" fill="#e99126" d="M 594.5,621.5 C 591.038,637.309 581.704,648.309 566.5,654.5C 563.293,652.453 560.959,649.619 559.5,646C 561.456,641.253 563.789,636.753 566.5,632.5C 572.281,635.234 578.281,637.067 584.5,638C 578.374,632.944 572.707,627.444 567.5,621.5C 570.127,617.792 573.127,614.292 576.5,611C 580.207,610.004 583.541,610.67 586.5,613C 588.667,616.333 591.334,619.166 594.5,621.5 Z"/></g>
<g><path style="opacity:0.036" fill="#e79129" d="M 169.5,652.5 C 171.729,655.952 173.729,659.619 175.5,663.5C 174.667,665.167 173.833,666.833 173,668.5C 171.008,669.328 169.508,670.661 168.5,672.5C 163.117,670.483 158.45,667.483 154.5,663.5C 159.196,659.479 164.196,655.812 169.5,652.5 Z"/></g>
<g><path style="opacity:0.023" fill="#eb9222" d="M 362.5,721.5 C 363.784,727.863 365.284,734.197 367,740.5C 368.33,733.994 369.83,727.661 371.5,721.5C 378.854,721.521 386.187,721.187 393.5,720.5C 387.814,732.353 378.98,741.019 367,746.5C 355.02,741.019 346.186,732.353 340.5,720.5C 341.15,720.196 341.817,719.863 342.5,719.5C 349.116,720.496 355.782,721.163 362.5,721.5 Z"/></g>
</svg>
