<?xml version="1.0" encoding="UTF-8"?>
<!DOCTYPE svg PUBLIC "-//W3C//DTD SVG 1.1//EN" "http://www.w3.org/Graphics/SVG/1.1/DTD/svg11.dtd">
<svg xmlns="http://www.w3.org/2000/svg" version="1.1" width="100%" height="100%" viewBox="0 0 182 161" style="shape-rendering:geometricPrecision; text-rendering:geometricPrecision; image-rendering:optimizeQuality; fill-rule:evenodd; clip-rule:evenodd" xmlns:xlink="http://www.w3.org/1999/xlink">
<g><path style="opacity:0.004" fill="#190f15" d="M 53.5,3.5 C 54.8333,4.16667 54.8333,4.16667 53.5,3.5 Z"/></g>
<g><path style="opacity:0.008" fill="#4b1f39" d="M 58.5,2.5 C 61.0009,2.51092 61.1676,3.17759 59,4.5C 58.5357,3.90558 58.369,3.23891 58.5,2.5 Z"/></g>
<g><path style="opacity:0.02" fill="#1d121a" d="M 51.5,5.5 C 52.8333,6.16667 52.8333,6.16667 51.5,5.5 Z"/></g>
<g><path style="opacity:0.004" fill="#7b1e53" d="M 74.5,5.5 C 75.8333,6.16667 75.8333,6.16667 74.5,5.5 Z"/></g>
<g><path style="opacity:0.004" fill="#151524" d="M 47.5,6.5 C 48.8333,7.16667 48.8333,7.16667 47.5,6.5 Z"/></g>
<g><path style="opacity:0.212" fill="#675765" d="M 74.5,5.5 C 73.1667,5.83333 73.1667,6.16667 74.5,6.5C 77.1438,8.96904 79.9772,11.3024 83,13.5C 83.3333,13.1667 83.6667,12.8333 84,12.5C 87.0771,14.7844 90.2437,16.7844 93.5,18.5C 90.3799,18.8441 87.5466,18.1775 85,16.5C 84.2352,16.5699 83.7352,16.9033 83.5,17.5C 82.1667,16.8333 80.8333,16.1667 79.5,15.5C 78.078,14.075 76.4113,13.075 74.5,12.5C 73.1667,10.5 71.5,8.83333 69.5,7.5C 69.0831,6.87605 68.4164,6.54272 67.5,6.5C 65.5,7 63.5,7.5 61.5,8C 60.4261,10.905 58.7594,13.405 56.5,15.5C 53.2366,18.5832 49.7366,21.5832 46,24.5C 45.3923,26.1545 44.8923,27.8211 44.5,29.5C 44.1667,29.5 43.8333,29.5 43.5,29.5C 43.631,28.7611 43.4643,28.0944 43,27.5C 42.3292,28.2524 41.4959,28.5858 40.5,28.5C 40.5,28.1667 40.5,27.8333 40.5,27.5C 42.5802,23.8638 45.5802,20.3638 49.5,17C 49.1667,16.6667 48.8333,16.3333 48.5,16C 52.7458,11.2482 57.4124,7.08153 62.5,3.5C 65.773,2.41495 69.1064,2.24828 72.5,3C 73.3805,3.7083 74.0472,4.54163 74.5,5.5 Z"/></g>
<g><path style="opacity:1" fill="#713738" d="M 69.5,7.5 C 67.3713,8.20278 65.3713,9.20278 63.5,10.5C 61.4687,12.5224 59.1354,14.1891 56.5,15.5C 58.7594,13.405 60.4261,10.905 61.5,8C 63.5,7.5 65.5,7 67.5,6.5C 68.4164,6.54272 69.0831,6.87605 69.5,7.5 Z"/></g>
<g><path style="opacity:0.016" fill="#2d1c1f" d="M 0.5,8.5 C 1.59832,9.60093 1.76498,10.9343 1,12.5C 0.50999,11.2068 0.343323,9.87344 0.5,8.5 Z"/></g>
<g><path style="opacity:1" fill="#de735c" d="M 79.5,15.5 C 80.8333,16.1667 82.1667,16.8333 83.5,17.5C 84.9475,20.264 87.2809,21.9307 90.5,22.5C 92.6826,26.211 94.1826,30.211 95,34.5C 96.2995,36.588 98.1329,37.9214 100.5,38.5C 99.8333,39.1667 99.1667,39.8333 98.5,40.5C 98.1667,40.5 97.8333,40.5 97.5,40.5C 95.901,40.2322 94.5676,40.5655 93.5,41.5C 93.1667,41.5 92.8333,41.5 92.5,41.5C 91.0669,39.4418 90.4003,37.1085 90.5,34.5C 90.8155,27.4579 87.8155,22.4579 81.5,19.5C 80.3698,18.3777 79.7031,17.0443 79.5,15.5 Z"/></g>
<g><path style="opacity:0.898" fill="#b6949a" d="M 93.5,18.5 C 94.4959,18.5858 95.3292,18.2524 96,17.5C 101.237,18.8622 106.404,20.1955 111.5,21.5C 108.099,20.7619 104.432,20.7619 100.5,21.5C 97.2869,21.19 94.2869,21.5233 91.5,22.5C 91.1667,22.5 90.8333,22.5 90.5,22.5C 87.2809,21.9307 84.9475,20.264 83.5,17.5C 83.7352,16.9033 84.2352,16.5699 85,16.5C 87.5466,18.1775 90.3799,18.8441 93.5,18.5 Z"/></g>
<g><path style="opacity:1" fill="#410d0b" d="M 63.5,10.5 C 64.2389,10.369 64.9056,10.5357 65.5,11C 63.2435,18.2339 59.7435,24.7339 55,30.5C 53.3227,29.3922 51.8227,29.3922 50.5,30.5C 49.5,30.1667 48.8333,29.5 48.5,28.5C 48.3505,27.448 48.5172,26.448 49,25.5C 51.7411,22.2711 54.2411,18.9378 56.5,15.5C 59.1354,14.1891 61.4687,12.5224 63.5,10.5 Z"/></g>
<g><path style="opacity:1" fill="#641011" d="M 69.5,7.5 C 71.5,8.83333 73.1667,10.5 74.5,12.5C 72.1432,12.3367 69.8098,12.5034 67.5,13C 69.2495,14.3186 71.2495,14.8186 73.5,14.5C 73.7239,20.1084 71.0573,22.9417 65.5,23C 66.8678,24.3402 68.2011,25.6736 69.5,27C 68.2927,28.3002 67.6261,29.8002 67.5,31.5C 65.8333,31.5 64.1667,31.5 62.5,31.5C 60.2646,31.2053 58.2646,31.5386 56.5,32.5C 55.1667,32.1667 53.8333,31.8333 52.5,31.5C 52.1583,30.6618 51.4916,30.3284 50.5,30.5C 51.8227,29.3922 53.3227,29.3922 55,30.5C 59.7435,24.7339 63.2435,18.2339 65.5,11C 64.9056,10.5357 64.2389,10.369 63.5,10.5C 65.3713,9.20278 67.3713,8.20278 69.5,7.5 Z"/></g>
<g><path style="opacity:0.996" fill="#ddcaca" d="M 111.5,21.5 C 113.784,21.9752 115.784,22.9752 117.5,24.5C 119.522,26.5313 121.189,28.8646 122.5,31.5C 121.206,30.7101 120.039,29.7101 119,28.5C 118.667,29.1667 118.333,29.8333 118,30.5C 112.22,28.1841 106.387,26.1841 100.5,24.5C 100.5,23.5 100.5,22.5 100.5,21.5C 104.432,20.7619 108.099,20.7619 111.5,21.5 Z"/></g>
<g><path style="opacity:0.031" fill="#7d2055" d="M 40.5,27.5 C 39.8333,26.1667 39.8333,26.1667 40.5,27.5 Z"/></g>
<g><path style="opacity:1" fill="#881a1b" d="M 74.5,12.5 C 74.4148,13.9953 75.0815,14.9953 76.5,15.5C 77.4742,17.7427 77.8076,20.076 77.5,22.5C 76.448,22.3505 75.448,22.5172 74.5,23C 78.3396,25.5111 79.8396,29.0111 79,33.5C 76.1805,31.6232 73.3472,31.2899 70.5,32.5C 67.6146,32.8064 64.9479,32.4731 62.5,31.5C 64.1667,31.5 65.8333,31.5 67.5,31.5C 67.6261,29.8002 68.2927,28.3002 69.5,27C 68.2011,25.6736 66.8678,24.3402 65.5,23C 71.0573,22.9417 73.7239,20.1084 73.5,14.5C 71.2495,14.8186 69.2495,14.3186 67.5,13C 69.8098,12.5034 72.1432,12.3367 74.5,12.5 Z"/></g>
<g><path style="opacity:0.004" fill="#5b3044" d="M -0.5,27.5 C 0.166667,27.5 0.5,27.8333 0.5,28.5C 0.166667,28.1667 -0.166667,27.8333 -0.5,27.5 Z"/></g>
<g><path style="opacity:1" fill="#603337" d="M 56.5,15.5 C 54.2411,18.9378 51.7411,22.2711 49,25.5C 48.5172,26.448 48.3505,27.448 48.5,28.5C 47.0413,28.4326 45.7079,28.7659 44.5,29.5C 44.8923,27.8211 45.3923,26.1545 46,24.5C 49.7366,21.5832 53.2366,18.5832 56.5,15.5 Z"/></g>
<g><path style="opacity:0.016" fill="#381927" d="M 0.5,28.5 C 1.16667,28.5 1.5,28.8333 1.5,29.5C 1.16667,29.1667 0.833333,28.8333 0.5,28.5 Z"/></g>
<g><path style="opacity:0.024" fill="#562f40" d="M 1.5,29.5 C 2.83333,30.1667 2.83333,30.1667 1.5,29.5 Z"/></g>
<g><path style="opacity:1" fill="#deb7aa" d="M 91.5,22.5 C 94.2869,21.5233 97.2869,21.19 100.5,21.5C 100.5,22.5 100.5,23.5 100.5,24.5C 106.387,26.1841 112.22,28.1841 118,30.5C 118.333,29.8333 118.667,29.1667 119,28.5C 120.039,29.7101 121.206,30.7101 122.5,31.5C 122.804,32.1499 123.137,32.8165 123.5,33.5C 121.815,35.5707 120.148,37.5707 118.5,39.5C 118.477,37.4004 119.144,35.5671 120.5,34C 120.167,33.5 119.833,33 119.5,32.5C 117.253,31.6258 114.92,31.2924 112.5,31.5C 112.5,32.5 112.5,33.5 112.5,34.5C 111.209,34.2627 110.209,34.596 109.5,35.5C 104.717,33.8844 101.384,30.7177 99.5,26C 97.9221,24.9055 96.2554,24.0722 94.5,23.5C 93.391,23.4431 92.391,23.1098 91.5,22.5 Z"/></g>
<g><path style="opacity:0.004" fill="#401b2f" d="M 126.5,31.5 C 127.386,30.2241 128.386,30.2241 129.5,31.5C 129.145,32.5223 128.478,33.189 127.5,33.5C 127.672,32.5084 127.338,31.8417 126.5,31.5 Z"/></g>
<g><path style="opacity:0.176" fill="#422c3c" d="M 40.5,28.5 C 39.8897,30.4341 38.8897,32.1007 37.5,33.5C 37.2591,30.9664 38.2591,29.2998 40.5,28.5 Z"/></g>
<g><path style="opacity:1" fill="#b03c30" d="M 74.5,12.5 C 76.4113,13.075 78.078,14.075 79.5,15.5C 79.7031,17.0443 80.3698,18.3777 81.5,19.5C 87.8155,22.4579 90.8155,27.4579 90.5,34.5C 88.1921,36.4784 85.5255,37.8117 82.5,38.5C 78.9768,35.5477 74.9768,33.5477 70.5,32.5C 73.3472,31.2899 76.1805,31.6232 79,33.5C 79.8396,29.0111 78.3396,25.5111 74.5,23C 75.448,22.5172 76.448,22.3505 77.5,22.5C 77.8076,20.076 77.4742,17.7427 76.5,15.5C 75.0815,14.9953 74.4148,13.9953 74.5,12.5 Z"/></g>
<g><path style="opacity:1" fill="#e98f75" d="M 90.5,22.5 C 90.8333,22.5 91.1667,22.5 91.5,22.5C 92.391,23.1098 93.391,23.4431 94.5,23.5C 96.5768,26.8011 97.5768,30.4678 97.5,34.5C 100.292,34.6225 102.292,35.9558 103.5,38.5C 102.5,38.5 101.5,38.5 100.5,38.5C 98.1329,37.9214 96.2995,36.588 95,34.5C 94.1826,30.211 92.6826,26.211 90.5,22.5 Z"/></g>
<g><path style="opacity:0.004" fill="#472035" d="M 32.5,33.5 C 33.8333,34.1667 33.8333,34.1667 32.5,33.5 Z"/></g>
<g><path style="opacity:1" fill="#e8a28a" d="M 94.5,23.5 C 96.2554,24.0722 97.9221,24.9055 99.5,26C 101.384,30.7177 104.717,33.8844 109.5,35.5C 112.147,36.0729 114.813,36.7396 117.5,37.5C 117.043,38.2975 116.376,38.6309 115.5,38.5C 111.5,38.5 107.5,38.5 103.5,38.5C 102.292,35.9558 100.292,34.6225 97.5,34.5C 97.5768,30.4678 96.5768,26.8011 94.5,23.5 Z"/></g>
<g><path style="opacity:1" fill="#c99687" d="M 118.5,39.5 C 118.008,41.8185 117.008,43.8185 115.5,45.5C 115.5,43.1667 115.5,40.8333 115.5,38.5C 116.376,38.6309 117.043,38.2975 117.5,37.5C 114.813,36.7396 112.147,36.0729 109.5,35.5C 110.209,34.596 111.209,34.2627 112.5,34.5C 112.5,33.5 112.5,32.5 112.5,31.5C 114.92,31.2924 117.253,31.6258 119.5,32.5C 119.833,33 120.167,33.5 120.5,34C 119.144,35.5671 118.477,37.4004 118.5,39.5 Z"/></g>
<g><path style="opacity:0.031" fill="#481f36" d="M 32.5,34.5 C 32.6716,35.4916 32.3382,36.1583 31.5,36.5C 31.3284,35.5084 31.6618,34.8417 32.5,34.5 Z"/></g>
<g><path style="opacity:0.024" fill="#592642" d="M 139.5,36.5 C 146.494,35.1515 152.161,37.4848 156.5,43.5C 156.167,43.5 155.833,43.5 155.5,43.5C 153.5,42.5 151.5,41.5 149.5,40.5C 149.423,39.2502 148.756,38.4169 147.5,38C 144.937,36.9207 142.271,36.4207 139.5,36.5 Z"/></g>
<g><path style="opacity:0.012" fill="#4c2135" d="M 31.5,36.5 C 31.5,37.8333 30.8333,38.5 29.5,38.5C 29.8333,37.5 30.5,36.8333 31.5,36.5 Z"/></g>
<g><path style="opacity:1" fill="#a62225" d="M 72.5,34.5 C 74.1484,35.7772 75.9817,36.7772 78,37.5C 78.3581,41.2571 79.8581,44.4238 82.5,47C 81.0577,47.3768 80.0577,48.2101 79.5,49.5C 76.6553,50.3438 73.6553,51.0104 70.5,51.5C 70.6107,50.8826 70.944,50.3826 71.5,50C 73.9005,49.8142 76.2338,49.3142 78.5,48.5C 76.0487,45.5997 74.7153,42.2663 74.5,38.5C 73.5,38.5 72.5,38.5 71.5,38.5C 71.4326,37.0413 71.7659,35.7079 72.5,34.5 Z"/></g>
<g><path style="opacity:0.004" fill="#482230" d="M 29.5,38.5 C 28.8333,39.1667 28.8333,39.1667 29.5,38.5 Z"/></g>
<g><path style="opacity:0.02" fill="#551f3c" d="M 127.5,38.5 C 128.833,39.1667 128.833,39.1667 127.5,38.5 Z"/></g>
<g><path style="opacity:0.992" fill="#725d6d" d="M 139.5,36.5 C 142.271,36.4207 144.937,36.9207 147.5,38C 148.756,38.4169 149.423,39.2502 149.5,40.5C 147.598,39.4891 145.598,39.3224 143.5,40C 145.653,40.0995 147.319,40.9328 148.5,42.5C 144.167,41.1667 139.833,41.1667 135.5,42.5C 137.031,41.0755 136.698,40.4088 134.5,40.5C 134.5,39.8333 134.5,39.1667 134.5,38.5C 135.934,36.6216 137.601,35.955 139.5,36.5 Z"/></g>
<g><path style="opacity:1" fill="#660f11" d="M 56.5,32.5 C 61.6121,33.2401 66.9455,33.9068 72.5,34.5C 71.7659,35.7079 71.4326,37.0413 71.5,38.5C 72.5,38.5 73.5,38.5 74.5,38.5C 74.7153,42.2663 76.0487,45.5997 78.5,48.5C 76.2338,49.3142 73.9005,49.8142 71.5,50C 70.944,50.3826 70.6107,50.8826 70.5,51.5C 68.0721,50.7878 65.7388,49.7878 63.5,48.5C 61.4648,49.0412 59.4648,49.7078 57.5,50.5C 57.9569,51.2975 58.6236,51.6309 59.5,51.5C 58.791,52.404 57.791,52.7373 56.5,52.5C 56.67,51.1779 56.3366,50.0113 55.5,49C 58.5421,49.1924 60.2088,47.859 60.5,45C 60.0353,40.2246 57.7019,36.8913 53.5,35C 54.9423,34.6232 55.9423,33.7899 56.5,32.5 Z"/></g>
<g><path style="opacity:1" fill="#b97462" d="M 100.5,38.5 C 101.5,38.5 102.5,38.5 103.5,38.5C 107.5,38.5 111.5,38.5 115.5,38.5C 115.5,40.8333 115.5,43.1667 115.5,45.5C 115.672,46.4916 115.338,47.1583 114.5,47.5C 114.461,46.4168 114.127,45.4168 113.5,44.5C 108.275,43.8927 103.275,42.5593 98.5,40.5C 99.1667,39.8333 99.8333,39.1667 100.5,38.5 Z"/></g>
<g><path style="opacity:0.004" fill="#78184d" d="M 123.5,40.5 C 124.525,40.8966 124.692,41.5632 124,42.5C 123.536,41.9056 123.369,41.2389 123.5,40.5 Z"/></g>
<g><path style="opacity:0.012" fill="#541b23" d="M 25.5,42.5 C 26.525,42.8966 26.6917,43.5632 26,44.5C 25.5357,43.9056 25.369,43.2389 25.5,42.5 Z"/></g>
<g><path style="opacity:1" fill="#4e3e4c" d="M 37.5,33.5 C 32.932,41.9654 28.932,50.632 25.5,59.5C 27.4163,49.6788 31.4163,41.0121 37.5,33.5 Z"/></g>
<g><path style="opacity:0.349" fill="#603a4f" d="M 134.5,38.5 C 134.5,39.1667 134.5,39.8333 134.5,40.5C 131.394,42.5984 129.061,45.2651 127.5,48.5C 127.5,47.8333 127.5,47.1667 127.5,46.5C 127.297,44.6096 127.963,43.1096 129.5,42C 128.049,42.2626 126.716,42.0959 125.5,41.5C 125.855,40.4777 126.522,39.811 127.5,39.5C 127.735,40.0967 128.235,40.4301 129,40.5C 130.8,39.6805 132.634,39.0138 134.5,38.5 Z"/></g>
<g><path style="opacity:0.004" fill="#652542" d="M 156.5,43.5 C 157.833,44.1667 157.833,44.1667 156.5,43.5 Z"/></g>
<g><path style="opacity:1" fill="#1e0405" d="M 45.5,59.5 C 44.9873,55.447 44.154,51.447 43,47.5C 42.51,48.7932 42.3433,50.1266 42.5,51.5C 41.325,51.719 40.325,51.3857 39.5,50.5C 42.4979,46.4984 41.8312,45.3318 37.5,47C 36.5119,49.167 35.1786,51.0003 33.5,52.5C 33.1824,49.5185 34.1824,47.1852 36.5,45.5C 39.1905,42.9614 41.3572,39.9614 43,36.5C 44.1096,34.9632 45.6096,34.2965 47.5,34.5C 47.8782,36.6463 48.2115,38.813 48.5,41C 48.3248,42.6581 47.6582,43.9914 46.5,45C 47.7659,45.3095 48.9326,45.8095 50,46.5C 52.9285,52.4793 51.4285,56.8126 45.5,59.5 Z"/></g>
<g><path style="opacity:1" fill="#cc332e" d="M 56.5,32.5 C 58.2646,31.5386 60.2646,31.2053 62.5,31.5C 64.9479,32.4731 67.6146,32.8064 70.5,32.5C 74.9768,33.5477 78.9768,35.5477 82.5,38.5C 85.5255,37.8117 88.1921,36.4784 90.5,34.5C 90.4003,37.1085 91.0669,39.4418 92.5,41.5C 90.7483,41.4176 89.7483,42.2509 89.5,44C 90.6856,45.4121 92.019,46.5788 93.5,47.5C 88.7277,47.5219 84.0611,48.1885 79.5,49.5C 80.0577,48.2101 81.0577,47.3768 82.5,47C 79.8581,44.4238 78.3581,41.2571 78,37.5C 75.9817,36.7772 74.1484,35.7772 72.5,34.5C 66.9455,33.9068 61.6121,33.2401 56.5,32.5 Z"/></g>
<g><path style="opacity:1" fill="#a05647" d="M 97.5,40.5 C 97.8333,40.5 98.1667,40.5 98.5,40.5C 103.275,42.5593 108.275,43.8927 113.5,44.5C 114.127,45.4168 114.461,46.4168 114.5,47.5C 114.5,49.8333 114.5,52.1667 114.5,54.5C 114.167,54.5 113.833,54.5 113.5,54.5C 112.781,52.2362 112.448,49.9029 112.5,47.5C 107.777,46.9929 103.111,46.1596 98.5,45C 97.6198,43.6439 97.2865,42.1439 97.5,40.5 Z"/></g>
<g><path style="opacity:0.22" fill="#6c2748" d="M 135.5,42.5 C 134.597,44.6365 133.431,46.6365 132,48.5C 131.218,51.2569 131.718,53.7569 133.5,56C 133.272,56.3988 132.938,56.5654 132.5,56.5C 130.573,53.8632 130.073,50.8632 131,47.5C 132.047,45.2925 133.547,43.6258 135.5,42.5 Z"/></g>
<g><path style="opacity:0.02" fill="#572836" d="M 164.5,47.5 C 163.167,47.5 161.833,47.5 160.5,47.5C 159.537,46.6365 159.537,45.9698 160.5,45.5C 162.026,45.9943 163.359,46.661 164.5,47.5 Z"/></g>
<g><path style="opacity:0.533" fill="#9c2350" d="M 150.5,45.5 C 152.969,46.6067 153.969,48.6067 153.5,51.5C 152.768,50.1917 151.934,48.8584 151,47.5C 150.282,48.4506 149.449,48.6172 148.5,48C 149.381,47.2917 150.047,46.4584 150.5,45.5 Z"/></g>
<g><path style="opacity:0.004" fill="#5c3145" d="M 21.5,47.5 C 22.8333,48.1667 22.8333,48.1667 21.5,47.5 Z"/></g>
<g><path style="opacity:0.012" fill="#eb174b" d="M 121.5,47.5 C 122.833,48.1667 122.833,48.1667 121.5,47.5 Z"/></g>
<g><path style="opacity:0.827" fill="#c45166" d="M 127.5,46.5 C 127.5,47.1667 127.5,47.8333 127.5,48.5C 127.167,48.5 126.833,48.5 126.5,48.5C 125.243,47.3774 125.576,46.7107 127.5,46.5 Z"/></g>
<g><path style="opacity:0.008" fill="#d82626" d="M 164.5,47.5 C 165.833,48.1667 165.833,48.1667 164.5,47.5 Z"/></g>
<g><path style="opacity:0.008" fill="#4e2938" d="M 21.5,48.5 C 21.5,48.8333 21.5,49.1667 21.5,49.5C 20.8299,49.0187 20.8299,48.6853 21.5,48.5 Z"/></g>
<g><path style="opacity:0.012" fill="#3d1929" d="M 21.5,49.5 C 22.8333,50.1667 22.8333,50.1667 21.5,49.5 Z"/></g>
<g><path style="opacity:1" fill="#0e0101" d="M 45.5,59.5 C 43.7706,60.2362 42.7706,61.5695 42.5,63.5C 41.8333,63.5 41.5,63.8333 41.5,64.5C 37.6557,66.0022 33.8224,67.6688 30,69.5C 29.5326,64.7333 30.0326,60.0666 31.5,55.5C 32.1667,54.5 32.8333,53.5 33.5,52.5C 35.1786,51.0003 36.5119,49.167 37.5,47C 41.8312,45.3318 42.4979,46.4984 39.5,50.5C 40.325,51.3857 41.325,51.719 42.5,51.5C 42.3433,50.1266 42.51,48.7932 43,47.5C 44.154,51.447 44.9873,55.447 45.5,59.5 Z"/></g>
<g><path style="opacity:0.004" fill="#2b091d" d="M 159.5,48.5 C 159.833,48.5 160.167,48.5 160.5,48.5C 161.547,49.0778 161.38,49.7445 160,50.5C 159.536,49.9056 159.369,49.2389 159.5,48.5 Z"/></g>
<g><path style="opacity:1" fill="#471314" d="M 52.5,31.5 C 53.8333,31.8333 55.1667,32.1667 56.5,32.5C 55.9423,33.7899 54.9423,34.6232 53.5,35C 57.7019,36.8913 60.0353,40.2246 60.5,45C 60.2088,47.859 58.5421,49.1924 55.5,49C 56.3366,50.0113 56.67,51.1779 56.5,52.5C 57.791,52.7373 58.791,52.404 59.5,51.5C 62.718,49.8161 65.3846,50.4828 67.5,53.5C 66.209,53.2627 65.209,53.596 64.5,54.5C 59.6445,55.5923 54.9779,57.259 50.5,59.5C 53.9169,55.1609 54.2502,50.6609 51.5,46C 52.9961,45.4926 54.1627,45.9926 55,47.5C 55.5,47 56,46.5 56.5,46C 52.9972,41.6724 51.6639,36.8391 52.5,31.5 Z"/></g>
<g><path style="opacity:1" fill="#9c8897" d="M 117.5,24.5 C 120.786,26.4512 123.786,28.7846 126.5,31.5C 126.328,32.4916 126.662,33.1583 127.5,33.5C 127.611,34.1174 127.944,34.6174 128.5,35C 126.376,36.1217 124.543,37.6217 123,39.5C 121.592,42.1121 120.258,44.7788 119,47.5C 118.55,51.1875 118.717,54.8542 119.5,58.5C 119.461,59.5832 119.127,60.5832 118.5,61.5C 120.297,63.9553 121.63,66.622 122.5,69.5C 118.789,65.4096 116.123,60.743 114.5,55.5C 114.5,55.1667 114.5,54.8333 114.5,54.5C 114.5,52.1667 114.5,49.8333 114.5,47.5C 115.338,47.1583 115.672,46.4916 115.5,45.5C 117.008,43.8185 118.008,41.8185 118.5,39.5C 120.148,37.5707 121.815,35.5707 123.5,33.5C 123.137,32.8165 122.804,32.1499 122.5,31.5C 121.189,28.8646 119.522,26.5313 117.5,24.5 Z"/></g>
<g><path style="opacity:1" fill="#8f2623" d="M 93.5,47.5 C 93.0675,50.9811 94.4008,53.3144 97.5,54.5C 95.8561,54.2865 94.3561,54.6198 93,55.5C 91.4157,54.1387 89.5824,53.472 87.5,53.5C 82.0147,52.3636 76.6814,52.3636 71.5,53.5C 70.1667,53.5 68.8333,53.5 67.5,53.5C 65.3846,50.4828 62.718,49.8161 59.5,51.5C 58.6236,51.6309 57.9569,51.2975 57.5,50.5C 59.4648,49.7078 61.4648,49.0412 63.5,48.5C 65.7388,49.7878 68.0721,50.7878 70.5,51.5C 73.6553,51.0104 76.6553,50.3438 79.5,49.5C 84.0611,48.1885 88.7277,47.5219 93.5,47.5 Z"/></g>
<g><path style="opacity:1" fill="#8d392d" d="M 97.5,40.5 C 97.2865,42.1439 97.6198,43.6439 98.5,45C 103.111,46.1596 107.777,46.9929 112.5,47.5C 112.448,49.9029 112.781,52.2362 113.5,54.5C 111.034,55.6341 108.367,55.8007 105.5,55C 102.595,53.7138 99.5945,52.7138 96.5,52C 95.9949,48.0428 94.9949,44.5428 93.5,41.5C 94.5676,40.5655 95.901,40.2322 97.5,40.5 Z"/></g>
<g><path style="opacity:1" fill="#2f0c0d" d="M 48.5,28.5 C 48.8333,29.5 49.5,30.1667 50.5,30.5C 51.4916,30.3284 52.1583,30.6618 52.5,31.5C 51.6639,36.8391 52.9972,41.6724 56.5,46C 56,46.5 55.5,47 55,47.5C 54.1627,45.9926 52.9961,45.4926 51.5,46C 54.2502,50.6609 53.9169,55.1609 50.5,59.5C 48.1515,61.341 45.4848,62.6743 42.5,63.5C 42.7706,61.5695 43.7706,60.2362 45.5,59.5C 51.4285,56.8126 52.9285,52.4793 50,46.5C 48.9326,45.8095 47.7659,45.3095 46.5,45C 47.6582,43.9914 48.3248,42.6581 48.5,41C 48.2115,38.813 47.8782,36.6463 47.5,34.5C 45.6096,34.2965 44.1096,34.9632 43,36.5C 41.3572,39.9614 39.1905,42.9614 36.5,45.5C 38.6339,39.8988 41.3006,34.5655 44.5,29.5C 45.7079,28.7659 47.0413,28.4326 48.5,28.5 Z"/></g>
<g><path style="opacity:1" fill="#b5342b" d="M 92.5,41.5 C 92.8333,41.5 93.1667,41.5 93.5,41.5C 94.9949,44.5428 95.9949,48.0428 96.5,52C 99.5945,52.7138 102.595,53.7138 105.5,55C 108.367,55.8007 111.034,55.6341 113.5,54.5C 113.833,54.5 114.167,54.5 114.5,54.5C 114.5,54.8333 114.5,55.1667 114.5,55.5C 114.5,55.8333 114.5,56.1667 114.5,56.5C 113.596,57.209 113.263,58.209 113.5,59.5C 112.596,58.791 112.263,57.791 112.5,56.5C 107.384,56.569 102.384,55.9024 97.5,54.5C 94.4008,53.3144 93.0675,50.9811 93.5,47.5C 92.019,46.5788 90.6856,45.4121 89.5,44C 89.7483,42.2509 90.7483,41.4176 92.5,41.5 Z"/></g>
<g><path style="opacity:0.004" fill="#991c63" d="M 120.5,53.5 C 121.525,53.8966 121.692,54.5632 121,55.5C 120.536,54.9056 120.369,54.2389 120.5,53.5 Z"/></g>
<g><path style="opacity:0.918" fill="#9e316c" d="M 153.5,53.5 C 153.5,54.5 153.5,55.5 153.5,56.5C 153.167,56.5 152.833,56.5 152.5,56.5C 150.871,54.8041 151.204,53.8041 153.5,53.5 Z"/></g>
<g><path style="opacity:1" fill="#543c42" d="M 43.5,29.5 C 43.8333,29.5 44.1667,29.5 44.5,29.5C 41.3006,34.5655 38.6339,39.8988 36.5,45.5C 34.1824,47.1852 33.1824,49.5185 33.5,52.5C 32.8333,53.5 32.1667,54.5 31.5,55.5C 29.0854,61.2102 27.4187,67.2102 26.5,73.5C 27.8734,73.6567 29.2068,73.49 30.5,73C 33.4645,70.1903 36.7978,68.0236 40.5,66.5C 42.7349,67.2481 42.4016,68.0814 39.5,69C 40.448,69.4828 41.448,69.6495 42.5,69.5C 42.1667,70.5 41.5,71.1667 40.5,71.5C 39.8333,71.5 39.1667,71.5 38.5,71.5C 38.1034,70.475 37.4368,70.3083 36.5,71C 32.2683,75.2765 27.6017,78.6099 22.5,81C 23.8333,79.6667 25.1667,78.3333 26.5,77C 25.552,76.5172 24.552,76.3505 23.5,76.5C 26.2971,59.0855 32.9638,43.4188 43.5,29.5 Z"/></g>
<g><path style="opacity:1" fill="#6f4959" d="M 67.5,53.5 C 68.8333,53.5 70.1667,53.5 71.5,53.5C 76.9749,54.0355 82.3082,55.2022 87.5,57C 89.6328,60.6329 91.9661,64.1329 94.5,67.5C 93.9569,67.56 93.6236,67.8933 93.5,68.5C 94.5771,70.7294 95.2437,73.0628 95.5,75.5C 93.8368,73.5073 92.6701,71.1739 92,68.5C 89,65.1667 86,61.8333 83,58.5C 80.8103,59.5838 79.1437,58.9171 78,56.5C 75.3333,57.8333 72.6667,57.8333 70,56.5C 67.8486,58.8287 65.3486,59.4954 62.5,58.5C 62.5858,57.5041 62.2524,56.6708 61.5,56C 62.7375,55.7679 63.7375,55.2679 64.5,54.5C 65.209,53.596 66.209,53.2627 67.5,53.5 Z"/></g>
<g><path style="opacity:0.039" fill="#31101f" d="M 138.5,54.5 C 139.766,55.0899 141.099,55.5899 142.5,56C 140.833,56.6667 139.167,56.6667 137.5,56C 138.056,55.6174 138.389,55.1174 138.5,54.5 Z"/></g>
<g><path style="opacity:1" fill="#701716" d="M 87.5,53.5 C 89.5824,53.472 91.4157,54.1387 93,55.5C 94.3561,54.6198 95.8561,54.2865 97.5,54.5C 102.384,55.9024 107.384,56.569 112.5,56.5C 112.263,57.791 112.596,58.791 113.5,59.5C 113.167,62.1667 112.833,64.8333 112.5,67.5C 109.808,69.8623 107.141,72.1956 104.5,74.5C 103.662,74.1583 103.328,73.4916 103.5,72.5C 109.438,70.2203 112.104,65.8869 111.5,59.5C 107.085,59.3054 102.751,59.8054 98.5,61C 97.7476,61.6708 97.4142,62.5041 97.5,63.5C 94.6163,59.7476 91.2829,56.4143 87.5,53.5 Z"/></g>
<g><path style="opacity:0.055" fill="#8e295e" d="M 157.5,56.5 C 158.71,56.9321 159.71,57.5987 160.5,58.5C 159.504,58.4142 158.671,58.7476 158,59.5C 157.517,58.552 157.351,57.552 157.5,56.5 Z"/></g>
<g><path style="opacity:0.016" fill="#311022" d="M 160.5,58.5 C 161.167,58.5 161.5,58.8333 161.5,59.5C 161.167,59.1667 160.833,58.8333 160.5,58.5 Z"/></g>
<g><path style="opacity:0.012" fill="#25010f" d="M 147.5,56.5 C 148.65,58.2667 147.983,59.4334 145.5,60C 142.208,60.9357 139.208,60.4357 136.5,58.5C 136.667,58.1667 136.833,57.8333 137,57.5C 140.893,60.3484 144.393,60.0151 147.5,56.5 Z"/></g>
<g><path style="opacity:0.004" fill="#220c19" d="M 161.5,59.5 C 162.833,60.1667 162.833,60.1667 161.5,59.5 Z"/></g>
<g><path style="opacity:1" fill="#6a5b69" d="M 64.5,54.5 C 63.7375,55.2679 62.7375,55.7679 61.5,56C 62.2524,56.6708 62.5858,57.5041 62.5,58.5C 61.8946,60.4812 60.8946,60.8146 59.5,59.5C 57.1815,59.9925 55.1815,60.9925 53.5,62.5C 52.8333,62.5 52.5,62.8333 52.5,63.5C 49.6737,63.9977 47.3403,65.3311 45.5,67.5C 44.8333,67.5 44.5,67.8333 44.5,68.5C 43.5084,68.3284 42.8417,68.6618 42.5,69.5C 41.448,69.6495 40.448,69.4828 39.5,69C 42.4016,68.0814 42.7349,67.2481 40.5,66.5C 40.8333,65.8333 41.1667,65.1667 41.5,64.5C 41.5,63.8333 41.8333,63.5 42.5,63.5C 45.4848,62.6743 48.1515,61.341 50.5,59.5C 54.9779,57.259 59.6445,55.5923 64.5,54.5 Z"/></g>
<g><path style="opacity:0.01" fill="#21010c" d="M 87.5,67.5 C 85.2426,65.0767 82.5759,63.2433 79.5,62C 72.7169,61.2013 66.0502,61.7013 59.5,63.5C 67.2122,59.3871 75.2122,58.8871 83.5,62C 85.4641,63.451 86.7974,65.2843 87.5,67.5 Z"/></g>
<g><path style="opacity:0.071" fill="#4d1131" d="M 59.5,59.5 C 58.5248,61.5128 56.8581,62.8461 54.5,63.5C 53.8933,63.3764 53.56,63.0431 53.5,62.5C 55.1815,60.9925 57.1815,59.9925 59.5,59.5 Z"/></g>
<g><path style="opacity:1" fill="#5b3a4b" d="M 152.5,56.5 C 152.833,56.5 153.167,56.5 153.5,56.5C 152.873,61.1189 150.206,63.1189 145.5,62.5C 148.432,61.2003 150.766,59.2003 152.5,56.5 Z"/></g>
<g><path style="opacity:1" fill="#907d8a" d="M 149.5,40.5 C 151.5,41.5 153.5,42.5 155.5,43.5C 155.5,44.1667 155.833,44.5 156.5,44.5C 156.694,46.9118 158.027,47.9118 160.5,47.5C 160.5,47.8333 160.5,48.1667 160.5,48.5C 160.167,48.5 159.833,48.5 159.5,48.5C 158.883,48.6107 158.383,48.944 158,49.5C 157.503,51.8098 157.337,54.1432 157.5,56.5C 155.964,61.0415 152.964,64.3748 148.5,66.5C 147.694,65.2719 146.694,64.2719 145.5,63.5C 145.5,63.1667 145.5,62.8333 145.5,62.5C 150.206,63.1189 152.873,61.1189 153.5,56.5C 153.5,55.5 153.5,54.5 153.5,53.5C 153.5,52.8333 153.5,52.1667 153.5,51.5C 153.969,48.6067 152.969,46.6067 150.5,45.5C 149.833,44.5 149.167,43.5 148.5,42.5C 147.319,40.9328 145.653,40.0995 143.5,40C 145.598,39.3224 147.598,39.4891 149.5,40.5 Z"/></g>
<g><path style="opacity:0.004" fill="#441f30" d="M 160.5,62.5 C 162.496,61.3122 163.329,61.9789 163,64.5C 162.292,63.6195 161.458,62.9528 160.5,62.5 Z"/></g>
<g><path style="opacity:1" fill="#b06c66" d="M 71.5,53.5 C 76.6814,52.3636 82.0147,52.3636 87.5,53.5C 91.2829,56.4143 94.6163,59.7476 97.5,63.5C 97.5,64.5 97.5,65.5 97.5,66.5C 98.0613,69.8534 99.3947,72.8534 101.5,75.5C 104.127,76.0578 106.46,77.0578 108.5,78.5C 105.438,78.1558 102.438,77.4891 99.5,76.5C 97.6349,73.5312 95.9682,70.5312 94.5,67.5C 91.9661,64.1329 89.6328,60.6329 87.5,57C 82.3082,55.2022 76.9749,54.0355 71.5,53.5 Z"/></g>
<g><path style="opacity:1" fill="#8c7f8b" d="M 134.5,40.5 C 136.698,40.4088 137.031,41.0755 135.5,42.5C 133.547,43.6258 132.047,45.2925 131,47.5C 130.073,50.8632 130.573,53.8632 132.5,56.5C 132.5,56.8333 132.5,57.1667 132.5,57.5C 132.286,59.1439 132.62,60.6439 133.5,62C 137.418,63.1564 141.418,63.6564 145.5,63.5C 146.694,64.2719 147.694,65.2719 148.5,66.5C 143.585,69.1087 138.585,68.9421 133.5,66C 129.716,62.8915 126.716,59.2249 124.5,55C 125.167,54.6667 125.833,54.3333 126.5,54C 125.464,52.2245 125.464,50.3911 126.5,48.5C 126.833,48.5 127.167,48.5 127.5,48.5C 129.061,45.2651 131.394,42.5984 134.5,40.5 Z"/></g>
<g><path style="opacity:0.029" fill="#571f3a" d="M 132.5,57.5 C 135.747,61.6981 140.081,63.3647 145.5,62.5C 145.5,62.8333 145.5,63.1667 145.5,63.5C 141.418,63.6564 137.418,63.1564 133.5,62C 132.62,60.6439 132.286,59.1439 132.5,57.5 Z"/></g>
<g><path style="opacity:1" fill="#500909" d="M 103.5,72.5 C 101.5,70.5 99.5,68.5 97.5,66.5C 97.5,65.5 97.5,64.5 97.5,63.5C 97.4142,62.5041 97.7476,61.6708 98.5,61C 102.751,59.8054 107.085,59.3054 111.5,59.5C 112.104,65.8869 109.438,70.2203 103.5,72.5 Z"/></g>
<g><path style="opacity:1" fill="#6f5a68" d="M 119.5,58.5 C 121.519,62.5967 123.519,66.2634 125.5,69.5C 124.5,69.5 123.5,69.5 122.5,69.5C 121.63,66.622 120.297,63.9553 118.5,61.5C 119.127,60.5832 119.461,59.5832 119.5,58.5 Z"/></g>
<g><path style="opacity:0.004" fill="#1c0108" d="M 157.5,60.5 C 158.239,60.369 158.906,60.5357 159.5,61C 156.834,67.1389 156.167,66.9722 157.5,60.5 Z"/></g>
<g><path style="opacity:0.016" fill="#20020b" d="M 59.5,63.5 C 58.5624,66.0454 57.2291,66.5454 55.5,65C 56.745,64.2086 58.0783,63.7086 59.5,63.5 Z"/></g>
<g><path style="opacity:0.012" fill="#2c0112" d="M 53.5,65.5 C 54.8333,66.1667 54.8333,66.1667 53.5,65.5 Z"/></g>
<g><path style="opacity:1" fill="#561e1c" d="M 114.5,56.5 C 114.847,60.8737 116.18,64.8737 118.5,68.5C 116.598,66.8489 114.598,66.5155 112.5,67.5C 112.833,64.8333 113.167,62.1667 113.5,59.5C 113.263,58.209 113.596,57.209 114.5,56.5 Z"/></g>
<g><path style="opacity:0.004" fill="#2b0112" d="M 18.5,66.5 C 19.8333,67.1667 19.8333,67.1667 18.5,66.5 Z"/></g>
<g><path style="opacity:0.008" fill="#24020f" d="M 87.5,67.5 C 88.3764,67.3691 89.0431,67.7025 89.5,68.5C 91.4532,72.9091 93.7866,77.0758 96.5,81C 95.0039,81.5074 93.8373,81.0074 93,79.5C 91.4263,75.3544 89.593,71.3544 87.5,67.5 Z"/></g>
<g><path style="opacity:1" fill="#69484a" d="M 114.5,55.5 C 116.123,60.743 118.789,65.4096 122.5,69.5C 124.827,72.0922 127.661,74.0922 131,75.5C 131.251,77.433 131.751,79.2663 132.5,81C 132,81.5 131.5,82 131,82.5C 128.393,81.8767 125.893,81.21 123.5,80.5C 125.5,80.5 127.5,80.5 129.5,80.5C 129.657,79.1266 129.49,77.7932 129,76.5C 125.055,74.3845 121.555,71.7178 118.5,68.5C 116.18,64.8737 114.847,60.8737 114.5,56.5C 114.5,56.1667 114.5,55.8333 114.5,55.5 Z"/></g>
<g><path style="opacity:0.004" fill="#21020c" d="M 18.5,67.5 C 18.631,68.2389 18.4643,68.9056 18,69.5C 17.3083,68.5632 17.475,67.8966 18.5,67.5 Z"/></g>
<g><path style="opacity:0.024" fill="#530c32" d="M 52.5,63.5 C 49.8987,66.7774 46.5654,68.7774 42.5,69.5C 42.8417,68.6618 43.5084,68.3284 44.5,68.5C 45.1667,68.5 45.5,68.1667 45.5,67.5C 47.3403,65.3311 49.6737,63.9977 52.5,63.5 Z"/></g>
<g><path style="opacity:0.012" fill="#280110" d="M 152.5,69.5 C 151.833,68.1667 151.833,68.1667 152.5,69.5 Z"/></g>
<g><path style="opacity:1" fill="#2b1718" d="M 31.5,55.5 C 30.0326,60.0666 29.5326,64.7333 30,69.5C 33.8224,67.6688 37.6557,66.0022 41.5,64.5C 41.1667,65.1667 40.8333,65.8333 40.5,66.5C 36.7978,68.0236 33.4645,70.1903 30.5,73C 29.2068,73.49 27.8734,73.6567 26.5,73.5C 27.4187,67.2102 29.0854,61.2102 31.5,55.5 Z"/></g>
<g><path style="opacity:0.012" fill="#23020e" d="M 83.5,77.5 C 82.8333,77.8333 82.1667,78.1667 81.5,78.5C 80.9423,77.2101 79.9423,76.3768 78.5,76C 69.6554,74.3995 60.9887,72.2328 52.5,69.5C 53,69.1667 53.5,68.8333 54,68.5C 62.3236,71.2988 70.8236,73.4655 79.5,75C 81.0664,75.6082 82.3998,76.4415 83.5,77.5 Z"/></g>
<g><path style="opacity:0.004" fill="#570733" d="M 129.5,69.5 C 130.833,70.1667 130.833,70.1667 129.5,69.5 Z"/></g>
<g><path style="opacity:0.004" fill="#26020f" d="M 152.5,69.5 C 153.833,70.1667 153.833,70.1667 152.5,69.5 Z"/></g>
<g><path style="opacity:0.035" fill="#290112" d="M 136.5,71.5 C 137.598,72.6009 137.765,73.9343 137,75.5C 135.666,74.1221 135.499,72.7887 136.5,71.5 Z"/></g>
<g><path style="opacity:1" fill="#2a0b0a" d="M 118.5,68.5 C 119.412,70.5952 120.579,72.5952 122,74.5C 124.589,75.208 126.755,76.5413 128.5,78.5C 123.307,80.2417 118.641,79.4084 114.5,76C 111.081,75.7515 107.747,75.2515 104.5,74.5C 107.141,72.1956 109.808,69.8623 112.5,67.5C 114.598,66.5155 116.598,66.8489 118.5,68.5 Z"/></g>
<g><path style="opacity:0.278" fill="#56454e" d="M 125.5,69.5 C 126.833,69.8333 128.167,70.1667 129.5,70.5C 131.478,70.7377 133.145,72.0711 134.5,74.5C 130.728,74.1162 127.728,72.4495 125.5,69.5 Z"/></g>
<g><path style="opacity:0.012" fill="#280814" d="M 159.5,73.5 C 159.754,71.5992 159.42,70.9326 158.5,71.5C 158.167,71.5 157.833,71.5 157.5,71.5C 157.272,69.6453 157.939,68.8119 159.5,69C 162.877,72.1328 164.044,75.9661 163,80.5C 162.257,77.8079 161.09,75.4746 159.5,73.5 Z"/></g>
<g><path style="opacity:1" fill="#5b3e44" d="M 71.5,80.5 C 71.5,80.8333 71.5,81.1667 71.5,81.5C 64.2129,80.3639 56.8795,79.6973 49.5,79.5C 49.281,80.675 49.6143,81.675 50.5,82.5C 54.1405,84.4754 57.1405,87.142 59.5,90.5C 58.8826,90.6107 58.3826,90.944 58,91.5C 56.5,90 55,88.5 53.5,87C 52.2506,86.2599 51.2506,86.4265 50.5,87.5C 49.8333,87.5 49.5,87.8333 49.5,88.5C 46.8049,88.4373 45.8049,87.4373 46.5,85.5C 47.8734,85.6567 49.2068,85.49 50.5,85C 48.9984,84.4169 47.6651,83.5836 46.5,82.5C 47.3898,81.2888 47.3898,79.9555 46.5,78.5C 46.9515,76.6878 48.1182,75.6878 50,75.5C 57.3416,76.9625 64.5082,78.6291 71.5,80.5 Z"/></g>
<g><path style="opacity:0.004" fill="#1a0205" d="M 83.5,77.5 C 84.8333,78.1667 84.8333,78.1667 83.5,77.5 Z"/></g>
<g><path style="opacity:0.235" fill="#695362" d="M 157.5,71.5 C 157.833,71.5 158.167,71.5 158.5,71.5C 153.905,78.1093 147.905,82.776 140.5,85.5C 140.167,85.5 139.833,85.5 139.5,85.5C 141.385,85.1184 142.885,83.785 144,81.5C 144.333,81.8333 144.667,82.1667 145,82.5C 149.286,79.0521 153.453,75.3855 157.5,71.5 Z"/></g>
<g><path style="opacity:0.345" fill="#4f1132" d="M 38.5,71.5 C 39.1667,71.5 39.8333,71.5 40.5,71.5C 35.7167,76.9451 30.0501,81.2785 23.5,84.5C 28.1793,79.8223 33.1793,75.489 38.5,71.5 Z"/></g>
<g><path style="opacity:0.537" fill="#785b6e" d="M 81.5,78.5 C 81.8333,79.1667 82.1667,79.8333 82.5,80.5C 81.1667,80.5 79.8333,80.5 78.5,80.5C 76.1667,80.5 73.8333,80.5 71.5,80.5C 64.5082,78.6291 57.3416,76.9625 50,75.5C 48.1182,75.6878 46.9515,76.6878 46.5,78.5C 47.3898,79.9555 47.3898,81.2888 46.5,82.5C 47.6651,83.5836 48.9984,84.4169 50.5,85C 49.2068,85.49 47.8734,85.6567 46.5,85.5C 41.0866,81.0729 41.42,76.9062 47.5,73C 56.1056,73.1339 64.6056,74.3006 73,76.5C 74.3261,76.7549 75.3261,77.4216 76,78.5C 77.7067,77.8617 79.54,77.8617 81.5,78.5 Z"/></g>
<g><path style="opacity:0.016" fill="#2e0215" d="M 138.5,80.5 C 137.475,80.1034 137.308,79.4368 138,78.5C 138.464,79.0944 138.631,79.7611 138.5,80.5 Z"/></g>
<g><path style="opacity:0.553" fill="#583142" d="M 159.5,75.5 C 161.023,77.5857 160.69,79.2524 158.5,80.5C 158.216,78.5853 158.549,76.9187 159.5,75.5 Z"/></g>
<g><path style="opacity:1" fill="#766474" d="M 43.5,29.5 C 32.9638,43.4188 26.2971,59.0855 23.5,76.5C 24.552,76.3505 25.552,76.5172 26.5,77C 25.1667,78.3333 23.8333,79.6667 22.5,81C 27.6017,78.6099 32.2683,75.2765 36.5,71C 37.4368,70.3083 38.1034,70.475 38.5,71.5C 33.1793,75.489 28.1793,79.8223 23.5,84.5C 23.1667,85.5 22.5,86.1667 21.5,86.5C 20.2022,87.1157 19.2022,87.1157 18.5,86.5C 17.9707,76.5929 20.304,67.5929 25.5,59.5C 28.932,50.632 32.932,41.9654 37.5,33.5C 38.8897,32.1007 39.8897,30.4341 40.5,28.5C 41.4959,28.5858 42.3292,28.2524 43,27.5C 43.4643,28.0944 43.631,28.7611 43.5,29.5 Z"/></g>
<g><path style="opacity:1" fill="#512b2c" d="M 97.5,66.5 C 99.5,68.5 101.5,70.5 103.5,72.5C 103.328,73.4916 103.662,74.1583 104.5,74.5C 107.747,75.2515 111.081,75.7515 114.5,76C 118.641,79.4084 123.307,80.2417 128.5,78.5C 126.755,76.5413 124.589,75.208 122,74.5C 120.579,72.5952 119.412,70.5952 118.5,68.5C 121.555,71.7178 125.055,74.3845 129,76.5C 129.49,77.7932 129.657,79.1266 129.5,80.5C 127.5,80.5 125.5,80.5 123.5,80.5C 118.484,79.9418 113.484,79.2751 108.5,78.5C 106.46,77.0578 104.127,76.0578 101.5,75.5C 99.3947,72.8534 98.0613,69.8534 97.5,66.5 Z"/></g>
<g><path style="opacity:0.678" fill="#47313e" d="M 99.5,79.5 C 102.781,79.4203 105.781,80.087 108.5,81.5C 105.219,81.5797 102.219,80.913 99.5,79.5 Z"/></g>
<g><path style="opacity:0.008" fill="#2a0212" d="M 138.5,80.5 C 139.833,81.1667 139.833,81.1667 138.5,80.5 Z"/></g>
<g><path style="opacity:0.012" fill="#532f3f" d="M 181.5,79.5 C 181.5,80.1667 181.5,80.8333 181.5,81.5C 180.167,80.8333 180.167,80.1667 181.5,79.5 Z"/></g>
<g><path style="opacity:1" fill="#928592" d="M 94.5,67.5 C 95.9682,70.5312 97.6349,73.5312 99.5,76.5C 102.438,77.4891 105.438,78.1558 108.5,78.5C 113.484,79.2751 118.484,79.9418 123.5,80.5C 125.893,81.21 128.393,81.8767 131,82.5C 131.5,82 132,81.5 132.5,81C 131.751,79.2663 131.251,77.433 131,75.5C 127.661,74.0922 124.827,72.0922 122.5,69.5C 123.5,69.5 124.5,69.5 125.5,69.5C 127.728,72.4495 130.728,74.1162 134.5,74.5C 136.7,81.6387 134.033,84.972 126.5,84.5C 121.964,83.1892 117.297,82.5226 112.5,82.5C 110.901,82.7678 109.568,82.4345 108.5,81.5C 105.781,80.087 102.781,79.4203 99.5,79.5C 96.5,79.8333 95.1667,78.5 95.5,75.5C 95.2437,73.0628 94.5771,70.7294 93.5,68.5C 93.6236,67.8933 93.9569,67.56 94.5,67.5 Z"/></g>
<g><path style="opacity:0.055" fill="#5f2a41" d="M 158.5,80.5 C 159.873,83.3834 159.207,85.7167 156.5,87.5C 156.41,84.8478 157.076,82.5145 158.5,80.5 Z"/></g>
<g><path style="opacity:0.041" fill="#561e38" d="M 112.5,82.5 C 117.297,82.5226 121.964,83.1892 126.5,84.5C 121.687,85.4721 117.02,84.8054 112.5,82.5 Z"/></g>
<g><path style="opacity:1" fill="#2a0f10" d="M 71.5,81.5 C 72.1667,82.1667 72.8333,82.8333 73.5,83.5C 70.2027,83.3287 69.8694,83.9954 72.5,85.5C 70.4948,88.0299 69.1614,90.8632 68.5,94C 67.2341,94.3095 66.0674,94.8095 65,95.5C 63.6208,93.2853 61.7875,91.6187 59.5,90.5C 57.1405,87.142 54.1405,84.4754 50.5,82.5C 49.6143,81.675 49.281,80.675 49.5,79.5C 56.8795,79.6973 64.2129,80.3639 71.5,81.5 Z"/></g>
<g><path style="opacity:1" fill="#170404" d="M 52.5,80.5 C 57.261,80.7935 61.9276,81.6269 66.5,83C 68.1692,86.6985 67.0026,89.1985 63,90.5C 58.9199,87.5822 55.4199,84.2489 52.5,80.5 Z"/></g>
<g><path style="opacity:1" fill="#ada3ac" d="M 159.5,73.5 C 159.5,74.1667 159.5,74.8333 159.5,75.5C 158.549,76.9187 158.216,78.5853 158.5,80.5C 157.076,82.5145 156.41,84.8478 156.5,87.5C 156.5,87.8333 156.5,88.1667 156.5,88.5C 155.732,89.2625 155.232,90.2625 155,91.5C 154.59,90.0993 154.09,88.766 153.5,87.5C 154.027,84.0914 154.527,80.7581 155,77.5C 149.834,82.846 144.001,87.1794 137.5,90.5C 138.167,89.1667 138.833,87.8333 139.5,86.5C 140.167,86.5 140.5,86.1667 140.5,85.5C 147.905,82.776 153.905,78.1093 158.5,71.5C 159.42,70.9326 159.754,71.5992 159.5,73.5 Z"/></g>
<g><path style="opacity:0.004" fill="#1a0208" d="M 16.5,87.5 C 15.475,87.1034 15.3083,86.4368 16,85.5C 16.4643,86.0944 16.631,86.7611 16.5,87.5 Z"/></g>
<g><path style="opacity:1" fill="#5d4347" d="M 153.5,87.5 C 153.167,87.5 152.833,87.5 152.5,87.5C 152.5,86.1667 152.5,84.8333 152.5,83.5C 149.357,83.969 147.023,85.6356 145.5,88.5C 141.167,91.1667 136.833,93.8333 132.5,96.5C 131.833,96.5 131.167,96.5 130.5,96.5C 133.02,94.7368 135.353,92.7368 137.5,90.5C 144.001,87.1794 149.834,82.846 155,77.5C 154.527,80.7581 154.027,84.0914 153.5,87.5 Z"/></g>
<g><path style="opacity:1" fill="#bd827c" d="M 71.5,80.5 C 73.8333,80.5 76.1667,80.5 78.5,80.5C 80.3605,82.8877 81.6939,85.5544 82.5,88.5C 82.631,89.2389 82.4643,89.9056 82,90.5C 80.9563,89.3774 80.2896,88.0441 80,86.5C 79.6012,86.7284 79.4346,87.0618 79.5,87.5C 78.8333,86.1667 78.1667,84.8333 77.5,83.5C 76.1667,83.5 74.8333,83.5 73.5,83.5C 72.8333,82.8333 72.1667,82.1667 71.5,81.5C 71.5,81.1667 71.5,80.8333 71.5,80.5 Z"/></g>
<g><path style="opacity:0.022" fill="#2e0316" d="M 32.5,88.5 C 34.9664,87.3659 37.633,87.1993 40.5,88C 37.854,88.4974 35.1873,88.6641 32.5,88.5 Z"/></g>
<g><path style="opacity:0.02" fill="#230d17" d="M 18.5,86.5 C 19.2022,87.1157 20.2022,87.1157 21.5,86.5C 20.1233,89.7258 18.4566,90.0591 16.5,87.5C 17.1667,87.1667 17.8333,86.8333 18.5,86.5 Z"/></g>
<g><path style="opacity:0.012" fill="#300518" d="M 30.5,88.5 C 31.8333,89.1667 31.8333,89.1667 30.5,88.5 Z"/></g>
<g><path style="opacity:0.008" fill="#620438" d="M 49.5,88.5 C 49.8333,88.5 50.1667,88.5 50.5,88.5C 50.3147,89.1701 49.9813,89.1701 49.5,88.5 Z"/></g>
<g><path style="opacity:1" fill="#75596d" d="M 59.5,90.5 C 60.1667,92.5 60.8333,94.5 61.5,96.5C 60.0937,96.9731 59.427,97.9731 59.5,99.5C 57.7673,98.9924 57.434,98.159 58.5,97C 56.6992,96.6827 56.3659,96.016 57.5,95C 55.9808,93.7817 54.8141,92.2817 54,90.5C 53.6667,91.5 53.3333,92.5 53,93.5C 52.2432,91.6854 51.4098,90.0188 50.5,88.5C 50.5,88.1667 50.5,87.8333 50.5,87.5C 51.2506,86.4265 52.2506,86.2599 53.5,87C 55,88.5 56.5,90 58,91.5C 58.3826,90.944 58.8826,90.6107 59.5,90.5 Z"/></g>
<g><path style="opacity:1" fill="#9e8492" d="M 78.5,80.5 C 79.8333,80.5 81.1667,80.5 82.5,80.5C 83.8307,83.8289 85.164,87.1623 86.5,90.5C 86.7376,92.4044 87.7376,93.7377 89.5,94.5C 90.3382,94.8417 90.6716,95.5084 90.5,96.5C 89.7611,96.631 89.0944,96.4643 88.5,96C 86.3606,93.5216 84.3606,91.0216 82.5,88.5C 81.6939,85.5544 80.3605,82.8877 78.5,80.5 Z"/></g>
<g><path style="opacity:1" fill="#481a1a" d="M 73.5,83.5 C 74.8333,83.5 76.1667,83.5 77.5,83.5C 77.6747,85.6208 77.3414,87.6208 76.5,89.5C 72.4782,92.3887 70.3116,96.3887 70,101.5C 67.0889,103.322 64.9222,105.655 63.5,108.5C 63.9166,104.183 63.2499,100.183 61.5,96.5C 60.8333,94.5 60.1667,92.5 59.5,90.5C 61.7875,91.6187 63.6208,93.2853 65,95.5C 66.0674,94.8095 67.2341,94.3095 68.5,94C 69.1614,90.8632 70.4948,88.0299 72.5,85.5C 69.8694,83.9954 70.2027,83.3287 73.5,83.5 Z"/></g>
<g><path style="opacity:0.294" fill="#6d1643" d="M 86.5,90.5 C 88.2624,91.2623 89.2624,92.5956 89.5,94.5C 87.7376,93.7377 86.7376,92.4044 86.5,90.5 Z"/></g>
<g><path style="opacity:1" fill="#6a5666" d="M 42.5,120.5 C 43.7908,118.41 43.1242,117.076 40.5,116.5C 47.7526,111.595 49.2526,105.262 45,97.5C 39.1386,93.5314 33.3052,93.5314 27.5,97.5C 27.1034,96.475 26.4368,96.3083 25.5,97C 24.2668,98.6667 22.9335,100.167 21.5,101.5C 27.8403,88.5565 36.8403,86.3898 48.5,95C 53.1609,101.134 53.6609,107.634 50,114.5C 47.8943,117.118 45.3943,119.118 42.5,120.5 Z"/></g>
<g><path style="opacity:1" fill="#180505" d="M 145.5,88.5 C 146.833,88.5 148.167,88.5 149.5,88.5C 148.702,95.228 146.702,101.561 143.5,107.5C 142.2,106.173 140.867,104.84 139.5,103.5C 140.5,102.667 141.5,101.833 142.5,101C 139.949,100.578 138.615,99.0777 138.5,96.5C 140.452,93.5445 142.786,90.8778 145.5,88.5 Z"/></g>
<g><path style="opacity:1" fill="#8e5144" d="M 77.5,83.5 C 78.1667,84.8333 78.8333,86.1667 79.5,87.5C 79.5,88.5 79.5,89.5 79.5,90.5C 79.1774,94.226 79.5108,97.8927 80.5,101.5C 82.5075,103.008 84.1741,104.842 85.5,107C 87.1545,107.608 88.8211,108.108 90.5,108.5C 90.5,108.833 90.5,109.167 90.5,109.5C 87.1667,109.5 83.8333,109.5 80.5,109.5C 76.0551,103.72 75.0551,97.3862 77.5,90.5C 77.3764,89.8933 77.0431,89.56 76.5,89.5C 77.3414,87.6208 77.6747,85.6208 77.5,83.5 Z"/></g>
<g><path style="opacity:0.004" fill="#1c020a" d="M 157.5,101.5 C 157.369,100.761 157.536,100.094 158,99.5C 158.692,100.437 158.525,101.103 157.5,101.5 Z"/></g>
<g><path style="opacity:1" fill="#9d6762" d="M 130.5,96.5 C 131.167,96.5 131.833,96.5 132.5,96.5C 131.5,97.8333 130.5,99.1667 129.5,100.5C 128.833,100.5 128.167,100.5 127.5,100.5C 125.167,101.167 122.833,101.833 120.5,102.5C 120.369,101.624 120.702,100.957 121.5,100.5C 124.445,98.8569 127.445,97.5236 130.5,96.5 Z"/></g>
<g><path style="opacity:1" fill="#3c2022" d="M 152.5,87.5 C 150.639,96.0839 147.972,104.417 144.5,112.5C 142.336,114.822 140.669,117.489 139.5,120.5C 138.711,120.217 138.044,119.717 137.5,119C 139.037,117.89 139.703,116.39 139.5,114.5C 139.814,111.511 141.148,109.178 143.5,107.5C 146.702,101.561 148.702,95.228 149.5,88.5C 148.167,88.5 146.833,88.5 145.5,88.5C 147.023,85.6356 149.357,83.969 152.5,83.5C 152.5,84.8333 152.5,86.1667 152.5,87.5 Z"/></g>
<g><path style="opacity:0.012" fill="#250411" d="M 20.5,117.5 C 16.4568,111.692 15.6235,105.359 18,98.5C 18.7175,97.5494 19.5509,97.3828 20.5,98C 19.1122,100.46 18.4455,103.127 18.5,106C 18.9308,109.886 19.5974,113.72 20.5,117.5 Z"/></g>
<g><path style="opacity:1" fill="#af7463" d="M 79.5,90.5 C 81.7128,92.958 82.8795,95.958 83,99.5C 84.129,101.141 85.629,102.141 87.5,102.5C 88.8273,104.182 90.4939,105.515 92.5,106.5C 92.1667,107.5 91.5,108.167 90.5,108.5C 88.8211,108.108 87.1545,107.608 85.5,107C 84.1741,104.842 82.5075,103.008 80.5,101.5C 79.5108,97.8927 79.1774,94.226 79.5,90.5 Z"/></g>
<g><path style="opacity:1" fill="#d4b2ac" d="M 82.5,88.5 C 84.3606,91.0216 86.3606,93.5216 88.5,96C 89.0944,96.4643 89.7611,96.631 90.5,96.5C 91.5,97.1667 92.5,97.8333 93.5,98.5C 93.369,99.2389 93.5357,99.9056 94,100.5C 95.6516,101.399 97.1516,102.399 98.5,103.5C 97.5084,103.328 96.8417,103.662 96.5,104.5C 93.4606,103.99 90.4606,103.323 87.5,102.5C 85.629,102.141 84.129,101.141 83,99.5C 82.8795,95.958 81.7128,92.958 79.5,90.5C 79.5,89.5 79.5,88.5 79.5,87.5C 79.4346,87.0618 79.6012,86.7284 80,86.5C 80.2896,88.0441 80.9563,89.3774 82,90.5C 82.4643,89.9056 82.631,89.2389 82.5,88.5 Z"/></g>
<g><path style="opacity:0.2" fill="#987888" d="M 139.5,85.5 C 139.5,85.8333 139.5,86.1667 139.5,86.5C 138.833,87.8333 138.167,89.1667 137.5,90.5C 135.353,92.7368 133.02,94.7368 130.5,96.5C 127.445,97.5236 124.445,98.8569 121.5,100.5C 120.702,100.957 120.369,101.624 120.5,102.5C 120.5,103.167 120.167,103.5 119.5,103.5C 112.581,103.222 105.581,103.222 98.5,103.5C 97.1516,102.399 95.6516,101.399 94,100.5C 93.5357,99.9056 93.369,99.2389 93.5,98.5C 99.5252,101.255 105.859,102.088 112.5,101C 122.442,97.3657 131.442,92.1991 139.5,85.5 Z"/></g>
<g><path style="opacity:1" fill="#2c0d0f" d="M 145.5,88.5 C 142.786,90.8778 140.452,93.5445 138.5,96.5C 138.615,99.0777 139.949,100.578 142.5,101C 141.5,101.833 140.5,102.667 139.5,103.5C 140.867,104.84 142.2,106.173 143.5,107.5C 141.148,109.178 139.814,111.511 139.5,114.5C 138.711,114.217 138.044,113.717 137.5,113C 138.973,112.29 139.64,111.124 139.5,109.5C 138.167,109.5 136.833,109.5 135.5,109.5C 135.012,106.289 135.679,103.456 137.5,101C 136.421,100.044 135.255,99.2106 134,98.5C 132.67,99.5822 131.17,100.249 129.5,100.5C 130.5,99.1667 131.5,97.8333 132.5,96.5C 136.833,93.8333 141.167,91.1667 145.5,88.5 Z"/></g>
<g><path style="opacity:1" fill="#826f81" d="M 61.5,96.5 C 63.2499,100.183 63.9166,104.183 63.5,108.5C 61.4467,114.434 58.4467,119.934 54.5,125C 55.5171,126.049 55.6838,127.216 55,128.5C 53.5952,127.269 52.4286,125.936 51.5,124.5C 51.0618,124.565 50.7284,124.399 50.5,124C 53.372,121.463 55.872,118.63 58,115.5C 58.2151,110.085 58.7151,104.752 59.5,99.5C 59.427,97.9731 60.0937,96.9731 61.5,96.5 Z"/></g>
<g><path style="opacity:0.004" fill="#5e253f" d="M 154.5,96.5 C 154.324,99.7273 153.657,102.727 152.5,105.5C 152.5,104.833 152.167,104.5 151.5,104.5C 152.129,101.603 153.129,98.936 154.5,96.5 Z"/></g>
<g><path style="opacity:0.016" fill="#240410" d="M 157.5,101.5 C 156.158,107.183 153.991,112.516 151,117.5C 151.695,113.073 153.029,108.74 155,104.5C 155.377,103.058 156.21,102.058 157.5,101.5 Z"/></g>
<g><path style="opacity:1" fill="#732822" d="M 76.5,89.5 C 77.0431,89.56 77.3764,89.8933 77.5,90.5C 75.0551,97.3862 76.0551,103.72 80.5,109.5C 79.7611,109.369 79.0944,109.536 78.5,110C 77.9152,111.302 77.2485,112.469 76.5,113.5C 73.6926,112.343 71.0259,112.343 68.5,113.5C 67.5,113.5 66.5,113.5 65.5,113.5C 64.0582,112.18 63.3915,110.514 63.5,108.5C 64.9222,105.655 67.0889,103.322 70,101.5C 70.3116,96.3887 72.4782,92.3887 76.5,89.5 Z"/></g>
<g><path style="opacity:1" fill="#aa645c" d="M 119.5,103.5 C 117.786,104.738 115.786,105.405 113.5,105.5C 107.994,105.695 102.327,105.362 96.5,104.5C 96.8417,103.662 97.5084,103.328 98.5,103.5C 105.581,103.222 112.581,103.222 119.5,103.5 Z"/></g>
<g><path style="opacity:1" fill="#857577" d="M 152.5,87.5 C 152.833,87.5 153.167,87.5 153.5,87.5C 154.09,88.766 154.59,90.0993 155,91.5C 155.232,90.2625 155.732,89.2625 156.5,88.5C 156.649,90.351 156.649,92.1843 156.5,94C 155.956,94.7172 155.289,95.2172 154.5,95.5C 154.649,94.448 154.483,93.448 154,92.5C 151.057,100.039 147.891,107.373 144.5,114.5C 144.5,113.833 144.5,113.167 144.5,112.5C 147.972,104.417 150.639,96.0839 152.5,87.5 Z"/></g>
<g><path style="opacity:1" fill="#db9686" d="M 87.5,102.5 C 90.4606,103.323 93.4606,103.99 96.5,104.5C 102.327,105.362 107.994,105.695 113.5,105.5C 113.5,105.833 113.5,106.167 113.5,106.5C 106.5,106.5 99.5,106.5 92.5,106.5C 90.4939,105.515 88.8273,104.182 87.5,102.5 Z"/></g>
<g><path style="opacity:1" fill="#bbb3b1" d="M 154.5,95.5 C 154.5,95.8333 154.5,96.1667 154.5,96.5C 153.129,98.936 152.129,101.603 151.5,104.5C 150.662,104.842 150.328,105.508 150.5,106.5C 149.662,106.842 149.328,107.508 149.5,108.5C 149.5,108.833 149.5,109.167 149.5,109.5C 148.326,110.514 147.66,111.847 147.5,113.5C 147.107,115.284 146.441,116.95 145.5,118.5C 144.026,119.436 143.026,120.77 142.5,122.5C 141.599,123.29 140.932,124.29 140.5,125.5C 139.331,128.511 137.664,131.178 135.5,133.5C 134.833,133.5 134.167,133.5 133.5,133.5C 137.538,127.443 141.205,121.109 144.5,114.5C 147.891,107.373 151.057,100.039 154,92.5C 154.483,93.448 154.649,94.448 154.5,95.5 Z"/></g>
<g><path style="opacity:1" fill="#6a1213" d="M 127.5,100.5 C 127.389,101.117 127.056,101.617 126.5,102C 128.045,106.184 130.045,110.018 132.5,113.5C 131.18,112.058 129.514,111.392 127.5,111.5C 127.059,116.646 125.726,121.479 123.5,126C 124.167,126.667 124.833,127.333 125.5,128C 122.119,128.915 119.119,130.415 116.5,132.5C 113.304,134.516 109.971,136.349 106.5,138C 105.874,138.75 105.374,139.584 105,140.5C 104.601,140.272 104.435,139.938 104.5,139.5C 104.586,138.504 104.252,137.671 103.5,137C 105.376,135.625 107.376,134.458 109.5,133.5C 110.246,132.264 110.579,130.93 110.5,129.5C 113.08,128.265 115.413,126.599 117.5,124.5C 118.552,124.649 119.552,124.483 120.5,124C 119.484,123.481 118.818,122.647 118.5,121.5C 119.036,119.058 119.869,116.725 121,114.5C 123.176,114.012 125.009,113.012 126.5,111.5C 126.333,111.167 126.167,110.833 126,110.5C 123.002,113.242 120.669,112.909 119,109.5C 118.667,109.833 118.333,110.167 118,110.5C 116.729,109.117 115.229,108.117 113.5,107.5C 113.5,107.167 113.5,106.833 113.5,106.5C 113.5,106.167 113.5,105.833 113.5,105.5C 115.786,105.405 117.786,104.738 119.5,103.5C 120.167,103.5 120.5,103.167 120.5,102.5C 122.833,101.833 125.167,101.167 127.5,100.5 Z"/></g>
<g><path style="opacity:1" fill="#cb6853" d="M 92.5,106.5 C 99.5,106.5 106.5,106.5 113.5,106.5C 113.5,106.833 113.5,107.167 113.5,107.5C 109.629,107.185 105.962,107.518 102.5,108.5C 99.6146,108.194 96.9479,108.527 94.5,109.5C 93.1667,109.5 91.8333,109.5 90.5,109.5C 90.5,109.167 90.5,108.833 90.5,108.5C 91.5,108.167 92.1667,107.5 92.5,106.5 Z"/></g>
<g><path style="opacity:0.008" fill="#5c203c" d="M 151.5,104.5 C 152.167,104.5 152.5,104.833 152.5,105.5C 152.333,109.179 150.666,111.846 147.5,113.5C 147.66,111.847 148.326,110.514 149.5,109.5C 150.833,109.167 150.833,108.833 149.5,108.5C 149.328,107.508 149.662,106.842 150.5,106.5C 150.328,105.508 150.662,104.842 151.5,104.5 Z"/></g>
<g><path style="opacity:1" fill="#71596b" d="M 27.5,97.5 C 27.0383,99.7567 26.0383,101.757 24.5,103.5C 24.8493,105.952 25.516,108.619 26.5,111.5C 26.6509,115.314 28.6509,116.981 32.5,116.5C 35.1667,116.5 37.8333,116.5 40.5,116.5C 43.1242,117.076 43.7908,118.41 42.5,120.5C 32.1222,123.394 24.9556,119.727 21,109.5C 20.1993,106.633 20.3659,103.966 21.5,101.5C 22.9335,100.167 24.2668,98.6667 25.5,97C 26.4368,96.3083 27.1034,96.475 27.5,97.5 Z"/></g>
<g><path style="opacity:0.137" fill="#4e1834" d="M 26.5,111.5 C 28.4807,113.144 30.4807,114.81 32.5,116.5C 28.6509,116.981 26.6509,115.314 26.5,111.5 Z"/></g>
<g><path style="opacity:1" fill="#a63a2f" d="M 80.5,109.5 C 83.8333,109.5 87.1667,109.5 90.5,109.5C 91.8333,109.5 93.1667,109.5 94.5,109.5C 93.2758,114.783 89.9425,117.116 84.5,116.5C 81.7479,115.488 79.0812,114.488 76.5,113.5C 77.2485,112.469 77.9152,111.302 78.5,110C 79.0944,109.536 79.7611,109.369 80.5,109.5 Z"/></g>
<g><path style="opacity:1" fill="#dd2527" d="M 111.5,114.5 C 113.51,115.017 114.843,115.684 115.5,116.5C 112.813,116.336 110.146,116.503 107.5,117C 108.328,117.915 109.328,118.581 110.5,119C 108.076,119.597 106.243,118.763 105,116.5C 100.196,116.426 96.3624,118.26 93.5,122C 90.5,122.667 87.5,122.667 84.5,122C 84.0005,119.479 82.6672,117.646 80.5,116.5C 76.7533,115.621 73.0867,114.621 69.5,113.5C 69.1667,113.5 68.8333,113.5 68.5,113.5C 71.0259,112.343 73.6926,112.343 76.5,113.5C 79.0812,114.488 81.7479,115.488 84.5,116.5C 85.1666,121.316 87.8332,122.649 92.5,120.5C 94.6006,117.735 96.2673,114.735 97.5,111.5C 96.1962,109.984 96.6962,109.318 99,109.5C 101.5,110 104,110.5 106.5,111C 107.219,113.556 108.886,114.723 111.5,114.5 Z"/></g>
<g><path style="opacity:0.012" fill="#1a0208" d="M 20.5,117.5 C 21.1667,117.5 21.5,117.833 21.5,118.5C 21.1667,118.167 20.8333,117.833 20.5,117.5 Z"/></g>
<g><path style="opacity:1" fill="#bc2c2a" d="M 102.5,108.5 C 107.122,108.13 110.122,110.13 111.5,114.5C 108.886,114.723 107.219,113.556 106.5,111C 104,110.5 101.5,110 99,109.5C 96.6962,109.318 96.1962,109.984 97.5,111.5C 96.2673,114.735 94.6006,117.735 92.5,120.5C 87.8332,122.649 85.1666,121.316 84.5,116.5C 89.9425,117.116 93.2758,114.783 94.5,109.5C 96.9479,108.527 99.6146,108.194 102.5,108.5 Z"/></g>
<g><path style="opacity:1" fill="#3a0a0a" d="M 139.5,114.5 C 139.703,116.39 139.037,117.89 137.5,119C 138.044,119.717 138.711,120.217 139.5,120.5C 138.167,121.933 136.667,123.267 135,124.5C 134.51,125.793 134.343,127.127 134.5,128.5C 133.5,128.5 132.5,128.5 131.5,128.5C 131.033,130.711 130.033,132.711 128.5,134.5C 126.69,136.531 124.69,138.198 122.5,139.5C 122.158,138.662 121.492,138.328 120.5,138.5C 120.196,137.85 119.863,137.183 119.5,136.5C 122.023,132.158 125.023,128.991 128.5,127C 127.786,123.045 128.786,119.378 131.5,116C 131.167,115.667 130.833,115.333 130.5,115C 132.329,115.402 133.996,116.069 135.5,117C 134.837,115.482 133.837,114.315 132.5,113.5C 130.045,110.018 128.045,106.184 126.5,102C 127.056,101.617 127.389,101.117 127.5,100.5C 128.167,100.5 128.833,100.5 129.5,100.5C 131.17,100.249 132.67,99.5822 134,98.5C 135.255,99.2106 136.421,100.044 137.5,101C 135.679,103.456 135.012,106.289 135.5,109.5C 136.833,109.5 138.167,109.5 139.5,109.5C 139.64,111.124 138.973,112.29 137.5,113C 138.044,113.717 138.711,114.217 139.5,114.5 Z"/></g>
<g><path style="opacity:0.004" fill="#190307" d="M 21.5,118.5 C 22.1667,118.5 22.5,118.833 22.5,119.5C 22.1667,119.167 21.8333,118.833 21.5,118.5 Z"/></g>
<g><path style="opacity:0.012" fill="#290615" d="M 22.5,119.5 C 23.3635,118.537 24.0302,118.537 24.5,119.5C 23.7435,120.773 23.0768,120.773 22.5,119.5 Z"/></g>
<g><path style="opacity:0.027" fill="#533240" d="M 145.5,118.5 C 145.446,120.632 144.446,121.965 142.5,122.5C 143.026,120.77 144.026,119.436 145.5,118.5 Z"/></g>
<g><path style="opacity:1" fill="#360805" d="M 65.5,116.5 C 66.1373,120.35 67.9706,123.684 71,126.5C 71.49,127.793 71.6567,129.127 71.5,130.5C 66.781,130.574 63.281,128.574 61,124.5C 60.3333,123.5 60.3333,122.5 61,121.5C 63.4463,120.555 64.9463,118.889 65.5,116.5 Z"/></g>
<g><path style="opacity:0.008" fill="#1f050d" d="M 29.5,124.5 C 28.7611,124.631 28.0944,124.464 27.5,124C 28.4368,123.308 29.1034,123.475 29.5,124.5 Z"/></g>
<g><path style="opacity:1" fill="#961d1f" d="M 102.5,108.5 C 105.962,107.518 109.629,107.185 113.5,107.5C 115.229,108.117 116.729,109.117 118,110.5C 118.333,110.167 118.667,109.833 119,109.5C 120.669,112.909 123.002,113.242 126,110.5C 126.167,110.833 126.333,111.167 126.5,111.5C 125.009,113.012 123.176,114.012 121,114.5C 119.869,116.725 119.036,119.058 118.5,121.5C 118.818,122.647 119.484,123.481 120.5,124C 119.552,124.483 118.552,124.649 117.5,124.5C 111.586,123.69 105.586,124.19 99.5,126C 97.9632,127.11 97.2965,128.61 97.5,130.5C 96.209,130.263 95.209,130.596 94.5,131.5C 93.7326,130.828 93.0659,129.995 92.5,129C 95.1667,127.333 97.8333,125.667 100.5,124C 105.578,123.245 110.578,122.579 115.5,122C 114.862,120.293 114.862,118.46 115.5,116.5C 114.843,115.684 113.51,115.017 111.5,114.5C 110.122,110.13 107.122,108.13 102.5,108.5 Z"/></g>
<g><path style="opacity:0.008" fill="#1b050b" d="M 29.5,124.5 C 30.791,124.263 31.791,124.596 32.5,125.5C 31.209,125.737 30.209,125.404 29.5,124.5 Z"/></g>
<g><path style="opacity:1" fill="#7b1517" d="M 69.5,113.5 C 73.0867,114.621 76.7533,115.621 80.5,116.5C 81.1712,117.847 81.1712,119.014 80.5,120C 83.3497,122.682 86.0164,125.516 88.5,128.5C 86.7086,129.17 85.0419,129.837 83.5,130.5C 82.8333,130.5 82.1667,130.5 81.5,130.5C 79.1952,129.213 76.8618,127.88 74.5,126.5C 75.376,125.749 76.376,125.249 77.5,125C 75.374,122.16 73.7073,118.994 72.5,115.5C 71.3984,114.824 70.3984,114.158 69.5,113.5 Z"/></g>
<g><path style="opacity:1" fill="#a71f23" d="M 80.5,116.5 C 82.6672,117.646 84.0005,119.479 84.5,122C 87.5,122.667 90.5,122.667 93.5,122C 96.3624,118.26 100.196,116.426 105,116.5C 106.243,118.763 108.076,119.597 110.5,119C 109.328,118.581 108.328,117.915 107.5,117C 110.146,116.503 112.813,116.336 115.5,116.5C 114.862,118.46 114.862,120.293 115.5,122C 110.578,122.579 105.578,123.245 100.5,124C 97.8333,125.667 95.1667,127.333 92.5,129C 93.0659,129.995 93.7326,130.828 94.5,131.5C 94.2252,133.842 93.3919,133.842 92,131.5C 90.3745,131.854 88.5412,131.854 86.5,131.5C 85.791,130.596 84.791,130.263 83.5,130.5C 85.0419,129.837 86.7086,129.17 88.5,128.5C 86.0164,125.516 83.3497,122.682 80.5,120C 81.1712,119.014 81.1712,117.847 80.5,116.5 Z"/></g>
<g><path style="opacity:0.004" fill="#5f3346" d="M 142.5,122.5 C 142.715,124.179 142.048,125.179 140.5,125.5C 140.932,124.29 141.599,123.29 142.5,122.5 Z"/></g>
<g><path style="opacity:0.005" fill="#1b030a" d="M 32.5,125.5 C 34.1992,125.34 35.8659,125.506 37.5,126C 35.6131,126.78 33.9464,126.613 32.5,125.5 Z"/></g>
<g><path style="opacity:1" fill="#48201f" d="M 65.5,114.5 C 65.5,115.167 65.5,115.833 65.5,116.5C 64.9463,118.889 63.4463,120.555 61,121.5C 60.3333,122.5 60.3333,123.5 61,124.5C 63.281,128.574 66.781,130.574 71.5,130.5C 72.5,131.167 73.5,131.833 74.5,132.5C 71.0977,132.658 67.7644,132.324 64.5,131.5C 57.4887,127.752 56.6554,122.752 62,116.5C 63.1127,115.695 64.2794,115.028 65.5,114.5 Z"/></g>
<g><path style="opacity:1" fill="#5c424e" d="M 63.5,108.5 C 63.3915,110.514 64.0582,112.18 65.5,113.5C 65.5,113.833 65.5,114.167 65.5,114.5C 64.2794,115.028 63.1127,115.695 62,116.5C 56.6554,122.752 57.4887,127.752 64.5,131.5C 65.9842,133.074 67.6508,134.407 69.5,135.5C 68.448,135.351 67.448,135.517 66.5,136C 69.5789,136.685 72.5789,137.519 75.5,138.5C 66.6403,137.831 58.807,134.164 52,127.5C 51.5172,126.552 51.3505,125.552 51.5,124.5C 52.4286,125.936 53.5952,127.269 55,128.5C 55.6838,127.216 55.5171,126.049 54.5,125C 58.4467,119.934 61.4467,114.434 63.5,108.5 Z"/></g>
<g><path style="opacity:1" fill="#7f1718" d="M 117.5,124.5 C 115.413,126.599 113.08,128.265 110.5,129.5C 110.579,130.93 110.246,132.264 109.5,133.5C 107.376,134.458 105.376,135.625 103.5,137C 104.252,137.671 104.586,138.504 104.5,139.5C 98.7224,136.404 92.7224,133.737 86.5,131.5C 88.5412,131.854 90.3745,131.854 92,131.5C 93.3919,133.842 94.2252,133.842 94.5,131.5C 95.209,130.596 96.209,130.263 97.5,130.5C 97.2965,128.61 97.9632,127.11 99.5,126C 105.586,124.19 111.586,123.69 117.5,124.5 Z"/></g>
<g><path style="opacity:0.016" fill="#240611" d="M 49.5,126.5 C 50.7027,127.943 51.2027,129.609 51,131.5C 48.676,130.225 48.176,128.558 49.5,126.5 Z"/></g>
<g><path style="opacity:1" fill="#570e0f" d="M 65.5,113.5 C 66.5,113.5 67.5,113.5 68.5,113.5C 68.8333,113.5 69.1667,113.5 69.5,113.5C 70.3984,114.158 71.3984,114.824 72.5,115.5C 73.7073,118.994 75.374,122.16 77.5,125C 76.376,125.249 75.376,125.749 74.5,126.5C 76.8618,127.88 79.1952,129.213 81.5,130.5C 79.7211,132.344 77.3878,133.01 74.5,132.5C 73.5,131.833 72.5,131.167 71.5,130.5C 71.6567,129.127 71.49,127.793 71,126.5C 67.9706,123.684 66.1373,120.35 65.5,116.5C 65.5,115.833 65.5,115.167 65.5,114.5C 65.5,114.167 65.5,113.833 65.5,113.5 Z"/></g>
<g><path style="opacity:1" fill="#4a090a" d="M 132.5,113.5 C 133.837,114.315 134.837,115.482 135.5,117C 133.996,116.069 132.329,115.402 130.5,115C 130.833,115.333 131.167,115.667 131.5,116C 128.786,119.378 127.786,123.045 128.5,127C 125.023,128.991 122.023,132.158 119.5,136.5C 119.863,137.183 120.196,137.85 120.5,138.5C 116.014,141.162 111.348,143.496 106.5,145.5C 104.611,144.396 102.945,143.063 101.5,141.5C 103.144,141.286 104.644,141.62 106,142.5C 109.645,139.355 113.145,136.022 116.5,132.5C 119.119,130.415 122.119,128.915 125.5,128C 124.833,127.333 124.167,126.667 123.5,126C 125.726,121.479 127.059,116.646 127.5,111.5C 129.514,111.392 131.18,112.058 132.5,113.5 Z"/></g>
<g><path style="opacity:1" fill="#613d3f" d="M 144.5,112.5 C 144.5,113.167 144.5,113.833 144.5,114.5C 141.205,121.109 137.538,127.443 133.5,133.5C 130.811,134.189 129.144,135.856 128.5,138.5C 126.5,141.167 124.167,143.5 121.5,145.5C 120.833,145.833 120.167,146.167 119.5,146.5C 120.801,144.328 121.801,141.995 122.5,139.5C 124.69,138.198 126.69,136.531 128.5,134.5C 130.033,132.711 131.033,130.711 131.5,128.5C 132.5,128.5 133.5,128.5 134.5,128.5C 134.343,127.127 134.51,125.793 135,124.5C 136.667,123.267 138.167,121.933 139.5,120.5C 140.669,117.489 142.336,114.822 144.5,112.5 Z"/></g>
<g><path style="opacity:1" fill="#747075" d="M 133.5,133.5 C 134.167,133.5 134.833,133.5 135.5,133.5C 134.974,135.23 133.974,136.564 132.5,137.5C 132.631,136.761 132.464,136.094 132,135.5C 130.961,136.71 129.794,137.71 128.5,138.5C 129.144,135.856 130.811,134.189 133.5,133.5 Z"/></g>
<g><path style="opacity:1" fill="#aa6c68" d="M 64.5,131.5 C 67.7644,132.324 71.0977,132.658 74.5,132.5C 82.7723,133.53 90.439,136.363 97.5,141C 98.7932,141.49 100.127,141.657 101.5,141.5C 102.945,143.063 104.611,144.396 106.5,145.5C 106.704,147.685 107.37,149.685 108.5,151.5C 103.006,147.522 97.339,143.689 91.5,140C 84.3945,137.719 77.0612,136.219 69.5,135.5C 67.6508,134.407 65.9842,133.074 64.5,131.5 Z"/></g>
<g><path style="opacity:1" fill="#401516" d="M 120.5,138.5 C 121.492,138.328 122.158,138.662 122.5,139.5C 121.801,141.995 120.801,144.328 119.5,146.5C 116.755,150.037 113.088,151.704 108.5,151.5C 107.37,149.685 106.704,147.685 106.5,145.5C 111.348,143.496 116.014,141.162 120.5,138.5 Z"/></g>
<g><path style="opacity:1" fill="#6b1d19" d="M 81.5,130.5 C 82.1667,130.5 82.8333,130.5 83.5,130.5C 84.791,130.263 85.791,130.596 86.5,131.5C 92.7224,133.737 98.7224,136.404 104.5,139.5C 104.435,139.938 104.601,140.272 105,140.5C 105.374,139.584 105.874,138.75 106.5,138C 109.971,136.349 113.304,134.516 116.5,132.5C 113.145,136.022 109.645,139.355 106,142.5C 104.644,141.62 103.144,141.286 101.5,141.5C 100.127,141.657 98.7932,141.49 97.5,141C 90.439,136.363 82.7723,133.53 74.5,132.5C 77.3878,133.01 79.7211,132.344 81.5,130.5 Z"/></g>
<g><path style="opacity:0.022" fill="#240812" d="M 73.5,141.5 C 74.0431,141.56 74.3764,141.893 74.5,142.5C 73.635,143.583 72.635,143.749 71.5,143C 72.4158,142.722 73.0825,142.222 73.5,141.5 Z"/></g>
<g><path style="opacity:0.663" fill="#522a40" d="M 88.5,141.5 C 91.089,141.461 93.089,142.461 94.5,144.5C 92.1815,144.008 90.1815,143.008 88.5,141.5 Z"/></g>
<g><path style="opacity:1" fill="#8c7580" d="M 69.5,135.5 C 77.0612,136.219 84.3945,137.719 91.5,140C 97.339,143.689 103.006,147.522 108.5,151.5C 113.088,151.704 116.755,150.037 119.5,146.5C 120.167,146.167 120.833,145.833 121.5,145.5C 121.631,146.239 121.464,146.906 121,147.5C 118.205,149.293 115.705,151.46 113.5,154C 113.728,154.399 114.062,154.565 114.5,154.5C 114.167,155.167 113.833,155.833 113.5,156.5C 109.603,160.198 107.27,159.532 106.5,154.5C 106.167,153.5 105.5,152.833 104.5,152.5C 104.167,151.167 103.833,151.167 103.5,152.5C 101.146,149.149 98.1463,146.482 94.5,144.5C 93.089,142.461 91.089,141.461 88.5,141.5C 84.2075,140.344 79.8741,139.344 75.5,138.5C 72.5789,137.519 69.5789,136.685 66.5,136C 67.448,135.517 68.448,135.351 69.5,135.5 Z"/></g>
<g><path style="opacity:1" fill="#9c999f" d="M 132.5,137.5 C 128.475,140.558 125.142,144.225 122.5,148.5C 121.128,149.512 119.795,150.512 118.5,151.5C 118.5,151.833 118.5,152.167 118.5,152.5C 117.833,152.5 117.5,152.833 117.5,153.5C 117.167,153.5 116.833,153.5 116.5,153.5C 115.833,153.833 115.167,154.167 114.5,154.5C 114.062,154.565 113.728,154.399 113.5,154C 115.705,151.46 118.205,149.293 121,147.5C 121.464,146.906 121.631,146.239 121.5,145.5C 124.167,143.5 126.5,141.167 128.5,138.5C 129.794,137.71 130.961,136.71 132,135.5C 132.464,136.094 132.631,136.761 132.5,137.5 Z"/></g>
<g><path style="opacity:0.024" fill="#5d2140" d="M 122.5,148.5 C 122.262,150.404 121.262,151.738 119.5,152.5C 119.5,151.833 119.167,151.5 118.5,151.5C 119.795,150.512 121.128,149.512 122.5,148.5 Z"/></g>
<g><path style="opacity:0.004" fill="#6e0841" d="M 118.5,152.5 C 118.833,152.5 119.167,152.5 119.5,152.5C 119.5,153.833 118.833,154.5 117.5,154.5C 117.5,154.167 117.5,153.833 117.5,153.5C 118.167,153.5 118.5,153.167 118.5,152.5 Z"/></g>
<g><path style="opacity:0.004" fill="#622043" d="M 103.5,152.5 C 103.833,152.5 104.167,152.5 104.5,152.5C 105.5,152.833 106.167,153.5 106.5,154.5C 104.877,155.491 103.877,154.824 103.5,152.5 Z"/></g>
<g><path style="opacity:0.02" fill="#611940" d="M 116.5,153.5 C 116.5,154.167 116.833,154.5 117.5,154.5C 116.685,155.837 115.518,156.837 114,157.5C 113.601,157.272 113.435,156.938 113.5,156.5C 113.833,155.833 114.167,155.167 114.5,154.5C 115.167,154.167 115.833,153.833 116.5,153.5 Z"/></g>
<g><path style="opacity:0.02" fill="#260c15" d="M 117.5,160.5 C 117.167,160.5 116.833,160.5 116.5,160.5C 116.761,157.367 118.428,156.2 121.5,157C 119.907,157.949 118.574,159.115 117.5,160.5 Z"/></g>
</svg>
