<?xml version="1.0" encoding="UTF-8"?>
<!DOCTYPE svg PUBLIC "-//W3C//DTD SVG 1.1//EN" "http://www.w3.org/Graphics/SVG/1.1/DTD/svg11.dtd">
<svg xmlns="http://www.w3.org/2000/svg" version="1.1" width="100%" height="100%" viewBox="0 0 109 105" style="shape-rendering:geometricPrecision; text-rendering:geometricPrecision; image-rendering:optimizeQuality; fill-rule:evenodd; clip-rule:evenodd" xmlns:xlink="http://www.w3.org/1999/xlink">
<g><path style="opacity:1" fill="#879598" d="M 71.5,-0.5 C 72.5,-0.5 73.5,-0.5 74.5,-0.5C 86.3781,5.87511 95.8781,14.8751 103,26.5C 103.813,28.4357 104.313,30.4357 104.5,32.5C 105.231,37.4232 105.231,42.4232 104.5,47.5C 104.4,38.5328 101.733,30.5328 96.5,23.5C 92.0511,15.0518 85.3844,9.0518 76.5,5.5C 75.3646,3.78679 73.698,3.12012 71.5,3.5C 71.824,10.3543 71.4907,17.021 70.5,23.5C 70.5,16.5 70.5,9.5 70.5,2.5C 75.4675,2.13412 75.1342,1.63412 69.5,1C 70.4158,0.721579 71.0825,0.221579 71.5,-0.5 Z"/></g>
<g><path style="opacity:1" fill="#808784" d="M 57.5,3.5 C 61.2336,4.97368 61.4002,6.64035 58,8.5C 54.927,7.25163 54.7603,5.58496 57.5,3.5 Z"/></g>
<g><path style="opacity:1" fill="#d5dddb" d="M 21.5,7.5 C 22.3764,7.36912 23.0431,7.70245 23.5,8.5C 21.9617,10.2433 20.9617,12.2433 20.5,14.5C 17.9009,14.5494 15.7342,15.5494 14,17.5C 13.805,16.1807 13.9717,14.8474 14.5,13.5C 16.2393,10.7573 18.5726,8.75731 21.5,7.5 Z"/></g>
<g><path style="opacity:1" fill="#afb8b8" d="M 68.5,-0.5 C 69.5,-0.5 70.5,-0.5 71.5,-0.5C 71.0825,0.221579 70.4158,0.721579 69.5,1C 75.1342,1.63412 75.4675,2.13412 70.5,2.5C 70.5,9.5 70.5,16.5 70.5,23.5C 70.5,23.8333 70.5,24.1667 70.5,24.5C 69.8333,19.8333 69.1667,15.1667 68.5,10.5C 68.5,6.83333 68.5,3.16667 68.5,-0.5 Z"/></g>
<g><path style="opacity:1" fill="#63616e" d="M 26.5,8.5 C 26.063,11.8594 25.063,15.0261 23.5,18C 19.8675,19.049 16.2008,19.8823 12.5,20.5C 14.9517,18.0258 17.6184,16.0258 20.5,14.5C 22.4848,12.576 24.4848,10.576 26.5,8.5 Z"/></g>
<g><path style="opacity:1" fill="#3b424c" d="M 36.5,28.5 C 36.5,34.1667 36.5,39.8333 36.5,45.5C 36.1667,45.5 35.8333,45.5 35.5,45.5C 35.5,40.1667 35.5,34.8333 35.5,29.5C 35.5,21.5 35.5,13.5 35.5,5.5C 30.6606,4.6766 28.3272,6.6766 28.5,11.5C 27.7073,14.4188 26.3739,17.0855 24.5,19.5C 20.5454,19.9911 16.8787,20.9911 13.5,22.5C 13.1667,22.5 12.8333,22.5 12.5,22.5C 12.5,21.8333 12.5,21.1667 12.5,20.5C 16.2008,19.8823 19.8675,19.049 23.5,18C 25.063,15.0261 26.063,11.8594 26.5,8.5C 26.9371,6.92558 27.9371,5.75891 29.5,5C 31.6147,4.44269 33.6147,3.60936 35.5,2.5C 36.498,11.1411 36.8314,19.8078 36.5,28.5 Z"/></g>
<g><path style="opacity:1" fill="#758086" d="M 46.5,14.5 C 51.6513,15.4684 52.6513,17.9684 49.5,22C 44.8996,23.5833 43.0663,22.0833 44,17.5C 44.6979,16.3094 45.5313,15.3094 46.5,14.5 Z"/></g>
<g><path style="opacity:1" fill="#859494" d="M 32.5,-0.5 C 34.8333,-0.5 37.1667,-0.5 39.5,-0.5C 40.6652,14.845 40.6652,30.1783 39.5,45.5C 38.1168,39.8942 37.1168,34.2275 36.5,28.5C 36.8314,19.8078 36.498,11.1411 35.5,2.5C 33.6147,3.60936 31.6147,4.44269 29.5,5C 27.9371,5.75891 26.9371,6.92558 26.5,8.5C 24.4848,10.576 22.4848,12.576 20.5,14.5C 20.9617,12.2433 21.9617,10.2433 23.5,8.5C 23.0431,7.70245 22.3764,7.36912 21.5,7.5C 24.9895,4.58868 28.6562,1.92202 32.5,-0.5 Z"/></g>
<g><path style="opacity:1" fill="#0d0f20" d="M 75.5,7.5 C 77.7221,8.68762 80.0554,9.68762 82.5,10.5C 87.3802,14.5826 92.0468,18.9159 96.5,23.5C 97.4006,27.316 98.9006,30.9827 101,34.5C 101.829,39.1373 102.329,43.804 102.5,48.5C 100.649,48.3509 98.8157,48.3509 97,48.5C 96.3147,45.9427 94.8147,44.1094 92.5,43C 92.8333,42.6667 93.1667,42.3333 93.5,42C 92.8095,40.9326 92.3095,39.7659 92,38.5C 88.3027,39.6433 87.8027,38.8099 90.5,36C 89.5838,35.6258 88.7504,35.1258 88,34.5C 87.4391,31.71 86.1058,29.3766 84,27.5C 82.5421,26.2532 81.0421,26.2532 79.5,27.5C 79.0894,26.7376 78.9227,25.7376 79,24.5C 78.6667,24.8333 78.3333,25.1667 78,25.5C 77.2904,24.0267 76.1238,23.3601 74.5,23.5C 74.1786,17.9738 74.5119,12.6405 75.5,7.5 Z"/></g>
<g><path style="opacity:1" fill="#111528" d="M 75.5,7.5 C 74.5119,12.6405 74.1786,17.9738 74.5,23.5C 76.1238,23.3601 77.2904,24.0267 78,25.5C 78.3333,25.1667 78.6667,24.8333 79,24.5C 78.9227,25.7376 79.0894,26.7376 79.5,27.5C 81.0421,26.2532 82.5421,26.2532 84,27.5C 86.1058,29.3766 87.4391,31.71 88,34.5C 88.7504,35.1258 89.5838,35.6258 90.5,36C 87.8027,38.8099 88.3027,39.6433 92,38.5C 92.3095,39.7659 92.8095,40.9326 93.5,42C 93.1667,42.3333 92.8333,42.6667 92.5,43C 94.8147,44.1094 96.3147,45.9427 97,48.5C 98.8157,48.3509 100.649,48.3509 102.5,48.5C 103.742,58.8342 101.075,67.8342 94.5,75.5C 91.9847,78.6329 89.318,81.7996 86.5,85C 85.8333,85.6667 85.1667,85.6667 84.5,85C 85.3149,81.9525 87.1483,79.1192 90,76.5C 91.0007,72.9189 92.1673,69.4189 93.5,66C 93.1333,61.4355 92.1333,57.1022 90.5,53C 91.1667,52.3333 91.8333,51.6667 92.5,51C 88.0574,46.2382 84.0574,41.2382 80.5,36C 80.8333,35.6667 81.1667,35.3333 81.5,35C 79.8442,33.1706 77.8442,31.8372 75.5,31C 74.9152,29.6976 74.2485,28.531 73.5,27.5C 73.1697,20.4684 73.503,13.4684 74.5,6.5C 75.1067,6.62358 75.44,6.95691 75.5,7.5 Z"/></g>
<g><path style="opacity:1" fill="#111628" d="M 17.5,83.5 C 15.9451,80.0866 14.1117,76.7532 12,73.5C 11,72.8333 10,72.1667 9,71.5C 7.84849,66.8738 7.01516,62.2071 6.5,57.5C 6.68216,52.2063 7.18216,52.2063 8,57.5C 8.44764,51.8431 10.6143,47.0098 14.5,43C 14.1667,42.6667 13.8333,42.3333 13.5,42C 15.4419,38.5799 17.1086,35.0799 18.5,31.5C 19.9778,31.762 21.3112,31.4287 22.5,30.5C 22.2545,29.2268 22.2545,28.0601 22.5,27C 23.7839,26.3162 24.9505,26.4829 26,27.5C 27.049,25.8934 28.549,25.2267 30.5,25.5C 31.6069,22.7693 32.6069,19.936 33.5,17C 33.7186,15.0287 32.8853,13.8621 31,13.5C 28.6655,16.3414 26.4988,19.3414 24.5,22.5C 20.6853,23.8077 17.0187,23.8077 13.5,22.5C 16.8787,20.9911 20.5454,19.9911 24.5,19.5C 26.3739,17.0855 27.7073,14.4188 28.5,11.5C 29.4831,9.24412 31.1498,7.57745 33.5,6.5C 34.6642,13.1418 34.8309,19.8085 34,26.5C 30.3484,30.8426 26.1817,35.176 21.5,39.5C 20.5298,42.7737 19.0298,45.7737 17,48.5C 15.7752,56.8564 15.2752,65.0231 15.5,73C 17.3008,73.3173 17.6341,73.984 16.5,75C 18.1447,76.8003 19.478,78.8003 20.5,81C 19.8333,81.3333 19.1667,81.6667 18.5,82C 23.7432,85.7159 23.4099,86.2159 17.5,83.5 Z"/></g>
<g><path style="opacity:1" fill="#0e1122" d="M 6.5,57.5 C 5.54474,49.6643 5.54474,41.6643 6.5,33.5C 8.56468,30.0748 10.2313,26.4081 11.5,22.5C 11.8333,22.5 12.1667,22.5 12.5,22.5C 12.8333,22.5 13.1667,22.5 13.5,22.5C 17.0187,23.8077 20.6853,23.8077 24.5,22.5C 26.4988,19.3414 28.6655,16.3414 31,13.5C 32.8853,13.8621 33.7186,15.0287 33.5,17C 32.6069,19.936 31.6069,22.7693 30.5,25.5C 28.549,25.2267 27.049,25.8934 26,27.5C 24.9505,26.4829 23.7839,26.3162 22.5,27C 22.2545,28.0601 22.2545,29.2268 22.5,30.5C 21.3112,31.4287 19.9778,31.762 18.5,31.5C 17.1086,35.0799 15.4419,38.5799 13.5,42C 13.8333,42.3333 14.1667,42.6667 14.5,43C 10.6143,47.0098 8.44764,51.8431 8,57.5C 7.18216,52.2063 6.68216,52.2063 6.5,57.5 Z"/></g>
<g><path style="opacity:1" fill="#3a444e" d="M 11.5,22.5 C 10.2313,26.4081 8.56468,30.0748 6.5,33.5C 6.88899,29.1531 8.55565,25.4864 11.5,22.5 Z"/></g>
<g><path style="opacity:1" fill="#869799" d="M 14.5,13.5 C 13.9717,14.8474 13.805,16.1807 14,17.5C 15.7342,15.5494 17.9009,14.5494 20.5,14.5C 17.6184,16.0258 14.9517,18.0258 12.5,20.5C 12.5,21.1667 12.5,21.8333 12.5,22.5C 12.1667,22.5 11.8333,22.5 11.5,22.5C 8.55565,25.4864 6.88899,29.1531 6.5,33.5C 5.28794,36.7796 4.28794,40.1129 3.5,43.5C 2.67618,47.3123 2.17618,51.3123 2,55.5C 1.40645,49.1444 1.57312,42.8111 2.5,36.5C 4.37097,31.0852 6.53764,25.7518 9,20.5C 10.6971,17.98 12.5305,15.6467 14.5,13.5 Z"/></g>
<g><path style="opacity:1" fill="#161d2f" d="M 35.5,29.5 C 34.5386,31.2646 34.2053,33.2646 34.5,35.5C 28.8114,38.6719 25.1447,43.5052 23.5,50C 24.6341,51.016 24.3008,51.6827 22.5,52C 23.1667,52.3333 23.8333,52.6667 24.5,53C 21.5019,57.1504 20.8353,61.6504 22.5,66.5C 21.9607,69.1815 20.9607,71.6815 19.5,74C 22.9196,75.925 25.5863,78.7584 27.5,82.5C 29.3016,83.9856 31.3016,84.9856 33.5,85.5C 33.5,88.1667 33.5,90.8333 33.5,93.5C 31.1944,93.0074 28.861,92.6741 26.5,92.5C 24.2459,91.5849 22.2459,90.2516 20.5,88.5C 19.5,88.1667 18.8333,87.5 18.5,86.5C 18.4431,85.391 18.1098,84.391 17.5,83.5C 23.4099,86.2159 23.7432,85.7159 18.5,82C 19.1667,81.6667 19.8333,81.3333 20.5,81C 19.478,78.8003 18.1447,76.8003 16.5,75C 17.6341,73.984 17.3008,73.3173 15.5,73C 15.2752,65.0231 15.7752,56.8564 17,48.5C 19.0298,45.7737 20.5298,42.7737 21.5,39.5C 26.1817,35.176 30.3484,30.8426 34,26.5C 34.8309,19.8085 34.6642,13.1418 33.5,6.5C 31.1498,7.57745 29.4831,9.24412 28.5,11.5C 28.3272,6.6766 30.6606,4.6766 35.5,5.5C 35.5,13.5 35.5,21.5 35.5,29.5 Z"/></g>
<g><path style="opacity:1" fill="#151c2e" d="M 73.5,27.5 C 74.2485,28.531 74.9152,29.6976 75.5,31C 77.8442,31.8372 79.8442,33.1706 81.5,35C 81.1667,35.3333 80.8333,35.6667 80.5,36C 84.0574,41.2382 88.0574,46.2382 92.5,51C 91.8333,51.6667 91.1667,52.3333 90.5,53C 92.1333,57.1022 93.1333,61.4355 93.5,66C 92.1673,69.4189 91.0007,72.9189 90,76.5C 87.1483,79.1192 85.3149,81.9525 84.5,85C 85.1667,85.6667 85.8333,85.6667 86.5,85C 89.318,81.7996 91.9847,78.6329 94.5,75.5C 95.494,76.9989 95.494,78.6656 94.5,80.5C 92.1667,83.5 89.5,86.1667 86.5,88.5C 85.5041,88.5858 84.6708,88.2524 84,87.5C 82.9863,91.0911 80.8196,92.0911 77.5,90.5C 76.8333,91.5 76.1667,92.5 75.5,93.5C 74.5344,91.604 74.2011,89.604 74.5,87.5C 75.4959,87.5858 76.3292,87.2524 77,86.5C 77.7065,84.9194 78.5399,83.4194 79.5,82C 78.8333,81.6667 78.1667,81.3333 77.5,81C 79.8327,80.7955 81.8327,79.4621 83.5,77C 82.3659,75.984 82.6992,75.3173 84.5,75C 81.672,71.9994 82.0054,70.4994 85.5,70.5C 84.153,66.8904 84.8196,66.5571 87.5,69.5C 88.6224,67.9564 88.289,66.623 86.5,65.5C 87.0016,64.2836 87.3349,63.1169 87.5,62C 84.8333,61.3333 84.8333,60.6667 87.5,60C 86.8333,59.6667 86.1667,59.3333 85.5,59C 85.493,57.4173 85.8263,55.7506 86.5,54C 85.1667,53.3333 84.1667,52.3333 83.5,51C 83.8333,50 84.1667,49 84.5,48C 81.5779,43.9897 78.4113,40.1564 75,36.5C 74.304,33.5219 73.804,30.5219 73.5,27.5 Z"/></g>
<g><path style="opacity:1" fill="#6e7a83" d="M 55.5,30.5 C 58.7131,30.9368 61.5464,31.6034 64,32.5C 64.4221,34.3553 64.9221,36.1886 65.5,38C 61.5238,44.5358 57.0238,45.0358 52,39.5C 51.5022,35.8324 52.6688,32.8324 55.5,30.5 Z"/></g>
<g><path style="opacity:1" fill="#242c39" d="M 6.5,33.5 C 5.54474,41.6643 5.54474,49.6643 6.5,57.5C 7.01516,62.2071 7.84849,66.8738 9,71.5C 10,72.1667 11,72.8333 12,73.5C 14.1117,76.7532 15.9451,80.0866 17.5,83.5C 18.1098,84.391 18.4431,85.391 18.5,86.5C 6.58104,74.7499 1.58104,60.4166 3.5,43.5C 4.28794,40.1129 5.28794,36.7796 6.5,33.5 Z"/></g>
<g><path style="opacity:1" fill="#1a2334" d="M 76.5,5.5 C 85.3844,9.0518 92.0511,15.0518 96.5,23.5C 92.0468,18.9159 87.3802,14.5826 82.5,10.5C 80.0554,9.68762 77.7221,8.68762 75.5,7.5C 75.44,6.95691 75.1067,6.62358 74.5,6.5C 73.503,13.4684 73.1697,20.4684 73.5,27.5C 73.804,30.5219 74.304,33.5219 75,36.5C 78.4113,40.1564 81.5779,43.9897 84.5,48C 84.1667,49 83.8333,50 83.5,51C 84.1667,52.3333 85.1667,53.3333 86.5,54C 85.8263,55.7506 85.493,57.4173 85.5,59C 86.1667,59.3333 86.8333,59.6667 87.5,60C 84.8333,60.6667 84.8333,61.3333 87.5,62C 87.3349,63.1169 87.0016,64.2836 86.5,65.5C 88.289,66.623 88.6224,67.9564 87.5,69.5C 84.8196,66.5571 84.153,66.8904 85.5,70.5C 82.0054,70.4994 81.672,71.9994 84.5,75C 82.6992,75.3173 82.3659,75.984 83.5,77C 81.8327,79.4621 79.8327,80.7955 77.5,81C 78.1667,81.3333 78.8333,81.6667 79.5,82C 78.5399,83.4194 77.7065,84.9194 77,86.5C 76.3292,87.2524 75.4959,87.5858 74.5,87.5C 74.6917,82.7299 75.5251,78.0633 77,73.5C 78.6349,72.2744 80.1349,70.941 81.5,69.5C 81.028,65.0173 80.1947,60.3506 79,55.5C 77.0858,54.324 77.2524,53.324 79.5,52.5C 78.8333,50.5 78.1667,48.5 77.5,46.5C 76.675,45.6143 75.675,45.281 74.5,45.5C 74.8432,43.5168 74.1765,42.1834 72.5,41.5C 72.5,29.5 72.5,17.5 72.5,5.5C 73.8333,5.5 75.1667,5.5 76.5,5.5 Z"/></g>
<g><path style="opacity:1" fill="#272c3c" d="M 96.5,23.5 C 101.733,30.5328 104.4,38.5328 104.5,47.5C 104.558,53.9193 103.891,60.2526 102.5,66.5C 100.732,69.6057 99.2321,72.9391 98,76.5C 97.0513,78.0931 95.8846,79.4264 94.5,80.5C 95.494,78.6656 95.494,76.9989 94.5,75.5C 101.075,67.8342 103.742,58.8342 102.5,48.5C 102.329,43.804 101.829,39.1373 101,34.5C 98.9006,30.9827 97.4006,27.316 96.5,23.5 Z"/></g>
<g><path style="opacity:1" fill="#1b2537" d="M 34.5,35.5 C 34.5527,42.588 33.886,49.588 32.5,56.5C 32.6687,64.0969 33.6687,71.4303 35.5,78.5C 36.12,84.9262 35.4533,90.9262 33.5,96.5C 31.0115,95.312 28.6782,93.9787 26.5,92.5C 28.861,92.6741 31.1944,93.0074 33.5,93.5C 33.5,90.8333 33.5,88.1667 33.5,85.5C 31.3016,84.9856 29.3016,83.9856 27.5,82.5C 25.5863,78.7584 22.9196,75.925 19.5,74C 20.9607,71.6815 21.9607,69.1815 22.5,66.5C 20.8353,61.6504 21.5019,57.1504 24.5,53C 23.8333,52.6667 23.1667,52.3333 22.5,52C 24.3008,51.6827 24.6341,51.016 23.5,50C 25.1447,43.5052 28.8114,38.6719 34.5,35.5 Z"/></g>
<g><path style="opacity:1" fill="#2e3a4b" d="M 35.5,29.5 C 35.5,34.8333 35.5,40.1667 35.5,45.5C 35.5,56.5 35.5,67.5 35.5,78.5C 33.6687,71.4303 32.6687,64.0969 32.5,56.5C 33.886,49.588 34.5527,42.588 34.5,35.5C 34.2053,33.2646 34.5386,31.2646 35.5,29.5 Z"/></g>
<g><path style="opacity:1" fill="#71838c" d="M 104.5,32.5 C 106.947,37.4383 107.947,42.7717 107.5,48.5C 107.194,55.7617 105.694,62.7617 103,69.5C 102.517,68.552 102.351,67.552 102.5,66.5C 103.891,60.2526 104.558,53.9193 104.5,47.5C 105.231,42.4232 105.231,37.4232 104.5,32.5 Z"/></g>
<g><path style="opacity:1" fill="#e7eceb" d="M 46.5,53.5 C 46.8333,52.8333 47.1667,52.1667 47.5,51.5C 49.1368,50.7822 50.8034,50.6155 52.5,51C 52.2058,54.4753 50.7058,57.3087 48,59.5C 46.6814,57.7505 46.1814,55.7505 46.5,53.5 Z"/></g>
<g><path style="opacity:1" fill="#1f2c3e" d="M 72.5,41.5 C 74.1765,42.1834 74.8432,43.5168 74.5,45.5C 75.675,45.281 76.675,45.6143 77.5,46.5C 78.1667,48.5 78.8333,50.5 79.5,52.5C 77.2524,53.324 77.0858,54.324 79,55.5C 80.1947,60.3506 81.028,65.0173 81.5,69.5C 80.1349,70.941 78.6349,72.2744 77,73.5C 75.5251,78.0633 74.6917,82.7299 74.5,87.5C 74.2011,89.604 74.5344,91.604 75.5,93.5C 76.1667,92.5 76.8333,91.5 77.5,90.5C 80.8196,92.0911 82.9863,91.0911 84,87.5C 84.6708,88.2524 85.5041,88.5858 86.5,88.5C 82.8523,91.6599 78.8523,94.3265 74.5,96.5C 72.5131,78.5305 71.8465,60.1971 72.5,41.5 Z"/></g>
<g><path style="opacity:1" fill="#9faeb2" d="M 36.5,28.5 C 37.1168,34.2275 38.1168,39.8942 39.5,45.5C 39.5,50.5 39.5,55.5 39.5,60.5C 37.8402,72.6328 36.8402,84.9662 36.5,97.5C 36.5,80.1667 36.5,62.8333 36.5,45.5C 36.5,39.8333 36.5,34.1667 36.5,28.5 Z"/></g>
<g><path style="opacity:1" fill="#728589" d="M 2.5,36.5 C 1.57312,42.8111 1.40645,49.1444 2,55.5C 2.17618,51.3123 2.67618,47.3123 3.5,43.5C 1.58104,60.4166 6.58104,74.7499 18.5,86.5C 18.8333,87.5 19.5,88.1667 20.5,88.5C 20.6309,89.3764 20.2975,90.0431 19.5,90.5C 18.3049,88.703 16.6382,87.703 14.5,87.5C 6.28498,78.648 1.28498,68.3147 -0.5,56.5C -0.5,53.1667 -0.5,49.8333 -0.5,46.5C 0.287939,43.1129 1.28794,39.7796 2.5,36.5 Z"/></g>
<g><path style="opacity:1" fill="#45525b" d="M 76.5,5.5 C 75.1667,5.5 73.8333,5.5 72.5,5.5C 72.5,17.5 72.5,29.5 72.5,41.5C 71.8465,60.1971 72.5131,78.5305 74.5,96.5C 73.791,97.404 72.791,97.7373 71.5,97.5C 71.5,91.5 71.5,85.5 71.5,79.5C 70.7738,61.1758 70.4404,42.8425 70.5,24.5C 70.5,24.1667 70.5,23.8333 70.5,23.5C 71.4907,17.021 71.824,10.3543 71.5,3.5C 73.698,3.12012 75.3646,3.78679 76.5,5.5 Z"/></g>
<g><path style="opacity:1" fill="#afb6b9" d="M 50.5,49.5 C 53.6571,49.0785 55.9905,50.2452 57.5,53C 56.552,53.4828 55.552,53.6495 54.5,53.5C 53.005,57.8375 50.8383,61.8375 48,65.5C 47.7216,64.5842 47.2216,63.9175 46.5,63.5C 46.1667,63.5 45.8333,63.5 45.5,63.5C 45.1872,59.9581 45.5206,56.6248 46.5,53.5C 46.1814,55.7505 46.6814,57.7505 48,59.5C 50.7058,57.3087 52.2058,54.4753 52.5,51C 50.8034,50.6155 49.1368,50.7822 47.5,51.5C 47.9731,50.0937 48.9731,49.427 50.5,49.5 Z"/></g>
<g><path style="opacity:1" fill="#85939b" d="M 50.5,49.5 C 56.2337,47.5355 59.9004,49.5355 61.5,55.5C 60.8893,66.156 60.3893,76.8227 60,87.5C 59.8195,84.3054 59.3195,81.3054 58.5,78.5C 58.5,77.8333 58.5,77.1667 58.5,76.5C 58.8967,71.0414 58.3967,65.7081 57,60.5C 55.8904,62.0368 54.3904,62.7035 52.5,62.5C 51.6118,65.243 50.4451,67.9096 49,70.5C 48.5002,80.828 48.3335,91.1613 48.5,101.5C 47.7559,88.9822 47.0893,76.3156 46.5,63.5C 47.2216,63.9175 47.7216,64.5842 48,65.5C 50.8383,61.8375 53.005,57.8375 54.5,53.5C 55.552,53.6495 56.552,53.4828 57.5,53C 55.9905,50.2452 53.6571,49.0785 50.5,49.5 Z"/></g>
<g><path style="opacity:1" fill="#4e5c69" d="M 35.5,45.5 C 35.8333,45.5 36.1667,45.5 36.5,45.5C 36.5,62.8333 36.5,80.1667 36.5,97.5C 35.209,97.7373 34.209,97.404 33.5,96.5C 35.4533,90.9262 36.12,84.9262 35.5,78.5C 35.5,67.5 35.5,56.5 35.5,45.5 Z"/></g>
<g><path style="opacity:1" fill="#485665" d="M 58.5,76.5 C 57.6829,74.0314 57.1829,71.3647 57,68.5C 54.4598,67.1235 52.4598,67.7902 51,70.5C 50.501,74.8206 50.3343,79.1539 50.5,83.5C 50.1718,88.8746 50.5052,94.2079 51.5,99.5C 53.4086,100.348 55.4086,100.682 57.5,100.5C 57.8333,100.5 58.1667,100.5 58.5,100.5C 55.3752,101.479 52.0419,101.813 48.5,101.5C 48.3335,91.1613 48.5002,80.828 49,70.5C 50.4451,67.9096 51.6118,65.243 52.5,62.5C 54.3904,62.7035 55.8904,62.0368 57,60.5C 58.3967,65.7081 58.8967,71.0414 58.5,76.5 Z"/></g>
<g><path style="opacity:1" fill="#293a4d" d="M 58.5,76.5 C 58.5,77.1667 58.5,77.8333 58.5,78.5C 58.5,85.8333 58.5,93.1667 58.5,100.5C 58.1667,100.5 57.8333,100.5 57.5,100.5C 57.5745,94.4707 57.2412,88.4707 56.5,82.5C 54.8561,82.7135 53.3561,82.3802 52,81.5C 51.7216,82.4158 51.2216,83.0825 50.5,83.5C 50.3343,79.1539 50.501,74.8206 51,70.5C 52.4598,67.7902 54.4598,67.1235 57,68.5C 57.1829,71.3647 57.6829,74.0314 58.5,76.5 Z"/></g>
<g><path style="opacity:1" fill="#7b8c91" d="M 68.5,10.5 C 69.1667,15.1667 69.8333,19.8333 70.5,24.5C 70.4404,42.8425 70.7738,61.1758 71.5,79.5C 69.8445,71.048 68.8445,62.3813 68.5,53.5C 68.5,39.1667 68.5,24.8333 68.5,10.5 Z"/></g>
<g><path style="opacity:1" fill="#1e2a3c" d="M 57.5,100.5 C 55.4086,100.682 53.4086,100.348 51.5,99.5C 50.5052,94.2079 50.1718,88.8746 50.5,83.5C 51.2216,83.0825 51.7216,82.4158 52,81.5C 53.3561,82.3802 54.8561,82.7135 56.5,82.5C 57.2412,88.4707 57.5745,94.4707 57.5,100.5 Z"/></g>
<g><path style="opacity:1" fill="#52676c" d="M 45.5,63.5 C 45.8333,63.5 46.1667,63.5 46.5,63.5C 47.0893,76.3156 47.7559,88.9822 48.5,101.5C 52.2671,102.795 56.2671,103.461 60.5,103.5C 60.5,103.833 60.5,104.167 60.5,104.5C 56.5,104.5 52.5,104.5 48.5,104.5C 47.8333,103.167 47.1667,103.167 46.5,104.5C 46.1667,104.5 45.8333,104.5 45.5,104.5C 45.4799,90.7229 45.4799,77.0562 45.5,63.5 Z"/></g>
<g><path style="opacity:1" fill="#5f7079" d="M 61.5,55.5 C 62.6612,70.6611 62.8279,85.9945 62,101.5C 61.7216,102.416 61.2216,103.082 60.5,103.5C 56.2671,103.461 52.2671,102.795 48.5,101.5C 52.0419,101.813 55.3752,101.479 58.5,100.5C 58.5,93.1667 58.5,85.8333 58.5,78.5C 59.3195,81.3054 59.8195,84.3054 60,87.5C 60.3893,76.8227 60.8893,66.156 61.5,55.5 Z"/></g>
<g><path style="opacity:1" fill="#657580" d="M 107.5,48.5 C 107.833,48.5 108.167,48.5 108.5,48.5C 108.5,50.1667 108.5,51.8333 108.5,53.5C 106.874,69.9073 99.5406,83.4073 86.5,94C 80.988,97.506 75.1547,100.339 69,102.5C 68.5001,86.1701 68.3334,69.8367 68.5,53.5C 68.8445,62.3813 69.8445,71.048 71.5,79.5C 71.5,85.5 71.5,91.5 71.5,97.5C 72.791,97.7373 73.791,97.404 74.5,96.5C 78.8523,94.3265 82.8523,91.6599 86.5,88.5C 89.5,86.1667 92.1667,83.5 94.5,80.5C 95.8846,79.4264 97.0513,78.0931 98,76.5C 99.2321,72.9391 100.732,69.6057 102.5,66.5C 102.351,67.552 102.517,68.552 103,69.5C 105.694,62.7617 107.194,55.7617 107.5,48.5 Z"/></g>
<g><path style="opacity:1" fill="#586b71" d="M 39.5,60.5 C 39.7156,69.3451 40.0489,78.1784 40.5,87C 40.5056,92.2223 40.0056,97.3889 39,102.5C 29.4144,99.6329 21.2478,94.6329 14.5,87.5C 16.6382,87.703 18.3049,88.703 19.5,90.5C 20.2975,90.0431 20.6309,89.3764 20.5,88.5C 22.2459,90.2516 24.2459,91.5849 26.5,92.5C 28.6782,93.9787 31.0115,95.312 33.5,96.5C 34.209,97.404 35.209,97.7373 36.5,97.5C 36.8402,84.9662 37.8402,72.6328 39.5,60.5 Z"/></g>
</svg>
