<?xml version="1.0" encoding="UTF-8"?>
<!DOCTYPE svg PUBLIC "-//W3C//DTD SVG 1.1//EN" "http://www.w3.org/Graphics/SVG/1.1/DTD/svg11.dtd">
<svg xmlns="http://www.w3.org/2000/svg" version="1.1" width="100%" height="100%" viewBox="0 0 89 89" style="shape-rendering:geometricPrecision; text-rendering:geometricPrecision; image-rendering:optimizeQuality; fill-rule:evenodd; clip-rule:evenodd" xmlns:xlink="http://www.w3.org/1999/xlink">
<g><path style="opacity:1" fill="#1e1550" d="M 38.5,13.5 C 37.0998,12.8999 36.0998,11.8999 35.5,10.5C 37.9559,8.18881 40.7893,6.52215 44,5.5C 48.0515,7.204 51.8849,9.37067 55.5,12C 49.8769,13.029 44.2102,13.529 38.5,13.5 Z"/></g>
<g><path style="opacity:1" fill="#212c79" d="M 32.5,7.5 C 33.4916,7.32842 34.1583,7.66175 34.5,8.5C 33.5,8.83333 32.8333,9.5 32.5,10.5C 29.0588,11.0965 25.7254,11.7632 22.5,12.5C 22.1667,12.5 21.8333,12.5 21.5,12.5C 20.8333,12.5 20.1667,12.5 19.5,12.5C 18.7611,12.631 18.0944,12.4643 17.5,12C 21.4159,10.8976 25.4159,10.231 29.5,10C 30.9423,9.62325 31.9423,8.78991 32.5,7.5 Z"/></g>
<g><path style="opacity:1" fill="#16275c" d="M 43.5,-0.5 C 44.1667,-0.5 44.8333,-0.5 45.5,-0.5C 49.9072,2.04634 54.2406,4.87968 58.5,8C 63.9903,8.7824 69.3236,10.1157 74.5,12C 77.2876,14.5232 78.621,17.6899 78.5,21.5C 77.6873,19.7392 76.6873,18.0725 75.5,16.5C 74.7326,15.828 74.0659,14.9947 73.5,14C 68.2859,12.3631 62.9525,11.3631 57.5,11C 53.8112,7.15721 49.4778,4.32387 44.5,2.5C 40.5131,3.49008 37.1797,5.49008 34.5,8.5C 34.1583,7.66175 33.4916,7.32842 32.5,7.5C 35.67,4.08823 39.3367,1.42157 43.5,-0.5 Z"/></g>
<g><path style="opacity:1" fill="#584e5d" d="M 35.5,10.5 C 36.0998,11.8999 37.0998,12.8999 38.5,13.5C 38.5,13.8333 38.5,14.1667 38.5,14.5C 36.5,14.5 34.5,14.5 32.5,14.5C 32.1667,14.5 31.8333,14.5 31.5,14.5C 30.8166,12.8235 29.4832,12.1568 27.5,12.5C 25.8333,12.5 24.1667,12.5 22.5,12.5C 25.7254,11.7632 29.0588,11.0965 32.5,10.5C 33.7978,9.88432 34.7978,9.88432 35.5,10.5 Z"/></g>
<g><path style="opacity:1" fill="#1e202d" d="M 75.5,16.5 C 75.5,17.5 75.5,18.5 75.5,19.5C 75.6495,20.552 75.4828,21.552 75,22.5C 74.5779,20.6447 74.0779,18.8114 73.5,17C 73.1639,15.9701 72.4972,15.4701 71.5,15.5C 67.6089,13.9926 63.4422,13.3259 59,13.5C 55.0786,13.455 51.2453,13.955 47.5,15C 48.745,15.7914 50.0783,16.2914 51.5,16.5C 53.7128,17.7729 56.0462,18.7729 58.5,19.5C 60.0311,20.9245 59.6977,21.5912 57.5,21.5C 54.9122,19.3754 51.9122,18.0421 48.5,17.5C 46.0948,16.2318 43.4282,15.5651 40.5,15.5C 40.1583,14.6618 39.4916,14.3284 38.5,14.5C 38.5,14.1667 38.5,13.8333 38.5,13.5C 44.2102,13.529 49.8769,13.029 55.5,12C 51.8849,9.37067 48.0515,7.204 44,5.5C 40.7893,6.52215 37.9559,8.18881 35.5,10.5C 34.7978,9.88432 33.7978,9.88432 32.5,10.5C 32.8333,9.5 33.5,8.83333 34.5,8.5C 37.1797,5.49008 40.5131,3.49008 44.5,2.5C 49.4778,4.32387 53.8112,7.15721 57.5,11C 62.9525,11.3631 68.2859,12.3631 73.5,14C 74.0659,14.9947 74.7326,15.828 75.5,16.5 Z"/></g>
<g><path style="opacity:1" fill="#2c2343" d="M 71.5,15.5 C 69.1667,15.5 66.8333,15.5 64.5,15.5C 62.5274,14.8373 60.3608,14.5039 58,14.5C 55.3897,14.5332 53.223,15.1999 51.5,16.5C 50.0783,16.2914 48.745,15.7914 47.5,15C 51.2453,13.955 55.0786,13.455 59,13.5C 63.4422,13.3259 67.6089,13.9926 71.5,15.5 Z"/></g>
<g><path style="opacity:1" fill="#150d41" d="M 64.5,15.5 C 64.0618,15.4346 63.7284,15.6012 63.5,16C 65.5177,18.8887 66.8511,22.0554 67.5,25.5C 64.9873,22.7454 61.9873,20.7454 58.5,19.5C 56.0462,18.7729 53.7128,17.7729 51.5,16.5C 53.223,15.1999 55.3897,14.5332 58,14.5C 60.3608,14.5039 62.5274,14.8373 64.5,15.5 Z"/></g>
<g><path style="opacity:1" fill="#2b2673" d="M 40.5,15.5 C 43.4282,15.5651 46.0948,16.2318 48.5,17.5C 49.8395,19.84 51.5062,21.1733 53.5,21.5C 54.3672,24.347 54.3672,27.347 53.5,30.5C 51.7028,29.2702 49.7028,28.6036 47.5,28.5C 47.5,28.1667 47.5,27.8333 47.5,27.5C 48.3764,27.6309 49.0431,27.2975 49.5,26.5C 47.3212,21.0767 43.3212,18.0767 37.5,17.5C 37.7709,19.3797 37.1042,20.713 35.5,21.5C 35.5,19.5 35.5,17.5 35.5,15.5C 37.1667,15.5 38.8333,15.5 40.5,15.5 Z"/></g>
<g><path style="opacity:1" fill="#080424" d="M 64.5,15.5 C 66.8333,15.5 69.1667,15.5 71.5,15.5C 74.3076,22.6296 74.9742,29.963 73.5,37.5C 71.104,33.75 69.104,29.75 67.5,25.5C 66.8511,22.0554 65.5177,18.8887 63.5,16C 63.7284,15.6012 64.0618,15.4346 64.5,15.5 Z"/></g>
<g><path style="opacity:1" fill="#a19bb9" d="M 19.5,12.5 C 20.1667,12.5 20.8333,12.5 21.5,12.5C 17.1748,16.1914 17.8415,18.5247 23.5,19.5C 24.7716,19.4302 25.9383,19.0968 27,18.5C 27.4955,16.5273 27.6621,14.5273 27.5,12.5C 29.4832,12.1568 30.8166,12.8235 31.5,14.5C 30.5,14.5 29.5,14.5 28.5,14.5C 29.1131,19.3896 26.9464,22.0562 22,22.5C 20.0488,21.7154 18.2155,20.7154 16.5,19.5C 15.8243,20.6016 15.1577,21.6016 14.5,22.5C 14.8333,19.8333 15.1667,17.1667 15.5,14.5C 16.9952,14.0113 18.3285,13.3446 19.5,12.5 Z"/></g>
<g><path style="opacity:1" fill="#d3d1df" d="M 21.5,12.5 C 21.8333,12.5 22.1667,12.5 22.5,12.5C 24.1667,12.5 25.8333,12.5 27.5,12.5C 27.6621,14.5273 27.4955,16.5273 27,18.5C 25.9383,19.0968 24.7716,19.4302 23.5,19.5C 17.8415,18.5247 17.1748,16.1914 21.5,12.5 Z"/></g>
<g><path style="opacity:1" fill="#2d2981" d="M 47.5,27.5 C 45.8828,26.962 44.2161,26.6287 42.5,26.5C 39.723,25.1861 36.723,24.1861 33.5,23.5C 34.2427,22.8182 34.9094,22.1515 35.5,21.5C 37.1042,20.713 37.7709,19.3797 37.5,17.5C 43.3212,18.0767 47.3212,21.0767 49.5,26.5C 49.0431,27.2975 48.3764,27.6309 47.5,27.5 Z"/></g>
<g><path style="opacity:1" fill="#221a58" d="M 48.5,17.5 C 51.9122,18.0421 54.9122,19.3754 57.5,21.5C 58.1667,22.1667 58.8333,22.8333 59.5,23.5C 60.7879,27.8151 60.7879,32.4817 59.5,37.5C 59.1667,37.5 58.8333,37.5 58.5,37.5C 57.2141,34.883 55.5475,32.5496 53.5,30.5C 54.3672,27.347 54.3672,24.347 53.5,21.5C 51.5062,21.1733 49.8395,19.84 48.5,17.5 Z"/></g>
<g><path style="opacity:1" fill="#544b92" d="M 32.5,14.5 C 34.5,14.5 36.5,14.5 38.5,14.5C 39.4916,14.3284 40.1583,14.6618 40.5,15.5C 38.8333,15.5 37.1667,15.5 35.5,15.5C 35.5,17.5 35.5,19.5 35.5,21.5C 34.9094,22.1515 34.2427,22.8182 33.5,23.5C 36.723,24.1861 39.723,25.1861 42.5,26.5C 37.1951,25.8058 31.8617,25.4724 26.5,25.5C 28.0767,23.4163 29.91,21.4163 32,19.5C 32.4935,17.8659 32.6602,16.1992 32.5,14.5 Z"/></g>
<g><path style="opacity:1" fill="#6d6779" d="M 15.5,14.5 C 15.1667,17.1667 14.8333,19.8333 14.5,22.5C 14.5,22.8333 14.5,23.1667 14.5,23.5C 14.5,24.1667 14.5,24.8333 14.5,25.5C 14.1667,25.5 13.8333,25.5 13.5,25.5C 13.7373,24.209 13.404,23.209 12.5,22.5C 12.3455,19.284 13.3455,16.6174 15.5,14.5 Z"/></g>
<g><path style="opacity:1" fill="#7871a6" d="M 31.5,14.5 C 31.8333,14.5 32.1667,14.5 32.5,14.5C 32.6602,16.1992 32.4935,17.8659 32,19.5C 29.91,21.4163 28.0767,23.4163 26.5,25.5C 26.5,27.5 26.5,29.5 26.5,31.5C 25.5386,29.7354 25.2053,27.7354 25.5,25.5C 21.8026,24.9922 18.1359,24.3255 14.5,23.5C 14.5,23.1667 14.5,22.8333 14.5,22.5C 15.1577,21.6016 15.8243,20.6016 16.5,19.5C 18.2155,20.7154 20.0488,21.7154 22,22.5C 26.9464,22.0562 29.1131,19.3896 28.5,14.5C 29.5,14.5 30.5,14.5 31.5,14.5 Z"/></g>
<g><path style="opacity:1" fill="#50488a" d="M 14.5,23.5 C 18.1359,24.3255 21.8026,24.9922 25.5,25.5C 25.2053,27.7354 25.5386,29.7354 26.5,31.5C 26.5,34.1667 26.5,36.8333 26.5,39.5C 26.5,39.8333 26.5,40.1667 26.5,40.5C 25.0109,36.7643 24.3442,32.7643 24.5,28.5C 22.4352,28.4828 20.4352,28.1495 18.5,27.5C 17.713,25.8958 16.3797,25.2291 14.5,25.5C 14.5,24.8333 14.5,24.1667 14.5,23.5 Z"/></g>
<g><path style="opacity:1" fill="#5d5b71" d="M 26.5,25.5 C 31.8617,25.4724 37.1951,25.8058 42.5,26.5C 44.2161,26.6287 45.8828,26.962 47.5,27.5C 47.5,27.8333 47.5,28.1667 47.5,28.5C 45.5,28.1667 43.5,27.8333 41.5,27.5C 36.8333,27.5 32.1667,27.5 27.5,27.5C 27.8168,31.7016 27.4834,35.7016 26.5,39.5C 26.5,36.8333 26.5,34.1667 26.5,31.5C 26.5,29.5 26.5,27.5 26.5,25.5 Z"/></g>
<g><path style="opacity:1" fill="#25343e" d="M 41.5,27.5 C 43.5,27.8333 45.5,28.1667 47.5,28.5C 47.9175,29.2216 48.5842,29.7216 49.5,30C 48.9056,30.4643 48.2389,30.631 47.5,30.5C 39.8136,30.2049 34.4803,33.5382 31.5,40.5C 30.6829,42.9686 30.1829,45.6353 30,48.5C 29.6174,47.944 29.1174,47.6107 28.5,47.5C 28.4809,45.9397 28.1476,44.4397 27.5,43C 29.8325,40.1677 31.4992,37.001 32.5,33.5C 34.4044,33.2624 35.7377,32.2624 36.5,30.5C 39.0336,30.7409 40.7002,29.7409 41.5,27.5 Z"/></g>
<g><path style="opacity:1" fill="#282471" d="M 18.5,27.5 C 20.4352,28.1495 22.4352,28.4828 24.5,28.5C 24.3442,32.7643 25.0109,36.7643 26.5,40.5C 26.5,41.8333 26.5,43.1667 26.5,44.5C 25.8485,45.0906 25.1818,45.7573 24.5,46.5C 19.5478,42.4242 16.5478,37.2575 15.5,31C 15.7151,29.0922 16.7151,27.9256 18.5,27.5 Z"/></g>
<g><path style="opacity:1" fill="#39348c" d="M 36.5,30.5 C 35.7377,32.2624 34.4044,33.2624 32.5,33.5C 31.1154,34.5736 29.9487,35.9069 29,37.5C 28.502,34.5184 28.3354,31.5184 28.5,28.5C 31.5184,28.3354 34.5184,28.502 37.5,29C 36.944,29.3826 36.6107,29.8826 36.5,30.5 Z"/></g>
<g><path style="opacity:1" fill="#10083f" d="M 59.5,23.5 C 60.2389,23.369 60.9056,23.5357 61.5,24C 63.6394,26.4784 65.6394,28.9784 67.5,31.5C 66.5066,36.3141 65.0066,40.9808 63,45.5C 61.5429,42.9625 60.3762,40.2959 59.5,37.5C 60.7879,32.4817 60.7879,27.8151 59.5,23.5 Z"/></g>
<g><path style="opacity:1" fill="#1b2a61" d="M 32.5,7.5 C 31.9423,8.78991 30.9423,9.62325 29.5,10C 25.4159,10.231 21.4159,10.8976 17.5,12C 18.0944,12.4643 18.7611,12.631 19.5,12.5C 18.3285,13.3446 16.9952,14.0113 15.5,14.5C 13.3455,16.6174 12.3455,19.284 12.5,22.5C 11.7589,25.4133 11.2589,28.4133 11,31.5C 7.36946,35.1295 4.53613,39.2961 2.5,44C 2.89852,45.9812 3.89852,47.4812 5.5,48.5C 6.64782,52.1609 8.81448,55.1609 12,57.5C 12.1773,61.3563 12.6773,65.023 13.5,68.5C 13.5,69.5 13.5,70.5 13.5,71.5C 11.7903,67.6072 10.457,63.6072 9.5,59.5C 5.84419,55.1595 2.51085,50.4928 -0.5,45.5C -0.5,45.1667 -0.5,44.8333 -0.5,44.5C 2.04333,39.7632 4.87667,35.0965 8,30.5C 9.12106,25.1011 10.4544,19.7677 12,14.5C 13.214,12.9512 14.714,11.7845 16.5,11C 21.8216,9.72477 27.1549,8.55811 32.5,7.5 Z"/></g>
<g><path style="opacity:1" fill="#322b43" d="M 71.5,15.5 C 72.4972,15.4701 73.1639,15.9701 73.5,17C 74.0779,18.8114 74.5779,20.6447 75,22.5C 75.4828,21.552 75.6495,20.552 75.5,19.5C 76.4345,20.5676 76.7678,21.901 76.5,23.5C 75.6263,27.9845 75.6263,32.3178 76.5,36.5C 76.4249,39.2062 76.0916,41.8728 75.5,44.5C 74.7934,42.7693 73.7934,41.1026 72.5,39.5C 72.8627,38.8165 73.1961,38.1499 73.5,37.5C 74.9742,29.963 74.3076,22.6296 71.5,15.5 Z"/></g>
<g><path style="opacity:1" fill="#352c4d" d="M 13.5,25.5 C 13.8333,25.5 14.1667,25.5 14.5,25.5C 14.3764,31.5988 15.0431,37.5988 16.5,43.5C 15.7784,43.0825 15.2784,42.4158 15,41.5C 14.5539,44.343 14.0539,47.1764 13.5,50C 14.256,53.1248 14.5893,56.2914 14.5,59.5C 13.6027,58.319 13.1027,56.319 13,53.5C 12.6174,54.056 12.1174,54.3893 11.5,54.5C 14.4386,47.8743 14.1053,41.541 10.5,35.5C 10.8212,33.9519 11.8212,33.2852 13.5,33.5C 13.5,30.8333 13.5,28.1667 13.5,25.5 Z"/></g>
<g><path style="opacity:1" fill="#0a072a" d="M 67.5,31.5 C 69.1007,34.5502 70.1007,37.8835 70.5,41.5C 67.3029,47.4668 64.9696,53.4668 63.5,59.5C 63.665,56.1501 63.4983,52.8168 63,49.5C 62.7679,48.2625 62.2679,47.2625 61.5,46.5C 60.3307,43.659 59.3307,40.659 58.5,37.5C 58.8333,37.5 59.1667,37.5 59.5,37.5C 60.3762,40.2959 61.5429,42.9625 63,45.5C 65.0066,40.9808 66.5066,36.3141 67.5,31.5 Z"/></g>
<g><path style="opacity:1" fill="#1c172c" d="M 58.5,19.5 C 61.9873,20.7454 64.9873,22.7454 67.5,25.5C 69.104,29.75 71.104,33.75 73.5,37.5C 73.1961,38.1499 72.8627,38.8165 72.5,39.5C 73.7934,41.1026 74.7934,42.7693 75.5,44.5C 76.3007,46.0418 76.634,47.7085 76.5,49.5C 75.7321,50.2625 75.2321,51.2625 75,52.5C 74.79,50.9419 74.29,49.6085 73.5,48.5C 72.6515,46.1124 71.6515,43.7791 70.5,41.5C 70.1007,37.8835 69.1007,34.5502 67.5,31.5C 65.6394,28.9784 63.6394,26.4784 61.5,24C 60.9056,23.5357 60.2389,23.369 59.5,23.5C 58.8333,22.8333 58.1667,22.1667 57.5,21.5C 59.6977,21.5912 60.0311,20.9245 58.5,19.5 Z"/></g>
<g><path style="opacity:1" fill="#262438" d="M 12.5,22.5 C 13.404,23.209 13.7373,24.209 13.5,25.5C 13.5,28.1667 13.5,30.8333 13.5,33.5C 11.8212,33.2852 10.8212,33.9519 10.5,35.5C 9.24983,37.9324 7.74983,40.2657 6,42.5C 5.50454,44.4727 5.33788,46.4727 5.5,48.5C 3.89852,47.4812 2.89852,45.9812 2.5,44C 4.53613,39.2961 7.36946,35.1295 11,31.5C 11.2589,28.4133 11.7589,25.4133 12.5,22.5 Z"/></g>
<g><path style="opacity:1" fill="#453f70" d="M 41.5,27.5 C 40.7002,29.7409 39.0336,30.7409 36.5,30.5C 36.6107,29.8826 36.944,29.3826 37.5,29C 34.5184,28.502 31.5184,28.3354 28.5,28.5C 28.3354,31.5184 28.502,34.5184 29,37.5C 29.9487,35.9069 31.1154,34.5736 32.5,33.5C 31.4992,37.001 29.8325,40.1677 27.5,43C 28.1476,44.4397 28.4809,45.9397 28.5,47.5C 27.5987,46.7095 26.9321,45.7095 26.5,44.5C 26.5,43.1667 26.5,41.8333 26.5,40.5C 26.5,40.1667 26.5,39.8333 26.5,39.5C 27.4834,35.7016 27.8168,31.7016 27.5,27.5C 32.1667,27.5 36.8333,27.5 41.5,27.5 Z"/></g>
<g><path style="opacity:1" fill="#231c5c" d="M 14.5,25.5 C 16.3797,25.2291 17.713,25.8958 18.5,27.5C 16.7151,27.9256 15.7151,29.0922 15.5,31C 16.5478,37.2575 19.5478,42.4242 24.5,46.5C 25.1818,45.7573 25.8485,45.0906 26.5,44.5C 26.9321,45.7095 27.5987,46.7095 28.5,47.5C 28.8333,48.8333 29.1667,50.1667 29.5,51.5C 24.9508,49.9663 21.1175,47.2996 18,43.5C 17.6012,43.7284 17.4346,44.0618 17.5,44.5C 16.8333,44.5 16.5,44.1667 16.5,43.5C 15.0431,37.5988 14.3764,31.5988 14.5,25.5 Z"/></g>
<g><path style="opacity:1" fill="#100839" d="M 10.5,35.5 C 14.1053,41.541 14.4386,47.8743 11.5,54.5C 9.13942,52.8061 7.13942,50.8061 5.5,48.5C 5.33788,46.4727 5.50454,44.4727 6,42.5C 7.74983,40.2657 9.24983,37.9324 10.5,35.5 Z"/></g>
<g><path style="opacity:1" fill="#070716" d="M 76.5,36.5 C 84.1545,41.1945 84.4878,46.5279 77.5,52.5C 76.6143,51.675 76.281,50.675 76.5,49.5C 76.634,47.7085 76.3007,46.0418 75.5,44.5C 76.0916,41.8728 76.4249,39.2062 76.5,36.5 Z"/></g>
<g><path style="opacity:1" fill="#060318" d="M 70.5,41.5 C 71.6515,43.7791 72.6515,46.1124 73.5,48.5C 73.5,49.8333 73.5,51.1667 73.5,52.5C 72.7784,52.0825 72.2784,51.4158 72,50.5C 70.4977,53.0184 68.9977,55.5184 67.5,58C 70.2337,58.7183 70.9004,60.2183 69.5,62.5C 65.2233,65.2735 61.39,68.6068 58,72.5C 57.2496,71.8742 56.4162,71.3742 55.5,71C 56.2583,69.6361 55.7583,68.4695 54,67.5C 52.6764,68.8802 51.3431,69.2135 50,68.5C 47.9307,69.2638 45.764,69.7638 43.5,70C 44.056,70.3826 44.3893,70.8826 44.5,71.5C 41.1623,70.164 37.8289,68.8307 34.5,67.5C 38.3347,66.5387 42.3347,65.7054 46.5,65C 47.676,63.0858 48.676,63.2524 49.5,65.5C 54.2994,64.8825 58.966,64.2159 63.5,63.5C 63.5,63.1667 63.5,62.8333 63.5,62.5C 63.5,61.5 63.5,60.5 63.5,59.5C 64.9696,53.4668 67.3029,47.4668 70.5,41.5 Z"/></g>
<g><path style="opacity:1" fill="#312746" d="M 61.5,46.5 C 62.2679,47.2625 62.7679,48.2625 63,49.5C 63.4983,52.8168 63.665,56.1501 63.5,59.5C 63.5,60.5 63.5,61.5 63.5,62.5C 62.7611,62.631 62.0944,62.4643 61.5,62C 62.6219,58.5915 62.7886,55.0915 62,51.5C 61.8195,54.6946 61.3195,57.6946 60.5,60.5C 60.665,57.1501 60.4983,53.8168 60,50.5C 59.2597,52.3187 58.0931,53.6521 56.5,54.5C 57.3833,51.2957 59.0499,48.6291 61.5,46.5 Z"/></g>
<g><path style="opacity:1" fill="#1a1531" d="M 16.5,43.5 C 16.5,44.1667 16.8333,44.5 17.5,44.5C 18.88,49.5939 20.5467,54.5939 22.5,59.5C 21.9569,59.56 21.6236,59.8933 21.5,60.5C 22.9501,61.8498 23.6168,63.5165 23.5,65.5C 22.3121,64.3157 21.1455,64.3157 20,65.5C 21.3937,61.6192 20.0603,58.9525 16,57.5C 15.7216,58.4158 15.2216,59.0825 14.5,59.5C 14.5893,56.2914 14.256,53.1248 13.5,50C 14.0539,47.1764 14.5539,44.343 15,41.5C 15.2784,42.4158 15.7784,43.0825 16.5,43.5 Z"/></g>
<g><path style="opacity:1" fill="#211a27" d="M 76.5,23.5 C 76.3367,25.8568 76.5034,28.1902 77,30.5C 80.9594,34.4566 84.1261,38.9566 86.5,44C 84.4461,49.2713 81.2795,53.7713 77,57.5C 76.8791,63.3194 76.0458,68.986 74.5,74.5C 68.9524,75.9603 63.2857,76.7937 57.5,77C 53.8763,81.1445 49.5429,84.3111 44.5,86.5C 39.4571,84.3111 35.1237,81.1445 31.5,77C 26.8024,76.6489 22.1358,76.1489 17.5,75.5C 15.8333,74.5 14.5,73.1667 13.5,71.5C 13.5,70.5 13.5,69.5 13.5,68.5C 14.5355,69.2462 15.5355,70.7462 16.5,73C 19.7679,74.1503 23.1012,74.9836 26.5,75.5C 28.924,75.1924 31.2573,75.5258 33.5,76.5C 34.1882,77.8549 35.1882,78.8549 36.5,79.5C 39.1505,80.4897 41.8172,81.4897 44.5,82.5C 46.3254,81.3489 48.3254,80.6822 50.5,80.5C 52.7288,79.9447 54.3954,78.6114 55.5,76.5C 60.0498,75.8615 64.3831,74.8615 68.5,73.5C 71.1523,73.009 72.6523,71.3424 73,68.5C 74.5042,63.1649 74.6709,57.8316 73.5,52.5C 73.5,51.1667 73.5,49.8333 73.5,48.5C 74.29,49.6085 74.79,50.9419 75,52.5C 75.2321,51.2625 75.7321,50.2625 76.5,49.5C 76.281,50.675 76.6143,51.675 77.5,52.5C 84.4878,46.5279 84.1545,41.1945 76.5,36.5C 75.6263,32.3178 75.6263,27.9845 76.5,23.5 Z"/></g>
<g><path style="opacity:1" fill="#1c2a66" d="M 75.5,16.5 C 76.6873,18.0725 77.6873,19.7392 78.5,21.5C 78.5375,27.9767 81.2042,32.9767 86.5,36.5C 86.2907,37.086 85.9574,37.586 85.5,38C 86.6364,39.1451 87.6364,40.3117 88.5,41.5C 88.5,43.5 88.5,45.5 88.5,47.5C 86.5919,50.2799 84.4252,52.9466 82,55.5C 79.9325,60.6139 78.5992,65.9472 78,71.5C 77.3444,73.9861 75.8444,75.6528 73.5,76.5C 69.5101,76.9987 65.5101,77.4987 61.5,78C 59.6803,78.2004 58.347,79.0337 57.5,80.5C 54.3647,83.9006 50.698,86.5673 46.5,88.5C 45.1667,88.5 43.8333,88.5 42.5,88.5C 37.8911,85.89 33.5578,82.89 29.5,79.5C 26.0542,78.3126 22.3875,77.6459 18.5,77.5C 18.0825,76.7784 17.4158,76.2784 16.5,76C 16.7284,75.6012 17.0618,75.4346 17.5,75.5C 22.1358,76.1489 26.8024,76.6489 31.5,77C 35.1237,81.1445 39.4571,84.3111 44.5,86.5C 49.5429,84.3111 53.8763,81.1445 57.5,77C 63.2857,76.7937 68.9524,75.9603 74.5,74.5C 76.0458,68.986 76.8791,63.3194 77,57.5C 81.2795,53.7713 84.4461,49.2713 86.5,44C 84.1261,38.9566 80.9594,34.4566 77,30.5C 76.5034,28.1902 76.3367,25.8568 76.5,23.5C 76.7678,21.901 76.4345,20.5676 75.5,19.5C 75.5,18.5 75.5,17.5 75.5,16.5 Z"/></g>
<g><path style="opacity:1" fill="#10093f" d="M 29.5,51.5 C 31.2083,53.7176 33.2083,55.8843 35.5,58C 37.9944,59.0317 40.3277,60.1983 42.5,61.5C 36.6715,61.9503 31.0049,61.2836 25.5,59.5C 24.8933,59.6236 24.56,59.9569 24.5,60.5C 23.8333,60.1667 23.1667,59.8333 22.5,59.5C 20.5467,54.5939 18.88,49.5939 17.5,44.5C 17.4346,44.0618 17.6012,43.7284 18,43.5C 21.1175,47.2996 24.9508,49.9663 29.5,51.5 Z"/></g>
<g><path style="opacity:1" fill="#232c75" d="M 47.5,30.5 C 56.0855,33.9647 59.2522,40.2981 57,49.5C 51.5243,58.0042 44.3576,59.6708 35.5,54.5C 31.9383,50.5492 30.605,45.8826 31.5,40.5C 34.4803,33.5382 39.8136,30.2049 47.5,30.5 Z M 50.5,34.5 C 54.5752,39.5087 55.5752,45.1753 53.5,51.5C 52.8333,51.5 52.5,51.8333 52.5,52.5C 47.1667,55.1667 41.8333,55.1667 36.5,52.5C 36.1667,51.8333 35.8333,51.1667 35.5,50.5C 34.5701,46.6002 34.2367,42.6002 34.5,38.5C 36.1667,37.5 37.5,36.1667 38.5,34.5C 42.5,33.1667 46.5,33.1667 50.5,34.5 Z"/></g>
<g><path style="opacity:1" fill="#0a2046" d="M 34.5,38.5 C 34.2367,42.6002 34.5701,46.6002 35.5,50.5C 33.3891,49.2305 32.3891,47.2305 32.5,44.5C 32.5992,42.2014 33.2658,40.2014 34.5,38.5 Z"/></g>
<g><path style="opacity:1" fill="#0c234c" d="M 50.5,34.5 C 53.4521,35.3589 55.2854,37.3589 56,40.5C 56.6667,42.8333 56.6667,45.1667 56,47.5C 55.7996,49.3197 54.9663,50.653 53.5,51.5C 55.5752,45.1753 54.5752,39.5087 50.5,34.5 Z"/></g>
<g><path style="opacity:1" fill="#0c2450" d="M 50.5,34.5 C 46.5,33.1667 42.5,33.1667 38.5,34.5C 40.1175,33.0277 42.1175,32.361 44.5,32.5C 46.8825,32.361 48.8825,33.0277 50.5,34.5 Z"/></g>
<g><path style="opacity:1" fill="#100d2d" d="M 60.5,60.5 C 56.2091,61.7632 51.8757,61.4299 47.5,59.5C 50.9075,58.3814 53.9075,56.7148 56.5,54.5C 58.0931,53.6521 59.2597,52.3187 60,50.5C 60.4983,53.8168 60.665,57.1501 60.5,60.5 Z"/></g>
<g><path style="opacity:1" fill="#211c2e" d="M 47.5,28.5 C 49.7028,28.6036 51.7028,29.2702 53.5,30.5C 55.5475,32.5496 57.2141,34.883 58.5,37.5C 59.3307,40.659 60.3307,43.659 61.5,46.5C 59.0499,48.6291 57.3833,51.2957 56.5,54.5C 53.9075,56.7148 50.9075,58.3814 47.5,59.5C 51.8757,61.4299 56.2091,61.7632 60.5,60.5C 61.3195,57.6946 61.8195,54.6946 62,51.5C 62.7886,55.0915 62.6219,58.5915 61.5,62C 62.0944,62.4643 62.7611,62.631 63.5,62.5C 63.5,62.8333 63.5,63.1667 63.5,63.5C 56.3804,63.8254 49.3804,63.1587 42.5,61.5C 40.3277,60.1983 37.9944,59.0317 35.5,58C 33.2083,55.8843 31.2083,53.7176 29.5,51.5C 29.1667,50.1667 28.8333,48.8333 28.5,47.5C 29.1174,47.6107 29.6174,47.944 30,48.5C 30.1829,45.6353 30.6829,42.9686 31.5,40.5C 30.605,45.8826 31.9383,50.5492 35.5,54.5C 44.3576,59.6708 51.5243,58.0042 57,49.5C 59.2522,40.2981 56.0855,33.9647 47.5,30.5C 48.2389,30.631 48.9056,30.4643 49.5,30C 48.5842,29.7216 47.9175,29.2216 47.5,28.5 Z"/></g>
<g><path style="opacity:1" fill="#0b2249" d="M 36.5,52.5 C 41.8333,55.1667 47.1667,55.1667 52.5,52.5C 50.4924,54.9272 47.8257,55.9272 44.5,55.5C 41.1743,55.9272 38.5076,54.9272 36.5,52.5 Z"/></g>
<g><path style="opacity:1" fill="#060815" d="M 73.5,52.5 C 74.6709,57.8316 74.5042,63.1649 73,68.5C 72.6523,71.3424 71.1523,73.009 68.5,73.5C 60.3292,74.0272 52.3292,73.3605 44.5,71.5C 44.3893,70.8826 44.056,70.3826 43.5,70C 45.764,69.7638 47.9307,69.2638 50,68.5C 51.3431,69.2135 52.6764,68.8802 54,67.5C 55.7583,68.4695 56.2583,69.6361 55.5,71C 56.4162,71.3742 57.2496,71.8742 58,72.5C 61.39,68.6068 65.2233,65.2735 69.5,62.5C 70.9004,60.2183 70.2337,58.7183 67.5,58C 68.9977,55.5184 70.4977,53.0184 72,50.5C 72.2784,51.4158 72.7784,52.0825 73.5,52.5 Z"/></g>
<g><path style="opacity:1" fill="#080427" d="M 42.5,61.5 C 49.3804,63.1587 56.3804,63.8254 63.5,63.5C 58.966,64.2159 54.2994,64.8825 49.5,65.5C 48.676,63.2524 47.676,63.0858 46.5,65C 42.3347,65.7054 38.3347,66.5387 34.5,67.5C 32.3936,66.2171 30.0602,65.3838 27.5,65C 25.8588,63.871 24.8588,62.371 24.5,60.5C 24.56,59.9569 24.8933,59.6236 25.5,59.5C 31.0049,61.2836 36.6715,61.9503 42.5,61.5 Z"/></g>
<g><path style="opacity:1" fill="#04010f" d="M 29.5,69.5 C 31.8823,70.5717 34.2156,71.7383 36.5,73C 35.552,73.4828 34.552,73.6495 33.5,73.5C 31.857,73.5198 30.5237,72.8532 29.5,71.5C 28.3774,72.5437 27.0441,73.2104 25.5,73.5C 22.8214,73.0643 20.1547,72.5643 17.5,72C 17.3062,70.0967 17.3062,68.2633 17.5,66.5C 21.5143,67.5297 25.5143,68.5297 29.5,69.5 Z"/></g>
<g><path style="opacity:0.976" fill="#142450" d="M 13.5,71.5 C 14.5,73.1667 15.8333,74.5 17.5,75.5C 17.0618,75.4346 16.7284,75.6012 16.5,76C 17.4158,76.2784 18.0825,76.7784 18.5,77.5C 15.7374,77.2562 13.5707,75.9229 12,73.5C 10.2038,69.0175 9.37042,64.3509 9.5,59.5C 10.457,63.6072 11.7903,67.6072 13.5,71.5 Z"/></g>
<g><path style="opacity:1" fill="#161122" d="M 5.5,48.5 C 7.13942,50.8061 9.13942,52.8061 11.5,54.5C 12.1174,54.3893 12.6174,54.056 13,53.5C 13.1027,56.319 13.6027,58.319 14.5,59.5C 15.2216,59.0825 15.7216,58.4158 16,57.5C 20.0603,58.9525 21.3937,61.6192 20,65.5C 21.1455,64.3157 22.3121,64.3157 23.5,65.5C 25.8816,66.3507 27.8816,67.684 29.5,69.5C 25.5143,68.5297 21.5143,67.5297 17.5,66.5C 17.3062,68.2633 17.3062,70.0967 17.5,72C 20.1547,72.5643 22.8214,73.0643 25.5,73.5C 27.0441,73.2104 28.3774,72.5437 29.5,71.5C 30.5237,72.8532 31.857,73.5198 33.5,73.5C 31.1667,74.1667 28.8333,74.8333 26.5,75.5C 23.1012,74.9836 19.7679,74.1503 16.5,73C 15.5355,70.7462 14.5355,69.2462 13.5,68.5C 12.6773,65.023 12.1773,61.3563 12,57.5C 8.81448,55.1609 6.64782,52.1609 5.5,48.5 Z"/></g>
<g><path style="opacity:1" fill="#1f1729" d="M 22.5,59.5 C 23.1667,59.8333 23.8333,60.1667 24.5,60.5C 24.8588,62.371 25.8588,63.871 27.5,65C 30.0602,65.3838 32.3936,66.2171 34.5,67.5C 37.8289,68.8307 41.1623,70.164 44.5,71.5C 52.3292,73.3605 60.3292,74.0272 68.5,73.5C 64.3831,74.8615 60.0498,75.8615 55.5,76.5C 54.3954,78.6114 52.7288,79.9447 50.5,80.5C 51.2899,79.2058 52.2899,78.0391 53.5,77C 47.5,75 41.5,75 35.5,77C 36.2524,77.6708 36.5858,78.5041 36.5,79.5C 35.1882,78.8549 34.1882,77.8549 33.5,76.5C 31.2573,75.5258 28.924,75.1924 26.5,75.5C 28.8333,74.8333 31.1667,74.1667 33.5,73.5C 34.552,73.6495 35.552,73.4828 36.5,73C 34.2156,71.7383 31.8823,70.5717 29.5,69.5C 27.8816,67.684 25.8816,66.3507 23.5,65.5C 23.6168,63.5165 22.9501,61.8498 21.5,60.5C 21.6236,59.8933 21.9569,59.56 22.5,59.5 Z"/></g>
<g><path style="opacity:1" fill="#04050f" d="M 50.5,80.5 C 48.3254,80.6822 46.3254,81.3489 44.5,82.5C 41.8172,81.4897 39.1505,80.4897 36.5,79.5C 36.5858,78.5041 36.2524,77.6708 35.5,77C 41.5,75 47.5,75 53.5,77C 52.2899,78.0391 51.2899,79.2058 50.5,80.5 Z"/></g>
<g><path style="opacity:1" fill="#11244c" d="M 73.5,76.5 C 72.5313,77.3094 71.6979,78.3094 71,79.5C 70.4387,78.9781 69.772,78.6448 69,78.5C 65.1592,79.2086 61.3258,79.8752 57.5,80.5C 58.347,79.0337 59.6803,78.2004 61.5,78C 65.5101,77.4987 69.5101,76.9987 73.5,76.5 Z"/></g>
<g><path style="opacity:1" fill="#0a2044" d="M 18.5,77.5 C 22.3875,77.6459 26.0542,78.3126 29.5,79.5C 25.5115,79.8836 21.8448,79.217 18.5,77.5 Z"/></g>
</svg>
