<?xml version="1.0" encoding="UTF-8"?>
<!DOCTYPE svg PUBLIC "-//W3C//DTD SVG 1.1//EN" "http://www.w3.org/Graphics/SVG/1.1/DTD/svg11.dtd">
<svg xmlns="http://www.w3.org/2000/svg" version="1.1" width="100%" height="100%" viewBox="0 0 512 512" style="shape-rendering:geometricPrecision; text-rendering:geometricPrecision; image-rendering:optimizeQuality; fill-rule:evenodd; clip-rule:evenodd" xmlns:xlink="http://www.w3.org/1999/xlink">
<g><path style="opacity:0.963" fill="#360f10" d="M 246.5,8.5 C 253.216,9.85161 259.549,12.3516 265.5,16C 286.224,28.7141 305.224,43.7141 322.5,61C 352.676,59.9551 382.343,63.2884 411.5,71C 414.833,72.3333 418.167,73.6667 421.5,75C 427.121,88.6461 430.954,102.813 433,117.5C 435.423,135.751 436.756,154.084 437,172.5C 457.317,189.806 474.317,209.806 488,232.5C 491.385,238.602 494.218,244.935 496.5,251.5C 484.774,281.726 466.607,307.393 442,328.5C 442.244,355.307 438.911,381.641 432,407.5C 430.828,412.006 428.995,416.173 426.5,420C 406.149,429.087 384.816,434.087 362.5,435C 351.485,435.168 340.485,435.668 329.5,436.5C 308.362,460.987 283.029,479.654 253.5,492.5C 238.702,487.435 225.036,480.268 212.5,471C 198.38,459.88 185.213,447.714 173,434.5C 150.315,435.87 127.815,434.036 105.5,429C 97.4798,427.327 89.8131,424.66 82.5,421C 73.0215,400.584 67.8549,379.084 67,356.5C 66.6667,347.5 66.3333,338.5 66,329.5C 46.2939,311.379 29.9606,290.712 17,267.5C 15.1042,263.811 13.6042,259.978 12.5,256C 25.6235,227.277 43.7902,202.11 67,180.5C 65.9791,151.393 68.9791,122.726 76,94.5C 77.1029,89.6284 78.7696,84.9617 81,80.5C 92.7094,75.5298 104.876,72.0298 117.5,70C 135.724,67.185 154.057,65.5183 172.5,65C 193.961,41.6728 218.627,22.8395 246.5,8.5 Z M 245.5,169.5 C 267.361,169.13 287.361,174.963 305.5,187C 309.667,191.167 313.833,195.333 318,199.5C 343.656,240.724 339.489,278.558 305.5,313C 272.362,336.449 239.028,336.782 205.5,314C 184.244,298.16 173.244,276.827 172.5,250C 173.379,224.577 183.379,203.577 202.5,187C 216.274,179.472 230.607,173.639 245.5,169.5 Z"/></g>
<g><path style="opacity:1" fill="#482e69" d="M 306.5,63.5 C 297.904,65.0433 289.237,66.3766 280.5,67.5C 280.719,66.325 280.386,65.325 279.5,64.5C 274.563,61.9107 271.896,58.2441 271.5,53.5C 268.081,52.2922 264.747,50.7922 261.5,49C 262.5,48.6667 263.5,48.3333 264.5,48C 260.52,46.9125 257.353,44.7458 255,41.5C 253.251,42.299 251.918,41.6324 251,39.5C 250.667,39.8333 250.333,40.1667 250,40.5C 248.649,38.981 247.149,37.6477 245.5,36.5C 246.894,35.3131 246.727,34.6465 245,34.5C 244.055,34.9054 243.388,35.572 243,36.5C 241.899,34.6061 240.566,33.9394 239,34.5C 239.077,33.2624 238.911,32.2624 238.5,31.5C 236.202,31.7982 233.869,31.7982 231.5,31.5C 237.051,26.7246 243.384,23.558 250.5,22C 271.322,32.998 289.989,46.8313 306.5,63.5 Z"/></g>
<g><path style="opacity:1" fill="#4c336d" d="M 231.5,31.5 C 233.869,31.7982 236.202,31.7982 238.5,31.5C 238.911,32.2624 239.077,33.2624 239,34.5C 240.566,33.9394 241.899,34.6061 243,36.5C 243.388,35.572 244.055,34.9054 245,34.5C 246.727,34.6465 246.894,35.3131 245.5,36.5C 247.149,37.6477 248.649,38.981 250,40.5C 250.333,40.1667 250.667,39.8333 251,39.5C 251.918,41.6324 253.251,42.299 255,41.5C 257.353,44.7458 260.52,46.9125 264.5,48C 263.5,48.3333 262.5,48.6667 261.5,49C 264.747,50.7922 268.081,52.2922 271.5,53.5C 271.896,58.2441 274.563,61.9107 279.5,64.5C 280.386,65.325 280.719,66.325 280.5,67.5C 273.621,69.3422 266.621,70.6756 259.5,71.5C 257.879,69.8828 255.879,68.7162 253.5,68C 252.107,66.8289 251.273,65.3289 251,63.5C 250.667,63.8333 250.333,64.1667 250,64.5C 249.558,62.3215 248.558,61.6548 247,62.5C 246.333,61.1667 245.667,59.8333 245,58.5C 243.442,59.3452 242.442,58.6785 242,56.5C 241.026,58.8776 240.359,58.5443 240,55.5C 238.097,55.6938 236.263,55.6938 234.5,55.5C 232.929,53.585 230.929,52.585 228.5,52.5C 228.649,51.448 228.483,50.448 228,49.5C 226.984,50.6341 226.317,50.3008 226,48.5C 225.667,49.1667 225.333,49.8333 225,50.5C 224.333,49.1667 223.667,49.1667 223,50.5C 222.369,49.1281 221.702,47.7948 221,46.5C 219.989,46.8919 219.489,47.5585 219.5,48.5C 217.338,46.9802 215.005,45.9802 212.5,45.5C 218.247,40.0932 224.58,35.4265 231.5,31.5 Z"/></g>
<g><path style="opacity:1" fill="#1c060a" d="M 306.5,63.5 C 289.989,46.8313 271.322,32.998 250.5,22C 243.384,23.558 237.051,26.7246 231.5,31.5C 224.58,35.4265 218.247,40.0932 212.5,45.5C 209.732,47.0872 207.065,48.9205 204.5,51C 198.899,55.9525 193.566,61.1192 188.5,66.5C 187.761,66.631 187.094,66.4643 186.5,66C 204.483,46.8501 225.15,31.3501 248.5,19.5C 270.92,31.0891 291.254,45.5891 309.5,63C 308.552,63.4828 307.552,63.6495 306.5,63.5 Z"/></g>
<g><path style="opacity:1" fill="#503870" d="M 212.5,45.5 C 215.005,45.9802 217.338,46.9802 219.5,48.5C 219.489,47.5585 219.989,46.8919 221,46.5C 221.702,47.7948 222.369,49.1281 223,50.5C 223.667,49.1667 224.333,49.1667 225,50.5C 225.333,49.8333 225.667,49.1667 226,48.5C 226.317,50.3008 226.984,50.6341 228,49.5C 228.483,50.448 228.649,51.448 228.5,52.5C 230.929,52.585 232.929,53.585 234.5,55.5C 236.263,55.6938 238.097,55.6938 240,55.5C 240.359,58.5443 241.026,58.8776 242,56.5C 242.442,58.6785 243.442,59.3452 245,58.5C 245.667,59.8333 246.333,61.1667 247,62.5C 248.558,61.6548 249.558,62.3215 250,64.5C 250.333,64.1667 250.667,63.8333 251,63.5C 251.273,65.3289 252.107,66.8289 253.5,68C 255.879,68.7162 257.879,69.8828 259.5,71.5C 255.666,73.4804 251.499,74.8137 247,75.5C 227.521,71.4093 208.021,68.4093 188.5,66.5C 193.566,61.1192 198.899,55.9525 204.5,51C 207.065,48.9205 209.732,47.0872 212.5,45.5 Z"/></g>
<g><path style="opacity:1" fill="#4d346d" d="M 320.5,74.5 C 324.846,74.3343 329.179,74.501 333.5,75C 331.314,75.6036 331.148,76.7703 333,78.5C 333.833,76 335,75.8333 336.5,78C 335.328,78.4186 334.328,79.0853 333.5,80C 334.665,83.4028 336.332,86.9028 338.5,90.5C 337.39,92.4959 337.724,94.3292 339.5,96C 338.833,96.6667 338.167,97.3333 337.5,98C 338.1,99.6762 339.433,101.343 341.5,103C 340.328,103.419 339.328,104.085 338.5,105C 339.582,106.33 340.249,107.83 340.5,109.5C 317.999,98.7433 294.999,89.41 271.5,81.5C 287.428,77.2246 303.761,74.8913 320.5,74.5 Z"/></g>
<g><path style="opacity:1" fill="#462d68" d="M 320.5,74.5 C 326.491,73.8338 332.657,73.5004 339,73.5C 349.372,73.3825 359.539,74.0492 369.5,75.5C 369.762,78.691 371.095,81.3577 373.5,83.5C 370.833,84.8333 370.833,86.1667 373.5,87.5C 373.354,89.3154 373.188,91.3154 373,93.5C 373.718,92.5494 374.551,92.3828 375.5,93C 374.167,94 374.167,95 375.5,96C 373.285,97.3907 373.285,99.0574 375.5,101C 374.185,102.395 374.519,103.395 376.5,104C 375.5,104.833 374.5,105.667 373.5,106.5C 373.846,107.696 374.346,107.696 375,106.5C 376.691,108.709 376.524,110.542 374.5,112C 375.167,112.667 375.833,113.333 376.5,114C 375.576,114.85 375.576,115.85 376.5,117C 374.175,118.452 374.175,120.119 376.5,122C 376.283,125.225 376.283,128.391 376.5,131.5C 375.733,130.828 375.066,129.995 374.5,129C 363.256,122.237 351.923,115.737 340.5,109.5C 340.249,107.83 339.582,106.33 338.5,105C 339.328,104.085 340.328,103.419 341.5,103C 339.433,101.343 338.1,99.6762 337.5,98C 338.167,97.3333 338.833,96.6667 339.5,96C 337.724,94.3292 337.39,92.4959 338.5,90.5C 336.332,86.9028 334.665,83.4028 333.5,80C 334.328,79.0853 335.328,78.4186 336.5,78C 335,75.8333 333.833,76 333,78.5C 331.148,76.7703 331.314,75.6036 333.5,75C 329.179,74.501 324.846,74.3343 320.5,74.5 Z"/></g>
<g><path style="opacity:1" fill="#412764" d="M 369.5,75.5 C 378.307,75.9961 386.974,77.3295 395.5,79.5C 396.88,82.6466 397.88,85.98 398.5,89.5C 396.862,92.2697 397.195,94.7697 399.5,97C 396.456,97.3589 396.122,98.0255 398.5,99C 397.289,99.8928 397.289,100.726 398.5,101.5C 399.192,100.975 399.692,100.308 400,99.5C 400.658,101.108 400.158,102.275 398.5,103C 399.378,105.077 399.378,107.41 398.5,110C 401.763,110.869 402.096,112.203 399.5,114C 400.641,114.741 400.641,115.575 399.5,116.5C 401.475,117.788 401.475,119.455 399.5,121.5C 400.165,123.101 400.499,124.601 400.5,126C 397.629,128.84 397.963,131.174 401.5,133C 397.5,133.667 397.5,134.333 401.5,135C 398.384,136.952 398.051,139.785 400.5,143.5C 399.5,144.333 398.5,145.167 397.5,146C 398.167,146.333 398.833,146.667 399.5,147C 398.364,148.53 397.364,149.863 396.5,151C 397.167,151.333 397.833,151.667 398.5,152C 396.968,152.7 395.968,153.866 395.5,155.5C 395.778,158.067 395.944,160.733 396,163.5C 397.795,164.719 397.628,165.719 395.5,166.5C 388.916,155.001 382.583,143.334 376.5,131.5C 376.283,128.391 376.283,125.225 376.5,122C 374.175,120.119 374.175,118.452 376.5,117C 375.576,115.85 375.576,114.85 376.5,114C 375.833,113.333 375.167,112.667 374.5,112C 376.524,110.542 376.691,108.709 375,106.5C 374.346,107.696 373.846,107.696 373.5,106.5C 374.5,105.667 375.5,104.833 376.5,104C 374.519,103.395 374.185,102.395 375.5,101C 373.285,99.0574 373.285,97.3907 375.5,96C 374.167,95 374.167,94 375.5,93C 374.551,92.3828 373.718,92.5494 373,93.5C 373.188,91.3154 373.354,89.3154 373.5,87.5C 370.833,86.1667 370.833,84.8333 373.5,83.5C 371.095,81.3577 369.762,78.691 369.5,75.5 Z"/></g>
<g><path style="opacity:1" fill="#1c0608" d="M 151.5,76.5 C 230.028,74.6252 302.195,94.9586 368,137.5C 395.624,182.419 414.624,230.752 425,282.5C 432.253,318.842 432.253,355.176 425,391.5C 423.425,398.556 421.259,405.389 418.5,412C 388.444,423.064 357.444,427.064 325.5,424C 269.174,418.003 216.174,401.336 166.5,374C 157.333,368.833 148.167,363.667 139,358.5C 107.474,309.261 87.8069,255.594 80,197.5C 78.4564,178.195 78.123,158.862 79,139.5C 80.264,122.012 83.764,105.012 89.5,88.5C 98.1855,84.9116 107.186,82.4116 116.5,81C 128.275,79.149 139.942,77.649 151.5,76.5 Z M 245.5,169.5 C 230.607,173.639 216.274,179.472 202.5,187C 183.379,203.577 173.379,224.577 172.5,250C 173.244,276.827 184.244,298.16 205.5,314C 239.028,336.782 272.362,336.449 305.5,313C 339.489,278.558 343.656,240.724 318,199.5C 313.833,195.333 309.667,191.167 305.5,187C 287.361,174.963 267.361,169.13 245.5,169.5 Z"/></g>
<g><path style="opacity:1" fill="#594278" d="M 190.5,78.5 C 191.568,79.4345 192.901,79.7678 194.5,79.5C 194.034,81.2012 194.034,82.7012 194.5,84C 193.692,84.3076 193.025,84.8076 192.5,85.5C 195.988,89.2293 199.655,92.0626 203.5,94C 202.833,94.3333 202.167,94.6667 201.5,95C 203.62,96.5227 203.953,98.3561 202.5,100.5C 203.376,101.251 204.376,101.751 205.5,102C 202.833,102.667 202.833,103.333 205.5,104C 204.833,104.333 204.167,104.667 203.5,105C 204.833,105.333 206.167,105.667 207.5,106C 203.5,107.333 203.5,108.667 207.5,110C 207.056,111.533 206.723,113.033 206.5,114.5C 207.14,117.648 208.14,117.981 209.5,115.5C 210.646,116.145 211.646,116.978 212.5,118C 211.663,119.011 211.33,120.178 211.5,121.5C 207.764,121.66 207.764,122.493 211.5,124C 210.747,125.487 209.914,125.654 209,124.5C 208.25,125.126 207.416,125.626 206.5,126C 207.874,129.243 209.54,132.577 211.5,136C 210.167,136.667 208.833,137.333 207.5,138C 210.167,139 210.167,140 207.5,141C 204.183,141.498 200.85,141.665 197.5,141.5C 186.833,141.5 176.167,141.5 165.5,141.5C 165.842,140.662 166.508,140.328 167.5,140.5C 170.518,140.665 173.518,140.498 176.5,140C 176.167,139.667 175.833,139.333 175.5,139C 176.952,137.042 177.285,135.042 176.5,133C 177.308,132.692 177.975,132.192 178.5,131.5C 177.167,129.833 177.167,128.167 178.5,126.5C 177.975,125.808 177.308,125.308 176.5,125C 177.397,120.927 176.397,117.26 173.5,114C 174.475,111.588 173.808,109.588 171.5,108C 171.833,107.667 172.167,107.333 172.5,107C 171.271,105.471 169.771,104.304 168,103.5C 167.74,101.382 166.74,99.7158 165,98.5C 164.667,98.8333 164.333,99.1667 164,99.5C 163.667,98.5 163.333,97.5 163,96.5C 162.667,96.8333 162.333,97.1667 162,97.5C 161.167,96.5 160.333,95.5 159.5,94.5C 158.325,95.8549 157.325,95.6883 156.5,94C 156.833,93.6667 157.167,93.3333 157.5,93C 154.565,92.6921 151.732,91.5254 149,89.5C 147.853,90.4581 146.853,90.1247 146,88.5C 144.333,88.8333 142.667,89.1667 141,89.5C 140.125,87.4873 138.791,87.4873 137,89.5C 135.667,86.8333 134.333,86.8333 133,89.5C 125.202,89.0565 118.536,91.7231 113,97.5C 112.586,97.0426 112.086,96.7093 111.5,96.5C 109.973,98.1933 108.64,100.027 107.5,102C 106.552,102.483 105.552,102.649 104.5,102.5C 103.107,106.869 100.773,110.702 97.5,114C 100.276,115.779 99.9431,116.779 96.5,117C 97.4623,120.061 97.1289,123.394 95.5,127C 96.0217,129.481 96.0217,131.814 95.5,134C 97.1458,135.555 97.4791,137.221 96.5,139C 98.3348,139.928 98.6682,141.094 97.5,142.5C 99.1466,145.392 100.647,148.392 102,151.5C 102.333,151.167 102.667,150.833 103,150.5C 103.785,152.286 104.951,153.786 106.5,155C 106.167,155.333 105.833,155.667 105.5,156C 109.451,158.614 113.117,161.614 116.5,165C 118.777,165.208 120.943,166.042 123,167.5C 123.333,167.167 123.667,166.833 124,166.5C 125.144,168.917 126.81,169.584 129,168.5C 129.667,169.167 130.333,169.833 131,170.5C 134.616,169.724 137.95,169.724 141,170.5C 142.019,168.498 142.852,166.498 143.5,164.5C 143.5,175.833 143.5,187.167 143.5,198.5C 144.046,203.406 142.546,204.406 139,201.5C 138.667,201.833 138.333,202.167 138,202.5C 136.873,199.093 135.54,199.426 134,203.5C 131.903,203.306 129.737,203.306 127.5,203.5C 126.416,202.335 125.583,201.002 125,199.5C 124.692,200.308 124.192,200.975 123.5,201.5C 122.186,200.687 121.019,199.687 120,198.5C 119.333,201.167 118.667,201.167 118,198.5C 117.667,198.833 117.333,199.167 117,199.5C 114.053,198.219 111.719,196.219 110,193.5C 110.148,194.825 109.982,195.992 109.5,197C 107.82,197.034 106.32,197.201 105,197.5C 104.383,196.551 104.549,195.718 105.5,195C 104.551,194.383 103.718,194.549 103,195.5C 101.915,193.627 100.582,191.96 99,190.5C 98.6667,190.833 98.3333,191.167 98,191.5C 97,189.833 95.6667,188.5 94,187.5C 92.1667,187.667 90.3333,187.833 88.5,188C 88.1322,184.78 86.1322,181.446 82.5,178C 83.624,177.751 84.624,177.251 85.5,176.5C 85.3333,176.167 85.1667,175.833 85,175.5C 83.6667,176.833 82.3333,176.833 81,175.5C 80.5002,165.172 80.3335,154.839 80.5,144.5C 80.9958,128.197 83.4958,112.197 88,96.5C 88.598,93.6922 89.7647,91.1922 91.5,89C 123.837,79.3145 156.837,75.8145 190.5,78.5 Z"/></g>
<g><path style="opacity:1" fill="#553e75" d="M 190.5,78.5 C 195.956,78.5182 201.289,79.1849 206.5,80.5C 207.833,81.9335 209.333,83.2668 211,84.5C 211.156,88.1341 212.156,91.4674 214,94.5C 215.281,94.3808 216.448,94.8808 217.5,96C 216.044,96.4226 215.544,97.2559 216,98.5C 216.741,97.3595 217.575,97.3595 218.5,98.5C 219.262,99.6283 219.929,100.795 220.5,102C 219.707,103.085 219.04,104.252 218.5,105.5C 219.833,106.833 219.833,108.167 218.5,109.5C 219.145,111.432 220.479,112.599 222.5,113C 221.158,115.015 220.658,117.182 221,119.5C 221.333,118.833 221.667,118.167 222,117.5C 224.8,120.549 224.3,123.382 220.5,126C 221.453,127.955 222.787,129.622 224.5,131C 223.833,132 223.167,133 222.5,134C 224.56,137.896 223.56,141.062 219.5,143.5C 211.98,143.283 204.646,142.616 197.5,141.5C 200.85,141.665 204.183,141.498 207.5,141C 210.167,140 210.167,139 207.5,138C 208.833,137.333 210.167,136.667 211.5,136C 209.54,132.577 207.874,129.243 206.5,126C 207.416,125.626 208.25,125.126 209,124.5C 209.914,125.654 210.747,125.487 211.5,124C 207.764,122.493 207.764,121.66 211.5,121.5C 211.33,120.178 211.663,119.011 212.5,118C 211.646,116.978 210.646,116.145 209.5,115.5C 208.14,117.981 207.14,117.648 206.5,114.5C 206.723,113.033 207.056,111.533 207.5,110C 203.5,108.667 203.5,107.333 207.5,106C 206.167,105.667 204.833,105.333 203.5,105C 204.167,104.667 204.833,104.333 205.5,104C 202.833,103.333 202.833,102.667 205.5,102C 204.376,101.751 203.376,101.251 202.5,100.5C 203.953,98.3561 203.62,96.5227 201.5,95C 202.167,94.6667 202.833,94.3333 203.5,94C 199.655,92.0626 195.988,89.2293 192.5,85.5C 193.025,84.8076 193.692,84.3076 194.5,84C 194.034,82.7012 194.034,81.2012 194.5,79.5C 192.901,79.7678 191.568,79.4345 190.5,78.5 Z"/></g>
<g><path style="opacity:1" fill="#533b73" d="M 206.5,80.5 C 219.058,81.3153 231.391,83.3153 243.5,86.5C 247.097,87.791 249.764,89.6243 251.5,92C 249.789,93.1332 249.289,94.6332 250,96.5C 251.5,97.6667 253,98.8333 254.5,100C 252.143,102.461 252.143,105.294 254.5,108.5C 254.154,109.696 253.654,109.696 253,108.5C 252.5,109.5 252,110.5 251.5,111.5C 252.616,111.402 253.616,111.902 254.5,113C 254.975,114.763 255.642,116.43 256.5,118C 255.185,119.395 255.519,120.395 257.5,121C 256.216,121.684 255.049,121.517 254,120.5C 253.333,122.167 253.333,123.833 254,125.5C 254.889,124.112 255.389,124.278 255.5,126C 254.899,127.605 253.899,128.938 252.5,130C 255.167,130.667 255.167,131.333 252.5,132C 253.749,133.824 254.915,133.657 256,131.5C 256.5,132 257,132.5 257.5,133C 257.27,135.286 255.937,137.119 253.5,138.5C 254.664,138.165 255.997,138.165 257.5,138.5C 256.737,139.719 255.737,140.719 254.5,141.5C 255.833,142.5 255.833,143.5 254.5,144.5C 255.167,144.833 255.833,145.167 256.5,145.5C 254.488,147.341 252.155,148.341 249.5,148.5C 239.337,147.028 229.337,145.362 219.5,143.5C 223.56,141.062 224.56,137.896 222.5,134C 223.167,133 223.833,132 224.5,131C 222.787,129.622 221.453,127.955 220.5,126C 224.3,123.382 224.8,120.549 222,117.5C 221.667,118.167 221.333,118.833 221,119.5C 220.658,117.182 221.158,115.015 222.5,113C 220.479,112.599 219.145,111.432 218.5,109.5C 219.833,108.167 219.833,106.833 218.5,105.5C 219.04,104.252 219.707,103.085 220.5,102C 219.929,100.795 219.262,99.6283 218.5,98.5C 217.575,97.3595 216.741,97.3595 216,98.5C 215.544,97.2559 216.044,96.4226 217.5,96C 216.448,94.8808 215.281,94.3808 214,94.5C 212.156,91.4674 211.156,88.1341 211,84.5C 209.333,83.2668 207.833,81.9335 206.5,80.5 Z"/></g>
<g><path style="opacity:1" fill="#3c215f" d="M 395.5,79.5 C 401.719,80.5093 407.552,82.5093 413,85.5C 420.655,110.753 424.489,136.586 424.5,163C 424.121,182.288 422.454,201.455 419.5,220.5C 412.104,202.363 404.104,184.363 395.5,166.5C 397.628,165.719 397.795,164.719 396,163.5C 395.944,160.733 395.778,158.067 395.5,155.5C 395.968,153.866 396.968,152.7 398.5,152C 397.833,151.667 397.167,151.333 396.5,151C 397.364,149.863 398.364,148.53 399.5,147C 398.833,146.667 398.167,146.333 397.5,146C 398.5,145.167 399.5,144.333 400.5,143.5C 398.051,139.785 398.384,136.952 401.5,135C 397.5,134.333 397.5,133.667 401.5,133C 397.963,131.174 397.629,128.84 400.5,126C 400.499,124.601 400.165,123.101 399.5,121.5C 401.475,119.455 401.475,117.788 399.5,116.5C 400.641,115.575 400.641,114.741 399.5,114C 402.096,112.203 401.763,110.869 398.5,110C 399.378,107.41 399.378,105.077 398.5,103C 400.158,102.275 400.658,101.108 400,99.5C 399.692,100.308 399.192,100.975 398.5,101.5C 397.289,100.726 397.289,99.8928 398.5,99C 396.122,98.0255 396.456,97.3589 399.5,97C 397.195,94.7697 396.862,92.2697 398.5,89.5C 397.88,85.98 396.88,82.6466 395.5,79.5 Z"/></g>
<g><path style="opacity:1" fill="#5f4780" d="M 167.5,140.5 C 172.883,119.947 165.217,105.28 144.5,96.5C 141.709,98.0398 139.209,97.7064 137,95.5C 134.282,96.3468 131.616,97.3468 129,98.5C 128.586,98.0426 128.086,97.7093 127.5,97.5C 124.09,98.9108 120.757,100.411 117.5,102C 115.355,105.312 112.688,108.146 109.5,110.5C 108.048,113.737 106.881,117.07 106,120.5C 103.332,121.98 103.165,123.48 105.5,125C 103.819,126.945 103.152,128.945 103.5,131C 104.562,135.598 106.229,139.932 108.5,144C 108.167,144.333 107.833,144.667 107.5,145C 109.699,147.531 112.032,150.531 114.5,154C 118.213,156.073 121.88,158.239 125.5,160.5C 126.842,159.098 127.676,159.431 128,161.5C 129.868,160.335 131.702,160.668 133.5,162.5C 136.047,161.289 138.547,161.289 141,162.5C 141.342,160.381 142.175,160.047 143.5,161.5C 143.5,162.5 143.5,163.5 143.5,164.5C 142.852,166.498 142.019,168.498 141,170.5C 137.95,169.724 134.616,169.724 131,170.5C 130.333,169.833 129.667,169.167 129,168.5C 126.81,169.584 125.144,168.917 124,166.5C 123.667,166.833 123.333,167.167 123,167.5C 120.943,166.042 118.777,165.208 116.5,165C 113.117,161.614 109.451,158.614 105.5,156C 105.833,155.667 106.167,155.333 106.5,155C 104.951,153.786 103.785,152.286 103,150.5C 102.667,150.833 102.333,151.167 102,151.5C 100.647,148.392 99.1466,145.392 97.5,142.5C 98.6682,141.094 98.3348,139.928 96.5,139C 97.4791,137.221 97.1458,135.555 95.5,134C 96.0217,131.814 96.0217,129.481 95.5,127C 97.1289,123.394 97.4623,120.061 96.5,117C 99.9431,116.779 100.276,115.779 97.5,114C 100.773,110.702 103.107,106.869 104.5,102.5C 105.552,102.649 106.552,102.483 107.5,102C 108.64,100.027 109.973,98.1933 111.5,96.5C 112.086,96.7093 112.586,97.0426 113,97.5C 118.536,91.7231 125.202,89.0565 133,89.5C 134.333,86.8333 135.667,86.8333 137,89.5C 138.791,87.4873 140.125,87.4873 141,89.5C 142.667,89.1667 144.333,88.8333 146,88.5C 146.853,90.1247 147.853,90.4581 149,89.5C 151.732,91.5254 154.565,92.6921 157.5,93C 157.167,93.3333 156.833,93.6667 156.5,94C 157.325,95.6883 158.325,95.8549 159.5,94.5C 160.333,95.5 161.167,96.5 162,97.5C 162.333,97.1667 162.667,96.8333 163,96.5C 163.333,97.5 163.667,98.5 164,99.5C 164.333,99.1667 164.667,98.8333 165,98.5C 166.74,99.7158 167.74,101.382 168,103.5C 169.771,104.304 171.271,105.471 172.5,107C 172.167,107.333 171.833,107.667 171.5,108C 173.808,109.588 174.475,111.588 173.5,114C 176.397,117.26 177.397,120.927 176.5,125C 177.308,125.308 177.975,125.808 178.5,126.5C 177.167,128.167 177.167,129.833 178.5,131.5C 177.975,132.192 177.308,132.692 176.5,133C 177.285,135.042 176.952,137.042 175.5,139C 175.833,139.333 176.167,139.667 176.5,140C 173.518,140.498 170.518,140.665 167.5,140.5 Z"/></g>
<g><path style="opacity:1" fill="#4f3770" d="M 243.5,86.5 C 251.327,88.0398 258.994,90.0398 266.5,92.5C 267.451,94.6195 268.951,96.2862 271,97.5C 271.333,97.1667 271.667,96.8333 272,96.5C 272.483,97.448 272.649,98.448 272.5,99.5C 271.5,99.5 270.5,99.5 269.5,99.5C 269.421,100.93 269.754,102.264 270.5,103.5C 269.833,104.167 269.167,104.833 268.5,105.5C 270.271,105.28 271.938,106.113 273.5,108C 272.366,109.016 272.699,109.683 274.5,110C 272.044,111.913 272.378,113.579 275.5,115C 273.854,116.555 273.521,118.221 274.5,120C 272.411,121.572 272.411,123.405 274.5,125.5C 275.376,126.251 276.376,126.751 277.5,127C 276.159,128.295 274.826,128.795 273.5,128.5C 273.534,132.636 273.534,136.803 273.5,141C 274.167,141.333 274.833,141.667 275.5,142C 272.921,143.729 272.921,145.562 275.5,147.5C 274.664,151.341 272.331,153.341 268.5,153.5C 261.946,152.279 255.612,150.613 249.5,148.5C 252.155,148.341 254.488,147.341 256.5,145.5C 255.833,145.167 255.167,144.833 254.5,144.5C 255.833,143.5 255.833,142.5 254.5,141.5C 255.737,140.719 256.737,139.719 257.5,138.5C 255.997,138.165 254.664,138.165 253.5,138.5C 255.937,137.119 257.27,135.286 257.5,133C 257,132.5 256.5,132 256,131.5C 254.915,133.657 253.749,133.824 252.5,132C 255.167,131.333 255.167,130.667 252.5,130C 253.899,128.938 254.899,127.605 255.5,126C 255.389,124.278 254.889,124.112 254,125.5C 253.333,123.833 253.333,122.167 254,120.5C 255.049,121.517 256.216,121.684 257.5,121C 255.519,120.395 255.185,119.395 256.5,118C 255.642,116.43 254.975,114.763 254.5,113C 253.616,111.902 252.616,111.402 251.5,111.5C 252,110.5 252.5,109.5 253,108.5C 253.654,109.696 254.154,109.696 254.5,108.5C 252.143,105.294 252.143,102.461 254.5,100C 253,98.8333 251.5,97.6667 250,96.5C 249.289,94.6332 249.789,93.1332 251.5,92C 249.764,89.6243 247.097,87.791 243.5,86.5 Z"/></g>
<g><path style="opacity:1" fill="#4c336d" d="M 266.5,92.5 C 279.809,96.3803 292.809,101.047 305.5,106.5C 304.368,108.467 304.701,110.3 306.5,112C 302.639,111.995 302.473,113.495 306,116.5C 307.049,115.483 308.216,115.316 309.5,116C 308.167,116.667 306.833,117.333 305.5,118C 307.002,118.583 308.335,119.416 309.5,120.5C 309.333,120.833 309.167,121.167 309,121.5C 307.663,120.235 306.163,119.735 304.5,120C 304.799,121.32 304.966,122.82 305,124.5C 305.92,124.93 306.753,125.264 307.5,125.5C 306.758,127.35 305.758,128.016 304.5,127.5C 305.981,128.48 307.315,129.647 308.5,131C 307.207,131.49 305.873,131.657 304.5,131.5C 304.67,132.822 304.337,133.989 303.5,135C 305.341,137.257 306.674,139.757 307.5,142.5C 304.402,142.413 304.068,142.913 306.5,144C 304.043,145.512 304.043,146.846 306.5,148C 304.787,149.378 303.453,151.045 302.5,153C 303.742,154.875 305.076,156.709 306.5,158.5C 305.271,159.281 303.938,159.781 302.5,160C 306.272,161.389 306.272,162.389 302.5,163C 301.167,163.667 301.167,164.333 302.5,165C 301.552,165.483 300.552,165.649 299.5,165.5C 289.091,161.479 278.758,157.479 268.5,153.5C 272.331,153.341 274.664,151.341 275.5,147.5C 272.921,145.562 272.921,143.729 275.5,142C 274.833,141.667 274.167,141.333 273.5,141C 273.534,136.803 273.534,132.636 273.5,128.5C 274.826,128.795 276.159,128.295 277.5,127C 276.376,126.751 275.376,126.251 274.5,125.5C 272.411,123.405 272.411,121.572 274.5,120C 273.521,118.221 273.854,116.555 275.5,115C 272.378,113.579 272.044,111.913 274.5,110C 272.699,109.683 272.366,109.016 273.5,108C 271.938,106.113 270.271,105.28 268.5,105.5C 269.167,104.833 269.833,104.167 270.5,103.5C 269.754,102.264 269.421,100.93 269.5,99.5C 270.5,99.5 271.5,99.5 272.5,99.5C 272.649,98.448 272.483,97.448 272,96.5C 271.667,96.8333 271.333,97.1667 271,97.5C 268.951,96.2862 267.451,94.6195 266.5,92.5 Z"/></g>
<g><path style="opacity:1" fill="#634986" d="M 167.5,140.5 C 166.508,140.328 165.842,140.662 165.5,141.5C 161.519,142.021 157.519,142.354 153.5,142.5C 154.609,141.71 155.942,141.21 157.5,141C 158.257,139.488 159.257,138.154 160.5,137C 160.167,136.667 159.833,136.333 159.5,136C 162.663,126.165 159.997,117.498 151.5,110C 148.242,108.749 145.742,107.249 144,105.5C 140.959,106.504 137.959,106.17 135,104.5C 131.335,106.153 127.835,107.319 124.5,108C 122.938,110.563 120.772,112.396 118,113.5C 116.307,117.051 114.474,120.551 112.5,124C 113.397,127.118 113.397,130.118 112.5,133C 114.689,133.677 115.022,134.844 113.5,136.5C 119.631,149.734 129.964,155.4 144.5,153.5C 143.908,156.127 143.575,158.794 143.5,161.5C 142.175,160.047 141.342,160.381 141,162.5C 138.547,161.289 136.047,161.289 133.5,162.5C 131.702,160.668 129.868,160.335 128,161.5C 127.676,159.431 126.842,159.098 125.5,160.5C 121.88,158.239 118.213,156.073 114.5,154C 112.032,150.531 109.699,147.531 107.5,145C 107.833,144.667 108.167,144.333 108.5,144C 106.229,139.932 104.562,135.598 103.5,131C 103.152,128.945 103.819,126.945 105.5,125C 103.165,123.48 103.332,121.98 106,120.5C 106.881,117.07 108.048,113.737 109.5,110.5C 112.688,108.146 115.355,105.312 117.5,102C 120.757,100.411 124.09,98.9108 127.5,97.5C 128.086,97.7093 128.586,98.0426 129,98.5C 131.616,97.3468 134.282,96.3468 137,95.5C 139.209,97.7064 141.709,98.0398 144.5,96.5C 165.217,105.28 172.883,119.947 167.5,140.5 Z"/></g>
<g><path style="opacity:1" fill="#674b8b" d="M 153.5,142.5 C 151.321,143.103 149.154,143.77 147,144.5C 145.953,147.466 145.119,150.466 144.5,153.5C 129.964,155.4 119.631,149.734 113.5,136.5C 115.022,134.844 114.689,133.677 112.5,133C 113.397,130.118 113.397,127.118 112.5,124C 114.474,120.551 116.307,117.051 118,113.5C 120.772,112.396 122.938,110.563 124.5,108C 127.835,107.319 131.335,106.153 135,104.5C 137.959,106.17 140.959,106.504 144,105.5C 145.742,107.249 148.242,108.749 151.5,110C 159.997,117.498 162.663,126.165 159.5,136C 159.833,136.333 160.167,136.667 160.5,137C 159.257,138.154 158.257,139.488 157.5,141C 155.942,141.21 154.609,141.71 153.5,142.5 Z"/></g>
<g><path style="opacity:1" fill="#492f6b" d="M 305.5,106.5 C 312.019,109.261 318.352,112.261 324.5,115.5C 325.292,117.257 326.625,118.591 328.5,119.5C 326.799,119.19 325.132,119.69 323.5,121C 324.061,122.676 325.061,124.009 326.5,125C 326.167,125.333 325.833,125.667 325.5,126C 326.448,126.483 327.448,126.649 328.5,126.5C 328.657,127.873 328.49,129.207 328,130.5C 327.667,130.167 327.333,129.833 327,129.5C 326.167,131 325,132.167 323.5,133C 327.543,135.919 328.21,139.419 325.5,143.5C 325.667,144.167 325.833,144.833 326,145.5C 327.043,141.774 327.543,142.107 327.5,146.5C 326.448,146.351 325.448,146.517 324.5,147C 325.913,149.387 326.58,151.72 326.5,154C 325.167,155 323.833,156 322.5,157C 324.087,157.862 325.754,158.529 327.5,159C 325.807,160.713 324.474,162.713 323.5,165C 324.956,165.423 325.456,166.256 325,167.5C 324,166.833 323,166.167 322,165.5C 321.727,167.329 320.893,168.829 319.5,170C 320.833,171 320.833,172 319.5,173C 320.167,173.333 320.833,173.667 321.5,174C 320.027,174.71 319.36,175.876 319.5,177.5C 312.798,173.485 306.131,169.485 299.5,165.5C 300.552,165.649 301.552,165.483 302.5,165C 301.167,164.333 301.167,163.667 302.5,163C 306.272,162.389 306.272,161.389 302.5,160C 303.938,159.781 305.271,159.281 306.5,158.5C 305.076,156.709 303.742,154.875 302.5,153C 303.453,151.045 304.787,149.378 306.5,148C 304.043,146.846 304.043,145.512 306.5,144C 304.068,142.913 304.402,142.413 307.5,142.5C 306.674,139.757 305.341,137.257 303.5,135C 304.337,133.989 304.67,132.822 304.5,131.5C 305.873,131.657 307.207,131.49 308.5,131C 307.315,129.647 305.981,128.48 304.5,127.5C 305.758,128.016 306.758,127.35 307.5,125.5C 306.753,125.264 305.92,124.93 305,124.5C 304.966,122.82 304.799,121.32 304.5,120C 306.163,119.735 307.663,120.235 309,121.5C 309.167,121.167 309.333,120.833 309.5,120.5C 308.335,119.416 307.002,118.583 305.5,118C 306.833,117.333 308.167,116.667 309.5,116C 308.216,115.316 307.049,115.483 306,116.5C 302.473,113.495 302.639,111.995 306.5,112C 304.701,110.3 304.368,108.467 305.5,106.5 Z"/></g>
<g><path style="opacity:1" fill="#1b0506" d="M 419.5,220.5 C 422.454,201.455 424.121,182.288 424.5,163C 424.489,136.586 420.655,110.753 413,85.5C 407.552,82.5093 401.719,80.5093 395.5,79.5C 386.974,77.3295 378.307,75.9961 369.5,75.5C 359.539,74.0492 349.372,73.3825 339,73.5C 332.657,73.5004 326.491,73.8338 320.5,74.5C 303.761,74.8913 287.428,77.2246 271.5,81.5C 270.249,80.528 270.582,79.8614 272.5,79.5C 308.579,72.0316 344.912,70.5316 381.5,75C 392.444,76.9022 403.11,79.7355 413.5,83.5C 420.343,103.552 424.176,124.219 425,145.5C 425.667,159.5 425.667,173.5 425,187.5C 424.148,200.673 422.315,211.673 419.5,220.5 Z"/></g>
<g><path style="opacity:1" fill="#6d4e92" d="M 138.5,112.5 C 141.524,113.877 144.524,115.21 147.5,116.5C 147.5,117.5 147.5,118.5 147.5,119.5C 150.9,119.731 152.9,121.564 153.5,125C 151.821,127.972 151.488,130.639 152.5,133C 150.061,137.493 146.561,141.66 142,145.5C 139.667,145.167 137.333,144.833 135,144.5C 134.667,145.167 134.333,145.833 134,146.5C 133,145.167 132,143.833 131,142.5C 130.676,144.569 129.842,144.902 128.5,143.5C 127.614,142.675 127.281,141.675 127.5,140.5C 124.892,140.394 122.892,139.228 121.5,137C 123.039,133.658 122.373,130.658 119.5,128C 121.394,126.921 121.727,125.587 120.5,124C 121.448,123.517 122.448,123.351 123.5,123.5C 123.5,122.167 123.5,120.833 123.5,119.5C 124.5,119.5 125.5,119.5 126.5,119.5C 126.537,115.775 128.204,114.442 131.5,115.5C 133.122,113.561 134.956,113.228 137,114.5C 137.717,113.956 138.217,113.289 138.5,112.5 Z"/></g>
<g><path style="opacity:1" fill="#462c68" d="M 324.5,115.5 C 334.645,119.738 344.312,124.738 353.5,130.5C 352.451,130.598 351.285,130.598 350,130.5C 349.095,133.232 349.762,133.899 352,132.5C 353.059,132.63 353.892,133.13 354.5,134C 353.167,134.667 353.167,135.333 354.5,136C 350.728,137.389 350.728,138.389 354.5,139C 352.431,139.324 352.098,140.158 353.5,141.5C 352.96,142.748 352.293,143.915 351.5,145C 352.206,146.91 353.206,148.91 354.5,151C 351.532,152.263 350.532,154.263 351.5,157C 349.109,158.309 349.109,159.309 351.5,160C 350.167,160.667 350.167,161.333 351.5,162C 349.893,163.049 349.227,164.549 349.5,166.5C 350.552,166.351 351.552,166.517 352.5,167C 351.167,167.667 349.833,168.333 348.5,169C 352.531,171.206 352.364,171.706 348,170.5C 347.383,171.449 347.549,172.282 348.5,173C 347.167,173.333 345.833,173.667 344.5,174C 345.5,175 346.5,176 347.5,177C 345.405,177.556 345.238,178.056 347,178.5C 348.892,175.61 349.725,175.944 349.5,179.5C 347.335,179.116 345.668,179.783 344.5,181.5C 345.441,181.489 346.108,181.989 346.5,183C 345.063,186.316 343.73,189.65 342.5,193C 343.167,193.333 343.833,193.667 344.5,194C 343.449,195.385 342.116,196.385 340.5,197C 341.552,198.716 340.886,199.716 338.5,200C 339.5,200.333 340.5,200.667 341.5,201C 340.309,201.698 339.309,202.531 338.5,203.5C 334.024,196.565 329.524,189.565 325,182.5C 323.296,180.627 321.463,178.96 319.5,177.5C 319.36,175.876 320.027,174.71 321.5,174C 320.833,173.667 320.167,173.333 319.5,173C 320.833,172 320.833,171 319.5,170C 320.893,168.829 321.727,167.329 322,165.5C 323,166.167 324,166.833 325,167.5C 325.456,166.256 324.956,165.423 323.5,165C 324.474,162.713 325.807,160.713 327.5,159C 325.754,158.529 324.087,157.862 322.5,157C 323.833,156 325.167,155 326.5,154C 326.58,151.72 325.913,149.387 324.5,147C 325.448,146.517 326.448,146.351 327.5,146.5C 327.543,142.107 327.043,141.774 326,145.5C 325.833,144.833 325.667,144.167 325.5,143.5C 328.21,139.419 327.543,135.919 323.5,133C 325,132.167 326.167,131 327,129.5C 327.333,129.833 327.667,130.167 328,130.5C 328.49,129.207 328.657,127.873 328.5,126.5C 327.448,126.649 326.448,126.483 325.5,126C 325.833,125.667 326.167,125.333 326.5,125C 325.061,124.009 324.061,122.676 323.5,121C 325.132,119.69 326.799,119.19 328.5,119.5C 326.625,118.591 325.292,117.257 324.5,115.5 Z"/></g>
<g><path style="opacity:1" fill="#422765" d="M 353.5,130.5 C 357.559,132.948 361.725,135.281 366,137.5C 372.159,147.153 377.659,157.153 382.5,167.5C 381.005,169.797 380.005,172.13 379.5,174.5C 379.846,175.696 380.346,175.696 381,174.5C 381.5,175.5 382,176.5 382.5,177.5C 381.092,178.243 379.759,179.077 378.5,180C 378.5,181.667 378.5,183.333 378.5,185C 379.167,185.667 379.833,186.333 380.5,187C 379.151,187.772 378.318,188.939 378,190.5C 377.667,189.5 377.333,188.5 377,187.5C 376.349,189.235 376.515,190.902 377.5,192.5C 375.665,193.428 375.332,194.594 376.5,196C 375.833,196.333 375.167,196.667 374.5,197C 375.624,197.249 376.624,197.749 377.5,198.5C 376.145,200.929 374.478,202.262 372.5,202.5C 374.475,203.788 374.475,205.455 372.5,207.5C 373.713,209.851 373.047,211.684 370.5,213C 370.833,213.333 371.167,213.667 371.5,214C 367.148,214.419 366.815,215.086 370.5,216C 368.327,217.865 367.993,220.031 369.5,222.5C 369.062,223.506 368.396,223.506 367.5,222.5C 366.315,223.853 364.981,225.02 363.5,226C 364.574,226.739 365.241,227.739 365.5,229C 365.087,230.796 365.087,232.463 365.5,234C 364.004,234.507 362.837,234.007 362,232.5C 361.383,233.449 361.549,234.282 362.5,235C 360.789,236.435 359.622,238.269 359,240.5C 358.667,239.833 358.333,239.167 358,238.5C 357.982,240.797 358.149,243.131 358.5,245.5C 356.833,245.5 355.167,245.5 353.5,245.5C 349.686,231.055 344.686,217.055 338.5,203.5C 339.309,202.531 340.309,201.698 341.5,201C 340.5,200.667 339.5,200.333 338.5,200C 340.886,199.716 341.552,198.716 340.5,197C 342.116,196.385 343.449,195.385 344.5,194C 343.833,193.667 343.167,193.333 342.5,193C 343.73,189.65 345.063,186.316 346.5,183C 346.108,181.989 345.441,181.489 344.5,181.5C 345.668,179.783 347.335,179.116 349.5,179.5C 349.725,175.944 348.892,175.61 347,178.5C 345.238,178.056 345.405,177.556 347.5,177C 346.5,176 345.5,175 344.5,174C 345.833,173.667 347.167,173.333 348.5,173C 347.549,172.282 347.383,171.449 348,170.5C 352.364,171.706 352.531,171.206 348.5,169C 349.833,168.333 351.167,167.667 352.5,167C 351.552,166.517 350.552,166.351 349.5,166.5C 349.227,164.549 349.893,163.049 351.5,162C 350.167,161.333 350.167,160.667 351.5,160C 349.109,159.309 349.109,158.309 351.5,157C 350.532,154.263 351.532,152.263 354.5,151C 353.206,148.91 352.206,146.91 351.5,145C 352.293,143.915 352.96,142.748 353.5,141.5C 352.098,140.158 352.431,139.324 354.5,139C 350.728,138.389 350.728,137.389 354.5,136C 353.167,135.333 353.167,134.667 354.5,134C 353.892,133.13 353.059,132.63 352,132.5C 349.762,133.899 349.095,133.232 350,130.5C 351.285,130.598 352.451,130.598 353.5,130.5 Z"/></g>
<g><path style="opacity:1" fill="#553e75" d="M 80.5,144.5 C 80.3335,154.839 80.5002,165.172 81,175.5C 82.3333,176.833 83.6667,176.833 85,175.5C 85.1667,175.833 85.3333,176.167 85.5,176.5C 84.624,177.251 83.624,177.751 82.5,178C 86.1322,181.446 88.1322,184.78 88.5,188C 90.3333,187.833 92.1667,187.667 94,187.5C 95.6667,188.5 97,189.833 98,191.5C 98.3333,191.167 98.6667,190.833 99,190.5C 100.582,191.96 101.915,193.627 103,195.5C 103.718,194.549 104.551,194.383 105.5,195C 104.549,195.718 104.383,196.551 105,197.5C 106.32,197.201 107.82,197.034 109.5,197C 109.982,195.992 110.148,194.825 110,193.5C 111.719,196.219 114.053,198.219 117,199.5C 117.333,199.167 117.667,198.833 118,198.5C 118.667,201.167 119.333,201.167 120,198.5C 121.019,199.687 122.186,200.687 123.5,201.5C 124.192,200.975 124.692,200.308 125,199.5C 125.583,201.002 126.416,202.335 127.5,203.5C 129.737,203.306 131.903,203.306 134,203.5C 135.54,199.426 136.873,199.093 138,202.5C 138.333,202.167 138.667,201.833 139,201.5C 142.546,204.406 144.046,203.406 143.5,198.5C 144.482,201.962 144.815,205.629 144.5,209.5C 144.662,211.527 144.495,213.527 144,215.5C 143.333,211.5 142.667,211.5 142,215.5C 140.984,214.366 140.317,214.699 140,216.5C 139.026,214.122 138.359,214.456 138,217.5C 135.75,214.644 133.417,213.978 131,215.5C 129.667,214.833 128.667,213.833 128,212.5C 127.667,213.167 127.333,213.833 127,214.5C 125.284,214.589 123.451,214.256 121.5,213.5C 121.167,214.167 120.833,214.833 120.5,215.5C 119.803,213.615 118.803,213.282 117.5,214.5C 116.5,213.167 115.5,211.833 114.5,210.5C 112.329,210.727 110.162,211.06 108,211.5C 106.333,209.833 104.667,208.167 103,206.5C 102.585,208.291 101.585,209.624 100,210.5C 100.333,209.167 100.667,207.833 101,206.5C 99.1598,207.833 98.6598,207.666 99.5,206C 97.9391,205.682 96.7724,204.849 96,203.5C 94.984,204.634 94.3173,204.301 94,202.5C 92.7318,202.616 91.3985,202.949 90,203.5C 87.8777,202.78 87.3777,201.613 88.5,200C 87.5,199.667 86.5,199.333 85.5,199C 85.8333,198.667 86.1667,198.333 86.5,198C 85.2559,197.544 84.4226,198.044 84,199.5C 83.5831,198.244 82.7498,197.577 81.5,197.5C 79.4505,179.715 79.1172,162.048 80.5,144.5 Z"/></g>
<g><path style="opacity:1" fill="#3c2260" d="M 382.5,167.5 C 392.779,186.732 401.446,206.732 408.5,227.5C 406.493,226.321 406.16,226.821 407.5,229C 406.035,232.099 404.701,235.266 403.5,238.5C 405.024,240.792 404.691,242.792 402.5,244.5C 401.604,243.494 400.938,243.494 400.5,244.5C 401.025,245.192 401.692,245.692 402.5,246C 401.421,248.043 399.754,249.376 397.5,250C 397.957,250.414 398.291,250.914 398.5,251.5C 396.159,256.076 393.493,259.909 390.5,263C 392.988,264.685 392.655,266.019 389.5,267C 390.308,267.308 390.975,267.808 391.5,268.5C 390.253,270.323 389.586,272.323 389.5,274.5C 385.124,272.869 383.457,274.536 384.5,279.5C 383.5,279.5 382.5,279.5 381.5,279.5C 381.33,280.822 381.663,281.989 382.5,283C 380.56,282.822 378.893,283.822 377.5,286C 377.745,288.089 377.745,290.089 377.5,292C 376.333,293.167 375.167,294.333 374,295.5C 373.667,295.167 373.333,294.833 373,294.5C 372.598,295.872 372.098,297.205 371.5,298.5C 369.833,299.5 368.5,300.833 367.5,302.5C 368.025,303.192 368.692,303.692 369.5,304C 366.905,304.889 364.905,306.389 363.5,308.5C 362.214,287.317 358.881,266.317 353.5,245.5C 355.167,245.5 356.833,245.5 358.5,245.5C 358.149,243.131 357.982,240.797 358,238.5C 358.333,239.167 358.667,239.833 359,240.5C 359.622,238.269 360.789,236.435 362.5,235C 361.549,234.282 361.383,233.449 362,232.5C 362.837,234.007 364.004,234.507 365.5,234C 365.087,232.463 365.087,230.796 365.5,229C 365.241,227.739 364.574,226.739 363.5,226C 364.981,225.02 366.315,223.853 367.5,222.5C 368.396,223.506 369.062,223.506 369.5,222.5C 367.993,220.031 368.327,217.865 370.5,216C 366.815,215.086 367.148,214.419 371.5,214C 371.167,213.667 370.833,213.333 370.5,213C 373.047,211.684 373.713,209.851 372.5,207.5C 374.475,205.455 374.475,203.788 372.5,202.5C 374.478,202.262 376.145,200.929 377.5,198.5C 376.624,197.749 375.624,197.249 374.5,197C 375.167,196.667 375.833,196.333 376.5,196C 375.332,194.594 375.665,193.428 377.5,192.5C 376.515,190.902 376.349,189.235 377,187.5C 377.333,188.5 377.667,189.5 378,190.5C 378.318,188.939 379.151,187.772 380.5,187C 379.833,186.333 379.167,185.667 378.5,185C 378.5,183.333 378.5,181.667 378.5,180C 379.759,179.077 381.092,178.243 382.5,177.5C 382,176.5 381.5,175.5 381,174.5C 380.346,175.696 379.846,175.696 379.5,174.5C 380.005,172.13 381.005,169.797 382.5,167.5 Z"/></g>
<g><path style="opacity:1" fill="#351959" d="M 434.5,187.5 C 455.188,205.565 471.522,226.898 483.5,251.5C 473.258,275.322 458.591,295.989 439.5,313.5C 436.84,289.531 432.506,265.864 426.5,242.5C 430.361,224.336 433.027,206.003 434.5,187.5 Z"/></g>
<g><path style="opacity:1" fill="#533b73" d="M 81.5,197.5 C 82.7498,197.577 83.5831,198.244 84,199.5C 84.4226,198.044 85.2559,197.544 86.5,198C 86.1667,198.333 85.8333,198.667 85.5,199C 86.5,199.333 87.5,199.667 88.5,200C 87.3777,201.613 87.8777,202.78 90,203.5C 91.3985,202.949 92.7318,202.616 94,202.5C 94.3173,204.301 94.984,204.634 96,203.5C 96.7724,204.849 97.9391,205.682 99.5,206C 98.6598,207.666 99.1598,207.833 101,206.5C 100.667,207.833 100.333,209.167 100,210.5C 101.585,209.624 102.585,208.291 103,206.5C 104.667,208.167 106.333,209.833 108,211.5C 110.162,211.06 112.329,210.727 114.5,210.5C 115.5,211.833 116.5,213.167 117.5,214.5C 118.803,213.282 119.803,213.615 120.5,215.5C 120.833,214.833 121.167,214.167 121.5,213.5C 123.451,214.256 125.284,214.589 127,214.5C 127.333,213.833 127.667,213.167 128,212.5C 128.667,213.833 129.667,214.833 131,215.5C 133.417,213.978 135.75,214.644 138,217.5C 138.359,214.456 139.026,214.122 140,216.5C 140.317,214.699 140.984,214.366 142,215.5C 142.667,211.5 143.333,211.5 144,215.5C 144.495,213.527 144.662,211.527 144.5,209.5C 146.551,221.427 148.885,233.427 151.5,245.5C 151.189,246.478 150.522,247.145 149.5,247.5C 147.627,248.089 145.96,247.422 144.5,245.5C 143.575,246.641 142.741,246.641 142,245.5C 141.125,247.513 139.791,247.513 138,245.5C 136.418,246.96 135.085,248.627 134,250.5C 133.758,248.862 132.925,247.362 131.5,246C 130.451,245.508 129.451,245.674 128.5,246.5C 127.11,244.797 125.61,244.13 124,244.5C 121.904,245.715 122.071,246.549 124.5,247C 122.86,249.054 121.194,249.387 119.5,248C 120.167,247.667 120.833,247.333 121.5,247C 120.838,245.668 119.672,244.502 118,243.5C 117.692,244.308 117.192,244.975 116.5,245.5C 115.232,244.572 113.899,244.405 112.5,245C 113.696,245.654 113.696,246.154 112.5,246.5C 109.812,245.995 107.645,244.662 106,242.5C 105.667,242.833 105.333,243.167 105,243.5C 104.667,242.167 104.333,240.833 104,239.5C 102.667,240.833 101.333,242.167 100,243.5C 99.3828,242.551 99.5494,241.718 100.5,241C 98.7289,238.887 97.2289,239.053 96,241.5C 95.6667,240.833 95.3333,240.167 95,239.5C 93.3745,239.854 91.5412,239.854 89.5,239.5C 85.8165,225.726 83.1498,211.726 81.5,197.5 Z"/></g>
<g><path style="opacity:1" fill="#4c336c" d="M 69.5,195.5 C 72.0361,213.188 75.3694,230.854 79.5,248.5C 76.7081,248.548 74.8747,247.215 74,244.5C 73.6667,244.833 73.3333,245.167 73,245.5C 72.6667,244.167 72.3333,242.833 72,241.5C 70.1598,242.833 69.6598,242.666 70.5,241C 69.3971,237.564 67.0637,235.564 63.5,235C 64.731,233.817 64.731,232.651 63.5,231.5C 62.914,231.709 62.414,232.043 62,232.5C 61.9071,229.993 61.0738,227.826 59.5,226C 59.8333,225.667 60.1667,225.333 60.5,225C 59.2182,223.308 57.5515,221.308 55.5,219C 54.7766,216.698 54.7766,214.198 55.5,211.5C 59.823,205.845 64.4897,200.512 69.5,195.5 Z"/></g>
<g><path style="opacity:1" fill="#462d69" d="M 55.5,211.5 C 54.7766,214.198 54.7766,216.698 55.5,219C 57.5515,221.308 59.2182,223.308 60.5,225C 60.1667,225.333 59.8333,225.667 59.5,226C 61.0738,227.826 61.9071,229.993 62,232.5C 62.414,232.043 62.914,231.709 63.5,231.5C 64.731,232.651 64.731,233.817 63.5,235C 67.0637,235.564 69.3971,237.564 70.5,241C 69.6598,242.666 70.1598,242.833 72,241.5C 72.3333,242.833 72.6667,244.167 73,245.5C 73.3333,245.167 73.6667,244.833 74,244.5C 74.8747,247.215 76.7081,248.548 79.5,248.5C 80.1386,249.097 80.472,249.93 80.5,251C 78.7744,256.069 77.4411,261.236 76.5,266.5C 75.1986,267.64 74.0319,268.973 73,270.5C 72.0975,269.299 70.9308,268.465 69.5,268C 70.1667,267.667 70.8333,267.333 71.5,267C 68.545,266.608 66.3783,265.108 65,262.5C 64.6667,262.833 64.3333,263.167 64,263.5C 63.0569,260.891 61.3903,258.891 59,257.5C 58,257.5 57,257.5 56,257.5C 55.8898,255.152 54.7231,253.652 52.5,253C 52.6398,251.403 52.6398,249.903 52.5,248.5C 49.3986,246.902 46.7319,244.735 44.5,242C 44.8333,241.667 45.1667,241.333 45.5,241C 44.5,239.333 43.1667,238 41.5,237C 42.1667,236.667 42.8333,236.333 43.5,236C 41.75,234.246 41.0833,232.079 41.5,229.5C 45.8154,223.19 50.4821,217.19 55.5,211.5 Z"/></g>
<g><path style="opacity:1" fill="#391e5d" d="M 408.5,227.5 C 411.894,236.683 414.894,246.017 417.5,255.5C 414.303,256.906 413.969,258.739 416.5,261C 414.462,262.236 413.295,264.069 413,266.5C 412.396,264.314 411.23,264.148 409.5,266C 410.665,268.715 409.998,271.048 407.5,273C 407.957,273.414 408.291,273.914 408.5,274.5C 407.271,275.281 405.938,275.781 404.5,276C 405.458,277.147 405.125,278.147 403.5,279C 405.686,279.604 405.852,280.77 404,282.5C 403.107,281.289 402.274,281.289 401.5,282.5C 402.002,283.716 402.335,284.883 402.5,286C 400.167,288.333 398.167,290.333 396.5,292C 398.657,293.085 398.824,294.251 397,295.5C 395.276,292.83 394.109,293.163 393.5,296.5C 394.025,297.192 394.692,297.692 395.5,298C 394.151,298.772 393.318,299.939 393,301.5C 392.667,301.167 392.333,300.833 392,300.5C 390.509,302.004 388.676,302.837 386.5,303C 389.539,307.24 388.539,308.907 383.5,308C 384.051,309.398 384.384,310.732 384.5,312C 383.552,312.483 382.552,312.649 381.5,312.5C 381.785,314.288 381.452,315.955 380.5,317.5C 379.808,316.975 379.308,316.308 379,315.5C 378.727,317.101 378.227,318.601 377.5,320C 377.833,320.333 378.167,320.667 378.5,321C 374.97,323.596 371.303,325.929 367.5,328C 369.158,328.725 369.658,329.892 369,331.5C 367.927,330.72 366.76,330.887 365.5,332C 367.932,333.087 367.598,333.587 364.5,333.5C 364.825,325.981 364.492,318.648 363.5,311.5C 363.5,310.5 363.5,309.5 363.5,308.5C 364.905,306.389 366.905,304.889 369.5,304C 368.692,303.692 368.025,303.192 367.5,302.5C 368.5,300.833 369.833,299.5 371.5,298.5C 372.098,297.205 372.598,295.872 373,294.5C 373.333,294.833 373.667,295.167 374,295.5C 375.167,294.333 376.333,293.167 377.5,292C 377.745,290.089 377.745,288.089 377.5,286C 378.893,283.822 380.56,282.822 382.5,283C 381.663,281.989 381.33,280.822 381.5,279.5C 382.5,279.5 383.5,279.5 384.5,279.5C 383.457,274.536 385.124,272.869 389.5,274.5C 389.586,272.323 390.253,270.323 391.5,268.5C 390.975,267.808 390.308,267.308 389.5,267C 392.655,266.019 392.988,264.685 390.5,263C 393.493,259.909 396.159,256.076 398.5,251.5C 398.291,250.914 397.957,250.414 397.5,250C 399.754,249.376 401.421,248.043 402.5,246C 401.692,245.692 401.025,245.192 400.5,244.5C 400.938,243.494 401.604,243.494 402.5,244.5C 404.691,242.792 405.024,240.792 403.5,238.5C 404.701,235.266 406.035,232.099 407.5,229C 406.16,226.821 406.493,226.321 408.5,227.5 Z"/></g>
<g><path style="opacity:1" fill="#412664" d="M 41.5,229.5 C 41.0833,232.079 41.75,234.246 43.5,236C 42.8333,236.333 42.1667,236.667 41.5,237C 43.1667,238 44.5,239.333 45.5,241C 45.1667,241.333 44.8333,241.667 44.5,242C 46.7319,244.735 49.3986,246.902 52.5,248.5C 52.6398,249.903 52.6398,251.403 52.5,253C 54.7231,253.652 55.8898,255.152 56,257.5C 57,257.5 58,257.5 59,257.5C 61.3903,258.891 63.0569,260.891 64,263.5C 64.3333,263.167 64.6667,262.833 65,262.5C 66.3783,265.108 68.545,266.608 71.5,267C 70.8333,267.333 70.1667,267.667 69.5,268C 70.9308,268.465 72.0975,269.299 73,270.5C 74.0319,268.973 75.1986,267.64 76.5,266.5C 74.9564,274.22 73.2897,281.887 71.5,289.5C 70.5272,288.209 69.5272,288.209 68.5,289.5C 65.3708,286.631 61.7041,284.797 57.5,284C 58.5504,281.497 57.5504,279.997 54.5,279.5C 53.914,279.709 53.414,280.043 53,280.5C 51.0879,278.343 49.4213,276.009 48,273.5C 47.6667,274.167 47.3333,274.833 47,275.5C 44.7098,272.42 42.5431,269.253 40.5,266C 41.3402,264.334 40.8402,264.167 39,265.5C 37.786,263.951 36.286,262.785 34.5,262C 35.7111,260.887 35.7111,259.72 34.5,258.5C 33.7261,257.289 32.8928,257.289 32,258.5C 30.8394,255.733 29.6728,253.067 28.5,250.5C 32.0958,242.961 36.4291,235.961 41.5,229.5 Z"/></g>
<g><path style="opacity:1" fill="#1c0609" d="M 165.5,141.5 C 176.167,141.5 186.833,141.5 197.5,141.5C 204.646,142.616 211.98,143.283 219.5,143.5C 229.337,145.362 239.337,147.028 249.5,148.5C 255.612,150.613 261.946,152.279 268.5,153.5C 278.758,157.479 289.091,161.479 299.5,165.5C 306.131,169.485 312.798,173.485 319.5,177.5C 321.463,178.96 323.296,180.627 325,182.5C 329.524,189.565 334.024,196.565 338.5,203.5C 344.686,217.055 349.686,231.055 353.5,245.5C 358.881,266.317 362.214,287.317 363.5,308.5C 363.5,309.5 363.5,310.5 363.5,311.5C 363.997,325.597 363.164,339.597 361,353.5C 353.803,355.206 346.637,356.54 339.5,357.5C 331.833,357.5 324.167,357.5 316.5,357.5C 295.752,356.012 275.085,353.012 254.5,348.5C 240.336,343.758 226.336,338.424 212.5,332.5C 204.231,327.358 195.897,322.192 187.5,317C 185.266,314.937 183.266,312.771 181.5,310.5C 178.069,304.627 174.402,298.96 170.5,293.5C 164.912,282.333 159.912,271 155.5,259.5C 154.739,254.563 153.405,249.897 151.5,245.5C 148.885,233.427 146.551,221.427 144.5,209.5C 144.815,205.629 144.482,201.962 143.5,198.5C 143.5,187.167 143.5,175.833 143.5,164.5C 143.5,163.5 143.5,162.5 143.5,161.5C 143.575,158.794 143.908,156.127 144.5,153.5C 145.119,150.466 145.953,147.466 147,144.5C 149.154,143.77 151.321,143.103 153.5,142.5C 157.519,142.354 161.519,142.021 165.5,141.5 Z M 245.5,169.5 C 230.607,173.639 216.274,179.472 202.5,187C 183.379,203.577 173.379,224.577 172.5,250C 173.244,276.827 184.244,298.16 205.5,314C 239.028,336.782 272.362,336.449 305.5,313C 339.489,278.558 343.656,240.724 318,199.5C 313.833,195.333 309.667,191.167 305.5,187C 287.361,174.963 267.361,169.13 245.5,169.5 Z"/></g>
<g><path style="opacity:0.971" fill="#360f0f" d="M 163.5,142.5 C 207.714,140.791 250.381,147.958 291.5,164C 302.401,168.696 312.567,174.529 322,181.5C 338.43,204.371 349.43,229.704 355,257.5C 361.362,288.897 363.195,320.563 360.5,352.5C 302.085,361.265 247.419,350.765 196.5,321C 192.4,318.533 188.566,315.699 185,312.5C 157.507,272.059 144.007,227.226 144.5,178C 144.325,168.407 145.158,158.907 147,149.5C 147.199,147.598 148.033,146.098 149.5,145C 154.315,144.197 158.981,143.363 163.5,142.5 Z M 245.5,169.5 C 230.607,173.639 216.274,179.472 202.5,187C 183.379,203.577 173.379,224.577 172.5,250C 173.244,276.827 184.244,298.16 205.5,314C 239.028,336.782 272.362,336.449 305.5,313C 339.489,278.558 343.656,240.724 318,199.5C 313.833,195.333 309.667,191.167 305.5,187C 287.361,174.963 267.361,169.13 245.5,169.5 Z"/></g>
<g><path style="opacity:1" fill="#4d356c" d="M 155.5,162.5 C 155.169,169.863 155.503,177.197 156.5,184.5C 157.167,184.167 157.833,183.833 158.5,183.5C 159.187,185.274 160.02,186.941 161,188.5C 161.333,187.833 161.667,187.167 162,186.5C 162.833,188.5 163.667,190.5 164.5,192.5C 166.793,193.236 169.126,193.402 171.5,193C 170.366,194.016 170.699,194.683 172.5,195C 171.833,195.333 171.167,195.667 170.5,196C 171.901,196.41 173.234,196.91 174.5,197.5C 169.018,208.134 164.351,219.134 160.5,230.5C 154.858,208.11 153.192,185.444 155.5,162.5 Z"/></g>
<g><path style="opacity:1" fill="#1c070c" d="M 225.5,156.5 C 227.379,156.393 227.712,156.893 226.5,158C 212.126,163.932 198.96,171.765 187,181.5C 175.973,197.22 167.306,214.22 161,232.5C 160.536,231.906 160.369,231.239 160.5,230.5C 164.351,219.134 169.018,208.134 174.5,197.5C 179.08,190.245 184.08,183.245 189.5,176.5C 200.86,168.817 212.86,162.15 225.5,156.5 Z"/></g>
<g><path style="opacity:1" fill="#563f75" d="M 225.5,156.5 C 212.86,162.15 200.86,168.817 189.5,176.5C 187.795,175.465 186.128,175.465 184.5,176.5C 183.139,174.972 181.972,173.305 181,171.5C 180.667,172.167 180.333,172.833 180,173.5C 177.667,171.833 175.667,169.833 174,167.5C 173.586,167.957 173.086,168.291 172.5,168.5C 171.289,167.726 171.289,166.893 172.5,166C 171.5,165.667 170.5,165.333 169.5,165C 168.256,161.681 165.923,158.681 162.5,156C 163.598,155.23 163.598,154.397 162.5,153.5C 183.607,151.885 204.607,152.885 225.5,156.5 Z"/></g>
<g><path style="opacity:1" fill="#533b73" d="M 162.5,153.5 C 163.598,154.397 163.598,155.23 162.5,156C 165.923,158.681 168.256,161.681 169.5,165C 170.5,165.333 171.5,165.667 172.5,166C 171.289,166.893 171.289,167.726 172.5,168.5C 173.086,168.291 173.586,167.957 174,167.5C 175.667,169.833 177.667,171.833 180,173.5C 180.333,172.833 180.667,172.167 181,171.5C 181.972,173.305 183.139,174.972 184.5,176.5C 186.128,175.465 187.795,175.465 189.5,176.5C 184.08,183.245 179.08,190.245 174.5,197.5C 173.234,196.91 171.901,196.41 170.5,196C 171.167,195.667 171.833,195.333 172.5,195C 170.699,194.683 170.366,194.016 171.5,193C 169.126,193.402 166.793,193.236 164.5,192.5C 163.667,190.5 162.833,188.5 162,186.5C 161.667,187.167 161.333,187.833 161,188.5C 160.02,186.941 159.187,185.274 158.5,183.5C 157.833,183.833 157.167,184.167 156.5,184.5C 155.503,177.197 155.169,169.863 155.5,162.5C 155.336,159.813 155.503,157.146 156,154.5C 158.041,153.577 160.208,153.244 162.5,153.5 Z"/></g>
<g><path style="opacity:1" fill="#4f3770" d="M 89.5,239.5 C 91.5412,239.854 93.3745,239.854 95,239.5C 95.3333,240.167 95.6667,240.833 96,241.5C 97.2289,239.053 98.7289,238.887 100.5,241C 99.5494,241.718 99.3828,242.551 100,243.5C 101.333,242.167 102.667,240.833 104,239.5C 104.333,240.833 104.667,242.167 105,243.5C 105.333,243.167 105.667,242.833 106,242.5C 107.645,244.662 109.812,245.995 112.5,246.5C 113.696,246.154 113.696,245.654 112.5,245C 113.899,244.405 115.232,244.572 116.5,245.5C 117.192,244.975 117.692,244.308 118,243.5C 119.672,244.502 120.838,245.668 121.5,247C 120.833,247.333 120.167,247.667 119.5,248C 121.194,249.387 122.86,249.054 124.5,247C 122.071,246.549 121.904,245.715 124,244.5C 125.61,244.13 127.11,244.797 128.5,246.5C 129.451,245.674 130.451,245.508 131.5,246C 132.925,247.362 133.758,248.862 134,250.5C 135.085,248.627 136.418,246.96 138,245.5C 139.791,247.513 141.125,247.513 142,245.5C 142.741,246.641 143.575,246.641 144.5,245.5C 145.96,247.422 147.627,248.089 149.5,247.5C 150.522,247.145 151.189,246.478 151.5,245.5C 153.405,249.897 154.739,254.563 155.5,259.5C 155.5,260.833 155.5,262.167 155.5,263.5C 154.448,263.351 153.448,263.517 152.5,264C 151.167,264.667 151.167,265.333 152.5,266C 150.989,267.615 149.656,267.615 148.5,266C 148.833,265.667 149.167,265.333 149.5,265C 147.432,264.313 145.432,264.48 143.5,265.5C 142.318,263.355 140.818,263.355 139,265.5C 138.692,264.692 138.192,264.025 137.5,263.5C 137.598,264.616 137.098,265.616 136,266.5C 135.127,266.265 134.293,265.931 133.5,265.5C 132.476,266.853 131.143,267.52 129.5,267.5C 129.541,263.757 128.874,263.59 127.5,267C 127.833,267.333 128.167,267.667 128.5,268C 126.925,267.621 125.425,267.788 124,268.5C 123.333,263.167 122.667,263.167 122,268.5C 120.354,266.945 120.021,265.279 121,263.5C 118.667,265.167 116.333,266.833 114,268.5C 111.904,267.285 112.071,266.451 114.5,266C 112.245,265.643 110.078,264.476 108,262.5C 103.271,266.32 100.271,264.986 99,258.5C 98.2798,260.056 97.1132,261.056 95.5,261.5C 92.8906,254.338 90.8906,247.004 89.5,239.5 Z"/></g>
<g><path style="opacity:1" fill="#1c0609" d="M 69.5,195.5 C 64.4897,200.512 59.823,205.845 55.5,211.5C 50.4821,217.19 45.8154,223.19 41.5,229.5C 36.4291,235.961 32.0958,242.961 28.5,250.5C 27.1402,252.046 26.1402,253.88 25.5,256C 36.6027,277.599 50.6027,297.099 67.5,314.5C 67.5654,314.938 67.3988,315.272 67,315.5C 49.3791,297.889 34.8791,278.056 23.5,256C 35.8537,233.129 51.0203,212.296 69,193.5C 69.4643,194.094 69.631,194.761 69.5,195.5 Z"/></g>
<g><path style="opacity:1" fill="#3b205e" d="M 28.5,250.5 C 29.6728,253.067 30.8394,255.733 32,258.5C 32.8928,257.289 33.7261,257.289 34.5,258.5C 35.7111,259.72 35.7111,260.887 34.5,262C 36.286,262.785 37.786,263.951 39,265.5C 40.8402,264.167 41.3402,264.334 40.5,266C 42.5431,269.253 44.7098,272.42 47,275.5C 47.3333,274.833 47.6667,274.167 48,273.5C 49.4213,276.009 51.0879,278.343 53,280.5C 53.414,280.043 53.914,279.709 54.5,279.5C 57.5504,279.997 58.5504,281.497 57.5,284C 61.7041,284.797 65.3708,286.631 68.5,289.5C 69.5272,288.209 70.5272,288.209 71.5,289.5C 70.4893,298.019 69.156,306.352 67.5,314.5C 50.6027,297.099 36.6027,277.599 25.5,256C 26.1402,253.88 27.1402,252.046 28.5,250.5 Z"/></g>
<g><path style="opacity:1" fill="#1c050a" d="M 439.5,313.5 C 458.591,295.989 473.258,275.322 483.5,251.5C 471.522,226.898 455.188,205.565 434.5,187.5C 434.517,185.972 435.184,185.472 436.5,186C 456.875,204.866 473.208,226.699 485.5,251.5C 475.022,276.105 459.856,297.438 440,315.5C 439.536,314.906 439.369,314.239 439.5,313.5 Z"/></g>
<g><path style="opacity:1" fill="#361a5a" d="M 417.5,255.5 C 429.139,297.955 431.639,340.955 425,384.5C 423.461,391.197 421.794,397.864 420,404.5C 419.484,407.034 418.317,409.2 416.5,411C 393.658,419.696 369.992,423.863 345.5,423.5C 315.682,423.1 286.682,418.433 258.5,409.5C 260.262,409.357 261.929,409.691 263.5,410.5C 265.027,408.807 266.36,406.973 267.5,405C 268.899,404.405 270.232,404.572 271.5,405.5C 272.814,404.687 273.981,403.687 275,402.5C 275.333,402.833 275.667,403.167 276,403.5C 278.333,401.833 280.333,399.833 282,397.5C 283.054,399.754 284.554,400.087 286.5,398.5C 289.784,394.851 293.784,392.184 298.5,390.5C 297.524,388.877 298.024,387.543 300,386.5C 300.308,387.308 300.808,387.975 301.5,388.5C 300.984,387.242 301.65,386.242 303.5,385.5C 304.324,387.748 305.324,387.914 306.5,386C 304.053,384.771 303.887,383.271 306,381.5C 306.667,382.833 307.333,384.167 308,385.5C 308.667,384.167 309.333,382.833 310,381.5C 310.333,381.833 310.667,382.167 311,382.5C 312.067,381.809 313.234,381.309 314.5,381C 312.291,380.043 312.457,378.876 315,377.5C 315.333,378.167 315.667,378.833 316,379.5C 316.667,378.167 317.333,378.167 318,379.5C 318.684,378.216 318.517,377.049 317.5,376C 318.819,374.372 320.152,374.539 321.5,376.5C 321.833,375.167 322.167,373.833 322.5,372.5C 323.325,371.614 324.325,371.281 325.5,371.5C 325.413,368.402 325.913,368.068 327,370.5C 327.333,369.833 327.667,369.167 328,368.5C 329.398,369.051 330.732,369.384 332,369.5C 333.667,367.167 335.333,364.833 337,362.5C 337.741,363.641 338.575,363.641 339.5,362.5C 340.59,361.609 340.59,360.609 339.5,359.5C 341.925,358.351 341.925,357.684 339.5,357.5C 346.637,356.54 353.803,355.206 361,353.5C 363.164,339.597 363.997,325.597 363.5,311.5C 364.492,318.648 364.825,325.981 364.5,333.5C 367.598,333.587 367.932,333.087 365.5,332C 366.76,330.887 367.927,330.72 369,331.5C 369.658,329.892 369.158,328.725 367.5,328C 371.303,325.929 374.97,323.596 378.5,321C 378.167,320.667 377.833,320.333 377.5,320C 378.227,318.601 378.727,317.101 379,315.5C 379.308,316.308 379.808,316.975 380.5,317.5C 381.452,315.955 381.785,314.288 381.5,312.5C 382.552,312.649 383.552,312.483 384.5,312C 384.384,310.732 384.051,309.398 383.5,308C 388.539,308.907 389.539,307.24 386.5,303C 388.676,302.837 390.509,302.004 392,300.5C 392.333,300.833 392.667,301.167 393,301.5C 393.318,299.939 394.151,298.772 395.5,298C 394.692,297.692 394.025,297.192 393.5,296.5C 394.109,293.163 395.276,292.83 397,295.5C 398.824,294.251 398.657,293.085 396.5,292C 398.167,290.333 400.167,288.333 402.5,286C 402.335,284.883 402.002,283.716 401.5,282.5C 402.274,281.289 403.107,281.289 404,282.5C 405.852,280.77 405.686,279.604 403.5,279C 405.125,278.147 405.458,277.147 404.5,276C 405.938,275.781 407.271,275.281 408.5,274.5C 408.291,273.914 407.957,273.414 407.5,273C 409.998,271.048 410.665,268.715 409.5,266C 411.23,264.148 412.396,264.314 413,266.5C 413.295,264.069 414.462,262.236 416.5,261C 413.969,258.739 414.303,256.906 417.5,255.5 Z"/></g>
<g><path style="opacity:1" fill="#4c336d" d="M 155.5,259.5 C 159.912,271 164.912,282.333 170.5,293.5C 169.08,294.279 168.246,295.279 168,296.5C 166.989,296.108 166.489,295.441 166.5,294.5C 165.402,295.615 164.235,295.615 163,294.5C 161.374,295.289 159.874,296.289 158.5,297.5C 157.808,296.975 157.308,296.308 157,295.5C 154.208,296.098 151.542,297.098 149,298.5C 147.838,297.813 146.672,297.647 145.5,298C 147.007,298.837 147.507,300.004 147,301.5C 145.615,300.449 144.615,299.116 144,297.5C 141.958,298.285 139.958,297.952 138,296.5C 135.475,302.929 133.975,302.929 133.5,296.5C 132.808,297.025 132.308,297.692 132,298.5C 129.614,298.451 127.114,297.785 124.5,296.5C 122.396,297.331 120.396,297.664 118.5,297.5C 117.808,296.975 117.308,296.308 117,295.5C 116.213,296.711 115.546,297.711 115,298.5C 113.186,298.409 111.353,298.075 109.5,297.5C 103.874,285.969 99.2074,273.969 95.5,261.5C 97.1132,261.056 98.2798,260.056 99,258.5C 100.271,264.986 103.271,266.32 108,262.5C 110.078,264.476 112.245,265.643 114.5,266C 112.071,266.451 111.904,267.285 114,268.5C 116.333,266.833 118.667,265.167 121,263.5C 120.021,265.279 120.354,266.945 122,268.5C 122.667,263.167 123.333,263.167 124,268.5C 125.425,267.788 126.925,267.621 128.5,268C 128.167,267.667 127.833,267.333 127.5,267C 128.874,263.59 129.541,263.757 129.5,267.5C 131.143,267.52 132.476,266.853 133.5,265.5C 134.293,265.931 135.127,266.265 136,266.5C 137.098,265.616 137.598,264.616 137.5,263.5C 138.192,264.025 138.692,264.692 139,265.5C 140.818,263.355 142.318,263.355 143.5,265.5C 145.432,264.48 147.432,264.313 149.5,265C 149.167,265.333 148.833,265.667 148.5,266C 149.656,267.615 150.989,267.615 152.5,266C 151.167,265.333 151.167,264.667 152.5,264C 153.448,263.517 154.448,263.351 155.5,263.5C 155.5,262.167 155.5,260.833 155.5,259.5 Z"/></g>
<g><path style="opacity:1" fill="#1b0508" d="M 86.5,272.5 C 77.0859,311.335 76.2526,350.335 84,389.5C 86.0028,397.009 88.5028,404.342 91.5,411.5C 106.638,417.228 122.305,420.728 138.5,422C 170.623,424.535 202.29,422.035 233.5,414.5C 234.738,414.81 234.738,415.31 233.5,416C 196.14,424.931 158.473,426.598 120.5,421C 110.238,419.268 100.238,416.601 90.5,413C 77.6304,379.246 73.7971,344.413 79,308.5C 80.4746,295.65 82.808,282.983 86,270.5C 86.4643,271.094 86.631,271.761 86.5,272.5 Z"/></g>
<g><path style="opacity:1" fill="#492f6b" d="M 170.5,293.5 C 174.402,298.96 178.069,304.627 181.5,310.5C 181.649,311.552 181.483,312.552 181,313.5C 180.667,313.167 180.333,312.833 180,312.5C 179.612,313.428 178.945,314.095 178,314.5C 176.838,313.813 175.672,313.647 174.5,314C 175.451,314.718 175.617,315.551 175,316.5C 172.563,313.851 171.23,314.517 171,318.5C 170.667,317.5 170.333,316.5 170,315.5C 167.593,315.673 165.26,315.673 163,315.5C 162,316.167 161,316.833 160,317.5C 157.732,315.623 155.565,315.457 153.5,317C 154.833,317.667 156.167,318.333 157.5,319C 156.069,319.465 154.903,320.299 154,321.5C 153.935,319.117 153.102,318.45 151.5,319.5C 150.749,318.624 150.249,317.624 150,316.5C 148.667,317.833 147.333,319.167 146,320.5C 144.488,319.743 143.154,318.743 142,317.5C 140.221,318.479 138.555,318.146 137,316.5C 136.417,318.002 135.584,319.335 134.5,320.5C 134.167,319.833 133.833,319.167 133.5,318.5C 132.575,319.641 131.741,319.641 131,318.5C 129.221,321.276 128.221,320.943 128,317.5C 127.333,320.167 126.667,320.167 126,317.5C 124.796,318.471 124.296,319.471 124.5,320.5C 123.52,319.019 122.353,317.685 121,316.5C 120.51,317.793 120.343,319.127 120.5,320.5C 116.051,313.267 112.385,305.601 109.5,297.5C 111.353,298.075 113.186,298.409 115,298.5C 115.546,297.711 116.213,296.711 117,295.5C 117.308,296.308 117.808,296.975 118.5,297.5C 120.396,297.664 122.396,297.331 124.5,296.5C 127.114,297.785 129.614,298.451 132,298.5C 132.308,297.692 132.808,297.025 133.5,296.5C 133.975,302.929 135.475,302.929 138,296.5C 139.958,297.952 141.958,298.285 144,297.5C 144.615,299.116 145.615,300.449 147,301.5C 147.507,300.004 147.007,298.837 145.5,298C 146.672,297.647 147.838,297.813 149,298.5C 151.542,297.098 154.208,296.098 157,295.5C 157.308,296.308 157.808,296.975 158.5,297.5C 159.874,296.289 161.374,295.289 163,294.5C 164.235,295.615 165.402,295.615 166.5,294.5C 166.489,295.441 166.989,296.108 168,296.5C 168.246,295.279 169.08,294.279 170.5,293.5 Z"/></g>
<g><path style="opacity:1" fill="#361a5a" d="M 86.5,272.5 C 98.4748,305.283 113.808,336.45 132.5,366C 164.673,385.421 198.34,401.588 233.5,414.5C 202.29,422.035 170.623,424.535 138.5,422C 122.305,420.728 106.638,417.228 91.5,411.5C 88.5028,404.342 86.0028,397.009 84,389.5C 76.2526,350.335 77.0859,311.335 86.5,272.5 Z"/></g>
<g><path style="opacity:1" fill="#371b5a" d="M 346.5,267.5 C 348.681,277.258 350.181,287.258 351,297.5C 351.5,313.163 351.667,328.83 351.5,344.5C 335.854,345.587 320.188,345.753 304.5,345C 295.178,344.549 286.178,343.049 277.5,340.5C 294.74,334.8 310.24,326.134 324,314.5C 333.647,299.873 341.147,284.206 346.5,267.5 Z"/></g>
<g><path style="opacity:1" fill="#462c68" d="M 181.5,310.5 C 183.266,312.771 185.266,314.937 187.5,317C 195.897,322.192 204.231,327.358 212.5,332.5C 212.316,334.925 211.649,334.925 210.5,332.5C 208.941,333.074 207.441,333.74 206,334.5C 203.427,333.36 200.927,333.36 198.5,334.5C 197.088,335.806 195.421,336.64 193.5,337C 192.929,338.205 192.262,339.372 191.5,340.5C 190.304,340.154 190.304,339.654 191.5,339C 190.551,338.383 189.718,338.549 189,339.5C 188.667,338.833 188.333,338.167 188,337.5C 187.333,338.833 186.667,338.833 186,337.5C 185.138,339.087 184.471,340.754 184,342.5C 183.851,339.721 183.017,339.221 181.5,341C 181.833,341.333 182.167,341.667 182.5,342C 181.167,342.667 179.833,342.667 178.5,342C 179.167,341.667 179.833,341.333 180.5,341C 179.333,340.5 178.5,339.667 178,338.5C 176.773,340.726 174.939,342.226 172.5,343C 169.098,343.289 165.931,343.122 163,342.5C 161.796,343.471 161.296,344.471 161.5,345.5C 159.851,344.352 158.351,343.019 157,341.5C 155.453,344.544 152.953,346.544 149.5,347.5C 148.28,346.289 147.113,346.289 146,347.5C 144.148,345.77 144.314,344.604 146.5,344C 145.5,343.5 144.5,343 143.5,342.5C 143.847,344.14 143.347,345.807 142,347.5C 141,346.833 140,346.167 139,345.5C 137.413,345.342 135.913,346.009 134.5,347.5C 129.055,338.945 124.388,329.945 120.5,320.5C 120.343,319.127 120.51,317.793 121,316.5C 122.353,317.685 123.52,319.019 124.5,320.5C 124.296,319.471 124.796,318.471 126,317.5C 126.667,320.167 127.333,320.167 128,317.5C 128.221,320.943 129.221,321.276 131,318.5C 131.741,319.641 132.575,319.641 133.5,318.5C 133.833,319.167 134.167,319.833 134.5,320.5C 135.584,319.335 136.417,318.002 137,316.5C 138.555,318.146 140.221,318.479 142,317.5C 143.154,318.743 144.488,319.743 146,320.5C 147.333,319.167 148.667,317.833 150,316.5C 150.249,317.624 150.749,318.624 151.5,319.5C 153.102,318.45 153.935,319.117 154,321.5C 154.903,320.299 156.069,319.465 157.5,319C 156.167,318.333 154.833,317.667 153.5,317C 155.565,315.457 157.732,315.623 160,317.5C 161,316.833 162,316.167 163,315.5C 165.26,315.673 167.593,315.673 170,315.5C 170.333,316.5 170.667,317.5 171,318.5C 171.23,314.517 172.563,313.851 175,316.5C 175.617,315.551 175.451,314.718 174.5,314C 175.672,313.647 176.838,313.813 178,314.5C 178.945,314.095 179.612,313.428 180,312.5C 180.333,312.833 180.667,313.167 181,313.5C 181.483,312.552 181.649,311.552 181.5,310.5 Z"/></g>
<g><path style="opacity:1" fill="#1c0508" d="M 346.5,267.5 C 341.147,284.206 333.647,299.873 324,314.5C 310.24,326.134 294.74,334.8 277.5,340.5C 276.761,340.631 276.094,340.464 275.5,340C 292.589,334.209 308.089,325.709 322,314.5C 332.154,298.859 340.154,282.192 346,264.5C 346.483,265.448 346.649,266.448 346.5,267.5 Z"/></g>
<g><path style="opacity:1" fill="#422765" d="M 212.5,332.5 C 226.336,338.424 240.336,343.758 254.5,348.5C 253.211,350.248 251.711,350.581 250,349.5C 250.857,352.536 249.69,353.202 246.5,351.5C 244.733,353.89 242.4,355.557 239.5,356.5C 237.452,355.917 235.619,355.917 234,356.5C 230.639,359.345 226.972,361.679 223,363.5C 221.203,360.904 219.869,361.237 219,364.5C 218.692,363.692 218.192,363.025 217.5,362.5C 217.089,363.262 216.923,364.262 217,365.5C 215.667,366.167 214.333,366.833 213,367.5C 213.667,366.167 214.333,364.833 215,363.5C 212.097,364.069 210.097,365.735 209,368.5C 205.56,367.396 202.227,367.396 199,368.5C 198.5,368.667 198,368.833 197.5,369C 198.451,369.718 198.617,370.551 198,371.5C 195.239,369.023 193.406,369.356 192.5,372.5C 190.795,370.697 188.962,370.031 187,370.5C 187.077,371.738 186.911,372.738 186.5,373.5C 184.032,374.755 180.199,374.755 175,373.5C 174.536,374.094 174.369,374.761 174.5,375.5C 163.237,370.201 152.237,364.368 141.5,358C 138.784,354.729 136.451,351.229 134.5,347.5C 135.913,346.009 137.413,345.342 139,345.5C 140,346.167 141,346.833 142,347.5C 143.347,345.807 143.847,344.14 143.5,342.5C 144.5,343 145.5,343.5 146.5,344C 144.314,344.604 144.148,345.77 146,347.5C 147.113,346.289 148.28,346.289 149.5,347.5C 152.953,346.544 155.453,344.544 157,341.5C 158.351,343.019 159.851,344.352 161.5,345.5C 161.296,344.471 161.796,343.471 163,342.5C 165.931,343.122 169.098,343.289 172.5,343C 174.939,342.226 176.773,340.726 178,338.5C 178.5,339.667 179.333,340.5 180.5,341C 179.833,341.333 179.167,341.667 178.5,342C 179.833,342.667 181.167,342.667 182.5,342C 182.167,341.667 181.833,341.333 181.5,341C 183.017,339.221 183.851,339.721 184,342.5C 184.471,340.754 185.138,339.087 186,337.5C 186.667,338.833 187.333,338.833 188,337.5C 188.333,338.167 188.667,338.833 189,339.5C 189.718,338.549 190.551,338.383 191.5,339C 190.304,339.654 190.304,340.154 191.5,340.5C 192.262,339.372 192.929,338.205 193.5,337C 195.421,336.64 197.088,335.806 198.5,334.5C 200.927,333.36 203.427,333.36 206,334.5C 207.441,333.74 208.941,333.074 210.5,332.5C 211.649,334.925 212.316,334.925 212.5,332.5 Z"/></g>
<g><path style="opacity:1" fill="#3c2260" d="M 254.5,348.5 C 275.085,353.012 295.752,356.012 316.5,357.5C 313.52,357.241 311.687,358.574 311,361.5C 310.667,361.167 310.333,360.833 310,360.5C 309.333,361.833 308.667,363.167 308,364.5C 305.731,364.096 303.231,363.929 300.5,364C 300.79,365.639 301.624,367.139 303,368.5C 301.984,367.366 301.317,367.699 301,369.5C 300.667,368.833 300.333,368.167 300,367.5C 298.705,368.841 298.205,370.174 298.5,371.5C 297.459,369.009 296.626,369.009 296,371.5C 295.667,371.167 295.333,370.833 295,370.5C 294.544,371.744 295.044,372.577 296.5,373C 294.231,374.807 292.397,374.307 291,371.5C 289.513,372.253 289.346,373.086 290.5,374C 288.913,374.862 287.246,375.529 285.5,376C 285.833,376.333 286.167,376.667 286.5,377C 284.152,377.346 282.319,378.513 281,380.5C 280.667,380.167 280.333,379.833 280,379.5C 279.024,383.183 277.357,383.849 275,381.5C 274.558,383.679 273.558,384.345 272,383.5C 271.667,384.5 271.333,385.5 271,386.5C 269.667,382.5 268.333,382.5 267,386.5C 265.927,385.72 264.76,385.887 263.5,387C 264.34,388.666 263.84,388.833 262,387.5C 261.147,389.125 260.147,389.458 259,388.5C 258.833,388.833 258.667,389.167 258.5,389.5C 259.729,390.281 261.062,390.781 262.5,391C 260.671,391.273 259.171,392.107 258,393.5C 256.84,391.203 255.84,391.536 255,394.5C 254,393.167 253,393.167 252,394.5C 250.915,392.343 249.749,392.176 248.5,394C 249.308,394.308 249.975,394.808 250.5,395.5C 250.154,396.696 249.654,396.696 249,395.5C 248.667,396.5 248.333,397.5 248,398.5C 246.493,397.495 245.327,396.162 244.5,394.5C 244.845,396.382 244.345,398.382 243,400.5C 241.383,399.464 241.216,398.297 242.5,397C 242.167,396.833 241.833,396.667 241.5,396.5C 240.521,399.953 239.021,400.286 237,397.5C 234.527,398.74 234.027,400.407 235.5,402.5C 214.275,395.384 193.941,386.384 174.5,375.5C 174.369,374.761 174.536,374.094 175,373.5C 180.199,374.755 184.032,374.755 186.5,373.5C 186.911,372.738 187.077,371.738 187,370.5C 188.962,370.031 190.795,370.697 192.5,372.5C 193.406,369.356 195.239,369.023 198,371.5C 198.617,370.551 198.451,369.718 197.5,369C 198,368.833 198.5,368.667 199,368.5C 202.227,367.396 205.56,367.396 209,368.5C 210.097,365.735 212.097,364.069 215,363.5C 214.333,364.833 213.667,366.167 213,367.5C 214.333,366.833 215.667,366.167 217,365.5C 216.923,364.262 217.089,363.262 217.5,362.5C 218.192,363.025 218.692,363.692 219,364.5C 219.869,361.237 221.203,360.904 223,363.5C 226.972,361.679 230.639,359.345 234,356.5C 235.619,355.917 237.452,355.917 239.5,356.5C 242.4,355.557 244.733,353.89 246.5,351.5C 249.69,353.202 250.857,352.536 250,349.5C 251.711,350.581 253.211,350.248 254.5,348.5 Z"/></g>
<g><path style="opacity:1" fill="#391e5d" d="M 316.5,357.5 C 324.167,357.5 331.833,357.5 339.5,357.5C 341.925,357.684 341.925,358.351 339.5,359.5C 340.59,360.609 340.59,361.609 339.5,362.5C 338.575,363.641 337.741,363.641 337,362.5C 335.333,364.833 333.667,367.167 332,369.5C 330.732,369.384 329.398,369.051 328,368.5C 327.667,369.167 327.333,369.833 327,370.5C 325.913,368.068 325.413,368.402 325.5,371.5C 324.325,371.281 323.325,371.614 322.5,372.5C 322.167,373.833 321.833,375.167 321.5,376.5C 320.152,374.539 318.819,374.372 317.5,376C 318.517,377.049 318.684,378.216 318,379.5C 317.333,378.167 316.667,378.167 316,379.5C 315.667,378.833 315.333,378.167 315,377.5C 312.457,378.876 312.291,380.043 314.5,381C 313.234,381.309 312.067,381.809 311,382.5C 310.667,382.167 310.333,381.833 310,381.5C 309.333,382.833 308.667,384.167 308,385.5C 307.333,384.167 306.667,382.833 306,381.5C 303.887,383.271 304.053,384.771 306.5,386C 305.324,387.914 304.324,387.748 303.5,385.5C 301.65,386.242 300.984,387.242 301.5,388.5C 300.808,387.975 300.308,387.308 300,386.5C 298.024,387.543 297.524,388.877 298.5,390.5C 293.784,392.184 289.784,394.851 286.5,398.5C 284.554,400.087 283.054,399.754 282,397.5C 280.333,399.833 278.333,401.833 276,403.5C 275.667,403.167 275.333,402.833 275,402.5C 273.981,403.687 272.814,404.687 271.5,405.5C 270.232,404.572 268.899,404.405 267.5,405C 266.36,406.973 265.027,408.807 263.5,410.5C 261.929,409.691 260.262,409.357 258.5,409.5C 250.644,407.77 242.977,405.437 235.5,402.5C 234.027,400.407 234.527,398.74 237,397.5C 239.021,400.286 240.521,399.953 241.5,396.5C 241.833,396.667 242.167,396.833 242.5,397C 241.216,398.297 241.383,399.464 243,400.5C 244.345,398.382 244.845,396.382 244.5,394.5C 245.327,396.162 246.493,397.495 248,398.5C 248.333,397.5 248.667,396.5 249,395.5C 249.654,396.696 250.154,396.696 250.5,395.5C 249.975,394.808 249.308,394.308 248.5,394C 249.749,392.176 250.915,392.343 252,394.5C 253,393.167 254,393.167 255,394.5C 255.84,391.536 256.84,391.203 258,393.5C 259.171,392.107 260.671,391.273 262.5,391C 261.062,390.781 259.729,390.281 258.5,389.5C 258.667,389.167 258.833,388.833 259,388.5C 260.147,389.458 261.147,389.125 262,387.5C 263.84,388.833 264.34,388.666 263.5,387C 264.76,385.887 265.927,385.72 267,386.5C 268.333,382.5 269.667,382.5 271,386.5C 271.333,385.5 271.667,384.5 272,383.5C 273.558,384.345 274.558,383.679 275,381.5C 277.357,383.849 279.024,383.183 280,379.5C 280.333,379.833 280.667,380.167 281,380.5C 282.319,378.513 284.152,377.346 286.5,377C 286.167,376.667 285.833,376.333 285.5,376C 287.246,375.529 288.913,374.862 290.5,374C 289.346,373.086 289.513,372.253 291,371.5C 292.397,374.307 294.231,374.807 296.5,373C 295.044,372.577 294.544,371.744 295,370.5C 295.333,370.833 295.667,371.167 296,371.5C 296.626,369.009 297.459,369.009 298.5,371.5C 298.205,370.174 298.705,368.841 300,367.5C 300.333,368.167 300.667,368.833 301,369.5C 301.317,367.699 301.984,367.366 303,368.5C 301.624,367.139 300.79,365.639 300.5,364C 303.231,363.929 305.731,364.096 308,364.5C 308.667,363.167 309.333,361.833 310,360.5C 310.333,360.833 310.667,361.167 311,361.5C 311.687,358.574 313.52,357.241 316.5,357.5 Z"/></g>
<g><path style="opacity:1" fill="#351959" d="M 312.5,432.5 C 312.918,433.222 313.584,433.722 314.5,434C 296.824,452.859 276.49,468.025 253.5,479.5C 228.645,469.072 207.312,453.739 189.5,433.5C 211.452,430.867 233.285,426.867 255,421.5C 273.942,426.255 293.109,429.922 312.5,432.5 Z"/></g>
<g><path style="opacity:1" fill="#1c060b" d="M 312.5,432.5 C 314.308,432.491 315.975,432.991 317.5,434C 299.127,453.881 277.793,469.714 253.5,481.5C 228.033,470.54 206.033,454.707 187.5,434C 188.094,433.536 188.761,433.369 189.5,433.5C 207.312,453.739 228.645,469.072 253.5,479.5C 276.49,468.025 296.824,452.859 314.5,434C 313.584,433.722 312.918,433.222 312.5,432.5 Z"/></g>
</svg>
