<?xml version="1.0" encoding="UTF-8"?>
<!DOCTYPE svg PUBLIC "-//W3C//DTD SVG 1.1//EN" "http://www.w3.org/Graphics/SVG/1.1/DTD/svg11.dtd">
<svg xmlns="http://www.w3.org/2000/svg" version="1.1" width="100%" height="100%" viewBox="0 0 512 512" style="shape-rendering:geometricPrecision; text-rendering:geometricPrecision; image-rendering:optimizeQuality; fill-rule:evenodd; clip-rule:evenodd" xmlns:xlink="http://www.w3.org/1999/xlink">
<g><path style="opacity:0.966" fill="#2a1f1e" d="M 246.5,8.5 C 253.216,9.85161 259.549,12.3516 265.5,16C 286.224,28.7141 305.224,43.7141 322.5,61C 352.676,59.9551 382.343,63.2884 411.5,71C 414.833,72.3333 418.167,73.6667 421.5,75C 427.121,88.6461 430.954,102.813 433,117.5C 435.423,135.751 436.756,154.084 437,172.5C 457.317,189.806 474.317,209.806 488,232.5C 491.385,238.602 494.218,244.935 496.5,251.5C 489.187,271.965 478.353,290.298 464,306.5C 457.333,314.5 450,321.833 442,328.5C 442.244,355.307 438.911,381.641 432,407.5C 430.828,412.006 428.995,416.173 426.5,420C 406.149,429.087 384.816,434.087 362.5,435C 351.485,435.168 340.485,435.668 329.5,436.5C 308.362,460.987 283.029,479.654 253.5,492.5C 238.702,487.435 225.036,480.268 212.5,471C 198.38,459.88 185.213,447.714 173,434.5C 150.315,435.87 127.815,434.036 105.5,429C 97.4798,427.327 89.8131,424.66 82.5,421C 73.0215,400.584 67.8549,379.084 67,356.5C 66.6667,347.5 66.3333,338.5 66,329.5C 46.2939,311.379 29.9606,290.712 17,267.5C 15.1042,263.811 13.6042,259.978 12.5,256C 25.6235,227.277 43.7902,202.11 67,180.5C 65.9791,151.393 68.9791,122.726 76,94.5C 77.1029,89.6284 78.7696,84.9617 81,80.5C 92.7094,75.5298 104.876,72.0298 117.5,70C 135.731,67.2454 154.064,65.5787 172.5,65C 193.961,41.6728 218.627,22.8395 246.5,8.5 Z"/></g>
<g><path style="opacity:1" fill="#723033" d="M 247.5,20.5 C 258.384,25.2774 268.717,31.1108 278.5,38C 307.958,59.7898 332.958,85.7898 353.5,116C 316.375,96.1269 277.042,81.7935 235.5,73C 219.506,70.335 203.506,68.0016 187.5,66C 205.13,47.5141 225.13,32.3474 247.5,20.5 Z"/></g>
<g><path style="opacity:1" fill="#723033" d="M 332.5,73.5 C 352.876,72.0929 373.209,73.5929 393.5,78C 400.277,79.8603 406.944,82.0269 413.5,84.5C 421.999,109.824 425.499,135.824 424,162.5C 408.923,150.099 392.757,139.266 375.5,130C 366.369,116.237 356.869,102.737 347,89.5C 342.301,83.9714 337.468,78.638 332.5,73.5 Z"/></g>
<g><path style="opacity:1" fill="#723033" d="M 141.5,77.5 C 168.27,76.6559 194.936,77.8225 221.5,81C 228.953,82.2409 236.287,83.9076 243.5,86C 181.827,101.417 126.993,129.583 79,170.5C 77.4059,142.826 80.9059,115.826 89.5,89.5C 95.9126,86.6405 102.579,84.4738 109.5,83C 120.253,80.825 130.92,78.9917 141.5,77.5 Z"/></g>
<g><path style="opacity:1" fill="#733134" d="M 284.5,103.5 C 281.41,103.56 278.243,103.56 275,103.5C 274.975,105.011 273.808,106.011 271.5,106.5C 269.097,106.825 266.931,106.492 265,105.5C 264,106.833 263,108.167 262,109.5C 261.333,106.833 260.667,106.833 260,109.5C 256.722,108.394 253.722,109.061 251,111.5C 249.605,110.185 248.605,110.519 248,112.5C 245.91,111.209 244.576,111.876 244,114.5C 243.667,114.167 243.333,113.833 243,113.5C 241.414,114.376 239.914,115.376 238.5,116.5C 237.201,115.91 236.368,114.91 236,113.5C 235.667,114.5 235.333,115.5 235,116.5C 234.333,117.833 233.667,117.833 233,116.5C 232.581,117.672 231.915,118.672 231,119.5C 229.602,118.949 228.268,118.616 227,118.5C 225.742,121.055 223.909,121.722 221.5,120.5C 220.749,121.376 220.249,122.376 220,123.5C 219.586,123.043 219.086,122.709 218.5,122.5C 216.165,122.782 213.998,124.115 212,126.5C 211.667,126.167 211.333,125.833 211,125.5C 208.667,127.5 206.333,129.5 204,131.5C 203.577,130.044 202.744,129.544 201.5,130C 201.833,130.333 202.167,130.667 202.5,131C 201.299,131.903 200.465,133.069 200,134.5C 199.333,133.833 198.667,133.167 198,132.5C 195.406,133.462 193.406,135.129 192,137.5C 191.282,136.549 190.449,136.383 189.5,137C 189.5,138 189.5,139 189.5,140C 188.551,140.617 187.718,140.451 187,139.5C 186.492,141.904 185.325,142.571 183.5,141.5C 182.416,142.665 181.583,143.998 181,145.5C 180.667,145.167 180.333,144.833 180,144.5C 179.641,147.544 178.974,147.878 178,145.5C 177.641,148.544 176.974,148.878 176,146.5C 172.631,149.773 168.798,152.44 164.5,154.5C 164,155.5 163.5,156.5 163,157.5C 162.667,157.167 162.333,156.833 162,156.5C 159.877,157.883 158.877,159.55 159,161.5C 157.129,160.332 155.629,160.832 154.5,163C 155.602,166.06 154.602,166.893 151.5,165.5C 150.833,166.833 150.167,168.167 149.5,169.5C 148.914,169.291 148.414,168.957 148,168.5C 147.104,171.082 145.771,173.416 144,175.5C 143.692,174.692 143.192,174.025 142.5,173.5C 141.289,174.274 141.289,175.107 142.5,176C 141.552,176.483 140.552,176.649 139.5,176.5C 139.439,178.592 138.439,180.092 136.5,181C 137.654,181.914 137.487,182.747 136,183.5C 134.16,182.167 133.66,182.334 134.5,184C 133.284,185.74 131.618,186.74 129.5,187C 129.833,187.333 130.167,187.667 130.5,188C 128.228,190.027 126.061,192.194 124,194.5C 123.581,198.852 122.914,199.185 122,195.5C 121.529,197.246 120.862,198.913 120,200.5C 119.667,200.167 119.333,199.833 119,199.5C 118.316,200.784 118.483,201.951 119.5,203C 117.754,203.471 116.087,204.138 114.5,205C 115.167,205.333 115.833,205.667 116.5,206C 114.343,208.548 112.176,210.381 110,211.5C 109.667,213.167 109.333,214.833 109,216.5C 107.334,215.66 107.167,216.16 108.5,218C 106.905,217.383 105.572,217.716 104.5,219C 104.957,219.414 105.291,219.914 105.5,220.5C 104.139,222.028 102.972,223.695 102,225.5C 101.667,225.167 101.333,224.833 101,224.5C 100.587,227.232 99.9203,229.899 99,232.5C 98.6667,232.167 98.3333,231.833 98,231.5C 97.2689,233.899 96.1022,236.065 94.5,238C 94.8333,238.333 95.1667,238.667 95.5,239C 93.5053,240.328 91.8387,241.995 90.5,244C 90.7355,244.873 91.0688,245.707 91.5,246.5C 90.4706,246.296 89.4706,246.796 88.5,248C 89.1667,248.333 89.8333,248.667 90.5,249C 87.5878,249.845 86.5878,251.512 87.5,254C 86.6361,256.071 85.3028,257.738 83.5,259C 83.9574,259.414 84.2907,259.914 84.5,260.5C 83.294,262.149 81.9606,263.649 80.5,265C 81.3081,265.308 81.9747,265.808 82.5,266.5C 81.3989,268.394 80.0655,269.061 78.5,268.5C 79.0253,269.192 79.6919,269.692 80.5,270C 77.2697,271.724 76.9364,273.724 79.5,276C 77.6292,278.039 75.9625,279.539 74.5,280.5C 75.6405,281.425 75.6405,282.259 74.5,283C 76.9913,283.626 76.9913,284.459 74.5,285.5C 74.7093,286.086 75.0426,286.586 75.5,287C 74.3333,288.833 73.1667,290.667 72,292.5C 70.3335,291.66 70.1669,292.16 71.5,294C 68.8333,294.667 68.8333,295.333 71.5,296C 69.8542,297.555 69.5209,299.221 70.5,301C 69.5,304 68.5,307 67.5,310C 67.8333,310.333 68.1667,310.667 68.5,311C 67.244,311.417 66.5774,312.25 66.5,313.5C 49.2566,296.749 35.2566,277.582 24.5,256C 43.3769,221.293 68.3769,191.627 99.5,167C 145.533,131.74 197.033,107.573 254,94.5C 264.41,97.0292 274.577,100.029 284.5,103.5 Z"/></g>
<g><path style="opacity:1" fill="#793336" d="M 284.5,103.5 C 299.754,107.471 314.421,112.805 328.5,119.5C 327.883,119.611 327.383,119.944 327,120.5C 325.184,118.559 323.184,117.892 321,118.5C 320.653,120.18 319.653,121.18 318,121.5C 316.026,119.715 314.026,118.715 312,118.5C 311.667,119.167 311.333,119.833 311,120.5C 308.747,120.369 306.581,120.035 304.5,119.5C 303.808,120.025 303.308,120.692 303,121.5C 301.951,120.483 300.784,120.316 299.5,121C 299.833,121.333 300.167,121.667 300.5,122C 298.77,123.852 297.604,123.686 297,121.5C 296.667,122.167 296.333,122.833 296,123.5C 294.058,123.627 292.058,123.294 290,122.5C 289.167,122.667 288.333,122.833 287.5,123C 288.34,124.666 287.84,124.833 286,123.5C 285.692,124.308 285.192,124.975 284.5,125.5C 283.575,124.359 282.741,124.359 282,125.5C 281.692,124.692 281.192,124.025 280.5,123.5C 278.65,124.242 277.984,125.242 278.5,126.5C 277.522,126.023 276.689,125.357 276,124.5C 275.558,126.679 274.558,127.345 273,126.5C 272,127.167 271,127.833 270,128.5C 267.429,127.755 264.929,127.421 262.5,127.5C 259.885,129.515 257.552,131.182 255.5,132.5C 253.844,130.978 252.677,131.311 252,133.5C 251.667,132.833 251.333,132.167 251,131.5C 250.333,132.833 249.667,134.167 249,135.5C 247.657,134.786 246.324,135.12 245,136.5C 244.667,135.833 244.333,135.167 244,134.5C 243.492,136.904 242.325,137.571 240.5,136.5C 239.749,137.376 239.249,138.376 239,139.5C 237.093,139.579 235.093,139.246 233,138.5C 231.13,140.219 228.963,141.219 226.5,141.5C 226.5,142.5 226.5,143.5 226.5,144.5C 224.193,144.986 222.027,144.986 220,144.5C 219.667,145.5 219.333,146.5 219,147.5C 218.667,147.167 218.333,146.833 218,146.5C 215.667,148.167 213.333,149.833 211,151.5C 209.442,150.655 208.442,151.321 208,153.5C 207.667,152.833 207.333,152.167 207,151.5C 205.899,153.394 204.566,154.061 203,153.5C 202.667,154.5 202.333,155.5 202,156.5C 200.927,155.72 199.76,155.887 198.5,157C 199.167,157.333 199.833,157.667 200.5,158C 199.216,158.684 198.049,158.517 197,157.5C 196.517,158.448 196.351,159.448 196.5,160.5C 192.524,162.109 188.357,164.442 184,167.5C 183.086,166.346 182.253,166.513 181.5,168C 182.258,169.364 181.758,170.531 180,171.5C 179.667,171.167 179.333,170.833 179,170.5C 178.328,174.03 176.162,175.363 172.5,174.5C 169.657,177.131 167.49,180.465 166,184.5C 165,184.167 164,183.833 163,183.5C 163.057,187.453 161.39,189.12 158,188.5C 157.085,189.328 156.419,190.328 156,191.5C 155.667,191.167 155.333,190.833 155,190.5C 154.727,192.329 153.893,193.829 152.5,195C 152.833,195.333 153.167,195.667 153.5,196C 151.269,197.147 148.935,198.147 146.5,199C 148.569,199.324 148.902,200.158 147.5,201.5C 146.726,202.711 145.893,202.711 145,201.5C 144.667,202.5 144.333,203.5 144,204.5C 142,205.167 140.667,206.5 140,208.5C 139.086,207.346 138.253,207.513 137.5,209C 139.686,209.604 139.852,210.77 138,212.5C 137.549,210.071 136.715,209.904 135.5,212C 135.5,213.667 135.5,215.333 135.5,217C 133.833,218 132.167,219 130.5,220C 130.833,220.333 131.167,220.667 131.5,221C 130.167,222.333 128.833,223.667 127.5,225C 128.448,225.483 129.448,225.649 130.5,225.5C 121.858,233.98 113.691,242.98 106,252.5C 105.64,255.794 106.473,258.794 108.5,261.5C 107.153,260.972 105.819,260.805 104.5,261C 104.665,262.117 104.998,263.284 105.5,264.5C 104.5,265.333 103.5,266.167 102.5,267C 102.833,268 103.167,269 103.5,270C 101.14,271.365 99.4735,273.365 98.5,276C 99.3567,276.689 100.023,277.522 100.5,278.5C 99.2402,279.382 98.0736,280.382 97,281.5C 96.4745,283.55 95.6411,285.383 94.5,287C 93.9394,288.566 94.6061,289.899 96.5,291C 93.8758,291.576 93.2092,292.91 94.5,295C 93.09,295.368 92.09,296.201 91.5,297.5C 91.5,299.833 91.5,302.167 91.5,304.5C 90.9747,305.192 90.3081,305.692 89.5,306C 89.5012,307.399 89.8346,308.899 90.5,310.5C 87.746,312.174 87.4127,313.841 89.5,315.5C 88.0921,316.243 86.7588,317.077 85.5,318C 85.3437,319.67 86.0104,321.337 87.5,323C 85.8019,323.697 84.8019,325.031 84.5,327C 85.8613,328.584 86.528,330.418 86.5,332.5C 79.2018,326.869 72.5352,320.536 66.5,313.5C 66.5774,312.25 67.244,311.417 68.5,311C 68.1667,310.667 67.8333,310.333 67.5,310C 68.5,307 69.5,304 70.5,301C 69.5209,299.221 69.8542,297.555 71.5,296C 68.8333,295.333 68.8333,294.667 71.5,294C 70.1669,292.16 70.3335,291.66 72,292.5C 73.1667,290.667 74.3333,288.833 75.5,287C 75.0426,286.586 74.7093,286.086 74.5,285.5C 76.9913,284.459 76.9913,283.626 74.5,283C 75.6405,282.259 75.6405,281.425 74.5,280.5C 75.9625,279.539 77.6292,278.039 79.5,276C 76.9364,273.724 77.2697,271.724 80.5,270C 79.6919,269.692 79.0253,269.192 78.5,268.5C 80.0655,269.061 81.3989,268.394 82.5,266.5C 81.9747,265.808 81.3081,265.308 80.5,265C 81.9606,263.649 83.294,262.149 84.5,260.5C 84.2907,259.914 83.9574,259.414 83.5,259C 85.3028,257.738 86.6361,256.071 87.5,254C 86.5878,251.512 87.5878,249.845 90.5,249C 89.8333,248.667 89.1667,248.333 88.5,248C 89.4706,246.796 90.4706,246.296 91.5,246.5C 91.0688,245.707 90.7355,244.873 90.5,244C 91.8387,241.995 93.5053,240.328 95.5,239C 95.1667,238.667 94.8333,238.333 94.5,238C 96.1022,236.065 97.2689,233.899 98,231.5C 98.3333,231.833 98.6667,232.167 99,232.5C 99.9203,229.899 100.587,227.232 101,224.5C 101.333,224.833 101.667,225.167 102,225.5C 102.972,223.695 104.139,222.028 105.5,220.5C 105.291,219.914 104.957,219.414 104.5,219C 105.572,217.716 106.905,217.383 108.5,218C 107.167,216.16 107.334,215.66 109,216.5C 109.333,214.833 109.667,213.167 110,211.5C 112.176,210.381 114.343,208.548 116.5,206C 115.833,205.667 115.167,205.333 114.5,205C 116.087,204.138 117.754,203.471 119.5,203C 118.483,201.951 118.316,200.784 119,199.5C 119.333,199.833 119.667,200.167 120,200.5C 120.862,198.913 121.529,197.246 122,195.5C 122.914,199.185 123.581,198.852 124,194.5C 126.061,192.194 128.228,190.027 130.5,188C 130.167,187.667 129.833,187.333 129.5,187C 131.618,186.74 133.284,185.74 134.5,184C 133.66,182.334 134.16,182.167 136,183.5C 137.487,182.747 137.654,181.914 136.5,181C 138.439,180.092 139.439,178.592 139.5,176.5C 140.552,176.649 141.552,176.483 142.5,176C 141.289,175.107 141.289,174.274 142.5,173.5C 143.192,174.025 143.692,174.692 144,175.5C 145.771,173.416 147.104,171.082 148,168.5C 148.414,168.957 148.914,169.291 149.5,169.5C 150.167,168.167 150.833,166.833 151.5,165.5C 154.602,166.893 155.602,166.06 154.5,163C 155.629,160.832 157.129,160.332 159,161.5C 158.877,159.55 159.877,157.883 162,156.5C 162.333,156.833 162.667,157.167 163,157.5C 163.5,156.5 164,155.5 164.5,154.5C 168.798,152.44 172.631,149.773 176,146.5C 176.974,148.878 177.641,148.544 178,145.5C 178.974,147.878 179.641,147.544 180,144.5C 180.333,144.833 180.667,145.167 181,145.5C 181.583,143.998 182.416,142.665 183.5,141.5C 185.325,142.571 186.492,141.904 187,139.5C 187.718,140.451 188.551,140.617 189.5,140C 189.5,139 189.5,138 189.5,137C 190.449,136.383 191.282,136.549 192,137.5C 193.406,135.129 195.406,133.462 198,132.5C 198.667,133.167 199.333,133.833 200,134.5C 200.465,133.069 201.299,131.903 202.5,131C 202.167,130.667 201.833,130.333 201.5,130C 202.744,129.544 203.577,130.044 204,131.5C 206.333,129.5 208.667,127.5 211,125.5C 211.333,125.833 211.667,126.167 212,126.5C 213.998,124.115 216.165,122.782 218.5,122.5C 219.086,122.709 219.586,123.043 220,123.5C 220.249,122.376 220.749,121.376 221.5,120.5C 223.909,121.722 225.742,121.055 227,118.5C 228.268,118.616 229.602,118.949 231,119.5C 231.915,118.672 232.581,117.672 233,116.5C 233.667,117.833 234.333,117.833 235,116.5C 235.333,115.5 235.667,114.5 236,113.5C 236.368,114.91 237.201,115.91 238.5,116.5C 239.914,115.376 241.414,114.376 243,113.5C 243.333,113.833 243.667,114.167 244,114.5C 244.576,111.876 245.91,111.209 248,112.5C 248.605,110.519 249.605,110.185 251,111.5C 253.722,109.061 256.722,108.394 260,109.5C 260.667,106.833 261.333,106.833 262,109.5C 263,108.167 264,106.833 265,105.5C 266.931,106.492 269.097,106.825 271.5,106.5C 273.808,106.011 274.975,105.011 275,103.5C 278.243,103.56 281.41,103.56 284.5,103.5 Z"/></g>
<g><path style="opacity:1" fill="#7f3638" d="M 328.5,119.5 C 349.689,127.76 369.689,138.093 388.5,150.5C 387.12,151.706 385.953,151.373 385,149.5C 382.417,151.134 379.917,151.3 377.5,150C 377.957,149.586 378.291,149.086 378.5,148.5C 376.531,146.579 375.031,146.579 374,148.5C 370.877,147.94 367.877,146.94 365,145.5C 364.055,145.905 363.388,146.572 363,147.5C 361.47,146.364 360.137,145.364 359,144.5C 358.667,145.167 358.333,145.833 358,146.5C 356.921,144.606 355.587,144.273 354,145.5C 353.667,144.5 353.333,143.5 353,142.5C 352.632,143.91 351.799,144.91 350.5,145.5C 347.18,143.976 343.68,142.976 340,142.5C 338.667,143.167 337.667,144.167 337,145.5C 334.482,143.653 331.815,143.32 329,144.5C 328.055,144.095 327.388,143.428 327,142.5C 325.471,143.583 323.971,144.583 322.5,145.5C 322.891,144.109 322.058,143.109 320,142.5C 319.667,143.167 319.333,143.833 319,144.5C 318.311,143.643 317.478,142.977 316.5,142.5C 316.577,144.31 315.41,145.644 313,146.5C 312.667,145.5 312.333,144.5 312,143.5C 310.396,144.649 308.73,144.649 307,143.5C 305.103,143.896 303.603,144.896 302.5,146.5C 300.974,144.342 299.474,144.675 298,147.5C 296.887,146.289 295.72,146.289 294.5,147.5C 293.808,146.975 293.308,146.308 293,145.5C 292.667,146.833 292.333,148.167 292,149.5C 291.517,148.552 291.351,147.552 291.5,146.5C 286.888,145.057 286.555,145.723 290.5,148.5C 290.167,148.833 289.833,149.167 289.5,149.5C 285.85,149.033 282.35,149.033 279,149.5C 278.667,150.167 278.333,150.833 278,151.5C 276.667,150.833 275.333,150.167 274,149.5C 272.961,152.877 271.461,153.543 269.5,151.5C 267.695,153.903 265.362,155.57 262.5,156.5C 263.243,157.182 263.909,157.849 264.5,158.5C 255.405,156.981 246.405,157.481 237.5,160C 196.691,173.724 161.024,195.557 130.5,225.5C 129.448,225.649 128.448,225.483 127.5,225C 128.833,223.667 130.167,222.333 131.5,221C 131.167,220.667 130.833,220.333 130.5,220C 132.167,219 133.833,218 135.5,217C 135.5,215.333 135.5,213.667 135.5,212C 136.715,209.904 137.549,210.071 138,212.5C 139.852,210.77 139.686,209.604 137.5,209C 138.253,207.513 139.086,207.346 140,208.5C 140.667,206.5 142,205.167 144,204.5C 144.333,203.5 144.667,202.5 145,201.5C 145.893,202.711 146.726,202.711 147.5,201.5C 148.902,200.158 148.569,199.324 146.5,199C 148.935,198.147 151.269,197.147 153.5,196C 153.167,195.667 152.833,195.333 152.5,195C 153.893,193.829 154.727,192.329 155,190.5C 155.333,190.833 155.667,191.167 156,191.5C 156.419,190.328 157.085,189.328 158,188.5C 161.39,189.12 163.057,187.453 163,183.5C 164,183.833 165,184.167 166,184.5C 167.49,180.465 169.657,177.131 172.5,174.5C 176.162,175.363 178.328,174.03 179,170.5C 179.333,170.833 179.667,171.167 180,171.5C 181.758,170.531 182.258,169.364 181.5,168C 182.253,166.513 183.086,166.346 184,167.5C 188.357,164.442 192.524,162.109 196.5,160.5C 196.351,159.448 196.517,158.448 197,157.5C 198.049,158.517 199.216,158.684 200.5,158C 199.833,157.667 199.167,157.333 198.5,157C 199.76,155.887 200.927,155.72 202,156.5C 202.333,155.5 202.667,154.5 203,153.5C 204.566,154.061 205.899,153.394 207,151.5C 207.333,152.167 207.667,152.833 208,153.5C 208.442,151.321 209.442,150.655 211,151.5C 213.333,149.833 215.667,148.167 218,146.5C 218.333,146.833 218.667,147.167 219,147.5C 219.333,146.5 219.667,145.5 220,144.5C 222.027,144.986 224.193,144.986 226.5,144.5C 226.5,143.5 226.5,142.5 226.5,141.5C 228.963,141.219 231.13,140.219 233,138.5C 235.093,139.246 237.093,139.579 239,139.5C 239.249,138.376 239.749,137.376 240.5,136.5C 242.325,137.571 243.492,136.904 244,134.5C 244.333,135.167 244.667,135.833 245,136.5C 246.324,135.12 247.657,134.786 249,135.5C 249.667,134.167 250.333,132.833 251,131.5C 251.333,132.167 251.667,132.833 252,133.5C 252.677,131.311 253.844,130.978 255.5,132.5C 257.552,131.182 259.885,129.515 262.5,127.5C 264.929,127.421 267.429,127.755 270,128.5C 271,127.833 272,127.167 273,126.5C 274.558,127.345 275.558,126.679 276,124.5C 276.689,125.357 277.522,126.023 278.5,126.5C 277.984,125.242 278.65,124.242 280.5,123.5C 281.192,124.025 281.692,124.692 282,125.5C 282.741,124.359 283.575,124.359 284.5,125.5C 285.192,124.975 285.692,124.308 286,123.5C 287.84,124.833 288.34,124.666 287.5,123C 288.333,122.833 289.167,122.667 290,122.5C 292.058,123.294 294.058,123.627 296,123.5C 296.333,122.833 296.667,122.167 297,121.5C 297.604,123.686 298.77,123.852 300.5,122C 300.167,121.667 299.833,121.333 299.5,121C 300.784,120.316 301.951,120.483 303,121.5C 303.308,120.692 303.808,120.025 304.5,119.5C 306.581,120.035 308.747,120.369 311,120.5C 311.333,119.833 311.667,119.167 312,118.5C 314.026,118.715 316.026,119.715 318,121.5C 319.653,121.18 320.653,120.18 321,118.5C 323.184,117.892 325.184,118.559 327,120.5C 327.383,119.944 327.883,119.611 328.5,119.5 Z"/></g>
<g><path style="opacity:1" fill="#85393b" d="M 388.5,150.5 C 412.546,165.207 433.88,183.207 452.5,204.5C 450.393,204.278 448.726,203.278 447.5,201.5C 446.914,201.709 446.414,202.043 446,202.5C 444.659,199.813 442.993,198.147 441,197.5C 440.667,197.833 440.333,198.167 440,198.5C 437.254,195.833 434.587,193.167 432,190.5C 430.167,193.333 428.667,193.167 427.5,190C 428.34,188.334 427.84,188.167 426,189.5C 425.333,186.833 424.667,186.833 424,189.5C 423.683,187.699 423.016,187.366 422,188.5C 419.667,187.5 418,185.833 417,183.5C 415.16,184.833 414.66,184.666 415.5,183C 411.683,182.529 408.017,181.529 404.5,180C 403.874,179.25 403.374,178.416 403,177.5C 401.002,178.271 399.335,177.605 398,175.5C 397.667,176.167 397.333,176.833 397,177.5C 395.238,175.537 393.571,174.204 392,173.5C 390.165,174.26 388.165,174.594 386,174.5C 385.055,174.095 384.388,173.428 384,172.5C 382.951,173.517 381.784,173.684 380.5,173C 381.524,171.633 381.024,170.8 379,170.5C 378.05,171.022 377.216,171.689 376.5,172.5C 376.089,171.738 375.923,170.738 376,169.5C 373.45,169.323 371.117,169.657 369,170.5C 368,169.5 367,168.5 366,167.5C 365.333,170.167 364.667,170.167 364,167.5C 363.667,167.833 363.333,168.167 363,168.5C 361.004,168.004 359.337,167.004 358,165.5C 357,166.833 356,166.833 355,165.5C 354.085,166.328 353.419,167.328 353,168.5C 351.559,167.13 349.892,166.13 348,165.5C 347.667,166.167 347.333,166.833 347,167.5C 345.333,166.167 343.667,166.167 342,167.5C 340.921,165.606 339.587,165.273 338,166.5C 337.125,164.487 335.791,164.487 334,166.5C 333.275,164.842 332.108,164.342 330.5,165C 331.167,165.333 331.833,165.667 332.5,166C 331.167,166.667 329.833,166.667 328.5,166C 329.696,165.346 329.696,164.846 328.5,164.5C 327.186,165.313 326.019,166.313 325,167.5C 323.667,163.5 322.333,163.5 321,167.5C 319.428,165.411 317.595,165.411 315.5,167.5C 313.388,167.039 311.221,166.706 309,166.5C 307.221,169.276 306.221,168.943 306,165.5C 304.667,166.167 303.333,166.833 302,167.5C 301,167.167 300,166.833 299,166.5C 298.517,167.448 298.351,168.448 298.5,169.5C 287.416,165.027 276.082,161.361 264.5,158.5C 263.909,157.849 263.243,157.182 262.5,156.5C 265.362,155.57 267.695,153.903 269.5,151.5C 271.461,153.543 272.961,152.877 274,149.5C 275.333,150.167 276.667,150.833 278,151.5C 278.333,150.833 278.667,150.167 279,149.5C 282.35,149.033 285.85,149.033 289.5,149.5C 289.833,149.167 290.167,148.833 290.5,148.5C 286.555,145.723 286.888,145.057 291.5,146.5C 291.351,147.552 291.517,148.552 292,149.5C 292.333,148.167 292.667,146.833 293,145.5C 293.308,146.308 293.808,146.975 294.5,147.5C 295.72,146.289 296.887,146.289 298,147.5C 299.474,144.675 300.974,144.342 302.5,146.5C 303.603,144.896 305.103,143.896 307,143.5C 308.73,144.649 310.396,144.649 312,143.5C 312.333,144.5 312.667,145.5 313,146.5C 315.41,145.644 316.577,144.31 316.5,142.5C 317.478,142.977 318.311,143.643 319,144.5C 319.333,143.833 319.667,143.167 320,142.5C 322.058,143.109 322.891,144.109 322.5,145.5C 323.971,144.583 325.471,143.583 327,142.5C 327.388,143.428 328.055,144.095 329,144.5C 331.815,143.32 334.482,143.653 337,145.5C 337.667,144.167 338.667,143.167 340,142.5C 343.68,142.976 347.18,143.976 350.5,145.5C 351.799,144.91 352.632,143.91 353,142.5C 353.333,143.5 353.667,144.5 354,145.5C 355.587,144.273 356.921,144.606 358,146.5C 358.333,145.833 358.667,145.167 359,144.5C 360.137,145.364 361.47,146.364 363,147.5C 363.388,146.572 364.055,145.905 365,145.5C 367.877,146.94 370.877,147.94 374,148.5C 375.031,146.579 376.531,146.579 378.5,148.5C 378.291,149.086 377.957,149.586 377.5,150C 379.917,151.3 382.417,151.134 385,149.5C 385.953,151.373 387.12,151.706 388.5,150.5 Z"/></g>
<g><path style="opacity:1" fill="#2b1f1e" d="M 264.5,158.5 C 276.082,161.361 287.416,165.027 298.5,169.5C 310.646,175.071 322.313,181.404 333.5,188.5C 344.426,196.084 355.092,204.084 365.5,212.5C 379.527,223.862 391.861,236.862 402.5,251.5C 401.441,253.534 400.441,255.534 399.5,257.5C 395.487,261.515 391.821,265.848 388.5,270.5C 383.167,275.167 378.167,280.167 373.5,285.5C 367.511,290.157 361.844,295.157 356.5,300.5C 347.162,306.841 337.828,313.174 328.5,319.5C 317.407,325.713 306.073,331.38 294.5,336.5C 283.165,340.163 271.832,343.496 260.5,346.5C 254.167,347.833 247.833,347.833 241.5,346.5C 235.003,344.595 228.337,342.929 221.5,341.5C 217.048,339.459 212.382,337.792 207.5,336.5C 197.719,332.11 188.052,327.443 178.5,322.5C 171.709,317.598 164.709,312.932 157.5,308.5C 152.524,304.53 147.524,300.53 142.5,296.5C 137.156,291.157 131.489,286.157 125.5,281.5C 119.804,274.808 114.137,268.142 108.5,261.5C 106.473,258.794 105.64,255.794 106,252.5C 113.691,242.98 121.858,233.98 130.5,225.5C 161.024,195.557 196.691,173.724 237.5,160C 246.405,157.481 255.405,156.981 264.5,158.5 Z"/></g>
<g><path style="opacity:1" fill="#8b3c3d" d="M 452.5,204.5 C 465.44,217.684 475.94,232.684 484,249.5C 483.794,254.286 482.294,258.619 479.5,262.5C 478.391,261.71 477.058,261.21 475.5,261C 479.277,259.2 479.944,256.866 477.5,254C 476.939,252.434 477.606,251.101 479.5,250C 478.285,247.904 477.451,248.071 477,250.5C 475.981,249.313 474.814,248.313 473.5,247.5C 472.227,247.746 471.06,247.746 470,247.5C 469.5,246.333 468.667,245.5 467.5,245C 470.538,241.804 470.038,240.97 466,242.5C 462.921,241.324 461.755,239.324 462.5,236.5C 459.389,234.461 457.055,231.794 455.5,228.5C 454.914,228.709 454.414,229.043 454,229.5C 453.02,228.019 451.853,226.685 450.5,225.5C 451.397,225.331 452.397,224.998 453.5,224.5C 450.137,223.691 447.304,222.025 445,219.5C 444.282,220.451 443.449,220.617 442.5,220C 441.54,218.581 440.707,217.081 440,215.5C 438.192,215.888 436.525,215.888 435,215.5C 434.316,214.216 434.483,213.049 435.5,212C 433.714,211.215 432.214,210.049 431,208.5C 430.333,212.5 429.667,212.5 429,208.5C 427.992,208.982 426.825,209.148 425.5,209C 426.993,210.156 426.826,210.99 425,211.5C 424.5,211.333 424,211.167 423.5,211C 425.891,208.126 425.558,206.626 422.5,206.5C 422.775,201.78 421.941,201.446 420,205.5C 419.935,203.117 419.102,202.45 417.5,203.5C 416.117,200.924 415.283,201.258 415,204.5C 412.908,202.654 411.574,200.321 411,197.5C 409.16,198.833 408.66,198.666 409.5,197C 408.234,196.691 407.067,196.191 406,195.5C 405.667,195.833 405.333,196.167 405,196.5C 403.846,195.257 402.512,194.257 401,193.5C 400.135,195.225 399.469,196.892 399,198.5C 398.46,195.639 397.46,192.972 396,190.5C 395.851,193.279 395.017,193.779 393.5,192C 394.451,191.282 394.617,190.449 394,189.5C 392.156,190.711 391.322,192.044 391.5,193.5C 389.729,192.965 389.396,192.131 390.5,191C 387.791,190.459 385.791,188.959 384.5,186.5C 383.201,187.09 382.368,188.09 382,189.5C 380.887,188.289 379.72,188.289 378.5,189.5C 378.704,188.471 378.204,187.471 377,186.5C 374.766,187.705 373.099,187.039 372,184.5C 371.019,187.655 369.685,187.988 368,185.5C 367.333,188.167 366.667,188.167 366,185.5C 365.667,185.833 365.333,186.167 365,186.5C 364.667,185.167 364.333,183.833 364,182.5C 362.333,183.833 360.667,183.833 359,182.5C 357.582,184.363 355.749,184.863 353.5,184C 354.308,183.692 354.975,183.192 355.5,182.5C 353.039,180.619 350.872,180.619 349,182.5C 347.127,183.089 345.46,182.422 344,180.5C 344.195,182.126 344.195,183.793 344,185.5C 342.596,183.097 341.429,181.097 340.5,179.5C 339.332,181.801 337.832,183.134 336,183.5C 335.333,182.167 334.667,182.167 334,183.5C 333.016,181.205 332.183,181.539 331.5,184.5C 334.058,185.218 334.725,186.551 333.5,188.5C 322.313,181.404 310.646,175.071 298.5,169.5C 298.351,168.448 298.517,167.448 299,166.5C 300,166.833 301,167.167 302,167.5C 303.333,166.833 304.667,166.167 306,165.5C 306.221,168.943 307.221,169.276 309,166.5C 311.221,166.706 313.388,167.039 315.5,167.5C 317.595,165.411 319.428,165.411 321,167.5C 322.333,163.5 323.667,163.5 325,167.5C 326.019,166.313 327.186,165.313 328.5,164.5C 329.696,164.846 329.696,165.346 328.5,166C 329.833,166.667 331.167,166.667 332.5,166C 331.833,165.667 331.167,165.333 330.5,165C 332.108,164.342 333.275,164.842 334,166.5C 335.791,164.487 337.125,164.487 338,166.5C 339.587,165.273 340.921,165.606 342,167.5C 343.667,166.167 345.333,166.167 347,167.5C 347.333,166.833 347.667,166.167 348,165.5C 349.892,166.13 351.559,167.13 353,168.5C 353.419,167.328 354.085,166.328 355,165.5C 356,166.833 357,166.833 358,165.5C 359.337,167.004 361.004,168.004 363,168.5C 363.333,168.167 363.667,167.833 364,167.5C 364.667,170.167 365.333,170.167 366,167.5C 367,168.5 368,169.5 369,170.5C 371.117,169.657 373.45,169.323 376,169.5C 375.923,170.738 376.089,171.738 376.5,172.5C 377.216,171.689 378.05,171.022 379,170.5C 381.024,170.8 381.524,171.633 380.5,173C 381.784,173.684 382.951,173.517 384,172.5C 384.388,173.428 385.055,174.095 386,174.5C 388.165,174.594 390.165,174.26 392,173.5C 393.571,174.204 395.238,175.537 397,177.5C 397.333,176.833 397.667,176.167 398,175.5C 399.335,177.605 401.002,178.271 403,177.5C 403.374,178.416 403.874,179.25 404.5,180C 408.017,181.529 411.683,182.529 415.5,183C 414.66,184.666 415.16,184.833 417,183.5C 418,185.833 419.667,187.5 422,188.5C 423.016,187.366 423.683,187.699 424,189.5C 424.667,186.833 425.333,186.833 426,189.5C 427.84,188.167 428.34,188.334 427.5,190C 428.667,193.167 430.167,193.333 432,190.5C 434.587,193.167 437.254,195.833 440,198.5C 440.333,198.167 440.667,197.833 441,197.5C 442.993,198.147 444.659,199.813 446,202.5C 446.414,202.043 446.914,201.709 447.5,201.5C 448.726,203.278 450.393,204.278 452.5,204.5 Z"/></g>
<g><path style="opacity:1" fill="#723033" d="M 245.5,168.5 C 267.166,168.749 287.166,174.582 305.5,186C 316.642,194.762 324.475,205.928 329,219.5C 338.005,241.753 337.338,263.753 327,285.5C 317.984,304.847 303.484,318.347 283.5,326C 262.82,333.99 242.486,333.323 222.5,324C 194.963,312.455 178.463,291.955 173,262.5C 169.368,231.629 179.201,206.129 202.5,186C 216.274,178.472 230.607,172.639 245.5,168.5 Z"/></g>
<g><path style="opacity:1" fill="#913e3f" d="M 479.5,262.5 C 476.347,270.3 472.014,277.3 466.5,283.5C 464.569,278.381 461.569,273.881 457.5,270C 458.34,268.334 457.84,268.167 456,269.5C 456.979,267.721 456.646,266.055 455,264.5C 454.333,268.5 453.667,268.5 453,264.5C 451.5,263.333 450,262.167 448.5,261C 449.5,260.667 450.5,260.333 451.5,260C 448.833,258.667 446.167,257.333 443.5,256C 443.833,255.667 444.167,255.333 444.5,255C 443.167,254.333 441.833,253.667 440.5,253C 441.167,252.667 441.833,252.333 442.5,252C 441.192,251.176 439.692,250.676 438,250.5C 437.51,249.207 437.343,247.873 437.5,246.5C 435.876,246.64 434.71,245.973 434,244.5C 432.16,245.833 431.66,245.666 432.5,244C 428.824,241.994 426.324,239.494 425,236.5C 424.026,238.878 423.359,238.544 423,235.5C 422,235.5 421,235.5 420,235.5C 419.641,232.456 418.974,232.122 418,234.5C 416.702,230.692 414.702,229.692 412,231.5C 411.005,229.839 409.672,228.505 408,227.5C 406.85,226.576 405.85,226.576 405,227.5C 404.369,224.359 402.702,223.359 400,224.5C 398.333,223.167 396.667,221.833 395,220.5C 394.586,220.957 394.086,221.291 393.5,221.5C 391.419,219.867 389.253,218.201 387,216.5C 385.853,217.458 384.853,217.125 384,215.5C 382.84,217.797 381.84,217.464 381,214.5C 378.909,215.5 377.243,214.833 376,212.5C 375.261,213.574 374.261,214.241 373,214.5C 371.291,213.43 369.791,212.097 368.5,210.5C 367.261,210.942 366.261,211.609 365.5,212.5C 355.092,204.084 344.426,196.084 333.5,188.5C 334.725,186.551 334.058,185.218 331.5,184.5C 332.183,181.539 333.016,181.205 334,183.5C 334.667,182.167 335.333,182.167 336,183.5C 337.832,183.134 339.332,181.801 340.5,179.5C 341.429,181.097 342.596,183.097 344,185.5C 344.195,183.793 344.195,182.126 344,180.5C 345.46,182.422 347.127,183.089 349,182.5C 350.872,180.619 353.039,180.619 355.5,182.5C 354.975,183.192 354.308,183.692 353.5,184C 355.749,184.863 357.582,184.363 359,182.5C 360.667,183.833 362.333,183.833 364,182.5C 364.333,183.833 364.667,185.167 365,186.5C 365.333,186.167 365.667,185.833 366,185.5C 366.667,188.167 367.333,188.167 368,185.5C 369.685,187.988 371.019,187.655 372,184.5C 373.099,187.039 374.766,187.705 377,186.5C 378.204,187.471 378.704,188.471 378.5,189.5C 379.72,188.289 380.887,188.289 382,189.5C 382.368,188.09 383.201,187.09 384.5,186.5C 385.791,188.959 387.791,190.459 390.5,191C 389.396,192.131 389.729,192.965 391.5,193.5C 391.322,192.044 392.156,190.711 394,189.5C 394.617,190.449 394.451,191.282 393.5,192C 395.017,193.779 395.851,193.279 396,190.5C 397.46,192.972 398.46,195.639 399,198.5C 399.469,196.892 400.135,195.225 401,193.5C 402.512,194.257 403.846,195.257 405,196.5C 405.333,196.167 405.667,195.833 406,195.5C 407.067,196.191 408.234,196.691 409.5,197C 408.66,198.666 409.16,198.833 411,197.5C 411.574,200.321 412.908,202.654 415,204.5C 415.283,201.258 416.117,200.924 417.5,203.5C 419.102,202.45 419.935,203.117 420,205.5C 421.941,201.446 422.775,201.78 422.5,206.5C 425.558,206.626 425.891,208.126 423.5,211C 424,211.167 424.5,211.333 425,211.5C 426.826,210.99 426.993,210.156 425.5,209C 426.825,209.148 427.992,208.982 429,208.5C 429.667,212.5 430.333,212.5 431,208.5C 432.214,210.049 433.714,211.215 435.5,212C 434.483,213.049 434.316,214.216 435,215.5C 436.525,215.888 438.192,215.888 440,215.5C 440.707,217.081 441.54,218.581 442.5,220C 443.449,220.617 444.282,220.451 445,219.5C 447.304,222.025 450.137,223.691 453.5,224.5C 452.397,224.998 451.397,225.331 450.5,225.5C 451.853,226.685 453.02,228.019 454,229.5C 454.414,229.043 454.914,228.709 455.5,228.5C 457.055,231.794 459.389,234.461 462.5,236.5C 461.755,239.324 462.921,241.324 466,242.5C 470.038,240.97 470.538,241.804 467.5,245C 468.667,245.5 469.5,246.333 470,247.5C 471.06,247.746 472.227,247.746 473.5,247.5C 474.814,248.313 475.981,249.313 477,250.5C 477.451,248.071 478.285,247.904 479.5,250C 477.606,251.101 476.939,252.434 477.5,254C 479.944,256.866 479.277,259.2 475.5,261C 477.058,261.21 478.391,261.71 479.5,262.5 Z"/></g>
<g><path style="opacity:1" fill="#964141" d="M 384.5,246.5 C 382.054,247.508 380.554,246.508 380,243.5C 379.667,244.167 379.333,244.833 379,245.5C 376.537,244.524 373.87,243.191 371,241.5C 370.667,242.167 370.333,242.833 370,243.5C 369.492,241.096 368.325,240.429 366.5,241.5C 363.472,239.769 360.638,238.436 358,237.5C 356.513,238.155 355.347,239.155 354.5,240.5C 355.167,240.833 355.833,241.167 356.5,241.5C 354.429,242.976 353.429,244.976 353.5,247.5C 349.22,232.826 344.054,218.493 338,204.5C 355.24,216.573 370.74,230.573 384.5,246.5 Z"/></g>
<g><path style="opacity:1" fill="#984142" d="M 466.5,283.5 C 461.628,291.71 455.628,299.044 448.5,305.5C 448.324,303.009 448.324,300.509 448.5,298C 446.954,295.743 445.288,293.576 443.5,291.5C 442.575,290.359 441.741,290.359 441,291.5C 440.293,289.919 439.46,288.419 438.5,287C 439.345,285.442 438.679,284.442 436.5,284C 436.833,283.667 437.167,283.333 437.5,283C 435.981,281.782 434.814,280.282 434,278.5C 433.333,279.833 432.667,279.833 432,278.5C 431.316,276.641 430.316,274.974 429,273.5C 428.086,274.654 427.253,274.487 426.5,273C 427.28,271.927 427.113,270.76 426,269.5C 425.667,269.833 425.333,270.167 425,270.5C 423.345,270.198 422.012,268.864 421,266.5C 420.667,266.833 420.333,267.167 420,267.5C 418.612,264.055 416.112,261.889 412.5,261C 413.5,260.667 414.5,260.333 415.5,260C 411.101,257.435 406.935,255.268 403,253.5C 402.383,254.449 402.549,255.282 403.5,256C 402.099,256.41 400.766,256.91 399.5,257.5C 400.441,255.534 401.441,253.534 402.5,251.5C 391.861,236.862 379.527,223.862 365.5,212.5C 366.261,211.609 367.261,210.942 368.5,210.5C 369.791,212.097 371.291,213.43 373,214.5C 374.261,214.241 375.261,213.574 376,212.5C 377.243,214.833 378.909,215.5 381,214.5C 381.84,217.464 382.84,217.797 384,215.5C 384.853,217.125 385.853,217.458 387,216.5C 389.253,218.201 391.419,219.867 393.5,221.5C 394.086,221.291 394.586,220.957 395,220.5C 396.667,221.833 398.333,223.167 400,224.5C 402.702,223.359 404.369,224.359 405,227.5C 405.85,226.576 406.85,226.576 408,227.5C 409.672,228.505 411.005,229.839 412,231.5C 414.702,229.692 416.702,230.692 418,234.5C 418.974,232.122 419.641,232.456 420,235.5C 421,235.5 422,235.5 423,235.5C 423.359,238.544 424.026,238.878 425,236.5C 426.324,239.494 428.824,241.994 432.5,244C 431.66,245.666 432.16,245.833 434,244.5C 434.71,245.973 435.876,246.64 437.5,246.5C 437.343,247.873 437.51,249.207 438,250.5C 439.692,250.676 441.192,251.176 442.5,252C 441.833,252.333 441.167,252.667 440.5,253C 441.833,253.667 443.167,254.333 444.5,255C 444.167,255.333 443.833,255.667 443.5,256C 446.167,257.333 448.833,258.667 451.5,260C 450.5,260.333 449.5,260.667 448.5,261C 450,262.167 451.5,263.333 453,264.5C 453.667,268.5 454.333,268.5 455,264.5C 456.646,266.055 456.979,267.721 456,269.5C 457.84,268.167 458.34,268.334 457.5,270C 461.569,273.881 464.569,278.381 466.5,283.5 Z"/></g>
<g><path style="opacity:1" fill="#6c2f31" d="M 165.5,209.5 C 164.518,216.416 162.684,223.416 160,230.5C 158.672,225.543 158.006,220.543 158,215.5C 160.688,213.636 163.188,211.636 165.5,209.5 Z"/></g>
<g><path style="opacity:1" fill="#83383a" d="M 156.5,258.5 C 154.364,259.403 152.364,260.569 150.5,262C 151.167,262.333 151.833,262.667 152.5,263C 150.971,264.791 149.304,266.458 147.5,268C 147.957,268.414 148.291,268.914 148.5,269.5C 147.391,271.385 146.557,273.385 146,275.5C 145.683,273.699 145.016,273.366 144,274.5C 143.316,275.784 143.483,276.951 144.5,278C 143.833,278.333 143.167,278.667 142.5,279C 143.598,279.77 143.598,280.603 142.5,281.5C 138.243,278.749 134.41,275.416 131,271.5C 126.122,266.291 121.622,260.791 117.5,255C 126.945,244.266 136.945,234.099 147.5,224.5C 150.188,235.917 153.188,247.251 156.5,258.5 Z"/></g>
<g><path style="opacity:1" fill="#9e4444" d="M 384.5,246.5 C 387.532,247.999 389.032,250.332 389,253.5C 380.016,263.651 370.516,273.318 360.5,282.5C 358.037,270.85 355.703,259.183 353.5,247.5C 353.429,244.976 354.429,242.976 356.5,241.5C 355.833,241.167 355.167,240.833 354.5,240.5C 355.347,239.155 356.513,238.155 358,237.5C 360.638,238.436 363.472,239.769 366.5,241.5C 368.325,240.429 369.492,241.096 370,243.5C 370.333,242.833 370.667,242.167 371,241.5C 373.87,243.191 376.537,244.524 379,245.5C 379.333,244.833 379.667,244.167 380,243.5C 380.554,246.508 382.054,247.508 384.5,246.5 Z"/></g>
<g><path style="opacity:1" fill="#9f4545" d="M 448.5,305.5 C 443.833,310.833 438.833,315.833 433.5,320.5C 432.465,318.795 432.465,317.128 433.5,315.5C 433.154,314.304 432.654,314.304 432,315.5C 431.667,314.5 431.333,313.5 431,312.5C 430.667,312.833 430.333,313.167 430,313.5C 428.148,311.77 428.314,310.604 430.5,310C 428.821,308.174 427.654,306.008 427,303.5C 425.817,304.731 424.651,304.731 423.5,303.5C 424.167,302.833 424.833,302.167 425.5,301.5C 425.154,300.304 424.654,300.304 424,301.5C 423.667,300.167 423.333,298.833 423,297.5C 422.667,297.833 422.333,298.167 422,298.5C 421.935,296.117 421.102,295.45 419.5,296.5C 418.749,295.624 418.249,294.624 418,293.5C 417.667,293.833 417.333,294.167 417,294.5C 416.214,291.417 414.381,289.251 411.5,288C 411.833,287.667 412.167,287.333 412.5,287C 411.167,286 409.833,285 408.5,284C 408.833,283.667 409.167,283.333 409.5,283C 407.939,282.682 406.772,281.849 406,280.5C 405.667,280.833 405.333,281.167 405,281.5C 404.691,280.234 404.191,279.067 403.5,278C 401.187,277.338 398.854,276.838 396.5,276.5C 396.5,275.5 396.5,274.5 396.5,273.5C 393.833,272.5 391.167,271.5 388.5,270.5C 391.821,265.848 395.487,261.515 399.5,257.5C 400.766,256.91 402.099,256.41 403.5,256C 402.549,255.282 402.383,254.449 403,253.5C 406.935,255.268 411.101,257.435 415.5,260C 414.5,260.333 413.5,260.667 412.5,261C 416.112,261.889 418.612,264.055 420,267.5C 420.333,267.167 420.667,266.833 421,266.5C 422.012,268.864 423.345,270.198 425,270.5C 425.333,270.167 425.667,269.833 426,269.5C 427.113,270.76 427.28,271.927 426.5,273C 427.253,274.487 428.086,274.654 429,273.5C 430.316,274.974 431.316,276.641 432,278.5C 432.667,279.833 433.333,279.833 434,278.5C 434.814,280.282 435.981,281.782 437.5,283C 437.167,283.333 436.833,283.667 436.5,284C 438.679,284.442 439.345,285.442 438.5,287C 439.46,288.419 440.293,289.919 441,291.5C 441.741,290.359 442.575,290.359 443.5,291.5C 445.288,293.576 446.954,295.743 448.5,298C 448.324,300.509 448.324,303.009 448.5,305.5 Z"/></g>
<g><path style="opacity:1" fill="#7f3638" d="M 108.5,261.5 C 114.137,268.142 119.804,274.808 125.5,281.5C 120.919,281.348 119.919,282.848 122.5,286C 120.787,287.378 119.453,289.045 118.5,291C 119.5,291.333 120.5,291.667 121.5,292C 117.954,293.905 117.621,295.405 120.5,296.5C 119.335,297.584 118.002,298.417 116.5,299C 117.308,299.308 117.975,299.808 118.5,300.5C 117.167,301.833 115.833,303.167 114.5,304.5C 115.002,305.716 115.335,306.883 115.5,308C 113.875,308.853 113.542,309.853 114.5,311C 113.944,313.237 112.944,315.237 111.5,317C 111.131,319.552 111.131,322.219 111.5,325C 108.772,326.431 108.105,328.431 109.5,331C 109.097,332.473 108.43,333.806 107.5,335C 108.672,335.419 109.672,336.085 110.5,337C 109.603,340.118 109.603,343.118 110.5,346C 109.833,346.333 109.167,346.667 108.5,347C 109.337,348.011 109.67,349.178 109.5,350.5C 101.652,344.741 93.9854,338.741 86.5,332.5C 86.528,330.418 85.8613,328.584 84.5,327C 84.8019,325.031 85.8019,323.697 87.5,323C 86.0104,321.337 85.3437,319.67 85.5,318C 86.7588,317.077 88.0921,316.243 89.5,315.5C 87.4127,313.841 87.746,312.174 90.5,310.5C 89.8346,308.899 89.5012,307.399 89.5,306C 90.3081,305.692 90.9747,305.192 91.5,304.5C 91.5,302.167 91.5,299.833 91.5,297.5C 92.09,296.201 93.09,295.368 94.5,295C 93.2092,292.91 93.8758,291.576 96.5,291C 94.6061,289.899 93.9394,288.566 94.5,287C 95.6411,285.383 96.4745,283.55 97,281.5C 98.0736,280.382 99.2402,279.382 100.5,278.5C 100.023,277.522 99.3567,276.689 98.5,276C 99.4735,273.365 101.14,271.365 103.5,270C 103.167,269 102.833,268 102.5,267C 103.5,266.167 104.5,265.333 105.5,264.5C 104.998,263.284 104.665,262.117 104.5,261C 105.819,260.805 107.153,260.972 108.5,261.5 Z"/></g>
<g><path style="opacity:1" fill="#a44747" d="M 388.5,270.5 C 391.167,271.5 393.833,272.5 396.5,273.5C 396.5,274.5 396.5,275.5 396.5,276.5C 398.854,276.838 401.187,277.338 403.5,278C 404.191,279.067 404.691,280.234 405,281.5C 405.333,281.167 405.667,280.833 406,280.5C 406.772,281.849 407.939,282.682 409.5,283C 409.167,283.333 408.833,283.667 408.5,284C 409.833,285 411.167,286 412.5,287C 412.167,287.333 411.833,287.667 411.5,288C 414.381,289.251 416.214,291.417 417,294.5C 417.333,294.167 417.667,293.833 418,293.5C 418.249,294.624 418.749,295.624 419.5,296.5C 421.102,295.45 421.935,296.117 422,298.5C 422.333,298.167 422.667,297.833 423,297.5C 423.333,298.833 423.667,300.167 424,301.5C 424.654,300.304 425.154,300.304 425.5,301.5C 424.833,302.167 424.167,302.833 423.5,303.5C 424.651,304.731 425.817,304.731 427,303.5C 427.654,306.008 428.821,308.174 430.5,310C 428.314,310.604 428.148,311.77 430,313.5C 430.333,313.167 430.667,312.833 431,312.5C 431.333,313.5 431.667,314.5 432,315.5C 432.654,314.304 433.154,314.304 433.5,315.5C 432.465,317.128 432.465,318.795 433.5,320.5C 428.821,325.178 423.821,329.511 418.5,333.5C 418.294,331.451 417.461,331.117 416,332.5C 415.316,331.216 415.483,330.049 416.5,329C 415.672,328.085 414.672,327.419 413.5,327C 413.833,326.667 414.167,326.333 414.5,326C 411.751,324.654 411.417,323.32 413.5,322C 412.428,320.716 411.095,320.383 409.5,321C 410.167,320.333 410.833,319.667 411.5,319C 409.998,316.753 407.998,315.086 405.5,314C 405.957,313.586 406.291,313.086 406.5,312.5C 403.933,310.875 401.933,308.709 400.5,306C 400.833,305.667 401.167,305.333 401.5,305C 399.269,303.853 396.935,302.853 394.5,302C 397,301.167 397.167,300 395,298.5C 394.282,299.451 393.449,299.617 392.5,299C 393.451,298.282 393.617,297.449 393,296.5C 390.849,299.112 390.015,299.112 390.5,296.5C 388.955,294.56 386.955,293.394 384.5,293C 385.167,292.667 385.833,292.333 386.5,292C 384.598,291.801 383.098,290.967 382,289.5C 380.284,290.552 379.284,289.886 379,287.5C 378.586,287.957 378.086,288.291 377.5,288.5C 376.431,287.09 375.097,286.09 373.5,285.5C 378.167,280.167 383.167,275.167 388.5,270.5 Z"/></g>
<g><path style="opacity:1" fill="#86393b" d="M 125.5,281.5 C 131.489,286.157 137.156,291.157 142.5,296.5C 141.603,297.598 140.77,297.598 140,296.5C 139.383,297.449 139.549,298.282 140.5,299C 137.833,299.667 137.833,300.333 140.5,301C 140.275,303.319 138.942,305.319 136.5,307C 138.583,308.32 138.249,309.654 135.5,311C 136.174,312.751 136.507,314.417 136.5,316C 133.876,316.576 133.209,317.91 134.5,320C 131.833,320.667 131.833,321.333 134.5,322C 133.692,322.308 133.025,322.808 132.5,323.5C 132.888,325.641 132.888,327.641 132.5,329.5C 131.624,330.251 130.624,330.751 129.5,331C 130.308,331.308 130.975,331.808 131.5,332.5C 130.289,333.72 130.289,334.887 131.5,336C 130.773,337.399 130.273,338.899 130,340.5C 129.444,338.405 128.944,338.238 128.5,340C 130.803,343.846 130.469,347.513 127.5,351C 128.167,351.333 128.833,351.667 129.5,352C 128.359,352.741 128.359,353.575 129.5,354.5C 128.975,355.192 128.308,355.692 127.5,356C 128.138,357.707 128.138,359.54 127.5,361.5C 121.194,358.346 115.194,354.68 109.5,350.5C 109.67,349.178 109.337,348.011 108.5,347C 109.167,346.667 109.833,346.333 110.5,346C 109.603,343.118 109.603,340.118 110.5,337C 109.672,336.085 108.672,335.419 107.5,335C 108.43,333.806 109.097,332.473 109.5,331C 108.105,328.431 108.772,326.431 111.5,325C 111.131,322.219 111.131,319.552 111.5,317C 112.944,315.237 113.944,313.237 114.5,311C 113.542,309.853 113.875,308.853 115.5,308C 115.335,306.883 115.002,305.716 114.5,304.5C 115.833,303.167 117.167,301.833 118.5,300.5C 117.975,299.808 117.308,299.308 116.5,299C 118.002,298.417 119.335,297.584 120.5,296.5C 117.621,295.405 117.954,293.905 121.5,292C 120.5,291.667 119.5,291.333 118.5,291C 119.453,289.045 120.787,287.378 122.5,286C 119.919,282.848 120.919,281.348 125.5,281.5 Z"/></g>
<g><path style="opacity:1" fill="#8c3c3d" d="M 156.5,258.5 C 163.084,277.836 172.417,295.67 184.5,312C 169.036,304.077 155.036,293.91 142.5,281.5C 143.598,280.603 143.598,279.77 142.5,279C 143.167,278.667 143.833,278.333 144.5,278C 143.483,276.951 143.316,275.784 144,274.5C 145.016,273.366 145.683,273.699 146,275.5C 146.557,273.385 147.391,271.385 148.5,269.5C 148.291,268.914 147.957,268.414 147.5,268C 149.304,266.458 150.971,264.791 152.5,263C 151.833,262.667 151.167,262.333 150.5,262C 152.364,260.569 154.364,259.403 156.5,258.5 Z"/></g>
<g><path style="opacity:1" fill="#7b3537" d="M 345.5,263.5 C 348.641,272.849 349.641,282.515 348.5,292.5C 342.577,296.711 336.744,301.045 331,305.5C 333.242,298.798 335.908,292.131 339,285.5C 341.679,278.297 343.846,270.964 345.5,263.5 Z"/></g>
<g><path style="opacity:1" fill="#8b3b3d" d="M 142.5,296.5 C 147.524,300.53 152.524,304.53 157.5,308.5C 156.06,309.363 154.726,309.363 153.5,308.5C 152.684,310.287 151.684,311.954 150.5,313.5C 151.668,314.906 151.335,316.072 149.5,317C 152.544,317.359 152.878,318.026 150.5,319C 152.007,319.837 152.507,321.004 152,322.5C 150.308,320.755 148.475,320.422 146.5,321.5C 147.313,322.814 148.313,323.981 149.5,325C 148.833,325.333 148.167,325.667 147.5,326C 151.619,329.971 150.619,332.304 144.5,333C 145.624,333.249 146.624,333.749 147.5,334.5C 146.738,334.911 145.738,335.077 144.5,335C 145.46,336.419 146.293,337.919 147,339.5C 147.654,338.304 148.154,338.304 148.5,339.5C 146.009,340.541 146.009,341.374 148.5,342C 144.815,342.914 145.148,343.581 149.5,344C 148.428,345.284 147.095,345.617 145.5,345C 142.695,347.685 143.362,349.352 147.5,350C 144.057,350.221 143.724,351.221 146.5,353C 142.559,356.192 142.559,359.359 146.5,362.5C 144.069,365.213 143.402,368.213 144.5,371.5C 138.332,368.92 132.665,365.586 127.5,361.5C 128.138,359.54 128.138,357.707 127.5,356C 128.308,355.692 128.975,355.192 129.5,354.5C 128.359,353.575 128.359,352.741 129.5,352C 128.833,351.667 128.167,351.333 127.5,351C 130.469,347.513 130.803,343.846 128.5,340C 128.944,338.238 129.444,338.405 130,340.5C 130.273,338.899 130.773,337.399 131.5,336C 130.289,334.887 130.289,333.72 131.5,332.5C 130.975,331.808 130.308,331.308 129.5,331C 130.624,330.751 131.624,330.251 132.5,329.5C 132.888,327.641 132.888,325.641 132.5,323.5C 133.025,322.808 133.692,322.308 134.5,322C 131.833,321.333 131.833,320.667 134.5,320C 133.209,317.91 133.876,316.576 136.5,316C 136.507,314.417 136.174,312.751 135.5,311C 138.249,309.654 138.583,308.32 136.5,307C 138.942,305.319 140.275,303.319 140.5,301C 137.833,300.333 137.833,299.667 140.5,299C 139.549,298.282 139.383,297.449 140,296.5C 140.77,297.598 141.603,297.598 142.5,296.5 Z"/></g>
<g><path style="opacity:1" fill="#ab4a49" d="M 373.5,285.5 C 375.097,286.09 376.431,287.09 377.5,288.5C 378.086,288.291 378.586,287.957 379,287.5C 379.284,289.886 380.284,290.552 382,289.5C 383.098,290.967 384.598,291.801 386.5,292C 385.833,292.333 385.167,292.667 384.5,293C 386.955,293.394 388.955,294.56 390.5,296.5C 390.015,299.112 390.849,299.112 393,296.5C 393.617,297.449 393.451,298.282 392.5,299C 393.449,299.617 394.282,299.451 395,298.5C 397.167,300 397,301.167 394.5,302C 396.935,302.853 399.269,303.853 401.5,305C 401.167,305.333 400.833,305.667 400.5,306C 401.933,308.709 403.933,310.875 406.5,312.5C 406.291,313.086 405.957,313.586 405.5,314C 407.998,315.086 409.998,316.753 411.5,319C 410.833,319.667 410.167,320.333 409.5,321C 411.095,320.383 412.428,320.716 413.5,322C 411.417,323.32 411.751,324.654 414.5,326C 414.167,326.333 413.833,326.667 413.5,327C 414.672,327.419 415.672,328.085 416.5,329C 415.483,330.049 415.316,331.216 416,332.5C 417.461,331.117 418.294,331.451 418.5,333.5C 412.853,338.323 406.853,342.657 400.5,346.5C 399.402,345.603 399.402,344.77 400.5,344C 397.13,340.734 395.13,337.067 394.5,333C 393.081,330.761 391.081,328.428 388.5,326C 389.517,324.951 389.684,323.784 389,322.5C 388.396,324.686 387.23,324.852 385.5,323C 386.167,322.667 386.833,322.333 387.5,322C 385.689,319.616 383.355,317.949 380.5,317C 381.451,316.282 381.617,315.449 381,314.5C 379.836,314.165 378.503,314.165 377,314.5C 374.523,312.795 373.189,310.795 373,308.5C 372.667,309.5 372.333,310.5 372,311.5C 371.316,309.641 370.316,307.974 369,306.5C 365.084,304.799 360.918,302.799 356.5,300.5C 361.844,295.157 367.511,290.157 373.5,285.5 Z"/></g>
<g><path style="opacity:1" fill="#b14d4c" d="M 356.5,300.5 C 360.918,302.799 365.084,304.799 369,306.5C 370.316,307.974 371.316,309.641 372,311.5C 372.333,310.5 372.667,309.5 373,308.5C 373.189,310.795 374.523,312.795 377,314.5C 378.503,314.165 379.836,314.165 381,314.5C 381.617,315.449 381.451,316.282 380.5,317C 383.355,317.949 385.689,319.616 387.5,322C 386.833,322.333 386.167,322.667 385.5,323C 387.23,324.852 388.396,324.686 389,322.5C 389.684,323.784 389.517,324.951 388.5,326C 391.081,328.428 393.081,330.761 394.5,333C 395.13,337.067 397.13,340.734 400.5,344C 399.402,344.77 399.402,345.603 400.5,346.5C 393.542,351.652 386.208,356.319 378.5,360.5C 377.559,358.534 376.559,356.534 375.5,354.5C 377.026,351.305 376.36,349.638 373.5,349.5C 374.246,348.264 374.579,346.93 374.5,345.5C 371.402,345.587 371.068,345.087 373.5,344C 371.114,343.716 370.448,342.716 371.5,341C 369.522,338.767 367.355,337.6 365,337.5C 364.51,336.207 364.343,334.873 364.5,333.5C 362.794,331.839 360.128,330.672 356.5,330C 357.28,328.927 357.113,327.76 356,326.5C 355,326.833 354,327.167 353,327.5C 350.244,326.206 347.744,324.54 345.5,322.5C 343.93,322.694 342.43,322.694 341,322.5C 340.36,320.602 339.027,320.268 337,321.5C 335.674,321.245 334.674,320.578 334,319.5C 331.721,321.422 329.887,321.422 328.5,319.5C 337.828,313.174 347.162,306.841 356.5,300.5 Z"/></g>
<g><path style="opacity:1" fill="#913e3f" d="M 157.5,308.5 C 164.709,312.932 171.709,317.598 178.5,322.5C 176.621,322.393 176.288,322.893 177.5,324C 176.687,325.314 175.687,326.481 174.5,327.5C 175.025,328.192 175.692,328.692 176.5,329C 173.727,330.888 173.394,332.888 175.5,335C 174.833,337 173.5,338.333 171.5,339C 172.167,339.333 172.833,339.667 173.5,340C 173.5,341.333 173.5,342.667 173.5,344C 172.257,345.154 171.257,346.488 170.5,348C 171.738,347.923 172.738,348.089 173.5,348.5C 172.263,349.281 171.263,350.281 170.5,351.5C 171.833,353.167 171.833,354.833 170.5,356.5C 171.167,357.167 171.833,357.833 172.5,358.5C 168.787,360.337 168.787,361.837 172.5,363C 170.699,363.317 170.366,363.984 171.5,365C 169.043,366.512 169.043,367.846 171.5,369C 170.833,370.333 169.833,371.333 168.5,372C 169.939,372.991 170.939,374.324 171.5,376C 168.833,376.667 168.833,377.333 171.5,378C 169.009,378.626 169.009,379.459 171.5,380.5C 169.824,381.728 169.491,383.061 170.5,384.5C 161.237,381.202 152.57,376.868 144.5,371.5C 143.402,368.213 144.069,365.213 146.5,362.5C 142.559,359.359 142.559,356.192 146.5,353C 143.724,351.221 144.057,350.221 147.5,350C 143.362,349.352 142.695,347.685 145.5,345C 147.095,345.617 148.428,345.284 149.5,344C 145.148,343.581 144.815,342.914 148.5,342C 146.009,341.374 146.009,340.541 148.5,339.5C 148.154,338.304 147.654,338.304 147,339.5C 146.293,337.919 145.46,336.419 144.5,335C 145.738,335.077 146.738,334.911 147.5,334.5C 146.624,333.749 145.624,333.249 144.5,333C 150.619,332.304 151.619,329.971 147.5,326C 148.167,325.667 148.833,325.333 149.5,325C 148.313,323.981 147.313,322.814 146.5,321.5C 148.475,320.422 150.308,320.755 152,322.5C 152.507,321.004 152.007,319.837 150.5,319C 152.878,318.026 152.544,317.359 149.5,317C 151.335,316.072 151.668,314.906 150.5,313.5C 151.684,311.954 152.684,310.287 153.5,308.5C 154.726,309.363 156.06,309.363 157.5,308.5 Z"/></g>
<g><path style="opacity:1" fill="#b74f4e" d="M 328.5,319.5 C 329.887,321.422 331.721,321.422 334,319.5C 334.674,320.578 335.674,321.245 337,321.5C 339.027,320.268 340.36,320.602 341,322.5C 342.43,322.694 343.93,322.694 345.5,322.5C 347.744,324.54 350.244,326.206 353,327.5C 354,327.167 355,326.833 356,326.5C 357.113,327.76 357.28,328.927 356.5,330C 360.128,330.672 362.794,331.839 364.5,333.5C 364.343,334.873 364.51,336.207 365,337.5C 367.355,337.6 369.522,338.767 371.5,341C 370.448,342.716 371.114,343.716 373.5,344C 371.068,345.087 371.402,345.587 374.5,345.5C 374.579,346.93 374.246,348.264 373.5,349.5C 376.36,349.638 377.026,351.305 375.5,354.5C 376.559,356.534 377.559,358.534 378.5,360.5C 371.732,364.599 364.732,368.265 357.5,371.5C 358.007,370.141 359.007,369.141 360.5,368.5C 356.336,367.748 356.003,365.914 359.5,363C 358.672,362.085 357.672,361.419 356.5,361C 358.285,359.407 358.452,357.907 357,356.5C 356.667,356.833 356.333,357.167 356,357.5C 354.796,356.529 354.296,355.529 354.5,354.5C 353.914,354.709 353.414,355.043 353,355.5C 352.504,353.965 352.67,352.465 353.5,351C 352.99,349.174 352.156,349.007 351,350.5C 350.775,348.181 349.442,346.181 347,344.5C 345.887,345.711 344.72,345.711 343.5,344.5C 342.269,343.349 342.269,342.183 343.5,341C 342.256,340.544 341.423,341.044 341,342.5C 340.309,340.109 339.309,340.109 338,342.5C 336.333,341.167 334.667,339.833 333,338.5C 331.749,341.816 330.082,342.15 328,339.5C 327.085,340.328 326.419,341.328 326,342.5C 325.333,339.833 324.667,339.833 324,342.5C 320.473,338.484 319.973,338.65 322.5,343C 319.421,343.689 316.588,344.189 314,344.5C 313.383,345.449 313.549,346.282 314.5,347C 311.24,348.381 308.907,350.047 307.5,352C 308.167,352.333 308.833,352.667 309.5,353C 306.844,354.003 305.844,355.67 306.5,358C 304.559,359.816 303.892,361.816 304.5,364C 303.451,364.492 302.451,364.326 301.5,363.5C 300.201,365.307 300.368,366.973 302,368.5C 302.889,367.112 303.389,367.278 303.5,369C 303.095,369.945 302.428,370.612 301.5,371C 303.708,372.836 305.042,375.169 305.5,378C 304.833,378.667 304.167,379.333 303.5,380C 306.855,383.221 309.855,386.721 312.5,390.5C 314.071,389.691 315.738,389.357 317.5,389.5C 310.197,392.936 302.53,395.602 294.5,397.5C 291.602,395.209 289.269,393.042 287.5,391C 288.167,390.667 288.833,390.333 289.5,390C 287.837,387.721 286.17,385.387 284.5,383C 285.554,381.612 285.72,380.112 285,378.5C 281.916,376.34 281.75,375.006 284.5,374.5C 282.219,372.674 282.219,370.674 284.5,368.5C 282.009,367.459 282.009,366.626 284.5,366C 283.833,365.333 283.167,364.667 282.5,364C 282.031,362.038 282.697,360.205 284.5,358.5C 284.167,357.833 283.833,357.167 283.5,356.5C 284.908,355.757 286.241,354.923 287.5,354C 286.692,353.692 286.025,353.192 285.5,352.5C 286.833,351.5 286.833,350.5 285.5,349.5C 285.846,348.304 286.346,348.304 287,349.5C 287.22,345.615 289.053,342.782 292.5,341C 291.833,340.667 291.167,340.333 290.5,340C 291.793,339.51 293.127,339.343 294.5,339.5C 294.5,338.5 294.5,337.5 294.5,336.5C 306.073,331.38 317.407,325.713 328.5,319.5 Z"/></g>
<g><path style="opacity:1" fill="#984142" d="M 178.5,322.5 C 188.052,327.443 197.719,332.11 207.5,336.5C 205.444,337.562 203.444,337.229 201.5,335.5C 200.205,336.098 198.872,336.598 197.5,337C 198.634,338.016 198.301,338.683 196.5,339C 198.825,340.881 198.825,342.548 196.5,344C 196.761,346.073 196.761,348.073 196.5,350C 194.109,350.691 194.109,351.691 196.5,353C 195.359,353.741 195.359,354.575 196.5,355.5C 195.137,357.674 194.803,359.841 195.5,362C 193.255,366.602 193.255,370.768 195.5,374.5C 194.835,376.101 194.501,377.601 194.5,379C 195.715,381.846 196.715,384.679 197.5,387.5C 195.724,388.315 195.057,389.482 195.5,391C 197.373,392.704 199.04,394.537 200.5,396.5C 190.185,393.067 180.185,389.067 170.5,384.5C 169.491,383.061 169.824,381.728 171.5,380.5C 169.009,379.459 169.009,378.626 171.5,378C 168.833,377.333 168.833,376.667 171.5,376C 170.939,374.324 169.939,372.991 168.5,372C 169.833,371.333 170.833,370.333 171.5,369C 169.043,367.846 169.043,366.512 171.5,365C 170.366,363.984 170.699,363.317 172.5,363C 168.787,361.837 168.787,360.337 172.5,358.5C 171.833,357.833 171.167,357.167 170.5,356.5C 171.833,354.833 171.833,353.167 170.5,351.5C 171.263,350.281 172.263,349.281 173.5,348.5C 172.738,348.089 171.738,347.923 170.5,348C 171.257,346.488 172.257,345.154 173.5,344C 173.5,342.667 173.5,341.333 173.5,340C 172.833,339.667 172.167,339.333 171.5,339C 173.5,338.333 174.833,337 175.5,335C 173.394,332.888 173.727,330.888 176.5,329C 175.692,328.692 175.025,328.192 174.5,327.5C 175.687,326.481 176.687,325.314 177.5,324C 176.288,322.893 176.621,322.393 178.5,322.5 Z"/></g>
<g><path style="opacity:1" fill="#9e4445" d="M 207.5,336.5 C 212.382,337.792 217.048,339.459 221.5,341.5C 218.315,341.722 217.315,343.222 218.5,346C 217.643,346.689 216.977,347.522 216.5,348.5C 218.276,349.315 218.943,350.482 218.5,352C 217.5,353 216.5,354 215.5,355C 216.167,355.333 216.833,355.667 217.5,356C 216.549,356.718 216.383,357.551 217,358.5C 217.654,357.304 218.154,357.304 218.5,358.5C 217.263,359.281 216.263,360.281 215.5,361.5C 216.167,361.833 216.833,362.167 217.5,362.5C 216.5,363.333 215.5,364.167 214.5,365C 217.786,366.035 218.12,367.535 215.5,369.5C 217.587,371.159 217.254,372.826 214.5,374.5C 215.711,375.72 215.711,376.887 214.5,378C 215.308,378.308 215.975,378.808 216.5,379.5C 215.998,380.716 215.665,381.883 215.5,383C 216.5,384 217.5,385 218.5,386C 219.139,388.316 219.139,390.816 218.5,393.5C 220.146,395.055 220.479,396.721 219.5,398.5C 221.376,399.99 222.043,401.657 221.5,403.5C 214.285,401.762 207.285,399.428 200.5,396.5C 199.04,394.537 197.373,392.704 195.5,391C 195.057,389.482 195.724,388.315 197.5,387.5C 196.715,384.679 195.715,381.846 194.5,379C 194.501,377.601 194.835,376.101 195.5,374.5C 193.255,370.768 193.255,366.602 195.5,362C 194.803,359.841 195.137,357.674 196.5,355.5C 195.359,354.575 195.359,353.741 196.5,353C 194.109,351.691 194.109,350.691 196.5,350C 196.761,348.073 196.761,346.073 196.5,344C 198.825,342.548 198.825,340.881 196.5,339C 198.301,338.683 198.634,338.016 197.5,337C 198.872,336.598 200.205,336.098 201.5,335.5C 203.444,337.229 205.444,337.562 207.5,336.5 Z"/></g>
<g><path style="opacity:1" fill="#b14d4c" d="M 294.5,336.5 C 294.5,337.5 294.5,338.5 294.5,339.5C 293.127,339.343 291.793,339.51 290.5,340C 291.167,340.333 291.833,340.667 292.5,341C 289.053,342.782 287.22,345.615 287,349.5C 286.346,348.304 285.846,348.304 285.5,349.5C 286.833,350.5 286.833,351.5 285.5,352.5C 286.025,353.192 286.692,353.692 287.5,354C 286.241,354.923 284.908,355.757 283.5,356.5C 283.833,357.167 284.167,357.833 284.5,358.5C 282.697,360.205 282.031,362.038 282.5,364C 283.167,364.667 283.833,365.333 284.5,366C 282.009,366.626 282.009,367.459 284.5,368.5C 282.219,370.674 282.219,372.674 284.5,374.5C 281.75,375.006 281.916,376.34 285,378.5C 285.72,380.112 285.554,381.612 284.5,383C 286.17,385.387 287.837,387.721 289.5,390C 288.833,390.333 288.167,390.667 287.5,391C 289.269,393.042 291.602,395.209 294.5,397.5C 286.509,400.94 278.176,403.607 269.5,405.5C 265.743,405.714 265.076,404.714 267.5,402.5C 266.398,400.111 264.731,398.277 262.5,397C 263.973,396.29 264.64,395.124 264.5,393.5C 262.058,393.881 261.391,393.214 262.5,391.5C 260.302,387.483 258.968,383.483 258.5,379.5C 258.818,378.353 259.484,377.519 260.5,377C 260.48,375.285 259.814,373.452 258.5,371.5C 258.977,370.522 259.643,369.689 260.5,369C 260.5,366.333 260.5,363.667 260.5,361C 259.5,360 258.5,359 257.5,358C 259.116,357.385 260.449,356.385 261.5,355C 260.882,352.092 260.548,349.259 260.5,346.5C 271.832,343.496 283.165,340.163 294.5,336.5 Z"/></g>
<g><path style="opacity:1" fill="#723033" d="M 121.5,371.5 C 120.733,372.172 120.066,373.005 119.5,374C 120.574,374.739 121.241,375.739 121.5,377C 122.025,383.192 122.025,388.859 121.5,394C 123.188,396.825 124.021,399.991 124,403.5C 124.333,402.5 124.667,401.5 125,400.5C 125.758,402.769 125.591,404.936 124.5,407C 125.167,407.667 125.833,408.333 126.5,409C 125.446,410.388 125.28,411.888 126,413.5C 126.333,413.167 126.667,412.833 127,412.5C 128.852,414.23 128.686,415.396 126.5,416C 127.527,417.866 128.527,419.7 129.5,421.5C 116.495,420.249 103.829,417.416 91.5,413C 81.7165,389.532 77.2165,365.032 78,339.5C 91.7676,351.287 106.268,361.953 121.5,371.5 Z"/></g>
<g><path style="opacity:1" fill="#a44747" d="M 221.5,341.5 C 228.337,342.929 235.003,344.595 241.5,346.5C 240.5,346.5 239.5,346.5 238.5,346.5C 237.643,348.862 237.309,351.196 237.5,353.5C 239.276,354.315 239.943,355.482 239.5,357C 238.833,357.333 238.167,357.667 237.5,358C 237.833,360.333 238.167,362.667 238.5,365C 237.833,366 237.167,367 236.5,368C 237.617,370.833 238.284,373.833 238.5,377C 237.692,377.308 237.025,377.808 236.5,378.5C 237.397,378.669 238.397,379.002 239.5,379.5C 238.359,380.425 238.359,381.259 239.5,382C 238.833,382.333 238.167,382.667 237.5,383C 238.63,386.925 240.296,390.592 242.5,394C 240.789,395.133 240.289,396.633 241,398.5C 241.317,396.699 241.984,396.366 243,397.5C 245.113,399.271 244.947,400.771 242.5,402C 244.24,405.16 246.24,407.993 248.5,410.5C 239.317,408.798 230.317,406.464 221.5,403.5C 222.043,401.657 221.376,399.99 219.5,398.5C 220.479,396.721 220.146,395.055 218.5,393.5C 219.139,390.816 219.139,388.316 218.5,386C 217.5,385 216.5,384 215.5,383C 215.665,381.883 215.998,380.716 216.5,379.5C 215.975,378.808 215.308,378.308 214.5,378C 215.711,376.887 215.711,375.72 214.5,374.5C 217.254,372.826 217.587,371.159 215.5,369.5C 218.12,367.535 217.786,366.035 214.5,365C 215.5,364.167 216.5,363.333 217.5,362.5C 216.833,362.167 216.167,361.833 215.5,361.5C 216.263,360.281 217.263,359.281 218.5,358.5C 218.154,357.304 217.654,357.304 217,358.5C 216.383,357.551 216.549,356.718 217.5,356C 216.833,355.667 216.167,355.333 215.5,355C 216.5,354 217.5,353 218.5,352C 218.943,350.482 218.276,349.315 216.5,348.5C 216.977,347.522 217.643,346.689 218.5,346C 217.315,343.222 218.315,341.722 221.5,341.5 Z"/></g>
<g><path style="opacity:1" fill="#bd5250" d="M 357.5,371.5 C 344.709,378.559 331.376,384.559 317.5,389.5C 315.738,389.357 314.071,389.691 312.5,390.5C 309.855,386.721 306.855,383.221 303.5,380C 304.167,379.333 304.833,378.667 305.5,378C 305.042,375.169 303.708,372.836 301.5,371C 302.428,370.612 303.095,369.945 303.5,369C 303.389,367.278 302.889,367.112 302,368.5C 300.368,366.973 300.201,365.307 301.5,363.5C 302.451,364.326 303.451,364.492 304.5,364C 303.892,361.816 304.559,359.816 306.5,358C 305.844,355.67 306.844,354.003 309.5,353C 308.833,352.667 308.167,352.333 307.5,352C 308.907,350.047 311.24,348.381 314.5,347C 313.549,346.282 313.383,345.449 314,344.5C 316.588,344.189 319.421,343.689 322.5,343C 319.973,338.65 320.473,338.484 324,342.5C 324.667,339.833 325.333,339.833 326,342.5C 326.419,341.328 327.085,340.328 328,339.5C 330.082,342.15 331.749,341.816 333,338.5C 334.667,339.833 336.333,341.167 338,342.5C 339.309,340.109 340.309,340.109 341,342.5C 341.423,341.044 342.256,340.544 343.5,341C 342.269,342.183 342.269,343.349 343.5,344.5C 344.72,345.711 345.887,345.711 347,344.5C 349.442,346.181 350.775,348.181 351,350.5C 352.156,349.007 352.99,349.174 353.5,351C 352.67,352.465 352.504,353.965 353,355.5C 353.414,355.043 353.914,354.709 354.5,354.5C 354.296,355.529 354.796,356.529 356,357.5C 356.333,357.167 356.667,356.833 357,356.5C 358.452,357.907 358.285,359.407 356.5,361C 357.672,361.419 358.672,362.085 359.5,363C 356.003,365.914 356.336,367.748 360.5,368.5C 359.007,369.141 358.007,370.141 357.5,371.5 Z"/></g>
<g><path style="opacity:1" fill="#a74848" d="M 387.5,420.5 C 388.29,419.206 389.29,418.039 390.5,417C 389.549,416.282 389.383,415.449 390,414.5C 392.464,413.958 393.631,411.958 393.5,408.5C 395.467,408.739 397.301,408.406 399,407.5C 398.923,408.738 399.089,409.738 399.5,410.5C 400.281,409.271 400.781,407.938 401,406.5C 401.914,407.654 402.747,407.487 403.5,406C 402.376,405.751 401.376,405.251 400.5,404.5C 400.667,404.167 400.833,403.833 401,403.5C 402.049,404.517 403.216,404.684 404.5,404C 403.327,400.89 403.827,400.723 406,403.5C 406.167,403.167 406.333,402.833 406.5,402.5C 405.359,401.575 405.359,400.741 406.5,400C 404.343,398.915 404.176,397.749 406,396.5C 406.308,397.308 406.808,397.975 407.5,398.5C 408.795,397.902 410.128,397.402 411.5,397C 410.5,396.667 409.5,396.333 408.5,396C 410.136,394.566 411.136,392.733 411.5,390.5C 411.023,389.522 410.357,388.689 409.5,388C 414.436,385.927 415.103,383.26 411.5,380C 413.635,379.241 414.968,377.741 415.5,375.5C 414.711,373.512 413.545,373.179 412,374.5C 411.503,372.19 411.337,369.857 411.5,367.5C 414.598,367.587 414.932,367.087 412.5,366C 413.636,364.47 414.636,363.137 415.5,362C 413.359,360.692 411.359,359.192 409.5,357.5C 411.092,355.775 410.758,354.775 408.5,354.5C 415.124,349.556 421.791,344.556 428.5,339.5C 430.154,363.799 426.987,387.465 419,410.5C 408.986,415.338 398.486,418.671 387.5,420.5 Z"/></g>
<g><path style="opacity:1" fill="#af4c4b" d="M 408.5,354.5 C 410.758,354.775 411.092,355.775 409.5,357.5C 411.359,359.192 413.359,360.692 415.5,362C 414.636,363.137 413.636,364.47 412.5,366C 414.932,367.087 414.598,367.587 411.5,367.5C 411.337,369.857 411.503,372.19 412,374.5C 413.545,373.179 414.711,373.512 415.5,375.5C 414.968,377.741 413.635,379.241 411.5,380C 415.103,383.26 414.436,385.927 409.5,388C 410.357,388.689 411.023,389.522 411.5,390.5C 411.136,392.733 410.136,394.566 408.5,396C 409.5,396.333 410.5,396.667 411.5,397C 410.128,397.402 408.795,397.902 407.5,398.5C 406.808,397.975 406.308,397.308 406,396.5C 404.176,397.749 404.343,398.915 406.5,400C 405.359,400.741 405.359,401.575 406.5,402.5C 406.333,402.833 406.167,403.167 406,403.5C 403.827,400.723 403.327,400.89 404.5,404C 403.216,404.684 402.049,404.517 401,403.5C 400.833,403.833 400.667,404.167 400.5,404.5C 401.376,405.251 402.376,405.751 403.5,406C 402.747,407.487 401.914,407.654 401,406.5C 400.781,407.938 400.281,409.271 399.5,410.5C 399.089,409.738 398.923,408.738 399,407.5C 397.301,408.406 395.467,408.739 393.5,408.5C 393.631,411.958 392.464,413.958 390,414.5C 389.383,415.449 389.549,416.282 390.5,417C 389.29,418.039 388.29,419.206 387.5,420.5C 368.497,424.231 349.497,425.231 330.5,423.5C 334.846,423.666 339.179,423.499 343.5,423C 342.346,422.086 342.513,421.253 344,420.5C 344.414,420.957 344.914,421.291 345.5,421.5C 347.876,420.409 350.376,418.743 353,416.5C 353.718,417.451 354.551,417.617 355.5,417C 359.466,413.034 363.799,408.701 368.5,404C 368.167,403.667 367.833,403.333 367.5,403C 368.448,402.517 369.448,402.351 370.5,402.5C 370.428,398.86 371.761,396.027 374.5,394C 374.075,391.983 374.075,390.149 374.5,388.5C 375.09,387.201 376.09,386.368 377.5,386C 377.943,384.482 377.276,383.315 375.5,382.5C 376.376,381.749 377.376,381.249 378.5,381C 376.408,380.047 376.075,378.714 377.5,377C 376.756,375.961 375.756,375.461 374.5,375.5C 385.811,368.535 397.144,361.535 408.5,354.5 Z"/></g>
<g><path style="opacity:1" fill="#793436" d="M 121.5,371.5 C 126.374,373.542 130.874,376.209 135,379.5C 143.967,394.606 153.801,409.106 164.5,423C 152.619,423.928 140.953,423.428 129.5,421.5C 128.527,419.7 127.527,417.866 126.5,416C 128.686,415.396 128.852,414.23 127,412.5C 126.667,412.833 126.333,413.167 126,413.5C 125.28,411.888 125.446,410.388 126.5,409C 125.833,408.333 125.167,407.667 124.5,407C 125.591,404.936 125.758,402.769 125,400.5C 124.667,401.5 124.333,402.5 124,403.5C 124.021,399.991 123.188,396.825 121.5,394C 122.025,388.859 122.025,383.192 121.5,377C 121.241,375.739 120.574,374.739 119.5,374C 120.066,373.005 120.733,372.172 121.5,371.5 Z"/></g>
<g><path style="opacity:1" fill="#b54f4d" d="M 374.5,375.5 C 375.756,375.461 376.756,375.961 377.5,377C 376.075,378.714 376.408,380.047 378.5,381C 377.376,381.249 376.376,381.749 375.5,382.5C 377.276,383.315 377.943,384.482 377.5,386C 376.09,386.368 375.09,387.201 374.5,388.5C 374.075,390.149 374.075,391.983 374.5,394C 371.761,396.027 370.428,398.86 370.5,402.5C 369.448,402.351 368.448,402.517 367.5,403C 367.833,403.333 368.167,403.667 368.5,404C 363.799,408.701 359.466,413.034 355.5,417C 354.551,417.617 353.718,417.451 353,416.5C 350.376,418.743 347.876,420.409 345.5,421.5C 344.914,421.291 344.414,420.957 344,420.5C 342.513,421.253 342.346,422.086 343.5,423C 339.179,423.499 334.846,423.666 330.5,423.5C 311.813,422.854 293.48,420.021 275.5,415C 309.922,405.112 342.922,391.946 374.5,375.5 Z"/></g>
<g><path style="opacity:1" fill="#ab4a49" d="M 241.5,346.5 C 247.833,347.833 254.167,347.833 260.5,346.5C 260.548,349.259 260.882,352.092 261.5,355C 260.449,356.385 259.116,357.385 257.5,358C 258.5,359 259.5,360 260.5,361C 260.5,363.667 260.5,366.333 260.5,369C 259.643,369.689 258.977,370.522 258.5,371.5C 259.814,373.452 260.48,375.285 260.5,377C 259.484,377.519 258.818,378.353 258.5,379.5C 258.968,383.483 260.302,387.483 262.5,391.5C 261.391,393.214 262.058,393.881 264.5,393.5C 264.64,395.124 263.973,396.29 262.5,397C 264.731,398.277 266.398,400.111 267.5,402.5C 265.076,404.714 265.743,405.714 269.5,405.5C 263.089,407.401 256.589,409.401 250,411.5C 249.235,411.43 248.735,411.097 248.5,410.5C 246.24,407.993 244.24,405.16 242.5,402C 244.947,400.771 245.113,399.271 243,397.5C 241.984,396.366 241.317,396.699 241,398.5C 240.289,396.633 240.789,395.133 242.5,394C 240.296,390.592 238.63,386.925 237.5,383C 238.167,382.667 238.833,382.333 239.5,382C 238.359,381.259 238.359,380.425 239.5,379.5C 238.397,379.002 237.397,378.669 236.5,378.5C 237.025,377.808 237.692,377.308 238.5,377C 238.284,373.833 237.617,370.833 236.5,368C 237.167,367 237.833,366 238.5,365C 238.167,362.667 237.833,360.333 237.5,358C 238.167,357.667 238.833,357.333 239.5,357C 239.943,355.482 239.276,354.315 237.5,353.5C 237.309,351.196 237.643,348.862 238.5,346.5C 239.5,346.5 240.5,346.5 241.5,346.5 Z"/></g>
<g><path style="opacity:1" fill="#763235" d="M 186.5,403.5 C 184.158,403.775 184.158,404.608 186.5,406C 185.833,406.333 185.167,406.667 184.5,407C 185.248,409.259 186.581,411.592 188.5,414C 188.5,416 188.5,418 188.5,420C 192.349,427.408 196.016,434.908 199.5,442.5C 199.376,443.107 199.043,443.44 198.5,443.5C 197.527,443.013 196.527,442.513 195.5,442C 179.651,425.493 165.318,407.826 152.5,389C 163.927,393.545 175.261,398.378 186.5,403.5 Z"/></g>
<g><path style="opacity:1" fill="#7f3638" d="M 186.5,403.5 C 190.537,404.065 194.203,405.399 197.5,407.5C 197.141,409.766 197.808,411.599 199.5,413C 198.978,415.289 199.645,417.456 201.5,419.5C 201.291,420.086 200.957,420.586 200.5,421C 204.999,430.679 210.332,439.846 216.5,448.5C 217.908,449.243 219.241,450.077 220.5,451C 219.167,451.667 219.167,452.333 220.5,453C 221.5,453.333 222.5,453.667 223.5,454C 222.346,454.914 222.513,455.747 224,456.5C 224.914,455.346 225.747,455.513 226.5,457C 225.346,457.914 225.513,458.747 227,459.5C 227.333,459.167 227.667,458.833 228,458.5C 228.439,461.299 229.772,462.299 232,461.5C 232.503,463.615 233.836,465.615 236,467.5C 236.718,466.549 237.551,466.383 238.5,467C 243.482,471.32 249.149,474.32 255.5,476C 256.381,476.708 257.047,477.542 257.5,478.5C 255.881,480.238 253.881,480.738 251.5,480C 231.2,471.513 213.533,459.346 198.5,443.5C 199.043,443.44 199.376,443.107 199.5,442.5C 196.016,434.908 192.349,427.408 188.5,420C 188.5,418 188.5,416 188.5,414C 186.581,411.592 185.248,409.259 184.5,407C 185.167,406.667 185.833,406.333 186.5,406C 184.158,404.608 184.158,403.775 186.5,403.5 Z"/></g>
<g><path style="opacity:1" fill="#873a3c" d="M 197.5,407.5 C 207.322,410.332 216.989,413.332 226.5,416.5C 224.473,416.338 222.473,416.505 220.5,417C 219.443,420.392 219.443,423.725 220.5,427C 221.76,428.113 222.927,428.28 224,427.5C 224.617,428.449 224.451,429.282 223.5,430C 224.667,430.5 225.5,431.333 226,432.5C 226.333,431.833 226.667,431.167 227,430.5C 227.543,432.631 228.376,434.631 229.5,436.5C 234.286,440.106 238.12,444.439 241,449.5C 241.333,448.833 241.667,448.167 242,447.5C 243.585,448.376 244.585,449.709 245,451.5C 245.333,451.167 245.667,450.833 246,450.5C 247.883,451.653 248.716,453.319 248.5,455.5C 253.511,458.245 258.511,460.578 263.5,462.5C 264.167,462.167 264.833,461.833 265.5,461.5C 266.696,461.846 266.696,462.346 265.5,463C 267.55,463.526 269.383,464.359 271,465.5C 272.268,465.384 273.602,465.051 275,464.5C 275.333,465.167 275.667,465.833 276,466.5C 277.655,464.253 277.988,461.92 277,459.5C 279.058,460.109 279.891,461.109 279.5,462.5C 280.726,461.637 282.06,461.637 283.5,462.5C 275.632,469.015 266.965,474.348 257.5,478.5C 257.047,477.542 256.381,476.708 255.5,476C 249.149,474.32 243.482,471.32 238.5,467C 237.551,466.383 236.718,466.549 236,467.5C 233.836,465.615 232.503,463.615 232,461.5C 229.772,462.299 228.439,461.299 228,458.5C 227.667,458.833 227.333,459.167 227,459.5C 225.513,458.747 225.346,457.914 226.5,457C 225.747,455.513 224.914,455.346 224,456.5C 222.513,455.747 222.346,454.914 223.5,454C 222.5,453.667 221.5,453.333 220.5,453C 219.167,452.333 219.167,451.667 220.5,451C 219.241,450.077 217.908,449.243 216.5,448.5C 210.332,439.846 204.999,430.679 200.5,421C 200.957,420.586 201.291,420.086 201.5,419.5C 199.645,417.456 198.978,415.289 199.5,413C 197.808,411.599 197.141,409.766 197.5,407.5 Z"/></g>
<g><path style="opacity:1" fill="#913e3f" d="M 226.5,416.5 C 229.373,416.802 232.039,417.469 234.5,418.5C 233.448,418.351 232.448,418.517 231.5,419C 242.125,436.679 256.959,448.512 276,454.5C 277.147,453.542 278.147,453.875 279,455.5C 280.399,455.499 281.899,455.165 283.5,454.5C 286.405,455.561 289.072,456.227 291.5,456.5C 289.14,458.853 286.473,460.853 283.5,462.5C 282.06,461.637 280.726,461.637 279.5,462.5C 279.891,461.109 279.058,460.109 277,459.5C 277.988,461.92 277.655,464.253 276,466.5C 275.667,465.833 275.333,465.167 275,464.5C 273.602,465.051 272.268,465.384 271,465.5C 269.383,464.359 267.55,463.526 265.5,463C 266.696,462.346 266.696,461.846 265.5,461.5C 264.833,461.833 264.167,462.167 263.5,462.5C 258.511,460.578 253.511,458.245 248.5,455.5C 248.716,453.319 247.883,451.653 246,450.5C 245.667,450.833 245.333,451.167 245,451.5C 244.585,449.709 243.585,448.376 242,447.5C 241.667,448.167 241.333,448.833 241,449.5C 238.12,444.439 234.286,440.106 229.5,436.5C 228.376,434.631 227.543,432.631 227,430.5C 226.667,431.167 226.333,431.833 226,432.5C 225.5,431.333 224.667,430.5 223.5,430C 224.451,429.282 224.617,428.449 224,427.5C 222.927,428.28 221.76,428.113 220.5,427C 219.443,423.725 219.443,420.392 220.5,417C 222.473,416.505 224.473,416.338 226.5,416.5 Z"/></g>
<g><path style="opacity:1" fill="#984142" d="M 234.5,418.5 C 240.757,419.981 247.09,420.981 253.5,421.5C 251.708,422.309 249.708,422.809 247.5,423C 253.429,430.253 260.595,436.086 269,440.5C 270.525,440.888 272.192,440.888 274,440.5C 276.632,444.023 279.632,445.023 283,443.5C 284.763,443.975 286.43,444.642 288,445.5C 291.782,445.146 295.448,445.146 299,445.5C 299.309,444.234 299.809,443.067 300.5,442C 303.146,441.503 305.813,441.336 308.5,441.5C 303.156,446.843 297.489,451.843 291.5,456.5C 289.072,456.227 286.405,455.561 283.5,454.5C 281.899,455.165 280.399,455.499 279,455.5C 278.147,453.875 277.147,453.542 276,454.5C 256.959,448.512 242.125,436.679 231.5,419C 232.448,418.517 233.448,418.351 234.5,418.5 Z"/></g>
<g><path style="opacity:1" fill="#9e4444" d="M 253.5,421.5 C 274.396,426.113 295.396,430.279 316.5,434C 313.964,436.705 311.297,439.205 308.5,441.5C 305.813,441.336 303.146,441.503 300.5,442C 299.809,443.067 299.309,444.234 299,445.5C 295.448,445.146 291.782,445.146 288,445.5C 286.43,444.642 284.763,443.975 283,443.5C 279.632,445.023 276.632,444.023 274,440.5C 272.192,440.888 270.525,440.888 269,440.5C 260.595,436.086 253.429,430.253 247.5,423C 249.708,422.809 251.708,422.309 253.5,421.5 Z"/></g>
</svg>
