<?xml version="1.0" encoding="UTF-8"?>
<!DOCTYPE svg PUBLIC "-//W3C//DTD SVG 1.1//EN" "http://www.w3.org/Graphics/SVG/1.1/DTD/svg11.dtd">
<svg xmlns="http://www.w3.org/2000/svg" version="1.1" width="100%" height="100%" viewBox="0 0 180 174" style="shape-rendering:geometricPrecision; text-rendering:geometricPrecision; image-rendering:optimizeQuality; fill-rule:evenodd; clip-rule:evenodd" xmlns:xlink="http://www.w3.org/1999/xlink">
<g><path style="opacity:1" fill="#652f40" d="M 94.5,-0.5 C 94.8333,-0.5 95.1667,-0.5 95.5,-0.5C 98.25,2.05506 101.25,4.38839 104.5,6.5C 98.808,3.37225 92.808,2.70558 86.5,4.5C 89.1293,2.83741 91.796,1.17075 94.5,-0.5 Z"/></g>
<g><path style="opacity:0.012" fill="#132023" d="M 33.5,10.5 C 34.8333,11.1667 34.8333,11.1667 33.5,10.5 Z"/></g>
<g><path style="opacity:1" fill="#362f2d" d="M 111.5,18.5 C 110.833,18.5 110.167,18.5 109.5,18.5C 104.37,16.1015 99.3705,13.4349 94.5,10.5C 94.0831,9.87605 93.4164,9.54272 92.5,9.5C 90.0264,11.0725 87.3597,12.0725 84.5,12.5C 86.081,10.6974 88.081,9.36411 90.5,8.5C 91.7997,7.89213 93.1331,7.22547 94.5,6.5C 98.4142,8.95486 102.414,11.1215 106.5,13C 108.737,14.3996 110.404,16.233 111.5,18.5 Z"/></g>
<g><path style="opacity:1" fill="#0c000a" d="M 96.5,14.5 C 105.699,19.3625 113.365,26.0292 119.5,34.5C 118.399,35.5983 117.066,35.765 115.5,35C 103.878,29.929 91.8782,26.0956 79.5,23.5C 83.8636,18.1502 89.5303,15.1502 96.5,14.5 Z"/></g>
<g><path style="opacity:1" fill="#97244c" d="M 104.5,6.5 C 109.89,9.71032 114.89,13.5436 119.5,18C 125.656,20.0969 131.99,20.9302 138.5,20.5C 138.5,21.1667 138.5,21.8333 138.5,22.5C 132.375,22.8831 126.375,22.2165 120.5,20.5C 118.97,20.6399 117.97,21.3065 117.5,22.5C 115.5,21.1667 113.5,19.8333 111.5,18.5C 110.404,16.233 108.737,14.3996 106.5,13C 102.414,11.1215 98.4142,8.95486 94.5,6.5C 93.1331,7.22547 91.7997,7.89213 90.5,8.5C 90.0831,7.87605 89.4164,7.54272 88.5,7.5C 85.2788,8.04997 82.2788,9.04997 79.5,10.5C 81.2193,7.7805 83.5526,5.7805 86.5,4.5C 92.808,2.70558 98.808,3.37225 104.5,6.5 Z"/></g>
<g><path style="opacity:1" fill="#482938" d="M 92.5,12.5 C 94.4832,12.1568 95.8166,12.8235 96.5,14.5C 89.5303,15.1502 83.8636,18.1502 79.5,23.5C 91.8782,26.0956 103.878,29.929 115.5,35C 117.066,35.765 118.399,35.5983 119.5,34.5C 120.167,34.5 120.833,34.5 121.5,34.5C 121.5,36.1667 121.5,37.8333 121.5,39.5C 114.816,36.4076 107.816,34.0743 100.5,32.5C 97.994,31.2504 95.3274,30.5838 92.5,30.5C 86.4615,27.6716 80.1282,25.6716 73.5,24.5C 77.0695,21.6182 80.7362,18.6182 84.5,15.5C 86.99,13.9172 89.6567,12.9172 92.5,12.5 Z"/></g>
<g><path style="opacity:1" fill="#673d46" d="M 75.5,18.5 C 75.5,19.8333 74.8333,20.5 73.5,20.5C 73.5,19.1667 74.1667,18.5 75.5,18.5 Z"/></g>
<g><path style="opacity:1" fill="#a92551" d="M 90.5,8.5 C 88.081,9.36411 86.081,10.6974 84.5,12.5C 80.9754,13.7589 77.9754,15.7589 75.5,18.5C 74.1667,18.5 73.5,19.1667 73.5,20.5C 71.5,21.1667 70.1667,22.5 69.5,24.5C 64.8215,24.3342 60.1548,24.5008 55.5,25C 54.5842,25.2784 53.9175,25.7784 53.5,26.5C 51.1667,26.5 48.8333,26.5 46.5,26.5C 43.8333,27.8333 41.1667,27.8333 38.5,26.5C 40.0251,24.9642 42.0251,23.9642 44.5,23.5C 51.84,22.1283 58.84,20.4617 65.5,18.5C 67.9237,17.9695 70.257,17.1362 72.5,16C 74.4221,13.5705 76.7554,11.7372 79.5,10.5C 82.2788,9.04997 85.2788,8.04997 88.5,7.5C 89.4164,7.54272 90.0831,7.87605 90.5,8.5 Z"/></g>
<g><path style="opacity:1" fill="#68474d" d="M 94.5,10.5 C 99.3705,13.4349 104.37,16.1015 109.5,18.5C 112.833,23.1667 116.833,27.1667 121.5,30.5C 121.5,31.8333 121.5,33.1667 121.5,34.5C 120.833,34.5 120.167,34.5 119.5,34.5C 113.365,26.0292 105.699,19.3625 96.5,14.5C 95.8166,12.8235 94.4832,12.1568 92.5,12.5C 92.5,11.1667 93.1667,10.5 94.5,10.5 Z"/></g>
<g><path style="opacity:1" fill="#5a2537" d="M 65.5,18.5 C 58.84,20.4617 51.84,22.1283 44.5,23.5C 42.0251,23.9642 40.0251,24.9642 38.5,26.5C 34.9752,28.0246 32.9752,30.6913 32.5,34.5C 31.0688,35.9025 29.9022,37.5692 29,39.5C 28.7411,42.5867 28.2411,45.5867 27.5,48.5C 26.3501,49.8502 25.6834,49.6836 25.5,48C 26.787,37.7395 31.1204,29.0728 38.5,22C 40.4899,20.2494 42.8232,19.2494 45.5,19C 52.1583,18.5004 58.825,18.3337 65.5,18.5 Z"/></g>
<g><path style="opacity:1" fill="#5f3a41" d="M 69.5,24.5 C 64.6042,26.4461 59.2709,27.1128 53.5,26.5C 53.9175,25.7784 54.5842,25.2784 55.5,25C 60.1548,24.5008 64.8215,24.3342 69.5,24.5 Z"/></g>
<g><path style="opacity:1" fill="#643841" d="M 119.5,24.5 C 126.093,24.085 132.426,24.7517 138.5,26.5C 131.745,27.1229 125.412,26.4563 119.5,24.5 Z"/></g>
<g><path style="opacity:1" fill="#382d2a" d="M 73.5,24.5 C 80.1282,25.6716 86.4615,27.6716 92.5,30.5C 91.1667,30.5 89.8333,30.5 88.5,30.5C 88.7148,32.1788 88.0481,33.1788 86.5,33.5C 86.7148,31.8212 86.0481,30.8212 84.5,30.5C 79.6061,29.1892 74.6061,28.5225 69.5,28.5C 71.1667,27.5 72.5,26.1667 73.5,24.5 Z"/></g>
<g><path style="opacity:1" fill="#2b2927" d="M 109.5,18.5 C 110.167,18.5 110.833,18.5 111.5,18.5C 113.5,19.8333 115.5,21.1667 117.5,22.5C 117.5,23.8333 118.167,24.5 119.5,24.5C 125.412,26.4563 131.745,27.1229 138.5,26.5C 142.226,27.1912 145.893,28.1912 149.5,29.5C 151.552,31.7961 152.552,34.4628 152.5,37.5C 152.322,41.1224 152.989,44.4557 154.5,47.5C 154.334,52.1785 154.501,56.8452 155,61.5C 155.383,62.056 155.883,62.3893 156.5,62.5C 158.5,63.1667 159.833,64.5 160.5,66.5C 163.147,69.7637 165.814,73.097 168.5,76.5C 170.744,80.3136 172.411,84.3136 173.5,88.5C 172.167,88.5 171.5,89.1667 171.5,90.5C 170.833,90.8333 170.167,91.1667 169.5,91.5C 169.5,90.5 169.5,89.5 169.5,88.5C 169.5,87.8333 169.5,87.1667 169.5,86.5C 167.77,79.7808 164.103,74.4475 158.5,70.5C 158.762,69.0222 158.429,67.6888 157.5,66.5C 154.154,63.6974 151.154,60.6974 148.5,57.5C 149.833,57.5 151.167,57.5 152.5,57.5C 152.175,48.8773 150.508,40.544 147.5,32.5C 144.724,30.8702 141.724,30.2035 138.5,30.5C 135.321,29.3675 131.988,28.7008 128.5,28.5C 126.36,28.5561 124.694,29.2227 123.5,30.5C 122.833,30.5 122.167,30.5 121.5,30.5C 116.833,27.1667 112.833,23.1667 109.5,18.5 Z"/></g>
<g><path style="opacity:1" fill="#1c1917" d="M 94.5,10.5 C 93.1667,10.5 92.5,11.1667 92.5,12.5C 89.6567,12.9172 86.99,13.9172 84.5,15.5C 80.7362,18.6182 77.0695,21.6182 73.5,24.5C 72.5,26.1667 71.1667,27.5 69.5,28.5C 64.1563,28.334 58.8229,28.5006 53.5,29C 49.7337,30.0291 46.067,31.1958 42.5,32.5C 41.2652,32.7214 40.2652,33.3881 39.5,34.5C 36.8965,41.9257 35.8965,49.5924 36.5,57.5C 37.8333,57.5 39.1667,57.5 40.5,57.5C 39.1605,60.1729 37.1605,62.1729 34.5,63.5C 31.4685,66.1969 28.8018,69.1969 26.5,72.5C 23.1611,75.8349 20.8278,79.8349 19.5,84.5C 18.1667,85.1667 16.8333,85.8333 15.5,86.5C 15.3433,85.1266 15.51,83.7932 16,82.5C 18.6706,79.1631 20.8373,75.4964 22.5,71.5C 26.2421,68.0966 29.5754,64.43 32.5,60.5C 34.4302,56.6273 35.0969,52.294 34.5,47.5C 34.2659,41.6208 35.2659,35.9542 37.5,30.5C 40.8559,29.4899 43.8559,28.1565 46.5,26.5C 48.8333,26.5 51.1667,26.5 53.5,26.5C 59.2709,27.1128 64.6042,26.4461 69.5,24.5C 70.1667,22.5 71.5,21.1667 73.5,20.5C 74.8333,20.5 75.5,19.8333 75.5,18.5C 77.9754,15.7589 80.9754,13.7589 84.5,12.5C 87.3597,12.0725 90.0264,11.0725 92.5,9.5C 93.4164,9.54272 94.0831,9.87605 94.5,10.5 Z"/></g>
<g><path style="opacity:1" fill="#3a202c" d="M 69.5,28.5 C 74.6061,28.5225 79.6061,29.1892 84.5,30.5C 81.6681,33.7549 78.0014,35.4216 73.5,35.5C 74.8021,33.9724 76.4687,32.9724 78.5,32.5C 78.3893,31.8826 78.056,31.3826 77.5,31C 65.6664,29.9008 53.9998,30.7341 42.5,33.5C 42.5,33.1667 42.5,32.8333 42.5,32.5C 46.067,31.1958 49.7337,30.0291 53.5,29C 58.8229,28.5006 64.1563,28.334 69.5,28.5 Z"/></g>
<g><path style="opacity:1" fill="#250f22" d="M 78.5,32.5 C 66.219,31.7265 54.219,32.7265 42.5,35.5C 42.5,34.8333 42.5,34.1667 42.5,33.5C 53.9998,30.7341 65.6664,29.9008 77.5,31C 78.056,31.3826 78.3893,31.8826 78.5,32.5 Z"/></g>
<g><path style="opacity:1" fill="#53333b" d="M 138.5,30.5 C 141.724,30.2035 144.724,30.8702 147.5,32.5C 150.508,40.544 152.175,48.8773 152.5,57.5C 151.167,57.5 149.833,57.5 148.5,57.5C 147.833,56.1667 147.167,54.8333 146.5,53.5C 147.809,51.4294 148.475,48.9294 148.5,46C 148.167,43.5 147.833,41 147.5,38.5C 146.943,36.6684 145.943,35.3351 144.5,34.5C 142.5,33.1667 140.5,31.8333 138.5,30.5 Z"/></g>
<g><path style="opacity:1" fill="#0d020d" d="M 78.5,32.5 C 76.4687,32.9724 74.8021,33.9724 73.5,35.5C 70.0085,35.9089 66.6752,36.9089 63.5,38.5C 58.0117,42.0797 52.3451,45.413 46.5,48.5C 45.3881,49.2652 44.7214,50.2652 44.5,51.5C 42.5082,51.3285 40.8415,51.9951 39.5,53.5C 39.1667,52.1667 38.8333,50.8333 38.5,49.5C 39.7247,45.2393 40.558,40.9059 41,36.5C 41.3826,35.944 41.8826,35.6107 42.5,35.5C 54.219,32.7265 66.219,31.7265 78.5,32.5 Z"/></g>
<g><path style="opacity:1" fill="#542334" d="M 138.5,20.5 C 143.215,20.506 147.882,21.006 152.5,22C 155.749,26.3891 158.249,31.2224 160,36.5C 161.392,43.5987 162.892,50.5987 164.5,57.5C 165.117,60.3554 166.117,63.0221 167.5,65.5C 164.125,62.0807 161.792,58.0807 160.5,53.5C 159.187,49.056 158.354,44.3893 158,39.5C 157.185,35.5554 155.685,31.8888 153.5,28.5C 150.991,27.0787 148.657,25.4121 146.5,23.5C 143.914,22.52 141.247,22.1866 138.5,22.5C 138.5,21.8333 138.5,21.1667 138.5,20.5 Z"/></g>
<g><path style="opacity:1" fill="#18020e" d="M 144.5,34.5 C 145.943,35.3351 146.943,36.6684 147.5,38.5C 147.833,41 148.167,43.5 148.5,46C 148.475,48.9294 147.809,51.4294 146.5,53.5C 144.975,49.9752 142.309,47.9752 138.5,47.5C 134.737,42.9765 131.737,37.9765 129.5,32.5C 134.654,32.2941 139.654,32.9608 144.5,34.5 Z"/></g>
<g><path style="opacity:1" fill="#1c1817" d="M 92.5,30.5 C 95.3274,30.5838 97.994,31.2504 100.5,32.5C 97.8333,33.1667 95.1667,33.8333 92.5,34.5C 84.1886,36.429 76.1886,39.429 68.5,43.5C 67.7025,43.9569 67.3691,44.6236 67.5,45.5C 66.8333,45.5 66.1667,45.5 65.5,45.5C 63.5,45.5 61.5,45.5 59.5,45.5C 62.374,43.049 65.7073,41.049 69.5,39.5C 74.9826,36.7478 80.6492,34.7478 86.5,33.5C 88.0481,33.1788 88.7148,32.1788 88.5,30.5C 89.8333,30.5 91.1667,30.5 92.5,30.5 Z"/></g>
<g><path style="opacity:1" fill="#452433" d="M 138.5,30.5 C 140.5,31.8333 142.5,33.1667 144.5,34.5C 139.654,32.9608 134.654,32.2941 129.5,32.5C 131.737,37.9765 134.737,42.9765 138.5,47.5C 137.022,47.762 135.689,47.4287 134.5,46.5C 131.524,40.5328 127.858,35.1994 123.5,30.5C 124.694,29.2227 126.36,28.5561 128.5,28.5C 131.988,28.7008 135.321,29.3675 138.5,30.5 Z"/></g>
<g><path style="opacity:1" fill="#5d4046" d="M 84.5,30.5 C 86.0481,30.8212 86.7148,31.8212 86.5,33.5C 80.6492,34.7478 74.9826,36.7478 69.5,39.5C 65.7073,41.049 62.374,43.049 59.5,45.5C 54.3701,47.2336 49.3701,49.2336 44.5,51.5C 44.7214,50.2652 45.3881,49.2652 46.5,48.5C 52.3451,45.413 58.0117,42.0797 63.5,38.5C 66.6752,36.9089 70.0085,35.9089 73.5,35.5C 78.0014,35.4216 81.6681,33.7549 84.5,30.5 Z"/></g>
<g><path style="opacity:1" fill="#3d1b2d" d="M 92.5,34.5 C 93.1667,34.5 93.8333,34.5 94.5,34.5C 99.4424,36.6756 104.442,39.0089 109.5,41.5C 98.5928,37.3025 87.9261,37.6358 77.5,42.5C 74.3099,43.6717 70.9766,44.6717 67.5,45.5C 67.3691,44.6236 67.7025,43.9569 68.5,43.5C 76.1886,39.429 84.1886,36.429 92.5,34.5 Z"/></g>
<g><path style="opacity:1" fill="#20010d" d="M 109.5,41.5 C 109.5,41.8333 109.5,42.1667 109.5,42.5C 102.158,44.7316 94.4909,46.065 86.5,46.5C 85.4647,48.1284 85.4647,49.795 86.5,51.5C 84.1667,51.5 81.8333,51.5 79.5,51.5C 78.71,52.6085 78.21,53.9419 78,55.5C 77.5017,53.4556 76.335,52.1223 74.5,51.5C 75.2341,50.2921 75.5674,48.9587 75.5,47.5C 77.8333,46.8333 80.1667,46.1667 82.5,45.5C 82.5,44.5 82.5,43.5 82.5,42.5C 80.8333,42.5 79.1667,42.5 77.5,42.5C 87.9261,37.6358 98.5928,37.3025 109.5,41.5 Z"/></g>
<g><path style="opacity:1" fill="#9f234d" d="M 138.5,22.5 C 141.247,22.1866 143.914,22.52 146.5,23.5C 148.657,25.4121 150.991,27.0787 153.5,28.5C 155.685,31.8888 157.185,35.5554 158,39.5C 158.354,44.3893 159.187,49.056 160.5,53.5C 160.314,57.795 161.314,61.795 163.5,65.5C 163.333,66.1667 163.167,66.8333 163,67.5C 162.329,66.7476 161.496,66.4142 160.5,66.5C 159.833,64.5 158.5,63.1667 156.5,62.5C 157.108,57.0557 156.442,52.0557 154.5,47.5C 155.069,43.6707 154.402,40.3373 152.5,37.5C 152.552,34.4628 151.552,31.7961 149.5,29.5C 145.893,28.1912 142.226,27.1912 138.5,26.5C 132.426,24.7517 126.093,24.085 119.5,24.5C 118.167,24.5 117.5,23.8333 117.5,22.5C 117.97,21.3065 118.97,20.6399 120.5,20.5C 126.375,22.2165 132.375,22.8831 138.5,22.5 Z"/></g>
<g><path style="opacity:1" fill="#280311" d="M 109.5,42.5 C 115.888,43.9261 121.888,46.2594 127.5,49.5C 127.38,50.5862 126.713,51.2528 125.5,51.5C 120.437,48.2152 114.937,46.2152 109,45.5C 106.833,45.8333 104.667,46.1667 102.5,46.5C 103.5,47.1667 104.5,47.8333 105.5,48.5C 102.276,49.3258 99.1094,50.3258 96,51.5C 93.5217,52.3319 91.0217,52.4986 88.5,52C 90.6447,51.2569 90.8114,50.4235 89,49.5C 87.9889,50.0556 87.1556,50.7222 86.5,51.5C 85.4647,49.795 85.4647,48.1284 86.5,46.5C 94.4909,46.065 102.158,44.7316 109.5,42.5 Z"/></g>
<g><path style="opacity:1" fill="#522e37" d="M 152.5,37.5 C 154.402,40.3373 155.069,43.6707 154.5,47.5C 152.989,44.4557 152.322,41.1224 152.5,37.5 Z"/></g>
<g><path style="opacity:1" fill="#4e2835" d="M 59.5,45.5 C 61.5,45.5 63.5,45.5 65.5,45.5C 63.4726,47.8475 60.806,49.1808 57.5,49.5C 58.1667,48.1667 58.8333,46.8333 59.5,45.5 Z"/></g>
<g><path style="opacity:1" fill="#582d3b" d="M 94.5,34.5 C 100.989,35.7415 107.322,37.5748 113.5,40C 114.973,40.7096 115.64,41.8762 115.5,43.5C 120.353,43.5461 125.02,44.5461 129.5,46.5C 130.612,47.2652 131.279,48.2652 131.5,49.5C 130.167,49.5 128.833,49.5 127.5,49.5C 121.888,46.2594 115.888,43.9261 109.5,42.5C 109.5,42.1667 109.5,41.8333 109.5,41.5C 104.442,39.0089 99.4424,36.6756 94.5,34.5 Z"/></g>
<g><path style="opacity:1" fill="#36312c" d="M 121.5,30.5 C 122.167,30.5 122.833,30.5 123.5,30.5C 127.858,35.1994 131.524,40.5328 134.5,46.5C 135.689,47.4287 137.022,47.762 138.5,47.5C 139.833,49.5 141.167,51.5 142.5,53.5C 141.167,53.5 139.833,53.5 138.5,53.5C 136.973,50.9321 134.639,49.5988 131.5,49.5C 131.279,48.2652 130.612,47.2652 129.5,46.5C 125.02,44.5461 120.353,43.5461 115.5,43.5C 115.64,41.8762 114.973,40.7096 113.5,40C 107.322,37.5748 100.989,35.7415 94.5,34.5C 93.8333,34.5 93.1667,34.5 92.5,34.5C 95.1667,33.8333 97.8333,33.1667 100.5,32.5C 107.816,34.0743 114.816,36.4076 121.5,39.5C 122.8,40.1079 124.133,40.7745 125.5,41.5C 126.167,41.1667 126.833,40.8333 127.5,40.5C 125.45,38.3826 123.45,36.3826 121.5,34.5C 121.5,33.1667 121.5,31.8333 121.5,30.5 Z"/></g>
<g><path style="opacity:1" fill="#703f50" d="M 121.5,34.5 C 123.45,36.3826 125.45,38.3826 127.5,40.5C 126.833,40.8333 126.167,41.1667 125.5,41.5C 124.133,40.7745 122.8,40.1079 121.5,39.5C 121.5,37.8333 121.5,36.1667 121.5,34.5 Z"/></g>
<g><path style="opacity:1" fill="#350519" d="M 127.5,49.5 C 128.833,49.5 130.167,49.5 131.5,49.5C 133.027,52.0679 135.361,53.4012 138.5,53.5C 139.446,56.3126 141.446,57.646 144.5,57.5C 148.703,62.2795 153.37,66.6128 158.5,70.5C 160.429,75.4118 162.762,80.0784 165.5,84.5C 165.5,85.5 165.5,86.5 165.5,87.5C 162.378,83.2754 159.711,78.6087 157.5,73.5C 156.675,72.6143 155.675,72.281 154.5,72.5C 154.67,71.1779 154.337,70.0113 153.5,69C 149.908,66.8812 146.242,65.0479 142.5,63.5C 142.67,62.1779 142.337,61.0113 141.5,60C 133.266,57.9588 125.099,55.7921 117,53.5C 112.229,54.4139 107.396,55.0805 102.5,55.5C 100.334,55.4211 98.3337,54.7545 96.5,53.5C 92.6827,55.1964 88.6827,55.8631 84.5,55.5C 85.6085,54.71 86.9419,54.21 88.5,54C 85.3033,53.0135 82.4699,53.5135 80,55.5C 79.51,54.2068 79.3433,52.8734 79.5,51.5C 81.8333,51.5 84.1667,51.5 86.5,51.5C 87.1556,50.7222 87.9889,50.0556 89,49.5C 90.8114,50.4235 90.6447,51.2569 88.5,52C 91.0217,52.4986 93.5217,52.3319 96,51.5C 99.1094,50.3258 102.276,49.3258 105.5,48.5C 104.5,47.8333 103.5,47.1667 102.5,46.5C 104.667,46.1667 106.833,45.8333 109,45.5C 114.937,46.2152 120.437,48.2152 125.5,51.5C 126.713,51.2528 127.38,50.5862 127.5,49.5 Z"/></g>
<g><path style="opacity:1" fill="#803447" d="M 154.5,47.5 C 156.442,52.0557 157.108,57.0557 156.5,62.5C 155.883,62.3893 155.383,62.056 155,61.5C 154.501,56.8452 154.334,52.1785 154.5,47.5 Z"/></g>
<g><path style="opacity:1" fill="#1c1614" d="M 59.5,45.5 C 58.8333,46.8333 58.1667,48.1667 57.5,49.5C 51.6686,51.9168 46.0019,54.5835 40.5,57.5C 41.8333,55.5 43.1667,53.5 44.5,51.5C 49.3701,49.2336 54.3701,47.2336 59.5,45.5 Z"/></g>
<g><path style="opacity:1" fill="#77474e" d="M 131.5,49.5 C 134.639,49.5988 136.973,50.9321 138.5,53.5C 135.361,53.4012 133.027,52.0679 131.5,49.5 Z"/></g>
<g><path style="opacity:1" fill="#512a37" d="M 138.5,47.5 C 142.309,47.9752 144.975,49.9752 146.5,53.5C 145.167,53.5 143.833,53.5 142.5,53.5C 141.167,51.5 139.833,49.5 138.5,47.5 Z"/></g>
<g><path style="opacity:1" fill="#7f1940" d="M 32.5,34.5 C 31.1632,42.7668 29.6632,51.1001 28,59.5C 27.34,61.3237 26.1733,62.657 24.5,63.5C 25.1667,61.8333 25.8333,60.1667 26.5,58.5C 26.8333,55.1667 27.1667,51.8333 27.5,48.5C 28.2411,45.5867 28.7411,42.5867 29,39.5C 29.9022,37.5692 31.0688,35.9025 32.5,34.5 Z"/></g>
<g><path style="opacity:1" fill="#3d1d26" d="M 34.5,47.5 C 35.0969,52.294 34.4302,56.6273 32.5,60.5C 31.9031,55.706 32.5698,51.3727 34.5,47.5 Z"/></g>
<g><path style="opacity:1" fill="#3e0719" d="M 165.5,87.5 C 164.15,90.106 162.65,90.106 161,87.5C 159.597,82.5796 156.763,78.5796 152.5,75.5C 153.052,73.9974 153.052,72.3307 152.5,70.5C 149.266,69.424 145.932,68.7573 142.5,68.5C 142.191,65.6545 140.525,64.1545 137.5,64C 136.257,62.8455 135.257,61.5122 134.5,60C 131.518,59.502 128.518,59.3354 125.5,59.5C 124.996,55.6646 123.996,55.6646 122.5,59.5C 120.929,60.3094 119.262,60.6427 117.5,60.5C 112.478,58.5636 107.478,56.897 102.5,55.5C 107.396,55.0805 112.229,54.4139 117,53.5C 125.099,55.7921 133.266,57.9588 141.5,60C 142.337,61.0113 142.67,62.1779 142.5,63.5C 146.242,65.0479 149.908,66.8812 153.5,69C 154.337,70.0113 154.67,71.1779 154.5,72.5C 155.675,72.281 156.675,72.6143 157.5,73.5C 159.711,78.6087 162.378,83.2754 165.5,87.5 Z"/></g>
<g><path style="opacity:1" fill="#34342e" d="M 142.5,53.5 C 143.833,53.5 145.167,53.5 146.5,53.5C 147.167,54.8333 147.833,56.1667 148.5,57.5C 147.167,57.5 145.833,57.5 144.5,57.5C 143.833,56.1667 143.167,54.8333 142.5,53.5 Z"/></g>
<g><path style="opacity:1" fill="#5d3f46" d="M 42.5,32.5 C 42.5,32.8333 42.5,33.1667 42.5,33.5C 42.5,34.1667 42.5,34.8333 42.5,35.5C 41.8826,35.6107 41.3826,35.944 41,36.5C 40.558,40.9059 39.7247,45.2393 38.5,49.5C 38.8333,50.8333 39.1667,52.1667 39.5,53.5C 40.8415,51.9951 42.5082,51.3285 44.5,51.5C 43.1667,53.5 41.8333,55.5 40.5,57.5C 39.1667,57.5 37.8333,57.5 36.5,57.5C 35.8965,49.5924 36.8965,41.9257 39.5,34.5C 40.2652,33.3881 41.2652,32.7214 42.5,32.5 Z"/></g>
<g><path style="opacity:1" fill="#72474c" d="M 138.5,53.5 C 139.833,53.5 141.167,53.5 142.5,53.5C 143.167,54.8333 143.833,56.1667 144.5,57.5C 141.446,57.646 139.446,56.3126 138.5,53.5 Z"/></g>
<g><path style="opacity:1" fill="#1a010e" d="M 77.5,42.5 C 79.1667,42.5 80.8333,42.5 82.5,42.5C 82.5,43.5 82.5,44.5 82.5,45.5C 80.1667,46.1667 77.8333,46.8333 75.5,47.5C 75.5674,48.9587 75.2341,50.2921 74.5,51.5C 71.0572,54.2291 67.0572,55.7291 62.5,56C 61.6634,57.0113 61.33,58.1779 61.5,59.5C 58.225,60.6139 56.0583,62.9473 55,66.5C 54.2828,65.9558 53.7828,65.2891 53.5,64.5C 53.5299,63.5028 53.0299,62.8361 52,62.5C 48.002,63.7984 46.8354,66.2984 48.5,70C 48.3699,71.0588 47.8699,71.8921 47,72.5C 46.8784,70.563 46.045,69.2297 44.5,68.5C 43.1667,68.5 41.8333,68.5 40.5,68.5C 41.6782,67.0014 43.3449,66.0014 45.5,65.5C 45.2907,64.914 44.9574,64.414 44.5,64C 48.1463,62.0181 51.1463,59.3515 53.5,56C 55.3761,54.6246 57.3761,53.458 59.5,52.5C 59.0431,51.7025 58.3764,51.3691 57.5,51.5C 57.5,50.8333 57.5,50.1667 57.5,49.5C 60.806,49.1808 63.4726,47.8475 65.5,45.5C 66.1667,45.5 66.8333,45.5 67.5,45.5C 70.9766,44.6717 74.3099,43.6717 77.5,42.5 Z"/></g>
<g><path style="opacity:1" fill="#4d2c3b" d="M 57.5,49.5 C 57.5,50.1667 57.5,50.8333 57.5,51.5C 50.309,55.5919 43.309,59.9253 36.5,64.5C 36.1583,63.6618 35.4916,63.3284 34.5,63.5C 37.1605,62.1729 39.1605,60.1729 40.5,57.5C 46.0019,54.5835 51.6686,51.9168 57.5,49.5 Z"/></g>
<g><path style="opacity:1" fill="#692f3c" d="M 102.5,55.5 C 107.478,56.897 112.478,58.5636 117.5,60.5C 119.297,61.393 120.63,62.7263 121.5,64.5C 125.977,65.6346 129.31,68.3012 131.5,72.5C 127.089,69.7808 122.422,67.4475 117.5,65.5C 115.151,63.659 112.485,62.3257 109.5,61.5C 107.402,60.065 105.069,58.8984 102.5,58C 97.1667,57.3333 91.8333,57.3333 86.5,58C 85.5842,58.2784 84.9175,58.7784 84.5,59.5C 76.6068,60.9465 69.6068,64.2798 63.5,69.5C 62.3112,70.4287 60.9778,70.762 59.5,70.5C 66.0057,62.7352 74.3391,57.7352 84.5,55.5C 88.6827,55.8631 92.6827,55.1964 96.5,53.5C 98.3337,54.7545 100.334,55.4211 102.5,55.5 Z"/></g>
<g><path style="opacity:1" fill="#24030f" d="M 74.5,51.5 C 76.335,52.1223 77.5017,53.4556 78,55.5C 78.21,53.9419 78.71,52.6085 79.5,51.5C 79.3433,52.8734 79.51,54.2068 80,55.5C 82.4699,53.5135 85.3033,53.0135 88.5,54C 86.9419,54.21 85.6085,54.71 84.5,55.5C 74.3391,57.7352 66.0057,62.7352 59.5,70.5C 58.1667,70.5 56.8333,70.5 55.5,70.5C 54.2502,70.4226 53.4169,69.756 53,68.5C 52.235,66.9343 52.4017,65.6009 53.5,64.5C 53.7828,65.2891 54.2828,65.9558 55,66.5C 56.0583,62.9473 58.225,60.6139 61.5,59.5C 61.33,58.1779 61.6634,57.0113 62.5,56C 67.0572,55.7291 71.0572,54.2291 74.5,51.5 Z"/></g>
<g><path style="opacity:1" fill="#322b29" d="M 109.5,61.5 C 108.167,61.5 107.5,62.1667 107.5,63.5C 107.167,63.5 106.833,63.5 106.5,63.5C 105.167,63.5 103.833,63.5 102.5,63.5C 102.082,62.7784 101.416,62.2784 100.5,62C 97.1832,61.5017 93.8499,61.335 90.5,61.5C 90.9175,60.7784 91.5842,60.2784 92.5,60C 89.854,59.5026 87.1873,59.3359 84.5,59.5C 84.9175,58.7784 85.5842,58.2784 86.5,58C 91.8333,57.3333 97.1667,57.3333 102.5,58C 105.069,58.8984 107.402,60.065 109.5,61.5 Z"/></g>
<g><path style="opacity:1" fill="#56061c" d="M 102.5,63.5 C 103.833,63.5 105.167,63.5 106.5,63.5C 107.11,64.391 107.443,65.391 107.5,66.5C 104.531,65.6713 101.531,65.5046 98.5,66C 99.1667,66.6667 99.8333,67.3333 100.5,68C 97.8807,68.1515 95.5473,68.9848 93.5,70.5C 92.914,70.2907 92.414,69.9574 92,69.5C 90.5881,71.0646 89.4214,72.7313 88.5,74.5C 87.1667,74.5 85.8333,74.5 84.5,74.5C 83.1667,74.5 81.8333,74.5 80.5,74.5C 80.5,75.8333 80.5,77.1667 80.5,78.5C 79.325,78.281 78.325,78.6143 77.5,79.5C 75.9008,82.3778 74.0675,85.0445 72,87.5C 71.5017,90.8168 71.335,94.1501 71.5,97.5C 70.1667,97.5 69.5,96.8333 69.5,95.5C 69.5,89.1667 69.5,82.8333 69.5,76.5C 70.1667,76.5 70.8333,76.5 71.5,76.5C 72.9778,76.762 74.3112,76.4287 75.5,75.5C 81.0817,71.3966 86.7484,67.5632 92.5,64C 95.8168,63.5017 99.1501,63.335 102.5,63.5 Z"/></g>
<g><path style="opacity:1" fill="#774f4f" d="M 144.5,57.5 C 145.833,57.5 147.167,57.5 148.5,57.5C 151.154,60.6974 154.154,63.6974 157.5,66.5C 158.429,67.6888 158.762,69.0222 158.5,70.5C 153.37,66.6128 148.703,62.2795 144.5,57.5 Z"/></g>
<g><path style="opacity:1" fill="#a3264e" d="M 38.5,26.5 C 41.1667,27.8333 43.8333,27.8333 46.5,26.5C 43.8559,28.1565 40.8559,29.4899 37.5,30.5C 35.2659,35.9542 34.2659,41.6208 34.5,47.5C 32.5698,51.3727 31.9031,55.706 32.5,60.5C 29.5754,64.43 26.2421,68.0966 22.5,71.5C 20.8373,75.4964 18.6706,79.1631 16,82.5C 15.51,83.7932 15.3433,85.1266 15.5,86.5C 15.5,87.1667 15.5,87.8333 15.5,88.5C 14.1667,87.1667 12.8333,85.8333 11.5,84.5C 11.5,83.8333 11.5,83.1667 11.5,82.5C 14.4211,78.9967 16.5878,74.9967 18,70.5C 20.3722,68.2968 22.5389,65.9635 24.5,63.5C 26.1733,62.657 27.34,61.3237 28,59.5C 29.6632,51.1001 31.1632,42.7668 32.5,34.5C 32.9752,30.6913 34.9752,28.0246 38.5,26.5 Z"/></g>
<g><path style="opacity:1" fill="#48091c" d="M 90.5,61.5 C 93.8499,61.335 97.1832,61.5017 100.5,62C 101.416,62.2784 102.082,62.7784 102.5,63.5C 99.1501,63.335 95.8168,63.5017 92.5,64C 86.7484,67.5632 81.0817,71.3966 75.5,75.5C 74.3112,76.4287 72.9778,76.762 71.5,76.5C 73.3448,74.1437 74.6782,71.4771 75.5,68.5C 79.2887,63.7745 84.2887,61.4411 90.5,61.5 Z"/></g>
<g><path style="opacity:1" fill="#671f39" d="M 26.5,58.5 C 25.8333,60.1667 25.1667,61.8333 24.5,63.5C 22.5389,65.9635 20.3722,68.2968 18,70.5C 16.5878,74.9967 14.4211,78.9967 11.5,82.5C 10.8333,82.5 10.1667,82.5 9.5,82.5C 9.5,81.8333 9.5,81.1667 9.5,80.5C 13.137,75.3424 16.637,70.0091 20,64.5C 22.0367,62.2941 24.2034,60.2941 26.5,58.5 Z"/></g>
<g><path style="opacity:1" fill="#11010c" d="M 57.5,51.5 C 58.3764,51.3691 59.0431,51.7025 59.5,52.5C 57.3761,53.458 55.3761,54.6246 53.5,56C 51.1463,59.3515 48.1463,62.0181 44.5,64C 44.9574,64.414 45.2907,64.914 45.5,65.5C 43.3449,66.0014 41.6782,67.0014 40.5,68.5C 40.5,69.8333 40.5,71.1667 40.5,72.5C 42.2922,73.3091 44.2922,73.8091 46.5,74C 42.6816,75.9855 39.6816,78.8189 37.5,82.5C 36.7154,86.9504 35.5487,91.2837 34,95.5C 33.2597,97.3187 32.0931,98.6521 30.5,99.5C 29.2652,99.2786 28.2652,98.6119 27.5,97.5C 25.2057,93.2481 23.2057,88.9148 21.5,84.5C 24.1868,80.788 26.5201,76.788 28.5,72.5C 31.8333,70.5 34.5,67.8333 36.5,64.5C 43.309,59.9253 50.309,55.5919 57.5,51.5 Z"/></g>
<g><path style="opacity:1" fill="#151615" d="M 109.5,61.5 C 112.485,62.3257 115.151,63.659 117.5,65.5C 117.577,66.7498 118.244,67.5831 119.5,68C 118.354,68.6449 117.354,69.4783 116.5,70.5C 114.034,67.3539 111.034,65.0206 107.5,63.5C 107.5,62.1667 108.167,61.5 109.5,61.5 Z"/></g>
<g><path style="opacity:1" fill="#58051c" d="M 159.5,90.5 C 159.5,91.8333 159.5,93.1667 159.5,94.5C 159.741,97.0336 158.741,98.7002 156.5,99.5C 154.104,91.9038 150.104,85.2372 144.5,79.5C 140.341,79.1284 137.341,77.1284 135.5,73.5C 134.311,72.5713 132.978,72.238 131.5,72.5C 129.31,68.3012 125.977,65.6346 121.5,64.5C 123.492,64.6715 125.158,64.0049 126.5,62.5C 127.586,65.711 129.586,66.711 132.5,65.5C 133.696,65.8457 133.696,66.3457 132.5,67C 136.568,68.1594 140.568,69.4928 144.5,71C 145.872,74.2317 147.872,77.065 150.5,79.5C 151.689,80.4287 153.022,80.762 154.5,80.5C 154.5,81.8333 154.5,83.1667 154.5,84.5C 155.833,84.5 157.167,84.5 158.5,84.5C 158.297,86.3904 158.963,87.8904 160.5,89C 159.944,89.3826 159.611,89.8826 159.5,90.5 Z"/></g>
<g><path style="opacity:0.012" fill="#323739" d="M -0.5,68.5 C 0.833333,69.1667 0.833333,69.1667 -0.5,68.5 Z"/></g>
<g><path style="opacity:1" fill="#4a071d" d="M 165.5,87.5 C 165.5,86.5 165.5,85.5 165.5,84.5C 166.833,85.1667 168.167,85.8333 169.5,86.5C 169.5,87.1667 169.5,87.8333 169.5,88.5C 166.808,90.2026 164.808,92.536 163.5,95.5C 164.244,92.0504 162.91,90.3838 159.5,90.5C 159.611,89.8826 159.944,89.3826 160.5,89C 158.963,87.8904 158.297,86.3904 158.5,84.5C 157.167,84.5 155.833,84.5 154.5,84.5C 154.5,83.1667 154.5,81.8333 154.5,80.5C 153.022,80.762 151.689,80.4287 150.5,79.5C 147.872,77.065 145.872,74.2317 144.5,71C 140.568,69.4928 136.568,68.1594 132.5,67C 133.696,66.3457 133.696,65.8457 132.5,65.5C 129.586,66.711 127.586,65.711 126.5,62.5C 125.158,64.0049 123.492,64.6715 121.5,64.5C 120.63,62.7263 119.297,61.393 117.5,60.5C 119.262,60.6427 120.929,60.3094 122.5,59.5C 123.996,55.6646 124.996,55.6646 125.5,59.5C 128.518,59.3354 131.518,59.502 134.5,60C 135.257,61.5122 136.257,62.8455 137.5,64C 140.525,64.1545 142.191,65.6545 142.5,68.5C 145.932,68.7573 149.266,69.424 152.5,70.5C 153.052,72.3307 153.052,73.9974 152.5,75.5C 156.763,78.5796 159.597,82.5796 161,87.5C 162.65,90.106 164.15,90.106 165.5,87.5 Z"/></g>
<g><path style="opacity:1" fill="#211c1c" d="M 84.5,59.5 C 87.1873,59.3359 89.854,59.5026 92.5,60C 91.5842,60.2784 90.9175,60.7784 90.5,61.5C 84.2887,61.4411 79.2887,63.7745 75.5,68.5C 71.9752,70.0246 69.9752,72.6913 69.5,76.5C 68.8333,76.5 68.1667,76.5 67.5,76.5C 67.334,81.8437 67.5006,87.1771 68,92.5C 68.2321,93.7375 68.7321,94.7375 69.5,95.5C 69.5,96.8333 70.1667,97.5 71.5,97.5C 71.5,98.1667 71.5,98.8333 71.5,99.5C 71.5211,102.535 72.8545,104.868 75.5,106.5C 74.3112,107.429 72.9778,107.762 71.5,107.5C 70.1667,107.5 68.8333,107.5 67.5,107.5C 67.5,106.833 67.5,106.167 67.5,105.5C 67.5,104.833 67.5,104.167 67.5,103.5C 68.5862,103.38 69.2528,102.713 69.5,101.5C 68.1401,98.7802 66.8068,96.1136 65.5,93.5C 63.688,88.6346 62.3547,83.6346 61.5,78.5C 59.396,78.2011 57.396,78.5344 55.5,79.5C 53.7853,81.2147 52.1186,82.8814 50.5,84.5C 49.5278,87.0983 48.5278,87.0983 47.5,84.5C 51.4935,79.839 55.4935,75.1723 59.5,70.5C 60.9778,70.762 62.3112,70.4287 63.5,69.5C 69.6068,64.2798 76.6068,60.9465 84.5,59.5 Z"/></g>
<g><path style="opacity:0.969" fill="#3c1725" d="M 164.5,57.5 C 171.229,63.302 176.229,70.302 179.5,78.5C 179.5,82.8333 179.5,87.1667 179.5,91.5C 177.329,95.8441 174.663,99.8441 171.5,103.5C 171.5,102.167 171.5,100.833 171.5,99.5C 173.364,97.4919 175.03,95.1585 176.5,92.5C 177.493,87.8804 177.827,83.2137 177.5,78.5C 176.167,78.5 174.833,78.5 173.5,78.5C 172.307,73.7808 170.307,69.4474 167.5,65.5C 166.117,63.0221 165.117,60.3554 164.5,57.5 Z"/></g>
<g><path style="opacity:1" fill="#735055" d="M 34.5,63.5 C 35.4916,63.3284 36.1583,63.6618 36.5,64.5C 34.5,67.8333 31.8333,70.5 28.5,72.5C 27.8333,72.5 27.1667,72.5 26.5,72.5C 28.8018,69.1969 31.4685,66.1969 34.5,63.5 Z"/></g>
<g><path style="opacity:1" fill="#67375d" d="M 40.5,68.5 C 41.8333,68.5 43.1667,68.5 44.5,68.5C 44.5,69.8333 44.5,71.1667 44.5,72.5C 43.1667,72.5 41.8333,72.5 40.5,72.5C 40.5,71.1667 40.5,69.8333 40.5,68.5 Z"/></g>
<g><path style="opacity:1" fill="#967176" d="M 26.5,72.5 C 27.1667,72.5 27.8333,72.5 28.5,72.5C 26.5201,76.788 24.1868,80.788 21.5,84.5C 20.8333,85.1667 20.1667,85.8333 19.5,86.5C 19.5,85.8333 19.5,85.1667 19.5,84.5C 20.8278,79.8349 23.1611,75.8349 26.5,72.5 Z"/></g>
<g><path style="opacity:1" fill="#690c20" d="M 107.5,66.5 C 110.179,66.5246 111.512,67.858 111.5,70.5C 109.824,71.1834 109.157,72.5168 109.5,74.5C 104.753,73.9627 100.42,74.9627 96.5,77.5C 93.9135,78.48 91.2469,78.8134 88.5,78.5C 88.5,77.1667 88.5,75.8333 88.5,74.5C 89.4214,72.7313 90.5881,71.0646 92,69.5C 92.414,69.9574 92.914,70.2907 93.5,70.5C 95.5473,68.9848 97.8807,68.1515 100.5,68C 99.8333,67.3333 99.1667,66.6667 98.5,66C 101.531,65.5046 104.531,65.6713 107.5,66.5 Z"/></g>
<g><path style="opacity:1" fill="#6b3445" d="M 67.5,76.5 C 66.2652,76.7214 65.2652,77.3881 64.5,78.5C 62.9583,75.4644 63.6249,73.131 66.5,71.5C 67.4519,73.0453 67.7852,74.712 67.5,76.5 Z"/></g>
<g><path style="opacity:1" fill="#6d5a5a" d="M 75.5,68.5 C 74.6782,71.4771 73.3448,74.1437 71.5,76.5C 70.8333,76.5 70.1667,76.5 69.5,76.5C 69.9752,72.6913 71.9752,70.0246 75.5,68.5 Z"/></g>
<g><path style="opacity:1" fill="#773c46" d="M 158.5,70.5 C 164.103,74.4475 167.77,79.7808 169.5,86.5C 168.167,85.8333 166.833,85.1667 165.5,84.5C 162.762,80.0784 160.429,75.4118 158.5,70.5 Z"/></g>
<g><path style="opacity:1" fill="#1d010d" d="M 53.5,64.5 C 52.4017,65.6009 52.235,66.9343 53,68.5C 53.4169,69.756 54.2502,70.4226 55.5,70.5C 52.2313,74.6087 48.7313,78.6087 45,82.5C 43.8118,86.7414 44.6451,90.4081 47.5,93.5C 45.6096,93.2965 44.1096,93.9632 43,95.5C 41.2467,98.0048 39.7467,100.671 38.5,103.5C 39.4533,105.455 40.7866,107.122 42.5,108.5C 42.0431,109.298 41.3764,109.631 40.5,109.5C 36.5,106.833 33.1667,103.5 30.5,99.5C 32.0931,98.6521 33.2597,97.3187 34,95.5C 35.5487,91.2837 36.7154,86.9504 37.5,82.5C 39.6816,78.8189 42.6816,75.9855 46.5,74C 44.2922,73.8091 42.2922,73.3091 40.5,72.5C 41.8333,72.5 43.1667,72.5 44.5,72.5C 44.5,71.1667 44.5,69.8333 44.5,68.5C 46.045,69.2297 46.8784,70.563 47,72.5C 47.8699,71.8921 48.3699,71.0588 48.5,70C 46.8354,66.2984 48.002,63.7984 52,62.5C 53.0299,62.8361 53.5299,63.5028 53.5,64.5 Z"/></g>
<g><path style="opacity:1" fill="#7f1a2d" d="M 111.5,70.5 C 114.888,72.5549 117.555,75.2215 119.5,78.5C 120.108,83.9443 119.442,88.9443 117.5,93.5C 117.5,91.1667 117.5,88.8333 117.5,86.5C 117.5,84.5 117.5,82.5 117.5,80.5C 116.5,80.5 115.5,80.5 114.5,80.5C 111.751,80.7261 109.084,80.3928 106.5,79.5C 102.088,81.5581 97.4214,82.5581 92.5,82.5C 96.6816,80.2533 101.182,78.2533 106,76.5C 107.678,78.282 109.511,78.6153 111.5,77.5C 110.388,76.7348 109.721,75.7348 109.5,74.5C 109.157,72.5168 109.824,71.1834 111.5,70.5 Z"/></g>
<g><path style="opacity:1" fill="#983642" d="M 136.5,88.5 C 134.236,90.0971 132.236,92.0971 130.5,94.5C 129.675,95.3857 128.675,95.719 127.5,95.5C 126.93,88.8855 125.263,82.5521 122.5,76.5C 121.735,75.3881 120.735,74.7214 119.5,74.5C 119.5,73.1667 119.5,71.8333 119.5,70.5C 120.978,70.238 122.311,70.5713 123.5,71.5C 127.5,75.5 131.5,79.5 135.5,83.5C 136.309,85.0709 136.643,86.7376 136.5,88.5 Z"/></g>
<g><path style="opacity:1" fill="#3c3734" d="M 106.5,63.5 C 106.833,63.5 107.167,63.5 107.5,63.5C 111.034,65.0206 114.034,67.3539 116.5,70.5C 117.354,69.4783 118.354,68.6449 119.5,68C 118.244,67.5831 117.577,66.7498 117.5,65.5C 122.422,67.4475 127.089,69.7808 131.5,72.5C 134.115,76.7829 137.115,80.7829 140.5,84.5C 138.726,85.3696 137.393,86.703 136.5,88.5C 136.643,86.7376 136.309,85.0709 135.5,83.5C 131.5,79.5 127.5,75.5 123.5,71.5C 122.311,70.5713 120.978,70.238 119.5,70.5C 119.5,71.8333 119.5,73.1667 119.5,74.5C 119.5,75.8333 119.5,77.1667 119.5,78.5C 117.555,75.2215 114.888,72.5549 111.5,70.5C 111.512,67.858 110.179,66.5246 107.5,66.5C 107.443,65.391 107.11,64.391 106.5,63.5 Z"/></g>
<g><path style="opacity:1" fill="#700f23" d="M 84.5,74.5 C 84.5,75.8333 84.5,77.1667 84.5,78.5C 85.8333,78.5 87.1667,78.5 88.5,78.5C 91.2469,78.8134 93.9135,78.48 96.5,77.5C 100.42,74.9627 104.753,73.9627 109.5,74.5C 109.721,75.7348 110.388,76.7348 111.5,77.5C 109.511,78.6153 107.678,78.282 106,76.5C 101.182,78.2533 96.6816,80.2533 92.5,82.5C 91.1266,82.3433 89.7932,82.51 88.5,83C 86.1415,85.0293 83.8082,87.0293 81.5,89C 79.5125,90.3189 78.3459,92.1523 78,94.5C 75.3301,95.2239 73.8301,96.8906 73.5,99.5C 72.8333,99.5 72.1667,99.5 71.5,99.5C 71.5,98.8333 71.5,98.1667 71.5,97.5C 71.335,94.1501 71.5017,90.8168 72,87.5C 74.0675,85.0445 75.9008,82.3778 77.5,79.5C 78.325,78.6143 79.325,78.281 80.5,78.5C 80.5,77.1667 80.5,75.8333 80.5,74.5C 81.8333,74.5 83.1667,74.5 84.5,74.5 Z"/></g>
<g><path style="opacity:1" fill="#991e4d" d="M 84.5,74.5 C 85.8333,74.5 87.1667,74.5 88.5,74.5C 88.5,75.8333 88.5,77.1667 88.5,78.5C 87.1667,78.5 85.8333,78.5 84.5,78.5C 84.5,77.1667 84.5,75.8333 84.5,74.5 Z"/></g>
<g><path style="opacity:0.703" fill="#7f5f66" d="M 9.5,80.5 C 9.5,81.1667 9.5,81.8333 9.5,82.5C 9.5,84.5 9.5,86.5 9.5,88.5C 7.24545,85.2932 7.07878,81.9599 9,78.5C 9.46434,79.0944 9.63101,79.7611 9.5,80.5 Z"/></g>
<g><path style="opacity:1" fill="#502335" d="M 55.5,70.5 C 56.8333,70.5 58.1667,70.5 59.5,70.5C 55.4935,75.1723 51.4935,79.839 47.5,84.5C 46.5655,85.5676 46.2322,86.901 46.5,88.5C 47.5,90.5 48.5,92.5 49.5,94.5C 48.8333,94.1667 48.1667,93.8333 47.5,93.5C 44.6451,90.4081 43.8118,86.7414 45,82.5C 48.7313,78.6087 52.2313,74.6087 55.5,70.5 Z"/></g>
<g><path style="opacity:1" fill="#76424a" d="M 65.5,93.5 C 64.8333,93.5 64.1667,93.5 63.5,93.5C 63.1583,92.6618 62.4916,92.3284 61.5,92.5C 61.126,88.3714 60.126,84.3714 58.5,80.5C 56.41,82.2469 54.7433,84.2469 53.5,86.5C 52.8333,86.5 52.1667,86.5 51.5,86.5C 50.6618,86.1583 50.3284,85.4916 50.5,84.5C 52.1186,82.8814 53.7853,81.2147 55.5,79.5C 57.396,78.5344 59.396,78.2011 61.5,78.5C 62.3547,83.6346 63.688,88.6346 65.5,93.5 Z"/></g>
<g><path style="opacity:1" fill="#941931" d="M 114.5,80.5 C 115.5,80.5 116.5,80.5 117.5,80.5C 117.5,82.5 117.5,84.5 117.5,86.5C 114.918,86.0254 112.918,86.6921 111.5,88.5C 105.112,88.3119 98.7782,88.8119 92.5,90C 91.0798,91.53 90.0798,93.3633 89.5,95.5C 86.4376,97.6488 83.1043,99.3155 79.5,100.5C 78.5435,102.075 77.8769,103.742 77.5,105.5C 76.3263,104.486 75.6596,103.153 75.5,101.5C 78.5927,98.1959 81.5927,94.6959 84.5,91C 85.7932,90.51 87.1266,90.3433 88.5,90.5C 88.5,89.1667 88.5,87.8333 88.5,86.5C 92.9104,86.9693 96.9104,85.9693 100.5,83.5C 105.571,83.1276 110.238,82.1276 114.5,80.5 Z"/></g>
<g><path style="opacity:1" fill="#452d30" d="M 67.5,76.5 C 68.1667,76.5 68.8333,76.5 69.5,76.5C 69.5,82.8333 69.5,89.1667 69.5,95.5C 68.7321,94.7375 68.2321,93.7375 68,92.5C 67.5006,87.1771 67.334,81.8437 67.5,76.5 Z"/></g>
<g><path style="opacity:1" fill="#851e41" d="M 160.5,53.5 C 161.792,58.0807 164.125,62.0807 167.5,65.5C 170.307,69.4474 172.307,73.7808 173.5,78.5C 174.833,78.5 176.167,78.5 177.5,78.5C 177.827,83.2137 177.493,87.8804 176.5,92.5C 175.03,95.1585 173.364,97.4919 171.5,99.5C 172.167,95.8333 172.833,92.1667 173.5,88.5C 172.411,84.3136 170.744,80.3136 168.5,76.5C 165.814,73.097 163.147,69.7637 160.5,66.5C 161.496,66.4142 162.329,66.7476 163,67.5C 163.167,66.8333 163.333,66.1667 163.5,65.5C 161.314,61.795 160.314,57.795 160.5,53.5 Z"/></g>
<g><path style="opacity:1" fill="#3c071a" d="M 61.5,92.5 C 61.44,93.0431 61.1067,93.3764 60.5,93.5C 57.4571,91.7906 55.1238,89.4572 53.5,86.5C 54.7433,84.2469 56.41,82.2469 58.5,80.5C 60.126,84.3714 61.126,88.3714 61.5,92.5 Z"/></g>
<g><path style="opacity:1" fill="#a91d3b" d="M 111.5,88.5 C 102.314,92.2405 93.3143,96.5739 84.5,101.5C 84.5,103.5 84.5,105.5 84.5,107.5C 84.5,108.167 84.5,108.833 84.5,109.5C 81.4221,109.413 79.0888,108.08 77.5,105.5C 77.8769,103.742 78.5435,102.075 79.5,100.5C 83.1043,99.3155 86.4376,97.6488 89.5,95.5C 90.0798,93.3633 91.0798,91.53 92.5,90C 98.7782,88.8119 105.112,88.3119 111.5,88.5 Z"/></g>
<g><path style="opacity:1" fill="#251919" d="M 169.5,88.5 C 169.5,89.5 169.5,90.5 169.5,91.5C 167.834,94.8282 166.168,98.1615 164.5,101.5C 161.687,102.446 160.354,104.446 160.5,107.5C 159.167,108.167 157.833,108.833 156.5,109.5C 155.167,109.5 154.5,110.167 154.5,111.5C 151.833,112.833 149.833,114.833 148.5,117.5C 146.099,119.562 143.433,121.229 140.5,122.5C 139.448,122.649 138.448,122.483 137.5,122C 139.708,120.953 141.374,119.453 142.5,117.5C 144.297,116.607 145.63,115.274 146.5,113.5C 149.167,112.167 151.167,110.167 152.5,107.5C 157.285,104.715 160.618,100.715 162.5,95.5C 162.833,95.5 163.167,95.5 163.5,95.5C 164.808,92.536 166.808,90.2026 169.5,88.5 Z"/></g>
<g><path style="opacity:1" fill="#94635e" d="M 140.5,86.5 C 142.176,87.1834 142.843,88.5168 142.5,90.5C 141.833,90.5 141.167,90.5 140.5,90.5C 139.167,91.5 137.833,92.5 136.5,93.5C 137.833,91.1667 139.167,88.8333 140.5,86.5 Z"/></g>
<g><path style="opacity:1" fill="#79474d" d="M 46.5,88.5 C 51.1231,91.1231 54.7898,94.7898 57.5,99.5C 56.8333,99.5 56.1667,99.5 55.5,99.5C 53.2024,98.2034 51.2024,96.5368 49.5,94.5C 48.5,92.5 47.5,90.5 46.5,88.5 Z"/></g>
<g><path style="opacity:1" fill="#612332" d="M 51.5,86.5 C 52.1667,86.5 52.8333,86.5 53.5,86.5C 55.1238,89.4572 57.4571,91.7906 60.5,93.5C 61.1067,93.3764 61.44,93.0431 61.5,92.5C 62.4916,92.3284 63.1583,92.6618 63.5,93.5C 63.5,95.5 63.5,97.5 63.5,99.5C 61.203,97.8833 58.8696,96.2166 56.5,94.5C 54.7889,91.8043 53.1223,89.1376 51.5,86.5 Z"/></g>
<g><path style="opacity:1" fill="#ab3366" d="M 159.5,90.5 C 162.91,90.3838 164.244,92.0504 163.5,95.5C 163.167,95.5 162.833,95.5 162.5,95.5C 161.391,95.4431 160.391,95.1098 159.5,94.5C 159.5,93.1667 159.5,91.8333 159.5,90.5 Z"/></g>
<g><path style="opacity:1" fill="#393530" d="M 47.5,84.5 C 48.5278,87.0983 49.5278,87.0983 50.5,84.5C 50.3284,85.4916 50.6618,86.1583 51.5,86.5C 53.1223,89.1376 54.7889,91.8043 56.5,94.5C 58.8696,96.2166 61.203,97.8833 63.5,99.5C 65.5,100.167 66.8333,101.5 67.5,103.5C 67.5,104.167 67.5,104.833 67.5,105.5C 66.1667,105.5 64.8333,105.5 63.5,105.5C 62.1667,102.833 60.1667,100.833 57.5,99.5C 54.7898,94.7898 51.1231,91.1231 46.5,88.5C 46.2322,86.901 46.5655,85.5676 47.5,84.5 Z"/></g>
<g><path style="opacity:0.075" fill="#282e30" d="M -0.5,83.5 C 2.16667,88.5 2.16667,93.5 -0.5,98.5C -0.5,93.5 -0.5,88.5 -0.5,83.5 Z"/></g>
<g><path style="opacity:1" fill="#85152c" d="M 114.5,80.5 C 110.238,82.1276 105.571,83.1276 100.5,83.5C 96.9104,85.9693 92.9104,86.9693 88.5,86.5C 88.5,87.8333 88.5,89.1667 88.5,90.5C 87.1266,90.3433 85.7932,90.51 84.5,91C 81.5927,94.6959 78.5927,98.1959 75.5,101.5C 74.1667,101.5 73.5,100.833 73.5,99.5C 73.8301,96.8906 75.3301,95.2239 78,94.5C 78.3459,92.1523 79.5125,90.3189 81.5,89C 83.8082,87.0293 86.1415,85.0293 88.5,83C 89.7932,82.51 91.1266,82.3433 92.5,82.5C 97.4214,82.5581 102.088,81.5581 106.5,79.5C 109.084,80.3928 111.751,80.7261 114.5,80.5 Z"/></g>
<g><path style="opacity:1" fill="#c31f42" d="M 113.5,95.5 C 112.138,102.843 108.138,104.843 101.5,101.5C 99.223,102.478 96.8897,103.145 94.5,103.5C 94.5,104.833 94.5,106.167 94.5,107.5C 92.1691,107.498 90.1691,108.331 88.5,110C 93.5523,110.726 98.5523,110.559 103.5,109.5C 103.027,110.906 102.027,111.573 100.5,111.5C 96.5,111.5 92.5,111.5 88.5,111.5C 86.5168,111.843 85.1834,111.176 84.5,109.5C 84.5,108.833 84.5,108.167 84.5,107.5C 87.1667,106.833 89.8333,106.167 92.5,105.5C 92.3234,103.019 93.3234,101.186 95.5,100C 95.1667,99.6667 94.8333,99.3333 94.5,99C 95.8333,98 97.1667,97 98.5,96C 102.033,95.6942 105.367,94.8609 108.5,93.5C 110.304,93.9865 111.971,94.6532 113.5,95.5 Z"/></g>
<g><path style="opacity:1" fill="#6f1425" d="M 131.5,72.5 C 132.978,72.238 134.311,72.5713 135.5,73.5C 137.341,77.1284 140.341,79.1284 144.5,79.5C 150.104,85.2372 154.104,91.9038 156.5,99.5C 155.934,101.078 154.934,102.412 153.5,103.5C 151.755,101.251 149.588,99.5841 147,98.5C 146.083,95.4379 144.583,92.7712 142.5,90.5C 142.843,88.5168 142.176,87.1834 140.5,86.5C 140.5,85.8333 140.5,85.1667 140.5,84.5C 137.115,80.7829 134.115,76.7829 131.5,72.5 Z"/></g>
<g><path style="opacity:1" fill="#943d55" d="M 9.5,82.5 C 10.1667,82.5 10.8333,82.5 11.5,82.5C 11.5,83.1667 11.5,83.8333 11.5,84.5C 11.1924,86.924 11.5258,89.2573 12.5,91.5C 15.6922,95.8867 18.3589,100.553 20.5,105.5C 15.0931,101.034 11.4264,95.3678 9.5,88.5C 9.5,86.5 9.5,84.5 9.5,82.5 Z"/></g>
<g><path style="opacity:1" fill="#2e0514" d="M 47.5,93.5 C 48.1667,93.8333 48.8333,94.1667 49.5,94.5C 51.2024,96.5368 53.2024,98.2034 55.5,99.5C 54.0982,103.594 52.7649,107.761 51.5,112C 53.518,113.638 53.8514,115.471 52.5,117.5C 48.5,115.5 44.5,113.5 40.5,111.5C 40.5,110.833 40.5,110.167 40.5,109.5C 41.3764,109.631 42.0431,109.298 42.5,108.5C 40.7866,107.122 39.4533,105.455 38.5,103.5C 39.7467,100.671 41.2467,98.0048 43,95.5C 44.1096,93.9632 45.6096,93.2965 47.5,93.5 Z"/></g>
<g><path style="opacity:1" fill="#8e3e49" d="M 63.5,93.5 C 64.1667,93.5 64.8333,93.5 65.5,93.5C 66.8068,96.1136 68.1401,98.7802 69.5,101.5C 69.2528,102.713 68.5862,103.38 67.5,103.5C 66.8333,101.5 65.5,100.167 63.5,99.5C 63.5,97.5 63.5,95.5 63.5,93.5 Z"/></g>
<g><path style="opacity:1" fill="#aa7277" d="M 171.5,90.5 C 170.313,94.996 167.98,98.6626 164.5,101.5C 166.168,98.1615 167.834,94.8282 169.5,91.5C 170.167,91.1667 170.833,90.8333 171.5,90.5 Z"/></g>
<g><path style="opacity:1" fill="#4b3234" d="M 19.5,84.5 C 19.5,85.1667 19.5,85.8333 19.5,86.5C 21.0313,91.62 23.3646,96.2867 26.5,100.5C 30.2468,103.908 33.5802,107.574 36.5,111.5C 34.55,116.735 33.8833,122.402 34.5,128.5C 32.8632,123.226 31.8632,117.559 31.5,111.5C 29.2177,107.282 26.2177,103.616 22.5,100.5C 20.1116,96.4656 17.7783,92.4656 15.5,88.5C 15.5,87.8333 15.5,87.1667 15.5,86.5C 16.8333,85.8333 18.1667,85.1667 19.5,84.5 Z"/></g>
<g><path style="opacity:1" fill="#482231" d="M 21.5,84.5 C 23.2057,88.9148 25.2057,93.2481 27.5,97.5C 28.2652,98.6119 29.2652,99.2786 30.5,99.5C 33.1667,103.5 36.5,106.833 40.5,109.5C 40.5,110.167 40.5,110.833 40.5,111.5C 39.1667,111.5 37.8333,111.5 36.5,111.5C 33.5802,107.574 30.2468,103.908 26.5,100.5C 23.3646,96.2867 21.0313,91.62 19.5,86.5C 20.1667,85.8333 20.8333,85.1667 21.5,84.5 Z"/></g>
<g><path style="opacity:1" fill="#261f1f" d="M 119.5,74.5 C 120.735,74.7214 121.735,75.3881 122.5,76.5C 125.263,82.5521 126.93,88.8855 127.5,95.5C 128.675,95.719 129.675,95.3857 130.5,94.5C 132.236,92.0971 134.236,90.0971 136.5,88.5C 137.393,86.703 138.726,85.3696 140.5,84.5C 140.5,85.1667 140.5,85.8333 140.5,86.5C 139.167,88.8333 137.833,91.1667 136.5,93.5C 133.138,97.1963 129.472,100.53 125.5,103.5C 124.167,103.5 123.5,104.167 123.5,105.5C 121.718,106.72 119.718,107.386 117.5,107.5C 116.624,107.631 115.957,107.298 115.5,106.5C 117.641,104.796 119.641,103.13 121.5,101.5C 122.833,101.5 123.5,100.833 123.5,99.5C 125.344,97.7211 126.01,95.3878 125.5,92.5C 123.517,92.1568 122.183,92.8235 121.5,94.5C 121.169,96.3224 120.502,97.9891 119.5,99.5C 118.167,99.5 117.5,98.8333 117.5,97.5C 117.5,96.1667 117.5,94.8333 117.5,93.5C 119.442,88.9443 120.108,83.9443 119.5,78.5C 119.5,77.1667 119.5,75.8333 119.5,74.5 Z"/></g>
<g><path style="opacity:1" fill="#85444b" d="M 123.5,99.5 C 123.923,97.2188 123.256,95.5521 121.5,94.5C 122.183,92.8235 123.517,92.1568 125.5,92.5C 126.01,95.3878 125.344,97.7211 123.5,99.5 Z"/></g>
<g><path style="opacity:1" fill="#ba2c5a" d="M 11.5,84.5 C 12.8333,85.8333 14.1667,87.1667 15.5,88.5C 17.7783,92.4656 20.1116,96.4656 22.5,100.5C 26.2177,103.616 29.2177,107.282 31.5,111.5C 31.8632,117.559 32.8632,123.226 34.5,128.5C 34.5,130.5 34.5,132.5 34.5,134.5C 34.8432,136.483 34.1765,137.817 32.5,138.5C 31.0318,136.084 30.3651,133.417 30.5,130.5C 30.6657,126.154 30.499,121.821 30,117.5C 27.3294,114.163 25.1627,110.496 23.5,106.5C 22.675,105.614 21.675,105.281 20.5,105.5C 18.3589,100.553 15.6922,95.8867 12.5,91.5C 11.5258,89.2573 11.1924,86.924 11.5,84.5 Z"/></g>
<g><path style="opacity:1" fill="#b51d3e" d="M 117.5,86.5 C 117.5,88.8333 117.5,91.1667 117.5,93.5C 117.5,94.8333 117.5,96.1667 117.5,97.5C 116.833,97.5 116.167,97.5 115.5,97.5C 115.5,96.1667 114.833,95.5 113.5,95.5C 111.971,94.6532 110.304,93.9865 108.5,93.5C 105.367,94.8609 102.033,95.6942 98.5,96C 97.1667,97 95.8333,98 94.5,99C 94.8333,99.3333 95.1667,99.6667 95.5,100C 93.3234,101.186 92.3234,103.019 92.5,105.5C 89.8333,106.167 87.1667,106.833 84.5,107.5C 84.5,105.5 84.5,103.5 84.5,101.5C 93.3143,96.5739 102.314,92.2405 111.5,88.5C 112.918,86.6921 114.918,86.0254 117.5,86.5 Z"/></g>
<g><path style="opacity:1" fill="#bf7576" d="M 121.5,94.5 C 123.256,95.5521 123.923,97.2188 123.5,99.5C 123.5,100.833 122.833,101.5 121.5,101.5C 120.167,101.5 119.5,100.833 119.5,99.5C 120.502,97.9891 121.169,96.3224 121.5,94.5 Z"/></g>
<g><path style="opacity:1" fill="#9d2137" d="M 139.5,94.5 C 139.821,96.0481 140.821,96.7148 142.5,96.5C 142.5,98.1667 142.5,99.8333 142.5,101.5C 143.833,101.5 145.167,101.5 146.5,101.5C 146.187,104.247 146.52,106.914 147.5,109.5C 148.842,107.995 150.508,107.328 152.5,107.5C 151.167,110.167 149.167,112.167 146.5,113.5C 143.646,114.026 140.979,115.026 138.5,116.5C 137.291,111.321 135.624,106.321 133.5,101.5C 134.348,98.1125 136.348,95.7791 139.5,94.5 Z"/></g>
<g><path style="opacity:0.922" fill="#671e38" d="M 171.5,99.5 C 171.5,100.833 171.5,102.167 171.5,103.5C 169.138,106.192 166.804,108.859 164.5,111.5C 165.671,106.699 168.004,102.699 171.5,99.5 Z"/></g>
<g><path style="opacity:1" fill="#7f1d2f" d="M 140.5,90.5 C 141.167,90.5 141.833,90.5 142.5,90.5C 144.583,92.7712 146.083,95.4379 147,98.5C 149.588,99.5841 151.755,101.251 153.5,103.5C 154.934,102.412 155.934,101.078 156.5,99.5C 158.741,98.7002 159.741,97.0336 159.5,94.5C 160.391,95.1098 161.391,95.4431 162.5,95.5C 160.618,100.715 157.285,104.715 152.5,107.5C 150.508,107.328 148.842,107.995 147.5,109.5C 146.52,106.914 146.187,104.247 146.5,101.5C 145.167,101.5 143.833,101.5 142.5,101.5C 142.5,99.8333 142.5,98.1667 142.5,96.5C 140.821,96.7148 139.821,96.0481 139.5,94.5C 140.234,93.2921 140.567,91.9587 140.5,90.5 Z"/></g>
<g><path style="opacity:1" fill="#924d4c" d="M 125.5,103.5 C 125.5,104.833 124.833,105.5 123.5,105.5C 123.5,104.167 124.167,103.5 125.5,103.5 Z"/></g>
<g><path style="opacity:1" fill="#b31f3c" d="M 133.5,101.5 C 135.624,106.321 137.291,111.321 138.5,116.5C 137.833,117.167 137.167,117.833 136.5,118.5C 135.209,118.737 134.209,118.404 133.5,117.5C 134.582,115.673 134.582,113.673 133.5,111.5C 132.14,108.78 130.807,106.114 129.5,103.5C 130.833,102.833 132.167,102.167 133.5,101.5 Z"/></g>
<g><path style="opacity:1" fill="#b25562" d="M 164.5,101.5 C 164.545,104.077 163.545,106.077 161.5,107.5C 161.167,107.5 160.833,107.5 160.5,107.5C 160.354,104.446 161.687,102.446 164.5,101.5 Z"/></g>
<g><path style="opacity:1" fill="#a52a50" d="M 173.5,88.5 C 172.833,92.1667 172.167,95.8333 171.5,99.5C 168.004,102.699 165.671,106.699 164.5,111.5C 163.5,112.167 162.5,112.833 161.5,113.5C 161.5,111.5 161.5,109.5 161.5,107.5C 163.545,106.077 164.545,104.077 164.5,101.5C 167.98,98.6626 170.313,94.996 171.5,90.5C 171.5,89.1667 172.167,88.5 173.5,88.5 Z"/></g>
<g><path style="opacity:1" fill="#4d051c" d="M 55.5,99.5 C 56.1667,99.5 56.8333,99.5 57.5,99.5C 57.4228,102.012 58.4228,104.012 60.5,105.5C 61.4954,111.128 61.8288,116.794 61.5,122.5C 60.1667,122.5 58.8333,122.5 57.5,122.5C 56.6993,120.958 56.366,119.292 56.5,117.5C 55.1667,117.5 53.8333,117.5 52.5,117.5C 53.8514,115.471 53.518,113.638 51.5,112C 52.7649,107.761 54.0982,103.594 55.5,99.5 Z"/></g>
<g><path style="opacity:1" fill="#d72448" d="M 113.5,95.5 C 114.833,95.5 115.5,96.1667 115.5,97.5C 115.762,98.9778 115.429,100.311 114.5,101.5C 112.167,103.833 109.833,106.167 107.5,108.5C 106.311,109.429 104.978,109.762 103.5,109.5C 98.5523,110.559 93.5523,110.726 88.5,110C 90.1691,108.331 92.1691,107.498 94.5,107.5C 94.5,106.167 94.5,104.833 94.5,103.5C 96.8897,103.145 99.223,102.478 101.5,101.5C 108.138,104.843 112.138,102.843 113.5,95.5 Z"/></g>
<g><path style="opacity:1" fill="#3e2a2d" d="M 115.5,97.5 C 116.167,97.5 116.833,97.5 117.5,97.5C 117.5,98.8333 118.167,99.5 119.5,99.5C 119.5,100.833 120.167,101.5 121.5,101.5C 119.641,103.13 117.641,104.796 115.5,106.5C 115.957,107.298 116.624,107.631 117.5,107.5C 116.833,108.833 116.167,110.167 115.5,111.5C 114.833,111.5 114.167,111.5 113.5,111.5C 110.892,111.4 108.558,112.067 106.5,113.5C 102.342,114.539 98.3421,114.539 94.5,113.5C 97.0821,113.975 99.0821,113.308 100.5,111.5C 102.027,111.573 103.027,110.906 103.5,109.5C 104.978,109.762 106.311,109.429 107.5,108.5C 109.833,106.167 112.167,103.833 114.5,101.5C 115.429,100.311 115.762,98.9778 115.5,97.5 Z"/></g>
<g><path style="opacity:1" fill="#cd2249" d="M 129.5,103.5 C 130.807,106.114 132.14,108.78 133.5,111.5C 134.582,113.673 134.582,115.673 133.5,117.5C 131.508,117.672 129.842,117.005 128.5,115.5C 126.273,116.053 123.939,116.053 121.5,115.5C 121.5,114.833 121.5,114.167 121.5,113.5C 120.833,112.833 120.167,112.167 119.5,111.5C 121.7,109.383 124.367,107.716 127.5,106.5C 127.942,105.261 128.609,104.261 129.5,103.5 Z"/></g>
<g><path style="opacity:1" fill="#d24a5e" d="M 140.5,90.5 C 140.567,91.9587 140.234,93.2921 139.5,94.5C 136.348,95.7791 134.348,98.1125 133.5,101.5C 132.167,102.167 130.833,102.833 129.5,103.5C 128.609,104.261 127.942,105.261 127.5,106.5C 124.367,107.716 121.7,109.383 119.5,111.5C 118.167,111.5 116.833,111.5 115.5,111.5C 116.167,110.167 116.833,108.833 117.5,107.5C 119.718,107.386 121.718,106.72 123.5,105.5C 124.833,105.5 125.5,104.833 125.5,103.5C 129.472,100.53 133.138,97.1963 136.5,93.5C 137.833,92.5 139.167,91.5 140.5,90.5 Z"/></g>
<g><path style="opacity:1" fill="#533134" d="M 71.5,99.5 C 72.1667,99.5 72.8333,99.5 73.5,99.5C 73.5,100.833 74.1667,101.5 75.5,101.5C 75.6596,103.153 76.3263,104.486 77.5,105.5C 79.0888,108.08 81.4221,109.413 84.5,109.5C 85.1834,111.176 86.5168,111.843 88.5,111.5C 89.9179,113.308 91.9179,113.975 94.5,113.5C 98.3421,114.539 102.342,114.539 106.5,113.5C 106.389,114.117 106.056,114.617 105.5,115C 92.8344,117.83 81.501,115.33 71.5,107.5C 72.9778,107.762 74.3112,107.429 75.5,106.5C 72.8545,104.868 71.5211,102.535 71.5,99.5 Z"/></g>
<g><path style="opacity:1" fill="#c0295a" d="M 160.5,107.5 C 160.833,107.5 161.167,107.5 161.5,107.5C 161.5,109.5 161.5,111.5 161.5,113.5C 161.5,114.833 161.5,116.167 161.5,117.5C 160.833,118.5 160.167,119.5 159.5,120.5C 158.839,121.718 158.172,123.051 157.5,124.5C 156.571,123.311 156.238,121.978 156.5,120.5C 156.5,116.833 156.5,113.167 156.5,109.5C 157.833,108.833 159.167,108.167 160.5,107.5 Z"/></g>
<g><path style="opacity:1" fill="#5c2137" d="M 40.5,111.5 C 44.5,113.5 48.5,115.5 52.5,117.5C 53.8333,117.5 55.1667,117.5 56.5,117.5C 56.366,119.292 56.6993,120.958 57.5,122.5C 57.5,123.167 57.5,123.833 57.5,124.5C 50.4953,121.84 44.8287,117.507 40.5,111.5 Z"/></g>
<g><path style="opacity:1" fill="#bf495c" d="M 67.5,107.5 C 68.8333,107.5 70.1667,107.5 71.5,107.5C 81.501,115.33 92.8344,117.83 105.5,115C 106.056,114.617 106.389,114.117 106.5,113.5C 108.558,112.067 110.892,111.4 113.5,111.5C 113.5,112.167 113.5,112.833 113.5,113.5C 111.071,113.585 109.071,114.585 107.5,116.5C 100.532,117.497 93.5316,117.83 86.5,117.5C 85.1667,117.5 83.8333,117.5 82.5,117.5C 81.8166,115.824 80.4832,115.157 78.5,115.5C 76.3374,113.917 74.0041,112.584 71.5,111.5C 69.5,110.833 68.1667,109.5 67.5,107.5 Z"/></g>
<g><path style="opacity:1" fill="#843c43" d="M 88.5,111.5 C 92.5,111.5 96.5,111.5 100.5,111.5C 99.0821,113.308 97.0821,113.975 94.5,113.5C 91.9179,113.975 89.9179,113.308 88.5,111.5 Z"/></g>
<g><path style="opacity:1" fill="#e83982" d="M 121.5,113.5 C 121.5,114.167 121.5,114.833 121.5,115.5C 121.5,116.5 121.5,117.5 121.5,118.5C 120.167,118.5 118.833,118.5 117.5,118.5C 117.5,116.833 117.5,115.167 117.5,113.5C 118.833,113.5 120.167,113.5 121.5,113.5 Z"/></g>
<g><path style="opacity:1" fill="#893c4f" d="M 156.5,109.5 C 156.5,113.167 156.5,116.833 156.5,120.5C 155.833,121.833 155.167,123.167 154.5,124.5C 154.5,120.167 154.5,115.833 154.5,111.5C 154.5,110.167 155.167,109.5 156.5,109.5 Z"/></g>
<g><path style="opacity:1" fill="#cb1e64" d="M 78.5,115.5 C 80.4832,115.157 81.8166,115.824 82.5,117.5C 82.5,118.833 82.5,120.167 82.5,121.5C 77.719,121.833 76.3857,119.833 78.5,115.5 Z"/></g>
<g><path style="opacity:1" fill="#e74c62" d="M 113.5,111.5 C 114.167,111.5 114.833,111.5 115.5,111.5C 116.833,111.5 118.167,111.5 119.5,111.5C 120.167,112.167 120.833,112.833 121.5,113.5C 120.167,113.5 118.833,113.5 117.5,113.5C 117.5,115.167 117.5,116.833 117.5,118.5C 118.833,118.5 120.167,118.5 121.5,118.5C 121.5,117.5 121.5,116.5 121.5,115.5C 123.939,116.053 126.273,116.053 128.5,115.5C 129.842,117.005 131.508,117.672 133.5,117.5C 134.209,118.404 135.209,118.737 136.5,118.5C 135.359,119.339 134.026,120.006 132.5,120.5C 129.795,119.871 127.128,119.537 124.5,119.5C 123.262,121.734 121.596,122.068 119.5,120.5C 113.67,121.387 108.336,123.387 103.5,126.5C 102.571,127.689 102.238,129.022 102.5,130.5C 99.6874,131.446 98.354,133.446 98.5,136.5C 97.8333,136.5 97.1667,136.5 96.5,136.5C 93.8333,136.5 91.1667,136.5 88.5,136.5C 87.8333,136.5 87.1667,136.5 86.5,136.5C 86.5,135.833 86.5,135.167 86.5,134.5C 89.6981,135.036 92.3647,134.369 94.5,132.5C 95.7348,132.279 96.7348,131.612 97.5,130.5C 99.3361,127.748 100.336,124.748 100.5,121.5C 105.16,119.416 110.16,118.083 115.5,117.5C 115.843,115.517 115.176,114.183 113.5,113.5C 113.5,112.833 113.5,112.167 113.5,111.5 Z"/></g>
<g><path style="opacity:1" fill="#362426" d="M 154.5,111.5 C 154.5,115.833 154.5,120.167 154.5,124.5C 154.5,125.833 154.5,127.167 154.5,128.5C 152.824,129.183 152.157,130.517 152.5,132.5C 152.517,136.117 151.517,139.45 149.5,142.5C 147.477,144.173 145.144,144.84 142.5,144.5C 143.833,143.167 145.167,141.833 146.5,140.5C 146.5,139.167 146.5,137.833 146.5,136.5C 148.641,132.48 149.974,127.98 150.5,123C 150.453,120.705 149.787,118.871 148.5,117.5C 149.833,114.833 151.833,112.833 154.5,111.5 Z"/></g>
<g><path style="opacity:1" fill="#6d1229" d="M 57.5,99.5 C 60.1667,100.833 62.1667,102.833 63.5,105.5C 65.3169,111.62 65.9836,117.953 65.5,124.5C 62.8333,124.5 60.1667,124.5 57.5,124.5C 57.5,123.833 57.5,123.167 57.5,122.5C 58.8333,122.5 60.1667,122.5 61.5,122.5C 61.8288,116.794 61.4954,111.128 60.5,105.5C 58.4228,104.012 57.4228,102.012 57.5,99.5 Z"/></g>
<g><path style="opacity:1" fill="#df676c" d="M 146.5,113.5 C 145.63,115.274 144.297,116.607 142.5,117.5C 140.255,118.096 138.255,119.096 136.5,120.5C 134.167,121.167 131.833,121.833 129.5,122.5C 125.486,122.334 121.486,122.501 117.5,123C 112.232,125.262 107.232,127.762 102.5,130.5C 102.238,129.022 102.571,127.689 103.5,126.5C 108.336,123.387 113.67,121.387 119.5,120.5C 121.596,122.068 123.262,121.734 124.5,119.5C 127.128,119.537 129.795,119.871 132.5,120.5C 134.026,120.006 135.359,119.339 136.5,118.5C 137.167,117.833 137.833,117.167 138.5,116.5C 140.979,115.026 143.646,114.026 146.5,113.5 Z"/></g>
<g><path style="opacity:1" fill="#8a1f45" d="M 20.5,105.5 C 21.675,105.281 22.675,105.614 23.5,106.5C 25.1627,110.496 27.3294,114.163 30,117.5C 30.499,121.821 30.6657,126.154 30.5,130.5C 28.7092,126.204 27.0425,121.871 25.5,117.5C 25.477,112.791 23.8104,108.791 20.5,105.5 Z"/></g>
<g><path style="opacity:1" fill="#c61f45" d="M 82.5,117.5 C 83.8333,117.5 85.1667,117.5 86.5,117.5C 87.8979,121.874 89.5646,126.207 91.5,130.5C 92.2652,131.612 93.2652,132.279 94.5,132.5C 92.3647,134.369 89.6981,135.036 86.5,134.5C 85.1667,134.5 83.8333,134.5 82.5,134.5C 82.1667,134.5 81.8333,134.5 81.5,134.5C 81.4559,131.1 80.7892,127.6 79.5,124C 80.9423,123.623 81.9423,122.79 82.5,121.5C 82.5,120.167 82.5,118.833 82.5,117.5 Z"/></g>
<g><path style="opacity:1" fill="#e32b51" d="M 113.5,113.5 C 115.176,114.183 115.843,115.517 115.5,117.5C 110.16,118.083 105.16,119.416 100.5,121.5C 100.336,124.748 99.3361,127.748 97.5,130.5C 96.7348,131.612 95.7348,132.279 94.5,132.5C 93.2652,132.279 92.2652,131.612 91.5,130.5C 89.5646,126.207 87.8979,121.874 86.5,117.5C 93.5316,117.83 100.532,117.497 107.5,116.5C 109.071,114.585 111.071,113.585 113.5,113.5 Z"/></g>
<g><path style="opacity:1" fill="#4c3d3a" d="M 142.5,117.5 C 141.374,119.453 139.708,120.953 137.5,122C 138.448,122.483 139.448,122.649 140.5,122.5C 140.5,122.833 140.5,123.167 140.5,123.5C 138.02,124.242 135.687,125.242 133.5,126.5C 132.167,126.5 131.5,125.833 131.5,124.5C 133.167,123.167 134.833,121.833 136.5,120.5C 138.255,119.096 140.255,118.096 142.5,117.5 Z"/></g>
<g><path style="opacity:1" fill="#871d32" d="M 63.5,105.5 C 64.8333,105.5 66.1667,105.5 67.5,105.5C 67.5,106.167 67.5,106.833 67.5,107.5C 68.1667,109.5 69.5,110.833 71.5,111.5C 71.214,114.834 71.214,118 71.5,121C 70.9777,121.95 70.311,122.784 69.5,123.5C 71.1733,125.523 71.8399,127.856 71.5,130.5C 67.9324,129.715 64.5991,128.382 61.5,126.5C 59.901,126.768 58.5676,126.434 57.5,125.5C 57.5,125.167 57.5,124.833 57.5,124.5C 60.1667,124.5 62.8333,124.5 65.5,124.5C 65.9836,117.953 65.3169,111.62 63.5,105.5 Z"/></g>
<g><path style="opacity:0.686" fill="#7c2944" d="M 161.5,117.5 C 161.214,125.583 159.547,133.249 156.5,140.5C 157.474,133.862 158.474,127.196 159.5,120.5C 160.167,119.5 160.833,118.5 161.5,117.5 Z"/></g>
<g><path style="opacity:1" fill="#a9243f" d="M 71.5,111.5 C 74.0041,112.584 76.3374,113.917 78.5,115.5C 76.3857,119.833 77.719,121.833 82.5,121.5C 81.9423,122.79 80.9423,123.623 79.5,124C 80.7892,127.6 81.4559,131.1 81.5,134.5C 77.9324,133.715 74.5991,132.382 71.5,130.5C 71.8399,127.856 71.1733,125.523 69.5,123.5C 70.311,122.784 70.9777,121.95 71.5,121C 71.214,118 71.214,114.834 71.5,111.5 Z"/></g>
<g><path style="opacity:1" fill="#ee8989" d="M 129.5,122.5 C 125.277,125.067 120.61,126.734 115.5,127.5C 114.388,128.265 113.721,129.265 113.5,130.5C 110.112,129.969 108.112,131.303 107.5,134.5C 105.219,134.077 103.552,134.744 102.5,136.5C 101.167,136.5 99.8333,136.5 98.5,136.5C 98.354,133.446 99.6874,131.446 102.5,130.5C 107.232,127.762 112.232,125.262 117.5,123C 121.486,122.501 125.486,122.334 129.5,122.5 Z"/></g>
<g><path style="opacity:1" fill="#e8a7a9" d="M 136.5,120.5 C 134.833,121.833 133.167,123.167 131.5,124.5C 128.833,125.833 126.167,127.167 123.5,128.5C 120.266,129.576 116.932,130.243 113.5,130.5C 113.721,129.265 114.388,128.265 115.5,127.5C 120.61,126.734 125.277,125.067 129.5,122.5C 131.833,121.833 134.167,121.167 136.5,120.5 Z"/></g>
<g><path style="opacity:1" fill="#300718" d="M 59.5,140.5 C 52.5504,141.41 46.2171,140.076 40.5,136.5C 39.8333,131.167 39.1667,125.833 38.5,120.5C 38.56,119.957 38.8933,119.624 39.5,119.5C 40.8333,120.167 42.1667,120.833 43.5,121.5C 45.8827,123.76 48.5493,125.76 51.5,127.5C 54.617,131.604 57.2836,135.937 59.5,140.5 Z"/></g>
<g><path style="opacity:1" fill="#7e3b49" d="M 55.5,126.5 C 56.1667,127.833 56.8333,129.167 57.5,130.5C 58.997,134.165 60.997,137.498 63.5,140.5C 63.719,141.675 63.3857,142.675 62.5,143.5C 61.8589,142.007 60.8589,141.007 59.5,140.5C 57.2836,135.937 54.617,131.604 51.5,127.5C 48.5493,125.76 45.8827,123.76 43.5,121.5C 42.1667,120.833 40.8333,120.167 39.5,119.5C 38.8933,119.624 38.56,119.957 38.5,120.5C 37.8333,120.5 37.1667,120.5 36.5,120.5C 36.5,118.833 36.5,117.167 36.5,115.5C 37.9778,115.238 39.3112,115.571 40.5,116.5C 45.0413,120.598 50.0413,123.931 55.5,126.5 Z"/></g>
<g><path style="opacity:1" fill="#887a77" d="M 131.5,124.5 C 131.5,125.833 132.167,126.5 133.5,126.5C 133.5,126.833 133.5,127.167 133.5,127.5C 132.833,127.833 132.167,128.167 131.5,128.5C 129.718,129.72 127.718,130.386 125.5,130.5C 124.167,130.5 123.5,129.833 123.5,128.5C 126.167,127.167 128.833,125.833 131.5,124.5 Z"/></g>
<g><path style="opacity:1" fill="#170f11" d="M 57.5,125.5 C 58.5676,126.434 59.901,126.768 61.5,126.5C 61.5,127.833 61.5,129.167 61.5,130.5C 60.1667,130.5 58.8333,130.5 57.5,130.5C 56.8333,129.167 56.1667,127.833 55.5,126.5C 55.8417,125.662 56.5084,125.328 57.5,125.5 Z"/></g>
<g><path style="opacity:1" fill="#a62750" d="M 156.5,120.5 C 156.238,121.978 156.571,123.311 157.5,124.5C 158.172,123.051 158.839,121.718 159.5,120.5C 158.474,127.196 157.474,133.862 156.5,140.5C 155.167,141.833 153.833,143.167 152.5,144.5C 150.146,145.013 148.146,146.179 146.5,148C 138.19,149.64 129.856,151.14 121.5,152.5C 118.615,153.254 116.615,154.92 115.5,157.5C 114.167,158.167 112.833,158.833 111.5,159.5C 110.314,158.295 110.314,156.961 111.5,155.5C 112.833,155.5 113.5,154.833 113.5,153.5C 115.761,152.091 117.761,150.425 119.5,148.5C 125.176,148.666 130.843,148.499 136.5,148C 137.416,147.722 138.082,147.222 138.5,146.5C 140.153,146.34 141.486,145.674 142.5,144.5C 145.144,144.84 147.477,144.173 149.5,142.5C 151.517,139.45 152.517,136.117 152.5,132.5C 154.176,131.817 154.843,130.483 154.5,128.5C 154.5,127.167 154.5,125.833 154.5,124.5C 155.167,123.167 155.833,121.833 156.5,120.5 Z"/></g>
<g><path style="opacity:1" fill="#783d47" d="M 154.5,128.5 C 154.843,130.483 154.176,131.817 152.5,132.5C 152.157,130.517 152.824,129.183 154.5,128.5 Z"/></g>
<g><path style="opacity:1" fill="#342124" d="M 36.5,111.5 C 37.8333,111.5 39.1667,111.5 40.5,111.5C 44.8287,117.507 50.4953,121.84 57.5,124.5C 57.5,124.833 57.5,125.167 57.5,125.5C 56.5084,125.328 55.8417,125.662 55.5,126.5C 50.0413,123.931 45.0413,120.598 40.5,116.5C 39.3112,115.571 37.9778,115.238 36.5,115.5C 36.5,117.167 36.5,118.833 36.5,120.5C 36.1796,123.898 36.513,127.232 37.5,130.5C 37.9642,132.975 38.9642,134.975 40.5,136.5C 40.3285,138.492 40.9951,140.158 42.5,141.5C 49.9835,143.874 57.6502,144.874 65.5,144.5C 65.8432,142.517 65.1765,141.183 63.5,140.5C 60.997,137.498 58.997,134.165 57.5,130.5C 58.8333,130.5 60.1667,130.5 61.5,130.5C 61.354,133.554 62.6874,135.554 65.5,136.5C 66.1667,137.833 66.8333,139.167 67.5,140.5C 68.1667,141.833 68.8333,143.167 69.5,144.5C 68.4489,145.222 67.7822,146.222 67.5,147.5C 62.4725,147.497 57.4725,147.164 52.5,146.5C 43.2687,146.911 37.2687,142.911 34.5,134.5C 34.5,132.5 34.5,130.5 34.5,128.5C 33.8833,122.402 34.55,116.735 36.5,111.5 Z"/></g>
<g><path style="opacity:1" fill="#532734" d="M 36.5,120.5 C 37.1667,120.5 37.8333,120.5 38.5,120.5C 39.1667,125.833 39.8333,131.167 40.5,136.5C 38.9642,134.975 37.9642,132.975 37.5,130.5C 36.513,127.232 36.1796,123.898 36.5,120.5 Z"/></g>
<g><path style="opacity:1" fill="#c2adac" d="M 123.5,128.5 C 123.5,129.833 124.167,130.5 125.5,130.5C 125.5,131.167 125.5,131.833 125.5,132.5C 122.918,132.025 120.918,132.692 119.5,134.5C 117.517,134.157 116.183,134.824 115.5,136.5C 114.167,136.5 112.833,136.5 111.5,136.5C 110.817,134.824 109.483,134.157 107.5,134.5C 108.112,131.303 110.112,129.969 113.5,130.5C 116.932,130.243 120.266,129.576 123.5,128.5 Z"/></g>
<g><path style="opacity:1" fill="#bf6b69" d="M 140.5,123.5 C 140.714,125.144 140.38,126.644 139.5,128C 141.121,131.361 142.455,134.861 143.5,138.5C 144.265,137.388 145.265,136.721 146.5,136.5C 146.5,137.833 146.5,139.167 146.5,140.5C 144.435,140.517 142.435,140.85 140.5,141.5C 140.5,140.5 140.5,139.5 140.5,138.5C 138.833,138.5 137.167,138.5 135.5,138.5C 134.992,134.803 134.326,131.136 133.5,127.5C 133.5,127.167 133.5,126.833 133.5,126.5C 135.687,125.242 138.02,124.242 140.5,123.5 Z"/></g>
<g><path style="opacity:1" fill="#a33d47" d="M 148.5,117.5 C 149.787,118.871 150.453,120.705 150.5,123C 149.974,127.98 148.641,132.48 146.5,136.5C 145.265,136.721 144.265,137.388 143.5,138.5C 142.455,134.861 141.121,131.361 139.5,128C 140.38,126.644 140.714,125.144 140.5,123.5C 140.5,123.167 140.5,122.833 140.5,122.5C 143.433,121.229 146.099,119.562 148.5,117.5 Z"/></g>
<g><path style="opacity:1" fill="#551d31" d="M 25.5,117.5 C 27.0425,121.871 28.7092,126.204 30.5,130.5C 30.3651,133.417 31.0318,136.084 32.5,138.5C 32.8707,141.892 34.5374,144.558 37.5,146.5C 40.4824,148.164 43.4824,149.497 46.5,150.5C 36.8865,150.754 30.7199,146.087 28,136.5C 27.1426,130.14 26.3092,123.807 25.5,117.5 Z"/></g>
<g><path style="opacity:1" fill="#4d2c2f" d="M 61.5,126.5 C 64.5991,128.382 67.9324,129.715 71.5,130.5C 74.5991,132.382 77.9324,133.715 81.5,134.5C 81.8333,134.5 82.1667,134.5 82.5,134.5C 83.1834,136.176 84.5168,136.843 86.5,136.5C 87.1667,136.5 87.8333,136.5 88.5,136.5C 89.1834,138.176 90.5168,138.843 92.5,138.5C 91.8166,140.176 90.4832,140.843 88.5,140.5C 86.396,140.799 84.396,140.466 82.5,139.5C 75.3791,136.47 68.3791,133.47 61.5,130.5C 61.5,129.167 61.5,127.833 61.5,126.5 Z"/></g>
<g><path style="opacity:1" fill="#9a4751" d="M 82.5,134.5 C 83.8333,134.5 85.1667,134.5 86.5,134.5C 86.5,135.167 86.5,135.833 86.5,136.5C 84.5168,136.843 83.1834,136.176 82.5,134.5 Z"/></g>
<g><path style="opacity:1" fill="#e4b0ab" d="M 131.5,128.5 C 131.201,130.604 131.534,132.604 132.5,134.5C 133.842,137.184 135.175,139.85 136.5,142.5C 134.833,142.5 133.167,142.5 131.5,142.5C 131.649,141.448 131.483,140.448 131,139.5C 129.127,137.028 127.294,134.695 125.5,132.5C 125.5,131.833 125.5,131.167 125.5,130.5C 127.718,130.386 129.718,129.72 131.5,128.5 Z"/></g>
<g><path style="opacity:1" fill="#a3565b" d="M 88.5,136.5 C 91.1667,136.5 93.8333,136.5 96.5,136.5C 95.8166,138.176 94.4832,138.843 92.5,138.5C 90.5168,138.843 89.1834,138.176 88.5,136.5 Z"/></g>
<g><path style="opacity:1" fill="#5c2a38" d="M 40.5,136.5 C 46.2171,140.076 52.5504,141.41 59.5,140.5C 60.8589,141.007 61.8589,142.007 62.5,143.5C 63.3857,142.675 63.719,141.675 63.5,140.5C 65.1765,141.183 65.8432,142.517 65.5,144.5C 57.6502,144.874 49.9835,143.874 42.5,141.5C 40.9951,140.158 40.3285,138.492 40.5,136.5 Z"/></g>
<g><path style="opacity:1" fill="#84172e" d="M 65.5,136.5 C 67.604,136.201 69.604,136.534 71.5,137.5C 74.9811,139.721 78.6478,141.388 82.5,142.5C 83.6298,144.315 84.2964,146.315 84.5,148.5C 88.4118,147.956 90.7451,149.623 91.5,153.5C 92.1667,152.833 92.8333,152.167 93.5,151.5C 94.8415,153.005 96.5082,153.672 98.5,153.5C 99.3764,153.369 100.043,153.702 100.5,154.5C 99.3881,155.265 98.7214,156.265 98.5,157.5C 94.1906,157.756 90.1906,156.756 86.5,154.5C 80.9502,150.878 75.9502,146.545 71.5,141.5C 70.3112,140.571 68.9778,140.238 67.5,140.5C 66.8333,139.167 66.1667,137.833 65.5,136.5 Z"/></g>
<g><path style="opacity:1" fill="#6d4c4b" d="M 96.5,136.5 C 97.1667,136.5 97.8333,136.5 98.5,136.5C 99.8333,136.5 101.167,136.5 102.5,136.5C 103.873,136.343 105.207,136.51 106.5,137C 104.242,138.118 102.242,139.618 100.5,141.5C 101.689,142.429 103.022,142.762 104.5,142.5C 104.5,143.5 104.5,144.5 104.5,145.5C 102.565,144.85 100.565,144.517 98.5,144.5C 94.3942,144.696 91.0608,143.363 88.5,140.5C 90.4832,140.843 91.8166,140.176 92.5,138.5C 94.4832,138.843 95.8166,138.176 96.5,136.5 Z"/></g>
<g><path style="opacity:1" fill="#cd8c89" d="M 133.5,127.5 C 134.326,131.136 134.992,134.803 135.5,138.5C 137.167,138.5 138.833,138.5 140.5,138.5C 140.5,139.5 140.5,140.5 140.5,141.5C 139.432,142.434 138.099,142.768 136.5,142.5C 135.175,139.85 133.842,137.184 132.5,134.5C 131.534,132.604 131.201,130.604 131.5,128.5C 132.167,128.167 132.833,127.833 133.5,127.5 Z"/></g>
<g><path style="opacity:1" fill="#ba8a88" d="M 107.5,134.5 C 109.483,134.157 110.817,134.824 111.5,136.5C 108.248,137.418 105.914,139.418 104.5,142.5C 103.022,142.762 101.689,142.429 100.5,141.5C 102.242,139.618 104.242,138.118 106.5,137C 105.207,136.51 103.873,136.343 102.5,136.5C 103.552,134.744 105.219,134.077 107.5,134.5 Z"/></g>
<g><path style="opacity:1" fill="#f7ecec" d="M 119.5,134.5 C 120.833,134.5 122.167,134.5 123.5,134.5C 124.702,138.048 125.369,141.715 125.5,145.5C 118.659,146.323 115.325,143.323 115.5,136.5C 116.183,134.824 117.517,134.157 119.5,134.5 Z"/></g>
<g><path style="opacity:1" fill="#edd0cd" d="M 125.5,132.5 C 127.294,134.695 129.127,137.028 131,139.5C 131.483,140.448 131.649,141.448 131.5,142.5C 129.489,145.666 126.489,147 122.5,146.5C 116.776,144.145 110.776,142.812 104.5,142.5C 105.914,139.418 108.248,137.418 111.5,136.5C 112.833,136.5 114.167,136.5 115.5,136.5C 115.325,143.323 118.659,146.323 125.5,145.5C 125.369,141.715 124.702,138.048 123.5,134.5C 122.167,134.5 120.833,134.5 119.5,134.5C 120.918,132.692 122.918,132.025 125.5,132.5 Z"/></g>
<g><path style="opacity:1" fill="#675552" d="M 146.5,140.5 C 145.167,141.833 143.833,143.167 142.5,144.5C 141.486,145.674 140.153,146.34 138.5,146.5C 136.167,146.5 133.833,146.5 131.5,146.5C 133.349,145.407 135.016,144.074 136.5,142.5C 138.099,142.768 139.432,142.434 140.5,141.5C 142.435,140.85 144.435,140.517 146.5,140.5 Z"/></g>
<g><path style="opacity:1" fill="#b9a19e" d="M 104.5,142.5 C 110.776,142.812 116.776,144.145 122.5,146.5C 126.489,147 129.489,145.666 131.5,142.5C 133.167,142.5 134.833,142.5 136.5,142.5C 135.016,144.074 133.349,145.407 131.5,146.5C 127.5,147.167 123.5,147.833 119.5,148.5C 117.761,150.425 115.761,152.091 113.5,153.5C 113.5,152.5 113.5,151.5 113.5,150.5C 112.041,150.433 110.708,150.766 109.5,151.5C 108.71,150.391 108.21,149.058 108,147.5C 106.698,146.915 105.531,146.249 104.5,145.5C 104.5,144.5 104.5,143.5 104.5,142.5 Z"/></g>
<g><path style="opacity:0.539" fill="#481d2c" d="M 156.5,140.5 C 156.756,142.792 156.423,144.959 155.5,147C 152.093,149.744 148.26,151.577 144,152.5C 143.235,152.43 142.735,152.097 142.5,151.5C 146.961,150.617 150.295,148.283 152.5,144.5C 153.833,143.167 155.167,141.833 156.5,140.5 Z"/></g>
<g><path style="opacity:1" fill="#9b254b" d="M 34.5,134.5 C 37.2687,142.911 43.2687,146.911 52.5,146.5C 53.2625,147.268 54.2625,147.768 55.5,148C 60.8229,148.499 66.1563,148.666 71.5,148.5C 72.3789,151.382 74.0456,153.715 76.5,155.5C 76.1788,157.048 75.1788,157.715 73.5,157.5C 71.2469,156.257 69.2469,154.59 67.5,152.5C 60.5564,151.232 53.5564,150.566 46.5,150.5C 43.4824,149.497 40.4824,148.164 37.5,146.5C 34.5374,144.558 32.8707,141.892 32.5,138.5C 34.1765,137.817 34.8432,136.483 34.5,134.5 Z"/></g>
<g><path style="opacity:1" fill="#632937" d="M 52.5,146.5 C 57.4725,147.164 62.4725,147.497 67.5,147.5C 69.099,147.232 70.4324,147.566 71.5,148.5C 66.1563,148.666 60.8229,148.499 55.5,148C 54.2625,147.768 53.2625,147.268 52.5,146.5 Z"/></g>
<g><path style="opacity:1" fill="#a05562" d="M 131.5,146.5 C 133.833,146.5 136.167,146.5 138.5,146.5C 138.082,147.222 137.416,147.722 136.5,148C 130.843,148.499 125.176,148.666 119.5,148.5C 123.5,147.833 127.5,147.167 131.5,146.5 Z"/></g>
<g><path style="opacity:1" fill="#9c1f37" d="M 82.5,142.5 C 87.0086,144.256 91.6753,145.589 96.5,146.5C 96.8844,148.929 97.551,151.263 98.5,153.5C 96.5082,153.672 94.8415,153.005 93.5,151.5C 92.8333,152.167 92.1667,152.833 91.5,153.5C 90.7451,149.623 88.4118,147.956 84.5,148.5C 84.2964,146.315 83.6298,144.315 82.5,142.5 Z"/></g>
<g><path style="opacity:1" fill="#cb7e7e" d="M 98.5,144.5 C 100.565,144.517 102.565,144.85 104.5,145.5C 105.531,146.249 106.698,146.915 108,147.5C 108.21,149.058 108.71,150.391 109.5,151.5C 107.57,153.45 105.237,154.783 102.5,155.5C 104.056,150.699 102.723,147.032 98.5,144.5 Z"/></g>
<g><path style="opacity:0.608" fill="#76163b" d="M 152.5,144.5 C 150.295,148.283 146.961,150.617 142.5,151.5C 138.818,151.335 135.152,151.501 131.5,152C 126.636,152.782 122.302,154.615 118.5,157.5C 117.5,157.5 116.5,157.5 115.5,157.5C 116.615,154.92 118.615,153.254 121.5,152.5C 129.856,151.14 138.19,149.64 146.5,148C 148.146,146.179 150.146,145.013 152.5,144.5 Z"/></g>
<g><path style="opacity:0.753" fill="#6a1536" d="M 46.5,150.5 C 53.5564,150.566 60.5564,151.232 67.5,152.5C 69.2469,154.59 71.2469,156.257 73.5,157.5C 73.5,158.167 73.5,158.833 73.5,159.5C 72.5,159.5 71.5,159.5 70.5,159.5C 69.4264,158.115 68.0931,156.949 66.5,156C 59.7216,154.087 53.0549,152.254 46.5,150.5 Z"/></g>
<g><path style="opacity:1" fill="#b24a55" d="M 61.5,130.5 C 68.3791,133.47 75.3791,136.47 82.5,139.5C 84.396,140.466 86.396,140.799 88.5,140.5C 91.0608,143.363 94.3942,144.696 98.5,144.5C 102.723,147.032 104.056,150.699 102.5,155.5C 102.5,156.167 102.5,156.833 102.5,157.5C 101.167,158.167 99.8333,158.833 98.5,159.5C 98.5,158.833 98.5,158.167 98.5,157.5C 98.7214,156.265 99.3881,155.265 100.5,154.5C 100.043,153.702 99.3764,153.369 98.5,153.5C 97.551,151.263 96.8844,148.929 96.5,146.5C 91.6753,145.589 87.0086,144.256 82.5,142.5C 78.6478,141.388 74.9811,139.721 71.5,137.5C 69.604,136.534 67.604,136.201 65.5,136.5C 62.6874,135.554 61.354,133.554 61.5,130.5 Z"/></g>
<g><path style="opacity:1" fill="#4b3033" d="M 69.5,144.5 C 73.8791,147.367 77.8791,150.867 81.5,155C 85.6142,156.712 89.2809,158.878 92.5,161.5C 91.1667,161.5 90.5,162.167 90.5,163.5C 89.0222,163.762 87.6888,163.429 86.5,162.5C 83.0119,160.115 79.6786,157.782 76.5,155.5C 74.0456,153.715 72.3789,151.382 71.5,148.5C 70.4324,147.566 69.099,147.232 67.5,147.5C 67.7822,146.222 68.4489,145.222 69.5,144.5 Z"/></g>
<g><path style="opacity:1" fill="#903444" d="M 67.5,140.5 C 68.9778,140.238 70.3112,140.571 71.5,141.5C 75.9502,146.545 80.9502,150.878 86.5,154.5C 90.1906,156.756 94.1906,157.756 98.5,157.5C 98.5,158.167 98.5,158.833 98.5,159.5C 96.7179,160.72 94.7179,161.386 92.5,161.5C 89.2809,158.878 85.6142,156.712 81.5,155C 77.8791,150.867 73.8791,147.367 69.5,144.5C 68.8333,143.167 68.1667,141.833 67.5,140.5 Z"/></g>
<g><path style="opacity:1" fill="#5f4a46" d="M 113.5,153.5 C 113.5,154.833 112.833,155.5 111.5,155.5C 109.285,156.532 107.285,157.866 105.5,159.5C 105.179,157.952 104.179,157.285 102.5,157.5C 102.5,156.833 102.5,156.167 102.5,155.5C 105.237,154.783 107.57,153.45 109.5,151.5C 110.708,150.766 112.041,150.433 113.5,150.5C 113.5,151.5 113.5,152.5 113.5,153.5 Z"/></g>
<g><path style="opacity:1" fill="#99274a" d="M 76.5,155.5 C 79.6786,157.782 83.0119,160.115 86.5,162.5C 87.6888,163.429 89.0222,163.762 90.5,163.5C 92.0291,164.347 93.6958,165.014 95.5,165.5C 98.8643,163.487 102.198,161.487 105.5,159.5C 107.285,157.866 109.285,156.532 111.5,155.5C 110.314,156.961 110.314,158.295 111.5,159.5C 110.594,161.417 109.261,163.083 107.5,164.5C 104.705,164.938 102.372,165.938 100.5,167.5C 95.7863,167.827 91.1196,167.493 86.5,166.5C 83.9083,164.039 80.9083,162.372 77.5,161.5C 75.5168,161.843 74.1834,161.176 73.5,159.5C 73.5,158.833 73.5,158.167 73.5,157.5C 75.1788,157.715 76.1788,157.048 76.5,155.5 Z"/></g>
<g><path style="opacity:1" fill="#20191a" d="M 102.5,157.5 C 104.179,157.285 105.179,157.952 105.5,159.5C 102.198,161.487 98.8643,163.487 95.5,165.5C 93.6958,165.014 92.0291,164.347 90.5,163.5C 90.5,162.167 91.1667,161.5 92.5,161.5C 94.7179,161.386 96.7179,160.72 98.5,159.5C 99.8333,158.833 101.167,158.167 102.5,157.5 Z"/></g>
<g><path style="opacity:1" fill="#6f1637" d="M 77.5,161.5 C 80.9083,162.372 83.9083,164.039 86.5,166.5C 91.1196,167.493 95.7863,167.827 100.5,167.5C 98.2568,168.812 95.5902,169.478 92.5,169.5C 89.8333,169.167 87.1667,168.833 84.5,168.5C 82.8442,166.671 80.8442,165.337 78.5,164.5C 77.8728,163.583 77.5394,162.583 77.5,161.5 Z"/></g>
<g><path style="opacity:1" fill="#58142f" d="M 115.5,157.5 C 116.5,157.5 117.5,157.5 118.5,157.5C 114.798,161.203 110.798,164.537 106.5,167.5C 104.5,167.5 102.5,167.5 100.5,167.5C 102.372,165.938 104.705,164.938 107.5,164.5C 109.261,163.083 110.594,161.417 111.5,159.5C 112.833,158.833 114.167,158.167 115.5,157.5 Z"/></g>
<g><path style="opacity:0.592" fill="#32131f" d="M 70.5,159.5 C 71.5,159.5 72.5,159.5 73.5,159.5C 74.1834,161.176 75.5168,161.843 77.5,161.5C 77.5394,162.583 77.8728,163.583 78.5,164.5C 80.8442,165.337 82.8442,166.671 84.5,168.5C 87.1667,168.833 89.8333,169.167 92.5,169.5C 95.5902,169.478 98.2568,168.812 100.5,167.5C 102.5,167.5 104.5,167.5 106.5,167.5C 103.982,170.256 100.982,172.256 97.5,173.5C 94.1667,173.5 90.8333,173.5 87.5,173.5C 81.2512,169.589 75.5846,164.922 70.5,159.5 Z"/></g>
</svg>
