<?xml version="1.0" encoding="UTF-8"?>
<!DOCTYPE svg PUBLIC "-//W3C//DTD SVG 1.1//EN" "http://www.w3.org/Graphics/SVG/1.1/DTD/svg11.dtd">
<svg xmlns="http://www.w3.org/2000/svg" version="1.1" width="100%" height="100%" viewBox="0 0 548 548" style="shape-rendering:geometricPrecision; text-rendering:geometricPrecision; image-rendering:optimizeQuality; fill-rule:evenodd; clip-rule:evenodd" xmlns:xlink="http://www.w3.org/1999/xlink">
<g><path style="opacity:1" fill="#7e7e76" d="M 270.5,-0.5 C 271.167,-0.5 271.833,-0.5 272.5,-0.5C 310.407,43.9927 332.74,95.4927 339.5,154C 330.59,212.303 307.923,264.47 271.5,310.5C 238.127,268.739 216.294,221.406 206,168.5C 203.769,149.103 205.769,130.103 212,111.5C 223.931,69.9619 243.431,32.6286 270.5,-0.5 Z"/></g>
<g><path style="opacity:1" fill="#7e7e76" d="M 271.5,547.5 C 270.833,547.5 270.167,547.5 269.5,547.5C 217.194,493.63 177.027,431.63 149,361.5C 138.38,334.021 131.047,305.688 127,276.5C 126.171,271.467 126.338,266.467 127.5,261.5C 148.833,249.5 170.167,237.5 191.5,225.5C 206.752,276.196 233.252,319.863 271,356.5C 308.041,320.116 334.708,277.116 351,227.5C 351.388,226.572 352.055,225.905 353,225.5C 375.394,237.613 397.56,250.113 419.5,263C 407.984,331.552 383.484,395.052 346,453.5C 324.288,487.23 299.455,518.563 271.5,547.5 Z"/></g>
<g><path style="opacity:1" fill="#a4a897" d="M 270.5,18.5 C 272.371,18.8588 273.871,19.8588 275,21.5C 303.287,61.0931 320.787,105.093 327.5,153.5C 320.564,204.658 301.897,250.991 271.5,292.5C 255.285,270.408 242.451,246.408 233,220.5C 224.811,198.947 219.311,176.78 216.5,154C 222.669,103.97 240.669,58.8031 270.5,18.5 Z"/></g>
<g><path style="opacity:1" fill="#9faf39" d="M 257.5,266.5 C 256.599,265.71 255.932,264.71 255.5,263.5C 256.138,258.195 256.138,253.028 255.5,248C 258.778,244.364 262.444,241.198 266.5,238.5C 269.081,238.121 271.581,238.787 274,240.5C 275,240.167 276,239.833 277,239.5C 279.209,241.373 281.042,243.54 282.5,246C 283.448,246.483 284.448,246.649 285.5,246.5C 284.131,249.382 284.798,251.882 287.5,254C 286.672,254.915 285.672,255.581 284.5,256C 284.833,256.333 285.167,256.667 285.5,257C 284.833,259 284.167,261 283.5,263C 279.309,265.945 274.809,268.112 270,269.5C 267.961,269.634 265.794,269.134 263.5,268C 261.972,266.639 260.305,265.472 258.5,264.5C 257.702,264.957 257.369,265.624 257.5,266.5 Z"/></g>
<g><path style="opacity:1" fill="#98a838" d="M 297.5,244.5 C 290.368,260.1 281.702,274.767 271.5,288.5C 265.813,281.787 261.146,274.454 257.5,266.5C 257.369,265.624 257.702,264.957 258.5,264.5C 260.305,265.472 261.972,266.639 263.5,268C 265.794,269.134 267.961,269.634 270,269.5C 274.809,268.112 279.309,265.945 283.5,263C 284.167,261 284.833,259 285.5,257C 285.167,256.667 284.833,256.333 284.5,256C 285.672,255.581 286.672,254.915 287.5,254C 284.798,251.882 284.131,249.382 285.5,246.5C 284.448,246.649 283.448,246.483 282.5,246C 281.042,243.54 279.209,241.373 277,239.5C 276,239.833 275,240.167 274,240.5C 271.581,238.787 269.081,238.121 266.5,238.5C 262.444,241.198 258.778,244.364 255.5,248C 256.138,253.028 256.138,258.195 255.5,263.5C 251.325,256.484 247.659,249.151 244.5,241.5C 244.918,240.778 245.584,240.278 246.5,240C 245.764,237.979 246.597,236.479 249,235.5C 249.483,234.552 249.649,233.552 249.5,232.5C 254.614,229.264 260.114,226.598 266,224.5C 278.36,224.314 288.36,229.314 296,239.5C 297.009,241.025 297.509,242.692 297.5,244.5 Z"/></g>
<g><path style="opacity:1" fill="#909f35" d="M 302.5,232.5 C 301.352,236.787 299.685,240.787 297.5,244.5C 297.509,242.692 297.009,241.025 296,239.5C 288.36,229.314 278.36,224.314 266,224.5C 260.114,226.598 254.614,229.264 249.5,232.5C 249.649,233.552 249.483,234.552 249,235.5C 246.597,236.479 245.764,237.979 246.5,240C 245.584,240.278 244.918,240.778 244.5,241.5C 242.654,238.46 241.321,235.127 240.5,231.5C 243.315,227.187 246.982,223.687 251.5,221C 254.855,219.882 258.022,218.382 261,216.5C 262,216.833 263,217.167 264,217.5C 266.163,216.332 268.163,215.665 270,215.5C 275.885,216.164 281.385,217.33 286.5,219C 290.806,221.998 295.139,224.998 299.5,228C 299.209,229.958 300.209,231.458 302.5,232.5 Z"/></g>
<g><path style="opacity:1" fill="#8a9932" d="M 306.5,223.5 C 305.925,226.912 304.592,229.912 302.5,232.5C 300.209,231.458 299.209,229.958 299.5,228C 295.139,224.998 290.806,221.998 286.5,219C 281.385,217.33 275.885,216.164 270,215.5C 268.163,215.665 266.163,216.332 264,217.5C 263,217.167 262,216.833 261,216.5C 258.022,218.382 254.855,219.882 251.5,221C 246.982,223.687 243.315,227.187 240.5,231.5C 238.6,228.482 237.267,225.149 236.5,221.5C 236.351,220.448 236.517,219.448 237,218.5C 244.991,212.618 253.991,208.285 264,205.5C 268.025,206.784 272.025,206.784 276,205.5C 279.92,206.82 283.92,207.82 288,208.5C 290.897,210.636 294.064,212.302 297.5,213.5C 299.687,215.85 302.187,217.85 305,219.5C 305.791,220.745 306.291,222.078 306.5,223.5 Z"/></g>
<g><path style="opacity:1" fill="#849230" d="M 310.5,212.5 C 309.935,216.537 308.601,220.203 306.5,223.5C 306.291,222.078 305.791,220.745 305,219.5C 302.187,217.85 299.687,215.85 297.5,213.5C 294.064,212.302 290.897,210.636 288,208.5C 283.92,207.82 279.92,206.82 276,205.5C 272.025,206.784 268.025,206.784 264,205.5C 253.991,208.285 244.991,212.618 237,218.5C 236.517,219.448 236.351,220.448 236.5,221.5C 234.792,218.05 233.459,214.383 232.5,210.5C 233.922,210.291 235.255,209.791 236.5,209C 236.167,208.667 235.833,208.333 235.5,208C 240.477,204.529 245.811,201.696 251.5,199.5C 253.915,200.369 256.082,199.702 258,197.5C 259,197.833 260,198.167 261,198.5C 261.739,197.426 262.739,196.759 264,196.5C 269.302,196.802 274.635,196.802 280,196.5C 280.324,198.569 281.158,198.902 282.5,197.5C 283.428,199.335 284.594,199.668 286,198.5C 288.791,199.562 291.457,200.895 294,202.5C 294.333,202.167 294.667,201.833 295,201.5C 297.469,203.652 300.302,205.152 303.5,206C 302.346,206.914 302.513,207.747 304,208.5C 304.333,208.167 304.667,207.833 305,207.5C 306.812,209.3 308.645,210.967 310.5,212.5 Z"/></g>
<g><path style="opacity:1" fill="#7e8c2e" d="M 313.5,203.5 C 313.072,206.785 312.072,209.785 310.5,212.5C 308.645,210.967 306.812,209.3 305,207.5C 304.667,207.833 304.333,208.167 304,208.5C 302.513,207.747 302.346,206.914 303.5,206C 300.302,205.152 297.469,203.652 295,201.5C 294.667,201.833 294.333,202.167 294,202.5C 291.457,200.895 288.791,199.562 286,198.5C 284.594,199.668 283.428,199.335 282.5,197.5C 281.158,198.902 280.324,198.569 280,196.5C 274.635,196.802 269.302,196.802 264,196.5C 262.739,196.759 261.739,197.426 261,198.5C 260,198.167 259,197.833 258,197.5C 256.082,199.702 253.915,200.369 251.5,199.5C 245.811,201.696 240.477,204.529 235.5,208C 235.833,208.333 236.167,208.667 236.5,209C 235.255,209.791 233.922,210.291 232.5,210.5C 231.262,208.786 230.595,206.786 230.5,204.5C 231.523,200.644 233.856,197.81 237.5,196C 244.895,192.989 252.729,190.156 261,187.5C 266.782,187.937 272.449,187.937 278,187.5C 279.865,189.673 282.031,190.007 284.5,188.5C 294.288,191.453 302.455,195.453 309,200.5C 309.914,199.346 310.747,199.513 311.5,201C 310.849,202.308 311.515,203.141 313.5,203.5 Z"/></g>
<g><path style="opacity:1" fill="#78862c" d="M 316.5,194.5 C 316.072,197.785 315.072,200.785 313.5,203.5C 311.515,203.141 310.849,202.308 311.5,201C 310.747,199.513 309.914,199.346 309,200.5C 302.455,195.453 294.288,191.453 284.5,188.5C 282.031,190.007 279.865,189.673 278,187.5C 272.449,187.937 266.782,187.937 261,187.5C 252.729,190.156 244.895,192.989 237.5,196C 233.856,197.81 231.523,200.644 230.5,204.5C 228.899,201.45 227.899,198.116 227.5,194.5C 228.832,193.17 229.665,191.503 230,189.5C 231.32,189.201 232.82,189.034 234.5,189C 234.381,187.719 234.881,186.552 236,185.5C 237.333,185.5 238.667,185.5 240,185.5C 240.692,184.975 241.192,184.308 241.5,183.5C 245.17,182.58 248.67,181.247 252,179.5C 254.881,181.028 257.214,180.362 259,177.5C 260.739,177.566 262.572,178.233 264.5,179.5C 265.851,178.634 266.684,177.634 267,176.5C 267.95,177.022 268.784,177.689 269.5,178.5C 271.702,177.22 273.868,177.22 276,178.5C 277.16,176.203 278.16,176.536 279,179.5C 284.337,178.189 288.671,178.189 292,179.5C 293.661,181.828 295.661,183.828 298,185.5C 299.15,186.424 300.15,186.424 301,185.5C 306.325,189.082 311.492,192.082 316.5,194.5 Z"/></g>
<g><path style="opacity:1" fill="#727f2a" d="M 319.5,183.5 C 319.074,187.427 318.074,191.093 316.5,194.5C 311.492,192.082 306.325,189.082 301,185.5C 300.15,186.424 299.15,186.424 298,185.5C 295.661,183.828 293.661,181.828 292,179.5C 288.671,178.189 284.337,178.189 279,179.5C 278.16,176.536 277.16,176.203 276,178.5C 273.868,177.22 271.702,177.22 269.5,178.5C 268.784,177.689 267.95,177.022 267,176.5C 266.684,177.634 265.851,178.634 264.5,179.5C 262.572,178.233 260.739,177.566 259,177.5C 257.214,180.362 254.881,181.028 252,179.5C 248.67,181.247 245.17,182.58 241.5,183.5C 241.192,184.308 240.692,184.975 240,185.5C 238.667,185.5 237.333,185.5 236,185.5C 234.881,186.552 234.381,187.719 234.5,189C 232.82,189.034 231.32,189.201 230,189.5C 229.665,191.503 228.832,193.17 227.5,194.5C 225.872,190.681 224.539,186.681 223.5,182.5C 225.836,181.469 228.336,179.803 231,177.5C 231.414,177.957 231.914,178.291 232.5,178.5C 236.318,176.2 239.818,174.2 243,172.5C 243.333,172.833 243.667,173.167 244,173.5C 248.603,171.665 252.936,169.998 257,168.5C 259.653,168.682 262.32,169.015 265,169.5C 267,168.833 269,168.167 271,167.5C 271.667,168.167 272.333,168.833 273,169.5C 275.316,169.153 277.649,168.82 280,168.5C 284.394,169.742 288.727,171.075 293,172.5C 295.036,171.049 296.869,171.549 298.5,174C 299.449,174.617 300.282,174.451 301,173.5C 307.361,176.558 313.528,179.891 319.5,183.5 Z"/></g>
<g><path style="opacity:1" fill="#6c7928" d="M 322.5,174.5 C 321.64,177.632 320.64,180.632 319.5,183.5C 313.528,179.891 307.361,176.558 301,173.5C 300.282,174.451 299.449,174.617 298.5,174C 296.869,171.549 295.036,171.049 293,172.5C 288.727,171.075 284.394,169.742 280,168.5C 277.649,168.82 275.316,169.153 273,169.5C 272.333,168.833 271.667,168.167 271,167.5C 269,168.167 267,168.833 265,169.5C 262.32,169.015 259.653,168.682 257,168.5C 252.936,169.998 248.603,171.665 244,173.5C 243.667,173.167 243.333,172.833 243,172.5C 239.818,174.2 236.318,176.2 232.5,178.5C 231.914,178.291 231.414,177.957 231,177.5C 228.336,179.803 225.836,181.469 223.5,182.5C 222.99,179.461 222.323,176.461 221.5,173.5C 227.245,170.879 232.745,167.879 238,164.5C 239.525,164.112 241.192,164.112 243,164.5C 245.619,163.529 248.452,162.196 251.5,160.5C 253.368,160.946 255.201,161.279 257,161.5C 257.308,160.692 257.808,160.025 258.5,159.5C 261.643,159.359 264.476,159.692 267,160.5C 267.626,158.009 268.459,158.009 269.5,160.5C 274.169,160.632 278.669,160.298 283,159.5C 285.533,160.872 288.2,161.872 291,162.5C 292.147,161.542 293.147,161.875 294,163.5C 294.333,163.167 294.667,162.833 295,162.5C 297.351,163.714 299.851,164.548 302.5,165C 309.376,167.94 316.043,171.107 322.5,174.5 Z"/></g>
<g><path style="opacity:1" fill="#667326" d="M 323.5,166.5 C 323.425,169.206 323.092,171.873 322.5,174.5C 316.043,171.107 309.376,167.94 302.5,165C 299.851,164.548 297.351,163.714 295,162.5C 294.667,162.833 294.333,163.167 294,163.5C 293.147,161.875 292.147,161.542 291,162.5C 288.2,161.872 285.533,160.872 283,159.5C 278.669,160.298 274.169,160.632 269.5,160.5C 268.459,158.009 267.626,158.009 267,160.5C 264.476,159.692 261.643,159.359 258.5,159.5C 257.808,160.025 257.308,160.692 257,161.5C 255.201,161.279 253.368,160.946 251.5,160.5C 248.452,162.196 245.619,163.529 243,164.5C 241.192,164.112 239.525,164.112 238,164.5C 232.745,167.879 227.245,170.879 221.5,173.5C 220.706,170.198 220.04,166.865 219.5,163.5C 221.199,163.66 222.866,163.494 224.5,163C 224.167,162.667 223.833,162.333 223.5,162C 227.333,160.167 231.167,158.333 235,156.5C 235.333,157.167 235.667,157.833 236,158.5C 238.982,156.836 241.982,155.169 245,153.5C 246.766,154.502 248.433,154.168 250,152.5C 250.561,153.022 251.228,153.355 252,153.5C 253.834,151.557 255.834,151.224 258,152.5C 263.172,151.755 268.339,150.755 273.5,149.5C 274.647,149.818 275.481,150.484 276,151.5C 281.587,149.747 286.92,150.747 292,154.5C 293.667,153.833 295.333,153.167 297,152.5C 297.928,154.335 299.094,154.668 300.5,153.5C 304.355,155.09 308.188,156.757 312,158.5C 312.772,158.355 313.439,158.022 314,157.5C 316.741,161.078 319.907,164.078 323.5,166.5 Z"/></g>
<g><path style="opacity:1" fill="#606d24" d="M 325.5,156.5 C 325.247,160.04 324.581,163.373 323.5,166.5C 319.907,164.078 316.741,161.078 314,157.5C 313.439,158.022 312.772,158.355 312,158.5C 308.188,156.757 304.355,155.09 300.5,153.5C 299.094,154.668 297.928,154.335 297,152.5C 295.333,153.167 293.667,153.833 292,154.5C 286.92,150.747 281.587,149.747 276,151.5C 275.481,150.484 274.647,149.818 273.5,149.5C 268.339,150.755 263.172,151.755 258,152.5C 255.834,151.224 253.834,151.557 252,153.5C 251.228,153.355 250.561,153.022 250,152.5C 248.433,154.168 246.766,154.502 245,153.5C 241.982,155.169 238.982,156.836 236,158.5C 235.667,157.833 235.333,157.167 235,156.5C 231.167,158.333 227.333,160.167 223.5,162C 223.833,162.333 224.167,162.667 224.5,163C 222.866,163.494 221.199,163.66 219.5,163.5C 218.949,160.193 218.616,156.86 218.5,153.5C 221.278,153.978 223.278,152.978 224.5,150.5C 225.086,150.709 225.586,151.043 226,151.5C 228.306,149.467 230.306,147.8 232,146.5C 235.424,147.588 238.757,147.588 242,146.5C 243.955,145.547 245.622,144.213 247,142.5C 252.717,143.474 258.384,143.141 264,141.5C 266.006,143.002 267.672,142.669 269,140.5C 269.333,141.167 269.667,141.833 270,142.5C 271.333,139.833 272.667,139.833 274,142.5C 278.968,142.532 283.968,142.198 289,141.5C 293.627,142.944 298.294,144.61 303,146.5C 305.533,145.01 307.367,145.677 308.5,148.5C 309.086,148.291 309.586,147.957 310,147.5C 314.824,151.155 319.991,154.155 325.5,156.5 Z"/></g>
<g><path style="opacity:1" fill="#5a6622" d="M 324.5,144.5 C 325.162,148.466 325.495,152.466 325.5,156.5C 319.991,154.155 314.824,151.155 310,147.5C 309.586,147.957 309.086,148.291 308.5,148.5C 307.367,145.677 305.533,145.01 303,146.5C 298.294,144.61 293.627,142.944 289,141.5C 283.968,142.198 278.968,142.532 274,142.5C 272.667,139.833 271.333,139.833 270,142.5C 269.667,141.833 269.333,141.167 269,140.5C 267.672,142.669 266.006,143.002 264,141.5C 258.384,143.141 252.717,143.474 247,142.5C 245.622,144.213 243.955,145.547 242,146.5C 238.757,147.588 235.424,147.588 232,146.5C 230.306,147.8 228.306,149.467 226,151.5C 225.586,151.043 225.086,150.709 224.5,150.5C 223.278,152.978 221.278,153.978 218.5,153.5C 218.717,149.295 219.383,145.295 220.5,141.5C 221.847,140.829 223.014,140.829 224,141.5C 225.314,140.687 226.481,139.687 227.5,138.5C 228.086,138.709 228.586,139.043 229,139.5C 231.462,138.35 233.796,137.017 236,135.5C 237,135.833 238,136.167 239,136.5C 244.887,134.431 250.887,132.764 257,131.5C 261.333,131.833 265.667,132.167 270,132.5C 271.549,129.997 273.216,129.997 275,132.5C 277.063,132.76 279.23,132.426 281.5,131.5C 287.092,132.605 292.592,133.938 298,135.5C 298.333,135.167 298.667,134.833 299,134.5C 306.72,137.163 314.053,139.83 321,142.5C 321.333,142.167 321.667,141.833 322,141.5C 322.377,142.942 323.21,143.942 324.5,144.5 Z"/></g>
<g><path style="opacity:1" fill="#546020" d="M 322.5,133.5 C 322.911,137.221 323.578,140.888 324.5,144.5C 323.21,143.942 322.377,142.942 322,141.5C 321.667,141.833 321.333,142.167 321,142.5C 314.053,139.83 306.72,137.163 299,134.5C 298.667,134.833 298.333,135.167 298,135.5C 292.592,133.938 287.092,132.605 281.5,131.5C 279.23,132.426 277.063,132.76 275,132.5C 273.216,129.997 271.549,129.997 270,132.5C 265.667,132.167 261.333,131.833 257,131.5C 250.887,132.764 244.887,134.431 239,136.5C 238,136.167 237,135.833 236,135.5C 233.796,137.017 231.462,138.35 229,139.5C 228.586,139.043 228.086,138.709 227.5,138.5C 226.481,139.687 225.314,140.687 224,141.5C 223.014,140.829 221.847,140.829 220.5,141.5C 220.659,137.709 221.325,134.042 222.5,130.5C 226.488,130.207 230.654,128.874 235,126.5C 237.333,126.833 239.667,127.167 242,127.5C 242.249,126.376 242.749,125.376 243.5,124.5C 246.555,123.208 249.555,122.875 252.5,123.5C 253.647,123.182 254.481,122.516 255,121.5C 255.333,122.167 255.667,122.833 256,123.5C 260.059,121.225 264.393,121.225 269,123.5C 270.751,122.826 272.417,122.493 274,122.5C 274.689,123.357 275.522,124.023 276.5,124.5C 278.021,123.063 279.855,122.396 282,122.5C 284.419,123.251 286.753,123.251 289,122.5C 292.296,123.068 295.63,124.068 299,125.5C 302.634,124.184 305.634,125.518 308,129.5C 310.089,129.255 312.089,129.255 314,129.5C 316.738,131.058 319.571,132.391 322.5,133.5 Z"/></g>
<g><path style="opacity:1" fill="#4e5a1e" d="M 319.5,122.5 C 320.348,126.227 321.348,129.893 322.5,133.5C 319.571,132.391 316.738,131.058 314,129.5C 312.089,129.255 310.089,129.255 308,129.5C 305.634,125.518 302.634,124.184 299,125.5C 295.63,124.068 292.296,123.068 289,122.5C 286.753,123.251 284.419,123.251 282,122.5C 279.855,122.396 278.021,123.063 276.5,124.5C 275.522,124.023 274.689,123.357 274,122.5C 272.417,122.493 270.751,122.826 269,123.5C 264.393,121.225 260.059,121.225 256,123.5C 255.667,122.833 255.333,122.167 255,121.5C 254.481,122.516 253.647,123.182 252.5,123.5C 249.555,122.875 246.555,123.208 243.5,124.5C 242.749,125.376 242.249,126.376 242,127.5C 239.667,127.167 237.333,126.833 235,126.5C 230.654,128.874 226.488,130.207 222.5,130.5C 223.01,127.461 223.677,124.461 224.5,121.5C 235.06,118.15 245.894,115.483 257,113.5C 264.439,114.617 272.439,114.617 281,113.5C 287.036,113.88 293.369,115.213 300,117.5C 302.612,116.327 305.279,116.994 308,119.5C 308.414,119.043 308.914,118.709 309.5,118.5C 313.17,120.038 316.503,121.371 319.5,122.5 Z"/></g>
<g><path style="opacity:1" fill="#48531c" d="M 314.5,107.5 C 316.613,112.255 318.279,117.255 319.5,122.5C 316.503,121.371 313.17,120.038 309.5,118.5C 308.914,118.709 308.414,119.043 308,119.5C 305.279,116.994 302.612,116.327 300,117.5C 293.369,115.213 287.036,113.88 281,113.5C 272.439,114.617 264.439,114.617 257,113.5C 245.894,115.483 235.06,118.15 224.5,121.5C 225.797,115.949 227.463,110.616 229.5,105.5C 229.783,106.289 230.283,106.956 231,107.5C 236.682,105.859 242.349,104.192 248,102.5C 249.751,103.174 251.417,103.507 253,103.5C 254.791,101.487 256.125,101.487 257,103.5C 257.333,102.833 257.667,102.167 258,101.5C 265.953,102.547 273.953,102.547 282,101.5C 282.667,102.167 283.333,102.833 284,103.5C 287.337,103.248 291.004,102.915 295,102.5C 295.333,103.167 295.667,103.833 296,104.5C 297,104.167 298,103.833 299,103.5C 301.742,104.845 304.409,105.845 307,106.5C 309.173,105.871 311.173,106.538 313,108.5C 313.383,107.944 313.883,107.611 314.5,107.5 Z"/></g>
<g><path style="opacity:1" fill="#424d1a" d="M 311.5,98.5 C 313.072,101.215 314.072,104.215 314.5,107.5C 313.883,107.611 313.383,107.944 313,108.5C 311.173,106.538 309.173,105.871 307,106.5C 304.409,105.845 301.742,104.845 299,103.5C 298,103.833 297,104.167 296,104.5C 295.667,103.833 295.333,103.167 295,102.5C 291.004,102.915 287.337,103.248 284,103.5C 283.333,102.833 282.667,102.167 282,101.5C 273.953,102.547 265.953,102.547 258,101.5C 257.667,102.167 257.333,102.833 257,103.5C 256.125,101.487 254.791,101.487 253,103.5C 251.417,103.507 249.751,103.174 248,102.5C 242.349,104.192 236.682,105.859 231,107.5C 230.283,106.956 229.783,106.289 229.5,105.5C 229.595,103.214 230.262,101.214 231.5,99.5C 232.75,99.4226 233.583,98.756 234,97.5C 235.779,98.4791 237.445,98.1458 239,96.5C 240.117,96.6651 241.284,96.9984 242.5,97.5C 246.084,96.2789 249.584,95.2789 253,94.5C 254.268,94.6158 255.602,94.9491 257,95.5C 260.333,94.8333 263.667,94.1667 267,93.5C 268,94.1667 269,94.8333 270,95.5C 271.667,94.1667 273.333,94.1667 275,95.5C 275.667,94.8333 276.333,94.1667 277,93.5C 278.667,94.1667 280.333,94.8333 282,95.5C 286.86,95.1125 291.86,95.1125 297,95.5C 300.667,96.8333 304.333,98.1667 308,99.5C 309.335,98.9205 310.502,98.5872 311.5,98.5 Z"/></g>
<g><path style="opacity:1" fill="#3c4718" d="M 308.5,88.5 C 309.901,91.7036 310.901,95.0369 311.5,98.5C 310.502,98.5872 309.335,98.9205 308,99.5C 304.333,98.1667 300.667,96.8333 297,95.5C 291.86,95.1125 286.86,95.1125 282,95.5C 280.333,94.8333 278.667,94.1667 277,93.5C 276.333,94.1667 275.667,94.8333 275,95.5C 273.333,94.1667 271.667,94.1667 270,95.5C 269,94.8333 268,94.1667 267,93.5C 263.667,94.1667 260.333,94.8333 257,95.5C 255.602,94.9491 254.268,94.6158 253,94.5C 249.584,95.2789 246.084,96.2789 242.5,97.5C 241.284,96.9984 240.117,96.6651 239,96.5C 237.445,98.1458 235.779,98.4791 234,97.5C 233.583,98.756 232.75,99.4226 231.5,99.5C 232.459,95.617 233.792,91.9503 235.5,88.5C 236.88,89.7065 238.047,89.3731 239,87.5C 240.938,88.8602 242.604,88.5268 244,86.5C 246.361,87.5122 249.028,87.1789 252,85.5C 254.709,86.197 257.376,86.5303 260,86.5C 260.333,85.8333 260.667,85.1667 261,84.5C 264.789,85.5322 268.789,85.5322 273,84.5C 276,85.1667 279,85.8333 282,86.5C 284.892,86.7276 287.559,86.3942 290,85.5C 291.555,87.1458 293.221,87.4791 295,86.5C 296.333,87.1667 297.667,87.8333 299,88.5C 302.191,88.5952 305.357,88.5952 308.5,88.5 Z"/></g>
<g><path style="opacity:1" fill="#374116" d="M 304.5,79.5 C 305.833,82.5 307.167,85.5 308.5,88.5C 305.357,88.5952 302.191,88.5952 299,88.5C 297.667,87.8333 296.333,87.1667 295,86.5C 293.221,87.4791 291.555,87.1458 290,85.5C 287.559,86.3942 284.892,86.7276 282,86.5C 279,85.8333 276,85.1667 273,84.5C 268.789,85.5322 264.789,85.5322 261,84.5C 260.667,85.1667 260.333,85.8333 260,86.5C 257.376,86.5303 254.709,86.197 252,85.5C 249.028,87.1789 246.361,87.5122 244,86.5C 242.604,88.5268 240.938,88.8602 239,87.5C 238.047,89.3731 236.88,89.7065 235.5,88.5C 236.263,84.8632 237.597,81.5299 239.5,78.5C 240.88,79.7065 242.047,79.3731 243,77.5C 246.438,78.6606 250.104,78.3273 254,76.5C 256.522,76.2625 259.189,76.5958 262,77.5C 263.763,77.0245 265.43,76.3578 267,75.5C 271.303,76.6308 275.637,76.6308 280,75.5C 280.333,76.1667 280.667,76.8333 281,77.5C 283.147,76.8102 285.647,76.4769 288.5,76.5C 291.304,77.3981 294.137,78.3981 297,79.5C 299.432,78.5504 301.932,78.5504 304.5,79.5 Z"/></g>
<g><path style="opacity:1" fill="#303a14" d="M 304.5,79.5 C 301.932,78.5504 299.432,78.5504 297,79.5C 294.137,78.3981 291.304,77.3981 288.5,76.5C 285.647,76.4769 283.147,76.8102 281,77.5C 280.667,76.8333 280.333,76.1667 280,75.5C 275.637,76.6308 271.303,76.6308 267,75.5C 265.43,76.3578 263.763,77.0245 262,77.5C 259.189,76.5958 256.522,76.2625 254,76.5C 250.104,78.3273 246.438,78.6606 243,77.5C 242.047,79.3731 240.88,79.7065 239.5,78.5C 247.096,57.9626 257.763,39.2959 271.5,22.5C 277.969,29.4235 283.469,37.0901 288,45.5C 294.312,56.4573 299.812,67.7906 304.5,79.5 Z"/></g>
<g><path style="opacity:1" fill="#a2a697" d="M 356.5,243.5 C 372.765,251.633 388.765,260.3 404.5,269.5C 405.34,274.818 405.173,280.152 404,285.5C 381.275,379.309 336.942,460.976 271,530.5C 208.58,464.029 165.58,386.362 142,297.5C 140.009,288.243 139.009,278.91 139,269.5C 154.284,260.612 169.784,252.445 185.5,245C 203.043,296.256 231.543,340.422 271,377.5C 310.858,340.125 339.358,295.459 356.5,243.5 Z"/></g>
<g><path style="opacity:1" fill="#1c4e22" d="M 210.5,307.5 C 212.853,309.86 214.853,312.527 216.5,315.5C 214.418,315.624 212.918,316.624 212,318.5C 211.667,318.167 211.333,317.833 211,317.5C 209.333,318.5 208,319.833 207,321.5C 204.708,320.399 203.208,321.232 202.5,324C 197.665,325.932 193.331,329.099 189.5,333.5C 188.675,334.386 187.675,334.719 186.5,334.5C 186.5,335.5 186.5,336.5 186.5,337.5C 183.353,339.695 180.186,342.028 177,344.5C 172.561,349.769 168.728,355.436 165.5,361.5C 163.852,357.571 162.185,353.571 160.5,349.5C 163.394,345.421 166.561,341.421 170,337.5C 180.364,326.913 191.531,317.913 203.5,310.5C 205.945,309.688 208.278,308.688 210.5,307.5 Z"/></g>
<g><path style="opacity:1" fill="#1c4e21" d="M 331.5,306.5 C 340.626,312.126 349.626,318.126 358.5,324.5C 366.904,332.567 374.57,341.234 381.5,350.5C 380.562,354.313 379.229,357.979 377.5,361.5C 375.352,361.611 375.019,360.944 376.5,359.5C 372.534,354.688 368.701,349.688 365,344.5C 364.667,344.833 364.333,345.167 364,345.5C 360.355,339.859 356.022,334.859 351,330.5C 350.667,330.833 350.333,331.167 350,331.5C 346.703,329.205 343.703,326.538 341,323.5C 340.667,323.833 340.333,324.167 340,324.5C 335.96,320.13 331.127,317.13 325.5,315.5C 327.265,312.291 329.265,309.291 331.5,306.5 Z"/></g>
<g><path style="opacity:1" fill="#19471f" d="M 334.5,300.5 C 337.311,300.826 339.978,301.659 342.5,303C 347.362,306.695 352.362,310.195 357.5,313.5C 358.192,312.975 358.692,312.308 359,311.5C 359.5,312.667 360.333,313.5 361.5,314C 361.043,314.414 360.709,314.914 360.5,315.5C 368.778,323.122 376.778,330.955 384.5,339C 383.288,340.107 383.621,340.607 385.5,340.5C 384.733,344.149 383.4,347.482 381.5,350.5C 374.57,341.234 366.904,332.567 358.5,324.5C 349.626,318.126 340.626,312.126 331.5,306.5C 332.471,304.517 333.471,302.517 334.5,300.5 Z"/></g>
<g><path style="opacity:1" fill="#19471f" d="M 206.5,299.5 C 208.267,301.938 209.601,304.605 210.5,307.5C 208.278,308.688 205.945,309.688 203.5,310.5C 191.531,317.913 180.364,326.913 170,337.5C 166.561,341.421 163.394,345.421 160.5,349.5C 159.101,346.301 158.101,342.968 157.5,339.5C 161.79,335.539 165.79,331.206 169.5,326.5C 170.641,325.575 170.641,324.741 169.5,324C 171.831,321.989 174.831,320.156 178.5,318.5C 178.254,317.227 178.254,316.06 178.5,315C 183.764,313.95 188.264,311.45 192,307.5C 193.937,307.821 195.437,306.821 196.5,304.5C 198.567,303.866 200.4,302.866 202,301.5C 202.333,301.833 202.667,302.167 203,302.5C 203.72,300.944 204.887,299.944 206.5,299.5 Z"/></g>
<g><path style="opacity:1" fill="#18411c" d="M 339.5,292.5 C 352.024,299.016 363.69,306.849 374.5,316C 379.032,321.362 383.699,326.528 388.5,331.5C 388.072,334.785 387.072,337.785 385.5,340.5C 383.621,340.607 383.288,340.107 384.5,339C 376.778,330.955 368.778,323.122 360.5,315.5C 360.709,314.914 361.043,314.414 361.5,314C 360.333,313.5 359.5,312.667 359,311.5C 358.692,312.308 358.192,312.975 357.5,313.5C 352.362,310.195 347.362,306.695 342.5,303C 339.978,301.659 337.311,300.826 334.5,300.5C 336.181,297.797 337.847,295.131 339.5,292.5 Z"/></g>
<g><path style="opacity:1" fill="#18411c" d="M 202.5,293.5 C 204.192,295.205 205.525,297.205 206.5,299.5C 204.887,299.944 203.72,300.944 203,302.5C 202.667,302.167 202.333,301.833 202,301.5C 200.4,302.866 198.567,303.866 196.5,304.5C 195.437,306.821 193.937,307.821 192,307.5C 188.264,311.45 183.764,313.95 178.5,315C 178.254,316.06 178.254,317.227 178.5,318.5C 174.831,320.156 171.831,321.989 169.5,324C 170.641,324.741 170.641,325.575 169.5,326.5C 165.79,331.206 161.79,335.539 157.5,339.5C 155.733,337.208 154.733,334.542 154.5,331.5C 156.454,328.933 158.287,326.266 160,323.5C 171.951,311.901 185.618,301.568 201,292.5C 201.383,293.056 201.883,293.389 202.5,293.5 Z"/></g>
<g><path style="opacity:1" fill="#163b1a" d="M 344.5,282.5 C 344.369,283.376 344.702,284.043 345.5,284.5C 348.4,286.242 351.4,287.742 354.5,289C 358.471,293.844 363.471,297.51 369.5,300C 372.398,303.857 375.232,307.024 378,309.5C 378.333,309.167 378.667,308.833 379,308.5C 382,312.833 385.667,316.5 390,319.5C 390.513,320.527 391.013,321.527 391.5,322.5C 391.072,325.785 390.072,328.785 388.5,331.5C 383.699,326.528 379.032,321.362 374.5,316C 363.69,306.849 352.024,299.016 339.5,292.5C 340.659,288.849 342.326,285.515 344.5,282.5 Z"/></g>
<g><path style="opacity:1" fill="#153b1a" d="M 198.5,285.5 C 200.341,287.849 201.674,290.515 202.5,293.5C 201.883,293.389 201.383,293.056 201,292.5C 185.618,301.568 171.951,311.901 160,323.5C 158.287,326.266 156.454,328.933 154.5,331.5C 153.025,327.969 151.692,324.302 150.5,320.5C 157.605,313.041 165.271,306.208 173.5,300C 174.872,299.598 176.205,299.098 177.5,298.5C 183.479,292.508 190.479,288.175 198.5,285.5 Z"/></g>
<g><path style="opacity:1" fill="#133417" d="M 198.5,285.5 C 190.479,288.175 183.479,292.508 177.5,298.5C 176.205,299.098 174.872,299.598 173.5,300C 165.271,306.208 157.605,313.041 150.5,320.5C 146.881,307.689 144.048,294.689 142,281.5C 140.782,276.764 141.616,272.597 144.5,269C 157.907,262.214 171.073,255.048 184,247.5C 188.007,260.509 192.841,273.176 198.5,285.5 Z"/></g>
<g><path style="opacity:1" fill="#133417" d="M 391.5,322.5 C 391.013,321.527 390.513,320.527 390,319.5C 385.667,316.5 382,312.833 379,308.5C 378.667,308.833 378.333,309.167 378,309.5C 375.232,307.024 372.398,303.857 369.5,300C 363.471,297.51 358.471,293.844 354.5,289C 351.4,287.742 348.4,286.242 345.5,284.5C 344.702,284.043 344.369,283.376 344.5,282.5C 349.325,270.67 354.325,259.003 359.5,247.5C 374.745,255.279 389.411,263.779 403.5,273C 401.278,290.05 397.278,306.55 391.5,322.5 Z"/></g>
<g><path style="opacity:1" fill="#1e5424" d="M 216.5,315.5 C 218.086,317.67 219.42,320.004 220.5,322.5C 201.652,332.055 186.318,345.555 174.5,363C 173.552,363.483 172.552,363.649 171.5,363.5C 170.459,366.017 169.792,368.35 169.5,370.5C 167.796,367.744 166.463,364.744 165.5,361.5C 168.728,355.436 172.561,349.769 177,344.5C 180.186,342.028 183.353,339.695 186.5,337.5C 186.5,336.5 186.5,335.5 186.5,334.5C 187.675,334.719 188.675,334.386 189.5,333.5C 193.331,329.099 197.665,325.932 202.5,324C 203.208,321.232 204.708,320.399 207,321.5C 208,319.833 209.333,318.5 211,317.5C 211.333,317.833 211.667,318.167 212,318.5C 212.918,316.624 214.418,315.624 216.5,315.5 Z"/></g>
<g><path style="opacity:1" fill="#1e5424" d="M 325.5,315.5 C 331.127,317.13 335.96,320.13 340,324.5C 340.333,324.167 340.667,323.833 341,323.5C 343.703,326.538 346.703,329.205 350,331.5C 350.333,331.167 350.667,330.833 351,330.5C 356.022,334.859 360.355,339.859 364,345.5C 364.333,345.167 364.667,344.833 365,344.5C 368.701,349.688 372.534,354.688 376.5,359.5C 375.019,360.944 375.352,361.611 377.5,361.5C 376.537,364.744 375.204,367.744 373.5,370.5C 372.883,370.611 372.383,370.944 372,371.5C 364.153,357.282 354.653,345.615 343.5,336.5C 335.844,332.146 328.511,327.479 321.5,322.5C 322.584,319.996 323.917,317.663 325.5,315.5 Z"/></g>
<g><path style="opacity:1" fill="#215a27" d="M 220.5,322.5 C 222.522,324.531 224.189,326.865 225.5,329.5C 207.197,338.594 191.864,351.761 179.5,369C 179.833,369.333 180.167,369.667 180.5,370C 178.024,373.145 175.69,376.312 173.5,379.5C 171.408,376.912 170.075,373.912 169.5,370.5C 169.792,368.35 170.459,366.017 171.5,363.5C 172.552,363.649 173.552,363.483 174.5,363C 186.318,345.555 201.652,332.055 220.5,322.5 Z"/></g>
<g><path style="opacity:1" fill="#215a27" d="M 321.5,322.5 C 328.511,327.479 335.844,332.146 343.5,336.5C 354.653,345.615 364.153,357.282 372,371.5C 372.383,370.944 372.883,370.611 373.5,370.5C 372.397,374.497 370.731,378.164 368.5,381.5C 367.286,378.07 365.786,374.736 364,371.5C 359.834,365.972 355.334,360.805 350.5,356C 350.5,355 350.5,354 350.5,353C 344.337,347.77 338.503,342.936 333,338.5C 332.667,338.833 332.333,339.167 332,339.5C 328.043,336.016 323.71,333.016 319,330.5C 318.667,330.833 318.333,331.167 318,331.5C 317.722,330.584 317.222,329.918 316.5,329.5C 317.433,326.63 319.1,324.296 321.5,322.5 Z"/></g>
<g><path style="opacity:1" fill="#236029" d="M 225.5,329.5 C 227.547,331.55 229.214,333.883 230.5,336.5C 206.449,347.856 189.116,365.856 178.5,390.5C 176.269,387.164 174.603,383.497 173.5,379.5C 175.69,376.312 178.024,373.145 180.5,370C 180.167,369.667 179.833,369.333 179.5,369C 191.864,351.761 207.197,338.594 225.5,329.5 Z"/></g>
<g><path style="opacity:1" fill="#236029" d="M 316.5,329.5 C 317.222,329.918 317.722,330.584 318,331.5C 318.333,331.167 318.667,330.833 319,330.5C 323.71,333.016 328.043,336.016 332,339.5C 332.333,339.167 332.667,338.833 333,338.5C 338.503,342.936 344.337,347.77 350.5,353C 350.5,354 350.5,355 350.5,356C 355.334,360.805 359.834,365.972 364,371.5C 365.786,374.736 367.286,378.07 368.5,381.5C 367.341,385.151 365.674,388.485 363.5,391.5C 360.555,384.844 357.889,379.01 355.5,374C 349.427,366.454 342.76,358.788 335.5,351C 333.5,350 331.5,349 329.5,348C 329.833,347.667 330.167,347.333 330.5,347C 324.071,343.342 317.404,339.842 310.5,336.5C 312.273,333.94 314.273,331.607 316.5,329.5 Z"/></g>
<g><path style="opacity:1" fill="#25662c" d="M 230.5,336.5 C 233.209,339.208 235.542,342.208 237.5,345.5C 236.883,345.389 236.383,345.056 236,344.5C 233.721,346.163 231.387,347.83 229,349.5C 227.434,348.939 226.101,349.606 225,351.5C 224.667,351.167 224.333,350.833 224,350.5C 217.667,355.833 211.333,361.167 205,366.5C 201.617,371.565 197.784,376.398 193.5,381C 193.833,381.333 194.167,381.667 194.5,382C 192.322,385.257 189.988,388.924 187.5,393C 187.833,393.333 188.167,393.667 188.5,394C 186.671,396.682 185.337,399.516 184.5,402.5C 181.992,398.818 179.992,394.818 178.5,390.5C 189.116,365.856 206.449,347.856 230.5,336.5 Z"/></g>
<g><path style="opacity:1" fill="#276d2f" d="M 237.5,345.5 C 239.89,346.891 241.557,348.891 242.5,351.5C 227.812,356.794 215.812,366.127 206.5,379.5C 205.624,380.251 204.624,380.751 203.5,381C 203.833,381.333 204.167,381.667 204.5,382C 202.359,384.546 200.359,387.212 198.5,390C 198.833,390.333 199.167,390.667 199.5,391C 197.927,393.4 196.427,395.9 195,398.5C 193.266,403.823 191.766,408.823 190.5,413.5C 187.742,410.322 185.742,406.655 184.5,402.5C 185.337,399.516 186.671,396.682 188.5,394C 188.167,393.667 187.833,393.333 187.5,393C 189.988,388.924 192.322,385.257 194.5,382C 194.167,381.667 193.833,381.333 193.5,381C 197.784,376.398 201.617,371.565 205,366.5C 211.333,361.167 217.667,355.833 224,350.5C 224.333,350.833 224.667,351.167 225,351.5C 226.101,349.606 227.434,348.939 229,349.5C 231.387,347.83 233.721,346.163 236,344.5C 236.383,345.056 236.883,345.389 237.5,345.5 Z"/></g>
<g><path style="opacity:1" fill="#276d2f" d="M 303.5,345.5 C 305.927,345.523 308.26,346.023 310.5,347C 327.414,355.915 340.748,368.581 350.5,385C 350.167,385.333 349.833,385.667 349.5,386C 353.168,391.768 355.835,397.601 357.5,403.5C 356.008,407.818 354.008,411.818 351.5,415.5C 345.499,384.235 328.165,362.902 299.5,351.5C 300.415,349.246 301.748,347.246 303.5,345.5 Z"/></g>
<g><path style="opacity:1" fill="#25662c" d="M 310.5,336.5 C 317.404,339.842 324.071,343.342 330.5,347C 330.167,347.333 329.833,347.667 329.5,348C 331.5,349 333.5,350 335.5,351C 342.76,358.788 349.427,366.454 355.5,374C 357.889,379.01 360.555,384.844 363.5,391.5C 362.438,396.053 360.438,400.053 357.5,403.5C 355.835,397.601 353.168,391.768 349.5,386C 349.833,385.667 350.167,385.333 350.5,385C 340.748,368.581 327.414,355.915 310.5,347C 308.26,346.023 305.927,345.523 303.5,345.5C 306.075,342.681 308.408,339.681 310.5,336.5 Z"/></g>
<g><path style="opacity:1" fill="#297331" d="M 242.5,351.5 C 245.219,353.219 247.219,355.553 248.5,358.5C 217.587,371.058 200.587,393.725 197.5,426.5C 194.773,422.423 192.439,418.09 190.5,413.5C 191.766,408.823 193.266,403.823 195,398.5C 196.427,395.9 197.927,393.4 199.5,391C 199.167,390.667 198.833,390.333 198.5,390C 200.359,387.212 202.359,384.546 204.5,382C 204.167,381.667 203.833,381.333 203.5,381C 204.624,380.751 205.624,380.251 206.5,379.5C 215.812,366.127 227.812,356.794 242.5,351.5 Z"/></g>
<g><path style="opacity:1" fill="#297331" d="M 299.5,351.5 C 328.165,362.902 345.499,384.235 351.5,415.5C 349.656,419.864 347.323,423.864 344.5,427.5C 343.795,424.772 343.128,421.939 342.5,419C 343.174,417.249 343.507,415.583 343.5,414C 341.957,410.01 340.291,406.01 338.5,402C 338.833,401.667 339.167,401.333 339.5,401C 334.546,389.732 326.879,379.565 316.5,370.5C 311.56,366.739 306.227,363.573 300.5,361C 297.937,359.921 295.271,359.421 292.5,359.5C 294.117,356.216 296.45,353.549 299.5,351.5 Z"/></g>
<g><path style="opacity:1" fill="#2c7934" d="M 292.5,359.5 C 295.271,359.421 297.937,359.921 300.5,361C 306.227,363.573 311.56,366.739 316.5,370.5C 326.879,379.565 334.546,389.732 339.5,401C 339.167,401.333 338.833,401.667 338.5,402C 340.291,406.01 341.957,410.01 343.5,414C 343.507,415.583 343.174,417.249 342.5,419C 343.128,421.939 343.795,424.772 344.5,427.5C 341.332,433.842 337.665,439.842 333.5,445.5C 332.499,444.211 332.666,442.878 334,441.5C 335.186,433.597 335.686,425.764 335.5,418C 330.091,394.202 315.925,377.035 293,366.5C 292.667,366.833 292.333,367.167 292,367.5C 290.416,366.139 288.582,365.472 286.5,365.5C 288.167,363.167 290.167,361.167 292.5,359.5 Z"/></g>
<g><path style="opacity:1" fill="#2c7934" d="M 248.5,358.5 C 251.167,360.5 253.5,362.833 255.5,365.5C 250.683,366.238 246.85,367.905 244,370.5C 243.667,370.167 243.333,369.833 243,369.5C 238.443,373.051 233.61,376.218 228.5,379C 224.992,382.175 221.825,385.675 219,389.5C 217.041,393.761 214.541,397.595 211.5,401C 211.833,401.333 212.167,401.667 212.5,402C 211.35,404.462 210.017,406.796 208.5,409C 207.553,411.478 207.553,413.812 208.5,416C 207.833,417 207.167,418 206.5,419C 206.658,423.842 206.658,429.008 206.5,434.5C 207.006,437.391 208.006,440.058 209.5,442.5C 209.137,443.183 208.804,443.85 208.5,444.5C 204.346,438.87 200.679,432.87 197.5,426.5C 200.587,393.725 217.587,371.058 248.5,358.5 Z"/></g>
<g><path style="opacity:1" fill="#2e8036" d="M 255.5,365.5 C 258.138,368.474 260.805,371.474 263.5,374.5C 260.946,374.203 258.446,374.203 256,374.5C 255.683,376.301 255.016,376.634 254,375.5C 245.044,379.464 236.877,384.631 229.5,391C 229.833,391.333 230.167,391.667 230.5,392C 226.304,396.711 222.637,401.878 219.5,407.5C 221.022,409.156 220.689,410.323 218.5,411C 218.833,411.333 219.167,411.667 219.5,412C 218.5,414.333 217.5,416.667 216.5,419C 216.607,424.602 216.607,430.269 216.5,436C 222.686,460.203 237.686,475.203 261.5,481C 274.504,484.002 287.004,481.502 299,473.5C 299.333,473.833 299.667,474.167 300,474.5C 322.996,456.53 330.329,434.196 322,407.5C 319.443,401.663 315.943,395.996 311.5,390.5C 302.046,381.928 291.379,376.262 279.5,373.5C 281.862,370.808 284.196,368.141 286.5,365.5C 288.582,365.472 290.416,366.139 292,367.5C 292.333,367.167 292.667,366.833 293,366.5C 315.925,377.035 330.091,394.202 335.5,418C 335.686,425.764 335.186,433.597 334,441.5C 332.666,442.878 332.499,444.211 333.5,445.5C 326.642,457.362 318.975,468.696 310.5,479.5C 305.174,482.111 299.507,484.945 293.5,488C 287.174,489.868 280.674,491.368 274,492.5C 272.089,492.255 270.089,492.255 268,492.5C 267.333,491.833 266.667,491.167 266,490.5C 263.45,490.323 261.117,490.657 259,491.5C 254.412,489.184 249.245,487.351 243.5,486C 239.948,483.548 236.281,481.382 232.5,479.5C 223.726,468.388 215.726,456.721 208.5,444.5C 208.804,443.85 209.137,443.183 209.5,442.5C 208.006,440.058 207.006,437.391 206.5,434.5C 206.658,429.008 206.658,423.842 206.5,419C 207.167,418 207.833,417 208.5,416C 207.553,413.812 207.553,411.478 208.5,409C 210.017,406.796 211.35,404.462 212.5,402C 212.167,401.667 211.833,401.333 211.5,401C 214.541,397.595 217.041,393.761 219,389.5C 221.825,385.675 224.992,382.175 228.5,379C 233.61,376.218 238.443,373.051 243,369.5C 243.333,369.833 243.667,370.167 244,370.5C 246.85,367.905 250.683,366.238 255.5,365.5 Z"/></g>
<g><path style="opacity:1" fill="#308639" d="M 263.5,374.5 C 265.848,376.68 268.348,378.68 271,380.5C 273.987,378.346 276.82,376.013 279.5,373.5C 291.379,376.262 302.046,381.928 311.5,390.5C 315.943,395.996 319.443,401.663 322,407.5C 330.329,434.196 322.996,456.53 300,474.5C 299.667,474.167 299.333,473.833 299,473.5C 287.004,481.502 274.504,484.002 261.5,481C 237.686,475.203 222.686,460.203 216.5,436C 216.607,430.269 216.607,424.602 216.5,419C 217.5,416.667 218.5,414.333 219.5,412C 219.167,411.667 218.833,411.333 218.5,411C 220.689,410.323 221.022,409.156 219.5,407.5C 222.637,401.878 226.304,396.711 230.5,392C 230.167,391.667 229.833,391.333 229.5,391C 236.877,384.631 245.044,379.464 254,375.5C 255.016,376.634 255.683,376.301 256,374.5C 258.446,374.203 260.946,374.203 263.5,374.5 Z"/></g>
<g><path style="opacity:1" fill="#328c3b" d="M 266.5,381.5 C 270.17,381.665 273.837,381.665 277.5,381.5C 278.851,383.114 281.185,384.114 284.5,384.5C 285.086,384.291 285.586,383.957 286,383.5C 288.333,384.833 290.667,386.167 293,387.5C 293.333,387.167 293.667,386.833 294,386.5C 296.692,388.862 299.359,391.196 302,393.5C 302.483,394.448 302.649,395.448 302.5,396.5C 303.552,396.351 304.552,396.517 305.5,397C 307.35,400.362 309.683,403.362 312.5,406C 312.167,406.333 311.833,406.667 311.5,407C 312.96,410.825 314.626,414.659 316.5,418.5C 316.291,419.086 315.957,419.586 315.5,420C 316.596,423.17 317.262,426.17 317.5,429C 316.983,431.077 316.316,433.077 315.5,435C 316.299,436.749 315.632,438.082 313.5,439C 314.167,439.333 314.833,439.667 315.5,440C 313.473,441.396 313.14,443.062 314.5,445C 312.408,445.953 312.075,447.286 313.5,449C 309.812,452.689 306.479,456.689 303.5,461C 298.349,463.843 293.516,467.009 289,470.5C 287.417,470.507 285.751,470.174 284,469.5C 281.35,471.918 278.517,473.251 275.5,473.5C 271.823,472.67 268.323,472.67 265,473.5C 261.605,473.077 258.105,472.077 254.5,470.5C 252.207,469.374 250.04,468.041 248,466.5C 247.667,466.833 247.333,467.167 247,467.5C 243.933,465.04 240.767,462.04 237.5,458.5C 234.108,454.121 230.774,449.787 227.5,445.5C 227.931,444.707 228.265,443.873 228.5,443C 227.158,439.985 225.825,436.985 224.5,434C 226.781,432.518 226.781,430.851 224.5,429C 224.888,427.192 224.888,425.525 224.5,424C 225.056,421.763 226.056,419.763 227.5,418C 226.469,414.705 227.469,412.039 230.5,410C 229.483,408.951 229.316,407.784 230,406.5C 232.584,404.424 234.251,401.757 235,398.5C 238.306,395.439 241.473,392.272 244.5,389C 251.991,385.672 259.325,383.172 266.5,381.5 Z"/></g>
<g><path style="opacity:1" fill="#34923e" d="M 266.5,389.5 C 269.836,390.166 273.003,390.166 276,389.5C 280.858,390.543 285.691,392.376 290.5,395C 294.49,398.611 298.49,402.278 302.5,406C 302.167,406.333 301.833,406.667 301.5,407C 304.419,410.927 306.752,415.26 308.5,420C 307.496,423.041 307.83,426.041 309.5,429C 308.978,429.95 308.311,430.784 307.5,431.5C 308.447,434.023 308.447,436.689 307.5,439.5C 305.11,444.064 302.11,448.231 298.5,452C 298.833,452.333 299.167,452.667 299.5,453C 295.958,455.807 292.292,458.473 288.5,461C 284.426,462.692 280.26,464.192 276,465.5C 272.323,465.49 268.323,465.49 264,465.5C 263.395,463.519 262.395,463.185 261,464.5C 257.373,462.25 253.54,460.416 249.5,459C 248.152,456.487 246.152,454.653 243.5,453.5C 241,449.833 238.5,446.167 236,442.5C 234.139,437.084 232.972,431.751 232.5,426.5C 233.77,424.452 234.103,422.452 233.5,420.5C 233.977,419.522 234.643,418.689 235.5,418C 235.167,417.667 234.833,417.333 234.5,417C 236.494,413.718 238.494,410.384 240.5,407C 240.167,406.667 239.833,406.333 239.5,406C 243.459,402.343 247.459,398.676 251.5,395C 255.265,393.474 259.431,391.974 264,390.5C 265.159,391.566 265.992,391.233 266.5,389.5 Z"/></g>
<g><path style="opacity:1" fill="#369840" d="M 264.5,398.5 C 268.228,398.459 272.228,398.625 276.5,399C 285.004,401.113 291.67,405.779 296.5,413C 296.167,413.333 295.833,413.667 295.5,414C 297.573,417.089 299.24,420.423 300.5,424C 300.255,426.089 300.255,428.089 300.5,430C 298.773,433.847 297.44,437.847 296.5,442C 295.201,443.326 293.868,444.66 292.5,446C 292.833,446.333 293.167,446.667 293.5,447C 287.214,452.226 280.048,455.726 272,457.5C 271.692,456.692 271.192,456.025 270.5,455.5C 265.953,456.585 261.453,455.585 257,452.5C 256.667,452.833 256.333,453.167 256,453.5C 255.667,452.5 255.333,451.5 255,450.5C 254.667,450.833 254.333,451.167 254,451.5C 246.907,445.168 242.741,437.668 241.5,429C 241.63,426.474 242.297,423.807 243.5,421C 243.167,420.667 242.833,420.333 242.5,420C 242.725,417.681 244.058,415.681 246.5,414C 245.366,412.984 245.699,412.317 247.5,412C 247.167,411.667 246.833,411.333 246.5,411C 251.998,406.016 257.998,401.85 264.5,398.5 Z"/></g>
<g><path style="opacity:1" fill="#39a044" d="M 272.5,407.5 C 275.014,408.131 277.681,409.131 280.5,410.5C 287.03,415.805 290.364,422.138 290.5,429.5C 288.914,435.244 285.914,440.077 281.5,444C 278.368,446.015 275.202,447.182 272,447.5C 271.667,446.833 271.333,446.167 271,445.5C 269.602,446.051 268.268,446.384 267,446.5C 262.588,445.328 258.755,443.328 255.5,440.5C 254.654,437.473 253.32,434.64 251.5,432C 251.786,428.62 251.786,425.286 251.5,422C 252.328,421.085 253.328,420.419 254.5,420C 254.043,419.586 253.709,419.086 253.5,418.5C 255.585,416.918 257.085,414.918 258,412.5C 258.333,412.833 258.667,413.167 259,413.5C 261.7,410.46 264.366,409.126 267,409.5C 268.948,408.891 270.782,408.224 272.5,407.5 Z"/></g>
<g><path style="opacity:1" fill="#2b7733" d="M 232.5,479.5 C 236.281,481.382 239.948,483.548 243.5,486C 249.245,487.351 254.412,489.184 259,491.5C 261.117,490.657 263.45,490.323 266,490.5C 266.667,491.167 267.333,491.833 268,492.5C 270.089,492.255 272.089,492.255 274,492.5C 280.674,491.368 287.174,489.868 293.5,488C 299.507,484.945 305.174,482.111 310.5,479.5C 303.559,489.44 295.892,498.773 287.5,507.5C 276.117,509.469 265.117,509.469 254.5,507.5C 246.213,498.932 238.88,489.598 232.5,479.5 Z"/></g>
<g><path style="opacity:1" fill="#286c2f" d="M 254.5,507.5 C 265.117,509.469 276.117,509.469 287.5,507.5C 282.48,514.176 276.98,520.509 271,526.5C 264.548,520.883 259.048,514.549 254.5,507.5 Z"/></g>
</svg>
