<?xml version="1.0" encoding="UTF-8"?>
<!DOCTYPE svg PUBLIC "-//W3C//DTD SVG 1.1//EN" "http://www.w3.org/Graphics/SVG/1.1/DTD/svg11.dtd">
<svg xmlns="http://www.w3.org/2000/svg" version="1.1" width="100%" height="100%" viewBox="0 0 117 193" style="shape-rendering:geometricPrecision; text-rendering:geometricPrecision; image-rendering:optimizeQuality; fill-rule:evenodd; clip-rule:evenodd" xmlns:xlink="http://www.w3.org/1999/xlink">
<g><path style="opacity:0.004" fill="#27552f" d="M 52.5,-0.5 C 52.8333,-0.5 53.1667,-0.5 53.5,-0.5C 53.3147,0.170143 52.9813,0.170143 52.5,-0.5 Z"/></g>
<g><path style="opacity:0.976" fill="#b8b9ae" d="M 44.5,22.5 C 45.6048,16.9589 48.2714,12.2923 52.5,8.5C 54.0174,8.48944 55.1841,7.82277 56,6.5C 57.3204,6.799 58.8204,6.96566 60.5,7C 62.1869,8.91304 62.6869,11.0797 62,13.5C 57.9634,16.6564 54.4634,20.4898 51.5,25C 49.1902,25.4966 46.8568,25.6633 44.5,25.5C 44.5,24.5 44.5,23.5 44.5,22.5 Z"/></g>
<g><path style="opacity:0.967" fill="#828676" d="M 63.5,8.5 C 66.2768,10.9505 68.2768,13.9505 69.5,17.5C 69.2924,19.9201 69.6258,22.2534 70.5,24.5C 69.6667,24.8333 68.8333,25.1667 68,25.5C 65.2664,24.2042 62.433,23.7042 59.5,24C 54.5998,28.8671 48.7665,32.0337 42,33.5C 41.5172,32.552 41.3505,31.552 41.5,30.5C 41.2322,28.901 41.5655,27.5676 42.5,26.5C 42.3691,27.3764 42.7025,28.0431 43.5,28.5C 50.0716,28.116 55.4049,25.2827 59.5,20C 62.5685,20.0481 64.9018,18.8814 66.5,16.5C 65.5999,13.1616 64.5999,10.4949 63.5,8.5 Z"/></g>
<g><path style="opacity:0.984" fill="#9c9e90" d="M 63.5,8.5 C 64.5999,10.4949 65.5999,13.1616 66.5,16.5C 64.9018,18.8814 62.5685,20.0481 59.5,20C 55.4049,25.2827 50.0716,28.116 43.5,28.5C 42.7025,28.0431 42.3691,27.3764 42.5,26.5C 42.6596,24.847 43.3263,23.5137 44.5,22.5C 44.5,23.5 44.5,24.5 44.5,25.5C 46.8568,25.6633 49.1902,25.4966 51.5,25C 54.4634,20.4898 57.9634,16.6564 62,13.5C 62.6869,11.0797 62.1869,8.91304 60.5,7C 58.8204,6.96566 57.3204,6.799 56,6.5C 55.1841,7.82277 54.0174,8.48944 52.5,8.5C 53.8421,5.83416 55.6755,3.50082 58,1.5C 60.4536,3.44122 62.287,5.77455 63.5,8.5 Z"/></g>
<g><path style="opacity:0.645" fill="#646957" d="M 69.5,17.5 C 72.7097,21.4515 74.3764,26.1182 74.5,31.5C 73.7784,31.9175 73.2784,32.5842 73,33.5C 71.7308,32.0953 71.2308,30.4286 71.5,28.5C 67.9892,26.9151 64.3225,26.4151 60.5,27C 54.6207,32.5223 47.7873,36.0223 40,37.5C 39.5357,36.9056 39.369,36.2389 39.5,35.5C 39.4021,33.4471 40.0687,31.7804 41.5,30.5C 41.3505,31.552 41.5172,32.552 42,33.5C 48.7665,32.0337 54.5998,28.8671 59.5,24C 62.433,23.7042 65.2664,24.2042 68,25.5C 68.8333,25.1667 69.6667,24.8333 70.5,24.5C 69.6258,22.2534 69.2924,19.9201 69.5,17.5 Z"/></g>
<g><path style="opacity:1" fill="#242c15" d="M 63.5,31.5 C 63.5,31.8333 63.5,32.1667 63.5,32.5C 63.8333,33.8333 64.1667,35.1667 64.5,36.5C 63.2264,37.1894 63.2264,38.0228 64.5,39C 58.9877,40.3384 54.1544,42.8384 50,46.5C 49.79,44.9419 49.29,43.6085 48.5,42.5C 48.9528,41.5416 49.6195,40.7083 50.5,40C 50.2716,39.6012 49.9382,39.4346 49.5,39.5C 50.3065,38.2719 51.3065,37.2719 52.5,36.5C 56.0203,34.5742 59.687,32.9076 63.5,31.5 Z"/></g>
<g><path style="opacity:0.915" fill="#38422b" d="M 52.5,36.5 C 51.3065,37.2719 50.3065,38.2719 49.5,39.5C 44.6023,41.9571 42.269,45.9571 42.5,51.5C 43.038,53.1172 43.3713,54.7839 43.5,56.5C 42.5386,58.2646 42.2053,60.2646 42.5,62.5C 40.2071,60.5313 38.2071,58.198 36.5,55.5C 35.8165,55.8627 35.1499,56.1961 34.5,56.5C 35.0735,50.5451 36.4068,44.8785 38.5,39.5C 38.3691,40.3764 38.7025,41.0431 39.5,41.5C 43.8121,39.6209 48.1454,37.9542 52.5,36.5 Z"/></g>
<g><path style="opacity:1" fill="#1f290c" d="M 64.5,36.5 C 66.9002,44.2943 63.9002,48.461 55.5,49C 56.1667,49.3333 56.8333,49.6667 57.5,50C 54.0927,50.2661 50.7594,49.7661 47.5,48.5C 46.1688,46.1765 46.5021,44.1765 48.5,42.5C 49.29,43.6085 49.79,44.9419 50,46.5C 54.1544,42.8384 58.9877,40.3384 64.5,39C 63.2264,38.0228 63.2264,37.1894 64.5,36.5 Z"/></g>
<g><path style="opacity:0.779" fill="#4f553e" d="M 74.5,31.5 C 75.2323,32.8083 76.0656,34.1416 77,35.5C 78.4538,41.7573 79.9538,47.924 81.5,54C 80.2444,60.3433 78.5778,66.51 76.5,72.5C 76.0213,66.4947 75.688,60.4947 75.5,54.5C 75.189,46.0482 72.5223,38.5482 67.5,32C 66.0544,30.702 64.7211,30.5354 63.5,31.5C 59.687,32.9076 56.0203,34.5742 52.5,36.5C 48.1454,37.9542 43.8121,39.6209 39.5,41.5C 38.7025,41.0431 38.3691,40.3764 38.5,39.5C 38.2322,37.901 38.5655,36.5676 39.5,35.5C 39.369,36.2389 39.5357,36.9056 40,37.5C 47.7873,36.0223 54.6207,32.5223 60.5,27C 64.3225,26.4151 67.9892,26.9151 71.5,28.5C 71.2308,30.4286 71.7308,32.0953 73,33.5C 73.2784,32.5842 73.7784,31.9175 74.5,31.5 Z"/></g>
<g><path style="opacity:1" fill="#2a3413" d="M 63.5,32.5 C 66.2974,32.9666 67.6308,34.6333 67.5,37.5C 68.816,47.2455 64.6493,52.9121 55,54.5C 51.2609,53.6305 47.9276,51.9638 45,49.5C 44.5831,50.756 43.7498,51.4226 42.5,51.5C 42.269,45.9571 44.6023,41.9571 49.5,39.5C 49.9382,39.4346 50.2716,39.6012 50.5,40C 49.6195,40.7083 48.9528,41.5416 48.5,42.5C 46.5021,44.1765 46.1688,46.1765 47.5,48.5C 50.7594,49.7661 54.0927,50.2661 57.5,50C 56.8333,49.6667 56.1667,49.3333 55.5,49C 63.9002,48.461 66.9002,44.2943 64.5,36.5C 64.1667,35.1667 63.8333,33.8333 63.5,32.5 Z"/></g>
<g><path style="opacity:1" fill="#323d16" d="M 67.5,37.5 C 70.862,44.0076 69.862,49.841 64.5,55C 59.8425,57.2433 55.0092,59.0766 50,60.5C 46.9381,60.602 44.7714,59.2687 43.5,56.5C 43.3713,54.7839 43.038,53.1172 42.5,51.5C 43.7498,51.4226 44.5831,50.756 45,49.5C 47.9276,51.9638 51.2609,53.6305 55,54.5C 64.6493,52.9121 68.816,47.2455 67.5,37.5 Z"/></g>
<g><path style="opacity:0.999" fill="#3f4a23" d="M 75.5,54.5 C 74.8999,53.0998 73.8999,52.0998 72.5,51.5C 72.1077,49.8211 71.6077,48.1545 71,46.5C 70.5717,50.5285 68.7384,53.6951 65.5,56C 61.7104,58.3772 57.7104,60.3772 53.5,62C 50.5706,62.7772 47.7372,62.6105 45,61.5C 44.7216,62.4158 44.2216,63.0825 43.5,63.5C 43.5,62.8333 43.1667,62.5 42.5,62.5C 42.2053,60.2646 42.5386,58.2646 43.5,56.5C 44.7714,59.2687 46.9381,60.602 50,60.5C 55.0092,59.0766 59.8425,57.2433 64.5,55C 69.862,49.841 70.862,44.0076 67.5,37.5C 67.6308,34.6333 66.2974,32.9666 63.5,32.5C 63.5,32.1667 63.5,31.8333 63.5,31.5C 64.7211,30.5354 66.0544,30.702 67.5,32C 72.5223,38.5482 75.189,46.0482 75.5,54.5 Z"/></g>
<g><path style="opacity:1" fill="#465120" d="M 72.5,51.5 C 72.5,52.1667 72.5,52.8333 72.5,53.5C 69.2417,58.7516 64.5751,62.085 58.5,63.5C 54.9705,67.5352 50.6372,68.5352 45.5,66.5C 44.5987,65.7095 43.9321,64.7095 43.5,63.5C 44.2216,63.0825 44.7216,62.4158 45,61.5C 47.7372,62.6105 50.5706,62.7772 53.5,62C 57.7104,60.3772 61.7104,58.3772 65.5,56C 68.7384,53.6951 70.5717,50.5285 71,46.5C 71.6077,48.1545 72.1077,49.8211 72.5,51.5 Z"/></g>
<g><path style="opacity:0.802" fill="#59603d" d="M 72.5,51.5 C 73.8999,52.0998 74.8999,53.0998 75.5,54.5C 75.688,60.4947 76.0213,66.4947 76.5,72.5C 75.4463,77.6889 73.4463,82.3556 70.5,86.5C 69.9569,86.44 69.6236,86.1067 69.5,85.5C 70.9046,80.1834 72.5713,75.0167 74.5,70C 73.7476,69.3292 73.4142,68.4959 73.5,67.5C 73.5,66.1667 73.5,64.8333 73.5,63.5C 73.9931,60.2279 73.6598,56.8946 72.5,53.5C 72.5,52.8333 72.5,52.1667 72.5,51.5 Z"/></g>
<g><path style="opacity:0.999" fill="#5f6c2f" d="M 73.5,63.5 C 73.5,64.8333 73.5,66.1667 73.5,67.5C 72.8333,68.1667 72.1667,68.8333 71.5,69.5C 69.9705,68.9332 68.4705,68.2666 67,67.5C 60.9852,71.912 54.8186,75.912 48.5,79.5C 46.9925,77.8185 45.9925,75.8185 45.5,73.5C 45.3284,72.5084 45.6618,71.8417 46.5,71.5C 49.5184,71.6646 52.5184,71.498 55.5,71C 60.9686,67.6966 66.3019,64.1966 71.5,60.5C 72.5063,60.9377 72.5063,61.6043 71.5,62.5C 71.9569,63.2975 72.6236,63.6309 73.5,63.5 Z"/></g>
<g><path style="opacity:1" fill="#505c27" d="M 72.5,53.5 C 73.6598,56.8946 73.9931,60.2279 73.5,63.5C 72.6236,63.6309 71.9569,63.2975 71.5,62.5C 72.5063,61.6043 72.5063,60.9377 71.5,60.5C 66.3019,64.1966 60.9686,67.6966 55.5,71C 52.5184,71.498 49.5184,71.6646 46.5,71.5C 45.6993,69.9582 45.366,68.2915 45.5,66.5C 50.6372,68.5352 54.9705,67.5352 58.5,63.5C 64.5751,62.085 69.2417,58.7516 72.5,53.5 Z"/></g>
<g><path style="opacity:0.761" fill="#555f43" d="M 42.5,62.5 C 43.1667,62.5 43.5,62.8333 43.5,63.5C 43.9321,64.7095 44.5987,65.7095 45.5,66.5C 45.366,68.2915 45.6993,69.9582 46.5,71.5C 45.6618,71.8417 45.3284,72.5084 45.5,73.5C 44.7417,75.9815 44.7417,78.6481 45.5,81.5C 44.3556,79.8998 43.1889,78.2331 42,76.5C 41.6174,77.056 41.1174,77.3893 40.5,77.5C 38.1208,70.6857 36.1208,63.6857 34.5,56.5C 35.1499,56.1961 35.8165,55.8627 36.5,55.5C 38.2071,58.198 40.2071,60.5313 42.5,62.5 Z"/></g>
<g><path style="opacity:1" fill="#6c7936" d="M 71.5,69.5 C 71.1015,74.4119 70.1015,79.0785 68.5,83.5C 68.2739,80.7508 68.6072,78.0841 69.5,75.5C 68.273,74.4096 67.4396,73.0762 67,71.5C 62.3631,75.2364 57.1964,78.0697 51.5,80C 50.6198,81.3561 50.2865,82.8561 50.5,84.5C 49.4625,83.0697 48.7959,81.403 48.5,79.5C 54.8186,75.912 60.9852,71.912 67,67.5C 68.4705,68.2666 69.9705,68.9332 71.5,69.5 Z"/></g>
<g><path style="opacity:0.999" fill="#86923f" d="M 68.5,83.5 C 67.3834,87.4712 65.55,91.1378 63,94.5C 59.045,97.4118 55.7116,96.7452 53,92.5C 52.4577,89.7084 51.6244,87.0417 50.5,84.5C 50.2865,82.8561 50.6198,81.3561 51.5,80C 57.1964,78.0697 62.3631,75.2364 67,71.5C 67.4396,73.0762 68.273,74.4096 69.5,75.5C 68.6072,78.0841 68.2739,80.7508 68.5,83.5 Z"/></g>
<g><path style="opacity:0.646" fill="#616d55" d="M 98.5,122.5 C 98.3893,121.883 98.056,121.383 97.5,121C 98.8941,120.044 99.5607,118.711 99.5,117C 98.8487,114.637 98.8487,112.137 99.5,109.5C 104.447,99.3275 101.781,92.3275 91.5,88.5C 88.5085,87.6289 85.5085,86.6289 82.5,85.5C 82.5,84.5 82.5,83.5 82.5,82.5C 81.922,80.3091 82.922,78.6424 85.5,77.5C 93.0383,80.8521 100.205,84.8521 107,89.5C 106.979,96.2683 105.979,102.935 104,109.5C 102.592,113.057 101.592,116.724 101,120.5C 100.292,121.381 99.4584,122.047 98.5,122.5 Z"/></g>
<g><path style="opacity:0.875" fill="#57674d" d="M 82.5,82.5 C 82.5,83.5 82.5,84.5 82.5,85.5C 85.5085,86.6289 88.5085,87.6289 91.5,88.5C 84.8281,87.8393 81.1614,90.8393 80.5,97.5C 79.8902,98.391 79.5569,99.391 79.5,100.5C 78.4274,101.658 77.2607,101.658 76,100.5C 74.5686,102.438 72.7353,103.771 70.5,104.5C 75.053,97.3884 79.053,90.0551 82.5,82.5 Z"/></g>
<g><path style="opacity:0.78" fill="#5d6b54" d="M 38.5,96.5 C 37.8826,96.6107 37.3826,96.944 37,97.5C 36.3161,95.641 35.3161,93.9743 34,92.5C 33.9565,95.4752 34.1231,98.4752 34.5,101.5C 34.1667,101.5 33.8333,101.5 33.5,101.5C 33.5,100.833 33.1667,100.5 32.5,100.5C 31.9834,96.7783 31.15,93.1117 30,89.5C 29.3109,88.6433 28.4776,87.9767 27.5,87.5C 25.5914,88.3482 23.5914,88.6816 21.5,88.5C 18.4857,90.1208 15.6524,92.1208 13,94.5C 12.3333,98.8333 12.3333,103.167 13,107.5C 14.5941,109.526 16.0941,111.526 17.5,113.5C 18.2027,118.568 19.2027,123.568 20.5,128.5C 20.5674,129.959 20.2341,131.292 19.5,132.5C 14.1673,123.007 10.5007,112.841 8.5,102C 9.16667,101 9.83333,100 10.5,99C 9.37598,98.7508 8.37598,98.2508 7.5,97.5C 8.88737,94.5946 9.7207,91.5946 10,88.5C 15.3862,85.2208 20.8862,82.0541 26.5,79C 28.1667,78.3333 29.8333,78.3333 31.5,79C 33.4428,85.0431 35.7761,90.8764 38.5,96.5 Z"/></g>
<g><path style="opacity:0.889" fill="#4a6041" d="M 21.5,88.5 C 18.0515,91.1282 16.0515,94.6282 15.5,99C 17.065,103.862 18.7317,108.695 20.5,113.5C 19.5,113.5 18.5,113.5 17.5,113.5C 16.0941,111.526 14.5941,109.526 13,107.5C 12.3333,103.167 12.3333,98.8333 13,94.5C 15.6524,92.1208 18.4857,90.1208 21.5,88.5 Z"/></g>
<g><path style="opacity:0.965" fill="#3a5631" d="M 32.5,100.5 C 32.6716,101.492 32.3382,102.158 31.5,102.5C 31.6495,101.448 31.4828,100.448 31,99.5C 30.8019,101.382 30.3019,103.048 29.5,104.5C 30.3633,98.9056 28.5299,94.5723 24,91.5C 20.3955,92.9395 18.5622,95.6061 18.5,99.5C 18.7207,103.926 20.0541,107.926 22.5,111.5C 23.1495,113.435 23.4828,115.435 23.5,117.5C 21.7376,116.738 20.7376,115.404 20.5,113.5C 18.7317,108.695 17.065,103.862 15.5,99C 16.0515,94.6282 18.0515,91.1282 21.5,88.5C 23.5914,88.6816 25.5914,88.3482 27.5,87.5C 28.4776,87.9767 29.3109,88.6433 30,89.5C 31.15,93.1117 31.9834,96.7783 32.5,100.5 Z"/></g>
<g><path style="opacity:1" fill="#1d3c19" d="M 29.5,104.5 C 28.4296,107.625 26.5962,110.291 24,112.5C 23.6174,111.944 23.1174,111.611 22.5,111.5C 20.0541,107.926 18.7207,103.926 18.5,99.5C 18.5622,95.6061 20.3955,92.9395 24,91.5C 28.5299,94.5723 30.3633,98.9056 29.5,104.5 Z"/></g>
<g><path style="opacity:0.592" fill="#868874" d="M 45.5,81.5 C 47.4835,87.6048 50.1502,93.4381 53.5,99C 57.676,99.6805 61.676,99.1805 65.5,97.5C 63.6596,102.512 60.4929,106.512 56,109.5C 49.6782,99.359 44.5116,88.6923 40.5,77.5C 41.1174,77.3893 41.6174,77.056 42,76.5C 43.1889,78.2331 44.3556,79.8998 45.5,81.5 Z"/></g>
<g><path style="opacity:0.827" fill="#828758" d="M 73.5,67.5 C 73.4142,68.4959 73.7476,69.3292 74.5,70C 72.5713,75.0167 70.9046,80.1834 69.5,85.5C 69.6236,86.1067 69.9569,86.44 70.5,86.5C 69.4,90.4847 67.7333,94.1514 65.5,97.5C 61.676,99.1805 57.676,99.6805 53.5,99C 50.1502,93.4381 47.4835,87.6048 45.5,81.5C 44.7417,78.6481 44.7417,75.9815 45.5,73.5C 45.9925,75.8185 46.9925,77.8185 48.5,79.5C 48.7959,81.403 49.4625,83.0697 50.5,84.5C 51.6244,87.0417 52.4577,89.7084 53,92.5C 55.7116,96.7452 59.045,97.4118 63,94.5C 65.55,91.1378 67.3834,87.4712 68.5,83.5C 70.1015,79.0785 71.1015,74.4119 71.5,69.5C 72.1667,68.8333 72.8333,68.1667 73.5,67.5 Z"/></g>
<g><path style="opacity:0.859" fill="#4b6943" d="M 91.5,88.5 C 101.781,92.3275 104.447,99.3275 99.5,109.5C 99.1667,109.5 98.8333,109.5 98.5,109.5C 98.6716,108.508 98.3382,107.842 97.5,107.5C 101.379,96.602 97.712,90.9353 86.5,90.5C 86.5955,93.6916 85.9288,96.6916 84.5,99.5C 82.8007,99.4729 81.4674,98.8062 80.5,97.5C 81.1614,90.8393 84.8281,87.8393 91.5,88.5 Z"/></g>
<g><path style="opacity:0.773" fill="#788f6c" d="M 38.5,96.5 C 39.2727,99.0453 40.7727,101.045 43,102.5C 43.3333,103.833 43.6667,105.167 44,106.5C 45.5185,107.163 46.6851,108.163 47.5,109.5C 46.6851,110.429 45.8518,111.429 45,112.5C 44.6174,111.944 44.1174,111.611 43.5,111.5C 40.5792,108.238 37.5792,104.905 34.5,101.5C 34.1231,98.4752 33.9565,95.4752 34,92.5C 35.3161,93.9743 36.3161,95.641 37,97.5C 37.3826,96.944 37.8826,96.6107 38.5,96.5 Z"/></g>
<g><path style="opacity:0.996" fill="#29592d" d="M 97.5,107.5 C 95.4208,109.873 92.7541,111.206 89.5,111.5C 86.9801,107.939 85.3135,103.939 84.5,99.5C 85.9288,96.6916 86.5955,93.6916 86.5,90.5C 97.712,90.9353 101.379,96.602 97.5,107.5 Z"/></g>
<g><path style="opacity:1" fill="#4a784b" d="M 80.5,97.5 C 81.4674,98.8062 82.8007,99.4729 84.5,99.5C 85.3135,103.939 86.9801,107.939 89.5,111.5C 92.7541,111.206 95.4208,109.873 97.5,107.5C 98.3382,107.842 98.6716,108.508 98.5,109.5C 96.3509,114.713 92.6843,115.88 87.5,113C 86.8366,111.482 85.8366,110.315 84.5,109.5C 81.9093,107.107 80.2426,104.107 79.5,100.5C 79.5569,99.391 79.8902,98.391 80.5,97.5 Z"/></g>
<g><path style="opacity:1" fill="#7f9977" d="M 79.5,100.5 C 80.2426,104.107 81.9093,107.107 84.5,109.5C 84.5,112.167 84.5,114.833 84.5,117.5C 84.5,118.167 84.1667,118.5 83.5,118.5C 81.4868,113.972 78.8202,109.806 75.5,106C 73.6332,105.289 72.1332,105.789 71,107.5C 70.6174,106.944 70.1174,106.611 69.5,106.5C 69.8333,105.833 70.1667,105.167 70.5,104.5C 72.7353,103.771 74.5686,102.438 76,100.5C 77.2607,101.658 78.4274,101.658 79.5,100.5 Z"/></g>
<g><path style="opacity:1" fill="#1e5629" d="M 31.5,102.5 C 31.3796,104.199 31.0463,105.865 30.5,107.5C 31.8152,110.13 33.1485,112.797 34.5,115.5C 32.9589,118.943 30.2923,120.943 26.5,121.5C 25.1429,120.41 24.1429,119.076 23.5,117.5C 23.4828,115.435 23.1495,113.435 22.5,111.5C 23.1174,111.611 23.6174,111.944 24,112.5C 26.5962,110.291 28.4296,107.625 29.5,104.5C 30.3019,103.048 30.8019,101.382 31,99.5C 31.4828,100.448 31.6495,101.448 31.5,102.5 Z"/></g>
<g><path style="opacity:1" fill="#266532" d="M 32.5,100.5 C 33.1667,100.5 33.5,100.833 33.5,101.5C 33.3379,103.527 33.5045,105.527 34,107.5C 36.0113,109.344 37.8446,111.344 39.5,113.5C 38.5963,113.535 37.9296,114.035 37.5,115C 38.2085,122.129 34.8752,125.629 27.5,125.5C 26.5655,124.432 26.2322,123.099 26.5,121.5C 30.2923,120.943 32.9589,118.943 34.5,115.5C 33.1485,112.797 31.8152,110.13 30.5,107.5C 31.0463,105.865 31.3796,104.199 31.5,102.5C 32.3382,102.158 32.6716,101.492 32.5,100.5 Z"/></g>
<g><path style="opacity:1" fill="#a4bc9c" d="M 83.5,118.5 C 83.7847,121.829 83.1181,124.829 81.5,127.5C 78.6634,129.907 75.4967,131.574 72,132.5C 68.7928,132.259 65.6262,131.759 62.5,131C 61.0577,130.623 60.0577,129.79 59.5,128.5C 58.4937,127.604 58.4937,126.938 59.5,126.5C 63.3821,126.849 67.2155,127.515 71,128.5C 78.1591,128.616 80.8258,125.282 79,118.5C 77.8827,110.161 73.716,107.828 66.5,111.5C 67.075,109.589 68.075,107.922 69.5,106.5C 70.1174,106.611 70.6174,106.944 71,107.5C 72.1332,105.789 73.6332,105.289 75.5,106C 78.8202,109.806 81.4868,113.972 83.5,118.5 Z"/></g>
<g><path style="opacity:0.986" fill="#658f5e" d="M 84.5,109.5 C 85.8366,110.315 86.8366,111.482 87.5,113C 92.6843,115.88 96.3509,114.713 98.5,109.5C 98.8333,109.5 99.1667,109.5 99.5,109.5C 98.8487,112.137 98.8487,114.637 99.5,117C 99.5607,118.711 98.8941,120.044 97.5,121C 98.056,121.383 98.3893,121.883 98.5,122.5C 98.47,125.852 97.1367,128.518 94.5,130.5C 94.573,128.973 93.9063,127.973 92.5,127.5C 92.8212,125.952 93.8212,125.285 95.5,125.5C 95.719,124.325 95.3857,123.325 94.5,122.5C 92.2534,123.374 89.9201,123.708 87.5,123.5C 87.539,120.911 86.539,118.911 84.5,117.5C 84.5,114.833 84.5,112.167 84.5,109.5 Z"/></g>
<g><path style="opacity:0.989" fill="#dce3d8" d="M 60.5,118.5 C 60.5,117.833 60.8333,117.5 61.5,117.5C 62.1174,117.611 62.6174,117.944 63,118.5C 67.6518,111.549 71.3184,111.882 74,119.5C 74.9997,123.337 73.4997,125.337 69.5,125.5C 67.5191,125.563 65.8524,124.896 64.5,123.5C 63.914,123.709 63.414,124.043 63,124.5C 61.0938,122.592 60.2605,120.592 60.5,118.5 Z"/></g>
<g><path style="opacity:1" fill="#23753b" d="M 39.5,113.5 C 42.3312,116.088 43.6645,119.421 43.5,123.5C 40.8901,126.001 38.7234,129.001 37,132.5C 34.7908,132.989 32.9575,133.989 31.5,135.5C 30.8333,135.167 30.1667,134.833 29.5,134.5C 28.4222,131.598 27.7556,128.598 27.5,125.5C 34.8752,125.629 38.2085,122.129 37.5,115C 37.9296,114.035 38.5963,113.535 39.5,113.5 Z"/></g>
<g><path style="opacity:0.91" fill="#8daa83" d="M 47.5,109.5 C 50.4615,112.668 53.4615,116.001 56.5,119.5C 57.2625,120.268 58.2625,120.768 59.5,121C 58.2475,122.828 58.2475,124.661 59.5,126.5C 58.4937,126.938 58.4937,127.604 59.5,128.5C 56.9556,128.896 54.7889,128.229 53,126.5C 52.5357,127.094 52.369,127.761 52.5,128.5C 50.8712,127.375 49.3712,126.041 48,124.5C 45.6003,120.467 44.1003,116.134 43.5,111.5C 44.1174,111.611 44.6174,111.944 45,112.5C 45.8518,111.429 46.6851,110.429 47.5,109.5 Z"/></g>
<g><path style="opacity:0.969" fill="#4c794e" d="M 17.5,113.5 C 18.5,113.5 19.5,113.5 20.5,113.5C 20.7376,115.404 21.7376,116.738 23.5,117.5C 24.1429,119.076 25.1429,120.41 26.5,121.5C 26.2322,123.099 26.5655,124.432 27.5,125.5C 27.7556,128.598 28.4222,131.598 29.5,134.5C 29.4045,137.692 30.0712,140.692 31.5,143.5C 27.4865,138.739 23.8198,133.739 20.5,128.5C 19.2027,123.568 18.2027,118.568 17.5,113.5 Z"/></g>
<g><path style="opacity:1" fill="#c6d3bf" d="M 59.5,126.5 C 58.2475,124.661 58.2475,122.828 59.5,121C 58.2625,120.768 57.2625,120.268 56.5,119.5C 57.8333,119.167 59.1667,118.833 60.5,118.5C 60.2605,120.592 61.0938,122.592 63,124.5C 63.414,124.043 63.914,123.709 64.5,123.5C 65.8524,124.896 67.5191,125.563 69.5,125.5C 73.4997,125.337 74.9997,123.337 74,119.5C 71.3184,111.882 67.6518,111.549 63,118.5C 62.6174,117.944 62.1174,117.611 61.5,117.5C 62.4194,114.911 64.086,112.911 66.5,111.5C 73.716,107.828 77.8827,110.161 79,118.5C 80.8258,125.282 78.1591,128.616 71,128.5C 67.2155,127.515 63.3821,126.849 59.5,126.5 Z"/></g>
<g><path style="opacity:0.927" fill="#81ac77" d="M 84.5,117.5 C 86.539,118.911 87.539,120.911 87.5,123.5C 89.9201,123.708 92.2534,123.374 94.5,122.5C 95.3857,123.325 95.719,124.325 95.5,125.5C 93.8212,125.285 92.8212,125.952 92.5,127.5C 88.6956,128.323 85.3623,129.99 82.5,132.5C 83.8547,129.203 83.3547,128.87 81,131.5C 80.805,130.181 80.9717,128.847 81.5,127.5C 83.1181,124.829 83.7847,121.829 83.5,118.5C 84.1667,118.5 84.5,118.167 84.5,117.5 Z"/></g>
<g><path style="opacity:1" fill="#268541" d="M 43.5,123.5 C 44.1667,123.5 44.5,123.833 44.5,124.5C 44.6053,128.687 43.772,132.687 42,136.5C 41.1667,138.667 39.6667,140.167 37.5,141C 38.2524,141.671 38.5858,142.504 38.5,143.5C 37.6618,143.842 37.3284,144.508 37.5,145.5C 35.1373,142.451 33.1373,139.118 31.5,135.5C 32.9575,133.989 34.7908,132.989 37,132.5C 38.7234,129.001 40.8901,126.001 43.5,123.5 Z"/></g>
<g><path style="opacity:1" fill="#2e8f44" d="M 44.5,124.5 C 46.8062,127.473 49.4728,130.14 52.5,132.5C 52.5,133.167 52.5,133.833 52.5,134.5C 51.1667,134.5 49.8333,134.5 48.5,134.5C 47.2368,139.032 45.4035,143.365 43,147.5C 42.2588,146.359 41.4255,146.359 40.5,147.5C 39.2949,146.423 38.6282,145.09 38.5,143.5C 38.5858,142.504 38.2524,141.671 37.5,141C 39.6667,140.167 41.1667,138.667 42,136.5C 43.772,132.687 44.6053,128.687 44.5,124.5 Z"/></g>
<g><path style="opacity:1" fill="#569458" d="M 33.5,101.5 C 33.8333,101.5 34.1667,101.5 34.5,101.5C 37.5792,104.905 40.5792,108.238 43.5,111.5C 44.1003,116.134 45.6003,120.467 48,124.5C 49.3712,126.041 50.8712,127.375 52.5,128.5C 53.075,130.411 54.075,132.078 55.5,133.5C 54.391,133.443 53.391,133.11 52.5,132.5C 49.4728,130.14 46.8062,127.473 44.5,124.5C 44.5,123.833 44.1667,123.5 43.5,123.5C 43.6645,119.421 42.3312,116.088 39.5,113.5C 37.8446,111.344 36.0113,109.344 34,107.5C 33.5045,105.527 33.3379,103.527 33.5,101.5 Z"/></g>
<g><path style="opacity:1" fill="#95c18c" d="M 59.5,128.5 C 60.0577,129.79 61.0577,130.623 62.5,131C 65.6262,131.759 68.7928,132.259 72,132.5C 75.4967,131.574 78.6634,129.907 81.5,127.5C 80.9717,128.847 80.805,130.181 81,131.5C 83.3547,128.87 83.8547,129.203 82.5,132.5C 71.4339,138.747 61.4339,137.413 52.5,128.5C 52.369,127.761 52.5357,127.094 53,126.5C 54.7889,128.229 56.9556,128.896 59.5,128.5 Z"/></g>
<g><path style="opacity:0.99" fill="#80b773" d="M 92.5,127.5 C 93.9063,127.973 94.573,128.973 94.5,130.5C 93.9488,133.056 92.9488,135.389 91.5,137.5C 90.2502,137.423 89.4169,136.756 89,135.5C 87.147,137.903 85.3137,140.236 83.5,142.5C 83.7135,140.856 83.3802,139.356 82.5,138C 76.5206,138.33 70.5206,138.33 64.5,138C 61.2764,136.641 58.2764,135.141 55.5,133.5C 54.075,132.078 53.075,130.411 52.5,128.5C 61.4339,137.413 71.4339,138.747 82.5,132.5C 85.3623,129.99 88.6956,128.323 92.5,127.5 Z"/></g>
<g><path style="opacity:0.667" fill="#87997d" d="M 20.5,128.5 C 23.8198,133.739 27.4865,138.739 31.5,143.5C 34.0089,149.192 37.0089,154.526 40.5,159.5C 40.5,160.167 40.5,160.833 40.5,161.5C 40.9361,163.746 41.6028,165.913 42.5,168C 41.944,168.383 41.6107,168.883 41.5,169.5C 38.2433,165.065 34.7433,160.732 31,156.5C 28.5201,149.688 24.6868,143.854 19.5,139C 20.768,136.837 20.768,134.67 19.5,132.5C 20.2341,131.292 20.5674,129.959 20.5,128.5 Z"/></g>
<g><path style="opacity:1" fill="#6eb663" d="M 52.5,132.5 C 53.391,133.11 54.391,133.443 55.5,133.5C 58.2764,135.141 61.2764,136.641 64.5,138C 70.5206,138.33 76.5206,138.33 82.5,138C 83.3802,139.356 83.7135,140.856 83.5,142.5C 83.4754,145.179 82.142,146.512 79.5,146.5C 79.5,144.833 79.5,143.167 79.5,141.5C 74.1053,141.733 68.772,141.4 63.5,140.5C 61.8333,140.5 60.1667,140.5 58.5,140.5C 57.8333,139.167 56.8333,138.167 55.5,137.5C 54.8333,136.167 53.8333,135.167 52.5,134.5C 52.5,133.833 52.5,133.167 52.5,132.5 Z"/></g>
<g><path style="opacity:1" fill="#3fa649" d="M 55.5,137.5 C 56.8333,138.167 57.8333,139.167 58.5,140.5C 57.6618,140.842 57.3284,141.508 57.5,142.5C 55.6337,145.1 54.6337,148.1 54.5,151.5C 56.2375,157.298 58.2375,162.965 60.5,168.5C 60.5858,169.496 60.2524,170.329 59.5,171C 57.8034,171.384 56.1368,171.218 54.5,170.5C 52.7784,169 51.1117,167.333 49.5,165.5C 48.758,163.02 47.758,160.687 46.5,158.5C 47.1182,156.577 46.7849,154.577 45.5,152.5C 48.0071,148.487 49.8404,144.153 51,139.5C 51.4186,140.672 52.0853,141.672 53,142.5C 53.7848,140.751 54.6182,139.084 55.5,137.5 Z"/></g>
<g><path style="opacity:1" fill="#43ac47" d="M 57.5,142.5 C 59.0269,142.427 60.0269,143.094 60.5,144.5C 59.3509,144.791 58.6842,145.624 58.5,147C 59.2792,152.387 60.7792,157.554 63,162.5C 63.8159,161.177 64.9826,160.511 66.5,160.5C 66.5,161.167 66.5,161.833 66.5,162.5C 64.8606,164.806 62.8606,166.806 60.5,168.5C 58.2375,162.965 56.2375,157.298 54.5,151.5C 54.6337,148.1 55.6337,145.1 57.5,142.5 Z"/></g>
<g><path style="opacity:0.999" fill="#58b450" d="M 58.5,140.5 C 60.1667,140.5 61.8333,140.5 63.5,140.5C 63.6107,141.117 63.944,141.617 64.5,142C 68.5,142.333 72.5,142.667 76.5,143C 77.0814,143.893 77.4148,144.893 77.5,146C 75.364,149.772 73.364,153.606 71.5,157.5C 70.0459,159.437 68.3793,161.103 66.5,162.5C 66.5,161.833 66.5,161.167 66.5,160.5C 68.5415,157.088 70.2082,153.421 71.5,149.5C 71.1822,148.353 70.5156,147.519 69.5,147C 66.2578,146.594 63.2578,145.761 60.5,144.5C 60.0269,143.094 59.0269,142.427 57.5,142.5C 57.3284,141.508 57.6618,140.842 58.5,140.5 Z"/></g>
<g><path style="opacity:1" fill="#399b48" d="M 52.5,134.5 C 53.8333,135.167 54.8333,136.167 55.5,137.5C 54.6182,139.084 53.7848,140.751 53,142.5C 52.0853,141.672 51.4186,140.672 51,139.5C 49.8404,144.153 48.0071,148.487 45.5,152.5C 46.7849,154.577 47.1182,156.577 46.5,158.5C 42.3631,155.017 39.3631,150.684 37.5,145.5C 37.3284,144.508 37.6618,143.842 38.5,143.5C 38.6282,145.09 39.2949,146.423 40.5,147.5C 41.4255,146.359 42.2588,146.359 43,147.5C 45.4035,143.365 47.2368,139.032 48.5,134.5C 49.8333,134.5 51.1667,134.5 52.5,134.5 Z"/></g>
<g><path style="opacity:0.988" fill="#5a9f5d" d="M 29.5,134.5 C 30.1667,134.833 30.8333,135.167 31.5,135.5C 33.1373,139.118 35.1373,142.451 37.5,145.5C 39.3631,150.684 42.3631,155.017 46.5,158.5C 47.758,160.687 48.758,163.02 49.5,165.5C 47.1829,164.18 45.1829,162.514 43.5,160.5C 42.391,160.443 41.391,160.11 40.5,159.5C 37.0089,154.526 34.0089,149.192 31.5,143.5C 30.0712,140.692 29.4045,137.692 29.5,134.5 Z"/></g>
<g><path style="opacity:1" fill="#4aaf45" d="M 60.5,144.5 C 63.2578,145.761 66.2578,146.594 69.5,147C 70.5156,147.519 71.1822,148.353 71.5,149.5C 70.2082,153.421 68.5415,157.088 66.5,160.5C 64.9826,160.511 63.8159,161.177 63,162.5C 60.7792,157.554 59.2792,152.387 58.5,147C 58.6842,145.624 59.3509,144.791 60.5,144.5 Z"/></g>
<g><path style="opacity:0.898" fill="#6aba5f" d="M 63.5,140.5 C 68.772,141.4 74.1053,141.733 79.5,141.5C 79.5,143.167 79.5,144.833 79.5,146.5C 75.71,156.921 69.3766,165.421 60.5,172C 58.0106,172.941 56.0106,172.441 54.5,170.5C 56.1368,171.218 57.8034,171.384 59.5,171C 60.2524,170.329 60.5858,169.496 60.5,168.5C 62.8606,166.806 64.8606,164.806 66.5,162.5C 68.3793,161.103 70.0459,159.437 71.5,157.5C 73.364,153.606 75.364,149.772 77.5,146C 77.4148,144.893 77.0814,143.893 76.5,143C 72.5,142.667 68.5,142.333 64.5,142C 63.944,141.617 63.6107,141.117 63.5,140.5 Z"/></g>
<g><path style="opacity:0.663" fill="#83be6e" d="M 91.5,137.5 C 88.7353,142.697 86.2353,148.03 84,153.5C 79.6219,158.373 75.4552,163.373 71.5,168.5C 69.8333,168.5 68.1667,168.5 66.5,168.5C 66.5,169.5 66.5,170.5 66.5,171.5C 64.2166,171.608 62.2166,172.441 60.5,174C 58.8333,174.667 57.1667,174.667 55.5,174C 51.9662,170.131 48.1328,166.631 44,163.5C 43.5172,162.552 43.3505,161.552 43.5,160.5C 45.1829,162.514 47.1829,164.18 49.5,165.5C 51.1117,167.333 52.7784,169 54.5,170.5C 56.0106,172.441 58.0106,172.941 60.5,172C 69.3766,165.421 75.71,156.921 79.5,146.5C 82.142,146.512 83.4754,145.179 83.5,142.5C 85.3137,140.236 87.147,137.903 89,135.5C 89.4169,136.756 90.2502,137.423 91.5,137.5 Z"/></g>
<g><path style="opacity:0.808" fill="#9bc38e" d="M 40.5,159.5 C 41.391,160.11 42.391,160.443 43.5,160.5C 43.3505,161.552 43.5172,162.552 44,163.5C 48.1328,166.631 51.9662,170.131 55.5,174C 57.1667,174.667 58.8333,174.667 60.5,174C 62.2166,172.441 64.2166,171.608 66.5,171.5C 66.5,170.5 66.5,169.5 66.5,168.5C 68.1667,168.5 69.8333,168.5 71.5,168.5C 70.6872,171.989 68.6872,174.656 65.5,176.5C 65.631,175.761 65.4643,175.094 65,174.5C 60.4496,178.087 55.6162,178.42 50.5,175.5C 47.6468,170.448 44.3135,165.782 40.5,161.5C 40.5,160.833 40.5,160.167 40.5,159.5 Z"/></g>
<g><path style="opacity:0.74" fill="#adbda0" d="M 40.5,161.5 C 44.3135,165.782 47.6468,170.448 50.5,175.5C 55.6162,178.42 60.4496,178.087 65,174.5C 65.4643,175.094 65.631,175.761 65.5,176.5C 64.5401,180.634 62.2067,183.8 58.5,186C 57.1667,186.667 55.8333,186.667 54.5,186C 52.3333,182.5 49.5,179.667 46,177.5C 44.7413,174.644 43.2413,171.977 41.5,169.5C 41.6107,168.883 41.944,168.383 42.5,168C 41.6028,165.913 40.9361,163.746 40.5,161.5 Z"/></g>
</svg>
