<?xml version="1.0" encoding="UTF-8"?>
<!DOCTYPE svg PUBLIC "-//W3C//DTD SVG 1.1//EN" "http://www.w3.org/Graphics/SVG/1.1/DTD/svg11.dtd">
<svg xmlns="http://www.w3.org/2000/svg" version="1.1" width="100%" height="100%" viewBox="0 0 277 303" style="shape-rendering:geometricPrecision; text-rendering:geometricPrecision; image-rendering:optimizeQuality; fill-rule:evenodd; clip-rule:evenodd" xmlns:xlink="http://www.w3.org/1999/xlink">
<g><path style="opacity:0.854" fill="#7c7c74" d="M 99.5,12.5 C 100.552,12.3505 101.552,12.5172 102.5,13C 113.603,26.3768 127.27,36.0434 143.5,42C 156.626,44.0984 169.626,46.765 182.5,50C 192.685,55.2544 201.018,62.5878 207.5,72C 185.43,93.1431 185.096,114.476 206.5,136C 211,139.167 215.5,142.333 220,145.5C 222.631,153.132 220.131,158.299 212.5,161C 207.5,161.667 202.5,161.667 197.5,161C 181.794,157.657 166.128,154.157 150.5,150.5C 148.63,135.16 141.297,123.327 128.5,115C 119.386,111.289 110.052,110.622 100.5,113C 80.8369,118.832 62.8369,127.832 46.5,140C 35.1345,148.353 24.1345,157.186 13.5,166.5C 14.0515,144.62 18.8848,123.62 28,103.5C 43.5577,66.4674 67.3911,36.134 99.5,12.5 Z"/></g>
<g><path style="opacity:0.844" fill="#7c7d74" d="M 224.5,74.5 C 246.902,72.24 259.568,82.24 262.5,104.5C 258.848,127.499 245.515,136.999 222.5,133C 203.73,123.615 198.23,109.115 206,89.5C 210.411,82.2265 216.578,77.2265 224.5,74.5 Z M 226.5,85.5 C 240.883,83.8835 249.216,90.2168 251.5,104.5C 247.597,121.618 237.597,126.784 221.5,120C 211.215,110.03 210.881,99.6965 220.5,89C 222.727,88.059 224.727,86.8923 226.5,85.5 Z"/></g>
<g><path style="opacity:1" fill="#a6a99a" d="M 225.5,78.5 C 249.632,78.1312 259.799,89.7978 256,113.5C 249.745,127.044 239.245,132.21 224.5,129C 209.092,121.68 203.925,109.847 209,93.5C 212.822,86.5043 218.322,81.5043 225.5,78.5 Z M 226.5,85.5 C 224.727,86.8923 222.727,88.059 220.5,89C 210.881,99.6965 211.215,110.03 221.5,120C 237.597,126.784 247.597,121.618 251.5,104.5C 249.216,90.2168 240.883,83.8835 226.5,85.5 Z"/></g>
<g><path style="opacity:0.861" fill="#7d7d75" d="M 228.5,80.5 C 247.615,80.7811 256.448,90.4478 255,109.5C 248.815,126.172 237.315,131.339 220.5,125C 209.322,116.449 206.488,105.616 212,92.5C 215.944,86.1336 221.444,82.1336 228.5,80.5 Z M 226.5,85.5 C 224.727,86.8923 222.727,88.059 220.5,89C 210.881,99.6965 211.215,110.03 221.5,120C 237.597,126.784 247.597,121.618 251.5,104.5C 249.216,90.2168 240.883,83.8835 226.5,85.5 Z"/></g>
<g><path style="opacity:0.996" fill="#a2a394" d="M 99.5,17.5 C 105.242,21.7347 110.575,26.568 115.5,32C 124.395,39.0844 134.395,44.0844 145.5,47C 157.67,49.0269 169.67,51.6935 181.5,55C 189.535,58.5342 195.868,64.0342 200.5,71.5C 181.861,91.9151 180.694,113.248 197,135.5C 202.477,140.315 208.477,144.315 215,147.5C 216.057,151.886 214.557,155.053 210.5,157C 207.167,157.667 203.833,157.667 200.5,157C 185.231,152.854 169.898,149.02 154.5,145.5C 149.451,116.961 132.451,104.127 103.5,107C 88.8482,109.827 75.1815,115.16 62.5,123C 47.6055,132.283 33.6055,142.783 20.5,154.5C 19.8687,145.992 21.0354,137.659 24,129.5C 35.9935,90.8928 56.1602,57.3928 84.5,29C 89.5686,25.1465 94.5686,21.3132 99.5,17.5 Z"/></g>
<g><path style="opacity:1" fill="#6f241f" d="M 184.5,118.5 C 186.009,121.678 187.342,125.011 188.5,128.5C 186.45,131.058 184.117,133.558 181.5,136C 176.271,139.113 170.938,141.947 165.5,144.5C 162.518,144.037 159.518,143.704 156.5,143.5C 156.675,141.379 156.341,139.379 155.5,137.5C 163.511,135.577 170.678,131.911 177,126.5C 177.333,126.833 177.667,127.167 178,127.5C 180.307,124.598 182.473,121.598 184.5,118.5 Z"/></g>
<g><path style="opacity:1" fill="#7e251f" d="M 183.5,100.5 C 183.303,106.545 183.637,112.545 184.5,118.5C 182.473,121.598 180.307,124.598 178,127.5C 177.667,127.167 177.333,126.833 177,126.5C 170.678,131.911 163.511,135.577 155.5,137.5C 154.389,133.277 152.722,129.277 150.5,125.5C 152.17,125.751 153.67,126.418 155,127.5C 160.602,124.411 166.102,121.077 171.5,117.5C 176.077,112.848 180.077,107.182 183.5,100.5 Z"/></g>
<g><path style="opacity:1" fill="#84251f" d="M 166.5,53.5 C 179.775,54.631 190.108,60.631 197.5,71.5C 189.886,79.7283 185.219,89.395 183.5,100.5C 180.077,107.182 176.077,112.848 171.5,117.5C 166.102,121.077 160.602,124.411 155,127.5C 153.67,126.418 152.17,125.751 150.5,125.5C 149.833,124.5 149.167,123.5 148.5,122.5C 150.137,123.218 151.803,123.384 153.5,123C 153.167,122.667 152.833,122.333 152.5,122C 157.442,119.772 162.442,117.605 167.5,115.5C 168.386,114.675 168.719,113.675 168.5,112.5C 169.5,112.5 170.5,112.5 171.5,112.5C 172.014,108.465 174.18,105.798 178,104.5C 180.656,97.3415 182.156,90.1749 182.5,83C 181.833,81.3333 181.167,79.6667 180.5,78C 180.461,76.7553 180.795,75.4219 181.5,74C 179.422,69.4644 177.255,64.9644 175,60.5C 171.651,58.6382 168.818,56.3048 166.5,53.5 Z"/></g>
<g><path style="opacity:1" fill="#40211f" d="M 44.5,87.5 C 44.9536,100.579 47.9536,113.246 53.5,125.5C 43.1302,133.119 32.9635,141.119 23,149.5C 26.0851,127.411 33.2518,106.744 44.5,87.5 Z"/></g>
<g><path style="opacity:1" fill="#48211f" d="M 48.5,80.5 C 48.5952,83.6428 48.5952,86.8095 48.5,90C 49.1667,92 49.8333,94 50.5,96C 50.0426,96.414 49.7093,96.914 49.5,97.5C 51.4636,103.02 52.9636,108.686 54,114.5C 55.232,117.412 56.732,120.078 58.5,122.5C 57.1007,123.89 55.4341,124.89 53.5,125.5C 47.9536,113.246 44.9536,100.579 44.5,87.5C 45.0787,84.6689 46.412,82.3356 48.5,80.5 Z"/></g>
<g><path style="opacity:1" fill="#90261f" d="M 148.5,50.5 C 154.546,51.2854 160.546,52.2854 166.5,53.5C 168.818,56.3048 171.651,58.6382 175,60.5C 177.255,64.9644 179.422,69.4644 181.5,74C 180.795,75.4219 180.461,76.7553 180.5,78C 181.167,79.6667 181.833,81.3333 182.5,83C 182.156,90.1749 180.656,97.3415 178,104.5C 174.18,105.798 172.014,108.465 171.5,112.5C 170.5,112.5 169.5,112.5 168.5,112.5C 168.719,113.675 168.386,114.675 167.5,115.5C 162.442,117.605 157.442,119.772 152.5,122C 152.833,122.333 153.167,122.667 153.5,123C 151.803,123.384 150.137,123.218 148.5,122.5C 146.147,119.752 143.814,117.086 141.5,114.5C 143.969,113.683 146.635,113.183 149.5,113C 154.002,111.049 158.335,108.716 162.5,106C 171.103,97.1103 173.937,86.2769 171,73.5C 169.802,70.2744 167.969,67.4411 165.5,65C 165.833,64.6667 166.167,64.3333 166.5,64C 164.044,61.8089 161.378,59.8089 158.5,58C 158.833,57.6667 159.167,57.3333 159.5,57C 157.697,56.3632 156.364,55.1965 155.5,53.5C 153.665,53.8342 151.998,53.8342 150.5,53.5C 149.081,52.9953 148.415,51.9953 148.5,50.5 Z"/></g>
<g><path style="opacity:1" fill="#50221f" d="M 64.5,55.5 C 63.5134,58.1456 62.5134,60.8122 61.5,63.5C 62.6682,64.9056 62.3348,66.0723 60.5,67C 60.8333,67.3333 61.1667,67.6667 61.5,68C 58.6593,79.1316 58.9926,90.4649 62.5,102C 62.0426,102.414 61.7093,102.914 61.5,103.5C 63.7758,107.929 65.4425,112.596 66.5,117.5C 64.178,119.664 61.5113,121.331 58.5,122.5C 56.732,120.078 55.232,117.412 54,114.5C 52.9636,108.686 51.4636,103.02 49.5,97.5C 49.7093,96.914 50.0426,96.414 50.5,96C 49.8333,94 49.1667,92 48.5,90C 48.5952,86.8095 48.5952,83.6428 48.5,80.5C 53.0519,71.6253 58.3852,63.2919 64.5,55.5 Z"/></g>
<g><path style="opacity:1" fill="#8c251f" d="M 130.5,44.5 C 133.443,44.9802 136.11,45.9802 138.5,47.5C 131.869,48.1416 126.869,50.6416 123.5,55C 117.899,55.1984 113.733,58.0317 111,63.5C 109.901,66.8637 108.401,70.0304 106.5,73C 107.462,76.0609 107.129,79.3943 105.5,83C 106.293,86.4106 106.793,89.9106 107,93.5C 109.257,96.4381 110.424,99.7715 110.5,103.5C 108.856,103.714 107.356,103.38 106,102.5C 104.624,97.3103 102.957,91.977 101,86.5C 99.9326,85.8095 98.7659,85.3095 97.5,85C 98.8333,80 100.167,75 101.5,70C 101.043,69.586 100.709,69.086 100.5,68.5C 104.017,64.7507 106.35,60.7507 107.5,56.5C 112.119,53.1821 116.786,49.8488 121.5,46.5C 124.438,45.5109 127.438,44.8442 130.5,44.5 Z"/></g>
<g><path style="opacity:1" fill="#9f271f" d="M 136.5,110.5 C 135.29,110.068 134.29,109.401 133.5,108.5C 133.5,107.5 133.5,106.5 133.5,105.5C 121.869,102.371 116.202,94.8714 116.5,83C 115.833,82.6667 115.167,82.3333 114.5,82C 116.407,79.2083 117.573,76.0416 118,72.5C 120.705,70.293 122.871,67.6263 124.5,64.5C 130.792,59.4106 137.792,56.7439 145.5,56.5C 149.331,58.9167 153.331,61.0834 157.5,63C 163.111,68.483 166.444,75.1497 167.5,83C 166.387,88.6297 164.22,94.1297 161,99.5C 158.636,101.363 156.136,103.029 153.5,104.5C 152.194,105.912 151.36,107.579 151,109.5C 149.349,106.779 147.682,106.446 146,108.5C 143,108.5 140,108.5 137,108.5C 136.536,109.094 136.369,109.761 136.5,110.5 Z"/></g>
<g><path style="opacity:1" fill="#97261f" d="M 138.5,47.5 C 142.048,48.1301 145.381,49.1301 148.5,50.5C 148.415,51.9953 149.081,52.9953 150.5,53.5C 151.998,53.8342 153.665,53.8342 155.5,53.5C 156.364,55.1965 157.697,56.3632 159.5,57C 159.167,57.3333 158.833,57.6667 158.5,58C 161.378,59.8089 164.044,61.8089 166.5,64C 166.167,64.3333 165.833,64.6667 165.5,65C 167.969,67.4411 169.802,70.2744 171,73.5C 173.937,86.2769 171.103,97.1103 162.5,106C 158.335,108.716 154.002,111.049 149.5,113C 146.635,113.183 143.969,113.683 141.5,114.5C 139.809,113.136 138.142,111.803 136.5,110.5C 136.369,109.761 136.536,109.094 137,108.5C 140,108.5 143,108.5 146,108.5C 147.682,106.446 149.349,106.779 151,109.5C 151.36,107.579 152.194,105.912 153.5,104.5C 156.136,103.029 158.636,101.363 161,99.5C 164.22,94.1297 166.387,88.6297 167.5,83C 166.444,75.1497 163.111,68.483 157.5,63C 153.331,61.0834 149.331,58.9167 145.5,56.5C 137.792,56.7439 130.792,59.4106 124.5,64.5C 122.871,67.6263 120.705,70.293 118,72.5C 117.573,76.0416 116.407,79.2083 114.5,82C 115.167,82.3333 115.833,82.6667 116.5,83C 116.202,94.8714 121.869,102.371 133.5,105.5C 133.5,106.5 133.5,107.5 133.5,108.5C 128.107,106.069 122.44,104.735 116.5,104.5C 114.735,103.539 112.735,103.205 110.5,103.5C 110.424,99.7715 109.257,96.4381 107,93.5C 106.793,89.9106 106.293,86.4106 105.5,83C 107.129,79.3943 107.462,76.0609 106.5,73C 108.401,70.0304 109.901,66.8637 111,63.5C 113.733,58.0317 117.899,55.1984 123.5,55C 126.869,50.6416 131.869,48.1416 138.5,47.5 Z"/></g>
<g><path style="opacity:1" fill="#a6271f" d="M 136.5,62.5 C 140.75,62.2355 145.083,62.7355 149.5,64C 151.448,64.9832 153.282,66.1498 155,67.5C 155.333,67.1667 155.667,66.8333 156,66.5C 156.732,69.2492 158.232,71.9159 160.5,74.5C 159.089,76.0175 159.256,77.3508 161,78.5C 162.309,89.5745 158.309,97.2411 149,101.5C 146.97,102.047 144.803,103.047 142.5,104.5C 142.323,101.922 141.157,101.922 139,104.5C 130.933,101.744 125.099,96.5774 121.5,89C 121.798,86.071 121.798,83.071 121.5,80C 123.874,71.1743 128.874,65.3409 136.5,62.5 Z"/></g>
<g><path style="opacity:1" fill="#b2281f" d="M 137.5,72.5 C 144.251,71.8066 149.251,74.9732 152.5,82C 148.247,94.3132 141.747,96.8132 133,89.5C 132.604,87.0398 131.437,85.0398 129.5,83.5C 131.194,81.4457 132.361,79.1123 133,76.5C 134.667,75.2668 136.167,73.9335 137.5,72.5 Z"/></g>
<g><path style="opacity:1" fill="#79241f" d="M 116.5,35.5 C 117.5,35.8333 118.167,36.5 118.5,37.5C 116.515,37.8586 115.849,38.692 116.5,40C 113.077,39.4753 110.577,40.9753 109,44.5C 108.667,44.1667 108.333,43.8333 108,43.5C 102.051,50.1406 97.2173,56.8072 93.5,63.5C 93.7093,64.086 94.0426,64.586 94.5,65C 92.0186,69.3119 90.352,73.9786 89.5,79C 91.847,80.0859 91.847,81.4192 89.5,83C 90.2964,88.5718 91.4631,94.0718 93,99.5C 94.487,100.253 94.6537,101.086 93.5,102C 93.9743,103.729 94.9743,104.895 96.5,105.5C 95.4324,106.434 94.099,106.768 92.5,106.5C 89.004,105.411 87.6706,103.244 88.5,100C 86.1668,96.8421 85.5001,93.8421 86.5,91C 85.7599,89.2151 85.0933,87.3817 84.5,85.5C 84.5587,82.7497 85.2253,79.9163 86.5,77C 85.4715,73.0667 85.9715,68.9 88,64.5C 92.3518,52.5606 99.8518,43.0606 110.5,36C 112.602,36.256 114.602,36.0893 116.5,35.5 Z"/></g>
<g><path style="opacity:1" fill="#81251f" d="M 118.5,37.5 C 122.836,39.332 126.836,41.6654 130.5,44.5C 127.438,44.8442 124.438,45.5109 121.5,46.5C 116.786,49.8488 112.119,53.1821 107.5,56.5C 106.35,60.7507 104.017,64.7507 100.5,68.5C 100.709,69.086 101.043,69.586 101.5,70C 100.167,75 98.8333,80 97.5,85C 98.7659,85.3095 99.9326,85.8095 101,86.5C 102.957,91.977 104.624,97.3103 106,102.5C 107.356,103.38 108.856,103.714 110.5,103.5C 112.735,103.205 114.735,103.539 116.5,104.5C 109.798,104.336 103.131,104.669 96.5,105.5C 94.9743,104.895 93.9743,103.729 93.5,102C 94.6537,101.086 94.487,100.253 93,99.5C 91.4631,94.0718 90.2964,88.5718 89.5,83C 91.847,81.4192 91.847,80.0859 89.5,79C 90.352,73.9786 92.0186,69.3119 94.5,65C 94.0426,64.586 93.7093,64.086 93.5,63.5C 97.2173,56.8072 102.051,50.1406 108,43.5C 108.333,43.8333 108.667,44.1667 109,44.5C 110.577,40.9753 113.077,39.4753 116.5,40C 115.849,38.692 116.515,37.8586 118.5,37.5 Z"/></g>
<g><path style="opacity:1" fill="#73241f" d="M 110.5,30.5 C 112.525,32.1964 114.525,33.863 116.5,35.5C 114.602,36.0893 112.602,36.256 110.5,36C 99.8518,43.0606 92.3518,52.5606 88,64.5C 85.9715,68.9 85.4715,73.0667 86.5,77C 85.2253,79.9163 84.5587,82.7497 84.5,85.5C 85.0933,87.3817 85.7599,89.2151 86.5,91C 85.5001,93.8421 86.1668,96.8421 88.5,100C 87.6706,103.244 89.004,105.411 92.5,106.5C 90.7857,107.738 88.7857,108.405 86.5,108.5C 85.3994,107.152 84.3994,105.652 83.5,104C 83.3267,101.74 83.3267,99.4069 83.5,97C 81.0829,95.8563 80.4162,94.1897 81.5,92C 79.3391,83.6876 79.5058,75.5209 82,67.5C 86.4904,51.1917 95.9904,38.8584 110.5,30.5 Z"/></g>
<g><path style="opacity:1" fill="#6d231f" d="M 106.5,27.5 C 107.872,28.5116 109.205,29.5116 110.5,30.5C 95.9904,38.8584 86.4904,51.1917 82,67.5C 79.5058,75.5209 79.3391,83.6876 81.5,92C 80.4162,94.1897 81.0829,95.8563 83.5,97C 83.3267,99.4069 83.3267,101.74 83.5,104C 84.3994,105.652 85.3994,107.152 86.5,108.5C 85.0697,109.537 83.403,110.204 81.5,110.5C 74.1309,94.3207 73.2976,77.6541 79,60.5C 84.0666,45.946 93.2332,34.946 106.5,27.5 Z"/></g>
<g><path style="opacity:1" fill="#66231f" d="M 101.5,22.5 C 103.5,23.8333 105.167,25.5 106.5,27.5C 93.2332,34.946 84.0666,45.946 79,60.5C 73.2976,77.6541 74.1309,94.3207 81.5,110.5C 80.0697,111.537 78.403,112.204 76.5,112.5C 74.8368,110.507 73.6701,108.174 73,105.5C 63.8552,72.1111 73.3552,44.4444 101.5,22.5 Z"/></g>
<g><path style="opacity:1" fill="#5f231f" d="M 101.5,22.5 C 73.3552,44.4444 63.8552,72.1111 73,105.5C 73.6701,108.174 74.8368,110.507 76.5,112.5C 73.4846,114.674 70.1513,116.341 66.5,117.5C 65.4425,112.596 63.7758,107.929 61.5,103.5C 61.7093,102.914 62.0426,102.414 62.5,102C 58.9926,90.4649 58.6593,79.1316 61.5,68C 61.1667,67.6667 60.8333,67.3333 60.5,67C 62.3348,66.0723 62.6682,64.9056 61.5,63.5C 62.5134,60.8122 63.5134,58.1456 64.5,55.5C 73.847,41.3197 85.6803,29.653 100,20.5C 101.03,20.8361 101.53,21.5028 101.5,22.5 Z"/></g>
<g><path style="opacity:1" fill="#61231f" d="M 188.5,128.5 C 191.823,132.46 195.156,136.46 198.5,140.5C 195.326,145.341 190.992,148.674 185.5,150.5C 178.644,148.791 171.978,146.791 165.5,144.5C 170.938,141.947 176.271,139.113 181.5,136C 184.117,133.558 186.45,131.058 188.5,128.5 Z"/></g>
<g><path style="opacity:0.855" fill="#7c7c74" d="M 261.5,136.5 C 262.748,137.334 263.415,138.667 263.5,140.5C 256.522,192.622 234.522,237.122 197.5,274C 190.784,279.717 183.784,285.05 176.5,290C 175.5,290.667 174.5,290.667 173.5,290C 161.511,276 146.844,266 129.5,260C 120.878,258.375 112.212,257.042 103.5,256C 88.4905,252.321 76.8239,243.987 68.5,231C 91.0309,209.184 91.0309,187.517 68.5,166C 65.0026,163.417 61.3359,161.084 57.5,159C 54.0323,155.609 53.5323,151.776 56,147.5C 56.9476,145.43 58.4476,143.93 60.5,143C 66.4149,141.473 72.4149,141.139 78.5,142C 94.2132,145.309 109.88,148.809 125.5,152.5C 127.618,165.238 133.285,176.071 142.5,185C 152.818,191.108 163.818,192.775 175.5,190C 187.508,186.997 198.841,182.33 209.5,176C 228.159,164.512 245.492,151.345 261.5,136.5 Z"/></g>
<g><path style="opacity:1" fill="#4f2320" d="M 198.5,140.5 C 201.947,142.397 205.28,144.563 208.5,147C 210.025,148.009 211.692,148.509 213.5,148.5C 213.266,153.91 210.432,155.91 205,154.5C 198.209,154.005 191.709,152.672 185.5,150.5C 190.992,148.674 195.326,145.341 198.5,140.5 Z"/></g>
<g><path style="opacity:0.839" fill="#7d7d74" d="M 35.5,169.5 C 61.6319,167.467 74.1319,179.467 73,205.5C 68.071,222.887 56.571,230.72 38.5,229C 23.0393,225.263 14.7059,215.43 13.5,199.5C 14.5275,184.745 21.8608,174.745 35.5,169.5 Z M 37.5,180.5 C 54.5817,178.777 62.7483,186.443 62,203.5C 58.7604,214.2 51.5937,219.034 40.5,218C 29.5932,215.033 24.4265,207.867 25,196.5C 26.7777,189.231 30.9444,183.897 37.5,180.5 Z"/></g>
<g><path style="opacity:1" fill="#a5a99a" d="M 37.5,173.5 C 60.4681,173.303 70.6347,184.636 68,207.5C 61.0848,222.537 49.5848,227.703 33.5,223C 18.272,214.034 14.4387,201.534 22,185.5C 26.0197,179.919 31.1864,175.919 37.5,173.5 Z M 37.5,180.5 C 30.9444,183.897 26.7777,189.231 25,196.5C 24.4265,207.867 29.5932,215.033 40.5,218C 51.5937,219.034 58.7604,214.2 62,203.5C 62.7483,186.443 54.5817,178.777 37.5,180.5 Z"/></g>
<g><path style="opacity:0.864" fill="#7d7d74" d="M 39.5,175.5 C 59.1554,175.987 67.9887,185.987 66,205.5C 60.9049,219.137 51.0715,224.637 36.5,222C 21.154,214.136 16.9874,202.302 24,186.5C 27.9622,181.023 33.1289,177.356 39.5,175.5 Z M 37.5,180.5 C 30.9444,183.897 26.7777,189.231 25,196.5C 24.4265,207.867 29.5932,215.033 40.5,218C 51.5937,219.034 58.7604,214.2 62,203.5C 62.7483,186.443 54.5817,178.777 37.5,180.5 Z"/></g>
<g><path style="opacity:1" fill="#a3a394" d="M 64.5,145.5 C 68.8461,145.334 73.1794,145.501 77.5,146C 92.0918,150.142 106.758,153.975 121.5,157.5C 127.331,186.473 144.997,198.973 174.5,195C 183.91,193.197 192.91,190.197 201.5,186C 221.671,175.166 240.171,161.999 257,146.5C 249.449,192.266 230.116,232.266 199,266.5C 191.916,273.588 184.249,279.922 176,285.5C 165.227,272.051 151.727,262.551 135.5,257C 123.188,254.226 110.855,251.559 98.5,249C 88.6145,245.617 80.9479,239.45 75.5,230.5C 89.6906,216.404 93.8573,199.738 88,180.5C 81.9447,168.778 72.9447,160.111 61,154.5C 60.3333,152.833 60.3333,151.167 61,149.5C 62.3756,148.295 63.5423,146.962 64.5,145.5 Z"/></g>
<g><path style="opacity:1" fill="#8f261f" d="M 174.5,197.5 C 174.525,200.179 175.858,201.512 178.5,201.5C 180.264,207.038 182.264,212.538 184.5,218C 184.54,224.024 184.374,230.19 184,236.5C 180.251,242.039 176.751,247.706 173.5,253.5C 171.099,254.049 168.765,254.882 166.5,256C 164.923,261.391 161.256,263.891 155.5,263.5C 150.128,260.814 144.795,258.147 139.5,255.5C 164.712,256.121 177.045,243.954 176.5,219C 175.736,216.931 175.236,214.764 175,212.5C 173.686,211.687 172.519,210.687 171.5,209.5C 169.462,206.745 167.962,203.745 167,200.5C 166.005,199.934 165.172,199.267 164.5,198.5C 167.86,198.384 171.193,198.051 174.5,197.5 Z"/></g>
<g><path style="opacity:1" fill="#98261f" d="M 146.5,195.5 C 152.313,197.529 158.313,198.529 164.5,198.5C 165.172,199.267 166.005,199.934 167,200.5C 167.962,203.745 169.462,206.745 171.5,209.5C 172.519,210.687 173.686,211.687 175,212.5C 175.236,214.764 175.736,216.931 176.5,219C 177.045,243.954 164.712,256.121 139.5,255.5C 137.656,253.246 135.656,251.08 133.5,249C 129.556,248.341 126.556,247.174 124.5,245.5C 124.5,244.167 124.5,242.833 124.5,241.5C 123.325,241.719 122.325,241.386 121.5,240.5C 114.765,226.667 116.765,214.167 127.5,203C 133.633,199.24 139.967,196.74 146.5,195.5 Z"/></g>
<g><path style="opacity:1" fill="#9f271f" d="M 136.5,201.5 C 141.689,201.572 146.855,201.572 152,201.5C 156.876,204.275 161.709,206.942 166.5,209.5C 169.02,215.079 170.687,220.913 171.5,227C 170.577,232.267 168.577,237.101 165.5,241.5C 164.675,242.386 163.675,242.719 162.5,242.5C 162.883,245.462 161.883,246.462 159.5,245.5C 155.047,248.689 150.047,250.355 144.5,250.5C 141.135,248.444 137.135,246.944 132.5,246C 127.483,240.917 124.15,235.25 122.5,229C 122.522,224.799 123.522,220.633 125.5,216.5C 125.291,215.914 124.957,215.414 124.5,215C 128.416,210.26 132.416,205.76 136.5,201.5 Z"/></g>
<g><path style="opacity:1" fill="#a5271f" d="M 147.5,205.5 C 148.94,206.363 150.274,206.363 151.5,205.5C 158.618,208.653 163.618,214.32 166.5,222.5C 165.747,225.214 165.747,227.714 166.5,230C 163.216,238.565 156.716,243.731 147,245.5C 134.196,243.849 127.696,237.016 127.5,225C 127.667,223.5 127.833,222 128,220.5C 129.439,216.233 131.939,212.733 135.5,210C 135.167,209.667 134.833,209.333 134.5,209C 135.646,208.355 136.646,207.522 137.5,206.5C 137.833,207.167 138.167,207.833 138.5,208.5C 141.582,207.365 144.582,206.365 147.5,205.5 Z"/></g>
<g><path style="opacity:1" fill="#91261f" d="M 136.5,189.5 C 139.902,191.528 143.235,193.528 146.5,195.5C 139.967,196.74 133.633,199.24 127.5,203C 116.765,214.167 114.765,226.667 121.5,240.5C 122.325,241.386 123.325,241.719 124.5,241.5C 124.5,242.833 124.5,244.167 124.5,245.5C 126.556,247.174 129.556,248.341 133.5,249C 135.656,251.08 137.656,253.246 139.5,255.5C 132.014,253.045 124.347,251.379 116.5,250.5C 115.952,248.468 114.619,247.468 112.5,247.5C 112.034,245.799 112.034,244.299 112.5,243C 111.552,242.517 110.552,242.351 109.5,242.5C 110.065,236.188 109.399,230.188 107.5,224.5C 108.09,220.112 108.923,215.779 110,211.5C 112.673,207.666 115.506,204 118.5,200.5C 121.163,198.008 123.996,195.674 127,193.5C 127.333,193.833 127.667,194.167 128,194.5C 128.49,193.207 128.657,191.873 128.5,190.5C 131.324,189.623 133.991,189.29 136.5,189.5 Z"/></g>
<g><path style="opacity:1" fill="#86251f" d="M 181.5,196.5 C 182.346,201.171 184.679,205.504 188.5,209.5C 188.291,210.086 187.957,210.586 187.5,211C 188.734,214.702 190.067,218.702 191.5,223C 190.707,226.411 190.207,229.911 190,233.5C 187.251,247.475 179.084,258.142 165.5,265.5C 163.547,266.156 161.547,266.489 159.5,266.5C 157.77,265.974 156.436,264.974 155.5,263.5C 161.256,263.891 164.923,261.391 166.5,256C 168.765,254.882 171.099,254.049 173.5,253.5C 176.751,247.706 180.251,242.039 184,236.5C 184.374,230.19 184.54,224.024 184.5,218C 182.264,212.538 180.264,207.038 178.5,201.5C 175.858,201.512 174.525,200.179 174.5,197.5C 176.764,196.781 179.097,196.448 181.5,196.5 Z"/></g>
<g><path style="opacity:1" fill="#86251f" d="M 130.5,184.5 C 132.525,186.196 134.525,187.863 136.5,189.5C 133.991,189.29 131.324,189.623 128.5,190.5C 128.657,191.873 128.49,193.207 128,194.5C 127.667,194.167 127.333,193.833 127,193.5C 123.996,195.674 121.163,198.008 118.5,200.5C 115.506,204 112.673,207.666 110,211.5C 108.923,215.779 108.09,220.112 107.5,224.5C 109.399,230.188 110.065,236.188 109.5,242.5C 110.552,242.351 111.552,242.517 112.5,243C 112.034,244.299 112.034,245.799 112.5,247.5C 114.619,247.468 115.952,248.468 116.5,250.5C 114.565,249.85 112.565,249.517 110.5,249.5C 105.755,243.437 103.755,236.603 104.5,229C 104.561,227.289 103.894,225.956 102.5,225C 102.435,222.03 103.102,219.03 104.5,216C 103.978,215.439 103.645,214.772 103.5,214C 108.562,200.443 117.562,190.61 130.5,184.5 Z"/></g>
<g><path style="opacity:1" fill="#ad281f" d="M 147.5,210.5 C 158.912,213.826 163.578,221.326 161.5,233C 157.629,236.639 152.629,239.472 146.5,241.5C 142.174,240 138.341,237.666 135,234.5C 133.356,230.78 132.19,226.947 131.5,223C 133.414,219.411 135.748,216.078 138.5,213C 141.628,212.159 144.628,211.325 147.5,210.5 Z"/></g>
<g><path style="opacity:1" fill="#7d241f" d="M 125.5,176.5 C 127.193,179.184 128.86,181.851 130.5,184.5C 117.562,190.61 108.562,200.443 103.5,214C 103.645,214.772 103.978,215.439 104.5,216C 103.102,219.03 102.435,222.03 102.5,225C 103.894,225.956 104.561,227.289 104.5,229C 103.755,236.603 105.755,243.437 110.5,249.5C 105.517,248.169 100.517,246.836 95.5,245.5C 96.2519,242.535 95.5852,239.701 93.5,237C 94.1097,234.534 93.7764,232.034 92.5,229.5C 92.4815,214.201 97.4815,200.368 107.5,188C 110.623,186.118 113.289,183.785 115.5,181C 118.706,179.231 122.039,177.731 125.5,176.5 Z"/></g>
<g><path style="opacity:1" fill="#80251f" d="M 181.5,196.5 C 182.209,195.596 183.209,195.263 184.5,195.5C 195.715,208.174 198.715,222.674 193.5,239C 193.833,239.333 194.167,239.667 194.5,240C 192.411,243.323 190.911,246.49 190,249.5C 189.282,248.549 188.449,248.383 187.5,249C 188.517,250.049 188.684,251.216 188,252.5C 187.667,252.167 187.333,251.833 187,251.5C 186.508,254.639 185.175,257.306 183,259.5C 178.023,263.821 173.189,267.487 168.5,270.5C 167.609,271.11 166.609,271.443 165.5,271.5C 163.46,269.823 161.46,268.156 159.5,266.5C 161.547,266.489 163.547,266.156 165.5,265.5C 179.084,258.142 187.251,247.475 190,233.5C 190.207,229.911 190.707,226.411 191.5,223C 190.067,218.702 188.734,214.702 187.5,211C 187.957,210.586 188.291,210.086 188.5,209.5C 184.679,205.504 182.346,201.171 181.5,196.5 Z"/></g>
<g><path style="opacity:1" fill="#79241f" d="M 190.5,193.5 C 192.94,199.556 195.94,205.722 199.5,212C 199.167,212.333 198.833,212.667 198.5,213C 204.271,238.838 195.438,259.005 172,273.5C 170.358,273.022 169.191,272.022 168.5,270.5C 173.189,267.487 178.023,263.821 183,259.5C 185.175,257.306 186.508,254.639 187,251.5C 187.333,251.833 187.667,252.167 188,252.5C 188.684,251.216 188.517,250.049 187.5,249C 188.449,248.383 189.282,248.549 190,249.5C 190.911,246.49 192.411,243.323 194.5,240C 194.167,239.667 193.833,239.333 193.5,239C 198.715,222.674 195.715,208.174 184.5,195.5C 186.214,194.262 188.214,193.595 190.5,193.5 Z"/></g>
<g><path style="opacity:1" fill="#73241f" d="M 195.5,191.5 C 199.768,199.552 203.102,208.052 205.5,217C 207.538,244.421 196.538,264.921 172.5,278.5C 170.36,275.939 168.027,273.605 165.5,271.5C 166.609,271.443 167.609,271.11 168.5,270.5C 169.191,272.022 170.358,273.022 172,273.5C 195.438,259.005 204.271,238.838 198.5,213C 198.833,212.667 199.167,212.333 199.5,212C 195.94,205.722 192.94,199.556 190.5,193.5C 191.93,192.463 193.597,191.796 195.5,191.5 Z"/></g>
<g><path style="opacity:1" fill="#6d241f" d="M 199.5,189.5 C 208.961,204.73 212.128,221.397 209,239.5C 207.739,245.959 205.573,252.292 202.5,258.5C 194.759,267.743 185.925,275.743 176,282.5C 174.624,281.295 173.458,279.962 172.5,278.5C 196.538,264.921 207.538,244.421 205.5,217C 203.102,208.052 199.768,199.552 195.5,191.5C 196.671,190.655 198.005,189.989 199.5,189.5 Z"/></g>
<g><path style="opacity:1" fill="#65231f" d="M 208.5,185.5 C 218.944,201.442 222.611,218.108 219.5,235.5C 214.983,244.017 209.317,251.683 202.5,258.5C 205.573,252.292 207.739,245.959 209,239.5C 212.128,221.397 208.961,204.73 199.5,189.5C 202.378,187.895 205.378,186.561 208.5,185.5 Z"/></g>
<g><path style="opacity:1" fill="#58221f" d="M 216.5,180.5 C 219.651,184.845 222.151,189.178 224,193.5C 226.937,201.584 228.771,209.917 229.5,218.5C 226.92,224.668 223.586,230.335 219.5,235.5C 222.611,218.108 218.944,201.442 208.5,185.5C 210.794,183.347 213.46,181.68 216.5,180.5 Z"/></g>
<g><path style="opacity:1" fill="#4c221f" d="M 224.5,175.5 C 226.201,176.525 227.535,178.025 228.5,180C 230.503,184.018 232.503,188.018 234.5,192C 234.167,192.333 233.833,192.667 233.5,193C 235.671,196.184 237.004,199.684 237.5,203.5C 235.593,208.984 232.927,213.984 229.5,218.5C 228.771,209.917 226.937,201.584 224,193.5C 222.151,189.178 219.651,184.845 216.5,180.5C 219.131,178.847 221.797,177.181 224.5,175.5 Z"/></g>
<g><path style="opacity:1" fill="#70241f" d="M 119.5,162.5 C 120.907,167.325 122.907,171.991 125.5,176.5C 122.039,177.731 118.706,179.231 115.5,181C 113.289,183.785 110.623,186.118 107.5,188C 97.4815,200.368 92.4815,214.201 92.5,229.5C 93.7764,232.034 94.1097,234.534 93.5,237C 95.5852,239.701 96.2519,242.535 95.5,245.5C 88.48,242.318 82.8133,237.484 78.5,231C 91.0835,217.417 95.4168,201.584 91.5,183.5C 96.1616,178.634 101.162,173.967 106.5,169.5C 110.414,166.376 114.747,164.043 119.5,162.5 Z"/></g>
<g><path style="opacity:1" fill="#5e221f" d="M 109.5,157.5 C 112.522,157.804 115.522,158.304 118.5,159C 119.337,160.011 119.67,161.178 119.5,162.5C 114.747,164.043 110.414,166.376 106.5,169.5C 101.162,173.967 96.1616,178.634 91.5,183.5C 90.5014,180.838 89.5014,178.172 88.5,175.5C 89.8184,171.668 92.1517,168.501 95.5,166C 99.8097,162.512 104.476,159.679 109.5,157.5 Z"/></g>
<g><path style="opacity:1" fill="#51221f" d="M 89.5,151.5 C 96.358,153.21 103.025,155.21 109.5,157.5C 104.476,159.679 99.8097,162.512 95.5,166C 92.1517,168.501 89.8184,171.668 88.5,175.5C 85.1976,171.191 81.8643,166.857 78.5,162.5C 81.973,158.605 85.6396,154.939 89.5,151.5 Z"/></g>
<g><path style="opacity:1" fill="#40211f" d="M 237.5,203.5 C 237.004,199.684 235.671,196.184 233.5,193C 233.833,192.667 234.167,192.333 234.5,192C 232.503,188.018 230.503,184.018 228.5,180C 227.535,178.025 226.201,176.525 224.5,175.5C 234.434,168.079 244.267,160.412 254,152.5C 251.002,170.328 245.502,187.328 237.5,203.5 Z"/></g>
<g><path style="opacity:1" fill="#412220" d="M 89.5,151.5 C 85.6396,154.939 81.973,158.605 78.5,162.5C 73.7212,159.271 68.7212,156.271 63.5,153.5C 62.2747,151.157 62.9414,149.323 65.5,148C 73.7496,147.542 81.7496,148.709 89.5,151.5 Z"/></g>
</svg>
