<?xml version="1.0" encoding="UTF-8" standalone="no"?>
<!DOCTYPE svg PUBLIC "-//W3C//DTD SVG 1.1//EN" "http://www.w3.org/Graphics/SVG/1.1/DTD/svg11.dtd">
<svg width="100%" height="100%" viewBox="0 0 136 151" version="1.1" xmlns="http://www.w3.org/2000/svg" xmlns:xlink="http://www.w3.org/1999/xlink" xml:space="preserve" xmlns:serif="http://www.serif.com/" style="fill-rule:evenodd;clip-rule:evenodd;stroke-linejoin:round;stroke-miterlimit:2;">
    <g transform="matrix(78.2525,0,0,-85.0176,61.0871,91.5689)">
        <path d="M-0.512,0.805C-0.637,0.744 -0.82,0.591 -0.715,0.239C-0.743,0.878 0.534,0.911 0.358,-0.323C0.286,-0.424 -0.041,-0.365 -0.185,-0.286C-0.073,-0.428 -0,-0.512 0.176,-0.521C0.08,-0.535 -0.131,-0.599 -0.311,-0.398C-0.095,-0.911 0.426,-0.629 0.591,-0.421L0.591,-0.421C1.364,0.15 0.701,1.072 0.035,1.072C-0.159,1.072 -0.353,0.993 -0.512,0.805Z" style="fill:url(#arborec_Radial1);fill-rule:nonzero;"/>
    </g>
    <g transform="matrix(1.33333,0,0,1.33333,109.699,22.7985)">
        <path d="M0,76.619C1.062,74.791 1.473,71.36 1.262,71.36C1.041,71.36 -0.137,75.753 -1.893,78.19C-1.956,78.287 -2.03,78.393 -2.104,78.5C-6.953,85.063 -17.051,92.77 -27.317,94.737C-35.49,96.308 -46.472,94.78 -53.393,79.152C-44.168,88.837 -33.723,86.816 -27.969,85.694C-27.254,85.555 -26.602,85.437 -26.034,85.341L-22.258,84.743L-26.065,84.54C-35.553,84.058 -39.677,79.623 -45.925,71.189C-37.057,75.646 -19.354,79.099 -15.063,72.514L-15,72.354C-10.182,35.616 -23.909,20.128 -32.534,14.163C-42.632,7.162 -55.655,6.318 -65.711,11.994C-73.6,16.44 -78.249,24.115 -78.785,33.361C-80.836,24.029 -79.995,16.184 -76.292,9.995C-73.579,5.452 -69.739,2.587 -66.51,0.845C-66.415,0.792 -66.321,0.738 -66.215,0.685C-62.997,-1.015 -60.062,-1.849 -60.062,-2.073C-60.104,-2.287 -62.471,-1.956 -65.079,-0.758C-54.487,-13.574 -40.371,-18.716 -25.161,-15.221C-5.301,-10.678 12.486,7.782 17.146,28.658C21.164,46.636 15.073,63.589 0,76.619M17.913,28.476C13.191,7.322 -4.849,-11.394 -24.982,-16.011C-41.023,-19.689 -55.865,-13.97 -66.773,0.075C-70.107,1.86 -74.126,4.832 -76.966,9.567C-81.184,16.622 -81.794,25.707 -78.796,36.6L-77.881,39.924L-78.028,36.471C-78.449,26.156 -73.82,17.488 -65.332,12.688C-55.528,7.162 -42.832,7.996 -32.976,14.826C-24.519,20.684 -11.045,35.915 -15.778,72.151C-19.807,78.083 -38.204,74.93 -47.103,69.639L-48.775,68.645L-47.618,70.216C-41.454,78.639 -37.31,83.77 -28.916,85.063C-35.322,86.282 -45.451,87.736 -54.361,76.854L-55.928,74.941L-55.034,77.25C-49.28,92.129 -40.203,96.03 -32.261,96.03C-30.494,96.03 -28.779,95.838 -27.17,95.528C-16.756,93.518 -6.511,85.673 -1.515,78.917C-1.504,78.906 -1.494,78.906 -1.483,78.896C15.284,65.449 22.174,47.545 17.913,28.476" style="fill:rgb(194,208,206);fill-rule:nonzero;"/>
    </g>
    <g transform="matrix(39.7805,0,0,-44.6568,32.3192,82.4952)">
        <path d="M-0.048,0.816C-0.213,0.791 -0.378,0.673 -0.465,0.556C-0.465,0.556 -0.466,0.555 -0.466,0.555C-0.499,0.509 -0.535,0.409 -0.544,0.409C-0.553,0.41 -0.551,0.465 -0.541,0.486C-0.757,0.277 -0.829,0.027 -0.747,-0.224C-0.654,-0.51 -0.369,-0.748 -0.054,-0.804C0.173,-0.843 0.386,-0.783 0.552,-0.633C0.515,-0.648 0.47,-0.649 0.469,-0.643C0.467,-0.636 0.542,-0.613 0.607,-0.579L0.608,-0.578C0.61,-0.577 0.613,-0.576 0.616,-0.574C0.723,-0.515 0.852,-0.394 0.821,-0.162C0.73,-0.364 0.486,-0.437 0.273,-0.403C-0.048,-0.351 -0.333,-0.06 -0.248,0.47L-0.245,0.475C-0.172,0.572 0.006,0.565 0.156,0.536C0.126,0.569 0.09,0.585 0.055,0.6C0.044,0.605 0.034,0.609 0.024,0.614L0.004,0.624L0.021,0.637C0.105,0.704 0.216,0.704 0.345,0.636C0.245,0.782 0.122,0.821 0.018,0.821C-0.005,0.821 -0.027,0.819 -0.048,0.816Z" style="fill:url(#arborec_Radial2);fill-rule:nonzero;"/>
    </g>
    <g transform="matrix(1.33333,0,0,1.33333,56.8119,55.9391)">
        <path d="M0,39.149C-0.09,39.199 -0.167,39.25 -0.244,39.288L-0.257,39.3C-2.186,40.446 -4.449,41.201 -4.385,41.453C-4.333,41.667 -3.009,41.604 -1.89,41.125C-6.867,46.135 -13.206,48.162 -19.983,46.828C-29.37,44.977 -37.869,37.009 -40.659,27.43C-43.116,18.995 -40.942,10.637 -34.526,3.625C-34.796,4.343 -34.873,6.181 -34.603,6.206C-34.333,6.206 -33.266,2.883 -32.263,1.334C-32.263,1.322 -32.25,1.309 -32.25,1.309C-29.652,-2.631 -24.74,-6.571 -19.803,-7.415C-16.395,-7.994 -11.714,-7.339 -8.075,-1.397C-11.933,-3.663 -15.251,-3.676 -17.758,-1.41L-18.247,-0.969L-17.668,-0.655C-17.359,-0.491 -17.051,-0.34 -16.729,-0.176C-15.688,0.327 -14.608,0.843 -13.72,1.951C-18.195,0.994 -23.493,0.743 -25.692,3.99L-25.769,4.179C-28.315,21.941 -19.79,31.659 -10.223,33.409C-3.87,34.567 3.42,32.112 6.121,25.327C7.047,33.119 3.215,37.16 0,39.149M6.738,23.162L6.301,21.047L5.799,23.149C3.948,30.841 -3.575,33.673 -10.043,32.49C-19.147,30.816 -27.235,21.488 -24.83,4.418C-22.593,1.284 -16.331,2.266 -12.782,3.134L-11.74,3.386L-12.242,2.455C-13.36,0.39 -14.929,-0.365 -16.305,-1.032C-16.395,-1.07 -16.472,-1.108 -16.562,-1.158C-14.119,-2.92 -10.904,-2.379 -7.008,0.44L-5.426,1.599L-6.288,-0.139C-10.287,-8.157 -15.932,-9.026 -19.957,-8.333C-25.268,-7.44 -30.398,-3.323 -33.111,0.869C-41.392,8.522 -44.389,18.039 -41.585,27.694C-38.692,37.588 -29.897,45.846 -20.175,47.759C-18.748,48.036 -17.334,48.175 -15.945,48.175C-9.67,48.175 -3.935,45.317 0.514,39.879C4.231,37.538 8.705,32.666 6.738,23.162" style="fill:rgb(194,208,206);fill-rule:nonzero;"/>
    </g>
    <g transform="matrix(0,17.5044,17.5044,0,57.1318,70.3188)">
        <circle cx="-0" cy="-0" r="1" style="fill:url(#arborec_Radial3);"/>
    </g>
    <defs>
        <radialGradient id="arborec_Radial1" cx="0" cy="0" r="1" gradientUnits="userSpaceOnUse" gradientTransform="matrix(1,0,0,-1,0,0.160567)"><stop offset="0" style="stop-color:rgb(138,165,85);stop-opacity:1"/><stop offset="0.59" style="stop-color:rgb(103,132,71);stop-opacity:1"/><stop offset="1" style="stop-color:rgb(28,37,31);stop-opacity:1"/></radialGradient>
        <radialGradient id="arborec_Radial2" cx="0" cy="0" r="1" gradientUnits="userSpaceOnUse" gradientTransform="matrix(1,0,0,-1,0,-0.0224013)"><stop offset="0" style="stop-color:rgb(138,165,85);stop-opacity:1"/><stop offset="0.56" style="stop-color:rgb(103,132,71);stop-opacity:1"/><stop offset="1" style="stop-color:rgb(28,37,31);stop-opacity:1"/></radialGradient>
        <radialGradient id="arborec_Radial3" cx="0" cy="0" r="1" gradientUnits="userSpaceOnUse" gradientTransform="matrix(0,1,1,0,-3.414e-05,3.414e-05)"><stop offset="0" style="stop-color:rgb(120,140,134);stop-opacity:1"/><stop offset="1" style="stop-color:rgb(194,208,206);stop-opacity:1"/></radialGradient>
    </defs>
</svg>
