<?xml version="1.0" encoding="UTF-8" standalone="no"?>
<!DOCTYPE svg PUBLIC "-//W3C//DTD SVG 1.1//EN" "http://www.w3.org/Graphics/SVG/1.1/DTD/svg11.dtd">
<svg width="100%" height="100%" viewBox="0 0 188 186" version="1.1" xmlns="http://www.w3.org/2000/svg" xmlns:xlink="http://www.w3.org/1999/xlink" xml:space="preserve" xmlns:serif="http://www.serif.com/" style="fill-rule:evenodd;clip-rule:evenodd;stroke-linejoin:round;stroke-miterlimit:2;">
    <g transform="matrix(-17.405,85.2555,85.2555,17.405,-30.5279,157.127)">
        <path d="M-0.39,0.424L0.169,0.424L-0.526,1.042L-0.756,0.995L-0.39,0.424Z" style="fill:url(#_Radial1);fill-rule:nonzero;"/>
    </g>
    <g transform="matrix(1.33333,0,0,1.33333,69.2507,183.115)">
        <path d="M0,-56.756L-3.587,-55.372L-42.456,-40.372L-43.802,-39.852L-44.09,-38.439L-50.55,-6.796L-51.938,0L-46.385,-4.158L-1.057,-38.099L0,-38.89L0,-56.756ZM-2.637,-52.911L-2.637,-40.21L-47.966,-6.269L-41.506,-37.911L-2.637,-52.911Z" style="fill:rgb(209,211,212);fill-rule:nonzero;"/>
    </g>
    <g transform="matrix(67.0079,54.0622,54.0622,-67.0079,87.5874,92.6217)">
        <path d="M0.234,-0.228L0.92,-0.228L1.225,0.247L0.319,-0.008L0.234,-0.228Z" style="fill:url(#_Radial2);fill-rule:nonzero;"/>
    </g>
    <g transform="matrix(1.33333,0,0,1.33333,108.445,159.642)">
        <path d="M0,-38.414L-1.143,-37.754L-12.142,-31.404L-15.472,-29.481L-12.48,-27.067L19.945,-0.906L21.068,0L22.436,-0.457L53.069,-10.683L59.649,-12.88L53.272,-15.61L1.213,-37.895L0,-38.414ZM0.176,-35.47L52.234,-13.185L21.601,-2.958L-10.824,-29.12L0.176,-35.47Z" style="fill:rgb(209,211,212);fill-rule:nonzero;"/>
    </g>
    <g transform="matrix(82.8047,36.0457,36.0457,-82.8047,90.4634,108.32)">
        <path d="M-0.911,-0.115L-0.461,-0.115L-0.42,0.111L-0.691,0.181L-0.911,-0.115Z" style="fill:url(#_Radial3);fill-rule:nonzero;"/>
    </g>
    <g transform="matrix(1.33333,0,0,1.33333,39.9096,103.386)">
        <path d="M0,-27.82L-1.542,-26.935L-20.156,-16.26L-24.709,-13.649L-19.896,-11.554L4.63,-0.879L6.648,0L7.873,-1.829L15.209,-12.778L16.571,-14.81L14.647,-16.321L1.398,-26.722L0,-27.82ZM-0.23,-24.648L13.018,-14.246L5.682,-3.297L-18.843,-13.972L-0.23,-24.648Z" style="fill:rgb(209,211,212);fill-rule:nonzero;"/>
    </g>
    <g transform="matrix(77.6026,45.0986,45.0986,-77.6026,36.5751,180.462)">
        <path d="M0.226,0.325L0.597,0.325L0.326,0.689L0.12,0.586L0.226,0.325Z" style="fill:url(#_Radial4);fill-rule:nonzero;"/>
    </g>
    <g transform="matrix(1.33333,0,0,1.33333,70.8265,185.401)">
        <path d="M0,-35.168L-0.346,-32.747L-2.73,-16.073L-2.982,-14.312L-1.444,-13.419L17.107,-2.637L21.645,0L21.053,-5.215L18.035,-31.792L17.787,-33.98L15.59,-34.126L2.441,-35.005L0,-35.168ZM2.265,-32.373L15.415,-31.495L18.432,-4.918L-0.119,-15.699L2.265,-32.373Z" style="fill:rgb(209,211,212);fill-rule:nonzero;"/>
    </g>
    <g transform="matrix(75.168,43.4026,43.4026,-75.168,133.288,25.6252)">
        <path d="M-0.283,-0.951L-0.049,-0.951L-0.294,-0.316L-0.843,-0.204L-0.283,-0.951Z" style="fill:url(#_Radial5);fill-rule:nonzero;"/>
    </g>
    <g transform="matrix(1.33333,0,0,1.33333,58.7875,97.8093)">
        <path d="M0,-73.357L0.824,-66.47L7.555,-10.243L7.711,-8.933L8.855,-8.272L19.854,-1.922L23.183,0L23.778,-3.798L30.222,-44.959L30.445,-46.385L29.365,-47.342L5.192,-68.757L0,-73.357ZM3.443,-66.783L27.616,-45.367L21.172,-4.206L10.173,-10.557L3.443,-66.783Z" style="fill:rgb(209,211,212);fill-rule:nonzero;"/>
    </g>
    <g transform="matrix(39.5438,80.4465,80.4465,-39.5438,162.34,32.5839)">
        <path d="M0.222,-0.814L0.453,-0.814L0.474,-0.533L0.141,-0.368L0.222,-0.814Z" style="fill:url(#_Radial6);fill-rule:nonzero;"/>
    </g>
    <g transform="matrix(1.33333,0,0,1.33333,140.113,103.433)">
        <path d="M0,-36.329L-4.221,-33.208L-25.728,-17.306L-27.498,-15.998L-26.527,-14.022L-20.713,-2.195L-19.634,0L-17.364,-0.91L-1.732,-7.183L-0.082,-7.845L-0.077,-9.623L-0.015,-31.08L0,-36.329ZM-2.653,-31.088L-2.714,-9.631L-18.346,-3.358L-24.16,-15.186L-2.653,-31.088Z" style="fill:rgb(209,211,212);fill-rule:nonzero;"/>
    </g>
    <defs>
        <radialGradient id="_Radial1" cx="0" cy="0" r="1" gradientUnits="userSpaceOnUse" gradientTransform="matrix(0.323224,0.946322,0.946322,-0.323224,-0.848926,1.18704)"><stop offset="0" style="stop-color:rgb(251,221,86);stop-opacity:1"/><stop offset="0" style="stop-color:rgb(251,221,86);stop-opacity:1"/><stop offset="0.66" style="stop-color:rgb(247,151,84);stop-opacity:1"/><stop offset="1" style="stop-color:rgb(122,88,81);stop-opacity:1"/></radialGradient>
        <radialGradient id="_Radial2" cx="0" cy="0" r="1" gradientUnits="userSpaceOnUse" gradientTransform="matrix(0.989015,0.147813,0.147813,-0.989015,0.0141101,-0.18987)"><stop offset="0" style="stop-color:rgb(251,221,86);stop-opacity:1"/><stop offset="0" style="stop-color:rgb(251,221,86);stop-opacity:1"/><stop offset="0.66" style="stop-color:rgb(247,151,84);stop-opacity:1"/><stop offset="1" style="stop-color:rgb(122,88,81);stop-opacity:1"/></radialGradient>
        <radialGradient id="_Radial3" cx="0" cy="0" r="1" gradientUnits="userSpaceOnUse" gradientTransform="matrix(0.992815,-0.11966,-0.11966,-0.992815,-0.00277983,-0.046295)"><stop offset="0" style="stop-color:rgb(251,221,86);stop-opacity:1"/><stop offset="0" style="stop-color:rgb(251,221,86);stop-opacity:1"/><stop offset="0.66" style="stop-color:rgb(247,151,84);stop-opacity:1"/><stop offset="1" style="stop-color:rgb(122,88,81);stop-opacity:1"/></radialGradient>
        <radialGradient id="_Radial4" cx="0" cy="0" r="1" gradientUnits="userSpaceOnUse" gradientTransform="matrix(0.999992,-0.0040759,-0.0040759,-0.999992,0.00206784,1.01466)"><stop offset="0" style="stop-color:rgb(251,221,86);stop-opacity:1"/><stop offset="0" style="stop-color:rgb(251,221,86);stop-opacity:1"/><stop offset="0.66" style="stop-color:rgb(247,151,84);stop-opacity:1"/><stop offset="1" style="stop-color:rgb(122,88,81);stop-opacity:1"/></radialGradient>
        <radialGradient id="_Radial5" cx="0" cy="0" r="1" gradientUnits="userSpaceOnUse" gradientTransform="matrix(0.999976,-0.00687641,-0.00687641,-0.999976,-0.00398751,-1.15975)"><stop offset="0" style="stop-color:rgb(251,221,86);stop-opacity:1"/><stop offset="0" style="stop-color:rgb(251,221,86);stop-opacity:1"/><stop offset="0.66" style="stop-color:rgb(247,151,84);stop-opacity:1"/><stop offset="1" style="stop-color:rgb(122,88,81);stop-opacity:1"/></radialGradient>
        <radialGradient id="_Radial6" cx="0" cy="0" r="1" gradientUnits="userSpaceOnUse" gradientTransform="matrix(0.83459,0.550872,0.550872,-0.83459,0.374984,-1.24882)"><stop offset="0" style="stop-color:rgb(251,221,86);stop-opacity:1"/><stop offset="0" style="stop-color:rgb(251,221,86);stop-opacity:1"/><stop offset="0.66" style="stop-color:rgb(247,151,84);stop-opacity:1"/><stop offset="1" style="stop-color:rgb(122,88,81);stop-opacity:1"/></radialGradient>
    </defs>
</svg>
