<?xml version="1.0" encoding="UTF-8" standalone="no"?>
<!DOCTYPE svg PUBLIC "-//W3C//DTD SVG 1.1//EN" "http://www.w3.org/Graphics/SVG/1.1/DTD/svg11.dtd">
<svg width="100%" height="100%" viewBox="0 0 213 219" version="1.1" xmlns="http://www.w3.org/2000/svg" xmlns:xlink="http://www.w3.org/1999/xlink" xml:space="preserve" xmlns:serif="http://www.serif.com/" style="fill-rule:evenodd;clip-rule:evenodd;stroke-miterlimit:10;">
    <g transform="matrix(1.33333,0,0,1.33333,106.349,88.0055)">
        <path d="M0,27.544C-15.113,27.544 -27.355,15.302 -27.355,0.189C-27.355,-1.354 -27.246,-2.871 -26.975,-4.333C-18.931,-7.556 -9.75,-9.371 0,-9.371C9.777,-9.371 18.958,-7.556 27.002,-4.333C27.273,-2.871 27.381,-1.354 27.381,0.189C27.381,15.302 15.14,27.544 0,27.544M44.444,-14.3C35.127,-29.034 18.715,-38.784 0.027,-38.784C-18.688,-38.784 -35.1,-29.034 -44.417,-14.3C-49.563,-6.202 -52.542,3.44 -52.542,13.758C-52.542,14.517 -52.515,15.275 -52.461,16.033C-51.432,40.761 -33.313,61.073 -9.588,65.461C-6.473,66.03 -3.25,66.328 0.027,66.328C3.304,66.328 6.5,66.03 9.588,65.461C33.313,61.1 51.459,40.788 52.488,16.061C52.542,15.302 52.569,14.517 52.569,13.758C52.569,3.44 49.59,-6.202 44.444,-14.3" style="fill:rgb(147,149,152);fill-rule:nonzero;"/>
    </g>
    <g transform="matrix(1.33333,0,0,1.33333,106.349,88.0055)">
        <path d="M0,27.544C-15.113,27.544 -27.355,15.302 -27.355,0.189C-27.355,-1.354 -27.246,-2.871 -26.975,-4.333C-18.931,-7.556 -9.75,-9.371 0,-9.371C9.777,-9.371 18.958,-7.556 27.002,-4.333C27.273,-2.871 27.381,-1.354 27.381,0.189C27.381,15.302 15.14,27.544 0,27.544ZM44.444,-14.3C35.127,-29.034 18.715,-38.784 0.027,-38.784C-18.688,-38.784 -35.1,-29.034 -44.417,-14.3C-49.563,-6.202 -52.542,3.44 -52.542,13.758C-52.542,14.517 -52.515,15.275 -52.461,16.033C-51.432,40.761 -33.313,61.073 -9.588,65.461C-6.473,66.03 -3.25,66.328 0.027,66.328C3.304,66.328 6.5,66.03 9.588,65.461C33.313,61.1 51.459,40.788 52.488,16.061C52.542,15.302 52.569,14.517 52.569,13.758C52.569,3.44 49.59,-6.202 44.444,-14.3Z" style="fill:none;fill-rule:nonzero;stroke:rgb(209,211,212);stroke-width:5.42px;"/>
    </g>
    <g transform="matrix(1.33333,0,0,1.33333,142.858,111.985)">
        <path d="M0,-17.795C0,-2.682 -12.242,9.56 -27.381,9.56C-42.494,9.56 -54.736,-2.682 -54.736,-17.795C-54.736,-19.339 -54.628,-20.855 -54.357,-22.318C-46.313,-25.541 -37.132,-27.355 -27.381,-27.355C-17.604,-27.355 -8.423,-25.541 -0.379,-22.318C-0.108,-20.855 0,-19.339 0,-17.795" style="fill:rgb(35,31,32);fill-rule:nonzero;"/>
    </g>
    <g transform="matrix(87.4501,-1.42015,-1.42015,-87.4501,107.277,145.791)">
        <path d="M-0.972,0.78C-0.976,0.778 -0.981,0.775 -0.985,0.773L-0.858,0.47L-0.385,0.113L-0.021,-0.619L0.367,0.101L0.852,0.442L0.989,0.741C0.985,0.743 0.98,0.746 0.976,0.748C0.753,0.873 0.402,0.957 0.005,0.963C-0.391,0.97 -0.746,0.898 -0.972,0.78ZM-0.417,0.665C-0.416,0.688 -0.414,0.711 -0.41,0.734C-0.287,0.781 -0.146,0.806 0.002,0.804C0.151,0.801 0.291,0.771 0.413,0.72C0.417,0.698 0.418,0.675 0.417,0.651C0.414,0.421 0.224,0.237 -0.007,0.241C-0.237,0.245 -0.421,0.434 -0.417,0.665Z" style="fill:url(#_Radial1);fill-rule:nonzero;"/>
    </g>
    <g transform="matrix(1.33333,0,0,1.33333,106.349,136.756)">
        <path d="M0,-9.019C-15.113,-9.019 -27.355,-21.261 -27.355,-36.374C-27.355,-37.917 -27.246,-39.434 -26.975,-40.896C-18.931,-44.119 -9.75,-45.934 0,-45.934C9.777,-45.934 18.958,-44.119 27.002,-40.896C27.273,-39.434 27.381,-37.917 27.381,-36.374C27.381,-21.261 15.14,-9.019 0,-9.019ZM63.89,-43.334C49.184,-51.297 26.027,-56.415 0,-56.415C-26,-56.415 -49.157,-51.297 -63.863,-43.334C-64.161,-43.198 -64.459,-43.036 -64.73,-42.873L-56.09,-23.157L-24.646,-0.244L0,47.396L24.646,-0.217L56.117,-23.13L64.757,-42.873C64.486,-43.036 64.188,-43.198 63.89,-43.334Z" style="fill:none;fill-rule:nonzero;stroke:rgb(209,211,212);stroke-width:2.71px;"/>
    </g>
    <defs>
        <radialGradient id="_Radial1" cx="0" cy="0" r="1" gradientUnits="userSpaceOnUse" gradientTransform="matrix(1,0,0,-1,0,0.350842)"><stop offset="0" style="stop-color:rgb(124,72,139);stop-opacity:1"/><stop offset="0" style="stop-color:rgb(124,72,139);stop-opacity:1"/><stop offset="1" style="stop-color:rgb(61,43,79);stop-opacity:1"/></radialGradient>
    </defs>
</svg>
