<?xml version="1.0" encoding="UTF-8" standalone="no"?>
<!DOCTYPE svg PUBLIC "-//W3C//DTD SVG 1.1//EN" "http://www.w3.org/Graphics/SVG/1.1/DTD/svg11.dtd">
<svg width="100%" height="100%" viewBox="0 0 186 210" version="1.1" xmlns="http://www.w3.org/2000/svg" xmlns:xlink="http://www.w3.org/1999/xlink" xml:space="preserve" xmlns:serif="http://www.serif.com/" style="fill-rule:evenodd;clip-rule:evenodd;stroke-linejoin:round;stroke-miterlimit:2;">
    <g transform="matrix(1.42109e-14,37.8006,37.8006,-1.42109e-14,94.0004,84.5044)">
        <circle cx="0.364" cy="-0.028" r="0.672" style="fill:url(#keleres_Radial1);"/>
    </g>
    <g transform="matrix(1.33333,0,0,1.33333,88.9555,17.4653)">
        <path d="M0,24.208L0,-13.099C0,-13.099 -0.586,-12.283 -8.169,-3.318L-8.169,6.268C-8.169,12.275 -8.008,13.397 -17.606,18.306C-26.416,22.811 -26.557,37.307 -26.557,37.307L0,24.208Z" style="fill:rgb(184,175,167);fill-rule:nonzero;"/>
    </g>
    <g transform="matrix(1.33333,0,0,1.33333,96.9236,15.184)">
        <path d="M0,25.919L0,-11.388C0,-11.388 0.586,-10.572 8.169,-1.607L8.169,7.979C8.169,13.986 8.008,15.108 17.606,20.017C26.416,24.522 26.404,37.307 26.404,37.307L0,25.919Z" style="fill:rgb(184,175,167);fill-rule:nonzero;"/>
    </g>
    <g transform="matrix(1.33333,0,0,1.33333,92.9477,123.235)">
        <path d="M0,9.964L-0.008,9.964L0.069,9.964C15.912,9.964 28.754,-4.047 28.754,-21.321C28.754,-37.526 17.458,-50.852 2.985,-52.445L2.985,-54.499C12.003,-52.537 38.741,-44.912 37.656,-23.753C37.187,-14.612 32.178,-17.089 31.224,-9.949C29.616,2.093 12.288,11.672 10.595,23.652C9.456,31.693 12.511,50.39 12.511,50.39C8.048,50.683 0.862,63.063 0.069,64.463L-0.008,64.463C-0.8,63.063 -7.987,50.683 -12.449,50.39C-12.449,50.39 -11.342,33.876 -11.09,25.759C-10.731,14.227 -30.3,0.809 -31.908,-11.232C-32.863,-18.373 -37.125,-14.612 -37.595,-23.753C-38.672,-44.858 -12.072,-52.499 -2.993,-54.484L-2.993,-52.437C-14.333,-52.606 -28.884,-33.935 -28.692,-21.321C-28.429,-4.049 -15.85,9.964 -0.008,9.964" style="fill:rgb(184,175,167);fill-rule:nonzero;"/>
    </g>
    <g transform="matrix(1.33333,0,0,1.33333,95.4509,58.0584)">
        <path d="M0,-10.872C9.903,-10.449 19.651,-6.825 26.753,0L26.876,-0.008C19.744,-6.863 9.949,-10.48 0,-10.872M-30.647,-0.008C-30.654,-0.008 -30.654,-0.008 -30.662,0L-30.6,-0.008L-30.647,-0.008Z" style="fill:rgb(248,216,72);fill-rule:nonzero;"/>
    </g>
    <g transform="matrix(1.33333,0,0,1.33333,146.449,56.2092)">
        <path d="M0,47.607C1.154,44.445 1.939,41.113 2.301,37.651L15.873,24.078C16.458,27.656 16.681,31.434 16.543,35.127C12.896,41.352 6.971,45.945 0,47.607M-1.67,18.445C-1.685,18.399 -1.7,18.353 -1.724,18.307L-1.623,18.338C-1.323,17.699 6.017,1.949 6.533,0.848C11.041,7.358 14.227,14.86 15.681,22.947C14.796,22.708 -1.246,18.438 -1.623,18.338L-1.67,18.445ZM-78.598,18.445L-78.644,18.338C-79.013,18.438 -95.064,22.708 -95.949,22.947C-94.494,14.86 -91.309,7.358 -86.8,0.848C-86.284,1.949 -78.944,17.699 -78.644,18.338L-78.544,18.307C-78.567,18.353 -78.582,18.399 -78.598,18.445M-96.81,35.127C-96.949,31.434 -96.718,27.656 -96.141,24.078L-82.568,37.651C-82.206,41.113 -81.422,44.445 -80.267,47.607C-87.239,45.945 -93.163,41.352 -96.81,35.127M-28.975,-22.569C-14.731,-19.719 -2.395,-11.518 5.825,-0.152L-11.372,1.379L-11.495,1.387C-18.597,-5.438 -28.346,-9.062 -38.249,-9.485C-39.497,-9.54 -40.77,-9.54 -42.019,-9.485C-51.921,-9.062 -61.655,-5.446 -68.757,1.372C-68.764,1.379 -68.764,1.379 -68.772,1.387L-68.849,1.379L-68.911,1.387C-68.903,1.379 -68.903,1.379 -68.895,1.379L-86.092,-0.152C-77.872,-11.519 -65.534,-19.72 -51.289,-22.569L-51.289,-25.376C-89.189,-18.849 -111.63,26.495 -92.778,60.472C-86.246,58.995 -78.744,59.187 -72.427,60.949C-68.01,66.073 -62.401,70.09 -56.046,72.644C-55.769,72.76 -55.484,72.875 -55.192,72.983C-55.253,72.583 -55.307,72.167 -55.415,71.798C-56.407,68.459 -58.392,64.512 -62.124,60.857C-83.153,40.297 -77.413,5.573 -46.158,-1.121C-46.112,-1.129 -46.058,-1.144 -46.012,-1.152L-47.051,5.911L-33.216,5.911L-34.255,-1.152C-29.554,-0.16 -25.43,1.464 -21.883,3.58C-1.739,15.568 -0.231,43.352 -18.136,60.857C-21.875,64.512 -23.86,68.459 -24.853,71.798C-24.96,72.167 -25.014,72.583 -25.076,72.983C-24.784,72.875 -24.499,72.76 -24.222,72.644C-17.859,70.09 -12.257,66.073 -7.841,60.949C-1.516,59.187 5.986,58.995 12.511,60.472C31.362,26.496 8.93,-18.847 -28.975,-25.376L-28.975,-22.569Z" style="fill:rgb(248,216,72);fill-rule:nonzero;"/>
    </g>
    <g transform="matrix(1.33333,0,0,1.33333,84.9045,52.9393)">
        <path d="M0,1.331L-1.031,8.364L-0.893,8.364L0.146,1.3C0.1,1.308 0.046,1.323 0,1.331M-22.737,3.832C-22.744,3.832 -22.744,3.832 -22.752,3.839L-22.691,3.832L-22.598,3.824C-15.496,-2.993 -5.763,-6.61 4.14,-7.033C-5.809,-6.64 -15.604,-3.024 -22.737,3.832" style="fill:rgb(248,216,72);fill-rule:nonzero;"/>
    </g>
    <g transform="matrix(1.33333,0,0,1.33333,178.44,179.811)">
        <path d="M0,-73.634C0.166,-64.621 3.66,-47.094 -11.229,-23.627C-19.294,-10.917 -27.981,-4.1 -39.28,-3.174C-44.627,-2.735 -45.708,-10.274 -46.774,-16.585C-48.513,-8.55 -48.162,-2.356 -47.081,7.17C10.802,-7.673 8.932,-72.248 2.38,-80.804L0,-73.634" style="fill:rgb(184,175,167);fill-rule:nonzero;"/>
    </g>
    <g transform="matrix(1.33333,0,0,1.33333,7.43894,179.811)">
        <path d="M0,-73.634C-0.166,-64.621 -3.66,-47.094 11.229,-23.627C19.294,-10.917 27.981,-4.1 39.28,-3.174C44.627,-2.735 45.708,-10.274 46.774,-16.585C48.513,-8.55 48.162,-2.356 47.081,7.17C-10.802,-7.673 -8.932,-72.248 -2.38,-80.804L0,-73.634" style="fill:rgb(184,175,167);fill-rule:nonzero;"/>
    </g>
    <defs>
        <radialGradient id="keleres_Radial1" cx="0" cy="0" r="1" gradientUnits="userSpaceOnUse" gradientTransform="matrix(0.784149,-0.620572,-0.620572,-0.784149,0.0612178,0.176002)"><stop offset="0" style="stop-color:rgb(218,166,203);stop-opacity:1"/><stop offset="0.33" style="stop-color:rgb(142,39,134);stop-opacity:1"/><stop offset="1" style="stop-color:rgb(47,19,71);stop-opacity:1"/></radialGradient>
    </defs>
</svg>
