<?xml version="1.0" encoding="UTF-8" standalone="no"?>
<!DOCTYPE svg PUBLIC "-//W3C//DTD SVG 1.1//EN" "http://www.w3.org/Graphics/SVG/1.1/DTD/svg11.dtd">
<svg width="100%" height="100%" viewBox="0 0 123 210" version="1.1" xmlns="http://www.w3.org/2000/svg" xmlns:xlink="http://www.w3.org/1999/xlink" xml:space="preserve" xmlns:serif="http://www.serif.com/" style="fill-rule:evenodd;clip-rule:evenodd;stroke-linejoin:round;stroke-miterlimit:2;">
    <g transform="matrix(0,209.186,209.186,0,64.6561,-0.000289067)">
        <path d="M0,-0.035C0,-0.074 0.03,-0.103 0.101,-0.105C0.045,-0.059 0.071,-0.027 0.095,-0.018C0.185,0.015 0.379,-0.314 0.581,-0.309C0.727,-0.305 0.822,-0.167 0.851,-0.123C1.014,-0.163 1,0.057 1,0.057C0.868,-0.037 0.876,0.275 0.612,0.275C0.499,0.275 0.471,0.211 0.433,0.148C0.263,0.297 0.001,0.085 0,-0.034L0,-0.035ZM0.676,-0.154C0.559,-0.154 0.396,0.148 0.343,-0.022C0.342,0.061 0.412,0.118 0.5,0.126C0.71,0.147 0.71,-0.16 0.84,-0.02C0.814,-0.084 0.758,-0.154 0.676,-0.154ZM0.612,-0.059C0.641,-0.081 0.683,-0.067 0.703,-0.046C0.646,-0.045 0.612,0.026 0.585,0.046C0.551,0.071 0.478,0.049 0.474,0.021C0.534,0.046 0.556,-0.016 0.612,-0.059Z" style="fill:url(#_Linear1);fill-rule:nonzero;"/>
    </g>
    <defs>
        <linearGradient id="_Linear1" x1="0" y1="0" x2="1" y2="0" gradientUnits="userSpaceOnUse" gradientTransform="matrix(1,0,0,-1,0,-0.0170721)"><stop offset="0" style="stop-color:rgb(59,48,40);stop-opacity:1"/><stop offset="0.38" style="stop-color:rgb(223,169,48);stop-opacity:1"/><stop offset="0.72" style="stop-color:rgb(196,79,68);stop-opacity:1"/><stop offset="1" style="stop-color:rgb(137,56,58);stop-opacity:1"/></linearGradient>
    </defs>
</svg>
