<?xml version="1.0" encoding="UTF-8" standalone="no"?>
<!DOCTYPE svg PUBLIC "-//W3C//DTD SVG 1.1//EN" "http://www.w3.org/Graphics/SVG/1.1/DTD/svg11.dtd">
<svg width="100%" height="100%" viewBox="0 0 207 150" version="1.1" xmlns="http://www.w3.org/2000/svg" xmlns:xlink="http://www.w3.org/1999/xlink" xml:space="preserve" xmlns:serif="http://www.serif.com/" style="fill-rule:evenodd;clip-rule:evenodd;stroke-linejoin:round;stroke-miterlimit:2;">
    <g transform="matrix(103.2,0,0,-77.0099,106.269,78.7362)">
        <path d="M-0.906,0.96C-0.906,0.958 -0.981,0.742 -0.839,0.525C-0.942,0.447 -1.009,0.311 -1.018,0.159C-1.028,-0.02 -0.96,-0.199 -0.829,-0.332C-0.932,-0.561 -0.915,-0.844 -0.915,-0.856L-0.912,-0.887L-0.896,-0.865C-0.894,-0.863 -0.736,-0.66 -0.436,-0.66C-0.367,-0.66 -0.295,-0.671 -0.221,-0.692L-0.208,-0.696L-0.205,-0.377L-0.214,-0.375C-0.45,-0.32 -0.656,-0.159 -0.81,0.09C-0.654,0.311 -0.449,0.456 -0.216,0.511L-0.208,0.513L-0.204,0.9L-0.22,0.888C-0.295,0.834 -0.371,0.808 -0.451,0.808C-0.582,0.808 -0.715,0.877 -0.871,0.956L-0.901,0.972L-0.906,0.96Z" style="fill:url(#_Radial1);fill-rule:nonzero;"/>
    </g>
    <g transform="matrix(1.33333,0,0,1.33333,12.6926,149.515)">
        <path d="M0,-110.292L-0.673,-108.896C-0.927,-108.368 -6.543,-96.305 3.923,-83.623C-3.8,-78.909 -8.745,-71.087 -9.435,-62.325C-10.258,-51.881 -5.035,-41.517 4.938,-33.688C-2.803,-20.347 -1.502,-4.262 -1.441,-3.562L-1.129,0L1.421,-2.507C1.537,-2.621 13.582,-14.115 36.451,-14.115C41.739,-14.114 47.26,-13.502 52.865,-12.293L54.878,-11.86L54.906,-13.918L55.134,-30.556L55.153,-31.991L53.739,-32.24C35.929,-35.364 20.37,-44.341 8.65,-58.235C20.518,-70.547 36.018,-78.669 53.572,-81.758L54.948,-82L54.965,-83.397L55.21,-103.626L55.244,-106.483L52.727,-105.132C47.04,-102.079 41.325,-100.595 35.256,-100.595C25.324,-100.595 15.028,-104.538 3.106,-109.104L1.448,-109.739L0,-110.292ZM0.846,-108.164C13.74,-103.234 24.551,-98.909 35.256,-98.909C41.262,-98.909 47.233,-100.269 53.524,-103.646L53.28,-83.418C36.178,-80.409 19.473,-72.385 6.4,-58.309C19.043,-42.758 35.816,-33.672 53.448,-30.579L53.221,-13.941C47.117,-15.257 41.523,-15.8 36.456,-15.8C12.534,-15.802 0.239,-3.709 0.239,-3.709C0.239,-3.709 -1.262,-20.861 7.167,-34.111C-14.511,-50.066 -10.895,-74.146 6.56,-83.173C-5.147,-95.732 0.846,-108.164 0.846,-108.164" style="fill:rgb(145,132,91);fill-rule:nonzero;"/>
    </g>
    <g transform="matrix(103.199,0,0,-77.0091,102.779,74.0701)">
        <path d="M0.894,0.926C0.892,0.924 0.68,0.748 0.445,0.748C0.369,0.748 0.299,0.766 0.235,0.802L0.221,0.81L0.21,0.454L0.219,0.452C0.464,0.396 0.671,0.24 0.791,0.023C0.644,-0.202 0.45,-0.355 0.231,-0.422L0.222,-0.424L0.216,-0.78L0.233,-0.766C0.233,-0.766 0.312,-0.703 0.447,-0.703C0.587,-0.703 0.735,-0.768 0.886,-0.897L0.897,-0.906L0.902,-0.889C0.903,-0.887 0.974,-0.626 0.822,-0.381C0.97,-0.221 0.998,-0.056 0.995,0.055C0.992,0.202 0.93,0.349 0.833,0.443C0.859,0.491 0.941,0.669 0.91,0.916L0.908,0.938L0.894,0.926Z" style="fill:url(#_Radial2);fill-rule:nonzero;"/>
    </g>
    <g transform="matrix(1.33333,0,0,1.33333,197.29,145.539)">
        <path d="M0,-109.154L-2.144,-107.805C-2.306,-107.703 -18.531,-97.625 -36.448,-97.625C-42.19,-97.625 -47.542,-98.662 -52.355,-100.707L-54.601,-101.662L-54.698,-99.222L-55.44,-80.587L-55.499,-79.107L-54.039,-78.858C-35.634,-75.718 -19.949,-67.052 -10.758,-54.994C-21.961,-42.414 -36.613,-33.804 -53.216,-30.059L-54.497,-29.77L-54.53,-28.458L-55.002,-10.101L-55.082,-7.001L-52.437,-8.62C-52.383,-8.652 -46.458,-12.159 -36.285,-12.159C-25.584,-12.158 -14.302,-8.44 -2.747,-1.107L-1.003,0L-0.268,-1.932C-0.028,-2.565 5.325,-17.171 -6.077,-31.491C5.055,-40.77 7.198,-50.312 6.987,-56.789C6.711,-65.291 2.076,-73.798 -5.219,-79.37C-2.82,-82.99 2.686,-93.072 0.417,-106.656L0,-109.154ZM-1.246,-106.379C1.468,-90.129 -7.567,-78.986 -7.567,-78.986C5.683,-69.959 13.504,-48.888 -8.469,-31.727C3.879,-17.584 -1.844,-2.531 -1.844,-2.531C-15.803,-11.389 -27.551,-13.844 -36.281,-13.845C-47.128,-13.845 -53.317,-10.057 -53.317,-10.057L-52.845,-28.415C-36.14,-32.182 -20.437,-41.159 -8.595,-54.906C-18.17,-68.231 -34.884,-77.3 -53.755,-80.52L-53.014,-99.155C-47.557,-96.837 -41.911,-95.939 -36.448,-95.939C-17.803,-95.939 -1.246,-106.379 -1.246,-106.379" style="fill:rgb(145,132,91);fill-rule:nonzero;"/>
    </g>
    <g transform="matrix(88.5237,0,0,-178.739,96.1914,74.7219)">
        <path d="M-0.048,0.206C-0.08,0.204 -0.109,0.201 -0.138,0.199C-0.35,0.18 -0.539,0.138 -0.699,0.075C-0.73,0.062 -0.789,0.036 -0.811,0.025L-0.827,0.016L-0.796,-0.001C-0.723,-0.043 -0.619,-0.086 -0.524,-0.114C-0.401,-0.15 -0.278,-0.173 -0.135,-0.185C-0.099,-0.188 -0.062,-0.191 -0.022,-0.193C-0.014,-0.193 0.002,-0.194 0.025,-0.194C0.091,-0.194 0.197,-0.192 0.222,-0.19C0.263,-0.187 0.304,-0.183 0.342,-0.179C0.529,-0.158 0.687,-0.12 0.839,-0.06C0.86,-0.052 0.989,0.007 0.989,0.013C0.989,0.022 0.884,0.074 0.842,0.09C0.703,0.145 0.53,0.182 0.328,0.2C0.302,0.202 0.275,0.204 0.248,0.205C0.218,0.207 0.162,0.208 0.099,0.208C0.037,0.208 -0.018,0.207 -0.048,0.206ZM-0.359,0.016C-0.263,0.07 -0.113,0.099 0.064,0.099C0.25,0.099 0.434,0.066 0.517,0.018C0.367,-0.036 0.224,-0.062 0.08,-0.062C-0.06,-0.062 -0.204,-0.037 -0.359,0.016Z" style="fill:url(#_Radial3);fill-rule:nonzero;"/>
    </g>
    <g transform="matrix(1.33333,0,0,1.33333,65.2819,75.0329)">
        <path d="M0,-2.464C6.28,-9.333 15.985,-13.104 27.453,-13.105C39.423,-13.105 51.323,-8.881 56.861,-2.749C47.134,4.269 37.85,7.682 28.503,7.682C19.404,7.682 10.072,4.362 0,-2.464M29.761,-28.598C25.638,-28.598 21.957,-28.451 19.914,-28.205C17.792,-27.95 15.848,-27.658 13.973,-27.314C-0.197,-24.74 -12.799,-19.11 -23.48,-10.582C-25.585,-8.89 -29.495,-5.367 -30.954,-3.85L-31.766,-2.996L-32.295,-2.441L-31.792,-1.862L-29.975,0.228C-25.132,5.791 -18.176,11.598 -11.821,15.382C-3.639,20.25 4.614,23.307 14.151,25.004C16.516,25.441 18.987,25.785 21.699,26.053C22.235,26.107 23.301,26.134 24.868,26.134C29.238,26.134 36.282,25.919 37.968,25.677C40.747,25.277 43.451,24.778 46.007,24.194C58.46,21.355 68.993,16.254 79.154,8.139C80.627,6.967 83.278,4.499 85.1,2.743C89.275,-1.282 89.275,-1.57 89.275,-1.969C89.275,-3.522 81.714,-10.821 79.356,-12.683C70.028,-20.068 58.482,-25.018 45.041,-27.397C43.308,-27.704 41.518,-27.973 39.72,-28.197C37.679,-28.448 33.957,-28.598 29.761,-28.598M28.503,8.525C37.785,8.525 47.533,5.192 58.093,-2.605C52.763,-9.195 40.261,-13.948 27.453,-13.947C16.759,-13.947 5.852,-10.633 -1.263,-2.308C8.407,4.394 18.166,8.525 28.503,8.525M29.761,-27.755C33.622,-27.755 37.485,-27.623 39.616,-27.36C41.408,-27.137 43.167,-26.873 44.894,-26.567C58.242,-24.205 69.558,-19.365 78.834,-12.021C82.171,-9.387 88.432,-2.82 88.432,-1.969C88.432,-1.531 81.254,5.391 78.628,7.48C68.658,15.443 58.176,20.556 45.819,23.373C43.25,23.959 40.599,24.446 37.848,24.843C36.203,25.079 29.173,25.291 24.868,25.291C23.443,25.291 22.316,25.268 21.782,25.214C19.197,24.958 16.711,24.62 14.299,24.174C4.874,22.497 -3.378,19.424 -11.39,14.658C-17.7,10.9 -24.507,5.225 -29.339,-0.325L-31.156,-2.415L-30.346,-3.266C-28.901,-4.769 -24.977,-8.296 -22.954,-9.923C-12.381,-18.365 0.075,-23.932 14.125,-26.485C16.058,-26.84 18.024,-27.129 20.015,-27.369C22.162,-27.627 25.961,-27.755 29.761,-27.755" style="fill:rgb(145,132,91);fill-rule:nonzero;"/>
    </g>
    <defs>
        <radialGradient id="_Radial1" cx="0" cy="0" r="1" gradientUnits="userSpaceOnUse" gradientTransform="matrix(1,0,0,-1,0,0.0851654)"><stop offset="0" style="stop-color:rgb(196,215,122);stop-opacity:1"/><stop offset="0.7" style="stop-color:rgb(92,166,74);stop-opacity:1"/><stop offset="1" style="stop-color:rgb(73,92,46);stop-opacity:1"/></radialGradient>
        <radialGradient id="_Radial2" cx="0" cy="0" r="1" gradientUnits="userSpaceOnUse" gradientTransform="matrix(1,0,0,-1,0,0.0316799)"><stop offset="0" style="stop-color:rgb(196,215,122);stop-opacity:1"/><stop offset="0.7" style="stop-color:rgb(92,166,74);stop-opacity:1"/><stop offset="1" style="stop-color:rgb(73,92,46);stop-opacity:1"/></radialGradient>
        <radialGradient id="_Radial3" cx="0" cy="0" r="1" gradientUnits="userSpaceOnUse" gradientTransform="matrix(0.5,0.000108125,0.000241753,-1.11794,0.5,0.0147918)"><stop offset="0" style="stop-color:rgb(196,215,122);stop-opacity:1"/><stop offset="0.75" style="stop-color:rgb(92,166,74);stop-opacity:1"/><stop offset="1" style="stop-color:rgb(73,92,46);stop-opacity:1"/></radialGradient>
    </defs>
</svg>
