<?xml version="1.0" encoding="UTF-8" standalone="no"?>
<!DOCTYPE svg PUBLIC "-//W3C//DTD SVG 1.1//EN" "http://www.w3.org/Graphics/SVG/1.1/DTD/svg11.dtd">
<svg width="100%" height="100%" viewBox="0 0 198 210" version="1.1" xmlns="http://www.w3.org/2000/svg" xmlns:xlink="http://www.w3.org/1999/xlink" xml:space="preserve" xmlns:serif="http://www.serif.com/" style="fill-rule:evenodd;clip-rule:evenodd;stroke-linejoin:round;stroke-miterlimit:2;">
    <g transform="matrix(0,-121.847,-121.847,0,90.4888,119.385)">
        <path d="M0.722,0.443C0.723,0.434 0.723,0.425 0.723,0.416C0.723,0.352 0.701,0.305 0.656,0.276C0.578,0.225 0.446,0.245 0.355,0.285C0.349,0.28 0.342,0.272 0.332,0.262C0.277,0.202 0.163,0.076 0.062,0.092L0.052,0.094L0.061,0.1C0.128,0.145 0.198,0.207 0.198,0.316C0.198,0.32 0.197,0.324 0.197,0.327C0.174,0.285 0.139,0.266 0.096,0.274C-0.009,0.294 -0.125,0.469 -0.139,0.73C-0.201,0.635 -0.233,0.515 -0.233,0.374C-0.233,0.243 -0.204,0.14 -0.204,0.139L-0.203,0.137L-0.205,0.135C-0.207,0.134 -0.369,-0.01 -0.716,0.052C-0.376,-0.149 -0.138,-0.098 -0.136,-0.098L-0.133,-0.097L-0.131,-0.1C-0.129,-0.106 0.102,-0.705 0.223,-0.736C0.298,-0.755 0.429,-0.709 0.479,-0.549C0.391,-0.569 0.322,-0.559 0.275,-0.521C0.233,-0.488 0.21,-0.433 0.21,-0.365L0.21,-0.365C0.21,-0.322 0.219,-0.279 0.236,-0.241C0.1,-0.156 0.063,-0.089 0.061,-0.086L0.059,-0.081L0.064,-0.08C0.433,-0.037 0.863,0.087 0.863,0.294C0.863,0.322 0.852,0.413 0.722,0.443Z" style="fill:url(#_Radial1);fill-rule:nonzero;"/>
    </g>
    <g transform="matrix(1.33333,0,0,1.33333,54.6373,209.185)">
        <path d="M0,-146.562C-4.895,-146.531 -11.814,-143.609 -14.029,-132.903C-13.028,-133.005 -12.073,-133.054 -11.169,-133.054C7.487,-133.054 5.886,-112.001 0.369,-99.677C2.865,-96.879 19.812,-83.925 18.09,-73.096C14.528,-78.367 8.742,-85.773 -1.974,-85.773C-2.765,-85.773 -3.584,-85.733 -4.43,-85.648C11.368,-78.755 -4.799,-56.483 -40.978,-55.007C-30.396,-47.667 -17.788,-45.694 -7.292,-45.694C4.914,-45.694 14.265,-48.361 14.265,-48.361C14.265,-48.361 28.057,-33.225 21.412,0C41.348,-32.487 36.179,-55.007 36.179,-55.007C36.179,-55.007 91.555,-76.234 94.509,-87.679C96.204,-94.247 92.294,-107.06 76.604,-111.675C80.865,-93.12 70.714,-86.926 60.223,-86.926C56.173,-86.926 52.073,-87.849 48.731,-89.34C40.855,-76.665 34.583,-73.281 34.583,-73.281C31.209,-101.892 20.428,-146.562 0,-146.562M0.004,-145.824C10.924,-145.82 18.535,-131.989 22.998,-120.385C29.88,-102.491 32.879,-81.422 33.85,-73.194L33.977,-72.115L34.933,-72.631C35.193,-72.771 41.291,-76.155 49.021,-88.411C52.468,-86.974 56.419,-86.188 60.223,-86.188C66.527,-86.188 71.716,-88.343 74.833,-92.257C78.253,-96.552 79.18,-102.715 77.593,-110.59C91.441,-105.954 95.486,-94.42 93.794,-87.863C91.533,-79.103 54.945,-62.991 35.915,-55.696L35.317,-55.466L35.459,-54.842C35.508,-54.628 39.956,-33.837 22.862,-3.896C27.688,-34.298 15.36,-48.256 14.811,-48.859L14.502,-49.197L14.063,-49.072C13.97,-49.045 4.659,-46.432 -7.292,-46.432C-19.66,-46.432 -30.211,-49.108 -38.696,-54.389C-15.301,-55.942 0.39,-66.442 2.192,-76.058C2.87,-79.676 1.44,-82.845 -1.773,-85.034C7.889,-84.949 13.379,-78.749 17.478,-72.683L18.525,-71.133L18.819,-72.98C20.312,-82.366 8.769,-92.914 3.222,-97.983C2.391,-98.742 1.697,-99.376 1.243,-99.83C4.881,-108.242 6.628,-120.336 1.967,-127.529C-0.726,-131.685 -5.146,-133.793 -11.169,-133.793C-11.789,-133.793 -12.43,-133.77 -13.086,-133.724C-10.356,-144.872 -2.419,-145.808 0.004,-145.824" style="fill:rgb(35,31,32);fill-rule:nonzero;"/>
    </g>
    <g transform="matrix(10.6369,118.88,118.88,-10.6369,96.1572,139.59)">
        <path d="M-0.024,0.08C-0.004,0.163 0.091,0.553 0.16,0.709C0.134,0.717 0.01,0.761 -0.024,0.846C-0.065,0.77 -0.21,0.69 -0.235,0.677C-0.151,0.514 -0.046,0.158 -0.024,0.08Z" style="fill:url(#_Radial2);fill-rule:nonzero;"/>
    </g>
    <g transform="matrix(1.33333,0,0,1.33333,174.249,151.687)">
        <path d="M0,-35.963C-15.408,-26.009 -53.05,-11.68 -53.05,-11.68C-53.05,-11.68 -9.711,-5.508 6.179,0C6.179,0 9.082,-14.52 17.61,-17.981C9.895,-20.476 0,-35.963 0,-35.963M-0.219,-34.948C1.607,-32.192 9.108,-21.307 15.833,-17.924C9.207,-14.039 6.352,-3.939 5.638,-0.962C-8.27,-5.551 -40.522,-10.562 -50.172,-12.003C-41.488,-15.4 -13.431,-26.628 -0.219,-34.948" style="fill:rgb(35,31,32);fill-rule:nonzero;"/>
    </g>
    <g transform="matrix(10.0652,119.771,119.771,-10.0652,87.0817,-18.1508)">
        <path d="M0.388,-0.088C0.554,-0.015 0.904,0.022 0.981,0.029C0.905,0.065 0.537,0.239 0.388,0.317C0.375,0.296 0.301,0.181 0.172,0.134C0.303,0.053 0.376,-0.067 0.388,-0.088Z" style="fill:url(#_Radial3);fill-rule:nonzero;"/>
    </g>
    <g transform="matrix(1.33333,0,0,1.33333,104.859,100.895)">
        <path d="M0,-75.671C-6.901,-61.653 -18.787,-53.897 -18.787,-53.897C-9.871,-37.866 -3.404,0 -3.404,0C-3.404,0 11.995,-41.525 18.54,-57.017C18.54,-57.017 5.528,-62.883 0,-75.671M-0.034,-73.982C5.121,-63.483 14.947,-57.985 17.587,-56.657C11.932,-43.156 0.233,-11.883 -3.158,-2.781C-4.798,-11.576 -10.478,-39.947 -17.821,-53.668C-15.451,-55.359 -6.127,-62.487 -0.034,-73.982" style="fill:rgb(35,31,32);fill-rule:nonzero;"/>
    </g>
    <defs>
        <radialGradient id="_Radial1" cx="0" cy="0" r="1" gradientUnits="userSpaceOnUse" gradientTransform="matrix(1,0,0,-1,0,-0.0248968)"><stop offset="0" style="stop-color:rgb(217,187,186);stop-opacity:1"/><stop offset="0.42" style="stop-color:rgb(188,75,74);stop-opacity:1"/><stop offset="1" style="stop-color:rgb(60,40,45);stop-opacity:1"/></radialGradient>
        <radialGradient id="_Radial2" cx="0" cy="0" r="1" gradientUnits="userSpaceOnUse" gradientTransform="matrix(-0.996021,0.0891199,0.0891199,0.996021,-0.157453,0.00703006)"><stop offset="0" style="stop-color:rgb(217,187,186);stop-opacity:1"/><stop offset="0.42" style="stop-color:rgb(188,75,74);stop-opacity:1"/><stop offset="1" style="stop-color:rgb(60,40,45);stop-opacity:1"/></radialGradient>
        <radialGradient id="_Radial3" cx="0" cy="0" r="1" gradientUnits="userSpaceOnUse" gradientTransform="matrix(-0.996487,0.0837417,0.0837417,0.996487,1.14578,-0.048059)"><stop offset="0" style="stop-color:rgb(217,187,186);stop-opacity:1"/><stop offset="0.42" style="stop-color:rgb(188,75,74);stop-opacity:1"/><stop offset="1" style="stop-color:rgb(60,40,45);stop-opacity:1"/></radialGradient>
    </defs>
</svg>
