<?xml version="1.0" encoding="UTF-8" standalone="no"?>
<!DOCTYPE svg PUBLIC "-//W3C//DTD SVG 1.1//EN" "http://www.w3.org/Graphics/SVG/1.1/DTD/svg11.dtd">
<svg width="100%" height="100%" viewBox="0 0 160 160" version="1.1" xmlns="http://www.w3.org/2000/svg" xmlns:xlink="http://www.w3.org/1999/xlink" xml:space="preserve" xmlns:serif="http://www.serif.com/" style="fill-rule:evenodd;clip-rule:evenodd;stroke-linejoin:round;stroke-miterlimit:2;">
    <g transform="matrix(0,-161.654,161.654,0,79.7199,160.342)">
        <ellipse cx="0.5" cy="-0" rx="0.492" ry="0.493" style="fill:url(#_Linear1);"/>
    </g>
    <g transform="matrix(-59.9828,-82.9828,82.9828,-59.9828,80.0365,100.955)">
        <path d="M0.78,0.001C0.754,-0.045 0.58,0.267 0.329,0.138C0.164,0.005 0.228,-0.335 0.377,-0.339C0.399,-0.341 0.51,-0.287 0.497,-0.24C0.5,-0.2 0.475,-0.17 0.451,-0.143C0.418,-0.105 0.39,-0.072 0.454,-0.028C0.504,0.004 0.794,-0.137 0.679,-0.264C0.463,-0.487 0.088,-0.631 -0.209,-0.365C-0.256,-0.314 0.218,-0.223 0.098,0.035C-0.002,0.221 -0.311,0.291 -0.325,0.074C-0.311,-0.059 -0.219,0.011 -0.155,0.028C-0.114,0.043 -0.061,-0.055 -0.086,-0.086C-0.086,-0.086 -0.247,-0.269 -0.357,-0.161C-0.589,0.069 -0.477,0.543 -0.05,0.699C-0.033,0.687 -0.044,0.617 -0.046,0.533C-0.048,0.391 -0.023,0.209 0.22,0.207C0.22,0.207 0.492,0.28 0.481,0.46C0.465,0.539 0.367,0.592 0.3,0.56C0.241,0.521 0.256,0.415 0.256,0.415C0.25,0.361 0.074,0.368 0.096,0.635C0.122,0.733 0.21,0.746 0.251,0.737C0.382,0.733 0.571,0.629 0.69,0.465C0.78,0.339 0.83,0.179 0.78,0.001Z" style="fill:url(#_Linear2);fill-rule:nonzero;"/>
    </g>
    <g transform="matrix(-1.33333,0,0,1.33333,122.846,102.12)">
        <path d="M0,-11.221C-3.099,-11.221 -5.611,-8.709 -5.611,-5.61C-5.611,-2.512 -3.099,0 0,0C3.099,0 5.611,-2.512 5.611,-5.61C5.611,-8.709 3.099,-11.221 0,-11.221" style="fill:rgb(105,49,55);fill-rule:nonzero;"/>
    </g>
    <g transform="matrix(-1.33333,0,0,1.33333,70.522,43.2555)">
        <path d="M0,-11.221C-3.099,-11.221 -5.611,-8.709 -5.611,-5.61C-5.611,-2.512 -3.099,0 0,0C3.099,0 5.611,-2.512 5.611,-5.61C5.611,-8.709 3.099,-11.221 0,-11.221" style="fill:rgb(105,49,55);fill-rule:nonzero;"/>
    </g>
    <g transform="matrix(-1.33333,0,0,1.33333,45.9952,116.836)">
        <path d="M0,-11.221C-3.099,-11.221 -5.611,-8.709 -5.611,-5.61C-5.611,-2.512 -3.099,0 0,0C3.099,0 5.611,-2.512 5.611,-5.61C5.611,-8.709 3.099,-11.221 0,-11.221" style="fill:rgb(105,49,55);fill-rule:nonzero;"/>
    </g>
    <defs>
        <linearGradient id="_Linear1" x1="0" y1="0" x2="1" y2="0" gradientUnits="userSpaceOnUse" gradientTransform="matrix(0,1,1,0,0.500001,-0.500001)"><stop offset="0" style="stop-color:rgb(65,36,35);stop-opacity:1"/><stop offset="1" style="stop-color:rgb(127,76,73);stop-opacity:1"/></linearGradient>
        <linearGradient id="_Linear2" x1="0" y1="0" x2="1" y2="0" gradientUnits="userSpaceOnUse" gradientTransform="matrix(1,0,0,-1,0,0.1153)"><stop offset="0" style="stop-color:rgb(159,185,59);stop-opacity:1"/><stop offset="1" style="stop-color:white;stop-opacity:1"/></linearGradient>
    </defs>
</svg>
