<?xml version="1.0" encoding="UTF-8"?>
<!DOCTYPE svg PUBLIC "-//W3C//DTD SVG 1.1//EN" "http://www.w3.org/Graphics/SVG/1.1/DTD/svg11.dtd">
<svg xmlns="http://www.w3.org/2000/svg" version="1.1" width="100%" viewBox="0 0 327 327" style="shape-rendering:geometricPrecision; text-rendering:geometricPrecision; image-rendering:optimizeQuality; fill-rule:evenodd; clip-rule:evenodd" xmlns:xlink="http://www.w3.org/1999/xlink">
<g><path style="opacity:0.698" fill="#3b3a3d" d="M 35.5,-0.5 C 131.833,-0.5 228.167,-0.5 324.5,-0.5C 324.5,84.8333 324.5,170.167 324.5,255.5C 324.5,261.833 324.5,268.167 324.5,274.5C 324.802,277.059 324.468,279.393 323.5,281.5C 323.08,188.305 323.08,94.9721 323.5,1.5C 306.1,0.506038 288.766,0.506038 271.5,1.5C 269.512,1.1729 267.512,0.839563 265.5,0.5C 260.775,1.37553 256.275,2.04219 252,2.5C 250.806,1.56974 249.473,0.903069 248,0.5C 244.127,1.23614 240.127,1.23614 236,0.5C 234.108,1.13003 232.441,2.13003 231,3.5C 229.54,1.57755 227.873,0.910888 226,1.5C 225.689,2.74247 226.189,3.74247 227.5,4.5C 225.345,5.00136 223.678,6.00136 222.5,7.5C 213.836,7.39346 204.836,7.22679 195.5,7C 193.236,6.76378 191.069,6.26378 189,5.5C 187.302,6.73296 185.302,7.39962 183,7.5C 171.225,7.19381 159.725,7.19381 148.5,7.5C 145.63,6.87799 142.796,6.21132 140,5.5C 139.399,7.35878 138.566,7.69211 137.5,6.5C 138.549,4.43718 138.216,2.43718 136.5,0.5C 135.808,1.02527 135.308,1.69194 135,2.5C 133,1.83333 131,1.16667 129,0.5C 124.864,0.680262 120.864,1.34693 117,2.5C 115.403,0.0394409 113.57,-0.127226 111.5,2C 112.074,3.91927 112.407,5.75261 112.5,7.5C 108.222,7.62345 103.889,7.29012 99.5,6.5C 99.225,2.89133 97.225,0.891328 93.5,0.5C 90.56,2.2938 87.8933,2.2938 85.5,0.5C 74.6979,0.598738 63.8645,0.598738 53,0.5C 46.8435,1.11833 40.6769,1.61833 34.5,2C 30.0859,3.76111 25.9193,5.92778 22,8.5C 21.3292,7.74756 20.4959,7.41423 19.5,7.5C 24.3603,3.88036 29.6936,1.2137 35.5,-0.5 Z"/></g>
<g><path style="opacity:0.004" fill="#e28b18" d="M 324.5,255.5 C 325.167,258.5 325.833,261.5 326.5,264.5C 326.5,266.167 326.5,267.833 326.5,269.5C 325.833,271.167 325.167,272.833 324.5,274.5C 324.5,268.167 324.5,261.833 324.5,255.5 Z"/></g>
<g><path style="opacity:1" fill="#161414" d="M 112.5,7.5 C 121.167,7.17999 129.5,6.84666 137.5,6.5C 138.566,7.69211 139.399,7.35878 140,5.5C 142.796,6.21132 145.63,6.87799 148.5,7.5C 159.725,7.19381 171.225,7.19381 183,7.5C 185.302,7.39962 187.302,6.73296 189,5.5C 191.069,6.26378 193.236,6.76378 195.5,7C 204.836,7.22679 213.836,7.39346 222.5,7.5C 232.598,7.15606 242.931,7.15606 253.5,7.5C 254.833,7.33333 256.167,7.16667 257.5,7C 257.167,6.66667 256.833,6.33333 256.5,6C 259.144,4.37462 261.811,4.54128 264.5,6.5C 267.07,5.38307 269.737,4.54974 272.5,4C 271.748,3.32924 271.414,2.4959 271.5,1.5C 288.766,0.506038 306.1,0.506038 323.5,1.5C 323.08,94.9721 323.08,188.305 323.5,281.5C 322.313,300.897 312.647,313.897 294.5,320.5C 289.552,321.072 284.552,320.405 279.5,318.5C 278.289,319.274 278.289,320.107 279.5,321C 272.174,321.5 264.841,321.666 257.5,321.5C 257.281,320.325 257.614,319.325 258.5,318.5C 260.936,319.891 261.602,319.391 260.5,317C 256.167,316.333 251.833,316.333 247.5,317C 248.711,317.893 248.711,318.726 247.5,319.5C 245.812,318.479 244.479,317.145 243.5,315.5C 247.042,315.813 250.375,315.479 253.5,314.5C 264.172,314.667 274.839,314.5 285.5,314C 302.352,309.986 312.019,299.486 314.5,282.5C 315.832,194.332 315.832,105.999 314.5,17.5C 313.893,17.6236 313.56,17.9569 313.5,18.5C 305.511,31.8056 297.511,45.1389 289.5,58.5C 284.727,61.9521 279.727,64.9521 274.5,67.5C 273.821,65.1861 272.488,64.8528 270.5,66.5C 269.614,65.675 269.281,64.675 269.5,63.5C 268.5,63.5 267.5,63.5 266.5,63.5C 271.932,59.6083 277.598,55.9416 283.5,52.5C 291.861,38.4827 300.194,24.4827 308.5,10.5C 309.043,10.44 309.376,10.1067 309.5,9.5C 234.503,8.50003 159.503,8.16669 84.5,8.5C 67.4519,8.07335 50.4519,8.57335 33.5,10C 20.1977,15.1281 12.1977,24.6281 9.5,38.5C 8.81035,43.233 8.14368,48.0664 7.5,53C 8.5138,123.833 8.5138,195.166 7.5,267C 8.32364,280.092 8.82364,293.258 9,306.5C 9.71719,305.956 10.2172,305.289 10.5,304.5C 18.4405,290.72 26.6071,277.053 35,263.5C 42.7784,258.696 50.6117,254.029 58.5,249.5C 60.9418,249.119 61.6085,249.786 60.5,251.5C 61.1667,252.167 61.8333,252.833 62.5,253.5C 61.2086,254.527 61.2086,255.527 62.5,256.5C 58.6277,258.597 54.961,260.931 51.5,263.5C 47.8106,265.097 44.3106,267.097 41,269.5C 32.4771,283.889 23.9771,298.222 15.5,312.5C 14.8333,312.5 14.5,312.833 14.5,313.5C 13.7109,313.783 13.0442,314.283 12.5,315C 21.0783,315.182 29.5783,315.682 38,316.5C 79.0345,315.589 119.868,315.255 160.5,315.5C 161.192,316.025 161.692,316.692 162,317.5C 162.388,316.572 163.055,315.905 164,315.5C 179.333,315.545 194.833,315.545 210.5,315.5C 209.737,316.268 208.737,316.768 207.5,317C 209.026,318.887 211.026,319.887 213.5,320C 202.641,321.724 191.808,321.891 181,320.5C 180.333,321.167 179.667,321.833 179,322.5C 175,321.167 171,321.167 167,322.5C 164.26,321.718 161.426,321.218 158.5,321C 158,320.5 157.5,320 157,319.5C 153.238,321.129 149.238,322.129 145,322.5C 117.667,321.833 90.3333,321.167 63,320.5C 46.1583,321.319 29.325,321.653 12.5,321.5C 4.95124,323.625 1.11791,320.959 1,313.5C 0.501655,316.817 0.334989,320.15 0.5,323.5C 0.166667,323.5 -0.166667,323.5 -0.5,323.5C -0.5,229.5 -0.5,135.5 -0.5,41.5C 1.00854,27.1519 7.67521,15.8185 19.5,7.5C 20.4959,7.41423 21.3292,7.74756 22,8.5C 25.9193,5.92778 30.0859,3.76111 34.5,2C 40.6769,1.61833 46.8435,1.11833 53,0.5C 63.8645,0.598738 74.6979,0.598738 85.5,0.5C 87.8933,2.2938 90.56,2.2938 93.5,0.5C 97.225,0.891328 99.225,2.89133 99.5,6.5C 103.889,7.29012 108.222,7.62345 112.5,7.5 Z M 187.5,186.5 C 186.85,186.804 186.183,187.137 185.5,187.5C 175.235,184.183 164.902,181.016 154.5,178C 152.613,177.22 150.946,177.387 149.5,178.5C 135.12,189.456 120.954,200.789 107,212.5C 116.372,187.063 126.372,161.729 137,136.5C 137.414,136.043 137.914,135.709 138.5,135.5C 150.328,139.614 162.328,142.781 174.5,145C 188.356,133.643 202.356,122.477 216.5,111.5C 216.833,111.667 217.167,111.833 217.5,112C 207.4,136.8 197.4,161.634 187.5,186.5 Z"/></g>
<g><path style="opacity:1" fill="#3a2b28" d="M 14.5,313.5 C 55.6633,314.499 96.9966,314.832 138.5,314.5C 174.167,314.5 209.833,314.5 245.5,314.5C 248.167,314.5 250.833,314.5 253.5,314.5C 250.375,315.479 247.042,315.813 243.5,315.5C 232.5,315.5 221.5,315.5 210.5,315.5C 194.833,315.545 179.333,315.545 164,315.5C 163.055,315.905 162.388,316.572 162,317.5C 161.692,316.692 161.192,316.025 160.5,315.5C 119.868,315.255 79.0345,315.589 38,316.5C 29.5783,315.682 21.0783,315.182 12.5,315C 13.0442,314.283 13.7109,313.783 14.5,313.5 Z"/></g>
<g><path style="opacity:1" fill="#a23d0d" d="M 226.5,259.5 C 222.63,264.727 218.63,269.894 214.5,275C 215.094,275.464 215.761,275.631 216.5,275.5C 219.873,274.865 223.206,274.365 226.5,274C 225.128,275.242 224.128,276.742 223.5,278.5C 224.374,280.747 224.708,283.08 224.5,285.5C 226.167,285.5 227.833,285.5 229.5,285.5C 229.351,286.552 229.517,287.552 230,288.5C 230.419,287.328 231.085,286.328 232,285.5C 234.5,286.667 236.333,288.5 237.5,291C 244.16,293.214 250.827,295.214 257.5,297C 257.167,297.333 256.833,297.667 256.5,298C 259.2,298.949 260.033,300.783 259,303.5C 256.774,307.868 253.274,310.702 248.5,312C 245.292,312.75 242.292,313.25 239.5,313.5C 234.415,310.585 229.749,307.085 225.5,303C 218.829,300.554 212.329,297.721 206,294.5C 205.586,294.957 205.086,295.291 204.5,295.5C 201.574,292.871 198.241,291.038 194.5,290C 194.17,286.644 192.503,284.311 189.5,283C 183.94,281.282 179.106,279.116 175,276.5C 174.586,276.957 174.086,277.291 173.5,277.5C 161.822,272.108 149.822,267.608 137.5,264C 132.916,261.21 128.249,258.71 123.5,256.5C 126.44,252.395 129.94,251.062 134,252.5C 135.078,250.61 136.745,249.61 139,249.5C 149.15,250.246 159.316,250.746 169.5,251C 172.707,252.276 176.041,253.109 179.5,253.5C 192.056,253.334 204.89,253 218,252.5C 222.225,253.232 225.059,255.565 226.5,259.5 Z"/></g>
<g><path style="opacity:1" fill="#b04e15" d="M 51.5,263.5 C 53.1992,263.34 54.8659,263.506 56.5,264C 62.5895,270.093 69.2562,275.427 76.5,280C 75.552,280.483 74.552,280.649 73.5,280.5C 73.5,281.833 73.5,283.167 73.5,284.5C 75.1992,284.66 76.8659,284.494 78.5,284C 77.5494,283.282 77.3828,282.449 78,281.5C 84.6667,287.5 91.3333,293.5 98,299.5C 98.4828,300.448 98.6495,301.448 98.5,302.5C 101.332,301.419 103.998,301.585 106.5,303C 105.552,303.483 104.552,303.649 103.5,303.5C 103.5,304.5 103.5,305.5 103.5,306.5C 107.698,307.483 111.365,309.649 114.5,313C 81.3308,313.831 48.3308,313.664 15.5,312.5C 23.9771,298.222 32.4771,283.889 41,269.5C 44.3106,267.097 47.8106,265.097 51.5,263.5 Z"/></g>
<g><path style="opacity:1" fill="#2f1c19" d="M 9.5,38.5 C 8.90288,47.366 9.56954,56.0326 11.5,64.5C 11.1924,65.3081 10.6924,65.9747 10,66.5C 9.50013,78.4954 9.33346,90.4954 9.5,102.5C 9.5,116.5 9.5,130.5 9.5,144.5C 9.5,149.833 9.5,155.167 9.5,160.5C 9.16784,208.67 9.50118,256.67 10.5,304.5C 10.2172,305.289 9.71719,305.956 9,306.5C 8.82364,293.258 8.32364,280.092 7.5,267C 8.5138,195.166 8.5138,123.833 7.5,53C 8.14368,48.0664 8.81035,43.233 9.5,38.5 Z"/></g>
<g><path style="opacity:1" fill="#aa3e0c" d="M 140.5,253.5 C 147.437,254.942 154.604,256.275 162,257.5C 167.263,254.547 172.263,254.881 177,258.5C 182.262,257.671 187.596,257.004 193,256.5C 195.261,256.439 197.261,257.106 199,258.5C 202.964,256.968 206.631,257.635 210,260.5C 210.346,262.218 210.846,263.885 211.5,265.5C 206.564,269.096 201.897,273.096 197.5,277.5C 188.806,276.28 180.306,273.613 172,269.5C 169.701,270.379 167.701,269.712 166,267.5C 155.769,267.21 146.103,263.877 137,257.5C 136.383,254.824 137.216,254.157 139.5,255.5C 140.298,255.043 140.631,254.376 140.5,253.5 Z"/></g>
<g><path style="opacity:1" fill="#a94b14" d="M 138.5,314.5 C 96.9966,314.832 55.6633,314.499 14.5,313.5C 14.5,312.833 14.8333,312.5 15.5,312.5C 48.3308,313.664 81.3308,313.831 114.5,313C 111.365,309.649 107.698,307.483 103.5,306.5C 103.5,305.5 103.5,304.5 103.5,303.5C 104.552,303.649 105.552,303.483 106.5,303C 103.998,301.585 101.332,301.419 98.5,302.5C 98.6495,301.448 98.4828,300.448 98,299.5C 91.3333,293.5 84.6667,287.5 78,281.5C 77.3828,282.449 77.5494,283.282 78.5,284C 76.8659,284.494 75.1992,284.66 73.5,284.5C 73.5,283.167 73.5,281.833 73.5,280.5C 74.552,280.649 75.552,280.483 76.5,280C 69.2562,275.427 62.5895,270.093 56.5,264C 54.8659,263.506 53.1992,263.34 51.5,263.5C 54.961,260.931 58.6277,258.597 62.5,256.5C 66.0337,254.234 69.7004,252.234 73.5,250.5C 75.5929,249.027 77.2595,249.527 78.5,252C 85.5073,254.315 91.5073,258.315 96.5,264C 104.086,269.491 111.419,275.491 118.5,282C 121.988,282.324 123.988,284.158 124.5,287.5C 127.9,289.709 131.233,292.209 134.5,295C 136.134,295.494 137.801,295.66 139.5,295.5C 139.678,298.216 140.178,300.883 141,303.5C 146.647,305.8 151.814,308.966 156.5,313C 150.319,313.172 144.319,313.672 138.5,314.5 Z"/></g>
<g><path style="opacity:1" fill="#c78762" d="M 65.5,260.5 C 67.1667,260.5 68.8333,260.5 70.5,260.5C 69.9103,264.316 67.5769,265.983 63.5,265.5C 63.3915,263.486 64.0582,261.82 65.5,260.5 Z"/></g>
<g><path style="opacity:1" fill="#8c3b10" d="M 314.5,237.5 C 314.5,252.5 314.5,267.5 314.5,282.5C 312.019,299.486 302.352,309.986 285.5,314C 274.839,314.5 264.172,314.667 253.5,314.5C 250.833,314.5 248.167,314.5 245.5,314.5C 256.723,313.621 263.723,307.621 266.5,296.5C 265.833,296.167 265.167,295.833 264.5,295.5C 264.709,294.914 265.043,294.414 265.5,294C 262.73,292.427 259.896,290.927 257,289.5C 255.297,290.7 253.797,290.367 252.5,288.5C 251.824,289.602 251.158,290.602 250.5,291.5C 251.855,283.077 253.689,274.743 256,266.5C 259.916,271.996 263.582,277.663 267,283.5C 265.333,277.167 263.667,270.833 262,264.5C 269.089,268.294 276.255,271.961 283.5,275.5C 283.833,275.167 284.167,274.833 284.5,274.5C 278.5,266.833 272.5,259.167 266.5,251.5C 271.263,247.785 276.596,245.118 282.5,243.5C 284.624,246.547 286.457,249.88 288,253.5C 289.011,254.337 290.178,254.67 291.5,254.5C 291.5,255.5 291.5,256.5 291.5,257.5C 297.084,257.918 301.751,256.085 305.5,252C 309.415,247.657 312.415,242.823 314.5,237.5 Z"/></g>
<g><path style="opacity:1" fill="#14100d" d="M 248.5,211.5 C 248.5,210.167 248.5,208.833 248.5,207.5C 249.117,207.389 249.617,207.056 250,206.5C 250.637,213.237 251.637,219.904 253,226.5C 257.623,220.208 262.623,214.208 268,208.5C 266.841,216.139 265.841,223.805 265,231.5C 270.253,228.124 275.42,224.624 280.5,221C 281.437,220.308 282.103,220.475 282.5,221.5C 281.167,222.167 280.167,223.167 279.5,224.5C 275.187,228.478 270.854,232.478 266.5,236.5C 275.482,237.332 284.482,237.832 293.5,238C 289.493,239.337 285.827,241.17 282.5,243.5C 276.596,245.118 271.263,247.785 266.5,251.5C 272.5,259.167 278.5,266.833 284.5,274.5C 284.167,274.833 283.833,275.167 283.5,275.5C 276.255,271.961 269.089,268.294 262,264.5C 263.667,270.833 265.333,277.167 267,283.5C 263.582,277.663 259.916,271.996 256,266.5C 253.689,274.743 251.855,283.077 250.5,291.5C 249.883,291.389 249.383,291.056 249,290.5C 247.309,282.404 245.309,274.404 243,266.5C 239.333,272.167 235.667,277.833 232,283.5C 233.44,277.356 235.606,271.356 238.5,265.5C 238.167,265.167 237.833,264.833 237.5,264.5C 230.281,267.941 223.281,271.608 216.5,275.5C 215.761,275.631 215.094,275.464 214.5,275C 218.63,269.894 222.63,264.727 226.5,259.5C 228.969,256.856 231.302,254.023 233.5,251C 228.712,248.271 223.712,246.104 218.5,244.5C 214.722,242.108 210.722,239.941 206.5,238C 215.186,237.832 223.852,237.332 232.5,236.5C 232.376,235.893 232.043,235.56 231.5,235.5C 226.337,229.504 220.67,224.004 214.5,219C 221.486,222.934 228.32,227.434 235,232.5C 233.712,223.727 232.045,215.061 230,206.5C 235.311,213.312 240.811,219.979 246.5,226.5C 247.496,221.538 248.163,216.538 248.5,211.5 Z"/></g>
<g><path style="opacity:1" fill="#dbc715" d="M 239.5,226.5 C 242.811,230.147 246.145,233.813 249.5,237.5C 252.805,233.859 256.138,230.192 259.5,226.5C 259.533,231.079 258.533,235.746 256.5,240.5C 261.802,241.329 267.136,241.829 272.5,242C 267.961,244.769 263.294,247.269 258.5,249.5C 261.379,253.424 264.379,257.257 267.5,261C 262.699,260.192 258.199,258.359 254,255.5C 252.667,260.167 251.333,264.833 250,269.5C 248.185,264.978 246.685,260.311 245.5,255.5C 240.896,257.598 236.396,259.931 232,262.5C 231.833,262.167 231.667,261.833 231.5,261.5C 234.5,257.5 237.5,253.5 240.5,249.5C 235.706,247.269 231.039,244.769 226.5,242C 231.823,241.501 237.156,241.334 242.5,241.5C 241.657,236.462 240.657,231.462 239.5,226.5 Z"/></g>
<g><path style="opacity:1" fill="#994010" d="M 96.5,233.5 C 100.272,236.094 103.939,238.927 107.5,242C 113.055,243.264 118.555,244.764 124,246.5C 125.167,246.333 126.333,246.167 127.5,246C 126.304,245.346 126.304,244.846 127.5,244.5C 130.308,245.97 133.308,246.803 136.5,247C 161.597,247.042 185.431,247.209 208,247.5C 211.575,246.765 215.075,245.765 218.5,244.5C 223.712,246.104 228.712,248.271 233.5,251C 231.302,254.023 228.969,256.856 226.5,259.5C 225.059,255.565 222.225,253.232 218,252.5C 204.89,253 192.056,253.334 179.5,253.5C 176.041,253.109 172.707,252.276 169.5,251C 159.316,250.746 149.15,250.246 139,249.5C 136.745,249.61 135.078,250.61 134,252.5C 129.94,251.062 126.44,252.395 123.5,256.5C 128.249,258.71 132.916,261.21 137.5,264C 149.822,267.608 161.822,272.108 173.5,277.5C 174.086,277.291 174.586,276.957 175,276.5C 179.106,279.116 183.94,281.282 189.5,283C 192.503,284.311 194.17,286.644 194.5,290C 198.241,291.038 201.574,292.871 204.5,295.5C 205.086,295.291 205.586,294.957 206,294.5C 212.329,297.721 218.829,300.554 225.5,303C 229.749,307.085 234.415,310.585 239.5,313.5C 242.292,313.25 245.292,312.75 248.5,312C 253.274,310.702 256.774,307.868 259,303.5C 260.033,300.783 259.2,298.949 256.5,298C 256.833,297.667 257.167,297.333 257.5,297C 250.827,295.214 244.16,293.214 237.5,291C 236.333,288.5 234.5,286.667 232,285.5C 231.085,286.328 230.419,287.328 230,288.5C 229.517,287.552 229.351,286.552 229.5,285.5C 227.833,285.5 226.167,285.5 224.5,285.5C 224.708,283.08 224.374,280.747 223.5,278.5C 224.128,276.742 225.128,275.242 226.5,274C 223.206,274.365 219.873,274.865 216.5,275.5C 223.281,271.608 230.281,267.941 237.5,264.5C 237.833,264.833 238.167,265.167 238.5,265.5C 235.606,271.356 233.44,277.356 232,283.5C 235.667,277.833 239.333,272.167 243,266.5C 245.309,274.404 247.309,282.404 249,290.5C 249.383,291.056 249.883,291.389 250.5,291.5C 251.158,290.602 251.824,289.602 252.5,288.5C 253.797,290.367 255.297,290.7 257,289.5C 259.896,290.927 262.73,292.427 265.5,294C 265.043,294.414 264.709,294.914 264.5,295.5C 265.167,295.833 265.833,296.167 266.5,296.5C 263.723,307.621 256.723,313.621 245.5,314.5C 209.833,314.5 174.167,314.5 138.5,314.5C 144.319,313.672 150.319,313.172 156.5,313C 151.814,308.966 146.647,305.8 141,303.5C 140.178,300.883 139.678,298.216 139.5,295.5C 137.801,295.66 136.134,295.494 134.5,295C 131.233,292.209 127.9,289.709 124.5,287.5C 123.988,284.158 121.988,282.324 118.5,282C 111.419,275.491 104.086,269.491 96.5,264C 91.5073,258.315 85.5073,254.315 78.5,252C 77.2595,249.527 75.5929,249.027 73.5,250.5C 78.0974,246.858 83.0974,243.692 88.5,241C 91.0362,238.295 93.7029,235.795 96.5,233.5 Z"/></g>
<g><path style="opacity:1" fill="#1e1b1c" d="M 266.5,63.5 C 267.5,63.5 268.5,63.5 269.5,63.5C 269.281,64.675 269.614,65.675 270.5,66.5C 272.488,64.8528 273.821,65.1861 274.5,67.5C 264.064,74.2256 253.397,80.7256 242.5,87C 239.667,89.8333 236.833,92.6667 234,95.5C 223.544,120.742 213.377,146.075 203.5,171.5C 202.127,171.343 200.793,171.51 199.5,172C 200.236,174.021 199.403,175.521 197,176.5C 195.951,175.483 194.784,175.316 193.5,176C 194.167,176.333 194.833,176.667 195.5,177C 193.884,177.615 192.551,178.615 191.5,180C 195.569,183.257 195.069,184.424 190,183.5C 189.781,184.938 189.281,186.271 188.5,187.5C 187.893,187.376 187.56,187.043 187.5,186.5C 197.4,161.634 207.4,136.8 217.5,112C 217.167,111.833 216.833,111.667 216.5,111.5C 202.356,122.477 188.356,133.643 174.5,145C 162.328,142.781 150.328,139.614 138.5,135.5C 137.914,135.709 137.414,136.043 137,136.5C 126.372,161.729 116.372,187.063 107,212.5C 120.954,200.789 135.12,189.456 149.5,178.5C 154.828,180.098 160.495,181.931 166.5,184C 165.833,184.333 165.167,184.667 164.5,185C 165.861,186.584 166.528,188.418 166.5,190.5C 161.544,189.118 156.544,188.285 151.5,188C 132.727,202.708 114.394,217.875 96.5,233.5C 93.7029,235.795 91.0362,238.295 88.5,241C 83.0974,243.692 78.0974,246.858 73.5,250.5C 69.7004,252.234 66.0337,254.234 62.5,256.5C 61.2086,255.527 61.2086,254.527 62.5,253.5C 61.8333,252.833 61.1667,252.167 60.5,251.5C 61.6085,249.786 60.9418,249.119 58.5,249.5C 66.2703,244.441 74.2703,239.608 82.5,235C 85,232.5 87.5,230 90,227.5C 95.9414,212.504 101.775,197.504 107.5,182.5C 114.679,166.797 121.345,150.797 127.5,134.5C 128.681,130.775 130.514,127.441 133,124.5C 145.082,128.069 157.249,131.402 169.5,134.5C 170.251,135.573 171.251,135.74 172.5,135C 180.732,127.924 189.065,121.091 197.5,114.5C 204.814,109.182 211.814,103.516 218.5,97.5C 224.93,92.5748 230.93,87.0748 236.5,81C 246.405,74.9121 256.405,69.0788 266.5,63.5 Z M 187.5,186.5 C 186.85,186.804 186.183,187.137 185.5,187.5C 175.235,184.183 164.902,181.016 154.5,178C 152.613,177.22 150.946,177.387 149.5,178.5C 135.12,189.456 120.954,200.789 107,212.5C 116.372,187.063 126.372,161.729 137,136.5C 137.414,136.043 137.914,135.709 138.5,135.5C 150.328,139.614 162.328,142.781 174.5,145C 188.356,133.643 202.356,122.477 216.5,111.5C 216.833,111.667 217.167,111.833 217.5,112C 207.4,136.8 197.4,161.634 187.5,186.5 Z"/></g>
<g><path style="opacity:1" fill="#c2927a" d="M 186.5,211.5 C 186.771,213.38 186.104,214.713 184.5,215.5C 181.827,215.316 181.16,214.149 182.5,212C 183.793,211.51 185.127,211.343 186.5,211.5 Z"/></g>
<g><path style="opacity:1" fill="#3b1107" d="M 127.5,134.5 C 121.345,150.797 114.679,166.797 107.5,182.5C 102.977,180.483 98.3099,178.65 93.5,177C 92.783,175.348 92.4496,173.848 92.5,172.5C 90.4775,174.173 88.1441,174.84 85.5,174.5C 85.3832,172.516 86.0499,170.85 87.5,169.5C 85.5781,168.289 83.7448,166.956 82,165.5C 81.586,165.957 81.086,166.291 80.5,166.5C 77.3295,163.665 74.4962,163.998 72,167.5C 71.3707,174.54 69.8707,181.54 67.5,188.5C 66.4029,193.337 66.4029,198.337 67.5,203.5C 66.5,203.5 65.5,203.5 64.5,203.5C 64.4889,205.547 64.1556,207.547 63.5,209.5C 63.5288,211.029 64.1955,212.196 65.5,213C 64.4267,214.25 64.4267,215.584 65.5,217C 64.9681,219.02 63.6348,219.853 61.5,219.5C 60.6789,224.684 59.6789,229.517 58.5,234C 58.8333,234.333 59.1667,234.667 59.5,235C 58,236.5 56.5,238 55,239.5C 53.575,238.788 52.075,238.621 50.5,239C 51.6039,237.869 51.2705,237.035 49.5,236.5C 48.914,236.709 48.414,237.043 48,237.5C 44.0838,232.925 40.5838,228.092 37.5,223C 39.8073,221.172 39.474,219.506 36.5,218C 36.8333,217.667 37.1667,217.333 37.5,217C 36.1667,214.667 34.8333,212.333 33.5,210C 34.4657,207.067 34.4657,204.401 33.5,202C 35.847,200.914 35.847,199.581 33.5,198C 34.1491,194.237 33.4824,190.571 31.5,187C 33.5598,185.507 33.8932,183.674 32.5,181.5C 31.914,181.709 31.414,182.043 31,182.5C 30.4835,178.434 29.6502,174.434 28.5,170.5C 28.7556,169.311 29.0889,168.144 29.5,167C 26.8261,161.814 24.9927,156.314 24,150.5C 22.3058,148.344 20.4725,148.511 18.5,151C 19.1667,151.333 19.8333,151.667 20.5,152C 17.0992,151.734 15.4326,153.234 15.5,156.5C 14.448,156.351 13.448,156.517 12.5,157C 11.8366,158.518 10.8366,159.685 9.5,160.5C 9.5,155.167 9.5,149.833 9.5,144.5C 13.3539,144.406 16.0206,142.572 17.5,139C 18.448,138.517 19.448,138.351 20.5,138.5C 21.2515,144.583 23.0848,144.916 26,139.5C 26.8519,142.988 28.0185,146.322 29.5,149.5C 29.2907,150.086 28.9574,150.586 28.5,151C 31.713,160.353 34.3797,169.853 36.5,179.5C 36.3925,182.898 36.3925,186.231 36.5,189.5C 39.2289,194.266 39.8955,199.266 38.5,204.5C 43.5642,209.209 45.7309,214.875 45,221.5C 46.3333,222.833 47.6667,222.833 49,221.5C 49.6667,222.167 50.3333,222.833 51,223.5C 52.214,221.951 53.714,220.785 55.5,220C 54.8333,219.667 54.1667,219.333 53.5,219C 54.7932,218.51 56.1266,218.343 57.5,218.5C 56.1926,212.764 56.1926,207.264 57.5,202C 58.9926,197.836 60.6593,193.836 62.5,190C 63.2492,187.549 63.2492,184.882 62.5,182C 65.7262,176.303 67.2262,170.137 67,163.5C 69.2192,153.514 72.2192,143.847 76,134.5C 77.0084,134.982 78.175,135.148 79.5,135C 80.1905,136.067 80.6905,137.234 81,138.5C 82.586,139.376 84.086,140.376 85.5,141.5C 88.9119,147.216 92.2452,152.883 95.5,158.5C 96.8221,158.33 97.9887,158.663 99,159.5C 99.3607,162.525 99.8607,165.525 100.5,168.5C 100.392,169.442 100.059,170.275 99.5,171C 102.296,172.474 104.796,174.307 107,176.5C 109.767,173.856 111.6,170.689 112.5,167C 110.611,161.841 108.611,156.675 106.5,151.5C 106.709,150.914 107.043,150.414 107.5,150C 105.998,149.417 104.665,148.584 103.5,147.5C 105.645,146.318 105.645,144.818 103.5,143C 103.833,142.667 104.167,142.333 104.5,142C 103.333,141.5 102.5,140.667 102,139.5C 100.977,136.217 100.143,132.884 99.5,129.5C 99.637,127.893 100.304,126.559 101.5,125.5C 103.833,126.833 106.167,126.833 108.5,125.5C 111.468,126.56 113.968,128.227 116,130.5C 118.032,128.232 119.365,128.898 120,132.5C 120.414,132.043 120.914,131.709 121.5,131.5C 123.243,133.038 125.243,134.038 127.5,134.5 Z"/></g>
<g><path style="opacity:1" fill="#1e1b1c" d="M 195.5,189.5 C 195.167,190.833 194.833,192.167 194.5,193.5C 193.79,195.412 192.623,197.079 191,198.5C 187.283,196.982 183.449,195.982 179.5,195.5C 175.115,193.986 170.782,192.32 166.5,190.5C 167.675,190.719 168.675,190.386 169.5,189.5C 168.494,188.604 168.494,187.938 169.5,187.5C 170.262,188.628 170.929,189.795 171.5,191C 172.635,191.749 173.635,191.583 174.5,190.5C 173.926,188.941 173.26,187.441 172.5,186C 173.744,185.544 174.577,186.044 175,187.5C 175.414,187.043 175.914,186.709 176.5,186.5C 180.375,187.781 184.209,189.114 188,190.5C 189.585,189.624 190.585,188.291 191,186.5C 192.271,187.883 193.771,188.883 195.5,189.5 Z"/></g>
<g><path style="opacity:1" fill="#9c3c0e" d="M 314.5,182.5 C 314.5,200.833 314.5,219.167 314.5,237.5C 312.415,242.823 309.415,247.657 305.5,252C 301.751,256.085 297.084,257.918 291.5,257.5C 291.5,256.5 291.5,255.5 291.5,254.5C 290.178,254.67 289.011,254.337 288,253.5C 286.457,249.88 284.624,246.547 282.5,243.5C 285.827,241.17 289.493,239.337 293.5,238C 284.482,237.832 275.482,237.332 266.5,236.5C 270.854,232.478 275.187,228.478 279.5,224.5C 280.824,227.987 283.324,230.321 287,231.5C 288.105,235.754 290.939,237.42 295.5,236.5C 295.215,238.288 295.548,239.955 296.5,241.5C 301.889,244.993 306.056,243.993 309,238.5C 310.967,230.491 311.8,222.491 311.5,214.5C 310.257,211.052 308.757,207.719 307,204.5C 306.644,200.854 305.811,197.354 304.5,194C 304.252,182.387 304.252,170.72 304.5,159C 302.542,156.851 302.209,154.518 303.5,152C 302.939,150.324 301.939,148.991 300.5,148C 300.833,147.667 301.167,147.333 301.5,147C 300.584,146.626 299.75,146.126 299,145.5C 298.682,147.061 297.849,148.228 296.5,149C 297.006,151.044 297.339,153.044 297.5,155C 295.969,165.114 294.802,175.281 294,185.5C 293.479,188.919 292.645,192.252 291.5,195.5C 291.833,196.167 292.167,196.833 292.5,197.5C 290.541,198.748 289.041,200.415 288,202.5C 286.413,201.273 285.079,201.606 284,203.5C 283,202.167 282,202.167 281,203.5C 279.934,201.901 278.434,200.901 276.5,200.5C 275.808,201.025 275.308,201.692 275,202.5C 274.667,202.167 274.333,201.833 274,201.5C 271.972,205.903 272.139,210.07 274.5,214C 273.795,215.557 274.461,216.723 276.5,217.5C 279.435,217.101 282.269,217.101 285,217.5C 285.279,219.412 284.446,220.746 282.5,221.5C 282.103,220.475 281.437,220.308 280.5,221C 275.42,224.624 270.253,228.124 265,231.5C 265.841,223.805 266.841,216.139 268,208.5C 262.623,214.208 257.623,220.208 253,226.5C 251.637,219.904 250.637,213.237 250,206.5C 249.617,207.056 249.117,207.389 248.5,207.5C 248.5,205.167 248.5,202.833 248.5,200.5C 249.5,200.5 250.5,200.5 251.5,200.5C 251.504,198.158 252.337,196.158 254,194.5C 254.852,197.988 256.019,201.322 257.5,204.5C 258.281,203.263 259.281,202.263 260.5,201.5C 261.429,200.311 261.762,198.978 261.5,197.5C 263.167,197.5 264.833,197.5 266.5,197.5C 267.823,194.719 267.656,192.053 266,189.5C 257.603,178.124 248.936,167.124 240,156.5C 236.389,150.556 232.389,144.889 228,139.5C 225.797,141.669 224.964,144.335 225.5,147.5C 222.879,145.874 221.046,146.541 220,149.5C 218.007,143.616 218.174,137.783 220.5,132C 221.886,129.583 223.886,128.583 226.5,129C 242.785,148.072 259.118,167.239 275.5,186.5C 275.945,189.053 275.945,191.72 275.5,194.5C 278.325,194.838 280.492,193.838 282,191.5C 282.333,192.167 282.667,192.833 283,193.5C 285.403,191.695 287.07,189.362 288,186.5C 289.306,175.754 290.806,165.087 292.5,154.5C 294.994,152.406 294.994,150.406 292.5,148.5C 292.573,137.612 294.073,126.946 297,116.5C 297.419,115.328 298.085,114.328 299,113.5C 300.709,116.418 302.542,119.252 304.5,122C 302.737,124.965 301.403,128.132 300.5,131.5C 301.93,131.579 303.264,131.246 304.5,130.5C 307.026,145.067 308.86,159.734 310,174.5C 310.309,175.766 310.809,176.933 311.5,178C 309.963,179.11 309.297,180.61 309.5,182.5C 311.167,182.5 312.833,182.5 314.5,182.5 Z"/></g>
<g><path style="opacity:1" fill="#a53d0c" d="M 279.5,224.5 C 280.167,223.167 281.167,222.167 282.5,221.5C 284.446,220.746 285.279,219.412 285,217.5C 282.269,217.101 279.435,217.101 276.5,217.5C 274.461,216.723 273.795,215.557 274.5,214C 272.139,210.07 271.972,205.903 274,201.5C 274.333,201.833 274.667,202.167 275,202.5C 275.308,201.692 275.808,201.025 276.5,200.5C 278.434,200.901 279.934,201.901 281,203.5C 282,202.167 283,202.167 284,203.5C 285.079,201.606 286.413,201.273 288,202.5C 289.041,200.415 290.541,198.748 292.5,197.5C 292.167,196.833 291.833,196.167 291.5,195.5C 292.645,192.252 293.479,188.919 294,185.5C 294.802,175.281 295.969,165.114 297.5,155C 297.339,153.044 297.006,151.044 296.5,149C 297.849,148.228 298.682,147.061 299,145.5C 299.75,146.126 300.584,146.626 301.5,147C 301.167,147.333 300.833,147.667 300.5,148C 301.939,148.991 302.939,150.324 303.5,152C 302.209,154.518 302.542,156.851 304.5,159C 304.252,170.72 304.252,182.387 304.5,194C 305.811,197.354 306.644,200.854 307,204.5C 308.757,207.719 310.257,211.052 311.5,214.5C 311.8,222.491 310.967,230.491 309,238.5C 306.056,243.993 301.889,244.993 296.5,241.5C 295.548,239.955 295.215,238.288 295.5,236.5C 290.939,237.42 288.105,235.754 287,231.5C 283.324,230.321 280.824,227.987 279.5,224.5 Z"/></g>
<g><path style="opacity:1" fill="#8d3c10" d="M 166.5,190.5 C 170.782,192.32 175.115,193.986 179.5,195.5C 178.34,196.611 177.007,197.611 175.5,198.5C 179.402,202.639 183.069,206.972 186.5,211.5C 185.127,211.343 183.793,211.51 182.5,212C 181.16,214.149 181.827,215.316 184.5,215.5C 190.671,222.172 196.671,229.005 202.5,236C 212.342,236.825 222.009,236.658 231.5,235.5C 232.043,235.56 232.376,235.893 232.5,236.5C 223.852,237.332 215.186,237.832 206.5,238C 210.722,239.941 214.722,242.108 218.5,244.5C 215.075,245.765 211.575,246.765 208,247.5C 185.431,247.209 161.597,247.042 136.5,247C 133.308,246.803 130.308,245.97 127.5,244.5C 126.304,244.846 126.304,245.346 127.5,246C 126.333,246.167 125.167,246.333 124,246.5C 118.555,244.764 113.055,243.264 107.5,242C 103.939,238.927 100.272,236.094 96.5,233.5C 114.394,217.875 132.727,202.708 151.5,188C 156.544,188.285 161.544,189.118 166.5,190.5 Z"/></g>
<g><path style="opacity:1" fill="#a83e0d" d="M 248.5,207.5 C 248.5,208.833 248.5,210.167 248.5,211.5C 244.438,211.276 241.605,209.276 240,205.5C 238.714,202.595 237.714,199.595 237,196.5C 236.667,196.833 236.333,197.167 236,197.5C 234.714,187.852 232.547,178.352 229.5,169C 229.957,168.586 230.291,168.086 230.5,167.5C 228.619,161.521 226.952,155.521 225.5,149.5C 225.5,148.833 225.5,148.167 225.5,147.5C 224.964,144.335 225.797,141.669 228,139.5C 232.389,144.889 236.389,150.556 240,156.5C 248.936,167.124 257.603,178.124 266,189.5C 267.656,192.053 267.823,194.719 266.5,197.5C 264.833,197.5 263.167,197.5 261.5,197.5C 261.762,198.978 261.429,200.311 260.5,201.5C 259.281,202.263 258.281,203.263 257.5,204.5C 256.019,201.322 254.852,197.988 254,194.5C 252.337,196.158 251.504,198.158 251.5,200.5C 250.5,200.5 249.5,200.5 248.5,200.5C 248.5,202.833 248.5,205.167 248.5,207.5 Z"/></g>
<g><path style="opacity:1" fill="#3a373a" d="M 203.5,171.5 C 200.82,177.523 198.154,183.523 195.5,189.5C 193.771,188.883 192.271,187.883 191,186.5C 190.585,188.291 189.585,189.624 188,190.5C 184.209,189.114 180.375,187.781 176.5,186.5C 175.914,186.709 175.414,187.043 175,187.5C 174.577,186.044 173.744,185.544 172.5,186C 173.26,187.441 173.926,188.941 174.5,190.5C 173.635,191.583 172.635,191.749 171.5,191C 170.929,189.795 170.262,188.628 169.5,187.5C 168.494,187.938 168.494,188.604 169.5,189.5C 168.675,190.386 167.675,190.719 166.5,190.5C 166.528,188.418 165.861,186.584 164.5,185C 165.167,184.667 165.833,184.333 166.5,184C 160.495,181.931 154.828,180.098 149.5,178.5C 150.946,177.387 152.613,177.22 154.5,178C 164.902,181.016 175.235,184.183 185.5,187.5C 186.183,187.137 186.85,186.804 187.5,186.5C 187.56,187.043 187.893,187.376 188.5,187.5C 189.281,186.271 189.781,184.938 190,183.5C 195.069,184.424 195.569,183.257 191.5,180C 192.551,178.615 193.884,177.615 195.5,177C 194.833,176.667 194.167,176.333 193.5,176C 194.784,175.316 195.951,175.483 197,176.5C 199.403,175.521 200.236,174.021 199.5,172C 200.793,171.51 202.127,171.343 203.5,171.5 Z"/></g>
<g><path style="opacity:1" fill="#963b0e" d="M 225.5,149.5 C 226.952,155.521 228.619,161.521 230.5,167.5C 230.291,168.086 229.957,168.586 229.5,169C 232.547,178.352 234.714,187.852 236,197.5C 236.333,197.167 236.667,196.833 237,196.5C 237.714,199.595 238.714,202.595 240,205.5C 241.605,209.276 244.438,211.276 248.5,211.5C 248.163,216.538 247.496,221.538 246.5,226.5C 240.811,219.979 235.311,213.312 230,206.5C 232.045,215.061 233.712,223.727 235,232.5C 228.32,227.434 221.486,222.934 214.5,219C 220.67,224.004 226.337,229.504 231.5,235.5C 222.009,236.658 212.342,236.825 202.5,236C 196.671,229.005 190.671,222.172 184.5,215.5C 186.104,214.713 186.771,213.38 186.5,211.5C 183.069,206.972 179.402,202.639 175.5,198.5C 177.007,197.611 178.34,196.611 179.5,195.5C 183.449,195.982 187.283,196.982 191,198.5C 192.623,197.079 193.79,195.412 194.5,193.5C 195.458,193.047 196.292,192.381 197,191.5C 202.295,194.474 207.295,197.808 212,201.5C 212.333,201.167 212.667,200.833 213,200.5C 215.852,201.617 218.686,203.451 221.5,206C 222.833,206.667 224.167,206.667 225.5,206C 226.394,203.932 227.06,201.765 227.5,199.5C 225.27,191.72 223.27,183.887 221.5,176C 223.155,174.556 223.822,172.722 223.5,170.5C 221.876,170.64 220.71,169.973 220,168.5C 219.711,163.386 218.877,158.386 217.5,153.5C 218.5,153.5 219.5,153.5 220.5,153.5C 220.5,152.5 220.5,151.5 220.5,150.5C 222.292,150.634 223.958,150.301 225.5,149.5 Z"/></g>
<g><path style="opacity:1" fill="#c6896d" d="M 201.5,210.5 C 203.977,210.051 205.977,210.717 207.5,212.5C 205.74,215.926 203.574,216.259 201,213.5C 200.53,212.423 200.697,211.423 201.5,210.5 Z"/></g>
<g><path style="opacity:1" fill="#361006" d="M 107.5,182.5 C 101.775,197.504 95.9414,212.504 90,227.5C 87.5,230 85,232.5 82.5,235C 74.2703,239.608 66.2703,244.441 58.5,249.5C 50.6117,254.029 42.7784,258.696 35,263.5C 26.6071,277.053 18.4405,290.72 10.5,304.5C 9.50118,256.67 9.16784,208.67 9.5,160.5C 10.8366,159.685 11.8366,158.518 12.5,157C 13.448,156.517 14.448,156.351 15.5,156.5C 15.4326,153.234 17.0992,151.734 20.5,152C 19.8333,151.667 19.1667,151.333 18.5,151C 20.4725,148.511 22.3058,148.344 24,150.5C 24.9927,156.314 26.8261,161.814 29.5,167C 29.0889,168.144 28.7556,169.311 28.5,170.5C 29.6502,174.434 30.4835,178.434 31,182.5C 31.414,182.043 31.914,181.709 32.5,181.5C 33.8932,183.674 33.5598,185.507 31.5,187C 33.4824,190.571 34.1491,194.237 33.5,198C 35.847,199.581 35.847,200.914 33.5,202C 34.4657,204.401 34.4657,207.067 33.5,210C 34.8333,212.333 36.1667,214.667 37.5,217C 37.1667,217.333 36.8333,217.667 36.5,218C 39.474,219.506 39.8073,221.172 37.5,223C 40.5838,228.092 44.0838,232.925 48,237.5C 48.414,237.043 48.914,236.709 49.5,236.5C 51.2705,237.035 51.6039,237.869 50.5,239C 52.075,238.621 53.575,238.788 55,239.5C 56.5,238 58,236.5 59.5,235C 59.1667,234.667 58.8333,234.333 58.5,234C 59.6789,229.517 60.6789,224.684 61.5,219.5C 63.6348,219.853 64.9681,219.02 65.5,217C 64.4267,215.584 64.4267,214.25 65.5,213C 64.1955,212.196 63.5288,211.029 63.5,209.5C 64.1556,207.547 64.4889,205.547 64.5,203.5C 65.5,203.5 66.5,203.5 67.5,203.5C 66.4029,198.337 66.4029,193.337 67.5,188.5C 69.8707,181.54 71.3707,174.54 72,167.5C 74.4962,163.998 77.3295,163.665 80.5,166.5C 81.086,166.291 81.586,165.957 82,165.5C 83.7448,166.956 85.5781,168.289 87.5,169.5C 86.0499,170.85 85.3832,172.516 85.5,174.5C 88.1441,174.84 90.4775,174.173 92.5,172.5C 92.4496,173.848 92.783,175.348 93.5,177C 98.3099,178.65 102.977,180.483 107.5,182.5 Z"/></g>
<g><path style="opacity:1" fill="#6a2c0c" d="M 313.5,18.5 C 313.56,17.9569 313.893,17.6236 314.5,17.5C 315.832,105.999 315.832,194.332 314.5,282.5C 314.5,267.5 314.5,252.5 314.5,237.5C 314.5,219.167 314.5,200.833 314.5,182.5C 314.832,127.664 314.499,72.9975 313.5,18.5 Z"/></g>
<g><path style="opacity:1" fill="#151210" d="M 97.5,54.5 C 100.826,52.3433 104.159,50.51 107.5,49C 102.167,54.3333 96.8333,59.6667 91.5,65C 100.833,65.3333 110.167,65.6667 119.5,66C 109.829,70.1688 100.496,74.8354 91.5,80C 96.0601,86.9376 101.227,93.4376 107,99.5C 108.289,101.055 108.956,102.721 109,104.5C 101.759,100.546 94.4261,96.8797 87,93.5C 89.182,100.387 91.182,107.387 93,114.5C 89.25,107.998 85.25,101.665 81,95.5C 78.3681,104.023 76.0348,112.69 74,121.5C 72.3128,112.752 70.3128,104.085 68,95.5C 64,101.5 60,107.5 56,113.5C 57.6335,107.102 59.8002,100.769 62.5,94.5C 62.1667,94.1667 61.8333,93.8333 61.5,93.5C 54.1667,97.1667 46.8333,100.833 39.5,104.5C 38.8933,104.376 38.56,104.043 38.5,103.5C 45.1739,96.0113 51.5073,88.178 57.5,80C 48.377,74.9561 39.0437,70.2894 29.5,66C 38.5,65.6667 47.5,65.3333 56.5,65C 52.1667,60.6667 47.8333,56.3333 43.5,52C 42.552,51.5172 41.552,51.3505 40.5,51.5C 40.7035,49.6096 40.0368,48.1096 38.5,47C 38.8333,46.8333 39.1667,46.6667 39.5,46.5C 45.6598,51.0804 51.9931,55.4138 58.5,59.5C 58.8333,59 59.1667,58.5 59.5,58C 57.7402,50.4754 56.2402,42.9754 55,35.5C 60.571,41.648 65.9044,47.9814 71,54.5C 72.2186,47.1999 73.2186,39.8666 74,32.5C 75.8115,40.024 76.8115,47.6907 77,55.5C 82.6667,48.5 88.3333,41.5 94,34.5C 92.2009,42.7603 90.8676,51.0936 90,59.5C 92.4795,57.6859 94.9795,56.0192 97.5,54.5 Z"/></g>
<g><path style="opacity:1" fill="#967b74" d="M 211.5,91.5 C 207.065,92.0776 205.732,90.4109 207.5,86.5C 209.035,85.2121 210.701,85.2121 212.5,86.5C 214.009,88.62 213.676,90.2867 211.5,91.5 Z"/></g>
<g><path style="opacity:1" fill="#421106" d="M 84.5,8.5 C 159.503,8.16669 234.503,8.50003 309.5,9.5C 309.376,10.1067 309.043,10.44 308.5,10.5C 282.672,9.5022 256.672,9.16887 230.5,9.5C 216.167,9.5 201.833,9.5 187.5,9.5C 161.833,9.5 136.167,9.5 110.5,9.5C 103.666,9.06483 96.9992,9.7315 90.5,11.5C 87.6118,11.2196 86.1118,12.5529 86,15.5C 84.5482,12.3213 82.3815,12.1546 79.5,15C 80.6202,19.1558 82.6202,22.8224 85.5,26C 90.7588,26.7927 95.9255,27.9594 101,29.5C 103.006,27.9977 104.672,28.331 106,30.5C 109.003,29.91 112.003,29.5767 115,29.5C 118.565,31.6174 122.398,33.1174 126.5,34C 120.454,38.4587 114.621,43.292 109,48.5C 108.529,50.2464 107.862,51.913 107,53.5C 103.978,55.6881 101.478,58.3548 99.5,61.5C 105.979,63.7826 112.646,64.616 119.5,64C 120.629,61.8322 122.129,61.3322 124,62.5C 126.087,61.2062 128.254,60.0395 130.5,59C 135.915,58.1536 141.249,56.9869 146.5,55.5C 147.962,56.4709 149.295,56.1376 150.5,54.5C 151.086,54.7093 151.586,55.0426 152,55.5C 155.241,52.8098 158.741,52.3098 162.5,54C 161.346,54.9138 161.513,55.7471 163,56.5C 164.329,55.5061 165.662,54.5061 167,53.5C 169.489,55.3189 171.989,57.1522 174.5,59C 176.446,62.8807 179.112,66.2141 182.5,69C 180.595,69.8261 180.261,70.9928 181.5,72.5C 183.135,73.3302 184.802,73.4969 186.5,73C 190.299,77.8006 194.466,82.3006 199,86.5C 200.585,85.6243 201.585,84.2909 202,82.5C 203.451,84.4641 205.284,85.7974 207.5,86.5C 205.732,90.4109 207.065,92.0776 211.5,91.5C 213.239,94.2427 215.573,96.2427 218.5,97.5C 211.814,103.516 204.814,109.182 197.5,114.5C 190.31,107.813 183.143,100.813 176,93.5C 173.444,94.2191 172.277,95.8858 172.5,98.5C 168.399,98.5705 165.899,96.5705 165,92.5C 163.795,91.9288 162.628,91.2621 161.5,90.5C 162.325,89.6143 163.325,89.281 164.5,89.5C 164.344,86.3536 163.011,83.8536 160.5,82C 160.759,80.7387 161.426,79.7387 162.5,79C 160.539,76.0372 158.206,73.3706 155.5,71C 150.807,72.4058 147.307,70.9058 145,66.5C 144.409,65.5165 144.743,64.8499 146,64.5C 147.162,65.1868 148.328,65.3534 149.5,65C 149.043,64.586 148.709,64.086 148.5,63.5C 146.149,63.0196 143.815,62.6862 141.5,62.5C 140.614,63.325 140.281,64.325 140.5,65.5C 136.915,63.9604 133.248,63.2938 129.5,63.5C 126.157,65.4856 124.824,68.4856 125.5,72.5C 126.978,72.238 128.311,72.5713 129.5,73.5C 130.803,75.9371 132.47,78.1038 134.5,80C 133.167,81 133.167,82 134.5,83C 136.473,83.4955 138.473,83.6621 140.5,83.5C 140.64,85.1238 139.973,86.2904 138.5,87C 141.637,94.0838 146.137,100.25 152,105.5C 154.672,113.025 159.172,119.358 165.5,124.5C 166.803,126.968 168.303,129.301 170,131.5C 170.74,132.749 170.573,133.749 169.5,134.5C 157.249,131.402 145.082,128.069 133,124.5C 130.514,127.441 128.681,130.775 127.5,134.5C 125.243,134.038 123.243,133.038 121.5,131.5C 120.914,131.709 120.414,132.043 120,132.5C 119.365,128.898 118.032,128.232 116,130.5C 113.968,128.227 111.468,126.56 108.5,125.5C 106.167,126.833 103.833,126.833 101.5,125.5C 100.304,126.559 99.637,127.893 99.5,129.5C 100.143,132.884 100.977,136.217 102,139.5C 102.5,140.667 103.333,141.5 104.5,142C 104.167,142.333 103.833,142.667 103.5,143C 105.645,144.818 105.645,146.318 103.5,147.5C 104.665,148.584 105.998,149.417 107.5,150C 107.043,150.414 106.709,150.914 106.5,151.5C 108.611,156.675 110.611,161.841 112.5,167C 111.6,170.689 109.767,173.856 107,176.5C 104.796,174.307 102.296,172.474 99.5,171C 100.059,170.275 100.392,169.442 100.5,168.5C 99.8607,165.525 99.3607,162.525 99,159.5C 97.9887,158.663 96.8221,158.33 95.5,158.5C 92.2452,152.883 88.9119,147.216 85.5,141.5C 84.086,140.376 82.586,139.376 81,138.5C 80.6905,137.234 80.1905,136.067 79.5,135C 78.175,135.148 77.0084,134.982 76,134.5C 72.2192,143.847 69.2192,153.514 67,163.5C 67.2262,170.137 65.7262,176.303 62.5,182C 63.2492,184.882 63.2492,187.549 62.5,190C 60.6593,193.836 58.9926,197.836 57.5,202C 56.1926,207.264 56.1926,212.764 57.5,218.5C 56.1266,218.343 54.7932,218.51 53.5,219C 54.1667,219.333 54.8333,219.667 55.5,220C 53.714,220.785 52.214,221.951 51,223.5C 50.3333,222.833 49.6667,222.167 49,221.5C 47.6667,222.833 46.3333,222.833 45,221.5C 45.7309,214.875 43.5642,209.209 38.5,204.5C 39.8955,199.266 39.2289,194.266 36.5,189.5C 36.3925,186.231 36.3925,182.898 36.5,179.5C 34.3797,169.853 31.713,160.353 28.5,151C 28.9574,150.586 29.2907,150.086 29.5,149.5C 28.0185,146.322 26.8519,142.988 26,139.5C 23.0848,144.916 21.2515,144.583 20.5,138.5C 19.448,138.351 18.448,138.517 17.5,139C 16.0206,142.572 13.3539,144.406 9.5,144.5C 9.5,130.5 9.5,116.5 9.5,102.5C 10.1095,98.8837 11.7762,95.717 14.5,93C 16.8689,92.4641 18.8689,91.2974 20.5,89.5C 24.072,88.6576 27.572,87.6576 31,86.5C 34.022,90.579 36.522,94.579 38.5,98.5C 37.4647,100.128 37.4647,101.795 38.5,103.5C 38.56,104.043 38.8933,104.376 39.5,104.5C 46.8333,100.833 54.1667,97.1667 61.5,93.5C 61.8333,93.8333 62.1667,94.1667 62.5,94.5C 59.8002,100.769 57.6335,107.102 56,113.5C 60,107.5 64,101.5 68,95.5C 70.3128,104.085 72.3128,112.752 74,121.5C 76.0348,112.69 78.3681,104.023 81,95.5C 85.25,101.665 89.25,107.998 93,114.5C 91.182,107.387 89.182,100.387 87,93.5C 94.4261,96.8797 101.759,100.546 109,104.5C 108.956,102.721 108.289,101.055 107,99.5C 101.227,93.4376 96.0601,86.9376 91.5,80C 100.496,74.8354 109.829,70.1688 119.5,66C 110.167,65.6667 100.833,65.3333 91.5,65C 96.8333,59.6667 102.167,54.3333 107.5,49C 104.159,50.51 100.826,52.3433 97.5,54.5C 95.3141,54.4894 94.4808,53.4894 95,51.5C 100.146,48.887 104.812,45.5537 109,41.5C 109.018,39.2028 108.851,36.8695 108.5,34.5C 99.0417,32.9944 89.375,31.4944 79.5,30C 75.7771,27.9435 73.1104,24.9435 71.5,21C 72.7604,19.887 73.927,19.7203 75,20.5C 75.5946,19.1011 75.4279,17.7678 74.5,16.5C 76.3479,14.0277 76.3479,11.861 74.5,10C 78.0252,9.82129 81.3586,9.32129 84.5,8.5 Z"/></g>
<g><path style="opacity:1" fill="#3c1207" d="M 197.5,114.5 C 189.065,121.091 180.732,127.924 172.5,135C 171.251,135.74 170.251,135.573 169.5,134.5C 170.573,133.749 170.74,132.749 170,131.5C 168.303,129.301 166.803,126.968 165.5,124.5C 159.172,119.358 154.672,113.025 152,105.5C 146.137,100.25 141.637,94.0838 138.5,87C 139.973,86.2904 140.64,85.1238 140.5,83.5C 138.473,83.6621 136.473,83.4955 134.5,83C 133.167,82 133.167,81 134.5,80C 132.47,78.1038 130.803,75.9371 129.5,73.5C 128.311,72.5713 126.978,72.238 125.5,72.5C 124.824,68.4856 126.157,65.4856 129.5,63.5C 133.248,63.2938 136.915,63.9604 140.5,65.5C 140.281,64.325 140.614,63.325 141.5,62.5C 143.815,62.6862 146.149,63.0196 148.5,63.5C 148.709,64.086 149.043,64.586 149.5,65C 148.328,65.3534 147.162,65.1868 146,64.5C 144.743,64.8499 144.409,65.5165 145,66.5C 147.307,70.9058 150.807,72.4058 155.5,71C 158.206,73.3706 160.539,76.0372 162.5,79C 161.426,79.7387 160.759,80.7387 160.5,82C 163.011,83.8536 164.344,86.3536 164.5,89.5C 163.325,89.281 162.325,89.6143 161.5,90.5C 162.628,91.2621 163.795,91.9288 165,92.5C 165.899,96.5705 168.399,98.5705 172.5,98.5C 172.277,95.8858 173.444,94.2191 176,93.5C 183.143,100.813 190.31,107.813 197.5,114.5 Z"/></g>
<g><path style="opacity:1" fill="#7f635d" d="M 141.5,68.5 C 144.91,68.3838 146.244,70.0504 145.5,73.5C 144.167,73.5 142.833,73.5 141.5,73.5C 141.5,71.8333 141.5,70.1667 141.5,68.5 Z"/></g>
<g><path style="opacity:1" fill="#d6c519" d="M 83.5,54.5 C 84.1386,55.0968 84.472,55.9302 84.5,57C 82.9266,61.3661 81.9266,65.8661 81.5,70.5C 86.5111,70.3341 91.5111,70.5007 96.5,71C 92.039,73.0643 87.7057,75.3977 83.5,78C 86.138,82.1053 89.138,85.9386 92.5,89.5C 92.1667,89.8333 91.8333,90.1667 91.5,90.5C 87.5,88.5 83.5,86.5 79.5,84.5C 78.914,84.7093 78.414,85.0426 78,85.5C 76.8649,89.9047 75.5315,94.2381 74,98.5C 72.5896,94.0239 71.423,89.5239 70.5,85C 65.3661,86.4074 60.3661,88.0741 55.5,90C 58.8333,86 62.1667,82 65.5,78C 60.8333,75.6667 56.1667,73.3333 51.5,71C 56.8642,70.8295 62.1975,70.3295 67.5,69.5C 65.9106,64.92 65.0773,60.2534 65,55.5C 68,59.1667 71,62.8333 74,66.5C 77.416,62.6516 80.5827,58.6516 83.5,54.5 Z"/></g>
<g><path style="opacity:1" fill="#4e1406" d="M 110.5,9.5 C 109.282,10.1614 107.949,10.8281 106.5,11.5C 107.517,14.028 108.684,14.028 110,11.5C 114.035,16.0356 118.535,20.0356 123.5,23.5C 124.167,22.8333 124.833,22.1667 125.5,21.5C 133.441,22.9629 139.441,27.1295 143.5,34C 138.533,33.466 136.533,35.6327 137.5,40.5C 135.833,40.5 134.167,40.5 132.5,40.5C 132.5,41.5 132.5,42.5 132.5,43.5C 134.792,43.7564 136.959,43.4231 139,42.5C 140,43.1667 141,43.8333 142,44.5C 146.678,43.7451 151.345,42.7451 156,41.5C 157,41.8333 158,42.1667 159,42.5C 165.317,39.3014 171.817,37.4681 178.5,37C 184.729,33.6931 190.895,30.1931 197,26.5C 199.055,26.848 201.055,26.1814 203,24.5C 203.333,24.8333 203.667,25.1667 204,25.5C 207.833,22.3333 211.667,19.1667 215.5,16C 211.251,13.3136 206.751,12.147 202,12.5C 197.92,11.6998 193.753,11.1998 189.5,11C 188.584,10.7216 187.918,10.2216 187.5,9.5C 201.833,9.5 216.167,9.5 230.5,9.5C 231.263,10.2679 232.263,10.7679 233.5,11C 232.566,14.2724 233.233,17.2724 235.5,20C 233.557,21.5555 231.39,22.7221 229,23.5C 227.31,22.8505 225.477,22.8505 223.5,23.5C 223.594,26.5406 222.094,28.2072 219,28.5C 218.125,26.4873 216.791,26.4873 215,28.5C 214.667,28.1667 214.333,27.8333 214,27.5C 212.796,28.4706 212.296,29.4706 212.5,30.5C 211.833,30.1667 211.167,29.8333 210.5,29.5C 206.649,31.1311 202.649,33.2978 198.5,36C 192.476,35.0302 188.976,37.5302 188,43.5C 187.581,42.3279 186.915,41.3279 186,40.5C 176.058,43.3423 165.891,45.8423 155.5,48C 154.874,48.7504 154.374,49.5838 154,50.5C 151.593,50.3267 149.26,50.3267 147,50.5C 144.667,51.877 142.167,52.877 139.5,53.5C 137.255,53.7451 134.922,53.7451 132.5,53.5C 127.264,56.1659 122.097,56.8326 117,55.5C 116.801,53.5975 115.967,52.0975 114.5,51C 115.973,50.2904 116.64,49.1238 116.5,47.5C 117.873,47.6567 119.207,47.49 120.5,47C 120.167,46.6667 119.833,46.3333 119.5,46C 123.783,43.3847 127.783,40.3847 131.5,37C 134.215,33.2801 133.215,30.6135 128.5,29C 118.738,27.873 109.071,26.2063 99.5,24C 97.5378,22.379 95.8712,20.5457 94.5,18.5C 93.1861,19.3128 92.0195,20.3128 91,21.5C 90.1301,20.8921 89.6301,20.0588 89.5,19C 91.2709,16.5792 91.6042,14.0792 90.5,11.5C 96.9992,9.7315 103.666,9.06483 110.5,9.5 Z"/></g>
<g><path style="opacity:1" fill="#8d3c10" d="M 313.5,18.5 C 314.499,72.9975 314.832,127.664 314.5,182.5C 312.833,182.5 311.167,182.5 309.5,182.5C 309.297,180.61 309.963,179.11 311.5,178C 310.809,176.933 310.309,175.766 310,174.5C 308.86,159.734 307.026,145.067 304.5,130.5C 303.264,131.246 301.93,131.579 300.5,131.5C 301.403,128.132 302.737,124.965 304.5,122C 302.542,119.252 300.709,116.418 299,113.5C 298.085,114.328 297.419,115.328 297,116.5C 294.073,126.946 292.573,137.612 292.5,148.5C 290.052,148.085 288.719,149.085 288.5,151.5C 289.1,153.468 290.433,154.468 292.5,154.5C 290.806,165.087 289.306,175.754 288,186.5C 287.07,189.362 285.403,191.695 283,193.5C 282.667,192.833 282.333,192.167 282,191.5C 280.492,193.838 278.325,194.838 275.5,194.5C 275.945,191.72 275.945,189.053 275.5,186.5C 259.118,167.239 242.785,148.072 226.5,129C 223.886,128.583 221.886,129.583 220.5,132C 218.174,137.783 218.007,143.616 220,149.5C 221.046,146.541 222.879,145.874 225.5,147.5C 225.5,148.167 225.5,148.833 225.5,149.5C 223.958,150.301 222.292,150.634 220.5,150.5C 220.5,151.5 220.5,152.5 220.5,153.5C 219.5,153.5 218.5,153.5 217.5,153.5C 218.877,158.386 219.711,163.386 220,168.5C 220.71,169.973 221.876,170.64 223.5,170.5C 223.822,172.722 223.155,174.556 221.5,176C 223.27,183.887 225.27,191.72 227.5,199.5C 227.06,201.765 226.394,203.932 225.5,206C 224.167,206.667 222.833,206.667 221.5,206C 218.686,203.451 215.852,201.617 213,200.5C 212.667,200.833 212.333,201.167 212,201.5C 207.295,197.808 202.295,194.474 197,191.5C 196.292,192.381 195.458,193.047 194.5,193.5C 194.833,192.167 195.167,190.833 195.5,189.5C 198.154,183.523 200.82,177.523 203.5,171.5C 213.377,146.075 223.544,120.742 234,95.5C 236.833,92.6667 239.667,89.8333 242.5,87C 253.397,80.7256 264.064,74.2256 274.5,67.5C 279.727,64.9521 284.727,61.9521 289.5,58.5C 297.511,45.1389 305.511,31.8056 313.5,18.5 Z"/></g>
<g><path style="opacity:1" fill="#bc866a" d="M 292.5,148.5 C 294.994,150.406 294.994,152.406 292.5,154.5C 290.433,154.468 289.1,153.468 288.5,151.5C 288.719,149.085 290.052,148.085 292.5,148.5 Z"/></g>
<g><path style="opacity:1" fill="#b68267" d="M 272.5,127.5 C 276.734,127.062 278.401,128.728 277.5,132.5C 272.134,134.468 270.467,132.801 272.5,127.5 Z"/></g>
<g><path style="opacity:1" fill="#471609" d="M 230.5,9.5 C 256.672,9.16887 282.672,9.5022 308.5,10.5C 300.194,24.4827 291.861,38.4827 283.5,52.5C 277.598,55.9416 271.932,59.6083 266.5,63.5C 256.405,69.0788 246.405,74.9121 236.5,81C 230.93,87.0748 224.93,92.5748 218.5,97.5C 215.573,96.2427 213.239,94.2427 211.5,91.5C 213.676,90.2867 214.009,88.62 212.5,86.5C 210.701,85.2121 209.035,85.2121 207.5,86.5C 205.284,85.7974 203.451,84.4641 202,82.5C 201.585,84.2909 200.585,85.6243 199,86.5C 194.466,82.3006 190.299,77.8006 186.5,73C 184.802,73.4969 183.135,73.3302 181.5,72.5C 180.261,70.9928 180.595,69.8261 182.5,69C 179.112,66.2141 176.446,62.8807 174.5,59C 171.989,57.1522 169.489,55.3189 167,53.5C 165.662,54.5061 164.329,55.5061 163,56.5C 161.513,55.7471 161.346,54.9138 162.5,54C 158.741,52.3098 155.241,52.8098 152,55.5C 151.586,55.0426 151.086,54.7093 150.5,54.5C 149.295,56.1376 147.962,56.4709 146.5,55.5C 141.249,56.9869 135.915,58.1536 130.5,59C 128.254,60.0395 126.087,61.2062 124,62.5C 122.129,61.3322 120.629,61.8322 119.5,64C 112.646,64.616 105.979,63.7826 99.5,61.5C 101.478,58.3548 103.978,55.6881 107,53.5C 107.862,51.913 108.529,50.2464 109,48.5C 114.621,43.292 120.454,38.4587 126.5,34C 122.398,33.1174 118.565,31.6174 115,29.5C 112.003,29.5767 109.003,29.91 106,30.5C 104.672,28.331 103.006,27.9977 101,29.5C 95.9255,27.9594 90.7588,26.7927 85.5,26C 82.6202,22.8224 80.6202,19.1558 79.5,15C 82.3815,12.1546 84.5482,12.3213 86,15.5C 86.1118,12.5529 87.6118,11.2196 90.5,11.5C 91.6042,14.0792 91.2709,16.5792 89.5,19C 89.6301,20.0588 90.1301,20.8921 91,21.5C 92.0195,20.3128 93.1861,19.3128 94.5,18.5C 95.8712,20.5457 97.5378,22.379 99.5,24C 109.071,26.2063 118.738,27.873 128.5,29C 133.215,30.6135 134.215,33.2801 131.5,37C 127.783,40.3847 123.783,43.3847 119.5,46C 119.833,46.3333 120.167,46.6667 120.5,47C 119.207,47.49 117.873,47.6567 116.5,47.5C 116.64,49.1238 115.973,50.2904 114.5,51C 115.967,52.0975 116.801,53.5975 117,55.5C 122.097,56.8326 127.264,56.1659 132.5,53.5C 134.922,53.7451 137.255,53.7451 139.5,53.5C 142.167,52.877 144.667,51.877 147,50.5C 149.26,50.3267 151.593,50.3267 154,50.5C 154.374,49.5838 154.874,48.7504 155.5,48C 165.891,45.8423 176.058,43.3423 186,40.5C 186.915,41.3279 187.581,42.3279 188,43.5C 188.976,37.5302 192.476,35.0302 198.5,36C 202.649,33.2978 206.649,31.1311 210.5,29.5C 211.167,29.8333 211.833,30.1667 212.5,30.5C 212.296,29.4706 212.796,28.4706 214,27.5C 214.333,27.8333 214.667,28.1667 215,28.5C 216.791,26.4873 218.125,26.4873 219,28.5C 222.094,28.2072 223.594,26.5406 223.5,23.5C 225.477,22.8505 227.31,22.8505 229,23.5C 231.39,22.7221 233.557,21.5555 235.5,20C 233.233,17.2724 232.566,14.2724 233.5,11C 232.263,10.7679 231.263,10.2679 230.5,9.5 Z"/></g>
<g><path style="opacity:1" fill="#561607" d="M 110.5,9.5 C 136.167,9.5 161.833,9.5 187.5,9.5C 187.918,10.2216 188.584,10.7216 189.5,11C 193.753,11.1998 197.92,11.6998 202,12.5C 206.751,12.147 211.251,13.3136 215.5,16C 211.667,19.1667 207.833,22.3333 204,25.5C 203.667,25.1667 203.333,24.8333 203,24.5C 201.055,26.1814 199.055,26.848 197,26.5C 190.895,30.1931 184.729,33.6931 178.5,37C 171.817,37.4681 165.317,39.3014 159,42.5C 158,42.1667 157,41.8333 156,41.5C 151.345,42.7451 146.678,43.7451 142,44.5C 141,43.8333 140,43.1667 139,42.5C 136.959,43.4231 134.792,43.7564 132.5,43.5C 132.5,42.5 132.5,41.5 132.5,40.5C 134.167,40.5 135.833,40.5 137.5,40.5C 136.533,35.6327 138.533,33.466 143.5,34C 139.441,27.1295 133.441,22.9629 125.5,21.5C 124.833,22.1667 124.167,22.8333 123.5,23.5C 118.535,20.0356 114.035,16.0356 110,11.5C 108.684,14.028 107.517,14.028 106.5,11.5C 107.949,10.8281 109.282,10.1614 110.5,9.5 Z"/></g>
<g><path style="opacity:1" fill="#371006" d="M 84.5,8.5 C 81.3586,9.32129 78.0252,9.82129 74.5,10C 76.3479,11.861 76.3479,14.0277 74.5,16.5C 75.4279,17.7678 75.5946,19.1011 75,20.5C 73.927,19.7203 72.7604,19.887 71.5,21C 73.1104,24.9435 75.7771,27.9435 79.5,30C 89.375,31.4944 99.0417,32.9944 108.5,34.5C 108.851,36.8695 109.018,39.2028 109,41.5C 104.812,45.5537 100.146,48.887 95,51.5C 94.4808,53.4894 95.3141,54.4894 97.5,54.5C 94.9795,56.0192 92.4795,57.6859 90,59.5C 90.8676,51.0936 92.2009,42.7603 94,34.5C 88.3333,41.5 82.6667,48.5 77,55.5C 76.8115,47.6907 75.8115,40.024 74,32.5C 73.2186,39.8666 72.2186,47.1999 71,54.5C 65.9044,47.9814 60.571,41.648 55,35.5C 56.2402,42.9754 57.7402,50.4754 59.5,58C 59.1667,58.5 58.8333,59 58.5,59.5C 51.9931,55.4138 45.6598,51.0804 39.5,46.5C 39.1667,46.6667 38.8333,46.8333 38.5,47C 40.0368,48.1096 40.7035,49.6096 40.5,51.5C 41.552,51.3505 42.552,51.5172 43.5,52C 47.8333,56.3333 52.1667,60.6667 56.5,65C 47.5,65.3333 38.5,65.6667 29.5,66C 39.0437,70.2894 48.377,74.9561 57.5,80C 51.5073,88.178 45.1739,96.0113 38.5,103.5C 37.4647,101.795 37.4647,100.128 38.5,98.5C 36.522,94.579 34.022,90.579 31,86.5C 27.572,87.6576 24.072,88.6576 20.5,89.5C 18.8689,91.2974 16.8689,92.4641 14.5,93C 11.7762,95.717 10.1095,98.8837 9.5,102.5C 9.33346,90.4954 9.50013,78.4954 10,66.5C 10.6924,65.9747 11.1924,65.3081 11.5,64.5C 9.56954,56.0326 8.90288,47.366 9.5,38.5C 12.1977,24.6281 20.1977,15.1281 33.5,10C 50.4519,8.57335 67.4519,8.07335 84.5,8.5 Z"/></g>
<g><path style="opacity:1" fill="#262428" d="M 137.5,6.5 C 129.5,6.84666 121.167,7.17999 112.5,7.5C 112.407,5.75261 112.074,3.91927 111.5,2C 113.57,-0.127226 115.403,0.0394409 117,2.5C 120.864,1.34693 124.864,0.680262 129,0.5C 131,1.16667 133,1.83333 135,2.5C 135.308,1.69194 135.808,1.02527 136.5,0.5C 138.216,2.43718 138.549,4.43718 137.5,6.5 Z"/></g>
<g><path style="opacity:1" fill="#212023" d="M 271.5,1.5 C 271.414,2.4959 271.748,3.32924 272.5,4C 269.737,4.54974 267.07,5.38307 264.5,6.5C 261.811,4.54128 259.144,4.37462 256.5,6C 256.833,6.33333 257.167,6.66667 257.5,7C 256.167,7.16667 254.833,7.33333 253.5,7.5C 242.931,7.15606 232.598,7.15606 222.5,7.5C 223.678,6.00136 225.345,5.00136 227.5,4.5C 226.189,3.74247 225.689,2.74247 226,1.5C 227.873,0.910888 229.54,1.57755 231,3.5C 232.441,2.13003 234.108,1.13003 236,0.5C 240.127,1.23614 244.127,1.23614 248,0.5C 249.473,0.903069 250.806,1.56974 252,2.5C 256.275,2.04219 260.775,1.37553 265.5,0.5C 267.512,0.839563 269.512,1.1729 271.5,1.5 Z"/></g>
<g><path style="opacity:0.937" fill="#0a0909" d="M 210.5,315.5 C 221.5,315.5 232.5,315.5 243.5,315.5C 244.479,317.145 245.812,318.479 247.5,319.5C 248.711,318.726 248.711,317.893 247.5,317C 251.833,316.333 256.167,316.333 260.5,317C 261.602,319.391 260.936,319.891 258.5,318.5C 257.614,319.325 257.281,320.325 257.5,321.5C 264.841,321.666 272.174,321.5 279.5,321C 278.289,320.107 278.289,319.274 279.5,318.5C 284.552,320.405 289.552,321.072 294.5,320.5C 288.537,322.99 282.204,323.99 275.5,323.5C 274.833,323.5 274.167,323.5 273.5,323.5C 266.5,323.5 259.5,323.5 252.5,323.5C 248.5,323.5 244.5,323.5 240.5,323.5C 160.5,323.5 80.5,323.5 0.5,323.5C 0.334989,320.15 0.501655,316.817 1,313.5C 1.11791,320.959 4.95124,323.625 12.5,321.5C 29.325,321.653 46.1583,321.319 63,320.5C 90.3333,321.167 117.667,321.833 145,322.5C 149.238,322.129 153.238,321.129 157,319.5C 157.5,320 158,320.5 158.5,321C 161.426,321.218 164.26,321.718 167,322.5C 171,321.167 175,321.167 179,322.5C 179.667,321.833 180.333,321.167 181,320.5C 191.808,321.891 202.641,321.724 213.5,320C 211.026,319.887 209.026,318.887 207.5,317C 208.737,316.768 209.737,316.268 210.5,315.5 Z"/></g>
<g><path style="opacity:0.004" fill="#fbb21f" d="M 240.5,323.5 C 244.5,323.5 248.5,323.5 252.5,323.5C 252.5,323.833 252.5,324.167 252.5,324.5C 248.4,325.153 244.4,324.82 240.5,323.5 Z"/></g>
<g><path style="opacity:0.004" fill="#e28b18" d="M 252.5,324.5 C 253.239,324.369 253.906,324.536 254.5,325C 253.563,325.692 252.897,325.525 252.5,324.5 Z"/></g>
<g><path style="opacity:0.004" fill="#e7921a" d="M 273.5,323.5 C 274.167,323.5 274.833,323.5 275.5,323.5C 274.9,324.9 273.9,325.9 272.5,326.5C 272.167,326.5 271.833,326.5 271.5,326.5C 270.5,325.167 269.5,325.167 268.5,326.5C 268.167,326.5 267.833,326.5 267.5,326.5C 269.156,324.94 271.156,323.94 273.5,323.5 Z"/></g>
</svg>
