<?xml version="1.0" encoding="UTF-8"?>
<!DOCTYPE svg PUBLIC "-//W3C//DTD SVG 1.1//EN" "http://www.w3.org/Graphics/SVG/1.1/DTD/svg11.dtd">
<svg xmlns="http://www.w3.org/2000/svg" version="1.1" width="100%" viewBox="0 0 329 329" style="shape-rendering:geometricPrecision; text-rendering:geometricPrecision; image-rendering:optimizeQuality; fill-rule:evenodd; clip-rule:evenodd" xmlns:xlink="http://www.w3.org/1999/xlink">
<g><path style="opacity:0.406" fill="#030303" d="M 118.5,-0.5 C 123.5,-0.5 128.5,-0.5 133.5,-0.5C 136.993,2.07423 140.493,4.7409 144,7.5C 147.172,19.0343 149.839,30.701 152,42.5C 152.974,49.4847 153.807,56.4847 154.5,63.5C 152.727,93.6903 150.061,123.69 146.5,153.5C 146.667,157.5 146.833,161.5 147,165.5C 149.379,167.513 151.879,169.346 154.5,171C 155.5,171.167 156.5,171.333 157.5,171.5C 162.826,170.621 168.159,170.454 173.5,171C 176.054,168.446 178.554,165.946 181,163.5C 181.667,158.833 181.667,154.167 181,149.5C 177.968,123.947 175.634,98.2808 174,72.5C 174.074,50.9785 177.408,29.9785 184,9.5C 187.396,5.93487 190.896,2.60153 194.5,-0.5C 199.167,-0.5 203.833,-0.5 208.5,-0.5C 211.33,2.09243 214.496,4.42576 218,6.5C 220.688,14.2882 222.188,22.2882 222.5,30.5C 225.57,33.3683 229.236,35.2016 233.5,36C 239.361,43.189 245.194,50.3557 251,57.5C 254.524,66.8711 256.524,76.5378 257,86.5C 258.181,90.8911 259.514,95.2245 261,99.5C 261.333,104.5 261.667,109.5 262,114.5C 264.739,126.772 267.405,139.106 270,151.5C 278.93,155.81 288.43,158.977 298.5,161C 299.167,161.667 299.833,162.333 300.5,163C 318.134,164.98 325.634,174.813 323,192.5C 320.853,198.423 319.02,204.423 317.5,210.5C 316.044,213.741 314.711,217.074 313.5,220.5C 310.601,223.952 307.934,227.618 305.5,231.5C 309.199,236.03 312.699,240.697 316,245.5C 316.216,247.384 316.883,249.051 318,250.5C 318.667,252.833 318.667,255.167 318,257.5C 313.804,264.87 308.304,271.203 301.5,276.5C 300.754,277.736 300.421,279.07 300.5,280.5C 299.178,280.33 298.011,280.663 297,281.5C 296.667,284.167 296.333,286.833 296,289.5C 288.323,299.52 279.156,307.687 268.5,314C 264.318,314.611 260.318,313.944 256.5,312C 252.285,308.278 247.952,304.778 243.5,301.5C 238.434,304.39 233.768,307.89 229.5,312C 219.53,315.566 211.363,313.066 205,304.5C 201.368,310.366 197.201,315.866 192.5,321C 187.863,323.803 183.196,326.303 178.5,328.5C 174.833,328.5 171.167,328.5 167.5,328.5C 167.389,327.883 167.056,327.383 166.5,327C 162.523,326.121 158.856,326.621 155.5,328.5C 152.833,328.5 150.167,328.5 147.5,328.5C 139.238,326.608 132.404,322.275 127,315.5C 125.861,311.888 124.194,308.554 122,305.5C 119.338,307.494 116.671,309.494 114,311.5C 110.892,312.193 107.892,313.193 105,314.5C 101.756,313.53 98.5897,312.363 95.5,311C 91.6438,307.643 87.6438,304.476 83.5,301.5C 79.3337,303.637 75.6671,306.47 72.5,310C 65.5602,314.845 58.5602,315.178 51.5,311C 45.3238,305.99 39.6571,300.49 34.5,294.5C 32.8293,290.654 31.6626,286.654 31,282.5C 25,276.5 19,270.5 13,264.5C 8.41075,257.234 8.41075,249.901 13,242.5C 16.6395,239.207 19.8061,235.54 22.5,231.5C 18.4917,227.65 14.9917,223.317 12,218.5C 9.73523,207.608 7.23523,196.775 4.5,186C 5.45089,178.098 8.78422,171.432 14.5,166C 26.4386,161.255 38.7719,157.255 51.5,154C 54.1024,153.117 56.2691,151.617 58,149.5C 62.6816,128.725 66.3483,107.725 69,86.5C 71.1665,78.0057 73.3331,69.5057 75.5,61C 82.3131,48.1913 91.8131,38.0246 104,30.5C 106.125,23.5489 108.125,16.5489 110,9.5C 112.669,6.00033 115.502,2.66699 118.5,-0.5 Z"/></g>
<g><path style="opacity:1" fill="#53575a" d="M 135.5,5.5 C 136.833,5.5 138.167,5.5 139.5,5.5C 139.433,6.95875 139.766,8.29208 140.5,9.5C 139.078,9.25038 138.078,8.41704 137.5,7C 135.421,6.19234 133.421,6.35901 131.5,7.5C 133.386,8.40626 135.22,9.40626 137,10.5C 137.499,15.4889 137.666,20.4889 137.5,25.5C 134.421,25.2601 131.421,25.5934 128.5,26.5C 128.134,32.2294 127.134,37.5627 125.5,42.5C 125.416,30.3208 126.916,18.3208 130,6.5C 131.699,5.59391 133.533,5.26057 135.5,5.5 Z"/></g>
<g><path style="opacity:0.599" fill="#76797c" d="M 218.5,52.5 C 216.605,39.7494 214.938,26.7494 213.5,13.5C 214.921,7.88676 212.921,5.7201 207.5,7C 212.135,11.7971 211.135,14.4638 204.5,15C 203.219,16.4087 202.219,17.9087 201.5,19.5C 202.167,15.1667 202.833,10.8333 203.5,6.5C 204.317,4.52208 205.817,3.52208 208,3.5C 210.681,4.337 213.014,5.67033 215,7.5C 215.675,22.595 216.842,37.595 218.5,52.5 Z"/></g>
<g><path style="opacity:1" fill="#4d4f51" d="M 203.5,6.5 C 202.833,10.8333 202.167,15.1667 201.5,19.5C 200.687,21.2608 199.687,22.9275 198.5,24.5C 199.82,19.9605 200.653,15.2938 201,10.5C 201.2,8.68034 202.034,7.347 203.5,6.5 Z"/></g>
<g><path style="opacity:1" fill="#96999d" d="M 213.5,13.5 C 211.708,18.7455 210.874,24.4121 211,30.5C 209.982,32.5644 208.649,32.8977 207,31.5C 204.6,32.0441 202.267,32.7108 200,33.5C 197.625,39.9353 196.125,46.602 195.5,53.5C 195.728,55.2073 196.062,56.874 196.5,58.5C 196.833,73.8333 197.167,89.1667 197.5,104.5C 196.833,98.8333 196.167,93.1667 195.5,87.5C 195.261,83.1578 194.927,78.8244 194.5,74.5C 194.334,64.1613 194.5,53.828 195,43.5C 197.139,38.4098 198.306,33.0764 198.5,27.5C 198.5,26.5 198.5,25.5 198.5,24.5C 199.687,22.9275 200.687,21.2608 201.5,19.5C 202.219,17.9087 203.219,16.4087 204.5,15C 211.135,14.4638 212.135,11.7971 207.5,7C 212.921,5.7201 214.921,7.88676 213.5,13.5 Z"/></g>
<g><path style="opacity:0.238" fill="#353637" d="M 142.5,21.5 C 144.22,25.4583 145.22,29.7916 145.5,34.5C 143.692,33.0821 143.025,31.0821 143.5,28.5C 143.552,26.0971 143.219,23.7638 142.5,21.5 Z"/></g>
<g><path style="opacity:1" fill="#1a1b1d" d="M 135.5,5.5 C 133.533,5.26057 131.699,5.59391 130,6.5C 126.916,18.3208 125.416,30.3208 125.5,42.5C 125.5,43.1667 125.5,43.8333 125.5,44.5C 124.174,48.8466 122.508,53.1799 120.5,57.5C 122.403,41.0454 124.57,24.712 127,8.5C 128.914,3.51188 131.747,2.51188 135.5,5.5 Z"/></g>
<g><path style="opacity:1" fill="#777b7f" d="M 140.5,9.5 C 141.167,13.5 141.833,17.5 142.5,21.5C 143.219,23.7638 143.552,26.0971 143.5,28.5C 142.109,24.3027 140.609,19.9693 139,15.5C 138.5,22.8258 138.334,30.1591 138.5,37.5C 137.5,37.5 136.5,37.5 135.5,37.5C 135.703,39.3904 135.037,40.8904 133.5,42C 131.567,42.2511 129.734,42.7511 128,43.5C 125.335,51.6496 123.835,59.9829 123.5,68.5C 123.167,68.5 122.833,68.5 122.5,68.5C 122.5,65.5 122.5,62.5 122.5,59.5C 123.906,54.5867 124.906,49.5867 125.5,44.5C 125.5,43.8333 125.5,43.1667 125.5,42.5C 127.134,37.5627 128.134,32.2294 128.5,26.5C 131.421,25.5934 134.421,25.2601 137.5,25.5C 137.666,20.4889 137.499,15.4889 137,10.5C 135.22,9.40626 133.386,8.40626 131.5,7.5C 133.421,6.35901 135.421,6.19234 137.5,7C 138.078,8.41704 139.078,9.25038 140.5,9.5 Z"/></g>
<g><path style="opacity:1" fill="#4f5153" d="M 198.5,27.5 C 198.306,33.0764 197.139,38.4098 195,43.5C 194.5,53.828 194.334,64.1613 194.5,74.5C 193.176,63.3265 193.176,51.9931 194.5,40.5C 195.749,36.0298 197.082,31.6964 198.5,27.5 Z"/></g>
<g><path style="opacity:1" fill="#b2b6b9" d="M 213.5,13.5 C 214.938,26.7494 216.605,39.7494 218.5,52.5C 218.5,53.8333 218.5,55.1667 218.5,56.5C 218.5,58.8333 218.5,61.1667 218.5,63.5C 217.758,59.7802 216.591,56.1135 215,52.5C 214.058,57.2594 211.391,58.5927 207,56.5C 203.429,57.0318 199.929,57.6985 196.5,58.5C 196.062,56.874 195.728,55.2073 195.5,53.5C 196.125,46.602 197.625,39.9353 200,33.5C 202.267,32.7108 204.6,32.0441 207,31.5C 208.649,32.8977 209.982,32.5644 211,30.5C 210.874,24.4121 211.708,18.7455 213.5,13.5 Z"/></g>
<g><path style="opacity:0.588" fill="#5f6062" d="M 234.5,42.5 C 237.5,42.8333 239.167,44.5 239.5,47.5C 237.718,46.0092 236.052,44.3425 234.5,42.5 Z"/></g>
<g><path style="opacity:1" fill="#46494c" d="M 109.5,39.5 C 109.736,42.2257 108.903,44.559 107,46.5C 102.634,51.6949 98.1344,56.6949 93.5,61.5C 96.5506,55.0813 100.384,49.0813 105,43.5C 106.011,42.6634 107.178,42.33 108.5,42.5C 108.263,41.209 108.596,40.209 109.5,39.5 Z"/></g>
<g><path style="opacity:1" fill="#c4c6c8" d="M 234.5,41.5 C 234.5,41.8333 234.5,42.1667 234.5,42.5C 236.052,44.3425 237.718,46.0092 239.5,47.5C 241.873,51.3936 244.54,55.0602 247.5,58.5C 247.69,62.2946 248.69,65.6279 250.5,68.5C 250.5,70.5 250.5,72.5 250.5,74.5C 250.5,75.1667 250.5,75.8333 250.5,76.5C 248.399,71.8479 247.232,66.8479 247,61.5C 244.32,56.0979 242.154,56.2646 240.5,62C 238.527,62.4955 236.527,62.6621 234.5,62.5C 234.408,66.059 235.241,69.3924 237,72.5C 237.499,77.4889 237.666,82.4889 237.5,87.5C 237.167,87.5 236.833,87.5 236.5,87.5C 236.508,80.8759 235.508,74.5426 233.5,68.5C 229.905,59.4535 227.572,50.1202 226.5,40.5C 229.467,39.1206 232.134,39.4539 234.5,41.5 Z"/></g>
<g><path style="opacity:1" fill="#8e9397" d="M 143.5,28.5 C 143.025,31.0821 143.692,33.0821 145.5,34.5C 145.279,37.2788 145.612,39.9455 146.5,42.5C 146.5,44.1667 146.5,45.8333 146.5,47.5C 144.763,44.992 143.93,41.992 144,38.5C 143.687,42.6568 142.853,46.6568 141.5,50.5C 137.745,52.904 133.745,54.904 129.5,56.5C 128.344,57.5761 128.511,58.5761 130,59.5C 130.667,61.1667 130.667,62.8333 130,64.5C 127.937,66.9129 125.77,68.2462 123.5,68.5C 123.835,59.9829 125.335,51.6496 128,43.5C 129.734,42.7511 131.567,42.2511 133.5,42C 135.037,40.8904 135.703,39.3904 135.5,37.5C 136.5,37.5 137.5,37.5 138.5,37.5C 138.334,30.1591 138.5,22.8258 139,15.5C 140.609,19.9693 142.109,24.3027 143.5,28.5 Z"/></g>
<g><path style="opacity:1" fill="#4b4e50" d="M 111.5,60.5 C 112.175,53.9551 113.175,47.4551 114.5,41C 113.5,38.3894 111.833,37.8894 109.5,39.5C 110.918,37.6921 112.918,37.0254 115.5,37.5C 115.827,42.2137 115.493,46.8804 114.5,51.5C 114.094,54.9391 113.094,57.9391 111.5,60.5 Z"/></g>
<g><path style="opacity:1" fill="#cfd1d4" d="M 218.5,63.5 C 218.833,63.5 219.167,63.5 219.5,63.5C 219.5,66.5 219.5,69.5 219.5,72.5C 218.442,71.3998 217.608,70.0664 217,68.5C 216.5,69.6667 215.667,70.5 214.5,71C 209.129,72.337 203.963,74.1703 199,76.5C 198.5,85.8274 198.334,95.1607 198.5,104.5C 198.167,104.5 197.833,104.5 197.5,104.5C 197.167,89.1667 196.833,73.8333 196.5,58.5C 199.929,57.6985 203.429,57.0318 207,56.5C 211.391,58.5927 214.058,57.2594 215,52.5C 216.591,56.1135 217.758,59.7802 218.5,63.5 Z"/></g>
<g><path style="opacity:1" fill="#343638" d="M 125.5,44.5 C 124.906,49.5867 123.906,54.5867 122.5,59.5C 121.833,62.5 121.167,65.5 120.5,68.5C 120.5,64.8333 120.5,61.1667 120.5,57.5C 122.508,53.1799 124.174,48.8466 125.5,44.5 Z"/></g>
<g><path style="opacity:0.824" fill="#464748" d="M 218.5,56.5 C 220.344,58.2789 221.01,60.6122 220.5,63.5C 220.167,63.5 219.833,63.5 219.5,63.5C 219.167,63.5 218.833,63.5 218.5,63.5C 218.5,61.1667 218.5,58.8333 218.5,56.5 Z"/></g>
<g><path style="opacity:1" fill="#7c8185" d="M 111.5,60.5 C 110.024,62.0619 108.524,63.7286 107,65.5C 106.335,70.1561 105.835,74.8228 105.5,79.5C 104.498,90.1732 103.498,100.84 102.5,111.5C 100.57,115.373 99.9031,119.706 100.5,124.5C 100.138,129.421 99.1384,134.087 97.5,138.5C 97.9981,133.848 98.3314,129.181 98.5,124.5C 98.5,124.167 98.5,123.833 98.5,123.5C 99.0248,112.788 100.358,102.122 102.5,91.5C 102.167,89.5 101.833,87.5 101.5,85.5C 98.8338,87.8353 95.8338,89.6686 92.5,91C 89.6955,95.0747 87.8621,99.5747 87,104.5C 86.6749,110.917 85.8415,117.251 84.5,123.5C 83.2879,126.78 82.2879,130.113 81.5,133.5C 81.5045,129.466 81.8379,125.466 82.5,121.5C 82.5,120.833 82.5,120.167 82.5,119.5C 84.5786,114.831 85.5786,109.831 85.5,104.5C 85.5,103.167 85.5,101.833 85.5,100.5C 89.9498,93.6191 91.6164,85.9525 90.5,77.5C 90.5,77.1667 90.5,76.8333 90.5,76.5C 92.0672,75.3192 92.9005,73.6526 93,71.5C 93.498,68.5184 93.6646,65.5184 93.5,62.5C 93.5,62.1667 93.5,61.8333 93.5,61.5C 98.1344,56.6949 102.634,51.6949 107,46.5C 108.903,44.559 109.736,42.2257 109.5,39.5C 111.833,37.8894 113.5,38.3894 114.5,41C 113.175,47.4551 112.175,53.9551 111.5,60.5 Z"/></g>
<g><path style="opacity:1" fill="#dddfdf" d="M 250.5,76.5 C 251.167,80.5 251.833,84.5 252.5,88.5C 252.833,88.5 253.167,88.5 253.5,88.5C 253.5,91.1667 253.5,93.8333 253.5,96.5C 254.117,101.269 254.784,105.936 255.5,110.5C 256.434,111.568 256.768,112.901 256.5,114.5C 257.295,118.785 257.628,123.119 257.5,127.5C 253.6,123.599 249.6,123.599 245.5,127.5C 245.167,127 244.833,126.5 244.5,126C 245.196,123.882 245.363,121.716 245,119.5C 245.833,120.5 246.667,121.5 247.5,122.5C 247.833,122 248.167,121.5 248.5,121C 247.427,119.584 247.427,118.25 248.5,117C 247.672,116.085 246.672,115.419 245.5,115C 250.059,114.689 250.392,113.855 246.5,112.5C 245.446,112.68 244.446,113.013 243.5,113.5C 243.167,113 242.833,112.5 242.5,112C 240.87,103.548 239.203,95.3817 237.5,87.5C 237.666,82.4889 237.499,77.4889 237,72.5C 235.241,69.3924 234.408,66.059 234.5,62.5C 236.527,62.6621 238.527,62.4955 240.5,62C 242.154,56.2646 244.32,56.0979 247,61.5C 247.232,66.8479 248.399,71.8479 250.5,76.5 Z"/></g>
<g><path style="opacity:1" fill="#6d6f71" d="M 234.5,41.5 C 232.134,39.4539 229.467,39.1206 226.5,40.5C 227.572,50.1202 229.905,59.4535 233.5,68.5C 231.11,66.2661 229.276,63.5994 228,60.5C 226.535,52.8949 225.701,45.2282 225.5,37.5C 228.187,37.3359 230.854,37.5026 233.5,38C 234.337,39.0113 234.67,40.1779 234.5,41.5 Z"/></g>
<g><path style="opacity:0.522" fill="#595b5d" d="M 146.5,42.5 C 147.895,46.7543 148.561,51.2543 148.5,56C 147.885,62.8219 147.552,69.6553 147.5,76.5C 147.167,76.5 146.833,76.5 146.5,76.5C 146.5,66.8333 146.5,57.1667 146.5,47.5C 146.5,45.8333 146.5,44.1667 146.5,42.5 Z"/></g>
<g><path style="opacity:0.612" fill="#6a6b6b" d="M 247.5,58.5 C 249.31,61.3721 250.31,64.7054 250.5,68.5C 248.69,65.6279 247.69,62.2946 247.5,58.5 Z"/></g>
<g><path style="opacity:1" fill="#4d5053" d="M 111.5,60.5 C 109.041,66.8669 107.041,73.2002 105.5,79.5C 105.835,74.8228 106.335,70.1561 107,65.5C 108.524,63.7286 110.024,62.0619 111.5,60.5 Z"/></g>
<g><path style="opacity:0.863" fill="#8a8b8b" d="M 219.5,63.5 C 219.833,63.5 220.167,63.5 220.5,63.5C 220.19,66.7131 220.523,69.7131 221.5,72.5C 221.5,74.8333 221.5,77.1667 221.5,79.5C 220.732,77.2854 220.065,74.9521 219.5,72.5C 219.5,69.5 219.5,66.5 219.5,63.5 Z"/></g>
<g><path style="opacity:1" fill="#5f6265" d="M 122.5,59.5 C 122.5,62.5 122.5,65.5 122.5,68.5C 122.665,72.1817 122.499,75.8484 122,79.5C 120.57,82.3527 119.737,85.3527 119.5,88.5C 119.5,92.5 119.5,96.5 119.5,100.5C 118.833,100.5 118.167,100.5 117.5,100.5C 118.074,89.7446 119.074,79.0779 120.5,68.5C 121.167,65.5 121.833,62.5 122.5,59.5 Z"/></g>
<g><path style="opacity:1" fill="#e0e1e2" d="M 219.5,72.5 C 220.065,74.9521 220.732,77.2854 221.5,79.5C 221.5,81.5 221.5,83.5 221.5,85.5C 221.458,92.7112 222.125,99.7112 223.5,106.5C 223.829,112.537 223.496,118.537 222.5,124.5C 216.212,128.151 209.545,130.817 202.5,132.5C 202.737,131.209 202.404,130.209 201.5,129.5C 201.5,128.833 201.167,128.5 200.5,128.5C 199.937,120.446 199.27,112.446 198.5,104.5C 198.334,95.1607 198.5,85.8274 199,76.5C 203.963,74.1703 209.129,72.337 214.5,71C 215.667,70.5 216.5,69.6667 217,68.5C 217.608,70.0664 218.442,71.3998 219.5,72.5 Z"/></g>
<g><path style="opacity:1" fill="#45484a" d="M 93.5,62.5 C 93.6646,65.5184 93.498,68.5184 93,71.5C 92.9005,73.6526 92.0672,75.3192 90.5,76.5C 91.0355,72.181 91.5355,67.8477 92,63.5C 92.3826,62.944 92.8826,62.6107 93.5,62.5 Z"/></g>
<g><path style="opacity:0.431" fill="#838484" d="M 250.5,74.5 C 252.436,78.7147 253.103,83.3814 252.5,88.5C 251.833,84.5 251.167,80.5 250.5,76.5C 250.5,75.8333 250.5,75.1667 250.5,74.5 Z"/></g>
<g><path style="opacity:1" fill="#9ea2a6" d="M 146.5,47.5 C 146.5,57.1667 146.5,66.8333 146.5,76.5C 145.523,79.2869 145.19,82.2869 145.5,85.5C 145.802,88.0593 145.468,90.3926 144.5,92.5C 143.807,101.068 143.14,109.734 142.5,118.5C 142.5,120.833 142.5,123.167 142.5,125.5C 142.167,125.5 141.833,125.5 141.5,125.5C 141.295,117.133 141.629,108.8 142.5,100.5C 142.775,93.126 143.442,85.7926 144.5,78.5C 144.666,73.8215 144.499,69.1548 144,64.5C 144.037,68.1589 142.871,71.3255 140.5,74C 135.088,77.636 129.422,80.8027 123.5,83.5C 122.113,85.21 120.779,86.8767 119.5,88.5C 119.737,85.3527 120.57,82.3527 122,79.5C 122.499,75.8484 122.665,72.1817 122.5,68.5C 122.833,68.5 123.167,68.5 123.5,68.5C 125.77,68.2462 127.937,66.9129 130,64.5C 130.667,62.8333 130.667,61.1667 130,59.5C 128.511,58.5761 128.344,57.5761 129.5,56.5C 133.745,54.904 137.745,52.904 141.5,50.5C 142.853,46.6568 143.687,42.6568 144,38.5C 143.93,41.992 144.763,44.992 146.5,47.5 Z"/></g>
<g><path style="opacity:1" fill="#b8bbbe" d="M 144.5,78.5 C 143.5,78.5 142.5,78.5 141.5,78.5C 141.649,79.552 141.483,80.552 141,81.5C 138.586,83.2907 136.086,84.9574 133.5,86.5C 132.571,87.6888 132.238,89.0222 132.5,90.5C 134.5,90.5 136.5,90.5 138.5,90.5C 138.5,92.8333 138.5,95.1667 138.5,97.5C 132.666,100.783 126.333,103.116 119.5,104.5C 119.5,103.167 119.5,101.833 119.5,100.5C 119.5,96.5 119.5,92.5 119.5,88.5C 120.779,86.8767 122.113,85.21 123.5,83.5C 129.422,80.8027 135.088,77.636 140.5,74C 142.871,71.3255 144.037,68.1589 144,64.5C 144.499,69.1548 144.666,73.8215 144.5,78.5 Z"/></g>
<g><path style="opacity:0.26" fill="#2d2e2f" d="M 146.5,76.5 C 146.833,76.5 147.167,76.5 147.5,76.5C 148.055,80.0122 147.388,83.0122 145.5,85.5C 145.19,82.2869 145.523,79.2869 146.5,76.5 Z"/></g>
<g><path style="opacity:0.818" fill="#4f5050" d="M 221.5,72.5 C 222.22,76.7297 222.887,81.063 223.5,85.5C 222.833,85.5 222.167,85.5 221.5,85.5C 221.5,83.5 221.5,81.5 221.5,79.5C 221.5,77.1667 221.5,74.8333 221.5,72.5 Z"/></g>
<g><path style="opacity:1" fill="#606161" d="M 233.5,68.5 C 235.508,74.5426 236.508,80.8759 236.5,87.5C 234.167,81.5087 233.167,75.1753 233.5,68.5 Z"/></g>
<g><path style="opacity:1" fill="#494b4e" d="M 90.5,77.5 C 91.6164,85.9525 89.9498,93.6191 85.5,100.5C 87.5,92.8042 89.1666,85.1375 90.5,77.5 Z"/></g>
<g><path style="opacity:0.698" fill="#919292" d="M 221.5,85.5 C 222.167,85.5 222.833,85.5 223.5,85.5C 223.511,97.2776 224.511,108.944 226.5,120.5C 226.167,120.5 225.833,120.5 225.5,120.5C 224.833,115.833 224.167,111.167 223.5,106.5C 222.125,99.7112 221.458,92.7112 221.5,85.5 Z"/></g>
<g><path style="opacity:1" fill="#414343" d="M 195.5,87.5 C 196.167,93.1667 196.833,98.8333 197.5,104.5C 197.629,111.845 197.962,119.178 198.5,126.5C 197.883,126.389 197.383,126.056 197,125.5C 196.234,112.841 195.734,100.175 195.5,87.5 Z"/></g>
<g><path style="opacity:0.435" fill="#4c4d4d" d="M 253.5,88.5 C 255.04,90.8383 255.706,93.5049 255.5,96.5C 254.833,96.5 254.167,96.5 253.5,96.5C 253.5,93.8333 253.5,91.1667 253.5,88.5 Z"/></g>
<g><path style="opacity:0.678" fill="#a1a2a3" d="M 253.5,96.5 C 254.167,96.5 254.833,96.5 255.5,96.5C 255.5,98.5 255.5,100.5 255.5,102.5C 255.5,105.167 255.5,107.833 255.5,110.5C 254.784,105.936 254.117,101.269 253.5,96.5 Z"/></g>
<g><path style="opacity:0.809" fill="#444646" d="M 144.5,92.5 C 145.136,101.565 144.47,110.231 142.5,118.5C 143.14,109.734 143.807,101.068 144.5,92.5 Z"/></g>
<g><path style="opacity:1" fill="#a3a7ab" d="M 98.5,123.5 C 98.6653,119.818 98.4986,116.152 98,112.5C 93.5544,116.467 89.0544,120.133 84.5,123.5C 85.8415,117.251 86.6749,110.917 87,104.5C 87.8621,99.5747 89.6955,95.0747 92.5,91C 95.8338,89.6686 98.8338,87.8353 101.5,85.5C 101.833,87.5 102.167,89.5 102.5,91.5C 100.358,102.122 99.0248,112.788 98.5,123.5 Z"/></g>
<g><path style="opacity:1" fill="#3c3d3f" d="M 117.5,101.5 C 117.877,106.453 117.211,111.119 115.5,115.5C 114.897,110.381 115.564,105.715 117.5,101.5 Z"/></g>
<g><path style="opacity:0.245" fill="#595a5c" d="M 255.5,102.5 C 257.29,106.072 258.29,110.072 258.5,114.5C 257.833,114.5 257.167,114.5 256.5,114.5C 256.768,112.901 256.434,111.568 255.5,110.5C 255.5,107.833 255.5,105.167 255.5,102.5 Z"/></g>
<g><path style="opacity:1" fill="#939597" d="M 197.5,104.5 C 197.833,104.5 198.167,104.5 198.5,104.5C 199.27,112.446 199.937,120.446 200.5,128.5C 200.5,133.5 200.5,138.5 200.5,143.5C 199.747,137.968 199.08,132.301 198.5,126.5C 197.962,119.178 197.629,111.845 197.5,104.5 Z"/></g>
<g><path style="opacity:1" fill="#353739" d="M 85.5,104.5 C 85.5786,109.831 84.5786,114.831 82.5,119.5C 82.5205,114.046 83.5205,109.046 85.5,104.5 Z"/></g>
<g><path style="opacity:1" fill="#5a5b5c" d="M 236.5,87.5 C 236.833,87.5 237.167,87.5 237.5,87.5C 237.079,95.7179 238.079,103.718 240.5,111.5C 241.194,116.805 241.528,122.138 241.5,127.5C 239.828,120.727 238.328,113.727 237,106.5C 236.5,100.175 236.334,93.8421 236.5,87.5 Z"/></g>
<g><path style="opacity:0.351" fill="#373839" d="M 102.5,111.5 C 101.887,115.937 101.22,120.27 100.5,124.5C 99.9031,119.706 100.57,115.373 102.5,111.5 Z"/></g>
<g><path style="opacity:1" fill="#d2d3d5" d="M 142.5,100.5 C 141.629,108.8 141.295,117.133 141.5,125.5C 140.612,128.054 140.279,130.721 140.5,133.5C 140.5,136.167 140.5,138.833 140.5,141.5C 139.179,144.598 138.512,148.098 138.5,152C 138.512,155.902 139.179,159.402 140.5,162.5C 140.5,162.833 140.5,163.167 140.5,163.5C 141.415,165.754 142.748,167.754 144.5,169.5C 144.5,170.5 144.5,171.5 144.5,172.5C 134.809,173.964 125.309,176.298 116,179.5C 114.743,179.15 114.409,178.483 115,177.5C 117.057,175.731 118.89,173.731 120.5,171.5C 119.652,169.591 119.318,167.591 119.5,165.5C 121.867,164.836 123.867,163.503 125.5,161.5C 126.583,160.635 126.749,159.635 126,158.5C 122.369,157.819 118.869,157.819 115.5,158.5C 114.417,157.635 114.251,156.635 115,155.5C 119.795,149.37 124.962,143.536 130.5,138C 129.182,136.092 127.348,135.258 125,135.5C 122.183,136.031 119.35,136.364 116.5,136.5C 116.334,132.154 116.501,127.821 117,123.5C 118.766,121.119 119.932,118.452 120.5,115.5C 121.833,114.833 123.167,114.167 124.5,113.5C 126.184,110.477 128.184,107.644 130.5,105C 134.553,103.215 138.053,100.715 141,97.5C 141.232,98.7375 141.732,99.7375 142.5,100.5 Z"/></g>
<g><path style="opacity:1" fill="#4c4e4f" d="M 114.5,120.5 C 114.119,129.498 113.786,138.498 113.5,147.5C 113.167,147.5 112.833,147.5 112.5,147.5C 112.379,138.293 113.046,129.293 114.5,120.5 Z"/></g>
<g><path style="opacity:0.457" fill="#626466" d="M 141.5,125.5 C 141.833,125.5 142.167,125.5 142.5,125.5C 143.036,128.698 142.369,131.365 140.5,133.5C 140.279,130.721 140.612,128.054 141.5,125.5 Z"/></g>
<g><path style="opacity:1" fill="#3d3f41" d="M 82.5,121.5 C 81.8379,125.466 81.5045,129.466 81.5,133.5C 81.1667,133.5 80.8333,133.5 80.5,133.5C 80.3347,129.818 80.5014,126.152 81,122.5C 81.3826,121.944 81.8826,121.611 82.5,121.5 Z"/></g>
<g><path style="opacity:1" fill="#cccfd1" d="M 237.5,87.5 C 239.203,95.3817 240.87,103.548 242.5,112C 242.833,112.5 243.167,113 243.5,113.5C 244.446,113.013 245.446,112.68 246.5,112.5C 250.392,113.855 250.059,114.689 245.5,115C 246.672,115.419 247.672,116.085 248.5,117C 247.427,118.25 247.427,119.584 248.5,121C 248.167,121.5 247.833,122 247.5,122.5C 246.667,121.5 245.833,120.5 245,119.5C 245.363,121.716 245.196,123.882 244.5,126C 244.833,126.5 245.167,127 245.5,127.5C 249.6,123.599 253.6,123.599 257.5,127.5C 257.895,131.185 258.062,134.852 258,138.5C 257.599,136.479 256.432,135.145 254.5,134.5C 252.062,136.535 249.395,138.201 246.5,139.5C 245.517,135.719 244.35,132.053 243,128.5C 242.951,122.57 242.118,116.903 240.5,111.5C 238.079,103.718 237.079,95.7179 237.5,87.5 Z"/></g>
<g><path style="opacity:1" fill="#d0d2d4" d="M 223.5,106.5 C 224.167,111.167 224.833,115.833 225.5,120.5C 225.5,129.167 225.5,137.833 225.5,146.5C 224.127,146.343 222.793,146.51 221.5,147C 217.191,150.959 212.524,154.625 207.5,158C 206.207,158.49 204.873,158.657 203.5,158.5C 203.943,155.188 204.276,151.855 204.5,148.5C 203.099,142.315 202.099,135.982 201.5,129.5C 202.404,130.209 202.737,131.209 202.5,132.5C 209.545,130.817 216.212,128.151 222.5,124.5C 223.496,118.537 223.829,112.537 223.5,106.5 Z"/></g>
<g><path style="opacity:0.941" fill="#6d6f70" d="M 258.5,125.5 C 260.389,128.692 261.389,132.358 261.5,136.5C 259.775,133.23 258.775,129.564 258.5,125.5 Z"/></g>
<g><path style="opacity:1" fill="#cdcecf" d="M 144.5,78.5 C 143.442,85.7926 142.775,93.126 142.5,100.5C 141.732,99.7375 141.232,98.7375 141,97.5C 138.053,100.715 134.553,103.215 130.5,105C 128.184,107.644 126.184,110.477 124.5,113.5C 123.167,114.167 121.833,114.833 120.5,115.5C 119.932,118.452 118.766,121.119 117,123.5C 116.501,127.821 116.334,132.154 116.5,136.5C 119.35,136.364 122.183,136.031 125,135.5C 127.348,135.258 129.182,136.092 130.5,138C 124.962,143.536 119.795,149.37 115,155.5C 114.251,156.635 114.417,157.635 115.5,158.5C 118.869,157.819 122.369,157.819 126,158.5C 126.749,159.635 126.583,160.635 125.5,161.5C 123.867,163.503 121.867,164.836 119.5,165.5C 119.318,167.591 119.652,169.591 120.5,171.5C 118.89,173.731 117.057,175.731 115,177.5C 114.409,178.483 114.743,179.15 116,179.5C 125.309,176.298 134.809,173.964 144.5,172.5C 144.5,171.5 144.5,170.5 144.5,169.5C 145.833,170.167 147.167,170.833 148.5,171.5C 150.5,171.5 151.5,172.5 151.5,174.5C 153.785,176.118 155.785,178.118 157.5,180.5C 160.199,181.729 162.865,181.729 165.5,180.5C 169.66,176.27 173.327,176.603 176.5,181.5C 176.5,182.5 176.5,183.5 176.5,184.5C 175.167,184.5 173.833,184.5 172.5,184.5C 172.657,185.873 172.49,187.207 172,188.5C 169.193,191.944 167.027,195.777 165.5,200C 165.981,204.092 167.148,207.925 169,211.5C 174.4,212.882 176.4,216.216 175,221.5C 168.89,230.276 162.056,238.443 154.5,246C 148.214,249.594 141.547,252.094 134.5,253.5C 131.051,250.956 128.385,247.789 126.5,244C 124.846,243.392 123.179,242.892 121.5,242.5C 120.833,242.5 120.5,242.167 120.5,241.5C 102.431,226.887 101.931,211.554 119,195.5C 119.483,194.552 119.649,193.552 119.5,192.5C 117.396,192.799 115.396,192.466 113.5,191.5C 114.246,190.264 114.579,188.93 114.5,187.5C 110.196,186.869 105.863,186.369 101.5,186C 102.474,182.191 104.474,179.025 107.5,176.5C 108.466,174.604 108.799,172.604 108.5,170.5C 109.801,169.118 110.634,167.452 111,165.5C 111.591,159.502 112.091,153.502 112.5,147.5C 112.833,147.5 113.167,147.5 113.5,147.5C 114.268,146.737 114.768,145.737 115,144.5C 115.168,136.147 115.668,127.813 116.5,119.5C 117.192,118.975 117.692,118.308 118,117.5C 118.583,113.168 119.083,108.835 119.5,104.5C 126.333,103.116 132.666,100.783 138.5,97.5C 138.5,95.1667 138.5,92.8333 138.5,90.5C 136.5,90.5 134.5,90.5 132.5,90.5C 132.238,89.0222 132.571,87.6888 133.5,86.5C 136.086,84.9574 138.586,83.2907 141,81.5C 141.483,80.552 141.649,79.552 141.5,78.5C 142.5,78.5 143.5,78.5 144.5,78.5 Z"/></g>
<g><path style="opacity:0.531" fill="#5c5d5f" d="M 226.5,133.5 C 228.369,135.635 229.036,138.302 228.5,141.5C 228.167,141.5 227.833,141.5 227.5,141.5C 226.527,139.052 226.194,136.385 226.5,133.5 Z"/></g>
<g><path style="opacity:1" fill="#38393b" d="M 80.5,133.5 C 80.0749,138.077 79.0749,142.41 77.5,146.5C 77.1236,141.739 78.1236,137.405 80.5,133.5 Z"/></g>
<g><path style="opacity:1" fill="#9ea0a3" d="M 117.5,100.5 C 118.167,100.5 118.833,100.5 119.5,100.5C 119.5,101.833 119.5,103.167 119.5,104.5C 119.083,108.835 118.583,113.168 118,117.5C 117.692,118.308 117.192,118.975 116.5,119.5C 115.668,127.813 115.168,136.147 115,144.5C 114.768,145.737 114.268,146.737 113.5,147.5C 113.786,138.498 114.119,129.498 114.5,120.5C 114.216,118.585 114.549,116.919 115.5,115.5C 117.211,111.119 117.877,106.453 117.5,101.5C 117.5,101.167 117.5,100.833 117.5,100.5 Z"/></g>
<g><path style="opacity:1" fill="#b8bbbd" d="M 240.5,111.5 C 242.118,116.903 242.951,122.57 243,128.5C 244.35,132.053 245.517,135.719 246.5,139.5C 249.395,138.201 252.062,136.535 254.5,134.5C 256.432,135.145 257.599,136.479 258,138.5C 258.062,134.852 257.895,131.185 257.5,127.5C 257.628,123.119 257.295,118.785 256.5,114.5C 257.167,114.5 257.833,114.5 258.5,114.5C 258.5,118.167 258.5,121.833 258.5,125.5C 258.775,129.564 259.775,133.23 261.5,136.5C 261.5,137.5 261.5,138.5 261.5,139.5C 261.5,142.167 261.5,144.833 261.5,147.5C 260.894,144.833 260.061,142.166 259,139.5C 257.598,145.736 253.765,149.403 247.5,150.5C 247.307,154.566 247.64,158.566 248.5,162.5C 247.833,162.167 247.167,161.833 246.5,161.5C 246.5,161.167 246.5,160.833 246.5,160.5C 245.743,153.881 245.243,147.215 245,140.5C 244.722,139.584 244.222,138.918 243.5,138.5C 243.405,136.214 242.738,134.214 241.5,132.5C 241.5,130.833 241.5,129.167 241.5,127.5C 241.528,122.138 241.194,116.805 240.5,111.5 Z"/></g>
<g><path style="opacity:0.424" fill="#4e5051" d="M 261.5,139.5 C 263.369,141.635 264.036,144.302 263.5,147.5C 262.833,147.5 262.167,147.5 261.5,147.5C 261.5,144.833 261.5,142.167 261.5,139.5 Z"/></g>
<g><path style="opacity:1" fill="#c1c4c7" d="M 98.5,123.5 C 98.5,123.833 98.5,124.167 98.5,124.5C 96.0132,134.267 94.0132,144.267 92.5,154.5C 91.7303,152.728 90.3969,151.728 88.5,151.5C 86.1162,152.012 83.7828,152.679 81.5,153.5C 80.5766,149.194 80.5766,144.861 81.5,140.5C 81.5,138.167 81.5,135.833 81.5,133.5C 82.2879,130.113 83.2879,126.78 84.5,123.5C 89.0544,120.133 93.5544,116.467 98,112.5C 98.4986,116.152 98.6653,119.818 98.5,123.5 Z"/></g>
<g><path style="opacity:0.966" fill="#6c6d6e" d="M 140.5,141.5 C 140.222,148.581 140.222,155.581 140.5,162.5C 139.179,159.402 138.512,155.902 138.5,152C 138.512,148.098 139.179,144.598 140.5,141.5 Z"/></g>
<g><path style="opacity:1" fill="#2c2d2e" d="M 241.5,132.5 C 242.738,134.214 243.405,136.214 243.5,138.5C 244.229,143.13 244.563,147.797 244.5,152.5C 243.223,151.306 242.556,149.64 242.5,147.5C 241.835,142.519 241.502,137.519 241.5,132.5 Z"/></g>
<g><path style="opacity:1" fill="#717376" d="M 243.5,138.5 C 244.222,138.918 244.722,139.584 245,140.5C 245.243,147.215 245.743,153.881 246.5,160.5C 244.631,158.365 243.964,155.698 244.5,152.5C 244.563,147.797 244.229,143.13 243.5,138.5 Z"/></g>
<g><path style="opacity:1" fill="#909294" d="M 227.5,141.5 C 227.833,141.5 228.167,141.5 228.5,141.5C 228.205,143.735 228.539,145.735 229.5,147.5C 229.5,152.833 229.5,158.167 229.5,163.5C 227.895,156.397 227.228,149.063 227.5,141.5 Z"/></g>
<g><path style="opacity:0.523" fill="#5c5e5f" d="M 97.5,141.5 C 97.473,147.051 96.8063,152.384 95.5,157.5C 94.8872,151.729 95.5539,146.396 97.5,141.5 Z"/></g>
<g><path style="opacity:1" fill="#b2b6b9" d="M 98.5,124.5 C 98.3314,129.181 97.9981,133.848 97.5,138.5C 97.5,139.5 97.5,140.5 97.5,141.5C 95.5539,146.396 94.8872,151.729 95.5,157.5C 94.5489,158.919 94.2155,160.585 94.5,162.5C 91.8552,165.058 89.1885,167.724 86.5,170.5C 84.2573,171.474 81.924,171.808 79.5,171.5C 76.1337,171.788 72.8004,171.954 69.5,172C 74.5986,168.303 74.5986,164.803 69.5,161.5C 72.1878,158.978 75.0211,156.644 78,154.5C 78.6829,149.56 79.8496,144.893 81.5,140.5C 80.5766,144.861 80.5766,149.194 81.5,153.5C 83.7828,152.679 86.1162,152.012 88.5,151.5C 90.3969,151.728 91.7303,152.728 92.5,154.5C 94.0132,144.267 96.0132,134.267 98.5,124.5 Z"/></g>
<g><path style="opacity:0.804" fill="#595b5c" d="M 263.5,149.5 C 265.369,151.034 266.702,153.034 267.5,155.5C 266.504,155.586 265.671,155.252 265,154.5C 264.648,152.753 264.148,151.086 263.5,149.5 Z"/></g>
<g><path style="opacity:1" fill="#434546" d="M 77.5,150.5 C 77.2007,153.642 75.5341,155.809 72.5,157C 69.4786,157.849 66.4786,158.683 63.5,159.5C 61.8828,160.038 60.2161,160.371 58.5,160.5C 59.0065,159.141 60.0065,158.141 61.5,157.5C 67.9198,157.254 73.2531,154.921 77.5,150.5 Z"/></g>
<g><path style="opacity:1" fill="#c0c2c4" d="M 225.5,120.5 C 225.833,120.5 226.167,120.5 226.5,120.5C 226.5,124.833 226.5,129.167 226.5,133.5C 226.194,136.385 226.527,139.052 227.5,141.5C 227.228,149.063 227.895,156.397 229.5,163.5C 230.11,164.391 230.443,165.391 230.5,166.5C 229.542,166.047 228.708,165.381 228,164.5C 227.812,166.476 227.979,168.476 228.5,170.5C 226.899,173.124 225.232,175.79 223.5,178.5C 226.434,179.799 228.934,179.132 231,176.5C 233.3,177.597 234.467,179.431 234.5,182C 229.201,188.724 223.534,195.224 217.5,201.5C 216.735,203.295 216.068,205.128 215.5,207C 215.892,208.011 216.559,208.511 217.5,208.5C 215.169,216.829 217.502,218.496 224.5,213.5C 225.547,214.922 225.547,216.422 224.5,218C 224.93,219.434 225.764,220.601 227,221.5C 231.555,220.706 235.721,219.04 239.5,216.5C 241.029,216.529 242.196,217.196 243,218.5C 254.84,211.005 265.84,202.338 276,192.5C 276.309,191.234 276.809,190.067 277.5,189C 275.256,188.95 273.589,188.117 272.5,186.5C 274.144,186.714 275.644,186.38 277,185.5C 277.495,183.527 277.662,181.527 277.5,179.5C 279.197,181.305 280.03,183.639 280,186.5C 283.851,182.642 287.351,178.475 290.5,174C 292.044,173.71 293.377,173.044 294.5,172C 299.019,171.825 303.353,171.325 307.5,170.5C 314.38,169.52 317.047,172.52 315.5,179.5C 314.022,178.552 313.022,177.219 312.5,175.5C 308.285,173.564 303.619,172.897 298.5,173.5C 298.649,174.552 298.483,175.552 298,176.5C 285.575,189.256 272.742,201.756 259.5,214C 255.717,215.058 252.383,216.891 249.5,219.5C 249.167,219.333 248.833,219.167 248.5,219C 250.647,216.763 252.98,214.763 255.5,213C 254.833,212.333 254.167,212.333 253.5,213C 244.693,218.978 236.693,225.645 229.5,233C 226.048,235.235 222.715,235.402 219.5,233.5C 216.815,234.125 214.315,235.125 212,236.5C 209.402,235.536 208.902,233.87 210.5,231.5C 209.758,230.713 208.925,230.047 208,229.5C 205.101,229.977 202.434,230.977 200,232.5C 201.219,229.254 200.385,226.587 197.5,224.5C 196.167,225.833 194.833,225.833 193.5,224.5C 192.52,227.086 192.187,229.753 192.5,232.5C 191.5,232.5 190.5,232.5 189.5,232.5C 189.67,235.491 188.337,237.491 185.5,238.5C 184.914,238.291 184.414,237.957 184,237.5C 183.994,240.275 182.827,242.275 180.5,243.5C 178.423,242.063 176.09,241.396 173.5,241.5C 170.941,241.198 168.607,241.532 166.5,242.5C 166.167,242.5 165.833,242.5 165.5,242.5C 156.631,244.688 153.297,250.355 155.5,259.5C 154.837,261.042 154.17,262.709 153.5,264.5C 147.912,260.388 141.579,258.555 134.5,259C 132.894,254.587 130.227,251.087 126.5,248.5C 124.833,246.5 123.167,244.5 121.5,242.5C 123.179,242.892 124.846,243.392 126.5,244C 128.385,247.789 131.051,250.956 134.5,253.5C 141.547,252.094 148.214,249.594 154.5,246C 162.056,238.443 168.89,230.276 175,221.5C 176.4,216.216 174.4,212.882 169,211.5C 167.148,207.925 165.981,204.092 165.5,200C 167.027,195.777 169.193,191.944 172,188.5C 172.49,187.207 172.657,185.873 172.5,184.5C 173.833,184.5 175.167,184.5 176.5,184.5C 176.5,183.5 176.5,182.5 176.5,181.5C 178.857,181.663 181.19,181.497 183.5,181C 184.056,180.617 184.389,180.117 184.5,179.5C 186.555,177.445 188.888,175.779 191.5,174.5C 195.157,171.343 198.657,168.01 202,164.5C 202.167,161 202.333,157.5 202.5,154C 202.488,150.098 201.821,146.598 200.5,143.5C 200.5,138.5 200.5,133.5 200.5,128.5C 201.167,128.5 201.5,128.833 201.5,129.5C 202.099,135.982 203.099,142.315 204.5,148.5C 204.276,151.855 203.943,155.188 203.5,158.5C 204.873,158.657 206.207,158.49 207.5,158C 212.524,154.625 217.191,150.959 221.5,147C 222.793,146.51 224.127,146.343 225.5,146.5C 225.5,137.833 225.5,129.167 225.5,120.5 Z"/></g>
<g><path style="opacity:0.831" fill="#414243" d="M 229.5,147.5 C 230.21,152.732 230.877,158.065 231.5,163.5C 230.833,163.5 230.167,163.5 229.5,163.5C 229.5,158.167 229.5,152.833 229.5,147.5 Z"/></g>
<g><path style="opacity:0.835" fill="#7f8082" d="M 269.5,155.5 C 276.539,158.697 283.539,161.364 290.5,163.5C 284.099,163.283 278.099,161.616 272.5,158.5C 271.007,157.859 270.007,156.859 269.5,155.5 Z"/></g>
<g><path style="opacity:0.576" fill="#6c6e6f" d="M 140.5,163.5 C 142.734,165.305 145.067,167.138 147.5,169C 148.252,169.671 148.586,170.504 148.5,171.5C 147.167,170.833 145.833,170.167 144.5,169.5C 142.748,167.754 141.415,165.754 140.5,163.5 Z"/></g>
<g><path style="opacity:1" fill="#56595c" d="M 58.5,160.5 C 56.0458,161.621 53.3791,162.454 50.5,163C 47.5534,166.014 43.8867,167.348 39.5,167C 38.6195,167.708 37.9528,168.542 37.5,169.5C 34.0977,169.342 30.7644,169.676 27.5,170.5C 31.8885,169.261 36.0552,167.261 40,164.5C 46.0993,162.91 52.266,161.576 58.5,160.5 Z"/></g>
<g><path style="opacity:0.949" fill="#7e8082" d="M 291.5,163.5 C 299.56,166.629 307.894,168.962 316.5,170.5C 317.426,174.094 317.759,177.76 317.5,181.5C 316.833,181.5 316.167,181.5 315.5,181.5C 315.5,180.833 315.5,180.167 315.5,179.5C 317.047,172.52 314.38,169.52 307.5,170.5C 301.729,168.902 296.396,166.569 291.5,163.5 Z"/></g>
<g><path style="opacity:1" fill="#ced0d2" d="M 261.5,147.5 C 262.167,147.5 262.833,147.5 263.5,147.5C 263.5,148.167 263.5,148.833 263.5,149.5C 264.148,151.086 264.648,152.753 265,154.5C 265.671,155.252 266.504,155.586 267.5,155.5C 268.167,155.5 268.833,155.5 269.5,155.5C 270.007,156.859 271.007,157.859 272.5,158.5C 278.099,161.616 284.099,163.283 290.5,163.5C 290.833,163.5 291.167,163.5 291.5,163.5C 296.396,166.569 301.729,168.902 307.5,170.5C 303.353,171.325 299.019,171.825 294.5,172C 293.377,173.044 292.044,173.71 290.5,174C 287.351,178.475 283.851,182.642 280,186.5C 280.03,183.639 279.197,181.305 277.5,179.5C 275.572,177.526 273.239,176.026 270.5,175C 264.967,174.489 259.633,173.156 254.5,171C 252.048,168.452 250.048,165.619 248.5,162.5C 247.64,158.566 247.307,154.566 247.5,150.5C 253.765,149.403 257.598,145.736 259,139.5C 260.061,142.166 260.894,144.833 261.5,147.5 Z"/></g>
<g><path style="opacity:1" fill="#87898a" d="M 229.5,163.5 C 230.167,163.5 230.833,163.5 231.5,163.5C 233.119,167.341 235.119,171.007 237.5,174.5C 237.5,175.5 237.5,176.5 237.5,177.5C 234.81,174.127 232.477,170.46 230.5,166.5C 230.443,165.391 230.11,164.391 229.5,163.5 Z"/></g>
<g><path style="opacity:1" fill="#4c4f50" d="M 94.5,162.5 C 93.5442,166.631 91.2109,169.797 87.5,172C 80.1828,173.988 72.8495,175.988 65.5,178C 64.6266,179.045 63.6266,179.878 62.5,180.5C 62.5,179.167 62.5,177.833 62.5,176.5C 68.5803,175.901 74.247,174.234 79.5,171.5C 81.924,171.808 84.2573,171.474 86.5,170.5C 89.1885,167.724 91.8552,165.058 94.5,162.5 Z"/></g>
<g><path style="opacity:1" fill="#707274" d="M 200.5,143.5 C 201.821,146.598 202.488,150.098 202.5,154C 202.333,157.5 202.167,161 202,164.5C 198.657,168.01 195.157,171.343 191.5,174.5C 191.557,173.391 191.89,172.391 192.5,171.5C 194.667,168.763 197,166.097 199.5,163.5C 200.497,156.866 200.83,150.2 200.5,143.5 Z"/></g>
<g><path style="opacity:1" fill="#7f8183" d="M 246.5,161.5 C 247.167,161.833 247.833,162.167 248.5,162.5C 250.048,165.619 252.048,168.452 254.5,171C 259.633,173.156 264.967,174.489 270.5,175C 273.239,176.026 275.572,177.526 277.5,179.5C 277.662,181.527 277.495,183.527 277,185.5C 275.644,186.38 274.144,186.714 272.5,186.5C 263.105,187.138 254.105,186.471 245.5,184.5C 255.833,184.5 266.167,184.5 276.5,184.5C 277.385,179.717 275.385,177.384 270.5,177.5C 268.898,175.926 266.898,175.259 264.5,175.5C 257.173,174.678 251.339,171.345 247,165.5C 246.51,164.207 246.343,162.873 246.5,161.5 Z"/></g>
<g><path style="opacity:0.878" fill="#5d5e60" d="M 151.5,174.5 C 154.792,174.12 157.125,175.453 158.5,178.5C 160.045,179.452 161.712,179.785 163.5,179.5C 164.167,179.5 164.833,179.5 165.5,179.5C 165.5,179.833 165.5,180.167 165.5,180.5C 162.865,181.729 160.199,181.729 157.5,180.5C 155.785,178.118 153.785,176.118 151.5,174.5 Z"/></g>
<g><path style="opacity:0.699" fill="#313233" d="M 175.5,177.5 C 171.534,175.679 168.201,176.346 165.5,179.5C 164.833,179.5 164.167,179.5 163.5,179.5C 164.883,176.321 167.383,174.987 171,175.5C 172.986,175.569 174.486,176.235 175.5,177.5 Z"/></g>
<g><path style="opacity:1" fill="#484a4c" d="M 192.5,171.5 C 191.89,172.391 191.557,173.391 191.5,174.5C 188.888,175.779 186.555,177.445 184.5,179.5C 184.369,178.761 184.536,178.094 185,177.5C 187.509,175.352 190.009,173.352 192.5,171.5 Z"/></g>
<g><path style="opacity:0.906" fill="#848688" d="M 175.5,177.5 C 175.577,178.75 176.244,179.583 177.5,180C 179.885,180.556 182.218,180.39 184.5,179.5C 184.389,180.117 184.056,180.617 183.5,181C 181.19,181.497 178.857,181.663 176.5,181.5C 173.327,176.603 169.66,176.27 165.5,180.5C 165.5,180.167 165.5,179.833 165.5,179.5C 168.201,176.346 171.534,175.679 175.5,177.5 Z"/></g>
<g><path style="opacity:1" fill="#454648" d="M 264.5,175.5 C 266.898,175.259 268.898,175.926 270.5,177.5C 267.99,177.946 265.99,177.28 264.5,175.5 Z"/></g>
<g><path style="opacity:1" fill="#a2a6a9" d="M 312.5,175.5 C 313.022,177.219 314.022,178.552 315.5,179.5C 315.5,180.167 315.5,180.833 315.5,181.5C 313.722,185.616 312.722,189.949 312.5,194.5C 312.5,195.5 312.5,196.5 312.5,197.5C 309.645,199.281 308.312,201.948 308.5,205.5C 301.059,208.705 293.725,211.705 286.5,214.5C 286.167,214.5 285.833,214.5 285.5,214.5C 273.247,215.956 261.247,218.622 249.5,222.5C 256.305,217.894 263.305,213.394 270.5,209C 276.083,203.207 282.083,197.873 288.5,193C 291.286,189.978 293.453,186.478 295,182.5C 298.167,180.667 300.667,178.167 302.5,175C 305.924,174.253 309.257,174.42 312.5,175.5 Z"/></g>
<g><path style="opacity:0.651" fill="#515253" d="M 237.5,174.5 C 239.072,178.074 241.405,181.074 244.5,183.5C 244.5,183.833 244.5,184.167 244.5,184.5C 241.167,183.167 238.833,180.833 237.5,177.5C 237.5,176.5 237.5,175.5 237.5,174.5 Z"/></g>
<g><path style="opacity:0.9" fill="#242425" d="M 270.5,177.5 C 275.385,177.384 277.385,179.717 276.5,184.5C 266.167,184.5 255.833,184.5 245.5,184.5C 245.167,184.5 244.833,184.5 244.5,184.5C 244.5,184.167 244.5,183.833 244.5,183.5C 254.5,183.5 264.5,183.5 274.5,183.5C 274.649,182.448 274.483,181.448 274,180.5C 272.482,179.837 271.315,178.837 270.5,177.5 Z"/></g>
<g><path style="opacity:0.855" fill="#616365" d="M 112.5,147.5 C 112.091,153.502 111.591,159.502 111,165.5C 110.634,167.452 109.801,169.118 108.5,170.5C 106.614,173.2 104.447,175.866 102,178.5C 101.648,180.247 101.148,181.914 100.5,183.5C 98.5214,185.168 96.188,185.834 93.5,185.5C 85.3113,185.318 77.1446,185.651 69,186.5C 66.0405,186.959 63.8738,185.959 62.5,183.5C 64.3915,184.851 66.5582,185.518 69,185.5C 78.5307,184.902 88.0307,184.236 97.5,183.5C 101.946,177.888 105.779,171.888 109,165.5C 109.38,160.653 109.88,155.82 110.5,151C 110.608,149.319 111.275,148.152 112.5,147.5 Z"/></g>
<g><path style="opacity:1" fill="#c5c7c8" d="M 108.5,170.5 C 108.799,172.604 108.466,174.604 107.5,176.5C 104.474,179.025 102.474,182.191 101.5,186C 105.863,186.369 110.196,186.869 114.5,187.5C 114.579,188.93 114.246,190.264 113.5,191.5C 115.396,192.466 117.396,192.799 119.5,192.5C 119.649,193.552 119.483,194.552 119,195.5C 101.931,211.554 102.431,226.887 120.5,241.5C 118.801,241.66 117.134,241.494 115.5,241C 113.868,239.18 111.868,238.014 109.5,237.5C 108.375,236 107.041,234.667 105.5,233.5C 105.108,231.821 104.608,230.154 104,228.5C 100.952,226.904 98.4517,224.737 96.5,222C 97.1727,216.612 98.1727,211.278 99.5,206C 97.2774,200.943 93.6107,197.443 88.5,195.5C 87.7234,193.219 86.7234,191.052 85.5,189C 90.3017,187.438 95.3017,186.605 100.5,186.5C 100.5,185.5 100.5,184.5 100.5,183.5C 101.148,181.914 101.648,180.247 102,178.5C 104.447,175.866 106.614,173.2 108.5,170.5 Z"/></g>
<g><path style="opacity:1" fill="#caccce" d="M 230.5,166.5 C 232.477,170.46 234.81,174.127 237.5,177.5C 238.833,180.833 241.167,183.167 244.5,184.5C 244.833,184.5 245.167,184.5 245.5,184.5C 254.105,186.471 263.105,187.138 272.5,186.5C 273.589,188.117 275.256,188.95 277.5,189C 276.809,190.067 276.309,191.234 276,192.5C 265.84,202.338 254.84,211.005 243,218.5C 242.196,217.196 241.029,216.529 239.5,216.5C 235.721,219.04 231.555,220.706 227,221.5C 225.764,220.601 224.93,219.434 224.5,218C 225.547,216.422 225.547,214.922 224.5,213.5C 217.502,218.496 215.169,216.829 217.5,208.5C 216.559,208.511 215.892,208.011 215.5,207C 216.068,205.128 216.735,203.295 217.5,201.5C 223.534,195.224 229.201,188.724 234.5,182C 234.467,179.431 233.3,177.597 231,176.5C 228.934,179.132 226.434,179.799 223.5,178.5C 225.232,175.79 226.899,173.124 228.5,170.5C 227.979,168.476 227.812,166.476 228,164.5C 228.708,165.381 229.542,166.047 230.5,166.5 Z"/></g>
<g><path style="opacity:1" fill="#a0a4a7" d="M 80.5,133.5 C 80.8333,133.5 81.1667,133.5 81.5,133.5C 81.5,135.833 81.5,138.167 81.5,140.5C 79.8496,144.893 78.6829,149.56 78,154.5C 75.0211,156.644 72.1878,158.978 69.5,161.5C 74.5986,164.803 74.5986,168.303 69.5,172C 72.8004,171.954 76.1337,171.788 79.5,171.5C 74.247,174.234 68.5803,175.901 62.5,176.5C 62.5,177.833 62.5,179.167 62.5,180.5C 62.5,181.5 62.5,182.5 62.5,183.5C 63.8738,185.959 66.0405,186.959 69,186.5C 77.1446,185.651 85.3113,185.318 93.5,185.5C 87.6807,186.328 81.6807,186.828 75.5,187C 74.9781,187.561 74.6448,188.228 74.5,189C 75.8475,190.555 76.5142,192.389 76.5,194.5C 75.9788,196.524 75.8122,198.524 76,200.5C 82.5903,202.974 86.9237,207.641 89,214.5C 89.3951,217.207 89.8951,219.873 90.5,222.5C 86.6871,222.062 83.3538,220.729 80.5,218.5C 80.6495,217.448 80.4828,216.448 80,215.5C 78.0445,213.089 76.2112,210.589 74.5,208C 70.4592,207.827 66.4592,207.327 62.5,206.5C 64.2361,202.56 62.9028,200.893 58.5,201.5C 58.5,198.5 58.5,195.5 58.5,192.5C 54.713,193.186 51.5463,192.186 49,189.5C 48.5706,187.331 49.0706,185.331 50.5,183.5C 53.2482,180.76 55.5815,177.76 57.5,174.5C 56.7009,170.093 54.0342,168.093 49.5,168.5C 49.33,167.178 49.6634,166.011 50.5,165C 55.736,164.986 60.0693,163.153 63.5,159.5C 66.4786,158.683 69.4786,157.849 72.5,157C 75.5341,155.809 77.2007,153.642 77.5,150.5C 77.5,149.167 77.5,147.833 77.5,146.5C 79.0749,142.41 80.0749,138.077 80.5,133.5 Z"/></g>
<g><path style="opacity:0.651" fill="#494a4c" d="M 315.5,181.5 C 316.167,181.5 316.833,181.5 317.5,181.5C 316.576,186.295 314.91,190.628 312.5,194.5C 312.722,189.949 313.722,185.616 315.5,181.5 Z"/></g>
<g><path style="opacity:1" fill="#767b7f" d="M 27.5,170.5 C 27.5,172.833 27.5,175.167 27.5,177.5C 36.4896,175.325 39.9896,178.658 38,187.5C 36.3742,189.917 34.8742,192.417 33.5,195C 36.8255,197.631 40.6588,199.131 45,199.5C 45.6985,204.059 46.5318,208.225 47.5,212C 53.6321,213.718 59.9655,214.718 66.5,215C 67.056,215.383 67.3893,215.883 67.5,216.5C 63.5483,215.728 59.5483,215.395 55.5,215.5C 50.1616,214.664 44.8283,213.664 39.5,212.5C 37.7095,211.609 35.8761,210.609 34,209.5C 33.3748,203.4 31.5415,197.733 28.5,192.5C 28.5396,186.916 27.5396,181.583 25.5,176.5C 25.6667,174.833 25.8333,173.167 26,171.5C 26.3826,170.944 26.8826,170.611 27.5,170.5 Z"/></g>
<g><path style="opacity:1" fill="#91959a" d="M 63.5,159.5 C 60.0693,163.153 55.736,164.986 50.5,165C 49.6634,166.011 49.33,167.178 49.5,168.5C 54.0342,168.093 56.7009,170.093 57.5,174.5C 55.5815,177.76 53.2482,180.76 50.5,183.5C 49.0706,185.331 48.5706,187.331 49,189.5C 51.5463,192.186 54.713,193.186 58.5,192.5C 58.5,195.5 58.5,198.5 58.5,201.5C 62.9028,200.893 64.2361,202.56 62.5,206.5C 66.4592,207.327 70.4592,207.827 74.5,208C 76.2112,210.589 78.0445,213.089 80,215.5C 80.4828,216.448 80.6495,217.448 80.5,218.5C 75.9674,218.823 73.1341,216.823 72,212.5C 71.0975,211.299 69.9308,210.465 68.5,210C 58.9104,209.582 53.5771,204.416 52.5,194.5C 51.0878,193.194 49.4211,192.36 47.5,192C 46.4258,191.261 45.7591,190.261 45.5,189C 46.1485,185.24 47.4818,181.74 49.5,178.5C 48.9017,177.205 48.4017,175.872 48,174.5C 44.4593,172.543 40.9593,170.876 37.5,169.5C 37.9528,168.542 38.6195,167.708 39.5,167C 43.8867,167.348 47.5534,166.014 50.5,163C 53.3791,162.454 56.0458,161.621 58.5,160.5C 60.2161,160.371 61.8828,160.038 63.5,159.5 Z"/></g>
<g><path style="opacity:1" fill="#d8d8d9" d="M 145.5,189.5 C 146.812,190.145 147.812,191.145 148.5,192.5C 147.949,195.056 146.949,197.389 145.5,199.5C 147.718,200.924 149.218,202.924 150,205.5C 151.221,211.724 153.054,217.724 155.5,223.5C 155.03,227.256 154.53,231.256 154,235.5C 142.073,247.487 130.073,247.487 118,235.5C 109.775,224.697 109.775,214.031 118,203.5C 125.747,197.24 134.58,193.073 144.5,191C 145.056,190.617 145.389,190.117 145.5,189.5 Z"/></g>
<g><path style="opacity:1" fill="#b5b8ba" d="M 100.5,183.5 C 100.5,184.5 100.5,185.5 100.5,186.5C 95.3017,186.605 90.3017,187.438 85.5,189C 86.7234,191.052 87.7234,193.219 88.5,195.5C 93.6107,197.443 97.2774,200.943 99.5,206C 98.1727,211.278 97.1727,216.612 96.5,222C 98.4517,224.737 100.952,226.904 104,228.5C 104.608,230.154 105.108,231.821 105.5,233.5C 104.609,232.89 103.609,232.557 102.5,232.5C 101.5,232.167 100.833,231.5 100.5,230.5C 100.489,228.983 99.8228,227.816 98.5,227C 95.6441,225.741 92.9774,224.241 90.5,222.5C 89.8951,219.873 89.3951,217.207 89,214.5C 86.9237,207.641 82.5903,202.974 76,200.5C 75.8122,198.524 75.9788,196.524 76.5,194.5C 76.5142,192.389 75.8475,190.555 74.5,189C 74.6448,188.228 74.9781,187.561 75.5,187C 81.6807,186.828 87.6807,186.328 93.5,185.5C 96.188,185.834 98.5214,185.168 100.5,183.5 Z"/></g>
<g><path style="opacity:1" fill="#434548" d="M 28.5,192.5 C 31.5415,197.733 33.3748,203.4 34,209.5C 35.8761,210.609 37.7095,211.609 39.5,212.5C 37.396,212.799 35.396,212.466 33.5,211.5C 31.925,205.14 30.2584,198.806 28.5,192.5 Z"/></g>
<g><path style="opacity:1" fill="#85898d" d="M 37.5,169.5 C 40.9593,170.876 44.4593,172.543 48,174.5C 48.4017,175.872 48.9017,177.205 49.5,178.5C 47.4818,181.74 46.1485,185.24 45.5,189C 45.7591,190.261 46.4258,191.261 47.5,192C 49.4211,192.36 51.0878,193.194 52.5,194.5C 53.5771,204.416 58.9104,209.582 68.5,210C 69.9308,210.465 71.0975,211.299 72,212.5C 73.1341,216.823 75.9674,218.823 80.5,218.5C 83.3538,220.729 86.6871,222.062 90.5,222.5C 92.9774,224.241 95.6441,225.741 98.5,227C 99.8228,227.816 100.489,228.983 100.5,230.5C 98.8333,229.833 97.1667,229.167 95.5,228.5C 94.2511,226.864 92.5844,225.697 90.5,225C 86.7858,224.68 83.1191,224.18 79.5,223.5C 78.5,222.833 77.5,222.167 76.5,221.5C 74.2683,218.549 71.2683,216.882 67.5,216.5C 67.3893,215.883 67.056,215.383 66.5,215C 59.9655,214.718 53.6321,213.718 47.5,212C 46.5318,208.225 45.6985,204.059 45,199.5C 40.6588,199.131 36.8255,197.631 33.5,195C 34.8742,192.417 36.3742,189.917 38,187.5C 39.9896,178.658 36.4896,175.325 27.5,177.5C 27.5,175.167 27.5,172.833 27.5,170.5C 30.7644,169.676 34.0977,169.342 37.5,169.5 Z"/></g>
<g><path style="opacity:1" fill="#797c7f" d="M 312.5,197.5 C 311.213,200.407 310.213,203.407 309.5,206.5C 308.038,207.458 306.705,208.624 305.5,210C 301.948,210.878 298.614,212.044 295.5,213.5C 292.518,213.963 289.518,214.296 286.5,214.5C 293.725,211.705 301.059,208.705 308.5,205.5C 308.312,201.948 309.645,199.281 312.5,197.5 Z"/></g>
<g><path style="opacity:0.996" fill="#2b2c2d" d="M 309.5,206.5 C 308.37,208.315 307.704,210.315 307.5,212.5C 303.466,212.505 299.466,212.838 295.5,213.5C 298.614,212.044 301.948,210.878 305.5,210C 306.705,208.624 308.038,207.458 309.5,206.5 Z"/></g>
<g><path style="opacity:1" fill="#5c6063" d="M 55.5,215.5 C 59.5483,215.395 63.5483,215.728 67.5,216.5C 71.2683,216.882 74.2683,218.549 76.5,221.5C 72.9039,220.2 69.2373,219.2 65.5,218.5C 62.1129,217.712 58.7796,216.712 55.5,215.5 Z"/></g>
<g><path style="opacity:1" fill="#696c6f" d="M 285.5,214.5 C 281.733,215.097 278.066,216.097 274.5,217.5C 264.873,219.502 255.207,221.835 245.5,224.5C 246.287,222.896 247.62,222.229 249.5,222.5C 261.247,218.622 273.247,215.956 285.5,214.5 Z"/></g>
<g><path style="opacity:1" fill="#242627" d="M 39.5,212.5 C 44.8283,213.664 50.1616,214.664 55.5,215.5C 58.7796,216.712 62.1129,217.712 65.5,218.5C 56.0643,218.98 47.3976,216.98 39.5,212.5 Z"/></g>
<g><path style="opacity:1" fill="#2f3132" d="M 295.5,213.5 C 295.082,214.222 294.416,214.722 293.5,215C 287.222,216.321 280.888,217.154 274.5,217.5C 278.066,216.097 281.733,215.097 285.5,214.5C 285.833,214.5 286.167,214.5 286.5,214.5C 289.518,214.296 292.518,213.963 295.5,213.5 Z"/></g>
<g><path style="opacity:1" fill="#b4b7ba" d="M 312.5,175.5 C 309.257,174.42 305.924,174.253 302.5,175C 300.667,178.167 298.167,180.667 295,182.5C 293.453,186.478 291.286,189.978 288.5,193C 282.083,197.873 276.083,203.207 270.5,209C 263.305,213.394 256.305,217.894 249.5,222.5C 247.62,222.229 246.287,222.896 245.5,224.5C 243.5,226.167 241.5,227.833 239.5,229.5C 235.778,229.861 232.778,231.528 230.5,234.5C 229.391,234.557 228.391,234.89 227.5,235.5C 225.688,235.771 224.022,236.438 222.5,237.5C 218.134,242.866 213.134,247.533 207.5,251.5C 205.919,252.579 204.253,252.579 202.5,251.5C 197.966,252.781 193.466,254.115 189,255.5C 188.8,253.68 187.966,252.347 186.5,251.5C 183.842,247.65 180.176,245.15 175.5,244C 174.619,243.292 173.953,242.458 173.5,241.5C 176.09,241.396 178.423,242.063 180.5,243.5C 182.827,242.275 183.994,240.275 184,237.5C 184.414,237.957 184.914,238.291 185.5,238.5C 188.337,237.491 189.67,235.491 189.5,232.5C 190.5,232.5 191.5,232.5 192.5,232.5C 192.187,229.753 192.52,227.086 193.5,224.5C 194.833,225.833 196.167,225.833 197.5,224.5C 200.385,226.587 201.219,229.254 200,232.5C 202.434,230.977 205.101,229.977 208,229.5C 208.925,230.047 209.758,230.713 210.5,231.5C 208.902,233.87 209.402,235.536 212,236.5C 214.315,235.125 216.815,234.125 219.5,233.5C 222.715,235.402 226.048,235.235 229.5,233C 236.693,225.645 244.693,218.978 253.5,213C 254.167,212.333 254.833,212.333 255.5,213C 252.98,214.763 250.647,216.763 248.5,219C 248.833,219.167 249.167,219.333 249.5,219.5C 252.383,216.891 255.717,215.058 259.5,214C 272.742,201.756 285.575,189.256 298,176.5C 298.483,175.552 298.649,174.552 298.5,173.5C 303.619,172.897 308.285,173.564 312.5,175.5 Z"/></g>
<g><path style="opacity:0.992" fill="#2e2e2f" d="M 79.5,223.5 C 83.1191,224.18 86.7858,224.68 90.5,225C 92.5844,225.697 94.2511,226.864 95.5,228.5C 94.1667,228.5 93.5,229.167 93.5,230.5C 93.1667,230.5 92.8333,230.5 92.5,230.5C 91.4479,228.744 89.7812,228.077 87.5,228.5C 88.6085,227.71 89.9419,227.21 91.5,227C 87.026,226.609 83.026,225.442 79.5,223.5 Z"/></g>
<g><path style="opacity:0.996" fill="#7a7d80" d="M 48.5,230.5 C 49.5,230.5 50.5,230.5 51.5,230.5C 51.5,231.5 51.5,232.5 51.5,233.5C 52.5,233.5 53.5,233.5 54.5,233.5C 55.4433,237.389 57.7767,240.056 61.5,241.5C 62.1495,243.435 62.4828,245.435 62.5,247.5C 61.448,247.649 60.448,247.483 59.5,247C 54.6329,242.468 50.1329,237.634 46,232.5C 45.4062,229.781 46.2395,229.114 48.5,230.5 Z"/></g>
<g><path style="opacity:1" fill="#585858" d="M 102.5,232.5 C 103.609,232.557 104.609,232.89 105.5,233.5C 107.041,234.667 108.375,236 109.5,237.5C 106.169,237.169 103.836,235.503 102.5,232.5 Z"/></g>
<g><path style="opacity:0.996" fill="#2e2f31" d="M 239.5,229.5 C 237.212,232.456 234.212,234.123 230.5,234.5C 232.778,231.528 235.778,229.861 239.5,229.5 Z"/></g>
<g><path style="opacity:1" fill="#484c50" d="M 44.5,228.5 C 46.4832,228.157 47.8166,228.824 48.5,230.5C 46.2395,229.114 45.4062,229.781 46,232.5C 50.1329,237.634 54.6329,242.468 59.5,247C 60.448,247.483 61.448,247.649 62.5,247.5C 62.4828,245.435 62.1495,243.435 61.5,241.5C 64.4145,243.239 65.0812,245.572 63.5,248.5C 61.8008,248.34 60.1341,248.506 58.5,249C 55.0107,255.011 50.0107,258.844 43.5,260.5C 43.4411,257.951 44.4411,255.951 46.5,254.5C 44.6667,251.5 42.8333,248.5 41,245.5C 40.1074,244.919 39.1074,244.585 38,244.5C 35.7825,245.218 33.6159,245.718 31.5,246C 34.6595,241.841 38.1595,238.008 42,234.5C 42.9383,232.512 43.7717,230.512 44.5,228.5 Z"/></g>
<g><path style="opacity:1" fill="#85898c" d="M 298.5,230.5 C 299.496,230.414 300.329,230.748 301,231.5C 302.438,232.9 303.271,234.567 303.5,236.5C 305.319,237.936 305.652,239.603 304.5,241.5C 302.902,240.515 301.235,240.349 299.5,241C 296.925,245.915 293.925,250.581 290.5,255C 288.803,255.384 287.137,255.218 285.5,254.5C 285.343,253.127 285.51,251.793 286,250.5C 292.189,244.764 294.689,237.764 293.5,229.5C 295.216,229.629 296.883,229.962 298.5,230.5 Z"/></g>
<g><path style="opacity:1" fill="#95989b" d="M 87.5,231.5 C 87.6427,233.262 87.3094,234.929 86.5,236.5C 89.6179,239.115 92.6179,241.949 95.5,245C 98.808,247.834 102.475,248.667 106.5,247.5C 106.5,246.167 106.5,244.833 106.5,243.5C 108.597,244.879 108.93,246.545 107.5,248.5C 104.069,252.551 99.7359,254.384 94.5,254C 91.016,249.549 87.1827,245.382 83,241.5C 82.3333,240.167 82.3333,238.833 83,237.5C 85.163,235.859 86.663,233.859 87.5,231.5 Z"/></g>
<g><path style="opacity:1" fill="#75797c" d="M 298.5,230.5 C 296.883,229.962 295.216,229.629 293.5,229.5C 294.689,237.764 292.189,244.764 286,250.5C 285.51,251.793 285.343,253.127 285.5,254.5C 284.833,254.167 284.167,253.833 283.5,253.5C 282.542,252.038 281.376,250.705 280,249.5C 279.333,248.167 279.333,246.833 280,245.5C 284.171,242.177 287.337,238.177 289.5,233.5C 290.818,231.239 292.485,229.239 294.5,227.5C 296.653,227.561 297.986,228.561 298.5,230.5 Z"/></g>
<g><path style="opacity:0.992" fill="#353738" d="M 230.5,234.5 C 228.196,238.392 224.863,241.059 220.5,242.5C 222.527,239.806 224.861,237.473 227.5,235.5C 228.391,234.89 229.391,234.557 230.5,234.5 Z"/></g>
<g><path style="opacity:1" fill="#a8aaab" d="M 92.5,230.5 C 92.8333,230.5 93.1667,230.5 93.5,230.5C 97.8063,234.806 102.14,239.14 106.5,243.5C 106.5,244.833 106.5,246.167 106.5,247.5C 102.475,248.667 98.808,247.834 95.5,245C 92.6179,241.949 89.6179,239.115 86.5,236.5C 87.3094,234.929 87.6427,233.262 87.5,231.5C 88.6069,229.153 90.2736,228.82 92.5,230.5 Z"/></g>
<g><path style="opacity:1" fill="#838383" d="M 109.5,237.5 C 111.868,238.014 113.868,239.18 115.5,241C 117.134,241.494 118.801,241.66 120.5,241.5C 120.5,242.167 120.833,242.5 121.5,242.5C 123.167,244.5 124.833,246.5 126.5,248.5C 126.833,249.167 127.167,249.833 127.5,250.5C 121.206,246.534 115.206,242.201 109.5,237.5 Z"/></g>
<g><path style="opacity:0.996" fill="#4d4d4e" d="M 165.5,242.5 C 165.833,242.5 166.167,242.5 166.5,242.5C 168.527,242.338 170.527,242.505 172.5,243C 173.056,243.383 173.389,243.883 173.5,244.5C 170.5,244.5 167.5,244.5 164.5,244.5C 164.833,243.833 165.167,243.167 165.5,242.5 Z"/></g>
<g><path style="opacity:1" fill="#7a7e81" d="M 227.5,235.5 C 224.861,237.473 222.527,239.806 220.5,242.5C 218.393,244.727 216.06,246.727 213.5,248.5C 210.956,249.708 209.622,251.708 209.5,254.5C 207.866,255.955 206.532,257.622 205.5,259.5C 205.694,256.67 206.361,254.004 207.5,251.5C 213.134,247.533 218.134,242.866 222.5,237.5C 224.022,236.438 225.688,235.771 227.5,235.5 Z"/></g>
<g><path style="opacity:1" fill="#3c3f41" d="M 247.5,230.5 C 243.934,235.573 239.768,240.24 235,244.5C 234.235,246.066 234.402,247.399 235.5,248.5C 239.444,252.781 243.444,257.115 247.5,261.5C 243.031,258.865 239.364,255.365 236.5,251C 235.552,250.517 234.552,250.351 233.5,250.5C 233.337,248.143 233.503,245.81 234,243.5C 238.369,238.963 242.869,234.63 247.5,230.5 Z"/></g>
<g><path style="opacity:1" fill="#6f7376" d="M 255.5,232.5 C 253.355,231.011 251.022,230.011 248.5,229.5C 248.657,230.873 248.49,232.207 248,233.5C 244,237.5 240,241.5 236,245.5C 235.517,246.448 235.351,247.448 235.5,248.5C 234.402,247.399 234.235,246.066 235,244.5C 239.768,240.24 243.934,235.573 247.5,230.5C 247.97,229.307 248.97,228.64 250.5,228.5C 253.102,228.777 254.769,230.111 255.5,232.5 Z"/></g>
<g><path style="opacity:1" fill="#979b9e" d="M 255.5,232.5 C 257.954,234.103 259.954,236.103 261.5,238.5C 262.234,239.708 262.567,241.041 262.5,242.5C 263.5,242.5 264.5,242.5 265.5,242.5C 265.527,244.199 266.194,245.533 267.5,246.5C 266.448,246.649 265.448,246.483 264.5,246C 261.599,242.635 258.099,240.135 254,238.5C 249.501,242.341 244.834,246.008 240,249.5C 238.644,248.62 237.144,248.286 235.5,248.5C 235.351,247.448 235.517,246.448 236,245.5C 240,241.5 244,237.5 248,233.5C 248.49,232.207 248.657,230.873 248.5,229.5C 251.022,230.011 253.355,231.011 255.5,232.5 Z"/></g>
<g><path style="opacity:1" fill="#3a3e41" d="M 44.5,228.5 C 43.7717,230.512 42.9383,232.512 42,234.5C 38.1595,238.008 34.6595,241.841 31.5,246C 33.6159,245.718 35.7825,245.218 38,244.5C 39.1074,244.585 40.1074,244.919 41,245.5C 42.8333,248.5 44.6667,251.5 46.5,254.5C 44.4411,255.951 43.4411,257.951 43.5,260.5C 40.8333,258.167 38.1667,255.833 35.5,253.5C 34.1879,251.521 32.5212,249.855 30.5,248.5C 29.3691,246.926 29.2025,245.259 30,243.5C 34.8559,238.392 39.6893,233.392 44.5,228.5 Z"/></g>
<g><path style="opacity:1" fill="#7f8387" d="M 267.5,246.5 C 263.897,248.103 261.23,250.769 259.5,254.5C 257.344,257.156 255.011,259.656 252.5,262C 250.735,262.64 249.068,262.473 247.5,261.5C 243.444,257.115 239.444,252.781 235.5,248.5C 237.144,248.286 238.644,248.62 240,249.5C 244.834,246.008 249.501,242.341 254,238.5C 258.099,240.135 261.599,242.635 264.5,246C 265.448,246.483 266.448,246.649 267.5,246.5 Z"/></g>
<g><path style="opacity:1" fill="#46484a" d="M 289.5,233.5 C 287.337,238.177 284.171,242.177 280,245.5C 279.333,246.833 279.333,248.167 280,249.5C 281.376,250.705 282.542,252.038 283.5,253.5C 279.35,251.846 277.183,248.846 277,244.5C 280.948,240.465 285.115,236.798 289.5,233.5 Z"/></g>
<g><path style="opacity:1" fill="#6e7173" d="M 261.5,238.5 C 264.633,240.136 266.966,242.636 268.5,246C 268.415,247.107 268.081,248.107 267.5,249C 264.403,250.273 261.736,252.107 259.5,254.5C 261.23,250.769 263.897,248.103 267.5,246.5C 266.194,245.533 265.527,244.199 265.5,242.5C 264.5,242.5 263.5,242.5 262.5,242.5C 262.567,241.041 262.234,239.708 261.5,238.5 Z"/></g>
<g><path style="opacity:1" fill="#37383a" d="M 85.5,230.5 C 85.6495,231.552 85.4828,232.552 85,233.5C 81.6298,236.535 78.6298,239.868 76,243.5C 75.3333,245.5 75.3333,247.5 76,249.5C 80.4354,254.444 85.2687,258.777 90.5,262.5C 92.8471,261.474 95.1805,260.474 97.5,259.5C 95.0032,263.746 91.3365,265.246 86.5,264C 82.0553,260.23 78.3886,255.897 75.5,251C 74.552,250.517 73.552,250.351 72.5,250.5C 72.1826,247.428 72.5159,244.428 73.5,241.5C 77.5662,237.761 81.5662,234.095 85.5,230.5 Z"/></g>
<g><path style="opacity:1" fill="#6e7275" d="M 303.5,236.5 C 305.433,236.729 307.1,237.562 308.5,239C 309.252,239.671 309.586,240.504 309.5,241.5C 310.434,243.239 310.434,244.905 309.5,246.5C 307.289,245.877 305.289,244.877 303.5,243.5C 299.458,247.54 295.791,251.873 292.5,256.5C 289.457,258.095 287.124,257.428 285.5,254.5C 287.137,255.218 288.803,255.384 290.5,255C 293.925,250.581 296.925,245.915 299.5,241C 301.235,240.349 302.902,240.515 304.5,241.5C 305.652,239.603 305.319,237.936 303.5,236.5 Z"/></g>
<g><path style="opacity:0.98" fill="#3b3d3f" d="M 213.5,248.5 C 212.551,250.777 211.218,252.777 209.5,254.5C 209.622,251.708 210.956,249.708 213.5,248.5 Z"/></g>
<g><path style="opacity:0.784" fill="#505152" d="M 159.5,248.5 C 159.446,250.632 158.446,251.965 156.5,252.5C 156.554,250.368 157.554,249.035 159.5,248.5 Z"/></g>
<g><path style="opacity:1" fill="#75787c" d="M 87.5,228.5 C 89.7812,228.077 91.4479,228.744 92.5,230.5C 90.2736,228.82 88.6069,229.153 87.5,231.5C 86.663,233.859 85.163,235.859 83,237.5C 82.3333,238.833 82.3333,240.167 83,241.5C 87.1827,245.382 91.016,249.549 94.5,254C 99.7359,254.384 104.069,252.551 107.5,248.5C 107.649,249.552 107.483,250.552 107,251.5C 102.691,252.988 99.5243,255.655 97.5,259.5C 95.1805,260.474 92.8471,261.474 90.5,262.5C 85.2687,258.777 80.4354,254.444 76,249.5C 75.3333,247.5 75.3333,245.5 76,243.5C 78.6298,239.868 81.6298,236.535 85,233.5C 85.4828,232.552 85.6495,231.552 85.5,230.5C 85.5,229.167 86.1667,228.5 87.5,228.5 Z"/></g>
<g><path style="opacity:1" fill="#222324" d="M 181.5,250.5 C 182.458,250.953 183.292,251.619 184,252.5C 184.167,261.163 184.001,269.83 183.5,278.5C 183.167,278.5 182.833,278.5 182.5,278.5C 182.252,270.967 182.585,263.467 183.5,256C 183.046,254.061 182.379,252.228 181.5,250.5 Z"/></g>
<g><path style="opacity:1" fill="#313436" d="M 310.5,248.5 C 305.869,254.127 300.536,259.127 294.5,263.5C 291.692,262.768 289.692,261.101 288.5,258.5C 290.896,260.212 293.562,260.712 296.5,260C 299.952,254.472 304.619,250.639 310.5,248.5 Z"/></g>
<g><path style="opacity:1" fill="#53575a" d="M 309.5,241.5 C 311.405,242.464 312.405,244.131 312.5,246.5C 312.253,247.713 311.586,248.38 310.5,248.5C 304.619,250.639 299.952,254.472 296.5,260C 293.562,260.712 290.896,260.212 288.5,258.5C 285.833,257.833 284.167,256.167 283.5,253.5C 284.167,253.833 284.833,254.167 285.5,254.5C 287.124,257.428 289.457,258.095 292.5,256.5C 295.791,251.873 299.458,247.54 303.5,243.5C 305.289,244.877 307.289,245.877 309.5,246.5C 310.434,244.905 310.434,243.239 309.5,241.5 Z"/></g>
<g><path style="opacity:0.957" fill="#505152" d="M 116.5,262.5 C 115.359,260.771 113.693,259.771 111.5,259.5C 109.97,259.64 108.97,260.307 108.5,261.5C 107.833,261.833 107.167,262.167 106.5,262.5C 106.801,259.641 108.467,258.307 111.5,258.5C 114.533,258.307 116.199,259.641 116.5,262.5 Z"/></g>
<g><path style="opacity:0.925" fill="#505355" d="M 209.5,254.5 C 208.34,260.923 206.34,266.923 203.5,272.5C 203.5,271.5 203.5,270.5 203.5,269.5C 204.167,266.167 204.833,262.833 205.5,259.5C 206.532,257.622 207.866,255.955 209.5,254.5 Z"/></g>
<g><path style="opacity:1" fill="#a0a4a8" d="M 186.5,251.5 C 187.966,252.347 188.8,253.68 189,255.5C 193.466,254.115 197.966,252.781 202.5,251.5C 204.253,252.579 205.919,252.579 207.5,251.5C 206.361,254.004 205.694,256.67 205.5,259.5C 204.596,260.209 204.263,261.209 204.5,262.5C 201.477,262.105 200.477,263.105 201.5,265.5C 196.829,268.726 191.829,269.392 186.5,267.5C 186.5,262.167 186.5,256.833 186.5,251.5 Z"/></g>
<g><path style="opacity:1" fill="#1c1d1f" d="M 63.5,248.5 C 57.6568,252.511 52.6568,257.344 48.5,263C 42.4725,262.513 38.1391,259.347 35.5,253.5C 38.1667,255.833 40.8333,258.167 43.5,260.5C 50.0107,258.844 55.0107,255.011 58.5,249C 60.1341,248.506 61.8008,248.34 63.5,248.5 Z"/></g>
<g><path style="opacity:1" fill="#aeb1b3" d="M 126.5,248.5 C 130.227,251.087 132.894,254.587 134.5,259C 141.579,258.555 147.912,260.388 153.5,264.5C 154.17,262.709 154.837,261.042 155.5,259.5C 155.666,265.509 155.499,271.509 155,277.5C 153.899,270.12 150.232,268.12 144,271.5C 142.266,270.751 140.433,270.251 138.5,270C 135.855,264.394 133.021,258.894 130,253.5C 129.329,252.748 128.496,252.414 127.5,252.5C 127.5,251.833 127.5,251.167 127.5,250.5C 127.167,249.833 126.833,249.167 126.5,248.5 Z"/></g>
<g><path style="opacity:1" fill="#909497" d="M 274.5,260.5 C 276.46,262.156 278.46,263.823 280.5,265.5C 283.582,270.619 282.249,271.786 276.5,269C 273.909,266.643 272.242,263.809 271.5,260.5C 272.5,260.5 273.5,260.5 274.5,260.5 Z"/></g>
<g><path style="opacity:1" fill="#717477" d="M 70.5,259.5 C 75.1239,264.158 79.7906,268.825 84.5,273.5C 84.5,274.5 84.5,275.5 84.5,276.5C 83.448,276.649 82.448,276.483 81.5,276C 80.4168,273.944 78.7501,272.611 76.5,272C 75.8095,270.933 75.3095,269.766 75,268.5C 72.4272,267.194 70.0939,265.527 68,263.5C 67.51,262.207 67.3433,260.873 67.5,259.5C 68.5,259.5 69.5,259.5 70.5,259.5 Z"/></g>
<g><path style="opacity:1" fill="#878a8d" d="M 231.5,260.5 C 234.757,263.818 238.091,267.151 241.5,270.5C 242.108,271.8 242.775,273.133 243.5,274.5C 243.167,275.167 242.833,275.833 242.5,276.5C 238.931,272.762 234.931,269.596 230.5,267C 228.149,267.14 225.816,267.64 223.5,268.5C 224.97,265.682 225.97,262.682 226.5,259.5C 228.292,259.366 229.958,259.699 231.5,260.5 Z"/></g>
<g><path style="opacity:1" fill="#6b6f73" d="M 274.5,260.5 C 273.5,260.5 272.5,260.5 271.5,260.5C 272.242,263.809 273.909,266.643 276.5,269C 282.249,271.786 283.582,270.619 280.5,265.5C 283.388,268.255 286.055,271.255 288.5,274.5C 288.715,276.179 288.048,277.179 286.5,277.5C 284.664,273.293 281.664,271.96 277.5,273.5C 275.374,277.44 272.207,280.106 268,281.5C 267.904,287.686 266.737,288.02 264.5,282.5C 265.621,279.804 265.621,277.137 264.5,274.5C 262.787,274.121 261.787,273.121 261.5,271.5C 265.957,268.582 268.957,264.582 270.5,259.5C 270.917,258.876 271.584,258.543 272.5,258.5C 273.713,258.747 274.38,259.414 274.5,260.5 Z"/></g>
<g><path style="opacity:1" fill="#35393d" d="M 70.5,259.5 C 69.5,259.5 68.5,259.5 67.5,259.5C 67.3433,260.873 67.51,262.207 68,263.5C 70.0939,265.527 72.4272,267.194 75,268.5C 75.3095,269.766 75.8095,270.933 76.5,272C 78.7501,272.611 80.4168,273.944 81.5,276C 82.448,276.483 83.448,276.649 84.5,276.5C 84.5,275.5 84.5,274.5 84.5,273.5C 85.9468,274.134 86.6134,275.301 86.5,277C 86.3158,278.376 85.6491,279.209 84.5,279.5C 79.2025,283.116 73.8692,286.782 68.5,290.5C 67.6919,290.192 67.0253,289.692 66.5,289C 69.6849,288.343 71.3516,286.343 71.5,283C 70.8088,279.181 69.4755,275.681 67.5,272.5C 64.5569,272.647 61.7236,273.313 59,274.5C 58.5,274.167 58,273.833 57.5,273.5C 59.509,270.804 61.509,268.137 63.5,265.5C 66.0922,263.964 67.0922,261.631 66.5,258.5C 68.099,258.232 69.4324,258.566 70.5,259.5 Z"/></g>
<g><path style="opacity:1" fill="#96989b" d="M 116.5,262.5 C 117.583,262.539 118.583,262.873 119.5,263.5C 122.181,267.178 125.181,270.511 128.5,273.5C 128.5,275.167 128.5,276.833 128.5,278.5C 121.403,275.672 114.07,273.339 106.5,271.5C 106.167,270.833 105.833,270.167 105.5,269.5C 106.889,267.004 107.889,264.337 108.5,261.5C 108.97,260.307 109.97,259.64 111.5,259.5C 113.693,259.771 115.359,260.771 116.5,262.5 Z"/></g>
<g><path style="opacity:1" fill="#3e4143" d="M 270.5,259.5 C 268.957,264.582 265.957,268.582 261.5,271.5C 260.167,272.167 258.833,272.833 257.5,273.5C 262.547,269.454 266.881,264.788 270.5,259.5 Z"/></g>
<g><path style="opacity:1" fill="#696d71" d="M 231.5,260.5 C 229.958,259.699 228.292,259.366 226.5,259.5C 225.97,262.682 224.97,265.682 223.5,268.5C 225.816,267.64 228.149,267.14 230.5,267C 234.931,269.596 238.931,272.762 242.5,276.5C 242.833,275.833 243.167,275.167 243.5,274.5C 242.775,273.133 242.108,271.8 241.5,270.5C 244.306,272.299 245.639,274.966 245.5,278.5C 244.127,278.343 242.793,278.51 241.5,279C 239.898,281.111 237.898,282.611 235.5,283.5C 232.453,280.931 229.12,278.764 225.5,277C 223.833,276.333 222.167,276.333 220.5,277C 219.347,278.883 217.681,279.716 215.5,279.5C 213.516,279.516 212.516,278.516 212.5,276.5C 213.432,274.235 214.765,272.235 216.5,270.5C 221.072,267.606 224.072,263.606 225.5,258.5C 228.082,258.025 230.082,258.692 231.5,260.5 Z"/></g>
<g><path style="opacity:1" fill="#3d3f41" d="M 104.5,263.5 C 103.811,267.709 101.644,271.042 98,273.5C 97.8333,274.333 97.6667,275.167 97.5,276C 98.2054,278.542 99.5387,280.708 101.5,282.5C 98.0645,281.398 96.0645,279.064 95.5,275.5C 96.7706,273.258 97.9373,270.925 99,268.5C 100.853,266.72 102.687,265.053 104.5,263.5 Z"/></g>
<g><path style="opacity:1" fill="#505153" d="M 128.5,255.5 C 132.032,261.231 135.032,267.231 137.5,273.5C 139.051,276.619 140.051,279.952 140.5,283.5C 140.72,286.513 142.053,288.847 144.5,290.5C 145.33,293.821 145.997,297.154 146.5,300.5C 144.864,299.251 143.697,297.584 143,295.5C 137.855,282.235 133.022,268.902 128.5,255.5 Z"/></g>
<g><path style="opacity:1" fill="#9b9ea0" d="M 165.5,242.5 C 165.167,243.167 164.833,243.833 164.5,244.5C 162.858,245.803 161.191,247.136 159.5,248.5C 157.554,249.035 156.554,250.368 156.5,252.5C 156.5,258.5 156.5,264.5 156.5,270.5C 156.918,276.221 157.418,281.888 158,287.5C 155.763,284.95 154.263,281.95 153.5,278.5C 149.555,277.732 145.555,277.232 141.5,277C 139.65,276.31 138.316,275.144 137.5,273.5C 135.032,267.231 132.032,261.231 128.5,255.5C 128.443,254.391 128.11,253.391 127.5,252.5C 128.496,252.414 129.329,252.748 130,253.5C 133.021,258.894 135.855,264.394 138.5,270C 140.433,270.251 142.266,270.751 144,271.5C 150.232,268.12 153.899,270.12 155,277.5C 155.499,271.509 155.666,265.509 155.5,259.5C 153.297,250.355 156.631,244.688 165.5,242.5 Z"/></g>
<g><path style="opacity:1" fill="#2b2e31" d="M 63.5,265.5 C 61.509,268.137 59.509,270.804 57.5,273.5C 58,273.833 58.5,274.167 59,274.5C 61.7236,273.313 64.5569,272.647 67.5,272.5C 69.4755,275.681 70.8088,279.181 71.5,283C 71.3516,286.343 69.6849,288.343 66.5,289C 67.0253,289.692 67.6919,290.192 68.5,290.5C 73.8692,286.782 79.2025,283.116 84.5,279.5C 80.3634,282.805 76.6967,286.638 73.5,291C 71.3046,292.373 68.9712,292.706 66.5,292C 61.3617,287.204 56.6951,282.204 52.5,277C 52.4934,275.188 53.16,273.688 54.5,272.5C 57.7206,270.308 60.7206,267.975 63.5,265.5 Z"/></g>
<g><path style="opacity:1" fill="#888d91" d="M 166.5,242.5 C 168.607,241.532 170.941,241.198 173.5,241.5C 173.953,242.458 174.619,243.292 175.5,244C 180.176,245.15 183.842,247.65 186.5,251.5C 186.5,256.833 186.5,262.167 186.5,267.5C 191.829,269.392 196.829,268.726 201.5,265.5C 200.477,263.105 201.477,262.105 204.5,262.5C 204.263,261.209 204.596,260.209 205.5,259.5C 204.833,262.833 204.167,266.167 203.5,269.5C 201.059,274.6 197.059,277.933 191.5,279.5C 190.614,280.325 190.281,281.325 190.5,282.5C 188.856,282.286 187.356,282.62 186,283.5C 185.667,272.833 185.333,262.167 185,251.5C 183.736,249.393 181.903,248.393 179.5,248.5C 177.249,247.589 175.249,246.256 173.5,244.5C 173.389,243.883 173.056,243.383 172.5,243C 170.527,242.505 168.527,242.338 166.5,242.5 Z"/></g>
<g><path style="opacity:1" fill="#5b5f63" d="M 261.5,271.5 C 261.787,273.121 262.787,274.121 264.5,274.5C 265.621,277.137 265.621,279.804 264.5,282.5C 266.737,288.02 267.904,287.686 268,281.5C 272.207,280.106 275.374,277.44 277.5,273.5C 281.664,271.96 284.664,273.293 286.5,277.5C 284.906,277.08 283.406,276.414 282,275.5C 279.008,278.8 276.008,282.134 273,285.5C 272.506,287.134 272.34,288.801 272.5,290.5C 271.127,290.657 269.793,290.49 268.5,290C 264.667,286.167 260.833,282.333 257,278.5C 256.517,277.552 256.351,276.552 256.5,275.5C 256.833,274.833 257.167,274.167 257.5,273.5C 258.833,272.833 260.167,272.167 261.5,271.5 Z"/></g>
<g><path style="opacity:1" fill="#74787c" d="M 108.5,261.5 C 107.889,264.337 106.889,267.004 105.5,269.5C 105.833,270.167 106.167,270.833 106.5,271.5C 114.07,273.339 121.403,275.672 128.5,278.5C 128.5,276.833 128.5,275.167 128.5,273.5C 129.339,274.641 130.006,275.974 130.5,277.5C 129.995,278.919 128.995,279.585 127.5,279.5C 125.226,279.715 123.059,280.382 121,281.5C 114.196,278.51 107.029,277.177 99.5,277.5C 99.4457,274.033 100.946,271.366 104,269.5C 104.744,267.1 105.577,264.767 106.5,262.5C 107.167,262.167 107.833,261.833 108.5,261.5 Z"/></g>
<g><path style="opacity:1" fill="#585c60" d="M 245.5,278.5 C 245.5,278.833 245.5,279.167 245.5,279.5C 244.448,279.351 243.448,279.517 242.5,280C 237.611,283.725 233.278,287.892 229.5,292.5C 226.27,292.439 224.437,290.772 224,287.5C 220.667,285.333 217.834,282.666 215.5,279.5C 217.681,279.716 219.347,278.883 220.5,277C 222.167,276.333 223.833,276.333 225.5,277C 229.12,278.764 232.453,280.931 235.5,283.5C 237.898,282.611 239.898,281.111 241.5,279C 242.793,278.51 244.127,278.343 245.5,278.5 Z"/></g>
<g><path style="opacity:1" fill="#606468" d="M 106.5,262.5 C 105.577,264.767 104.744,267.1 104,269.5C 100.946,271.366 99.4457,274.033 99.5,277.5C 107.029,277.177 114.196,278.51 121,281.5C 123.059,280.382 125.226,279.715 127.5,279.5C 124.946,281.806 122.279,284.139 119.5,286.5C 117.287,287.605 115.12,287.605 113,286.5C 112.667,287.167 112.333,287.833 112,288.5C 109.18,285.306 105.68,283.306 101.5,282.5C 99.5387,280.708 98.2054,278.542 97.5,276C 97.6667,275.167 97.8333,274.333 98,273.5C 101.644,271.042 103.811,267.709 104.5,263.5C 104.842,262.662 105.508,262.328 106.5,262.5 Z"/></g>
<g><path style="opacity:0.729" fill="#37393c" d="M 202.5,274.5 C 202.443,278.029 201.443,281.029 199.5,283.5C 199.446,280.008 200.446,277.008 202.5,274.5 Z"/></g>
<g><path style="opacity:1" fill="#343639" d="M 216.5,270.5 C 214.765,272.235 213.432,274.235 212.5,276.5C 212.516,278.516 213.516,279.516 215.5,279.5C 217.834,282.666 220.667,285.333 224,287.5C 224.437,290.772 226.27,292.439 229.5,292.5C 228.399,293.598 227.066,293.765 225.5,293C 221.561,287.973 217.061,283.473 212,279.5C 210.422,274.843 211.922,271.843 216.5,270.5 Z"/></g>
<g><path style="opacity:1" fill="#3c3f42" d="M 288.5,274.5 C 289.586,274.62 290.253,275.287 290.5,276.5C 284.733,282.77 278.233,288.104 271,292.5C 265.453,288.964 260.453,284.631 256,279.5C 255.235,277.934 255.402,276.601 256.5,275.5C 256.351,276.552 256.517,277.552 257,278.5C 260.833,282.333 264.667,286.167 268.5,290C 269.793,290.49 271.127,290.657 272.5,290.5C 272.34,288.801 272.506,287.134 273,285.5C 276.008,282.134 279.008,278.8 282,275.5C 283.406,276.414 284.906,277.08 286.5,277.5C 288.048,277.179 288.715,276.179 288.5,274.5 Z"/></g>
<g><path style="opacity:1" fill="#707478" d="M 179.5,248.5 C 181.903,248.393 183.736,249.393 185,251.5C 185.333,262.167 185.667,272.833 186,283.5C 187.356,282.62 188.856,282.286 190.5,282.5C 190.281,281.325 190.614,280.325 191.5,279.5C 197.059,277.933 201.059,274.6 203.5,269.5C 203.5,270.5 203.5,271.5 203.5,272.5C 202.662,272.842 202.328,273.508 202.5,274.5C 200.446,277.008 199.446,280.008 199.5,283.5C 196.544,286.596 192.877,288.096 188.5,288C 186.391,289.141 184.558,290.641 183,292.5C 182.831,287.839 182.997,283.172 183.5,278.5C 184.001,269.83 184.167,261.163 184,252.5C 183.292,251.619 182.458,250.953 181.5,250.5C 180.5,250.167 179.833,249.5 179.5,248.5 Z"/></g>
<g><path style="opacity:1" fill="#808488" d="M 156.5,270.5 C 158.248,276.626 159.915,282.959 161.5,289.5C 161.661,292.68 162.661,295.347 164.5,297.5C 164.5,297.833 164.5,298.167 164.5,298.5C 164.5,299.167 164.5,299.833 164.5,300.5C 164.895,303.523 163.895,304.523 161.5,303.5C 159.803,293.225 153.803,288.058 143.5,288C 143.085,285.974 142.085,284.474 140.5,283.5C 140.051,279.952 139.051,276.619 137.5,273.5C 138.316,275.144 139.65,276.31 141.5,277C 145.555,277.232 149.555,277.732 153.5,278.5C 154.263,281.95 155.763,284.95 158,287.5C 157.418,281.888 156.918,276.221 156.5,270.5 Z"/></g>
<g><path style="opacity:1" fill="#494d51" d="M 101.5,282.5 C 105.68,283.306 109.18,285.306 112,288.5C 112.333,287.833 112.667,287.167 113,286.5C 115.12,287.605 117.287,287.605 119.5,286.5C 117.133,288.862 114.467,290.862 111.5,292.5C 107.175,290.175 103.841,286.841 101.5,282.5 Z"/></g>
<g><path style="opacity:1" fill="#292b2c" d="M 245.5,279.5 C 240.773,283.208 236.44,287.375 232.5,292C 231.552,292.483 230.552,292.649 229.5,292.5C 233.278,287.892 237.611,283.725 242.5,280C 243.448,279.517 244.448,279.351 245.5,279.5 Z"/></g>
<g><path style="opacity:0.345" fill="#454748" d="M 161.5,289.5 C 163.977,291.416 164.977,294.083 164.5,297.5C 162.661,295.347 161.661,292.68 161.5,289.5 Z"/></g>
<g><path style="opacity:1" fill="#666b70" d="M 140.5,283.5 C 142.085,284.474 143.085,285.974 143.5,288C 153.803,288.058 159.803,293.225 161.5,303.5C 163.895,304.523 164.895,303.523 164.5,300.5C 165.451,301.919 165.784,303.585 165.5,305.5C 160.105,305.733 154.772,305.4 149.5,304.5C 147.738,303.738 146.738,302.404 146.5,300.5C 145.997,297.154 145.33,293.821 144.5,290.5C 142.053,288.847 140.72,286.513 140.5,283.5 Z"/></g>
<g><path style="opacity:1" fill="#5b6064" d="M 182.5,278.5 C 182.833,278.5 183.167,278.5 183.5,278.5C 182.997,283.172 182.831,287.839 183,292.5C 184.558,290.641 186.391,289.141 188.5,288C 192.877,288.096 196.544,286.596 199.5,283.5C 197.566,288.243 195.899,292.91 194.5,297.5C 189.561,301.702 183.894,304.369 177.5,305.5C 177.335,301.818 177.501,298.152 178,294.5C 180.437,292.027 181.604,289.027 181.5,285.5C 182.219,283.236 182.552,280.903 182.5,278.5 Z"/></g>
<g><path style="opacity:1" fill="#3c3f42" d="M 181.5,285.5 C 181.604,289.027 180.437,292.027 178,294.5C 177.501,298.152 177.335,301.818 177.5,305.5C 183.894,304.369 189.561,301.702 194.5,297.5C 190.179,303.627 184.179,306.96 176.5,307.5C 176.334,302.821 176.501,298.155 177,293.5C 178.673,290.836 180.173,288.17 181.5,285.5 Z"/></g>
<g><path style="opacity:1" fill="#2e3032" d="M 164.5,298.5 C 165.748,299.334 166.415,300.667 166.5,302.5C 166.449,304.1 166.116,305.6 165.5,307C 161.167,307.667 156.833,307.667 152.5,307C 151.058,306.623 150.058,305.79 149.5,304.5C 154.772,305.4 160.105,305.733 165.5,305.5C 165.784,303.585 165.451,301.919 164.5,300.5C 164.5,299.833 164.5,299.167 164.5,298.5 Z"/></g>
</svg>
