<?xml version="1.0" encoding="UTF-8"?>
<!DOCTYPE svg PUBLIC "-//W3C//DTD SVG 1.1//EN" "http://www.w3.org/Graphics/SVG/1.1/DTD/svg11.dtd">
<svg xmlns="http://www.w3.org/2000/svg" version="1.1" width="100%" viewBox="0 0 328 328" style="shape-rendering:geometricPrecision; text-rendering:geometricPrecision; image-rendering:optimizeQuality; fill-rule:evenodd; clip-rule:evenodd" xmlns:xlink="http://www.w3.org/1999/xlink">
<g><path style="opacity:0.556" fill="#d2d1d5" d="M 327.5,137.5 C 327.5,155.167 327.5,172.833 327.5,190.5C 326.883,190.611 326.383,190.944 326,191.5C 318.003,241.719 292.169,279.719 248.5,305.5C 240.093,308.97 231.76,312.637 223.5,316.5C 214.99,318.824 206.656,321.324 198.5,324C 175.167,326 151.833,326 128.5,324C 120.344,321.324 112.01,318.824 103.5,316.5C 69.0911,303.925 41.9244,282.259 22,251.5C 19.2134,243.694 15.5468,236.36 11,229.5C 6.18107,217.287 2.84773,204.62 1,191.5C 0.617425,190.944 0.117425,190.611 -0.5,190.5C -0.5,172.833 -0.5,155.167 -0.5,137.5C 4.56402,112.957 13.7307,89.9571 27,68.5C 41.7269,49.1029 59.5602,33.2695 80.5,21C 89.5186,16.9436 98.6853,13.1103 108,9.5C 145,-1.16667 182,-1.16667 219,9.5C 257.638,22.4774 287.305,46.4774 308,81.5C 312.731,91.7022 317.065,102.036 321,112.5C 323.497,120.326 325.164,128.326 326,136.5C 326.383,137.056 326.883,137.389 327.5,137.5 Z"/></g>
<g><path style="opacity:1" fill="#a9a3bd" d="M 141.5,6.5 C 156.995,5.33868 172.661,5.17202 188.5,6C 190.058,6.21003 191.391,6.71003 192.5,7.5C 175.513,6.68368 158.513,6.35035 141.5,6.5 Z"/></g>
<g><path style="opacity:1" fill="#7e6d9d" d="M 141.5,6.5 C 158.513,6.35035 175.513,6.68368 192.5,7.5C 193.167,8.16667 193.833,8.83333 194.5,9.5C 189.807,9.45989 185.141,9.12656 180.5,8.5C 167.265,7.17873 153.931,7.17873 140.5,8.5C 137.5,8.5 134.5,8.5 131.5,8.5C 134.725,7.76321 138.059,7.09654 141.5,6.5 Z"/></g>
<g><path style="opacity:1" fill="#a529a6" d="M 179.5,8.5 C 185.627,10.2342 191.96,11.5675 198.5,12.5C 209.431,29.5907 220.931,46.2573 233,62.5C 240.327,75.1395 248.661,87.1395 258,98.5C 259.989,102.64 262.156,106.64 264.5,110.5C 265.061,113.282 265.394,116.116 265.5,119C 264.465,132.562 262.965,146.062 261,159.5C 259.385,158.614 257.885,157.614 256.5,156.5C 254.326,150.155 250.659,144.822 245.5,140.5C 239.956,130.939 233.956,121.606 227.5,112.5C 225.775,108.718 223.775,105.052 221.5,101.5C 219.773,99.4333 217.773,97.7666 215.5,96.5C 212.908,90.9756 209.575,85.9756 205.5,81.5C 204.92,79.2512 203.587,77.5846 201.5,76.5C 198.49,71.9793 195.657,67.3126 193,62.5C 189.822,59.1798 187.322,55.5132 185.5,51.5C 183.704,46.2095 180.704,41.8762 176.5,38.5C 175.5,38.1667 174.833,37.5 174.5,36.5C 173.043,34.3718 172.043,32.0384 171.5,29.5C 163.277,29.2457 155.277,29.9124 147.5,31.5C 140.646,31.176 133.979,31.5093 127.5,32.5C 122.156,32.666 116.823,32.4994 111.5,32C 110.968,29.5368 109.634,27.7035 107.5,26.5C 107.672,25.5084 107.338,24.8417 106.5,24.5C 105.464,22.6089 105.464,20.7755 106.5,19C 112.227,18.7108 117.227,16.8774 121.5,13.5C 121.833,13.5 122.167,13.5 122.5,13.5C 141.169,8.95621 160.169,7.28955 179.5,8.5 Z"/></g>
<g><path style="opacity:1" fill="#7b278a" d="M 179.5,8.5 C 179.833,8.5 180.167,8.5 180.5,8.5C 185.141,9.12656 189.807,9.45989 194.5,9.5C 195.833,10.1667 197.167,10.8333 198.5,11.5C 198.5,11.8333 198.5,12.1667 198.5,12.5C 191.96,11.5675 185.627,10.2342 179.5,8.5 Z"/></g>
<g><path style="opacity:1" fill="#988eb7" d="M 131.5,8.5 C 126.806,10.6141 121.806,11.9474 116.5,12.5C 117.152,11.2749 118.319,10.6083 120,10.5C 123.785,9.51526 127.618,8.84859 131.5,8.5 Z"/></g>
<g><path style="opacity:1" fill="#743087" d="M 180.5,8.5 C 180.167,8.5 179.833,8.5 179.5,8.5C 160.169,7.28955 141.169,8.95621 122.5,13.5C 128.266,10.8926 134.266,9.22592 140.5,8.5C 153.931,7.17873 167.265,7.17873 180.5,8.5 Z"/></g>
<g><path style="opacity:1" fill="#8b7ead" d="M 194.5,9.5 C 199.181,9.66861 203.848,10.0019 208.5,10.5C 208.833,11.1667 209.167,11.8333 209.5,12.5C 208.833,12.5 208.167,12.5 207.5,12.5C 204.482,12.2962 201.482,11.9629 198.5,11.5C 197.167,10.8333 195.833,10.1667 194.5,9.5 Z"/></g>
<g><path style="opacity:1" fill="#6a5290" d="M 131.5,8.5 C 134.5,8.5 137.5,8.5 140.5,8.5C 134.266,9.22592 128.266,10.8926 122.5,13.5C 122.167,13.5 121.833,13.5 121.5,13.5C 118.833,13.8333 116.167,14.1667 113.5,14.5C 113.833,13.8333 114.167,13.1667 114.5,12.5C 115.167,12.5 115.833,12.5 116.5,12.5C 121.806,11.9474 126.806,10.6141 131.5,8.5 Z"/></g>
<g><path style="opacity:1" fill="#aaa3c2" d="M 114.5,12.5 C 114.167,13.1667 113.833,13.8333 113.5,14.5C 113.167,14.5 112.833,14.5 112.5,14.5C 110.435,14.5172 108.435,14.8505 106.5,15.5C 106.611,14.8826 106.944,14.3826 107.5,14C 109.866,13.5604 112.199,13.0604 114.5,12.5 Z"/></g>
<g><path style="opacity:1" fill="#a9a1c1" d="M 208.5,10.5 C 212.434,11.8162 216.101,13.4829 219.5,15.5C 215.882,15.2925 212.548,14.2925 209.5,12.5C 209.167,11.8333 208.833,11.1667 208.5,10.5 Z"/></g>
<g><path style="opacity:1" fill="#614d90" d="M 207.5,12.5 C 208.167,12.5 208.833,12.5 209.5,12.5C 212.548,14.2925 215.882,15.2925 219.5,15.5C 221.153,15.6596 222.486,16.3263 223.5,17.5C 221.139,17.3259 218.806,16.9926 216.5,16.5C 214.095,16.1336 211.762,15.4669 209.5,14.5C 208.287,14.2528 207.62,13.5862 207.5,12.5 Z"/></g>
<g><path style="opacity:1" fill="#7b69a4" d="M 112.5,14.5 C 110.794,16.5358 108.461,17.5358 105.5,17.5C 102.451,18.3061 99.4507,19.3061 96.5,20.5C 99.2004,17.7085 102.534,16.0418 106.5,15.5C 108.435,14.8505 110.435,14.5172 112.5,14.5 Z"/></g>
<g><path style="opacity:1" fill="#2a184a" d="M 104.5,22.5 C 104.833,23.5 105.5,24.1667 106.5,24.5C 107.338,24.8417 107.672,25.5084 107.5,26.5C 108.353,29.5937 110.02,32.0937 112.5,34C 117.66,34.0622 122.66,33.5622 127.5,32.5C 133.979,31.5093 140.646,31.176 147.5,31.5C 155.196,31.1692 162.862,31.5025 170.5,32.5C 171.521,34.188 172.855,35.5213 174.5,36.5C 174.833,37.5 175.5,38.1667 176.5,38.5C 178.396,43.7075 181.396,48.0408 185.5,51.5C 187.322,55.5132 189.822,59.1798 193,62.5C 195.657,67.3126 198.49,71.9793 201.5,76.5C 202.08,78.7488 203.413,80.4154 205.5,81.5C 209.575,85.9756 212.908,90.9756 215.5,96.5C 216.727,98.5805 218.227,100.581 220,102.5C 221.142,106.814 223.642,110.148 227.5,112.5C 233.956,121.606 239.956,130.939 245.5,140.5C 248.077,145.594 250.911,150.594 254,155.5C 254.671,156.252 255.504,156.586 256.5,156.5C 257.422,158.816 259.089,160.483 261.5,161.5C 261.5,162.833 261.5,164.167 261.5,165.5C 259.547,171.074 258.88,177.074 259.5,183.5C 258.089,189.634 257.589,195.967 258,202.5C 260.215,206.117 262.715,209.45 265.5,212.5C 272.457,223.05 279.457,233.716 286.5,244.5C 287.786,247.117 289.453,249.45 291.5,251.5C 292.234,252.708 292.567,254.041 292.5,255.5C 292.5,257.5 291.5,258.5 289.5,258.5C 287.016,260.8 285.016,263.467 283.5,266.5C 283.5,267.167 283.5,267.833 283.5,268.5C 281.236,269.219 278.903,269.552 276.5,269.5C 275.833,268.5 275.167,267.5 274.5,266.5C 273.155,264.303 271.989,261.97 271,259.5C 268.386,255.91 265.552,252.576 262.5,249.5C 257.966,240.317 252.299,231.983 245.5,224.5C 244.227,221.391 242.727,218.391 241,215.5C 238.244,212.895 235.744,210.228 233.5,207.5C 233.727,205.067 232.727,203.401 230.5,202.5C 229.241,198.975 227.241,195.975 224.5,193.5C 222.984,190.467 220.984,187.8 218.5,185.5C 218.322,184.305 217.989,183.138 217.5,182C 215.586,179.385 213.586,176.885 211.5,174.5C 208.342,169.64 205.008,164.973 201.5,160.5C 200.92,158.251 199.587,156.585 197.5,155.5C 197.5,155.167 197.5,154.833 197.5,154.5C 194.361,147.359 190.028,141.026 184.5,135.5C 184.573,133.973 183.906,132.973 182.5,132.5C 182.5,131.833 182.167,131.5 181.5,131.5C 178.246,128.564 176.246,124.897 175.5,120.5C 174.39,118.8 173.057,117.466 171.5,116.5C 165.77,109.015 160.77,101.015 156.5,92.5C 155.817,92.1373 155.15,91.8039 154.5,91.5C 154.573,89.9731 153.906,88.9731 152.5,88.5C 150.86,85.2185 148.86,82.2185 146.5,79.5C 146.5,79.1667 146.5,78.8333 146.5,78.5C 144.168,74.8417 141.502,71.5084 138.5,68.5C 134.217,67.1734 129.551,66.5067 124.5,66.5C 109.168,65.9584 93.8347,65.4584 78.5,65C 77.9558,64.2828 77.2891,63.7828 76.5,63.5C 74.5646,59.2934 71.8979,55.6267 68.5,52.5C 68.6716,51.5084 68.3382,50.8417 67.5,50.5C 66.5,47.5 64.5,45.5 61.5,44.5C 62.8333,42.8333 64.1667,41.1667 65.5,39.5C 70.8394,38.8249 74.8394,36.1582 77.5,31.5C 86.054,27.6399 94.554,23.6399 103,19.5C 103.232,20.7375 103.732,21.7375 104.5,22.5 Z"/></g>
<g><path style="opacity:1" fill="#7e2587" d="M 121.5,13.5 C 117.227,16.8774 112.227,18.7108 106.5,19C 105.464,20.7755 105.464,22.6089 106.5,24.5C 105.5,24.1667 104.833,23.5 104.5,22.5C 104.366,20.7085 104.699,19.0418 105.5,17.5C 108.461,17.5358 110.794,16.5358 112.5,14.5C 112.833,14.5 113.167,14.5 113.5,14.5C 116.167,14.1667 118.833,13.8333 121.5,13.5 Z"/></g>
<g><path style="opacity:1" fill="#8475ad" d="M 231.5,20.5 C 233.728,20.7769 235.395,21.7769 236.5,23.5C 234.152,23.4077 232.486,22.4077 231.5,20.5 Z"/></g>
<g><path style="opacity:1" fill="#533985" d="M 105.5,17.5 C 104.699,19.0418 104.366,20.7085 104.5,22.5C 103.732,21.7375 103.232,20.7375 103,19.5C 94.554,23.6399 86.054,27.6399 77.5,31.5C 77.8333,30.8333 78.1667,30.1667 78.5,29.5C 84.19,25.9883 90.19,22.9883 96.5,20.5C 99.4507,19.3061 102.451,18.3061 105.5,17.5 Z"/></g>
<g><path style="opacity:1" fill="#4c3086" d="M 216.5,16.5 C 218.806,16.9926 221.139,17.3259 223.5,17.5C 226.255,18.3438 228.921,19.3438 231.5,20.5C 232.486,22.4077 234.152,23.4077 236.5,23.5C 237.609,23.5569 238.609,23.8902 239.5,24.5C 239.833,25.1667 240.167,25.8333 240.5,26.5C 236.833,24.8333 235.833,25.8333 237.5,29.5C 236.053,28.3778 235.053,26.8778 234.5,25C 228.057,22.7527 222.057,19.9194 216.5,16.5 Z"/></g>
<g><path style="opacity:1" fill="#6b579b" d="M 239.5,24.5 C 241.853,25.3403 243.853,26.6736 245.5,28.5C 243.447,28.5979 241.78,27.9313 240.5,26.5C 240.167,25.8333 239.833,25.1667 239.5,24.5 Z"/></g>
<g><path style="opacity:1" fill="#2a184b" d="M 240.5,26.5 C 241.78,27.9313 243.447,28.5979 245.5,28.5C 247.373,31.4488 250.039,33.4488 253.5,34.5C 255.243,37.5577 257.91,39.5577 261.5,40.5C 263.686,42.6339 266.019,44.8005 268.5,47C 269.745,47.7914 271.078,48.2914 272.5,48.5C 273.817,52.4301 276.484,55.0968 280.5,56.5C 280.611,60.0804 282.277,62.747 285.5,64.5C 292.014,72.8777 298.014,81.5443 303.5,90.5C 303.5,91.5 303.5,92.5 303.5,93.5C 301.876,93.3601 300.71,94.0267 300,95.5C 299.728,102.259 298.061,108.593 295,114.5C 293.978,121.23 292.978,127.897 292,134.5C 300.542,145.145 308.209,156.478 315,168.5C 316.271,169.883 317.771,170.883 319.5,171.5C 319.5,176.167 319.5,180.833 319.5,185.5C 319.5,188.5 319.5,191.5 319.5,194.5C 318.833,196.5 318.167,198.5 317.5,200.5C 318.226,196.74 316.893,194.073 313.5,192.5C 311.23,187.616 308.23,183.283 304.5,179.5C 302.438,175.516 300.271,171.516 298,167.5C 292.1,160.046 286.433,152.379 281,144.5C 281.44,136.82 282.273,129.154 283.5,121.5C 283.5,120.833 283.5,120.167 283.5,119.5C 285.218,115.902 286.384,111.902 287,107.5C 287.667,104.5 287.667,101.5 287,98.5C 283.512,93.9981 280.012,89.6648 276.5,85.5C 273.767,81.1239 271.101,76.7906 268.5,72.5C 266.125,69.4432 264.125,66.1098 262.5,62.5C 261.206,60.3712 259.54,58.7045 257.5,57.5C 257.573,55.9731 256.906,54.9731 255.5,54.5C 254.155,52.3032 252.989,49.9698 252,47.5C 248.481,43.0968 244.981,38.7634 241.5,34.5C 240.136,32.8089 238.803,31.1423 237.5,29.5C 235.833,25.8333 236.833,24.8333 240.5,26.5 Z"/></g>
<g><path style="opacity:1" fill="#71207a" d="M 174.5,36.5 C 172.855,35.5213 171.521,34.188 170.5,32.5C 162.862,31.5025 155.196,31.1692 147.5,31.5C 155.277,29.9124 163.277,29.2457 171.5,29.5C 172.043,32.0384 173.043,34.3718 174.5,36.5 Z"/></g>
<g><path style="opacity:1" fill="#531c63" d="M 107.5,26.5 C 109.634,27.7035 110.968,29.5368 111.5,32C 116.823,32.4994 122.156,32.666 127.5,32.5C 122.66,33.5622 117.66,34.0622 112.5,34C 110.02,32.0937 108.353,29.5937 107.5,26.5 Z"/></g>
<g><path style="opacity:0.984" fill="#afa8c5" d="M 247.5,28.5 C 248.873,28.3433 250.207,28.51 251.5,29C 258.279,34.0455 264.612,39.5455 270.5,45.5C 268.114,44.6267 266.114,43.1267 264.5,41C 263.552,40.5172 262.552,40.3505 261.5,40.5C 261.586,39.5041 261.252,38.6708 260.5,38C 258.409,36.2736 256.076,35.1069 253.5,34.5C 251.576,32.5152 249.576,30.5152 247.5,28.5 Z"/></g>
<g><path style="opacity:1" fill="#a69ec0" d="M 78.5,29.5 C 78.1667,30.1667 77.8333,30.8333 77.5,31.5C 72.8033,33.1775 68.8033,35.8442 65.5,39.5C 64.391,39.5569 63.391,39.8902 62.5,40.5C 66.7143,35.3782 72.0476,31.7116 78.5,29.5 Z"/></g>
<g><path style="opacity:1" fill="#5e488f" d="M 245.5,28.5 C 246.167,28.5 246.833,28.5 247.5,28.5C 249.576,30.5152 251.576,32.5152 253.5,34.5C 250.039,33.4488 247.373,31.4488 245.5,28.5 Z"/></g>
<g><path style="opacity:1" fill="#523c81" d="M 77.5,31.5 C 74.8394,36.1582 70.8394,38.8249 65.5,39.5C 68.8033,35.8442 72.8033,33.1775 77.5,31.5 Z"/></g>
<g><path style="opacity:1" fill="#493279" d="M 253.5,34.5 C 256.076,35.1069 258.409,36.2736 260.5,38C 261.252,38.6708 261.586,39.5041 261.5,40.5C 257.91,39.5577 255.243,37.5577 253.5,34.5 Z"/></g>
<g><path style="opacity:1" fill="#4e2e8f" d="M 241.5,34.5 C 244.981,38.7634 248.481,43.0968 252,47.5C 252.989,49.9698 254.155,52.3032 255.5,54.5C 252.608,50.0988 249.108,46.0988 245,42.5C 243.155,40.1332 241.989,37.4665 241.5,34.5 Z"/></g>
<g><path style="opacity:1" fill="#7f2285" d="M 176.5,38.5 C 180.704,41.8762 183.704,46.2095 185.5,51.5C 181.396,48.0408 178.396,43.7075 176.5,38.5 Z"/></g>
<g><path style="opacity:1" fill="#5a448b" d="M 261.5,40.5 C 262.552,40.3505 263.552,40.5172 264.5,41C 266.114,43.1267 268.114,44.6267 270.5,45.5C 271.167,46.5 271.833,47.5 272.5,48.5C 271.078,48.2914 269.745,47.7914 268.5,47C 266.019,44.8005 263.686,42.6339 261.5,40.5 Z"/></g>
<g><path style="opacity:1" fill="#9588b8" d="M 62.5,40.5 C 60.4309,43.5725 57.7642,45.9059 54.5,47.5C 56.5691,44.4275 59.2358,42.0941 62.5,40.5 Z"/></g>
<g><path style="opacity:1" fill="#603d8b" d="M 65.5,39.5 C 64.1667,41.1667 62.8333,42.8333 61.5,44.5C 56.1184,48.5483 51.4517,53.2149 47.5,58.5C 46.1667,58.8333 44.8333,59.1667 43.5,59.5C 43.8333,58.8333 44.1667,58.1667 44.5,57.5C 46.914,56.0892 48.5806,54.0892 49.5,51.5C 51.7488,50.9202 53.4154,49.5869 54.5,47.5C 57.7642,45.9059 60.4309,43.5725 62.5,40.5C 63.391,39.8902 64.391,39.5569 65.5,39.5 Z"/></g>
<g><path style="opacity:1" fill="#a629a7" d="M 67.5,50.5 C 68.3382,50.8417 68.6716,51.5084 68.5,52.5C 69.6296,57.2946 72.2962,60.9613 76.5,63.5C 76.5106,65.0174 77.1772,66.1841 78.5,67C 98.4942,67.7901 118.494,68.2901 138.5,68.5C 140.033,72.704 142.7,76.0374 146.5,78.5C 146.5,78.8333 146.5,79.1667 146.5,79.5C 146.908,83.5728 148.908,86.5728 152.5,88.5C 152.357,90.2624 152.691,91.9291 153.5,93.5C 142.801,93.8471 132.467,94.8471 122.5,96.5C 109.117,96.2031 95.7841,96.5364 82.5,97.5C 62.1305,97.2378 41.7971,97.9044 21.5,99.5C 21.5,98.5 21.5,97.5 21.5,96.5C 25.062,92.084 27.562,87.084 29,81.5C 32.2356,78.7805 34.5689,75.4472 36,71.5C 38.3697,68.9614 40.8697,66.6281 43.5,64.5C 48.6555,58.1777 54.3222,52.3444 60.5,47C 61.5,46.3333 62.5,46.3333 63.5,47C 64.7051,48.3756 66.0384,49.5423 67.5,50.5 Z"/></g>
<g><path style="opacity:1" fill="#9b8ebd" d="M 54.5,47.5 C 53.4154,49.5869 51.7488,50.9202 49.5,51.5C 50.5846,49.4131 52.2512,48.0798 54.5,47.5 Z"/></g>
<g><path style="opacity:1" fill="#8a2590" d="M 61.5,44.5 C 64.5,45.5 66.5,47.5 67.5,50.5C 66.0384,49.5423 64.7051,48.3756 63.5,47C 62.5,46.3333 61.5,46.3333 60.5,47C 54.3222,52.3444 48.6555,58.1777 43.5,64.5C 44.0568,61.9501 45.3901,59.9501 47.5,58.5C 51.4517,53.2149 56.1184,48.5483 61.5,44.5 Z"/></g>
<g><path style="opacity:1" fill="#5e4791" d="M 272.5,48.5 C 276.027,50.2716 278.693,52.9383 280.5,56.5C 276.484,55.0968 273.817,52.4301 272.5,48.5 Z"/></g>
<g><path style="opacity:1" fill="#a095bf" d="M 49.5,51.5 C 48.5806,54.0892 46.914,56.0892 44.5,57.5C 45.4194,54.9108 47.086,52.9108 49.5,51.5 Z"/></g>
<g><path style="opacity:1" fill="#812387" d="M 68.5,52.5 C 71.8979,55.6267 74.5646,59.2934 76.5,63.5C 72.2962,60.9613 69.6296,57.2946 68.5,52.5 Z"/></g>
<g><path style="opacity:1" fill="#6d338a" d="M 47.5,58.5 C 45.3901,59.9501 44.0568,61.9501 43.5,64.5C 40.8697,66.6281 38.3697,68.9614 36,71.5C 34.5689,75.4472 32.2356,78.7805 29,81.5C 27.562,87.084 25.062,92.084 21.5,96.5C 21.1667,96.5 20.8333,96.5 20.5,96.5C 20.4326,95.0413 20.7659,93.7079 21.5,92.5C 21.5,91.8333 21.5,91.1667 21.5,90.5C 23.6138,89.216 24.6138,87.216 24.5,84.5C 25.3764,84.6309 26.0431,84.2975 26.5,83.5C 28.6538,79.0099 30.9871,74.6766 33.5,70.5C 36.8444,66.8233 40.1777,63.1566 43.5,59.5C 44.8333,59.1667 46.1667,58.8333 47.5,58.5 Z"/></g>
<g><path style="opacity:1" fill="#a49abe" d="M 43.5,59.5 C 40.1777,63.1566 36.8444,66.8233 33.5,70.5C 35.4558,65.5459 38.7891,61.8792 43.5,59.5 Z"/></g>
<g><path style="opacity:1" fill="#6139ad" d="M 198.5,11.5 C 201.482,11.9629 204.482,12.2962 207.5,12.5C 207.62,13.5862 208.287,14.2528 209.5,14.5C 211.762,15.4669 214.095,16.1336 216.5,16.5C 222.057,19.9194 228.057,22.7527 234.5,25C 235.053,26.8778 236.053,28.3778 237.5,29.5C 238.803,31.1423 240.136,32.8089 241.5,34.5C 241.989,37.4665 243.155,40.1332 245,42.5C 249.108,46.0988 252.608,50.0988 255.5,54.5C 256.906,54.9731 257.573,55.9731 257.5,57.5C 259.948,63.3966 263.615,68.3966 268.5,72.5C 271.101,76.7906 273.767,81.1239 276.5,85.5C 278.742,90.2585 281.242,94.9251 284,99.5C 283.862,106.144 283.695,112.811 283.5,119.5C 283.5,120.167 283.5,120.833 283.5,121.5C 276.491,132.956 276.991,144.289 285,155.5C 292.498,162.817 298.998,170.817 304.5,179.5C 308.23,183.283 311.23,187.616 313.5,192.5C 314.379,194.228 315.046,196.061 315.5,198C 313.857,204.064 312.69,210.231 312,216.5C 307.786,226.785 302.62,236.619 296.5,246C 292.765,248.143 289.432,247.643 286.5,244.5C 279.457,233.716 272.457,223.05 265.5,212.5C 264.985,208.646 263.151,205.646 260,203.5C 259.5,196.842 259.334,190.175 259.5,183.5C 260.81,177.712 261.477,171.712 261.5,165.5C 261.5,164.167 261.5,162.833 261.5,161.5C 264.647,147.213 266.647,132.713 267.5,118C 267.548,114.956 266.548,112.456 264.5,110.5C 262.156,106.64 259.989,102.64 258,98.5C 248.661,87.1395 240.327,75.1395 233,62.5C 220.931,46.2573 209.431,29.5907 198.5,12.5C 198.5,12.1667 198.5,11.8333 198.5,11.5 Z"/></g>
<g><path style="opacity:1" fill="#631d6e" d="M 76.5,63.5 C 77.2891,63.7828 77.9558,64.2828 78.5,65C 93.8347,65.4584 109.168,65.9584 124.5,66.5C 129.551,66.5067 134.217,67.1734 138.5,68.5C 118.494,68.2901 98.4942,67.7901 78.5,67C 77.1772,66.1841 76.5106,65.0174 76.5,63.5 Z"/></g>
<g><path style="opacity:1" fill="#44287e" d="M 257.5,57.5 C 259.54,58.7045 261.206,60.3712 262.5,62.5C 264.125,66.1098 266.125,69.4432 268.5,72.5C 263.615,68.3966 259.948,63.3966 257.5,57.5 Z"/></g>
<g><path style="opacity:1" fill="#4e397c" d="M 280.5,56.5 C 283.521,58.8544 286.188,61.5211 288.5,64.5C 291.333,69.241 294.666,73.5743 298.5,77.5C 299.424,80.409 300.757,83.0757 302.5,85.5C 303.038,87.1172 303.371,88.7839 303.5,90.5C 298.014,81.5443 292.014,72.8777 285.5,64.5C 282.277,62.747 280.611,60.0804 280.5,56.5 Z"/></g>
<g><path style="opacity:0.988" fill="#b5afc8" d="M 288.5,64.5 C 290.09,64.6282 291.423,65.2949 292.5,66.5C 293.409,69.3632 295.076,71.6965 297.5,73.5C 298.246,74.7362 298.579,76.0695 298.5,77.5C 294.666,73.5743 291.333,69.241 288.5,64.5 Z"/></g>
<g><path style="opacity:1" fill="#ada6c4" d="M 33.5,70.5 C 30.9871,74.6766 28.6538,79.0099 26.5,83.5C 26.0431,84.2975 25.3764,84.6309 24.5,84.5C 25.1616,82.5295 25.8283,80.5295 26.5,78.5C 28.1625,75.1576 30.4958,72.491 33.5,70.5 Z"/></g>
<g><path style="opacity:1" fill="#6c1f76" d="M 138.5,68.5 C 141.502,71.5084 144.168,74.8417 146.5,78.5C 142.7,76.0374 140.033,72.704 138.5,68.5 Z"/></g>
<g><path style="opacity:1" fill="#591c67" d="M 201.5,76.5 C 203.587,77.5846 204.92,79.2512 205.5,81.5C 203.413,80.4154 202.08,78.7488 201.5,76.5 Z"/></g>
<g><path style="opacity:1" fill="#7b2181" d="M 146.5,79.5 C 148.86,82.2185 150.86,85.2185 152.5,88.5C 148.908,86.5728 146.908,83.5728 146.5,79.5 Z"/></g>
<g><path style="opacity:1" fill="#8172ac" d="M 302.5,85.5 C 304.047,86.7682 305.047,88.4348 305.5,90.5C 304.833,90.5 304.167,90.5 303.5,90.5C 303.371,88.7839 303.038,87.1172 302.5,85.5 Z"/></g>
<g><path style="opacity:1" fill="#8371ab" d="M 24.5,84.5 C 24.6138,87.216 23.6138,89.216 21.5,90.5C 21.9121,88.1133 22.9121,86.1133 24.5,84.5 Z"/></g>
<g><path style="opacity:1" fill="#862892" d="M 152.5,88.5 C 153.906,88.9731 154.573,89.9731 154.5,91.5C 154.539,92.5832 154.873,93.5832 155.5,94.5C 144.586,96.2836 133.586,96.9503 122.5,96.5C 132.467,94.8471 142.801,93.8471 153.5,93.5C 152.691,91.9291 152.357,90.2624 152.5,88.5 Z"/></g>
<g><path style="opacity:1" fill="#3f2672" d="M 154.5,91.5 C 155.15,91.8039 155.817,92.1373 156.5,92.5C 160.77,101.015 165.77,109.015 171.5,116.5C 172.635,118.745 173.135,121.078 173,123.5C 172.5,123 172,122.5 171.5,122C 169.5,121.833 167.5,121.667 165.5,121.5C 153.219,123.092 140.885,123.759 128.5,123.5C 125.011,123.863 121.511,124.196 118,124.5C 108.461,122.659 98.9612,121.993 89.5,122.5C 85.171,125.338 81.5044,124.504 78.5,120C 71.6465,118.39 65.4799,119.89 60,124.5C 57.8773,122.328 55.7106,122.161 53.5,124C 43.6586,124.355 33.8253,124.855 24,125.5C 21.5759,125.47 19.2426,125.137 17,124.5C 13.6858,127.115 12.6858,126.115 14,121.5C 15.447,115.983 16.947,110.483 18.5,105C 18.1667,104.5 17.8333,104 17.5,103.5C 16.341,106.348 15.0076,109.015 13.5,111.5C 13.5,110.833 13.5,110.167 13.5,109.5C 13.6643,106.183 14.6643,103.183 16.5,100.5C 17.8333,99.1667 19.1667,97.8333 20.5,96.5C 20.5,97.8333 20.5,99.1667 20.5,100.5C 24.8333,100.5 29.1667,100.5 33.5,100.5C 46.5043,100.667 59.5043,100.5 72.5,100C 73.056,99.6174 73.3893,99.1174 73.5,98.5C 76.5,98.5 79.5,98.5 82.5,98.5C 96.0361,98.8017 109.369,98.135 122.5,96.5C 133.586,96.9503 144.586,96.2836 155.5,94.5C 154.873,93.5832 154.539,92.5832 154.5,91.5 Z"/></g>
<g><path style="opacity:1" fill="#732889" d="M 122.5,96.5 C 109.369,98.135 96.0361,98.8017 82.5,98.5C 82.5,98.1667 82.5,97.8333 82.5,97.5C 95.7841,96.5364 109.117,96.2031 122.5,96.5 Z"/></g>
<g><path style="opacity:1" fill="#7d6bab" d="M 21.5,92.5 C 20.7659,93.7079 20.4326,95.0413 20.5,96.5C 19.1667,97.8333 17.8333,99.1667 16.5,100.5C 17.1225,97.0703 18.7892,94.4037 21.5,92.5 Z"/></g>
<g><path style="opacity:1" fill="#8f2898" d="M 20.5,96.5 C 20.8333,96.5 21.1667,96.5 21.5,96.5C 21.5,97.5 21.5,98.5 21.5,99.5C 41.7971,97.9044 62.1305,97.2378 82.5,97.5C 82.5,97.8333 82.5,98.1667 82.5,98.5C 79.5,98.5 76.5,98.5 73.5,98.5C 59.9895,98.7283 46.6562,99.395 33.5,100.5C 29.1667,100.5 24.8333,100.5 20.5,100.5C 20.5,99.1667 20.5,97.8333 20.5,96.5 Z"/></g>
<g><path style="opacity:1" fill="#7c2283" d="M 215.5,96.5 C 217.773,97.7666 219.773,99.4333 221.5,101.5C 223.775,105.052 225.775,108.718 227.5,112.5C 223.642,110.148 221.142,106.814 220,102.5C 218.227,100.581 216.727,98.5805 215.5,96.5 Z"/></g>
<g><path style="opacity:1" fill="#5e277f" d="M 73.5,98.5 C 73.3893,99.1174 73.056,99.6174 72.5,100C 59.5043,100.5 46.5043,100.667 33.5,100.5C 46.6562,99.395 59.9895,98.7283 73.5,98.5 Z"/></g>
<g><path style="opacity:1" fill="#644e99" d="M 305.5,91.5 C 307.535,94.5762 309.202,97.9096 310.5,101.5C 310.5,101.833 310.5,102.167 310.5,102.5C 309.833,101.833 309.167,101.167 308.5,100.5C 308.011,99.0048 307.345,97.6715 306.5,96.5C 306.371,94.7839 306.038,93.1172 305.5,91.5 Z"/></g>
<g><path style="opacity:1" fill="#533197" d="M 276.5,85.5 C 280.012,89.6648 283.512,93.9981 287,98.5C 287.667,101.5 287.667,104.5 287,107.5C 286.384,111.902 285.218,115.902 283.5,119.5C 283.695,112.811 283.862,106.144 284,99.5C 281.242,94.9251 278.742,90.2585 276.5,85.5 Z"/></g>
<g><path style="opacity:0.996" fill="#9286b6" d="M 310.5,101.5 C 312.25,102.659 313.25,104.326 313.5,106.5C 311.799,105.789 310.799,104.455 310.5,102.5C 310.5,102.167 310.5,101.833 310.5,101.5 Z"/></g>
<g><path style="opacity:1" fill="#362260" d="M 308.5,100.5 C 309.167,101.167 309.833,101.833 310.5,102.5C 310.799,104.455 311.799,105.789 313.5,106.5C 313.5,107.5 313.5,108.5 313.5,109.5C 313.5,109.833 313.5,110.167 313.5,110.5C 311.52,109.152 310.353,107.152 310,104.5C 308.042,111.288 306.208,118.121 304.5,125C 309.474,131.8 314.308,138.634 319,145.5C 318.83,137.473 317.997,129.473 316.5,121.5C 317.5,123.5 318.5,125.5 319.5,127.5C 319.5,129.167 319.5,130.833 319.5,132.5C 319.068,135.877 319.735,138.877 321.5,141.5C 321.5,156.167 321.5,170.833 321.5,185.5C 320.833,185.5 320.167,185.5 319.5,185.5C 319.5,180.833 319.5,176.167 319.5,171.5C 320.38,164.851 320.546,158.184 320,151.5C 319.583,150.244 318.75,149.577 317.5,149.5C 312.553,142.046 307.386,134.713 302,127.5C 301.333,124.833 301.333,122.167 302,119.5C 303.861,114.704 305.194,109.704 306,104.5C 307.085,103.264 307.918,101.931 308.5,100.5 Z"/></g>
<g><path style="opacity:1" fill="#2f1b55" d="M 303.5,90.5 C 304.167,90.5 304.833,90.5 305.5,90.5C 305.5,90.8333 305.5,91.1667 305.5,91.5C 306.038,93.1172 306.371,94.7839 306.5,96.5C 305.778,96.0825 305.278,95.4158 305,94.5C 300.729,106.916 297.729,119.583 296,132.5C 302.344,142.279 308.677,151.945 315,161.5C 316.314,162.313 317.481,163.313 318.5,164.5C 319.984,159.314 319.65,154.314 317.5,149.5C 318.75,149.577 319.583,150.244 320,151.5C 320.546,158.184 320.38,164.851 319.5,171.5C 317.771,170.883 316.271,169.883 315,168.5C 308.209,156.478 300.542,145.145 292,134.5C 292.978,127.897 293.978,121.23 295,114.5C 298.061,108.593 299.728,102.259 300,95.5C 300.71,94.0267 301.876,93.3601 303.5,93.5C 303.5,92.5 303.5,91.5 303.5,90.5 Z"/></g>
<g><path style="opacity:1" fill="#2a1a4c" d="M 313.5,110.5 C 315.106,113.986 316.106,117.653 316.5,121.5C 317.997,129.473 318.83,137.473 319,145.5C 314.308,138.634 309.474,131.8 304.5,125C 306.208,118.121 308.042,111.288 310,104.5C 310.353,107.152 311.52,109.152 313.5,110.5 Z"/></g>
<g><path style="opacity:0.996" fill="#9388b6" d="M 13.5,109.5 C 13.5,110.167 13.5,110.833 13.5,111.5C 11.6804,115.782 10.0137,120.115 8.5,124.5C 8.33788,122.473 8.50454,120.473 9,118.5C 10.0465,115.141 11.5465,112.141 13.5,109.5 Z"/></g>
<g><path style="opacity:0.996" fill="#9489b6" d="M 313.5,109.5 C 316.565,114.321 318.565,119.654 319.5,125.5C 319.5,126.167 319.5,126.833 319.5,127.5C 318.5,125.5 317.5,123.5 316.5,121.5C 316.106,117.653 315.106,113.986 313.5,110.5C 313.5,110.167 313.5,109.833 313.5,109.5 Z"/></g>
<g><path style="opacity:1" fill="#3b236b" d="M 128.5,123.5 C 126.095,124.768 123.428,125.435 120.5,125.5C 120.5,127.167 120.5,128.833 120.5,130.5C 140.879,130.19 161.213,130.523 181.5,131.5C 182.167,131.5 182.5,131.833 182.5,132.5C 155.093,132.824 127.759,132.491 100.5,131.5C 70.0045,130.502 39.3379,130.169 8.5,130.5C 8.5,128.833 8.5,127.167 8.5,125.5C 8.5,125.167 8.5,124.833 8.5,124.5C 10.0137,120.115 11.6804,115.782 13.5,111.5C 15.0076,109.015 16.341,106.348 17.5,103.5C 17.8333,104 18.1667,104.5 18.5,105C 16.947,110.483 15.447,115.983 14,121.5C 12.6858,126.115 13.6858,127.115 17,124.5C 19.2426,125.137 21.5759,125.47 24,125.5C 33.8253,124.855 43.6586,124.355 53.5,124C 55.7106,122.161 57.8773,122.328 60,124.5C 65.4799,119.89 71.6465,118.39 78.5,120C 81.5044,124.504 85.171,125.338 89.5,122.5C 98.9612,121.993 108.461,122.659 118,124.5C 121.511,124.196 125.011,123.863 128.5,123.5 Z"/></g>
<g><path style="opacity:1" fill="#362063" d="M 171.5,116.5 C 173.057,117.466 174.39,118.8 175.5,120.5C 176.246,124.897 178.246,128.564 181.5,131.5C 161.213,130.523 140.879,130.19 120.5,130.5C 120.5,128.833 120.5,127.167 120.5,125.5C 123.428,125.435 126.095,124.768 128.5,123.5C 140.885,123.759 153.219,123.092 165.5,121.5C 167.5,121.667 169.5,121.833 171.5,122C 172,122.5 172.5,123 173,123.5C 173.135,121.078 172.635,118.745 171.5,116.5 Z"/></g>
<g><path style="opacity:1" fill="#482b82" d="M 8.5,130.5 C 39.3379,130.169 70.0045,130.502 100.5,131.5C 70.1593,131.167 39.826,131.5 9.5,132.5C 8.97244,134.336 8.30577,136.003 7.5,137.5C 7.44805,135.097 7.78138,132.764 8.5,130.5 Z"/></g>
<g><path style="opacity:1" fill="#533097" d="M 283.5,121.5 C 282.273,129.154 281.44,136.82 281,144.5C 286.433,152.379 292.1,160.046 298,167.5C 300.271,171.516 302.438,175.516 304.5,179.5C 298.998,170.817 292.498,162.817 285,155.5C 276.991,144.289 276.491,132.956 283.5,121.5 Z"/></g>
<g><path style="opacity:1" fill="#5a35a1" d="M 100.5,131.5 C 127.759,132.491 155.093,132.824 182.5,132.5C 183.906,132.973 184.573,133.973 184.5,135.5C 176.912,134.699 169.245,134.199 161.5,134C 111.168,133.5 60.8344,133.333 10.5,133.5C 8.96832,140.743 8.30166,148.076 8.5,155.5C 16.2428,154.87 23.5762,155.537 30.5,157.5C 22.7921,157.642 15.1254,157.142 7.5,156C 6.38867,149.891 6.38867,143.724 7.5,137.5C 8.30577,136.003 8.97244,134.336 9.5,132.5C 39.826,131.5 70.1593,131.167 100.5,131.5 Z"/></g>
<g><path style="opacity:1" fill="#6139ae" d="M 184.5,135.5 C 183.923,138.55 185.09,140.55 188,141.5C 190.154,144.432 191.654,147.766 192.5,151.5C 194.029,152.763 195.695,153.763 197.5,154.5C 197.5,154.833 197.5,155.167 197.5,155.5C 142.49,154.838 87.8231,155.504 33.5,157.5C 32.8333,157.5 32.1667,157.5 31.5,157.5C 31.1667,157.5 30.8333,157.5 30.5,157.5C 23.5762,155.537 16.2428,154.87 8.5,155.5C 8.30166,148.076 8.96832,140.743 10.5,133.5C 60.8344,133.333 111.168,133.5 161.5,134C 169.245,134.199 176.912,134.699 184.5,135.5 Z"/></g>
<g><path style="opacity:1" fill="#2a194b" d="M 306.5,96.5 C 307.345,97.6715 308.011,99.0048 308.5,100.5C 307.918,101.931 307.085,103.264 306,104.5C 305.194,109.704 303.861,114.704 302,119.5C 301.333,122.167 301.333,124.833 302,127.5C 307.386,134.713 312.553,142.046 317.5,149.5C 319.65,154.314 319.984,159.314 318.5,164.5C 317.481,163.313 316.314,162.313 315,161.5C 308.677,151.945 302.344,142.279 296,132.5C 297.729,119.583 300.729,106.916 305,94.5C 305.278,95.4158 305.778,96.0825 306.5,96.5 Z"/></g>
<g><path style="opacity:1" fill="#76699d" d="M 319.5,132.5 C 321.388,134.988 322.055,137.988 321.5,141.5C 319.735,138.877 319.068,135.877 319.5,132.5 Z"/></g>
<g><path style="opacity:1" fill="#502f91" d="M 184.5,135.5 C 190.028,141.026 194.361,147.359 197.5,154.5C 195.695,153.763 194.029,152.763 192.5,151.5C 191.654,147.766 190.154,144.432 188,141.5C 185.09,140.55 183.923,138.55 184.5,135.5 Z"/></g>
<g><path style="opacity:1" fill="#7e72a3" d="M 8.5,125.5 C 8.5,127.167 8.5,128.833 8.5,130.5C 7.78138,132.764 7.44805,135.097 7.5,137.5C 6.83333,138.833 6.16667,140.167 5.5,141.5C 5.46716,137.131 5.80049,132.798 6.5,128.5C 6.93205,127.29 7.59872,126.29 8.5,125.5 Z"/></g>
<g><path style="opacity:1" fill="#922da4" d="M 264.5,110.5 C 266.548,112.456 267.548,114.956 267.5,118C 266.647,132.713 264.647,147.213 261.5,161.5C 259.089,160.483 257.422,158.816 256.5,156.5C 257.885,157.614 259.385,158.614 261,159.5C 262.965,146.062 264.465,132.562 265.5,119C 265.394,116.116 265.061,113.282 264.5,110.5 Z"/></g>
<g><path style="opacity:0.851" fill="#c6c4d1" d="M 6.5,128.5 C 5.80049,132.798 5.46716,137.131 5.5,141.5C 3.51859,154.458 2.85192,167.791 3.5,181.5C 2.71003,180.391 2.21003,179.058 2,177.5C 0.784919,162.201 1.61825,147.035 4.5,132C 4.60826,130.319 5.27493,129.152 6.5,128.5 Z"/></g>
<g><path style="opacity:0.851" fill="#c5c2d0" d="M 319.5,125.5 C 320.151,126.091 320.818,126.757 321.5,127.5C 325.286,143.96 326.453,160.627 325,177.5C 324.79,179.058 324.29,180.391 323.5,181.5C 324.148,167.791 323.481,154.458 321.5,141.5C 322.055,137.988 321.388,134.988 319.5,132.5C 319.5,130.833 319.5,129.167 319.5,127.5C 319.5,126.833 319.5,126.167 319.5,125.5 Z"/></g>
<g><path style="opacity:1" fill="#5e1e6b" d="M 245.5,140.5 C 250.659,144.822 254.326,150.155 256.5,156.5C 255.504,156.586 254.671,156.252 254,155.5C 250.911,150.594 248.077,145.594 245.5,140.5 Z"/></g>
<g><path style="opacity:1" fill="#8234ac" d="M 197.5,155.5 C 143.005,156.815 88.3382,157.482 33.5,157.5C 87.8231,155.504 142.49,154.838 197.5,155.5 Z"/></g>
<g><path style="opacity:1" fill="#412776" d="M 7.5,137.5 C 6.38867,143.724 6.38867,149.891 7.5,156C 15.1254,157.142 22.7921,157.642 30.5,157.5C 30.8333,157.5 31.1667,157.5 31.5,157.5C 31.5,157.833 31.5,158.167 31.5,158.5C 22.8333,158.5 14.1667,158.5 5.5,158.5C 5.5,152.833 5.5,147.167 5.5,141.5C 6.16667,140.167 6.83333,138.833 7.5,137.5 Z"/></g>
<g><path style="opacity:1" fill="#a52aa7" d="M 197.5,155.5 C 199.587,156.585 200.92,158.251 201.5,160.5C 203.803,165.107 206.47,169.44 209.5,173.5C 199.688,173.76 189.688,173.76 179.5,173.5C 169.681,172.506 159.681,172.173 149.5,172.5C 123.73,169.816 97.73,168.816 71.5,169.5C 68.7131,168.523 65.7131,168.19 62.5,168.5C 54.6599,167.662 46.6599,166.995 38.5,166.5C 38.3854,163.053 36.7188,160.72 33.5,159.5C 32.8333,159.167 32.1667,158.833 31.5,158.5C 31.5,158.167 31.5,157.833 31.5,157.5C 32.1667,157.5 32.8333,157.5 33.5,157.5C 88.3382,157.482 143.005,156.815 197.5,155.5 Z"/></g>
<g><path style="opacity:1" fill="#8b81a8" d="M 321.5,141.5 C 323.481,154.458 324.148,167.791 323.5,181.5C 323.011,182.995 322.345,184.329 321.5,185.5C 321.5,170.833 321.5,156.167 321.5,141.5 Z"/></g>
<g><path style="opacity:1" fill="#291849" d="M 5.5,158.5 C 14.1667,158.5 22.8333,158.5 31.5,158.5C 32.1667,158.833 32.8333,159.167 33.5,159.5C 34.6808,162.025 36.0142,164.525 37.5,167C 45.7733,168.33 54.1067,168.83 62.5,168.5C 65.7131,168.19 68.7131,168.523 71.5,169.5C 81.9869,170.494 92.6536,170.828 103.5,170.5C 112.44,172.472 121.773,173.139 131.5,172.5C 137.31,173.49 143.31,173.823 149.5,173.5C 159.151,174.199 168.817,174.532 178.5,174.5C 178.833,174.5 179.167,174.5 179.5,174.5C 179.5,174.833 179.5,175.167 179.5,175.5C 180.378,178.056 181.711,180.39 183.5,182.5C 155.175,183.5 126.841,183.833 98.5,183.5C 98.5,183.167 98.5,182.833 98.5,182.5C 68.3379,181.502 38.0046,181.169 7.5,181.5C 7.90442,176.217 7.23775,171.217 5.5,166.5C 5.5,163.833 5.5,161.167 5.5,158.5 Z"/></g>
<g><path style="opacity:1" fill="#877ea3" d="M 5.5,141.5 C 5.5,147.167 5.5,152.833 5.5,158.5C 5.5,161.167 5.5,163.833 5.5,166.5C 5.5,172.833 5.5,179.167 5.5,185.5C 4.65536,184.329 3.98869,182.995 3.5,181.5C 2.85192,167.791 3.51859,154.458 5.5,141.5 Z"/></g>
<g><path style="opacity:1" fill="#76207d" d="M 33.5,159.5 C 36.7188,160.72 38.3854,163.053 38.5,166.5C 46.6599,166.995 54.6599,167.662 62.5,168.5C 54.1067,168.83 45.7733,168.33 37.5,167C 36.0142,164.525 34.6808,162.025 33.5,159.5 Z"/></g>
<g><path style="opacity:1" fill="#7f2286" d="M 71.5,169.5 C 97.73,168.816 123.73,169.816 149.5,172.5C 149.5,172.833 149.5,173.167 149.5,173.5C 143.31,173.823 137.31,173.49 131.5,172.5C 122.266,171.809 112.932,171.142 103.5,170.5C 92.6536,170.828 81.9869,170.494 71.5,169.5 Z"/></g>
<g><path style="opacity:1" fill="#45287e" d="M 261.5,165.5 C 261.477,171.712 260.81,177.712 259.5,183.5C 258.88,177.074 259.547,171.074 261.5,165.5 Z"/></g>
<g><path style="opacity:1" fill="#521c63" d="M 103.5,170.5 C 112.932,171.142 122.266,171.809 131.5,172.5C 121.773,173.139 112.44,172.472 103.5,170.5 Z"/></g>
<g><path style="opacity:1" fill="#87248c" d="M 149.5,173.5 C 149.5,173.167 149.5,172.833 149.5,172.5C 159.681,172.173 169.681,172.506 179.5,173.5C 178.833,173.5 178.5,173.833 178.5,174.5C 168.817,174.532 159.151,174.199 149.5,173.5 Z"/></g>
<g><path style="opacity:1" fill="#812388" d="M 201.5,160.5 C 205.008,164.973 208.342,169.64 211.5,174.5C 211.167,174.5 210.833,174.5 210.5,174.5C 210.5,173.833 210.167,173.5 209.5,173.5C 206.47,169.44 203.803,165.107 201.5,160.5 Z"/></g>
<g><path style="opacity:1" fill="#8e30a9" d="M 178.5,174.5 C 178.5,173.833 178.833,173.5 179.5,173.5C 189.688,173.76 199.688,173.76 209.5,173.5C 210.167,173.5 210.5,173.833 210.5,174.5C 200.348,174.885 190.015,174.885 179.5,174.5C 179.167,174.5 178.833,174.5 178.5,174.5 Z"/></g>
<g><path style="opacity:1" fill="#6238ac" d="M 179.5,175.5 C 179.5,175.167 179.5,174.833 179.5,174.5C 190.015,174.885 200.348,174.885 210.5,174.5C 210.833,174.5 211.167,174.5 211.5,174.5C 213.586,176.885 215.586,179.385 217.5,182C 217.989,183.138 218.322,184.305 218.5,185.5C 207.167,185.5 195.833,185.5 184.5,185.5C 184.5,185.167 184.5,184.833 184.5,184.5C 185.573,183.749 185.74,182.749 185,181.5C 183.618,178.957 181.785,176.957 179.5,175.5 Z"/></g>
<g><path style="opacity:1" fill="#552478" d="M 179.5,175.5 C 181.785,176.957 183.618,178.957 185,181.5C 185.74,182.749 185.573,183.749 184.5,184.5C 155.662,184.831 126.995,184.498 98.5,183.5C 126.841,183.833 155.175,183.5 183.5,182.5C 181.711,180.39 180.378,178.056 179.5,175.5 Z"/></g>
<g><path style="opacity:1" fill="#341950" d="M 5.5,166.5 C 7.23775,171.217 7.90442,176.217 7.5,181.5C 38.0046,181.169 68.3379,181.502 98.5,182.5C 67.8333,182.5 37.1667,182.5 6.5,182.5C 6.5,183.5 6.5,184.5 6.5,185.5C 6.16667,185.5 5.83333,185.5 5.5,185.5C 5.5,179.167 5.5,172.833 5.5,166.5 Z"/></g>
<g><path style="opacity:1" fill="#611f6e" d="M 98.5,182.5 C 98.5,182.833 98.5,183.167 98.5,183.5C 68.5,183.5 38.5,183.5 8.5,183.5C 8.50292,188.527 8.83626,193.527 9.5,198.5C 9.16667,198.5 8.83333,198.5 8.5,198.5C 7.67336,194.193 7.00669,189.86 6.5,185.5C 6.5,184.5 6.5,183.5 6.5,182.5C 37.1667,182.5 67.8333,182.5 98.5,182.5 Z"/></g>
<g><path style="opacity:1" fill="#8f2593" d="M 98.5,183.5 C 126.995,184.498 155.662,184.831 184.5,184.5C 184.5,184.833 184.5,185.167 184.5,185.5C 126.167,185.5 67.8333,185.5 9.5,185.5C 10.0792,193.309 11.4125,200.975 13.5,208.5C 12.8333,208.167 12.1667,207.833 11.5,207.5C 10.8333,204.5 10.1667,201.5 9.5,198.5C 8.83626,193.527 8.50292,188.527 8.5,183.5C 38.5,183.5 68.5,183.5 98.5,183.5 Z"/></g>
<g><path style="opacity:1" fill="#a629a7" d="M 184.5,185.5 C 184.389,186.117 184.056,186.617 183.5,187C 195.181,187.167 206.848,187.667 218.5,188.5C 220.122,190.641 222.122,192.308 224.5,193.5C 224.884,197.555 226.884,200.555 230.5,202.5C 232.727,203.401 233.727,205.067 233.5,207.5C 233.5,208.167 233.5,208.833 233.5,209.5C 223.833,209.5 214.167,209.5 204.5,209.5C 157.832,209.549 111.165,209.882 64.5,210.5C 47.1533,210.5 30.1533,209.833 13.5,208.5C 11.4125,200.975 10.0792,193.309 9.5,185.5C 67.8333,185.5 126.167,185.5 184.5,185.5 Z"/></g>
<g><path style="opacity:1" fill="#922ea4" d="M 184.5,185.5 C 195.833,185.5 207.167,185.5 218.5,185.5C 220.984,187.8 222.984,190.467 224.5,193.5C 222.122,192.308 220.122,190.641 218.5,188.5C 206.848,187.667 195.181,187.167 183.5,187C 184.056,186.617 184.389,186.117 184.5,185.5 Z"/></g>
<g><path style="opacity:1" fill="#6e6095" d="M 319.5,185.5 C 320.167,185.5 320.833,185.5 321.5,185.5C 321.5,188.5 321.5,191.5 321.5,194.5C 320.833,194.5 320.167,194.5 319.5,194.5C 319.5,191.5 319.5,188.5 319.5,185.5 Z"/></g>
<g><path style="opacity:1" fill="#822388" d="M 224.5,193.5 C 227.241,195.975 229.241,198.975 230.5,202.5C 226.884,200.555 224.884,197.555 224.5,193.5 Z"/></g>
<g><path style="opacity:1" fill="#4f2e90" d="M 259.5,183.5 C 259.334,190.175 259.5,196.842 260,203.5C 263.151,205.646 264.985,208.646 265.5,212.5C 262.715,209.45 260.215,206.117 258,202.5C 257.589,195.967 258.089,189.634 259.5,183.5 Z"/></g>
<g><path style="opacity:0.969" fill="#b2adc7" d="M 319.5,194.5 C 320.167,194.5 320.833,194.5 321.5,194.5C 321.342,198.841 320.342,202.841 318.5,206.5C 319.162,202.534 319.495,198.534 319.5,194.5 Z"/></g>
<g><path style="opacity:1" fill="#887aab" d="M 5.5,185.5 C 5.83333,185.5 6.16667,185.5 6.5,185.5C 7.00669,189.86 7.67336,194.193 8.5,198.5C 8.5,199.833 8.5,201.167 8.5,202.5C 6.12571,197.203 5.12571,191.537 5.5,185.5 Z"/></g>
<g><path style="opacity:1" fill="#65468a" d="M 8.5,198.5 C 8.83333,198.5 9.16667,198.5 9.5,198.5C 10.1667,201.5 10.8333,204.5 11.5,207.5C 11.5,208.167 11.5,208.833 11.5,209.5C 10.7972,207.371 9.79722,205.371 8.5,203.5C 8.5,203.167 8.5,202.833 8.5,202.5C 8.5,201.167 8.5,199.833 8.5,198.5 Z"/></g>
<g><path style="opacity:1" fill="#6e5e99" d="M 319.5,194.5 C 319.495,198.534 319.162,202.534 318.5,206.5C 317.833,206.833 317.167,207.167 316.5,207.5C 316.298,205.05 316.631,202.717 317.5,200.5C 318.167,198.5 318.833,196.5 319.5,194.5 Z"/></g>
<g><path style="opacity:1" fill="#897dac" d="M 8.5,203.5 C 9.79722,205.371 10.7972,207.371 11.5,209.5C 12.3382,209.842 12.6716,210.508 12.5,211.5C 13.038,213.117 13.3713,214.784 13.5,216.5C 11.8184,215.173 10.4851,213.506 9.5,211.5C 8.90843,208.873 8.5751,206.206 8.5,203.5 Z"/></g>
<g><path style="opacity:1" fill="#6039ac" d="M 204.5,209.5 C 214.167,209.5 223.833,209.5 233.5,209.5C 238.037,213.209 241.204,217.876 243,223.5C 243.671,224.252 244.504,224.586 245.5,224.5C 252.299,231.983 257.966,240.317 262.5,249.5C 264.292,252.546 265.292,255.879 265.5,259.5C 266.873,259.343 268.207,259.51 269.5,260C 270.237,262.901 271.903,265.068 274.5,266.5C 275.167,267.5 275.833,268.5 276.5,269.5C 276.762,270.978 276.429,272.311 275.5,273.5C 271.822,276.181 268.489,279.181 265.5,282.5C 263.731,283.421 262.065,284.588 260.5,286C 259.5,286.667 258.5,286.667 257.5,286C 254.661,282.662 251.661,279.495 248.5,276.5C 248.23,272.281 246.23,269.281 242.5,267.5C 234.944,255.753 227.111,244.087 219,232.5C 215.417,229.676 213.084,226.01 212,221.5C 209.283,218.29 206.783,214.956 204.5,211.5C 204.5,210.833 204.5,210.167 204.5,209.5 Z"/></g>
<g><path style="opacity:1" fill="#671e72" d="M 11.5,207.5 C 12.1667,207.833 12.8333,208.167 13.5,208.5C 30.1533,209.833 47.1533,210.5 64.5,210.5C 111.165,209.882 157.832,209.549 204.5,209.5C 204.5,210.167 204.5,210.833 204.5,211.5C 141.159,211.228 77.8261,211.561 14.5,212.5C 14.1583,211.662 13.4916,211.328 12.5,211.5C 12.6716,210.508 12.3382,209.842 11.5,209.5C 11.5,208.833 11.5,208.167 11.5,207.5 Z"/></g>
<g><path style="opacity:1" fill="#281747" d="M 204.5,211.5 C 206.783,214.956 209.283,218.29 212,221.5C 213.084,226.01 215.417,229.676 219,232.5C 227.111,244.087 234.944,255.753 242.5,267.5C 244.256,270.683 246.256,273.683 248.5,276.5C 250.422,281.224 253.088,285.558 256.5,289.5C 255.476,290.852 254.476,292.185 253.5,293.5C 247.5,295.382 242.167,298.382 237.5,302.5C 236.306,303.272 235.306,304.272 234.5,305.5C 234.167,305.5 233.833,305.5 233.5,305.5C 231.533,305.261 229.699,305.594 228,306.5C 227.781,305.062 227.281,303.729 226.5,302.5C 224.063,300.73 222.063,298.73 220.5,296.5C 214.868,286.865 208.535,277.865 201.5,269.5C 200.925,267.589 199.925,265.922 198.5,264.5C 194.6,257.046 189.933,250.046 184.5,243.5C 183.797,241.284 182.464,239.451 180.5,238C 179.551,237.383 178.718,237.549 178,238.5C 177.524,245.673 177.691,252.84 178.5,260C 178.525,262.929 179.191,265.429 180.5,267.5C 180.555,270.614 181.888,272.948 184.5,274.5C 192.863,286.521 201.196,298.521 209.5,310.5C 210.59,311.857 211.924,312.857 213.5,313.5C 213.167,313.5 212.833,313.5 212.5,313.5C 205.978,314.142 199.978,315.809 194.5,318.5C 191.287,318.19 188.287,318.523 185.5,319.5C 170.833,319.5 156.167,319.5 141.5,319.5C 138.375,318.521 135.042,318.187 131.5,318.5C 131.5,317.833 131.5,317.167 131.5,316.5C 124.939,314.916 118.273,313.249 111.5,311.5C 106.085,308.731 100.418,306.731 94.5,305.5C 87.6188,301.249 80.6188,297.082 73.5,293C 69.2506,288.914 64.5839,285.414 59.5,282.5C 58.6466,279.482 56.6466,277.649 53.5,277C 51.0705,272.9 47.9038,269.4 44,266.5C 37.2124,257.902 30.7124,249.236 24.5,240.5C 22.8875,234.608 20.2209,229.275 16.5,224.5C 16.2182,220.426 15.5515,216.426 14.5,212.5C 77.8261,211.561 141.159,211.228 204.5,211.5 Z"/></g>
<g><path style="opacity:1" fill="#4d2d8a" d="M 233.5,207.5 C 235.744,210.228 238.244,212.895 241,215.5C 242.727,218.391 244.227,221.391 245.5,224.5C 244.504,224.586 243.671,224.252 243,223.5C 241.204,217.876 238.037,213.209 233.5,209.5C 233.5,208.833 233.5,208.167 233.5,207.5 Z"/></g>
<g><path style="opacity:1" fill="#45306f" d="M 12.5,211.5 C 13.4916,211.328 14.1583,211.662 14.5,212.5C 15.5515,216.426 16.2182,220.426 16.5,224.5C 15.5084,224.672 14.8417,224.338 14.5,223.5C 13.7814,221.236 13.448,218.903 13.5,216.5C 13.3713,214.784 13.038,213.117 12.5,211.5 Z"/></g>
<g><path style="opacity:1" fill="#7d6fa5" d="M 316.5,209.5 C 316.244,212.598 315.578,215.598 314.5,218.5C 314.167,218.5 313.833,218.5 313.5,218.5C 313.138,214.919 314.138,211.919 316.5,209.5 Z"/></g>
<g><path style="opacity:0.996" fill="#b9b4cb" d="M 9.5,211.5 C 10.4851,213.506 11.8184,215.173 13.5,216.5C 13.448,218.903 13.7814,221.236 14.5,223.5C 13.0013,220.953 11.5013,218.286 10,215.5C 9.50999,214.207 9.34332,212.873 9.5,211.5 Z"/></g>
<g><path style="opacity:0.992" fill="#a8a0c2" d="M 313.5,218.5 C 313.833,218.5 314.167,218.5 314.5,218.5C 314.657,219.873 314.49,221.207 314,222.5C 312.918,224.618 311.751,226.618 310.5,228.5C 310.583,224.824 311.583,221.491 313.5,218.5 Z"/></g>
<g><path style="opacity:1" fill="#5b448f" d="M 16.5,224.5 C 20.2209,229.275 22.8875,234.608 24.5,240.5C 23.5416,240.047 22.7083,239.381 22,238.5C 19.8581,233.911 18.0248,229.244 16.5,224.5 Z"/></g>
<g><path style="opacity:1" fill="#52358d" d="M 313.5,192.5 C 316.893,194.073 318.226,196.74 317.5,200.5C 316.631,202.717 316.298,205.05 316.5,207.5C 316.5,208.167 316.5,208.833 316.5,209.5C 314.138,211.919 313.138,214.919 313.5,218.5C 311.583,221.491 310.583,224.824 310.5,228.5C 308.277,231.144 306.611,234.144 305.5,237.5C 304.503,237.47 303.836,237.97 303.5,239C 302.363,242.286 301.03,245.452 299.5,248.5C 298.833,248.833 298.167,249.167 297.5,249.5C 296.21,250.058 295.377,251.058 295,252.5C 293.989,251.663 292.822,251.33 291.5,251.5C 289.453,249.45 287.786,247.117 286.5,244.5C 289.432,247.643 292.765,248.143 296.5,246C 302.62,236.619 307.786,226.785 312,216.5C 312.69,210.231 313.857,204.064 315.5,198C 315.046,196.061 314.379,194.228 313.5,192.5 Z"/></g>
<g><path style="opacity:1" fill="#611d6e" d="M 184.5,243.5 C 183.833,243.167 183.167,242.833 182.5,242.5C 181.878,241.373 181.045,240.373 180,239.5C 179.503,242.146 179.336,244.813 179.5,247.5C 179.833,254.167 180.167,260.833 180.5,267.5C 179.191,265.429 178.525,262.929 178.5,260C 177.691,252.84 177.524,245.673 178,238.5C 178.718,237.549 179.551,237.383 180.5,238C 182.464,239.451 183.797,241.284 184.5,243.5 Z"/></g>
<g><path style="opacity:1" fill="#a429a4" d="M 182.5,242.5 C 182.892,244.179 183.392,245.846 184,247.5C 188.364,253.559 193.198,259.226 198.5,264.5C 199.925,265.922 200.925,267.589 201.5,269.5C 206.139,279.811 212.473,288.811 220.5,296.5C 220.886,298.937 222.053,300.937 224,302.5C 224.84,305.318 224.006,307.484 221.5,309C 217.56,310.015 213.56,310.515 209.5,310.5C 201.196,298.521 192.863,286.521 184.5,274.5C 183.69,272.202 182.856,269.868 182,267.5C 181.937,260.588 181.103,253.921 179.5,247.5C 179.336,244.813 179.503,242.146 180,239.5C 181.045,240.373 181.878,241.373 182.5,242.5 Z"/></g>
<g><path style="opacity:1" fill="#802286" d="M 182.5,242.5 C 183.167,242.833 183.833,243.167 184.5,243.5C 189.933,250.046 194.6,257.046 198.5,264.5C 193.198,259.226 188.364,253.559 184,247.5C 183.392,245.846 182.892,244.179 182.5,242.5 Z"/></g>
<g><path style="opacity:0.976" fill="#b0a9c6" d="M 305.5,237.5 C 304.754,242.003 302.754,245.669 299.5,248.5C 301.03,245.452 302.363,242.286 303.5,239C 303.836,237.97 304.503,237.47 305.5,237.5 Z"/></g>
<g><path style="opacity:0.976" fill="#b6b0c9" d="M 25.5,245.5 C 28.8152,248.125 31.1486,251.458 32.5,255.5C 28.563,253.239 26.2297,249.906 25.5,245.5 Z"/></g>
<g><path style="opacity:1" fill="#563f86" d="M 297.5,249.5 C 297.25,251.674 296.25,253.341 294.5,254.5C 293.833,254.833 293.167,255.167 292.5,255.5C 292.567,254.041 292.234,252.708 291.5,251.5C 292.822,251.33 293.989,251.663 295,252.5C 295.377,251.058 296.21,250.058 297.5,249.5 Z"/></g>
<g><path style="opacity:1" fill="#4f2f8f" d="M 262.5,249.5 C 265.552,252.576 268.386,255.91 271,259.5C 271.989,261.97 273.155,264.303 274.5,266.5C 271.903,265.068 270.237,262.901 269.5,260C 268.207,259.51 266.873,259.343 265.5,259.5C 265.292,255.879 264.292,252.546 262.5,249.5 Z"/></g>
<g><path style="opacity:0.98" fill="#b6b0c9" d="M 32.5,255.5 C 35.7982,259.806 39.1316,264.139 42.5,268.5C 37.6128,265.289 34.2795,260.956 32.5,255.5 Z"/></g>
<g><path style="opacity:1" fill="#8476ab" d="M 294.5,254.5 C 293.101,257.877 291.101,260.877 288.5,263.5C 288.167,263.5 287.833,263.5 287.5,263.5C 288.167,261.833 288.833,260.167 289.5,258.5C 291.5,258.5 292.5,257.5 292.5,255.5C 293.167,255.167 293.833,254.833 294.5,254.5 Z"/></g>
<g><path style="opacity:1" fill="#7b2182" d="M 179.5,247.5 C 181.103,253.921 181.937,260.588 182,267.5C 182.856,269.868 183.69,272.202 184.5,274.5C 181.888,272.948 180.555,270.614 180.5,267.5C 180.167,260.833 179.833,254.167 179.5,247.5 Z"/></g>
<g><path style="opacity:1" fill="#4e3880" d="M 289.5,258.5 C 288.833,260.167 288.167,261.833 287.5,263.5C 286.764,265.229 285.43,266.229 283.5,266.5C 285.016,263.467 287.016,260.8 289.5,258.5 Z"/></g>
<g><path style="opacity:1" fill="#574288" d="M 24.5,240.5 C 30.7124,249.236 37.2124,257.902 44,266.5C 47.9038,269.4 51.0705,272.9 53.5,277C 56.6466,277.649 58.6466,279.482 59.5,282.5C 58.8333,282.5 58.1667,282.5 57.5,282.5C 56.5637,281.026 55.2303,280.026 53.5,279.5C 52.1667,277.5 50.5,275.833 48.5,274.5C 46.8606,272.194 44.8606,270.194 42.5,268.5C 39.1316,264.139 35.7982,259.806 32.5,255.5C 31.1486,251.458 28.8152,248.125 25.5,245.5C 24.962,243.883 24.6287,242.216 24.5,240.5 Z"/></g>
<g><path style="opacity:1" fill="#a59bc0" d="M 287.5,263.5 C 287.833,263.5 288.167,263.5 288.5,263.5C 287.171,266.546 285.171,268.879 282.5,270.5C 282.833,269.833 283.167,269.167 283.5,268.5C 283.5,267.833 283.5,267.167 283.5,266.5C 285.43,266.229 286.764,265.229 287.5,263.5 Z"/></g>
<g><path style="opacity:1" fill="#472981" d="M 242.5,267.5 C 246.23,269.281 248.23,272.281 248.5,276.5C 246.256,273.683 244.256,270.683 242.5,267.5 Z"/></g>
<g><path style="opacity:1" fill="#5d4590" d="M 283.5,268.5 C 283.167,269.167 282.833,269.833 282.5,270.5C 280.527,273.139 278.194,275.473 275.5,277.5C 273.29,277.894 271.957,279.227 271.5,281.5C 267.783,282.57 265.116,284.904 263.5,288.5C 262.833,288.5 262.167,288.5 261.5,288.5C 263.226,286.772 264.559,284.772 265.5,282.5C 268.489,279.181 271.822,276.181 275.5,273.5C 276.429,272.311 276.762,270.978 276.5,269.5C 278.903,269.552 281.236,269.219 283.5,268.5 Z"/></g>
<g><path style="opacity:0.996" fill="#a79ec4" d="M 48.5,274.5 C 50.5,275.833 52.1667,277.5 53.5,279.5C 50.8333,278.833 49.1667,277.167 48.5,274.5 Z"/></g>
<g><path style="opacity:1" fill="#812286" d="M 201.5,269.5 C 208.535,277.865 214.868,286.865 220.5,296.5C 212.473,288.811 206.139,279.811 201.5,269.5 Z"/></g>
<g><path style="opacity:0.992" fill="#aba2c5" d="M 275.5,277.5 C 275.043,279.773 273.71,281.106 271.5,281.5C 271.957,279.227 273.29,277.894 275.5,277.5 Z"/></g>
<g><path style="opacity:1" fill="#574187" d="M 59.5,282.5 C 64.5839,285.414 69.2506,288.914 73.5,293C 80.6188,297.082 87.6188,301.249 94.5,305.5C 93.8333,305.5 93.1667,305.5 92.5,305.5C 90.8333,304.833 89.1667,304.167 87.5,303.5C 87.0269,302.094 86.0269,301.427 84.5,301.5C 76.6395,297.312 69.3062,292.312 62.5,286.5C 61.5,285.167 60.5,283.833 59.5,282.5 Z"/></g>
<g><path style="opacity:1" fill="#8678af" d="M 57.5,282.5 C 58.1667,282.5 58.8333,282.5 59.5,282.5C 60.5,283.833 61.5,285.167 62.5,286.5C 60.2512,285.92 58.5846,284.587 57.5,282.5 Z"/></g>
<g><path style="opacity:1" fill="#482d7d" d="M 248.5,276.5 C 251.661,279.495 254.661,282.662 257.5,286C 258.5,286.667 259.5,286.667 260.5,286C 262.065,284.588 263.731,283.421 265.5,282.5C 264.559,284.772 263.226,286.772 261.5,288.5C 258.911,289.419 256.911,291.086 255.5,293.5C 254.833,293.5 254.167,293.5 253.5,293.5C 254.476,292.185 255.476,290.852 256.5,289.5C 253.088,285.558 250.422,281.224 248.5,276.5 Z"/></g>
<g><path style="opacity:0.992" fill="#b3adc8" d="M 271.5,281.5 C 269.799,284.863 267.133,287.197 263.5,288.5C 265.116,284.904 267.783,282.57 271.5,281.5 Z"/></g>
<g><path style="opacity:0.996" fill="#9387b5" d="M 261.5,288.5 C 260.089,290.914 258.089,292.581 255.5,293.5C 256.911,291.086 258.911,289.419 261.5,288.5 Z"/></g>
<g><path style="opacity:0.957" fill="#bbb6cb" d="M 253.5,293.5 C 254.167,293.5 254.833,293.5 255.5,293.5C 255.372,295.09 254.705,296.423 253.5,297.5C 250.843,299.608 247.843,300.941 244.5,301.5C 244.833,300.833 245.167,300.167 245.5,299.5C 248.416,297.78 251.083,295.78 253.5,293.5 Z"/></g>
<g><path style="opacity:1" fill="#49317b" d="M 253.5,293.5 C 251.083,295.78 248.416,297.78 245.5,299.5C 242.807,300.552 240.14,301.552 237.5,302.5C 242.167,298.382 247.5,295.382 253.5,293.5 Z"/></g>
<g><path style="opacity:1" fill="#988dba" d="M 84.5,301.5 C 86.0269,301.427 87.0269,302.094 87.5,303.5C 85.9731,303.573 84.9731,302.906 84.5,301.5 Z"/></g>
<g><path style="opacity:0.996" fill="#978bb9" d="M 245.5,299.5 C 245.167,300.167 244.833,300.833 244.5,301.5C 241.601,303.734 238.268,305.067 234.5,305.5C 235.306,304.272 236.306,303.272 237.5,302.5C 240.14,301.552 242.807,300.552 245.5,299.5 Z"/></g>
<g><path style="opacity:1" fill="#a69cc1" d="M 92.5,305.5 C 93.1667,305.5 93.8333,305.5 94.5,305.5C 96.1898,307.342 98.1898,308.675 100.5,309.5C 96.9812,309.741 94.3145,308.407 92.5,305.5 Z"/></g>
<g><path style="opacity:1" fill="#513b82" d="M 94.5,305.5 C 100.418,306.731 106.085,308.731 111.5,311.5C 112.167,312.167 112.833,312.833 113.5,313.5C 111.435,313.483 109.435,313.15 107.5,312.5C 105.491,310.935 103.157,309.935 100.5,309.5C 98.1898,308.675 96.1898,307.342 94.5,305.5 Z"/></g>
<g><path style="opacity:1" fill="#9083b5" d="M 230.5,307.5 C 228.887,309.088 226.887,310.088 224.5,310.5C 225.895,308.621 227.895,307.621 230.5,307.5 Z"/></g>
<g><path style="opacity:0.996" fill="#a59cc1" d="M 100.5,309.5 C 103.157,309.935 105.491,310.935 107.5,312.5C 104.509,312.834 102.176,311.834 100.5,309.5 Z"/></g>
<g><path style="opacity:1" fill="#643080" d="M 220.5,296.5 C 222.063,298.73 224.063,300.73 226.5,302.5C 227.281,303.729 227.781,305.062 228,306.5C 229.699,305.594 231.533,305.261 233.5,305.5C 233.027,306.906 232.027,307.573 230.5,307.5C 227.895,307.621 225.895,308.621 224.5,310.5C 223.833,310.5 223.167,310.5 222.5,310.5C 220.033,310.755 218.033,311.755 216.5,313.5C 215.5,313.5 214.5,313.5 213.5,313.5C 211.924,312.857 210.59,311.857 209.5,310.5C 213.56,310.515 217.56,310.015 221.5,309C 224.006,307.484 224.84,305.318 224,302.5C 222.053,300.937 220.886,298.937 220.5,296.5 Z"/></g>
<g><path style="opacity:0.996" fill="#9388b7" d="M 222.5,310.5 C 220.967,312.245 218.967,313.245 216.5,313.5C 218.033,311.755 220.033,310.755 222.5,310.5 Z"/></g>
<g><path style="opacity:1" fill="#3b2864" d="M 111.5,311.5 C 118.273,313.249 124.939,314.916 131.5,316.5C 128.5,316.5 125.5,316.5 122.5,316.5C 119.855,314.69 116.855,313.69 113.5,313.5C 112.833,312.833 112.167,312.167 111.5,311.5 Z"/></g>
<g><path style="opacity:1" fill="#7b6da3" d="M 113.5,313.5 C 116.855,313.69 119.855,314.69 122.5,316.5C 121.833,316.5 121.167,316.5 120.5,316.5C 117.843,316.065 115.509,315.065 113.5,313.5 Z"/></g>
<g><path style="opacity:1" fill="#6b5c94" d="M 212.5,313.5 C 206.887,316.164 200.887,317.831 194.5,318.5C 199.978,315.809 205.978,314.142 212.5,313.5 Z"/></g>
<g><path style="opacity:1" fill="#877baa" d="M 120.5,316.5 C 121.167,316.5 121.833,316.5 122.5,316.5C 125.5,316.5 128.5,316.5 131.5,316.5C 131.5,317.167 131.5,317.833 131.5,318.5C 128.482,318.665 125.482,318.498 122.5,318C 121.584,317.722 120.918,317.222 120.5,316.5 Z"/></g>
<g><path style="opacity:1" fill="#938ab1" d="M 131.5,318.5 C 135.042,318.187 138.375,318.521 141.5,319.5C 144.167,320.167 146.833,320.833 149.5,321.5C 148.167,321.5 146.833,321.5 145.5,321.5C 140.469,321.557 135.802,320.557 131.5,318.5 Z"/></g>
<g><path style="opacity:0.929" fill="#aba4c1" d="M 212.5,313.5 C 212.833,313.5 213.167,313.5 213.5,313.5C 214.5,313.5 215.5,313.5 216.5,313.5C 211.052,316.098 205.385,318.265 199.5,320C 194.845,320.499 190.179,320.666 185.5,320.5C 185.5,320.167 185.5,319.833 185.5,319.5C 188.287,318.523 191.287,318.19 194.5,318.5C 200.887,317.831 206.887,316.164 212.5,313.5 Z"/></g>
<g><path style="opacity:1" fill="#706591" d="M 141.5,319.5 C 156.167,319.5 170.833,319.5 185.5,319.5C 185.5,319.833 185.5,320.167 185.5,320.5C 184.432,321.434 183.099,321.768 181.5,321.5C 170.833,321.5 160.167,321.5 149.5,321.5C 146.833,320.833 144.167,320.167 141.5,319.5 Z"/></g>
<g><path style="opacity:0.925" fill="#c0bccc" d="M 145.5,321.5 C 146.833,321.5 148.167,321.5 149.5,321.5C 160.167,321.5 170.833,321.5 181.5,321.5C 175.872,322.829 169.872,323.496 163.5,323.5C 157.128,323.496 151.128,322.829 145.5,321.5 Z"/></g>
</svg>
