<?xml version="1.0" encoding="UTF-8"?>
<!DOCTYPE svg PUBLIC "-//W3C//DTD SVG 1.1//EN" "http://www.w3.org/Graphics/SVG/1.1/DTD/svg11.dtd">
<svg xmlns="http://www.w3.org/2000/svg" version="1.1" width="100%" viewBox="0 0 340 340" style="shape-rendering:geometricPrecision; text-rendering:geometricPrecision; image-rendering:optimizeQuality; fill-rule:evenodd; clip-rule:evenodd" xmlns:xlink="http://www.w3.org/1999/xlink">
<g><path style="opacity:0.217" fill="#050505" d="M 315.5,-0.5 C 318.167,-0.5 320.833,-0.5 323.5,-0.5C 335.197,4.71573 337.697,13.0491 331,24.5C 297.148,58.3521 263.981,92.8521 231.5,128C 235.177,134.362 237.677,141.195 239,148.5C 245.649,177.096 251.982,205.763 258,234.5C 259.08,236.996 260.414,239.33 262,241.5C 282.045,265.209 301.711,289.209 321,313.5C 326.687,323.593 324.52,331.427 314.5,337C 310.833,337.667 307.167,337.667 303.5,337C 258.14,316.903 212.973,296.403 168,275.5C 119.444,297.036 70.9435,318.369 22.5,339.5C 19.8333,339.5 17.1667,339.5 14.5,339.5C 3.27552,333.983 0.775522,325.65 7,314.5C 40.0717,281.929 72.5717,248.929 104.5,215.5C 94.7555,184.523 86.2555,153.19 79,121.5C 77.0657,117.241 74.7323,113.241 72,109.5C 50.0909,81.3467 28.4242,53.0133 7,24.5C 2.23483,11.6974 6.56816,4.03074 20,1.5C 23.2001,2.20669 26.3668,3.04002 29.5,4C 75.9401,25.6368 122.44,47.1368 169,68.5C 217.722,45.0531 266.556,22.0531 315.5,-0.5 Z M 186.5,174.5 C 186.803,177.588 185.47,179.254 182.5,179.5C 182.369,176.633 183.703,174.967 186.5,174.5 Z"/></g>
<g><path style="opacity:0.875" fill="#797879" d="M 27.5,13.5 C 23.554,12.4731 19.554,12.3064 15.5,13C 14.5939,14.6995 14.2606,16.5328 14.5,18.5C 12.5163,11.6533 15.1829,9.15331 22.5,11C 24.6526,11.0995 26.3192,11.9328 27.5,13.5 Z"/></g>
<g><path style="opacity:0.976" fill="#7c7b7d" d="M 323.5,9.5 C 317.795,9.40285 312.461,10.7362 307.5,13.5C 308.907,11.3861 310.907,9.88611 313.5,9C 317.027,8.1925 320.36,8.35916 323.5,9.5 Z"/></g>
<g><path style="opacity:0.82" fill="#4a4a4b" d="M 325.5,10.5 C 326.152,11.4486 326.486,12.6153 326.5,14C 326.392,15.6811 325.725,16.8478 324.5,17.5C 325.369,15.283 325.702,12.9496 325.5,10.5 Z"/></g>
<g><path style="opacity:0.984" fill="#7d7c7e" d="M 302.5,15.5 C 302.53,16.4972 302.03,17.1639 301,17.5C 297.404,19.519 293.571,20.8524 289.5,21.5C 289.47,20.5028 289.97,19.8361 291,19.5C 294.573,17.4799 298.406,16.1466 302.5,15.5 Z"/></g>
<g><path style="opacity:0.925" fill="#6e6e6f" d="M 39.5,18.5 C 41.674,18.7497 43.3406,19.7497 44.5,21.5C 42.1523,21.4077 40.4856,20.4077 39.5,18.5 Z"/></g>
<g><path style="opacity:1" fill="#0f509e" d="M 293.5,39.5 C 290.433,41.5641 288.1,44.2308 286.5,47.5C 271.884,61.1171 257.884,75.4505 244.5,90.5C 238.509,96.1588 232.842,102.159 227.5,108.5C 218.833,116.168 210.833,124.501 203.5,133.5C 200.567,134.432 198.567,136.432 197.5,139.5C 189.032,147.135 181.032,155.302 173.5,164C 172.423,164.47 171.423,164.303 170.5,163.5C 164.242,157.908 158.242,151.908 152.5,145.5C 150.735,141.757 147.735,140.09 143.5,140.5C 142.908,143.127 142.575,145.794 142.5,148.5C 140.94,150.954 139.94,153.62 139.5,156.5C 137.718,158.023 136.385,160.023 135.5,162.5C 133.149,167.696 131.149,173.029 129.5,178.5C 129.5,178.833 129.5,179.167 129.5,179.5C 125.321,184.33 122.654,189.996 121.5,196.5C 119.824,197.183 119.157,198.517 119.5,200.5C 118.5,200.5 117.5,200.5 116.5,200.5C 114.941,194.853 113.608,189.019 112.5,183C 111.08,179.752 109.747,176.586 108.5,173.5C 107.85,171.565 107.517,169.565 107.5,167.5C 107.662,165.473 107.495,163.473 107,161.5C 105.734,156.901 104.234,152.568 102.5,148.5C 102.634,146.708 102.301,145.042 101.5,143.5C 101.345,139.371 100.512,135.371 99,131.5C 98.6174,130.944 98.1174,130.611 97.5,130.5C 97.0309,124.156 95.6976,117.99 93.5,112C 92.2705,109.401 90.6039,107.234 88.5,105.5C 85.7392,101.65 82.7392,97.9829 79.5,94.5C 76.5992,88.2762 72.5992,82.9428 67.5,78.5C 66.5398,76.5393 65.2065,74.8726 63.5,73.5C 56.1639,62.8435 48.4972,52.5102 40.5,42.5C 40.1667,42.5 39.8333,42.5 39.5,42.5C 36.8681,38.3379 34.3681,34.0046 32,29.5C 30.6413,27.3078 28.8079,25.6411 26.5,24.5C 25.7542,23.2638 25.4208,21.9305 25.5,20.5C 27.5,20.5 29.5,20.5 31.5,20.5C 31.5,21.5 31.5,22.5 31.5,23.5C 32.8333,23.5 34.1667,23.5 35.5,23.5C 37.0897,25.821 39.4231,26.821 42.5,26.5C 43.9025,27.9312 45.5692,29.0978 47.5,30C 48.7932,30.49 50.1266,30.6567 51.5,30.5C 57.2187,33.8411 63.2187,36.8411 69.5,39.5C 73.0836,41.9845 77.0836,43.6512 81.5,44.5C 82.5521,46.256 84.2188,46.9227 86.5,46.5C 86.5,47.5 86.5,48.5 86.5,49.5C 89.2062,49.5751 91.8728,49.9084 94.5,50.5C 95.5137,51.6737 96.847,52.3404 98.5,52.5C 101.486,55.4443 105.153,57.111 109.5,57.5C 109.842,58.3382 110.508,58.6716 111.5,58.5C 112.574,59.8846 113.907,61.0513 115.5,62C 119.661,64.0314 123.994,65.5314 128.5,66.5C 129.167,66.5 129.5,66.8333 129.5,67.5C 131.185,69.8176 133.519,70.8176 136.5,70.5C 138.707,72.5149 141.374,73.5149 144.5,73.5C 147.379,75.9679 150.712,77.6346 154.5,78.5C 156.153,78.6596 157.486,79.3263 158.5,80.5C 161.504,83.012 165.004,84.6786 169,85.5C 173.63,84.29 177.796,82.29 181.5,79.5C 184.316,78.8396 186.983,77.8396 189.5,76.5C 193.733,74.7769 197.733,72.7769 201.5,70.5C 202.671,69.6554 204.005,68.9887 205.5,68.5C 211.636,66.5791 217.302,63.9124 222.5,60.5C 226.087,59.4171 229.587,58.0837 233,56.5C 234.03,56.1639 234.53,55.4972 234.5,54.5C 236.967,54.2451 238.967,53.2451 240.5,51.5C 240.5,51.1667 240.5,50.8333 240.5,50.5C 240.833,50.5 241.167,50.5 241.5,50.5C 248.029,49.6309 253.696,46.9642 258.5,42.5C 262.01,42.1473 265.01,40.8139 267.5,38.5C 270.326,38.0023 272.66,36.6689 274.5,34.5C 278.227,33.0898 282.061,31.7565 286,30.5C 287.03,30.1639 287.53,29.4972 287.5,28.5C 290.491,28.8337 292.824,27.8337 294.5,25.5C 297.491,25.8337 299.824,24.8337 301.5,22.5C 301.842,21.6618 302.508,21.3284 303.5,21.5C 306.035,20.6513 308.535,19.6513 311,18.5C 312.257,18.8499 312.591,19.5165 312,20.5C 305.582,26.7493 299.415,33.0826 293.5,39.5 Z"/></g>
<g><path style="opacity:0.827" fill="#484848" d="M 288.5,21.5 C 285.777,23.5313 282.777,25.198 279.5,26.5C 281.701,23.6814 284.701,22.0147 288.5,21.5 Z"/></g>
<g><path style="opacity:1" fill="#bebec1" d="M 27.5,13.5 C 31.4472,15.1613 35.4472,16.8279 39.5,18.5C 40.4856,20.4077 42.1523,21.4077 44.5,21.5C 50.9874,23.9135 57.3207,26.5802 63.5,29.5C 66.0125,31.9257 69.0125,33.5924 72.5,34.5C 76.2844,35.8919 79.9511,37.5586 83.5,39.5C 85.0326,41.2451 87.0326,42.2451 89.5,42.5C 90.1667,42.5 90.8333,42.5 91.5,42.5C 92.4856,44.4077 94.1523,45.4077 96.5,45.5C 97.5137,46.6737 98.847,47.3404 100.5,47.5C 100.833,47.5 101.167,47.5 101.5,47.5C 102.635,49.2132 104.302,49.8799 106.5,49.5C 113.81,53.1265 121.144,56.7932 128.5,60.5C 130.033,62.2451 132.033,63.2451 134.5,63.5C 138.372,64.1025 141.705,65.7691 144.5,68.5C 143.817,70.1765 142.483,70.8432 140.5,70.5C 139.167,70.5 137.833,70.5 136.5,70.5C 134.824,68.1663 132.491,67.1663 129.5,67.5C 129.5,66.8333 129.167,66.5 128.5,66.5C 124.063,61.5598 118.397,58.8931 111.5,58.5C 110.508,58.6716 109.842,58.3382 109.5,57.5C 106.101,55.4829 102.434,53.8162 98.5,52.5C 96.847,52.3404 95.5137,51.6737 94.5,50.5C 90.9194,48.2122 87.2527,46.2122 83.5,44.5C 75.2382,39.4499 66.5716,34.9499 57.5,31C 55.5273,30.5045 53.5273,30.3379 51.5,30.5C 50.3747,28.8712 49.0414,27.3712 47.5,26C 40.2874,23.7848 33.2874,21.1182 26.5,18C 24.8333,17.3333 23.1667,17.3333 21.5,18C 23.7744,20.3443 24.9411,23.1776 25,26.5C 30.0649,31.635 34.8983,36.9684 39.5,42.5C 39.8333,42.5 40.1667,42.5 40.5,42.5C 40.2978,44.9892 40.7978,47.3225 42,49.5C 47.5812,54.3887 51.9145,60.0554 55,66.5C 56.6943,67.6988 58.1943,69.0322 59.5,70.5C 60.0138,72.5116 60.1805,74.5116 60,76.5C 59.2798,74.9443 58.1132,73.9443 56.5,73.5C 53.8215,71.0878 51.4882,68.4212 49.5,65.5C 49.573,63.9731 48.9063,62.9731 47.5,62.5C 45.984,59.4669 43.984,56.8003 41.5,54.5C 38.4534,51.4552 35.7867,48.1219 33.5,44.5C 33.573,42.9731 32.9063,41.9731 31.5,41.5C 31.573,39.9731 30.9063,38.9731 29.5,38.5C 28.1363,36.8089 26.803,35.1423 25.5,33.5C 25.573,31.9731 24.9063,30.9731 23.5,30.5C 20.1711,26.8253 17.1711,22.8253 14.5,18.5C 14.2606,16.5328 14.5939,14.6995 15.5,13C 19.554,12.3064 23.554,12.4731 27.5,13.5 Z"/></g>
<g><path style="opacity:0.812" fill="#3f3e3f" d="M 316.5,25.5 C 315.833,28.1667 314.167,29.8333 311.5,30.5C 312.833,28.5 314.5,26.8333 316.5,25.5 Z"/></g>
<g><path style="opacity:1" fill="#7e90a7" d="M 51.5,30.5 C 50.1266,30.6567 48.7932,30.49 47.5,30C 45.5692,29.0978 43.9025,27.9312 42.5,26.5C 40.351,25.2638 38.0177,24.2638 35.5,23.5C 34.1667,23.5 32.8333,23.5 31.5,23.5C 31.5,22.5 31.5,21.5 31.5,20.5C 29.5,20.5 27.5,20.5 25.5,20.5C 25.4208,21.9305 25.7542,23.2638 26.5,24.5C 28.8079,25.6411 30.6413,27.3078 32,29.5C 34.3681,34.0046 36.8681,38.3379 39.5,42.5C 34.8983,36.9684 30.0649,31.635 25,26.5C 24.9411,23.1776 23.7744,20.3443 21.5,18C 23.1667,17.3333 24.8333,17.3333 26.5,18C 33.2874,21.1182 40.2874,23.7848 47.5,26C 49.0414,27.3712 50.3747,28.8712 51.5,30.5 Z"/></g>
<g><path style="opacity:1" fill="#4d78a1" d="M 35.5,23.5 C 38.0177,24.2638 40.351,25.2638 42.5,26.5C 39.4231,26.821 37.0897,25.821 35.5,23.5 Z"/></g>
<g><path style="opacity:0.984" fill="#7d7c7d" d="M 278.5,26.5 C 276.368,28.9547 273.701,30.6214 270.5,31.5C 272.582,29.1204 275.249,27.4538 278.5,26.5 Z"/></g>
<g><path style="opacity:0.702" fill="#2f2f2f" d="M 63.5,29.5 C 67.3295,29.9093 70.3295,31.576 72.5,34.5C 69.0125,33.5924 66.0125,31.9257 63.5,29.5 Z"/></g>
<g><path style="opacity:0.894" fill="#5d5c5d" d="M 23.5,30.5 C 24.9063,30.9731 25.573,31.9731 25.5,33.5C 24.0937,33.0269 23.427,32.0269 23.5,30.5 Z"/></g>
<g><path style="opacity:0.843" fill="#4e4d4e" d="M 311.5,30.5 C 311.5,32.5 310.5,33.5 308.5,33.5C 309.167,32.1667 310.167,31.1667 311.5,30.5 Z"/></g>
<g><path style="opacity:0.953" fill="#696869" d="M 268.5,31.5 C 265.129,34.5189 261.129,36.5189 256.5,37.5C 260.158,34.9392 264.158,32.9392 268.5,31.5 Z"/></g>
<g><path style="opacity:0.729" fill="#393839" d="M 308.5,33.5 C 308.167,36.5 306.5,38.1667 303.5,38.5C 305.167,36.8333 306.833,35.1667 308.5,33.5 Z"/></g>
<g><path style="opacity:0.859" fill="#575657" d="M 29.5,38.5 C 30.9063,38.9731 31.573,39.9731 31.5,41.5C 30.0937,41.0269 29.427,40.0269 29.5,38.5 Z"/></g>
<g><path style="opacity:1" fill="#8d98a9" d="M 51.5,30.5 C 53.5273,30.3379 55.5273,30.5045 57.5,31C 66.5716,34.9499 75.2382,39.4499 83.5,44.5C 82.8333,44.5 82.1667,44.5 81.5,44.5C 77.9357,42.081 73.9357,40.4144 69.5,39.5C 63.2187,36.8411 57.2187,33.8411 51.5,30.5 Z"/></g>
<g><path style="opacity:0.831" fill="#515152" d="M 252.5,39.5 C 251.486,40.6737 250.153,41.3404 248.5,41.5C 247.391,41.5569 246.391,41.8902 245.5,42.5C 247.09,40.179 249.423,39.179 252.5,39.5 Z"/></g>
<g><path style="opacity:1" fill="#587ca1" d="M 69.5,39.5 C 73.9357,40.4144 77.9357,42.081 81.5,44.5C 77.0836,43.6512 73.0836,41.9845 69.5,39.5 Z"/></g>
<g><path style="opacity:0.929" fill="#747475" d="M 83.5,39.5 C 85.9674,39.7549 87.9674,40.7549 89.5,42.5C 87.0326,42.2451 85.0326,41.2451 83.5,39.5 Z"/></g>
<g><path style="opacity:0.831" fill="#4e4e4e" d="M 31.5,41.5 C 32.9063,41.9731 33.573,42.9731 33.5,44.5C 32.0937,44.0269 31.427,43.0269 31.5,41.5 Z"/></g>
<g><path style="opacity:0.667" fill="#383839" d="M 303.5,39.5 C 302.766,40.7079 302.433,42.0413 302.5,43.5C 301.041,43.4326 299.708,43.7659 298.5,44.5C 299.833,42.5 301.5,40.8333 303.5,39.5 Z"/></g>
<g><path style="opacity:0.894" fill="#5b5b5c" d="M 91.5,42.5 C 93.674,42.7497 95.3406,43.7497 96.5,45.5C 94.1523,45.4077 92.4856,44.4077 91.5,42.5 Z"/></g>
<g><path style="opacity:0.906" fill="#646464" d="M 96.5,45.5 C 98.3797,45.2291 99.713,45.8958 100.5,47.5C 98.847,47.3404 97.5137,46.6737 96.5,45.5 Z"/></g>
<g><path style="opacity:0.996" fill="#9a989a" d="M 248.5,41.5 C 242.91,45.8211 236.577,48.8211 229.5,50.5C 229.47,49.5028 229.97,48.8361 231,48.5C 235.94,46.5677 240.773,44.5677 245.5,42.5C 246.391,41.8902 247.391,41.5569 248.5,41.5 Z"/></g>
<g><path style="opacity:0.882" fill="#616061" d="M 298.5,44.5 C 298.027,45.9063 297.027,46.573 295.5,46.5C 295.973,45.0937 296.973,44.427 298.5,44.5 Z"/></g>
<g><path style="opacity:0.937" fill="#656566" d="M 101.5,47.5 C 103.403,47.7959 105.07,48.4625 106.5,49.5C 104.302,49.8799 102.635,49.2132 101.5,47.5 Z"/></g>
<g><path style="opacity:0.871" fill="#585859" d="M 295.5,47.5 C 295.027,48.9063 294.027,49.573 292.5,49.5C 292.973,48.0937 293.973,47.427 295.5,47.5 Z"/></g>
<g><path style="opacity:1" fill="#6683a4" d="M 81.5,44.5 C 82.1667,44.5 82.8333,44.5 83.5,44.5C 87.2527,46.2122 90.9194,48.2122 94.5,50.5C 91.8728,49.9084 89.2062,49.5751 86.5,49.5C 86.5,48.5 86.5,47.5 86.5,46.5C 84.2188,46.9227 82.5521,46.256 81.5,44.5 Z"/></g>
<g><path style="opacity:1" fill="#8c98aa" d="M 40.5,42.5 C 48.4972,52.5102 56.1639,62.8435 63.5,73.5C 61.9699,72.7888 60.6366,71.7888 59.5,70.5C 58.1943,69.0322 56.6943,67.6988 55,66.5C 51.9145,60.0554 47.5812,54.3887 42,49.5C 40.7978,47.3225 40.2978,44.9892 40.5,42.5 Z"/></g>
<g><path style="opacity:0.882" fill="#5b5a5b" d="M 292.5,49.5 C 292.573,51.0269 291.906,52.0269 290.5,52.5C 290.427,50.9731 291.094,49.9731 292.5,49.5 Z"/></g>
<g><path style="opacity:0.933" fill="#4d4d4e" d="M 225.5,51.5 C 225.027,52.9063 224.027,53.573 222.5,53.5C 222.973,52.0937 223.973,51.427 225.5,51.5 Z"/></g>
<g><path style="opacity:1" fill="#6982a4" d="M 98.5,52.5 C 102.434,53.8162 106.101,55.4829 109.5,57.5C 105.153,57.111 101.486,55.4443 98.5,52.5 Z"/></g>
<g><path style="opacity:0.827" fill="#464646" d="M 290.5,52.5 C 289.833,55.1667 288.167,56.8333 285.5,57.5C 286.833,55.5 288.5,53.8333 290.5,52.5 Z"/></g>
<g><path style="opacity:0.937" fill="#585858" d="M 215.5,56.5 C 215.5,56.8333 215.5,57.1667 215.5,57.5C 214.609,58.1098 213.609,58.4431 212.5,58.5C 212.973,57.0937 213.973,56.427 215.5,56.5 Z"/></g>
<g><path style="opacity:0.78" fill="#3b3b3c" d="M 41.5,54.5 C 43.984,56.8003 45.984,59.4669 47.5,62.5C 44.5293,60.5574 42.5293,57.8908 41.5,54.5 Z"/></g>
<g><path style="opacity:1" fill="#7c8ea6" d="M 111.5,58.5 C 118.397,58.8931 124.063,61.5598 128.5,66.5C 123.994,65.5314 119.661,64.0314 115.5,62C 113.907,61.0513 112.574,59.8846 111.5,58.5 Z"/></g>
<g><path style="opacity:0.925" fill="#706f71" d="M 128.5,60.5 C 130.967,60.7549 132.967,61.7549 134.5,63.5C 132.033,63.2451 130.033,62.2451 128.5,60.5 Z"/></g>
<g><path style="opacity:0.824" fill="#424243" d="M 282.5,60.5 C 281.833,63.1667 280.167,64.8333 277.5,65.5C 278.833,63.5 280.5,61.8333 282.5,60.5 Z"/></g>
<g><path style="opacity:0.867" fill="#656566" d="M 47.5,62.5 C 48.9063,62.9731 49.573,63.9731 49.5,65.5C 48.0937,65.0269 47.427,64.0269 47.5,62.5 Z"/></g>
<g><path style="opacity:0.973" fill="#767576" d="M 201.5,63.5 C 198.663,65.9668 195.329,67.6334 191.5,68.5C 193.474,67.0941 195.474,65.5941 197.5,64C 198.793,63.51 200.127,63.3433 201.5,63.5 Z"/></g>
<g><path style="opacity:1" fill="#6080a3" d="M 222.5,60.5 C 217.302,63.9124 211.636,66.5791 205.5,68.5C 207.991,66.3246 210.658,64.3246 213.5,62.5C 216.519,61.83 219.519,61.1634 222.5,60.5 Z"/></g>
<g><path style="opacity:1" fill="#9ba1ab" d="M 255.5,81.5 C 255.5,81.1667 255.5,80.8333 255.5,80.5C 266.228,69.7755 276.561,58.7755 286.5,47.5C 289.52,45.4768 291.854,42.8102 293.5,39.5C 302.125,32.3766 310.292,24.71 318,16.5C 318.591,15.5165 318.257,14.8499 317,14.5C 314.042,16.233 310.875,17.233 307.5,17.5C 309.922,15.732 312.588,14.232 315.5,13C 317.473,12.5045 319.473,12.3379 321.5,12.5C 321.649,13.552 321.483,14.552 321,15.5C 298.911,37.4219 277.077,59.4219 255.5,81.5 Z"/></g>
<g><path style="opacity:0.999" fill="#c6c5c8" d="M 172.5,81.5 C 171.448,82.5305 170.114,83.1971 168.5,83.5C 165.129,82.4232 161.796,81.4232 158.5,80.5C 157.486,79.3263 156.153,78.6596 154.5,78.5C 154.586,77.5041 154.252,76.6708 153.5,76C 150.478,75.1477 147.811,73.6477 145.5,71.5C 146.333,71.1667 147.167,70.8333 148,70.5C 150.423,71.6257 152.923,72.6257 155.5,73.5C 157.928,75.0435 160.594,76.0435 163.5,76.5C 166.976,80.3546 170.31,80.3546 173.5,76.5C 175.5,75.8333 177.5,75.1667 179.5,74.5C 183.909,73.7358 187.575,71.7358 190.5,68.5C 190.833,68.5 191.167,68.5 191.5,68.5C 195.329,67.6334 198.663,65.9668 201.5,63.5C 201.833,63.5 202.167,63.5 202.5,63.5C 204.856,62.4249 207.189,62.4249 209.5,63.5C 196.931,69.2861 184.597,75.2861 172.5,81.5 Z"/></g>
<g><path style="opacity:1" fill="#6a84a3" d="M 242.5,71.5 C 243.315,70.1634 244.482,69.1634 246,68.5C 246.667,67.8333 246.667,67.1667 246,66.5C 242.486,68.834 238.652,70.5007 234.5,71.5C 234.47,70.5028 234.97,69.8361 236,69.5C 243.516,66.4759 250.683,62.8092 257.5,58.5C 258.503,61.0353 257.837,63.2019 255.5,65C 253.645,65.4221 251.811,65.9221 250,66.5C 248.163,69.1723 245.663,70.839 242.5,71.5 Z"/></g>
<g><path style="opacity:1" fill="#7389a4" d="M 100.5,63.5 C 98.1305,63.1489 95.7972,62.9822 93.5,63C 99.3392,67.0146 104.673,71.5146 109.5,76.5C 105.379,74.306 101.379,71.9726 97.5,69.5C 96.6872,68.1861 95.6872,67.0195 94.5,66C 87.6573,60.9994 80.6573,56.166 73.5,51.5C 74.723,50.3861 76.0563,50.2195 77.5,51C 81.4048,52.8942 85.0715,55.2275 88.5,58C 93.0848,59.0071 97.0848,60.8404 100.5,63.5 Z"/></g>
<g><path style="opacity:1" fill="#a0a6b0" d="M 227.5,56.5 C 225.833,57.8333 224.167,59.1667 222.5,60.5C 219.519,61.1634 216.519,61.83 213.5,62.5C 210.658,64.3246 207.991,66.3246 205.5,68.5C 204.005,68.9887 202.671,69.6554 201.5,70.5C 196.383,70.4384 192.383,72.4384 189.5,76.5C 186.983,77.8396 184.316,78.8396 181.5,79.5C 178.461,80.01 175.461,80.6766 172.5,81.5C 184.597,75.2861 196.931,69.2861 209.5,63.5C 207.189,62.4249 204.856,62.4249 202.5,63.5C 205.521,61.3227 208.855,59.656 212.5,58.5C 213.609,58.4431 214.609,58.1098 215.5,57.5C 215.423,58.7498 214.756,59.5831 213.5,60C 214.167,60.1667 214.833,60.3333 215.5,60.5C 219.178,58.2941 223.178,56.9607 227.5,56.5 Z"/></g>
<g><path style="opacity:0.863" fill="#59595a" d="M 277.5,65.5 C 273.895,70.774 269.562,75.4407 264.5,79.5C 268.105,74.226 272.438,69.5593 277.5,65.5 Z"/></g>
<g><path style="opacity:1" fill="#c7c6c8" d="M 77.5,94.5 C 77.2056,97.4811 75.8722,98.1478 73.5,96.5C 70.1688,92.2106 66.8355,87.8773 63.5,83.5C 62.9862,81.6336 62.3195,79.8003 61.5,78C 61.8499,76.7425 62.5165,76.4092 63.5,77C 66.457,81.0801 69.2903,85.2467 72,89.5C 73.7038,91.3734 75.5372,93.0401 77.5,94.5 Z"/></g>
<g><path style="opacity:1" fill="#7186a3" d="M 242.5,71.5 C 240.621,74.1148 238.288,76.2814 235.5,78C 230.951,81.0543 226.284,83.8877 221.5,86.5C 224.065,85.0929 225.731,82.9263 226.5,80C 232.332,77.92 237.665,75.0866 242.5,71.5 Z"/></g>
<g><path style="opacity:1" fill="#5076a2" d="M 286.5,47.5 C 276.561,58.7755 266.228,69.7755 255.5,80.5C 251.833,83.8333 248.167,87.1667 244.5,90.5C 257.884,75.4505 271.884,61.1171 286.5,47.5 Z"/></g>
<g><path style="opacity:1" fill="#a3a5ad" d="M 59.5,70.5 C 60.6366,71.7888 61.9699,72.7888 63.5,73.5C 65.2065,74.8726 66.5398,76.5393 67.5,78.5C 71.2603,83.5879 74.5937,88.9212 77.5,94.5C 75.5372,93.0401 73.7038,91.3734 72,89.5C 69.2903,85.2467 66.457,81.0801 63.5,77C 62.5165,76.4092 61.8499,76.7425 61.5,78C 62.3195,79.8003 62.9862,81.6336 63.5,83.5C 61.1703,80.2149 58.8369,76.8815 56.5,73.5C 58.1132,73.9443 59.2798,74.9443 60,76.5C 60.1805,74.5116 60.0138,72.5116 59.5,70.5 Z"/></g>
<g><path style="opacity:1" fill="#6883a4" d="M 67.5,78.5 C 72.5992,82.9428 76.5992,88.2762 79.5,94.5C 78.8333,94.5 78.1667,94.5 77.5,94.5C 74.5937,88.9212 71.2603,83.5879 67.5,78.5 Z"/></g>
<g><path style="opacity:1" fill="#8291a6" d="M 255.5,80.5 C 255.5,80.8333 255.5,81.1667 255.5,81.5C 249.062,88.2662 242.729,94.9329 236.5,101.5C 233.476,103.864 230.476,106.197 227.5,108.5C 232.842,102.159 238.509,96.1588 244.5,90.5C 248.167,87.1667 251.833,83.8333 255.5,80.5 Z"/></g>
<g><path style="opacity:1" fill="#8b9099" d="M 100.5,63.5 C 104.458,64.7243 108.125,66.3909 111.5,68.5C 113.566,70.1991 115.9,71.5324 118.5,72.5C 122.743,75.42 127.41,77.7533 132.5,79.5C 136.557,82.1938 140.89,84.5272 145.5,86.5C 152.05,88.5282 158.05,91.5282 163.5,95.5C 166.77,97.1549 170.104,98.8215 173.5,100.5C 175.692,100.243 177.359,99.2427 178.5,97.5C 181.463,97.0471 183.796,95.5471 185.5,93C 186.793,92.51 188.127,92.3433 189.5,92.5C 191.674,92.2503 193.341,91.2503 194.5,89.5C 195.5,89.5 196.5,89.5 197.5,89.5C 200.616,87.7908 203.949,86.4574 207.5,85.5C 209.419,84.3875 211.086,83.0542 212.5,81.5C 212.833,81.5 213.167,81.5 213.5,81.5C 216.335,79.9183 219.335,78.585 222.5,77.5C 223.548,76.452 224.548,75.452 225.5,74.5C 228.743,74.0857 231.743,73.0857 234.5,71.5C 238.652,70.5007 242.486,68.834 246,66.5C 246.667,67.1667 246.667,67.8333 246,68.5C 244.482,69.1634 243.315,70.1634 242.5,71.5C 237.665,75.0866 232.332,77.92 226.5,80C 225.731,82.9263 224.065,85.0929 221.5,86.5C 218.527,88.1468 215.86,90.1468 213.5,92.5C 210.708,92.6225 208.708,93.9558 207.5,96.5C 201.964,99.4349 196.964,103.102 192.5,107.5C 188.87,107.701 186.203,109.368 184.5,112.5C 181.345,115.581 177.678,117.914 173.5,119.5C 170.4,117.771 167.066,116.438 163.5,115.5C 145.428,102.402 127.428,89.4021 109.5,76.5C 104.673,71.5146 99.3392,67.0146 93.5,63C 95.7972,62.9822 98.1305,63.1489 100.5,63.5 Z"/></g>
<g><path style="opacity:1" fill="#6d85a3" d="M 212.5,81.5 C 211.086,83.0542 209.419,84.3875 207.5,85.5C 203.949,86.4574 200.616,87.7908 197.5,89.5C 201.529,85.1654 206.529,82.4988 212.5,81.5 Z"/></g>
<g><path style="opacity:1" fill="#0e0e0f" d="M 119.5,77.5 C 128.101,81.6732 136.434,86.0065 144.5,90.5C 148.709,93.4622 153.376,95.4622 158.5,96.5C 161.894,98.8697 165.561,100.87 169.5,102.5C 171.916,105.034 174.25,105.034 176.5,102.5C 178.967,102.245 180.967,101.245 182.5,99.5C 184.854,99.162 187.187,98.662 189.5,98C 193.173,95.6883 196.84,93.5217 200.5,91.5C 202.821,90.5233 205.154,89.5233 207.5,88.5C 208.492,88.3284 209.158,88.6618 209.5,89.5C 208.1,90.1001 207.1,91.1001 206.5,92.5C 200.83,95.7243 195.496,99.3909 190.5,103.5C 187.296,104.383 184.629,106.05 182.5,108.5C 181.833,109.833 180.833,110.833 179.5,111.5C 176.814,112.537 174.148,113.537 171.5,114.5C 168.674,112.585 165.674,110.919 162.5,109.5C 147.927,99.2964 133.26,88.9631 118.5,78.5C 118.5,77.8333 118.833,77.5 119.5,77.5 Z"/></g>
<g><path style="opacity:1" fill="#484749" d="M 209.5,89.5 C 209.158,88.6618 208.492,88.3284 207.5,88.5C 211.508,86.0746 215.674,83.7413 220,81.5C 221.608,81.9739 221.774,82.6406 220.5,83.5C 216.896,85.7984 213.23,87.7984 209.5,89.5 Z"/></g>
<g><path style="opacity:1" fill="#7a8ba4" d="M 181.5,79.5 C 177.796,82.29 173.63,84.29 169,85.5C 165.004,84.6786 161.504,83.012 158.5,80.5C 161.796,81.4232 165.129,82.4232 168.5,83.5C 170.114,83.1971 171.448,82.5305 172.5,81.5C 175.461,80.6766 178.461,80.01 181.5,79.5 Z"/></g>
<g><path style="opacity:1" fill="#456ea1" d="M 132.5,79.5 C 137.886,80.1015 142.219,82.4349 145.5,86.5C 140.89,84.5272 136.557,82.1938 132.5,79.5 Z"/></g>
<g><path style="opacity:1" fill="#5478a2" d="M 225.5,74.5 C 224.548,75.452 223.548,76.452 222.5,77.5C 219.335,78.585 216.335,79.9183 213.5,81.5C 214.525,79.7988 216.025,78.4655 218,77.5C 220.535,76.4651 223.035,75.4651 225.5,74.5 Z"/></g>
<g><path style="opacity:0.914" fill="#666567" d="M 163.5,76.5 C 166.833,77.8333 170.167,77.8333 173.5,76.5C 170.31,80.3546 166.976,80.3546 163.5,76.5 Z"/></g>
<g><path style="opacity:1" fill="#565558" d="M 119.5,77.5 C 118.833,77.5 118.5,77.8333 118.5,78.5C 116.176,77.6702 114.176,76.3369 112.5,74.5C 112.833,74.1667 113.167,73.8333 113.5,73.5C 115.565,74.8567 117.565,76.19 119.5,77.5 Z"/></g>
<g><path style="opacity:1" fill="#3e6ca0" d="M 201.5,70.5 C 197.733,72.7769 193.733,74.7769 189.5,76.5C 192.383,72.4384 196.383,70.4384 201.5,70.5 Z"/></g>
<g><path style="opacity:0.984" fill="#7d7d7e" d="M 190.5,68.5 C 187.575,71.7358 183.909,73.7358 179.5,74.5C 179.47,73.5028 179.97,72.8361 181,72.5C 184.111,70.9767 187.277,69.6434 190.5,68.5 Z"/></g>
<g><path style="opacity:1" fill="#9b9fa8" d="M 144.5,68.5 C 149.022,68.5299 152.689,70.1965 155.5,73.5C 152.923,72.6257 150.423,71.6257 148,70.5C 147.167,70.8333 146.333,71.1667 145.5,71.5C 147.811,73.6477 150.478,75.1477 153.5,76C 154.252,76.6708 154.586,77.5041 154.5,78.5C 150.712,77.6346 147.379,75.9679 144.5,73.5C 143.41,72.1429 142.076,71.1429 140.5,70.5C 142.483,70.8432 143.817,70.1765 144.5,68.5 Z"/></g>
<g><path style="opacity:1" fill="#6d87a4" d="M 136.5,70.5 C 137.833,70.5 139.167,70.5 140.5,70.5C 142.076,71.1429 143.41,72.1429 144.5,73.5C 141.374,73.5149 138.707,72.5149 136.5,70.5 Z"/></g>
<g><path style="opacity:1" fill="#5a7ba2" d="M 129.5,67.5 C 132.491,67.1663 134.824,68.1663 136.5,70.5C 133.519,70.8176 131.185,69.8176 129.5,67.5 Z"/></g>
<g><path style="opacity:1" fill="#416ea1" d="M 111.5,68.5 C 114.546,68.7247 116.879,70.058 118.5,72.5C 115.9,71.5324 113.566,70.1991 111.5,68.5 Z"/></g>
<g><path style="opacity:1" fill="#5d5b5e" d="M 144.5,90.5 C 149.624,91.5378 154.291,93.5378 158.5,96.5C 153.376,95.4622 148.709,93.4622 144.5,90.5 Z"/></g>
<g><path style="opacity:1" fill="#5479a2" d="M 194.5,89.5 C 193.341,91.2503 191.674,92.2503 189.5,92.5C 190.486,90.5923 192.152,89.5923 194.5,89.5 Z"/></g>
<g><path style="opacity:1" fill="#585759" d="M 200.5,91.5 C 196.84,93.5217 193.173,95.6883 189.5,98C 187.187,98.662 184.854,99.162 182.5,99.5C 186.793,98.0794 190.793,95.9128 194.5,93C 196.436,92.187 198.436,91.687 200.5,91.5 Z"/></g>
<g><path style="opacity:1" fill="#6e6d6f" d="M 206.5,92.5 C 205.972,93.7206 205.305,94.8873 204.5,96C 199.763,98.4089 195.096,100.909 190.5,103.5C 195.496,99.3909 200.83,95.7243 206.5,92.5 Z"/></g>
<g><path style="opacity:1" fill="#4e73a1" d="M 213.5,92.5 C 211.777,94.2181 209.777,95.5514 207.5,96.5C 208.708,93.9558 210.708,92.6225 213.5,92.5 Z"/></g>
<g><path style="opacity:0.722" fill="#383838" d="M 253.5,91.5 C 252.107,94.0171 250.107,95.6837 247.5,96.5C 248.911,94.086 250.911,92.4194 253.5,91.5 Z"/></g>
<g><path style="opacity:1" fill="#5275a2" d="M 163.5,95.5 C 166.995,96.1108 170.328,97.1108 173.5,98.5C 175.207,98.2716 176.874,97.9383 178.5,97.5C 177.359,99.2427 175.692,100.243 173.5,100.5C 170.104,98.8215 166.77,97.1549 163.5,95.5 Z"/></g>
<g><path style="opacity:0.843" fill="#4c4b4c" d="M 247.5,96.5 C 246.833,99.1667 245.167,100.833 242.5,101.5C 243.833,99.5 245.5,97.8333 247.5,96.5 Z"/></g>
<g><path style="opacity:1" fill="#9fa4ae" d="M 77.5,94.5 C 78.1667,94.5 78.8333,94.5 79.5,94.5C 82.7392,97.9829 85.7392,101.65 88.5,105.5C 88.5,106.833 88.5,108.167 88.5,109.5C 85.2433,105.344 81.7433,101.344 78,97.5C 77.6155,99.1966 77.7822,100.863 78.5,102.5C 76.8437,100.54 75.177,98.5398 73.5,96.5C 75.8722,98.1478 77.2056,97.4811 77.5,94.5 Z"/></g>
<g><path style="opacity:1" fill="#454345" d="M 169.5,102.5 C 171.833,102.5 174.167,102.5 176.5,102.5C 174.25,105.034 171.916,105.034 169.5,102.5 Z"/></g>
<g><path style="opacity:0.902" fill="#676768" d="M 241.5,102.5 C 241.573,104.027 240.906,105.027 239.5,105.5C 239.427,103.973 240.094,102.973 241.5,102.5 Z"/></g>
<g><path style="opacity:0.855" fill="#575658" d="M 79.5,104.5 C 80.9063,104.973 81.573,105.973 81.5,107.5C 80.0937,107.027 79.427,106.027 79.5,104.5 Z"/></g>
<g><path style="opacity:1" fill="#636264" d="M 190.5,103.5 C 189.172,107.17 186.505,108.837 182.5,108.5C 184.629,106.05 187.296,104.383 190.5,103.5 Z"/></g>
<g><path style="opacity:1" fill="#597ba3" d="M 101.5,102.5 C 100.503,102.47 99.8361,102.97 99.5,104C 100.741,105.731 101.741,107.564 102.5,109.5C 99.4182,107.317 97.4182,104.317 96.5,100.5C 98.854,99.1766 100.521,99.8433 101.5,102.5 Z"/></g>
<g><path style="opacity:1" fill="#5577a2" d="M 192.5,107.5 C 189.88,109.162 187.213,110.828 184.5,112.5C 186.203,109.368 188.87,107.701 192.5,107.5 Z"/></g>
<g><path style="opacity:1" fill="#676568" d="M 162.5,109.5 C 165.674,110.919 168.674,112.585 171.5,114.5C 174.148,113.537 176.814,112.537 179.5,111.5C 177.382,113.933 174.716,115.6 171.5,116.5C 168.851,115.197 166.184,113.864 163.5,112.5C 162.614,111.675 162.281,110.675 162.5,109.5 Z"/></g>
<g><path style="opacity:1" fill="#6080a3" d="M 227.5,108.5 C 220.278,117.393 212.278,125.726 203.5,133.5C 210.833,124.501 218.833,116.168 227.5,108.5 Z"/></g>
<g><path style="opacity:1" fill="#607fa3" d="M 163.5,115.5 C 167.066,116.438 170.4,117.771 173.5,119.5C 173.38,120.586 172.713,121.253 171.5,121.5C 168.658,119.675 165.991,117.675 163.5,115.5 Z"/></g>
<g><path style="opacity:1" fill="#6983a4" d="M 115.5,113.5 C 117.903,113.393 119.736,114.393 121,116.5C 121.33,124.354 120.83,132.021 119.5,139.5C 119.666,131.826 119.5,124.159 119,116.5C 117.855,115.364 116.688,114.364 115.5,113.5 Z"/></g>
<g><path style="opacity:1" fill="#9ba1ab" d="M 236.5,101.5 C 225.277,115.059 212.944,127.726 199.5,139.5C 200.34,137.147 201.674,135.147 203.5,133.5C 212.278,125.726 220.278,117.393 227.5,108.5C 230.476,106.197 233.476,103.864 236.5,101.5 Z"/></g>
<g><path style="opacity:1" fill="#bbbbbe" d="M 88.5,109.5 C 89.7942,110.29 90.9609,111.29 92,112.5C 93.0813,118.149 94.0813,123.816 95,129.5C 95.9344,130.858 96.7677,132.192 97.5,133.5C 97.9887,134.995 98.6554,136.329 99.5,137.5C 99.3424,140.902 99.6758,144.236 100.5,147.5C 102.299,159.331 104.799,170.998 108,182.5C 108.796,185.039 108.629,187.372 107.5,189.5C 106.833,189.167 106.167,188.833 105.5,188.5C 105.5,187.5 105.5,186.5 105.5,185.5C 105.598,183.447 104.931,181.78 103.5,180.5C 102.408,174.323 100.741,168.323 98.5,162.5C 98.8893,159.447 98.2227,156.78 96.5,154.5C 95.5318,152.393 95.1984,150.059 95.5,147.5C 95.7406,145.102 95.0739,143.102 93.5,141.5C 93.4828,139.435 93.1495,137.435 92.5,135.5C 91.9927,131.917 90.9927,128.583 89.5,125.5C 88.2407,121.952 87.4074,118.285 87,114.5C 85.1581,112.136 83.3247,109.803 81.5,107.5C 81.573,105.973 80.9063,104.973 79.5,104.5C 79.1667,103.833 78.8333,103.167 78.5,102.5C 77.7822,100.863 77.6155,99.1966 78,97.5C 81.7433,101.344 85.2433,105.344 88.5,109.5 Z"/></g>
<g><path style="opacity:0.827" fill="#3c3c3c" d="M 226.5,118.5 C 226.019,121.397 224.352,123.064 221.5,123.5C 222.882,121.451 224.548,119.785 226.5,118.5 Z"/></g>
<g><path style="opacity:1" fill="#7e90a7" d="M 88.5,105.5 C 90.6039,107.234 92.2705,109.401 93.5,112C 95.6976,117.99 97.0309,124.156 97.5,130.5C 97.5,131.5 97.5,132.5 97.5,133.5C 96.7677,132.192 95.9344,130.858 95,129.5C 94.0813,123.816 93.0813,118.149 92,112.5C 90.9609,111.29 89.7942,110.29 88.5,109.5C 88.5,108.167 88.5,106.833 88.5,105.5 Z"/></g>
<g><path style="opacity:1" fill="#c3c2c5" d="M 323.5,9.5 C 324.167,9.83333 324.833,10.1667 325.5,10.5C 325.702,12.9496 325.369,15.283 324.5,17.5C 321.5,19.8333 318.833,22.5 316.5,25.5C 314.5,26.8333 312.833,28.5 311.5,30.5C 310.167,31.1667 309.167,32.1667 308.5,33.5C 306.833,35.1667 305.167,36.8333 303.5,38.5C 303.5,38.8333 303.5,39.1667 303.5,39.5C 301.5,40.8333 299.833,42.5 298.5,44.5C 296.973,44.427 295.973,45.0937 295.5,46.5C 295.5,46.8333 295.5,47.1667 295.5,47.5C 293.973,47.427 292.973,48.0937 292.5,49.5C 291.094,49.9731 290.427,50.9731 290.5,52.5C 288.5,53.8333 286.833,55.5 285.5,57.5C 284.167,58.1667 283.167,59.1667 282.5,60.5C 280.5,61.8333 278.833,63.5 277.5,65.5C 272.438,69.5593 268.105,74.226 264.5,79.5C 260.102,82.8947 256.436,86.8947 253.5,91.5C 250.911,92.4194 248.911,94.086 247.5,96.5C 245.5,97.8333 243.833,99.5 242.5,101.5C 242.5,102.167 242.167,102.5 241.5,102.5C 240.094,102.973 239.427,103.973 239.5,105.5C 234.785,109.548 230.452,113.881 226.5,118.5C 224.548,119.785 222.882,121.451 221.5,123.5C 220.167,124.167 219.167,125.167 218.5,126.5C 217.094,126.973 216.427,127.973 216.5,129.5C 214.973,129.427 213.973,130.094 213.5,131.5C 212.167,132.167 211.167,133.167 210.5,134.5C 208.937,135.945 207.604,137.611 206.5,139.5C 203.427,141.569 201.094,144.236 199.5,147.5C 193.833,151.167 189.167,155.833 185.5,161.5C 183.833,162.833 182.167,164.167 180.5,165.5C 179.127,165.657 177.793,165.49 176.5,165C 178.415,162.6 180.081,160.1 181.5,157.5C 184.731,155.78 187.564,153.447 190,150.5C 192.356,146.66 194.856,142.994 197.5,139.5C 198.167,139.5 198.833,139.5 199.5,139.5C 212.944,127.726 225.277,115.059 236.5,101.5C 242.729,94.9329 249.062,88.2662 255.5,81.5C 277.077,59.4219 298.911,37.4219 321,15.5C 321.483,14.552 321.649,13.552 321.5,12.5C 319.473,12.3379 317.473,12.5045 315.5,13C 312.588,14.232 309.922,15.732 307.5,17.5C 306.128,18.5116 304.795,19.5116 303.5,20.5C 301.801,20.3398 300.134,20.5065 298.5,21C 292.618,23.6247 286.952,26.6247 281.5,30C 272.63,32.0989 264.964,36.2656 258.5,42.5C 251.467,42.4996 245.8,45.1663 241.5,50.5C 241.167,50.5 240.833,50.5 240.5,50.5C 235.259,50.7888 230.926,52.7888 227.5,56.5C 223.178,56.9607 219.178,58.2941 215.5,60.5C 214.833,60.3333 214.167,60.1667 213.5,60C 214.756,59.5831 215.423,58.7498 215.5,57.5C 215.5,57.1667 215.5,56.8333 215.5,56.5C 218.056,55.9488 220.389,54.9488 222.5,53.5C 224.027,53.573 225.027,52.9063 225.5,51.5C 226.708,50.7659 228.041,50.4326 229.5,50.5C 236.577,48.8211 242.91,45.8211 248.5,41.5C 250.153,41.3404 251.486,40.6737 252.5,39.5C 253.514,38.3263 254.847,37.6596 256.5,37.5C 261.129,36.5189 265.129,34.5189 268.5,31.5C 269.167,31.5 269.833,31.5 270.5,31.5C 273.701,30.6214 276.368,28.9547 278.5,26.5C 278.833,26.5 279.167,26.5 279.5,26.5C 282.777,25.198 285.777,23.5313 288.5,21.5C 288.833,21.5 289.167,21.5 289.5,21.5C 293.571,20.8524 297.404,19.519 301,17.5C 302.03,17.1639 302.53,16.4972 302.5,15.5C 303.635,13.7868 305.302,13.1201 307.5,13.5C 312.461,10.7362 317.795,9.40285 323.5,9.5 Z"/></g>
<g><path style="opacity:1" fill="#426da0" d="M 234.5,54.5 C 234.53,55.4972 234.03,56.1639 233,56.5C 229.587,58.0837 226.087,59.4171 222.5,60.5C 224.167,59.1667 225.833,57.8333 227.5,56.5C 229.965,56.233 232.299,55.5664 234.5,54.5 Z"/></g>
<g><path style="opacity:1" fill="#8f9aa8" d="M 240.5,50.5 C 240.5,50.8333 240.5,51.1667 240.5,51.5C 238.033,51.7549 236.033,52.7549 234.5,54.5C 232.299,55.5664 229.965,56.233 227.5,56.5C 230.926,52.7888 235.259,50.7888 240.5,50.5 Z"/></g>
<g><path style="opacity:1" fill="#5574a2" d="M 240.5,51.5 C 238.967,53.2451 236.967,54.2451 234.5,54.5C 236.033,52.7549 238.033,51.7549 240.5,51.5 Z"/></g>
<g><path style="opacity:1" fill="#8595a9" d="M 258.5,42.5 C 253.696,46.9642 248.029,49.6309 241.5,50.5C 245.8,45.1663 251.467,42.4996 258.5,42.5 Z"/></g>
<g><path style="opacity:1" fill="#4c75a2" d="M 293.5,39.5 C 291.854,42.8102 289.52,45.4768 286.5,47.5C 288.1,44.2308 290.433,41.5641 293.5,39.5 Z"/></g>
<g><path style="opacity:1" fill="#6981a3" d="M 274.5,34.5 C 272.66,36.6689 270.326,38.0023 267.5,38.5C 269.34,36.3311 271.674,34.9977 274.5,34.5 Z"/></g>
<g><path style="opacity:1" fill="#919cab" d="M 303.5,20.5 C 303.5,20.8333 303.5,21.1667 303.5,21.5C 302.508,21.3284 301.842,21.6618 301.5,22.5C 298.654,22.5516 296.32,23.5516 294.5,25.5C 291.759,25.7073 289.426,26.7073 287.5,28.5C 287.53,29.4972 287.03,30.1639 286,30.5C 282.061,31.7565 278.227,33.0898 274.5,34.5C 271.674,34.9977 269.34,36.3311 267.5,38.5C 265.01,40.8139 262.01,42.1473 258.5,42.5C 264.964,36.2656 272.63,32.0989 281.5,30C 286.952,26.6247 292.618,23.6247 298.5,21C 300.134,20.5065 301.801,20.3398 303.5,20.5 Z"/></g>
<g><path style="opacity:1" fill="#5579a2" d="M 294.5,25.5 C 292.824,27.8337 290.491,28.8337 287.5,28.5C 289.426,26.7073 291.759,25.7073 294.5,25.5 Z"/></g>
<g><path style="opacity:1" fill="#5878a2" d="M 301.5,22.5 C 299.824,24.8337 297.491,25.8337 294.5,25.5C 296.32,23.5516 298.654,22.5516 301.5,22.5 Z"/></g>
<g><path style="opacity:1" fill="#6082a3" d="M 293.5,39.5 C 299.415,33.0826 305.582,26.7493 312,20.5C 312.591,19.5165 312.257,18.8499 311,18.5C 308.535,19.6513 306.035,20.6513 303.5,21.5C 303.5,21.1667 303.5,20.8333 303.5,20.5C 304.795,19.5116 306.128,18.5116 307.5,17.5C 310.875,17.233 314.042,16.233 317,14.5C 318.257,14.8499 318.591,15.5165 318,16.5C 310.292,24.71 302.125,32.3766 293.5,39.5 Z"/></g>
<g><path style="opacity:0.882" fill="#5e5d5e" d="M 218.5,126.5 C 218.573,128.027 217.906,129.027 216.5,129.5C 216.427,127.973 217.094,126.973 218.5,126.5 Z"/></g>
<g><path style="opacity:0.91" fill="#565556" d="M 216.5,129.5 C 216.027,130.906 215.027,131.573 213.5,131.5C 213.973,130.094 214.973,129.427 216.5,129.5 Z"/></g>
<g><path style="opacity:0.91" fill="#626162" d="M 89.5,125.5 C 90.9927,128.583 91.9927,131.917 92.5,135.5C 91.8826,135.389 91.3826,135.056 91,134.5C 90.304,131.522 89.804,128.522 89.5,125.5 Z"/></g>
<g><path style="opacity:0.918" fill="#575757" d="M 213.5,131.5 C 213.5,133.5 212.5,134.5 210.5,134.5C 211.167,133.167 212.167,132.167 213.5,131.5 Z"/></g>
<g><path style="opacity:0.937" fill="#656465" d="M 226.5,135.5 C 223.555,134.532 220.555,134.366 217.5,135C 216.251,136.98 214.918,138.813 213.5,140.5C 213.549,137.901 214.549,135.734 216.5,134C 219.5,133.333 222.5,133.333 225.5,134C 226.056,134.383 226.389,134.883 226.5,135.5 Z"/></g>
<g><path style="opacity:1" fill="#4871a1" d="M 108.5,119.5 C 109.117,119.611 109.617,119.944 110,120.5C 111.123,128.797 111.623,137.13 111.5,145.5C 109.773,137.182 108.773,128.516 108.5,119.5 Z"/></g>
<g><path style="opacity:1" fill="#5174a1" d="M 203.5,133.5 C 201.674,135.147 200.34,137.147 199.5,139.5C 198.833,139.5 198.167,139.5 197.5,139.5C 198.567,136.432 200.567,134.432 203.5,133.5 Z"/></g>
<g><path style="opacity:0.824" fill="#3a3a3a" d="M 210.5,134.5 C 210.33,137.204 208.997,138.871 206.5,139.5C 207.604,137.611 208.937,135.945 210.5,134.5 Z"/></g>
<g><path style="opacity:1" fill="#959aa3" d="M 101.5,102.5 C 104.042,104.205 106.708,105.705 109.5,107C 111.085,109.744 113.085,111.911 115.5,113.5C 116.688,114.364 117.855,115.364 119,116.5C 119.5,124.159 119.666,131.826 119.5,139.5C 118.549,140.919 118.216,142.585 118.5,144.5C 116.949,148.9 116.116,153.566 116,158.5C 115.764,160.119 114.931,161.119 113.5,161.5C 113.844,155.902 113.178,150.568 111.5,145.5C 111.623,137.13 111.123,128.797 110,120.5C 109.617,119.944 109.117,119.611 108.5,119.5C 105.986,116.47 103.986,113.137 102.5,109.5C 101.741,107.564 100.741,105.731 99.5,104C 99.8361,102.97 100.503,102.47 101.5,102.5 Z"/></g>
<g><path style="opacity:1" fill="#272728" d="M 116.5,124.5 C 115.732,125.263 115.232,126.263 115,127.5C 114.667,125.167 114.333,122.833 114,120.5C 113.34,118.676 112.173,117.343 110.5,116.5C 110.369,115.761 110.536,115.094 111,114.5C 112.667,115.833 114.333,117.167 116,118.5C 116.495,120.473 116.662,122.473 116.5,124.5 Z"/></g>
<g><path style="opacity:1" fill="#6c6a6d" d="M 110.5,116.5 C 112.173,117.343 113.34,118.676 114,120.5C 114.333,122.833 114.667,125.167 115,127.5C 115.232,126.263 115.732,125.263 116.5,124.5C 116.809,129.267 116.309,133.934 115,138.5C 114.667,138.167 114.333,137.833 114,137.5C 113.667,132.5 113.333,127.5 113,122.5C 112.345,120.372 111.511,118.372 110.5,116.5 Z"/></g>
<g><path style="opacity:1" fill="#486fa1" d="M 97.5,130.5 C 98.1174,130.611 98.6174,130.944 99,131.5C 100.512,135.371 101.345,139.371 101.5,143.5C 100.833,141.5 100.167,139.5 99.5,137.5C 98.6554,136.329 97.9887,134.995 97.5,133.5C 97.5,132.5 97.5,131.5 97.5,130.5 Z"/></g>
<g><path style="opacity:1" fill="#738ba5" d="M 99.5,137.5 C 100.167,139.5 100.833,141.5 101.5,143.5C 102.301,145.042 102.634,146.708 102.5,148.5C 101.833,148.167 101.167,147.833 100.5,147.5C 99.6758,144.236 99.3424,140.902 99.5,137.5 Z"/></g>
<g><path style="opacity:0.882" fill="#4d4d4e" d="M 93.5,141.5 C 95.0739,143.102 95.7406,145.102 95.5,147.5C 93.9261,145.898 93.2594,143.898 93.5,141.5 Z"/></g>
<g><path style="opacity:1" fill="#5177a3" d="M 152.5,145.5 C 150.564,144.741 148.731,143.741 147,142.5C 144.767,143.973 143.267,145.973 142.5,148.5C 142.575,145.794 142.908,143.127 143.5,140.5C 147.735,140.09 150.735,141.757 152.5,145.5 Z"/></g>
<g><path style="opacity:1" fill="#0f509e" d="M 221.5,144.5 C 222.341,146.379 222.675,148.379 222.5,150.5C 222.559,153.69 222.893,156.857 223.5,160C 223.608,161.681 224.275,162.848 225.5,163.5C 226.265,166.67 227.265,169.67 228.5,172.5C 228.992,184.991 231.325,196.991 235.5,208.5C 235.421,212.202 235.754,215.868 236.5,219.5C 236.64,221.03 237.307,222.03 238.5,222.5C 239.868,228.695 241.034,235.028 242,241.5C 242.498,243.544 243.665,244.878 245.5,245.5C 245.833,246.167 246.167,246.833 246.5,247.5C 248.094,250.764 250.427,253.431 253.5,255.5C 257.431,261.104 261.765,266.438 266.5,271.5C 268.057,275.724 270.724,279.057 274.5,281.5C 277.167,284.5 279.833,287.5 282.5,290.5C 284.786,294.077 286.786,297.743 288.5,301.5C 290.823,302.75 293.156,304.083 295.5,305.5C 296.862,308.257 298.362,310.924 300,313.5C 301.039,314.71 302.206,315.71 303.5,316.5C 304.567,318.879 303.567,319.879 300.5,319.5C 295.663,316.163 290.329,313.83 284.5,312.5C 278.425,308.356 271.758,305.356 264.5,303.5C 264.5,302.5 264.5,301.5 264.5,300.5C 257.432,298.341 250.432,296.007 243.5,293.5C 236.576,290.304 229.576,286.97 222.5,283.5C 221.448,281.744 219.781,281.077 217.5,281.5C 216.5,280.833 215.5,280.167 214.5,279.5C 205.715,275.215 196.715,271.215 187.5,267.5C 186.833,267.5 186.167,267.5 185.5,267.5C 180.402,263.419 174.569,260.752 168,259.5C 160.393,261.23 153.227,263.897 146.5,267.5C 141.205,268.814 136.538,271.148 132.5,274.5C 130.938,274.733 129.605,275.4 128.5,276.5C 123.074,278.101 117.74,279.934 112.5,282C 106.162,285.955 99.4948,289.122 92.5,291.5C 81.8228,294.851 71.8228,299.517 62.5,305.5C 60.712,305.215 59.0453,305.548 57.5,306.5C 53.8042,308.841 50.1376,310.841 46.5,312.5C 43.1889,312.307 40.5223,313.307 38.5,315.5C 36.9382,315.733 35.6049,316.4 34.5,317.5C 31.2589,317.878 28.2589,318.878 25.5,320.5C 24.537,320.03 24.537,319.363 25.5,318.5C 25.5,318.167 25.5,317.833 25.5,317.5C 26.2389,317.631 26.9056,317.464 27.5,317C 29.7676,314.582 31.7676,312.082 33.5,309.5C 37.1947,307.805 39.8613,305.139 41.5,301.5C 41.8333,301.5 42.1667,301.5 42.5,301.5C 45.4839,299.91 47.8172,297.577 49.5,294.5C 52.8536,292.057 55.5203,289.057 57.5,285.5C 60.1667,284.833 61.8333,283.167 62.5,280.5C 66.1408,277.195 69.8075,273.862 73.5,270.5C 76.1894,269.811 77.8561,268.144 78.5,265.5C 78.5,265.167 78.5,264.833 78.5,264.5C 82.6061,261.571 86.6061,258.404 90.5,255C 92.0515,253.288 93.3849,251.455 94.5,249.5C 94.5,248.833 94.8333,248.5 95.5,248.5C 97.0174,248.489 98.1841,247.823 99,246.5C 102.01,242.988 104.843,239.321 107.5,235.5C 108.239,235.631 108.906,235.464 109.5,235C 118.171,225.33 127.171,215.996 136.5,207C 140.785,205.553 143.452,202.719 144.5,198.5C 145.167,198.167 145.833,197.833 146.5,197.5C 147.239,197.631 147.906,197.464 148.5,197C 152.16,192.34 156.16,188.007 160.5,184C 162.545,183.51 164.545,183.677 166.5,184.5C 171.215,190.548 176.548,195.882 182.5,200.5C 183.754,203.093 185.42,205.427 187.5,207.5C 188.568,208.434 189.901,208.768 191.5,208.5C 192.561,205.136 193.561,201.803 194.5,198.5C 196.515,196.293 197.515,193.626 197.5,190.5C 199.199,187.101 200.866,183.768 202.5,180.5C 203.492,178.544 204.492,176.544 205.5,174.5C 207.419,167.782 210.086,161.449 213.5,155.5C 215.614,154.216 216.614,152.216 216.5,149.5C 216.5,149.167 216.5,148.833 216.5,148.5C 218.48,147.152 219.647,145.152 220,142.5C 220.278,143.416 220.778,144.082 221.5,144.5 Z"/></g>
<g><path style="opacity:0.992" fill="#848485" d="M 226.5,139.5 C 228.554,142.008 229.554,145.008 229.5,148.5C 227.677,145.984 226.677,142.984 226.5,139.5 Z"/></g>
<g><path style="opacity:1" fill="#979fac" d="M 152.5,145.5 C 158.242,151.908 164.242,157.908 170.5,163.5C 171.204,165.344 172.537,165.844 174.5,165C 176.333,162.002 178.666,159.502 181.5,157.5C 180.081,160.1 178.415,162.6 176.5,165C 177.793,165.49 179.127,165.657 180.5,165.5C 179.833,166.5 179.167,167.5 178.5,168.5C 178.167,168.5 177.833,168.5 177.5,168.5C 177.53,167.503 177.03,166.836 176,166.5C 174.211,167.409 172.377,167.576 170.5,167C 162.654,159.654 154.988,152.154 147.5,144.5C 145.014,148.63 142.348,152.63 139.5,156.5C 139.94,153.62 140.94,150.954 142.5,148.5C 143.267,145.973 144.767,143.973 147,142.5C 148.731,143.741 150.564,144.741 152.5,145.5 Z"/></g>
<g><path style="opacity:1" fill="#919ba9" d="M 225.5,153.5 C 226.393,159.946 227.393,166.28 228.5,172.5C 227.265,169.67 226.265,166.67 225.5,163.5C 225.006,158.959 224.006,154.626 222.5,150.5C 222.675,148.379 222.341,146.379 221.5,144.5C 221.785,142.712 221.452,141.045 220.5,139.5C 219.817,139.863 219.15,140.196 218.5,140.5C 219.183,138.824 220.517,138.157 222.5,138.5C 224.272,143.27 225.272,148.27 225.5,153.5 Z"/></g>
<g><path style="opacity:1" fill="#4971a1" d="M 111.5,145.5 C 113.178,150.568 113.844,155.902 113.5,161.5C 111.822,156.432 111.156,151.098 111.5,145.5 Z"/></g>
<g><path style="opacity:1" fill="#7b8da7" d="M 197.5,139.5 C 194.856,142.994 192.356,146.66 190,150.5C 187.564,153.447 184.731,155.78 181.5,157.5C 178.666,159.502 176.333,162.002 174.5,165C 172.537,165.844 171.204,165.344 170.5,163.5C 171.423,164.303 172.423,164.47 173.5,164C 181.032,155.302 189.032,147.135 197.5,139.5 Z"/></g>
<g><path style="opacity:1" fill="#c8c7ca" d="M 226.5,135.5 C 226.5,136.833 226.5,138.167 226.5,139.5C 226.677,142.984 227.677,145.984 229.5,148.5C 229.5,149.167 229.5,149.833 229.5,150.5C 229.833,153.167 230.167,155.833 230.5,158.5C 230.66,160.199 230.494,161.866 230,163.5C 228.849,159.857 227.349,156.523 225.5,153.5C 225.272,148.27 224.272,143.27 222.5,138.5C 220.517,138.157 219.183,138.824 218.5,140.5C 212.68,148.438 208.68,157.271 206.5,167C 203.294,170.574 201.628,174.741 201.5,179.5C 200.325,179.281 199.325,179.614 198.5,180.5C 197.949,183.056 196.949,185.389 195.5,187.5C 194.614,186.675 194.281,185.675 194.5,184.5C 194.833,183.167 195.167,181.833 195.5,180.5C 197.065,178.491 198.065,176.157 198.5,173.5C 198.5,173.167 198.5,172.833 198.5,172.5C 200.213,171.365 200.88,169.698 200.5,167.5C 202.231,166.015 203.231,164.015 203.5,161.5C 204.885,160.426 206.051,159.093 207,157.5C 208.459,154.23 209.626,150.897 210.5,147.5C 210.887,144.794 211.887,142.461 213.5,140.5C 214.918,138.813 216.251,136.98 217.5,135C 220.555,134.366 223.555,134.532 226.5,135.5 Z"/></g>
<g><path style="opacity:1" fill="#5577a3" d="M 216.5,149.5 C 216.614,152.216 215.614,154.216 213.5,155.5C 213.654,153.03 214.654,151.03 216.5,149.5 Z"/></g>
<g><path style="opacity:1" fill="#5c7ea3" d="M 221.5,144.5 C 220.778,144.082 220.278,143.416 220,142.5C 219.647,145.152 218.48,147.152 216.5,148.5C 217.371,145.888 218.037,143.221 218.5,140.5C 219.15,140.196 219.817,139.863 220.5,139.5C 221.452,141.045 221.785,142.712 221.5,144.5 Z"/></g>
<g><path style="opacity:0.855" fill="#4c4b4c" d="M 199.5,147.5 C 195.167,152.5 190.5,157.167 185.5,161.5C 189.167,155.833 193.833,151.167 199.5,147.5 Z"/></g>
<g><path style="opacity:0.98" fill="#8d8c8d" d="M 210.5,147.5 C 209.626,150.897 208.459,154.23 207,157.5C 206.051,159.093 204.885,160.426 203.5,161.5C 205.104,156.419 207.438,151.753 210.5,147.5 Z"/></g>
<g><path style="opacity:0.898" fill="#525152" d="M 96.5,154.5 C 98.2227,156.78 98.8893,159.447 98.5,162.5C 97.2318,160.095 96.5651,157.428 96.5,154.5 Z"/></g>
<g><path style="opacity:0.91" fill="#565657" d="M 229.5,150.5 C 230.725,151.152 231.392,152.319 231.5,154C 232.031,156.817 232.364,159.65 232.5,162.5C 231.833,161.167 231.167,159.833 230.5,158.5C 230.167,155.833 229.833,153.167 229.5,150.5 Z"/></g>
<g><path style="opacity:1" fill="#3b67a1" d="M 222.5,150.5 C 224.006,154.626 225.006,158.959 225.5,163.5C 224.275,162.848 223.608,161.681 223.5,160C 222.893,156.857 222.559,153.69 222.5,150.5 Z"/></g>
<g><path style="opacity:1" fill="#5c7da4" d="M 118.5,144.5 C 118.532,152.445 117.198,160.112 114.5,167.5C 113.534,165.604 113.201,163.604 113.5,161.5C 114.931,161.119 115.764,160.119 116,158.5C 116.116,153.566 116.949,148.9 118.5,144.5 Z"/></g>
<g><path style="opacity:1" fill="#6a84a3" d="M 102.5,148.5 C 104.234,152.568 105.734,156.901 107,161.5C 107.495,163.473 107.662,165.473 107.5,167.5C 106.21,166.942 105.377,165.942 105,164.5C 103.25,159.324 102.417,153.991 102.5,148.5 Z"/></g>
<g><path style="opacity:0.984" fill="#787779" d="M 203.5,161.5 C 203.231,164.015 202.231,166.015 200.5,167.5C 200.621,164.895 201.621,162.895 203.5,161.5 Z"/></g>
<g><path style="opacity:1" fill="#7288a6" d="M 139.5,156.5 C 137.644,161.845 135.477,167.845 133,174.5C 132.051,176.093 130.885,177.426 129.5,178.5C 131.149,173.029 133.149,167.696 135.5,162.5C 136.385,160.023 137.718,158.023 139.5,156.5 Z"/></g>
<g><path style="opacity:0.871" fill="#59595a" d="M 177.5,168.5 C 177.833,168.5 178.167,168.5 178.5,168.5C 177.713,170.104 176.38,170.771 174.5,170.5C 175.29,169.599 176.29,168.932 177.5,168.5 Z"/></g>
<g><path style="opacity:0.976" fill="#7c7b7c" d="M 144.5,159.5 C 144.657,160.873 144.49,162.207 144,163.5C 142.31,167.341 140.477,171.007 138.5,174.5C 139.445,169.024 141.445,164.024 144.5,159.5 Z"/></g>
<g><path style="opacity:0.945" fill="#6a696b" d="M 200.5,167.5 C 200.88,169.698 200.213,171.365 198.5,172.5C 198.12,170.302 198.787,168.635 200.5,167.5 Z"/></g>
<g><path style="opacity:0.839" fill="#4f4e4f" d="M 138.5,174.5 C 138.771,176.38 138.104,177.713 136.5,178.5C 136.66,176.847 137.326,175.514 138.5,174.5 Z"/></g>
<g><path style="opacity:1" fill="#c3c2c5" d="M 170.5,179.5 C 170.738,181.404 171.738,182.738 173.5,183.5C 177.633,187.468 181.633,191.635 185.5,196C 186.448,196.483 187.448,196.649 188.5,196.5C 188.402,194.447 189.069,192.78 190.5,191.5C 191.458,191.047 192.292,190.381 193,189.5C 193.167,189.833 193.333,190.167 193.5,190.5C 192.652,192.409 192.318,194.409 192.5,196.5C 191.25,199.006 190.584,201.673 190.5,204.5C 190.5,204.833 190.5,205.167 190.5,205.5C 189.448,205.649 188.448,205.483 187.5,205C 186.286,202.951 184.62,201.451 182.5,200.5C 178.327,192.32 172.327,185.653 164.5,180.5C 163.054,179.387 161.387,179.22 159.5,180C 155.543,185.64 154.21,185.474 155.5,179.5C 160.461,174.242 165.461,174.242 170.5,179.5 Z"/></g>
<g><path style="opacity:0.98" fill="#828182" d="M 198.5,173.5 C 198.065,176.157 197.065,178.491 195.5,180.5C 195.166,177.509 196.166,175.176 198.5,173.5 Z"/></g>
<g><path style="opacity:1" fill="#4673a1" d="M 205.5,174.5 C 204.492,176.544 203.492,178.544 202.5,180.5C 202.025,177.687 203.025,175.687 205.5,174.5 Z"/></g>
<g><path style="opacity:0.957" fill="#717071" d="M 170.5,179.5 C 172.262,180.262 173.262,181.596 173.5,183.5C 171.738,182.738 170.738,181.404 170.5,179.5 Z"/></g>
<g><path style="opacity:1" fill="#aaabb1" d="M 100.5,147.5 C 101.167,147.833 101.833,148.167 102.5,148.5C 102.417,153.991 103.25,159.324 105,164.5C 105.377,165.942 106.21,166.942 107.5,167.5C 107.517,169.565 107.85,171.565 108.5,173.5C 110.536,181.682 112.203,190.015 113.5,198.5C 112.883,198.389 112.383,198.056 112,197.5C 111.206,194.529 110.539,191.529 110,188.5C 109.598,189.872 109.098,191.205 108.5,192.5C 109.49,196.105 110.156,199.772 110.5,203.5C 108.837,201.562 108.171,199.228 108.5,196.5C 107.781,194.236 107.448,191.903 107.5,189.5C 108.629,187.372 108.796,185.039 108,182.5C 104.799,170.998 102.299,159.331 100.5,147.5 Z"/></g>
<g><path style="opacity:0.816" fill="#4c4c4d" d="M 103.5,180.5 C 104.931,181.78 105.598,183.447 105.5,185.5C 103.744,184.448 103.077,182.781 103.5,180.5 Z"/></g>
<g><path style="opacity:0.969" fill="#79797a" d="M 195.5,180.5 C 195.167,181.833 194.833,183.167 194.5,184.5C 193.833,184.833 193.167,185.167 192.5,185.5C 192.592,183.152 193.592,181.486 195.5,180.5 Z"/></g>
<g><path style="opacity:0.949" fill="#787879" d="M 235.5,178.5 C 237.074,180.102 237.741,182.102 237.5,184.5C 235.926,182.898 235.259,180.898 235.5,178.5 Z"/></g>
<g><path style="opacity:1" fill="#9099ab" d="M 164.5,180.5 C 172.327,185.653 178.327,192.32 182.5,200.5C 176.548,195.882 171.215,190.548 166.5,184.5C 165.01,182.72 163.01,182.054 160.5,182.5C 161.287,180.896 162.62,180.229 164.5,180.5 Z"/></g>
<g><path style="opacity:0.961" fill="#7a7a7b" d="M 134.5,183.5 C 134.245,185.967 133.245,187.967 131.5,189.5C 131.755,187.033 132.755,185.033 134.5,183.5 Z"/></g>
<g><path style="opacity:1" fill="#5276a2" d="M 160.5,182.5 C 163.01,182.054 165.01,182.72 166.5,184.5C 164.545,183.677 162.545,183.51 160.5,184C 156.16,188.007 152.16,192.34 148.5,197C 147.906,197.464 147.239,197.631 146.5,197.5C 150.489,191.845 155.156,186.845 160.5,182.5 Z"/></g>
<g><path style="opacity:1" fill="#a2a4a9" d="M 155.5,179.5 C 154.21,185.474 155.543,185.64 159.5,180C 161.387,179.22 163.054,179.387 164.5,180.5C 162.62,180.229 161.287,180.896 160.5,182.5C 155.156,186.845 150.489,191.845 146.5,197.5C 145.833,197.833 145.167,198.167 144.5,198.5C 143.778,199.551 142.778,200.218 141.5,200.5C 141.92,198.906 142.586,197.406 143.5,196C 143.167,195.5 142.833,195 142.5,194.5C 140.736,196.278 138.736,197.611 136.5,198.5C 139.382,195.257 142.382,192.257 145.5,189.5C 147.93,185.281 151.263,181.947 155.5,179.5 Z"/></g>
<g><path style="opacity:1" fill="#cecdcf" d="M 145.5,189.5 C 148.172,189.172 149.839,187.672 150.5,185C 151.635,184.251 152.635,184.417 153.5,185.5C 151.689,188.478 149.356,190.978 146.5,193C 144.172,192.778 143.838,191.612 145.5,189.5 Z"/></g>
<g><path style="opacity:1" fill="#5077a2" d="M 221.5,195.5 C 220.833,189.986 220.167,184.319 219.5,178.5C 218.893,178.624 218.56,178.957 218.5,179.5C 218.5,180.167 218.167,180.5 217.5,180.5C 217.5,179.5 217.5,178.5 217.5,177.5C 218.833,177.5 220.167,177.5 221.5,177.5C 221.5,183.5 221.5,189.5 221.5,195.5 Z"/></g>
<g><path style="opacity:1" fill="#a2a6af" d="M 218.5,140.5 C 218.037,143.221 217.371,145.888 216.5,148.5C 216.5,148.833 216.5,149.167 216.5,149.5C 214.654,151.03 213.654,153.03 213.5,155.5C 210.086,161.449 207.419,167.782 205.5,174.5C 203.025,175.687 202.025,177.687 202.5,180.5C 200.866,183.768 199.199,187.101 197.5,190.5C 195.833,192.5 194.167,194.5 192.5,196.5C 192.318,194.409 192.652,192.409 193.5,190.5C 193.333,190.167 193.167,189.833 193,189.5C 192.292,190.381 191.458,191.047 190.5,191.5C 190.259,189.102 190.926,187.102 192.5,185.5C 193.167,185.167 193.833,184.833 194.5,184.5C 194.281,185.675 194.614,186.675 195.5,187.5C 196.949,185.389 197.949,183.056 198.5,180.5C 199.325,179.614 200.325,179.281 201.5,179.5C 201.628,174.741 203.294,170.574 206.5,167C 208.68,157.271 212.68,148.438 218.5,140.5 Z"/></g>
<g><path style="opacity:1" fill="#758ca7" d="M 108.5,173.5 C 109.747,176.586 111.08,179.752 112.5,183C 113.608,189.019 114.941,194.853 116.5,200.5C 116.5,201.833 116.5,203.167 116.5,204.5C 115.203,202.629 114.203,200.629 113.5,198.5C 112.203,190.015 110.536,181.682 108.5,173.5 Z"/></g>
<g><path style="opacity:1" fill="#6e87a4" d="M 217.5,180.5 C 216.251,184.734 215.418,189.067 215,193.5C 214.667,193.167 214.333,192.833 214,192.5C 212.434,195.752 210.601,198.752 208.5,201.5C 208.343,200.127 208.51,198.793 209,197.5C 212.138,191.877 214.971,186.21 217.5,180.5 Z"/></g>
<g><path style="opacity:0.898" fill="#5c5c5d" d="M 105.5,188.5 C 106.167,188.833 106.833,189.167 107.5,189.5C 107.448,191.903 107.781,194.236 108.5,196.5C 107.883,196.389 107.383,196.056 107,195.5C 106.56,193.134 106.06,190.801 105.5,188.5 Z"/></g>
<g><path style="opacity:1" fill="#7c8fa7" d="M 129.5,179.5 C 126.998,188.7 123.664,197.533 119.5,206C 118.251,206.74 117.251,206.573 116.5,205.5C 117.496,205.586 118.329,205.252 119,204.5C 119.84,201.798 120.673,199.132 121.5,196.5C 122.654,189.996 125.321,184.33 129.5,179.5 Z"/></g>
<g><path style="opacity:1" fill="#7a8ea6" d="M 197.5,190.5 C 197.515,193.626 196.515,196.293 194.5,198.5C 193.167,200.5 191.833,202.5 190.5,204.5C 190.584,201.673 191.25,199.006 192.5,196.5C 194.167,194.5 195.833,192.5 197.5,190.5 Z"/></g>
<g><path style="opacity:1" fill="#959498" d="M 218.5,179.5 C 219.393,189.154 219.727,198.821 219.5,208.5C 218.167,208.5 217.5,207.833 217.5,206.5C 216.82,202.881 216.32,199.214 216,195.5C 214.906,197.078 214.072,198.745 213.5,200.5C 213.5,200.833 213.5,201.167 213.5,201.5C 212.5,201.833 211.833,202.5 211.5,203.5C 209.964,205.025 208.964,207.025 208.5,209.5C 207.795,206.911 207.795,204.244 208.5,201.5C 210.601,198.752 212.434,195.752 214,192.5C 214.333,192.833 214.667,193.167 215,193.5C 215.418,189.067 216.251,184.734 217.5,180.5C 218.167,180.5 218.5,180.167 218.5,179.5 Z"/></g>
<g><path style="opacity:1" fill="#404042" d="M 217.5,206.5 C 216.883,206.389 216.383,206.056 216,205.5C 215.667,203.5 215.333,201.5 215,199.5C 214.617,200.056 214.117,200.389 213.5,200.5C 214.072,198.745 214.906,197.078 216,195.5C 216.32,199.214 216.82,202.881 217.5,206.5 Z"/></g>
<g><path style="opacity:0.949" fill="#646465" d="M 237.5,184.5 C 238.117,184.611 238.617,184.944 239,185.5C 239.465,189.848 239.965,194.181 240.5,198.5C 238.77,194.117 237.77,189.45 237.5,184.5 Z"/></g>
<g><path style="opacity:1" fill="#141414" d="M 217.5,206.5 C 217.5,207.833 218.167,208.5 219.5,208.5C 219.746,210.78 219.746,212.78 219.5,214.5C 217.139,213.179 215.139,211.512 213.5,209.5C 213.047,208.542 212.381,207.708 211.5,207C 212.464,205.275 213.131,203.441 213.5,201.5C 213.5,201.167 213.5,200.833 213.5,200.5C 214.117,200.389 214.617,200.056 215,199.5C 215.333,201.5 215.667,203.5 216,205.5C 216.383,206.056 216.883,206.389 217.5,206.5 Z"/></g>
<g><path style="opacity:1" fill="#c1c0c3" d="M 177.5,168.5 C 176.29,168.932 175.29,169.599 174.5,170.5C 172.473,170.662 170.473,170.495 168.5,170C 165.297,166.629 161.964,163.462 158.5,160.5C 158.167,158.167 156.833,156.833 154.5,156.5C 152.389,154.369 150.056,152.702 147.5,151.5C 147.5,152.5 147.5,153.5 147.5,154.5C 145.259,155.3 144.259,156.966 144.5,159.5C 141.445,164.024 139.445,169.024 138.5,174.5C 137.326,175.514 136.66,176.847 136.5,178.5C 135.833,180.167 135.167,181.833 134.5,183.5C 132.755,185.033 131.755,187.033 131.5,189.5C 131.167,190.833 130.833,192.167 130.5,193.5C 127.357,196.004 125.691,199.337 125.5,203.5C 124.392,206.794 122.392,209.461 119.5,211.5C 117.801,211.66 116.134,211.494 114.5,211C 113.24,208.699 111.907,206.532 110.5,204.5C 110.5,204.167 110.5,203.833 110.5,203.5C 110.156,199.772 109.49,196.105 108.5,192.5C 109.098,191.205 109.598,189.872 110,188.5C 110.539,191.529 111.206,194.529 112,197.5C 112.383,198.056 112.883,198.389 113.5,198.5C 114.203,200.629 115.203,202.629 116.5,204.5C 116.5,204.833 116.5,205.167 116.5,205.5C 117.251,206.573 118.251,206.74 119.5,206C 123.664,197.533 126.998,188.7 129.5,179.5C 129.5,179.167 129.5,178.833 129.5,178.5C 130.885,177.426 132.051,176.093 133,174.5C 135.477,167.845 137.644,161.845 139.5,156.5C 142.348,152.63 145.014,148.63 147.5,144.5C 154.988,152.154 162.654,159.654 170.5,167C 172.377,167.576 174.211,167.409 176,166.5C 177.03,166.836 177.53,167.503 177.5,168.5 Z"/></g>
<g><path style="opacity:0.867" fill="#656465" d="M 147.5,154.5 C 147.047,156.565 146.047,158.232 144.5,159.5C 144.259,156.966 145.259,155.3 147.5,154.5 Z"/></g>
<g><path style="opacity:0.984" fill="#848384" d="M 154.5,156.5 C 156.833,156.833 158.167,158.167 158.5,160.5C 156.736,159.674 155.402,158.341 154.5,156.5 Z"/></g>
<g><path style="opacity:0.89" fill="#505051" d="M 130.5,193.5 C 129.127,196.132 128.127,198.966 127.5,202C 127.164,203.03 126.497,203.53 125.5,203.5C 125.691,199.337 127.357,196.004 130.5,193.5 Z"/></g>
<g><path style="opacity:1" fill="#c0bfc1" d="M 141.5,200.5 C 131.238,208.711 121.738,217.711 113,227.5C 112.36,225.735 112.527,224.068 113.5,222.5C 113.5,222.167 113.5,221.833 113.5,221.5C 114.833,220.833 115.833,219.833 116.5,218.5C 117.5,217.167 118.5,215.833 119.5,214.5C 122.833,213.167 125.167,210.833 126.5,207.5C 129.808,204.529 133.141,201.529 136.5,198.5C 138.736,197.611 140.736,196.278 142.5,194.5C 142.833,195 143.167,195.5 143.5,196C 142.586,197.406 141.92,198.906 141.5,200.5 Z"/></g>
<g><path style="opacity:1" fill="#6f89a5" d="M 182.5,200.5 C 184.62,201.451 186.286,202.951 187.5,205C 188.448,205.483 189.448,205.649 190.5,205.5C 190.179,207.048 189.179,207.715 187.5,207.5C 185.42,205.427 183.754,203.093 182.5,200.5 Z"/></g>
<g><path style="opacity:0.851" fill="#4b4b4c" d="M 240.5,198.5 C 241.117,198.611 241.617,198.944 242,199.5C 242.497,201.81 242.663,204.143 242.5,206.5C 241.232,204.095 240.565,201.428 240.5,198.5 Z"/></g>
<g><path style="opacity:1" fill="#456ba1" d="M 121.5,196.5 C 120.673,199.132 119.84,201.798 119,204.5C 118.329,205.252 117.496,205.586 116.5,205.5C 116.5,205.167 116.5,204.833 116.5,204.5C 116.5,203.167 116.5,201.833 116.5,200.5C 117.5,200.5 118.5,200.5 119.5,200.5C 119.157,198.517 119.824,197.183 121.5,196.5 Z"/></g>
<g><path style="opacity:1" fill="#476ca1" d="M 194.5,198.5 C 193.561,201.803 192.561,205.136 191.5,208.5C 189.901,208.768 188.568,208.434 187.5,207.5C 189.179,207.715 190.179,207.048 190.5,205.5C 190.5,205.167 190.5,204.833 190.5,204.5C 191.833,202.5 193.167,200.5 194.5,198.5 Z"/></g>
<g><path style="opacity:1" fill="#6d87a5" d="M 228.5,172.5 C 233.198,190.64 237.532,208.974 241.5,227.5C 241.636,233.81 242.97,239.81 245.5,245.5C 243.665,244.878 242.498,243.544 242,241.5C 241.034,235.028 239.868,228.695 238.5,222.5C 237.491,217.717 236.491,213.05 235.5,208.5C 231.325,196.991 228.992,184.991 228.5,172.5 Z"/></g>
<g><path style="opacity:0.922" fill="#7d7c7d" d="M 110.5,204.5 C 111.907,206.532 113.24,208.699 114.5,211C 116.134,211.494 117.801,211.66 119.5,211.5C 118.081,212.451 116.415,212.784 114.5,212.5C 111.988,210.535 110.655,207.868 110.5,204.5 Z"/></g>
<g><path style="opacity:1" fill="#858f9e" d="M 218.5,179.5 C 218.56,178.957 218.893,178.624 219.5,178.5C 220.167,184.319 220.833,189.986 221.5,195.5C 221.335,199.182 221.501,202.848 222,206.5C 225.192,211.446 227.525,216.779 229,222.5C 229.798,224.259 229.631,225.926 228.5,227.5C 221.466,220.971 213.966,214.971 206,209.5C 205.708,207.674 205.875,205.841 206.5,204C 206.684,202.624 207.351,201.791 208.5,201.5C 207.795,204.244 207.795,206.911 208.5,209.5C 208.964,207.025 209.964,205.025 211.5,203.5C 211.322,204.695 210.989,205.862 210.5,207C 210.748,208.749 211.748,209.582 213.5,209.5C 215.139,211.512 217.139,213.179 219.5,214.5C 219.746,212.78 219.746,210.78 219.5,208.5C 219.727,198.821 219.393,189.154 218.5,179.5 Z"/></g>
<g><path style="opacity:1" fill="#3f3f40" d="M 213.5,201.5 C 213.131,203.441 212.464,205.275 211.5,207C 212.381,207.708 213.047,208.542 213.5,209.5C 211.748,209.582 210.748,208.749 210.5,207C 210.989,205.862 211.322,204.695 211.5,203.5C 211.833,202.5 212.5,201.833 213.5,201.5 Z"/></g>
<g><path style="opacity:0.969" fill="#3a3a3b" d="M 125.5,203.5 C 125.232,205.099 125.566,206.432 126.5,207.5C 125.167,210.833 122.833,213.167 119.5,214.5C 117.833,213.833 116.167,213.167 114.5,212.5C 116.415,212.784 118.081,212.451 119.5,211.5C 122.392,209.461 124.392,206.794 125.5,203.5 Z"/></g>
<g><path style="opacity:1" fill="#3a6ba0" d="M 235.5,208.5 C 236.491,213.05 237.491,217.717 238.5,222.5C 237.307,222.03 236.64,221.03 236.5,219.5C 235.754,215.868 235.421,212.202 235.5,208.5 Z"/></g>
<g><path style="opacity:1" fill="#898d96" d="M 165.5,201.5 C 182.036,215.466 198.703,229.466 215.5,243.5C 217.158,247.03 219.824,249.697 223.5,251.5C 221.54,252.519 219.54,252.519 217.5,251.5C 200.54,243.812 183.873,235.812 167.5,227.5C 166.167,227.167 164.833,226.833 163.5,226.5C 161.297,227.767 158.963,228.767 156.5,229.5C 150.267,231.012 144.933,234.012 140.5,238.5C 133.575,242.039 126.575,245.706 119.5,249.5C 117.559,249.869 115.725,250.536 114,251.5C 113.308,250.975 112.808,250.308 112.5,249.5C 115.758,245.947 118.758,242.28 121.5,238.5C 122.833,236.5 124.5,234.833 126.5,233.5C 137.518,223.633 148.185,213.3 158.5,202.5C 160.615,200.385 162.949,200.051 165.5,201.5 Z"/></g>
<g><path style="opacity:1" fill="#0a0a0a" d="M 202.5,237.5 C 202.158,238.338 201.492,238.672 200.5,238.5C 191.66,233.989 182.66,229.656 173.5,225.5C 172.514,223.592 170.848,222.592 168.5,222.5C 166.167,222.5 163.833,222.5 161.5,222.5C 157.296,223.746 153.63,225.746 150.5,228.5C 143.168,232.166 135.835,235.833 128.5,239.5C 128.5,238.833 128.5,238.167 128.5,237.5C 130.5,236.167 132.167,234.5 133.5,232.5C 134.833,231.833 135.833,230.833 136.5,229.5C 138.549,228.118 140.215,226.452 141.5,224.5C 147.954,218.878 153.954,212.711 159.5,206C 161.167,205.333 162.833,205.333 164.5,206C 177.342,216.259 190.009,226.759 202.5,237.5 Z"/></g>
<g><path style="opacity:0.941" fill="#6f6f70" d="M 116.5,218.5 C 115.833,219.833 114.833,220.833 113.5,221.5C 113.5,219.5 114.5,218.5 116.5,218.5 Z"/></g>
<g><path style="opacity:0.953" fill="#727173" d="M 243.5,214.5 C 244.924,216.515 245.59,218.848 245.5,221.5C 244.076,219.485 243.41,217.152 243.5,214.5 Z"/></g>
<g><path style="opacity:1" fill="#6883a4" d="M 165.5,201.5 C 162.949,200.051 160.615,200.385 158.5,202.5C 148.185,213.3 137.518,223.633 126.5,233.5C 137.556,221.943 148.889,210.443 160.5,199C 163.019,198.259 164.685,199.092 165.5,201.5 Z"/></g>
<g><path style="opacity:1" fill="#413f41" d="M 168.5,222.5 C 170.848,222.592 172.514,223.592 173.5,225.5C 171.067,225.727 169.401,224.727 168.5,222.5 Z"/></g>
<g><path style="opacity:1" fill="#575557" d="M 161.5,222.5 C 158.596,225.787 154.929,227.787 150.5,228.5C 153.63,225.746 157.296,223.746 161.5,222.5 Z"/></g>
<g><path style="opacity:1" fill="#48474a" d="M 141.5,224.5 C 140.215,226.452 138.549,228.118 136.5,229.5C 137.144,226.856 138.811,225.189 141.5,224.5 Z"/></g>
<g><path style="opacity:1" fill="#929cab" d="M 144.5,198.5 C 143.452,202.719 140.785,205.553 136.5,207C 127.171,215.996 118.171,225.33 109.5,235C 108.906,235.464 108.239,235.631 107.5,235.5C 104.81,238.185 101.81,240.518 98.5,242.5C 102.62,237.543 106.954,232.709 111.5,228C 111.167,227.5 110.833,227 110.5,226.5C 109.583,227.127 108.583,227.461 107.5,227.5C 108.911,225.086 110.911,223.419 113.5,222.5C 112.527,224.068 112.36,225.735 113,227.5C 121.738,217.711 131.238,208.711 141.5,200.5C 142.778,200.218 143.778,199.551 144.5,198.5 Z"/></g>
<g><path style="opacity:1" fill="#bbbbbe" d="M 225.5,153.5 C 227.349,156.523 228.849,159.857 230,163.5C 230.494,161.866 230.66,160.199 230.5,158.5C 231.167,159.833 231.833,161.167 232.5,162.5C 233.944,167.729 234.944,173.062 235.5,178.5C 235.259,180.898 235.926,182.898 237.5,184.5C 237.77,189.45 238.77,194.117 240.5,198.5C 240.565,201.428 241.232,204.095 242.5,206.5C 242.401,209.237 242.735,211.904 243.5,214.5C 243.41,217.152 244.076,219.485 245.5,221.5C 246.88,227.778 248.047,234.111 249,240.5C 260.923,254.845 272.757,269.179 284.5,283.5C 286.122,286.455 288.122,289.122 290.5,291.5C 299.205,300.574 307.205,310.24 314.5,320.5C 314.702,322.95 314.369,325.283 313.5,327.5C 313.167,327.5 312.833,327.5 312.5,327.5C 308.181,328.201 304.514,327.034 301.5,324C 299.134,323.56 296.801,323.06 294.5,322.5C 292.901,322.768 291.568,322.434 290.5,321.5C 290.027,320.094 289.027,319.427 287.5,319.5C 287.167,319.5 286.833,319.5 286.5,319.5C 284.967,317.755 282.967,316.755 280.5,316.5C 278.833,315.833 277.167,315.167 275.5,314.5C 274.859,313.518 274.193,312.518 273.5,311.5C 277.26,310.402 280.927,310.735 284.5,312.5C 290.329,313.83 295.663,316.163 300.5,319.5C 302.32,321.448 304.654,322.448 307.5,322.5C 307.316,319.663 305.982,317.663 303.5,316.5C 302.206,315.71 301.039,314.71 300,313.5C 298.362,310.924 296.862,308.257 295.5,305.5C 294.138,302.743 292.638,300.076 291,297.5C 288.165,295.153 285.331,292.82 282.5,290.5C 279.833,287.5 277.167,284.5 274.5,281.5C 274.443,280.391 274.11,279.391 273.5,278.5C 270.155,271.819 265.822,265.819 260.5,260.5C 255.883,254.043 251.049,247.71 246,241.5C 245.304,236.45 243.804,231.784 241.5,227.5C 237.532,208.974 233.198,190.64 228.5,172.5C 227.393,166.28 226.393,159.946 225.5,153.5 Z"/></g>
<g><path style="opacity:0.98" fill="#7e7d7e" d="M 105.5,229.5 C 105.631,230.239 105.464,230.906 105,231.5C 100.286,235.388 95.786,239.388 91.5,243.5C 95.194,237.806 99.8607,233.139 105.5,229.5 Z"/></g>
<g><path style="opacity:1" fill="#6382a3" d="M 156.5,229.5 C 156.047,230.458 155.381,231.292 154.5,232C 149.925,234.42 145.258,236.587 140.5,238.5C 144.933,234.012 150.267,231.012 156.5,229.5 Z"/></g>
<g><path style="opacity:1" fill="#454446" d="M 133.5,232.5 C 132.167,234.5 130.5,236.167 128.5,237.5C 129.167,234.833 130.833,233.167 133.5,232.5 Z"/></g>
<g><path style="opacity:1" fill="#333334" d="M 128.5,237.5 C 128.5,238.167 128.5,238.833 128.5,239.5C 127.426,240.885 126.093,242.051 124.5,243C 123.668,243.688 123.002,243.521 122.5,242.5C 124.247,240.41 126.247,238.743 128.5,237.5 Z"/></g>
<g><path style="opacity:1" fill="#cdccce" d="M 98.5,242.5 C 97.5,242.833 96.8333,243.5 96.5,244.5C 94.9557,244.703 93.6223,245.37 92.5,246.5C 91.6143,245.675 91.281,244.675 91.5,243.5C 95.786,239.388 100.286,235.388 105,231.5C 105.464,230.906 105.631,230.239 105.5,229.5C 105.833,228.5 106.5,227.833 107.5,227.5C 108.583,227.461 109.583,227.127 110.5,226.5C 110.833,227 111.167,227.5 111.5,228C 106.954,232.709 102.62,237.543 98.5,242.5 Z"/></g>
<g><path style="opacity:1" fill="#58575a" d="M 202.5,237.5 C 204.906,239.245 207.24,241.079 209.5,243C 205.737,243.079 202.737,241.579 200.5,238.5C 201.492,238.672 202.158,238.338 202.5,237.5 Z"/></g>
<g><path style="opacity:1" fill="#7389a5" d="M 107.5,235.5 C 104.843,239.321 102.01,242.988 99,246.5C 98.1841,247.823 97.0174,248.489 95.5,248.5C 95.4326,247.041 95.7659,245.708 96.5,244.5C 96.8333,243.5 97.5,242.833 98.5,242.5C 101.81,240.518 104.81,238.185 107.5,235.5 Z"/></g>
<g><path style="opacity:1" fill="#5076a2" d="M 246.5,247.5 C 249.647,249.546 251.98,252.212 253.5,255.5C 250.427,253.431 248.094,250.764 246.5,247.5 Z"/></g>
<g><path style="opacity:1" fill="#8693a6" d="M 121.5,238.5 C 118.758,242.28 115.758,245.947 112.5,249.5C 112.808,250.308 113.308,250.975 114,251.5C 115.725,250.536 117.559,249.869 119.5,249.5C 117.678,251.01 115.678,252.343 113.5,253.5C 111.033,253.755 109.033,254.755 107.5,256.5C 106.325,256.719 105.325,256.386 104.5,255.5C 105.193,254.482 105.859,253.482 106.5,252.5C 109.687,250.656 111.687,247.989 112.5,244.5C 113.552,244.649 114.552,244.483 115.5,244C 117.375,241.919 119.375,240.086 121.5,238.5 Z"/></g>
<g><path style="opacity:1" fill="#a4a8af" d="M 241.5,227.5 C 243.804,231.784 245.304,236.45 246,241.5C 251.049,247.71 255.883,254.043 260.5,260.5C 257.907,259.246 255.573,257.58 253.5,255.5C 251.98,252.212 249.647,249.546 246.5,247.5C 246.167,246.833 245.833,246.167 245.5,245.5C 242.97,239.81 241.636,233.81 241.5,227.5 Z"/></g>
<g><path style="opacity:1" fill="#758aa5" d="M 215.5,243.5 C 218.663,245.811 221.997,247.978 225.5,250C 227.036,253.036 229.369,255.203 232.5,256.5C 233.386,257.325 233.719,258.325 233.5,259.5C 231.94,259.481 230.44,259.148 229,258.5C 225.252,255.773 221.419,253.439 217.5,251.5C 219.54,252.519 221.54,252.519 223.5,251.5C 219.824,249.697 217.158,247.03 215.5,243.5 Z"/></g>
<g><path style="opacity:1" fill="#5076a1" d="M 113.5,253.5 C 112.089,255.539 110.089,256.539 107.5,256.5C 109.033,254.755 111.033,253.755 113.5,253.5 Z"/></g>
<g><path style="opacity:1" fill="#5678a2" d="M 94.5,249.5 C 93.3849,251.455 92.0515,253.288 90.5,255C 86.6061,258.404 82.6061,261.571 78.5,264.5C 83.2508,258.745 88.5841,253.745 94.5,249.5 Z"/></g>
<g><path style="opacity:1" fill="#5179a2" d="M 106.5,252.5 C 105.859,253.482 105.193,254.482 104.5,255.5C 105.325,256.386 106.325,256.719 107.5,256.5C 106.77,258.045 105.437,258.878 103.5,259C 102.056,259.781 100.723,259.614 99.5,258.5C 101.259,255.734 103.593,253.734 106.5,252.5 Z"/></g>
<g><path style="opacity:1" fill="#8996a9" d="M 253.5,255.5 C 255.573,257.58 257.907,259.246 260.5,260.5C 265.822,265.819 270.155,271.819 273.5,278.5C 270.923,276.284 268.59,273.951 266.5,271.5C 261.765,266.438 257.431,261.104 253.5,255.5 Z"/></g>
<g><path style="opacity:1" fill="#5d7fa3" d="M 78.5,265.5 C 77.8561,268.144 76.1894,269.811 73.5,270.5C 73.9361,267.648 75.6027,265.981 78.5,265.5 Z"/></g>
<g><path style="opacity:1" fill="#8c99aa" d="M 185.5,267.5 C 182.833,266.833 180.167,266.167 177.5,265.5C 173.971,264.633 170.638,263.3 167.5,261.5C 160.129,264.295 152.795,266.962 145.5,269.5C 145.833,268.833 146.167,268.167 146.5,267.5C 153.227,263.897 160.393,261.23 168,259.5C 174.569,260.752 180.402,263.419 185.5,267.5 Z"/></g>
<g><path style="opacity:1" fill="#bfbec1" d="M 177.5,265.5 C 178.058,266.79 179.058,267.623 180.5,268C 177.843,268.175 175.176,268.008 172.5,267.5C 170.886,266.729 169.386,265.729 168,264.5C 164.589,266.464 161.089,268.131 157.5,269.5C 154.728,269.759 152.395,270.759 150.5,272.5C 148.967,274.245 146.967,275.245 144.5,275.5C 141.101,275.609 138.434,276.942 136.5,279.5C 132.298,280.27 128.298,281.603 124.5,283.5C 120.701,284.015 117.701,285.681 115.5,288.5C 115.167,288.5 114.833,288.5 114.5,288.5C 111.645,289.117 108.978,290.117 106.5,291.5C 105.325,291.719 104.325,291.386 103.5,290.5C 109.656,286.281 116.323,282.948 123.5,280.5C 125.275,279.162 126.941,277.829 128.5,276.5C 129.605,275.4 130.938,274.733 132.5,274.5C 137.187,273.586 141.52,271.919 145.5,269.5C 152.795,266.962 160.129,264.295 167.5,261.5C 170.638,263.3 173.971,264.633 177.5,265.5 Z"/></g>
<g><path style="opacity:1" fill="#6d86a5" d="M 146.5,267.5 C 146.167,268.167 145.833,268.833 145.5,269.5C 141.52,271.919 137.187,273.586 132.5,274.5C 136.538,271.148 141.205,268.814 146.5,267.5 Z"/></g>
<g><path style="opacity:0.937" fill="#707071" d="M 157.5,269.5 C 155.718,271.357 153.385,272.357 150.5,272.5C 152.395,270.759 154.728,269.759 157.5,269.5 Z"/></g>
<g><path style="opacity:1" fill="#6c86a4" d="M 187.5,267.5 C 196.715,271.215 205.715,275.215 214.5,279.5C 212.435,279.483 210.435,279.15 208.5,278.5C 207.041,278.567 205.708,278.234 204.5,277.5C 202.574,275.707 200.241,274.707 197.5,274.5C 197.027,273.094 196.027,272.427 194.5,272.5C 191.991,271.079 189.657,269.412 187.5,267.5 Z"/></g>
<g><path style="opacity:1" fill="#c9c8cb" d="M 194.5,272.5 C 196.027,272.427 197.027,273.094 197.5,274.5C 197.611,275.117 197.944,275.617 198.5,276C 196.833,276.667 195.167,276.667 193.5,276C 189.29,274.377 185.29,272.377 181.5,270C 185.905,270.298 190.238,271.131 194.5,272.5 Z"/></g>
<g><path style="opacity:0.999" fill="#a3a3a6" d="M 177.5,265.5 C 180.167,266.167 182.833,266.833 185.5,267.5C 186.167,267.5 186.833,267.5 187.5,267.5C 189.657,269.412 191.991,271.079 194.5,272.5C 190.238,271.131 185.905,270.298 181.5,270C 185.29,272.377 189.29,274.377 193.5,276C 195.167,276.667 196.833,276.667 198.5,276C 197.944,275.617 197.611,275.117 197.5,274.5C 200.241,274.707 202.574,275.707 204.5,277.5C 203.127,277.343 201.793,277.51 200.5,278C 201.942,278.377 202.942,279.21 203.5,280.5C 199.263,280.031 195.263,278.864 191.5,277C 185.142,273.724 178.808,270.558 172.5,267.5C 175.176,268.008 177.843,268.175 180.5,268C 179.058,267.623 178.058,266.79 177.5,265.5 Z"/></g>
<g><path style="opacity:1" fill="#cccacd" d="M 51.5,284.5 C 55.2054,281.795 58.2054,278.462 60.5,274.5C 60.8333,273.5 61.5,272.833 62.5,272.5C 64.7742,271.403 66.9409,270.07 69,268.5C 70.3767,269.036 70.3767,270.036 69,271.5C 62.5466,276.986 56.3799,282.82 50.5,289C 49.6683,289.688 49.0016,289.521 48.5,288.5C 49.9095,287.431 50.9095,286.097 51.5,284.5 Z"/></g>
<g><path style="opacity:1" fill="#5276a3" d="M 266.5,271.5 C 268.59,273.951 270.923,276.284 273.5,278.5C 274.11,279.391 274.443,280.391 274.5,281.5C 270.724,279.057 268.057,275.724 266.5,271.5 Z"/></g>
<g><path style="opacity:0.831" fill="#5b5b5c" d="M 144.5,275.5 C 142.103,277.195 139.437,278.528 136.5,279.5C 138.434,276.942 141.101,275.609 144.5,275.5 Z"/></g>
<g><path style="opacity:1" fill="#a1a5ac" d="M 91.5,243.5 C 91.281,244.675 91.6143,245.675 92.5,246.5C 93.6223,245.37 94.9557,244.703 96.5,244.5C 95.7659,245.708 95.4326,247.041 95.5,248.5C 94.8333,248.5 94.5,248.833 94.5,249.5C 88.5841,253.745 83.2508,258.745 78.5,264.5C 78.5,264.833 78.5,265.167 78.5,265.5C 75.6027,265.981 73.9361,267.648 73.5,270.5C 69.8075,273.862 66.1408,277.195 62.5,280.5C 60.5,281.833 58.8333,283.5 57.5,285.5C 55.5203,289.057 52.8536,292.057 49.5,294.5C 46.5214,296.145 44.1881,298.479 42.5,301.5C 42.1667,301.5 41.8333,301.5 41.5,301.5C 41.1667,301.5 40.8333,301.5 40.5,301.5C 42.003,298.476 44.1697,295.81 47,293.5C 47.5938,290.781 46.7605,290.114 44.5,291.5C 46.1027,288.892 48.1027,286.559 50.5,284.5C 50.8333,284.5 51.1667,284.5 51.5,284.5C 50.9095,286.097 49.9095,287.431 48.5,288.5C 49.0016,289.521 49.6683,289.688 50.5,289C 56.3799,282.82 62.5466,276.986 69,271.5C 70.3767,270.036 70.3767,269.036 69,268.5C 66.9409,270.07 64.7742,271.403 62.5,272.5C 64.8605,269.473 67.5271,266.806 70.5,264.5C 74.5,259.833 78.8333,255.5 83.5,251.5C 85.7365,248.386 88.4032,245.719 91.5,243.5 Z"/></g>
<g><path style="opacity:0.998" fill="#cecdcf" d="M 70.5,264.5 C 72.3767,264.1 73.8767,263.1 75,261.5C 75.5,261.833 76,262.167 76.5,262.5C 75.5,264.833 73.8333,266.5 71.5,267.5C 70.6143,266.675 70.281,265.675 70.5,264.5 Z"/></g>
<g><path style="opacity:1" fill="#cecdd0" d="M 83.5,251.5 C 85.3284,250.206 87.3284,249.206 89.5,248.5C 89.6495,249.552 89.4828,250.552 89,251.5C 85.78,254.206 82.6134,257.04 79.5,260C 78.6683,260.688 78.0016,260.521 77.5,259.5C 79.9021,257.103 81.9021,254.436 83.5,251.5 Z"/></g>
<g><path style="opacity:1" fill="#c0bfc2" d="M 204.5,277.5 C 205.708,278.234 207.041,278.567 208.5,278.5C 212.622,281.068 216.956,283.568 221.5,286C 228.756,288.798 236.089,291.298 243.5,293.5C 249.859,297.128 256.525,300.461 263.5,303.5C 266.4,305.714 269.4,307.88 272.5,310C 270.866,310.494 269.199,310.66 267.5,310.5C 264.211,309.172 260.878,307.838 257.5,306.5C 256.089,304.461 254.089,303.461 251.5,303.5C 251.179,301.952 250.179,301.285 248.5,301.5C 247.365,299.787 245.698,299.12 243.5,299.5C 239.858,296.198 235.525,294.198 230.5,293.5C 228.216,292.971 226.216,291.971 224.5,290.5C 222.618,289.249 220.618,288.082 218.5,287C 217.207,286.51 215.873,286.343 214.5,286.5C 213.791,285.596 212.791,285.263 211.5,285.5C 210.089,283.461 208.089,282.461 205.5,282.5C 204.5,282.167 203.833,281.5 203.5,280.5C 202.942,279.21 201.942,278.377 200.5,278C 201.793,277.51 203.127,277.343 204.5,277.5 Z"/></g>
<g><path style="opacity:1" fill="#4e74a2" d="M 217.5,281.5 C 219.781,281.077 221.448,281.744 222.5,283.5C 220.447,283.598 218.78,282.931 217.5,281.5 Z"/></g>
<g><path style="opacity:0.933" fill="#6e6d6e" d="M 60.5,274.5 C 58.2054,278.462 55.2054,281.795 51.5,284.5C 51.1667,284.5 50.8333,284.5 50.5,284.5C 50.369,283.761 50.5357,283.094 51,282.5C 54.3325,279.998 57.4992,277.332 60.5,274.5 Z"/></g>
<g><path style="opacity:1" fill="#6282a4" d="M 62.5,280.5 C 61.8333,283.167 60.1667,284.833 57.5,285.5C 58.8333,283.5 60.5,281.833 62.5,280.5 Z"/></g>
<g><path style="opacity:0.894" fill="#474747" d="M 205.5,282.5 C 208.089,282.461 210.089,283.461 211.5,285.5C 208.895,285.379 206.895,284.379 205.5,282.5 Z"/></g>
<g><path style="opacity:1" fill="#8595a8" d="M 208.5,278.5 C 210.435,279.15 212.435,279.483 214.5,279.5C 215.5,280.167 216.5,280.833 217.5,281.5C 218.78,282.931 220.447,283.598 222.5,283.5C 229.576,286.97 236.576,290.304 243.5,293.5C 236.089,291.298 228.756,288.798 221.5,286C 216.956,283.568 212.622,281.068 208.5,278.5 Z"/></g>
<g><path style="opacity:0.969" fill="#787879" d="M 284.5,283.5 C 287.972,285.039 289.972,287.706 290.5,291.5C 288.122,289.122 286.122,286.455 284.5,283.5 Z"/></g>
<g><path style="opacity:0.886" fill="#7e7d7f" d="M 124.5,283.5 C 121.777,285.531 118.777,287.198 115.5,288.5C 117.701,285.681 120.701,284.015 124.5,283.5 Z"/></g>
<g><path style="opacity:0.984" fill="#7f7e80" d="M 214.5,286.5 C 215.873,286.343 217.207,286.51 218.5,287C 220.618,288.082 222.618,289.249 224.5,290.5C 220.642,290.23 217.309,288.897 214.5,286.5 Z"/></g>
<g><path style="opacity:1" fill="#969fac" d="M 128.5,276.5 C 126.941,277.829 125.275,279.162 123.5,280.5C 116.323,282.948 109.656,286.281 103.5,290.5C 104.325,291.386 105.325,291.719 106.5,291.5C 106.5,291.833 106.5,292.167 106.5,292.5C 105.167,292.833 103.833,293.167 102.5,293.5C 102.38,292.414 101.713,291.747 100.5,291.5C 96.771,292.348 93.1044,293.348 89.5,294.5C 90.3065,293.272 91.3065,292.272 92.5,291.5C 99.4948,289.122 106.162,285.955 112.5,282C 117.74,279.934 123.074,278.101 128.5,276.5 Z"/></g>
<g><path style="opacity:0.875" fill="#5c5b5c" d="M 114.5,288.5 C 112.163,290.396 109.496,291.73 106.5,292.5C 106.5,292.167 106.5,291.833 106.5,291.5C 108.978,290.117 111.645,289.117 114.5,288.5 Z"/></g>
<g><path style="opacity:0.996" fill="#868586" d="M 230.5,293.5 C 235.525,294.198 239.858,296.198 243.5,299.5C 238.666,298.245 234.333,296.245 230.5,293.5 Z"/></g>
<g><path style="opacity:0.776" fill="#4d4c4d" d="M 102.5,293.5 C 101.199,294.962 99.6993,296.296 98,297.5C 94.1184,299.646 89.9517,300.979 85.5,301.5C 90.6357,298.113 96.3024,295.446 102.5,293.5 Z"/></g>
<g><path style="opacity:0.937" fill="#626162" d="M 39.5,295.5 C 38.1667,297.5 36.5,299.167 34.5,300.5C 35.1667,297.833 36.8333,296.167 39.5,295.5 Z"/></g>
<g><path style="opacity:1" fill="#798ca6" d="M 92.5,291.5 C 91.3065,292.272 90.3065,293.272 89.5,294.5C 84.6612,297.135 79.6612,299.635 74.5,302C 70.3917,303.095 66.3917,304.262 62.5,305.5C 71.8228,299.517 81.8228,294.851 92.5,291.5 Z"/></g>
<g><path style="opacity:1" fill="#8293a7" d="M 282.5,290.5 C 285.331,292.82 288.165,295.153 291,297.5C 292.638,300.076 294.138,302.743 295.5,305.5C 293.156,304.083 290.823,302.75 288.5,301.5C 286.786,297.743 284.786,294.077 282.5,290.5 Z"/></g>
<g><path style="opacity:1" fill="#456fa1" d="M 49.5,294.5 C 47.8172,297.577 45.4839,299.91 42.5,301.5C 44.1881,298.479 46.5214,296.145 49.5,294.5 Z"/></g>
<g><path style="opacity:1" fill="#c8c7c9" d="M 40.5,301.5 C 39.448,301.351 38.448,301.517 37.5,302C 34.2751,305.628 30.9418,309.128 27.5,312.5C 27.1667,312.5 26.8333,312.5 26.5,312.5C 25.596,311.791 25.2627,310.791 25.5,309.5C 29.4784,307.522 32.4784,304.522 34.5,300.5C 36.5,299.167 38.1667,297.5 39.5,295.5C 40.5846,293.413 42.2512,292.08 44.5,291.5C 46.7605,290.114 47.5938,290.781 47,293.5C 44.1697,295.81 42.003,298.476 40.5,301.5 Z"/></g>
<g><path style="opacity:0.969" fill="#818082" d="M 243.5,299.5 C 245.698,299.12 247.365,299.787 248.5,301.5C 246.302,301.88 244.635,301.213 243.5,299.5 Z"/></g>
<g><path style="opacity:1" fill="#7289a5" d="M 243.5,293.5 C 250.432,296.007 257.432,298.341 264.5,300.5C 264.5,301.5 264.5,302.5 264.5,303.5C 264.167,303.5 263.833,303.5 263.5,303.5C 256.525,300.461 249.859,297.128 243.5,293.5 Z"/></g>
<g><path style="opacity:0.859" fill="#575657" d="M 248.5,301.5 C 250.179,301.285 251.179,301.952 251.5,303.5C 249.821,303.715 248.821,303.048 248.5,301.5 Z"/></g>
<g><path style="opacity:0.976" fill="#868586" d="M 34.5,300.5 C 32.4784,304.522 29.4784,307.522 25.5,309.5C 28.2148,306.118 31.2148,303.118 34.5,300.5 Z"/></g>
<g><path style="opacity:1" fill="#b9b9bd" d="M 102.5,293.5 C 96.3024,295.446 90.6357,298.113 85.5,301.5C 81.4682,302.61 77.8016,304.277 74.5,306.5C 70.4682,307.61 66.8016,309.277 63.5,311.5C 57.1691,314.162 50.8358,316.829 44.5,319.5C 42.9731,319.427 41.9731,320.094 41.5,321.5C 38.3642,321.603 35.6975,322.603 33.5,324.5C 31.0326,324.755 29.0326,325.755 27.5,327.5C 25.8828,328.038 24.2161,328.371 22.5,328.5C 21.0821,326.692 19.0821,326.025 16.5,326.5C 16.3433,325.127 16.51,323.793 17,322.5C 19.6833,319.984 22.1833,317.317 24.5,314.5C 24.1667,314.167 23.8333,313.833 23.5,313.5C 22.0312,315.636 20.0312,316.97 17.5,317.5C 19.8062,314.527 22.4728,311.86 25.5,309.5C 25.2627,310.791 25.596,311.791 26.5,312.5C 27.7345,314.398 27.4011,316.065 25.5,317.5C 25.5,317.833 25.5,318.167 25.5,318.5C 23.7499,319.742 22.0832,321.242 20.5,323C 25.8489,322.83 30.5155,320.996 34.5,317.5C 35.6049,316.4 36.9382,315.733 38.5,315.5C 41.1667,314.833 43.8333,314.167 46.5,313.5C 48.5466,313.489 50.5466,313.156 52.5,312.5C 55.905,310.161 59.2384,307.828 62.5,305.5C 66.3917,304.262 70.3917,303.095 74.5,302C 79.6612,299.635 84.6612,297.135 89.5,294.5C 93.1044,293.348 96.771,292.348 100.5,291.5C 101.713,291.747 102.38,292.414 102.5,293.5 Z"/></g>
<g><path style="opacity:0.694" fill="#333334" d="M 85.5,301.5 C 82.7555,304.755 79.0889,306.421 74.5,306.5C 77.8016,304.277 81.4682,302.61 85.5,301.5 Z"/></g>
<g><path style="opacity:0.875" fill="#434343" d="M 251.5,303.5 C 254.089,303.461 256.089,304.461 257.5,306.5C 255.033,306.245 253.033,305.245 251.5,303.5 Z"/></g>
<g><path style="opacity:1" fill="#a8aab1" d="M 40.5,301.5 C 38.1956,304.141 35.8623,306.808 33.5,309.5C 31.7837,311.025 29.7837,312.025 27.5,312.5C 30.9418,309.128 34.2751,305.628 37.5,302C 38.448,301.517 39.448,301.351 40.5,301.5 Z"/></g>
<g><path style="opacity:1" fill="#5679a3" d="M 40.5,301.5 C 40.8333,301.5 41.1667,301.5 41.5,301.5C 39.8613,305.139 37.1947,307.805 33.5,309.5C 35.8623,306.808 38.1956,304.141 40.5,301.5 Z"/></g>
<g><path style="opacity:0.675" fill="#2d2c2d" d="M 74.5,306.5 C 71.6681,309.755 68.0014,311.422 63.5,311.5C 66.8016,309.277 70.4682,307.61 74.5,306.5 Z"/></g>
<g><path style="opacity:1" fill="#9aa0a9" d="M 263.5,303.5 C 263.833,303.5 264.167,303.5 264.5,303.5C 271.758,305.356 278.425,308.356 284.5,312.5C 280.927,310.735 277.26,310.402 273.5,311.5C 274.193,312.518 274.859,313.518 275.5,314.5C 273.027,312.673 270.361,311.34 267.5,310.5C 269.199,310.66 270.866,310.494 272.5,310C 269.4,307.88 266.4,305.714 263.5,303.5 Z"/></g>
<g><path style="opacity:1" fill="#909bab" d="M 62.5,305.5 C 59.2384,307.828 55.905,310.161 52.5,312.5C 50.5466,313.156 48.5466,313.489 46.5,313.5C 46.5,313.167 46.5,312.833 46.5,312.5C 50.1376,310.841 53.8042,308.841 57.5,306.5C 59.0453,305.548 60.712,305.215 62.5,305.5 Z"/></g>
<g><path style="opacity:1" fill="#7b8ea8" d="M 33.5,309.5 C 31.7676,312.082 29.7676,314.582 27.5,317C 26.9056,317.464 26.2389,317.631 25.5,317.5C 27.4011,316.065 27.7345,314.398 26.5,312.5C 26.8333,312.5 27.1667,312.5 27.5,312.5C 29.7837,312.025 31.7837,311.025 33.5,309.5 Z"/></g>
<g><path style="opacity:1" fill="#4e73a2" d="M 46.5,312.5 C 46.5,312.833 46.5,313.167 46.5,313.5C 43.8333,314.167 41.1667,314.833 38.5,315.5C 40.5223,313.307 43.1889,312.307 46.5,312.5 Z"/></g>
<g><path style="opacity:0.906" fill="#494849" d="M 280.5,316.5 C 282.967,316.755 284.967,317.755 286.5,319.5C 284.033,319.245 282.033,318.245 280.5,316.5 Z"/></g>
<g><path style="opacity:0.996" fill="#969596" d="M 17.5,317.5 C 17.3252,319.844 16.1585,321.511 14,322.5C 13.3333,324.167 13.3333,325.833 14,327.5C 16.7191,328.444 19.5525,328.777 22.5,328.5C 21.4855,329.765 19.9855,330.431 18,330.5C 16.0194,330.371 14.3528,329.704 13,328.5C 11.3938,323.485 12.8938,319.819 17.5,317.5 Z"/></g>
<g><path style="opacity:1" fill="#d1cfd2" d="M 22.5,328.5 C 19.5525,328.777 16.7191,328.444 14,327.5C 13.3333,325.833 13.3333,324.167 14,322.5C 16.1585,321.511 17.3252,319.844 17.5,317.5C 20.0312,316.97 22.0312,315.636 23.5,313.5C 23.8333,313.833 24.1667,314.167 24.5,314.5C 22.1833,317.317 19.6833,319.984 17,322.5C 16.51,323.793 16.3433,325.127 16.5,326.5C 19.0821,326.025 21.0821,326.692 22.5,328.5 Z"/></g>
<g><path style="opacity:0.835" fill="#4f4e4f" d="M 44.5,319.5 C 44.0269,320.906 43.0269,321.573 41.5,321.5C 41.9731,320.094 42.9731,319.427 44.5,319.5 Z"/></g>
<g><path style="opacity:0.882" fill="#504f51" d="M 287.5,319.5 C 289.027,319.427 290.027,320.094 290.5,321.5C 288.973,321.573 287.973,320.906 287.5,319.5 Z"/></g>
<g><path style="opacity:1" fill="#6886a3" d="M 303.5,316.5 C 305.982,317.663 307.316,319.663 307.5,322.5C 304.654,322.448 302.32,321.448 300.5,319.5C 303.567,319.879 304.567,318.879 303.5,316.5 Z"/></g>
<g><path style="opacity:1" fill="#6180a3" d="M 34.5,317.5 C 30.5155,320.996 25.8489,322.83 20.5,323C 22.0832,321.242 23.7499,319.742 25.5,318.5C 24.537,319.363 24.537,320.03 25.5,320.5C 28.2589,318.878 31.2589,317.878 34.5,317.5 Z"/></g>
<g><path style="opacity:0.776" fill="#3b3b3b" d="M 41.5,321.5 C 39.3826,323.655 36.716,324.655 33.5,324.5C 35.6975,322.603 38.3642,321.603 41.5,321.5 Z"/></g>
<g><path style="opacity:0.996" fill="#868587" d="M 294.5,322.5 C 296.801,323.06 299.134,323.56 301.5,324C 304.514,327.034 308.181,328.201 312.5,327.5C 310.735,328.461 308.735,328.795 306.5,328.5C 302.267,326.777 298.267,324.777 294.5,322.5 Z"/></g>
<g><path style="opacity:0.875" fill="#5c5b5d" d="M 314.5,320.5 C 315.152,321.449 315.486,322.615 315.5,324C 315.392,325.681 314.725,326.848 313.5,327.5C 314.369,325.283 314.702,322.95 314.5,320.5 Z"/></g>
<g><path style="opacity:0.863" fill="#4d4d4e" d="M 33.5,324.5 C 31.9674,326.245 29.9674,327.245 27.5,327.5C 29.0326,325.755 31.0326,324.755 33.5,324.5 Z"/></g>
<g><path style="opacity:0.831" fill="#4a4a4b" d="M 312.5,327.5 C 312.833,327.5 313.167,327.5 313.5,327.5C 312.848,328.725 311.681,329.392 310,329.5C 308.615,329.486 307.449,329.152 306.5,328.5C 308.735,328.795 310.735,328.461 312.5,327.5 Z"/></g>
</svg>
