<?xml version="1.0" encoding="UTF-8"?>
<!DOCTYPE svg PUBLIC "-//W3C//DTD SVG 1.1//EN" "http://www.w3.org/Graphics/SVG/1.1/DTD/svg11.dtd">
<svg xmlns="http://www.w3.org/2000/svg" version="1.1" width="100%" viewBox="0 0 280 280" style="shape-rendering:geometricPrecision; text-rendering:geometricPrecision; image-rendering:optimizeQuality; fill-rule:evenodd; clip-rule:evenodd" xmlns:xlink="http://www.w3.org/1999/xlink">
<g><path style="opacity:0.084" fill="#120601" d="M 208.5,-0.5 C 210.5,-0.5 212.5,-0.5 214.5,-0.5C 230.463,11.155 246.463,22.8216 262.5,34.5C 263.631,36.0745 263.798,37.7412 263,39.5C 216.627,104.037 170.46,168.703 124.5,233.5C 123.272,234.306 122.272,235.306 121.5,236.5C 120.833,236.5 120.167,236.5 119.5,236.5C 122.93,231.742 125.93,226.742 128.5,221.5C 133.907,215.753 138.573,209.42 142.5,202.5C 144.326,200.853 145.66,198.853 146.5,196.5C 147.974,195.564 148.974,194.23 149.5,192.5C 151.326,190.853 152.66,188.853 153.5,186.5C 156.535,184.121 158.869,181.121 160.5,177.5C 163.221,174.106 165.554,170.439 167.5,166.5C 169.531,165.461 170.864,163.795 171.5,161.5C 174.772,158.212 177.772,154.545 180.5,150.5C 182.624,147.721 184.291,144.721 185.5,141.5C 188.64,138.398 191.64,135.065 194.5,131.5C 195.513,129.473 196.513,127.473 197.5,125.5C 202.913,119.41 207.579,112.743 211.5,105.5C 213.074,104.016 214.407,102.349 215.5,100.5C 218.579,97.7435 220.912,94.4101 222.5,90.5C 225.609,87.722 227.942,84.3886 229.5,80.5C 232.552,77.4238 235.386,74.0905 238,70.5C 243.931,61.4948 249.764,52.4948 255.5,43.5C 257.605,42.0125 259.272,40.0125 260.5,37.5C 259.606,35.7212 258.273,34.3879 256.5,33.5C 255.082,31.6921 253.082,31.0254 250.5,31.5C 250.771,33.3797 250.104,34.713 248.5,35.5C 249.417,32.9952 249.417,30.6618 248.5,28.5C 248.167,27.5 247.5,26.8333 246.5,26.5C 245.965,24.5544 244.632,23.5544 242.5,23.5C 240.043,20.7782 237.043,18.7782 233.5,17.5C 230.841,14.1733 227.508,11.84 223.5,10.5C 221.97,10.6399 220.97,11.3065 220.5,12.5C 219.833,13.5 219.167,14.5 218.5,15.5C 214.956,19.4915 211.956,23.8249 209.5,28.5C 206.791,31.2085 204.458,34.2085 202.5,37.5C 202.5,37.8333 202.5,38.1667 202.5,38.5C 200.204,39.733 198.87,41.733 198.5,44.5C 197.512,45.795 196.512,47.1283 195.5,48.5C 193.003,49.1293 191.67,50.796 191.5,53.5C 190.662,53.8417 190.328,54.5084 190.5,55.5C 188.469,56.5387 187.136,58.2054 186.5,60.5C 182.99,63.3577 180.657,67.0243 179.5,71.5C 178.167,72.1667 177.167,73.1667 176.5,74.5C 174.204,75.733 172.87,77.733 172.5,80.5C 172.167,81.1667 171.833,81.8333 171.5,82.5C 168.385,84.2878 166.385,86.9545 165.5,90.5C 161.103,94.9586 157.436,99.9586 154.5,105.5C 154.5,105.833 154.5,106.167 154.5,106.5C 152.5,106.5 151.5,107.5 151.5,109.5C 149.178,110.802 147.845,112.802 147.5,115.5C 145.204,116.733 143.87,118.733 143.5,121.5C 141.5,121.5 140.5,122.5 140.5,124.5C 140.5,124.833 140.5,125.167 140.5,125.5C 137.914,126.487 136.581,128.487 136.5,131.5C 134.5,131.5 133.5,132.5 133.5,134.5C 133.5,134.833 133.5,135.167 133.5,135.5C 132.504,135.414 131.671,135.748 131,136.5C 129.362,139.076 127.862,141.743 126.5,144.5C 124.204,145.733 122.87,147.733 122.5,150.5C 121.504,150.414 120.671,150.748 120,151.5C 117.108,157.366 113.941,163.033 110.5,168.5C 108.263,170.647 106.263,172.98 104.5,175.5C 102.123,177.228 100.456,179.561 99.5,182.5C 98.4489,183.222 97.7822,184.222 97.5,185.5C 95.4689,186.539 94.1355,188.205 93.5,190.5C 92.6618,190.842 92.3284,191.508 92.5,192.5C 90.4689,193.539 89.1355,195.205 88.5,197.5C 87.5178,198.141 86.5178,198.807 85.5,199.5C 84.7025,199.043 84.3691,198.376 84.5,197.5C 84.5,196.833 84.5,196.167 84.5,195.5C 90.3158,189.676 94.9825,183.01 98.5,175.5C 100.522,174.493 101.855,172.826 102.5,170.5C 105.876,167.938 108.209,164.604 109.5,160.5C 115.273,154.059 120.273,147.059 124.5,139.5C 131.223,131.734 137.223,123.401 142.5,114.5C 148.241,108.015 153.241,101.015 157.5,93.5C 162.549,87.1151 167.215,80.4484 171.5,73.5C 173.727,72.5994 174.727,70.9328 174.5,68.5C 174.833,68.5 175.167,68.5 175.5,68.5C 179.575,64.0244 182.908,59.0244 185.5,53.5C 186.376,53.6309 187.043,53.2975 187.5,52.5C 189.624,49.7206 191.291,46.7206 192.5,43.5C 193.496,43.5858 194.329,43.2524 195,42.5C 198.391,37.6161 201.557,32.6161 204.5,27.5C 209.521,21.9667 214.021,15.9667 218,9.5C 218.765,7.93426 218.598,6.60093 217.5,5.5C 215.223,1.63111 212.557,0.964445 209.5,3.5C 209.5,3.83333 209.5,4.16667 209.5,4.5C 208.504,4.41423 207.671,4.74756 207,5.5C 205.677,8.30883 204.177,10.9755 202.5,13.5C 200.178,14.8021 198.845,16.8021 198.5,19.5C 197.624,19.3691 196.957,19.7025 196.5,20.5C 195.014,22.3016 194.014,24.3016 193.5,26.5C 188.399,31.9359 184.066,37.9359 180.5,44.5C 179.662,44.8417 179.328,45.5084 179.5,46.5C 177.469,47.5387 176.136,49.2054 175.5,51.5C 171.682,55.7962 168.348,60.4629 165.5,65.5C 165.5,65.8333 165.5,66.1667 165.5,66.5C 163.003,67.1293 161.67,68.796 161.5,71.5C 159.554,72.0347 158.554,73.368 158.5,75.5C 158.5,75.8333 158.5,76.1667 158.5,76.5C 156.983,76.5106 155.816,77.1772 155,78.5C 153.582,80.7389 152.415,83.0722 151.5,85.5C 149.469,86.5387 148.136,88.2054 147.5,90.5C 146.4,91.6049 145.733,92.9382 145.5,94.5C 144.094,94.9731 143.427,95.9731 143.5,97.5C 142.167,98.1667 141.167,99.1667 140.5,100.5C 138.204,101.733 136.87,103.733 136.5,106.5C 134.554,107.035 133.554,108.368 133.5,110.5C 131.627,111.863 129.961,113.53 128.5,115.5C 127.438,117.022 126.771,118.688 126.5,120.5C 125.396,122.389 124.063,124.055 122.5,125.5C 120.631,127.034 119.298,129.034 118.5,131.5C 116.738,132.262 115.738,133.596 115.5,135.5C 113.627,136.863 111.961,138.53 110.5,140.5C 107.149,145.88 103.815,151.213 100.5,156.5C 99.6618,156.842 99.3284,157.508 99.5,158.5C 96.083,160.592 93.7497,163.592 92.5,167.5C 92.2624,169.404 91.2624,170.738 89.5,171.5C 87.412,173.336 86.0787,175.669 85.5,178.5C 84.8333,178.5 84.1667,178.5 83.5,178.5C 83.5,177.833 83.5,177.167 83.5,176.5C 124.916,117.341 166.582,58.3406 208.5,-0.5 Z"/></g>
<g><path style="opacity:0.945" fill="#783a0e" d="M 175.5,51.5 C 175.167,52.8333 174.833,54.1667 174.5,55.5C 171.5,58.8333 168.5,62.1667 165.5,65.5C 168.348,60.4629 171.682,55.7962 175.5,51.5 Z"/></g>
<g><path style="opacity:0.91" fill="#672f0b" d="M 190.5,55.5 C 189.876,57.754 188.543,59.4206 186.5,60.5C 187.136,58.2054 188.469,56.5387 190.5,55.5 Z"/></g>
<g><path style="opacity:0.902" fill="#7f3d0e" d="M 185.5,53.5 C 182.908,59.0244 179.575,64.0244 175.5,68.5C 176.634,64.8988 178.301,61.5655 180.5,58.5C 182.395,57.027 184.061,55.3603 185.5,53.5 Z"/></g>
<g><path style="opacity:0.871" fill="#74320c" d="M 233.5,50.5 C 232.25,54.408 229.917,57.408 226.5,59.5C 227.075,57.5887 228.075,55.922 229.5,54.5C 230.393,52.703 231.726,51.3696 233.5,50.5 Z"/></g>
<g><path style="opacity:0.894" fill="#632a0a" d="M 238.5,51.5 C 237.649,53.8816 236.316,55.8816 234.5,57.5C 234.87,54.733 236.204,52.733 238.5,51.5 Z"/></g>
<g><path style="opacity:0.808" fill="#4d2107" d="M 195.5,48.5 C 194.4,49.6049 193.733,50.9382 193.5,52.5C 192.833,52.8333 192.167,53.1667 191.5,53.5C 191.67,50.796 193.003,49.1293 195.5,48.5 Z"/></g>
<g><path style="opacity:0.922" fill="#69310b" d="M 179.5,46.5 C 178.876,48.754 177.543,50.4206 175.5,51.5C 176.136,49.2054 177.469,47.5387 179.5,46.5 Z"/></g>
<g><path style="opacity:0.957" fill="#7f360e" d="M 236.5,45.5 C 236.25,47.674 235.25,49.3406 233.5,50.5C 233.75,48.326 234.75,46.6594 236.5,45.5 Z"/></g>
<g><path style="opacity:1" fill="#e77022" d="M 229.5,54.5 C 228.075,55.922 227.075,57.5887 226.5,59.5C 225.292,60.2341 223.959,60.5674 222.5,60.5C 222.66,62.1992 222.494,63.8659 222,65.5C 219.19,68.4645 217.024,71.7978 215.5,75.5C 213.806,76.5274 212.473,77.8608 211.5,79.5C 211.719,78.325 211.386,77.325 210.5,76.5C 203.733,71.2088 196.733,66.3755 189.5,62C 188.106,62.4993 186.772,63.3326 185.5,64.5C 185.833,63.1667 186.167,61.8333 186.5,60.5C 188.543,59.4206 189.876,57.754 190.5,55.5C 190.328,54.5084 190.662,53.8417 191.5,53.5C 192.167,53.1667 192.833,52.8333 193.5,52.5C 196.541,51.6246 198.375,49.6246 199,46.5C 201.941,44.7389 203.608,42.0723 204,38.5C 204.804,37.1955 205.971,36.5288 207.5,36.5C 213.475,38.4972 218.475,41.9972 222.5,47C 225.149,47.7937 227.316,49.2937 229,51.5C 229.483,52.448 229.649,53.448 229.5,54.5 Z"/></g>
<g><path style="opacity:0.918" fill="#6e2d0d" d="M 245.5,42.5 C 243.542,45.7915 241.209,48.7915 238.5,51.5C 239.694,47.6367 242.027,44.6367 245.5,42.5 Z"/></g>
<g><path style="opacity:1" fill="#da601f" d="M 256.5,33.5 C 257.985,37.056 257.652,40.3893 255.5,43.5C 250.5,50.1667 245.5,56.8333 240.5,63.5C 240.587,56.8624 238.254,55.8624 233.5,60.5C 233.5,59.8333 233.5,59.1667 233.5,58.5C 234.167,58.5 234.5,58.1667 234.5,57.5C 236.316,55.8816 237.649,53.8816 238.5,51.5C 241.209,48.7915 243.542,45.7915 245.5,42.5C 245.557,41.391 245.89,40.391 246.5,39.5C 249.002,37.8304 251.002,35.6637 252.5,33C 253.819,32.805 255.153,32.9717 256.5,33.5 Z"/></g>
<g><path style="opacity:0.89" fill="#823d0f" d="M 192.5,43.5 C 191.291,46.7206 189.624,49.7206 187.5,52.5C 187.043,53.2975 186.376,53.6309 185.5,53.5C 187.088,49.5899 189.421,46.2565 192.5,43.5 Z"/></g>
<g><path style="opacity:0.98" fill="#80350e" d="M 240.5,40.5 C 239.855,42.8263 238.522,44.493 236.5,45.5C 237.136,43.2054 238.469,41.5387 240.5,40.5 Z"/></g>
<g><path style="opacity:0.922" fill="#682d0b" d="M 202.5,38.5 C 201.649,40.8816 200.316,42.8816 198.5,44.5C 198.87,41.733 200.204,39.733 202.5,38.5 Z"/></g>
<g><path style="opacity:1" fill="#e06d21" d="M 199.5,32.5 C 196.917,35.9974 194.584,39.6641 192.5,43.5C 189.421,46.2565 187.088,49.5899 185.5,53.5C 184.061,55.3603 182.395,57.027 180.5,58.5C 180.06,53.6705 178.06,52.6705 174.5,55.5C 174.833,54.1667 175.167,52.8333 175.5,51.5C 177.543,50.4206 178.876,48.754 179.5,46.5C 179.328,45.5084 179.662,44.8417 180.5,44.5C 184.5,39.8333 188.5,35.1667 192.5,30.5C 194.411,30.4257 195.578,29.4257 196,27.5C 198.556,28.2191 199.723,29.8858 199.5,32.5 Z"/></g>
<g><path style="opacity:0.867" fill="#531e08" d="M 256.5,33.5 C 255.153,32.9717 253.819,32.805 252.5,33C 251.002,35.6637 249.002,37.8304 246.5,39.5C 246.733,37.9382 247.4,36.6049 248.5,35.5C 250.104,34.713 250.771,33.3797 250.5,31.5C 253.082,31.0254 255.082,31.6921 256.5,33.5 Z"/></g>
<g><path style="opacity:1" fill="#8d3711" d="M 256.5,33.5 C 258.273,34.3879 259.606,35.7212 260.5,37.5C 259.272,40.0125 257.605,42.0125 255.5,43.5C 257.652,40.3893 257.985,37.056 256.5,33.5 Z"/></g>
<g><path style="opacity:0.918" fill="#83340f" d="M 245.5,26.5 C 245.833,26.5 246.167,26.5 246.5,26.5C 247.5,26.8333 248.167,27.5 248.5,28.5C 246.61,33.0493 243.944,37.0493 240.5,40.5C 241.684,37.1393 243.517,34.1393 246,31.5C 246.64,29.735 246.473,28.0683 245.5,26.5 Z"/></g>
<g><path style="opacity:0.871" fill="#6d2f0c" d="M 204.5,27.5 C 201.557,32.6161 198.391,37.6161 195,42.5C 194.329,43.2524 193.496,43.5858 192.5,43.5C 194.584,39.6641 196.917,35.9974 199.5,32.5C 200.954,30.5635 202.621,28.8968 204.5,27.5 Z"/></g>
<g><path style="opacity:0.914" fill="#73330d" d="M 193.5,26.5 C 193.167,27.8333 192.833,29.1667 192.5,30.5C 188.5,35.1667 184.5,39.8333 180.5,44.5C 184.066,37.9359 188.399,31.9359 193.5,26.5 Z"/></g>
<g><path style="opacity:0.925" fill="#61280a" d="M 209.5,28.5 C 208.306,32.3633 205.973,35.3633 202.5,37.5C 204.458,34.2085 206.791,31.2085 209.5,28.5 Z"/></g>
<g><path style="opacity:0.82" fill="#541e09" d="M 242.5,23.5 C 244.632,23.5544 245.965,24.5544 246.5,26.5C 246.167,26.5 245.833,26.5 245.5,26.5C 243.81,26.1436 242.81,25.1436 242.5,23.5 Z"/></g>
<g><path style="opacity:0.996" fill="#7e3610" d="M 198.5,19.5 C 197.489,21.3716 196.655,23.3716 196,25.5C 195.329,26.2524 194.496,26.5858 193.5,26.5C 194.014,24.3016 195.014,22.3016 196.5,20.5C 196.957,19.7025 197.624,19.3691 198.5,19.5 Z"/></g>
<g><path style="opacity:1" fill="#df6320" d="M 233.5,17.5 C 237.043,18.7782 240.043,20.7782 242.5,23.5C 242.81,25.1436 243.81,26.1436 245.5,26.5C 246.473,28.0683 246.64,29.735 246,31.5C 243.517,34.1393 241.684,37.1393 240.5,40.5C 238.469,41.5387 237.136,43.2054 236.5,45.5C 234.75,46.6594 233.75,48.326 233.5,50.5C 231.726,51.3696 230.393,52.703 229.5,54.5C 229.649,53.448 229.483,52.448 229,51.5C 227.316,49.2937 225.149,47.7937 222.5,47C 218.475,41.9972 213.475,38.4972 207.5,36.5C 205.971,36.5288 204.804,37.1955 204,38.5C 203.608,42.0723 201.941,44.7389 199,46.5C 198.375,49.6246 196.541,51.6246 193.5,52.5C 193.733,50.9382 194.4,49.6049 195.5,48.5C 196.512,47.1283 197.512,45.795 198.5,44.5C 200.316,42.8816 201.649,40.8816 202.5,38.5C 202.5,38.1667 202.5,37.8333 202.5,37.5C 205.973,35.3633 208.306,32.3633 209.5,28.5C 214.48,25.523 217.48,21.1897 218.5,15.5C 219.167,14.5 219.833,13.5 220.5,12.5C 221.416,12.0183 222.416,11.685 223.5,11.5C 226.889,13.5227 230.222,15.5227 233.5,17.5 Z"/></g>
<g><path style="opacity:1" fill="#7e340f" d="M 218.5,15.5 C 217.48,21.1897 214.48,25.523 209.5,28.5C 211.956,23.8249 214.956,19.4915 218.5,15.5 Z"/></g>
<g><path style="opacity:0.863" fill="#7a310d" d="M 215.5,5.5 C 216.167,5.5 216.833,5.5 217.5,5.5C 218.598,6.60093 218.765,7.93426 218,9.5C 214.021,15.9667 209.521,21.9667 204.5,27.5C 207.358,21.7964 210.858,16.4631 215,11.5C 216.612,9.54423 216.778,7.54423 215.5,5.5 Z"/></g>
<g><path style="opacity:1" fill="#db6020" d="M 209.5,3.5 C 212.01,3.05351 214.01,3.72017 215.5,5.5C 216.778,7.54423 216.612,9.54423 215,11.5C 210.858,16.4631 207.358,21.7964 204.5,27.5C 202.621,28.8968 200.954,30.5635 199.5,32.5C 199.723,29.8858 198.556,28.2191 196,27.5C 195.578,29.4257 194.411,30.4257 192.5,30.5C 192.833,29.1667 193.167,27.8333 193.5,26.5C 194.496,26.5858 195.329,26.2524 196,25.5C 196.655,23.3716 197.489,21.3716 198.5,19.5C 200.326,17.8525 201.66,15.8525 202.5,13.5C 205.977,11.3599 208.311,8.35995 209.5,4.5C 209.5,4.16667 209.5,3.83333 209.5,3.5 Z"/></g>
<g><path style="opacity:0.929" fill="#60260a" d="M 202.5,13.5 C 201.66,15.8525 200.326,17.8525 198.5,19.5C 198.845,16.8021 200.178,14.8021 202.5,13.5 Z"/></g>
<g><path style="opacity:0.549" fill="#571f09" d="M 233.5,17.5 C 230.222,15.5227 226.889,13.5227 223.5,11.5C 222.416,11.685 221.416,12.0183 220.5,12.5C 220.97,11.3065 221.97,10.6399 223.5,10.5C 227.508,11.84 230.841,14.1733 233.5,17.5 Z"/></g>
<g><path style="opacity:1" fill="#6f2b0d" d="M 209.5,4.5 C 208.311,8.35995 205.977,11.3599 202.5,13.5C 204.177,10.9755 205.677,8.30883 207,5.5C 207.671,4.74756 208.504,4.41423 209.5,4.5 Z"/></g>
<g><path style="opacity:0.624" fill="#491907" d="M 217.5,5.5 C 216.833,5.5 216.167,5.5 215.5,5.5C 214.01,3.72017 212.01,3.05351 209.5,3.5C 212.557,0.964445 215.223,1.63111 217.5,5.5 Z"/></g>
<g><path style="opacity:1" fill="#ea7823" d="M 211.5,79.5 C 209.902,81.6979 208.569,84.0313 207.5,86.5C 204.395,89.2749 202.062,92.6082 200.5,96.5C 200.167,96.5 199.833,96.5 199.5,96.5C 199.286,94.8561 199.62,93.3561 200.5,92C 197.834,88.9957 194.501,86.9957 190.5,86C 186.586,83.0097 182.753,79.843 179,76.5C 177.989,77.3366 176.822,77.67 175.5,77.5C 175.557,76.391 175.89,75.391 176.5,74.5C 177.167,73.1667 178.167,72.1667 179.5,71.5C 181.263,68.9804 183.263,66.6471 185.5,64.5C 186.772,63.3326 188.106,62.4993 189.5,62C 196.733,66.3755 203.733,71.2088 210.5,76.5C 211.386,77.325 211.719,78.325 211.5,79.5 Z"/></g>
<g><path style="opacity:0.855" fill="#75320d" d="M 255.5,43.5 C 249.764,52.4948 243.931,61.4948 238,70.5C 235.386,74.0905 232.552,77.4238 229.5,80.5C 232.746,74.5818 236.413,68.9151 240.5,63.5C 245.5,56.8333 250.5,50.1667 255.5,43.5 Z"/></g>
<g><path style="opacity:1" fill="#9c4714" d="M 233.5,58.5 C 233.5,59.1667 233.5,59.8333 233.5,60.5C 232.026,63.2485 230.026,65.5818 227.5,67.5C 229.504,64.497 231.504,61.497 233.5,58.5 Z"/></g>
<g><path style="opacity:0.918" fill="#70360c" d="M 186.5,60.5 C 186.167,61.8333 185.833,63.1667 185.5,64.5C 183.263,66.6471 181.263,68.9804 179.5,71.5C 180.657,67.0243 182.99,63.3577 186.5,60.5 Z"/></g>
<g><path style="opacity:0.886" fill="#8c4110" d="M 226.5,59.5 C 223.607,65.3883 219.94,70.7217 215.5,75.5C 217.024,71.7978 219.19,68.4645 222,65.5C 222.494,63.8659 222.66,62.1992 222.5,60.5C 223.959,60.5674 225.292,60.2341 226.5,59.5 Z"/></g>
<g><path style="opacity:0.859" fill="#67330a" d="M 165.5,66.5 C 164.396,68.3885 163.063,70.0552 161.5,71.5C 161.67,68.796 163.003,67.1293 165.5,66.5 Z"/></g>
<g><path style="opacity:1" fill="#e57822" d="M 180.5,58.5 C 178.301,61.5655 176.634,64.8988 175.5,68.5C 175.167,68.5 174.833,68.5 174.5,68.5C 172.75,69.6594 171.75,71.326 171.5,73.5C 165.673,79.3317 161.006,85.9984 157.5,93.5C 156.833,93.8333 156.167,94.1667 155.5,94.5C 155.66,92.8008 155.494,91.1341 155,89.5C 154.439,88.9781 153.772,88.6448 153,88.5C 150.332,90.3395 147.832,92.3395 145.5,94.5C 145.733,92.9382 146.4,91.6049 147.5,90.5C 149.543,89.4206 150.876,87.754 151.5,85.5C 154.946,83.3851 157.279,80.3851 158.5,76.5C 158.5,76.1667 158.5,75.8333 158.5,75.5C 159.974,74.5637 160.974,73.2303 161.5,71.5C 163.063,70.0552 164.396,68.3885 165.5,66.5C 165.5,66.1667 165.5,65.8333 165.5,65.5C 168.5,62.1667 171.5,58.8333 174.5,55.5C 178.06,52.6705 180.06,53.6705 180.5,58.5 Z"/></g>
<g><path style="opacity:1" fill="#e06f21" d="M 240.5,63.5 C 236.413,68.9151 232.746,74.5818 229.5,80.5C 228.624,80.3691 227.957,80.7025 227.5,81.5C 225.376,84.2794 223.709,87.2794 222.5,90.5C 219.208,93.0573 216.874,96.3906 215.5,100.5C 214.407,102.349 213.074,104.016 211.5,105.5C 212.161,99.0156 209.827,97.3489 204.5,100.5C 205.68,98.3071 206.68,95.9738 207.5,93.5C 207.957,92.7025 208.624,92.3691 209.5,92.5C 212.605,89.7251 214.938,86.3918 216.5,82.5C 218.316,80.8816 219.649,78.8816 220.5,76.5C 223.185,73.8103 225.518,70.8103 227.5,67.5C 230.026,65.5818 232.026,63.2485 233.5,60.5C 238.254,55.8624 240.587,56.8624 240.5,63.5 Z"/></g>
<g><path style="opacity:0.965" fill="#8d4710" d="M 174.5,68.5 C 174.727,70.9328 173.727,72.5994 171.5,73.5C 171.75,71.326 172.75,69.6594 174.5,68.5 Z"/></g>
<g><path style="opacity:0.953" fill="#692f0b" d="M 227.5,67.5 C 225.518,70.8103 223.185,73.8103 220.5,76.5C 221.75,72.592 224.083,69.592 227.5,67.5 Z"/></g>
<g><path style="opacity:0.894" fill="#67330b" d="M 161.5,71.5 C 160.974,73.2303 159.974,74.5637 158.5,75.5C 158.554,73.368 159.554,72.0347 161.5,71.5 Z"/></g>
<g><path style="opacity:1" fill="#ee7f24" d="M 199.5,96.5 C 195.922,101.32 192.588,106.32 189.5,111.5C 188.5,112.167 187.5,112.833 186.5,113.5C 180.958,107.467 174.624,102.3 167.5,98C 166.667,97.8333 165.833,97.6667 165,97.5C 163.393,98.0735 161.893,98.7402 160.5,99.5C 162.42,96.6612 164.087,93.6612 165.5,90.5C 166.708,89.7659 168.041,89.4326 169.5,89.5C 169.878,87.079 170.545,84.7457 171.5,82.5C 171.833,81.8333 172.167,81.1667 172.5,80.5C 173.728,79.6935 174.728,78.6935 175.5,77.5C 176.822,77.67 177.989,77.3366 179,76.5C 182.753,79.843 186.586,83.0097 190.5,86C 194.501,86.9957 197.834,88.9957 200.5,92C 199.62,93.3561 199.286,94.8561 199.5,96.5 Z"/></g>
<g><path style="opacity:0.816" fill="#592b09" d="M 176.5,74.5 C 175.89,75.391 175.557,76.391 175.5,77.5C 174.728,78.6935 173.728,79.6935 172.5,80.5C 172.87,77.733 174.204,75.733 176.5,74.5 Z"/></g>
<g><path style="opacity:0.863" fill="#5c2a09" d="M 220.5,76.5 C 219.649,78.8816 218.316,80.8816 216.5,82.5C 216.87,79.733 218.204,77.733 220.5,76.5 Z"/></g>
<g><path style="opacity:1" fill="#884611" d="M 158.5,76.5 C 157.279,80.3851 154.946,83.3851 151.5,85.5C 152.415,83.0722 153.582,80.7389 155,78.5C 155.816,77.1772 156.983,76.5106 158.5,76.5 Z"/></g>
<g><path style="opacity:0.961" fill="#82430f" d="M 171.5,73.5 C 167.215,80.4484 162.549,87.1151 157.5,93.5C 161.006,85.9984 165.673,79.3317 171.5,73.5 Z"/></g>
<g><path style="opacity:0.183" fill="#0d0602" d="M 83.5,176.5 C 83.5,177.167 83.5,177.833 83.5,178.5C 82.5592,180.05 81.8925,181.716 81.5,183.5C 78.065,185.955 75.7317,189.288 74.5,193.5C 71.065,195.955 68.7317,199.288 67.5,203.5C 62.6733,206.397 60.6733,210.73 61.5,216.5C 60.564,220.735 60.2307,225.069 60.5,229.5C 59.8826,229.611 59.3826,229.944 59,230.5C 58.5026,233.146 58.3359,235.813 58.5,238.5C 57.8333,245.167 57.1667,251.833 56.5,258.5C 54.5458,263.392 53.5458,268.726 53.5,274.5C 57.1746,274.5 59.8413,272.833 61.5,269.5C 63.0418,268.699 64.7085,268.366 66.5,268.5C 68.9663,267.702 70.9663,266.369 72.5,264.5C 76.7755,263.029 80.7755,261.029 84.5,258.5C 87.4887,258.186 89.822,256.852 91.5,254.5C 94.237,253.969 96.9036,253.136 99.5,252C 102.128,249.841 105.128,248.341 108.5,247.5C 108.863,246.817 109.196,246.15 109.5,245.5C 113.129,245.205 115.129,243.205 115.5,239.5C 117.141,238.853 118.474,237.853 119.5,236.5C 120.167,236.5 120.833,236.5 121.5,236.5C 119.5,239.833 117.5,243.167 115.5,246.5C 121.134,245.023 126.467,242.856 131.5,240C 127.019,240.016 124.685,237.849 124.5,233.5C 156.243,199.464 187.576,164.798 218.5,129.5C 220.143,127.846 221.976,126.513 224,125.5C 225.226,125.645 226.393,125.978 227.5,126.5C 240.818,138.982 254.318,151.315 268,163.5C 268.667,165.5 268.667,167.5 268,169.5C 226.565,190.801 185.065,211.967 143.5,233C 144.167,233.167 144.833,233.333 145.5,233.5C 154.433,229.242 163.433,225.075 172.5,221C 174.701,220.175 176.534,220.675 178,222.5C 178.5,241.164 178.667,259.83 178.5,278.5C 170.981,278.175 163.648,278.508 156.5,279.5C 156.167,279.5 155.833,279.5 155.5,279.5C 152.5,278.167 149.5,278.167 146.5,279.5C 145.5,279.5 144.5,279.5 143.5,279.5C 143.167,278.167 142.833,278.167 142.5,279.5C 115.833,279.5 89.1667,279.5 62.5,279.5C 61.5244,278.185 60.5244,276.852 59.5,275.5C 52.8333,278.833 50.1667,276.833 51.5,269.5C 48.5423,268.892 46.2089,267.392 44.5,265C 32.2252,230.248 20.5586,195.248 9.5,160C 9.64477,158.774 9.9781,157.607 10.5,156.5C 12.6565,155.21 14.9899,154.376 17.5,154C 12.5548,153.727 10.7215,151.227 12,146.5C 29.0862,125.292 46.4195,104.292 64,83.5C 66.4992,82.2022 68.8325,82.5356 71,84.5C 69.1478,98.6652 67.4811,112.999 66,127.5C 64.7844,129.962 64.1177,132.629 64,135.5C 63.0206,137.32 61.5206,138.487 59.5,139C 60.8721,139.402 62.2054,139.902 63.5,140.5C 63.8333,143.5 64.1667,146.5 64.5,149.5C 63.019,169.916 61.519,190.249 60,210.5C 62.2995,204.853 65.4662,199.686 69.5,195C 67.444,194.689 65.444,194.189 63.5,193.5C 62.3452,190.554 62.1786,187.554 63,184.5C 69.873,137.888 76.2063,91.2216 82,44.5C 83.1628,42.7148 83.8295,40.7148 84,38.5C 84.7455,37.0096 85.9121,36.0096 87.5,35.5C 104.657,44.5777 121.657,53.911 138.5,63.5C 138.833,64.5 139.167,65.5 139.5,66.5C 130.122,85.3293 120.289,103.996 110,122.5C 98.6886,142.45 87.3553,162.45 76,182.5C 75.0181,183.759 74.6848,185.092 75,186.5C 77.7579,182.924 80.5912,179.591 83.5,176.5 Z M 124.5,233.5 C 124.685,237.849 127.019,240.016 131.5,240C 126.467,242.856 121.134,245.023 115.5,246.5C 117.5,243.167 119.5,239.833 121.5,236.5C 122.272,235.306 123.272,234.306 124.5,233.5 Z M 135.5,236.5 C 139.221,236.793 139.055,237.459 135,238.5C 134.5,238.333 134,238.167 133.5,238C 134.416,237.722 135.082,237.222 135.5,236.5 Z"/></g>
<g><path style="opacity:0.992" fill="#9d5314" d="M 134.5,70.5 C 133.89,71.391 133.557,72.391 133.5,73.5C 131.17,77.4739 128.837,81.4739 126.5,85.5C 126.167,85.5 125.833,85.5 125.5,85.5C 127.465,79.7297 130.465,74.7297 134.5,70.5 Z"/></g>
<g><path style="opacity:1" fill="#f48a25" d="M 117.5,98.5 C 116.89,99.391 116.557,100.391 116.5,101.5C 112.688,107.814 109.021,114.147 105.5,120.5C 105.896,117.956 105.229,115.789 103.5,114C 96.06,109.405 88.7266,104.572 81.5,99.5C 79.8254,105.628 78.1588,111.628 76.5,117.5C 77.1667,112.5 77.8333,107.5 78.5,102.5C 78.5,100.167 78.5,97.8333 78.5,95.5C 80.0773,91.0766 81.0773,86.4099 81.5,81.5C 81.5,79.8333 81.5,78.1667 81.5,76.5C 82.6737,75.4863 83.3404,74.153 83.5,72.5C 85.045,71.7703 85.8784,70.437 86,68.5C 89.6821,72.8519 94.1821,76.0185 99.5,78C 100.274,80.4397 101.94,81.773 104.5,82C 109.455,85.618 114.121,89.618 118.5,94C 117.62,95.3561 117.286,96.8561 117.5,98.5 Z"/></g>
<g><path style="opacity:1" fill="#9d5614" d="M 84.5,62.5 C 83.9492,65.8067 83.6159,69.1401 83.5,72.5C 83.3404,74.153 82.6737,75.4863 81.5,76.5C 82.1143,72.8648 82.4476,69.1981 82.5,65.5C 83.1667,64.5 83.8333,63.5 84.5,62.5 Z"/></g>
<g><path style="opacity:0.706" fill="#432007" d="M 130.5,62.5 C 132.746,63.4552 135.079,64.1218 137.5,64.5C 137.308,68.1024 135.974,71.1024 133.5,73.5C 133.557,72.391 133.89,71.391 134.5,70.5C 134.678,69.3052 135.011,68.1385 135.5,67C 133.793,65.4907 132.127,63.9907 130.5,62.5 Z"/></g>
<g><path style="opacity:0.875" fill="#5c2e0a" d="M 123.5,58.5 C 126.213,59.3971 128.546,60.7304 130.5,62.5C 127.386,62.4452 125.052,61.1119 123.5,58.5 Z"/></g>
<g><path style="opacity:1" fill="#c66c1c" d="M 92.5,41.5 C 92.5,41.8333 92.5,42.1667 92.5,42.5C 90.8333,42.5 89.1667,42.5 87.5,42.5C 87.1841,47.8444 86.6841,53.1778 86,58.5C 85.7679,59.7375 85.2679,60.7375 84.5,61.5C 84.3424,58.0977 84.6758,54.7644 85.5,51.5C 85.1872,47.9581 85.5206,44.6248 86.5,41.5C 88.4513,40.3586 90.4513,40.3586 92.5,41.5 Z"/></g>
<g><path style="opacity:1" fill="#f28525" d="M 92.5,42.5 C 96.1555,44.9945 100.155,46.9945 104.5,48.5C 107.089,48.461 109.089,49.461 110.5,51.5C 114.099,55.0763 118.432,57.4096 123.5,58.5C 125.052,61.1119 127.386,62.4452 130.5,62.5C 132.127,63.9907 133.793,65.4907 135.5,67C 135.011,68.1385 134.678,69.3052 134.5,70.5C 130.465,74.7297 127.465,79.7297 125.5,85.5C 124.463,86.9303 123.796,88.597 123.5,90.5C 121.952,90.8212 121.285,91.8212 121.5,93.5C 119.461,94.6718 118.128,96.3384 117.5,98.5C 117.286,96.8561 117.62,95.3561 118.5,94C 114.121,89.618 109.455,85.618 104.5,82C 101.94,81.773 100.274,80.4397 99.5,78C 94.1821,76.0185 89.6821,72.8519 86,68.5C 85.8784,70.437 85.045,71.7703 83.5,72.5C 83.6159,69.1401 83.9492,65.8067 84.5,62.5C 84.5,62.1667 84.5,61.8333 84.5,61.5C 85.2679,60.7375 85.7679,59.7375 86,58.5C 86.6841,53.1778 87.1841,47.8444 87.5,42.5C 89.1667,42.5 90.8333,42.5 92.5,42.5 Z"/></g>
<g><path style="opacity:0.965" fill="#64340a" d="M 85.5,51.5 C 84.6758,54.7644 84.3424,58.0977 84.5,61.5C 84.5,61.8333 84.5,62.1667 84.5,62.5C 83.8333,63.5 83.1667,64.5 82.5,65.5C 82.5839,60.3846 83.5839,55.7179 85.5,51.5 Z"/></g>
<g><path style="opacity:0.929" fill="#723a0c" d="M 110.5,51.5 C 115.11,53.4728 119.443,55.8062 123.5,58.5C 118.432,57.4096 114.099,55.0763 110.5,51.5 Z"/></g>
<g><path style="opacity:0.969" fill="#6f390d" d="M 92.5,41.5 C 96.2172,42.9715 99.8839,44.6381 103.5,46.5C 104.298,46.9569 104.631,47.6236 104.5,48.5C 100.155,46.9945 96.1555,44.9945 92.5,42.5C 92.5,42.1667 92.5,41.8333 92.5,41.5 Z"/></g>
<g><path style="opacity:0.843" fill="#62320a" d="M 92.5,41.5 C 90.4513,40.3586 88.4513,40.3586 86.5,41.5C 86.5,40.5 86.5,39.5 86.5,38.5C 89.089,38.461 91.089,39.461 92.5,41.5 Z"/></g>
<g><path style="opacity:0.949" fill="#76370d" d="M 229.5,80.5 C 227.942,84.3886 225.609,87.722 222.5,90.5C 223.709,87.2794 225.376,84.2794 227.5,81.5C 227.957,80.7025 228.624,80.3691 229.5,80.5 Z"/></g>
<g><path style="opacity:0.894" fill="#73370c" d="M 215.5,75.5 C 213.929,80.0554 211.262,83.722 207.5,86.5C 208.569,84.0313 209.902,81.6979 211.5,79.5C 212.473,77.8608 213.806,76.5274 215.5,75.5 Z"/></g>
<g><path style="opacity:0.953" fill="#73370c" d="M 216.5,82.5 C 214.938,86.3918 212.605,89.7251 209.5,92.5C 211.062,88.6082 213.395,85.2749 216.5,82.5 Z"/></g>
<g><path style="opacity:0.98" fill="#703d0c" d="M 81.5,81.5 C 81.0773,86.4099 80.0773,91.0766 78.5,95.5C 78.5839,90.3846 79.5839,85.7179 81.5,81.5 Z"/></g>
<g><path style="opacity:0.698" fill="#532a09" d="M 125.5,85.5 C 125.833,85.5 126.167,85.5 126.5,85.5C 126.727,87.9328 125.727,89.5994 123.5,90.5C 123.796,88.597 124.463,86.9303 125.5,85.5 Z"/></g>
<g><path style="opacity:0.914" fill="#61310a" d="M 151.5,85.5 C 150.876,87.754 149.543,89.4206 147.5,90.5C 148.136,88.2054 149.469,86.5387 151.5,85.5 Z"/></g>
<g><path style="opacity:1" fill="#a15416" d="M 171.5,82.5 C 170.545,84.7457 169.878,87.079 169.5,89.5C 168.041,89.4326 166.708,89.7659 165.5,90.5C 166.385,86.9545 168.385,84.2878 171.5,82.5 Z"/></g>
<g><path style="opacity:0.898" fill="#82410f" d="M 207.5,86.5 C 205.871,90.4399 203.538,93.7733 200.5,96.5C 202.062,92.6082 204.395,89.2749 207.5,86.5 Z"/></g>
<g><path style="opacity:0.996" fill="#8c4e11" d="M 66.5,90.5 C 66.631,89.7611 66.4643,89.0944 66,88.5C 64.3732,89.5323 63.2066,90.8656 62.5,92.5C 61.8333,92.8333 61.1667,93.1667 60.5,93.5C 61.0568,90.9501 62.3901,88.9501 64.5,87.5C 65.1499,87.1961 65.8165,86.8627 66.5,86.5C 67.782,87.9584 67.782,89.2918 66.5,90.5 Z"/></g>
<g><path style="opacity:1" fill="#c7721d" d="M 66.5,90.5 C 66.2434,96.6876 65.5767,102.688 64.5,108.5C 65.1128,102.729 64.4461,97.3958 62.5,92.5C 63.2066,90.8656 64.3732,89.5323 66,88.5C 66.4643,89.0944 66.631,89.7611 66.5,90.5 Z"/></g>
<g><path style="opacity:1" fill="#874810" d="M 123.5,90.5 C 123.573,92.0269 122.906,93.0269 121.5,93.5C 121.285,91.8212 121.952,90.8212 123.5,90.5 Z"/></g>
<g><path style="opacity:0.98" fill="#773e0d" d="M 165.5,90.5 C 164.087,93.6612 162.42,96.6612 160.5,99.5C 158.5,101.5 156.5,103.5 154.5,105.5C 157.436,99.9586 161.103,94.9586 165.5,90.5 Z"/></g>
<g><path style="opacity:0.974" fill="#4f2b09" d="M 62.5,127.5 C 62.4372,122.797 62.7705,118.13 63.5,113.5C 63.2155,111.585 63.5489,109.919 64.5,108.5C 65.5767,102.688 66.2434,96.6876 66.5,90.5C 67.782,89.2918 67.782,87.9584 66.5,86.5C 65.8165,86.8627 65.1499,87.1961 64.5,87.5C 65.1834,85.8235 66.5168,85.1568 68.5,85.5C 67.5924,99.8844 65.5924,113.884 62.5,127.5 Z"/></g>
<g><path style="opacity:0.933" fill="#773a0d" d="M 222.5,90.5 C 220.912,94.4101 218.579,97.7435 215.5,100.5C 216.874,96.3906 219.208,93.0573 222.5,90.5 Z"/></g>
<g><path style="opacity:0.871" fill="#6b3b0c" d="M 60.5,93.5 C 58.8536,96.8102 56.5203,99.4768 53.5,101.5C 53.5394,100.417 53.8728,99.4168 54.5,98.5C 56.3101,96.4689 58.3101,94.8022 60.5,93.5 Z"/></g>
<g><path style="opacity:0.953" fill="#894b10" d="M 121.5,93.5 C 120.32,95.6929 119.32,98.0262 118.5,100.5C 118.043,101.298 117.376,101.631 116.5,101.5C 116.557,100.391 116.89,99.391 117.5,98.5C 118.128,96.3384 119.461,94.6718 121.5,93.5 Z"/></g>
<g><path style="opacity:0.992" fill="#a25815" d="M 143.5,97.5 C 142.66,99.8525 141.326,101.853 139.5,103.5C 139.557,102.391 139.89,101.391 140.5,100.5C 141.167,99.1667 142.167,98.1667 143.5,97.5 Z"/></g>
<g><path style="opacity:0.937" fill="#80410f" d="M 199.5,96.5 C 199.833,96.5 200.167,96.5 200.5,96.5C 199.91,97.766 199.41,99.0993 199,100.5C 196.27,104.684 193.104,108.35 189.5,111.5C 192.588,106.32 195.922,101.32 199.5,96.5 Z"/></g>
<g><path style="opacity:1" fill="#fa932a" d="M 105.5,120.5 C 100.732,128.603 96.3988,136.936 92.5,145.5C 91.4168,145.539 90.4168,145.873 89.5,146.5C 84.8848,143.726 80.3848,140.726 76,137.5C 75.4361,132.806 75.6027,128.14 76.5,123.5C 76.5,121.5 76.5,119.5 76.5,117.5C 78.1588,111.628 79.8254,105.628 81.5,99.5C 88.7266,104.572 96.06,109.405 103.5,114C 105.229,115.789 105.896,117.956 105.5,120.5 Z"/></g>
<g><path style="opacity:0.839" fill="#5e310a" d="M 140.5,100.5 C 139.89,101.391 139.557,102.391 139.5,103.5C 138.728,104.694 137.728,105.694 136.5,106.5C 136.87,103.733 138.204,101.733 140.5,100.5 Z"/></g>
<g><path style="opacity:0.984" fill="#71400f" d="M 53.5,101.5 C 52.8763,103.754 51.543,105.421 49.5,106.5C 50.1355,104.205 51.4689,102.539 53.5,101.5 Z"/></g>
<g><path style="opacity:0.843" fill="#78400e" d="M 157.5,93.5 C 153.241,101.015 148.241,108.015 142.5,114.5C 146.849,107.792 151.182,101.125 155.5,94.5C 156.167,94.1667 156.833,93.8333 157.5,93.5 Z"/></g>
<g><path style="opacity:0.925" fill="#62390f" d="M 49.5,106.5 C 48.3995,107.605 47.7329,108.938 47.5,110.5C 45.8333,111.833 44.1667,113.167 42.5,114.5C 43.7502,112.068 45.2502,109.734 47,107.5C 47.6708,106.748 48.5041,106.414 49.5,106.5 Z"/></g>
<g><path style="opacity:1" fill="#ee8725" d="M 155.5,94.5 C 151.182,101.125 146.849,107.792 142.5,114.5C 136.557,120.998 131.057,127.998 126,135.5C 125.209,136.745 124.709,138.078 124.5,139.5C 120.279,144.248 116.279,149.248 112.5,154.5C 112.5,153.5 112.5,152.5 112.5,151.5C 108.67,151.504 107.67,149.838 109.5,146.5C 110.383,143.296 112.05,140.629 114.5,138.5C 116.199,136.434 117.532,134.1 118.5,131.5C 120.738,130.147 122.071,128.147 122.5,125.5C 124.063,124.055 125.396,122.389 126.5,120.5C 128.5,118.167 130.5,115.833 132.5,113.5C 134.852,111.822 136.186,109.489 136.5,106.5C 137.728,105.694 138.728,104.694 139.5,103.5C 141.326,101.853 142.66,99.8525 143.5,97.5C 143.427,95.9731 144.094,94.9731 145.5,94.5C 147.832,92.3395 150.332,90.3395 153,88.5C 153.772,88.6448 154.439,88.9781 155,89.5C 155.494,91.1341 155.66,92.8008 155.5,94.5 Z"/></g>
<g><path style="opacity:1" fill="#f89630" d="M 62.5,92.5 C 64.4461,97.3958 65.1128,102.729 64.5,108.5C 63.5489,109.919 63.2155,111.585 63.5,113.5C 62.184,116.408 61.184,119.408 60.5,122.5C 55.7343,119.583 51.0677,116.417 46.5,113C 47.2524,112.329 47.5858,111.496 47.5,110.5C 47.7329,108.938 48.3995,107.605 49.5,106.5C 51.543,105.421 52.8763,103.754 53.5,101.5C 56.5203,99.4768 58.8536,96.8102 60.5,93.5C 61.1667,93.1667 61.8333,92.8333 62.5,92.5 Z"/></g>
<g><path style="opacity:0.839" fill="#67360b" d="M 154.5,106.5 C 153.833,107.833 152.833,108.833 151.5,109.5C 151.5,107.5 152.5,106.5 154.5,106.5 Z"/></g>
<g><path style="opacity:0.957" fill="#6f3e0d" d="M 78.5,102.5 C 77.8333,107.5 77.1667,112.5 76.5,117.5C 76.5,119.5 76.5,121.5 76.5,123.5C 75.8333,124.5 75.1667,125.5 74.5,126.5C 75.166,119.843 75.8327,113.177 76.5,106.5C 76.5854,104.667 77.2521,103.334 78.5,102.5 Z"/></g>
<g><path style="opacity:1" fill="#a25915" d="M 136.5,106.5 C 136.186,109.489 134.852,111.822 132.5,113.5C 132.557,112.391 132.89,111.391 133.5,110.5C 133.554,108.368 134.554,107.035 136.5,106.5 Z"/></g>
<g><path style="opacity:0.906" fill="#63340a" d="M 151.5,109.5 C 150.66,111.853 149.326,113.853 147.5,115.5C 147.845,112.802 149.178,110.802 151.5,109.5 Z"/></g>
<g><path style="opacity:0.914" fill="#85440f" d="M 211.5,105.5 C 207.579,112.743 202.913,119.41 197.5,125.5C 198.709,122.279 200.376,119.279 202.5,116.5C 205.228,112.455 208.228,108.788 211.5,105.5 Z"/></g>
<g><path style="opacity:0.89" fill="#61340b" d="M 133.5,110.5 C 132.89,111.391 132.557,112.391 132.5,113.5C 130.5,115.833 128.5,118.167 126.5,120.5C 126.771,118.688 127.438,117.022 128.5,115.5C 129.961,113.53 131.627,111.863 133.5,110.5 Z"/></g>
<g><path style="opacity:0.886" fill="#6b370b" d="M 200.5,106.5 C 197.729,110.39 194.729,114.057 191.5,117.5C 192.343,114.484 193.843,111.817 196,109.5C 197.129,107.859 198.629,106.859 200.5,106.5 Z"/></g>
<g><path style="opacity:0.753" fill="#54320e" d="M 42.5,114.5 C 42.0679,115.71 41.4013,116.71 40.5,117.5C 40.2852,115.821 40.9519,114.821 42.5,114.5 Z"/></g>
<g><path style="opacity:1" fill="#f38925" d="M 186.5,113.5 C 183.833,118.167 181.167,122.833 178.5,127.5C 173.125,133.223 168.458,139.557 164.5,146.5C 162.178,147.802 160.845,149.802 160.5,152.5C 158.806,153.527 157.473,154.861 156.5,156.5C 156.919,153.675 155.919,151.509 153.5,150C 147.652,146.813 142.152,142.979 137,138.5C 136.228,138.355 135.561,138.022 135,137.5C 134.124,139.635 132.624,140.969 130.5,141.5C 131.123,139.289 132.123,137.289 133.5,135.5C 133.5,135.167 133.5,134.833 133.5,134.5C 134.833,133.833 135.833,132.833 136.5,131.5C 138.01,129.678 139.343,127.678 140.5,125.5C 140.5,125.167 140.5,124.833 140.5,124.5C 142.144,124.19 143.144,123.19 143.5,121.5C 145.316,119.882 146.649,117.882 147.5,115.5C 149.326,113.853 150.66,111.853 151.5,109.5C 152.833,108.833 153.833,107.833 154.5,106.5C 154.5,106.167 154.5,105.833 154.5,105.5C 156.5,103.5 158.5,101.5 160.5,99.5C 161.893,98.7402 163.393,98.0735 165,97.5C 165.833,97.6667 166.667,97.8333 167.5,98C 174.624,102.3 180.958,107.467 186.5,113.5 Z"/></g>
<g><path style="opacity:0.91" fill="#81460f" d="M 142.5,114.5 C 137.223,123.401 131.223,131.734 124.5,139.5C 124.709,138.078 125.209,136.745 126,135.5C 131.057,127.998 136.557,120.998 142.5,114.5 Z"/></g>
<g><path style="opacity:1" fill="#bf7526" d="M 63.5,113.5 C 62.7705,118.13 62.4372,122.797 62.5,127.5C 61.5318,129.607 61.1984,131.941 61.5,134.5C 61.1667,134.5 60.8333,134.5 60.5,134.5C 60.5,130.5 60.5,126.5 60.5,122.5C 61.184,119.408 62.184,116.408 63.5,113.5 Z"/></g>
<g><path style="opacity:0.902" fill="#6d3a0b" d="M 147.5,115.5 C 146.649,117.882 145.316,119.882 143.5,121.5C 143.87,118.733 145.204,116.733 147.5,115.5 Z"/></g>
<g><path style="opacity:0.894" fill="#7d420e" d="M 189.5,111.5 C 186.818,117.537 183.151,122.871 178.5,127.5C 181.167,122.833 183.833,118.167 186.5,113.5C 187.5,112.833 188.5,112.167 189.5,111.5 Z"/></g>
<g><path style="opacity:1" fill="#fa9f3f" d="M 47.5,110.5 C 47.5858,111.496 47.2524,112.329 46.5,113C 51.0677,116.417 55.7343,119.583 60.5,122.5C 60.5,126.5 60.5,130.5 60.5,134.5C 55.4199,135.541 50.4199,136.874 45.5,138.5C 44.3052,138.678 43.1385,139.011 42,139.5C 38.7946,136.127 34.9613,133.793 30.5,132.5C 31.9501,131.15 32.6168,129.484 32.5,127.5C 33.5,127.5 34.5,127.5 35.5,127.5C 35.4326,126.041 35.7659,124.708 36.5,123.5C 37.1667,122.167 37.8333,120.833 38.5,119.5C 38.5,118.167 39.1667,117.5 40.5,117.5C 41.4013,116.71 42.0679,115.71 42.5,114.5C 44.1667,113.167 45.8333,111.833 47.5,110.5 Z"/></g>
<g><path style="opacity:0.878" fill="#60330a" d="M 143.5,121.5 C 143.144,123.19 142.144,124.19 140.5,124.5C 140.5,122.5 141.5,121.5 143.5,121.5 Z"/></g>
<g><path style="opacity:0.996" fill="#864711" d="M 191.5,117.5 C 190.406,119.359 189.573,121.359 189,123.5C 188.329,124.252 187.496,124.586 186.5,124.5C 187.014,122.302 188.014,120.302 189.5,118.5C 189.957,117.702 190.624,117.369 191.5,117.5 Z"/></g>
<g><path style="opacity:1" fill="#854c12" d="M 116.5,101.5 C 115.389,106.446 113.556,111.113 111,115.5C 105.353,124.138 100.353,133.138 96,142.5C 94.6412,143.365 93.4745,144.365 92.5,145.5C 96.3988,136.936 100.732,128.603 105.5,120.5C 109.021,114.147 112.688,107.814 116.5,101.5 Z"/></g>
<g><path style="opacity:0.882" fill="#593612" d="M 38.5,119.5 C 37.8333,120.833 37.1667,122.167 36.5,123.5C 34.9699,124.211 33.6366,125.211 32.5,126.5C 33.5655,123.316 35.5655,120.982 38.5,119.5 Z"/></g>
<g><path style="opacity:0.89" fill="#81450f" d="M 197.5,125.5 C 196.513,127.473 195.513,129.473 194.5,131.5C 191.64,135.065 188.64,138.398 185.5,141.5C 188.559,135.344 192.559,130.011 197.5,125.5 Z"/></g>
<g><path style="opacity:0.996" fill="#78410e" d="M 140.5,125.5 C 139.343,127.678 138.01,129.678 136.5,131.5C 136.581,128.487 137.914,126.487 140.5,125.5 Z"/></g>
<g><path style="opacity:1" fill="#ea8023" d="M 211.5,105.5 C 208.228,108.788 205.228,112.455 202.5,116.5C 200.376,119.279 198.709,122.279 197.5,125.5C 192.559,130.011 188.559,135.344 185.5,141.5C 185.167,141.5 184.833,141.5 184.5,141.5C 183.969,139.456 182.802,137.789 181,136.5C 178.57,138.756 176.404,141.09 174.5,143.5C 175.349,140.319 177.015,137.652 179.5,135.5C 179.5,135.167 179.5,134.833 179.5,134.5C 183.413,132.256 185.747,128.923 186.5,124.5C 187.496,124.586 188.329,124.252 189,123.5C 189.573,121.359 190.406,119.359 191.5,117.5C 194.729,114.057 197.729,110.39 200.5,106.5C 200.845,103.802 202.178,101.802 204.5,100.5C 209.827,97.3489 212.161,99.0156 211.5,105.5 Z"/></g>
<g><path style="opacity:0.922" fill="#5e3a16" d="M 31.5,128.5 C 30.8333,129.833 29.8333,130.833 28.5,131.5C 28.5,129.5 29.5,128.5 31.5,128.5 Z"/></g>
<g><path style="opacity:0.898" fill="#66370b" d="M 122.5,125.5 C 122.071,128.147 120.738,130.147 118.5,131.5C 119.298,129.034 120.631,127.034 122.5,125.5 Z"/></g>
<g><path style="opacity:0.949" fill="#69350b" d="M 227.5,131.5 C 224.868,129.937 222.535,130.27 220.5,132.5C 222.404,128.025 224.738,127.691 227.5,131.5 Z"/></g>
<g><path style="opacity:1" fill="#e37a22" d="M 227.5,131.5 C 228.833,132.167 229.833,133.167 230.5,134.5C 231.539,136.531 233.205,137.864 235.5,138.5C 237.341,139.402 238.674,140.736 239.5,142.5C 240.539,144.531 242.205,145.864 244.5,146.5C 245.262,148.262 246.596,149.262 248.5,149.5C 248.738,151.404 249.738,152.738 251.5,153.5C 251.973,154.906 252.973,155.573 254.5,155.5C 256.403,156.947 258.07,158.614 259.5,160.5C 259.5,160.833 259.5,161.167 259.5,161.5C 257.801,161.66 256.134,161.494 254.5,161C 246.783,154.819 238.783,149.153 230.5,144C 227.349,140.178 223.349,137.678 218.5,136.5C 218.733,134.938 219.4,133.605 220.5,132.5C 222.535,130.27 224.868,129.937 227.5,131.5 Z"/></g>
<g><path style="opacity:0.796" fill="#5f3309" d="M 136.5,131.5 C 135.833,132.833 134.833,133.833 133.5,134.5C 133.5,132.5 134.5,131.5 136.5,131.5 Z"/></g>
<g><path style="opacity:0.918" fill="#864810" d="M 186.5,124.5 C 185.747,128.923 183.413,132.256 179.5,134.5C 180.775,130.421 183.108,127.088 186.5,124.5 Z"/></g>
<g><path style="opacity:1" fill="#f2a14b" d="M 36.5,123.5 C 35.7659,124.708 35.4326,126.041 35.5,127.5C 34.5,127.5 33.5,127.5 32.5,127.5C 32.6168,129.484 31.9501,131.15 30.5,132.5C 34.9613,133.793 38.7946,136.127 42,139.5C 43.1385,139.011 44.3052,138.678 45.5,138.5C 40.1183,140.588 34.7849,142.921 29.5,145.5C 25.6547,145.288 22.3214,146.288 19.5,148.5C 19.1667,148.5 18.8333,148.5 18.5,148.5C 17.6236,148.631 16.9569,148.298 16.5,147.5C 17.7629,145.971 18.7629,144.305 19.5,142.5C 23.285,139.45 26.285,135.783 28.5,131.5C 29.8333,130.833 30.8333,129.833 31.5,128.5C 31.3284,127.508 31.6618,126.842 32.5,126.5C 33.6366,125.211 34.9699,124.211 36.5,123.5 Z"/></g>
<g><path style="opacity:0.831" fill="#552b08" d="M 220.5,132.5 C 219.4,133.605 218.733,134.938 218.5,136.5C 216.859,137.147 215.526,138.147 214.5,139.5C 215.139,137.24 216.306,135.24 218,133.5C 218.671,132.748 219.504,132.414 220.5,132.5 Z"/></g>
<g><path style="opacity:0.149" fill="#170b02" d="M 248.5,28.5 C 249.417,30.6618 249.417,32.9952 248.5,35.5C 247.4,36.6049 246.733,37.9382 246.5,39.5C 245.89,40.391 245.557,41.391 245.5,42.5C 242.027,44.6367 239.694,47.6367 238.5,51.5C 236.204,52.733 234.87,54.733 234.5,57.5C 234.5,58.1667 234.167,58.5 233.5,58.5C 231.504,61.497 229.504,64.497 227.5,67.5C 224.083,69.592 221.75,72.592 220.5,76.5C 218.204,77.733 216.87,79.733 216.5,82.5C 213.395,85.2749 211.062,88.6082 209.5,92.5C 208.624,92.3691 207.957,92.7025 207.5,93.5C 206.68,95.9738 205.68,98.3071 204.5,100.5C 202.178,101.802 200.845,103.802 200.5,106.5C 198.629,106.859 197.129,107.859 196,109.5C 193.843,111.817 192.343,114.484 191.5,117.5C 190.624,117.369 189.957,117.702 189.5,118.5C 188.014,120.302 187.014,122.302 186.5,124.5C 183.108,127.088 180.775,130.421 179.5,134.5C 179.5,134.833 179.5,135.167 179.5,135.5C 175.512,137.112 173.179,140.112 172.5,144.5C 170.413,145.585 169.08,147.251 168.5,149.5C 166.17,152.785 163.837,156.118 161.5,159.5C 161.5,159.833 161.5,160.167 161.5,160.5C 159.5,160.5 158.5,161.5 158.5,163.5C 156.204,164.733 154.87,166.733 154.5,169.5C 152.554,170.035 151.554,171.368 151.5,173.5C 149.413,174.585 148.08,176.251 147.5,178.5C 147.5,178.833 147.5,179.167 147.5,179.5C 144.465,181.879 142.131,184.879 140.5,188.5C 138.204,189.733 136.87,191.733 136.5,194.5C 133.065,196.955 130.732,200.288 129.5,204.5C 126.489,206.86 124.155,209.86 122.5,213.5C 120.204,214.733 118.87,216.733 118.5,219.5C 117.89,220.391 117.557,221.391 117.5,222.5C 115.806,223.527 114.473,224.861 113.5,226.5C 109.398,230.605 106.065,235.271 103.5,240.5C 97.148,243.171 90.8147,245.838 84.5,248.5C 82.1523,248.592 80.4856,249.592 79.5,251.5C 75.7809,252.519 72.1143,253.852 68.5,255.5C 67.5233,252.713 67.19,249.713 67.5,246.5C 68.1225,235.779 69.1225,225.112 70.5,214.5C 71.8149,213.524 73.1482,212.524 74.5,211.5C 76.4737,207.213 79.1404,203.546 82.5,200.5C 83.3764,200.369 84.0431,200.702 84.5,201.5C 83.4412,203.534 82.4412,205.534 81.5,207.5C 79.7497,208.659 78.7497,210.326 78.5,212.5C 77.5041,212.414 76.6708,212.748 76,213.5C 75.2838,215.879 74.1172,217.879 72.5,219.5C 71.506,229.319 71.1726,239.319 71.5,249.5C 74.716,249.655 77.3826,248.655 79.5,246.5C 82.3973,245.871 85.064,244.871 87.5,243.5C 88.5676,242.566 89.901,242.232 91.5,242.5C 94.1573,242.065 96.4907,241.065 98.5,239.5C 98.8333,238.833 99.1667,238.167 99.5,237.5C 105.293,232.034 109.959,225.701 113.5,218.5C 119.57,210.055 125.904,201.722 132.5,193.5C 136.176,188.321 139.51,182.988 142.5,177.5C 146.262,174.722 148.929,171.055 150.5,166.5C 154.321,162.194 157.655,157.527 160.5,152.5C 162.369,150.966 163.702,148.966 164.5,146.5C 169.907,140.753 174.573,134.42 178.5,127.5C 183.151,122.871 186.818,117.537 189.5,111.5C 193.104,108.35 196.27,104.684 199,100.5C 199.41,99.0993 199.91,97.766 200.5,96.5C 203.538,93.7733 205.871,90.4399 207.5,86.5C 211.262,83.722 213.929,80.0554 215.5,75.5C 219.94,70.7217 223.607,65.3883 226.5,59.5C 229.917,57.408 232.25,54.408 233.5,50.5C 235.25,49.3406 236.25,47.674 236.5,45.5C 238.522,44.493 239.855,42.8263 240.5,40.5C 243.944,37.0493 246.61,33.0493 248.5,28.5 Z"/></g>
<g><path style="opacity:1" fill="#975613" d="M 118.5,131.5 C 117.532,134.1 116.199,136.434 114.5,138.5C 114.557,137.391 114.89,136.391 115.5,135.5C 115.738,133.596 116.738,132.262 118.5,131.5 Z"/></g>
<g><path style="opacity:1" fill="#f28c28" d="M 184.5,141.5 C 179.747,147.915 175.413,154.581 171.5,161.5C 169.457,162.579 168.124,164.246 167.5,166.5C 163.99,169.358 161.657,173.024 160.5,177.5C 157.444,179.949 155.111,182.949 153.5,186.5C 151.806,187.527 150.473,188.861 149.5,190.5C 146.991,189.318 145.657,187.318 145.5,184.5C 145.893,182.716 146.559,181.05 147.5,179.5C 147.5,179.167 147.5,178.833 147.5,178.5C 149.587,177.415 150.92,175.749 151.5,173.5C 152.974,172.564 153.974,171.23 154.5,169.5C 155.728,168.694 156.728,167.694 157.5,166.5C 159.738,165.147 161.071,163.147 161.5,160.5C 161.5,160.167 161.5,159.833 161.5,159.5C 165.413,157.256 167.747,153.923 168.5,149.5C 170.587,148.415 171.92,146.749 172.5,144.5C 173.167,144.167 173.833,143.833 174.5,143.5C 176.404,141.09 178.57,138.756 181,136.5C 182.802,137.789 183.969,139.456 184.5,141.5 Z"/></g>
<g><path style="opacity:0.855" fill="#66421b" d="M 28.5,131.5 C 26.285,135.783 23.285,139.45 19.5,142.5C 21.1221,138.731 23.2888,135.398 26,132.5C 26.6708,131.748 27.5041,131.414 28.5,131.5 Z"/></g>
<g><path style="opacity:0.953" fill="#653d12" d="M 74.5,130.5 C 73.9513,135.553 73.2846,140.553 72.5,145.5C 72.1667,145.5 71.8333,145.5 71.5,145.5C 72.0355,141.181 72.5355,136.848 73,132.5C 73.2784,131.584 73.7784,130.918 74.5,130.5 Z"/></g>
<g><path style="opacity:0.898" fill="#82470f" d="M 178.5,127.5 C 174.573,134.42 169.907,140.753 164.5,146.5C 168.458,139.557 173.125,133.223 178.5,127.5 Z"/></g>
<g><path style="opacity:0.89" fill="#723a0d" d="M 230.5,134.5 C 232.826,135.145 234.493,136.478 235.5,138.5C 233.205,137.864 231.539,136.531 230.5,134.5 Z"/></g>
<g><path style="opacity:0.859" fill="#68370b" d="M 179.5,135.5 C 177.015,137.652 175.349,140.319 174.5,143.5C 173.833,143.833 173.167,144.167 172.5,144.5C 173.179,140.112 175.512,137.112 179.5,135.5 Z"/></g>
<g><path style="opacity:1" fill="#75400e" d="M 133.5,135.5 C 132.123,137.289 131.123,139.289 130.5,141.5C 128.97,142.211 127.637,143.211 126.5,144.5C 127.862,141.743 129.362,139.076 131,136.5C 131.671,135.748 132.504,135.414 133.5,135.5 Z"/></g>
<g><path style="opacity:1" fill="#f79027" d="M 156.5,156.5 C 154.075,159.589 152.075,162.922 150.5,166.5C 148.605,167.973 146.939,169.64 145.5,171.5C 145.66,169.801 145.494,168.134 145,166.5C 138.352,161.009 131.352,156.009 124,151.5C 123.26,153.319 122.093,154.652 120.5,155.5C 120.893,153.716 121.559,152.05 122.5,150.5C 124.316,148.882 125.649,146.882 126.5,144.5C 127.637,143.211 128.97,142.211 130.5,141.5C 132.624,140.969 134.124,139.635 135,137.5C 135.561,138.022 136.228,138.355 137,138.5C 142.152,142.979 147.652,146.813 153.5,150C 155.919,151.509 156.919,153.675 156.5,156.5 Z"/></g>
<g><path style="opacity:0.914" fill="#532a08" d="M 214.5,139.5 C 213.833,140.833 212.833,141.833 211.5,142.5C 211.5,140.5 212.5,139.5 214.5,139.5 Z"/></g>
<g><path style="opacity:0.843" fill="#633f18" d="M 60.5,134.5 C 60.8333,134.5 61.1667,134.5 61.5,134.5C 51.2453,139.018 40.5786,142.685 29.5,145.5C 34.7849,142.921 40.1183,140.588 45.5,138.5C 50.4199,136.874 55.4199,135.541 60.5,134.5 Z"/></g>
<g><path style="opacity:0.941" fill="#5e3a13" d="M 58.5,143.5 C 59.5676,142.566 60.901,142.232 62.5,142.5C 62.7845,144.415 62.4511,146.081 61.5,147.5C 61.5,146.167 61.5,144.833 61.5,143.5C 60.5,143.5 59.5,143.5 58.5,143.5 Z"/></g>
<g><path style="opacity:0.969" fill="#81430f" d="M 239.5,142.5 C 241.754,143.124 243.421,144.457 244.5,146.5C 242.205,145.864 240.539,144.531 239.5,142.5 Z"/></g>
<g><path style="opacity:0.953" fill="#633e17" d="M 58.5,143.5 C 58.5,143.833 58.5,144.167 58.5,144.5C 55.5,145.167 52.5,145.833 49.5,146.5C 52.0076,144.446 55.0076,143.446 58.5,143.5 Z"/></g>
<g><path style="opacity:0.992" fill="#82470f" d="M 172.5,144.5 C 171.92,146.749 170.587,148.415 168.5,149.5C 169.08,147.251 170.413,145.585 172.5,144.5 Z"/></g>
<g><path style="opacity:0.988" fill="#8a5c2b" d="M 29.5,145.5 C 26.3582,146.79 23.0248,147.79 19.5,148.5C 22.3214,146.288 25.6547,145.288 29.5,145.5 Z"/></g>
<g><path style="opacity:1" fill="#f89e3f" d="M 76.5,123.5 C 75.6027,128.14 75.4361,132.806 76,137.5C 80.3848,140.726 84.8848,143.726 89.5,146.5C 90.4168,145.873 91.4168,145.539 92.5,145.5C 90.4844,149.531 88.4844,153.531 86.5,157.5C 85.6236,157.369 84.9569,157.702 84.5,158.5C 83.1469,161.19 81.8136,163.856 80.5,166.5C 80.1667,166.5 79.8333,166.5 79.5,166.5C 76.5708,164.671 73.9041,162.671 71.5,160.5C 72.0534,155.518 72.3867,150.518 72.5,145.5C 73.2846,140.553 73.9513,135.553 74.5,130.5C 74.5,129.167 74.5,127.833 74.5,126.5C 75.1667,125.5 75.8333,124.5 76.5,123.5 Z"/></g>
<g><path style="opacity:0.945" fill="#6b3e10" d="M 115.5,135.5 C 114.89,136.391 114.557,137.391 114.5,138.5C 112.05,140.629 110.383,143.296 109.5,146.5C 106.5,149.833 103.5,153.167 100.5,156.5C 103.815,151.213 107.149,145.88 110.5,140.5C 111.961,138.53 113.627,136.863 115.5,135.5 Z"/></g>
<g><path style="opacity:0.984" fill="#865a2b" d="M 19.5,142.5 C 18.7629,144.305 17.7629,145.971 16.5,147.5C 16.9569,148.298 17.6236,148.631 18.5,148.5C 18.5,148.833 18.5,149.167 18.5,149.5C 17.5,149.5 16.5,149.5 15.5,149.5C 15.5,148.5 15.5,147.5 15.5,146.5C 16.4023,144.659 17.7356,143.326 19.5,142.5 Z"/></g>
<g><path style="opacity:0.839" fill="#562f0a" d="M 126.5,144.5 C 125.649,146.882 124.316,148.882 122.5,150.5C 122.87,147.733 124.204,145.733 126.5,144.5 Z"/></g>
<g><path style="opacity:0.965" fill="#743d0d" d="M 211.5,142.5 C 210.243,145.427 208.243,147.761 205.5,149.5C 206.757,146.573 208.757,144.239 211.5,142.5 Z"/></g>
<g><path style="opacity:1" fill="#f18525" d="M 218.5,136.5 C 223.349,137.678 227.349,140.178 230.5,144C 238.783,149.153 246.783,154.819 254.5,161C 256.134,161.494 257.801,161.66 259.5,161.5C 261.323,162.493 262.656,163.993 263.5,166C 260.33,168.341 257.33,170.841 254.5,173.5C 254.167,173.5 253.833,173.5 253.5,173.5C 248.163,174.153 243.83,176.486 240.5,180.5C 240.167,180.5 239.833,180.5 239.5,180.5C 238.292,181.234 236.959,181.567 235.5,181.5C 236.23,180.288 237.23,179.288 238.5,178.5C 227.974,170.474 217.307,162.64 206.5,155C 204.803,154.616 203.137,154.782 201.5,155.5C 202.441,153.228 203.774,151.228 205.5,149.5C 208.243,147.761 210.243,145.427 211.5,142.5C 212.833,141.833 213.833,140.833 214.5,139.5C 215.526,138.147 216.859,137.147 218.5,136.5 Z"/></g>
<g><path style="opacity:0.773" fill="#422b13" d="M 15.5,146.5 C 15.5,147.5 15.5,148.5 15.5,149.5C 16.5,149.5 17.5,149.5 18.5,149.5C 17.0813,150.451 15.4147,150.784 13.5,150.5C 13.2291,148.62 13.8958,147.287 15.5,146.5 Z"/></g>
<g><path style="opacity:1" fill="#b37636" d="M 49.5,146.5 C 45.927,149.043 41.927,150.71 37.5,151.5C 37.5,151.167 37.5,150.833 37.5,150.5C 41.3251,148.683 45.3251,147.35 49.5,146.5 Z"/></g>
<g><path style="opacity:0.843" fill="#81470f" d="M 164.5,146.5 C 163.702,148.966 162.369,150.966 160.5,152.5C 160.845,149.802 162.178,147.802 164.5,146.5 Z"/></g>
<g><path style="opacity:0.973" fill="#6d380b" d="M 248.5,149.5 C 250.262,150.262 251.262,151.596 251.5,153.5C 249.738,152.738 248.738,151.404 248.5,149.5 Z"/></g>
<g><path style="opacity:0.953" fill="#5b3c1a" d="M 37.5,150.5 C 37.5,150.833 37.5,151.167 37.5,151.5C 35.8828,152.038 34.2161,152.371 32.5,152.5C 31.1667,152.833 29.8333,153.167 28.5,153.5C 31.0076,151.446 34.0076,150.446 37.5,150.5 Z"/></g>
<g><path style="opacity:0.929" fill="#844d14" d="M 124.5,139.5 C 120.273,147.059 115.273,154.059 109.5,160.5C 109.975,158.216 110.975,156.216 112.5,154.5C 116.279,149.248 120.279,144.248 124.5,139.5 Z"/></g>
<g><path style="opacity:1" fill="#ab6d2b" d="M 71.5,145.5 C 71.8333,145.5 72.1667,145.5 72.5,145.5C 72.3867,150.518 72.0534,155.518 71.5,160.5C 71.1667,160.5 70.8333,160.5 70.5,160.5C 70.5,157.833 70.5,155.167 70.5,152.5C 71.4682,150.393 71.8016,148.059 71.5,145.5 Z"/></g>
<g><path style="opacity:1" fill="#995514" d="M 168.5,149.5 C 167.747,153.923 165.413,157.256 161.5,159.5C 163.837,156.118 166.17,152.785 168.5,149.5 Z"/></g>
<g><path style="opacity:0.918" fill="#874a0f" d="M 184.5,141.5 C 184.833,141.5 185.167,141.5 185.5,141.5C 184.291,144.721 182.624,147.721 180.5,150.5C 177.772,154.545 174.772,158.212 171.5,161.5C 175.413,154.581 179.747,147.915 184.5,141.5 Z"/></g>
<g><path style="opacity:0.82" fill="#713a0b" d="M 251.5,153.5 C 253.027,153.427 254.027,154.094 254.5,155.5C 252.973,155.573 251.973,154.906 251.5,153.5 Z"/></g>
<g><path style="opacity:0.992" fill="#824d16" d="M 122.5,150.5 C 121.559,152.05 120.893,153.716 120.5,155.5C 117.775,157.99 115.775,160.99 114.5,164.5C 113.333,166.041 112,167.375 110.5,168.5C 113.941,163.033 117.108,157.366 120,151.5C 120.671,150.748 121.504,150.414 122.5,150.5 Z"/></g>
<g><path style="opacity:1" fill="#f68c26" d="M 235.5,181.5 C 234.167,182.167 233.167,183.167 232.5,184.5C 232.167,184.5 231.833,184.5 231.5,184.5C 227.299,185.223 223.632,186.89 220.5,189.5C 217.07,190.123 214.404,191.789 212.5,194.5C 210.5,195.167 208.5,195.833 206.5,196.5C 200.862,198.652 195.529,201.319 190.5,204.5C 189.305,204.678 188.138,205.011 187,205.5C 180.892,201.53 175.058,197.197 169.5,192.5C 170.63,191.378 171.297,190.044 171.5,188.5C 173.733,184.922 176.399,181.588 179.5,178.5C 185.11,173.916 189.776,168.582 193.5,162.5C 193.5,161.167 194.167,160.5 195.5,160.5C 197.5,158.833 199.5,157.167 201.5,155.5C 203.137,154.782 204.803,154.616 206.5,155C 217.307,162.64 227.974,170.474 238.5,178.5C 237.23,179.288 236.23,180.288 235.5,181.5 Z"/></g>
<g><path style="opacity:1" fill="#fdad57" d="M 58.5,144.5 C 59.6491,144.791 60.3158,145.624 60.5,147C 58.9791,153.751 58.3125,160.584 58.5,167.5C 58.5,168.833 58.5,170.167 58.5,171.5C 57.5655,172.568 57.2322,173.901 57.5,175.5C 56.6981,176.952 56.1981,178.618 56,180.5C 46.9527,174.795 38.4527,168.295 30.5,161C 27.6783,159.378 24.6783,158.211 21.5,157.5C 25.2968,156.017 28.9635,154.35 32.5,152.5C 34.2161,152.371 35.8828,152.038 37.5,151.5C 41.927,150.71 45.927,149.043 49.5,146.5C 52.5,145.833 55.5,145.167 58.5,144.5 Z"/></g>
<g><path style="opacity:0.984" fill="#6c390c" d="M 205.5,149.5 C 203.774,151.228 202.441,153.228 201.5,155.5C 199.5,157.167 197.5,158.833 195.5,160.5C 197.423,157.397 199.59,154.397 202,151.5C 202.816,150.177 203.983,149.511 205.5,149.5 Z"/></g>
<g><path style="opacity:1" fill="#8f6130" d="M 32.5,152.5 C 28.9635,154.35 25.2968,156.017 21.5,157.5C 20.1667,157.5 18.8333,157.5 17.5,157.5C 20.6892,155.11 24.3559,153.777 28.5,153.5C 29.8333,153.167 31.1667,152.833 32.5,152.5 Z"/></g>
<g><path style="opacity:1" fill="#f59a38" d="M 109.5,146.5 C 107.67,149.838 108.67,151.504 112.5,151.5C 112.5,152.5 112.5,153.5 112.5,154.5C 110.975,156.216 109.975,158.216 109.5,160.5C 108.624,160.369 107.957,160.702 107.5,161.5C 105.376,164.279 103.709,167.279 102.5,170.5C 101.222,170.782 100.222,171.449 99.5,172.5C 98.4125,171 97.0792,169.667 95.5,168.5C 96.3195,166.026 97.3195,163.693 98.5,161.5C 98.5569,160.391 98.8902,159.391 99.5,158.5C 99.3284,157.508 99.6618,156.842 100.5,156.5C 103.5,153.167 106.5,149.833 109.5,146.5 Z"/></g>
<g><path style="opacity:1" fill="#cf883d" d="M 58.5,144.5 C 58.5,144.167 58.5,143.833 58.5,143.5C 59.5,143.5 60.5,143.5 61.5,143.5C 61.5,144.833 61.5,146.167 61.5,147.5C 61.5,150.5 61.5,153.5 61.5,156.5C 59.8746,159.891 58.8746,163.558 58.5,167.5C 58.3125,160.584 58.9791,153.751 60.5,147C 60.3158,145.624 59.6491,144.791 58.5,144.5 Z"/></g>
<g><path style="opacity:1" fill="#fb9932" d="M 145.5,171.5 C 144.471,173.517 143.471,175.517 142.5,177.5C 140.806,178.527 139.473,179.861 138.5,181.5C 130.457,175.83 122.457,170.164 114.5,164.5C 115.775,160.99 117.775,157.99 120.5,155.5C 122.093,154.652 123.26,153.319 124,151.5C 131.352,156.009 138.352,161.009 145,166.5C 145.494,168.134 145.66,169.801 145.5,171.5 Z"/></g>
<g><path style="opacity:0.906" fill="#8e5011" d="M 160.5,152.5 C 157.655,157.527 154.321,162.194 150.5,166.5C 152.075,162.922 154.075,159.589 156.5,156.5C 157.473,154.861 158.806,153.527 160.5,152.5 Z"/></g>
<g><path style="opacity:0.949" fill="#513212" d="M 70.5,152.5 C 70.5,155.167 70.5,157.833 70.5,160.5C 70.3713,162.216 70.038,163.883 69.5,165.5C 69.1667,165.5 68.8333,165.5 68.5,165.5C 68.7704,160.972 69.4371,156.639 70.5,152.5 Z"/></g>
<g><path style="opacity:0.843" fill="#694118" d="M 86.5,157.5 C 86.2042,161.789 84.2042,164.789 80.5,166.5C 81.8136,163.856 83.1469,161.19 84.5,158.5C 84.9569,157.702 85.6236,157.369 86.5,157.5 Z"/></g>
<g><path style="opacity:1" fill="#fdb363" d="M 17.5,157.5 C 18.8333,157.5 20.1667,157.5 21.5,157.5C 24.6783,158.211 27.6783,159.378 30.5,161C 38.4527,168.295 46.9527,174.795 56,180.5C 56.1981,178.618 56.6981,176.952 57.5,175.5C 57.1109,182.339 56.4442,189.006 55.5,195.5C 54.6981,196.952 54.1981,198.618 54,200.5C 51.5,198 49,195.5 46.5,193C 36.958,186.923 27.6247,180.756 18.5,174.5C 18.5,173.833 18.1667,173.5 17.5,173.5C 15.874,168.704 14.874,163.704 14.5,158.5C 15.791,158.737 16.791,158.404 17.5,157.5 Z"/></g>
<g><path style="opacity:0.816" fill="#5f3a13" d="M 99.5,158.5 C 98.8902,159.391 98.5569,160.391 98.5,161.5C 96.5,163.5 94.5,165.5 92.5,167.5C 93.7497,163.592 96.083,160.592 99.5,158.5 Z"/></g>
<g><path style="opacity:0.898" fill="#864a0f" d="M 171.5,161.5 C 170.864,163.795 169.531,165.461 167.5,166.5C 168.124,164.246 169.457,162.579 171.5,161.5 Z"/></g>
<g><path style="opacity:0.745" fill="#784a18" d="M 109.5,160.5 C 108.209,164.604 105.876,167.938 102.5,170.5C 103.709,167.279 105.376,164.279 107.5,161.5C 107.957,160.702 108.624,160.369 109.5,160.5 Z"/></g>
<g><path style="opacity:1" fill="#a75f16" d="M 161.5,160.5 C 161.071,163.147 159.738,165.147 157.5,166.5C 157.557,165.391 157.89,164.391 158.5,163.5C 158.5,161.5 159.5,160.5 161.5,160.5 Z"/></g>
<g><path style="opacity:0.984" fill="#82440f" d="M 259.5,160.5 C 263.438,161.765 265.438,164.432 265.5,168.5C 261.86,170.118 258.193,171.785 254.5,173.5C 257.33,170.841 260.33,168.341 263.5,166C 262.656,163.993 261.323,162.493 259.5,161.5C 259.5,161.167 259.5,160.833 259.5,160.5 Z"/></g>
<g><path style="opacity:1" fill="#734f2a" d="M 17.5,157.5 C 16.791,158.404 15.791,158.737 14.5,158.5C 14.874,163.704 15.874,168.704 17.5,173.5C 16.4138,173.38 15.7472,172.713 15.5,171.5C 14.3098,167.715 13.3098,163.882 12.5,160C 13.385,157.843 15.0516,157.01 17.5,157.5 Z"/></g>
<g><path style="opacity:0.898" fill="#64370a" d="M 158.5,163.5 C 157.89,164.391 157.557,165.391 157.5,166.5C 156.728,167.694 155.728,168.694 154.5,169.5C 154.87,166.733 156.204,164.733 158.5,163.5 Z"/></g>
<g><path style="opacity:0.98" fill="#946029" d="M 79.5,166.5 C 79.8333,166.5 80.1667,166.5 80.5,166.5C 80.2927,169.241 79.2927,171.574 77.5,173.5C 77.767,171.035 78.4336,168.701 79.5,166.5 Z"/></g>
<g><path style="opacity:0.933" fill="#925212" d="M 167.5,166.5 C 165.554,170.439 163.221,174.106 160.5,177.5C 161.657,173.024 163.99,169.358 167.5,166.5 Z"/></g>
<g><path style="opacity:1" fill="#874b10" d="M 193.5,162.5 C 189.776,168.582 185.11,173.916 179.5,178.5C 182.773,174.213 186.107,169.88 189.5,165.5C 190.642,164.174 191.976,163.174 193.5,162.5 Z"/></g>
<g><path style="opacity:1" fill="#f5a44e" d="M 70.5,160.5 C 70.8333,160.5 71.1667,160.5 71.5,160.5C 73.9041,162.671 76.5708,164.671 79.5,166.5C 78.4336,168.701 77.767,171.035 77.5,173.5C 77.1667,173.5 76.8333,173.5 76.5,173.5C 74.9925,175.181 73.9925,177.181 73.5,179.5C 71.8454,182.056 70.1787,184.723 68.5,187.5C 67.5713,186.311 67.238,184.978 67.5,183.5C 67.5,182.833 67.5,182.167 67.5,181.5C 69.2604,176.447 69.927,171.114 69.5,165.5C 70.038,163.883 70.3713,162.216 70.5,160.5 Z"/></g>
<g><path style="opacity:0.902" fill="#6f3f0d" d="M 154.5,169.5 C 153.974,171.23 152.974,172.564 151.5,173.5C 151.554,171.368 152.554,170.035 154.5,169.5 Z"/></g>
<g><path style="opacity:0.929" fill="#83521f" d="M 102.5,170.5 C 101.855,172.826 100.522,174.493 98.5,175.5C 99.1098,174.609 99.4431,173.609 99.5,172.5C 100.222,171.449 101.222,170.782 102.5,170.5 Z"/></g>
<g><path style="opacity:0.898" fill="#7f4a13" d="M 150.5,166.5 C 148.929,171.055 146.262,174.722 142.5,177.5C 143.471,175.517 144.471,173.517 145.5,171.5C 146.939,169.64 148.605,167.973 150.5,166.5 Z"/></g>
<g><path style="opacity:0.933" fill="#70410f" d="M 151.5,173.5 C 150.92,175.749 149.587,177.415 147.5,178.5C 148.08,176.251 149.413,174.585 151.5,173.5 Z"/></g>
<g><path style="opacity:1" fill="#854710" d="M 253.5,173.5 C 249.121,175.636 244.788,177.969 240.5,180.5C 243.83,176.486 248.163,174.153 253.5,173.5 Z"/></g>
<g><path style="opacity:0.918" fill="#7a5630" d="M 17.5,173.5 C 18.1667,173.5 18.5,173.833 18.5,174.5C 19.3007,176.042 19.634,177.708 19.5,179.5C 17.9261,177.898 17.2594,175.898 17.5,173.5 Z"/></g>
<g><path style="opacity:0.98" fill="#a46d32" d="M 76.5,173.5 C 76.539,176.089 75.539,178.089 73.5,179.5C 73.9925,177.181 74.9925,175.181 76.5,173.5 Z"/></g>
<g><path style="opacity:0.969" fill="#7c5021" d="M 89.5,171.5 C 88.9213,174.331 87.588,176.664 85.5,178.5C 86.0787,175.669 87.412,173.336 89.5,171.5 Z"/></g>
<g><path style="opacity:1" fill="#fca343" d="M 114.5,164.5 C 122.457,170.164 130.457,175.83 138.5,181.5C 134.746,187.342 130.746,193.009 126.5,198.5C 124.821,198.108 123.154,197.608 121.5,197C 115.472,191.623 108.805,186.956 101.5,183C 102.252,182.329 102.586,181.496 102.5,180.5C 102.893,178.716 103.559,177.05 104.5,175.5C 106.263,172.98 108.263,170.647 110.5,168.5C 112,167.375 113.333,166.041 114.5,164.5 Z"/></g>
<g><path style="opacity:0.835" fill="#865826" d="M 98.5,175.5 C 94.9825,183.01 90.3158,189.676 84.5,195.5C 87.0728,190.69 89.9062,186.023 93,181.5C 95.068,179.604 96.9013,177.604 98.5,175.5 Z"/></g>
<g><path style="opacity:0.792" fill="#7b4712" d="M 160.5,177.5 C 158.869,181.121 156.535,184.121 153.5,186.5C 155.111,182.949 157.444,179.949 160.5,177.5 Z"/></g>
<g><path style="opacity:1" fill="#a46e34" d="M 68.5,165.5 C 68.8333,165.5 69.1667,165.5 69.5,165.5C 69.927,171.114 69.2604,176.447 67.5,181.5C 67.5,180.833 67.5,180.167 67.5,179.5C 67.9981,174.848 68.3314,170.181 68.5,165.5 Z"/></g>
<g><path style="opacity:0.816" fill="#69431c" d="M 83.5,178.5 C 84.1667,178.5 84.8333,178.5 85.5,178.5C 84.396,180.389 83.0627,182.055 81.5,183.5C 81.8925,181.716 82.5592,180.05 83.5,178.5 Z"/></g>
<g><path style="opacity:0.859" fill="#653f17" d="M 104.5,175.5 C 103.559,177.05 102.893,178.716 102.5,180.5C 101.5,181.167 100.5,181.833 99.5,182.5C 100.456,179.561 102.123,177.228 104.5,175.5 Z"/></g>
<g><path style="opacity:1" fill="#7f5b34" d="M 19.5,180.5 C 20.1174,180.611 20.6174,180.944 21,181.5C 22.3267,185.808 23.4934,190.141 24.5,194.5C 22.2526,190.262 20.586,185.595 19.5,180.5 Z"/></g>
<g><path style="opacity:0.89" fill="#895721" d="M 142.5,177.5 C 139.51,182.988 136.176,188.321 132.5,193.5C 125.904,201.722 119.57,210.055 113.5,218.5C 113.893,216.716 114.559,215.05 115.5,213.5C 119.399,208.716 123.066,203.716 126.5,198.5C 130.746,193.009 134.746,187.342 138.5,181.5C 139.473,179.861 140.806,178.527 142.5,177.5 Z"/></g>
<g><path style="opacity:0.933" fill="#7a4915" d="M 147.5,179.5 C 146.559,181.05 145.893,182.716 145.5,184.5C 143.833,185.833 142.167,187.167 140.5,188.5C 142.131,184.879 144.465,181.879 147.5,179.5 Z"/></g>
<g><path style="opacity:0.949" fill="#63350b" d="M 239.5,180.5 C 237.546,182.27 235.213,183.603 232.5,184.5C 233.167,183.167 234.167,182.167 235.5,181.5C 236.959,181.567 238.292,181.234 239.5,180.5 Z"/></g>
<g><path style="opacity:0.973" fill="#82582a" d="M 73.5,179.5 C 72.7592,183.78 71.0926,187.446 68.5,190.5C 67.2749,189.848 66.6083,188.681 66.5,187C 66.5143,185.615 66.8476,184.449 67.5,183.5C 67.238,184.978 67.5713,186.311 68.5,187.5C 70.1787,184.723 71.8454,182.056 73.5,179.5 Z"/></g>
<g><path style="opacity:0.675" fill="#503417" d="M 61.5,156.5 C 60.3365,167.133 59.5032,177.799 59,188.5C 58.7216,189.416 58.2216,190.082 57.5,190.5C 58.3197,184.203 58.653,177.869 58.5,171.5C 58.5,170.167 58.5,168.833 58.5,167.5C 58.8746,163.558 59.8746,159.891 61.5,156.5 Z"/></g>
<g><path style="opacity:1" fill="#965312" d="M 231.5,184.5 C 228.198,186.723 224.532,188.39 220.5,189.5C 223.632,186.89 227.299,185.223 231.5,184.5 Z"/></g>
<g><path style="opacity:0.922" fill="#513518" d="M 67.5,179.5 C 67.5,180.167 67.5,180.833 67.5,181.5C 67.5,182.167 67.5,182.833 67.5,183.5C 66.8476,184.449 66.5143,185.615 66.5,187C 66.6083,188.681 67.2749,189.848 68.5,190.5C 67.791,191.404 66.791,191.737 65.5,191.5C 64.9106,187.029 65.5772,183.029 67.5,179.5 Z"/></g>
<g><path style="opacity:1" fill="#fdb86f" d="M 18.5,174.5 C 27.6247,180.756 36.958,186.923 46.5,193C 49,195.5 51.5,198 54,200.5C 54.1981,198.618 54.6981,196.952 55.5,195.5C 55.5,196.833 55.5,198.167 55.5,199.5C 55.5,200.5 55.5,201.5 55.5,202.5C 54.7321,203.263 54.2321,204.263 54,205.5C 53.5017,208.817 53.335,212.15 53.5,215.5C 51.3453,215.628 49.3453,215.128 47.5,214C 42.9487,209.102 37.6154,205.435 31.5,203C 29.3384,200.442 27.3384,197.942 25.5,195.5C 25.1667,195.5 24.8333,195.5 24.5,195.5C 24.5,195.167 24.5,194.833 24.5,194.5C 23.4934,190.141 22.3267,185.808 21,181.5C 20.6174,180.944 20.1174,180.611 19.5,180.5C 19.5,180.167 19.5,179.833 19.5,179.5C 19.634,177.708 19.3007,176.042 18.5,174.5 Z"/></g>
<g><path style="opacity:0.906" fill="#5c3b18" d="M 97.5,185.5 C 96.8902,186.391 96.5569,187.391 96.5,188.5C 95.5,189.167 94.5,189.833 93.5,190.5C 94.1355,188.205 95.4689,186.539 97.5,185.5 Z"/></g>
<g><path style="opacity:0.922" fill="#945a1c" d="M 153.5,186.5 C 152.66,188.853 151.326,190.853 149.5,192.5C 149.5,191.833 149.5,191.167 149.5,190.5C 150.473,188.861 151.806,187.527 153.5,186.5 Z"/></g>
<g><path style="opacity:0.953" fill="#673a0d" d="M 179.5,178.5 C 176.399,181.588 173.733,184.922 171.5,188.5C 169.5,190.167 167.5,191.833 165.5,193.5C 168.125,189.704 170.958,186.037 174,182.5C 175.451,180.536 177.284,179.203 179.5,178.5 Z"/></g>
<g><path style="opacity:0.996" fill="#a3713b" d="M 58.5,171.5 C 58.653,177.869 58.3197,184.203 57.5,190.5C 57.5,193.5 57.5,196.5 57.5,199.5C 56.8333,199.5 56.1667,199.5 55.5,199.5C 55.5,198.167 55.5,196.833 55.5,195.5C 56.4442,189.006 57.1109,182.339 57.5,175.5C 57.2322,173.901 57.5655,172.568 58.5,171.5 Z"/></g>
<g><path style="opacity:0.847" fill="#7c5327" d="M 81.5,183.5 C 80.713,187.948 78.3796,191.281 74.5,193.5C 75.7317,189.288 78.065,185.955 81.5,183.5 Z"/></g>
<g><path style="opacity:1" fill="#f5a753" d="M 98.5,161.5 C 97.3195,163.693 96.3195,166.026 95.5,168.5C 97.0792,169.667 98.4125,171 99.5,172.5C 99.4431,173.609 99.1098,174.609 98.5,175.5C 96.9013,177.604 95.068,179.604 93,181.5C 89.9062,186.023 87.0728,190.69 84.5,195.5C 81.5,198.833 78.5,202.167 75.5,205.5C 74.7005,203.427 73.3671,201.76 71.5,200.5C 72.9488,198.389 73.9488,196.056 74.5,193.5C 78.3796,191.281 80.713,187.948 81.5,183.5C 83.0627,182.055 84.396,180.389 85.5,178.5C 87.588,176.664 88.9213,174.331 89.5,171.5C 91.2624,170.738 92.2624,169.404 92.5,167.5C 94.5,165.5 96.5,163.5 98.5,161.5 Z"/></g>
<g><path style="opacity:1" fill="#fba950" d="M 102.5,180.5 C 102.586,181.496 102.252,182.329 101.5,183C 108.805,186.956 115.472,191.623 121.5,197C 123.154,197.608 124.821,198.108 126.5,198.5C 123.066,203.716 119.399,208.716 115.5,213.5C 113.396,211.901 111.396,210.068 109.5,208C 104.999,205.584 100.666,202.917 96.5,200C 94.9586,198.629 93.6253,197.129 92.5,195.5C 93.8611,193.15 95.1944,190.816 96.5,188.5C 96.5569,187.391 96.8902,186.391 97.5,185.5C 97.7822,184.222 98.4489,183.222 99.5,182.5C 100.5,181.833 101.5,181.167 102.5,180.5 Z"/></g>
<g><path style="opacity:1" fill="#ae7436" d="M 96.5,188.5 C 95.1944,190.816 93.8611,193.15 92.5,195.5C 92.1667,195.5 91.8333,195.5 91.5,195.5C 91.5569,194.391 91.8902,193.391 92.5,192.5C 92.3284,191.508 92.6618,190.842 93.5,190.5C 94.5,189.833 95.5,189.167 96.5,188.5 Z"/></g>
<g><path style="opacity:0.827" fill="#5d3811" d="M 140.5,188.5 C 139.649,190.882 138.316,192.882 136.5,194.5C 136.87,191.733 138.204,189.733 140.5,188.5 Z"/></g>
<g><path style="opacity:0.875" fill="#79420e" d="M 220.5,189.5 C 218.551,192.242 215.884,193.909 212.5,194.5C 214.404,191.789 217.07,190.123 220.5,189.5 Z"/></g>
<g><path style="opacity:0.863" fill="#5e3e1b" d="M 92.5,192.5 C 91.8902,193.391 91.5569,194.391 91.5,195.5C 90.5,196.167 89.5,196.833 88.5,197.5C 89.1355,195.205 90.4689,193.539 92.5,192.5 Z"/></g>
<g><path style="opacity:0.158" fill="#0f0701" d="M 224.5,195.5 C 227.699,195.696 229.699,197.363 230.5,200.5C 216.67,223.491 202.837,246.491 189,269.5C 187.052,272.363 184.552,273.363 181.5,272.5C 180.194,263.662 179.528,254.662 179.5,245.5C 179.833,236.833 180.167,228.167 180.5,219.5C 195.22,211.411 209.886,203.411 224.5,195.5 Z"/></g>
<g><path style="opacity:0.969" fill="#6b4d2d" d="M 24.5,195.5 C 24.8333,195.5 25.1667,195.5 25.5,195.5C 26.5778,198.402 27.2444,201.402 27.5,204.5C 25.7475,201.854 24.7475,198.854 24.5,195.5 Z"/></g>
<g><path style="opacity:0.996" fill="#8d551a" d="M 165.5,193.5 C 164.424,197.219 162.09,199.885 158.5,201.5C 160.398,198.493 162.732,195.826 165.5,193.5 Z"/></g>
<g><path style="opacity:1" fill="#945414" d="M 206.5,196.5 C 205.199,197.962 203.699,199.296 202,200.5C 198.259,202.414 194.426,204.081 190.5,205.5C 190.5,205.167 190.5,204.833 190.5,204.5C 195.529,201.319 200.862,198.652 206.5,196.5 Z"/></g>
<g><path style="opacity:1" fill="#f29c40" d="M 145.5,184.5 C 145.657,187.318 146.991,189.318 149.5,190.5C 149.5,191.167 149.5,191.833 149.5,192.5C 148.974,194.23 147.974,195.564 146.5,196.5C 144.178,197.802 142.845,199.802 142.5,202.5C 139.616,205.239 136.949,208.239 134.5,211.5C 134.5,210.167 134.5,208.833 134.5,207.5C 132.388,206.725 130.388,206.725 128.5,207.5C 128.557,206.391 128.89,205.391 129.5,204.5C 133.394,202.27 135.728,198.937 136.5,194.5C 138.316,192.882 139.649,190.882 140.5,188.5C 142.167,187.167 143.833,185.833 145.5,184.5 Z"/></g>
<g><path style="opacity:0.906" fill="#8c571f" d="M 146.5,196.5 C 145.66,198.853 144.326,200.853 142.5,202.5C 142.845,199.802 144.178,197.802 146.5,196.5 Z"/></g>
<g><path style="opacity:0.137" fill="#3c2815" d="M 84.5,197.5 C 84.3691,198.376 84.7025,199.043 85.5,199.5C 86.5178,198.807 87.5178,198.141 88.5,197.5C 87.5711,200.412 86.2378,203.079 84.5,205.5C 83.5,206.167 82.5,206.833 81.5,207.5C 82.4412,205.534 83.4412,203.534 84.5,201.5C 84.0431,200.702 83.3764,200.369 82.5,200.5C 82.427,198.973 83.0937,197.973 84.5,197.5 Z"/></g>
<g><path style="opacity:1" fill="#fcbd7a" d="M 25.5,195.5 C 27.3384,197.942 29.3384,200.442 31.5,203C 37.6154,205.435 42.9487,209.102 47.5,214C 49.3453,215.128 51.3453,215.628 53.5,215.5C 51.9517,222.061 50.9517,228.728 50.5,235.5C 49.448,235.649 48.448,235.483 47.5,235C 46.1218,233.287 44.4552,231.953 42.5,231C 39.1573,227.348 36.1573,223.514 33.5,219.5C 33.5,219.167 33.5,218.833 33.5,218.5C 33.0652,215.843 32.0652,213.509 30.5,211.5C 30.5,211.167 30.5,210.833 30.5,210.5C 30.6138,207.784 29.6138,205.784 27.5,204.5C 27.2444,201.402 26.5778,198.402 25.5,195.5 Z"/></g>
<g><path style="opacity:0.898" fill="#855c2f" d="M 74.5,193.5 C 73.9488,196.056 72.9488,198.389 71.5,200.5C 69.9699,201.211 68.6366,202.211 67.5,203.5C 68.7317,199.288 71.065,195.955 74.5,193.5 Z"/></g>
<g><path style="opacity:1" fill="#fa9c39" d="M 171.5,188.5 C 171.297,190.044 170.63,191.378 169.5,192.5C 175.058,197.197 180.892,201.53 187,205.5C 188.138,205.011 189.305,204.678 190.5,204.5C 190.5,204.833 190.5,205.167 190.5,205.5C 189.833,205.833 189.167,206.167 188.5,206.5C 184.569,207.132 181.235,208.799 178.5,211.5C 176.784,211.629 175.117,211.962 173.5,212.5C 171.236,213.219 168.903,213.552 166.5,213.5C 166.5,214.5 166.5,215.5 166.5,216.5C 160.184,216.161 155.851,213.161 153.5,207.5C 155.614,205.981 157.28,203.981 158.5,201.5C 162.09,199.885 164.424,197.219 165.5,193.5C 167.5,191.833 169.5,190.167 171.5,188.5 Z"/></g>
<g><path style="opacity:0.965" fill="#68390c" d="M 222.5,207.5 C 223.259,205.564 224.259,203.731 225.5,202C 225.167,201.5 224.833,201 224.5,200.5C 221.923,201.943 219.59,203.61 217.5,205.5C 216.167,205.5 214.833,205.5 213.5,205.5C 216.135,203.177 219.135,201.344 222.5,200C 224.134,199.506 225.801,199.34 227.5,199.5C 227.53,203.286 225.863,205.953 222.5,207.5 Z"/></g>
<g><path style="opacity:0.867" fill="#7a4d1d" d="M 136.5,194.5 C 135.728,198.937 133.394,202.27 129.5,204.5C 130.732,200.288 133.065,196.955 136.5,194.5 Z"/></g>
<g><path style="opacity:1" fill="#fcaf5d" d="M 91.5,195.5 C 91.8333,195.5 92.1667,195.5 92.5,195.5C 93.6253,197.129 94.9586,198.629 96.5,200C 100.666,202.917 104.999,205.584 109.5,208C 111.396,210.068 113.396,211.901 115.5,213.5C 114.559,215.05 113.893,216.716 113.5,218.5C 111.41,220.951 109.077,223.284 106.5,225.5C 98.5465,220.212 90.8798,214.545 83.5,208.5C 84.1272,207.583 84.4606,206.583 84.5,205.5C 86.2378,203.079 87.5711,200.412 88.5,197.5C 89.5,196.833 90.5,196.167 91.5,195.5 Z"/></g>
<g><path style="opacity:1" fill="#c4701c" d="M 222.5,207.5 C 220.953,211.704 218.62,215.371 215.5,218.5C 217.29,214.217 219.29,210.05 221.5,206C 221.167,205.5 220.833,205 220.5,204.5C 219.583,205.127 218.583,205.461 217.5,205.5C 219.59,203.61 221.923,201.943 224.5,200.5C 224.833,201 225.167,201.5 225.5,202C 224.259,203.731 223.259,205.564 222.5,207.5 Z"/></g>
<g><path style="opacity:1" fill="#976f45" d="M 27.5,204.5 C 29.6138,205.784 30.6138,207.784 30.5,210.5C 28.6206,209.105 27.6206,207.105 27.5,204.5 Z"/></g>
<g><path style="opacity:0.922" fill="#845c30" d="M 84.5,195.5 C 84.5,196.167 84.5,196.833 84.5,197.5C 83.0937,197.973 82.427,198.973 82.5,200.5C 79.1404,203.546 76.4737,207.213 74.5,211.5C 73.1482,212.524 71.8149,213.524 70.5,214.5C 72.5676,211.755 74.2343,208.755 75.5,205.5C 78.5,202.167 81.5,198.833 84.5,195.5 Z"/></g>
<g><path style="opacity:0.996" fill="#915b21" d="M 158.5,201.5 C 157.28,203.981 155.614,205.981 153.5,207.5C 154.256,204.606 155.923,202.606 158.5,201.5 Z"/></g>
<g><path style="opacity:0.982" fill="#4f371e" d="M 55.5,199.5 C 56.1667,199.5 56.8333,199.5 57.5,199.5C 56.721,210.387 55.3876,221.054 53.5,231.5C 53.5,229.833 53.5,228.167 53.5,226.5C 54.4348,218.67 55.1014,210.67 55.5,202.5C 55.5,201.5 55.5,200.5 55.5,199.5 Z"/></g>
<g><path style="opacity:0.945" fill="#5b320a" d="M 213.5,205.5 C 211.967,207.245 209.967,208.245 207.5,208.5C 209.033,206.755 211.033,205.755 213.5,205.5 Z"/></g>
<g><path style="opacity:1" fill="#f9b268" d="M 71.5,200.5 C 73.3671,201.76 74.7005,203.427 75.5,205.5C 74.2343,208.755 72.5676,211.755 70.5,214.5C 68.7376,215.262 67.7376,216.596 67.5,218.5C 66.5416,218.047 65.7083,217.381 65,216.5C 64.7216,217.416 64.2216,218.082 63.5,218.5C 63.5,215.833 63.5,213.167 63.5,210.5C 65.0981,208.302 66.4314,205.969 67.5,203.5C 68.6366,202.211 69.9699,201.211 71.5,200.5 Z"/></g>
<g><path style="opacity:0.98" fill="#6d4012" d="M 188.5,206.5 C 185.474,208.68 182.14,210.347 178.5,211.5C 181.235,208.799 184.569,207.132 188.5,206.5 Z"/></g>
<g><path style="opacity:1" fill="#f19e46" d="M 153.5,207.5 C 155.851,213.161 160.184,216.161 166.5,216.5C 166.5,215.5 166.5,214.5 166.5,213.5C 168.903,213.552 171.236,213.219 173.5,212.5C 169.515,215.145 165.515,217.812 161.5,220.5C 160.391,220.557 159.391,220.89 158.5,221.5C 157.167,221.833 155.833,222.167 154.5,222.5C 150.322,223.705 146.655,225.705 143.5,228.5C 140.594,229.787 137.594,230.787 134.5,231.5C 135.683,228.852 137.016,226.185 138.5,223.5C 141.842,220.491 144.842,217.157 147.5,213.5C 149.543,212.421 150.876,210.754 151.5,208.5C 152.167,208.167 152.833,207.833 153.5,207.5 Z"/></g>
<g><path style="opacity:0.945" fill="#5d3a14" d="M 151.5,208.5 C 150.876,210.754 149.543,212.421 147.5,213.5C 148.136,211.205 149.469,209.539 151.5,208.5 Z"/></g>
<g><path style="opacity:0.906" fill="#8b5a26" d="M 142.5,202.5 C 138.573,209.42 133.907,215.753 128.5,221.5C 130.489,218.194 132.489,214.861 134.5,211.5C 136.949,208.239 139.616,205.239 142.5,202.5 Z"/></g>
<g><path style="opacity:1" fill="#8b5216" d="M 207.5,208.5 C 205.138,210.244 202.805,212.077 200.5,214C 199.552,214.483 198.552,214.649 197.5,214.5C 196.391,214.557 195.391,214.89 194.5,215.5C 196.542,213.665 198.875,211.998 201.5,210.5C 203.45,209.628 205.45,208.961 207.5,208.5 Z"/></g>
<g><path style="opacity:1" fill="#ab8052" d="M 30.5,211.5 C 32.0652,213.509 33.0652,215.843 33.5,218.5C 32.8333,218.167 32.1667,217.833 31.5,217.5C 31.1667,215.5 30.8333,213.5 30.5,211.5 Z"/></g>
<g><path style="opacity:0.98" fill="#6b4b2a" d="M 67.5,203.5 C 66.4314,205.969 65.0981,208.302 63.5,210.5C 62.8333,212.5 62.1667,214.5 61.5,216.5C 60.6733,210.73 62.6733,206.397 67.5,203.5 Z"/></g>
<g><path style="opacity:0.976" fill="#94622c" d="M 129.5,204.5 C 128.89,205.391 128.557,206.391 128.5,207.5C 126.191,210.481 123.857,213.481 121.5,216.5C 121.557,215.391 121.89,214.391 122.5,213.5C 124.155,209.86 126.489,206.86 129.5,204.5 Z"/></g>
<g><path style="opacity:1" fill="#fa9831" d="M 215.5,218.5 C 212.654,222.355 209.987,226.355 207.5,230.5C 201.856,227.009 196.19,223.509 190.5,220C 193.617,219.037 195.951,217.204 197.5,214.5C 198.552,214.649 199.552,214.483 200.5,214C 202.805,212.077 205.138,210.244 207.5,208.5C 209.967,208.245 211.967,207.245 213.5,205.5C 214.833,205.5 216.167,205.5 217.5,205.5C 218.583,205.461 219.583,205.127 220.5,204.5C 220.833,205 221.167,205.5 221.5,206C 219.29,210.05 217.29,214.217 215.5,218.5 Z"/></g>
<g><path style="opacity:0.765" fill="#533617" d="M 122.5,213.5 C 121.89,214.391 121.557,215.391 121.5,216.5C 120.728,217.694 119.728,218.694 118.5,219.5C 118.87,216.733 120.204,214.733 122.5,213.5 Z"/></g>
<g><path style="opacity:1" fill="#fcb66a" d="M 84.5,205.5 C 84.4606,206.583 84.1272,207.583 83.5,208.5C 90.8798,214.545 98.5465,220.212 106.5,225.5C 104.68,229.808 102.347,233.808 99.5,237.5C 96.4993,239.004 93.8327,238.504 91.5,236C 86.3275,232.002 80.9942,228.169 75.5,224.5C 74.5713,223.311 74.238,221.978 74.5,220.5C 76.0186,217.956 77.352,215.289 78.5,212.5C 78.7497,210.326 79.7497,208.659 81.5,207.5C 82.5,206.833 83.5,206.167 84.5,205.5 Z"/></g>
<g><path style="opacity:0.667" fill="#4e2f10" d="M 178.5,211.5 C 175.321,213.834 171.988,216.001 168.5,218C 166.257,219.136 163.924,219.97 161.5,220.5C 165.515,217.812 169.515,215.145 173.5,212.5C 175.117,211.962 176.784,211.629 178.5,211.5 Z"/></g>
<g><path style="opacity:0.969" fill="#6a3f12" d="M 193.5,215.5 C 191.734,217.559 189.401,218.893 186.5,219.5C 188.26,217.441 190.594,216.108 193.5,215.5 Z"/></g>
<g><path style="opacity:1" fill="#644a2e" d="M 31.5,217.5 C 32.1667,217.833 32.8333,218.167 33.5,218.5C 33.5,218.833 33.5,219.167 33.5,219.5C 34.1495,221.435 34.4828,223.435 34.5,225.5C 33.129,223.064 32.129,220.397 31.5,217.5 Z"/></g>
<g><path style="opacity:1" fill="#f7a854" d="M 134.5,211.5 C 132.489,214.861 130.489,218.194 128.5,221.5C 126.263,223.647 124.263,225.98 122.5,228.5C 121.193,225.614 119.193,224.448 116.5,225C 117.252,224.329 117.586,223.496 117.5,222.5C 117.557,221.391 117.89,220.391 118.5,219.5C 119.728,218.694 120.728,217.694 121.5,216.5C 123.857,213.481 126.191,210.481 128.5,207.5C 130.388,206.725 132.388,206.725 134.5,207.5C 134.5,208.833 134.5,210.167 134.5,211.5 Z"/></g>
<g><path style="opacity:0.953" fill="#634019" d="M 147.5,213.5 C 144.842,217.157 141.842,220.491 138.5,223.5C 140.43,219.235 143.43,215.902 147.5,213.5 Z"/></g>
<g><path style="opacity:1" fill="#ab7d4d" d="M 63.5,210.5 C 63.5,213.167 63.5,215.833 63.5,218.5C 61.9216,223.583 61.2549,228.916 61.5,234.5C 60.8333,235.5 60.1667,236.5 59.5,237.5C 59.8333,234.833 60.1667,232.167 60.5,229.5C 60.2307,225.069 60.564,220.735 61.5,216.5C 62.1667,214.5 62.8333,212.5 63.5,210.5 Z"/></g>
<g><path style="opacity:0.882" fill="#895f32" d="M 113.5,218.5 C 109.959,225.701 105.293,232.034 99.5,237.5C 102.347,233.808 104.68,229.808 106.5,225.5C 109.077,223.284 111.41,220.951 113.5,218.5 Z"/></g>
<g><path style="opacity:0.647" fill="#4c2f12" d="M 158.5,221.5 C 156.252,224.393 153.252,226.06 149.5,226.5C 151.167,225.167 152.833,223.833 154.5,222.5C 155.833,222.167 157.167,221.833 158.5,221.5 Z"/></g>
<g><path style="opacity:0.957" fill="#573612" d="M 172.5,224.5 C 171.486,225.674 170.153,226.34 168.5,226.5C 169.287,224.896 170.62,224.229 172.5,224.5 Z"/></g>
<g><path style="opacity:0.965" fill="#6f461a" d="M 185.5,219.5 C 185.167,220.167 184.833,220.833 184.5,221.5C 183.834,229.326 183.5,237.326 183.5,245.5C 183.502,253.862 184.169,261.862 185.5,269.5C 184.791,270.404 183.791,270.737 182.5,270.5C 182.333,253.83 182.5,237.163 183,220.5C 183.671,219.748 184.504,219.414 185.5,219.5 Z"/></g>
<g><path style="opacity:1" fill="#fca03e" d="M 197.5,214.5 C 195.951,217.204 193.617,219.037 190.5,220C 196.19,223.509 201.856,227.009 207.5,230.5C 205.172,234.463 202.838,238.463 200.5,242.5C 195.548,240.733 191.215,237.9 187.5,234C 186.552,233.517 185.552,233.351 184.5,233.5C 184.5,229.5 184.5,225.5 184.5,221.5C 184.833,220.833 185.167,220.167 185.5,219.5C 185.833,219.5 186.167,219.5 186.5,219.5C 189.401,218.893 191.734,217.559 193.5,215.5C 193.833,215.5 194.167,215.5 194.5,215.5C 195.391,214.89 196.391,214.557 197.5,214.5 Z"/></g>
<g><path style="opacity:0.914" fill="#865b2e" d="M 128.5,221.5 C 125.93,226.742 122.93,231.742 119.5,236.5C 118.474,237.853 117.141,238.853 115.5,239.5C 117.573,235.692 119.906,232.026 122.5,228.5C 124.263,225.98 126.263,223.647 128.5,221.5 Z"/></g>
<g><path style="opacity:1" fill="#edb77d" d="M 55.5,202.5 C 55.1014,210.67 54.4348,218.67 53.5,226.5C 52.5416,231.658 51.8749,236.991 51.5,242.5C 51.5,244.5 51.5,246.5 51.5,248.5C 50.3707,253.011 49.0374,257.345 47.5,261.5C 46.2128,257.295 44.5461,253.295 42.5,249.5C 41.0669,247.442 40.4003,245.108 40.5,242.5C 39.4143,238.053 38.081,233.72 36.5,229.5C 35.3263,228.486 34.6596,227.153 34.5,225.5C 34.4828,223.435 34.1495,221.435 33.5,219.5C 36.1573,223.514 39.1573,227.348 42.5,231C 44.4552,231.953 46.1218,233.287 47.5,235C 48.448,235.483 49.448,235.649 50.5,235.5C 50.9517,228.728 51.9517,222.061 53.5,215.5C 53.335,212.15 53.5017,208.817 54,205.5C 54.2321,204.263 54.7321,203.263 55.5,202.5 Z"/></g>
<g><path style="opacity:0.976" fill="#aa7032" d="M 154.5,222.5 C 152.833,223.833 151.167,225.167 149.5,226.5C 147.579,227.363 145.579,228.029 143.5,228.5C 146.655,225.705 150.322,223.705 154.5,222.5 Z"/></g>
<g><path style="opacity:0.933" fill="#8b541a" d="M 215.5,218.5 C 214.27,223.192 212.27,227.525 209.5,231.5C 206.722,235.706 203.722,239.706 200.5,243.5C 200.5,243.167 200.5,242.833 200.5,242.5C 202.838,238.463 205.172,234.463 207.5,230.5C 209.987,226.355 212.654,222.355 215.5,218.5 Z"/></g>
<g><path style="opacity:0.945" fill="#633e18" d="M 168.5,226.5 C 168.167,227.167 167.833,227.833 167.5,228.5C 165.5,228.833 163.5,229.167 161.5,229.5C 163.509,227.935 165.843,226.935 168.5,226.5 Z"/></g>
<g><path style="opacity:1" fill="#906536" d="M 113.5,226.5 C 112.148,232.521 108.815,237.188 103.5,240.5C 106.065,235.271 109.398,230.605 113.5,226.5 Z"/></g>
<g><path style="opacity:1" fill="#b0783b" d="M 138.5,223.5 C 137.016,226.185 135.683,228.852 134.5,231.5C 137.594,230.787 140.594,229.787 143.5,228.5C 141.664,230.588 139.331,231.921 136.5,232.5C 134.973,232.427 133.973,233.094 133.5,234.5C 133.167,234.5 132.833,234.5 132.5,234.5C 131.624,234.631 130.957,234.298 130.5,233.5C 131.524,232.148 132.524,230.815 133.5,229.5C 134.741,227.137 136.408,225.137 138.5,223.5 Z"/></g>
<g><path style="opacity:1" fill="#f8b164" d="M 117.5,222.5 C 117.586,223.496 117.252,224.329 116.5,225C 119.193,224.448 121.193,225.614 122.5,228.5C 119.906,232.026 117.573,235.692 115.5,239.5C 113.833,241.833 111.833,243.833 109.5,245.5C 106.275,247.021 102.942,248.355 99.5,249.5C 97.5659,248.89 95.8993,247.89 94.5,246.5C 98.4325,245.714 101.433,243.714 103.5,240.5C 108.815,237.188 112.148,232.521 113.5,226.5C 114.473,224.861 115.806,223.527 117.5,222.5 Z"/></g>
<g><path style="opacity:0.984" fill="#734a1f" d="M 161.5,229.5 C 159.65,231.572 157.317,232.905 154.5,233.5C 156.046,231.069 158.379,229.736 161.5,229.5 Z"/></g>
<g><path style="opacity:1" fill="#fab974" d="M 74.5,220.5 C 74.238,221.978 74.5713,223.311 75.5,224.5C 80.9942,228.169 86.3275,232.002 91.5,236C 93.8327,238.504 96.4993,239.004 99.5,237.5C 99.1667,238.167 98.8333,238.833 98.5,239.5C 95.4231,239.179 93.0897,240.179 91.5,242.5C 89.901,242.232 88.5676,242.566 87.5,243.5C 84.4781,243.804 81.4781,244.304 78.5,245C 77.0577,245.377 76.0577,246.21 75.5,247.5C 74.8333,247.5 74.1667,247.5 73.5,247.5C 73.1734,238.318 73.5067,229.318 74.5,220.5 Z"/></g>
<g><path style="opacity:0.831" fill="#5b3c1b" d="M 136.5,232.5 C 136.027,233.906 135.027,234.573 133.5,234.5C 133.973,233.094 134.973,232.427 136.5,232.5 Z"/></g>
<g><path style="opacity:1" fill="#f8a349" d="M 184.5,221.5 C 184.5,225.5 184.5,229.5 184.5,233.5C 185.552,233.351 186.552,233.517 187.5,234C 191.215,237.9 195.548,240.733 200.5,242.5C 200.5,242.833 200.5,243.167 200.5,243.5C 196.338,247.138 193.672,251.805 192.5,257.5C 188.947,260.245 186.614,263.911 185.5,268.5C 185.5,268.833 185.5,269.167 185.5,269.5C 184.169,261.862 183.502,253.862 183.5,245.5C 183.5,237.326 183.834,229.326 184.5,221.5 Z"/></g>
<g><path style="opacity:0.996" fill="#876642" d="M 53.5,226.5 C 53.5,228.167 53.5,229.833 53.5,231.5C 53.5,234.5 53.5,237.5 53.5,240.5C 52.8333,241.167 52.1667,241.833 51.5,242.5C 51.8749,236.991 52.5416,231.658 53.5,226.5 Z"/></g>
<g><path style="opacity:0.89" fill="#60462b" d="M 60.5,229.5 C 60.1667,232.167 59.8333,234.833 59.5,237.5C 59.5,238.167 59.1667,238.5 58.5,238.5C 58.3359,235.813 58.5026,233.146 59,230.5C 59.3826,229.944 59.8826,229.611 60.5,229.5 Z"/></g>
<g><path style="opacity:1" fill="#754f27" d="M 133.5,229.5 C 132.524,230.815 131.524,232.148 130.5,233.5C 130.957,234.298 131.624,234.631 132.5,234.5C 131.713,236.104 130.38,236.771 128.5,236.5C 128.475,232.86 130.142,230.527 133.5,229.5 Z"/></g>
<g><path style="opacity:0.376" fill="#4a3825" d="M 36.5,229.5 C 38.081,233.72 39.4143,238.053 40.5,242.5C 36.9964,238.98 35.6631,234.647 36.5,229.5 Z"/></g>
<g><path style="opacity:0.996" fill="#8e6232" d="M 153.5,233.5 C 150.113,235.308 146.78,237.308 143.5,239.5C 136.105,241.512 129.439,244.845 123.5,249.5C 121.784,249.629 120.117,249.962 118.5,250.5C 118.833,249.833 119.167,249.167 119.5,248.5C 130.833,243.5 142.167,238.5 153.5,233.5 Z"/></g>
<g><path style="opacity:1" fill="#fdad57" d="M 174.5,264.5 C 166.519,259.173 158.519,253.84 150.5,248.5C 147.709,246.211 145.042,243.711 142.5,241C 143.056,240.617 143.389,240.117 143.5,239.5C 146.78,237.308 150.113,235.308 153.5,233.5C 153.833,233.5 154.167,233.5 154.5,233.5C 157.317,232.905 159.65,231.572 161.5,229.5C 163.5,229.167 165.5,228.833 167.5,228.5C 169.55,228.039 171.55,227.372 173.5,226.5C 174.499,239.149 174.832,251.816 174.5,264.5 Z"/></g>
<g><path style="opacity:0.933" fill="#5f4426" d="M 98.5,239.5 C 96.4907,241.065 94.1573,242.065 91.5,242.5C 93.0897,240.179 95.4231,239.179 98.5,239.5 Z"/></g>
<g><path style="opacity:1" fill="#fabf80" d="M 67.5,218.5 C 67.4013,227.844 67.068,237.177 66.5,246.5C 66.5,248.5 66.5,250.5 66.5,252.5C 65.5489,253.919 65.2155,255.585 65.5,257.5C 70.9184,257.121 75.5851,255.121 79.5,251.5C 80.8333,251.167 82.1667,250.833 83.5,250.5C 87.3258,249.412 90.9924,248.079 94.5,246.5C 95.8993,247.89 97.5659,248.89 99.5,249.5C 96.8333,251.167 94.1667,252.833 91.5,254.5C 89.822,256.852 87.4887,258.186 84.5,258.5C 80.0874,259.263 76.0874,260.93 72.5,263.5C 69.8431,263.747 67.5098,264.747 65.5,266.5C 63.6841,265.185 62.0175,263.685 60.5,262C 59.552,261.517 58.552,261.351 57.5,261.5C 59.2529,252.57 60.5862,243.57 61.5,234.5C 61.2549,228.916 61.9216,223.583 63.5,218.5C 64.2216,218.082 64.7216,217.416 65,216.5C 65.7083,217.381 66.5416,218.047 67.5,218.5 Z"/></g>
<g><path style="opacity:1" fill="#9b7347" d="M 70.5,214.5 C 69.1225,225.112 68.1225,235.779 67.5,246.5C 67.1667,246.5 66.8333,246.5 66.5,246.5C 67.068,237.177 67.4013,227.844 67.5,218.5C 67.7376,216.596 68.7376,215.262 70.5,214.5 Z"/></g>
<g><path style="opacity:0.98" fill="#694d2f" d="M 72.5,219.5 C 72.1731,229.015 72.5064,238.348 73.5,247.5C 74.1667,247.5 74.8333,247.5 75.5,247.5C 76.8333,247.167 78.1667,246.833 79.5,246.5C 77.3826,248.655 74.716,249.655 71.5,249.5C 71.1726,239.319 71.506,229.319 72.5,219.5 Z"/></g>
<g><path style="opacity:1" fill="#a97b4b" d="M 103.5,240.5 C 101.433,243.714 98.4325,245.714 94.5,246.5C 90.9924,248.079 87.3258,249.412 83.5,250.5C 83.8333,249.833 84.1667,249.167 84.5,248.5C 90.8147,245.838 97.148,243.171 103.5,240.5 Z"/></g>
<g><path style="opacity:1" fill="#ae804f" d="M 78.5,212.5 C 77.352,215.289 76.0186,217.956 74.5,220.5C 73.5067,229.318 73.1734,238.318 73.5,247.5C 72.5064,238.348 72.1731,229.015 72.5,219.5C 74.1172,217.879 75.2838,215.879 76,213.5C 76.6708,212.748 77.5041,212.414 78.5,212.5 Z"/></g>
<g><path style="opacity:0.918" fill="#8c6337" d="M 115.5,239.5 C 115.129,243.205 113.129,245.205 109.5,245.5C 111.833,243.833 113.833,241.833 115.5,239.5 Z"/></g>
<g><path style="opacity:1" fill="#a2794c" d="M 87.5,243.5 C 85.064,244.871 82.3973,245.871 79.5,246.5C 78.1667,246.833 76.8333,247.167 75.5,247.5C 76.0577,246.21 77.0577,245.377 78.5,245C 81.4781,244.304 84.4781,243.804 87.5,243.5 Z"/></g>
<g><path style="opacity:1" fill="#fdb364" d="M 143.5,239.5 C 143.389,240.117 143.056,240.617 142.5,241C 145.042,243.711 147.709,246.211 150.5,248.5C 158.519,253.84 166.519,259.173 174.5,264.5C 174.5,267.833 174.5,271.167 174.5,274.5C 168.167,274.5 161.833,274.5 155.5,274.5C 156.706,273.12 156.373,271.953 154.5,271C 144.449,263.318 134.116,256.151 123.5,249.5C 129.439,244.845 136.105,241.512 143.5,239.5 Z"/></g>
<g><path style="opacity:0.929" fill="#855522" d="M 200.5,243.5 C 199.852,245.086 199.352,246.753 199,248.5C 196.562,251.343 194.396,254.343 192.5,257.5C 193.672,251.805 196.338,247.138 200.5,243.5 Z"/></g>
<g><path style="opacity:1" fill="#a17547" d="M 109.5,245.5 C 109.196,246.15 108.863,246.817 108.5,247.5C 105.128,248.341 102.128,249.841 99.5,252C 96.9036,253.136 94.237,253.969 91.5,254.5C 94.1667,252.833 96.8333,251.167 99.5,249.5C 102.942,248.355 106.275,247.021 109.5,245.5 Z"/></g>
<g><path style="opacity:0.882" fill="#4c3926" d="M 53.5,240.5 C 52.9242,246.485 52.4242,252.485 52,258.5C 51.7216,259.416 51.2216,260.082 50.5,260.5C 51.0209,256.519 51.3542,252.519 51.5,248.5C 51.5,246.5 51.5,244.5 51.5,242.5C 52.1667,241.833 52.8333,241.167 53.5,240.5 Z"/></g>
<g><path style="opacity:0.973" fill="#60472c" d="M 84.5,248.5 C 84.1667,249.167 83.8333,249.833 83.5,250.5C 82.1667,250.833 80.8333,251.167 79.5,251.5C 80.4856,249.592 82.1523,248.592 84.5,248.5 Z"/></g>
<g><path style="opacity:0.965" fill="#624526" d="M 119.5,248.5 C 119.167,249.167 118.833,249.833 118.5,250.5C 117.292,251.234 115.959,251.567 114.5,251.5C 115.486,249.592 117.152,248.592 119.5,248.5 Z"/></g>
<g><path style="opacity:0.941" fill="#4a3722" d="M 66.5,246.5 C 66.8333,246.5 67.1667,246.5 67.5,246.5C 67.19,249.713 67.5233,252.713 68.5,255.5C 68.44,256.043 68.1067,256.376 67.5,256.5C 66.5713,255.311 66.238,253.978 66.5,252.5C 66.5,250.5 66.5,248.5 66.5,246.5 Z"/></g>
<g><path style="opacity:1" fill="#d79044" d="M 172.5,224.5 C 173.5,224.5 174.5,224.5 175.5,224.5C 175.5,241.167 175.5,257.833 175.5,274.5C 175.167,274.5 174.833,274.5 174.5,274.5C 174.5,271.167 174.5,267.833 174.5,264.5C 174.832,251.816 174.499,239.149 173.5,226.5C 171.55,227.372 169.55,228.039 167.5,228.5C 167.833,227.833 168.167,227.167 168.5,226.5C 170.153,226.34 171.486,225.674 172.5,224.5 Z"/></g>
<g><path style="opacity:0.796" fill="#503921" d="M 111.5,252.5 C 109.636,254.014 107.636,255.347 105.5,256.5C 104.833,256.5 104.167,256.5 103.5,256.5C 105.531,254.245 108.198,252.912 111.5,252.5 Z"/></g>
<g><path style="opacity:0.97" fill="#764d22" d="M 172.5,224.5 C 173.568,223.566 174.901,223.232 176.5,223.5C 176.5,233.5 176.5,243.5 176.5,253.5C 176.825,261.019 176.492,268.352 175.5,275.5C 175.5,275.167 175.5,274.833 175.5,274.5C 175.5,257.833 175.5,241.167 175.5,224.5C 174.5,224.5 173.5,224.5 172.5,224.5 Z"/></g>
<g><path style="opacity:1" fill="#a37d53" d="M 79.5,251.5 C 75.5851,255.121 70.9184,257.121 65.5,257.5C 65.2155,255.585 65.5489,253.919 66.5,252.5C 66.238,253.978 66.5713,255.311 67.5,256.5C 68.1067,256.376 68.44,256.043 68.5,255.5C 72.1143,253.852 75.7809,252.519 79.5,251.5 Z"/></g>
<g><path style="opacity:1" fill="#fdba72" d="M 123.5,249.5 C 134.116,256.151 144.449,263.318 154.5,271C 156.373,271.953 156.706,273.12 155.5,274.5C 142.833,274.5 130.167,274.5 117.5,274.5C 117.489,272.983 116.823,271.816 115.5,271C 109.926,267.24 104.259,263.74 98.5,260.5C 100.875,259.098 103.209,257.765 105.5,256.5C 107.636,255.347 109.636,254.014 111.5,252.5C 112.609,252.443 113.609,252.11 114.5,251.5C 115.959,251.567 117.292,251.234 118.5,250.5C 120.117,249.962 121.784,249.629 123.5,249.5 Z"/></g>
<g><path style="opacity:1" fill="#b08e6a" d="M 51.5,248.5 C 51.3542,252.519 51.0209,256.519 50.5,260.5C 50.5,261.833 50.5,263.167 50.5,264.5C 48.8564,264.19 47.8564,263.19 47.5,261.5C 49.0374,257.345 50.3707,253.011 51.5,248.5 Z"/></g>
<g><path style="opacity:1" fill="#b28554" d="M 103.5,256.5 C 104.167,256.5 104.833,256.5 105.5,256.5C 103.209,257.765 100.875,259.098 98.5,260.5C 97.1667,260.833 95.8333,261.167 94.5,261.5C 97.1443,259.277 100.144,257.611 103.5,256.5 Z"/></g>
<g><path style="opacity:1" fill="#eab984" d="M 61.5,234.5 C 60.5862,243.57 59.2529,252.57 57.5,261.5C 58.552,261.351 59.552,261.517 60.5,262C 62.0175,263.685 63.6841,265.185 65.5,266.5C 67.5098,264.747 69.8431,263.747 72.5,263.5C 72.5,263.833 72.5,264.167 72.5,264.5C 69.8527,264.929 67.8527,266.262 66.5,268.5C 64.7085,268.366 63.0418,268.699 61.5,269.5C 60.8333,269.5 60.1667,269.5 59.5,269.5C 58.2921,268.766 56.9587,268.433 55.5,268.5C 55.8333,265.167 56.1667,261.833 56.5,258.5C 57.1667,251.833 57.8333,245.167 58.5,238.5C 59.1667,238.5 59.5,238.167 59.5,237.5C 60.1667,236.5 60.8333,235.5 61.5,234.5 Z"/></g>
<g><path style="opacity:0.988" fill="#9a764f" d="M 84.5,258.5 C 80.7755,261.029 76.7755,263.029 72.5,264.5C 72.5,264.167 72.5,263.833 72.5,263.5C 76.0874,260.93 80.0874,259.263 84.5,258.5 Z"/></g>
<g><path style="opacity:0.957" fill="#66523e" d="M 42.5,249.5 C 44.5461,253.295 46.2128,257.295 47.5,261.5C 47.8564,263.19 48.8564,264.19 50.5,264.5C 50.1788,266.048 49.1788,266.715 47.5,266.5C 45.5527,260.932 43.886,255.266 42.5,249.5 Z"/></g>
<g><path style="opacity:1" fill="#fdc283" d="M 98.5,260.5 C 104.259,263.74 109.926,267.24 115.5,271C 116.823,271.816 117.489,272.983 117.5,274.5C 101.325,274.83 85.3246,274.496 69.5,273.5C 71.3492,272.407 73.0158,271.074 74.5,269.5C 75.1667,269.5 75.8333,269.5 76.5,269.5C 82.8776,268.068 88.5442,265.401 93.5,261.5C 93.8333,261.5 94.1667,261.5 94.5,261.5C 95.8333,261.167 97.1667,260.833 98.5,260.5 Z"/></g>
<g><path style="opacity:0.949" fill="#6b5c4d" d="M 56.5,258.5 C 56.1667,261.833 55.8333,265.167 55.5,268.5C 55.6321,273.439 56.9655,273.772 59.5,269.5C 60.1667,269.5 60.8333,269.5 61.5,269.5C 59.8413,272.833 57.1746,274.5 53.5,274.5C 53.5458,268.726 54.5458,263.392 56.5,258.5 Z"/></g>
<g><path style="opacity:0.929" fill="#6b5238" d="M 72.5,264.5 C 70.9663,266.369 68.9663,267.702 66.5,268.5C 67.8527,266.262 69.8527,264.929 72.5,264.5 Z"/></g>
<g><path style="opacity:1" fill="#a98258" d="M 93.5,261.5 C 88.5442,265.401 82.8776,268.068 76.5,269.5C 81.7823,266.216 87.4489,263.549 93.5,261.5 Z"/></g>
<g><path style="opacity:0.929" fill="#795025" d="M 192.5,257.5 C 190.333,260.501 188.666,263.834 187.5,267.5C 187.043,268.298 186.376,268.631 185.5,268.5C 186.614,263.911 188.947,260.245 192.5,257.5 Z"/></g>
<g><path style="opacity:1" fill="#e8d7c6" d="M 55.5,268.5 C 56.9587,268.433 58.2921,268.766 59.5,269.5C 56.9655,273.772 55.6321,273.439 55.5,268.5 Z"/></g>
<g><path style="opacity:1" fill="#d9a268" d="M 69.5,273.5 C 85.3246,274.496 101.325,274.83 117.5,274.5C 130.167,274.5 142.833,274.5 155.5,274.5C 161.833,274.5 168.167,274.5 174.5,274.5C 174.833,274.5 175.167,274.5 175.5,274.5C 175.5,274.833 175.5,275.167 175.5,275.5C 162.833,275.5 150.167,275.5 137.5,275.5C 113.824,275.833 90.1573,275.5 66.5,274.5C 67.325,273.614 68.325,273.281 69.5,273.5 Z"/></g>
<g><path style="opacity:0.98" fill="#876642" d="M 74.5,269.5 C 73.0158,271.074 71.3492,272.407 69.5,273.5C 68.325,273.281 67.325,273.614 66.5,274.5C 90.1573,275.5 113.824,275.833 137.5,275.5C 113.33,276.829 88.9967,276.829 64.5,275.5C 64.8627,274.817 65.1961,274.15 65.5,273.5C 68.0884,271.408 71.0884,270.075 74.5,269.5 Z"/></g>
<g><path style="opacity:0.786" fill="#4d3820" d="M 65.5,273.5 C 65.1961,274.15 64.8627,274.817 64.5,275.5C 88.9967,276.829 113.33,276.829 137.5,275.5C 150.167,275.5 162.833,275.5 175.5,275.5C 170.167,276.167 164.833,276.833 159.5,277.5C 127.5,277.5 95.5,277.5 63.5,277.5C 63.1568,275.517 63.8235,274.183 65.5,273.5 Z"/></g>
<g><path style="opacity:0.656" fill="#281909" d="M 176.5,253.5 C 177.656,260.989 177.822,268.655 177,276.5C 171.259,277.475 165.425,277.808 159.5,277.5C 164.833,276.833 170.167,276.167 175.5,275.5C 176.492,268.352 176.825,261.019 176.5,253.5 Z"/></g>
</svg>
