<?xml version="1.0" encoding="UTF-8"?>
<!DOCTYPE svg PUBLIC "-//W3C//DTD SVG 1.1//EN" "http://www.w3.org/Graphics/SVG/1.1/DTD/svg11.dtd">
<svg xmlns="http://www.w3.org/2000/svg" version="1.1" width="100%" viewBox="0 0 296 296" style="shape-rendering:geometricPrecision; text-rendering:geometricPrecision; image-rendering:optimizeQuality; fill-rule:evenodd; clip-rule:evenodd" xmlns:xlink="http://www.w3.org/1999/xlink">
<g><path style="opacity:0.474" fill="#d7d7d7" d="M 145.5,62.5 C 145.703,64.0443 146.37,65.3777 147.5,66.5C 147.167,66.8333 146.833,67.1667 146.5,67.5C 145.378,66.3698 144.044,65.7031 142.5,65.5C 141.395,64.3995 140.062,63.7329 138.5,63.5C 135.125,57.3308 130.125,53.3308 123.5,51.5C 122.535,47.8925 120.202,46.2258 116.5,46.5C 113.188,41.1852 108.521,37.8519 102.5,36.5C 100.181,36.0075 98.1815,35.0075 96.5,33.5C 94.8073,30.3182 92.1407,28.6516 88.5,28.5C 88.2053,30.7354 88.5386,32.7354 89.5,34.5C 89.699,42.3007 91.3657,49.6341 94.5,56.5C 94.5,57.1667 94.5,57.8333 94.5,58.5C 94.4095,61.1522 95.0762,63.4855 96.5,65.5C 97.069,69.3293 96.4023,72.6627 94.5,75.5C 90.0856,60.5972 86.7523,45.4305 84.5,30C 84.4841,27.6948 85.4841,26.0282 87.5,25C 90.2567,24.4163 92.9234,24.7496 95.5,26C 113.403,36.4536 130.07,48.6203 145.5,62.5 Z"/></g>
<g><path style="opacity:1" fill="#9a939c" d="M 96.5,33.5 C 94.9382,33.2671 93.6049,32.6005 92.5,31.5C 91.791,30.596 90.791,30.2627 89.5,30.5C 89.5,31.8333 89.5,33.1667 89.5,34.5C 88.5386,32.7354 88.2053,30.7354 88.5,28.5C 92.1407,28.6516 94.8073,30.3182 96.5,33.5 Z"/></g>
<g><path style="opacity:1" fill="#6e6371" d="M 92.5,31.5 C 91.2749,32.1522 90.6083,33.3189 90.5,35C 91.6748,42.2179 93.0081,49.3846 94.5,56.5C 91.3657,49.6341 89.699,42.3007 89.5,34.5C 89.5,33.1667 89.5,31.8333 89.5,30.5C 90.791,30.2627 91.791,30.596 92.5,31.5 Z"/></g>
<g><path style="opacity:1" fill="#6c287d" d="M 92.5,31.5 C 93.6049,32.6005 94.9382,33.2671 96.5,33.5C 98.1815,35.0075 100.181,36.0075 102.5,36.5C 104.607,38.7267 106.94,40.7267 109.5,42.5C 109.5,43.8333 109.5,45.1667 109.5,46.5C 110.833,46.5 112.167,46.5 113.5,46.5C 113.5,47.5 113.5,48.5 113.5,49.5C 114.873,49.3433 116.207,49.51 117.5,50C 115.741,51.008 114.574,52.508 114,54.5C 112.703,53.2164 111.536,53.3831 110.5,55C 114.093,55.6844 114.427,57.1844 111.5,59.5C 113.203,59.1493 114.87,59.816 116.5,61.5C 114.291,62.063 112.791,63.3964 112,65.5C 111.167,63 110,62.8333 108.5,65C 110.443,68.7515 111.776,72.4182 112.5,76C 110.744,76.2022 109.078,76.7022 107.5,77.5C 108.865,79.7508 108.531,81.7508 106.5,83.5C 104.522,81.6579 102.855,79.6579 101.5,77.5C 100.5,75.5 99.5,73.5 98.5,71.5C 98.1249,69.3024 97.4582,67.3024 96.5,65.5C 96.5905,62.8478 95.9238,60.5145 94.5,58.5C 94.5,57.8333 94.5,57.1667 94.5,56.5C 93.0081,49.3846 91.6748,42.2179 90.5,35C 90.6083,33.3189 91.2749,32.1522 92.5,31.5 Z"/></g>
<g><path style="opacity:1" fill="#a097a3" d="M 102.5,36.5 C 108.521,37.8519 113.188,41.1852 116.5,46.5C 114.184,45.1944 111.85,43.8611 109.5,42.5C 106.94,40.7267 104.607,38.7267 102.5,36.5 Z"/></g>
<g><path style="opacity:1" fill="#9e95a1" d="M 116.5,46.5 C 120.202,46.2258 122.535,47.8925 123.5,51.5C 120.883,50.2141 118.55,48.5475 116.5,46.5 Z"/></g>
<g><path style="opacity:1" fill="#692879" d="M 109.5,42.5 C 111.85,43.8611 114.184,45.1944 116.5,46.5C 118.55,48.5475 120.883,50.2141 123.5,51.5C 127.944,56.2185 132.944,60.2185 138.5,63.5C 141.833,67.5 145.5,71.1667 149.5,74.5C 153.996,79.5053 157.996,84.8387 161.5,90.5C 161.755,92.9674 162.755,94.9674 164.5,96.5C 165.338,96.8417 165.672,97.5084 165.5,98.5C 165.5,99.1667 165.5,99.8333 165.5,100.5C 162.45,97.9766 160.95,98.9766 161,103.5C 160.717,100.258 159.883,99.9244 158.5,102.5C 159.833,103.62 160.333,104.953 160,106.5C 158.755,106.539 157.422,106.205 156,105.5C 154.036,106.852 151.869,107.686 149.5,108C 150.93,109.88 150.596,111.38 148.5,112.5C 145.42,110.598 142.254,109.932 139,110.5C 138.544,109.256 139.044,108.423 140.5,108C 139.216,107.316 138.049,107.483 137,108.5C 135.667,107.833 134.667,106.833 134,105.5C 133.801,107.402 132.967,108.902 131.5,110C 134.092,110.606 136.426,112.272 138.5,115C 135.599,114.766 132.599,115.099 129.5,116C 130.88,117.324 131.214,118.657 130.5,120C 131.75,122.625 133.75,123.625 136.5,123C 135.465,121.493 135.632,119.993 137,118.5C 137.707,120.081 138.54,121.581 139.5,123C 139.018,124.008 138.852,125.175 139,126.5C 138.086,125.346 137.253,125.513 136.5,127C 137.252,127.671 137.586,128.504 137.5,129.5C 131.5,123.833 125.5,118.167 119.5,112.5C 118.581,109.911 116.914,107.911 114.5,106.5C 114.262,104.596 113.262,103.262 111.5,102.5C 110.331,99.4887 108.664,96.822 106.5,94.5C 106.88,92.302 106.213,90.6354 104.5,89.5C 103.512,85.5152 102.512,81.5152 101.5,77.5C 102.855,79.6579 104.522,81.6579 106.5,83.5C 108.531,81.7508 108.865,79.7508 107.5,77.5C 109.078,76.7022 110.744,76.2022 112.5,76C 111.776,72.4182 110.443,68.7515 108.5,65C 110,62.8333 111.167,63 112,65.5C 112.791,63.3964 114.291,62.063 116.5,61.5C 114.87,59.816 113.203,59.1493 111.5,59.5C 114.427,57.1844 114.093,55.6844 110.5,55C 111.536,53.3831 112.703,53.2164 114,54.5C 114.574,52.508 115.741,51.008 117.5,50C 116.207,49.51 114.873,49.3433 113.5,49.5C 113.5,48.5 113.5,47.5 113.5,46.5C 112.167,46.5 110.833,46.5 109.5,46.5C 109.5,45.1667 109.5,43.8333 109.5,42.5 Z"/></g>
<g><path style="opacity:1" fill="#9f97a2" d="M 123.5,51.5 C 130.125,53.3308 135.125,57.3308 138.5,63.5C 132.944,60.2185 127.944,56.2185 123.5,51.5 Z"/></g>
<g><path style="opacity:0.497" fill="#cdcdcd" d="M 64.5,73.5 C 65.087,74.7666 65.087,75.7666 64.5,76.5C 62.5504,75.6279 60.5504,74.9612 58.5,74.5C 56.2512,73.9202 54.5846,72.5869 53.5,70.5C 50.5,67.1667 47.5,63.8333 44.5,60.5C 43.4149,56.9547 41.0816,54.9547 37.5,54.5C 37.2291,56.3797 37.8958,57.713 39.5,58.5C 39.5,59.1667 39.5,59.8333 39.5,60.5C 41.02,63.7199 42.3533,67.0532 43.5,70.5C 44.2178,72.1368 44.3845,73.8034 44,75.5C 43.5776,73.5743 42.4109,72.5743 40.5,72.5C 37.1956,67.0574 34.8622,61.224 33.5,55C 33.8485,49.9097 36.5152,48.2431 41.5,50C 49.2001,57.8398 56.8668,65.6732 64.5,73.5 Z"/></g>
<g><path style="opacity:1" fill="#ac7bb8" d="M 44.5,60.5 C 47.5,63.8333 50.5,67.1667 53.5,70.5C 49.933,68.4434 46.7663,65.7768 44,62.5C 43.5357,63.0944 43.369,63.7611 43.5,64.5C 42.5275,62.8608 41.1942,61.5274 39.5,60.5C 39.5,59.8333 39.5,59.1667 39.5,58.5C 39.56,57.9569 39.8933,57.6236 40.5,57.5C 41.8518,58.5244 43.1851,59.5244 44.5,60.5 Z"/></g>
<g><path style="opacity:1" fill="#726376" d="M 39.5,60.5 C 41.1942,61.5274 42.5275,62.8608 43.5,64.5C 44.5,67.1667 45.5,69.8333 46.5,72.5C 45.5,71.8333 44.5,71.1667 43.5,70.5C 42.3533,67.0532 41.02,63.7199 39.5,60.5 Z"/></g>
<g><path style="opacity:1" fill="#959296" d="M 44.5,60.5 C 43.1851,59.5244 41.8518,58.5244 40.5,57.5C 39.8933,57.6236 39.56,57.9569 39.5,58.5C 37.8958,57.713 37.2291,56.3797 37.5,54.5C 41.0816,54.9547 43.4149,56.9547 44.5,60.5 Z"/></g>
<g><path style="opacity:1" fill="#938897" d="M 138.5,63.5 C 140.062,63.7329 141.395,64.3995 142.5,65.5C 145.239,68.2327 147.573,71.2327 149.5,74.5C 145.5,71.1667 141.833,67.5 138.5,63.5 Z"/></g>
<g><path style="opacity:1" fill="#767178" d="M 94.5,58.5 C 95.9238,60.5145 96.5905,62.8478 96.5,65.5C 95.0762,63.4855 94.4095,61.1522 94.5,58.5 Z"/></g>
<g><path style="opacity:0.423" fill="#b9b9b9" d="M 43.5,70.5 C 44.5,71.1667 45.5,71.8333 46.5,72.5C 46.0246,75.3126 47.0246,77.3126 49.5,78.5C 51.0075,80.1815 52.0075,82.1815 52.5,84.5C 52.8923,86.1789 53.3923,87.8455 54,89.5C 56.4308,91.0287 58.2641,93.0287 59.5,95.5C 59.5607,99.0709 61.2274,101.404 64.5,102.5C 64.7361,105.621 66.0695,107.954 68.5,109.5C 68.5674,110.959 68.2341,112.292 67.5,113.5C 62.9793,109.496 59.1459,104.829 56,99.5C 51.0055,90.3539 45.8388,81.3539 40.5,72.5C 42.4109,72.5743 43.5776,73.5743 44,75.5C 44.3845,73.8034 44.2178,72.1368 43.5,70.5 Z"/></g>
<g><path style="opacity:0.514" fill="#bcbcbc" d="M 96.5,65.5 C 97.4582,67.3024 98.1249,69.3024 98.5,71.5C 99.5271,77.9148 101.527,83.9148 104.5,89.5C 104.796,91.403 105.463,93.0697 106.5,94.5C 106.4,97.1085 107.067,99.4418 108.5,101.5C 108.631,102.376 108.298,103.043 107.5,103.5C 106.712,102.23 105.712,101.23 104.5,100.5C 100.351,92.5293 97.0178,84.196 94.5,75.5C 96.4023,72.6627 97.069,69.3293 96.5,65.5 Z"/></g>
<g><path style="opacity:1" fill="#5c555e" d="M 98.5,71.5 C 99.5,73.5 100.5,75.5 101.5,77.5C 102.512,81.5152 103.512,85.5152 104.5,89.5C 101.527,83.9148 99.5271,77.9148 98.5,71.5 Z"/></g>
<g><path style="opacity:0.519" fill="#c2c1c2" d="M 145.5,62.5 C 153.462,69.9759 160.629,78.3093 167,87.5C 167.608,89.1545 168.108,90.8211 168.5,92.5C 169.231,94.5988 169.231,96.5988 168.5,98.5C 166.764,96.116 165.097,93.7827 163.5,91.5C 162.833,91.1667 162.167,90.8333 161.5,90.5C 157.996,84.8387 153.996,79.5053 149.5,74.5C 147.573,71.2327 145.239,68.2327 142.5,65.5C 144.044,65.7031 145.378,66.3698 146.5,67.5C 146.833,67.1667 147.167,66.8333 147.5,66.5C 146.37,65.3777 145.703,64.0443 145.5,62.5 Z"/></g>
<g><path style="opacity:0.45" fill="#c1c1c1" d="M 239.5,106.5 C 239.082,105.778 238.416,105.278 237.5,105C 238.71,103.961 239.71,102.794 240.5,101.5C 244.643,97.2673 248.977,93.2673 253.5,89.5C 253.973,88.0937 254.973,87.427 256.5,87.5C 261.433,86.7022 265.433,84.3688 268.5,80.5C 265.894,79.3483 263.227,79.1816 260.5,80C 258.68,80.2004 257.347,81.0337 256.5,82.5C 255.833,82.5 255.167,82.5 254.5,82.5C 246.066,84.0602 238.066,86.7269 230.5,90.5C 222.78,91.3633 216.114,94.3633 210.5,99.5C 207.262,100.738 204.262,102.404 201.5,104.5C 200.448,104.649 199.448,104.483 198.5,104C 199.252,103.329 199.586,102.496 199.5,101.5C 205.437,97.1898 211.77,93.3565 218.5,90C 235.443,82.3484 253.11,77.6817 271.5,76C 273.68,78.4177 274.013,81.0844 272.5,84C 260.778,90.521 249.778,98.021 239.5,106.5 Z"/></g>
<g><path style="opacity:1" fill="#79697d" d="M 46.5,72.5 C 48.2451,74.0326 49.2451,76.0326 49.5,78.5C 47.0246,77.3126 46.0246,75.3126 46.5,72.5 Z"/></g>
<g><path style="opacity:1" fill="#8c878e" d="M 256.5,87.5 C 258.927,85.4424 261.593,83.6091 264.5,82C 261.779,81.3985 259.113,81.5651 256.5,82.5C 257.347,81.0337 258.68,80.2004 260.5,80C 263.227,79.1816 265.894,79.3483 268.5,80.5C 265.433,84.3688 261.433,86.7022 256.5,87.5 Z"/></g>
<g><path style="opacity:1" fill="#ba71cc" d="M 53.5,70.5 C 54.5846,72.5869 56.2512,73.9202 58.5,74.5C 62.5,78.1667 66.5,81.8333 70.5,85.5C 71.5575,90.3585 70.3909,94.6919 67,98.5C 66.2496,97.8742 65.4162,97.3742 64.5,97C 66.158,96.2747 66.658,95.108 66,93.5C 65.1074,94.0814 64.1074,94.4148 63,94.5C 61.3933,93.9265 59.8933,93.2598 58.5,92.5C 56.984,89.4669 54.984,86.8003 52.5,84.5C 52.0075,82.1815 51.0075,80.1815 49.5,78.5C 49.2451,76.0326 48.2451,74.0326 46.5,72.5C 45.5,69.8333 44.5,67.1667 43.5,64.5C 43.369,63.7611 43.5357,63.0944 44,62.5C 46.7663,65.7768 49.933,68.4434 53.5,70.5 Z"/></g>
<g><path style="opacity:1" fill="#8a5996" d="M 256.5,87.5 C 254.973,87.427 253.973,88.0937 253.5,89.5C 245.614,94.3775 238.281,100.044 231.5,106.5C 231.906,104.891 231.906,103.557 231.5,102.5C 230.713,103.242 230.047,104.075 229.5,105C 228.065,104.689 226.732,104.855 225.5,105.5C 224.304,105.154 224.304,104.654 225.5,104C 224.551,103.383 223.718,103.549 223,104.5C 221.622,102.787 219.955,101.453 218,100.5C 217.751,101.624 217.251,102.624 216.5,103.5C 215.591,101.625 214.257,100.292 212.5,99.5C 218.114,95.739 224.114,92.739 230.5,90.5C 238.778,88.4075 246.778,85.7408 254.5,82.5C 255.167,82.5 255.833,82.5 256.5,82.5C 259.113,81.5651 261.779,81.3985 264.5,82C 261.593,83.6091 258.927,85.4424 256.5,87.5 Z"/></g>
<g><path style="opacity:1" fill="#76677a" d="M 254.5,82.5 C 246.778,85.7408 238.778,88.4075 230.5,90.5C 238.066,86.7269 246.066,84.0602 254.5,82.5 Z"/></g>
<g><path style="opacity:1" fill="#524456" d="M 104.5,89.5 C 106.213,90.6354 106.88,92.302 106.5,94.5C 105.463,93.0697 104.796,91.403 104.5,89.5 Z"/></g>
<g><path style="opacity:1" fill="#756879" d="M 52.5,84.5 C 54.984,86.8003 56.984,89.4669 58.5,92.5C 59.1098,93.391 59.4431,94.391 59.5,95.5C 58.2641,93.0287 56.4308,91.0287 54,89.5C 53.3923,87.8455 52.8923,86.1789 52.5,84.5 Z"/></g>
<g><path style="opacity:0.627" fill="#bab9ba" d="M 64.5,73.5 C 76.6923,82.4241 89.0256,91.0907 101.5,99.5C 102.543,102.056 104.21,104.223 106.5,106C 104.418,105.068 102.085,104.568 99.5,104.5C 97.3589,101.528 94.6922,99.0282 91.5,97C 90.2068,96.51 88.8734,96.3433 87.5,96.5C 86.391,96.4431 85.391,96.1098 84.5,95.5C 79.871,92.1789 75.2043,88.8456 70.5,85.5C 66.5,81.8333 62.5,78.1667 58.5,74.5C 60.5504,74.9612 62.5504,75.6279 64.5,76.5C 65.087,75.7666 65.087,74.7666 64.5,73.5 Z"/></g>
<g><path style="opacity:1" fill="#868287" d="M 230.5,90.5 C 224.114,92.739 218.114,95.739 212.5,99.5C 211.833,99.5 211.167,99.5 210.5,99.5C 216.114,94.3633 222.78,91.3633 230.5,90.5 Z"/></g>
<g><path style="opacity:1" fill="#9f60af" d="M 70.5,85.5 C 75.2043,88.8456 79.871,92.1789 84.5,95.5C 84.5842,98.7485 83.7508,101.748 82,104.5C 78.966,105.601 76.1326,107.101 73.5,109C 74.6956,109.654 74.6956,110.154 73.5,110.5C 72.5832,109.873 71.5832,109.539 70.5,109.5C 68.7267,106.94 66.7267,104.607 64.5,102.5C 63.5667,99.6298 61.9,97.2964 59.5,95.5C 59.4431,94.391 59.1098,93.391 58.5,92.5C 59.8933,93.2598 61.3933,93.9265 63,94.5C 64.1074,94.4148 65.1074,94.0814 66,93.5C 66.658,95.108 66.158,96.2747 64.5,97C 65.4162,97.3742 66.2496,97.8742 67,98.5C 70.3909,94.6919 71.5575,90.3585 70.5,85.5 Z"/></g>
<g><path style="opacity:1" fill="#7f5a89" d="M 161.5,90.5 C 162.167,90.8333 162.833,91.1667 163.5,91.5C 163.629,93.2161 163.962,94.8828 164.5,96.5C 162.755,94.9674 161.755,92.9674 161.5,90.5 Z"/></g>
<g><path style="opacity:0.996" fill="#7a757b" d="M 106.5,94.5 C 108.664,96.822 110.331,99.4887 111.5,102.5C 110.609,101.89 109.609,101.557 108.5,101.5C 107.067,99.4418 106.4,97.1085 106.5,94.5 Z"/></g>
<g><path style="opacity:0.662" fill="#a5a2a5" d="M 101.5,99.5 C 102.391,100.11 103.391,100.443 104.5,100.5C 105.712,101.23 106.712,102.23 107.5,103.5C 108.298,103.043 108.631,102.376 108.5,101.5C 109.609,101.557 110.609,101.89 111.5,102.5C 113.262,103.262 114.262,104.596 114.5,106.5C 115.419,109.089 117.086,111.089 119.5,112.5C 127.445,122.113 136.111,131.113 145.5,139.5C 145.253,141.858 145.919,143.858 147.5,145.5C 147.631,146.376 147.298,147.043 146.5,147.5C 145.583,146.873 144.583,146.539 143.5,146.5C 136.76,138.255 129.427,130.422 121.5,123C 113.976,116.969 106.643,110.802 99.5,104.5C 102.085,104.568 104.418,105.068 106.5,106C 104.21,104.223 102.543,102.056 101.5,99.5 Z"/></g>
<g><path style="opacity:0.996" fill="#7d777e" d="M 59.5,95.5 C 61.9,97.2964 63.5667,99.6298 64.5,102.5C 61.2274,101.404 59.5607,99.0709 59.5,95.5 Z"/></g>
<g><path style="opacity:1" fill="#948c95" d="M 87.5,96.5 C 88.8734,96.3433 90.2068,96.51 91.5,97C 94.6922,99.0282 97.3589,101.528 99.5,104.5C 94.8033,102.822 90.8033,100.156 87.5,96.5 Z"/></g>
<g><path style="opacity:1" fill="#7d5e84" d="M 210.5,99.5 C 211.167,99.5 211.833,99.5 212.5,99.5C 208.682,102.897 204.349,105.564 199.5,107.5C 200.167,106.5 200.833,105.5 201.5,104.5C 204.262,102.404 207.262,100.738 210.5,99.5 Z"/></g>
<g><path style="opacity:1" fill="#7b747c" d="M 253.5,89.5 C 248.977,93.2673 244.643,97.2673 240.5,101.5C 232.391,108.437 224.391,115.604 216.5,123C 212.929,125.421 209.262,127.587 205.5,129.5C 210.647,125.197 215.98,121.03 221.5,117C 225.037,113.631 228.371,110.131 231.5,106.5C 238.281,100.044 245.614,94.3775 253.5,89.5 Z"/></g>
<g><path style="opacity:1" fill="#928197" d="M 165.5,98.5 C 166.712,99.2299 167.712,100.23 168.5,101.5C 169.712,105.799 170.712,110.132 171.5,114.5C 169.695,109.751 167.695,105.085 165.5,100.5C 165.5,99.8333 165.5,99.1667 165.5,98.5 Z"/></g>
<g><path style="opacity:1" fill="#6c297d" d="M 165.5,100.5 C 167.695,105.085 169.695,109.751 171.5,114.5C 171.966,119.638 172.966,124.638 174.5,129.5C 175.314,134.119 175.647,138.786 175.5,143.5C 173.503,136.413 172.003,129.08 171,121.5C 170.333,122.833 169.667,122.833 169,121.5C 167.123,123.791 167.29,125.791 169.5,127.5C 169.167,127.833 168.833,128.167 168.5,128.5C 167.016,126.926 165.349,125.593 163.5,124.5C 163.678,125.956 162.844,127.289 161,128.5C 155.171,130.403 152.171,134.737 152,141.5C 151.346,140.304 150.846,140.304 150.5,141.5C 151.811,145.389 152.478,149.389 152.5,153.5C 151.167,153.5 149.833,153.5 148.5,153.5C 148.5,152.833 148.833,152.5 149.5,152.5C 150.586,152.38 151.253,151.713 151.5,150.5C 151.157,145.849 149.157,142.182 145.5,139.5C 143.237,135.897 140.57,132.564 137.5,129.5C 137.586,128.504 137.252,127.671 136.5,127C 137.253,125.513 138.086,125.346 139,126.5C 138.852,125.175 139.018,124.008 139.5,123C 138.54,121.581 137.707,120.081 137,118.5C 135.632,119.993 135.465,121.493 136.5,123C 133.75,123.625 131.75,122.625 130.5,120C 131.214,118.657 130.88,117.324 129.5,116C 132.599,115.099 135.599,114.766 138.5,115C 136.426,112.272 134.092,110.606 131.5,110C 132.967,108.902 133.801,107.402 134,105.5C 134.667,106.833 135.667,107.833 137,108.5C 138.049,107.483 139.216,107.316 140.5,108C 139.044,108.423 138.544,109.256 139,110.5C 142.254,109.932 145.42,110.598 148.5,112.5C 150.596,111.38 150.93,109.88 149.5,108C 151.869,107.686 154.036,106.852 156,105.5C 157.422,106.205 158.755,106.539 160,106.5C 160.333,104.953 159.833,103.62 158.5,102.5C 159.883,99.9244 160.717,100.258 161,103.5C 160.95,98.9766 162.45,97.9766 165.5,100.5 Z"/></g>
<g><path style="opacity:0.976" fill="#787379" d="M 64.5,102.5 C 66.7267,104.607 68.7267,106.94 70.5,109.5C 70.5,109.833 70.5,110.167 70.5,110.5C 69.8333,110.167 69.1667,109.833 68.5,109.5C 66.0695,107.954 64.7361,105.621 64.5,102.5 Z"/></g>
<g><path style="opacity:1" fill="#4f4751" d="M 114.5,106.5 C 116.914,107.911 118.581,109.911 119.5,112.5C 117.086,111.089 115.419,109.089 114.5,106.5 Z"/></g>
<g><path style="opacity:1" fill="#8e599b" d="M 84.5,95.5 C 85.391,96.1098 86.391,96.4431 87.5,96.5C 90.8033,100.156 94.8033,102.822 99.5,104.5C 106.643,110.802 113.976,116.969 121.5,123C 129.427,130.422 136.76,138.255 143.5,146.5C 143.5,146.833 143.5,147.167 143.5,147.5C 132.846,149.357 122.513,148.191 112.5,144C 109.6,143.057 107.267,141.39 105.5,139C 104.207,138.51 102.873,138.343 101.5,138.5C 101.027,137.094 100.027,136.427 98.5,136.5C 96.0907,133.456 93.0907,131.122 89.5,129.5C 84.5261,124.861 79.5261,120.195 74.5,115.5C 73.9202,113.251 72.5869,111.585 70.5,110.5C 70.5,110.167 70.5,109.833 70.5,109.5C 71.5832,109.539 72.5832,109.873 73.5,110.5C 74.6956,110.154 74.6956,109.654 73.5,109C 76.1326,107.101 78.966,105.601 82,104.5C 83.7508,101.748 84.5842,98.7485 84.5,95.5 Z"/></g>
<g><path style="opacity:1" fill="#615864" d="M 70.5,110.5 C 72.5869,111.585 73.9202,113.251 74.5,115.5C 72.4131,114.415 71.0798,112.749 70.5,110.5 Z"/></g>
<g><path style="opacity:0.412" fill="#abaaab" d="M 163.5,91.5 C 165.097,93.7827 166.764,96.116 168.5,98.5C 169.231,96.5988 169.231,94.5988 168.5,92.5C 173.668,102.168 177.168,112.502 179,123.5C 184.316,114.686 191.149,107.353 199.5,101.5C 199.586,102.496 199.252,103.329 198.5,104C 199.448,104.483 200.448,104.649 201.5,104.5C 200.833,105.5 200.167,106.5 199.5,107.5C 193.255,111.909 187.755,117.243 183,123.5C 182.506,125.134 182.34,126.801 182.5,128.5C 181.768,129.808 180.934,131.142 180,132.5C 178.454,148.184 177.121,147.851 176,131.5C 175.722,130.584 175.222,129.918 174.5,129.5C 172.966,124.638 171.966,119.638 171.5,114.5C 170.712,110.132 169.712,105.799 168.5,101.5C 167.712,100.23 166.712,99.2299 165.5,98.5C 165.672,97.5084 165.338,96.8417 164.5,96.5C 163.962,94.8828 163.629,93.2161 163.5,91.5 Z"/></g>
<g><path style="opacity:1" fill="#9a60a8" d="M 212.5,99.5 C 214.257,100.292 215.591,101.625 216.5,103.5C 217.251,102.624 217.751,101.624 218,100.5C 219.955,101.453 221.622,102.787 223,104.5C 223.718,103.549 224.551,103.383 225.5,104C 224.304,104.654 224.304,105.154 225.5,105.5C 226.732,104.855 228.065,104.689 229.5,105C 230.047,104.075 230.713,103.242 231.5,102.5C 231.906,103.557 231.906,104.891 231.5,106.5C 228.371,110.131 225.037,113.631 221.5,117C 215.98,121.03 210.647,125.197 205.5,129.5C 198.958,133.023 192.458,136.69 186,140.5C 184.739,140.241 183.739,139.574 183,138.5C 182.502,135.183 182.335,131.85 182.5,128.5C 187.002,120.654 192.669,113.654 199.5,107.5C 204.349,105.564 208.682,102.897 212.5,99.5 Z"/></g>
<g><path style="opacity:1" fill="#57505a" d="M 119.5,112.5 C 125.5,118.167 131.5,123.833 137.5,129.5C 140.57,132.564 143.237,135.897 145.5,139.5C 136.111,131.113 127.445,122.113 119.5,112.5 Z"/></g>
<g><path style="opacity:1" fill="#5d585e" d="M 74.5,115.5 C 79.5261,120.195 84.5261,124.861 89.5,129.5C 83.2166,126.217 78.2166,121.55 74.5,115.5 Z"/></g>
<g><path style="opacity:0.47" fill="#a8a8a8" d="M 240.5,101.5 C 239.71,102.794 238.71,103.961 237.5,105C 238.416,105.278 239.082,105.778 239.5,106.5C 228.932,118.741 216.598,128.741 202.5,136.5C 200.516,136.383 198.85,137.05 197.5,138.5C 197.167,138.167 196.833,137.833 196.5,137.5C 200.166,135.496 203.166,132.829 205.5,129.5C 209.262,127.587 212.929,125.421 216.5,123C 224.391,115.604 232.391,108.437 240.5,101.5 Z"/></g>
<g><path style="opacity:1" fill="#6d646f" d="M 199.5,107.5 C 192.669,113.654 187.002,120.654 182.5,128.5C 182.34,126.801 182.506,125.134 183,123.5C 187.755,117.243 193.255,111.909 199.5,107.5 Z"/></g>
<g><path style="opacity:1" fill="#4e4151" d="M 89.5,129.5 C 93.0907,131.122 96.0907,133.456 98.5,136.5C 94.6367,135.306 91.6367,132.973 89.5,129.5 Z"/></g>
<g><path style="opacity:0.794" fill="#939094" d="M 182.5,128.5 C 182.335,131.85 182.502,135.183 183,138.5C 183.739,139.574 184.739,140.241 186,140.5C 192.458,136.69 198.958,133.023 205.5,129.5C 203.166,132.829 200.166,135.496 196.5,137.5C 196.833,137.833 197.167,138.167 197.5,138.5C 198.85,137.05 200.516,136.383 202.5,136.5C 201.657,138.173 200.324,139.34 198.5,140C 215.4,142.95 230.4,149.95 243.5,161C 247.395,165.065 251.395,168.898 255.5,172.5C 254.761,172.369 254.094,172.536 253.5,173C 261.727,182.719 270.061,192.219 278.5,201.5C 283.915,207.994 288.581,214.994 292.5,222.5C 292.253,223.713 291.586,224.38 290.5,224.5C 290.204,222.597 289.537,220.93 288.5,219.5C 284.883,213.255 280.549,207.588 275.5,202.5C 274.92,200.251 273.587,198.585 271.5,197.5C 269.628,194.418 267.295,191.751 264.5,189.5C 262.167,186.5 259.5,183.833 256.5,181.5C 250.49,175.491 244.157,169.825 237.5,164.5C 234.017,161.261 230.35,158.261 226.5,155.5C 222.143,151.824 217.143,149.49 211.5,148.5C 209.435,148.483 207.435,148.15 205.5,147.5C 204.737,146.732 203.737,146.232 202.5,146C 193.84,145.5 185.173,145.334 176.5,145.5C 176.672,144.508 176.338,143.842 175.5,143.5C 175.647,138.786 175.314,134.119 174.5,129.5C 175.222,129.918 175.722,130.584 176,131.5C 177.121,147.851 178.454,148.184 180,132.5C 180.934,131.142 181.768,129.808 182.5,128.5 Z"/></g>
<g><path style="opacity:0.662" fill="#9c9c9c" d="M 68.5,109.5 C 69.1667,109.833 69.8333,110.167 70.5,110.5C 71.0798,112.749 72.4131,114.415 74.5,115.5C 78.2166,121.55 83.2166,126.217 89.5,129.5C 91.6367,132.973 94.6367,135.306 98.5,136.5C 98.9731,137.906 99.9731,138.573 101.5,138.5C 102.306,139.728 103.306,140.728 104.5,141.5C 104.911,145.079 106.911,147.246 110.5,148C 109.906,148.464 109.239,148.631 108.5,148.5C 100.198,145.688 91.8647,142.855 83.5,140C 72.2459,137.458 60.9125,136.958 49.5,138.5C 42.7935,138.771 36.1268,139.437 29.5,140.5C 27.8295,140.332 26.4961,139.665 25.5,138.5C 46.7434,133.337 68.0767,132.504 89.5,136C 82.7351,130.073 76.0685,123.907 69.5,117.5C 68.3698,116.378 67.7031,115.044 67.5,113.5C 68.2341,112.292 68.5674,110.959 68.5,109.5 Z"/></g>
<g><path style="opacity:1" fill="#464048" d="M 98.5,136.5 C 100.027,136.427 101.027,137.094 101.5,138.5C 99.9731,138.573 98.9731,137.906 98.5,136.5 Z"/></g>
<g><path style="opacity:0.559" fill="#8d8d8e" d="M 25.5,138.5 C 26.4961,139.665 27.8295,140.332 29.5,140.5C 36.1268,139.437 42.7935,138.771 49.5,138.5C 47.8333,139.167 46.1667,139.833 44.5,140.5C 44.1667,140.5 43.8333,140.5 43.5,140.5C 38.1556,140.816 32.8222,141.316 27.5,142C 25.1484,142.24 23.1484,143.073 21.5,144.5C 16.6488,146.304 11.6488,147.971 6.5,149.5C 5.32496,149.281 4.32496,149.614 3.5,150.5C 4.11524,152.116 5.11524,153.449 6.5,154.5C 4.9974,155.052 3.33073,155.052 1.5,154.5C 0.833333,154.167 0.166667,153.833 -0.5,153.5C -0.5,151.5 -0.5,149.5 -0.5,147.5C 7.59719,142.972 16.2639,139.972 25.5,138.5 Z"/></g>
<g><path style="opacity:1" fill="#76657b" d="M 108.5,148.5 C 110.076,149.143 111.41,150.143 112.5,151.5C 108.167,150.167 103.833,148.833 99.5,147.5C 92.0003,143.724 84.0003,141.224 75.5,140C 65.1477,139.328 54.8144,139.494 44.5,140.5C 46.1667,139.833 47.8333,139.167 49.5,138.5C 60.9125,136.958 72.2459,137.458 83.5,140C 91.8647,142.855 100.198,145.688 108.5,148.5 Z"/></g>
<g><path style="opacity:1" fill="#682879" d="M 99.5,147.5 C 97.8561,147.286 96.3561,147.62 95,148.5C 94.6121,147.572 93.9454,146.905 93,146.5C 90.0181,147.832 87.0181,149.165 84,150.5C 82.2697,147.594 79.7697,146.427 76.5,147C 75.7449,149.133 74.4116,150.8 72.5,152C 76.585,153.901 76.4183,155.401 72,156.5C 71.6667,156.167 71.3333,155.833 71,155.5C 70.4169,157.002 69.5836,158.335 68.5,159.5C 68.3306,157.883 67.9972,156.216 67.5,154.5C 65.5121,155.289 65.1787,156.455 66.5,158C 65.8742,158.75 65.3742,159.584 65,160.5C 64.6667,158.833 64.3333,157.167 64,155.5C 62.7188,155.381 61.5521,155.881 60.5,157C 62.797,158.16 62.4637,159.16 59.5,160C 60.1667,160.667 60.8333,161.333 61.5,162C 59.5,162.333 57.5,162.667 55.5,163C 58.6287,163.117 59.7954,164.617 59,167.5C 58.3946,165.519 57.3946,165.185 56,166.5C 54.6667,165.833 53.3333,165.167 52,164.5C 49.9543,166.371 49.1209,168.371 49.5,170.5C 47.7419,169.872 46.2419,168.872 45,167.5C 44.9095,169.876 45.4095,172.209 46.5,174.5C 48.0709,173.691 49.7376,173.357 51.5,173.5C 51.5172,175.565 51.8505,177.565 52.5,179.5C 45.6263,176.9 39.2929,173.566 33.5,169.5C 24.8873,164.856 16.5539,159.69 8.5,154C 7.41782,152.67 6.75115,151.17 6.5,149.5C 11.6488,147.971 16.6488,146.304 21.5,144.5C 28.9771,143.322 36.3105,141.988 43.5,140.5C 43.8333,140.5 44.1667,140.5 44.5,140.5C 54.8144,139.494 65.1477,139.328 75.5,140C 84.0003,141.224 92.0003,143.724 99.5,147.5 Z"/></g>
<g><path style="opacity:1" fill="#6c636e" d="M 43.5,140.5 C 36.3105,141.988 28.9771,143.322 21.5,144.5C 23.1484,143.073 25.1484,142.24 27.5,142C 32.8222,141.316 38.1556,140.816 43.5,140.5 Z"/></g>
<g><path style="opacity:0.984" fill="#8e8c8f" d="M 104.5,141.5 C 115.105,148.568 126.772,151.401 139.5,150C 141.32,149.8 142.653,148.966 143.5,147.5C 143.5,147.167 143.5,146.833 143.5,146.5C 144.583,146.539 145.583,146.873 146.5,147.5C 147.298,147.043 147.631,146.376 147.5,145.5C 149.344,147.279 150.01,149.612 149.5,152.5C 148.833,152.5 148.5,152.833 148.5,153.5C 136.148,158.072 124.148,157.405 112.5,151.5C 111.41,150.143 110.076,149.143 108.5,148.5C 109.239,148.631 109.906,148.464 110.5,148C 106.911,147.246 104.911,145.079 104.5,141.5 Z"/></g>
<g><path style="opacity:1" fill="#4d434f" d="M 101.5,138.5 C 102.873,138.343 104.207,138.51 105.5,139C 107.267,141.39 109.6,143.057 112.5,144C 122.513,148.191 132.846,149.357 143.5,147.5C 142.653,148.966 141.32,149.8 139.5,150C 126.772,151.401 115.105,148.568 104.5,141.5C 103.306,140.728 102.306,139.728 101.5,138.5 Z"/></g>
<g><path style="opacity:1" fill="#6a616c" d="M 176.5,145.5 C 185.173,145.334 193.84,145.5 202.5,146C 203.737,146.232 204.737,146.732 205.5,147.5C 197.45,146.267 189.45,146.267 181.5,147.5C 179.219,147.923 177.552,147.256 176.5,145.5 Z"/></g>
<g><path style="opacity:1" fill="#6c287d" d="M 99.5,147.5 C 103.833,148.833 108.167,150.167 112.5,151.5C 124.148,157.405 136.148,158.072 148.5,153.5C 146.177,155.328 143.511,156.661 140.5,157.5C 139.139,159.028 137.972,160.695 137,162.5C 135.961,161.756 135.461,160.756 135.5,159.5C 135.611,158.883 135.944,158.383 136.5,158C 131.309,157.703 126.143,157.203 121,156.5C 119.016,156.741 117.183,157.408 115.5,158.5C 114.522,158.023 113.689,157.357 113,156.5C 112.092,158.439 110.592,159.439 108.5,159.5C 108.404,163.311 107.738,163.311 106.5,159.5C 105.293,162.105 103.293,163.772 100.5,164.5C 100.709,165.086 101.043,165.586 101.5,166C 98.0617,165.865 95.2283,167.032 93,169.5C 92.7104,167.956 92.0437,166.623 91,165.5C 90.5348,166.931 89.7014,168.097 88.5,169C 84.0975,170.756 80.2642,173.256 77,176.5C 75.9153,174.343 74.7487,174.176 73.5,176C 77.6111,179.277 77.1111,180.111 72,178.5C 70.7163,179.572 70.3829,180.905 71,182.5C 69.456,179.736 68.2893,179.903 67.5,183C 68.0465,183.925 68.7132,184.758 69.5,185.5C 73.3105,185.973 76.6439,187.306 79.5,189.5C 75.1195,188.707 70.7862,187.707 66.5,186.5C 61.8675,184.184 57.2009,181.85 52.5,179.5C 51.8505,177.565 51.5172,175.565 51.5,173.5C 49.7376,173.357 48.0709,173.691 46.5,174.5C 45.4095,172.209 44.9095,169.876 45,167.5C 46.2419,168.872 47.7419,169.872 49.5,170.5C 49.1209,168.371 49.9543,166.371 52,164.5C 53.3333,165.167 54.6667,165.833 56,166.5C 57.3946,165.185 58.3946,165.519 59,167.5C 59.7954,164.617 58.6287,163.117 55.5,163C 57.5,162.667 59.5,162.333 61.5,162C 60.8333,161.333 60.1667,160.667 59.5,160C 62.4637,159.16 62.797,158.16 60.5,157C 61.5521,155.881 62.7188,155.381 64,155.5C 64.3333,157.167 64.6667,158.833 65,160.5C 65.3742,159.584 65.8742,158.75 66.5,158C 65.1787,156.455 65.5121,155.289 67.5,154.5C 67.9972,156.216 68.3306,157.883 68.5,159.5C 69.5836,158.335 70.4169,157.002 71,155.5C 71.3333,155.833 71.6667,156.167 72,156.5C 76.4183,155.401 76.585,153.901 72.5,152C 74.4116,150.8 75.7449,149.133 76.5,147C 79.7697,146.427 82.2697,147.594 84,150.5C 87.0181,149.165 90.0181,147.832 93,146.5C 93.9454,146.905 94.6121,147.572 95,148.5C 96.3561,147.62 97.8561,147.286 99.5,147.5 Z"/></g>
<g><path style="opacity:1" fill="#76278a" d="M 175.5,143.5 C 176.338,143.842 176.672,144.508 176.5,145.5C 177.552,147.256 179.219,147.923 181.5,147.5C 179.552,148.131 177.719,149.131 176,150.5C 175.517,149.552 175.351,148.552 175.5,147.5C 170.876,148.444 166.543,149.944 162.5,152C 161.315,153.353 159.981,154.52 158.5,155.5C 157.676,153.252 156.676,153.086 155.5,155C 155.833,155.333 156.167,155.667 156.5,156C 153.438,157.205 150.438,158.372 147.5,159.5C 147.657,160.873 147.49,162.207 147,163.5C 145.333,160.343 143.833,160.176 142.5,163C 140.008,164.604 137.341,165.938 134.5,167C 134.833,167.333 135.167,167.667 135.5,168C 131.415,169.787 127.915,172.287 125,175.5C 124.667,174.833 124.333,174.167 124,173.5C 122.921,175.394 121.587,175.727 120,174.5C 119.147,176.125 118.147,176.458 117,175.5C 115.98,176.891 115.147,178.391 114.5,180C 109.985,178.923 106.652,180.59 104.5,185C 106.443,184.695 108.443,184.695 110.5,185C 109.667,185.833 108.833,186.667 108,187.5C 107.282,186.549 106.449,186.383 105.5,187C 108.958,188.415 112.625,188.915 116.5,188.5C 116.5,188.833 116.5,189.167 116.5,189.5C 113.482,189.704 110.482,190.037 107.5,190.5C 99.8088,190.597 92.1421,190.263 84.5,189.5C 83.1309,186.618 83.7976,184.118 86.5,182C 88.0609,181.682 89.2276,180.849 90,179.5C 91.8783,181.698 94.0449,181.864 96.5,180C 97.982,178.017 99.6487,176.184 101.5,174.5C 102.167,175.5 102.833,176.5 103.5,177.5C 105.267,175.11 107.6,173.443 110.5,172.5C 111.675,173.855 112.675,173.688 113.5,172C 112.833,171.667 112.167,171.333 111.5,171C 113.087,170.138 114.754,169.471 116.5,169C 117.337,167.989 117.67,166.822 117.5,165.5C 118.675,165.281 119.675,165.614 120.5,166.5C 119.833,166.833 119.167,167.167 118.5,167.5C 120.044,168.622 121.377,168.289 122.5,166.5C 123.086,166.709 123.586,167.043 124,167.5C 126.378,165.5 128.545,163.333 130.5,161C 132.025,159.991 133.692,159.491 135.5,159.5C 135.461,160.756 135.961,161.756 137,162.5C 137.972,160.695 139.139,159.028 140.5,157.5C 143.511,156.661 146.177,155.328 148.5,153.5C 149.833,153.5 151.167,153.5 152.5,153.5C 152.478,149.389 151.811,145.389 150.5,141.5C 150.846,140.304 151.346,140.304 152,141.5C 152.171,134.737 155.171,130.403 161,128.5C 162.844,127.289 163.678,125.956 163.5,124.5C 165.349,125.593 167.016,126.926 168.5,128.5C 168.833,128.167 169.167,127.833 169.5,127.5C 167.29,125.791 167.123,123.791 169,121.5C 169.667,122.833 170.333,122.833 171,121.5C 172.003,129.08 173.503,136.413 175.5,143.5 Z"/></g>
<g><path style="opacity:1" fill="#896e92" d="M 211.5,149.5 C 211.5,149.167 211.5,148.833 211.5,148.5C 217.143,149.49 222.143,151.824 226.5,155.5C 223.426,154.698 220.426,153.698 217.5,152.5C 215.97,150.654 213.97,149.654 211.5,149.5 Z"/></g>
<g><path style="opacity:1" fill="#625964" d="M 145.5,139.5 C 149.157,142.182 151.157,145.849 151.5,150.5C 151.253,151.713 150.586,152.38 149.5,152.5C 150.01,149.612 149.344,147.279 147.5,145.5C 145.919,143.858 145.253,141.858 145.5,139.5 Z"/></g>
<g><path style="opacity:1" fill="#85269d" d="M 211.5,149.5 C 213.97,149.654 215.97,150.654 217.5,152.5C 214.607,151.409 212.107,151.409 210,152.5C 207.142,149.65 203.975,149.15 200.5,151C 205.48,151.526 205.813,153.026 201.5,155.5C 202.167,156.5 202.833,157.5 203.5,158.5C 203.167,158.833 202.833,159.167 202.5,159.5C 200.931,158.286 200.098,156.619 200,154.5C 198.938,156.208 197.771,156.874 196.5,156.5C 198.124,157.869 198.624,159.536 198,161.5C 197.085,160.672 196.419,159.672 196,158.5C 194.299,160.41 192.133,161.577 189.5,162C 188.167,162.667 188.167,163.333 189.5,164C 187.744,164.202 186.078,164.702 184.5,165.5C 185.682,167.467 185.015,168.8 182.5,169.5C 185.386,171.939 188.219,171.939 191,169.5C 193.715,171.336 196.548,172.67 199.5,173.5C 198.833,173.5 198.167,173.5 197.5,173.5C 192.381,172.897 187.715,173.564 183.5,175.5C 183.5,176.5 183.5,177.5 183.5,178.5C 183.5,178.833 183.5,179.167 183.5,179.5C 181.896,178.713 181.229,177.38 181.5,175.5C 178.428,175.183 175.428,175.516 172.5,176.5C 171.252,178.459 169.585,179.959 167.5,181C 169.657,181.078 171.657,181.245 173.5,181.5C 171.597,183.562 169.263,184.896 166.5,185.5C 167.025,186.192 167.692,186.692 168.5,187C 168.167,187.333 167.833,187.667 167.5,188C 168.624,188.249 169.624,188.749 170.5,189.5C 169.349,190.731 168.183,190.731 167,189.5C 166.647,190.672 166.813,191.838 167.5,193C 166.833,194.667 166.167,196.333 165.5,198C 167.037,198.383 168.37,199.216 169.5,200.5C 166.987,202.91 167.321,205.076 170.5,207C 171.5,207.333 172.5,207.667 173.5,208C 171.808,209.401 171.141,211.234 171.5,213.5C 170.079,210.991 168.412,208.657 166.5,206.5C 166.127,203.426 165.461,200.426 164.5,197.5C 163.28,190.438 162.113,183.438 161,176.5C 161.414,176.957 161.914,177.291 162.5,177.5C 164.328,176.205 166.328,175.205 168.5,174.5C 167.975,173.808 167.308,173.308 166.5,173C 166.955,170.688 167.955,168.688 169.5,167C 168.66,165.334 169.16,165.167 171,166.5C 172.419,165.54 173.919,164.707 175.5,164C 174.378,162.387 174.878,161.22 177,160.5C 178.087,162.932 178.587,162.598 178.5,159.5C 179.822,159.33 180.989,159.663 182,160.5C 181.852,159.175 182.018,158.008 182.5,157C 183.833,157 185.167,157 186.5,157C 187.523,154.103 189.357,151.936 192,150.5C 192.333,150.833 192.667,151.167 193,151.5C 193.374,150.584 193.874,149.75 194.5,149C 200.03,148.332 205.697,148.498 211.5,149.5 Z"/></g>
<g><path style="opacity:1" fill="#8b27a5" d="M 217.5,152.5 C 220.426,153.698 223.426,154.698 226.5,155.5C 230.35,158.261 234.017,161.261 237.5,164.5C 236.305,164.322 235.138,163.989 234,163.5C 234.027,164.788 233.027,165.788 231,166.5C 228.89,164.162 226.723,164.329 224.5,167C 224.833,167.333 225.167,167.667 225.5,168C 224.1,169.438 222.433,170.271 220.5,170.5C 220.574,174.161 219.574,174.828 217.5,172.5C 218.872,170.38 218.205,169.38 215.5,169.5C 215.244,171.792 215.577,173.959 216.5,176C 220.94,177.137 224.94,178.97 228.5,181.5C 226.435,181.483 224.435,181.15 222.5,180.5C 219.947,179.195 217.28,178.195 214.5,177.5C 214.38,176.414 213.713,175.747 212.5,175.5C 208.277,174.087 203.943,173.421 199.5,173.5C 196.548,172.67 193.715,171.336 191,169.5C 188.219,171.939 185.386,171.939 182.5,169.5C 185.015,168.8 185.682,167.467 184.5,165.5C 186.078,164.702 187.744,164.202 189.5,164C 188.167,163.333 188.167,162.667 189.5,162C 192.133,161.577 194.299,160.41 196,158.5C 196.419,159.672 197.085,160.672 198,161.5C 198.624,159.536 198.124,157.869 196.5,156.5C 197.771,156.874 198.938,156.208 200,154.5C 200.098,156.619 200.931,158.286 202.5,159.5C 202.833,159.167 203.167,158.833 203.5,158.5C 202.833,157.5 202.167,156.5 201.5,155.5C 205.813,153.026 205.48,151.526 200.5,151C 203.975,149.15 207.142,149.65 210,152.5C 212.107,151.409 214.607,151.409 217.5,152.5 Z"/></g>
<g><path style="opacity:1" fill="#722784" d="M 135.5,159.5 C 133.692,159.491 132.025,159.991 130.5,161C 128.545,163.333 126.378,165.5 124,167.5C 123.586,167.043 123.086,166.709 122.5,166.5C 121.377,168.289 120.044,168.622 118.5,167.5C 119.167,167.167 119.833,166.833 120.5,166.5C 119.675,165.614 118.675,165.281 117.5,165.5C 117.67,166.822 117.337,167.989 116.5,169C 114.754,169.471 113.087,170.138 111.5,171C 112.167,171.333 112.833,171.667 113.5,172C 112.675,173.688 111.675,173.855 110.5,172.5C 107.6,173.443 105.267,175.11 103.5,177.5C 102.833,176.5 102.167,175.5 101.5,174.5C 99.6487,176.184 97.982,178.017 96.5,180C 94.0449,181.864 91.8783,181.698 90,179.5C 89.2276,180.849 88.0609,181.682 86.5,182C 83.7976,184.118 83.1309,186.618 84.5,189.5C 92.1421,190.263 99.8088,190.597 107.5,190.5C 98.2093,192.024 88.876,191.691 79.5,189.5C 76.6439,187.306 73.3105,185.973 69.5,185.5C 68.7132,184.758 68.0465,183.925 67.5,183C 68.2893,179.903 69.456,179.736 71,182.5C 70.3829,180.905 70.7163,179.572 72,178.5C 77.1111,180.111 77.6111,179.277 73.5,176C 74.7487,174.176 75.9153,174.343 77,176.5C 80.2642,173.256 84.0975,170.756 88.5,169C 89.7014,168.097 90.5348,166.931 91,165.5C 92.0437,166.623 92.7104,167.956 93,169.5C 95.2283,167.032 98.0617,165.865 101.5,166C 101.043,165.586 100.709,165.086 100.5,164.5C 103.293,163.772 105.293,162.105 106.5,159.5C 107.738,163.311 108.404,163.311 108.5,159.5C 110.592,159.439 112.092,158.439 113,156.5C 113.689,157.357 114.522,158.023 115.5,158.5C 117.183,157.408 119.016,156.741 121,156.5C 126.143,157.203 131.309,157.703 136.5,158C 135.944,158.383 135.611,158.883 135.5,159.5 Z"/></g>
<g><path style="opacity:1" fill="#7d2793" d="M 205.5,147.5 C 207.435,148.15 209.435,148.483 211.5,148.5C 211.5,148.833 211.5,149.167 211.5,149.5C 205.697,148.498 200.03,148.332 194.5,149C 193.874,149.75 193.374,150.584 193,151.5C 192.667,151.167 192.333,150.833 192,150.5C 189.357,151.936 187.523,154.103 186.5,157C 185.167,157 183.833,157 182.5,157C 182.018,158.008 181.852,159.175 182,160.5C 180.989,159.663 179.822,159.33 178.5,159.5C 178.587,162.598 178.087,162.932 177,160.5C 174.878,161.22 174.378,162.387 175.5,164C 173.919,164.707 172.419,165.54 171,166.5C 169.16,165.167 168.66,165.334 169.5,167C 167.955,168.688 166.955,170.688 166.5,173C 167.308,173.308 167.975,173.808 168.5,174.5C 166.328,175.205 164.328,176.205 162.5,177.5C 161.914,177.291 161.414,176.957 161,176.5C 162.113,183.438 163.28,190.438 164.5,197.5C 162.265,192.795 160.598,187.795 159.5,182.5C 159.167,180.5 158.833,178.5 158.5,176.5C 155.848,176.41 153.515,177.076 151.5,178.5C 145.859,179.932 140.525,181.932 135.5,184.5C 129.197,185.992 122.864,187.326 116.5,188.5C 112.625,188.915 108.958,188.415 105.5,187C 106.449,186.383 107.282,186.549 108,187.5C 108.833,186.667 109.667,185.833 110.5,185C 108.443,184.695 106.443,184.695 104.5,185C 106.652,180.59 109.985,178.923 114.5,180C 115.147,178.391 115.98,176.891 117,175.5C 118.147,176.458 119.147,176.125 120,174.5C 121.587,175.727 122.921,175.394 124,173.5C 124.333,174.167 124.667,174.833 125,175.5C 127.915,172.287 131.415,169.787 135.5,168C 135.167,167.667 134.833,167.333 134.5,167C 137.341,165.938 140.008,164.604 142.5,163C 143.833,160.176 145.333,160.343 147,163.5C 147.49,162.207 147.657,160.873 147.5,159.5C 150.438,158.372 153.438,157.205 156.5,156C 156.167,155.667 155.833,155.333 155.5,155C 156.676,153.086 157.676,153.252 158.5,155.5C 159.981,154.52 161.315,153.353 162.5,152C 166.543,149.944 170.876,148.444 175.5,147.5C 175.351,148.552 175.517,149.552 176,150.5C 177.719,149.131 179.552,148.131 181.5,147.5C 189.45,146.267 197.45,146.267 205.5,147.5 Z M 153.5,185.5 C 147.075,185.783 146.909,184.783 153,182.5C 153.483,183.448 153.649,184.448 153.5,185.5 Z"/></g>
<g><path style="opacity:1" fill="#712984" d="M 197.5,173.5 C 198.167,173.5 198.833,173.5 199.5,173.5C 203.943,173.421 208.277,174.087 212.5,175.5C 213.713,175.747 214.38,176.414 214.5,177.5C 208.614,176.61 202.947,175.277 197.5,173.5 Z"/></g>
<g><path style="opacity:1" fill="#9a26b6" d="M 237.5,164.5 C 244.157,169.825 250.49,175.491 256.5,181.5C 254.8,181.374 253.3,180.707 252,179.5C 251.228,179.645 250.561,179.978 250,180.5C 249.667,181.833 249.333,183.167 249,184.5C 248.577,183.044 247.744,182.544 246.5,183C 246.366,185.039 246.866,187.206 248,189.5C 249.417,190.078 250.25,191.078 250.5,192.5C 242.818,189.326 235.485,185.659 228.5,181.5C 224.94,178.97 220.94,177.137 216.5,176C 215.577,173.959 215.244,171.792 215.5,169.5C 218.205,169.38 218.872,170.38 217.5,172.5C 219.574,174.828 220.574,174.161 220.5,170.5C 222.433,170.271 224.1,169.438 225.5,168C 225.167,167.667 224.833,167.333 224.5,167C 226.723,164.329 228.89,164.162 231,166.5C 233.027,165.788 234.027,164.788 234,163.5C 235.138,163.989 236.305,164.322 237.5,164.5 Z"/></g>
<g><path style="opacity:1" fill="#4a414c" d="M 33.5,169.5 C 39.2929,173.566 45.6263,176.9 52.5,179.5C 57.2009,181.85 61.8675,184.184 66.5,186.5C 53.8742,183.649 42.8742,177.983 33.5,169.5 Z"/></g>
<g><path style="opacity:0.597" fill="#747474" d="M 6.5,149.5 C 6.75115,151.17 7.41782,152.67 8.5,154C 16.5539,159.69 24.8873,164.856 33.5,169.5C 42.8742,177.983 53.8742,183.649 66.5,186.5C 66.8333,187.167 67.1667,187.833 67.5,188.5C 70.0489,189.831 69.7155,190.831 66.5,191.5C 43.1185,182.105 21.4518,169.772 1.5,154.5C 3.33073,155.052 4.9974,155.052 6.5,154.5C 5.11524,153.449 4.11524,152.116 3.5,150.5C 4.32496,149.614 5.32496,149.281 6.5,149.5 Z"/></g>
<g><path style="opacity:1" fill="#504753" d="M 157.5,180.5 C 155.262,179.463 152.929,179.297 150.5,180C 145.653,182.095 140.653,183.595 135.5,184.5C 140.525,181.932 145.859,179.932 151.5,178.5C 153.262,178.643 154.929,178.309 156.5,177.5C 157.386,178.325 157.719,179.325 157.5,180.5 Z"/></g>
<g><path style="opacity:0.791" fill="#787678" d="M 157.5,180.5 C 158.338,180.842 158.672,181.508 158.5,182.5C 159.708,187.458 160.708,192.458 161.5,197.5C 160.393,199.847 158.726,200.18 156.5,198.5C 156.981,194.651 155.314,192.651 151.5,192.5C 150.653,191.034 149.32,190.2 147.5,190C 141.509,189.501 135.509,189.334 129.5,189.5C 128.761,189.631 128.094,189.464 127.5,189C 129.392,188.027 131.392,187.36 133.5,187C 134.381,186.292 135.047,185.458 135.5,184.5C 140.653,183.595 145.653,182.095 150.5,180C 152.929,179.297 155.262,179.463 157.5,180.5 Z M 153.5,185.5 C 153.649,184.448 153.483,183.448 153,182.5C 146.909,184.783 147.075,185.783 153.5,185.5 Z"/></g>
<g><path style="opacity:0.41" fill="#727072" d="M 197.5,173.5 C 202.947,175.277 208.614,176.61 214.5,177.5C 217.28,178.195 219.947,179.195 222.5,180.5C 224.495,182.64 226.995,183.973 230,184.5C 230.585,185.998 230.085,186.998 228.5,187.5C 216.452,183.031 203.952,180.031 191,178.5C 190.5,178.833 190,179.167 189.5,179.5C 192.857,185.847 196.191,192.181 199.5,198.5C 198.761,198.369 198.094,198.536 197.5,199C 198.861,200.584 199.528,202.418 199.5,204.5C 193.903,194.971 188.569,185.305 183.5,175.5C 187.715,173.564 192.381,172.897 197.5,173.5 Z"/></g>
<g><path style="opacity:1" fill="#5d296b" d="M 159.5,182.5 C 159.167,182.5 158.833,182.5 158.5,182.5C 158.672,181.508 158.338,180.842 157.5,180.5C 157.719,179.325 157.386,178.325 156.5,177.5C 154.929,178.309 153.262,178.643 151.5,178.5C 153.515,177.076 155.848,176.41 158.5,176.5C 158.833,178.5 159.167,180.5 159.5,182.5 Z"/></g>
<g><path style="opacity:1" fill="#9354a4" d="M 183.5,178.5 C 185.592,181.088 186.925,184.088 187.5,187.5C 185.127,185.421 183.794,182.754 183.5,179.5C 183.5,179.167 183.5,178.833 183.5,178.5 Z"/></g>
<g><path style="opacity:1" fill="#a827c8" d="M 256.5,181.5 C 259.5,183.833 262.167,186.5 264.5,189.5C 260.655,188.088 257.988,189.421 256.5,193.5C 258.952,195.393 261.619,196.726 264.5,197.5C 264.433,198.959 264.766,200.292 265.5,201.5C 260.326,198.748 255.326,195.748 250.5,192.5C 250.25,191.078 249.417,190.078 248,189.5C 246.866,187.206 246.366,185.039 246.5,183C 247.744,182.544 248.577,183.044 249,184.5C 249.333,183.167 249.667,181.833 250,180.5C 250.561,179.978 251.228,179.645 252,179.5C 253.3,180.707 254.8,181.374 256.5,181.5 Z"/></g>
<g><path style="opacity:0.48" fill="#767676" d="M 255.5,172.5 C 263.198,179.864 270.531,187.53 277.5,195.5C 277.517,197.565 277.85,199.565 278.5,201.5C 270.061,192.219 261.727,182.719 253.5,173C 254.094,172.536 254.761,172.369 255.5,172.5 Z"/></g>
<g><path style="opacity:0.667" fill="#676567" d="M 135.5,184.5 C 135.047,185.458 134.381,186.292 133.5,187C 131.392,187.36 129.392,188.027 127.5,189C 128.094,189.464 128.761,189.631 129.5,189.5C 121.709,192.158 114.042,195.325 106.5,199C 103.645,201.031 100.978,203.197 98.5,205.5C 97.8333,205.833 97.1667,206.167 96.5,206.5C 95.032,205.221 94.3653,203.554 94.5,201.5C 96.428,199.526 98.7613,198.026 101.5,197C 89.3584,197.309 77.6918,195.475 66.5,191.5C 69.7155,190.831 70.0489,189.831 67.5,188.5C 71.3566,189.175 75.0233,190.342 78.5,192C 88.1388,193.753 97.8055,193.92 107.5,192.5C 110.866,192.241 113.866,191.241 116.5,189.5C 116.5,189.167 116.5,188.833 116.5,188.5C 122.864,187.326 129.197,185.992 135.5,184.5 Z"/></g>
<g><path style="opacity:1" fill="#ad6dbc" d="M 151.5,192.5 C 155.314,192.651 156.981,194.651 156.5,198.5C 148.453,202.856 140.119,206.689 131.5,210C 130.207,210.49 128.873,210.657 127.5,210.5C 124.833,210.833 122.167,211.167 119.5,211.5C 119.104,208.956 119.771,206.789 121.5,205C 120.135,203.318 118.635,203.151 117,204.5C 117.667,202.167 117.667,199.833 117,197.5C 119.237,196.944 121.237,195.944 123,194.5C 123.507,195.996 123.007,197.163 121.5,198C 122.448,198.483 123.448,198.649 124.5,198.5C 124.238,197.022 124.571,195.689 125.5,194.5C 127.167,194.5 128.833,194.5 130.5,194.5C 131.541,192.009 132.374,192.009 133,194.5C 133.903,193.299 135.069,192.465 136.5,192C 141.537,191.337 146.537,191.504 151.5,192.5 Z"/></g>
<g><path style="opacity:1" fill="#544d56" d="M 66.5,186.5 C 70.7862,187.707 75.1195,188.707 79.5,189.5C 88.876,191.691 98.2093,192.024 107.5,190.5C 110.482,190.037 113.482,189.704 116.5,189.5C 113.866,191.241 110.866,192.241 107.5,192.5C 97.8055,193.92 88.1388,193.753 78.5,192C 75.0233,190.342 71.3566,189.175 67.5,188.5C 67.1667,187.833 66.8333,187.167 66.5,186.5 Z"/></g>
<g><path style="opacity:1" fill="#b326d6" d="M 264.5,189.5 C 267.295,191.751 269.628,194.418 271.5,197.5C 272.08,199.749 273.413,201.415 275.5,202.5C 277.011,204.86 278.344,207.36 279.5,210C 277.811,209.866 276.144,209.366 274.5,208.5C 273.415,206.413 271.749,205.08 269.5,204.5C 267.596,204.262 266.262,203.262 265.5,201.5C 264.766,200.292 264.433,198.959 264.5,197.5C 261.619,196.726 258.952,195.393 256.5,193.5C 257.988,189.421 260.655,188.088 264.5,189.5 Z"/></g>
<g><path style="opacity:1" fill="#4c414e" d="M 158.5,182.5 C 158.833,182.5 159.167,182.5 159.5,182.5C 160.598,187.795 162.265,192.795 164.5,197.5C 165.461,200.426 166.127,203.426 166.5,206.5C 165.023,203.409 163.356,200.409 161.5,197.5C 160.708,192.458 159.708,187.458 158.5,182.5 Z"/></g>
<g><path style="opacity:1" fill="#8e27a8" d="M 183.5,179.5 C 183.794,182.754 185.127,185.421 187.5,187.5C 192.061,196.955 197.394,205.955 203.5,214.5C 201.54,213.552 199.54,213.386 197.5,214C 198.747,212.506 198.747,211.006 197.5,209.5C 196.742,210.811 195.742,211.311 194.5,211C 194.014,208.546 194.014,206.046 194.5,203.5C 192.61,203.297 191.11,203.963 190,205.5C 189.577,204.044 188.744,203.544 187.5,204C 187.833,204.333 188.167,204.667 188.5,205C 184.403,205.634 183.736,207.301 186.5,210C 185.747,211.487 184.914,211.654 184,210.5C 183,212.167 181.667,213.5 180,214.5C 179.085,213.672 178.419,212.672 178,211.5C 178.063,214.572 177.896,217.572 177.5,220.5C 178.455,222.949 179.955,224.949 182,226.5C 182.5,225.333 183.333,224.5 184.5,224C 183.552,223.517 182.552,223.351 181.5,223.5C 181.679,221.394 182.679,219.728 184.5,218.5C 185.711,219.274 185.711,220.107 184.5,221C 188.574,222.54 188.907,223.873 185.5,225C 186.641,225.741 186.641,226.575 185.5,227.5C 188.751,229.316 191.084,231.983 192.5,235.5C 182.776,230.775 175.776,223.442 171.5,213.5C 171.141,211.234 171.808,209.401 173.5,208C 172.5,207.667 171.5,207.333 170.5,207C 167.321,205.076 166.987,202.91 169.5,200.5C 168.37,199.216 167.037,198.383 165.5,198C 166.167,196.333 166.833,194.667 167.5,193C 166.813,191.838 166.647,190.672 167,189.5C 168.183,190.731 169.349,190.731 170.5,189.5C 169.624,188.749 168.624,188.249 167.5,188C 167.833,187.667 168.167,187.333 168.5,187C 167.692,186.692 167.025,186.192 166.5,185.5C 169.263,184.896 171.597,183.562 173.5,181.5C 171.657,181.245 169.657,181.078 167.5,181C 169.585,179.959 171.252,178.459 172.5,176.5C 175.428,175.516 178.428,175.183 181.5,175.5C 181.229,177.38 181.896,178.713 183.5,179.5 Z"/></g>
<g><path style="opacity:1" fill="#ae56c8" d="M 271.5,197.5 C 273.587,198.585 274.92,200.251 275.5,202.5C 273.413,201.415 272.08,199.749 271.5,197.5 Z"/></g>
<g><path style="opacity:0.51" fill="#605e60" d="M 222.5,180.5 C 224.435,181.15 226.435,181.483 228.5,181.5C 235.485,185.659 242.818,189.326 250.5,192.5C 255.326,195.748 260.326,198.748 265.5,201.5C 266.262,203.262 267.596,204.262 269.5,204.5C 270.5,206.167 271.833,207.5 273.5,208.5C 274.014,210.366 274.68,212.2 275.5,214C 275.43,214.765 275.097,215.265 274.5,215.5C 260.611,203.566 245.278,194.233 228.5,187.5C 230.085,186.998 230.585,185.998 230,184.5C 226.995,183.973 224.495,182.64 222.5,180.5 Z"/></g>
<g><path style="opacity:0.343" fill="#5f5f5f" d="M 277.5,195.5 C 283.5,203.5 289.5,211.5 295.5,219.5C 295.5,221.833 295.5,224.167 295.5,226.5C 293.694,225.976 292.028,225.309 290.5,224.5C 291.586,224.38 292.253,223.713 292.5,222.5C 288.581,214.994 283.915,207.994 278.5,201.5C 277.85,199.565 277.517,197.565 277.5,195.5 Z"/></g>
<g><path style="opacity:1" fill="#a267b1" d="M 129.5,189.5 C 135.509,189.334 141.509,189.501 147.5,190C 149.32,190.2 150.653,191.034 151.5,192.5C 146.537,191.504 141.537,191.337 136.5,192C 135.069,192.465 133.903,193.299 133,194.5C 132.374,192.009 131.541,192.009 130.5,194.5C 128.833,194.5 127.167,194.5 125.5,194.5C 124.571,195.689 124.238,197.022 124.5,198.5C 123.448,198.649 122.448,198.483 121.5,198C 123.007,197.163 123.507,195.996 123,194.5C 121.237,195.944 119.237,196.944 117,197.5C 117.667,199.833 117.667,202.167 117,204.5C 118.635,203.151 120.135,203.318 121.5,205C 119.771,206.789 119.104,208.956 119.5,211.5C 122.167,211.167 124.833,210.833 127.5,210.5C 123.749,211.973 120.083,213.64 116.5,215.5C 111.135,215.956 105.801,216.623 100.5,217.5C 98.4534,217.511 96.4534,217.844 94.5,218.5C 90.6253,217.133 89.792,214.799 92,211.5C 94.7107,209.951 96.8774,207.951 98.5,205.5C 100.978,203.197 103.645,201.031 106.5,199C 114.042,195.325 121.709,192.158 129.5,189.5 Z"/></g>
<g><path style="opacity:0.628" fill="#605c61" d="M 161.5,197.5 C 163.356,200.409 165.023,203.409 166.5,206.5C 166.66,208.199 166.494,209.866 166,211.5C 165.617,210.944 165.117,210.611 164.5,210.5C 162.845,207.944 161.179,205.277 159.5,202.5C 151.706,206.732 143.706,210.399 135.5,213.5C 135.631,212.761 135.464,212.094 135,211.5C 133.605,212.43 132.105,212.43 130.5,211.5C 127.515,211.993 124.848,213.16 122.5,215C 120.527,215.495 118.527,215.662 116.5,215.5C 120.083,213.64 123.749,211.973 127.5,210.5C 128.873,210.657 130.207,210.49 131.5,210C 140.119,206.689 148.453,202.856 156.5,198.5C 158.726,200.18 160.393,199.847 161.5,197.5 Z"/></g>
<g><path style="opacity:1" fill="#7d2495" d="M 269.5,204.5 C 271.749,205.08 273.415,206.413 274.5,208.5C 274.167,208.5 273.833,208.5 273.5,208.5C 271.833,207.5 270.5,206.167 269.5,204.5 Z"/></g>
<g><path style="opacity:1" fill="#a73dc4" d="M 275.5,202.5 C 280.549,207.588 284.883,213.255 288.5,219.5C 288.631,220.239 288.464,220.906 288,221.5C 282.997,217.664 278.497,213.33 274.5,208.5C 276.144,209.366 277.811,209.866 279.5,210C 278.344,207.36 277.011,204.86 275.5,202.5 Z"/></g>
<g><path style="opacity:1" fill="#9726b4" d="M 203.5,214.5 C 206.5,216.833 209.167,219.5 211.5,222.5C 212.5,223.833 213.5,225.167 214.5,226.5C 212.402,225.037 210.402,225.204 208.5,227C 206.772,228.973 204.939,230.806 203,232.5C 202.333,231.833 201.667,231.167 201,230.5C 200.179,233.554 200.345,236.554 201.5,239.5C 203.2,240.61 204.534,241.943 205.5,243.5C 200.657,241.582 196.323,238.916 192.5,235.5C 191.084,231.983 188.751,229.316 185.5,227.5C 186.641,226.575 186.641,225.741 185.5,225C 188.907,223.873 188.574,222.54 184.5,221C 185.711,220.107 185.711,219.274 184.5,218.5C 182.679,219.728 181.679,221.394 181.5,223.5C 182.552,223.351 183.552,223.517 184.5,224C 183.333,224.5 182.5,225.333 182,226.5C 179.955,224.949 178.455,222.949 177.5,220.5C 177.896,217.572 178.063,214.572 178,211.5C 178.419,212.672 179.085,213.672 180,214.5C 181.667,213.5 183,212.167 184,210.5C 184.914,211.654 185.747,211.487 186.5,210C 183.736,207.301 184.403,205.634 188.5,205C 188.167,204.667 187.833,204.333 187.5,204C 188.744,203.544 189.577,204.044 190,205.5C 191.11,203.963 192.61,203.297 194.5,203.5C 194.014,206.046 194.014,208.546 194.5,211C 195.742,211.311 196.742,210.811 197.5,209.5C 198.747,211.006 198.747,212.506 197.5,214C 199.54,213.386 201.54,213.552 203.5,214.5 Z"/></g>
<g><path style="opacity:1" fill="#948e96" d="M 183.5,175.5 C 188.569,185.305 193.903,194.971 199.5,204.5C 204.518,210.19 209.185,216.19 213.5,222.5C 212.833,222.5 212.167,222.5 211.5,222.5C 209.167,219.5 206.5,216.833 203.5,214.5C 197.394,205.955 192.061,196.955 187.5,187.5C 186.925,184.088 185.592,181.088 183.5,178.5C 183.5,177.5 183.5,176.5 183.5,175.5 Z"/></g>
<g><path style="opacity:1" fill="#885794" d="M 98.5,205.5 C 96.8774,207.951 94.7107,209.951 92,211.5C 89.792,214.799 90.6253,217.133 94.5,218.5C 96.4534,217.844 98.4534,217.511 100.5,217.5C 94.7208,219.956 88.7208,222.123 82.5,224C 79.13,225.455 76.13,227.455 73.5,230C 72.0563,230.781 70.723,230.614 69.5,229.5C 78.2255,221.436 87.2255,213.769 96.5,206.5C 97.1667,206.167 97.8333,205.833 98.5,205.5 Z"/></g>
<g><path style="opacity:0.587" fill="#4f4d50" d="M 273.5,208.5 C 273.833,208.5 274.167,208.5 274.5,208.5C 278.497,213.33 282.997,217.664 288,221.5C 288.464,220.906 288.631,220.239 288.5,219.5C 289.537,220.93 290.204,222.597 290.5,224.5C 292.028,225.309 293.694,225.976 295.5,226.5C 295.5,226.833 295.5,227.167 295.5,227.5C 293.164,229.391 290.498,229.891 287.5,229C 283.045,224.563 278.711,220.063 274.5,215.5C 275.097,215.265 275.43,214.765 275.5,214C 274.68,212.2 274.014,210.366 273.5,208.5 Z"/></g>
<g><path style="opacity:0.598" fill="#4f4e50" d="M 94.5,201.5 C 94.3653,203.554 95.032,205.221 96.5,206.5C 87.2255,213.769 78.2255,221.436 69.5,229.5C 70.723,230.614 72.0563,230.781 73.5,230C 76.13,227.455 79.13,225.455 82.5,224C 88.7208,222.123 94.7208,219.956 100.5,217.5C 105.801,216.623 111.135,215.956 116.5,215.5C 118.527,215.662 120.527,215.495 122.5,215C 124.848,213.16 127.515,211.993 130.5,211.5C 132.105,212.43 133.605,212.43 135,211.5C 135.464,212.094 135.631,212.761 135.5,213.5C 127.092,217.689 118.092,220.189 108.5,221C 96.415,224.885 84.7483,229.552 73.5,235C 68.6464,237.794 65.313,236.627 63.5,231.5C 67.5562,224.937 72.5562,219.104 78.5,214C 83.6823,209.583 89.0156,205.417 94.5,201.5 Z"/></g>
<g><path style="opacity:0.307" fill="#535353" d="M 199.5,198.5 C 200.793,199.842 201.626,201.509 202,203.5C 210.669,214.669 220.503,224.669 231.5,233.5C 231.615,235.947 232.615,237.947 234.5,239.5C 227.229,234.236 220.229,228.569 213.5,222.5C 209.185,216.19 204.518,210.19 199.5,204.5C 199.528,202.418 198.861,200.584 197.5,199C 198.094,198.536 198.761,198.369 199.5,198.5 Z"/></g>
<g><path style="opacity:1" fill="#9b71a9" d="M 217.5,228.5 C 219.749,229.08 221.415,230.413 222.5,232.5C 220.251,231.92 218.585,230.587 217.5,228.5 Z"/></g>
<g><path style="opacity:1" fill="#a725c7" d="M 214.5,226.5 C 215.5,227.167 216.5,227.833 217.5,228.5C 218.585,230.587 220.251,231.92 222.5,232.5C 223.5,233.833 224.5,235.167 225.5,236.5C 224.504,236.586 223.671,236.252 223,235.5C 220.452,236.524 217.952,237.69 215.5,239C 216.167,239.333 216.833,239.667 217.5,240C 213.417,241.301 212.75,243.468 215.5,246.5C 213.565,245.85 211.565,245.517 209.5,245.5C 207.847,245.34 206.514,244.674 205.5,243.5C 204.534,241.943 203.2,240.61 201.5,239.5C 200.345,236.554 200.179,233.554 201,230.5C 201.667,231.167 202.333,231.833 203,232.5C 204.939,230.806 206.772,228.973 208.5,227C 210.402,225.204 212.402,225.037 214.5,226.5 Z"/></g>
<g><path style="opacity:0.668" fill="#413f42" d="M 166.5,206.5 C 168.412,208.657 170.079,210.991 171.5,213.5C 175.776,223.442 182.776,230.775 192.5,235.5C 196.323,238.916 200.657,241.582 205.5,243.5C 206.514,244.674 207.847,245.34 209.5,245.5C 211.509,247.065 213.843,248.065 216.5,248.5C 217.29,249.401 218.29,250.068 219.5,250.5C 219.5,252.5 218.5,253.5 216.5,253.5C 199.221,248.107 184.387,238.774 172,225.5C 168.429,221.025 165.929,216.025 164.5,210.5C 165.117,210.611 165.617,210.944 166,211.5C 166.494,209.866 166.66,208.199 166.5,206.5 Z"/></g>
<g><path style="opacity:1" fill="#897d8d" d="M 211.5,222.5 C 212.167,222.5 212.833,222.5 213.5,222.5C 220.229,228.569 227.229,234.236 234.5,239.5C 238.92,243.223 243.586,246.723 248.5,250C 254.112,252.139 259.446,254.806 264.5,258C 269.285,259.323 273.952,260.823 278.5,262.5C 279.434,263.568 279.768,264.901 279.5,266.5C 278.041,266.567 276.708,266.234 275.5,265.5C 275.5,264.167 274.833,263.5 273.5,263.5C 271.064,262.129 268.397,261.129 265.5,260.5C 250.868,254.524 237.535,246.524 225.5,236.5C 224.5,235.167 223.5,233.833 222.5,232.5C 221.415,230.413 219.749,229.08 217.5,228.5C 216.5,227.833 215.5,227.167 214.5,226.5C 213.5,225.167 212.5,223.833 211.5,222.5 Z"/></g>
<g><path style="opacity:1" fill="#b226d5" d="M 225.5,236.5 C 237.535,246.524 250.868,254.524 265.5,260.5C 265.611,261.117 265.944,261.617 266.5,262C 263.518,262.498 260.518,262.665 257.5,262.5C 249.012,261.051 241.012,258.384 233.5,254.5C 233.389,253.883 233.056,253.383 232.5,253C 229.522,252.304 226.522,251.804 223.5,251.5C 221.824,249.166 219.491,248.166 216.5,248.5C 216.167,247.833 215.833,247.167 215.5,246.5C 212.75,243.468 213.417,241.301 217.5,240C 216.833,239.667 216.167,239.333 215.5,239C 217.952,237.69 220.452,236.524 223,235.5C 223.671,236.252 224.504,236.586 225.5,236.5 Z"/></g>
<g><path style="opacity:1" fill="#76268b" d="M 209.5,245.5 C 211.565,245.517 213.565,245.85 215.5,246.5C 215.833,247.167 216.167,247.833 216.5,248.5C 213.843,248.065 211.509,247.065 209.5,245.5 Z"/></g>
<g><path style="opacity:1" fill="#75288b" d="M 216.5,248.5 C 219.491,248.166 221.824,249.166 223.5,251.5C 222.167,251.167 220.833,250.833 219.5,250.5C 218.29,250.068 217.29,249.401 216.5,248.5 Z"/></g>
<g><path style="opacity:0.255" fill="#3a3a3a" d="M 231.5,233.5 C 235.937,236.102 239.937,239.269 243.5,243C 253.765,248.675 264.099,253.841 274.5,258.5C 275.625,260 276.959,261.333 278.5,262.5C 273.952,260.823 269.285,259.323 264.5,258C 259.446,254.806 254.112,252.139 248.5,250C 243.586,246.723 238.92,243.223 234.5,239.5C 232.615,237.947 231.615,235.947 231.5,233.5 Z"/></g>
<g><path style="opacity:1" fill="#8b26a6" d="M 223.5,251.5 C 226.522,251.804 229.522,252.304 232.5,253C 233.056,253.383 233.389,253.883 233.5,254.5C 229.838,254.277 226.505,253.277 223.5,251.5 Z"/></g>
<g><path style="opacity:0.607" fill="#302e31" d="M 219.5,250.5 C 220.833,250.833 222.167,251.167 223.5,251.5C 226.505,253.277 229.838,254.277 233.5,254.5C 241.012,258.384 249.012,261.051 257.5,262.5C 258.568,263.434 259.901,263.768 261.5,263.5C 262.263,264.268 263.263,264.768 264.5,265C 268.152,265.499 271.818,265.665 275.5,265.5C 276.708,266.234 278.041,266.567 279.5,266.5C 279.768,264.901 279.434,263.568 278.5,262.5C 276.959,261.333 275.625,260 274.5,258.5C 281.99,259.343 283.99,263.01 280.5,269.5C 278.56,270.095 276.56,270.428 274.5,270.5C 253.93,268.414 234.596,262.748 216.5,253.5C 218.5,253.5 219.5,252.5 219.5,250.5 Z"/></g>
<g><path style="opacity:1" fill="#a23cbe" d="M 265.5,260.5 C 268.397,261.129 271.064,262.129 273.5,263.5C 269.658,264.539 265.658,264.539 261.5,263.5C 259.901,263.768 258.568,263.434 257.5,262.5C 260.518,262.665 263.518,262.498 266.5,262C 265.944,261.617 265.611,261.117 265.5,260.5 Z"/></g>
<g><path style="opacity:1" fill="#6f3182" d="M 261.5,263.5 C 265.658,264.539 269.658,264.539 273.5,263.5C 274.833,263.5 275.5,264.167 275.5,265.5C 271.818,265.665 268.152,265.499 264.5,265C 263.263,264.768 262.263,264.268 261.5,263.5 Z"/></g>
</svg>
