<?xml version="1.0" encoding="UTF-8"?>
<!DOCTYPE svg PUBLIC "-//W3C//DTD SVG 1.1//EN" "http://www.w3.org/Graphics/SVG/1.1/DTD/svg11.dtd">
<svg xmlns="http://www.w3.org/2000/svg" version="1.1" width="100%" viewBox="0 0 301 301" style="shape-rendering:geometricPrecision; text-rendering:geometricPrecision; image-rendering:optimizeQuality; fill-rule:evenodd; clip-rule:evenodd" xmlns:xlink="http://www.w3.org/1999/xlink">
<g><path style="opacity:0.295" fill="#030302" d="M 128.5,-0.5 C 142.833,-0.5 157.167,-0.5 171.5,-0.5C 217.45,10.2815 249.95,37.2815 269,80.5C 285.032,128.264 278.032,172.264 248,212.5C 240.945,221.232 232.445,228.065 222.5,233C 219.518,233.498 216.518,233.665 213.5,233.5C 213.667,252.17 213.5,270.836 213,289.5C 212.333,294.183 210.167,297.85 206.5,300.5C 202.833,300.5 199.167,300.5 195.5,300.5C 188.225,295.522 180.559,291.022 172.5,287C 169.96,284.795 167.793,282.295 166,279.5C 164.711,263.233 164.044,246.9 164,230.5C 163.586,230.043 163.086,229.709 162.5,229.5C 153.612,234.111 144.612,238.444 135.5,242.5C 134.668,252.483 134.168,262.483 134,272.5C 133.237,279.203 130.07,284.37 124.5,288C 116.42,291.701 108.753,295.868 101.5,300.5C 98.8333,300.5 96.1667,300.5 93.5,300.5C 89.3462,298.574 86.8462,295.24 86,290.5C 85.6667,271.5 85.3333,252.5 85,233.5C 80.873,233.962 76.7063,233.462 72.5,232C 37.9424,205.726 20.9424,170.726 21.5,127C 23.3847,70.8484 49.7181,31.1818 100.5,8C 109.813,4.61396 119.146,1.78063 128.5,-0.5 Z M 82.5,71.5 C 84.2603,74.7006 85.0936,78.3673 85,82.5C 85.6667,115.5 85.6667,148.5 85,181.5C 84.8078,183.577 84.3078,185.577 83.5,187.5C 76.9883,180.465 71.8216,172.465 68,163.5C 55.8347,130.158 60.668,99.4917 82.5,71.5 Z M 214.5,71.5 C 229.733,87.4893 237.399,106.656 237.5,129C 237.292,151.979 229.458,171.812 214,188.5C 213.8,149.5 213.967,110.5 214.5,71.5 Z"/></g>
<g><path style="opacity:0.878" fill="#292929" d="M 171.5,9.5 C 156.83,9.33342 142.163,9.50009 127.5,10C 126.255,10.7914 124.922,11.2914 123.5,11.5C 123.881,10.0689 124.881,9.23555 126.5,9C 141.672,8.17226 156.672,8.33892 171.5,9.5 Z"/></g>
<g><path style="opacity:0.976" fill="#8f8e8c" d="M 171.5,9.5 C 171.5,9.83333 171.5,10.1667 171.5,10.5C 169.5,10.5 167.5,10.5 165.5,10.5C 151.406,10.0439 137.406,10.7106 123.5,12.5C 123.5,12.1667 123.5,11.8333 123.5,11.5C 124.922,11.2914 126.255,10.7914 127.5,10C 142.163,9.50009 156.83,9.33342 171.5,9.5 Z"/></g>
<g><path style="opacity:1" fill="#dedddc" d="M 165.5,10.5 C 168.123,12.2655 171.123,12.9321 174.5,12.5C 174.5,12.8333 174.5,13.1667 174.5,13.5C 166.344,12.0561 158.01,11.3895 149.5,11.5C 140.718,11.4125 132.052,12.0791 123.5,13.5C 123.5,13.1667 123.5,12.8333 123.5,12.5C 137.406,10.7106 151.406,10.0439 165.5,10.5 Z"/></g>
<g><path style="opacity:0.945" fill="#4a4948" d="M 123.5,11.5 C 123.5,11.8333 123.5,12.1667 123.5,12.5C 121.143,12.3367 118.81,12.5034 116.5,13C 115.944,13.3826 115.611,13.8826 115.5,14.5C 114.833,14.5 114.167,14.5 113.5,14.5C 113.953,13.5416 114.619,12.7083 115.5,12C 118.146,11.5026 120.813,11.3359 123.5,11.5 Z"/></g>
<g><path style="opacity:1" fill="#fbf9f7" d="M 174.5,13.5 C 177.167,13.5 179.833,13.5 182.5,13.5C 182.5,14.1667 182.5,14.8333 182.5,15.5C 188.063,18.3637 194.063,20.3637 200.5,21.5C 201.167,21.5 201.833,21.5 202.5,21.5C 205.275,24.6046 208.608,26.9379 212.5,28.5C 212.5,29.1667 212.833,29.5 213.5,29.5C 213.414,30.4959 213.748,31.3292 214.5,32C 218.744,34.7643 223.078,37.2643 227.5,39.5C 228.167,42.1667 229.833,43.8333 232.5,44.5C 233.15,46.4352 233.483,48.4352 233.5,50.5C 230.962,49.9573 228.628,48.9573 226.5,47.5C 218.962,40.6228 210.629,34.9561 201.5,30.5C 199.758,29.0427 197.758,27.876 195.5,27C 193.866,26.5065 192.199,26.3398 190.5,26.5C 190.5,25.5 190.5,24.5 190.5,23.5C 180.614,22.2347 170.948,20.2347 161.5,17.5C 148.824,16.4851 136.158,16.3184 123.5,17C 122.316,15.8545 122.316,14.6879 123.5,13.5C 132.052,12.0791 140.718,11.4125 149.5,11.5C 158.01,11.3895 166.344,12.0561 174.5,13.5 Z"/></g>
<g><path style="opacity:1" fill="#b3b2b0" d="M 165.5,10.5 C 167.5,10.5 169.5,10.5 171.5,10.5C 172.791,10.2627 173.791,10.596 174.5,11.5C 174.5,11.8333 174.5,12.1667 174.5,12.5C 171.123,12.9321 168.123,12.2655 165.5,10.5 Z"/></g>
<g><path style="opacity:0.992" fill="#928d8a" d="M 123.5,12.5 C 123.5,12.8333 123.5,13.1667 123.5,13.5C 120.763,13.4013 118.096,13.7347 115.5,14.5C 115.611,13.8826 115.944,13.3826 116.5,13C 118.81,12.5034 121.143,12.3367 123.5,12.5 Z"/></g>
<g><path style="opacity:0.98" fill="#777776" d="M 174.5,11.5 C 177.698,10.9644 180.365,11.631 182.5,13.5C 179.833,13.5 177.167,13.5 174.5,13.5C 174.5,13.1667 174.5,12.8333 174.5,12.5C 174.5,12.1667 174.5,11.8333 174.5,11.5 Z"/></g>
<g><path style="opacity:0.98" fill="#717070" d="M 182.5,13.5 C 185.127,14.1049 187.793,14.6049 190.5,15C 191.381,15.7083 192.047,16.5416 192.5,17.5C 189.448,15.8217 186.115,15.155 182.5,15.5C 182.5,14.8333 182.5,14.1667 182.5,13.5 Z"/></g>
<g><path style="opacity:1" fill="#7e7b78" d="M 113.5,14.5 C 111.157,15.3443 108.824,16.3443 106.5,17.5C 108.03,14.9791 110.364,13.9791 113.5,14.5 Z"/></g>
<g><path style="opacity:1" fill="#bdbcba" d="M 182.5,15.5 C 186.115,15.155 189.448,15.8217 192.5,17.5C 194.898,17.2594 196.898,17.9261 198.5,19.5C 199.167,20.1667 199.833,20.8333 200.5,21.5C 194.063,20.3637 188.063,18.3637 182.5,15.5 Z"/></g>
<g><path style="opacity:0.953" fill="#423f3e" d="M 101.5,17.5 C 101.167,18.1667 100.833,18.8333 100.5,19.5C 99.8333,19.5 99.1667,19.5 98.5,19.5C 98.9731,18.0937 99.9731,17.427 101.5,17.5 Z"/></g>
<g><path style="opacity:0.996" fill="#8a8480" d="M 101.5,17.5 C 103.167,17.5 104.833,17.5 106.5,17.5C 104.698,18.4582 102.698,19.1249 100.5,19.5C 100.833,18.8333 101.167,18.1667 101.5,17.5 Z"/></g>
<g><path style="opacity:1" fill="#f7e5de" d="M 123.5,13.5 C 122.316,14.6879 122.316,15.8545 123.5,17C 136.158,16.3184 148.824,16.4851 161.5,17.5C 170.948,20.2347 180.614,22.2347 190.5,23.5C 190.5,24.5 190.5,25.5 190.5,26.5C 192.199,26.3398 193.866,26.5065 195.5,27C 197.758,27.876 199.758,29.0427 201.5,30.5C 194.792,27.7407 187.792,26.4074 180.5,26.5C 180.139,33.3256 178.972,39.9923 177,46.5C 176.802,44.6183 176.302,42.9516 175.5,41.5C 175.806,38.6146 175.473,35.9479 174.5,33.5C 174.167,32.8333 173.833,32.1667 173.5,31.5C 174.496,31.4142 175.329,31.7476 176,32.5C 176.333,33.8333 176.667,35.1667 177,36.5C 178.643,31.5724 177.143,28.0724 172.5,26C 169.106,25.2483 165.773,25.4149 162.5,26.5C 160.879,28.4228 159.046,30.0895 157,31.5C 156.502,34.4816 156.335,37.4816 156.5,40.5C 155.835,38.3021 155.168,35.9688 154.5,33.5C 150.3,32.8625 146.134,32.1959 142,31.5C 141.823,35.3563 141.323,39.023 140.5,42.5C 140.888,37.3722 140.388,32.3722 139,27.5C 138.5,27 138,26.5 137.5,26C 133.5,25.3333 129.5,25.3333 125.5,26C 122.869,28.3333 120.369,30.8333 118,33.5C 117.501,37.4862 117.334,41.4862 117.5,45.5C 117.167,45.5 116.833,45.5 116.5,45.5C 115.992,39.8104 116.659,34.3104 118.5,29C 118.355,28.228 118.022,27.5613 117.5,27C 113.113,26.774 108.779,26.274 104.5,25.5C 94.7609,29.6178 85.4275,34.2844 76.5,39.5C 84.2176,32.6404 92.8843,27.3071 102.5,23.5C 103.804,21.9843 103.304,21.3176 101,21.5C 99.4672,21.7728 97.9672,22.1062 96.5,22.5C 97.5903,21.1429 98.9236,20.1429 100.5,19.5C 102.698,19.1249 104.698,18.4582 106.5,17.5C 108.824,16.3443 111.157,15.3443 113.5,14.5C 114.167,14.5 114.833,14.5 115.5,14.5C 118.096,13.7347 120.763,13.4013 123.5,13.5 Z"/></g>
<g><path style="opacity:0.988" fill="#7f7b77" d="M 98.5,19.5 C 99.1667,19.5 99.8333,19.5 100.5,19.5C 98.9236,20.1429 97.5903,21.1429 96.5,22.5C 95.8333,22.5 95.1667,22.5 94.5,22.5C 95.2623,20.7376 96.5956,19.7376 98.5,19.5 Z"/></g>
<g><path style="opacity:0.973" fill="#696867" d="M 198.5,19.5 C 200.38,19.2291 201.713,19.8958 202.5,21.5C 201.833,21.5 201.167,21.5 200.5,21.5C 199.833,20.8333 199.167,20.1667 198.5,19.5 Z"/></g>
<g><path style="opacity:0.988" fill="#777571" d="M 94.5,22.5 C 92.7798,23.3077 91.1131,24.3077 89.5,25.5C 89.1667,25.5 88.8333,25.5 88.5,25.5C 88.5,25.1667 88.5,24.8333 88.5,24.5C 90.1417,22.9192 92.1417,22.2525 94.5,22.5 Z"/></g>
<g><path style="opacity:0.914" fill="#434341" d="M 207.5,23.5 C 209.027,23.427 210.027,24.0937 210.5,25.5C 208.973,25.573 207.973,24.9063 207.5,23.5 Z"/></g>
<g><path style="opacity:0.996" fill="#9b9997" d="M 202.5,21.5 C 204.284,21.8925 205.95,22.5592 207.5,23.5C 207.973,24.9063 208.973,25.573 210.5,25.5C 211.167,26.5 211.833,27.5 212.5,28.5C 208.608,26.9379 205.275,24.6046 202.5,21.5 Z"/></g>
<g><path style="opacity:0.875" fill="#403f3e" d="M 210.5,25.5 C 212.848,25.5923 214.514,26.5923 215.5,28.5C 214.5,28.5 213.5,28.5 212.5,28.5C 211.833,27.5 211.167,26.5 210.5,25.5 Z"/></g>
<g><path style="opacity:0.902" fill="#393938" d="M 215.5,28.5 C 217.027,28.427 218.027,29.0937 218.5,30.5C 216.973,30.573 215.973,29.9063 215.5,28.5 Z"/></g>
<g><path style="opacity:1" fill="#9e9a97" d="M 212.5,28.5 C 213.5,28.5 214.5,28.5 215.5,28.5C 215.973,29.9063 216.973,30.573 218.5,30.5C 218.833,31.1667 219.167,31.8333 219.5,32.5C 217.216,32.0248 215.216,31.0248 213.5,29.5C 212.833,29.5 212.5,29.1667 212.5,28.5 Z"/></g>
<g><path style="opacity:1" fill="#cecac7" d="M 213.5,29.5 C 215.216,31.0248 217.216,32.0248 219.5,32.5C 219.833,32.5 220.167,32.5 220.5,32.5C 221.585,34.5869 223.251,35.9202 225.5,36.5C 226.5,36.8333 227.167,37.5 227.5,38.5C 227.5,38.8333 227.5,39.1667 227.5,39.5C 223.078,37.2643 218.744,34.7643 214.5,32C 213.748,31.3292 213.414,30.4959 213.5,29.5 Z"/></g>
<g><path style="opacity:0.988" fill="#585553" d="M 88.5,24.5 C 88.5,24.8333 88.5,25.1667 88.5,25.5C 83.8333,28.5 79.1667,31.5 74.5,34.5C 78.2992,30.0465 82.9658,26.7132 88.5,24.5 Z"/></g>
<g><path style="opacity:0.882" fill="#474544" d="M 220.5,32.5 C 222.795,33.1355 224.461,34.4689 225.5,36.5C 223.251,35.9202 221.585,34.5869 220.5,32.5 Z"/></g>
<g><path style="opacity:1" fill="#f8f0e8" d="M 76.5,39.5 C 73.1938,42.1395 70.1938,45.1395 67.5,48.5C 66.4168,48.5394 65.4168,48.8728 64.5,49.5C 63.7025,49.0431 63.3691,48.3764 63.5,47.5C 67.3521,44.2553 70.6854,40.5887 73.5,36.5C 74.8734,36.6567 76.2068,36.49 77.5,36C 81.1243,31.8628 85.1243,28.3628 89.5,25.5C 91.1131,24.3077 92.7798,23.3077 94.5,22.5C 95.1667,22.5 95.8333,22.5 96.5,22.5C 97.9672,22.1062 99.4672,21.7728 101,21.5C 103.304,21.3176 103.804,21.9843 102.5,23.5C 92.8843,27.3071 84.2176,32.6404 76.5,39.5 Z"/></g>
<g><path style="opacity:1" fill="#f4d8cd" d="M 116.5,45.5 C 116.5,47.8333 116.5,50.1667 116.5,52.5C 115.694,51.0028 115.028,49.3361 114.5,47.5C 110.893,46.5108 107.226,46.1774 103.5,46.5C 103.829,49.2282 103.163,51.5615 101.5,53.5C 103.302,45.5293 100.302,41.6959 92.5,42C 90.3078,43.3587 88.6411,45.1921 87.5,47.5C 90.4273,46.7285 93.4273,46.7285 96.5,47.5C 94.302,47.1201 92.6354,47.7868 91.5,49.5C 89.8333,50.1667 88.1667,50.8333 86.5,51.5C 85.5028,51.5299 84.8361,51.0299 84.5,50C 86.0073,46.9788 87.0073,43.8121 87.5,40.5C 85.1432,40.3367 82.8098,40.5034 80.5,41C 77.8137,42.3678 75.147,43.7011 72.5,45C 70.5612,46.4321 69.2279,48.2654 68.5,50.5C 65.0745,52.6801 62.0745,55.3467 59.5,58.5C 60.412,56.4048 61.5787,54.4048 63,52.5C 64.9923,51.6719 66.4923,50.3386 67.5,48.5C 70.1938,45.1395 73.1938,42.1395 76.5,39.5C 85.4275,34.2844 94.7609,29.6178 104.5,25.5C 108.779,26.274 113.113,26.774 117.5,27C 118.022,27.5613 118.355,28.228 118.5,29C 116.659,34.3104 115.992,39.8104 116.5,45.5 Z"/></g>
<g><path style="opacity:0.957" fill="#54524f" d="M 74.5,34.5 C 74.1667,35.1667 73.8333,35.8333 73.5,36.5C 72.8333,36.8333 72.1667,37.1667 71.5,37.5C 71.5,35.5 72.5,34.5 74.5,34.5 Z"/></g>
<g><path style="opacity:1" fill="#c5bfb9" d="M 88.5,25.5 C 88.8333,25.5 89.1667,25.5 89.5,25.5C 85.1243,28.3628 81.1243,31.8628 77.5,36C 76.2068,36.49 74.8734,36.6567 73.5,36.5C 73.8333,35.8333 74.1667,35.1667 74.5,34.5C 79.1667,31.5 83.8333,28.5 88.5,25.5 Z"/></g>
<g><path style="opacity:1" fill="#f6dbce" d="M 201.5,30.5 C 210.629,34.9561 218.962,40.6228 226.5,47.5C 223.22,45.8599 219.886,44.1932 216.5,42.5C 216.167,42.8333 215.833,43.1667 215.5,43.5C 219.753,50.2557 224.92,56.2557 231,61.5C 233.593,66.3604 236.426,71.0271 239.5,75.5C 240.833,77.1667 240.833,78.8333 239.5,80.5C 236.922,78.4262 235.422,75.7595 235,72.5C 233.549,70.5359 231.716,69.2026 229.5,68.5C 228.189,65.1886 225.855,62.8552 222.5,61.5C 220.167,58.1667 217.833,54.8333 215.5,51.5C 217.144,52.3657 218.811,52.8657 220.5,53C 217.174,48.6742 213.507,44.6742 209.5,41C 206.854,40.5026 204.187,40.3359 201.5,40.5C 202.019,44.3144 200.353,46.3144 196.5,46.5C 195.295,45.3281 195.295,43.9948 196.5,42.5C 191.5,41.1667 186.5,41.1667 181.5,42.5C 179.22,54.2001 177.554,65.8668 176.5,77.5C 175.691,65.5183 175.358,53.5183 175.5,41.5C 176.302,42.9516 176.802,44.6183 177,46.5C 178.972,39.9923 180.139,33.3256 180.5,26.5C 187.792,26.4074 194.792,27.7407 201.5,30.5 Z"/></g>
<g><path style="opacity:1" fill="#f6d9cd" d="M 156.5,40.5 C 156.325,42.6208 156.659,44.6208 157.5,46.5C 157.5,53.5 157.5,60.5 157.5,67.5C 156.561,59.3298 155.728,50.9965 155,42.5C 154.667,43.5 154.333,44.5 154,45.5C 150.673,42.8461 146.839,41.8461 142.5,42.5C 142.451,46.0781 141.785,49.4115 140.5,52.5C 140.5,49.8333 140.5,47.1667 140.5,44.5C 140.5,43.8333 140.5,43.1667 140.5,42.5C 141.323,39.023 141.823,35.3563 142,31.5C 146.134,32.1959 150.3,32.8625 154.5,33.5C 155.168,35.9688 155.835,38.3021 156.5,40.5 Z"/></g>
<g><path style="opacity:0.984" fill="#625e5b" d="M 71.5,37.5 C 70.1092,39.8903 68.1092,41.5569 65.5,42.5C 66.865,40.1402 68.865,38.4735 71.5,37.5 Z"/></g>
<g><path style="opacity:0.78" fill="#333231" d="M 227.5,39.5 C 227.5,39.1667 227.5,38.8333 227.5,38.5C 230.179,38.5246 231.512,39.858 231.5,42.5C 230.167,41.5 228.833,40.5 227.5,39.5 Z"/></g>
<g><path style="opacity:1" fill="#bebab6" d="M 227.5,39.5 C 228.833,40.5 230.167,41.5 231.5,42.5C 231.833,43.1667 232.167,43.8333 232.5,44.5C 229.833,43.8333 228.167,42.1667 227.5,39.5 Z"/></g>
<g><path style="opacity:0.902" fill="#575452" d="M 231.5,42.5 C 233.5,42.5 234.5,43.5 234.5,45.5C 233.833,45.1667 233.167,44.8333 232.5,44.5C 232.167,43.8333 231.833,43.1667 231.5,42.5 Z"/></g>
<g><path style="opacity:0.969" fill="#504a47" d="M 65.5,42.5 C 64.075,43.922 63.075,45.5887 62.5,47.5C 61.8333,47.5 61.5,47.8333 61.5,48.5C 61.1667,48.5 60.8333,48.5 60.5,48.5C 60.7717,45.2678 62.4384,43.2678 65.5,42.5 Z"/></g>
<g><path style="opacity:1" fill="#f1cdc0" d="M 86.5,51.5 C 86.5,52.1667 86.1667,52.5 85.5,52.5C 81.0383,52.7655 77.205,51.4321 74,48.5C 72.2745,49.464 70.4412,50.1307 68.5,50.5C 69.2279,48.2654 70.5612,46.4321 72.5,45C 75.147,43.7011 77.8137,42.3678 80.5,41C 82.8098,40.5034 85.1432,40.3367 87.5,40.5C 87.0073,43.8121 86.0073,46.9788 84.5,50C 84.8361,51.0299 85.5028,51.5299 86.5,51.5 Z"/></g>
<g><path style="opacity:1" fill="#b1a7a0" d="M 73.5,36.5 C 70.6854,40.5887 67.3521,44.2553 63.5,47.5C 63.1667,47.5 62.8333,47.5 62.5,47.5C 63.075,45.5887 64.075,43.922 65.5,42.5C 68.1092,41.5569 70.1092,39.8903 71.5,37.5C 72.1667,37.1667 72.8333,36.8333 73.5,36.5 Z"/></g>
<g><path style="opacity:1" fill="#fdecdd" d="M 215.5,51.5 C 212.544,46.741 208.21,45.241 202.5,47C 201.944,47.3826 201.611,47.8826 201.5,48.5C 200.178,48.33 199.011,48.6634 198,49.5C 197.834,65.857 198.334,82.1904 199.5,98.5C 198.673,101.783 198.34,105.116 198.5,108.5C 197.833,105.5 197.167,102.5 196.5,99.5C 196.5,99.1667 196.5,98.8333 196.5,98.5C 195.645,81.0973 195.645,63.7639 196.5,46.5C 200.353,46.3144 202.019,44.3144 201.5,40.5C 204.187,40.3359 206.854,40.5026 209.5,41C 213.507,44.6742 217.174,48.6742 220.5,53C 218.811,52.8657 217.144,52.3657 215.5,51.5 Z"/></g>
<g><path style="opacity:1" fill="#fdf7f0" d="M 140.5,42.5 C 140.5,43.1667 140.5,43.8333 140.5,44.5C 139.732,45.2625 139.232,46.2625 139,47.5C 137.981,45.4982 137.148,43.4982 136.5,41.5C 136.665,38.1501 136.498,34.8168 136,31.5C 133.395,30.1857 130.895,30.1857 128.5,31.5C 126.956,31.7031 125.622,32.3698 124.5,33.5C 123.501,48.8189 123.167,64.1522 123.5,79.5C 122.527,81.9479 122.194,84.6146 122.5,87.5C 121.691,89.2922 121.191,91.2922 121,93.5C 120.167,79.508 119.5,65.508 119,51.5C 118.685,49.4144 118.185,47.4144 117.5,45.5C 117.334,41.4862 117.501,37.4862 118,33.5C 120.369,30.8333 122.869,28.3333 125.5,26C 129.5,25.3333 133.5,25.3333 137.5,26C 138,26.5 138.5,27 139,27.5C 140.388,32.3722 140.888,37.3722 140.5,42.5 Z"/></g>
<g><path style="opacity:1" fill="#c8bcb6" d="M 128.5,31.5 C 130.792,31.2436 132.959,31.5769 135,32.5C 135.499,36.1516 135.665,39.8183 135.5,43.5C 134.833,40.1667 134.167,36.8333 133.5,33.5C 130.784,31.9139 128.45,32.2472 126.5,34.5C 125.662,34.8417 125.328,35.5084 125.5,36.5C 124.502,60.3275 124.169,84.3275 124.5,108.5C 124.167,108.5 123.833,108.5 123.5,108.5C 123.5,105.833 123.5,103.167 123.5,100.5C 123.5,93.5 123.5,86.5 123.5,79.5C 123.167,64.1522 123.501,48.8189 124.5,33.5C 125.622,32.3698 126.956,31.7031 128.5,31.5 Z"/></g>
<g><path style="opacity:0.996" fill="#86817d" d="M 234.5,45.5 C 237.573,47.5691 239.906,50.2358 241.5,53.5C 238.427,51.4309 236.094,48.7642 234.5,45.5 Z"/></g>
<g><path style="opacity:1" fill="#f5cec0" d="M 157.5,67.5 C 157.5,75.1667 157.5,82.8333 157.5,90.5C 158.154,104.157 158.487,117.824 158.5,131.5C 157.238,113.846 156.238,96.1793 155.5,78.5C 155.666,70.8261 155.5,63.1594 155,55.5C 151.862,51.8438 148.029,50.5105 143.5,51.5C 142.064,56.8664 141.064,62.1998 140.5,67.5C 140.5,64.8333 140.5,62.1667 140.5,59.5C 140.5,57.1667 140.5,54.8333 140.5,52.5C 141.785,49.4115 142.451,46.0781 142.5,42.5C 146.839,41.8461 150.673,42.8461 154,45.5C 154.333,44.5 154.667,43.5 155,42.5C 155.728,50.9965 156.561,59.3298 157.5,67.5 Z"/></g>
<g><path style="opacity:0.996" fill="#5b514d" d="M 207.5,50.5 C 210.089,51.4194 212.089,53.086 213.5,55.5C 210.911,54.5806 208.911,52.914 207.5,50.5 Z"/></g>
<g><path style="opacity:1" fill="#fdebd9" d="M 101.5,53.5 C 101.83,60.1998 101.497,66.8665 100.5,73.5C 99.914,73.2907 99.414,72.9574 99,72.5C 98.8292,64.3228 98.3292,56.3228 97.5,48.5C 97.5,47.8333 97.1667,47.5 96.5,47.5C 93.4273,46.7285 90.4273,46.7285 87.5,47.5C 88.6411,45.1921 90.3078,43.3587 92.5,42C 100.302,41.6959 103.302,45.5293 101.5,53.5 Z"/></g>
<g><path style="opacity:1" fill="#f5cdbd" d="M 116.5,52.5 C 116.783,61.6785 117.449,70.6785 118.5,79.5C 118.5,88.5 118.5,97.5 118.5,106.5C 117.284,88.9607 115.95,71.294 114.5,53.5C 110.894,53.7892 107.394,53.4558 104,52.5C 103.028,70.1811 101.862,87.8478 100.5,105.5C 99.7432,102.63 98.7432,99.9636 97.5,97.5C 97.5,81.1667 97.5,64.8333 97.5,48.5C 98.3292,56.3228 98.8292,64.3228 99,72.5C 99.414,72.9574 99.914,73.2907 100.5,73.5C 101.497,66.8665 101.83,60.1998 101.5,53.5C 103.163,51.5615 103.829,49.2282 103.5,46.5C 107.226,46.1774 110.893,46.5108 114.5,47.5C 115.028,49.3361 115.694,51.0028 116.5,52.5 Z"/></g>
<g><path style="opacity:1" fill="#fdead5" d="M 136.5,41.5 C 137.148,43.4982 137.981,45.4982 139,47.5C 139.232,46.2625 139.732,45.2625 140.5,44.5C 140.5,47.1667 140.5,49.8333 140.5,52.5C 140.5,54.8333 140.5,57.1667 140.5,59.5C 139.691,61.2922 139.191,63.2922 139,65.5C 138.667,65.1667 138.333,64.8333 138,64.5C 137.821,60.9748 137.321,57.6414 136.5,54.5C 136.5,50.1667 136.5,45.8333 136.5,41.5 Z"/></g>
<g><path style="opacity:1" fill="#ab9289" d="M 91.5,49.5 C 91.5,49.8333 91.5,50.1667 91.5,50.5C 90.5,50.8333 89.8333,51.5 89.5,52.5C 87.5956,52.7376 86.2623,53.7376 85.5,55.5C 84.8333,55.5 84.5,55.8333 84.5,56.5C 83.1667,56.8333 81.8333,57.1667 80.5,57.5C 81.5184,55.1585 83.1851,53.4918 85.5,52.5C 86.1667,52.5 86.5,52.1667 86.5,51.5C 88.1667,50.8333 89.8333,50.1667 91.5,49.5 Z"/></g>
<g><path style="opacity:1" fill="#f3cbbc" d="M 196.5,46.5 C 195.645,63.7639 195.645,81.0973 196.5,98.5C 195.263,88.0185 194.429,77.3518 194,66.5C 193.628,62.6818 192.794,59.0151 191.5,55.5C 187.117,55.3481 183.617,57.0148 181,60.5C 179.138,70.3351 177.805,80.3351 177,90.5C 176.501,86.1794 176.334,81.8461 176.5,77.5C 177.554,65.8668 179.22,54.2001 181.5,42.5C 186.5,41.1667 191.5,41.1667 196.5,42.5C 195.295,43.9948 195.295,45.3281 196.5,46.5 Z"/></g>
<g><path style="opacity:1" fill="#c0a499" d="M 204.5,48.5 C 205.601,47.4017 206.934,47.235 208.5,48C 210.609,49.6455 212.943,50.8122 215.5,51.5C 217.833,54.8333 220.167,58.1667 222.5,61.5C 220.167,60.1667 217.833,58.8333 215.5,57.5C 215.167,56.5 214.5,55.8333 213.5,55.5C 212.089,53.086 210.089,51.4194 207.5,50.5C 207.5,50.1667 207.5,49.8333 207.5,49.5C 206.791,48.596 205.791,48.2627 204.5,48.5 Z"/></g>
<g><path style="opacity:0.961" fill="#524844" d="M 57.5,51.5 C 56.4706,53.5168 55.4706,55.5168 54.5,57.5C 53.5,58.1667 52.5,58.8333 51.5,59.5C 52.5512,56.0393 54.5512,53.3727 57.5,51.5 Z"/></g>
<g><path style="opacity:0.898" fill="#3e3835" d="M 89.5,52.5 C 88.7377,54.2624 87.4044,55.2624 85.5,55.5C 86.2623,53.7376 87.5956,52.7376 89.5,52.5 Z"/></g>
<g><path style="opacity:0.992" fill="#89807b" d="M 241.5,53.5 C 242.906,53.9731 243.573,54.9731 243.5,56.5C 242.094,56.0269 241.427,55.0269 241.5,53.5 Z"/></g>
<g><path style="opacity:1" fill="#aa968c" d="M 60.5,48.5 C 60.8333,48.5 61.1667,48.5 61.5,48.5C 59.695,51.9334 57.3617,54.9334 54.5,57.5C 55.4706,55.5168 56.4706,53.5168 57.5,51.5C 58.1667,50.1667 59.1667,49.1667 60.5,48.5 Z"/></g>
<g><path style="opacity:1" fill="#f0c5b5" d="M 85.5,52.5 C 83.1851,53.4918 81.5184,55.1585 80.5,57.5C 75.8185,59.2929 72.8185,62.6263 71.5,67.5C 71.5,68.1667 71.1667,68.5 70.5,68.5C 70.5,67.1667 70.5,65.8333 70.5,64.5C 68.0712,64.585 66.0712,65.585 64.5,67.5C 61.5949,71.414 59.4283,75.7473 58,80.5C 56.8873,81.305 55.7206,81.9717 54.5,82.5C 56.0068,78.1554 58.1735,74.1554 61,70.5C 61.3108,68.444 61.8108,66.444 62.5,64.5C 62.1924,63.6919 61.6924,63.0253 61,62.5C 58.6182,64.3887 56.1182,66.0553 53.5,67.5C 54.7232,63.9505 56.7232,60.9505 59.5,58.5C 62.0745,55.3467 65.0745,52.6801 68.5,50.5C 70.4412,50.1307 72.2745,49.464 74,48.5C 77.205,51.4321 81.0383,52.7655 85.5,52.5 Z"/></g>
<g><path style="opacity:0.998" fill="#a28c83" d="M 165.5,33.5 C 168.362,32.3187 171.362,32.3187 174.5,33.5C 174.5,51.8333 174.5,70.1667 174.5,88.5C 174.5,90.8333 174.5,93.1667 174.5,95.5C 174.167,95.5 173.833,95.5 173.5,95.5C 173.667,75.4972 173.5,55.4972 173,35.5C 170.865,33.7215 168.365,33.0548 165.5,33.5 Z"/></g>
<g><path style="opacity:1" fill="#f1c8b8" d="M 226.5,47.5 C 229.456,52.2902 233.289,56.2902 238,59.5C 239.852,64.023 242.518,68.023 246,71.5C 246.49,72.7932 246.657,74.1266 246.5,75.5C 243.856,72.5198 241.189,69.5198 238.5,66.5C 238.167,67 237.833,67.5 237.5,68C 240.08,72.9494 242.08,78.1161 243.5,83.5C 243.444,84.737 242.944,85.737 242,86.5C 240.961,85.2899 239.794,84.2899 238.5,83.5C 237.833,83.1667 237.167,82.8333 236.5,82.5C 235.242,80.3131 234.242,77.9798 233.5,75.5C 232.9,72.651 231.567,70.3177 229.5,68.5C 231.716,69.2026 233.549,70.5359 235,72.5C 235.422,75.7595 236.922,78.4262 239.5,80.5C 240.833,78.8333 240.833,77.1667 239.5,75.5C 236.426,71.0271 233.593,66.3604 231,61.5C 224.92,56.2557 219.753,50.2557 215.5,43.5C 215.833,43.1667 216.167,42.8333 216.5,42.5C 219.886,44.1932 223.22,45.8599 226.5,47.5 Z"/></g>
<g><path style="opacity:1" fill="#f7ddcb" d="M 62.5,47.5 C 62.8333,47.5 63.1667,47.5 63.5,47.5C 63.3691,48.3764 63.7025,49.0431 64.5,49.5C 65.4168,48.8728 66.4168,48.5394 67.5,48.5C 66.4923,50.3386 64.9923,51.6719 63,52.5C 61.5787,54.4048 60.412,56.4048 59.5,58.5C 56.7232,60.9505 54.7232,63.9505 53.5,67.5C 50.1963,70.8159 48.1963,74.8159 47.5,79.5C 46.5,79.5 45.5,79.5 44.5,79.5C 44.448,77.0971 44.7814,74.7638 45.5,72.5C 47.017,69.9648 48.3503,67.2982 49.5,64.5C 51.9,62.7036 53.5667,60.3702 54.5,57.5C 57.3617,54.9334 59.695,51.9334 61.5,48.5C 61.5,47.8333 61.8333,47.5 62.5,47.5 Z"/></g>
<g><path style="opacity:1" fill="#f0c4b4" d="M 155.5,78.5 C 154.506,75.8763 153.506,73.2097 152.5,70.5C 149.214,69.7929 145.881,69.4595 142.5,69.5C 141.609,81.1919 140.442,92.8585 139,104.5C 137.017,94.6393 136.184,84.6393 136.5,74.5C 137.166,78.3525 137.833,82.3525 138.5,86.5C 139.281,85.2713 139.781,83.938 140,82.5C 140.499,77.5111 140.666,72.5111 140.5,67.5C 141.064,62.1998 142.064,56.8664 143.5,51.5C 148.029,50.5105 151.862,51.8438 155,55.5C 155.5,63.1594 155.666,70.8261 155.5,78.5 Z"/></g>
<g><path style="opacity:0.976" fill="#534a45" d="M 51.5,59.5 C 50.8333,61.1667 50.1667,62.8333 49.5,64.5C 49.1667,64.5 48.8333,64.5 48.5,64.5C 48.2729,62.0672 49.2729,60.4006 51.5,59.5 Z"/></g>
<g><path style="opacity:0.871" fill="#413935" d="M 84.5,56.5 C 82.7726,58.5667 80.7726,60.2334 78.5,61.5C 79.6005,60.3951 80.2671,59.0618 80.5,57.5C 81.8333,57.1667 83.1667,56.8333 84.5,56.5 Z"/></g>
<g><path style="opacity:0.993" fill="#947d74" d="M 96.5,47.5 C 96.5,73.5 96.5,99.5 96.5,125.5C 96.1667,125.5 95.8333,125.5 95.5,125.5C 95.6692,100.157 95.3359,74.8238 94.5,49.5C 93.5,49.5 92.5,49.5 91.5,49.5C 92.6354,47.7868 94.302,47.1201 96.5,47.5 Z"/></g>
<g><path style="opacity:1" fill="#eabfaf" d="M 174.5,33.5 C 175.473,35.9479 175.806,38.6146 175.5,41.5C 175.358,53.5183 175.691,65.5183 176.5,77.5C 176.334,81.8461 176.501,86.1794 177,90.5C 177.805,80.3351 179.138,70.3351 181,60.5C 183.617,57.0148 187.117,55.3481 191.5,55.5C 192.794,59.0151 193.628,62.6818 194,66.5C 194.429,77.3518 195.263,88.0185 196.5,98.5C 196.5,98.8333 196.5,99.1667 196.5,99.5C 196.5,106.167 196.5,112.833 196.5,119.5C 195.597,109.994 194.763,100.327 194,90.5C 193.718,86.5118 192.885,82.6785 191.5,79C 188.446,78.1786 185.446,78.3452 182.5,79.5C 180.425,90.4667 178.592,101.467 177,112.5C 176.819,109.305 176.319,106.305 175.5,103.5C 175.821,98.3054 175.487,93.3054 174.5,88.5C 174.5,70.1667 174.5,51.8333 174.5,33.5 Z"/></g>
<g><path style="opacity:1" fill="#c09f93" d="M 80.5,57.5 C 80.2671,59.0618 79.6005,60.3951 78.5,61.5C 77.8333,61.8333 77.1667,62.1667 76.5,62.5C 75.0699,64.386 73.4032,66.0527 71.5,67.5C 72.8185,62.6263 75.8185,59.2929 80.5,57.5 Z"/></g>
<g><path style="opacity:1" fill="#fdf7f0" d="M 173.5,31.5 C 170.277,30.0748 167.11,30.4081 164,32.5C 163.501,38.4908 163.334,44.4908 163.5,50.5C 162.51,56.31 162.177,62.31 162.5,68.5C 161.927,75.4259 161.094,82.4259 160,89.5C 159.31,75.0002 158.476,60.6668 157.5,46.5C 156.659,44.6208 156.325,42.6208 156.5,40.5C 156.335,37.4816 156.502,34.4816 157,31.5C 159.046,30.0895 160.879,28.4228 162.5,26.5C 165.773,25.4149 169.106,25.2483 172.5,26C 177.143,28.0724 178.643,31.5724 177,36.5C 176.667,35.1667 176.333,33.8333 176,32.5C 175.329,31.7476 174.496,31.4142 173.5,31.5 Z"/></g>
<g><path style="opacity:1" fill="#b69d91" d="M 54.5,57.5 C 53.5667,60.3702 51.9,62.7036 49.5,64.5C 50.1667,62.8333 50.8333,61.1667 51.5,59.5C 52.5,58.8333 53.5,58.1667 54.5,57.5 Z"/></g>
<g><path style="opacity:1" fill="#e3c7b9" d="M 128.5,31.5 C 130.895,30.1857 133.395,30.1857 136,31.5C 136.498,34.8168 136.665,38.1501 136.5,41.5C 136.5,45.8333 136.5,50.1667 136.5,54.5C 136.5,59.1667 136.5,63.8333 136.5,68.5C 136.167,68.5 135.833,68.5 135.5,68.5C 135.5,60.1667 135.5,51.8333 135.5,43.5C 135.665,39.8183 135.499,36.1516 135,32.5C 132.959,31.5769 130.792,31.2436 128.5,31.5 Z"/></g>
<g><path style="opacity:1" fill="#b99a8e" d="M 222.5,61.5 C 225.855,62.8552 228.189,65.1886 229.5,68.5C 231.567,70.3177 232.9,72.651 233.5,75.5C 232.833,75.5 232.167,75.5 231.5,75.5C 231.262,73.5956 230.262,72.2623 228.5,71.5C 226.102,68.4288 224.102,65.0954 222.5,61.5 Z"/></g>
<g><path style="opacity:1" fill="#7a736f" d="M 243.5,56.5 C 248.084,60.2 251.418,64.8666 253.5,70.5C 252.5,69.8333 251.5,69.1667 250.5,68.5C 248.961,63.9788 246.628,59.9788 243.5,56.5 Z"/></g>
<g><path style="opacity:0.937" fill="#584c48" d="M 215.5,57.5 C 217.833,58.8333 220.167,60.1667 222.5,61.5C 224.102,65.0954 226.102,68.4288 228.5,71.5C 224.167,66.8333 219.833,62.1667 215.5,57.5 Z"/></g>
<g><path style="opacity:0.89" fill="#2a2726" d="M 207.5,49.5 C 207.5,49.8333 207.5,50.1667 207.5,50.5C 205.836,75.9837 204.836,101.65 204.5,127.5C 204.5,101.5 204.5,75.5 204.5,49.5C 205.5,49.5 206.5,49.5 207.5,49.5 Z"/></g>
<g><path style="opacity:1" fill="#85716a" d="M 48.5,64.5 C 48.8333,64.5 49.1667,64.5 49.5,64.5C 48.3503,67.2982 47.017,69.9648 45.5,72.5C 44.8333,72.8333 44.1667,73.1667 43.5,73.5C 44.9519,70.2518 46.6186,67.2518 48.5,64.5 Z"/></g>
<g><path style="opacity:0.992" fill="#776b65" d="M 76.5,62.5 C 73.3791,68.4894 69.5458,74.1561 65,79.5C 62.5898,84.0698 60.4231,88.7364 58.5,93.5C 58.1667,93.5 57.8333,93.5 57.5,93.5C 58.0592,91.3208 58.7259,89.1542 59.5,87C 62.6356,81.0366 65.9689,75.2033 69.5,69.5C 69.5,68.8333 69.8333,68.5 70.5,68.5C 71.1667,68.5 71.5,68.1667 71.5,67.5C 73.4032,66.0527 75.0699,64.386 76.5,62.5 Z"/></g>
<g><path style="opacity:1" fill="#ebbdac" d="M 246.5,75.5 C 248.451,76.7158 249.951,78.3825 251,80.5C 253.064,83.8598 254.231,87.5265 254.5,91.5C 256.772,98.4826 258.939,105.483 261,112.5C 261.5,123.828 261.667,135.162 261.5,146.5C 260.833,147.167 260.167,147.833 259.5,148.5C 260.549,139.527 260.716,130.527 260,121.5C 257.596,108.288 253.929,95.6213 249,83.5C 248,82.5 247,81.5 246,80.5C 245.833,81.1667 245.667,81.8333 245.5,82.5C 248.969,92.6582 250.802,102.991 251,113.5C 250.586,113.957 250.086,114.291 249.5,114.5C 247.466,107.963 245.966,101.297 245,94.5C 244.098,92.5692 242.931,90.9025 241.5,89.5C 239.755,87.9674 238.755,85.9674 238.5,83.5C 239.794,84.2899 240.961,85.2899 242,86.5C 242.944,85.737 243.444,84.737 243.5,83.5C 242.08,78.1161 240.08,72.9494 237.5,68C 237.833,67.5 238.167,67 238.5,66.5C 241.189,69.5198 243.856,72.5198 246.5,75.5 Z"/></g>
<g><path style="opacity:1" fill="#b7aaa4" d="M 250.5,68.5 C 251.5,69.1667 252.5,69.8333 253.5,70.5C 254.167,71.5 254.833,72.5 255.5,73.5C 255.5,74.8333 255.5,76.1667 255.5,77.5C 253.277,74.8557 251.611,71.8557 250.5,68.5 Z"/></g>
<g><path style="opacity:1" fill="#fcdcc6" d="M 136.5,54.5 C 137.321,57.6414 137.821,60.9748 138,64.5C 138.333,64.8333 138.667,65.1667 139,65.5C 139.191,63.2922 139.691,61.2922 140.5,59.5C 140.5,62.1667 140.5,64.8333 140.5,67.5C 140.666,72.5111 140.499,77.5111 140,82.5C 139.781,83.938 139.281,85.2713 138.5,86.5C 137.833,82.3525 137.166,78.3525 136.5,74.5C 136.5,72.5 136.5,70.5 136.5,68.5C 136.5,63.8333 136.5,59.1667 136.5,54.5 Z"/></g>
<g><path style="opacity:0.882" fill="#483e3b" d="M 228.5,71.5 C 230.262,72.2623 231.262,73.5956 231.5,75.5C 232.11,76.391 232.443,77.391 232.5,78.5C 230.801,76.4336 229.468,74.1003 228.5,71.5 Z"/></g>
<g><path style="opacity:0.988" fill="#6c6461" d="M 255.5,73.5 C 256.537,74.9303 257.204,76.597 257.5,78.5C 256.833,78.1667 256.167,77.8333 255.5,77.5C 255.5,76.1667 255.5,74.8333 255.5,73.5 Z"/></g>
<g><path style="opacity:1" fill="#d6c3b8" d="M 69.5,69.5 C 65.9689,75.2033 62.6356,81.0366 59.5,87C 58.7259,89.1542 58.0592,91.3208 57.5,93.5C 57.6716,94.4916 57.3382,95.1583 56.5,95.5C 56.605,91.6811 57.4383,88.0145 59,84.5C 61.0346,81.7552 62.7013,78.7552 64,75.5C 65.6338,73.1631 67.4671,71.1631 69.5,69.5 Z"/></g>
<g><path style="opacity:1" fill="#faede0" d="M 232.5,44.5 C 233.167,44.8333 233.833,45.1667 234.5,45.5C 236.094,48.7642 238.427,51.4309 241.5,53.5C 241.427,55.0269 242.094,56.0269 243.5,56.5C 246.628,59.9788 248.961,63.9788 250.5,68.5C 251.611,71.8557 253.277,74.8557 255.5,77.5C 255.12,79.698 255.787,81.3646 257.5,82.5C 259.349,88.4262 261.016,94.4262 262.5,100.5C 262.663,102.857 262.497,105.19 262,107.5C 260.253,103.462 258.753,99.2949 257.5,95C 256.629,93.6362 255.629,92.4695 254.5,91.5C 254.231,87.5265 253.064,83.8598 251,80.5C 249.951,78.3825 248.451,76.7158 246.5,75.5C 246.657,74.1266 246.49,72.7932 246,71.5C 242.518,68.023 239.852,64.023 238,59.5C 233.289,56.2902 229.456,52.2902 226.5,47.5C 228.628,48.9573 230.962,49.9573 233.5,50.5C 233.483,48.4352 233.15,46.4352 232.5,44.5 Z"/></g>
<g><path style="opacity:0.875" fill="#3f3c3a" d="M 257.5,78.5 C 259.048,78.8212 259.715,79.8212 259.5,81.5C 258.833,81.1667 258.167,80.8333 257.5,80.5C 257.5,79.8333 257.5,79.1667 257.5,78.5 Z"/></g>
<g><path style="opacity:0.996" fill="#816d66" d="M 231.5,75.5 C 232.167,75.5 232.833,75.5 233.5,75.5C 234.242,77.9798 235.242,80.3131 236.5,82.5C 235.833,82.1667 235.167,81.8333 234.5,81.5C 233.833,80.5 233.167,79.5 232.5,78.5C 232.443,77.391 232.11,76.391 231.5,75.5 Z"/></g>
<g><path style="opacity:0.98" fill="#675650" d="M 43.5,73.5 C 42.8333,75.8333 42.1667,78.1667 41.5,80.5C 40.3127,82.0725 39.3127,83.7392 38.5,85.5C 38.6268,80.7679 40.2935,76.7679 43.5,73.5 Z"/></g>
<g><path style="opacity:1" fill="#feeede" d="M 116.5,45.5 C 116.833,45.5 117.167,45.5 117.5,45.5C 118.185,47.4144 118.685,49.4144 119,51.5C 119.5,65.508 120.167,79.508 121,93.5C 121.191,91.2922 121.691,89.2922 122.5,87.5C 122.442,94.8604 121.942,102.194 121,109.5C 120.337,99.3313 119.504,89.3313 118.5,79.5C 117.449,70.6785 116.783,61.6785 116.5,52.5C 116.5,50.1667 116.5,47.8333 116.5,45.5 Z"/></g>
<g><path style="opacity:1" fill="#c4b7af" d="M 255.5,77.5 C 256.167,77.8333 256.833,78.1667 257.5,78.5C 257.5,79.1667 257.5,79.8333 257.5,80.5C 257.5,81.1667 257.5,81.8333 257.5,82.5C 255.787,81.3646 255.12,79.698 255.5,77.5 Z"/></g>
<g><path style="opacity:0.969" fill="#817773" d="M 257.5,80.5 C 258.167,80.8333 258.833,81.1667 259.5,81.5C 259.263,82.791 259.596,83.791 260.5,84.5C 260.5,85.1667 260.5,85.8333 260.5,86.5C 259.143,85.4097 258.143,84.0764 257.5,82.5C 257.5,81.8333 257.5,81.1667 257.5,80.5 Z"/></g>
<g><path style="opacity:0.988" fill="#7c736f" d="M 204.5,48.5 C 205.791,48.2627 206.791,48.596 207.5,49.5C 206.5,49.5 205.5,49.5 204.5,49.5C 204.5,75.5 204.5,101.5 204.5,127.5C 203.519,141.088 203.185,154.754 203.5,168.5C 203.167,168.5 202.833,168.5 202.5,168.5C 202.5,155.833 202.5,143.167 202.5,130.5C 203.042,103.004 203.709,75.6711 204.5,48.5 Z"/></g>
<g><path style="opacity:1" fill="#e6b9a9" d="M 118.5,106.5 C 118.5,109.833 118.5,113.167 118.5,116.5C 119.924,143.812 120.59,171.146 120.5,198.5C 119.258,176 118.258,153.334 117.5,130.5C 117.65,117.457 116.983,104.457 115.5,91.5C 111.611,90.189 107.611,89.5224 103.5,89.5C 102.136,102.448 101.469,115.448 101.5,128.5C 101.837,132.308 101.337,135.974 100,139.5C 98.1089,125.563 97.2756,111.563 97.5,97.5C 98.7432,99.9636 99.7432,102.63 100.5,105.5C 101.862,87.8478 103.028,70.1811 104,52.5C 107.394,53.4558 110.894,53.7892 114.5,53.5C 115.95,71.294 117.284,88.9607 118.5,106.5 Z"/></g>
<g><path style="opacity:0.969" fill="#524945" d="M 133.5,33.5 C 133.5,60.5 133.5,87.5 133.5,114.5C 133.167,114.5 132.833,114.5 132.5,114.5C 132.5,87.8333 132.5,61.1667 132.5,34.5C 130.5,34.5 128.5,34.5 126.5,34.5C 128.45,32.2472 130.784,31.9139 133.5,33.5 Z"/></g>
<g><path style="opacity:0.89" fill="#3e3632" d="M 234.5,81.5 C 235.167,81.8333 235.833,82.1667 236.5,82.5C 236.767,84.9653 237.434,87.2986 238.5,89.5C 236.245,87.4691 234.912,84.8025 234.5,81.5 Z"/></g>
<g><path style="opacity:0.808" fill="#33302e" d="M 260.5,84.5 C 262.213,85.6354 262.88,87.302 262.5,89.5C 262.167,89.5 261.833,89.5 261.5,89.5C 260.596,88.791 260.263,87.791 260.5,86.5C 260.5,85.8333 260.5,85.1667 260.5,84.5 Z"/></g>
<g><path style="opacity:1" fill="#fdecde" d="M 157.5,46.5 C 158.476,60.6668 159.31,75.0002 160,89.5C 161.094,82.4259 161.927,75.4259 162.5,68.5C 162.5,78.8333 162.5,89.1667 162.5,99.5C 161.809,105.38 160.976,111.38 160,117.5C 159.767,108.294 158.934,99.2941 157.5,90.5C 157.5,82.8333 157.5,75.1667 157.5,67.5C 157.5,60.5 157.5,53.5 157.5,46.5 Z"/></g>
<g><path style="opacity:1" fill="#fbf2e9" d="M 201.5,48.5 C 201.5,59.5 201.5,70.5 201.5,81.5C 200.671,89.3228 200.171,97.3228 200,105.5C 199.79,107.058 199.29,108.391 198.5,109.5C 198.5,109.167 198.5,108.833 198.5,108.5C 198.34,105.116 198.673,101.783 199.5,98.5C 198.334,82.1904 197.834,65.857 198,49.5C 199.011,48.6634 200.178,48.33 201.5,48.5 Z"/></g>
<g><path style="opacity:1" fill="#dfb1a1" d="M 196.5,119.5 C 196.5,127.167 196.5,134.833 196.5,142.5C 195.57,129.982 194.57,117.315 193.5,104.5C 192.682,102.892 192.015,101.225 191.5,99.5C 188.23,98.8081 184.897,98.8081 181.5,99.5C 180.339,114.7 178.672,129.7 176.5,144.5C 176.135,130.834 175.802,117.168 175.5,103.5C 176.319,106.305 176.819,109.305 177,112.5C 178.592,101.467 180.425,90.4667 182.5,79.5C 185.446,78.3452 188.446,78.1786 191.5,79C 192.885,82.6785 193.718,86.5118 194,90.5C 194.763,100.327 195.597,109.994 196.5,119.5 Z"/></g>
<g><path style="opacity:1" fill="#dcae9e" d="M 51.5,85.5 C 44.5922,109.721 43.9255,134.055 49.5,158.5C 45.5448,151.516 43.5448,143.849 43.5,135.5C 43.8158,127.248 43.4825,119.081 42.5,111C 41.2161,110.316 40.0495,110.483 39,111.5C 38.1379,117.977 37.3046,124.311 36.5,130.5C 36.3337,123.825 36.5004,117.158 37,110.5C 39.0446,106.097 40.0446,101.43 40,96.5C 41.6511,92.0449 43.8178,87.8782 46.5,84C 47.9663,83.3645 49.2997,82.5312 50.5,81.5C 51.4287,82.6888 51.762,84.0222 51.5,85.5 Z"/></g>
<g><path style="opacity:0.992" fill="#78625a" d="M 37.5,89.5 C 37.2041,91.403 36.5375,93.0697 35.5,94.5C 35.0773,92.2188 35.744,90.5521 37.5,89.5 Z"/></g>
<g><path style="opacity:1" fill="#fbe7d7" d="M 70.5,68.5 C 69.8333,68.5 69.5,68.8333 69.5,69.5C 67.4671,71.1631 65.6338,73.1631 64,75.5C 62.7013,78.7552 61.0346,81.7552 59,84.5C 57.4383,88.0145 56.605,91.6811 56.5,95.5C 55.0762,97.5145 54.4095,99.8478 54.5,102.5C 54.5,102.833 54.5,103.167 54.5,103.5C 52.3862,104.784 51.3862,106.784 51.5,109.5C 50.6414,112.212 49.4748,114.878 48,117.5C 47.3333,114.167 47.3333,110.833 48,107.5C 49.9524,99.4056 52.1191,91.4056 54.5,83.5C 54.5,83.1667 54.5,82.8333 54.5,82.5C 55.7206,81.9717 56.8873,81.305 58,80.5C 59.4283,75.7473 61.5949,71.414 64.5,67.5C 66.0712,65.585 68.0712,64.585 70.5,64.5C 70.5,65.8333 70.5,67.1667 70.5,68.5 Z"/></g>
<g><path style="opacity:0.988" fill="#866e65" d="M 236.5,82.5 C 237.167,82.8333 237.833,83.1667 238.5,83.5C 238.755,85.9674 239.755,87.9674 241.5,89.5C 242.833,94.8333 244.167,100.167 245.5,105.5C 244.833,104.833 244.167,104.167 243.5,103.5C 242.436,98.5544 240.77,93.8877 238.5,89.5C 237.434,87.2986 236.767,84.9653 236.5,82.5 Z"/></g>
<g><path style="opacity:0.898" fill="#373332" d="M 262.5,91.5 C 264.344,93.2789 265.01,95.6122 264.5,98.5C 263.662,98.1583 263.328,97.4916 263.5,96.5C 263.634,94.7085 263.301,93.0418 262.5,91.5 Z"/></g>
<g><path style="opacity:1" fill="#9d918c" d="M 261.5,89.5 C 261.833,89.5 262.167,89.5 262.5,89.5C 262.5,90.1667 262.5,90.8333 262.5,91.5C 263.301,93.0418 263.634,94.7085 263.5,96.5C 262.883,96.3893 262.383,96.056 262,95.5C 261.505,93.5273 261.338,91.5273 261.5,89.5 Z"/></g>
<g><path style="opacity:0.827" fill="#332f2d" d="M 57.5,93.5 C 57.8333,93.5 58.1667,93.5 58.5,93.5C 58.5905,96.1522 57.9238,98.4855 56.5,100.5C 56.5,98.8333 56.5,97.1667 56.5,95.5C 57.3382,95.1583 57.6716,94.4916 57.5,93.5 Z"/></g>
<g><path style="opacity:0.973" fill="#857b76" d="M 56.5,95.5 C 56.5,97.1667 56.5,98.8333 56.5,100.5C 55.8333,101.167 55.1667,101.833 54.5,102.5C 54.4095,99.8478 55.0762,97.5145 56.5,95.5 Z"/></g>
<g><path style="opacity:1" fill="#bcaca6" d="M 173.5,31.5 C 173.833,32.1667 174.167,32.8333 174.5,33.5C 171.362,32.3187 168.362,32.3187 165.5,33.5C 164.833,93.5 164.167,153.5 163.5,213.5C 163.5,192.5 163.5,171.5 163.5,150.5C 163.5,117.167 163.5,83.8333 163.5,50.5C 163.334,44.4908 163.501,38.4908 164,32.5C 167.11,30.4081 170.277,30.0748 173.5,31.5 Z"/></g>
<g><path style="opacity:1" fill="#b08e81" d="M 41.5,80.5 C 39.3915,89.3719 36.7248,98.0386 33.5,106.5C 33.5,104.167 33.5,101.833 33.5,99.5C 34.0241,97.6943 34.6908,96.0276 35.5,94.5C 36.5375,93.0697 37.2041,91.403 37.5,89.5C 37.2322,87.901 37.5655,86.5676 38.5,85.5C 39.3127,83.7392 40.3127,82.0725 41.5,80.5 Z"/></g>
<g><path style="opacity:0.851" fill="#3a3634" d="M 264.5,98.5 C 265.158,99.3984 265.824,100.398 266.5,101.5C 267.492,105.783 267.826,110.116 267.5,114.5C 267.167,114.5 266.833,114.5 266.5,114.5C 266.697,109.026 266.031,103.692 264.5,98.5 Z"/></g>
<g><path style="opacity:0.871" fill="#3d3936" d="M 56.5,100.5 C 56.0246,104.084 55.0246,107.417 53.5,110.5C 53.448,108.097 53.7814,105.764 54.5,103.5C 54.5,103.167 54.5,102.833 54.5,102.5C 55.1667,101.833 55.8333,101.167 56.5,100.5 Z"/></g>
<g><path style="opacity:0.996" fill="#a2948e" d="M 54.5,103.5 C 53.7814,105.764 53.448,108.097 53.5,110.5C 52.8333,112.833 52.1667,115.167 51.5,117.5C 51.5,114.833 51.5,112.167 51.5,109.5C 51.3862,106.784 52.3862,104.784 54.5,103.5 Z"/></g>
<g><path style="opacity:1" fill="#d8ab9b" d="M 117.5,130.5 C 116.833,124.321 116.167,117.988 115.5,111.5C 114.646,110.478 113.646,109.645 112.5,109C 109.518,108.502 106.518,108.335 103.5,108.5C 103.362,115.363 102.696,122.03 101.5,128.5C 101.469,115.448 102.136,102.448 103.5,89.5C 107.611,89.5224 111.611,90.189 115.5,91.5C 116.983,104.457 117.65,117.457 117.5,130.5 Z"/></g>
<g><path style="opacity:1" fill="#d1a292" d="M 96.5,47.5 C 97.1667,47.5 97.5,47.8333 97.5,48.5C 97.5,64.8333 97.5,81.1667 97.5,97.5C 97.2756,111.563 98.1089,125.563 100,139.5C 101.337,135.974 101.837,132.308 101.5,128.5C 102.696,122.03 103.362,115.363 103.5,108.5C 106.518,108.335 109.518,108.502 112.5,109C 113.646,109.645 114.646,110.478 115.5,111.5C 116.167,117.988 116.833,124.321 117.5,130.5C 118.258,153.334 119.258,176 120.5,198.5C 120.5,201.5 120.5,204.5 120.5,207.5C 120.5,228.833 120.5,250.167 120.5,271.5C 119.506,261.013 119.172,250.346 119.5,239.5C 119.294,214.461 118.294,189.461 116.5,164.5C 116.898,151.781 116.398,139.114 115,126.5C 114.691,125.234 114.191,124.067 113.5,123C 110.183,122.502 106.85,122.335 103.5,122.5C 102.866,138.507 102.033,154.507 101,170.5C 100.667,171.167 100.333,171.833 100,172.5C 99.1167,165.692 98.2834,159.025 97.5,152.5C 97.8257,144.316 97.4924,136.316 96.5,128.5C 96.5,127.5 96.5,126.5 96.5,125.5C 96.5,99.5 96.5,73.5 96.5,47.5 Z"/></g>
<g><path style="opacity:0.984" fill="#5a4a45" d="M 243.5,103.5 C 244.167,104.167 244.833,104.833 245.5,105.5C 245.963,108.482 246.296,111.482 246.5,114.5C 245.351,114.209 244.684,113.376 244.5,112C 243.784,109.208 243.451,106.374 243.5,103.5 Z"/></g>
<g><path style="opacity:1" fill="#fce2d4" d="M 118.5,79.5 C 119.504,89.3313 120.337,99.3313 121,109.5C 121.942,102.194 122.442,94.8604 122.5,87.5C 122.194,84.6146 122.527,81.9479 123.5,79.5C 123.5,86.5 123.5,93.5 123.5,100.5C 122.866,114.362 122.033,128.362 121,142.5C 120.183,133.679 119.35,125.012 118.5,116.5C 118.5,113.167 118.5,109.833 118.5,106.5C 118.5,97.5 118.5,88.5 118.5,79.5 Z"/></g>
<g><path style="opacity:1" fill="#d6a594" d="M 259.5,148.5 C 259.037,151.33 258.371,153.997 257.5,156.5C 258.51,144.183 258.677,131.85 258,119.5C 257.085,118.672 256.419,117.672 256,116.5C 254.711,122.327 254.044,128.327 254,134.5C 253.085,135.328 252.419,136.328 252,137.5C 251.963,144.399 250.963,151.065 249,157.5C 248.586,157.957 248.086,158.291 247.5,158.5C 246.513,155.232 246.18,151.898 246.5,148.5C 247.777,147.306 248.444,145.64 248.5,143.5C 249.956,134.466 249.789,125.466 248,116.5C 247.722,115.584 247.222,114.918 246.5,114.5C 246.296,111.482 245.963,108.482 245.5,105.5C 244.167,100.167 242.833,94.8333 241.5,89.5C 242.931,90.9025 244.098,92.5692 245,94.5C 245.966,101.297 247.466,107.963 249.5,114.5C 250.086,114.291 250.586,113.957 251,113.5C 250.802,102.991 248.969,92.6582 245.5,82.5C 245.667,81.8333 245.833,81.1667 246,80.5C 247,81.5 248,82.5 249,83.5C 253.929,95.6213 257.596,108.288 260,121.5C 260.716,130.527 260.549,139.527 259.5,148.5 Z"/></g>
<g><path style="opacity:1" fill="#cd9c8b" d="M 43.5,135.5 C 42.1413,133.173 40.6413,130.84 39,128.5C 37.0188,135.877 37.1854,143.21 39.5,150.5C 39.3333,151.833 39.1667,153.167 39,154.5C 38.3292,155.252 37.4959,155.586 36.5,155.5C 34.903,150.969 33.903,146.302 33.5,141.5C 36.0812,138.416 37.0812,134.75 36.5,130.5C 37.3046,124.311 38.1379,117.977 39,111.5C 40.0495,110.483 41.2161,110.316 42.5,111C 43.4825,119.081 43.8158,127.248 43.5,135.5 Z"/></g>
<g><path style="opacity:1" fill="#f8e4d9" d="M 201.5,81.5 C 201.667,94.8375 201.5,108.171 201,121.5C 200.587,124.232 199.92,126.899 199,129.5C 198.5,122.842 198.334,116.175 198.5,109.5C 199.29,108.391 199.79,107.058 200,105.5C 200.171,97.3228 200.671,89.3228 201.5,81.5 Z"/></g>
<g><path style="opacity:0.949" fill="#54453f" d="M 91.5,50.5 C 91.5,50.1667 91.5,49.8333 91.5,49.5C 92.5,49.5 93.5,49.5 94.5,49.5C 95.3359,74.8238 95.6692,100.157 95.5,125.5C 95.5,132.833 95.5,140.167 95.5,147.5C 95.1667,147.5 94.8333,147.5 94.5,147.5C 94.6666,121.831 94.5,96.1645 94,70.5C 94.1333,63.425 93.2999,56.7584 91.5,50.5 Z"/></g>
<g><path style="opacity:1" fill="#d0a090" d="M 196.5,142.5 C 196.5,147.833 196.5,153.167 196.5,158.5C 196.5,166.167 196.5,173.833 196.5,181.5C 195.596,180.791 195.263,179.791 195.5,178.5C 195.701,162.716 194.535,147.049 192,131.5C 188.667,130.167 185.333,130.167 182,131.5C 181.056,139.391 179.389,147.058 177,154.5C 176.502,151.183 176.335,147.85 176.5,144.5C 178.672,129.7 180.339,114.7 181.5,99.5C 184.897,98.8081 188.23,98.8081 191.5,99.5C 192.015,101.225 192.682,102.892 193.5,104.5C 194.57,117.315 195.57,129.982 196.5,142.5 Z"/></g>
<g><path style="opacity:0.98" fill="#837671" d="M 266.5,114.5 C 266.833,114.5 267.167,114.5 267.5,114.5C 267.666,125.349 267.333,136.182 266.5,147C 266.467,149.61 265.8,151.777 264.5,153.5C 266.124,140.559 266.791,127.559 266.5,114.5 Z"/></g>
<g><path style="opacity:1" fill="#cfbbb3" d="M 257.5,82.5 C 258.143,84.0764 259.143,85.4097 260.5,86.5C 260.263,87.791 260.596,88.791 261.5,89.5C 261.338,91.5273 261.505,93.5273 262,95.5C 262.383,96.056 262.883,96.3893 263.5,96.5C 263.328,97.4916 263.662,98.1583 264.5,98.5C 266.031,103.692 266.697,109.026 266.5,114.5C 266.791,127.559 266.124,140.559 264.5,153.5C 264.5,154.5 264.5,155.5 264.5,156.5C 264.167,156.5 263.833,156.5 263.5,156.5C 264.5,139.845 264.666,123.178 264,106.5C 263.809,104.292 263.309,102.292 262.5,100.5C 261.016,94.4262 259.349,88.4262 257.5,82.5 Z"/></g>
<g><path style="opacity:1" fill="#e3b5a6" d="M 135.5,68.5 C 135.833,68.5 136.167,68.5 136.5,68.5C 136.5,70.5 136.5,72.5 136.5,74.5C 136.184,84.6393 137.017,94.6393 139,104.5C 140.442,92.8585 141.609,81.1919 142.5,69.5C 145.881,69.4595 149.214,69.7929 152.5,70.5C 153.506,73.2097 154.506,75.8763 155.5,78.5C 156.238,96.1793 157.238,113.846 158.5,131.5C 158.5,132.5 158.5,133.5 158.5,134.5C 158.981,150.496 159.315,166.496 159.5,182.5C 158.157,166.616 157.157,150.616 156.5,134.5C 156.567,125.138 156.067,115.804 155,106.5C 154.043,103.978 152.543,101.811 150.5,100C 147.854,99.5026 145.187,99.3359 142.5,99.5C 141.412,110.138 140.745,120.805 140.5,131.5C 140.5,132.167 140.5,132.833 140.5,133.5C 139.691,135.292 139.191,137.292 139,139.5C 138.667,138.5 138.333,137.5 138,136.5C 137.827,130.984 137.327,125.651 136.5,120.5C 136.817,116.298 136.483,112.298 135.5,108.5C 135.5,95.1667 135.5,81.8333 135.5,68.5 Z"/></g>
<g><path style="opacity:1" fill="#d5a796" d="M 156.5,134.5 C 156.003,129.173 155.003,123.84 153.5,118.5C 150.387,115.808 146.721,114.808 142.5,115.5C 142.332,121.034 141.665,126.367 140.5,131.5C 140.745,120.805 141.412,110.138 142.5,99.5C 145.187,99.3359 147.854,99.5026 150.5,100C 152.543,101.811 154.043,103.978 155,106.5C 156.067,115.804 156.567,125.138 156.5,134.5 Z"/></g>
<g><path style="opacity:1" fill="#a27e70" d="M 246.5,114.5 C 247.222,114.918 247.722,115.584 248,116.5C 249.789,125.466 249.956,134.466 248.5,143.5C 248.444,145.64 247.777,147.306 246.5,148.5C 246.5,146.833 246.5,145.167 246.5,143.5C 246.5,133.833 246.5,124.167 246.5,114.5 Z"/></g>
<g><path style="opacity:1" fill="#e8bcac" d="M 54.5,82.5 C 54.5,82.8333 54.5,83.1667 54.5,83.5C 53.2223,83.7822 52.2223,84.4489 51.5,85.5C 51.762,84.0222 51.4287,82.6888 50.5,81.5C 49.2997,82.5312 47.9663,83.3645 46.5,84C 43.8178,87.8782 41.6511,92.0449 40,96.5C 40.0446,101.43 39.0446,106.097 37,110.5C 36.5004,117.158 36.3337,123.825 36.5,130.5C 37.0812,134.75 36.0812,138.416 33.5,141.5C 33.5,130.167 33.5,118.833 33.5,107.5C 33.5,107.167 33.5,106.833 33.5,106.5C 36.7248,98.0386 39.3915,89.3719 41.5,80.5C 42.1667,78.1667 42.8333,75.8333 43.5,73.5C 44.1667,73.1667 44.8333,72.8333 45.5,72.5C 44.7814,74.7638 44.448,77.0971 44.5,79.5C 45.5,79.5 46.5,79.5 47.5,79.5C 48.1963,74.8159 50.1963,70.8159 53.5,67.5C 56.1182,66.0553 58.6182,64.3887 61,62.5C 61.6924,63.0253 62.1924,63.6919 62.5,64.5C 61.8108,66.444 61.3108,68.444 61,70.5C 58.1735,74.1554 56.0068,78.1554 54.5,82.5 Z"/></g>
<g><path style="opacity:0.965" fill="#5e4b43" d="M 33.5,99.5 C 33.5,101.833 33.5,104.167 33.5,106.5C 33.5,106.833 33.5,107.167 33.5,107.5C 31.7933,117.279 31.1266,127.279 31.5,137.5C 30.3448,130.345 30.1782,123.012 31,115.5C 31.0673,109.902 31.9006,104.569 33.5,99.5 Z"/></g>
<g><path style="opacity:1" fill="#9e8277" d="M 133.5,33.5 C 134.167,36.8333 134.833,40.1667 135.5,43.5C 135.5,51.8333 135.5,60.1667 135.5,68.5C 135.5,81.8333 135.5,95.1667 135.5,108.5C 135.5,117.167 135.5,125.833 135.5,134.5C 135.167,134.5 134.833,134.5 134.5,134.5C 134.287,127.826 133.954,121.159 133.5,114.5C 133.5,87.5 133.5,60.5 133.5,33.5 Z"/></g>
<g><path style="opacity:1" fill="#ca9b8a" d="M 156.5,134.5 C 157.157,150.616 158.157,166.616 159.5,182.5C 159.5,184.167 159.5,185.833 159.5,187.5C 159.5,196.5 159.5,205.5 159.5,214.5C 158.508,214.672 157.842,214.338 157.5,213.5C 157.827,203.652 157.494,193.986 156.5,184.5C 156.5,178.833 156.5,173.167 156.5,167.5C 156.554,157.474 156.054,147.474 155,137.5C 151.737,133.742 147.57,132.742 142.5,134.5C 142.392,139.71 141.725,144.71 140.5,149.5C 140.5,144.167 140.5,138.833 140.5,133.5C 140.5,132.833 140.5,132.167 140.5,131.5C 141.665,126.367 142.332,121.034 142.5,115.5C 146.721,114.808 150.387,115.808 153.5,118.5C 155.003,123.84 156.003,129.173 156.5,134.5 Z"/></g>
<g><path style="opacity:1" fill="#e5cfc7" d="M 163.5,50.5 C 163.5,83.8333 163.5,117.167 163.5,150.5C 162.596,151.209 162.263,152.209 162.5,153.5C 162.167,153.5 161.833,153.5 161.5,153.5C 161.625,135.495 161.958,117.495 162.5,99.5C 162.5,89.1667 162.5,78.8333 162.5,68.5C 162.177,62.31 162.51,56.31 163.5,50.5 Z"/></g>
<g><path style="opacity:1" fill="#e8cbc0" d="M 54.5,83.5 C 52.1191,91.4056 49.9524,99.4056 48,107.5C 47.3333,110.833 47.3333,114.167 48,117.5C 49.4748,114.878 50.6414,112.212 51.5,109.5C 51.5,112.167 51.5,114.833 51.5,117.5C 51.5,124.833 51.5,132.167 51.5,139.5C 51.421,143.202 51.7543,146.868 52.5,150.5C 52.6399,152.03 53.3065,153.03 54.5,153.5C 54.5,154.167 54.5,154.833 54.5,155.5C 55.2186,157.764 55.552,160.097 55.5,162.5C 55.6633,164.857 55.4966,167.19 55,169.5C 52.8703,166.233 51.037,162.9 49.5,159.5C 49.5,159.167 49.5,158.833 49.5,158.5C 43.9255,134.055 44.5922,109.721 51.5,85.5C 52.2223,84.4489 53.2223,83.7822 54.5,83.5 Z"/></g>
<g><path style="opacity:1" fill="#dca895" d="M 136.5,120.5 C 137.327,125.651 137.827,130.984 138,136.5C 138.333,137.5 138.667,138.5 139,139.5C 139.191,137.292 139.691,135.292 140.5,133.5C 140.5,138.833 140.5,144.167 140.5,149.5C 139.691,151.292 139.191,153.292 139,155.5C 136.81,143.943 135.976,132.276 136.5,120.5 Z"/></g>
<g><path style="opacity:1" fill="#f7d9ce" d="M 157.5,90.5 C 158.934,99.2941 159.767,108.294 160,117.5C 160.976,111.38 161.809,105.38 162.5,99.5C 161.958,117.495 161.625,135.495 161.5,153.5C 161.543,157.893 161.043,158.226 160,154.5C 159.828,147.654 159.328,140.987 158.5,134.5C 158.5,133.5 158.5,132.5 158.5,131.5C 158.487,117.824 158.154,104.157 157.5,90.5 Z"/></g>
<g><path style="opacity:1" fill="#c29280" d="M 174.5,88.5 C 175.487,93.3054 175.821,98.3054 175.5,103.5C 175.802,117.168 176.135,130.834 176.5,144.5C 176.335,147.85 176.502,151.183 177,154.5C 179.389,147.058 181.056,139.391 182,131.5C 185.333,130.167 188.667,130.167 192,131.5C 194.535,147.049 195.701,162.716 195.5,178.5C 194.672,172.347 194.172,166.013 194,159.5C 193.699,156.026 192.866,152.692 191.5,149.5C 188.894,148.348 186.227,148.182 183.5,149C 182.572,149.388 181.905,150.055 181.5,151C 179.701,163.791 178.201,176.624 177,189.5C 176.828,183.319 176.328,177.319 175.5,171.5C 175.322,146.164 174.988,120.831 174.5,95.5C 174.5,93.1667 174.5,90.8333 174.5,88.5 Z"/></g>
<g><path style="opacity:1" fill="#c29180" d="M 116.5,164.5 C 115.619,159.331 114.952,153.998 114.5,148.5C 110.833,148.5 107.167,148.5 103.5,148.5C 102.629,162.823 101.962,177.156 101.5,191.5C 101.5,193.5 101.5,195.5 101.5,197.5C 100.778,197.918 100.278,198.584 100,199.5C 98.3359,183.885 97.5026,168.219 97.5,152.5C 98.2834,159.025 99.1167,165.692 100,172.5C 100.333,171.833 100.667,171.167 101,170.5C 102.033,154.507 102.866,138.507 103.5,122.5C 106.85,122.335 110.183,122.502 113.5,123C 114.191,124.067 114.691,125.234 115,126.5C 116.398,139.114 116.898,151.781 116.5,164.5 Z"/></g>
<g><path style="opacity:1" fill="#8a7d78" d="M 51.5,139.5 C 53.4189,143.857 54.4189,148.524 54.5,153.5C 53.3065,153.03 52.6399,152.03 52.5,150.5C 51.7543,146.868 51.421,143.202 51.5,139.5 Z"/></g>
<g><path style="opacity:1" fill="#c2907e" d="M 135.5,108.5 C 136.483,112.298 136.817,116.298 136.5,120.5C 135.976,132.276 136.81,143.943 139,155.5C 139.191,153.292 139.691,151.292 140.5,149.5C 141.725,144.71 142.392,139.71 142.5,134.5C 147.57,132.742 151.737,133.742 155,137.5C 156.054,147.474 156.554,157.474 156.5,167.5C 155.676,163.688 155.176,159.688 155,155.5C 152.655,150.065 148.489,148.065 142.5,149.5C 141.879,161.53 140.879,173.53 139.5,185.5C 138.027,180.839 137.027,176.172 136.5,171.5C 136.825,164.313 136.491,157.313 135.5,150.5C 135.5,145.167 135.5,139.833 135.5,134.5C 135.5,125.833 135.5,117.167 135.5,108.5 Z"/></g>
<g><path style="opacity:1" fill="#f3d4c9" d="M 254.5,91.5 C 255.629,92.4695 256.629,93.6362 257.5,95C 258.753,99.2949 260.253,103.462 262,107.5C 262.497,105.19 262.663,102.857 262.5,100.5C 263.309,102.292 263.809,104.292 264,106.5C 264.666,123.178 264.5,139.845 263.5,156.5C 261.437,157.711 260.437,156.877 260.5,154C 260.917,151.502 261.251,149.002 261.5,146.5C 261.667,135.162 261.5,123.828 261,112.5C 258.939,105.483 256.772,98.4826 254.5,91.5 Z"/></g>
<g><path style="opacity:1" fill="#c08f7d" d="M 257.5,156.5 C 256.372,160.804 255.372,165.138 254.5,169.5C 252.833,173.5 251.167,177.5 249.5,181.5C 251.85,173.366 253.183,165.033 253.5,156.5C 252.5,156.5 251.5,156.5 250.5,156.5C 247.587,164.993 243.587,172.993 238.5,180.5C 235.157,185.196 231.824,189.863 228.5,194.5C 226.433,195.766 224.767,197.433 223.5,199.5C 222.614,198.675 222.281,197.675 222.5,196.5C 223.11,195.609 223.443,194.609 223.5,193.5C 226.167,192.833 227.833,191.167 228.5,188.5C 230.768,186.104 232.768,183.438 234.5,180.5C 235.477,178.179 236.477,175.846 237.5,173.5C 237.557,172.391 237.89,171.391 238.5,170.5C 239.674,169.486 240.34,168.153 240.5,166.5C 241.117,166.389 241.617,166.056 242,165.5C 243.683,159.764 245.183,154.097 246.5,148.5C 246.18,151.898 246.513,155.232 247.5,158.5C 248.086,158.291 248.586,157.957 249,157.5C 250.963,151.065 251.963,144.399 252,137.5C 252.419,136.328 253.085,135.328 254,134.5C 254.044,128.327 254.711,122.327 256,116.5C 256.419,117.672 257.085,118.672 258,119.5C 258.677,131.85 258.51,144.183 257.5,156.5 Z"/></g>
<g><path style="opacity:0.996" fill="#6c5248" d="M 32.5,150.5 C 34.929,154.557 36.5957,158.891 37.5,163.5C 37.5,164.167 37.5,164.833 37.5,165.5C 36.2101,164.942 35.3768,163.942 35,162.5C 34.6683,158.305 33.835,154.305 32.5,150.5 Z"/></g>
<g><path style="opacity:1" fill="#9f796b" d="M 33.5,107.5 C 33.5,118.833 33.5,130.167 33.5,141.5C 33.903,146.302 34.903,150.969 36.5,155.5C 37.2653,158.096 37.5987,160.763 37.5,163.5C 36.5957,158.891 34.929,154.557 32.5,150.5C 31.5151,146.366 31.1818,142.032 31.5,137.5C 31.1266,127.279 31.7933,117.279 33.5,107.5 Z"/></g>
<g><path style="opacity:1" fill="#e4cac0" d="M 215.5,51.5 C 212.943,50.8122 210.609,49.6455 208.5,48C 206.934,47.235 205.601,47.4017 204.5,48.5C 203.709,75.6711 203.042,103.004 202.5,130.5C 201.504,144.323 201.171,158.323 201.5,172.5C 200.735,179.36 199.902,186.36 199,193.5C 198.661,181.644 197.827,169.977 196.5,158.5C 196.5,153.167 196.5,147.833 196.5,142.5C 196.5,134.833 196.5,127.167 196.5,119.5C 196.5,112.833 196.5,106.167 196.5,99.5C 197.167,102.5 197.833,105.5 198.5,108.5C 198.5,108.833 198.5,109.167 198.5,109.5C 198.334,116.175 198.5,122.842 199,129.5C 199.92,126.899 200.587,124.232 201,121.5C 201.5,108.171 201.667,94.8375 201.5,81.5C 201.5,70.5 201.5,59.5 201.5,48.5C 201.611,47.8826 201.944,47.3826 202.5,47C 208.21,45.241 212.544,46.741 215.5,51.5 Z"/></g>
<g><path style="opacity:1" fill="#b68472" d="M 116.5,164.5 C 118.294,189.461 119.294,214.461 119.5,239.5C 118.227,216.214 116.561,192.881 114.5,169.5C 110.833,169.5 107.167,169.5 103.5,169.5C 103.204,177.014 102.538,184.347 101.5,191.5C 101.962,177.156 102.629,162.823 103.5,148.5C 107.167,148.5 110.833,148.5 114.5,148.5C 114.952,153.998 115.619,159.331 116.5,164.5 Z"/></g>
<g><path style="opacity:1" fill="#b3816e" d="M 195.5,178.5 C 195.263,179.791 195.596,180.791 196.5,181.5C 196.5,181.833 196.5,182.167 196.5,182.5C 196.5,193.833 196.5,205.167 196.5,216.5C 195.004,210.395 194.337,204.062 194.5,197.5C 195.15,190.161 194.15,183.161 191.5,176.5C 187.993,175.994 184.826,176.66 182,178.5C 179.022,187.165 177.355,196.165 177,205.5C 176.814,202.964 176.314,200.631 175.5,198.5C 175.5,189.5 175.5,180.5 175.5,171.5C 176.328,177.319 176.828,183.319 177,189.5C 178.201,176.624 179.701,163.791 181.5,151C 181.905,150.055 182.572,149.388 183.5,149C 186.227,148.182 188.894,148.348 191.5,149.5C 192.866,152.692 193.699,156.026 194,159.5C 194.172,166.013 194.672,172.347 195.5,178.5 Z"/></g>
<g><path style="opacity:1" fill="#7a5d51" d="M 246.5,143.5 C 246.5,145.167 246.5,146.833 246.5,148.5C 245.183,154.097 243.683,159.764 242,165.5C 241.617,166.056 241.117,166.389 240.5,166.5C 240.5,165.833 240.5,165.167 240.5,164.5C 242.47,159.484 243.637,154.151 244,148.5C 244.985,146.825 245.819,145.158 246.5,143.5 Z"/></g>
<g><path style="opacity:0.986" fill="#81746f" d="M 54.5,155.5 C 55.1174,155.611 55.6174,155.944 56,156.5C 56.4955,158.473 56.6621,160.473 56.5,162.5C 56.1667,162.5 55.8333,162.5 55.5,162.5C 55.552,160.097 55.2186,157.764 54.5,155.5 Z"/></g>
<g><path style="opacity:1" fill="#dfbfb4" d="M 261.5,146.5 C 261.251,149.002 260.917,151.502 260.5,154C 260.437,156.877 261.437,157.711 263.5,156.5C 263.108,160.342 262.108,164.009 260.5,167.5C 258.138,169.919 257.138,172.919 257.5,176.5C 256.596,177.209 256.263,178.209 256.5,179.5C 256.167,179.5 255.833,179.5 255.5,179.5C 253.827,180.343 252.66,181.676 252,183.5C 251.833,183 251.667,182.5 251.5,182C 253.551,178.072 254.551,173.905 254.5,169.5C 255.372,165.138 256.372,160.804 257.5,156.5C 258.371,153.997 259.037,151.33 259.5,148.5C 260.167,147.833 260.833,147.167 261.5,146.5 Z"/></g>
<g><path style="opacity:0.918" fill="#352823" d="M 132.5,114.5 C 132.833,114.5 133.167,114.5 133.5,114.5C 133.954,121.159 134.287,127.826 134.5,134.5C 134.5,158.5 134.5,182.5 134.5,206.5C 133.343,214.656 133.177,222.99 134,231.5C 135.011,232.337 136.178,232.67 137.5,232.5C 136.116,233.801 134.616,233.801 133,232.5C 133.684,193.165 133.517,153.831 132.5,114.5 Z"/></g>
<g><path style="opacity:1" fill="#b68270" d="M 156.5,167.5 C 156.5,173.167 156.5,178.833 156.5,184.5C 155.677,181.023 155.177,177.356 155,173.5C 154.167,172.667 153.333,171.833 152.5,171C 149.183,170.502 145.85,170.335 142.5,170.5C 141.171,181.121 140.505,191.788 140.5,202.5C 139.778,202.918 139.278,203.584 139,204.5C 138.667,203.833 138.333,203.167 138,202.5C 136.774,192.203 136.274,181.87 136.5,171.5C 137.027,176.172 138.027,180.839 139.5,185.5C 140.879,173.53 141.879,161.53 142.5,149.5C 148.489,148.065 152.655,150.065 155,155.5C 155.176,159.688 155.676,163.688 156.5,167.5 Z"/></g>
<g><path style="opacity:1" fill="#9a7669" d="M 173.5,95.5 C 173.833,95.5 174.167,95.5 174.5,95.5C 174.988,120.831 175.322,146.164 175.5,171.5C 175.5,180.5 175.5,189.5 175.5,198.5C 175.5,201.5 175.5,204.5 175.5,207.5C 174.833,184.833 174.167,162.167 173.5,139.5C 173.5,124.833 173.5,110.167 173.5,95.5 Z"/></g>
<g><path style="opacity:1" fill="#c4917f" d="M 43.5,135.5 C 43.5448,143.849 45.5448,151.516 49.5,158.5C 49.5,158.833 49.5,159.167 49.5,159.5C 49.5,160.5 49.5,161.5 49.5,162.5C 45.3906,156.58 43.224,149.913 43,142.5C 42.586,142.043 42.086,141.709 41.5,141.5C 40.3377,146.467 40.1711,151.467 41,156.5C 43.5482,164.785 46.3815,172.952 49.5,181C 48.8235,182.683 47.8235,182.85 46.5,181.5C 43.4935,176.122 40.4935,170.788 37.5,165.5C 37.5,164.833 37.5,164.167 37.5,163.5C 37.5987,160.763 37.2653,158.096 36.5,155.5C 37.4959,155.586 38.3292,155.252 39,154.5C 39.1667,153.167 39.3333,151.833 39.5,150.5C 37.1854,143.21 37.0188,135.877 39,128.5C 40.6413,130.84 42.1413,133.173 43.5,135.5 Z"/></g>
<g><path style="opacity:0.961" fill="#5e5550" d="M 56.5,162.5 C 57.9063,162.973 58.573,163.973 58.5,165.5C 57.8333,165.167 57.1667,164.833 56.5,164.5C 56.5,163.833 56.5,163.167 56.5,162.5 Z"/></g>
<g><path style="opacity:1" fill="#b58370" d="M 49.5,162.5 C 50.6056,165.054 51.439,167.721 52,170.5C 55.8172,175.457 58.9838,180.791 61.5,186.5C 58.6034,182.937 55.2701,179.603 51.5,176.5C 50.359,178.421 50.1923,180.421 51,182.5C 53.2012,184.274 54.3678,186.607 54.5,189.5C 54.6309,190.376 54.2975,191.043 53.5,191.5C 52.5832,190.873 51.5832,190.539 50.5,190.5C 49.9127,187.12 48.5794,184.12 46.5,181.5C 47.8235,182.85 48.8235,182.683 49.5,181C 46.3815,172.952 43.5482,164.785 41,156.5C 40.1711,151.467 40.3377,146.467 41.5,141.5C 42.086,141.709 42.586,142.043 43,142.5C 43.224,149.913 45.3906,156.58 49.5,162.5 Z"/></g>
<g><path style="opacity:0.992" fill="#887a74" d="M 56.5,164.5 C 57.1667,164.833 57.8333,165.167 58.5,165.5C 59.4345,166.568 59.7678,167.901 59.5,169.5C 58.1103,168.101 57.1103,166.434 56.5,164.5 Z"/></g>
<g><path style="opacity:0.961" fill="#543f37" d="M 240.5,164.5 C 240.5,165.167 240.5,165.833 240.5,166.5C 240.34,168.153 239.674,169.486 238.5,170.5C 238.054,167.99 238.72,165.99 240.5,164.5 Z"/></g>
<g><path style="opacity:1" fill="#b6826f" d="M 249.5,181.5 C 246.963,184.694 246.13,188.361 247,192.5C 247.383,191.944 247.883,191.611 248.5,191.5C 248.5,192.167 248.5,192.833 248.5,193.5C 247.662,193.842 247.328,194.508 247.5,195.5C 245.427,196.3 243.76,197.633 242.5,199.5C 241.47,193.428 242.804,187.762 246.5,182.5C 247.894,179.349 247.727,176.349 246,173.5C 245.25,174.126 244.416,174.626 243.5,175C 242.167,177.191 240.5,179.024 238.5,180.5C 243.587,172.993 247.587,164.993 250.5,156.5C 251.5,156.5 252.5,156.5 253.5,156.5C 253.183,165.033 251.85,173.366 249.5,181.5 Z"/></g>
<g><path style="opacity:0.937" fill="#574e4a" d="M 263.5,156.5 C 263.833,156.5 264.167,156.5 264.5,156.5C 264.208,162.206 262.875,167.54 260.5,172.5C 260.5,170.833 260.5,169.167 260.5,167.5C 262.108,164.009 263.108,160.342 263.5,156.5 Z"/></g>
<g><path style="opacity:1" fill="#e5c8be" d="M 123.5,100.5 C 123.5,103.167 123.5,105.833 123.5,108.5C 123.671,142.843 123.171,177.176 122,211.5C 121.79,209.942 121.29,208.609 120.5,207.5C 120.5,204.5 120.5,201.5 120.5,198.5C 120.59,171.146 119.924,143.812 118.5,116.5C 119.35,125.012 120.183,133.679 121,142.5C 122.033,128.362 122.866,114.362 123.5,100.5 Z"/></g>
<g><path style="opacity:0.996" fill="#9d8b84" d="M 260.5,167.5 C 260.5,169.167 260.5,170.833 260.5,172.5C 259.662,172.842 259.328,173.508 259.5,174.5C 258.833,175.167 258.167,175.833 257.5,176.5C 257.138,172.919 258.138,169.919 260.5,167.5 Z"/></g>
<g><path style="opacity:0.863" fill="#221e1c" d="M 165.5,33.5 C 168.365,33.0548 170.865,33.7215 173,35.5C 173.5,55.4972 173.667,75.4972 173.5,95.5C 173.5,110.167 173.5,124.833 173.5,139.5C 173.5,162.167 173.5,184.833 173.5,207.5C 173.167,207.5 172.833,207.5 172.5,207.5C 172.821,150.137 172.488,92.8039 171.5,35.5C 169.833,35.5 168.167,35.5 166.5,35.5C 166.832,95.3357 166.499,155.002 165.5,214.5C 165.5,154.167 165.5,93.8333 165.5,33.5 Z"/></g>
<g><path style="opacity:0.996" fill="#90817b" d="M 60.5,171.5 C 62.2132,172.635 62.8799,174.302 62.5,176.5C 60.7868,175.365 60.1201,173.698 60.5,171.5 Z"/></g>
<g><path style="opacity:0.969" fill="#3e2d27" d="M 38.5,172.5 C 41.1383,174.839 42.4716,177.839 42.5,181.5C 41.7924,179.622 40.6257,177.955 39,176.5C 38.51,175.207 38.3433,173.873 38.5,172.5 Z"/></g>
<g><path style="opacity:0.937" fill="#59433a" d="M 237.5,173.5 C 236.477,175.846 235.477,178.179 234.5,180.5C 233.833,180.833 233.167,181.167 232.5,181.5C 232.712,177.792 234.378,175.126 237.5,173.5 Z"/></g>
<g><path style="opacity:0.902" fill="#4c4441" d="M 259.5,174.5 C 259.727,176.933 258.727,178.599 256.5,179.5C 256.263,178.209 256.596,177.209 257.5,176.5C 258.167,175.833 258.833,175.167 259.5,174.5 Z"/></g>
<g><path style="opacity:0.996" fill="#7e706b" d="M 63.5,176.5 C 64.7928,178.808 66.1261,181.142 67.5,183.5C 64.4823,182.145 63.149,179.812 63.5,176.5 Z"/></g>
<g><path style="opacity:1" fill="#aa7664" d="M 156.5,184.5 C 157.494,193.986 157.827,203.652 157.5,213.5C 156.79,205.277 155.79,196.943 154.5,188.5C 150.783,186.656 146.783,185.989 142.5,186.5C 142.332,192.034 141.665,197.367 140.5,202.5C 140.505,191.788 141.171,181.121 142.5,170.5C 145.85,170.335 149.183,170.502 152.5,171C 153.333,171.833 154.167,172.667 155,173.5C 155.177,177.356 155.677,181.023 156.5,184.5 Z"/></g>
<g><path style="opacity:1" fill="#8c6354" d="M 37.5,165.5 C 40.4935,170.788 43.4935,176.122 46.5,181.5C 48.5794,184.12 49.9127,187.12 50.5,190.5C 50.5,191.167 50.5,191.833 50.5,192.5C 50.1667,192.5 49.8333,192.5 49.5,192.5C 49.1667,191.5 48.5,190.833 47.5,190.5C 46.9512,188.099 46.1178,185.765 45,183.5C 44.2917,182.619 43.4584,181.953 42.5,181.5C 42.4716,177.839 41.1383,174.839 38.5,172.5C 37.7814,170.236 37.448,167.903 37.5,165.5 Z"/></g>
<g><path style="opacity:0.91" fill="#49413f" d="M 255.5,179.5 C 255.833,179.5 256.167,179.5 256.5,179.5C 256.88,181.698 256.213,183.365 254.5,184.5C 255.038,182.883 255.371,181.216 255.5,179.5 Z"/></g>
<g><path style="opacity:0.898" fill="#342620" d="M 42.5,181.5 C 43.4584,181.953 44.2917,182.619 45,183.5C 46.1178,185.765 46.9512,188.099 47.5,190.5C 45.0764,187.992 43.4097,184.992 42.5,181.5 Z"/></g>
<g><path style="opacity:1" fill="#e3c3b9" d="M 158.5,134.5 C 159.328,140.987 159.828,147.654 160,154.5C 161.043,158.226 161.543,157.893 161.5,153.5C 161.833,153.5 162.167,153.5 162.5,153.5C 162.869,167.874 162.369,182.207 161,196.5C 160.819,193.305 160.319,190.305 159.5,187.5C 159.5,185.833 159.5,184.167 159.5,182.5C 159.315,166.496 158.981,150.496 158.5,134.5 Z"/></g>
<g><path style="opacity:1" fill="#8d6a5d" d="M 234.5,180.5 C 232.768,183.438 230.768,186.104 228.5,188.5C 228.833,187.833 229.167,187.167 229.5,186.5C 229.273,184.067 230.273,182.401 232.5,181.5C 233.167,181.167 233.833,180.833 234.5,180.5 Z"/></g>
<g><path style="opacity:1" fill="#cea799" d="M 254.5,169.5 C 254.551,173.905 253.551,178.072 251.5,182C 251.667,182.5 251.833,183 252,183.5C 252.66,181.676 253.827,180.343 255.5,179.5C 255.371,181.216 255.038,182.883 254.5,184.5C 252.952,184.821 252.285,185.821 252.5,187.5C 250.736,188.326 249.402,189.659 248.5,191.5C 247.883,191.611 247.383,191.944 247,192.5C 246.13,188.361 246.963,184.694 249.5,181.5C 251.167,177.5 252.833,173.5 254.5,169.5 Z"/></g>
<g><path style="opacity:0.98" fill="#513d35" d="M 229.5,186.5 C 229.167,187.167 228.833,187.833 228.5,188.5C 227.167,189.5 225.833,190.5 224.5,191.5C 225.167,188.833 226.833,187.167 229.5,186.5 Z"/></g>
<g><path style="opacity:0.996" fill="#7c6e69" d="M 67.5,183.5 C 71.8502,187.541 75.5168,192.208 78.5,197.5C 78.5,198.167 78.5,198.833 78.5,199.5C 73.8368,194.836 70.1701,189.503 67.5,183.5 Z"/></g>
<g><path style="opacity:1" fill="#d0b5ab" d="M 163.5,150.5 C 163.5,171.5 163.5,192.5 163.5,213.5C 163.5,213.833 163.5,214.167 163.5,214.5C 162.167,214.5 160.833,214.5 159.5,214.5C 159.5,205.5 159.5,196.5 159.5,187.5C 160.319,190.305 160.819,193.305 161,196.5C 162.369,182.207 162.869,167.874 162.5,153.5C 162.263,152.209 162.596,151.209 163.5,150.5 Z"/></g>
<g><path style="opacity:0.851" fill="#2e2725" d="M 254.5,184.5 C 254.245,186.967 253.245,188.967 251.5,190.5C 251.557,189.391 251.89,188.391 252.5,187.5C 252.285,185.821 252.952,184.821 254.5,184.5 Z"/></g>
<g><path style="opacity:1" fill="#a6725e" d="M 119.5,239.5 C 119.172,250.346 119.506,261.013 120.5,271.5C 120.263,272.791 120.596,273.791 121.5,274.5C 121.5,274.833 121.5,275.167 121.5,275.5C 119.5,275.5 118.5,274.5 118.5,272.5C 118.667,256.642 118,240.975 116.5,225.5C 116.796,215.092 116.13,204.758 114.5,194.5C 110.785,194.577 107.119,194.244 103.5,193.5C 103.679,199.404 103.012,205.071 101.5,210.5C 101.5,206.167 101.5,201.833 101.5,197.5C 101.5,195.5 101.5,193.5 101.5,191.5C 102.538,184.347 103.204,177.014 103.5,169.5C 107.167,169.5 110.833,169.5 114.5,169.5C 116.561,192.881 118.227,216.214 119.5,239.5 Z"/></g>
<g><path style="opacity:1" fill="#a4705c" d="M 194.5,197.5 C 189.17,194.38 184.336,195.047 180,199.5C 178.726,207.11 177.726,214.776 177,222.5C 176.79,220.942 176.29,219.609 175.5,218.5C 175.5,214.833 175.5,211.167 175.5,207.5C 175.5,204.5 175.5,201.5 175.5,198.5C 176.314,200.631 176.814,202.964 177,205.5C 177.355,196.165 179.022,187.165 182,178.5C 184.826,176.66 187.993,175.994 191.5,176.5C 194.15,183.161 195.15,190.161 194.5,197.5 Z"/></g>
<g><path style="opacity:0.996" fill="#7a655e" d="M 252.5,187.5 C 251.89,188.391 251.557,189.391 251.5,190.5C 251.5,190.833 251.5,191.167 251.5,191.5C 250.222,191.782 249.222,192.449 248.5,193.5C 248.5,192.833 248.5,192.167 248.5,191.5C 249.402,189.659 250.736,188.326 252.5,187.5 Z"/></g>
<g><path style="opacity:0.996" fill="#89695d" d="M 228.5,188.5 C 227.833,191.167 226.167,192.833 223.5,193.5C 223.833,192.833 224.167,192.167 224.5,191.5C 225.833,190.5 227.167,189.5 228.5,188.5 Z"/></g>
<g><path style="opacity:1" fill="#a26d58" d="M 242.5,199.5 C 241.833,200.833 241.167,202.167 240.5,203.5C 237.614,206.015 234.78,206.015 232,203.5C 230.956,204.623 230.29,205.956 230,207.5C 229.089,204.367 227.256,203.367 224.5,204.5C 223.506,209.456 223.173,214.456 223.5,219.5C 223.443,220.609 223.11,221.609 222.5,222.5C 221.833,222.833 221.167,223.167 220.5,223.5C 218.535,216.24 217.868,208.573 218.5,200.5C 218.5,199.833 218.833,199.5 219.5,199.5C 219.169,206.863 219.503,214.197 220.5,221.5C 221.086,221.291 221.586,220.957 222,220.5C 222.5,213.842 222.666,207.175 222.5,200.5C 223.552,200.649 224.552,200.483 225.5,200C 226.527,198.134 227.527,196.3 228.5,194.5C 231.824,189.863 235.157,185.196 238.5,180.5C 240.5,179.024 242.167,177.191 243.5,175C 244.416,174.626 245.25,174.126 246,173.5C 247.727,176.349 247.894,179.349 246.5,182.5C 242.804,187.762 241.47,193.428 242.5,199.5 Z"/></g>
<g><path style="opacity:0.855" fill="#2e2521" d="M 251.5,191.5 C 249.768,194.438 247.768,197.104 245.5,199.5C 245.733,197.938 246.4,196.605 247.5,195.5C 247.328,194.508 247.662,193.842 248.5,193.5C 249.222,192.449 250.222,191.782 251.5,191.5 Z"/></g>
<g><path style="opacity:0.992" fill="#6d4e42" d="M 223.5,193.5 C 223.443,194.609 223.11,195.609 222.5,196.5C 221.1,197.1 220.1,198.1 219.5,199.5C 219.5,198.833 219.5,198.167 219.5,197.5C 220.326,195.736 221.659,194.402 223.5,193.5 Z"/></g>
<g><path style="opacity:1" fill="#b17f6d" d="M 228.5,194.5 C 227.527,196.3 226.527,198.134 225.5,200C 224.552,200.483 223.552,200.649 222.5,200.5C 222.666,207.175 222.5,213.842 222,220.5C 221.586,220.957 221.086,221.291 220.5,221.5C 219.503,214.197 219.169,206.863 219.5,199.5C 220.1,198.1 221.1,197.1 222.5,196.5C 222.281,197.675 222.614,198.675 223.5,199.5C 224.767,197.433 226.433,195.766 228.5,194.5 Z"/></g>
<g><path style="opacity:1" fill="#9c6752" d="M 157.5,213.5 C 157.842,214.338 158.508,214.672 159.5,214.5C 160.833,214.5 162.167,214.5 163.5,214.5C 162.167,216.5 160.5,218.167 158.5,219.5C 158.38,218.414 157.713,217.747 156.5,217.5C 153.855,218.108 151.188,218.608 148.5,219C 147.045,220.626 145.378,221.792 143.5,222.5C 142.5,222.5 141.5,222.5 140.5,222.5C 140.5,215.833 140.5,209.167 140.5,202.5C 141.665,197.367 142.332,192.034 142.5,186.5C 146.783,185.989 150.783,186.656 154.5,188.5C 155.79,196.943 156.79,205.277 157.5,213.5 Z"/></g>
<g><path style="opacity:0.961" fill="#694a3f" d="M 247.5,195.5 C 246.4,196.605 245.733,197.938 245.5,199.5C 243.896,200.287 243.229,201.62 243.5,203.5C 242.5,203.5 241.5,203.5 240.5,203.5C 241.167,202.167 241.833,200.833 242.5,199.5C 243.76,197.633 245.427,196.3 247.5,195.5 Z"/></g>
<g><path style="opacity:1" fill="#b4806d" d="M 96.5,128.5 C 97.4924,136.316 97.8257,144.316 97.5,152.5C 97.5026,168.219 98.3359,183.885 100,199.5C 100.278,198.584 100.778,197.918 101.5,197.5C 101.5,201.833 101.5,206.167 101.5,210.5C 101.5,215.5 101.5,220.5 101.5,225.5C 100.883,225.611 100.383,225.944 100,226.5C 99.0931,215.685 98.2597,205.018 97.5,194.5C 96.6637,172.511 96.3304,150.511 96.5,128.5 Z"/></g>
<g><path style="opacity:1" fill="#a26c58" d="M 61.5,186.5 C 61.3433,187.873 61.51,189.207 62,190.5C 65.1707,193.668 68.1707,197.001 71,200.5C 71.6667,202.833 71.6667,205.167 71,207.5C 66.8235,202.805 62.3235,198.805 57.5,195.5C 57.539,192.911 56.539,190.911 54.5,189.5C 54.3678,186.607 53.2012,184.274 51,182.5C 50.1923,180.421 50.359,178.421 51.5,176.5C 55.2701,179.603 58.6034,182.937 61.5,186.5 Z"/></g>
<g><path style="opacity:0.956" fill="#6f5b54" d="M 79.5,200.5 C 80.6557,207.989 80.8223,215.655 80,223.5C 79.0138,224.171 77.8471,224.171 76.5,223.5C 76.1667,222.833 75.8333,222.167 75.5,221.5C 76.5832,221.539 77.5832,221.873 78.5,222.5C 79.3857,221.675 79.719,220.675 79.5,219.5C 79.5,213.167 79.5,206.833 79.5,200.5 Z"/></g>
<g><path style="opacity:0.958" fill="#4a332a" d="M 94.5,147.5 C 94.8333,147.5 95.1667,147.5 95.5,147.5C 95.7358,172.835 96.0691,198.168 96.5,223.5C 96.1667,223.5 95.8333,223.5 95.5,223.5C 95.8271,213.652 95.4938,203.986 94.5,194.5C 94.5,178.833 94.5,163.167 94.5,147.5 Z"/></g>
<g><path style="opacity:1" fill="#d4b5aa" d="M 49.5,159.5 C 51.037,162.9 52.8703,166.233 55,169.5C 55.4966,167.19 55.6633,164.857 55.5,162.5C 55.8333,162.5 56.1667,162.5 56.5,162.5C 56.5,163.167 56.5,163.833 56.5,164.5C 57.1103,166.434 58.1103,168.101 59.5,169.5C 60.3382,169.842 60.6716,170.508 60.5,171.5C 60.1201,173.698 60.7868,175.365 62.5,176.5C 62.8333,176.5 63.1667,176.5 63.5,176.5C 63.149,179.812 64.4823,182.145 67.5,183.5C 70.1701,189.503 73.8368,194.836 78.5,199.5C 79.1667,199.5 79.5,199.833 79.5,200.5C 79.5,206.833 79.5,213.167 79.5,219.5C 77.8639,218.251 76.6972,216.584 76,214.5C 75.8253,210.789 75.3253,207.122 74.5,203.5C 70.6992,197.452 66.3659,191.785 61.5,186.5C 58.9838,180.791 55.8172,175.457 52,170.5C 51.439,167.721 50.6056,165.054 49.5,162.5C 49.5,161.5 49.5,160.5 49.5,159.5 Z"/></g>
<g><path style="opacity:1" fill="#935e49" d="M 240.5,203.5 C 240.532,205.619 239.532,206.952 237.5,207.5C 234.61,209.144 232.277,211.477 230.5,214.5C 229.311,215.429 227.978,215.762 226.5,215.5C 226.532,217.619 225.532,218.952 223.5,219.5C 223.173,214.456 223.506,209.456 224.5,204.5C 227.256,203.367 229.089,204.367 230,207.5C 230.29,205.956 230.956,204.623 232,203.5C 234.78,206.015 237.614,206.015 240.5,203.5 Z"/></g>
<g><path style="opacity:1" fill="#825a4a" d="M 134.5,134.5 C 134.833,134.5 135.167,134.5 135.5,134.5C 135.5,139.833 135.5,145.167 135.5,150.5C 135.144,177.02 135.811,203.353 137.5,229.5C 138.5,229.5 139.5,229.5 140.5,229.5C 140.5,229.833 140.5,230.167 140.5,230.5C 139.209,230.263 138.209,230.596 137.5,231.5C 135.836,230.051 135.002,228.051 135,225.5C 134.5,219.175 134.334,212.842 134.5,206.5C 134.5,182.5 134.5,158.5 134.5,134.5 Z"/></g>
<g><path style="opacity:0.969" fill="#3f2c24" d="M 57.5,203.5 C 60.2848,205.711 62.6181,208.377 64.5,211.5C 61.9369,210.408 59.7703,208.742 58,206.5C 57.5172,205.552 57.3505,204.552 57.5,203.5 Z"/></g>
<g><path style="opacity:1" fill="#99634e" d="M 194.5,197.5 C 194.337,204.062 195.004,210.395 196.5,216.5C 196.5,219.833 196.5,223.167 196.5,226.5C 196.333,245.17 196.5,263.836 197,282.5C 197.708,283.381 198.542,284.047 199.5,284.5C 199.5,286.5 200.5,287.5 202.5,287.5C 202.5,288.167 202.5,288.833 202.5,289.5C 201.448,289.649 200.448,289.483 199.5,289C 198.704,286.398 197.371,284.232 195.5,282.5C 195.481,264.16 195.148,245.826 194.5,227.5C 194.937,222.639 194.437,217.972 193,213.5C 189.325,213.419 185.492,213.919 181.5,215C 180.667,215.833 179.833,216.667 179,217.5C 178.753,226.203 178.086,234.87 177,243.5C 176.814,240.964 176.314,238.631 175.5,236.5C 175.5,235.167 175.5,233.833 175.5,232.5C 175.5,227.833 175.5,223.167 175.5,218.5C 176.29,219.609 176.79,220.942 177,222.5C 177.726,214.776 178.726,207.11 180,199.5C 184.336,195.047 189.17,194.38 194.5,197.5 Z"/></g>
<g><path style="opacity:0.996" fill="#644439" d="M 218.5,200.5 C 217.868,208.573 218.535,216.24 220.5,223.5C 220.5,223.833 220.5,224.167 220.5,224.5C 219.5,224.5 218.5,224.5 217.5,224.5C 217.174,216.316 217.508,208.316 218.5,200.5 Z"/></g>
<g><path style="opacity:1" fill="#ab735e" d="M 135.5,150.5 C 136.491,157.313 136.825,164.313 136.5,171.5C 136.274,181.87 136.774,192.203 138,202.5C 138.333,203.167 138.667,203.833 139,204.5C 139.278,203.584 139.778,202.918 140.5,202.5C 140.5,209.167 140.5,215.833 140.5,222.5C 141.5,222.5 142.5,222.5 143.5,222.5C 141.735,223.461 139.735,223.795 137.5,223.5C 137.5,225.5 137.5,227.5 137.5,229.5C 135.811,203.353 135.144,177.02 135.5,150.5 Z"/></g>
<g><path style="opacity:0.996" fill="#724b3c" d="M 49.5,192.5 C 49.8333,192.5 50.1667,192.5 50.5,192.5C 56.8697,199.862 63.703,206.862 71,213.5C 72.7774,216.059 74.2774,218.726 75.5,221.5C 74.5,220.833 73.5,220.167 72.5,219.5C 70.615,217.947 69.615,215.947 69.5,213.5C 67.8007,213.473 66.4674,212.806 65.5,211.5C 65.1667,211.5 64.8333,211.5 64.5,211.5C 62.6181,208.377 60.2848,205.711 57.5,203.5C 56.1667,202.067 54.6667,200.733 53,199.5C 51.8703,197.067 50.7036,194.734 49.5,192.5 Z"/></g>
<g><path style="opacity:0.855" fill="#382e2b" d="M 78.5,197.5 C 79.4584,197.953 80.2917,198.619 81,199.5C 81.6667,207.833 81.6667,216.167 81,224.5C 79.0849,225.916 77.5849,225.582 76.5,223.5C 77.8471,224.171 79.0138,224.171 80,223.5C 80.8223,215.655 80.6557,207.989 79.5,200.5C 79.5,199.833 79.1667,199.5 78.5,199.5C 78.5,198.833 78.5,198.167 78.5,197.5 Z"/></g>
<g><path style="opacity:1" fill="#b17a66" d="M 61.5,186.5 C 66.3659,191.785 70.6992,197.452 74.5,203.5C 75.3253,207.122 75.8253,210.789 76,214.5C 76.6972,216.584 77.8639,218.251 79.5,219.5C 79.719,220.675 79.3857,221.675 78.5,222.5C 77.5832,221.873 76.5832,221.539 75.5,221.5C 74.2774,218.726 72.7774,216.059 71,213.5C 63.703,206.862 56.8697,199.862 50.5,192.5C 50.5,191.833 50.5,191.167 50.5,190.5C 51.5832,190.539 52.5832,190.873 53.5,191.5C 54.2975,191.043 54.6309,190.376 54.5,189.5C 56.539,190.911 57.539,192.911 57.5,195.5C 62.3235,198.805 66.8235,202.805 71,207.5C 71.6667,205.167 71.6667,202.833 71,200.5C 68.1707,197.001 65.1707,193.668 62,190.5C 61.51,189.207 61.3433,187.873 61.5,186.5 Z"/></g>
<g><path style="opacity:0.961" fill="#50352a" d="M 237.5,207.5 C 234.043,214.115 229.043,219.115 222.5,222.5C 223.11,221.609 223.443,220.609 223.5,219.5C 225.532,218.952 226.532,217.619 226.5,215.5C 227.978,215.762 229.311,215.429 230.5,214.5C 232.277,211.477 234.61,209.144 237.5,207.5 Z"/></g>
<g><path style="opacity:1" fill="#a56d57" d="M 97.5,194.5 C 98.2597,205.018 99.0931,215.685 100,226.5C 100.383,225.944 100.883,225.611 101.5,225.5C 101.5,230.5 101.5,235.5 101.5,240.5C 101.5,246.167 101.5,251.833 101.5,257.5C 100.883,257.611 100.383,257.944 100,258.5C 99.0627,245.351 98.2293,232.351 97.5,219.5C 97.5,211.167 97.5,202.833 97.5,194.5 Z"/></g>
<g><path style="opacity:0.958" fill="#36251e" d="M 219.5,197.5 C 219.5,198.167 219.5,198.833 219.5,199.5C 218.833,199.5 218.5,199.833 218.5,200.5C 217.508,208.316 217.174,216.316 217.5,224.5C 218.5,224.5 219.5,224.5 220.5,224.5C 219.432,225.434 218.099,225.768 216.5,225.5C 216.334,216.827 216.5,208.16 217,199.5C 217.708,198.619 218.542,197.953 219.5,197.5 Z"/></g>
<g><path style="opacity:1" fill="#97614c" d="M 116.5,225.5 C 115.917,222.759 114.917,220.092 113.5,217.5C 110.285,217.82 106.952,217.82 103.5,217.5C 102.962,224.822 102.629,232.155 102.5,239.5C 102.5,240.167 102.167,240.5 101.5,240.5C 101.5,235.5 101.5,230.5 101.5,225.5C 101.5,220.5 101.5,215.5 101.5,210.5C 103.012,205.071 103.679,199.404 103.5,193.5C 107.119,194.244 110.785,194.577 114.5,194.5C 116.13,204.758 116.796,215.092 116.5,225.5 Z"/></g>
<g><path style="opacity:0.98" fill="#3f2b23" d="M 65.5,211.5 C 66.4674,212.806 67.8007,213.473 69.5,213.5C 69.615,215.947 70.615,217.947 72.5,219.5C 68.7264,218.062 66.3931,215.395 65.5,211.5 Z"/></g>
<g><path style="opacity:0.999" fill="#4e362b" d="M 134.5,206.5 C 134.334,212.842 134.5,219.175 135,225.5C 135.002,228.051 135.836,230.051 137.5,231.5C 137.5,231.833 137.5,232.167 137.5,232.5C 136.178,232.67 135.011,232.337 134,231.5C 133.177,222.99 133.343,214.656 134.5,206.5 Z"/></g>
<g><path style="opacity:0.957" fill="#63544e" d="M 165.5,33.5 C 165.5,93.8333 165.5,154.167 165.5,214.5C 162.945,218.725 159.279,221.392 154.5,222.5C 155.926,221.659 157.26,220.659 158.5,219.5C 160.5,218.167 162.167,216.5 163.5,214.5C 163.5,214.167 163.5,213.833 163.5,213.5C 164.167,153.5 164.833,93.5 165.5,33.5 Z"/></g>
<g><path style="opacity:1" fill="#825848" d="M 95.5,125.5 C 95.8333,125.5 96.1667,125.5 96.5,125.5C 96.5,126.5 96.5,127.5 96.5,128.5C 96.3304,150.511 96.6637,172.511 97.5,194.5C 97.5,202.833 97.5,211.167 97.5,219.5C 97.5,225.833 97.5,232.167 97.5,238.5C 97.1667,238.5 96.8333,238.5 96.5,238.5C 96.5,233.5 96.5,228.5 96.5,223.5C 96.0691,198.168 95.7358,172.835 95.5,147.5C 95.5,140.167 95.5,132.833 95.5,125.5 Z"/></g>
<g><path style="opacity:1" fill="#d2b4a9" d="M 196.5,158.5 C 197.827,169.977 198.661,181.644 199,193.5C 199.902,186.36 200.735,179.36 201.5,172.5C 201.472,197.172 201.139,221.838 200.5,246.5C 199.883,246.389 199.383,246.056 199,245.5C 198.667,228.5 198.333,211.5 198,194.5C 197.824,190.312 197.324,186.312 196.5,182.5C 196.5,182.167 196.5,181.833 196.5,181.5C 196.5,173.833 196.5,166.167 196.5,158.5 Z"/></g>
<g><path style="opacity:1" fill="#8f5740" d="M 116.5,225.5 C 118,240.975 118.667,256.642 118.5,272.5C 117.833,272.5 117.5,272.167 117.5,271.5C 117.765,258.111 117.098,244.778 115.5,231.5C 111.5,231.5 107.5,231.5 103.5,231.5C 103.806,234.385 103.473,237.052 102.5,239.5C 102.629,232.155 102.962,224.822 103.5,217.5C 106.952,217.82 110.285,217.82 113.5,217.5C 114.917,220.092 115.917,222.759 116.5,225.5 Z"/></g>
<g><path style="opacity:1" fill="#b99284" d="M 158.5,219.5 C 157.26,220.659 155.926,221.659 154.5,222.5C 154.167,222.5 153.833,222.5 153.5,222.5C 151.821,222.892 150.154,223.392 148.5,224C 145.751,225.745 143.084,227.578 140.5,229.5C 139.5,229.5 138.5,229.5 137.5,229.5C 137.5,227.5 137.5,225.5 137.5,223.5C 139.735,223.795 141.735,223.461 143.5,222.5C 145.378,221.792 147.045,220.626 148.5,219C 151.188,218.608 153.855,218.108 156.5,217.5C 157.713,217.747 158.38,218.414 158.5,219.5 Z"/></g>
<g><path style="opacity:0.937" fill="#4f433f" d="M 153.5,222.5 C 149.668,225.899 145.335,228.565 140.5,230.5C 140.5,230.167 140.5,229.833 140.5,229.5C 143.084,227.578 145.751,225.745 148.5,224C 150.154,223.392 151.821,222.892 153.5,222.5 Z"/></g>
<g><path style="opacity:1" fill="#925a43" d="M 194.5,227.5 C 193.778,227.918 193.278,228.584 193,229.5C 189.927,228.383 186.76,228.216 183.5,229C 182.333,229.5 181.5,230.333 181,231.5C 178.628,243.37 177.294,255.37 177,267.5C 176.826,262.316 176.326,257.316 175.5,252.5C 175.5,247.167 175.5,241.833 175.5,236.5C 176.314,238.631 176.814,240.964 177,243.5C 178.086,234.87 178.753,226.203 179,217.5C 179.833,216.667 180.667,215.833 181.5,215C 185.492,213.919 189.325,213.419 193,213.5C 194.437,217.972 194.937,222.639 194.5,227.5 Z"/></g>
<g><path style="opacity:0.997" fill="#735144" d="M 173.5,139.5 C 174.167,162.167 174.833,184.833 175.5,207.5C 175.5,211.167 175.5,214.833 175.5,218.5C 175.5,223.167 175.5,227.833 175.5,232.5C 175.167,232.5 174.833,232.5 174.5,232.5C 174.825,224.648 174.492,216.982 173.5,209.5C 173.5,208.833 173.5,208.167 173.5,207.5C 173.5,184.833 173.5,162.167 173.5,139.5 Z"/></g>
<g><path style="opacity:0.896" fill="#1c110c" d="M 172.5,207.5 C 172.833,207.5 173.167,207.5 173.5,207.5C 173.5,208.167 173.5,208.833 173.5,209.5C 173.178,231.575 173.511,253.575 174.5,275.5C 172.51,253.191 171.844,230.525 172.5,207.5 Z"/></g>
<g><path style="opacity:1" fill="#736661" d="M 125.5,36.5 C 125.833,115.668 125.499,194.668 124.5,273.5C 124.167,273.5 123.833,273.5 123.5,273.5C 123.873,218.5 124.206,163.5 124.5,108.5C 124.169,84.3275 124.502,60.3275 125.5,36.5 Z"/></g>
<g><path style="opacity:0.996" fill="#4c2b1d" d="M 173.5,209.5 C 174.492,216.982 174.825,224.648 174.5,232.5C 174.333,246.171 174.5,259.837 175,273.5C 175.785,275.286 176.951,276.786 178.5,278C 183.728,279.424 188.728,281.424 193.5,284C 195.439,285.432 196.772,287.265 197.5,289.5C 194.339,288.087 191.339,286.42 188.5,284.5C 187.341,282.75 185.674,281.75 183.5,281.5C 179.63,280.737 176.63,278.737 174.5,275.5C 173.511,253.575 173.178,231.575 173.5,209.5 Z"/></g>
<g><path style="opacity:1" fill="#83472e" d="M 117.5,271.5 C 116.695,265.311 115.862,258.977 115,252.5C 111.27,251.54 107.437,251.207 103.5,251.5C 103.168,261.19 103.502,270.856 104.5,280.5C 107.949,278.853 111.449,277.52 115,276.5C 117.008,276.307 118.508,276.974 119.5,278.5C 118.833,278.833 118.167,279.167 117.5,279.5C 117.209,278.351 116.376,277.684 115,277.5C 111.231,278.696 107.731,280.362 104.5,282.5C 103.5,282.5 102.5,282.5 101.5,282.5C 101.5,274.167 101.5,265.833 101.5,257.5C 101.5,251.833 101.5,246.167 101.5,240.5C 102.167,240.5 102.5,240.167 102.5,239.5C 103.473,237.052 103.806,234.385 103.5,231.5C 107.5,231.5 111.5,231.5 115.5,231.5C 117.098,244.778 117.765,258.111 117.5,271.5 Z"/></g>
<g><path style="opacity:0.949" fill="#301c14" d="M 94.5,194.5 C 95.4938,203.986 95.8271,213.652 95.5,223.5C 95.3334,243.836 95.5,264.169 96,284.5C 96.1922,286.577 96.6922,288.577 97.5,290.5C 98.1067,290.376 98.44,290.043 98.5,289.5C 99.5,289.5 100.5,289.5 101.5,289.5C 99.6171,292.551 97.4505,292.885 95,290.5C 94.5,258.502 94.3334,226.502 94.5,194.5 Z"/></g>
<g><path style="opacity:1" fill="#bea49a" d="M 123.5,108.5 C 123.833,108.5 124.167,108.5 124.5,108.5C 124.206,163.5 123.873,218.5 123.5,273.5C 123.158,274.338 122.492,274.672 121.5,274.5C 120.596,273.791 120.263,272.791 120.5,271.5C 120.5,250.167 120.5,228.833 120.5,207.5C 121.29,208.609 121.79,209.942 122,211.5C 123.171,177.176 123.671,142.843 123.5,108.5 Z"/></g>
<g><path style="opacity:0.969" fill="#645652" d="M 202.5,168.5 C 202.833,168.5 203.167,168.5 203.5,168.5C 203.5,209.833 203.5,251.167 203.5,292.5C 201.901,292.768 200.568,292.434 199.5,291.5C 201.179,291.715 202.179,291.048 202.5,289.5C 202.5,288.833 202.5,288.167 202.5,287.5C 202.5,272.167 202.5,256.833 202.5,241.5C 202.5,217.167 202.5,192.833 202.5,168.5 Z"/></g>
<g><path style="opacity:1" fill="#b79f96" d="M 202.5,130.5 C 202.5,143.167 202.5,155.833 202.5,168.5C 202.5,192.833 202.5,217.167 202.5,241.5C 202.161,256.029 201.161,270.362 199.5,284.5C 199.5,283.5 199.5,282.5 199.5,281.5C 200.495,270.012 200.828,258.345 200.5,246.5C 201.139,221.838 201.472,197.172 201.5,172.5C 201.171,158.323 201.504,144.323 202.5,130.5 Z"/></g>
<g><path style="opacity:1" fill="#945a43" d="M 97.5,219.5 C 98.2293,232.351 99.0627,245.351 100,258.5C 100.383,257.944 100.883,257.611 101.5,257.5C 101.5,265.833 101.5,274.167 101.5,282.5C 102.5,282.5 103.5,282.5 104.5,282.5C 103.082,284.308 101.082,284.975 98.5,284.5C 98.6234,269.153 98.2901,253.82 97.5,238.5C 97.5,232.167 97.5,225.833 97.5,219.5 Z"/></g>
<g><path style="opacity:1" fill="#7a3b1e" d="M 177.5,272.5 C 175.824,271.817 175.157,270.483 175.5,268.5C 176.397,269.598 177.23,269.598 178,268.5C 178.478,261.159 178.978,253.826 179.5,246.5C 184.43,246.197 189.263,246.531 194,247.5C 194.667,257.833 194.667,268.167 194,278.5C 188.836,276.819 184.003,274.486 179.5,271.5C 178.584,271.543 177.917,271.876 177.5,272.5 Z"/></g>
<g><path style="opacity:1" fill="#7e442b" d="M 96.5,238.5 C 96.8333,238.5 97.1667,238.5 97.5,238.5C 98.2901,253.82 98.6234,269.153 98.5,284.5C 98.5,286.167 98.5,287.833 98.5,289.5C 96.7313,272.702 96.0647,255.702 96.5,238.5 Z"/></g>
<g><path style="opacity:1" fill="#5a311e" d="M 95.5,223.5 C 95.8333,223.5 96.1667,223.5 96.5,223.5C 96.5,228.5 96.5,233.5 96.5,238.5C 96.0647,255.702 96.7313,272.702 98.5,289.5C 98.44,290.043 98.1067,290.376 97.5,290.5C 96.6922,288.577 96.1922,286.577 96,284.5C 95.5,264.169 95.3334,243.836 95.5,223.5 Z"/></g>
<g><path style="opacity:1" fill="#874c34" d="M 194.5,227.5 C 195.148,245.826 195.481,264.16 195.5,282.5C 189.538,280.049 183.538,277.715 177.5,275.5C 177.5,274.5 177.5,273.5 177.5,272.5C 177.917,271.876 178.584,271.543 179.5,271.5C 184.003,274.486 188.836,276.819 194,278.5C 194.667,268.167 194.667,257.833 194,247.5C 189.263,246.531 184.43,246.197 179.5,246.5C 178.978,253.826 178.478,261.159 178,268.5C 177.23,269.598 176.397,269.598 175.5,268.5C 175.5,263.167 175.5,257.833 175.5,252.5C 176.326,257.316 176.826,262.316 177,267.5C 177.294,255.37 178.628,243.37 181,231.5C 181.5,230.333 182.333,229.5 183.5,229C 186.76,228.216 189.927,228.383 193,229.5C 193.278,228.584 193.778,227.918 194.5,227.5 Z"/></g>
<g><path style="opacity:1" fill="#75381c" d="M 117.5,271.5 C 117.5,272.167 117.833,272.5 118.5,272.5C 118.5,274.5 119.5,275.5 121.5,275.5C 121.715,277.179 121.048,278.179 119.5,278.5C 118.508,276.974 117.008,276.307 115,276.5C 111.449,277.52 107.949,278.853 104.5,280.5C 103.502,270.856 103.168,261.19 103.5,251.5C 107.437,251.207 111.27,251.54 115,252.5C 115.862,258.977 116.695,265.311 117.5,271.5 Z"/></g>
<g><path style="opacity:1" fill="#c3a297" d="M 196.5,182.5 C 197.324,186.312 197.824,190.312 198,194.5C 198.333,211.5 198.667,228.5 199,245.5C 199.383,246.056 199.883,246.389 200.5,246.5C 200.828,258.345 200.495,270.012 199.5,281.5C 198.742,263.016 197.742,244.683 196.5,226.5C 196.5,223.167 196.5,219.833 196.5,216.5C 196.5,205.167 196.5,193.833 196.5,182.5 Z"/></g>
<g><path style="opacity:1" fill="#b68f81" d="M 196.5,226.5 C 197.742,244.683 198.742,263.016 199.5,281.5C 199.5,282.5 199.5,283.5 199.5,284.5C 198.542,284.047 197.708,283.381 197,282.5C 196.5,263.836 196.333,245.17 196.5,226.5 Z"/></g>
<g><path style="opacity:1" fill="#9b857d" d="M 202.5,241.5 C 202.5,256.833 202.5,272.167 202.5,287.5C 200.5,287.5 199.5,286.5 199.5,284.5C 201.161,270.362 202.161,256.029 202.5,241.5 Z"/></g>
<g><path style="opacity:0.757" fill="#2f211c" d="M 123.5,273.5 C 123.833,273.5 124.167,273.5 124.5,273.5C 123.997,278.371 121.331,281.038 116.5,281.5C 116.833,280.833 117.167,280.167 117.5,279.5C 118.167,279.167 118.833,278.833 119.5,278.5C 121.048,278.179 121.715,277.179 121.5,275.5C 121.5,275.167 121.5,274.833 121.5,274.5C 122.492,274.672 123.158,274.338 123.5,273.5 Z"/></g>
<g><path style="opacity:1" fill="#72412b" d="M 174.5,232.5 C 174.833,232.5 175.167,232.5 175.5,232.5C 175.5,233.833 175.5,235.167 175.5,236.5C 175.5,241.833 175.5,247.167 175.5,252.5C 175.5,257.833 175.5,263.167 175.5,268.5C 175.157,270.483 175.824,271.817 177.5,272.5C 177.5,273.5 177.5,274.5 177.5,275.5C 183.538,277.715 189.538,280.049 195.5,282.5C 197.371,284.232 198.704,286.398 199.5,289C 200.448,289.483 201.448,289.649 202.5,289.5C 202.179,291.048 201.179,291.715 199.5,291.5C 199.167,290.5 198.5,289.833 197.5,289.5C 196.772,287.265 195.439,285.432 193.5,284C 188.728,281.424 183.728,279.424 178.5,278C 176.951,276.786 175.785,275.286 175,273.5C 174.5,259.837 174.333,246.171 174.5,232.5 Z"/></g>
<g><path style="opacity:0.984" fill="#2c170e" d="M 183.5,281.5 C 185.674,281.75 187.341,282.75 188.5,284.5C 186.152,284.408 184.486,283.408 183.5,281.5 Z"/></g>
<g><path style="opacity:1" fill="#94756a" d="M 117.5,279.5 C 117.167,280.167 116.833,280.833 116.5,281.5C 115.127,281.343 113.793,281.51 112.5,282C 111.045,283.626 109.378,284.792 107.5,285.5C 105.636,287.014 103.636,288.347 101.5,289.5C 100.5,289.5 99.5,289.5 98.5,289.5C 98.5,287.833 98.5,286.167 98.5,284.5C 101.082,284.975 103.082,284.308 104.5,282.5C 107.731,280.362 111.231,278.696 115,277.5C 116.376,277.684 117.209,278.351 117.5,279.5 Z"/></g>
<g><path style="opacity:0.835" fill="#312a27" d="M 116.5,281.5 C 115.097,282.931 113.431,284.098 111.5,285C 110.207,285.49 108.873,285.657 107.5,285.5C 109.378,284.792 111.045,283.626 112.5,282C 113.793,281.51 115.127,281.343 116.5,281.5 Z"/></g>
</svg>
