<?xml version="1.0" encoding="UTF-8"?>
<!DOCTYPE svg PUBLIC "-//W3C//DTD SVG 1.1//EN" "http://www.w3.org/Graphics/SVG/1.1/DTD/svg11.dtd">
<svg xmlns="http://www.w3.org/2000/svg" version="1.1" width="100%" viewBox="0 0 309 309" style="shape-rendering:geometricPrecision; text-rendering:geometricPrecision; image-rendering:optimizeQuality; fill-rule:evenodd; clip-rule:evenodd" xmlns:xlink="http://www.w3.org/1999/xlink">
<g><path style="opacity:0.292" fill="#f8f7f6" d="M 308.5,39.5 C 308.5,41.5 308.5,43.5 308.5,45.5C 307.693,52.6521 304.527,58.6521 299,63.5C 299.122,68.0318 297.789,72.0318 295,75.5C 285.468,84.8346 274.635,92.0013 262.5,97C 229.414,116.631 209.248,145.464 202,183.5C 201.927,200.544 201.26,217.544 200,234.5C 197.568,238.065 195.068,241.565 192.5,245C 191.207,245.49 189.873,245.657 188.5,245.5C 188.531,251.574 187.031,257.24 184,262.5C 182.478,265.224 180.311,267.224 177.5,268.5C 176.522,268.023 175.689,267.357 175,266.5C 174.828,270.871 174.328,275.204 173.5,279.5C 170.287,284.546 167.287,289.712 164.5,295C 157.5,295.667 150.5,295.667 143.5,295C 137.594,289.079 134.427,281.912 134,273.5C 133.179,226.982 133.346,180.482 134.5,134C 133.123,130.107 131.623,126.274 130,122.5C 130.753,126.002 131.419,129.669 132,133.5C 132.667,177.167 132.667,220.833 132,264.5C 130.776,267.473 128.776,268.14 126,266.5C 123.479,262.593 121.145,258.593 119,254.5C 118.502,251.518 118.335,248.518 118.5,245.5C 115.675,245.919 113.509,244.919 112,242.5C 109.427,239.231 107.594,235.565 106.5,231.5C 105.774,215.163 105.107,198.83 104.5,182.5C 103.022,173.976 100.855,165.642 98,157.5C 89.8112,138.932 77.9779,122.766 62.5,109C 47.9007,100.049 33.2341,91.0487 18.5,82C 13.4851,78.1126 9.81842,73.2792 7.5,67.5C 9.03865,63.91 7.87198,61.5766 4,60.5C 2.78795,56.8818 1.28795,53.5485 -0.5,50.5C -0.5,46.8333 -0.5,43.1667 -0.5,39.5C 1.28801,39.7852 2.95467,39.4519 4.5,38.5C -0.0727013,29.7598 1.09397,21.7598 8,14.5C 11.5306,11.5671 13.6973,12.4004 14.5,17C 14.604,19.1454 13.9373,20.9788 12.5,22.5C 13.5,24.5 14.5,26.5 15.5,28.5C 18.0694,30.9864 20.7361,33.3197 23.5,35.5C 62.2872,57.025 100.621,79.1916 138.5,102C 140.635,105.48 142.802,108.98 145,112.5C 146.743,115.957 147.743,119.623 148,123.5C 148.5,143.497 148.667,163.497 148.5,183.5C 151.5,183.5 154.5,183.5 157.5,183.5C 157.142,162.474 157.642,141.474 159,120.5C 161.202,113.524 164.702,107.357 169.5,102C 207.078,79.0468 245.078,56.8801 283.5,35.5C 286.818,32.6828 289.985,29.6828 293,26.5C 293.936,23.208 293.436,20.208 291.5,17.5C 292.88,12.4869 295.547,11.4869 299.5,14.5C 302.769,18.5392 305.103,23.0392 306.5,28C 305.996,31.2144 304.996,34.2144 303.5,37C 303.611,38.7215 304.111,38.8882 305,37.5C 305.71,38.9733 306.876,39.6399 308.5,39.5 Z M 285.5,51.5 C 288.001,51.5109 288.168,52.1776 286,53.5C 285.536,52.9056 285.369,52.2389 285.5,51.5 Z M 125.5,115.5 C 127.085,116.002 127.585,117.002 127,118.5C 125.961,117.756 125.461,116.756 125.5,115.5 Z M 178.5,120.5 C 178.312,118.897 178.812,117.563 180,116.5C 180.348,118.14 179.848,119.473 178.5,120.5 Z M 175.5,124.5 C 176.844,126.185 176.677,127.852 175,129.5C 175.019,127.893 175.185,126.226 175.5,124.5 Z"/></g>
<g><path style="opacity:0.8" fill="#dbdbdb" d="M 294.5,41.5 C 294.833,40.8333 295.167,40.1667 295.5,39.5C 299.359,36.3191 300.692,32.3191 299.5,27.5C 298.583,28.1272 297.583,28.4606 296.5,28.5C 296.884,26.0706 297.551,23.7373 298.5,21.5C 300.143,21.4802 301.476,22.1468 302.5,23.5C 304.839,31.8012 302.173,37.8012 294.5,41.5 Z"/></g>
<g><path style="opacity:0.741" fill="#c1c1c1" d="M 14.5,33.5 C 11.8666,31.8679 9.53329,29.8679 7.5,27.5C 7.07984,29.326 7.07984,31.326 7.5,33.5C 4.90378,29.9671 4.90378,26.3004 7.5,22.5C 10.6761,25.6668 13.0094,29.3335 14.5,33.5 Z"/></g>
<g><path style="opacity:1" fill="#3e3e3e" d="M 295.5,39.5 C 296.588,37.4175 297.588,35.2508 298.5,33C 296.311,32.678 294.311,33.178 292.5,34.5C 294.252,32.7541 295.585,30.7541 296.5,28.5C 297.583,28.4606 298.583,28.1272 299.5,27.5C 300.692,32.3191 299.359,36.3191 295.5,39.5 Z"/></g>
<g><path style="opacity:1" fill="#0a0a0a" d="M 14.5,33.5 C 14.8333,34.5 15.5,35.1667 16.5,35.5C 19.4298,38.7229 22.7631,41.3896 26.5,43.5C 28.8083,44.7928 31.1417,46.1261 33.5,47.5C 36.1268,49.6007 39.1268,50.9341 42.5,51.5C 44.3542,52.241 46.0209,53.241 47.5,54.5C 47.9528,55.4584 48.6195,56.2917 49.5,57C 54.2556,59.975 59.2556,62.475 64.5,64.5C 65.1667,64.8333 65.8333,65.1667 66.5,65.5C 70.5334,69.0858 75.2001,71.7524 80.5,73.5C 80.9528,74.4584 81.6195,75.2917 82.5,76C 86.7641,78.4622 91.0975,80.6289 95.5,82.5C 100.039,85.9117 105.039,88.5784 110.5,90.5C 111.167,90.5 111.5,90.8333 111.5,91.5C 113.788,94.4563 116.788,96.123 120.5,96.5C 125.415,99.5588 130.248,102.892 135,106.5C 136.975,110.632 139.142,114.632 141.5,118.5C 140.92,122.649 141.586,126.316 143.5,129.5C 142.982,130.577 142.648,131.744 142.5,133C 143.301,151.146 143.801,169.313 144,187.5C 144.383,188.056 144.883,188.389 145.5,188.5C 151.591,188.789 157.591,188.455 163.5,187.5C 164.323,164.997 164.99,142.33 165.5,119.5C 167.113,116.751 168.28,113.751 169,110.5C 171.69,108.973 173.857,106.973 175.5,104.5C 180.21,101.435 184.877,98.4353 189.5,95.5C 191.967,95.2451 193.967,94.2451 195.5,92.5C 199.544,89.8039 203.544,87.1373 207.5,84.5C 210.675,82.8703 214.009,81.3703 217.5,80C 219.093,79.0513 220.426,77.8846 221.5,76.5C 225.957,75.7748 229.624,73.7748 232.5,70.5C 236.221,67.9728 240.221,65.9728 244.5,64.5C 246.875,63.0983 249.209,61.765 251.5,60.5C 253.483,60.1568 254.817,60.8235 255.5,62.5C 252.898,63.4509 250.565,64.7842 248.5,66.5C 244.233,68.447 240.233,70.7803 236.5,73.5C 235.702,73.9569 235.369,74.6236 235.5,75.5C 232.509,75.1663 230.176,76.1663 228.5,78.5C 226.326,78.7497 224.659,79.7497 223.5,81.5C 220.074,82.7224 216.741,84.2224 213.5,86C 212.619,86.7083 211.953,87.5416 211.5,88.5C 203.749,92.546 196.082,96.8794 188.5,101.5C 183.223,103.777 179.223,107.444 176.5,112.5C 173.829,114.773 172.495,117.773 172.5,121.5C 170.896,122.287 170.229,123.62 170.5,125.5C 168.823,176.531 167.823,227.864 167.5,279.5C 166.542,279.953 165.708,280.619 165,281.5C 163.928,284.218 162.762,286.885 161.5,289.5C 156.554,290.614 151.554,290.781 146.5,290C 144.391,286.441 142.391,282.941 140.5,279.5C 139.842,228.204 139.175,176.871 138.5,125.5C 137.824,124.398 137.158,123.398 136.5,122.5C 136.657,121.127 136.49,119.793 136,118.5C 133.72,116.386 131.887,114.053 130.5,111.5C 128.861,109.194 126.861,107.194 124.5,105.5C 122.797,102.368 120.13,100.701 116.5,100.5C 115.564,99.0256 114.23,98.0256 112.5,97.5C 108.871,96.0178 105.538,94.0178 102.5,91.5C 101.313,89.0246 99.3126,88.0246 96.5,88.5C 95.8333,88.5 95.1667,88.5 94.5,88.5C 90.9405,84.5713 86.6071,81.9046 81.5,80.5C 79.7096,79.2392 78.0429,77.7392 76.5,76C 73.4038,75.5323 70.7372,74.3656 68.5,72.5C 68.1667,72.5 67.8333,72.5 67.5,72.5C 67.5858,71.5041 67.2524,70.6708 66.5,70C 64.3825,69.7398 62.7158,68.7398 61.5,67C 59.5643,66.187 57.5643,65.687 55.5,65.5C 52.2336,62.622 48.567,60.2886 44.5,58.5C 40.4734,56.4534 36.4734,54.4534 32.5,52.5C 29.8682,49.5097 26.5349,47.5097 22.5,46.5C 21.791,45.596 20.791,45.2627 19.5,45.5C 15.1344,42.1347 11.4678,38.1347 8.5,33.5C 8.16667,33.5 7.83333,33.5 7.5,33.5C 7.07984,31.326 7.07984,29.326 7.5,27.5C 9.53329,29.8679 11.8666,31.8679 14.5,33.5 Z"/></g>
<g><path style="opacity:1" fill="#151515" d="M 295.5,39.5 C 291.935,40.4101 289.268,42.4101 287.5,45.5C 281.854,47.1542 276.521,49.6542 271.5,53C 270.748,53.6708 270.414,54.5041 270.5,55.5C 267.679,55.5454 265.346,56.5454 263.5,58.5C 260.669,59.0787 258.336,60.412 256.5,62.5C 256.167,62.5 255.833,62.5 255.5,62.5C 254.817,60.8235 253.483,60.1568 251.5,60.5C 253.5,58.8333 255.5,57.1667 257.5,55.5C 258.209,54.596 259.209,54.2627 260.5,54.5C 268.199,50.6558 275.532,46.3225 282.5,41.5C 286.368,39.9707 289.701,37.6374 292.5,34.5C 294.311,33.178 296.311,32.678 298.5,33C 297.588,35.2508 296.588,37.4175 295.5,39.5 Z"/></g>
<g><path style="opacity:0.716" fill="#c5c5c5" d="M 16.5,35.5 C 22.1666,36.6187 26.8332,39.2854 30.5,43.5C 29.1667,43.5 27.8333,43.5 26.5,43.5C 22.7631,41.3896 19.4298,38.7229 16.5,35.5 Z"/></g>
<g><path style="opacity:0.922" fill="#b8b8b8" d="M 8.5,33.5 C 11.4678,38.1347 15.1344,42.1347 19.5,45.5C 12.9334,44.1485 9.26672,40.1485 8.5,33.5 Z"/></g>
<g><path style="opacity:0.831" fill="#f4e0cb" d="M 16.5,54.5 C 12.5852,52.8039 9.08519,50.4706 6,47.5C 5.62053,51.4191 6.45387,55.0858 8.5,58.5C 6.92558,58.0629 5.75891,57.0629 5,55.5C 4.35831,51.5092 3.85831,47.5092 3.5,43.5C 4.67504,43.281 5.67504,43.6143 6.5,44.5C 9.54814,48.2148 12.8815,51.5482 16.5,54.5 Z"/></g>
<g><path style="opacity:1" fill="#717171" d="M 295.5,39.5 C 295.167,40.1667 294.833,40.8333 294.5,41.5C 292.184,42.8056 289.85,44.1389 287.5,45.5C 289.268,42.4101 291.935,40.4101 295.5,39.5 Z"/></g>
<g><path style="opacity:1" fill="#5e5e5e" d="M 26.5,43.5 C 27.8333,43.5 29.1667,43.5 30.5,43.5C 30.8333,44.5 31.5,45.1667 32.5,45.5C 32.8333,46.1667 33.1667,46.8333 33.5,47.5C 31.1417,46.1261 28.8083,44.7928 26.5,43.5 Z"/></g>
<g><path style="opacity:0.886" fill="#cfcfcf" d="M 282.5,41.5 C 275.532,46.3225 268.199,50.6558 260.5,54.5C 260.5,53.1667 260.5,51.8333 260.5,50.5C 265.696,49.0973 270.363,46.5973 274.5,43C 277.168,42.433 279.834,41.933 282.5,41.5 Z"/></g>
<g><path style="opacity:1" fill="#929292" d="M 22.5,46.5 C 26.5349,47.5097 29.8682,49.5097 32.5,52.5C 28.827,50.9998 25.4937,48.9998 22.5,46.5 Z"/></g>
<g><path style="opacity:0.988" fill="#a0a0a0" d="M 32.5,45.5 C 36.6052,46.2833 39.9385,48.2833 42.5,51.5C 39.1268,50.9341 36.1268,49.6007 33.5,47.5C 33.1667,46.8333 32.8333,46.1667 32.5,45.5 Z"/></g>
<g><path style="opacity:0.992" fill="#9a9a9a" d="M 287.5,45.5 C 282.321,49.5699 276.655,52.9032 270.5,55.5C 270.414,54.5041 270.748,53.6708 271.5,53C 276.521,49.6542 281.854,47.1542 287.5,45.5 Z"/></g>
<g><path style="opacity:1" fill="#e3a837" d="M 299.5,48.5 C 301.176,49.1834 301.843,50.5168 301.5,52.5C 301.5,53.1667 301.5,53.8333 301.5,54.5C 295.704,58.9904 289.704,62.9904 283.5,66.5C 283.167,66.5 282.833,66.5 282.5,66.5C 278.342,67.6718 274.675,69.6718 271.5,72.5C 265.577,74.4614 260.243,77.4614 255.5,81.5C 249.308,84.0441 243.641,87.3774 238.5,91.5C 236.326,91.7497 234.659,92.7497 233.5,94.5C 225.816,98.0058 218.483,102.006 211.5,106.5C 209.371,108.95 206.704,110.617 203.5,111.5C 196.941,114.77 192.274,119.77 189.5,126.5C 187.552,128.32 186.552,130.654 186.5,133.5C 185.542,133.953 184.708,134.619 184,135.5C 183.5,174.499 183.333,213.499 183.5,252.5C 182.833,253.167 182.167,253.833 181.5,254.5C 180.197,212.32 180.197,169.986 181.5,127.5C 184.446,121.895 187.779,116.562 191.5,111.5C 202.992,105.387 213.992,98.7206 224.5,91.5C 231.68,89.112 238.347,85.7786 244.5,81.5C 248.909,80.2258 252.576,77.8925 255.5,74.5C 262.777,71.7211 269.444,67.8878 275.5,63C 284.498,60.0754 292.498,55.5754 299.5,49.5C 299.5,49.1667 299.5,48.8333 299.5,48.5 Z"/></g>
<g><path style="opacity:0.765" fill="#f2dabe" d="M 301.5,52.5 C 301.843,50.5168 301.176,49.1834 299.5,48.5C 301.638,43.9994 303.305,43.8328 304.5,48C 304.453,50.2561 303.453,51.7561 301.5,52.5 Z"/></g>
<g><path style="opacity:1" fill="#e3a839" d="M 16.5,54.5 C 16.9528,55.4584 17.6195,56.2917 18.5,57C 21.4313,58.6953 24.598,59.862 28,60.5C 30.4308,63.1981 33.2642,65.3648 36.5,67C 42.4341,69.3627 48.1007,72.196 53.5,75.5C 65.1355,82.6543 76.8022,89.821 88.5,97C 91.5212,98.1798 94.5212,99.3465 97.5,100.5C 100.061,103.717 103.395,105.717 107.5,106.5C 107.953,107.458 108.619,108.292 109.5,109C 112.336,109.921 115.002,111.088 117.5,112.5C 122.732,118.63 126.066,125.63 127.5,133.5C 127.832,174.67 127.499,215.67 126.5,256.5C 126.262,254.596 125.262,253.262 123.5,252.5C 123.667,213.832 123.5,175.165 123,136.5C 122,133.5 121,130.5 120,127.5C 119.34,125.676 118.173,124.343 116.5,123.5C 112.982,119.483 109.315,115.649 105.5,112C 88.1789,102.339 70.8456,92.6721 53.5,83C 52.1667,81.6667 50.8333,80.3333 49.5,79C 44.0389,76.7694 38.7055,74.2694 33.5,71.5C 29.8638,68.677 25.8638,66.3437 21.5,64.5C 19.9674,62.7549 17.9674,61.7549 15.5,61.5C 14.0209,60.241 12.3542,59.241 10.5,58.5C 9.83333,58.5 9.16667,58.5 8.5,58.5C 6.45387,55.0858 5.62053,51.4191 6,47.5C 9.08519,50.4706 12.5852,52.8039 16.5,54.5 Z"/></g>
<g><path style="opacity:0.843" fill="#cecece" d="M 257.5,55.5 C 255.5,57.1667 253.5,58.8333 251.5,60.5C 248.143,60.2159 245.809,61.5493 244.5,64.5C 240.221,65.9728 236.221,67.9728 232.5,70.5C 231.167,70.8333 229.833,71.1667 228.5,71.5C 235.75,66.8649 243.083,62.1983 250.5,57.5C 252.707,56.3652 255.04,55.6985 257.5,55.5 Z"/></g>
<g><path style="opacity:0.922" fill="#f3dbbf" d="M 299.5,49.5 C 292.498,55.5754 284.498,60.0754 275.5,63C 269.444,67.8878 262.777,71.7211 255.5,74.5C 256.105,72.9743 257.271,71.9743 259,71.5C 259.483,70.552 259.649,69.552 259.5,68.5C 261.854,68.162 264.187,67.662 266.5,67C 270.074,64.0912 273.907,61.5912 278,59.5C 284.82,55.5079 291.986,52.1746 299.5,49.5 Z"/></g>
<g><path style="opacity:0.988" fill="#8b8b8b" d="M 47.5,54.5 C 48.8734,54.3433 50.2068,54.51 51.5,55C 55.6183,58.6205 59.9516,61.7872 64.5,64.5C 59.2556,62.475 54.2556,59.975 49.5,57C 48.6195,56.2917 47.9528,55.4584 47.5,54.5 Z"/></g>
<g><path style="opacity:1" fill="#6a6a6a" d="M 251.5,60.5 C 249.209,61.765 246.875,63.0983 244.5,64.5C 245.809,61.5493 248.143,60.2159 251.5,60.5 Z"/></g>
<g><path style="opacity:1" fill="#838383" d="M 263.5,58.5 C 261.74,60.5587 259.406,61.892 256.5,62.5C 258.336,60.412 260.669,59.0787 263.5,58.5 Z"/></g>
<g><path style="opacity:1" fill="#9b9b9b" d="M 44.5,58.5 C 48.567,60.2886 52.2336,62.622 55.5,65.5C 50.9597,64.4435 47.2931,62.1101 44.5,58.5 Z"/></g>
<g><path style="opacity:0.953" fill="#f0d3b0" d="M 301.5,54.5 C 301.607,56.9032 300.607,58.7365 298.5,60C 293.645,62.4534 288.645,64.6201 283.5,66.5C 289.704,62.9904 295.704,58.9904 301.5,54.5 Z"/></g>
<g><path style="opacity:1" fill="#e9be81" d="M 15.5,61.5 C 17.9674,61.7549 19.9674,62.7549 21.5,64.5C 19.0326,64.2451 17.0326,63.2451 15.5,61.5 Z"/></g>
<g><path style="opacity:0.829" fill="#f5e2cd" d="M 10.5,58.5 C 12.3542,59.241 14.0209,60.241 15.5,61.5C 17.0326,63.2451 19.0326,64.2451 21.5,64.5C 25.8638,66.3437 29.8638,68.677 33.5,71.5C 26.5506,68.6802 19.5506,66.0135 12.5,63.5C 12.6085,61.4862 11.9418,59.8195 10.5,58.5 Z"/></g>
<g><path style="opacity:0.996" fill="#797979" d="M 255.5,62.5 C 254.145,65.5177 251.812,66.851 248.5,66.5C 250.565,64.7842 252.898,63.4509 255.5,62.5 Z"/></g>
<g><path style="opacity:0.757" fill="#f5e3cf" d="M 16.5,54.5 C 19.1794,55.2261 21.846,56.0594 24.5,57C 32.2558,60.809 39.9225,64.809 47.5,69C 49.7059,71.0367 51.7059,73.2034 53.5,75.5C 48.1007,72.196 42.4341,69.3627 36.5,67C 33.2642,65.3648 30.4308,63.1981 28,60.5C 24.598,59.862 21.4313,58.6953 18.5,57C 17.6195,56.2917 16.9528,55.4584 16.5,54.5 Z"/></g>
<g><path style="opacity:1" fill="#595959" d="M 55.5,65.5 C 57.5643,65.687 59.5643,66.187 61.5,67C 62.7158,68.7398 64.3825,69.7398 66.5,70C 67.2524,70.6708 67.5858,71.5041 67.5,72.5C 63.4232,70.1565 59.4232,67.8232 55.5,65.5 Z"/></g>
<g><path style="opacity:0.969" fill="#a8a8a8" d="M 66.5,65.5 C 71.9,66.858 76.5666,69.5247 80.5,73.5C 75.2001,71.7524 70.5334,69.0858 66.5,65.5 Z"/></g>
<g><path style="opacity:0.996" fill="#929292" d="M 248.5,66.5 C 245.034,70.7347 240.7,73.7347 235.5,75.5C 235.369,74.6236 235.702,73.9569 236.5,73.5C 240.233,70.7803 244.233,68.447 248.5,66.5 Z"/></g>
<g><path style="opacity:0.996" fill="#ecc593" d="M 282.5,66.5 C 279.585,69.7197 275.918,71.7197 271.5,72.5C 274.675,69.6718 278.342,67.6718 282.5,66.5 Z"/></g>
<g><path style="opacity:0.929" fill="#d3d3d3" d="M 52.5,90.5 C 50.7085,90.634 49.0418,90.3007 47.5,89.5C 45.7096,88.2392 44.0429,86.7392 42.5,85C 36.0948,82.9634 30.0948,80.1301 24.5,76.5C 22.2359,74.6863 19.9025,72.853 17.5,71C 16.6683,70.3123 16.0016,70.479 15.5,71.5C 18.2387,73.8508 20.9054,76.1841 23.5,78.5C 24.1667,78.8333 24.8333,79.1667 25.5,79.5C 26.8021,81.8218 28.8021,83.1551 31.5,83.5C 35.5884,85.2909 39.2551,87.6242 42.5,90.5C 34.9003,88.5095 27.9003,85.1762 21.5,80.5C 19.5873,77.8844 17.4207,75.551 15,73.5C 13.5986,71.8541 13.432,70.1875 14.5,68.5C 16.7954,69.4318 19.1287,70.2652 21.5,71C 31.5545,77.9322 41.8878,84.4322 52.5,90.5 Z"/></g>
<g><path style="opacity:1" fill="#6f6f6f" d="M 232.5,70.5 C 229.624,73.7748 225.957,75.7748 221.5,76.5C 223.934,75.0148 226.267,73.3481 228.5,71.5C 229.833,71.1667 231.167,70.8333 232.5,70.5 Z"/></g>
<g><path style="opacity:0.984" fill="#a2a2a2" d="M 68.5,72.5 C 70.7372,74.3656 73.4038,75.5323 76.5,76C 78.0429,77.7392 79.7096,79.2392 81.5,80.5C 78.2774,79.3566 75.1107,78.0233 72,76.5C 70.5979,75.3551 69.4312,74.0217 68.5,72.5 Z"/></g>
<g><path style="opacity:1" fill="#efd0aa" d="M 271.5,72.5 C 270.101,75.3903 267.768,76.8903 264.5,77C 262.021,79.67 259.021,81.17 255.5,81.5C 260.243,77.4614 265.577,74.4614 271.5,72.5 Z"/></g>
<g><path style="opacity:0.984" fill="#a1a1a1" d="M 280.5,81.5 C 283.209,79.2644 285.876,76.7644 288.5,74C 287.906,73.5357 287.239,73.369 286.5,73.5C 288.253,71.6013 290.253,70.9347 292.5,71.5C 289.407,75.9271 285.407,79.2605 280.5,81.5 Z"/></g>
<g><path style="opacity:1" fill="#5b5b5b" d="M 24.5,76.5 C 23.6618,76.8417 23.3284,77.5084 23.5,78.5C 20.9054,76.1841 18.2387,73.8508 15.5,71.5C 16.0016,70.479 16.6683,70.3123 17.5,71C 19.9025,72.853 22.2359,74.6863 24.5,76.5 Z"/></g>
<g><path style="opacity:0.988" fill="#8e8e8e" d="M 80.5,73.5 C 86.3047,75.2325 91.3047,78.2325 95.5,82.5C 91.0975,80.6289 86.7641,78.4622 82.5,76C 81.6195,75.2917 80.9528,74.4584 80.5,73.5 Z"/></g>
<g><path style="opacity:1" fill="#e8ba77" d="M 255.5,74.5 C 252.576,77.8925 248.909,80.2258 244.5,81.5C 247.793,78.6191 251.46,76.2858 255.5,74.5 Z"/></g>
<g><path style="opacity:0.698" fill="#bebebe" d="M 221.5,76.5 C 220.426,77.8846 219.093,79.0513 217.5,80C 214.009,81.3703 210.675,82.8703 207.5,84.5C 208.942,83.1805 209.608,81.5138 209.5,79.5C 213.673,79.1234 217.673,78.1234 221.5,76.5 Z"/></g>
<g><path style="opacity:1" fill="#7d7d7d" d="M 228.5,78.5 C 227.514,80.4077 225.848,81.4077 223.5,81.5C 224.659,79.7497 226.326,78.7497 228.5,78.5 Z"/></g>
<g><path style="opacity:1" fill="#9d9d9d" d="M 279.5,77.5 C 279.047,78.4584 278.381,79.2917 277.5,80C 273.602,82.0671 269.602,83.9004 265.5,85.5C 269.466,81.8429 274.133,79.1762 279.5,77.5 Z"/></g>
<g><path style="opacity:1" fill="#888888" d="M 25.5,79.5 C 27.8525,80.3403 29.8525,81.6736 31.5,83.5C 28.8021,83.1551 26.8021,81.8218 25.5,79.5 Z"/></g>
<g><path style="opacity:0.953" fill="#b7b7b7" d="M 81.5,80.5 C 86.6071,81.9046 90.9405,84.5713 94.5,88.5C 91.5529,86.7802 88.3862,85.4469 85,84.5C 83.251,83.5902 82.0843,82.2569 81.5,80.5 Z"/></g>
<g><path style="opacity:0.988" fill="#909090" d="M 278.5,81.5 C 275.655,85.0911 271.988,87.4244 267.5,88.5C 267.953,87.5416 268.619,86.7083 269.5,86C 272.815,84.9617 275.815,83.4617 278.5,81.5 Z"/></g>
<g><path style="opacity:0.496" fill="#f3ddc3" d="M 53.5,75.5 C 60.0338,77.5049 66.0338,80.6716 71.5,85C 77.755,86.4583 83.0883,89.4583 87.5,94C 92.0971,94.451 95.4304,96.6177 97.5,100.5C 94.5212,99.3465 91.5212,98.1798 88.5,97C 76.8022,89.821 65.1355,82.6543 53.5,75.5 Z"/></g>
<g><path style="opacity:0.996" fill="#7d7d7d" d="M 223.5,81.5 C 221.959,82.6668 220.625,84.0001 219.5,85.5C 216.645,86.1168 213.978,87.1168 211.5,88.5C 211.953,87.5416 212.619,86.7083 213.5,86C 216.741,84.2224 220.074,82.7224 223.5,81.5 Z"/></g>
<g><path style="opacity:0.875" fill="#b4b4b4" d="M 95.5,82.5 C 99.5441,84.4395 103.877,85.9395 108.5,87C 109.823,87.8159 110.489,88.9826 110.5,90.5C 105.039,88.5784 100.039,85.9117 95.5,82.5 Z"/></g>
<g><path style="opacity:0.973" fill="#adadad" d="M 207.5,84.5 C 203.544,87.1373 199.544,89.8039 195.5,92.5C 193.883,93.038 192.216,93.3713 190.5,93.5C 193.76,92.3939 196.426,90.3939 198.5,87.5C 201.57,86.6228 204.57,85.6228 207.5,84.5 Z"/></g>
<g><path style="opacity:0.988" fill="#edca9d" d="M 255.5,81.5 C 255.144,82.8699 254.31,83.8699 253,84.5C 248.306,87.1202 243.473,89.4536 238.5,91.5C 243.641,87.3774 249.308,84.0441 255.5,81.5 Z"/></g>
<g><path style="opacity:1" fill="#1f1f1f" d="M 286.5,73.5 C 287.239,73.369 287.906,73.5357 288.5,74C 285.876,76.7644 283.209,79.2644 280.5,81.5C 279.833,81.5 279.167,81.5 278.5,81.5C 275.815,83.4617 272.815,84.9617 269.5,86C 268.619,86.7083 267.953,87.5416 267.5,88.5C 265.326,88.7497 263.659,89.7497 262.5,91.5C 260.216,91.9752 258.216,92.9752 256.5,94.5C 253.576,94.8976 251.242,96.231 249.5,98.5C 249.672,97.5084 249.338,96.8417 248.5,96.5C 252.971,93.6796 257.304,90.6796 261.5,87.5C 263.153,87.3404 264.486,86.6737 265.5,85.5C 269.602,83.9004 273.602,82.0671 277.5,80C 278.381,79.2917 279.047,78.4584 279.5,77.5C 281.644,75.8487 283.978,74.5153 286.5,73.5 Z"/></g>
<g><path style="opacity:1" fill="#363636" d="M 24.5,76.5 C 30.0948,80.1301 36.0948,82.9634 42.5,85C 44.0429,86.7392 45.7096,88.2392 47.5,89.5C 46.1667,89.5 45.5,90.1667 45.5,91.5C 44.391,91.4431 43.391,91.1098 42.5,90.5C 39.2551,87.6242 35.5884,85.2909 31.5,83.5C 29.8525,81.6736 27.8525,80.3403 25.5,79.5C 24.8333,79.1667 24.1667,78.8333 23.5,78.5C 23.3284,77.5084 23.6618,76.8417 24.5,76.5 Z"/></g>
<g><path style="opacity:1" fill="#464646" d="M 96.5,88.5 C 99.3126,88.0246 101.313,89.0246 102.5,91.5C 99.6874,91.9754 97.6874,90.9754 96.5,88.5 Z"/></g>
<g><path style="opacity:1" fill="#8c8c8c" d="M 267.5,88.5 C 266.514,90.4077 264.848,91.4077 262.5,91.5C 263.659,89.7497 265.326,88.7497 267.5,88.5 Z"/></g>
<g><path style="opacity:0.996" fill="#8d8d8d" d="M 57.5,93.5 C 59.6968,94.8446 62.0302,96.0112 64.5,97C 65.7101,98.0391 66.7101,99.2058 67.5,100.5C 65.3032,99.1554 62.9698,97.9888 60.5,97C 59.2899,95.9609 58.2899,94.7942 57.5,93.5 Z"/></g>
<g><path style="opacity:0.945" fill="#bcbcbc" d="M 45.5,91.5 C 51.6651,94.0982 57.3317,97.4315 62.5,101.5C 62.5,101.833 62.5,102.167 62.5,102.5C 57.5743,100.463 52.741,98.1297 48,95.5C 46.4053,94.6443 45.572,93.3109 45.5,91.5 Z"/></g>
<g><path style="opacity:0.992" fill="#9a9a9a" d="M 111.5,91.5 C 115.222,91.8611 118.222,93.5278 120.5,96.5C 116.788,96.123 113.788,94.4563 111.5,91.5 Z"/></g>
<g><path style="opacity:1" fill="#545454" d="M 195.5,92.5 C 193.967,94.2451 191.967,95.2451 189.5,95.5C 189.5,95.1667 189.5,94.8333 189.5,94.5C 190.167,94.5 190.5,94.1667 190.5,93.5C 192.216,93.3713 193.883,93.038 195.5,92.5 Z"/></g>
<g><path style="opacity:0.749" fill="#c5c5c5" d="M 261.5,87.5 C 257.304,90.6796 252.971,93.6796 248.5,96.5C 244.087,97.2643 240.087,98.9309 236.5,101.5C 234.223,102.449 232.223,103.782 230.5,105.5C 229.609,106.11 228.609,106.443 227.5,106.5C 231.376,102.553 235.709,99.2197 240.5,96.5C 243.062,95.3591 245.728,94.5257 248.5,94C 251.875,90.0742 256.208,87.9075 261.5,87.5 Z"/></g>
<g><path style="opacity:1" fill="#080808" d="M 248.5,96.5 C 249.338,96.8417 249.672,97.5084 249.5,98.5C 248.5,98.8333 247.833,99.5 247.5,100.5C 242.149,103.002 237.816,106.669 234.5,111.5C 233.761,111.369 233.094,111.536 232.5,112C 229.792,114.619 227.459,117.452 225.5,120.5C 224.504,120.414 223.671,120.748 223,121.5C 221.644,124.329 220.144,126.996 218.5,129.5C 218.5,130.167 218.167,130.5 217.5,130.5C 214.28,134.797 211.614,139.464 209.5,144.5C 207.755,146.033 206.755,148.033 206.5,150.5C 206.672,151.492 206.338,152.158 205.5,152.5C 203.345,154.617 202.345,157.284 202.5,160.5C 199.3,166.659 197.966,173.326 198.5,180.5C 196.564,184.715 195.897,189.381 196.5,194.5C 195.505,206.655 195.171,218.989 195.5,231.5C 194.502,200.004 194.168,168.338 194.5,136.5C 195.434,135.432 195.768,134.099 195.5,132.5C 197.486,129.654 199.486,126.654 201.5,123.5C 203.19,123.144 204.19,122.144 204.5,120.5C 212.703,116.562 220.369,111.895 227.5,106.5C 228.609,106.443 229.609,106.11 230.5,105.5C 233.292,105.378 235.292,104.044 236.5,101.5C 240.087,98.9309 244.087,97.2643 248.5,96.5 Z"/></g>
<g><path style="opacity:1" fill="#878787" d="M 189.5,95.5 C 184.877,98.4353 180.21,101.435 175.5,104.5C 179.065,99.9611 183.732,96.9611 189.5,95.5 Z"/></g>
<g><path style="opacity:0.78" fill="#b8b8b8" d="M 120.5,96.5 C 123.555,97.0362 126.555,97.8695 129.5,99C 132.36,102.527 135.527,105.694 139,108.5C 140.46,111.748 141.626,115.081 142.5,118.5C 142.167,118.5 141.833,118.5 141.5,118.5C 139.142,114.632 136.975,110.632 135,106.5C 130.248,102.892 125.415,99.5588 120.5,96.5 Z"/></g>
<g><path style="opacity:0.667" fill="#d4d4d4" d="M 189.5,94.5 C 189.5,94.8333 189.5,95.1667 189.5,95.5C 183.732,96.9611 179.065,99.9611 175.5,104.5C 173.857,106.973 171.69,108.973 169,110.5C 168.28,113.751 167.113,116.751 165.5,119.5C 165.167,119.5 164.833,119.5 164.5,119.5C 164.499,115.51 165.499,111.843 167.5,108.5C 168.5,108.5 169.5,108.5 170.5,108.5C 171.801,106.328 172.801,103.995 173.5,101.5C 174.5,101.5 175.5,101.5 176.5,101.5C 176.5,100.5 176.5,99.5 176.5,98.5C 180.365,96.1777 184.698,94.8444 189.5,94.5 Z"/></g>
<g><path style="opacity:0.965" fill="#bebebe" d="M 219.5,85.5 C 218.71,86.7942 217.71,87.9609 216.5,89C 206.74,93.7468 197.073,98.5801 187.5,103.5C 187.833,102.833 188.167,102.167 188.5,101.5C 196.082,96.8794 203.749,92.546 211.5,88.5C 213.978,87.1168 216.645,86.1168 219.5,85.5 Z"/></g>
<g><path style="opacity:1" fill="#080808" d="M 47.5,89.5 C 49.0418,90.3007 50.7085,90.634 52.5,90.5C 53.4006,92.7271 55.0672,93.7271 57.5,93.5C 58.2899,94.7942 59.2899,95.9609 60.5,97C 62.9698,97.9888 65.3032,99.1554 67.5,100.5C 67.8333,100.5 68.1667,100.5 68.5,100.5C 71.612,103.224 75.2786,105.224 79.5,106.5C 79.5,106.833 79.5,107.167 79.5,107.5C 83.2078,108.963 86.8745,110.63 90.5,112.5C 92.8956,114.555 95.5623,116.221 98.5,117.5C 101.808,120.471 105.141,123.471 108.5,126.5C 109.508,128.544 110.508,130.544 111.5,132.5C 112.338,132.842 112.672,133.508 112.5,134.5C 113.815,166.973 113.815,199.306 112.5,231.5C 112.5,230.833 112.5,230.167 112.5,229.5C 113.145,217.452 112.478,205.785 110.5,194.5C 110.5,190.833 110.5,187.167 110.5,183.5C 110.001,179.51 109.501,175.51 109,171.5C 108.617,170.944 108.117,170.611 107.5,170.5C 105.987,160.409 102.654,151.076 97.5,142.5C 97.573,140.973 96.9063,139.973 95.5,139.5C 94.2411,135.975 92.2411,132.975 89.5,130.5C 88.7273,127.484 87.0606,125.15 84.5,123.5C 82.2343,119.564 79.2343,116.231 75.5,113.5C 74.027,111.605 72.3603,109.939 70.5,108.5C 69.8333,107.167 68.8333,106.167 67.5,105.5C 66.4154,103.413 64.7488,102.08 62.5,101.5C 57.3317,97.4315 51.6651,94.0982 45.5,91.5C 45.5,90.1667 46.1667,89.5 47.5,89.5 Z"/></g>
<g><path style="opacity:0.749" fill="#f5dfc7" d="M 233.5,94.5 C 232.825,96.5176 231.659,98.1843 230,99.5C 223.737,101.752 217.571,104.085 211.5,106.5C 218.483,102.006 225.816,98.0058 233.5,94.5 Z"/></g>
<g><path style="opacity:0.965" fill="#a9a9a9" d="M 256.5,94.5 C 255.713,96.1042 254.38,96.7709 252.5,96.5C 252.616,99.9103 250.95,101.244 247.5,100.5C 247.833,99.5 248.5,98.8333 249.5,98.5C 251.242,96.231 253.576,94.8976 256.5,94.5 Z"/></g>
<g><path style="opacity:1" fill="#5a5a5a" d="M 62.5,102.5 C 62.5,102.167 62.5,101.833 62.5,101.5C 64.7488,102.08 66.4154,103.413 67.5,105.5C 65.5887,104.925 63.922,103.925 62.5,102.5 Z"/></g>
<g><path style="opacity:0.996" fill="#7c7c7c" d="M 68.5,100.5 C 72.6688,101.689 76.3355,103.689 79.5,106.5C 75.2786,105.224 71.612,103.224 68.5,100.5 Z"/></g>
<g><path style="opacity:0.992" fill="#9d9d9d" d="M 116.5,100.5 C 120.13,100.701 122.797,102.368 124.5,105.5C 121.058,105.055 118.391,103.388 116.5,100.5 Z"/></g>
<g><path style="opacity:1" fill="#5e5e5e" d="M 236.5,101.5 C 235.292,104.044 233.292,105.378 230.5,105.5C 232.223,103.782 234.223,102.449 236.5,101.5 Z"/></g>
<g><path style="opacity:0.996" fill="#7e7e7e" d="M 247.5,100.5 C 244.222,103.111 241.222,106.111 238.5,109.5C 237.167,110.167 235.833,110.833 234.5,111.5C 237.816,106.669 242.149,103.002 247.5,100.5 Z"/></g>
<g><path style="opacity:0.878" fill="#c2c2c2" d="M 62.5,102.5 C 63.922,103.925 65.5887,104.925 67.5,105.5C 68.8333,106.167 69.8333,107.167 70.5,108.5C 66.4849,108.086 63.8182,106.086 62.5,102.5 Z"/></g>
<g><path style="opacity:0.98" fill="#efcfa9" d="M 97.5,100.5 C 98.8734,100.343 100.207,100.51 101.5,101C 103.254,103.212 105.254,105.045 107.5,106.5C 103.395,105.717 100.061,103.717 97.5,100.5 Z"/></g>
<g><path style="opacity:0.851" fill="#f5e5d3" d="M 224.5,91.5 C 213.992,98.7206 202.992,105.387 191.5,111.5C 187.779,116.562 184.446,121.895 181.5,127.5C 181.167,127.5 180.833,127.5 180.5,127.5C 181.609,124.267 182.442,120.934 183,117.5C 183.991,116.061 185.324,115.061 187,114.5C 187.483,113.552 187.649,112.552 187.5,111.5C 188.5,111.5 189.5,111.5 190.5,111.5C 190.5,110.5 190.5,109.5 190.5,108.5C 196.599,106.518 202.433,103.851 208,100.5C 210.936,98.2226 214.103,96.3893 217.5,95C 218.252,94.3292 218.586,93.4959 218.5,92.5C 220.565,92.4828 222.565,92.1495 224.5,91.5 Z"/></g>
<g><path style="opacity:0.98" fill="#a2a2a2" d="M 79.5,107.5 C 84.2877,107.007 87.9544,108.674 90.5,112.5C 86.8745,110.63 83.2078,108.963 79.5,107.5 Z"/></g>
<g><path style="opacity:0.702" fill="#dadada" d="M 112.5,97.5 C 114.23,98.0256 115.564,99.0256 116.5,100.5C 118.391,103.388 121.058,105.055 124.5,105.5C 126.861,107.194 128.861,109.194 130.5,111.5C 130.833,112.833 131.167,114.167 131.5,115.5C 127.146,114.644 124.646,111.977 124,107.5C 120.142,105.905 116.642,103.572 113.5,100.5C 112.873,99.5832 112.539,98.5832 112.5,97.5 Z"/></g>
<g><path style="opacity:1" fill="#777777" d="M 188.5,101.5 C 188.167,102.167 187.833,102.833 187.5,103.5C 183.543,106.122 179.876,109.122 176.5,112.5C 179.223,107.444 183.223,103.777 188.5,101.5 Z"/></g>
<g><path style="opacity:0.949" fill="#b9b9b9" d="M 227.5,106.5 C 220.369,111.895 212.703,116.562 204.5,120.5C 203.833,120.833 203.167,121.167 202.5,121.5C 203.013,118.812 204.513,116.812 207,115.5C 213.892,112.573 220.725,109.573 227.5,106.5 Z"/></g>
<g><path style="opacity:0.976" fill="#adadad" d="M 90.5,112.5 C 94.4885,112.17 97.1551,113.837 98.5,117.5C 95.5623,116.221 92.8956,114.555 90.5,112.5 Z"/></g>
<g><path style="opacity:0.957" fill="#b4b4b4" d="M 238.5,109.5 C 235.074,114.261 230.741,117.928 225.5,120.5C 227.459,117.452 229.792,114.619 232.5,112C 233.094,111.536 233.761,111.369 234.5,111.5C 235.833,110.833 237.167,110.167 238.5,109.5 Z"/></g>
<g><path style="opacity:0.996" fill="#959595" d="M 75.5,113.5 C 79.2343,116.231 82.2343,119.564 84.5,123.5C 80.7657,120.769 77.7657,117.436 75.5,113.5 Z"/></g>
<g><path style="opacity:1" fill="#8d8d8d" d="M 130.5,111.5 C 131.887,114.053 133.72,116.386 136,118.5C 136.49,119.793 136.657,121.127 136.5,122.5C 135.283,119.933 133.616,117.6 131.5,115.5C 131.167,114.167 130.833,112.833 130.5,111.5 Z"/></g>
<g><path style="opacity:1" fill="#7d7d7d" d="M 98.5,117.5 C 99.8734,117.343 101.207,117.51 102.5,118C 103.664,120.328 105.33,122.162 107.5,123.5C 108.11,124.391 108.443,125.391 108.5,126.5C 105.141,123.471 101.808,120.471 98.5,117.5 Z"/></g>
<g><path style="opacity:1" fill="#636363" d="M 204.5,120.5 C 204.19,122.144 203.19,123.144 201.5,123.5C 201.5,123.167 201.5,122.833 201.5,122.5C 201.5,121.833 201.833,121.5 202.5,121.5C 203.167,121.167 203.833,120.833 204.5,120.5 Z"/></g>
<g><path style="opacity:0.886" fill="#f2d8bb" d="M 203.5,111.5 C 199.483,117.181 194.816,122.181 189.5,126.5C 192.274,119.77 196.941,114.77 203.5,111.5 Z"/></g>
<g><path style="opacity:1" fill="#4b4b4b" d="M 141.5,118.5 C 141.833,118.5 142.167,118.5 142.5,118.5C 142.5,119.167 142.5,119.833 142.5,120.5C 143.159,123.455 143.492,126.455 143.5,129.5C 141.586,126.316 140.92,122.649 141.5,118.5 Z"/></g>
<g><path style="opacity:0.906" fill="#bababa" d="M 201.5,122.5 C 201.5,122.833 201.5,123.167 201.5,123.5C 199.486,126.654 197.486,129.654 195.5,132.5C 194.75,127.335 196.75,124.001 201.5,122.5 Z"/></g>
<g><path style="opacity:0.996" fill="#8a8a8a" d="M 225.5,120.5 C 224.311,124.36 221.977,127.36 218.5,129.5C 220.144,126.996 221.644,124.329 223,121.5C 223.671,120.748 224.504,120.414 225.5,120.5 Z"/></g>
<g><path style="opacity:0.984" fill="#868686" d="M 108.5,126.5 C 110.913,127.68 111.913,129.68 111.5,132.5C 110.508,130.544 109.508,128.544 108.5,126.5 Z"/></g>
<g><path style="opacity:1" fill="#9a9a9a" d="M 84.5,123.5 C 87.0606,125.15 88.7273,127.484 89.5,130.5C 87.1,128.704 85.4333,126.37 84.5,123.5 Z"/></g>
<g><path style="opacity:1" fill="#7f7f7f" d="M 164.5,119.5 C 164.833,119.5 165.167,119.5 165.5,119.5C 164.99,142.33 164.323,164.997 163.5,187.5C 163.198,164.8 163.531,142.134 164.5,119.5 Z"/></g>
<g><path style="opacity:0.812" fill="#e8e8e8" d="M 172.5,121.5 C 171.675,173.792 171.175,226.126 171,278.5C 168.827,282.847 166.66,287.18 164.5,291.5C 158.346,292.817 152.346,292.817 146.5,291.5C 151.897,291.785 157.23,291.451 162.5,290.5C 164.018,286.752 165.685,283.085 167.5,279.5C 169.186,228.488 170.186,177.155 170.5,125.5C 170.229,123.62 170.896,122.287 172.5,121.5 Z"/></g>
<g><path style="opacity:0.98" fill="#9f9f9f" d="M 217.5,130.5 C 217.657,131.873 217.49,133.207 217,134.5C 214.94,138.245 212.44,141.578 209.5,144.5C 211.614,139.464 214.28,134.797 217.5,130.5 Z"/></g>
<g><path style="opacity:1" fill="#898989" d="M 170.5,125.5 C 170.186,177.155 169.186,228.488 167.5,279.5C 167.823,227.864 168.823,176.531 170.5,125.5 Z"/></g>
<g><path style="opacity:0.996" fill="#c7c7c7" d="M 136.5,126.5 C 137.268,127.263 137.768,128.263 138,129.5C 138.5,178.832 138.667,228.166 138.5,277.5C 137.815,227.313 137.149,176.98 136.5,126.5 Z"/></g>
<g><path style="opacity:1" fill="#a5a5a5" d="M 142.5,120.5 C 143.222,120.918 143.722,121.584 144,122.5C 144.188,144.543 144.688,166.543 145.5,188.5C 144.883,188.389 144.383,188.056 144,187.5C 143.801,169.313 143.301,151.146 142.5,133C 142.648,131.744 142.982,130.577 143.5,129.5C 143.492,126.455 143.159,123.455 142.5,120.5 Z"/></g>
<g><path style="opacity:1" fill="#767676" d="M 136.5,122.5 C 137.158,123.398 137.824,124.398 138.5,125.5C 139.175,176.871 139.842,228.204 140.5,279.5C 139.5,279.167 138.833,278.5 138.5,277.5C 138.667,228.166 138.5,178.832 138,129.5C 137.768,128.263 137.268,127.263 136.5,126.5C 136.5,125.167 136.5,123.833 136.5,122.5 Z"/></g>
<g><path style="opacity:1" fill="#eed2b2" d="M 179.5,133.5 C 179.333,174.835 179.5,216.168 180,257.5C 181.039,256.756 181.539,255.756 181.5,254.5C 182.167,253.833 182.833,253.167 183.5,252.5C 183.833,252.5 184.167,252.5 184.5,252.5C 183.625,255.915 181.958,258.915 179.5,261.5C 178.169,218.669 178.169,176.002 179.5,133.5 Z"/></g>
<g><path style="opacity:1" fill="#e5ae55" d="M 180.5,127.5 C 180.833,127.5 181.167,127.5 181.5,127.5C 180.197,169.986 180.197,212.32 181.5,254.5C 181.539,255.756 181.039,256.756 180,257.5C 179.5,216.168 179.333,174.835 179.5,133.5C 179.517,131.435 179.85,129.435 180.5,127.5 Z"/></g>
<g><path style="opacity:1" fill="#bcbcbc" d="M 114.5,139.5 C 115.664,171.331 115.831,203.331 115,235.5C 114.617,236.056 114.117,236.389 113.5,236.5C 113.5,235.833 113.5,235.167 113.5,234.5C 114.498,203.004 114.832,171.338 114.5,139.5 Z"/></g>
<g><path style="opacity:0.941" fill="#e1e1e1" d="M 107.5,123.5 C 109.56,124.215 111.226,125.549 112.5,127.5C 113.724,131.145 114.891,134.811 116,138.5C 116.5,171.498 116.667,204.498 116.5,237.5C 115.209,237.737 114.209,237.404 113.5,236.5C 114.117,236.389 114.617,236.056 115,235.5C 115.831,203.331 115.664,171.331 114.5,139.5C 114.598,137.447 113.931,135.78 112.5,134.5C 112.672,133.508 112.338,132.842 111.5,132.5C 111.913,129.68 110.913,127.68 108.5,126.5C 108.443,125.391 108.11,124.391 107.5,123.5 Z"/></g>
<g><path style="opacity:1" fill="#e7b56d" d="M 127.5,133.5 C 128.833,175.833 128.833,218.167 127.5,260.5C 127.167,259.167 126.833,257.833 126.5,256.5C 127.499,215.67 127.832,174.67 127.5,133.5 Z"/></g>
<g><path style="opacity:1" fill="#393939" d="M 112.5,134.5 C 113.931,135.78 114.598,137.447 114.5,139.5C 114.832,171.338 114.498,203.004 113.5,234.5C 113.443,233.391 113.11,232.391 112.5,231.5C 113.815,199.306 113.815,166.973 112.5,134.5 Z"/></g>
<g><path style="opacity:0.988" fill="#f3e1cc" d="M 117.5,112.5 C 118.922,112.709 120.255,113.209 121.5,114C 122.466,116.099 123.8,117.932 125.5,119.5C 126.367,122.935 127.534,126.269 129,129.5C 129.833,173.504 129.667,217.504 128.5,261.5C 127.893,261.376 127.56,261.043 127.5,260.5C 128.833,218.167 128.833,175.833 127.5,133.5C 126.066,125.63 122.732,118.63 117.5,112.5 Z"/></g>
<g><path style="opacity:1" fill="#727272" d="M 95.5,139.5 C 96.9063,139.973 97.573,140.973 97.5,142.5C 96.0937,142.027 95.427,141.027 95.5,139.5 Z"/></g>
<g><path style="opacity:0.996" fill="#f0d7ba" d="M 189.5,126.5 C 188.493,131.933 187.327,137.266 186,142.5C 185.833,179.336 185.333,216.002 184.5,252.5C 184.333,213.832 184.5,175.165 185,136.5C 186.039,135.756 186.539,134.756 186.5,133.5C 186.552,130.654 187.552,128.32 189.5,126.5 Z"/></g>
<g><path style="opacity:0.999" fill="#ecc99e" d="M 116.5,123.5 C 118.173,124.343 119.34,125.676 120,127.5C 121,130.5 122,133.5 123,136.5C 123.5,175.165 123.667,213.832 123.5,252.5C 122.667,215.669 122.167,178.669 122,141.5C 121.052,135.161 119.219,129.161 116.5,123.5 Z"/></g>
<g><path style="opacity:1" fill="#e5b05d" d="M 186.5,133.5 C 186.539,134.756 186.039,135.756 185,136.5C 184.5,175.165 184.333,213.832 184.5,252.5C 184.167,252.5 183.833,252.5 183.5,252.5C 183.333,213.499 183.5,174.499 184,135.5C 184.708,134.619 185.542,133.953 186.5,133.5 Z"/></g>
<g><path style="opacity:1" fill="#5c5c5c" d="M 209.5,144.5 C 209.245,146.967 208.245,148.967 206.5,150.5C 206.755,148.033 207.755,146.033 209.5,144.5 Z"/></g>
<g><path style="opacity:1" fill="#585858" d="M 205.5,152.5 C 204.871,155.397 203.871,158.064 202.5,160.5C 202.345,157.284 203.345,154.617 205.5,152.5 Z"/></g>
<g><path style="opacity:0.996" fill="#949494" d="M 202.5,160.5 C 201.378,167.241 200.044,173.908 198.5,180.5C 197.966,173.326 199.3,166.659 202.5,160.5 Z"/></g>
<g><path style="opacity:1" fill="#828282" d="M 107.5,170.5 C 108.117,170.611 108.617,170.944 109,171.5C 109.501,175.51 110.001,179.51 110.5,183.5C 108.862,179.436 107.862,175.103 107.5,170.5 Z"/></g>
<g><path style="opacity:1" fill="#525252" d="M 194.5,136.5 C 194.168,168.338 194.502,200.004 195.5,231.5C 195.44,232.043 195.107,232.376 194.5,232.5C 193.17,200.336 193.17,168.336 194.5,136.5 Z"/></g>
<g><path style="opacity:1" fill="#888888" d="M 198.5,180.5 C 197.771,185.13 197.437,189.797 197.5,194.5C 197.167,194.5 196.833,194.5 196.5,194.5C 195.897,189.381 196.564,184.715 198.5,180.5 Z"/></g>
<g><path style="opacity:0.996" fill="#d5d5d5" d="M 89.5,130.5 C 92.2411,132.975 94.2411,135.975 95.5,139.5C 95.427,141.027 96.0937,142.027 97.5,142.5C 102.654,151.076 105.987,160.409 107.5,170.5C 107.862,175.103 108.862,179.436 110.5,183.5C 110.5,187.167 110.5,190.833 110.5,194.5C 109.855,206.548 110.522,218.215 112.5,229.5C 112.5,230.167 112.5,230.833 112.5,231.5C 113.11,232.391 113.443,233.391 113.5,234.5C 113.5,235.167 113.5,235.833 113.5,236.5C 112.043,234.758 110.876,232.758 110,230.5C 109.759,214.147 109.092,197.814 108,181.5C 105.573,172.14 103.239,162.806 101,153.5C 97.4861,147.983 94.1527,142.316 91,136.5C 89.872,134.655 89.372,132.655 89.5,130.5 Z"/></g>
<g><path style="opacity:1" fill="#6c6c6c" d="M 110.5,194.5 C 112.478,205.785 113.145,217.452 112.5,229.5C 110.522,218.215 109.855,206.548 110.5,194.5 Z"/></g>
<g><path style="opacity:1" fill="#a3a3a3" d="M 195.5,132.5 C 195.768,134.099 195.434,135.432 194.5,136.5C 193.17,168.336 193.17,200.336 194.5,232.5C 195.107,232.376 195.44,232.043 195.5,231.5C 195.171,218.989 195.505,206.655 196.5,194.5C 196.833,194.5 197.167,194.5 197.5,194.5C 197.667,207.171 197.5,219.838 197,232.5C 196.411,234.863 194.911,235.863 192.5,235.5C 192.333,202.165 192.5,168.832 193,135.5C 193.852,134.429 194.685,133.429 195.5,132.5 Z"/></g>
<g><path style="opacity:1" fill="#a2a2a2" d="M 140.5,279.5 C 142.391,282.941 144.391,286.441 146.5,290C 151.554,290.781 156.554,290.614 161.5,289.5C 162.762,286.885 163.928,284.218 165,281.5C 165.708,280.619 166.542,279.953 167.5,279.5C 165.685,283.085 164.018,286.752 162.5,290.5C 157.23,291.451 151.897,291.785 146.5,291.5C 142.276,288.61 140.276,284.61 140.5,279.5 Z"/></g>
</svg>
