<?xml version="1.0" encoding="UTF-8"?>
<!DOCTYPE svg PUBLIC "-//W3C//DTD SVG 1.1//EN" "http://www.w3.org/Graphics/SVG/1.1/DTD/svg11.dtd">
<svg xmlns="http://www.w3.org/2000/svg" version="1.1" width="100%" viewBox="0 0 317 317" style="shape-rendering:geometricPrecision; text-rendering:geometricPrecision; image-rendering:optimizeQuality; fill-rule:evenodd; clip-rule:evenodd" xmlns:xlink="http://www.w3.org/1999/xlink">
<g><path style="opacity:0.008" fill="#328f39" d="M 111.5,19.5 C 110.833,18.1667 110.833,18.1667 111.5,19.5 Z"/></g>
<g><path style="opacity:0.008" fill="#328f39" d="M 201.5,18.5 C 202.833,19.1667 202.833,19.1667 201.5,18.5 Z"/></g>
<g><path style="opacity:0.314" fill="#030403" d="M 108.5,20.5 C 110.032,22.4562 112.199,23.4562 115,23.5C 117.275,23.7224 118.441,22.7224 118.5,20.5C 143.833,20.5 169.167,20.5 194.5,20.5C 194.559,22.7224 195.725,23.7224 198,23.5C 200.801,23.4562 202.968,22.4562 204.5,20.5C 239.168,20.3333 273.835,20.5 308.5,21C 312.819,23.1164 314.153,26.2831 312.5,30.5C 310.787,31.6354 310.12,33.302 310.5,35.5C 270.821,104.861 231.155,174.194 191.5,243.5C 185.5,253.167 179.5,262.833 173.5,272.5C 168.503,279.825 163.503,287.158 158.5,294.5C 157.167,294.5 155.833,294.5 154.5,294.5C 148.745,285.32 142.745,276.32 136.5,267.5C 135.272,266.694 134.272,265.694 133.5,264.5C 129.749,257.329 125.749,250.329 121.5,243.5C 121.573,241.973 120.906,240.973 119.5,240.5C 115.291,231.312 110.291,222.645 104.5,214.5C 102.336,209.5 99.669,204.833 96.5,200.5C 92.2909,191.312 87.2909,182.645 81.5,174.5C 79.3357,169.5 76.669,164.833 73.5,160.5C 49.8333,118.5 26.1667,76.5 2.5,34.5C 2.77089,32.6203 2.10422,31.287 0.5,30.5C 0.5,29.8333 0.166667,29.5 -0.5,29.5C -0.5,28.5 -0.5,27.5 -0.5,26.5C 0.977392,24.193 2.97739,22.3597 5.5,21C 39.8317,20.5 74.165,20.3333 108.5,20.5 Z"/></g>
<g><path style="opacity:0.237" fill="#298929" d="M 111.5,19.5 C 113.78,19.3538 116.113,19.6871 118.5,20.5C 118.441,22.7224 117.275,23.7224 115,23.5C 112.199,23.4562 110.032,22.4562 108.5,20.5C 109.791,20.7373 110.791,20.404 111.5,19.5 Z"/></g>
<g><path style="opacity:0.237" fill="#278528" d="M 201.5,19.5 C 202.209,20.404 203.209,20.7373 204.5,20.5C 202.968,22.4562 200.801,23.4562 198,23.5C 195.725,23.7224 194.559,22.7224 194.5,20.5C 196.887,19.6871 199.22,19.3538 201.5,19.5 Z"/></g>
<g><path style="opacity:1" fill="#b8b8b8" d="M 304.5,34.5 C 303.992,32.1578 302.992,29.9912 301.5,28C 204.666,27.1675 107.999,27.3342 11.5,28.5C 9.93971,30.1561 8.93971,32.1561 8.5,34.5C 6.85825,31.8975 5.19159,29.2308 3.5,26.5C 105.5,25.1667 207.5,25.1667 309.5,26.5C 308.309,29.568 306.642,32.2346 304.5,34.5 Z"/></g>
<g><path style="opacity:0.004" fill="#5f9264" d="M 316.5,30.5 C 316.5,30.8333 316.5,31.1667 316.5,31.5C 315.83,31.0187 315.83,30.6853 316.5,30.5 Z"/></g>
<g><path style="opacity:0.071" fill="#164b16" d="M 0.5,30.5 C 2.10422,31.287 2.77089,32.6203 2.5,34.5C 1.32627,33.4863 0.659599,32.153 0.5,30.5 Z"/></g>
<g><path style="opacity:0.11" fill="#185418" d="M 312.5,30.5 C 312.598,32.5529 311.931,34.2196 310.5,35.5C 310.12,33.302 310.787,31.6354 312.5,30.5 Z"/></g>
<g><path style="opacity:0.004" fill="#57975b" d="M 4.5,43.5 C 5.83333,44.1667 5.83333,44.1667 4.5,43.5 Z"/></g>
<g><path style="opacity:0.004" fill="#559659" d="M 307.5,43.5 C 308.833,44.1667 308.833,44.1667 307.5,43.5 Z"/></g>
<g><path style="opacity:0.004" fill="#549658" d="M 9.5,51.5 C 10.8333,52.1667 10.8333,52.1667 9.5,51.5 Z"/></g>
<g><path style="opacity:0.004" fill="#57965c" d="M 10.5,54.5 C 11.8333,55.1667 11.8333,55.1667 10.5,54.5 Z"/></g>
<g><path style="opacity:0.004" fill="#559659" d="M 301.5,54.5 C 302.833,55.1667 302.833,55.1667 301.5,54.5 Z"/></g>
<g><path style="opacity:0.004" fill="#57945c" d="M 12.5,57.5 C 13.8333,58.1667 13.8333,58.1667 12.5,57.5 Z"/></g>
<g><path style="opacity:0.004" fill="#57975c" d="M 299.5,57.5 C 300.833,58.1667 300.833,58.1667 299.5,57.5 Z"/></g>
<g><path style="opacity:0.004" fill="#5a905f" d="M 12.5,59.5 C 13.8333,60.1667 13.8333,60.1667 12.5,59.5 Z"/></g>
<g><path style="opacity:0.004" fill="#59905e" d="M 299.5,59.5 C 300.833,60.1667 300.833,60.1667 299.5,59.5 Z"/></g>
<g><path style="opacity:0.004" fill="#55955a" d="M 21.5,72.5 C 22.525,72.8966 22.6917,73.5632 22,74.5C 21.5357,73.9056 21.369,73.2389 21.5,72.5 Z"/></g>
<g><path style="opacity:0.004" fill="#529557" d="M 290.5,72.5 C 291.525,72.8966 291.692,73.5632 291,74.5C 290.536,73.9056 290.369,73.2389 290.5,72.5 Z"/></g>
<g><path style="opacity:0.004" fill="#58965d" d="M 23.5,76.5 C 24.8333,77.1667 24.8333,77.1667 23.5,76.5 Z"/></g>
<g><path style="opacity:0.004" fill="#57965b" d="M 288.5,76.5 C 289.833,77.1667 289.833,77.1667 288.5,76.5 Z"/></g>
<g><path style="opacity:0.004" fill="#559759" d="M 27.5,83.5 C 28.8333,84.1667 28.8333,84.1667 27.5,83.5 Z"/></g>
<g><path style="opacity:0.004" fill="#539657" d="M 284.5,83.5 C 285.833,84.1667 285.833,84.1667 284.5,83.5 Z"/></g>
<g><path style="opacity:0.004" fill="#58975d" d="M 29.5,86.5 C 30.8333,87.1667 30.8333,87.1667 29.5,86.5 Z"/></g>
<g><path style="opacity:0.004" fill="#57965c" d="M 282.5,86.5 C 283.833,87.1667 283.833,87.1667 282.5,86.5 Z"/></g>
<g><path style="opacity:0.004" fill="#5b985f" d="M 30.5,89.5 C 31.8333,90.1667 31.8333,90.1667 30.5,89.5 Z"/></g>
<g><path style="opacity:0.004" fill="#5a985f" d="M 281.5,89.5 C 282.833,90.1667 282.833,90.1667 281.5,89.5 Z"/></g>
<g><path style="opacity:0.004" fill="#529655" d="M 32.5,91.5 C 33.8333,92.1667 33.8333,92.1667 32.5,91.5 Z"/></g>
<g><path style="opacity:0.004" fill="#58905d" d="M 33.5,94.5 C 32.8333,93.1667 32.8333,93.1667 33.5,94.5 Z"/></g>
<g><path style="opacity:0.004" fill="#57975b" d="M 33.5,94.5 C 34.8333,95.1667 34.8333,95.1667 33.5,94.5 Z"/></g>
<g><path style="opacity:0.004" fill="#539657" d="M 278.5,94.5 C 279.833,95.1667 279.833,95.1667 278.5,94.5 Z"/></g>
<g><path style="opacity:0.004" fill="#5d9a61" d="M 274.5,100.5 C 275.833,101.167 275.833,101.167 274.5,100.5 Z"/></g>
<g><path style="opacity:0.004" fill="#57975b" d="M 40.5,105.5 C 41.8333,106.167 41.8333,106.167 40.5,105.5 Z"/></g>
<g><path style="opacity:0.004" fill="#57975a" d="M 271.5,105.5 C 272.833,106.167 272.833,106.167 271.5,105.5 Z"/></g>
<g><path style="opacity:0.004" fill="#59975e" d="M 41.5,108.5 C 42.8333,109.167 42.8333,109.167 41.5,108.5 Z"/></g>
<g><path style="opacity:0.004" fill="#58975d" d="M 270.5,108.5 C 271.833,109.167 271.833,109.167 270.5,108.5 Z"/></g>
<g><path style="opacity:0.004" fill="#5b975f" d="M 43.5,111.5 C 44.8333,112.167 44.8333,112.167 43.5,111.5 Z"/></g>
<g><path style="opacity:0.004" fill="#5c9961" d="M 268.5,111.5 C 269.833,112.167 269.833,112.167 268.5,111.5 Z"/></g>
<g><path style="opacity:0.004" fill="#58985c" d="M 48.5,119.5 C 49.8333,120.167 49.8333,120.167 48.5,119.5 Z"/></g>
<g><path style="opacity:0.004" fill="#559759" d="M 50.5,123.5 C 51.8333,124.167 51.8333,124.167 50.5,123.5 Z"/></g>
<g><path style="opacity:0.004" fill="#539657" d="M 261.5,123.5 C 262.833,124.167 262.833,124.167 261.5,123.5 Z"/></g>
<g><path style="opacity:0.004" fill="#57975c" d="M 52.5,126.5 C 53.8333,127.167 53.8333,127.167 52.5,126.5 Z"/></g>
<g><path style="opacity:0.004" fill="#57975c" d="M 259.5,126.5 C 260.833,127.167 260.833,127.167 259.5,126.5 Z"/></g>
<g><path style="opacity:0.004" fill="#5a905f" d="M 52.5,128.5 C 53.8333,129.167 53.8333,129.167 52.5,128.5 Z"/></g>
<g><path style="opacity:0.004" fill="#59905f" d="M 259.5,128.5 C 260.833,129.167 260.833,129.167 259.5,128.5 Z"/></g>
<g><path style="opacity:0.004" fill="#5d9a61" d="M 259.5,129.5 C 258.833,130.167 258.833,130.167 259.5,129.5 Z"/></g>
<g><path style="opacity:0.004" fill="#5d9a61" d="M 54.5,130.5 C 55.8333,131.167 55.8333,131.167 54.5,130.5 Z"/></g>
<g><path style="opacity:0.004" fill="#5b9a60" d="M 258.5,130.5 C 257.833,131.167 257.833,131.167 258.5,130.5 Z"/></g>
<g><path style="opacity:0.004" fill="#5e9963" d="M 252.5,139.5 C 253.833,140.167 253.833,140.167 252.5,139.5 Z"/></g>
<g><path style="opacity:0.004" fill="#519555" d="M 61.5,142.5 C 62.8333,143.167 62.8333,143.167 61.5,142.5 Z"/></g>
<g><path style="opacity:0.004" fill="#519555" d="M 250.5,142.5 C 251.833,143.167 251.833,143.167 250.5,142.5 Z"/></g>
<g><path style="opacity:0.004" fill="#56975a" d="M 63.5,145.5 C 64.8333,146.167 64.8333,146.167 63.5,145.5 Z"/></g>
<g><path style="opacity:0.004" fill="#56975a" d="M 248.5,145.5 C 249.833,146.167 249.833,146.167 248.5,145.5 Z"/></g>
<g><path style="opacity:0.004" fill="#59915e" d="M 64.5,148.5 C 63.8333,147.167 63.8333,147.167 64.5,148.5 Z"/></g>
<g><path style="opacity:0.004" fill="#59915e" d="M 248.5,147.5 C 249.833,148.167 249.833,148.167 248.5,147.5 Z"/></g>
<g><path style="opacity:0.004" fill="#59985e" d="M 64.5,148.5 C 65.8333,149.167 65.8333,149.167 64.5,148.5 Z"/></g>
<g><path style="opacity:0.004" fill="#58985d" d="M 248.5,148.5 C 247.833,149.167 247.833,149.167 248.5,148.5 Z"/></g>
<g><path style="opacity:0.004" fill="#5c9961" d="M 67.5,152.5 C 66.8333,151.167 66.8333,151.167 67.5,152.5 Z"/></g>
<g><path style="opacity:0.004" fill="#5d9a61" d="M 245.5,151.5 C 246.833,152.167 246.833,152.167 245.5,151.5 Z"/></g>
<g><path style="opacity:0.004" fill="#549658" d="M 67.5,152.5 C 68.8333,153.167 68.8333,153.167 67.5,152.5 Z"/></g>
<g><path style="opacity:0.004" fill="#529657" d="M 245.5,152.5 C 244.833,153.167 244.833,153.167 245.5,152.5 Z"/></g>
<g><path style="opacity:0.004" fill="#599b5c" d="M 72.5,160.5 C 71.8333,159.167 71.8333,159.167 72.5,160.5 Z"/></g>
<g><path style="opacity:0.004" fill="#59975e" d="M 241.5,159.5 C 242.833,160.167 242.833,160.167 241.5,159.5 Z"/></g>
<g><path style="opacity:0.008" fill="#549b58" d="M 72.5,160.5 C 72.8333,160.5 73.1667,160.5 73.5,160.5C 73.3147,161.17 72.9813,161.17 72.5,160.5 Z"/></g>
<g><path style="opacity:0.004" fill="#549658" d="M 73.5,163.5 C 74.8333,164.167 74.8333,164.167 73.5,163.5 Z"/></g>
<g><path style="opacity:0.004" fill="#539657" d="M 238.5,163.5 C 239.833,164.167 239.833,164.167 238.5,163.5 Z"/></g>
<g><path style="opacity:0.004" fill="#59905e" d="M 75.5,168.5 C 76.8333,169.167 76.8333,169.167 75.5,168.5 Z"/></g>
<g><path style="opacity:0.004" fill="#59905e" d="M 236.5,168.5 C 237.833,169.167 237.833,169.167 236.5,168.5 Z"/></g>
<g><path style="opacity:0.004" fill="#529755" d="M 78.5,171.5 C 79.8333,172.167 79.8333,172.167 78.5,171.5 Z"/></g>
<g><path style="opacity:0.004" fill="#529756" d="M 233.5,171.5 C 234.833,172.167 234.833,172.167 233.5,171.5 Z"/></g>
<g><path style="opacity:0.004" fill="#559659" d="M 81.5,174.5 C 80.8333,175.167 80.8333,175.167 81.5,174.5 Z"/></g>
<g><path style="opacity:0.004" fill="#559759" d="M 231.5,174.5 C 232.833,175.167 232.833,175.167 231.5,174.5 Z"/></g>
<g><path style="opacity:0.004" fill="#57975c" d="M 81.5,177.5 C 82.8333,178.167 82.8333,178.167 81.5,177.5 Z"/></g>
<g><path style="opacity:0.004" fill="#57975c" d="M 230.5,177.5 C 231.833,178.167 231.833,178.167 230.5,177.5 Z"/></g>
<g><path style="opacity:0.004" fill="#529756" d="M 90.5,192.5 C 91.8333,193.167 91.8333,193.167 90.5,192.5 Z"/></g>
<g><path style="opacity:0.004" fill="#519556" d="M 221.5,192.5 C 222.833,193.167 222.833,193.167 221.5,192.5 Z"/></g>
<g><path style="opacity:0.004" fill="#559659" d="M 92.5,195.5 C 93.8333,196.167 93.8333,196.167 92.5,195.5 Z"/></g>
<g><path style="opacity:0.004" fill="#56965a" d="M 219.5,195.5 C 220.833,196.167 220.833,196.167 219.5,195.5 Z"/></g>
<g><path style="opacity:0.004" fill="#5b9a5f" d="M 95.5,200.5 C 94.8333,199.167 94.8333,199.167 95.5,200.5 Z"/></g>
<g><path style="opacity:0.004" fill="#539c57" d="M 95.5,200.5 C 95.8333,200.5 96.1667,200.5 96.5,200.5C 96.3147,201.17 95.9813,201.17 95.5,200.5 Z"/></g>
<g><path style="opacity:0.969" fill="#aaaaaa" d="M 304.5,34.5 C 255.443,120.275 206.11,205.942 156.5,291.5C 106.902,205.969 57.5689,120.303 8.5,34.5C 8.93971,32.1561 9.93971,30.1561 11.5,28.5C 107.999,27.3342 204.666,27.1675 301.5,28C 302.992,29.9912 303.992,32.1578 304.5,34.5 Z"/></g>
<g><path style="opacity:1" fill="#626762" d="M 235.5,144.5 C 233.79,149.591 231.79,154.591 229.5,159.5C 222.325,168.828 216.158,178.828 211,189.5C 209.629,191.041 208.129,192.375 206.5,193.5C 215.61,176.84 225.276,160.506 235.5,144.5 Z"/></g>
<g><path style="opacity:1" fill="#6d706d" d="M 77.5,144.5 C 82.1401,150.426 86.3067,156.759 90,163.5C 91.1362,165.743 91.9695,168.076 92.5,170.5C 90.7708,169.883 89.2708,168.883 88,167.5C 83.4512,160.289 79.9512,152.623 77.5,144.5 Z"/></g>
<g><path style="opacity:1" fill="#696d69" d="M 290.5,49.5 C 286.532,61.2718 280.699,71.9385 273,81.5C 268.367,90.4451 263.367,99.1118 258,107.5C 256.985,110.558 255.819,113.558 254.5,116.5C 252.5,118.833 250.5,121.167 248.5,123.5C 247.82,125.889 246.986,128.222 246,130.5C 242.252,135.068 238.752,139.734 235.5,144.5C 236.03,142.076 236.864,139.743 238,137.5C 255.53,109.311 272.196,80.6445 288,51.5C 288.708,50.6195 289.542,49.9528 290.5,49.5 Z"/></g>
<g><path style="opacity:1" fill="#6e726e" d="M 13.5,36.5 C 14.8333,37.8333 16.1667,37.8333 17.5,36.5C 17.1496,39.4534 18.1496,41.7867 20.5,43.5C 38.0078,75.1843 56.1745,106.518 75,137.5C 76.1362,139.743 76.9695,142.076 77.5,144.5C 74.877,141.039 72.0437,137.706 69,134.5C 67.4379,132.043 66.4379,129.376 66,126.5C 63.655,124.486 61.655,122.153 60,119.5C 57.9523,111.73 54.119,105.063 48.5,99.5C 46.7725,96.7127 45.6058,93.7127 45,90.5C 42.0477,86.6885 39.381,82.6885 37,78.5C 36.0781,75.0088 34.9115,71.6755 33.5,68.5C 32.325,68.719 31.325,68.3857 30.5,67.5C 27.5793,62.8024 25.4126,57.8024 24,52.5C 22.4878,51.7433 21.1545,50.7433 20,49.5C 17.8068,45.1136 15.6401,40.7802 13.5,36.5 Z"/></g>
<g><path style="opacity:1" fill="#38b938" d="M 116.5,31.5 C 117.167,31.8333 117.833,32.1667 118.5,32.5C 118.833,33.5 119.5,34.1667 120.5,34.5C 122.177,36.5398 123.844,38.5398 125.5,40.5C 127.109,42.6015 127.609,44.9348 127,47.5C 120.601,57.5744 114.601,67.9077 109,78.5C 106.5,81 104,83.5 101.5,86C 98.7395,86.7218 96.0728,86.5552 93.5,85.5C 92.7375,84.7321 91.7375,84.2321 90.5,84C 98.5225,81.8027 104.189,76.9694 107.5,69.5C 112.647,63.2249 116.814,56.2249 120,48.5C 120.667,46.1667 120.667,43.8333 120,41.5C 117.628,39.2968 115.461,36.9635 113.5,34.5C 114.5,34.5 115.5,34.5 116.5,34.5C 116.5,33.5 116.5,32.5 116.5,31.5 Z"/></g>
<g><path style="opacity:1" fill="#2a8b2a" d="M 27.5,35.5 C 55.6618,34.502 83.9951,34.1687 112.5,34.5C 112.833,34.5 113.167,34.5 113.5,34.5C 115.461,36.9635 117.628,39.2968 120,41.5C 120.667,43.8333 120.667,46.1667 120,48.5C 116.814,56.2249 112.647,63.2249 107.5,69.5C 110.085,64.9395 112.585,60.2728 115,55.5C 115.667,50.8333 115.667,46.1667 115,41.5C 112.961,40.0217 112.128,38.0217 112.5,35.5C 84.1667,35.5 55.8333,35.5 27.5,35.5 Z"/></g>
<g><path style="opacity:1" fill="#131313" d="M 192.5,34.5 C 190.823,36.5398 189.156,38.5398 187.5,40.5C 166.833,40.5 146.167,40.5 125.5,40.5C 123.844,38.5398 122.177,36.5398 120.5,34.5C 144.5,33.1667 168.5,33.1667 192.5,34.5 Z"/></g>
<g><path style="opacity:1" fill="#2d952d" d="M 286.5,34.5 C 286.5,34.8333 286.5,35.1667 286.5,35.5C 257.831,35.3334 229.165,35.5 200.5,36C 198.333,38.1667 196.167,40.3333 194,42.5C 193.505,44.4727 193.338,46.4727 193.5,48.5C 192.371,46.3718 192.204,44.0385 193,41.5C 195.167,39.3333 197.333,37.1667 199.5,35C 228.498,34.5 257.498,34.3334 286.5,34.5 Z"/></g>
<g><path style="opacity:1" fill="#38b938" d="M 196.5,31.5 C 196.281,32.675 196.614,33.675 197.5,34.5C 227.294,33.1713 256.961,33.1713 286.5,34.5C 257.498,34.3334 228.498,34.5 199.5,35C 197.333,37.1667 195.167,39.3333 193,41.5C 192.204,44.0385 192.371,46.3718 193.5,48.5C 193.627,52.3324 195.46,54.9991 199,56.5C 202.142,65.648 206.976,73.8146 213.5,81C 215.345,82.128 217.345,82.628 219.5,82.5C 219.5,83.5 219.5,84.5 219.5,85.5C 216.859,86.2631 214.192,86.4298 211.5,86C 209,83.5 206.5,81 204,78.5C 198.771,67.7075 192.771,57.3742 186,47.5C 185.391,44.9348 185.891,42.6015 187.5,40.5C 189.156,38.5398 190.823,36.5398 192.5,34.5C 193.5,34.1667 194.167,33.5 194.5,32.5C 195.167,32.1667 195.833,31.8333 196.5,31.5 Z"/></g>
<g><path style="opacity:1" fill="#3abe3a" d="M 293.5,41.5 C 292.5,41.5 291.5,41.5 290.5,41.5C 291.401,37.7593 290.068,35.7593 286.5,35.5C 286.5,35.1667 286.5,34.8333 286.5,34.5C 256.961,33.1713 227.294,33.1713 197.5,34.5C 196.614,33.675 196.281,32.675 196.5,31.5C 227.664,30.336 258.997,30.1693 290.5,31C 295.712,33.5127 296.712,37.0127 293.5,41.5 Z"/></g>
<g><path style="opacity:1" fill="#3abe3a" d="M 116.5,31.5 C 116.5,32.5 116.5,33.5 116.5,34.5C 115.5,34.5 114.5,34.5 113.5,34.5C 113.167,34.5 112.833,34.5 112.5,34.5C 84.0029,33.3362 55.3363,33.1696 26.5,34C 25.2341,34.3095 24.0674,34.8095 23,35.5C 22.5702,38.1922 22.7369,40.8589 23.5,43.5C 22.5,43.5 21.5,43.5 20.5,43.5C 18.1496,41.7867 17.1496,39.4534 17.5,36.5C 18.9599,34.5372 20.6266,32.7038 22.5,31C 54.0027,30.1693 85.336,30.336 116.5,31.5 Z"/></g>
<g><path style="opacity:1" fill="#636563" d="M 300.5,29.5 C 301.412,30.7382 301.579,32.0715 301,33.5C 297.667,38.9883 294.167,44.3217 290.5,49.5C 291.108,46.6733 292.108,44.0067 293.5,41.5C 296.712,37.0127 295.712,33.5127 290.5,31C 258.997,30.1693 227.664,30.336 196.5,31.5C 195.833,31.8333 195.167,32.1667 194.5,32.5C 169.167,31.1667 143.833,31.1667 118.5,32.5C 117.833,32.1667 117.167,31.8333 116.5,31.5C 85.336,30.336 54.0027,30.1693 22.5,31C 20.6266,32.7038 18.9599,34.5372 17.5,36.5C 16.1667,37.8333 14.8333,37.8333 13.5,36.5C 12.3947,34.2869 12.3947,32.1203 13.5,30C 109.166,29.5 204.833,29.3333 300.5,29.5 Z"/></g>
<g><path style="opacity:1" fill="#343534" d="M 194.5,32.5 C 194.167,33.5 193.5,34.1667 192.5,34.5C 168.5,33.1667 144.5,33.1667 120.5,34.5C 119.5,34.1667 118.833,33.5 118.5,32.5C 143.833,31.1667 169.167,31.1667 194.5,32.5 Z"/></g>
<g><path style="opacity:1" fill="#8e8e8e" d="M 11.5,28.5 C 108.001,28.1672 204.335,28.5006 300.5,29.5C 204.833,29.3333 109.166,29.5 13.5,30C 12.3947,32.1203 12.3947,34.2869 13.5,36.5C 10.6403,34.3945 9.97361,31.7278 11.5,28.5 Z"/></g>
<g><path style="opacity:0.008" fill="#539b57" d="M 101.5,211.5 C 102.833,212.167 102.833,212.167 101.5,211.5 Z"/></g>
<g><path style="opacity:0.004" fill="#539956" d="M 210.5,211.5 C 211.833,212.167 211.833,212.167 210.5,211.5 Z"/></g>
<g><path style="opacity:0.004" fill="#529556" d="M 104.5,214.5 C 103.833,215.167 103.833,215.167 104.5,214.5 Z"/></g>
<g><path style="opacity:1" fill="#38b538" d="M 112.5,34.5 C 83.9951,34.1687 55.6618,34.502 27.5,35.5C 25.0863,36.4056 24.253,38.0722 25,40.5C 31.1303,50.1362 36.6303,60.1362 41.5,70.5C 42.1667,70.5 42.5,70.8333 42.5,71.5C 42.3505,72.552 42.5172,73.552 43,74.5C 46.3626,79.1879 49.6959,83.8546 53,88.5C 57.4946,96.1558 61.4946,104.156 65,112.5C 73.6291,126.846 81.9624,141.512 90,156.5C 102.458,173.289 112.792,191.289 121,210.5C 121.925,211.047 122.758,211.713 123.5,212.5C 132.814,229.483 142.314,246.149 152,262.5C 153.933,265.385 156.433,266.052 159.5,264.5C 163.055,259.135 165.888,253.468 168,247.5C 171.921,240.257 176.587,233.59 182,227.5C 182.511,225.122 183.178,222.788 184,220.5C 186.656,217.206 189.322,213.873 192,210.5C 192.36,208.392 193.027,206.392 194,204.5C 197.662,198.837 201.328,193.17 205,187.5C 206.152,184.56 207.152,181.56 208,178.5C 220.41,161.741 230.743,143.741 239,124.5C 242.597,121.639 244.931,117.972 246,113.5C 247.763,110.98 249.763,108.647 252,106.5C 254.935,100.573 258.268,94.9065 262,89.5C 265.869,80.6535 270.535,72.3201 276,64.5C 278.859,60.1452 281.026,55.4786 282.5,50.5C 287.272,46.0811 288.605,41.0811 286.5,35.5C 290.068,35.7593 291.401,37.7593 290.5,41.5C 291.5,41.5 292.5,41.5 293.5,41.5C 292.108,44.0067 291.108,46.6733 290.5,49.5C 289.542,49.9528 288.708,50.6195 288,51.5C 272.196,80.6445 255.53,109.311 238,137.5C 236.864,139.743 236.03,142.076 235.5,144.5C 225.276,160.506 215.61,176.84 206.5,193.5C 192.413,217.338 178.58,241.338 165,265.5C 162.529,268.652 159.529,270.985 156,272.5C 153.073,270.58 150.406,268.247 148,265.5C 130.094,234.695 112.428,203.695 95,172.5C 94.2917,171.619 93.4584,170.953 92.5,170.5C 91.9695,168.076 91.1362,165.743 90,163.5C 86.3067,156.759 82.1401,150.426 77.5,144.5C 76.9695,142.076 76.1362,139.743 75,137.5C 56.1745,106.518 38.0078,75.1843 20.5,43.5C 21.5,43.5 22.5,43.5 23.5,43.5C 22.7369,40.8589 22.5702,38.1922 23,35.5C 24.0674,34.8095 25.2341,34.3095 26.5,34C 55.3363,33.1696 84.0029,33.3362 112.5,34.5 Z"/></g>
<g><path style="opacity:1" fill="#195419" d="M 105.5,56.5 C 104.518,59.7635 103.851,63.0968 103.5,66.5C 98.0554,73.3776 90.8887,76.7109 82,76.5C 81.8333,76.8333 81.6667,77.1667 81.5,77.5C 84.5564,78.1962 87.5564,79.0296 90.5,80C 88.5359,81.451 87.2026,83.2843 86.5,85.5C 85.8423,86.3984 85.1757,87.3984 84.5,88.5C 82.1741,86.0029 80.0074,83.3362 78,80.5C 77.8333,81.5 77.6667,82.5 77.5,83.5C 78.6289,88.4113 80.2956,93.078 82.5,97.5C 81.4257,101.305 80.0924,104.971 78.5,108.5C 78.8333,109.5 79.1667,110.5 79.5,111.5C 81.3947,110.027 83.0613,108.36 84.5,106.5C 85.1719,107.949 85.8386,109.282 86.5,110.5C 87.0483,113.084 88.715,114.084 91.5,113.5C 93.9818,115.039 93.9818,116.539 91.5,118C 98.1317,120.796 102.298,125.629 104,132.5C 106.333,134.833 108.667,137.167 111,139.5C 112.562,144.583 114.229,149.583 116,154.5C 118.667,155.833 120.667,157.833 122,160.5C 125.911,168.391 130.578,175.725 136,182.5C 139.151,190.154 143.318,197.154 148.5,203.5C 149.216,202.689 150.05,202.022 151,201.5C 154.847,202.799 158.68,202.799 162.5,201.5C 163.167,202.5 163.833,203.5 164.5,204.5C 166.121,202.847 167.288,200.847 168,198.5C 168.816,197.177 169.983,196.511 171.5,196.5C 168.753,202.705 165.086,208.372 160.5,213.5C 157.833,214.833 155.167,214.833 152.5,213.5C 146.647,206.48 141.814,198.813 138,190.5C 137.092,188.561 135.592,187.561 133.5,187.5C 122.108,168.393 110.941,149.06 100,129.5C 98.6288,127.959 97.1288,126.625 95.5,125.5C 91.924,123.272 87.924,122.272 83.5,122.5C 84.0421,125.912 85.3754,128.912 87.5,131.5C 89.7601,137.033 92.7601,142.033 96.5,146.5C 98.332,150.836 100.665,154.836 103.5,158.5C 119.315,187.465 135.649,216.131 152.5,244.5C 153.388,246.273 154.721,247.606 156.5,248.5C 159.213,246.786 161.213,244.453 162.5,241.5C 176.861,216.15 191.195,190.816 205.5,165.5C 210.334,158.504 214.667,151.171 218.5,143.5C 219.593,141.651 220.926,139.984 222.5,138.5C 220.977,144.539 218.644,150.206 215.5,155.5C 198.922,185.97 181.755,216.303 164,246.5C 161.281,248.403 158.781,250.403 156.5,252.5C 154.272,251.781 152.439,250.448 151,248.5C 145.389,238.086 139.555,227.753 133.5,217.5C 131.192,216.359 129.359,214.692 128,212.5C 126.954,203.165 122.954,195.498 116,189.5C 111.629,180.446 106.629,171.78 101,163.5C 99.9873,158.8 97.654,154.8 94,151.5C 92.4008,148.199 90.9008,144.865 89.5,141.5C 88.4822,140.807 87.4822,140.141 86.5,139.5C 85.9396,137.199 85.4396,134.866 85,132.5C 72.8942,110.529 60.2275,88.8624 47,67.5C 46.5065,65.8659 46.3398,64.1992 46.5,62.5C 54.8977,75.5713 62.8977,88.9046 70.5,102.5C 71.5799,106.853 73.7466,107.853 77,105.5C 78.5883,102.826 79.755,99.9922 80.5,97C 80.6134,95.3009 79.9468,94.1342 78.5,93.5C 76.05,88.4697 75.05,83.1363 75.5,77.5C 78.8158,74.33 82.8158,72.6633 87.5,72.5C 90.6883,72.3822 93.6883,71.5489 96.5,70C 99.1513,65.1764 102.151,60.6764 105.5,56.5 Z"/></g>
<g><path style="opacity:1" fill="#6f460c" d="M 101.5,47.5 C 102.496,47.4142 103.329,47.7476 104,48.5C 104.755,51.3033 104.422,53.9699 103,56.5C 101,59.8333 99,63.1667 97,66.5C 93.7259,68.569 90.5592,70.569 87.5,72.5C 82.8158,72.6633 78.8158,74.33 75.5,77.5C 74.5206,80.6248 74.1872,83.9581 74.5,87.5C 72.2187,81.2697 73.5521,75.9363 78.5,71.5C 89.8748,70.7852 97.5414,65.1186 101.5,54.5C 102.756,52.2743 102.756,49.941 101.5,47.5 Z"/></g>
<g><path style="opacity:1" fill="#472e0a" d="M 46.5,45.5 C 64.1698,45.3334 81.8365,45.5001 99.5,46C 100.416,46.2784 101.082,46.7784 101.5,47.5C 84.1981,46.375 66.8648,46.2084 49.5,47C 47.9391,47.3176 46.7724,48.1509 46,49.5C 45.7167,53.294 46.3834,56.9606 48,60.5C 55.0033,73.7072 62.8366,86.2072 71.5,98C 73.1341,98.4935 74.8008,98.6602 76.5,98.5C 76.8887,94.5863 76.2221,90.9196 74.5,87.5C 74.1872,83.9581 74.5206,80.6248 75.5,77.5C 75.05,83.1363 76.05,88.4697 78.5,93.5C 80.055,100.278 77.3883,103.278 70.5,102.5C 62.8977,88.9046 54.8977,75.5713 46.5,62.5C 45.7729,60.0462 44.7729,57.7128 43.5,55.5C 43.1729,53.5122 42.8396,51.5122 42.5,49.5C 42.5307,46.8245 43.8641,45.4912 46.5,45.5 Z"/></g>
<g><path style="opacity:1" fill="#b07117" d="M 101.5,54.5 C 97.5414,65.1186 89.8748,70.7852 78.5,71.5C 75.5722,72.5914 73.4055,74.5914 72,77.5C 71.501,81.8206 71.3343,86.1539 71.5,90.5C 70.325,90.719 69.325,90.3857 68.5,89.5C 65.8909,84.6714 63.0576,80.0047 60,75.5C 58.7466,68.5866 55.4132,62.9199 50,58.5C 48.097,55.8294 47.2637,52.8294 47.5,49.5C 64.1351,48.3768 80.8017,48.2101 97.5,49C 100.876,49.3071 102.21,51.1405 101.5,54.5 Z"/></g>
<g><path style="opacity:1" fill="#c07b1a" d="M 53.5,51.5 C 67.8551,51.2754 82.1885,51.6087 96.5,52.5C 95.9339,56.7967 93.9339,60.2967 90.5,63C 85.4475,64.8476 80.4475,66.8476 75.5,69C 72.2056,72.4311 69.5389,76.2644 67.5,80.5C 62.1806,73.207 57.3472,65.5403 53,57.5C 52.3224,55.4024 52.4891,53.4024 53.5,51.5 Z"/></g>
<g><path style="opacity:1" fill="#8b5811" d="M 101.5,47.5 C 102.756,49.941 102.756,52.2743 101.5,54.5C 102.21,51.1405 100.876,49.3071 97.5,49C 80.8017,48.2101 64.1351,48.3768 47.5,49.5C 47.2637,52.8294 48.097,55.8294 50,58.5C 55.4132,62.9199 58.7466,68.5866 60,75.5C 63.0576,80.0047 65.8909,84.6714 68.5,89.5C 69.325,90.3857 70.325,90.719 71.5,90.5C 71.3343,86.1539 71.501,81.8206 72,77.5C 73.4055,74.5914 75.5722,72.5914 78.5,71.5C 73.5521,75.9363 72.2187,81.2697 74.5,87.5C 76.2221,90.9196 76.8887,94.5863 76.5,98.5C 74.8008,98.6602 73.1341,98.4935 71.5,98C 62.8366,86.2072 55.0033,73.7072 48,60.5C 46.3834,56.9606 45.7167,53.294 46,49.5C 46.7724,48.1509 47.9391,47.3176 49.5,47C 66.8648,46.2084 84.1981,46.375 101.5,47.5 Z"/></g>
<g><path style="opacity:1" fill="#237523" d="M 27.5,35.5 C 55.8333,35.5 84.1667,35.5 112.5,35.5C 112.128,38.0217 112.961,40.0217 115,41.5C 115.667,46.1667 115.667,50.8333 115,55.5C 112.585,60.2728 110.085,64.9395 107.5,69.5C 104.189,76.9694 98.5225,81.8027 90.5,84C 91.7375,84.2321 92.7375,84.7321 93.5,85.5C 92.5,85.5 91.5,85.5 90.5,85.5C 90.4326,86.9587 90.7659,88.2921 91.5,89.5C 90.4138,89.62 89.7472,90.2867 89.5,91.5C 90.9451,96.0275 90.6117,100.361 88.5,104.5C 88.6399,106.03 89.3065,107.03 90.5,107.5C 91.1834,109.176 92.5168,109.843 94.5,109.5C 93.0484,110.302 91.3817,110.802 89.5,111C 90.3805,111.708 91.0472,112.542 91.5,113.5C 88.715,114.084 87.0483,113.084 86.5,110.5C 86.32,106.107 85.6533,101.774 84.5,97.5C 85.5375,93.5431 86.2041,89.5431 86.5,85.5C 87.2026,83.2843 88.5359,81.451 90.5,80C 87.5564,79.0296 84.5564,78.1962 81.5,77.5C 81.6667,77.1667 81.8333,76.8333 82,76.5C 90.8887,76.7109 98.0554,73.3776 103.5,66.5C 104.885,65.4264 106.051,64.0931 107,62.5C 109.738,58.0784 112.071,53.4118 114,48.5C 114.667,46.5 114.667,44.5 114,42.5C 112.414,41.624 110.914,40.624 109.5,39.5C 110.641,38.5745 110.641,37.7412 109.5,37C 83.4936,36.1668 57.4936,36.3335 31.5,37.5C 32.1667,38.5 32.8333,39.5 33.5,40.5C 33.0409,44.1754 32.7076,47.8421 32.5,51.5C 33.6554,52.9505 35.1554,53.9505 37,54.5C 38.7869,58.5766 40.9536,62.41 43.5,66C 41.8934,67.049 41.2267,68.549 41.5,70.5C 36.6303,60.1362 31.1303,50.1362 25,40.5C 24.253,38.0722 25.0863,36.4056 27.5,35.5 Z"/></g>
<g><path style="opacity:1" fill="#342409" d="M 46.5,45.5 C 46.5,45.1667 46.5,44.8333 46.5,44.5C 66.5028,44.3334 86.5028,44.5 106.5,45C 107.578,45.6739 108.245,46.6739 108.5,48C 107.633,50.8958 106.633,53.7291 105.5,56.5C 102.151,60.6764 99.1513,65.1764 96.5,70C 93.6883,71.5489 90.6883,72.3822 87.5,72.5C 90.5592,70.569 93.7259,68.569 97,66.5C 99,63.1667 101,59.8333 103,56.5C 104.422,53.9699 104.755,51.3033 104,48.5C 103.329,47.7476 102.496,47.4142 101.5,47.5C 101.082,46.7784 100.416,46.2784 99.5,46C 81.8365,45.5001 64.1698,45.3334 46.5,45.5 Z"/></g>
<g><path style="opacity:1" fill="#010300" d="M 125.5,40.5 C 146.167,40.5 166.833,40.5 187.5,40.5C 185.891,42.6015 185.391,44.9348 186,47.5C 192.771,57.3742 198.771,67.7075 204,78.5C 206.5,81 209,83.5 211.5,86C 214.192,86.4298 216.859,86.2631 219.5,85.5C 220.5,85.5 221.5,85.5 222.5,85.5C 222.5,86.5 222.5,87.5 222.5,88.5C 217.383,91.4045 215.55,95.7378 217,101.5C 219.04,103.37 220.873,105.37 222.5,107.5C 222.03,108.693 221.03,109.36 219.5,109.5C 217.5,109.167 215.5,108.833 213.5,108.5C 211.645,108.34 210.312,109.007 209.5,110.5C 207.871,111.625 206.371,112.959 205,114.5C 190.143,140.888 175.309,167.221 160.5,193.5C 159.35,195.603 158.017,197.603 156.5,199.5C 155.141,198.376 154.141,197.042 153.5,195.5C 151.952,191.402 150.119,187.402 148,183.5C 134.235,160.739 120.902,137.739 108,114.5C 106.167,112.667 104.333,110.833 102.5,109C 99.7795,108.398 97.1128,108.565 94.5,109.5C 92.5168,109.843 91.1834,109.176 90.5,107.5C 92.1271,105.37 93.9604,103.37 96,101.5C 97.5295,96.2827 96.0295,92.2827 91.5,89.5C 90.7659,88.2921 90.4326,86.9587 90.5,85.5C 91.5,85.5 92.5,85.5 93.5,85.5C 96.0728,86.5552 98.7395,86.7218 101.5,86C 104,83.5 106.5,81 109,78.5C 114.601,67.9077 120.601,57.5744 127,47.5C 127.609,44.9348 127.109,42.6015 125.5,40.5 Z"/></g>
<g><path style="opacity:1" fill="#38b838" d="M 130.5,64.5 C 130.163,66.672 129.163,68.5054 127.5,70C 127.833,70.5 128.167,71 128.5,71.5C 130.648,68.6296 133.315,67.963 136.5,69.5C 137.604,71.3885 138.937,73.0552 140.5,74.5C 141.452,72.9547 141.785,71.288 141.5,69.5C 145.323,75.1379 148.656,81.1379 151.5,87.5C 151.247,89.8273 151.914,91.8273 153.5,93.5C 153.167,93.8333 152.833,94.1667 152.5,94.5C 151.148,93.4756 149.815,92.4756 148.5,91.5C 147.11,90.1007 146.11,88.4341 145.5,86.5C 143.517,80.7401 140.184,75.9068 135.5,72C 132.657,72.1154 130.157,73.282 128,75.5C 124.667,80.8333 121.333,86.1667 118,91.5C 116.543,94.366 116.21,97.366 117,100.5C 122.682,111.782 129.182,122.449 136.5,132.5C 138.376,138.583 141.543,143.916 146,148.5C 148.151,152.782 150.151,157.115 152,161.5C 155.714,165.693 159.047,165.359 162,160.5C 165.467,150.892 170.467,142.226 177,134.5C 180.884,126.09 185.051,117.757 189.5,109.5C 191.465,106.366 193.631,103.366 196,100.5C 196.814,98.0982 196.647,95.7649 195.5,93.5C 190.956,86.2418 186.289,79.0752 181.5,72C 179.833,71.3333 178.167,71.3333 176.5,72C 174.18,74.4778 172.514,77.3111 171.5,80.5C 168.46,85.4018 165.126,90.2351 161.5,95C 161.167,95.1667 160.833,95.3333 160.5,95.5C 159.571,94.3112 159.238,92.9778 159.5,91.5C 163.514,81.3052 169.18,72.1385 176.5,64C 178.5,63.3333 180.5,63.3333 182.5,64C 184.228,65.973 186.061,67.8063 188,69.5C 193.114,78.729 197.947,88.0623 202.5,97.5C 202.423,99.299 201.923,100.966 201,102.5C 188.161,123.506 175.828,144.84 164,166.5C 162.122,168.043 160.622,169.876 159.5,172C 158.167,172.667 156.833,172.667 155.5,172C 153,169.5 150.5,167 148,164.5C 136.608,142.702 124.275,121.369 111,100.5C 110.159,96.8798 110.826,93.5464 113,90.5C 118.095,83.0764 122.762,75.4097 127,67.5C 128.039,66.2899 129.206,65.2899 130.5,64.5 Z"/></g>
<g><path style="opacity:1" fill="#40ca40" d="M 141.5,69.5 C 141.785,71.288 141.452,72.9547 140.5,74.5C 138.937,73.0552 137.604,71.3885 136.5,69.5C 133.315,67.963 130.648,68.6296 128.5,71.5C 128.167,71 127.833,70.5 127.5,70C 129.163,68.5054 130.163,66.672 130.5,64.5C 132.288,63.3775 134.288,63.2109 136.5,64C 138.373,65.7038 140.04,67.5372 141.5,69.5 Z"/></g>
<g><path style="opacity:1" fill="#1e661e" d="M 103.5,66.5 C 103.851,63.0968 104.518,59.7635 105.5,56.5C 106.5,56.5 107.5,56.5 108.5,56.5C 108.132,53.3759 109.298,51.0425 112,49.5C 112.497,47.1902 112.663,44.8568 112.5,42.5C 87.1667,42.5 61.8333,42.5 36.5,42.5C 36.3359,45.1873 36.5026,47.854 37,50.5C 38.8025,54.1196 40.9692,57.453 43.5,60.5C 44.2652,61.6119 45.2652,62.2786 46.5,62.5C 46.3398,64.1992 46.5065,65.8659 47,67.5C 60.2275,88.8624 72.8942,110.529 85,132.5C 85.4396,134.866 85.9396,137.199 86.5,139.5C 84.1904,136.898 82.3571,133.898 81,130.5C 80,130.5 79,130.5 78,130.5C 77.5,129.5 77,128.5 76.5,127.5C 77.1667,127.167 77.8333,126.833 78.5,126.5C 71.1819,114.858 64.6819,102.858 59,90.5C 55.5882,88.018 53.4215,84.6847 52.5,80.5C 51.5224,80.0233 50.6891,79.3567 50,78.5C 49.6667,79.1667 49.3333,79.8333 49,80.5C 48.8098,77.4149 47.9765,74.4149 46.5,71.5C 45.3002,70.7084 43.9669,70.7084 42.5,71.5C 42.5,70.8333 42.1667,70.5 41.5,70.5C 41.2267,68.549 41.8934,67.049 43.5,66C 40.9536,62.41 38.7869,58.5766 37,54.5C 35.1554,53.9505 33.6554,52.9505 32.5,51.5C 32.7076,47.8421 33.0409,44.1754 33.5,40.5C 32.8333,39.5 32.1667,38.5 31.5,37.5C 57.4936,36.3335 83.4936,36.1668 109.5,37C 110.641,37.7412 110.641,38.5745 109.5,39.5C 110.914,40.624 112.414,41.624 114,42.5C 114.667,44.5 114.667,46.5 114,48.5C 112.071,53.4118 109.738,58.0784 107,62.5C 106.051,64.0931 104.885,65.4264 103.5,66.5 Z"/></g>
<g><path style="opacity:1" fill="#174e17" d="M 105.5,56.5 C 106.633,53.7291 107.633,50.8958 108.5,48C 108.245,46.6739 107.578,45.6739 106.5,45C 86.5028,44.5 66.5028,44.3334 46.5,44.5C 44.1667,44.5 41.8333,44.5 39.5,44.5C 39.4571,48.733 40.7905,52.3996 43.5,55.5C 44.7729,57.7128 45.7729,60.0462 46.5,62.5C 45.2652,62.2786 44.2652,61.6119 43.5,60.5C 40.9692,57.453 38.8025,54.1196 37,50.5C 36.5026,47.854 36.3359,45.1873 36.5,42.5C 61.8333,42.5 87.1667,42.5 112.5,42.5C 112.663,44.8568 112.497,47.1902 112,49.5C 109.298,51.0425 108.132,53.3759 108.5,56.5C 107.5,56.5 106.5,56.5 105.5,56.5 Z"/></g>
<g><path style="opacity:1" fill="#161508" d="M 46.5,44.5 C 46.5,44.8333 46.5,45.1667 46.5,45.5C 43.8641,45.4912 42.5307,46.8245 42.5,49.5C 42.8396,51.5122 43.1729,53.5122 43.5,55.5C 40.7905,52.3996 39.4571,48.733 39.5,44.5C 41.8333,44.5 44.1667,44.5 46.5,44.5 Z"/></g>
<g><path style="opacity:0.004" fill="#549658" d="M 208.5,214.5 C 209.833,215.167 209.833,215.167 208.5,214.5 Z"/></g>
<g><path style="opacity:0.004" fill="#5b995f" d="M 107.5,221.5 C 106.833,220.167 106.833,220.167 107.5,221.5 Z"/></g>
<g><path style="opacity:0.004" fill="#5c9a60" d="M 205.5,220.5 C 206.833,221.167 206.833,221.167 205.5,220.5 Z"/></g>
<g><path style="opacity:0.004" fill="#569d58" d="M 107.5,221.5 C 108.833,222.167 108.833,222.167 107.5,221.5 Z"/></g>
<g><path style="opacity:0.004" fill="#549558" d="M 109.5,225.5 C 110.833,226.167 110.833,226.167 109.5,225.5 Z"/></g>
<g><path style="opacity:0.004" fill="#559659" d="M 202.5,225.5 C 203.833,226.167 203.833,226.167 202.5,225.5 Z"/></g>
<g><path style="opacity:0.004" fill="#57975b" d="M 110.5,228.5 C 111.833,229.167 111.833,229.167 110.5,228.5 Z"/></g>
<g><path style="opacity:0.004" fill="#58975d" d="M 201.5,228.5 C 202.833,229.167 202.833,229.167 201.5,228.5 Z"/></g>
<g><path style="opacity:0.004" fill="#5d9b62" d="M 113.5,232.5 C 112.833,231.167 112.833,231.167 113.5,232.5 Z"/></g>
<g><path style="opacity:0.004" fill="#5f9b63" d="M 199.5,231.5 C 200.833,232.167 200.833,232.167 199.5,231.5 Z"/></g>
<g><path style="opacity:0.004" fill="#559c58" d="M 113.5,232.5 C 114.833,233.167 114.833,233.167 113.5,232.5 Z"/></g>
<g><path style="opacity:0.004" fill="#529556" d="M 199.5,232.5 C 198.833,233.167 198.833,233.167 199.5,232.5 Z"/></g>
<g><path style="opacity:1" fill="#247624" d="M 286.5,35.5 C 288.605,41.0811 287.272,46.0811 282.5,50.5C 281.026,55.4786 278.859,60.1452 276,64.5C 270.535,72.3201 265.869,80.6535 262,89.5C 258.268,94.9065 254.935,100.573 252,106.5C 249.763,108.647 247.763,110.98 246,113.5C 244.931,117.972 242.597,121.639 239,124.5C 230.743,143.741 220.41,161.741 208,178.5C 207.152,181.56 206.152,184.56 205,187.5C 201.328,193.17 197.662,198.837 194,204.5C 193.027,206.392 192.36,208.392 192,210.5C 189.322,213.873 186.656,217.206 184,220.5C 183.178,222.788 182.511,225.122 182,227.5C 176.587,233.59 171.921,240.257 168,247.5C 165.888,253.468 163.055,259.135 159.5,264.5C 156.433,266.052 153.933,265.385 152,262.5C 142.314,246.149 132.814,229.483 123.5,212.5C 122.758,211.713 121.925,211.047 121,210.5C 112.792,191.289 102.458,173.289 90,156.5C 81.9624,141.512 73.6291,126.846 65,112.5C 61.4946,104.156 57.4946,96.1558 53,88.5C 49.6959,83.8546 46.3626,79.1879 43,74.5C 42.5172,73.552 42.3505,72.552 42.5,71.5C 43.9669,70.7084 45.3002,70.7084 46.5,71.5C 47.9765,74.4149 48.8098,77.4149 49,80.5C 49.3333,79.8333 49.6667,79.1667 50,78.5C 50.6891,79.3567 51.5224,80.0233 52.5,80.5C 53.4215,84.6847 55.5882,88.018 59,90.5C 64.6819,102.858 71.1819,114.858 78.5,126.5C 77.8333,126.833 77.1667,127.167 76.5,127.5C 77,128.5 77.5,129.5 78,130.5C 79,130.5 80,130.5 81,130.5C 82.3571,133.898 84.1904,136.898 86.5,139.5C 87.4822,140.141 88.4822,140.807 89.5,141.5C 90.9008,144.865 92.4008,148.199 94,151.5C 97.654,154.8 99.9873,158.8 101,163.5C 106.629,171.78 111.629,180.446 116,189.5C 122.954,195.498 126.954,203.165 128,212.5C 129.359,214.692 131.192,216.359 133.5,217.5C 139.555,227.753 145.389,238.086 151,248.5C 152.439,250.448 154.272,251.781 156.5,252.5C 158.781,250.403 161.281,248.403 164,246.5C 181.755,216.303 198.922,185.97 215.5,155.5C 216.458,155.047 217.292,154.381 218,153.5C 228.519,137.127 238.519,120.46 248,103.5C 248.743,105.645 249.576,105.811 250.5,104C 250.645,103.228 250.978,102.561 251.5,102C 250.692,101.692 250.025,101.192 249.5,100.5C 253.393,95.3808 256.226,89.7141 258,83.5C 263.942,74.6177 269.109,65.2843 273.5,55.5C 279.267,51.7975 281.267,46.6308 279.5,40C 280.357,39.3109 281.023,38.4776 281.5,37.5C 254.842,36.5002 228.175,36.1669 201.5,36.5C 201.685,40.066 201.019,43.3993 199.5,46.5C 199.52,47.7261 199.853,48.7261 200.5,49.5C 202.508,53.2203 204.508,56.887 206.5,60.5C 207.868,66.7098 211.368,71.3765 217,74.5C 217.833,76.5 218.667,78.5 219.5,80.5C 225.188,82.5207 226.855,86.1874 224.5,91.5C 224.715,89.8212 224.048,88.8212 222.5,88.5C 222.5,87.5 222.5,86.5 222.5,85.5C 221.5,85.5 220.5,85.5 219.5,85.5C 219.5,84.5 219.5,83.5 219.5,82.5C 217.345,82.628 215.345,82.128 213.5,81C 206.976,73.8146 202.142,65.648 199,56.5C 195.46,54.9991 193.627,52.3324 193.5,48.5C 193.338,46.4727 193.505,44.4727 194,42.5C 196.167,40.3333 198.333,38.1667 200.5,36C 229.165,35.5 257.831,35.3334 286.5,35.5 Z"/></g>
<g><path style="opacity:1" fill="#7b4e0e" d="M 211.5,137.5 C 211.313,139.564 210.813,141.564 210,143.5C 198.763,162.299 187.763,181.299 177,200.5C 174.585,203.962 172.085,207.295 169.5,210.5C 182.718,185.733 196.718,161.4 211.5,137.5 Z"/></g>
<g><path style="opacity:1" fill="#452d0a" d="M 95.5,125.5 C 97.1288,126.625 98.6288,127.959 100,129.5C 110.941,149.06 122.108,168.393 133.5,187.5C 139.001,197.173 145.001,206.506 151.5,215.5C 148.264,214.101 145.43,212.101 143,209.5C 142.027,207.608 141.36,205.608 141,203.5C 140.292,202.619 139.458,201.953 138.5,201.5C 125.522,178.996 112.689,156.329 100,133.5C 98.2854,131.241 96.4521,129.074 94.5,127C 93.1667,126.333 91.8333,126.333 90.5,127C 88.7861,131.557 89.7861,135.39 93.5,138.5C 94.5,141.167 95.5,143.833 96.5,146.5C 92.7601,142.033 89.7601,137.033 87.5,131.5C 87.4974,126.185 90.164,124.185 95.5,125.5 Z"/></g>
<g><path style="opacity:1" fill="#4d320b" d="M 103.5,158.5 C 105.274,159.37 106.607,160.703 107.5,162.5C 109.828,163.736 110.994,165.736 111,168.5C 112,169.167 113,169.833 114,170.5C 118.195,177.386 121.528,184.72 124,192.5C 128.174,199.516 132.841,206.183 138,212.5C 139.611,219.722 142.777,226.055 147.5,231.5C 148.591,235.515 150.591,239.015 153.5,242C 157.26,243.176 160.093,242.01 162,238.5C 166.23,229.273 170.73,220.273 175.5,211.5C 177.313,209.947 179.147,208.28 181,206.5C 185.335,197.796 189.668,189.13 194,180.5C 197.842,175.47 201.675,170.47 205.5,165.5C 191.195,190.816 176.861,216.15 162.5,241.5C 161.005,241.415 160.005,242.081 159.5,243.5C 157.257,244.474 154.924,244.808 152.5,244.5C 135.649,216.131 119.315,187.465 103.5,158.5 Z"/></g>
<g><path style="opacity:1" fill="#154815" d="M 133.5,187.5 C 135.592,187.561 137.092,188.561 138,190.5C 141.814,198.813 146.647,206.48 152.5,213.5C 155.167,214.833 157.833,214.833 160.5,213.5C 165.086,208.372 168.753,202.705 171.5,196.5C 172.637,195.211 173.97,194.211 175.5,193.5C 172.691,198.445 169.857,203.445 167,208.5C 163.749,215.191 158.582,217.524 151.5,215.5C 145.001,206.506 139.001,197.173 133.5,187.5 Z"/></g>
<g><path style="opacity:1" fill="#195619" d="M 259.5,74.5 C 253.916,89.2425 246.416,102.909 237,115.5C 236.64,117.608 235.973,119.608 235,121.5C 231.905,125.589 229.239,129.923 227,134.5C 225.693,136.192 224.193,137.525 222.5,138.5C 223.227,136.046 224.227,133.713 225.5,131.5C 227.625,128.912 228.958,125.912 229.5,122.5C 225.418,122.344 221.418,122.844 217.5,124C 216.177,124.816 215.511,125.983 215.5,127.5C 202.167,149.5 188.833,171.5 175.5,193.5C 173.97,194.211 172.637,195.211 171.5,196.5C 172.895,192.485 174.395,188.485 176,184.5C 184.435,173.232 191.768,161.232 198,148.5C 203.112,141.277 207.445,133.611 211,125.5C 214.219,122.495 217.719,119.995 221.5,118C 220.643,117.311 219.977,116.478 219.5,115.5C 221.544,113.781 223.544,112.114 225.5,110.5C 226.943,109.665 227.943,108.332 228.5,106.5C 229.939,108.36 231.605,110.027 233.5,111.5C 233.833,110.5 234.167,109.5 234.5,108.5C 233.095,105.507 232.095,102.341 231.5,99C 231.514,97.6153 231.848,96.4486 232.5,95.5C 235.219,110.392 239.552,111.058 245.5,97.5C 249.93,89.6309 254.597,81.9642 259.5,74.5 Z"/></g>
<g><path style="opacity:1" fill="#442d0a" d="M 225.5,131.5 C 224.227,133.713 223.227,136.046 222.5,138.5C 220.926,139.984 219.593,141.651 218.5,143.5C 219.28,139.873 220.78,136.54 223,133.5C 223.667,131.5 223.667,129.5 223,127.5C 221.612,126.446 220.112,126.28 218.5,127C 217.242,128.741 216.242,130.574 215.5,132.5C 213.413,133.585 212.08,135.251 211.5,137.5C 196.718,161.4 182.718,185.733 169.5,210.5C 166.568,211.8 164.234,213.8 162.5,216.5C 159.221,217.492 155.888,217.659 152.5,217C 151.944,216.617 151.611,216.117 151.5,215.5C 158.582,217.524 163.749,215.191 167,208.5C 169.857,203.445 172.691,198.445 175.5,193.5C 188.833,171.5 202.167,149.5 215.5,127.5C 217.836,125.609 220.502,125.109 223.5,126C 225.155,127.444 225.822,129.278 225.5,131.5 Z"/></g>
<g><path style="opacity:1" fill="#37b637" d="M 209.5,110.5 C 213.555,110.176 217.555,110.509 221.5,111.5C 221.333,111.833 221.167,112.167 221,112.5C 216.416,113.36 212.416,115.36 209,118.5C 206.698,122.146 204.364,125.813 202,129.5C 200.901,134.584 198.901,139.251 196,143.5C 187.672,153.472 181.005,164.472 176,176.5C 172.308,180.547 169.641,185.214 168,190.5C 166.5,192.667 165,194.833 163.5,197C 162.552,197.483 161.552,197.649 160.5,197.5C 160.5,196.167 160.5,194.833 160.5,193.5C 175.309,167.221 190.143,140.888 205,114.5C 206.371,112.959 207.871,111.625 209.5,110.5 Z"/></g>
<g><path style="opacity:1" fill="#37b637" d="M 153.5,195.5 C 153.762,196.978 153.429,198.311 152.5,199.5C 152.167,199.333 151.833,199.167 151.5,199C 148.65,196.145 146.15,192.978 144,189.5C 139.885,178.601 134.218,168.601 127,159.5C 124.299,154.76 121.966,149.76 120,144.5C 113.42,136.663 108.42,127.997 105,118.5C 101.469,114.377 96.969,112.71 91.5,113.5C 91.0472,112.542 90.3805,111.708 89.5,111C 91.3817,110.802 93.0484,110.302 94.5,109.5C 97.1128,108.565 99.7795,108.398 102.5,109C 104.333,110.833 106.167,112.667 108,114.5C 120.902,137.739 134.235,160.739 148,183.5C 150.119,187.402 151.952,191.402 153.5,195.5 Z"/></g>
<g><path style="opacity:1" fill="#7c4f0e" d="M 212.5,150.5 C 209.887,155.391 207.554,160.391 205.5,165.5C 201.675,170.47 197.842,175.47 194,180.5C 189.668,189.13 185.335,197.796 181,206.5C 179.147,208.28 177.313,209.947 175.5,211.5C 185.709,191.797 196.542,172.464 208,153.5C 209.4,152.252 210.9,151.252 212.5,150.5 Z"/></g>
<g><path style="opacity:1" fill="#794d0e" d="M 138.5,201.5 C 135.994,200.185 134.161,198.185 133,195.5C 122,176.167 111,156.833 100,137.5C 98.3903,135.269 96.557,133.269 94.5,131.5C 93.5258,133.743 93.1924,136.076 93.5,138.5C 89.7861,135.39 88.7861,131.557 90.5,127C 91.8333,126.333 93.1667,126.333 94.5,127C 96.4521,129.074 98.2854,131.241 100,133.5C 112.689,156.329 125.522,178.996 138.5,201.5 Z"/></g>
<g><path style="opacity:1" fill="#754a0e" d="M 93.5,138.5 C 101.173,144.481 105.84,152.481 107.5,162.5C 106.607,160.703 105.274,159.37 103.5,158.5C 100.665,154.836 98.332,150.836 96.5,146.5C 95.5,143.833 94.5,141.167 93.5,138.5 Z"/></g>
<g><path style="opacity:1" fill="#422c09" d="M 218.5,143.5 C 214.667,151.171 210.334,158.504 205.5,165.5C 207.554,160.391 209.887,155.391 212.5,150.5C 212.66,148.847 213.326,147.514 214.5,146.5C 215.833,145.5 217.167,144.5 218.5,143.5 Z"/></g>
<g><path style="opacity:1" fill="#6b430c" d="M 218.5,143.5 C 217.167,144.5 215.833,145.5 214.5,146.5C 215.238,142.357 217.071,138.69 220,135.5C 220.494,133.866 220.66,132.199 220.5,130.5C 218.486,130.392 216.82,131.058 215.5,132.5C 216.242,130.574 217.242,128.741 218.5,127C 220.112,126.28 221.612,126.446 223,127.5C 223.667,129.5 223.667,131.5 223,133.5C 220.78,136.54 219.28,139.873 218.5,143.5 Z"/></g>
<g><path style="opacity:1" fill="#955e12" d="M 214.5,146.5 C 213.326,147.514 212.66,148.847 212.5,150.5C 210.9,151.252 209.4,152.252 208,153.5C 196.542,172.464 185.709,191.797 175.5,211.5C 170.73,220.273 166.23,229.273 162,238.5C 160.093,242.01 157.26,243.176 153.5,242C 150.591,239.015 148.591,235.515 147.5,231.5C 150.191,233.197 152.524,235.363 154.5,238C 155.944,238.781 157.277,238.614 158.5,237.5C 164.239,229.314 169.239,220.647 173.5,211.5C 173.333,211.167 173.167,210.833 173,210.5C 170.283,213.94 166.783,215.94 162.5,216.5C 164.234,213.8 166.568,211.8 169.5,210.5C 172.085,207.295 174.585,203.962 177,200.5C 187.763,181.299 198.763,162.299 210,143.5C 210.813,141.564 211.313,139.564 211.5,137.5C 212.08,135.251 213.413,133.585 215.5,132.5C 216.82,131.058 218.486,130.392 220.5,130.5C 220.66,132.199 220.494,133.866 220,135.5C 217.071,138.69 215.238,142.357 214.5,146.5 Z"/></g>
<g><path style="opacity:1" fill="#945e12" d="M 138.5,201.5 C 139.458,201.953 140.292,202.619 141,203.5C 141.36,205.608 142.027,207.608 143,209.5C 145.43,212.101 148.264,214.101 151.5,215.5C 151.611,216.117 151.944,216.617 152.5,217C 155.888,217.659 159.221,217.492 162.5,216.5C 161.369,219.333 159.202,220.666 156,220.5C 151.8,220.545 148.134,219.212 145,216.5C 147.024,221.13 147.857,226.13 147.5,231.5C 142.777,226.055 139.611,219.722 138,212.5C 132.841,206.183 128.174,199.516 124,192.5C 121.528,184.72 118.195,177.386 114,170.5C 113,169.833 112,169.167 111,168.5C 110.994,165.736 109.828,163.736 107.5,162.5C 105.84,152.481 101.173,144.481 93.5,138.5C 93.1924,136.076 93.5258,133.743 94.5,131.5C 96.557,133.269 98.3903,135.269 100,137.5C 111,156.833 122,176.167 133,195.5C 134.161,198.185 135.994,200.185 138.5,201.5 Z"/></g>
<g><path style="opacity:1" fill="#111305" d="M 225.5,131.5 C 225.822,129.278 225.155,127.444 223.5,126C 220.502,125.109 217.836,125.609 215.5,127.5C 215.511,125.983 216.177,124.816 217.5,124C 221.418,122.844 225.418,122.344 229.5,122.5C 228.958,125.912 227.625,128.912 225.5,131.5 Z"/></g>
<g><path style="opacity:1" fill="#101205" d="M 95.5,125.5 C 90.164,124.185 87.4974,126.185 87.5,131.5C 85.3754,128.912 84.0421,125.912 83.5,122.5C 87.924,122.272 91.924,123.272 95.5,125.5 Z"/></g>
<g><path style="opacity:1" fill="#247824" d="M 224.5,92.5 C 224.338,94.5273 224.505,96.5273 225,98.5C 225.654,97.3044 226.154,97.3044 226.5,98.5C 225.567,102.429 225.234,106.429 225.5,110.5C 223.544,112.114 221.544,113.781 219.5,115.5C 219.977,116.478 220.643,117.311 221.5,118C 217.719,119.995 214.219,122.495 211,125.5C 207.445,133.611 203.112,141.277 198,148.5C 191.768,161.232 184.435,173.232 176,184.5C 174.395,188.485 172.895,192.485 171.5,196.5C 169.983,196.511 168.816,197.177 168,198.5C 167.288,200.847 166.121,202.847 164.5,204.5C 163.833,203.5 163.167,202.5 162.5,201.5C 158.68,202.799 154.847,202.799 151,201.5C 150.05,202.022 149.216,202.689 148.5,203.5C 143.318,197.154 139.151,190.154 136,182.5C 130.578,175.725 125.911,168.391 122,160.5C 120.667,157.833 118.667,155.833 116,154.5C 114.229,149.583 112.562,144.583 111,139.5C 108.667,137.167 106.333,134.833 104,132.5C 102.298,125.629 98.1317,120.796 91.5,118C 93.9818,116.539 93.9818,115.039 91.5,113.5C 96.969,112.71 101.469,114.377 105,118.5C 108.42,127.997 113.42,136.663 120,144.5C 121.966,149.76 124.299,154.76 127,159.5C 134.218,168.601 139.885,178.601 144,189.5C 146.15,192.978 148.65,196.145 151.5,199C 151.833,199.167 152.167,199.333 152.5,199.5C 153.429,198.311 153.762,196.978 153.5,195.5C 154.141,197.042 155.141,198.376 156.5,199.5C 158.017,197.603 159.35,195.603 160.5,193.5C 160.5,194.833 160.5,196.167 160.5,197.5C 161.552,197.649 162.552,197.483 163.5,197C 165,194.833 166.5,192.667 168,190.5C 169.641,185.214 172.308,180.547 176,176.5C 181.005,164.472 187.672,153.472 196,143.5C 198.901,139.251 200.901,134.584 202,129.5C 204.364,125.813 206.698,122.146 209,118.5C 212.416,115.36 216.416,113.36 221,112.5C 221.167,112.167 221.333,111.833 221.5,111.5C 217.555,110.509 213.555,110.176 209.5,110.5C 210.312,109.007 211.645,108.34 213.5,108.5C 215.5,108.833 217.5,109.167 219.5,109.5C 221.03,109.36 222.03,108.693 222.5,107.5C 223.725,106.848 224.392,105.681 224.5,104C 223.833,101.667 223.167,99.3333 222.5,97C 222.307,94.9919 222.974,93.4919 224.5,92.5 Z"/></g>
<g><path style="opacity:1" fill="#171506" d="M 234.5,93.5 C 234.22,96.2724 234.887,98.7724 236.5,101C 239.31,101.91 241.31,101.077 242.5,98.5C 243.391,97.8902 244.391,97.5569 245.5,97.5C 239.552,111.058 235.219,110.392 232.5,95.5C 233.167,94.8333 233.833,94.1667 234.5,93.5 Z"/></g>
<g><path style="opacity:1" fill="#111306" d="M 78.5,93.5 C 79.9468,94.1342 80.6134,95.3009 80.5,97C 79.755,99.9922 78.5883,102.826 77,105.5C 73.7466,107.853 71.5799,106.853 70.5,102.5C 77.3883,103.278 80.055,100.278 78.5,93.5 Z"/></g>
<g><path style="opacity:1" fill="#1f671f" d="M 206.5,60.5 C 209.255,64.4337 212.255,68.267 215.5,72C 217.779,72.4728 219.779,73.4728 221.5,75C 234.054,75.7366 234.388,77.4033 222.5,80C 225.364,82.2293 227.364,85.0626 228.5,88.5C 230.826,86.0029 232.993,83.3362 235,80.5C 235.5,81.5 236,82.5 236.5,83.5C 234.556,87.331 233.223,91.331 232.5,95.5C 231.848,96.4486 231.514,97.6153 231.5,99C 232.095,102.341 233.095,105.507 234.5,108.5C 234.167,109.5 233.833,110.5 233.5,111.5C 231.605,110.027 229.939,108.36 228.5,106.5C 227.943,108.332 226.943,109.665 225.5,110.5C 225.234,106.429 225.567,102.429 226.5,98.5C 226.154,97.3044 225.654,97.3044 225,98.5C 224.505,96.5273 224.338,94.5273 224.5,92.5C 224.5,92.1667 224.5,91.8333 224.5,91.5C 226.855,86.1874 225.188,82.5207 219.5,80.5C 218.667,78.5 217.833,76.5 217,74.5C 211.368,71.3765 207.868,66.7098 206.5,60.5 Z"/></g>
<g><path style="opacity:1" fill="#37b537" d="M 222.5,88.5 C 224.048,88.8212 224.715,89.8212 224.5,91.5C 224.5,91.8333 224.5,92.1667 224.5,92.5C 222.974,93.4919 222.307,94.9919 222.5,97C 223.167,99.3333 223.833,101.667 224.5,104C 224.392,105.681 223.725,106.848 222.5,107.5C 220.873,105.37 219.04,103.37 217,101.5C 215.55,95.7378 217.383,91.4045 222.5,88.5 Z"/></g>
<g><path style="opacity:1" fill="#37b537" d="M 91.5,89.5 C 96.0295,92.2827 97.5295,96.2827 96,101.5C 93.9604,103.37 92.1271,105.37 90.5,107.5C 89.3065,107.03 88.6399,106.03 88.5,104.5C 90.6117,100.361 90.9451,96.0275 89.5,91.5C 89.7472,90.2867 90.4138,89.62 91.5,89.5 Z"/></g>
<g><path style="opacity:1" fill="#1e641e" d="M 86.5,85.5 C 86.2041,89.5431 85.5375,93.5431 84.5,97.5C 85.6533,101.774 86.32,106.107 86.5,110.5C 85.8386,109.282 85.1719,107.949 84.5,106.5C 83.0613,108.36 81.3947,110.027 79.5,111.5C 79.1667,110.5 78.8333,109.5 78.5,108.5C 80.0924,104.971 81.4257,101.305 82.5,97.5C 80.2956,93.078 78.6289,88.4113 77.5,83.5C 77.6667,82.5 77.8333,81.5 78,80.5C 80.0074,83.3362 82.1741,86.0029 84.5,88.5C 85.1757,87.3984 85.8423,86.3984 86.5,85.5 Z"/></g>
<g><path style="opacity:1" fill="#247724" d="M 145.5,86.5 C 142.052,85.98 140.386,83.98 140.5,80.5C 139.127,80.3433 137.793,80.51 136.5,81C 137.451,81.7175 137.617,82.5509 137,83.5C 135.867,81.7888 134.367,81.2888 132.5,82C 126.201,87.4272 123.368,94.2605 124,102.5C 126.399,105.415 128.566,108.415 130.5,111.5C 139.128,123.341 146.461,136.008 152.5,149.5C 155.041,152.1 157.541,152.1 160,149.5C 167.495,134.806 175.662,120.806 184.5,107.5C 188.099,104.856 189.766,101.189 189.5,96.5C 189.41,94.7722 189.077,93.1056 188.5,91.5C 186.004,88.1589 183.671,84.6589 181.5,81C 179.741,80.2025 178.074,80.3691 176.5,81.5C 174.911,87.422 171.244,91.422 165.5,93.5C 168.265,89.6296 170.265,85.2963 171.5,80.5C 172.514,77.3111 174.18,74.4778 176.5,72C 178.167,71.3333 179.833,71.3333 181.5,72C 186.289,79.0752 190.956,86.2418 195.5,93.5C 196.647,95.7649 196.814,98.0982 196,100.5C 193.631,103.366 191.465,106.366 189.5,109.5C 185.051,117.757 180.884,126.09 177,134.5C 170.467,142.226 165.467,150.892 162,160.5C 159.047,165.359 155.714,165.693 152,161.5C 150.151,157.115 148.151,152.782 146,148.5C 141.543,143.916 138.376,138.583 136.5,132.5C 129.182,122.449 122.682,111.782 117,100.5C 116.21,97.366 116.543,94.366 118,91.5C 121.333,86.1667 124.667,80.8333 128,75.5C 130.157,73.282 132.657,72.1154 135.5,72C 140.184,75.9068 143.517,80.7401 145.5,86.5 Z"/></g>
<g><path style="opacity:1" fill="#184d19" d="M 184.5,107.5 C 175.662,120.806 167.495,134.806 160,149.5C 157.541,152.1 155.041,152.1 152.5,149.5C 146.461,136.008 139.128,123.341 130.5,111.5C 128.451,106.809 126.785,101.976 125.5,97C 125.331,93.1486 126.997,90.6486 130.5,89.5C 126.147,96.0495 126.813,102.05 132.5,107.5C 139.512,121.021 147.179,134.188 155.5,147C 156.996,147.507 158.163,147.007 159,145.5C 163.032,139.434 166.532,133.101 169.5,126.5C 171.588,124.664 172.921,122.331 173.5,119.5C 177.586,114.335 180.92,108.668 183.5,102.5C 185.385,100.205 185.885,97.538 185,94.5C 183.401,91.6222 181.567,88.9555 179.5,86.5C 175.364,90.9687 172.03,95.9687 169.5,101.5C 168.167,102.833 166.833,104.167 165.5,105.5C 165.933,102.834 166.433,100.168 167,97.5C 170.025,93.9761 172.858,90.3094 175.5,86.5C 178.041,83.8997 180.541,83.8997 183,86.5C 184.333,89.1667 185.667,91.8333 187,94.5C 187.667,96.5 187.667,98.5 187,100.5C 185.711,102.645 184.878,104.978 184.5,107.5 Z"/></g>
<g><path style="opacity:1" fill="#1e8180" d="M 132.5,107.5 C 140.231,118.264 147.231,129.597 153.5,141.5C 155.074,142.631 156.741,142.798 158.5,142C 162.453,137.943 165.286,133.11 167,127.5C 167.671,126.748 168.504,126.414 169.5,126.5C 166.532,133.101 163.032,139.434 159,145.5C 158.163,147.007 156.996,147.507 155.5,147C 147.179,134.188 139.512,121.021 132.5,107.5 Z"/></g>
<g><path style="opacity:1" fill="#249a99" d="M 183.5,102.5 C 180.92,108.668 177.586,114.335 173.5,119.5C 174.772,116.652 175.605,113.652 176,110.5C 180.37,106.068 181.87,100.902 180.5,95C 178.299,94.1751 176.466,94.6751 175,96.5C 171.29,102.087 167.457,107.587 163.5,113C 156.441,116.06 150.608,114.56 146,108.5C 143.319,104.809 141.485,100.809 140.5,96.5C 143.875,102.049 147.875,107.216 152.5,112C 158.989,113.99 163.322,111.823 165.5,105.5C 166.833,104.167 168.167,102.833 169.5,101.5C 171.934,98.8292 174.267,95.9958 176.5,93C 178.568,92.3131 180.568,92.4798 182.5,93.5C 183.484,96.4281 183.817,99.4281 183.5,102.5 Z"/></g>
<g><path style="opacity:1" fill="#184d18" d="M 152.5,98.5 C 155.814,99.329 159.148,99.6623 162.5,99.5C 160.243,102.282 159.577,105.282 160.5,108.5C 161.695,106.703 163.362,105.703 165.5,105.5C 163.322,111.823 158.989,113.99 152.5,112C 147.875,107.216 143.875,102.049 140.5,96.5C 138.647,93.3052 136.647,90.1385 134.5,87C 133.833,86.3333 133.167,86.3333 132.5,87C 131.934,87.9947 131.267,88.828 130.5,89.5C 130.014,85.491 131.68,83.6577 135.5,84C 141.78,91.773 147.446,99.9397 152.5,108.5C 153.423,105.282 152.757,102.282 150.5,99.5C 150.957,98.7025 151.624,98.3691 152.5,98.5 Z"/></g>
<g><path style="opacity:1" fill="#30c2c2" d="M 140.5,96.5 C 141.485,100.809 143.319,104.809 146,108.5C 150.608,114.56 156.441,116.06 163.5,113C 167.457,107.587 171.29,102.087 175,96.5C 176.466,94.6751 178.299,94.1751 180.5,95C 181.87,100.902 180.37,106.068 176,110.5C 175.605,113.652 174.772,116.652 173.5,119.5C 172.921,122.331 171.588,124.664 169.5,126.5C 168.504,126.414 167.671,126.748 167,127.5C 165.286,133.11 162.453,137.943 158.5,142C 156.741,142.798 155.074,142.631 153.5,141.5C 147.231,129.597 140.231,118.264 132.5,107.5C 130.922,103.288 130.422,98.9549 131,94.5C 131.739,93.4258 132.739,92.7591 134,92.5C 136.262,93.7125 138.429,95.0459 140.5,96.5 Z"/></g>
<g><path style="opacity:1" fill="#1e631e" d="M 184.5,107.5 C 184.878,104.978 185.711,102.645 187,100.5C 187.667,98.5 187.667,96.5 187,94.5C 185.667,91.8333 184.333,89.1667 183,86.5C 180.541,83.8997 178.041,83.8997 175.5,86.5C 172.858,90.3094 170.025,93.9761 167,97.5C 166.433,100.168 165.933,102.834 165.5,105.5C 163.362,105.703 161.695,106.703 160.5,108.5C 159.577,105.282 160.243,102.282 162.5,99.5C 159.148,99.6623 155.814,99.329 152.5,98.5C 154.857,98.6633 157.19,98.4966 159.5,98C 161.66,96.668 163.66,95.168 165.5,93.5C 171.244,91.422 174.911,87.422 176.5,81.5C 178.074,80.3691 179.741,80.2025 181.5,81C 183.671,84.6589 186.004,88.1589 188.5,91.5C 189.077,93.1056 189.41,94.7722 189.5,96.5C 189.766,101.189 188.099,104.856 184.5,107.5 Z"/></g>
<g><path style="opacity:1" fill="#1b7372" d="M 183.5,102.5 C 183.817,99.4281 183.484,96.4281 182.5,93.5C 180.568,92.4798 178.568,92.3131 176.5,93C 174.267,95.9958 171.934,98.8292 169.5,101.5C 172.03,95.9687 175.364,90.9687 179.5,86.5C 181.567,88.9555 183.401,91.6222 185,94.5C 185.885,97.538 185.385,100.205 183.5,102.5 Z"/></g>
<g><path style="opacity:1" fill="#2b8f2b" d="M 171.5,80.5 C 170.265,85.2963 168.265,89.6296 165.5,93.5C 163.66,95.168 161.66,96.668 159.5,98C 157.19,98.4966 154.857,98.6633 152.5,98.5C 151.139,96.1495 149.806,93.8162 148.5,91.5C 149.815,92.4756 151.148,93.4756 152.5,94.5C 152.833,94.1667 153.167,93.8333 153.5,93.5C 151.914,91.8273 151.247,89.8273 151.5,87.5C 152.969,89.8357 154.302,92.3357 155.5,95C 156.167,95.6667 156.833,95.6667 157.5,95C 158.085,93.6976 158.751,92.531 159.5,91.5C 159.238,92.9778 159.571,94.3112 160.5,95.5C 160.833,95.3333 161.167,95.1667 161.5,95C 165.126,90.2351 168.46,85.4018 171.5,80.5 Z"/></g>
<g><path style="opacity:1" fill="#206a20" d="M 145.5,86.5 C 146.11,88.4341 147.11,90.1007 148.5,91.5C 149.806,93.8162 151.139,96.1495 152.5,98.5C 151.624,98.3691 150.957,98.7025 150.5,99.5C 152.757,102.282 153.423,105.282 152.5,108.5C 147.446,99.9397 141.78,91.773 135.5,84C 131.68,83.6577 130.014,85.491 130.5,89.5C 126.997,90.6486 125.331,93.1486 125.5,97C 126.785,101.976 128.451,106.809 130.5,111.5C 128.566,108.415 126.399,105.415 124,102.5C 123.368,94.2605 126.201,87.4272 132.5,82C 134.367,81.2888 135.867,81.7888 137,83.5C 137.617,82.5509 137.451,81.7175 136.5,81C 137.793,80.51 139.127,80.3433 140.5,80.5C 140.386,83.98 142.052,85.98 145.5,86.5 Z"/></g>
<g><path style="opacity:1" fill="#1a7270" d="M 140.5,96.5 C 138.429,95.0459 136.262,93.7125 134,92.5C 132.739,92.7591 131.739,93.4258 131,94.5C 130.422,98.9549 130.922,103.288 132.5,107.5C 126.813,102.05 126.147,96.0495 130.5,89.5C 131.267,88.828 131.934,87.9947 132.5,87C 133.167,86.3333 133.833,86.3333 134.5,87C 136.647,90.1385 138.647,93.3052 140.5,96.5 Z"/></g>
<g><path style="opacity:1" fill="#b07017" d="M 265.5,58.5 C 264.624,58.3691 263.957,58.7025 263.5,59.5C 262.547,62.426 261.213,65.0926 259.5,67.5C 253.463,74.9003 248.13,82.9003 243.5,91.5C 242.675,92.3857 241.675,92.719 240.5,92.5C 241.266,87.1798 241.432,81.8465 241,76.5C 239.824,74.8043 238.657,73.1376 237.5,71.5C 232.78,69.3158 227.78,67.8158 222.5,67C 216.575,63.7505 212.908,58.9172 211.5,52.5C 211.529,50.9707 212.196,49.804 213.5,49C 230.833,48.3333 248.167,48.3333 265.5,49C 266.395,52.0951 266.395,55.2617 265.5,58.5 Z"/></g>
<g><path style="opacity:1" fill="#4e320b" d="M 269.5,48.5 C 270.451,49.9187 270.784,51.5853 270.5,53.5C 270.167,54.8333 269.833,56.1667 269.5,57.5C 265.414,62.6649 262.08,68.3315 259.5,74.5C 254.597,81.9642 249.93,89.6309 245.5,97.5C 244.391,97.5569 243.391,97.8902 242.5,98.5C 245.358,92.7964 248.858,87.4631 253,82.5C 254.663,77.1844 256.83,72.1844 259.5,67.5C 261.213,65.0926 262.547,62.426 263.5,59.5C 263.957,58.7025 264.624,58.3691 265.5,58.5C 268.46,55.9003 269.794,52.567 269.5,48.5 Z"/></g>
<g><path style="opacity:1" fill="#895610" d="M 264.5,46.5 C 266.284,46.8925 267.95,47.5592 269.5,48.5C 269.794,52.567 268.46,55.9003 265.5,58.5C 266.395,55.2617 266.395,52.0951 265.5,49C 248.167,48.3333 230.833,48.3333 213.5,49C 212.196,49.804 211.529,50.9707 211.5,52.5C 212.908,58.9172 216.575,63.7505 222.5,67C 227.78,67.8158 232.78,69.3158 237.5,71.5C 238.657,73.1376 239.824,74.8043 241,76.5C 241.432,81.8465 241.266,87.1798 240.5,92.5C 241.675,92.719 242.675,92.3857 243.5,91.5C 248.13,82.9003 253.463,74.9003 259.5,67.5C 256.83,72.1844 254.663,77.1844 253,82.5C 248.858,87.4631 245.358,92.7964 242.5,98.5C 240.533,98.7394 238.699,98.4061 237,97.5C 238.102,90.2503 238.436,82.917 238,75.5C 236.59,74.2125 235.09,73.0458 233.5,72C 228.744,70.9776 224.077,69.6443 219.5,68C 218.167,65.8094 216.5,63.976 214.5,62.5C 212.204,61.267 210.87,59.267 210.5,56.5C 210.277,54.6583 209.943,52.825 209.5,51C 209.439,49.2894 210.106,47.956 211.5,47C 229.164,46.5001 246.83,46.3334 264.5,46.5 Z"/></g>
<g><path style="opacity:1" fill="#56360a" d="M 214.5,62.5 C 216.5,63.976 218.167,65.8094 219.5,68C 224.077,69.6443 228.744,70.9776 233.5,72C 235.09,73.0458 236.59,74.2125 238,75.5C 238.436,82.917 238.102,90.2503 237,97.5C 238.699,98.4061 240.533,98.7394 242.5,98.5C 241.31,101.077 239.31,101.91 236.5,101C 234.887,98.7724 234.22,96.2724 234.5,93.5C 237.561,88.0244 238.061,82.3577 236,76.5C 232.346,73.7087 228.18,72.3754 223.5,72.5C 219.112,70.4438 216.112,67.1105 214.5,62.5 Z"/></g>
<g><path style="opacity:1" fill="#bf7b1a" d="M 237.5,71.5 C 236.524,70.1851 235.524,68.8518 234.5,67.5C 230.112,66.1531 225.779,64.6531 221.5,63C 218.885,59.9381 217.219,56.4381 216.5,52.5C 231.195,51.0189 245.862,51.1856 260.5,53C 260.927,55.1281 260.427,57.2947 259,59.5C 254.917,66.6676 250.584,73.6676 246,80.5C 244.581,78.6641 243.414,76.6641 242.5,74.5C 241.06,73.0476 239.394,72.0476 237.5,71.5 Z"/></g>
<g><path style="opacity:1" fill="#2f2209" d="M 270.5,53.5 C 270.784,51.5853 270.451,49.9187 269.5,48.5C 267.95,47.5592 266.284,46.8925 264.5,46.5C 246.671,45.338 228.671,45.1713 210.5,46C 206.58,49.5425 206.58,53.0425 210.5,56.5C 210.87,59.267 212.204,61.267 214.5,62.5C 216.112,67.1105 219.112,70.4438 223.5,72.5C 221.738,72.6427 220.071,72.3094 218.5,71.5C 213.003,65.1796 208.503,58.1796 205,50.5C 204.505,48.5273 204.338,46.5273 204.5,44.5C 227.169,44.3334 249.836,44.5 272.5,45C 273.787,48.2694 273.12,51.1027 270.5,53.5 Z"/></g>
<g><path style="opacity:1" fill="#174d17" d="M 269.5,57.5 C 269.833,56.1667 270.167,54.8333 270.5,53.5C 273.12,51.1027 273.787,48.2694 272.5,45C 249.836,44.5 227.169,44.3334 204.5,44.5C 204.338,46.5273 204.505,48.5273 205,50.5C 208.503,58.1796 213.003,65.1796 218.5,71.5C 220.071,72.3094 221.738,72.6427 223.5,72.5C 228.18,72.3754 232.346,73.7087 236,76.5C 238.061,82.3577 237.561,88.0244 234.5,93.5C 233.833,94.1667 233.167,94.8333 232.5,95.5C 233.223,91.331 234.556,87.331 236.5,83.5C 236,82.5 235.5,81.5 235,80.5C 232.993,83.3362 230.826,86.0029 228.5,88.5C 227.364,85.0626 225.364,82.2293 222.5,80C 234.388,77.4033 234.054,75.7366 221.5,75C 219.779,73.4728 217.779,72.4728 215.5,72C 212.255,68.267 209.255,64.4337 206.5,60.5C 204.508,56.887 202.508,53.2203 200.5,49.5C 200.085,46.632 201.085,44.4653 203.5,43C 227.864,42.1958 252.197,42.3625 276.5,43.5C 276.725,49.5668 274.392,54.2335 269.5,57.5 Z"/></g>
<g><path style="opacity:1" fill="#57370b" d="M 264.5,46.5 C 246.83,46.3334 229.164,46.5001 211.5,47C 210.106,47.956 209.439,49.2894 209.5,51C 209.943,52.825 210.277,54.6583 210.5,56.5C 206.58,53.0425 206.58,49.5425 210.5,46C 228.671,45.1713 246.671,45.338 264.5,46.5 Z"/></g>
<g><path style="opacity:1" fill="#1e641e" d="M 215.5,155.5 C 218.644,150.206 220.977,144.539 222.5,138.5C 224.193,137.525 225.693,136.192 227,134.5C 229.239,129.923 231.905,125.589 235,121.5C 235.973,119.608 236.64,117.608 237,115.5C 246.416,102.909 253.916,89.2425 259.5,74.5C 262.08,68.3315 265.414,62.6649 269.5,57.5C 274.392,54.2335 276.725,49.5668 276.5,43.5C 252.197,42.3625 227.864,42.1958 203.5,43C 201.085,44.4653 200.085,46.632 200.5,49.5C 199.853,48.7261 199.52,47.7261 199.5,46.5C 201.019,43.3993 201.685,40.066 201.5,36.5C 228.175,36.1669 254.842,36.5002 281.5,37.5C 281.023,38.4776 280.357,39.3109 279.5,40C 281.267,46.6308 279.267,51.7975 273.5,55.5C 269.109,65.2843 263.942,74.6177 258,83.5C 256.226,89.7141 253.393,95.3808 249.5,100.5C 250.025,101.192 250.692,101.692 251.5,102C 250.978,102.561 250.645,103.228 250.5,104C 249.576,105.811 248.743,105.645 248,103.5C 238.519,120.46 228.519,137.127 218,153.5C 217.292,154.381 216.458,155.047 215.5,155.5 Z"/></g>
<g><path style="opacity:0.004" fill="#59995e" d="M 118.5,240.5 C 117.833,239.167 117.833,239.167 118.5,240.5 Z"/></g>
<g><path style="opacity:0.004" fill="#539c56" d="M 118.5,240.5 C 118.833,240.5 119.167,240.5 119.5,240.5C 119.315,241.17 118.981,241.17 118.5,240.5 Z"/></g>
<g><path style="opacity:0.004" fill="#579c5a" d="M 121.5,243.5 C 120.833,244.167 120.833,244.167 121.5,243.5 Z"/></g>
<g><path style="opacity:0.004" fill="#529656" d="M 191.5,243.5 C 192.833,244.167 192.833,244.167 191.5,243.5 Z"/></g>
<g><path style="opacity:0.004" fill="#549658" d="M 121.5,246.5 C 122.833,247.167 122.833,247.167 121.5,246.5 Z"/></g>
<g><path style="opacity:0.004" fill="#56965a" d="M 190.5,246.5 C 191.833,247.167 191.833,247.167 190.5,246.5 Z"/></g>
<g><path style="opacity:0.004" fill="#59995d" d="M 123.5,249.5 C 124.833,250.167 124.833,250.167 123.5,249.5 Z"/></g>
<g><path style="opacity:0.004" fill="#5a995e" d="M 188.5,249.5 C 189.833,250.167 189.833,250.167 188.5,249.5 Z"/></g>
<g><path style="opacity:0.004" fill="#549c58" d="M 124.5,251.5 C 125.833,252.167 125.833,252.167 124.5,251.5 Z"/></g>
<g><path style="opacity:0.004" fill="#559c58" d="M 187.5,251.5 C 188.833,252.167 188.833,252.167 187.5,251.5 Z"/></g>
<g><path style="opacity:1" fill="#686b67" d="M 92.5,170.5 C 93.4584,170.953 94.2917,171.619 95,172.5C 112.428,203.695 130.094,234.695 148,265.5C 150.406,268.247 153.073,270.58 156,272.5C 159.529,270.985 162.529,268.652 165,265.5C 178.58,241.338 192.413,217.338 206.5,193.5C 204.194,200.109 201.361,206.442 198,212.5C 191.906,219.924 187.573,228.258 185,237.5C 179.659,244.174 175.325,251.507 172,259.5C 171,260.167 170,260.833 169,261.5C 165.7,267.63 162.2,273.63 158.5,279.5C 155.433,281.052 152.933,280.385 151,277.5C 147.058,269.95 143.391,262.283 140,254.5C 138.488,253.743 137.154,252.743 136,251.5C 132.338,245.527 129.838,239.194 128.5,232.5C 127.5,232.5 126.5,232.5 125.5,232.5C 126.077,229.45 124.91,227.45 122,226.5C 119.299,221.76 116.966,216.76 115,211.5C 111.19,207.547 108.69,202.88 107.5,197.5C 100.15,189.8 95.1503,180.8 92.5,170.5 Z"/></g>
<g><path style="opacity:1" fill="#161306" d="M 162.5,241.5 C 161.213,244.453 159.213,246.786 156.5,248.5C 154.721,247.606 153.388,246.273 152.5,244.5C 154.924,244.808 157.257,244.474 159.5,243.5C 160.005,242.081 161.005,241.415 162.5,241.5 Z"/></g>
<g><path style="opacity:1" fill="#b47318" d="M 147.5,231.5 C 147.857,226.13 147.024,221.13 145,216.5C 148.134,219.212 151.8,220.545 156,220.5C 159.202,220.666 161.369,219.333 162.5,216.5C 166.783,215.94 170.283,213.94 173,210.5C 173.167,210.833 173.333,211.167 173.5,211.5C 169.239,220.647 164.239,229.314 158.5,237.5C 157.277,238.614 155.944,238.781 154.5,238C 152.524,235.363 150.191,233.197 147.5,231.5 Z"/></g>
<g><path style="opacity:0.004" fill="#5a995f" d="M 130.5,261.5 C 129.833,260.167 129.833,260.167 130.5,261.5 Z"/></g>
<g><path style="opacity:0.004" fill="#5d9961" d="M 182.5,260.5 C 183.833,261.167 183.833,261.167 182.5,260.5 Z"/></g>
<g><path style="opacity:0.004" fill="#539b56" d="M 130.5,261.5 C 131.833,262.167 131.833,262.167 130.5,261.5 Z"/></g>
<g><path style="opacity:0.004" fill="#549958" d="M 182.5,261.5 C 181.833,262.167 181.833,262.167 182.5,261.5 Z"/></g>
<g><path style="opacity:0.004" fill="#5b9d5f" d="M 133.5,264.5 C 133.103,265.525 132.437,265.692 131.5,265C 132.094,264.536 132.761,264.369 133.5,264.5 Z"/></g>
<g><path style="opacity:0.004" fill="#599b5d" d="M 135.5,269.5 C 134.833,268.167 134.833,268.167 135.5,269.5 Z"/></g>
<g><path style="opacity:0.004" fill="#5b9760" d="M 178.5,268.5 C 179.833,269.167 179.833,269.167 178.5,268.5 Z"/></g>
<g><path style="opacity:0.004" fill="#549b58" d="M 135.5,269.5 C 135.833,269.5 136.167,269.5 136.5,269.5C 136.315,270.17 135.981,270.17 135.5,269.5 Z"/></g>
<g><path style="opacity:0.004" fill="#659c69" d="M 176.5,271.5 C 177.833,272.167 177.833,272.167 176.5,271.5 Z"/></g>
<g><path style="opacity:0.004" fill="#629e66" d="M 138.5,275.5 C 139.833,276.167 139.833,276.167 138.5,275.5 Z"/></g>
<g><path style="opacity:0.106" fill="#297a28" d="M 136.5,267.5 C 142.745,276.32 148.745,285.32 154.5,294.5C 153.609,293.89 152.609,293.557 151.5,293.5C 151.5,292.833 151.167,292.5 150.5,292.5C 148.735,289.291 146.735,286.291 144.5,283.5C 144.459,281.255 143.625,280.588 142,281.5C 139.904,280.285 140.071,279.451 142.5,279C 140.637,275.66 138.637,272.493 136.5,269.5C 136.5,268.833 136.5,268.167 136.5,267.5 Z"/></g>
<g><path style="opacity:0.004" fill="#649e68" d="M 170.5,279.5 C 173.001,279.511 173.168,280.178 171,281.5C 170.536,280.906 170.369,280.239 170.5,279.5 Z"/></g>
<g><path style="opacity:0.09" fill="#217121" d="M 173.5,272.5 C 172.758,274.98 171.758,277.313 170.5,279.5C 167.857,283.435 165.19,287.435 162.5,291.5C 161.148,292.524 159.815,293.524 158.5,294.5C 163.503,287.158 168.503,279.825 173.5,272.5 Z"/></g>
<g><path style="opacity:0.004" fill="#5f9d63" d="M 144.5,283.5 C 143.833,284.167 143.833,284.167 144.5,283.5 Z"/></g>
<g><path style="opacity:0.004" fill="#5f9a63" d="M 168.5,283.5 C 169.833,284.167 169.833,284.167 168.5,283.5 Z"/></g>
<g><path style="opacity:0.004" fill="#609365" d="M 144.5,286.5 C 143.833,285.167 143.833,285.167 144.5,286.5 Z"/></g>
<g><path style="opacity:0.004" fill="#639367" d="M 168.5,285.5 C 169.833,286.167 169.833,286.167 168.5,285.5 Z"/></g>
<g><path style="opacity:0.004" fill="#5f9964" d="M 144.5,286.5 C 145.833,287.167 145.833,287.167 144.5,286.5 Z"/></g>
<g><path style="opacity:0.004" fill="#6a996e" d="M 163.5,291.5 C 164.833,292.167 164.833,292.167 163.5,291.5 Z"/></g>
<g><path style="opacity:0.004" fill="#78a17c" d="M 150.5,292.5 C 151.167,292.5 151.5,292.833 151.5,293.5C 151.5,293.833 151.5,294.167 151.5,294.5C 149.576,294.289 149.243,293.623 150.5,292.5 Z"/></g>
<g><path style="opacity:0.004" fill="#789e7b" d="M 161.5,294.5 C 161.897,293.475 162.563,293.308 163.5,294C 162.906,294.464 162.239,294.631 161.5,294.5 Z"/></g>
<g><path style="opacity:0.004" fill="#74a178" d="M 151.5,294.5 C 152.167,294.5 152.5,294.833 152.5,295.5C 152.167,295.167 151.833,294.833 151.5,294.5 Z"/></g>
<g><path style="opacity:0.004" fill="#78a27b" d="M 161.5,294.5 C 160.833,295.167 160.833,295.167 161.5,294.5 Z"/></g>
<g><path style="opacity:0.004" fill="#649768" d="M 152.5,295.5 C 153.833,296.167 153.833,296.167 152.5,295.5 Z"/></g>
<g><path style="opacity:0.004" fill="#609265" d="M 160.5,295.5 C 159.833,296.167 159.833,296.167 160.5,295.5 Z"/></g>
</svg>
