<?xml version="1.0" encoding="UTF-8"?>
<!DOCTYPE svg PUBLIC "-//W3C//DTD SVG 1.1//EN" "http://www.w3.org/Graphics/SVG/1.1/DTD/svg11.dtd">
<svg xmlns="http://www.w3.org/2000/svg" version="1.1" width="100%" viewBox="0 0 304 304" style="shape-rendering:geometricPrecision; text-rendering:geometricPrecision; image-rendering:optimizeQuality; fill-rule:evenodd; clip-rule:evenodd" xmlns:xlink="http://www.w3.org/1999/xlink">
<g><path style="opacity:0.693" fill="#020106" d="M 100.5,-0.5 C 134.167,-0.5 167.833,-0.5 201.5,-0.5C 201.783,0.28913 202.283,0.955796 203,1.5C 203.5,33.8316 203.667,66.1649 203.5,98.5C 219.167,98.5 234.833,98.5 250.5,98.5C 250.5,98.8333 250.5,99.1667 250.5,99.5C 264.994,100.331 279.661,100.831 294.5,101C 296.305,101.972 297.972,103.139 299.5,104.5C 300.833,136.167 300.833,167.833 299.5,199.5C 296.907,201.071 295.907,203.404 296.5,206.5C 265.833,206.5 235.167,206.5 204.5,206.5C 204.667,238.168 204.5,269.835 204,301.5C 203.283,302.044 202.783,302.711 202.5,303.5C 168.5,303.5 134.5,303.5 100.5,303.5C 100.217,302.711 99.7172,302.044 99,301.5C 98.5,270.168 98.3334,238.835 98.5,207.5C 88.5,207.5 78.5,207.5 68.5,207.5C 68.3893,206.883 68.056,206.383 67.5,206C 46.8333,205.667 26.1667,205.333 5.5,205C 3.7834,203.441 1.7834,202.608 -0.5,202.5C -0.5,167.833 -0.5,133.167 -0.5,98.5C 1.71702,97.6314 4.05035,97.298 6.5,97.5C 30.8333,98.8333 55.1667,98.8333 79.5,97.5C 85.8333,97.5 92.1667,97.5 98.5,97.5C 98.3334,65.4983 98.5,33.4983 99,1.5C 99.7172,0.955796 100.217,0.28913 100.5,-0.5 Z"/></g>
<g><path style="opacity:1" fill="#170c91" d="M 189.5,8.5 C 189.5,9.16667 189.5,9.83333 189.5,10.5C 188.833,10.5 188.5,10.8333 188.5,11.5C 183.514,14.8206 179.18,18.8206 175.5,23.5C 175.5,23.8333 175.5,24.1667 175.5,24.5C 172.569,27.2496 169.402,29.9163 166,32.5C 165.5,56.4977 165.333,80.4977 165.5,104.5C 162.827,107.506 160.16,110.506 157.5,113.5C 156.502,121.472 156.169,129.472 156.5,137.5C 158.415,137.784 160.081,137.451 161.5,136.5C 164.491,134.877 166.824,132.543 168.5,129.5C 169.167,127.5 170.5,126.167 172.5,125.5C 174.433,123.404 176.767,121.904 179.5,121C 182.371,116.313 185.705,112.147 189.5,108.5C 191.5,107.5 193.5,106.5 195.5,105.5C 195.5,106.167 195.5,106.833 195.5,107.5C 195.842,108.338 196.508,108.672 197.5,108.5C 197.167,109.167 196.833,109.833 196.5,110.5C 193.48,112.523 191.146,115.19 189.5,118.5C 188.527,118.987 187.527,119.487 186.5,120C 182.465,123.948 178.798,128.115 175.5,132.5C 174.761,132.369 174.094,132.536 173.5,133C 171.707,135.795 169.54,138.295 167,140.5C 166.505,142.473 166.338,144.473 166.5,146.5C 174.019,146.825 181.352,146.492 188.5,145.5C 188.5,145.167 188.5,144.833 188.5,144.5C 189.167,144.5 189.5,144.167 189.5,143.5C 191.632,141.045 194.299,139.379 197.5,138.5C 221.317,137.549 244.984,137.216 268.5,137.5C 273.86,131.473 279.527,125.806 285.5,120.5C 287.797,118.706 289.963,116.706 292,114.5C 292.167,127.167 292.333,139.833 292.5,152.5C 292.499,165.518 291.832,178.185 290.5,190.5C 288.833,189.167 287.167,187.833 285.5,186.5C 280.833,179.833 275.167,174.167 268.5,169.5C 245.004,168.668 221.337,168.168 197.5,168C 195.531,166.5 194.198,164.667 193.5,162.5C 191.731,159.723 189.398,157.723 186.5,156.5C 180.013,155.346 173.346,155.179 166.5,156C 165.199,157.616 165.199,159.116 166.5,160.5C 171.966,169.977 179.3,177.977 188.5,184.5C 190.5,185.833 192.167,187.5 193.5,189.5C 194.609,191.554 195.609,193.721 196.5,196C 195.511,228.802 195.177,261.635 195.5,294.5C 193.821,294.715 192.821,294.048 192.5,292.5C 192.5,291.5 192.5,290.5 192.5,289.5C 192.5,259.833 192.5,230.167 192.5,200.5C 188.511,194.845 183.844,189.845 178.5,185.5C 176.5,181.5 173.5,178.5 169.5,176.5C 167.443,172.933 164.777,169.766 161.5,167C 160.167,166.333 158.833,166.333 157.5,167C 156.174,173.599 156.174,180.099 157.5,186.5C 158.504,191.2 161.171,194.867 165.5,197.5C 165.836,222.017 166.836,246.35 168.5,270.5C 173.167,275.833 178.167,280.833 183.5,285.5C 184.08,287.749 185.413,289.415 187.5,290.5C 187.511,292.017 188.177,293.184 189.5,294C 163.33,294.83 137.33,294.663 111.5,293.5C 111.833,292.833 112.167,292.167 112.5,291.5C 112.833,291.5 113.167,291.5 113.5,291.5C 115.89,290.109 117.557,288.109 118.5,285.5C 118.5,284.833 118.833,284.5 119.5,284.5C 124.193,280.139 128.859,275.805 133.5,271.5C 133.5,270.833 133.5,270.167 133.5,269.5C 133.833,269.5 134.167,269.5 134.5,269.5C 135.332,246.004 135.832,222.337 136,198.5C 139,195.5 142,192.5 145,189.5C 145.5,182.174 145.666,174.841 145.5,167.5C 143.585,167.216 141.919,167.549 140.5,168.5C 137.588,170.066 134.921,172.066 132.5,174.5C 126.194,180.806 119.86,187.14 113.5,193.5C 112.048,194.94 111.048,196.606 110.5,198.5C 109.833,198.833 109.167,199.167 108.5,199.5C 107.609,198.89 106.609,198.557 105.5,198.5C 105.5,198.167 105.5,197.833 105.5,197.5C 104.737,196.732 103.737,196.232 102.5,196C 103.056,195.617 103.389,195.117 103.5,194.5C 104.833,193.833 105.833,192.833 106.5,191.5C 108.5,190.167 110.167,188.5 111.5,186.5C 113.5,183.833 115.833,181.5 118.5,179.5C 122.876,176.126 126.542,172.126 129.5,167.5C 130.857,166.41 131.857,165.076 132.5,163.5C 133.822,163.67 134.989,163.337 136,162.5C 136.667,160.5 136.667,158.5 136,156.5C 128.166,155.082 120.333,155.249 112.5,157C 110.21,158.777 108.543,160.944 107.5,163.5C 106.032,164.806 104.699,166.306 103.5,168C 80.169,168.5 56.8357,168.667 33.5,168.5C 27.1667,172.833 21.8333,178.167 17.5,184.5C 16.5,185.167 15.5,185.833 14.5,186.5C 13.2652,186.721 12.2652,187.388 11.5,188.5C 10.3335,164.507 10.1669,140.507 11,116.5C 12.3297,117.582 13.8297,118.249 15.5,118.5C 17.8333,122.833 21.1667,126.167 25.5,128.5C 26.5323,131.707 28.5323,134.207 31.5,136C 38.8258,136.5 46.1591,136.666 53.5,136.5C 70.8333,136.5 88.1667,136.5 105.5,136.5C 105.5,136.833 105.5,137.167 105.5,137.5C 107.569,140.573 110.236,142.906 113.5,144.5C 113.918,145.222 114.584,145.722 115.5,146C 121.833,146.667 128.167,146.667 134.5,146C 137.066,144.121 137.066,142.288 134.5,140.5C 133.833,140.167 133.167,139.833 132.5,139.5C 128.227,133.558 123.227,128.224 117.5,123.5C 115.167,121.833 113.167,119.833 111.5,117.5C 109.833,113.833 107.167,111.167 103.5,109.5C 103.167,109.5 102.833,109.5 102.5,109.5C 71.5977,108.172 40.5977,108.172 9.5,109.5C 9.5,108.5 9.5,107.5 9.5,106.5C 42.0043,106.832 74.3376,106.498 106.5,105.5C 107.5,104.167 108.5,104.167 109.5,105.5C 111.167,106.833 112.833,108.167 114.5,109.5C 114.833,110.167 115.167,110.833 115.5,111.5C 117.806,115.806 121.139,119.139 125.5,121.5C 127.833,123.5 130.167,125.5 132.5,127.5C 134.989,131.478 138.155,134.811 142,137.5C 143.03,137.164 143.53,136.497 143.5,135.5C 144.5,135.167 145.167,134.5 145.5,133.5C 146.653,127.347 146.82,121.014 146,114.5C 145.617,113.944 145.117,113.611 144.5,113.5C 141.833,111.167 139.167,108.833 136.5,106.5C 136.667,81.8311 136.5,57.1644 136,32.5C 135.329,31.7476 134.496,31.4142 133.5,31.5C 131.5,28.8333 129.167,26.5 126.5,24.5C 123.5,19.5 119.5,15.5 114.5,12.5C 113.167,11.8333 112.167,10.8333 111.5,9.5C 137.328,8.5022 163.328,8.16887 189.5,8.5 Z"/></g>
<g><path style="opacity:1" fill="#0c055c" d="M 195.5,105.5 C 193.5,106.5 191.5,107.5 189.5,108.5C 190.5,107.167 191.5,105.833 192.5,104.5C 193.833,89.1812 194.499,73.5145 194.5,57.5C 194.333,41.8333 194.167,26.1667 194,10.5C 192.89,8.96317 191.39,8.2965 189.5,8.5C 163.328,8.16887 137.328,8.5022 111.5,9.5C 110.209,9.26269 109.209,9.59603 108.5,10.5C 107.833,25.8297 107.5,41.3297 107.5,57C 107.529,73.3178 108.196,89.4845 109.5,105.5C 108.5,104.167 107.5,104.167 106.5,105.5C 106.5,72.8333 106.5,40.1667 106.5,7.5C 136.167,7.5 165.833,7.5 195.5,7.5C 195.5,40.1667 195.5,72.8333 195.5,105.5 Z"/></g>
<g><path style="opacity:1" fill="#484394" d="M 114.5,12.5 C 119.5,15.5 123.5,19.5 126.5,24.5C 122.167,20.8333 118.167,16.8333 114.5,12.5 Z"/></g>
<g><path style="opacity:1" fill="#faf3f5" d="M 112.5,13.5 C 119.201,20.203 126.201,26.5364 133.5,32.5C 133.5,33.1667 133.5,33.8333 133.5,34.5C 133.5,47.8333 133.5,61.1667 133.5,74.5C 132.792,81.3698 131.958,88.3698 131,95.5C 130.307,76.1138 128.974,56.7804 127,37.5C 123.019,34.3532 119.186,31.0199 115.5,27.5C 114.076,32.7294 113.243,38.0628 113,43.5C 112.667,43.1667 112.333,42.8333 112,42.5C 111.202,36.0228 110.702,29.5228 110.5,23C 110.515,19.4242 111.182,16.2575 112.5,13.5 Z"/></g>
<g><path style="opacity:1" fill="#a6a0b5" d="M 189.5,10.5 C 190.791,10.2627 191.791,10.596 192.5,11.5C 191.325,11.281 190.325,11.6143 189.5,12.5C 184.425,18.2418 179.092,23.5752 173.5,28.5C 173.733,26.9382 174.4,25.6049 175.5,24.5C 175.5,24.1667 175.5,23.8333 175.5,23.5C 180.46,20.2077 184.793,16.2077 188.5,11.5C 188.5,10.8333 188.833,10.5 189.5,10.5 Z"/></g>
<g><path style="opacity:1" fill="#d2ccd0" d="M 192.5,11.5 C 192.5,42.5 192.5,73.5 192.5,104.5C 192.167,104.5 191.833,104.5 191.5,104.5C 191.5,103.5 191.5,102.5 191.5,101.5C 191.667,72.1648 191.5,42.8314 191,13.5C 184.194,20.773 177.027,27.4396 169.5,33.5C 169.5,32.8333 169.5,32.1667 169.5,31.5C 170.833,30.5 172.167,29.5 173.5,28.5C 179.092,23.5752 184.425,18.2418 189.5,12.5C 190.325,11.6143 191.325,11.281 192.5,11.5 Z"/></g>
<g><path style="opacity:1" fill="#5c5499" d="M 188.5,11.5 C 184.793,16.2077 180.46,20.2077 175.5,23.5C 179.18,18.8206 183.514,14.8206 188.5,11.5 Z"/></g>
<g><path style="opacity:1" fill="#92859f" d="M 111.5,9.5 C 112.167,10.8333 113.167,11.8333 114.5,12.5C 118.167,16.8333 122.167,20.8333 126.5,24.5C 129.167,26.5 131.5,28.8333 133.5,31.5C 133.5,31.8333 133.5,32.1667 133.5,32.5C 126.201,26.5364 119.201,20.203 112.5,13.5C 112.189,12.5222 111.522,11.8555 110.5,11.5C 109.503,18.8032 109.169,26.1365 109.5,33.5C 109.5,38.1667 109.5,42.8333 109.5,47.5C 108.505,35.3446 108.171,23.0113 108.5,10.5C 109.209,9.59603 110.209,9.26269 111.5,9.5 Z"/></g>
<g><path style="opacity:1" fill="#f8cdda" d="M 187.5,94.5 C 186.67,83.6743 186.17,72.6743 186,61.5C 185.886,56.7997 184.719,52.4664 182.5,48.5C 177.648,47.2772 174.481,48.9438 173,53.5C 172.667,62.5 172.333,71.5 172,80.5C 170.883,81.9494 170.216,83.6161 170,85.5C 169.5,73.8381 169.333,62.1714 169.5,50.5C 170.222,50.9175 170.722,51.5842 171,52.5C 171.995,47.5465 172.662,42.5465 173,37.5C 175.722,34.5564 178.889,32.2231 182.5,30.5C 183.812,37.2286 185.312,43.8953 187,50.5C 187.5,65.1629 187.667,79.8295 187.5,94.5 Z"/></g>
<g><path style="opacity:1" fill="#f8dbe2" d="M 112.5,13.5 C 111.182,16.2575 110.515,19.4242 110.5,23C 110.702,29.5228 111.202,36.0228 112,42.5C 112.333,42.8333 112.667,43.1667 113,43.5C 113.243,38.0628 114.076,32.7294 115.5,27.5C 119.186,31.0199 123.019,34.3532 127,37.5C 128.974,56.7804 130.307,76.1138 131,95.5C 131.958,88.3698 132.792,81.3698 133.5,74.5C 133.333,85.505 133.5,96.505 134,107.5C 134.671,108.252 135.504,108.586 136.5,108.5C 137.713,111.225 139.546,113.559 142,115.5C 142.667,120.167 142.667,124.833 142,129.5C 140.702,128.44 139.535,127.274 138.5,126C 137.95,122.085 137.117,118.252 136,114.5C 133.708,113.21 131.708,111.543 130,109.5C 128.711,103.912 128.211,98.2449 128.5,92.5C 128.667,80.8286 128.5,69.1619 128,57.5C 127.645,51.3917 126.645,45.3917 125,39.5C 123.647,37.5664 122.147,35.7331 120.5,34C 118.299,33.1751 116.466,33.6751 115,35.5C 114.74,41.5506 114.073,47.5506 113,53.5C 112.34,50.322 111.507,47.322 110.5,44.5C 110.815,40.6286 110.482,36.9619 109.5,33.5C 109.169,26.1365 109.503,18.8032 110.5,11.5C 111.522,11.8555 112.189,12.5222 112.5,13.5 Z"/></g>
<g><path style="opacity:1" fill="#7d72a0" d="M 133.5,32.5 C 134.117,32.6107 134.617,32.944 135,33.5C 135.5,57.1643 135.667,80.831 135.5,104.5C 134.833,81.1667 134.167,57.8333 133.5,34.5C 133.5,33.8333 133.5,33.1667 133.5,32.5 Z"/></g>
<g><path style="opacity:1" fill="#3e3594" d="M 133.5,32.5 C 133.5,32.1667 133.5,31.8333 133.5,31.5C 134.496,31.4142 135.329,31.7476 136,32.5C 136.5,57.1644 136.667,81.8311 136.5,106.5C 135.662,106.158 135.328,105.492 135.5,104.5C 135.667,80.831 135.5,57.1643 135,33.5C 134.617,32.944 134.117,32.6107 133.5,32.5 Z"/></g>
<g><path style="opacity:1" fill="#fcf1f3" d="M 191.5,101.5 C 190.603,102.598 189.77,102.598 189,101.5C 187.798,99.3225 187.298,96.9892 187.5,94.5C 187.667,79.8295 187.5,65.1629 187,50.5C 185.312,43.8953 183.812,37.2286 182.5,30.5C 178.889,32.2231 175.722,34.5564 173,37.5C 172.662,42.5465 171.995,47.5465 171,52.5C 170.722,51.5842 170.222,50.9175 169.5,50.5C 169.5,44.8333 169.5,39.1667 169.5,33.5C 177.027,27.4396 184.194,20.773 191,13.5C 191.5,42.8314 191.667,72.1648 191.5,101.5 Z"/></g>
<g><path style="opacity:1" fill="#856997" d="M 169.5,31.5 C 169.5,32.1667 169.5,32.8333 169.5,33.5C 168.883,33.6107 168.383,33.944 168,34.5C 167.5,57.831 167.333,81.1643 167.5,104.5C 167.167,104.5 166.833,104.5 166.5,104.5C 166.333,80.831 166.5,57.1643 167,33.5C 167.708,32.6195 168.542,31.9528 169.5,31.5 Z"/></g>
<g><path style="opacity:1" fill="#f7c8d6" d="M 128.5,92.5 C 127.732,91.7375 127.232,90.7375 127,89.5C 126.568,77.455 125.735,65.455 124.5,53.5C 121.5,53.5 118.5,53.5 115.5,53.5C 115.196,67.8847 114.363,82.218 113,96.5C 112.617,95.944 112.117,95.6107 111.5,95.5C 111.403,78.4943 111.07,61.4943 110.5,44.5C 111.507,47.322 112.34,50.322 113,53.5C 114.073,47.5506 114.74,41.5506 115,35.5C 116.466,33.6751 118.299,33.1751 120.5,34C 122.147,35.7331 123.647,37.5664 125,39.5C 126.645,45.3917 127.645,51.3917 128,57.5C 128.5,69.1619 128.667,80.8286 128.5,92.5 Z"/></g>
<g><path style="opacity:1" fill="#4a3992" d="M 175.5,24.5 C 174.4,25.6049 173.733,26.9382 173.5,28.5C 172.167,29.5 170.833,30.5 169.5,31.5C 168.542,31.9528 167.708,32.6195 167,33.5C 166.5,57.1643 166.333,80.831 166.5,104.5C 166.167,104.5 165.833,104.5 165.5,104.5C 165.333,80.4977 165.5,56.4977 166,32.5C 169.402,29.9163 172.569,27.2496 175.5,24.5 Z"/></g>
<g><path style="opacity:1" fill="#5a527f" d="M 189.5,8.5 C 191.39,8.2965 192.89,8.96317 194,10.5C 194.167,26.1667 194.333,41.8333 194.5,57.5C 194.499,73.5145 193.833,89.1812 192.5,104.5C 192.5,73.5 192.5,42.5 192.5,11.5C 191.791,10.596 190.791,10.2627 189.5,10.5C 189.5,9.83333 189.5,9.16667 189.5,8.5 Z"/></g>
<g><path style="opacity:1" fill="#e6aac2" d="M 128.5,92.5 C 128.211,98.2449 128.711,103.912 130,109.5C 131.708,111.543 133.708,113.21 136,114.5C 137.117,118.252 137.95,122.085 138.5,126C 139.535,127.274 140.702,128.44 142,129.5C 142.667,124.833 142.667,120.167 142,115.5C 139.546,113.559 137.713,111.225 136.5,108.5C 139.167,110.5 141.5,112.833 143.5,115.5C 143.916,121.952 143.416,128.285 142,134.5C 134.384,126.048 126.551,117.715 118.5,109.5C 117.273,107.419 115.773,105.419 114,103.5C 112.293,101.091 111.46,98.4245 111.5,95.5C 112.117,95.6107 112.617,95.944 113,96.5C 114.363,82.218 115.196,67.8847 115.5,53.5C 118.5,53.5 121.5,53.5 124.5,53.5C 125.735,65.455 126.568,77.455 127,89.5C 127.232,90.7375 127.732,91.7375 128.5,92.5 Z"/></g>
<g><path style="opacity:1" fill="#e4a7bf" d="M 184.5,102.5 C 183.566,99.3443 182.899,96.0109 182.5,92.5C 179.881,92.2317 177.381,92.565 175,93.5C 173.855,98.0826 173.189,102.749 173,107.5C 171.615,110.386 169.449,112.386 166.5,113.5C 168.416,110.991 170.249,108.324 172,105.5C 172.501,96.1547 173.167,86.8214 174,77.5C 174.273,72.5548 176.773,70.7215 181.5,72C 182.191,73.0674 182.691,74.2341 183,75.5C 184.106,84.4674 184.606,93.4674 184.5,102.5 Z"/></g>
<g><path style="opacity:1" fill="#b9a8b5" d="M 133.5,34.5 C 134.167,57.8333 134.833,81.1667 135.5,104.5C 135.328,105.492 135.662,106.158 136.5,106.5C 136.5,107.167 136.5,107.833 136.5,108.5C 135.504,108.586 134.671,108.252 134,107.5C 133.5,96.505 133.333,85.505 133.5,74.5C 133.5,61.1667 133.5,47.8333 133.5,34.5 Z"/></g>
<g><path style="opacity:1" fill="#d2a2b6" d="M 109.5,33.5 C 110.482,36.9619 110.815,40.6286 110.5,44.5C 111.07,61.4943 111.403,78.4943 111.5,95.5C 111.46,98.4245 112.293,101.091 114,103.5C 115.773,105.419 117.273,107.419 118.5,109.5C 117.833,109.5 117.167,109.5 116.5,109.5C 115.833,109.5 115.167,109.5 114.5,109.5C 112.822,106.636 111.322,103.636 110,100.5C 109.5,82.8365 109.333,65.1698 109.5,47.5C 109.5,42.8333 109.5,38.1667 109.5,33.5 Z"/></g>
<g><path style="opacity:1" fill="#e9b3c8" d="M 169.5,33.5 C 169.5,39.1667 169.5,44.8333 169.5,50.5C 169.333,62.1714 169.5,73.8381 170,85.5C 170.216,83.6161 170.883,81.9494 172,80.5C 172.333,71.5 172.667,62.5 173,53.5C 174.481,48.9438 177.648,47.2772 182.5,48.5C 184.719,52.4664 185.886,56.7997 186,61.5C 186.17,72.6743 186.67,83.6743 187.5,94.5C 187.298,96.9892 187.798,99.3225 189,101.5C 189.77,102.598 190.603,102.598 191.5,101.5C 191.5,102.5 191.5,103.5 191.5,104.5C 190.833,104.5 190.167,104.5 189.5,104.5C 187.486,104.608 185.82,103.942 184.5,102.5C 184.606,93.4674 184.106,84.4674 183,75.5C 182.691,74.2341 182.191,73.0674 181.5,72C 176.773,70.7215 174.273,72.5548 174,77.5C 173.167,86.8214 172.501,96.1547 172,105.5C 170.249,108.324 168.416,110.991 166.5,113.5C 164.907,114.348 163.74,115.681 163,117.5C 162.617,116.944 162.117,116.611 161.5,116.5C 163.108,112.248 165.108,108.248 167.5,104.5C 167.333,81.1643 167.5,57.831 168,34.5C 168.383,33.944 168.883,33.6107 169.5,33.5 Z"/></g>
<g><path style="opacity:1" fill="#765b82" d="M 108.5,10.5 C 108.171,23.0113 108.505,35.3446 109.5,47.5C 109.333,65.1698 109.5,82.8365 110,100.5C 111.322,103.636 112.822,106.636 114.5,109.5C 112.833,108.167 111.167,106.833 109.5,105.5C 108.196,89.4845 107.529,73.3178 107.5,57C 107.5,41.3297 107.833,25.8297 108.5,10.5 Z"/></g>
<g><path style="opacity:0.102" fill="#717171" d="M 79.5,97.5 C 55.1667,98.8333 30.8333,98.8333 6.5,97.5C 30.8333,96.1667 55.1667,96.1667 79.5,97.5 Z"/></g>
<g><path style="opacity:0.035" fill="#4b4b4b" d="M 250.5,99.5 C 250.5,99.1667 250.5,98.8333 250.5,98.5C 266.837,98.3334 283.17,98.5001 299.5,99C 300.252,99.6708 300.586,100.504 300.5,101.5C 300.44,102.043 300.107,102.376 299.5,102.5C 298.713,101.758 298.047,100.925 297.5,100C 281.837,99.5001 266.17,99.3334 250.5,99.5 Z"/></g>
<g><path style="opacity:1" fill="#d898b1" d="M 184.5,102.5 C 185.82,103.942 187.486,104.608 189.5,104.5C 186.982,107.078 184.149,109.411 181,111.5C 180.691,112.766 180.191,113.933 179.5,115C 175.164,116.934 172.164,120.101 170.5,124.5C 167.094,126.935 163.761,129.268 160.5,131.5C 160.503,126.473 160.836,121.473 161.5,116.5C 162.117,116.611 162.617,116.944 163,117.5C 163.74,115.681 164.907,114.348 166.5,113.5C 169.449,112.386 171.615,110.386 173,107.5C 173.189,102.749 173.855,98.0826 175,93.5C 177.381,92.565 179.881,92.2317 182.5,92.5C 182.899,96.0109 183.566,99.3443 184.5,102.5 Z"/></g>
<g><path style="opacity:0.088" fill="#151515" d="M 250.5,99.5 C 266.17,99.3334 281.837,99.5001 297.5,100C 298.047,100.925 298.713,101.758 299.5,102.5C 300.107,102.376 300.44,102.043 300.5,101.5C 301.833,118.153 302.5,135.153 302.5,152.5C 302.333,169.5 302.167,186.5 302,203.5C 300.512,205.16 298.679,206.16 296.5,206.5C 295.907,203.404 296.907,201.071 299.5,199.5C 300.833,167.833 300.833,136.167 299.5,104.5C 297.972,103.139 296.305,101.972 294.5,101C 279.661,100.831 264.994,100.331 250.5,99.5 Z"/></g>
<g><path style="opacity:1" fill="#070656" d="M 106.5,105.5 C 74.3376,106.498 42.0043,106.832 9.5,106.5C 9.5,107.5 9.5,108.5 9.5,109.5C 9.5,109.833 9.5,110.167 9.5,110.5C 9.43255,111.959 9.76589,113.292 10.5,114.5C 9.1675,126.982 8.50083,139.815 8.5,153C 8.50083,166.185 9.1675,179.018 10.5,191.5C 10.5,192.5 10.5,193.5 10.5,194.5C 8.45079,194.706 8.11746,195.539 9.5,197C 41.4983,197.5 73.4983,197.667 105.5,197.5C 105.5,197.833 105.5,198.167 105.5,198.5C 105.5,198.833 105.5,199.167 105.5,199.5C 72.8333,199.5 40.1667,199.5 7.5,199.5C 7.5,168.167 7.5,136.833 7.5,105.5C 40.5,105.5 73.5,105.5 106.5,105.5 Z"/></g>
<g><path style="opacity:1" fill="#726398" d="M 136.5,106.5 C 139.167,108.833 141.833,111.167 144.5,113.5C 144.5,114.167 144.5,114.833 144.5,115.5C 144.167,115.5 143.833,115.5 143.5,115.5C 141.5,112.833 139.167,110.5 136.5,108.5C 136.5,107.833 136.5,107.167 136.5,106.5 Z"/></g>
<g><path style="opacity:1" fill="#403192" d="M 102.5,109.5 C 71.4563,109.182 40.4563,109.515 9.5,110.5C 9.5,110.167 9.5,109.833 9.5,109.5C 40.5977,108.172 71.5977,108.172 102.5,109.5 Z"/></g>
<g><path style="opacity:1" fill="#403192" d="M 197.5,108.5 C 228.671,108.169 259.671,108.502 290.5,109.5C 259.123,109.182 227.79,109.515 196.5,110.5C 196.833,109.833 197.167,109.167 197.5,108.5 Z"/></g>
<g><path style="opacity:1" fill="#070350" d="M 195.5,105.5 C 228.427,106.492 261.427,106.826 294.5,106.5C 294.5,136.5 294.5,166.5 294.5,196.5C 294.167,196.5 293.833,196.5 293.5,196.5C 293.5,166.833 293.5,137.167 293.5,107.5C 260.833,107.5 228.167,107.5 195.5,107.5C 195.5,106.833 195.5,106.167 195.5,105.5 Z"/></g>
<g><path style="opacity:1" fill="#7c6198" d="M 102.5,109.5 C 102.833,109.5 103.167,109.5 103.5,109.5C 103.5,109.833 103.5,110.167 103.5,110.5C 73.1648,110.333 42.8315,110.5 12.5,111C 11.3157,112.145 11.3157,113.312 12.5,114.5C 11.8333,114.5 11.1667,114.5 10.5,114.5C 9.76589,113.292 9.43255,111.959 9.5,110.5C 40.4563,109.515 71.4563,109.182 102.5,109.5 Z"/></g>
<g><path style="opacity:1" fill="#443894" d="M 103.5,110.5 C 103.5,110.167 103.5,109.833 103.5,109.5C 107.167,111.167 109.833,113.833 111.5,117.5C 108.833,115.167 106.167,112.833 103.5,110.5 Z"/></g>
<g><path style="opacity:1" fill="#725381" d="M 114.5,109.5 C 115.167,109.5 115.833,109.5 116.5,109.5C 122.227,115.222 127.56,121.222 132.5,127.5C 130.167,125.5 127.833,123.5 125.5,121.5C 122.5,117.833 119.167,114.5 115.5,111.5C 115.167,110.833 114.833,110.167 114.5,109.5 Z"/></g>
<g><path style="opacity:1" fill="#9b7390" d="M 116.5,109.5 C 117.167,109.5 117.833,109.5 118.5,109.5C 126.551,117.715 134.384,126.048 142,134.5C 143.416,128.285 143.916,121.952 143.5,115.5C 143.833,115.5 144.167,115.5 144.5,115.5C 144.756,122.224 144.423,128.891 143.5,135.5C 143.53,136.497 143.03,137.164 142,137.5C 138.155,134.811 134.989,131.478 132.5,127.5C 127.56,121.222 122.227,115.222 116.5,109.5 Z"/></g>
<g><path style="opacity:1" fill="#b08ca9" d="M 103.5,110.5 C 106.167,112.833 108.833,115.167 111.5,117.5C 113.167,119.833 115.167,121.833 117.5,123.5C 117.5,124.167 117.5,124.833 117.5,125.5C 113.036,121.537 108.702,117.37 104.5,113C 102.323,111.798 99.9892,111.298 97.5,111.5C 69.4921,111.167 41.4921,111.5 13.5,112.5C 13.8627,113.183 14.1961,113.85 14.5,114.5C 13.8333,114.5 13.1667,114.5 12.5,114.5C 11.3157,113.312 11.3157,112.145 12.5,111C 42.8315,110.5 73.1648,110.333 103.5,110.5 Z"/></g>
<g><path style="opacity:1" fill="#a27da2" d="M 290.5,109.5 C 291.412,110.738 291.579,112.072 291,113.5C 288.96,115.37 287.127,117.37 285.5,119.5C 282.95,120.057 280.95,121.39 279.5,123.5C 279.5,122.167 279.5,120.833 279.5,119.5C 282.083,118.579 284.416,117.246 286.5,115.5C 288.104,114.713 288.771,113.38 288.5,111.5C 258.831,111.333 229.165,111.5 199.5,112C 198.099,112.41 196.766,112.91 195.5,113.5C 195.557,112.391 195.89,111.391 196.5,110.5C 227.79,109.515 259.123,109.182 290.5,109.5 Z"/></g>
<g><path style="opacity:1" fill="#f1b5cc" d="M 97.5,111.5 C 106.969,122.643 117.635,132.309 129.5,140.5C 129.265,141.097 128.765,141.43 128,141.5C 121.219,137.915 115.385,133.082 110.5,127C 109.552,126.517 108.552,126.351 107.5,126.5C 104.789,122.788 101.456,119.788 97.5,117.5C 97.4894,115.983 96.8228,114.816 95.5,114C 69.6366,113.82 43.8032,113.32 18,112.5C 16.9701,112.836 16.4701,113.503 16.5,114.5C 15.8333,114.5 15.1667,114.5 14.5,114.5C 14.1961,113.85 13.8627,113.183 13.5,112.5C 41.4921,111.5 69.4921,111.167 97.5,111.5 Z"/></g>
<g><path style="opacity:1" fill="#533f8c" d="M 196.5,110.5 C 195.89,111.391 195.557,112.391 195.5,113.5C 193.5,115.167 191.5,116.833 189.5,118.5C 191.146,115.19 193.48,112.523 196.5,110.5 Z"/></g>
<g><path style="opacity:1" fill="#3a278a" d="M 115.5,111.5 C 119.167,114.5 122.5,117.833 125.5,121.5C 121.139,119.139 117.806,115.806 115.5,111.5 Z"/></g>
<g><path style="opacity:1" fill="#e8a8c1" d="M 286.5,115.5 C 257.894,115.404 229.227,115.57 200.5,116C 194.333,122.167 188.167,128.333 182,134.5C 181.517,135.448 181.351,136.448 181.5,137.5C 184.272,137.595 186.272,138.929 187.5,141.5C 183.217,142.492 178.884,142.826 174.5,142.5C 171.366,141.892 170.699,140.226 172.5,137.5C 176.714,134.451 180.048,130.618 182.5,126C 187.186,123.139 191.353,119.639 195,115.5C 195.464,114.906 195.631,114.239 195.5,113.5C 196.766,112.91 198.099,112.41 199.5,112C 229.165,111.5 258.831,111.333 288.5,111.5C 288.771,113.38 288.104,114.713 286.5,115.5 Z"/></g>
<g><path style="opacity:1" fill="#180b84" d="M 10.5,114.5 C 11.1667,114.5 11.8333,114.5 12.5,114.5C 13.5,115.833 14.5,117.167 15.5,118.5C 13.8297,118.249 12.3297,117.582 11,116.5C 10.1669,140.507 10.3335,164.507 11.5,188.5C 12.2652,187.388 13.2652,186.721 14.5,186.5C 13.7515,188.332 12.7515,189.999 11.5,191.5C 11.1667,191.5 10.8333,191.5 10.5,191.5C 9.1675,179.018 8.50083,166.185 8.5,153C 8.50083,139.815 9.1675,126.982 10.5,114.5 Z"/></g>
<g><path style="opacity:1" fill="#8e6482" d="M 12.5,114.5 C 13.1667,114.5 13.8333,114.5 14.5,114.5C 15.1667,114.5 15.8333,114.5 16.5,114.5C 19.7523,117.085 21.7523,120.418 22.5,124.5C 20.1667,122.5 17.8333,120.5 15.5,118.5C 14.5,117.167 13.5,115.833 12.5,114.5 Z"/></g>
<g><path style="opacity:1" fill="#cb8ca5" d="M 97.5,117.5 C 101.456,119.788 104.789,122.788 107.5,126.5C 84.1902,128.49 60.5236,129.157 36.5,128.5C 36.719,127.325 36.3857,126.325 35.5,125.5C 32.7678,123.762 30.2678,121.762 28,119.5C 27.5172,118.552 27.3505,117.552 27.5,116.5C 50.8661,116.197 74.1994,116.53 97.5,117.5 Z"/></g>
<g><path style="opacity:1" fill="#ca8ba4" d="M 286.5,115.5 C 284.416,117.246 282.083,118.579 279.5,119.5C 279.5,120.833 279.5,122.167 279.5,123.5C 275.476,126.876 271.809,130.71 268.5,135C 266.19,135.497 263.857,135.663 261.5,135.5C 240.671,134.337 219.671,134.171 198.5,135C 196.865,136.748 194.865,137.915 192.5,138.5C 190.703,139.695 189.703,141.362 189.5,143.5C 189.5,144.167 189.167,144.5 188.5,144.5C 183.63,144.31 178.964,143.644 174.5,142.5C 178.884,142.826 183.217,142.492 187.5,141.5C 186.272,138.929 184.272,137.595 181.5,137.5C 181.351,136.448 181.517,135.448 182,134.5C 188.167,128.333 194.333,122.167 200.5,116C 229.227,115.57 257.894,115.404 286.5,115.5 Z"/></g>
<g><path style="opacity:1" fill="#695a8d" d="M 144.5,115.5 C 145.49,121.31 145.823,127.31 145.5,133.5C 145.167,134.5 144.5,135.167 143.5,135.5C 144.423,128.891 144.756,122.224 144.5,115.5 Z"/></g>
<g><path style="opacity:1" fill="#3e358e" d="M 144.5,113.5 C 145.117,113.611 145.617,113.944 146,114.5C 146.82,121.014 146.653,127.347 145.5,133.5C 145.823,127.31 145.49,121.31 144.5,115.5C 144.5,114.833 144.5,114.167 144.5,113.5 Z"/></g>
<g><path style="opacity:1" fill="#4c3489" d="M 189.5,108.5 C 185.705,112.147 182.371,116.313 179.5,121C 176.767,121.904 174.433,123.404 172.5,125.5C 173.048,123.606 174.048,121.94 175.5,120.5C 179.841,116.161 184.508,112.161 189.5,108.5 Z"/></g>
<g><path style="opacity:1" fill="#36247f" d="M 15.5,118.5 C 17.8333,120.5 20.1667,122.5 22.5,124.5C 23.5,125.833 24.5,127.167 25.5,128.5C 21.1667,126.167 17.8333,122.833 15.5,118.5 Z"/></g>
<g><path style="opacity:1" fill="#b5829c" d="M 166.5,104.5 C 166.833,104.5 167.167,104.5 167.5,104.5C 165.108,108.248 163.108,112.248 161.5,116.5C 160.836,121.473 160.503,126.473 160.5,131.5C 163.761,129.268 167.094,126.935 170.5,124.5C 172.164,120.101 175.164,116.934 179.5,115C 180.191,113.933 180.691,112.766 181,111.5C 184.149,109.411 186.982,107.078 189.5,104.5C 190.167,104.5 190.833,104.5 191.5,104.5C 191.833,104.5 192.167,104.5 192.5,104.5C 191.5,105.833 190.5,107.167 189.5,108.5C 184.508,112.161 179.841,116.161 175.5,120.5C 174.048,121.94 173.048,123.606 172.5,125.5C 170.5,126.167 169.167,127.5 168.5,129.5C 165.026,130.729 162.693,133.062 161.5,136.5C 160.5,136.5 159.5,136.5 158.5,136.5C 158.334,129.159 158.5,121.826 159,114.5C 161.741,111.271 164.241,107.938 166.5,104.5 Z"/></g>
<g><path style="opacity:1" fill="#866797" d="M 195.5,113.5 C 195.631,114.239 195.464,114.906 195,115.5C 191.353,119.639 187.186,123.139 182.5,126C 180.048,130.618 176.714,134.451 172.5,137.5C 173.075,135.589 174.075,133.922 175.5,132.5C 178.798,128.115 182.465,123.948 186.5,120C 187.527,119.487 188.527,118.987 189.5,118.5C 191.5,116.833 193.5,115.167 195.5,113.5 Z"/></g>
<g><path style="opacity:1" fill="#615396" d="M 117.5,123.5 C 123.227,128.224 128.227,133.558 132.5,139.5C 127.5,134.833 122.5,130.167 117.5,125.5C 117.5,124.833 117.5,124.167 117.5,123.5 Z"/></g>
<g><path style="opacity:1" fill="#66488e" d="M 165.5,104.5 C 165.833,104.5 166.167,104.5 166.5,104.5C 164.241,107.938 161.741,111.271 159,114.5C 158.5,121.826 158.334,129.159 158.5,136.5C 159.5,136.5 160.5,136.5 161.5,136.5C 160.081,137.451 158.415,137.784 156.5,137.5C 156.169,129.472 156.502,121.472 157.5,113.5C 160.16,110.506 162.827,107.506 165.5,104.5 Z"/></g>
<g><path style="opacity:1" fill="#e39db9" d="M 97.5,117.5 C 74.1994,116.53 50.8661,116.197 27.5,116.5C 27.3505,117.552 27.5172,118.552 28,119.5C 30.2678,121.762 32.7678,123.762 35.5,125.5C 36.3857,126.325 36.719,127.325 36.5,128.5C 60.5236,129.157 84.1902,128.49 107.5,126.5C 108.552,126.351 109.552,126.517 110.5,127C 115.385,133.082 121.219,137.915 128,141.5C 128.765,141.43 129.265,141.097 129.5,140.5C 129.833,140.5 130.167,140.5 130.5,140.5C 131.404,141.209 131.737,142.209 131.5,143.5C 125.811,142.763 120.144,141.763 114.5,140.5C 112.344,138.51 110.344,136.343 108.5,134C 84.5,133.667 60.5,133.333 36.5,133C 34.3257,129.63 31.3257,127.797 27.5,127.5C 26.9517,124.916 25.285,123.916 22.5,124.5C 21.7523,120.418 19.7523,117.085 16.5,114.5C 16.4701,113.503 16.9701,112.836 18,112.5C 43.8032,113.32 69.6366,113.82 95.5,114C 96.8228,114.816 97.4894,115.983 97.5,117.5 Z"/></g>
<g><path style="opacity:1" fill="#583e84" d="M 168.5,129.5 C 166.824,132.543 164.491,134.877 161.5,136.5C 162.693,133.062 165.026,130.729 168.5,129.5 Z"/></g>
<g><path style="opacity:1" fill="#f0cbda" d="M 97.5,111.5 C 99.9892,111.298 102.323,111.798 104.5,113C 108.702,117.37 113.036,121.537 117.5,125.5C 121.437,130.776 125.771,135.776 130.5,140.5C 130.167,140.5 129.833,140.5 129.5,140.5C 117.635,132.309 106.969,122.643 97.5,111.5 Z"/></g>
<g><path style="opacity:1" fill="#e69fbb" d="M 197.5,128.5 C 220.169,128.333 242.836,128.5 265.5,129C 267.863,129.589 268.863,131.089 268.5,133.5C 245.186,132.385 221.853,132.218 198.5,133C 197.347,134.883 195.681,135.716 193.5,135.5C 193.961,132.697 195.295,130.363 197.5,128.5 Z"/></g>
<g><path style="opacity:1" fill="#ae7c96" d="M 117.5,125.5 C 122.5,130.167 127.5,134.833 132.5,139.5C 133.167,139.833 133.833,140.167 134.5,140.5C 134.5,141.833 134.5,143.167 134.5,144.5C 127.5,144.5 120.5,144.5 113.5,144.5C 111.431,141.427 108.764,139.094 105.5,137.5C 105.5,137.167 105.5,136.833 105.5,136.5C 82.1879,134.674 58.5212,133.841 34.5,134C 31.6688,132.334 29.3355,130.168 27.5,127.5C 31.3257,127.797 34.3257,129.63 36.5,133C 60.5,133.333 84.5,133.667 108.5,134C 110.344,136.343 112.344,138.51 114.5,140.5C 120.144,141.763 125.811,142.763 131.5,143.5C 131.737,142.209 131.404,141.209 130.5,140.5C 125.771,135.776 121.437,130.776 117.5,125.5 Z"/></g>
<g><path style="opacity:1" fill="#78517d" d="M 22.5,124.5 C 25.285,123.916 26.9517,124.916 27.5,127.5C 29.3355,130.168 31.6688,132.334 34.5,134C 58.5212,133.841 82.1879,134.674 105.5,136.5C 88.1667,136.5 70.8333,136.5 53.5,136.5C 46.6787,135.671 39.6787,135.171 32.5,135C 30.2968,132.628 27.9635,130.461 25.5,128.5C 24.5,127.167 23.5,125.833 22.5,124.5 Z"/></g>
<g><path style="opacity:1" fill="#855c82" d="M 261.5,135.5 C 240.66,135.169 219.993,135.503 199.5,136.5C 198.5,136.833 197.833,137.5 197.5,138.5C 194.299,139.379 191.632,141.045 189.5,143.5C 189.703,141.362 190.703,139.695 192.5,138.5C 194.865,137.915 196.865,136.748 198.5,135C 219.671,134.171 240.671,134.337 261.5,135.5 Z"/></g>
<g><path style="opacity:1" fill="#462d8b" d="M 25.5,128.5 C 27.9635,130.461 30.2968,132.628 32.5,135C 39.6787,135.171 46.6787,135.671 53.5,136.5C 46.1591,136.666 38.8258,136.5 31.5,136C 28.5323,134.207 26.5323,131.707 25.5,128.5 Z"/></g>
<g><path style="opacity:1" fill="#583c7c" d="M 285.5,119.5 C 285.5,119.833 285.5,120.167 285.5,120.5C 279.527,125.806 273.86,131.473 268.5,137.5C 245.522,136.552 222.522,136.219 199.5,136.5C 219.993,135.503 240.66,135.169 261.5,135.5C 263.857,135.663 266.19,135.497 268.5,135C 271.809,130.71 275.476,126.876 279.5,123.5C 280.95,121.39 282.95,120.057 285.5,119.5 Z"/></g>
<g><path style="opacity:1" fill="#271984" d="M 199.5,136.5 C 222.522,136.219 245.522,136.552 268.5,137.5C 244.984,137.216 221.317,137.549 197.5,138.5C 197.833,137.5 198.5,136.833 199.5,136.5 Z"/></g>
<g><path style="opacity:1" fill="#573c88" d="M 105.5,137.5 C 108.764,139.094 111.431,141.427 113.5,144.5C 110.236,142.906 107.569,140.573 105.5,137.5 Z"/></g>
<g><path style="opacity:1" fill="#875f7e" d="M 172.5,137.5 C 170.699,140.226 171.366,141.892 174.5,142.5C 178.964,143.644 183.63,144.31 188.5,144.5C 188.5,144.833 188.5,145.167 188.5,145.5C 181.5,145.5 174.5,145.5 167.5,145.5C 167.5,141.825 169.167,139.159 172.5,137.5 Z"/></g>
<g><path style="opacity:1" fill="#684b89" d="M 134.5,140.5 C 137.066,142.288 137.066,144.121 134.5,146C 128.167,146.667 121.833,146.667 115.5,146C 114.584,145.722 113.918,145.222 113.5,144.5C 120.5,144.5 127.5,144.5 134.5,144.5C 134.5,143.167 134.5,141.833 134.5,140.5 Z"/></g>
<g><path style="opacity:1" fill="#453087" d="M 175.5,132.5 C 174.075,133.922 173.075,135.589 172.5,137.5C 169.167,139.159 167.5,141.825 167.5,145.5C 174.5,145.5 181.5,145.5 188.5,145.5C 181.352,146.492 174.019,146.825 166.5,146.5C 166.338,144.473 166.505,142.473 167,140.5C 169.54,138.295 171.707,135.795 173.5,133C 174.094,132.536 174.761,132.369 175.5,132.5 Z"/></g>
<g><path style="opacity:1" fill="#41338c" d="M 186.5,156.5 C 180.158,156.334 173.825,156.5 167.5,157C 166.663,158.011 166.33,159.178 166.5,160.5C 165.199,159.116 165.199,157.616 166.5,156C 173.346,155.179 180.013,155.346 186.5,156.5 Z"/></g>
<g><path style="opacity:1" fill="#58468a" d="M 132.5,163.5 C 132.5,163.167 132.5,162.833 132.5,162.5C 134.256,161.448 134.923,159.781 134.5,157.5C 128.642,157.178 122.975,157.511 117.5,158.5C 116.833,158.5 116.167,158.5 115.5,158.5C 114.448,158.351 113.448,158.517 112.5,159C 110.963,160.707 109.296,162.207 107.5,163.5C 108.543,160.944 110.21,158.777 112.5,157C 120.333,155.249 128.166,155.082 136,156.5C 136.667,158.5 136.667,160.5 136,162.5C 134.989,163.337 133.822,163.67 132.5,163.5 Z"/></g>
<g><path style="opacity:1" fill="#7b618a" d="M 186.5,156.5 C 189.398,157.723 191.731,159.723 193.5,162.5C 191.456,161.969 189.789,160.802 188.5,159C 184.514,158.501 180.514,158.334 176.5,158.5C 173.753,158.187 171.086,158.52 168.5,159.5C 169.127,160.417 169.461,161.417 169.5,162.5C 168.5,161.833 167.5,161.167 166.5,160.5C 166.33,159.178 166.663,158.011 167.5,157C 173.825,156.5 180.158,156.334 186.5,156.5 Z"/></g>
<g><path style="opacity:1" fill="#a78a9d" d="M 132.5,162.5 C 132.167,162.5 131.833,162.5 131.5,162.5C 131.5,161.5 131.5,160.5 131.5,159.5C 126.637,159.819 121.97,159.486 117.5,158.5C 122.975,157.511 128.642,157.178 134.5,157.5C 134.923,159.781 134.256,161.448 132.5,162.5 Z"/></g>
<g><path style="opacity:1" fill="#d6acbe" d="M 176.5,158.5 C 180.514,158.334 184.514,158.501 188.5,159C 189.789,160.802 191.456,161.969 193.5,162.5C 193.149,165.812 194.482,168.145 197.5,169.5C 197.842,170.338 198.508,170.672 199.5,170.5C 192.069,173.292 187.069,170.792 184.5,163C 181.316,162.246 178.649,160.746 176.5,158.5 Z"/></g>
<g><path style="opacity:1" fill="#c37f9a" d="M 115.5,158.5 C 116.167,158.5 116.833,158.5 117.5,158.5C 121.97,159.486 126.637,159.819 131.5,159.5C 131.5,160.5 131.5,161.5 131.5,162.5C 130.292,163.234 128.959,163.567 127.5,163.5C 127.5,164.5 127.5,165.5 127.5,166.5C 125.453,166.511 123.453,166.844 121.5,167.5C 119.896,167.061 118.396,166.394 117,165.5C 115.141,168.203 112.641,169.869 109.5,170.5C 107.97,170.36 106.97,169.693 106.5,168.5C 108.817,164.518 111.817,161.185 115.5,158.5 Z"/></g>
<g><path style="opacity:1" fill="#341f80" d="M 166.5,160.5 C 167.5,161.167 168.5,161.833 169.5,162.5C 170.801,163.882 171.634,165.548 172,167.5C 177.703,173.035 183.203,178.702 188.5,184.5C 179.3,177.977 171.966,169.977 166.5,160.5 Z"/></g>
<g><path style="opacity:1" fill="#8e6894" d="M 115.5,158.5 C 111.817,161.185 108.817,164.518 106.5,168.5C 104.236,169.219 101.903,169.552 99.5,169.5C 78.4974,169.333 57.4974,169.5 36.5,170C 35.5,170.333 34.5,170.667 33.5,171C 28.6313,176.037 23.6313,180.87 18.5,185.5C 18.5,185.167 18.5,184.833 18.5,184.5C 23.5,179.167 28.5,173.833 33.5,168.5C 56.8357,168.667 80.169,168.5 103.5,168C 104.699,166.306 106.032,164.806 107.5,163.5C 109.296,162.207 110.963,160.707 112.5,159C 113.448,158.517 114.448,158.351 115.5,158.5 Z"/></g>
<g><path style="opacity:1" fill="#8c6b97" d="M 193.5,162.5 C 194.198,164.667 195.531,166.5 197.5,168C 221.337,168.168 245.004,168.668 268.5,169.5C 244.833,169.5 221.167,169.5 197.5,169.5C 194.482,168.145 193.149,165.812 193.5,162.5 Z"/></g>
<g><path style="opacity:1" fill="#c495ab" d="M 197.5,169.5 C 221.167,169.5 244.833,169.5 268.5,169.5C 268.833,170.167 269.167,170.833 269.5,171.5C 267.545,170.677 265.545,170.51 263.5,171C 268.71,176.546 274.21,181.712 280,186.5C 281.257,186.15 281.591,185.483 281,184.5C 276.896,180.905 273.396,176.905 270.5,172.5C 275.5,177.167 280.5,181.833 285.5,186.5C 285.733,188.062 286.4,189.395 287.5,190.5C 287.44,191.043 287.107,191.376 286.5,191.5C 282.432,189.158 278.432,186.824 274.5,184.5C 270.303,179.468 265.636,174.968 260.5,171C 240.169,170.5 219.836,170.333 199.5,170.5C 198.508,170.672 197.842,170.338 197.5,169.5 Z"/></g>
<g><path style="opacity:1" fill="#736097" d="M 268.5,169.5 C 275.167,174.167 280.833,179.833 285.5,186.5C 280.5,181.833 275.5,177.167 270.5,172.5C 269.833,172.5 269.5,172.167 269.5,171.5C 269.167,170.833 268.833,170.167 268.5,169.5 Z"/></g>
<g><path style="opacity:1" fill="#9f829e" d="M 140.5,168.5 C 141.5,168.5 142.5,168.5 143.5,168.5C 143.825,175.687 143.491,182.687 142.5,189.5C 142.5,189.167 142.5,188.833 142.5,188.5C 142.666,182.158 142.5,175.825 142,169.5C 140.955,170.373 140.122,171.373 139.5,172.5C 137.833,173.833 136.167,175.167 134.5,176.5C 136.091,173.569 138.091,170.902 140.5,168.5 Z"/></g>
<g><path style="opacity:1" fill="#c17e99" d="M 99.5,169.5 C 103.619,171.604 103.286,173.104 98.5,174C 77.1589,174.167 55.8255,174.667 34.5,175.5C 31.1724,178.494 27.8391,181.494 24.5,184.5C 21.9162,185.048 20.9162,186.715 21.5,189.5C 19.2188,189.923 17.5521,189.256 16.5,187.5C 16.8333,186.5 17.5,185.833 18.5,185.5C 23.6313,180.87 28.6313,176.037 33.5,171C 34.5,170.667 35.5,170.333 36.5,170C 57.4974,169.5 78.4974,169.333 99.5,169.5 Z"/></g>
<g><path style="opacity:1" fill="#c57f9a" d="M 176.5,158.5 C 178.649,160.746 181.316,162.246 184.5,163C 187.069,170.792 192.069,173.292 199.5,170.5C 219.836,170.333 240.169,170.5 260.5,171C 265.636,174.968 270.303,179.468 274.5,184.5C 274.167,184.5 273.833,184.5 273.5,184.5C 270.036,181.538 266.703,178.371 263.5,175C 239.5,174.333 215.5,174.333 191.5,175C 192.595,179.112 194.928,182.445 198.5,185C 197.833,185.167 197.167,185.333 196.5,185.5C 195.01,184.16 193.344,183.16 191.5,182.5C 184.345,175.331 177.011,168.664 169.5,162.5C 169.461,161.417 169.127,160.417 168.5,159.5C 171.086,158.52 173.753,158.187 176.5,158.5 Z"/></g>
<g><path style="opacity:1" fill="#5c428e" d="M 33.5,168.5 C 28.5,173.833 23.5,179.167 18.5,184.5C 18.1667,184.5 17.8333,184.5 17.5,184.5C 21.8333,178.167 27.1667,172.833 33.5,168.5 Z"/></g>
<g><path style="opacity:1" fill="#604480" d="M 140.5,168.5 C 138.091,170.902 136.091,173.569 134.5,176.5C 126.852,181.815 120.186,188.148 114.5,195.5C 113.167,196.5 111.833,197.5 110.5,198.5C 111.048,196.606 112.048,194.94 113.5,193.5C 119.86,187.14 126.194,180.806 132.5,174.5C 134.921,172.066 137.588,170.066 140.5,168.5 Z"/></g>
<g><path style="opacity:1" fill="#46307e" d="M 169.5,176.5 C 167.833,175.167 166.167,173.833 164.5,172.5C 163.044,169.465 160.877,168.131 158,168.5C 157.501,174.491 157.334,180.491 157.5,186.5C 156.174,180.099 156.174,173.599 157.5,167C 158.833,166.333 160.167,166.333 161.5,167C 164.777,169.766 167.443,172.933 169.5,176.5 Z"/></g>
<g><path style="opacity:1" fill="#514290" d="M 169.5,176.5 C 173.5,178.5 176.5,181.5 178.5,185.5C 175.167,182.833 172.167,179.833 169.5,176.5 Z"/></g>
<g><path style="opacity:1" fill="#a8637e" d="M 273.5,184.5 C 249.189,186.49 224.523,187.157 199.5,186.5C 199.433,187.959 199.766,189.292 200.5,190.5C 196.274,189.204 193.274,186.538 191.5,182.5C 193.344,183.16 195.01,184.16 196.5,185.5C 197.167,185.333 197.833,185.167 198.5,185C 194.928,182.445 192.595,179.112 191.5,175C 215.5,174.333 239.5,174.333 263.5,175C 266.703,178.371 270.036,181.538 273.5,184.5 Z"/></g>
<g><path style="opacity:1" fill="#a6617c" d="M 131.5,162.5 C 131.833,162.5 132.167,162.5 132.5,162.5C 132.5,162.833 132.5,163.167 132.5,163.5C 131.857,165.076 130.857,166.41 129.5,167.5C 127.629,167.859 126.129,168.859 125,170.5C 122.59,173.397 120.423,176.397 118.5,179.5C 115.833,181.5 113.5,183.833 111.5,186.5C 108.833,187.167 107.167,188.833 106.5,191.5C 105.391,191.557 104.391,191.89 103.5,192.5C 103.548,189.708 102.215,187.875 99.5,187C 74.1466,187.159 49.1466,186.326 24.5,184.5C 27.8391,181.494 31.1724,178.494 34.5,175.5C 55.8255,174.667 77.1589,174.167 98.5,174C 103.286,173.104 103.619,171.604 99.5,169.5C 101.903,169.552 104.236,169.219 106.5,168.5C 106.97,169.693 107.97,170.36 109.5,170.5C 112.641,169.869 115.141,168.203 117,165.5C 118.396,166.394 119.896,167.061 121.5,167.5C 123.453,166.844 125.453,166.511 127.5,166.5C 127.5,165.5 127.5,164.5 127.5,163.5C 128.959,163.567 130.292,163.234 131.5,162.5 Z"/></g>
<g><path style="opacity:1" fill="#50307b" d="M 129.5,167.5 C 126.542,172.126 122.876,176.126 118.5,179.5C 120.423,176.397 122.59,173.397 125,170.5C 126.129,168.859 127.629,167.859 129.5,167.5 Z"/></g>
<g><path style="opacity:1" fill="#dab1c1" d="M 269.5,171.5 C 269.5,172.167 269.833,172.5 270.5,172.5C 273.396,176.905 276.896,180.905 281,184.5C 281.591,185.483 281.257,186.15 280,186.5C 274.21,181.712 268.71,176.546 263.5,171C 265.545,170.51 267.545,170.677 269.5,171.5 Z"/></g>
<g><path style="opacity:1" fill="#d7aebf" d="M 142.5,188.5 C 140.089,188.863 138.589,187.863 138,185.5C 137.058,180.909 137.558,176.576 139.5,172.5C 140.122,171.373 140.955,170.373 142,169.5C 142.5,175.825 142.666,182.158 142.5,188.5 Z"/></g>
<g><path style="opacity:1" fill="#764966" d="M 169.5,162.5 C 177.011,168.664 184.345,175.331 191.5,182.5C 193.274,186.538 196.274,189.204 200.5,190.5C 200.5,190.833 200.5,191.167 200.5,191.5C 199.167,191.5 197.833,191.5 196.5,191.5C 195.5,190.833 194.5,190.167 193.5,189.5C 192.167,187.5 190.5,185.833 188.5,184.5C 183.203,178.702 177.703,173.035 172,167.5C 171.634,165.548 170.801,163.882 169.5,162.5 Z"/></g>
<g><path style="opacity:1" fill="#d7aebf" d="M 179.5,188.5 C 182.731,193.239 186.564,197.572 191,201.5C 191.5,207.825 191.666,214.158 191.5,220.5C 190.67,229.991 190.17,239.658 190,249.5C 188.95,233.851 188.283,218.185 188,202.5C 182.243,196.237 176.076,190.57 169.5,185.5C 166.085,182.412 163.418,178.745 161.5,174.5C 161.833,174.167 162.167,173.833 162.5,173.5C 168.483,178.15 174.15,183.15 179.5,188.5 Z"/></g>
<g><path style="opacity:1" fill="#8d5a76" d="M 164.5,172.5 C 162.956,172.297 161.622,171.63 160.5,170.5C 159.562,176.567 160.062,182.567 162,188.5C 164.127,190.114 165.627,192.114 166.5,194.5C 163.473,192.14 160.806,189.473 158.5,186.5C 158.167,186.5 157.833,186.5 157.5,186.5C 157.334,180.491 157.501,174.491 158,168.5C 160.877,168.131 163.044,169.465 164.5,172.5 Z"/></g>
<g><path style="opacity:1" fill="#6d5b92" d="M 178.5,185.5 C 183.844,189.845 188.511,194.845 192.5,200.5C 188.167,196.5 183.833,192.5 179.5,188.5C 179.443,187.391 179.11,186.391 178.5,185.5 Z"/></g>
<g><path style="opacity:1" fill="#be6d8c" d="M 273.5,184.5 C 273.833,184.5 274.167,184.5 274.5,184.5C 278.432,186.824 282.432,189.158 286.5,191.5C 287.107,191.376 287.44,191.043 287.5,190.5C 288.751,191.472 288.418,192.139 286.5,192.5C 257.859,191.516 229.192,191.183 200.5,191.5C 200.5,191.167 200.5,190.833 200.5,190.5C 199.766,189.292 199.433,187.959 199.5,186.5C 224.523,187.157 249.189,186.49 273.5,184.5 Z"/></g>
<g><path style="opacity:1" fill="#ba6e8d" d="M 24.5,184.5 C 49.1466,186.326 74.1466,187.159 99.5,187C 102.215,187.875 103.548,189.708 103.5,192.5C 102.081,193.451 100.415,193.784 98.5,193.5C 71.3364,192.668 44.0031,192.168 16.5,192C 15.1991,190.384 15.1991,188.884 16.5,187.5C 17.5521,189.256 19.2188,189.923 21.5,189.5C 20.9162,186.715 21.9162,185.048 24.5,184.5 Z"/></g>
<g><path style="opacity:1" fill="#ba839a" d="M 139.5,172.5 C 137.558,176.576 137.058,180.909 138,185.5C 138.589,187.863 140.089,188.863 142.5,188.5C 142.5,188.833 142.5,189.167 142.5,189.5C 137.185,189.503 135.185,186.836 136.5,181.5C 135.448,181.351 134.448,181.517 133.5,182C 127.585,187.755 121.252,192.922 114.5,197.5C 114.5,196.833 114.5,196.167 114.5,195.5C 120.186,188.148 126.852,181.815 134.5,176.5C 136.167,175.167 137.833,173.833 139.5,172.5 Z"/></g>
<g><path style="opacity:1" fill="#bf7993" d="M 170.5,187.5 C 176.131,192.63 181.631,197.964 187,203.5C 187.5,215.829 187.667,228.162 187.5,240.5C 186.669,228.674 186.169,216.674 186,204.5C 180.236,199.242 175.069,193.576 170.5,187.5 Z"/></g>
<g><path style="opacity:1" fill="#482b76" d="M 111.5,186.5 C 110.167,188.5 108.5,190.167 106.5,191.5C 107.167,188.833 108.833,187.167 111.5,186.5 Z"/></g>
<g><path style="opacity:1" fill="#bf7b96" d="M 164.5,172.5 C 166.167,173.833 167.833,175.167 169.5,176.5C 172.167,179.833 175.167,182.833 178.5,185.5C 179.11,186.391 179.443,187.391 179.5,188.5C 174.15,183.15 168.483,178.15 162.5,173.5C 162.167,173.833 161.833,174.167 161.5,174.5C 163.418,178.745 166.085,182.412 169.5,185.5C 169.833,186.167 170.167,186.833 170.5,187.5C 169.417,187.461 168.417,187.127 167.5,186.5C 167.167,187 166.833,187.5 166.5,188C 168.444,190.042 170.277,192.208 172,194.5C 173.081,197.968 172.415,200.968 170,203.5C 169.667,200.833 169.333,198.167 169,195.5C 168.329,194.748 167.496,194.414 166.5,194.5C 165.627,192.114 164.127,190.114 162,188.5C 160.062,182.567 159.562,176.567 160.5,170.5C 161.622,171.63 162.956,172.297 164.5,172.5 Z"/></g>
<g><path style="opacity:1" fill="#3c2172" d="M 157.5,186.5 C 157.833,186.5 158.167,186.5 158.5,186.5C 158.351,187.552 158.517,188.552 159,189.5C 161.782,191.771 163.949,194.437 165.5,197.5C 161.171,194.867 158.504,191.2 157.5,186.5 Z"/></g>
<g><path style="opacity:1" fill="#9c6183" d="M 285.5,186.5 C 287.167,187.833 288.833,189.167 290.5,190.5C 291.234,191.708 291.567,193.041 291.5,194.5C 288.833,194.5 286.167,194.5 283.5,194.5C 283.5,194.167 283.5,193.833 283.5,193.5C 255.833,192.833 228.167,192.167 200.5,191.5C 229.192,191.183 257.859,191.516 286.5,192.5C 288.418,192.139 288.751,191.472 287.5,190.5C 286.4,189.395 285.733,188.062 285.5,186.5 Z"/></g>
<g><path style="opacity:1" fill="#804c7b" d="M 17.5,184.5 C 17.8333,184.5 18.1667,184.5 18.5,184.5C 18.5,184.833 18.5,185.167 18.5,185.5C 17.5,185.833 16.8333,186.5 16.5,187.5C 15.1991,188.884 15.1991,190.384 16.5,192C 44.0031,192.168 71.3364,192.668 98.5,193.5C 69.1474,194.159 40.1474,193.492 11.5,191.5C 12.7515,189.999 13.7515,188.332 14.5,186.5C 15.5,185.833 16.5,185.167 17.5,184.5 Z"/></g>
<g><path style="opacity:1" fill="#5b3582" d="M 10.5,191.5 C 10.8333,191.5 11.1667,191.5 11.5,191.5C 40.1474,193.492 69.1474,194.159 98.5,193.5C 100.415,193.784 102.081,193.451 103.5,192.5C 104.391,191.89 105.391,191.557 106.5,191.5C 105.833,192.833 104.833,193.833 103.5,194.5C 72.5,194.5 41.5,194.5 10.5,194.5C 10.5,193.5 10.5,192.5 10.5,191.5 Z"/></g>
<g><path style="opacity:1" fill="#1b0e85" d="M 10.5,194.5 C 41.5,194.5 72.5,194.5 103.5,194.5C 103.389,195.117 103.056,195.617 102.5,196C 103.737,196.232 104.737,196.732 105.5,197.5C 73.4983,197.667 41.4983,197.5 9.5,197C 8.11746,195.539 8.45079,194.706 10.5,194.5 Z"/></g>
<g><path style="opacity:1" fill="#16096b" d="M 195.5,107.5 C 228.167,107.5 260.833,107.5 293.5,107.5C 293.5,137.167 293.5,166.833 293.5,196.5C 261.5,197.167 229.5,197.833 197.5,198.5C 196.502,230.996 196.168,263.662 196.5,296.5C 166.5,296.5 136.5,296.5 106.5,296.5C 106.832,263.996 106.498,231.662 105.5,199.5C 105.5,199.167 105.5,198.833 105.5,198.5C 106.609,198.557 107.609,198.89 108.5,199.5C 108.5,230.833 108.5,262.167 108.5,293.5C 109.5,293.5 110.5,293.5 111.5,293.5C 137.33,294.663 163.33,294.83 189.5,294C 188.177,293.184 187.511,292.017 187.5,290.5C 188.82,291.942 190.486,292.608 192.5,292.5C 192.821,294.048 193.821,294.715 195.5,294.5C 195.177,261.635 195.511,228.802 196.5,196C 195.609,193.721 194.609,191.554 193.5,189.5C 194.5,190.167 195.5,190.833 196.5,191.5C 196.5,191.833 196.5,192.167 196.5,192.5C 196.611,193.117 196.944,193.617 197.5,194C 226.165,194.5 254.831,194.667 283.5,194.5C 286.167,194.5 288.833,194.5 291.5,194.5C 291.567,193.041 291.234,191.708 290.5,190.5C 291.832,178.185 292.499,165.518 292.5,152.5C 292.333,139.833 292.167,127.167 292,114.5C 289.963,116.706 287.797,118.706 285.5,120.5C 285.5,120.167 285.5,119.833 285.5,119.5C 287.127,117.37 288.96,115.37 291,113.5C 291.579,112.072 291.412,110.738 290.5,109.5C 259.671,108.502 228.671,108.169 197.5,108.5C 196.508,108.672 195.842,108.338 195.5,107.5 Z"/></g>
<g><path style="opacity:1" fill="#59337f" d="M 196.5,192.5 C 225.456,193.484 254.456,193.817 283.5,193.5C 283.5,193.833 283.5,194.167 283.5,194.5C 254.831,194.667 226.165,194.5 197.5,194C 196.944,193.617 196.611,193.117 196.5,192.5 Z"/></g>
<g><path style="opacity:1" fill="#824d7c" d="M 196.5,192.5 C 196.5,192.167 196.5,191.833 196.5,191.5C 197.833,191.5 199.167,191.5 200.5,191.5C 228.167,192.167 255.833,192.833 283.5,193.5C 254.456,193.817 225.456,193.484 196.5,192.5 Z"/></g>
<g><path style="opacity:1" fill="#020028" d="M 293.5,196.5 C 293.833,196.5 294.167,196.5 294.5,196.5C 262.517,198.493 230.184,199.159 197.5,198.5C 229.5,197.833 261.5,197.167 293.5,196.5 Z"/></g>
<g><path style="opacity:0.041" fill="#202020" d="M -0.5,203.5 C -0.5,203.167 -0.5,202.833 -0.5,202.5C 1.7834,202.608 3.7834,203.441 5.5,205C 26.1667,205.333 46.8333,205.667 67.5,206C 68.056,206.383 68.3893,206.883 68.5,207.5C 47.8306,207.667 27.164,207.5 6.5,207C 3.59578,206.867 1.26244,205.7 -0.5,203.5 Z"/></g>
<g><path style="opacity:1" fill="#653468" d="M 158.5,186.5 C 160.806,189.473 163.473,192.14 166.5,194.5C 166.783,195.289 167.283,195.956 168,196.5C 168.5,219.498 168.667,242.498 168.5,265.5C 168.5,267.167 168.5,268.833 168.5,270.5C 166.836,246.35 165.836,222.017 165.5,197.5C 163.949,194.437 161.782,191.771 159,189.5C 158.517,188.552 158.351,187.552 158.5,186.5 Z"/></g>
<g><path style="opacity:1" fill="#9a516c" d="M 129.5,267.5 C 130.467,268.806 131.801,269.473 133.5,269.5C 133.5,270.167 133.5,270.833 133.5,271.5C 132.5,271.5 131.5,271.5 130.5,271.5C 129.075,270.078 128.075,268.411 127.5,266.5C 128.292,249.437 126.959,232.603 123.5,216C 120.854,215.503 118.187,215.336 115.5,215.5C 114.786,228.821 114.453,242.155 114.5,255.5C 114.5,266.5 114.5,277.5 114.5,288.5C 114.167,289.167 113.833,289.833 113.5,290.5C 112.5,290.5 111.5,290.5 110.5,290.5C 110.5,260.5 110.5,230.5 110.5,200.5C 110.5,199.833 110.5,199.167 110.5,198.5C 111.833,197.5 113.167,196.5 114.5,195.5C 114.5,196.167 114.5,196.833 114.5,197.5C 113.542,197.953 112.708,198.619 112,199.5C 111.174,210.872 111.508,222.206 113,233.5C 113.877,222.504 114.71,211.504 115.5,200.5C 121.556,195.838 127.39,190.838 133,185.5C 133.798,187.259 133.631,188.926 132.5,190.5C 128.031,194.204 126.365,199.037 127.5,205C 128.048,225.998 128.715,246.831 129.5,267.5 Z"/></g>
<g><path style="opacity:1" fill="#9b7f9d" d="M 179.5,188.5 C 183.833,192.5 188.167,196.5 192.5,200.5C 192.5,230.167 192.5,259.833 192.5,289.5C 191.833,289.5 191.5,289.167 191.5,288.5C 191.5,265.833 191.5,243.167 191.5,220.5C 191.666,214.158 191.5,207.825 191,201.5C 186.564,197.572 182.731,193.239 179.5,188.5 Z"/></g>
<g><path style="opacity:1" fill="#b36e89" d="M 142.5,189.5 C 140.167,192.5 137.5,195.167 134.5,197.5C 133.304,195.019 131.804,195.019 130,197.5C 129.5,220.831 129.333,244.164 129.5,267.5C 128.715,246.831 128.048,225.998 127.5,205C 126.365,199.037 128.031,194.204 132.5,190.5C 133.631,188.926 133.798,187.259 133,185.5C 127.39,190.838 121.556,195.838 115.5,200.5C 114.71,211.504 113.877,222.504 113,233.5C 111.508,222.206 111.174,210.872 112,199.5C 112.708,198.619 113.542,197.953 114.5,197.5C 121.252,192.922 127.585,187.755 133.5,182C 134.448,181.517 135.448,181.351 136.5,181.5C 135.185,186.836 137.185,189.503 142.5,189.5 Z"/></g>
<g><path style="opacity:1" fill="#9c516d" d="M 170.5,187.5 C 175.069,193.576 180.236,199.242 186,204.5C 186.169,216.674 186.669,228.674 187.5,240.5C 187.5,254.5 187.5,268.5 187.5,282.5C 186.787,262.628 185.621,242.628 184,222.5C 183.667,224.167 183.333,225.833 183,227.5C 182.161,226.376 180.994,225.709 179.5,225.5C 177.275,225.305 175.609,226.139 174.5,228C 173.255,236.445 172.588,244.945 172.5,253.5C 173.231,258.073 172.231,262.073 169.5,265.5C 169.167,265.5 168.833,265.5 168.5,265.5C 168.667,242.498 168.5,219.498 168,196.5C 167.283,195.956 166.783,195.289 166.5,194.5C 167.496,194.414 168.329,194.748 169,195.5C 169.333,198.167 169.667,200.833 170,203.5C 172.415,200.968 173.081,197.968 172,194.5C 170.277,192.208 168.444,190.042 166.5,188C 166.833,187.5 167.167,187 167.5,186.5C 168.417,187.127 169.417,187.461 170.5,187.5 Z"/></g>
<g><path style="opacity:1" fill="#8b3957" d="M 187.5,282.5 C 188.11,283.391 188.443,284.391 188.5,285.5C 187.5,284.833 186.5,284.167 185.5,283.5C 181.585,278.244 177.252,273.244 172.5,268.5C 173.365,267.417 174.365,267.251 175.5,268C 178.206,270.371 180.539,273.037 182.5,276C 183.448,276.483 184.448,276.649 185.5,276.5C 185.935,264.735 185.102,253.068 183,241.5C 180.582,239.32 177.916,238.987 175,240.5C 173.959,244.906 173.126,249.239 172.5,253.5C 172.588,244.945 173.255,236.445 174.5,228C 175.609,226.139 177.275,225.305 179.5,225.5C 180.994,225.709 182.161,226.376 183,227.5C 183.333,225.833 183.667,224.167 184,222.5C 185.621,242.628 186.787,262.628 187.5,282.5 Z"/></g>
<g><path style="opacity:1" fill="#be98a9" d="M 134.5,197.5 C 134.5,221.5 134.5,245.5 134.5,269.5C 134.167,269.5 133.833,269.5 133.5,269.5C 131.801,269.473 130.467,268.806 129.5,267.5C 129.333,244.164 129.5,220.831 130,197.5C 131.804,195.019 133.304,195.019 134.5,197.5 Z"/></g>
<g><path style="opacity:1" fill="#893755" d="M 127.5,266.5 C 126.335,260.271 125.169,253.938 124,247.5C 121.281,246.556 118.448,246.223 115.5,246.5C 115.81,249.713 115.477,252.713 114.5,255.5C 114.453,242.155 114.786,228.821 115.5,215.5C 118.187,215.336 120.854,215.503 123.5,216C 126.959,232.603 128.292,249.437 127.5,266.5 Z"/></g>
<g><path style="opacity:1" fill="#5b488a" d="M 140.5,168.5 C 141.919,167.549 143.585,167.216 145.5,167.5C 145.666,174.841 145.5,182.174 145,189.5C 142,192.5 139,195.5 136,198.5C 135.832,222.337 135.332,246.004 134.5,269.5C 134.5,245.5 134.5,221.5 134.5,197.5C 137.5,195.167 140.167,192.5 142.5,189.5C 143.491,182.687 143.825,175.687 143.5,168.5C 142.5,168.5 141.5,168.5 140.5,168.5 Z"/></g>
<g><path style="opacity:1" fill="#7d2342" d="M 185.5,283.5 C 180.202,278.703 175.035,273.703 170,268.5C 169.517,267.552 169.351,266.552 169.5,265.5C 172.231,262.073 173.231,258.073 172.5,253.5C 173.126,249.239 173.959,244.906 175,240.5C 177.916,238.987 180.582,239.32 183,241.5C 185.102,253.068 185.935,264.735 185.5,276.5C 184.448,276.649 183.448,276.483 182.5,276C 180.539,273.037 178.206,270.371 175.5,268C 174.365,267.251 173.365,267.417 172.5,268.5C 177.252,273.244 181.585,278.244 185.5,283.5 Z"/></g>
<g><path style="opacity:1" fill="#6c2f52" d="M 110.5,200.5 C 110.5,230.5 110.5,260.5 110.5,290.5C 111.5,290.5 112.5,290.5 113.5,290.5C 113.5,290.833 113.5,291.167 113.5,291.5C 113.167,291.5 112.833,291.5 112.5,291.5C 111.5,291.5 110.5,291.5 109.5,291.5C 109.169,260.995 109.502,230.662 110.5,200.5 Z"/></g>
<g><path style="opacity:1" fill="#481d56" d="M 110.5,198.5 C 110.5,199.167 110.5,199.833 110.5,200.5C 109.502,230.662 109.169,260.995 109.5,291.5C 110.5,291.5 111.5,291.5 112.5,291.5C 112.167,292.167 111.833,292.833 111.5,293.5C 110.5,293.5 109.5,293.5 108.5,293.5C 108.5,262.167 108.5,230.833 108.5,199.5C 109.167,199.167 109.833,198.833 110.5,198.5 Z"/></g>
<g><path style="opacity:1" fill="#c497aa" d="M 169.5,185.5 C 176.076,190.57 182.243,196.237 188,202.5C 188.283,218.185 188.95,233.851 190,249.5C 190.17,239.658 190.67,229.991 191.5,220.5C 191.5,243.167 191.5,265.833 191.5,288.5C 190.272,287.694 189.272,286.694 188.5,285.5C 188.443,284.391 188.11,283.391 187.5,282.5C 187.5,268.5 187.5,254.5 187.5,240.5C 187.667,228.162 187.5,215.829 187,203.5C 181.631,197.964 176.131,192.63 170.5,187.5C 170.167,186.833 169.833,186.167 169.5,185.5 Z"/></g>
<g><path style="opacity:1" fill="#761e3c" d="M 127.5,266.5 C 128.075,268.411 129.075,270.078 130.5,271.5C 126.435,275.559 122.768,279.893 119.5,284.5C 118.833,284.5 118.5,284.833 118.5,285.5C 116.97,286.211 115.637,287.211 114.5,288.5C 114.5,277.5 114.5,266.5 114.5,255.5C 115.477,252.713 115.81,249.713 115.5,246.5C 118.448,246.223 121.281,246.556 124,247.5C 125.169,253.938 126.335,260.271 127.5,266.5 Z"/></g>
<g><path style="opacity:1" fill="#4b174f" d="M 168.5,270.5 C 174.5,274.5 179.5,279.5 183.5,285.5C 178.167,280.833 173.167,275.833 168.5,270.5 Z"/></g>
<g><path style="opacity:1" fill="#682441" d="M 168.5,265.5 C 168.833,265.5 169.167,265.5 169.5,265.5C 169.351,266.552 169.517,267.552 170,268.5C 175.035,273.703 180.202,278.703 185.5,283.5C 186.5,284.167 187.5,284.833 188.5,285.5C 189.272,286.694 190.272,287.694 191.5,288.5C 191.5,289.167 191.833,289.5 192.5,289.5C 192.5,290.5 192.5,291.5 192.5,292.5C 190.486,292.608 188.82,291.942 187.5,290.5C 186.92,288.251 185.587,286.585 183.5,285.5C 179.5,279.5 174.5,274.5 168.5,270.5C 168.5,268.833 168.5,267.167 168.5,265.5 Z"/></g>
<g><path style="opacity:1" fill="#4c175c" d="M 130.5,271.5 C 131.5,271.5 132.5,271.5 133.5,271.5C 128.859,275.805 124.193,280.139 119.5,284.5C 122.768,279.893 126.435,275.559 130.5,271.5 Z"/></g>
<g><path style="opacity:1" fill="#401464" d="M 183.5,285.5 C 185.587,286.585 186.92,288.251 187.5,290.5C 185.413,289.415 184.08,287.749 183.5,285.5 Z"/></g>
<g><path style="opacity:1" fill="#3d1667" d="M 118.5,285.5 C 117.557,288.109 115.89,290.109 113.5,291.5C 113.5,291.167 113.5,290.833 113.5,290.5C 113.833,289.833 114.167,289.167 114.5,288.5C 115.637,287.211 116.97,286.211 118.5,285.5 Z"/></g>
</svg>
