<?xml version="1.0" encoding="UTF-8"?>
<!DOCTYPE svg PUBLIC "-//W3C//DTD SVG 1.1//EN" "http://www.w3.org/Graphics/SVG/1.1/DTD/svg11.dtd">
<svg xmlns="http://www.w3.org/2000/svg" version="1.1" width="100%" viewBox="0 0 345 345" style="shape-rendering:geometricPrecision; text-rendering:geometricPrecision; image-rendering:optimizeQuality; fill-rule:evenodd; clip-rule:evenodd" xmlns:xlink="http://www.w3.org/1999/xlink">
<g><path style="opacity:0.261" fill="#030203" d="M 344.5,123.5 C 344.5,130.167 344.5,136.833 344.5,143.5C 338.524,169.644 322.858,187.144 297.5,196C 287.913,197.852 278.246,199.185 268.5,200C 244.865,208.66 235.032,225.494 239,250.5C 242.918,263.745 251.085,273.245 263.5,279C 272.337,281.577 281.337,283.243 290.5,284C 293.2,285.857 294.866,288.357 295.5,291.5C 295.5,292.167 295.5,292.833 295.5,293.5C 295.518,299.609 292.518,303.442 286.5,305C 226.272,304.474 185.772,275.974 165,219.5C 136.413,261.039 96.9126,279.206 46.5,274C 21.4771,265.153 5.81039,247.986 -0.5,222.5C -0.5,214.833 -0.5,207.167 -0.5,199.5C 4.56008,174.94 18.8934,158.106 42.5,149C 54.449,146.624 66.449,144.624 78.5,143C 100.724,132.719 109.224,115.552 104,91.5C 98.964,76.4627 88.7974,66.9627 73.5,63C 67.857,62.1357 62.1903,61.469 56.5,61C 48.8427,58.3723 46.3427,53.2056 49,45.5C 50.9445,42.2663 53.7778,40.0997 57.5,39C 106.111,38.5512 142.945,59.0512 168,100.5C 171.792,108.413 175.292,116.413 178.5,124.5C 207.693,81.5982 248.026,63.7648 299.5,71C 323.734,80.7238 338.734,98.2238 344.5,123.5 Z"/></g>
<g><path style="opacity:0.928" fill="#302c2d" d="M 71.5,49.5 C 70.1266,49.3433 68.7932,49.51 67.5,50C 68.056,50.3826 68.3893,50.8826 68.5,51.5C 64.8333,51.5 61.1667,51.5 57.5,51.5C 57.5,50.5 57.5,49.5 57.5,48.5C 62.3633,48.1805 67.03,48.5139 71.5,49.5 Z"/></g>
<g><path style="opacity:1" fill="#5a484b" d="M 71.5,49.5 C 78.7565,50.0444 85.7565,51.3778 92.5,53.5C 90.0799,53.7076 87.7466,53.3742 85.5,52.5C 85.1667,52.8333 84.8333,53.1667 84.5,53.5C 85.3398,54.735 86.3398,55.735 87.5,56.5C 81.3583,54.2035 75.025,52.5368 68.5,51.5C 68.3893,50.8826 68.056,50.3826 67.5,50C 68.7932,49.51 70.1266,49.3433 71.5,49.5 Z"/></g>
<g><path style="opacity:1" fill="#865960" d="M 92.5,53.5 C 98.4237,54.6972 104.09,56.6972 109.5,59.5C 106.507,58.8654 103.507,58.6987 100.5,59C 100.833,59.3333 101.167,59.6667 101.5,60C 100.692,60.3076 100.025,60.8076 99.5,61.5C 100.18,62.8599 100.847,64.1932 101.5,65.5C 99.5887,64.925 97.922,63.925 96.5,62.5C 94.5728,58.9085 91.5728,56.9085 87.5,56.5C 86.3398,55.735 85.3398,54.735 84.5,53.5C 84.8333,53.1667 85.1667,52.8333 85.5,52.5C 87.7466,53.3742 90.0799,53.7076 92.5,53.5 Z"/></g>
<g><path style="opacity:0.996" fill="#53393d" d="M 87.5,56.5 C 91.5728,56.9085 94.5728,58.9085 96.5,62.5C 93.2185,60.8601 90.2185,58.8601 87.5,56.5 Z"/></g>
<g><path style="opacity:1" fill="#a75766" d="M 109.5,59.5 C 112.293,61.0573 114.96,62.8906 117.5,65C 119.154,65.6077 120.821,66.1077 122.5,66.5C 122.973,67.9063 123.973,68.573 125.5,68.5C 127.764,71.0154 130.431,73.0154 133.5,74.5C 134.5,75.8333 135.5,77.1667 136.5,78.5C 131.884,76.464 127.551,73.964 123.5,71C 120.594,69.6815 117.594,69.3482 114.5,70C 112.214,74.2316 111.881,78.7316 113.5,83.5C 112.833,83.1667 112.167,82.8333 111.5,82.5C 108.935,76.3672 105.601,70.7006 101.5,65.5C 100.847,64.1932 100.18,62.8599 99.5,61.5C 100.025,60.8076 100.692,60.3076 101.5,60C 101.167,59.6667 100.833,59.3333 100.5,59C 103.507,58.6987 106.507,58.8654 109.5,59.5 Z"/></g>
<g><path style="opacity:0.996" fill="#522931" d="M 109.5,59.5 C 114.767,60.1413 119.101,62.4746 122.5,66.5C 120.821,66.1077 119.154,65.6077 117.5,65C 114.96,62.8906 112.293,61.0573 109.5,59.5 Z"/></g>
<g><path style="opacity:0.945" fill="#371a1f" d="M 125.5,68.5 C 126.873,68.3433 128.207,68.51 129.5,69C 130.721,71.0337 132.055,72.867 133.5,74.5C 130.431,73.0154 127.764,71.0154 125.5,68.5 Z"/></g>
<g><path style="opacity:0.925" fill="#3b1920" d="M 133.5,74.5 C 138.833,77.8333 143.167,82.1667 146.5,87.5C 143.167,84.5 139.833,81.5 136.5,78.5C 135.5,77.1667 134.5,75.8333 133.5,74.5 Z"/></g>
<g><path style="opacity:1" fill="#ce4e6b" d="M 170.5,150.5 C 170.666,157.175 170.5,163.842 170,170.5C 169.665,174.736 168.832,178.736 167.5,182.5C 167.007,184.806 166.674,187.139 166.5,189.5C 166.771,191.38 166.104,192.713 164.5,193.5C 159.495,198.025 155.329,203.358 152,209.5C 146.526,216.942 140.692,224.109 134.5,231C 123.749,240.376 111.749,247.709 98.5,253C 86.013,256.831 73.3463,257.498 60.5,255C 59.6721,254.085 58.6721,253.419 57.5,253C 69.9439,250.861 80.7773,245.361 90,236.5C 96.6415,227.561 98.9749,217.561 97,206.5C 96.6174,205.944 96.1174,205.611 95.5,205.5C 94.8333,204.5 94.1667,203.5 93.5,202.5C 92.842,197.838 90.842,193.838 87.5,190.5C 81.2094,180.861 72.0427,176.194 60,176.5C 53.787,176.749 47.9536,178.249 42.5,181C 31.0734,190.257 24.74,202.257 23.5,217C 25.9111,230.046 24.4111,230.546 19,218.5C 17.1156,209.343 17.7823,200.343 21,191.5C 26.7808,181.719 34.6142,173.886 44.5,168C 56.3206,164.03 68.3206,160.696 80.5,158C 95.3721,153.28 106.372,144.113 113.5,130.5C 114.244,126.881 114.577,123.215 114.5,119.5C 116.982,117.497 117.982,114.831 117.5,111.5C 118.369,109.016 119.036,106.349 119.5,103.5C 117.987,94.5176 117.654,85.5176 118.5,76.5C 124.089,75.6371 129.089,77.1371 133.5,81C 148.682,94.8549 159.182,111.688 165,131.5C 166.784,137.97 168.617,144.303 170.5,150.5 Z"/></g>
<g><path style="opacity:0.996" fill="#3a537c" d="M 297.5,82.5 C 296.078,82.2914 294.745,81.7914 293.5,81C 285.173,80.5003 276.84,80.3336 268.5,80.5C 268.5,80.1667 268.5,79.8333 268.5,79.5C 277.52,78.0709 286.52,78.2376 295.5,80C 296.381,80.7083 297.047,81.5416 297.5,82.5 Z"/></g>
<g><path style="opacity:0.996" fill="#2c456c" d="M 268.5,79.5 C 268.5,79.8333 268.5,80.1667 268.5,80.5C 261.295,80.9401 254.295,82.2734 247.5,84.5C 253.886,80.8157 260.886,79.149 268.5,79.5 Z"/></g>
<g><path style="opacity:1" fill="#4277c3" d="M 268.5,80.5 C 276.84,80.3336 285.173,80.5003 293.5,81C 294.745,81.7914 296.078,82.2914 297.5,82.5C 298.167,82.5 298.833,82.5 299.5,82.5C 299.833,83.1667 300.167,83.8333 300.5,84.5C 300.5,85.8333 300.5,87.1667 300.5,88.5C 303.864,87.7893 306.197,88.956 307.5,92C 309.906,92.3057 312.073,93.139 314,94.5C 318.34,98.0087 322.506,101.675 326.5,105.5C 326.5,106.167 326.5,106.833 326.5,107.5C 327.858,113.431 329.358,119.431 331,125.5C 331.831,132.856 331.665,140.189 330.5,147.5C 327.495,154.229 324.495,160.895 321.5,167.5C 320.115,169.883 318.115,171.55 315.5,172.5C 309.468,174.805 303.968,178.138 299,182.5C 295.004,184.057 290.838,184.891 286.5,185C 285.944,185.383 285.611,185.883 285.5,186.5C 285.5,186.833 285.5,187.167 285.5,187.5C 280.156,187.334 274.823,187.501 269.5,188C 268.263,188.232 267.263,188.732 266.5,189.5C 263.843,189.935 261.509,190.935 259.5,192.5C 257.784,192.629 256.117,192.962 254.5,193.5C 256.431,190.526 259.097,188.359 262.5,187C 268.77,185.848 275.103,185.182 281.5,185C 298.204,182.246 311.37,174.079 321,160.5C 334.181,133.732 329.014,111.232 305.5,93C 291.8,85.45 277.133,82.7834 261.5,85C 250.011,86.6654 239.011,89.8321 228.5,94.5C 228.81,92.8564 229.81,91.8564 231.5,91.5C 236.773,90.1969 241.44,87.8636 245.5,84.5C 246.167,84.5 246.833,84.5 247.5,84.5C 254.295,82.2734 261.295,80.9401 268.5,80.5 Z"/></g>
<g><path style="opacity:0.945" fill="#1b2a42" d="M 299.5,82.5 C 300.873,82.3433 302.207,82.51 303.5,83C 305.767,83.8935 307.434,85.3935 308.5,87.5C 306.072,85.9565 303.406,84.9565 300.5,84.5C 300.167,83.8333 299.833,83.1667 299.5,82.5 Z"/></g>
<g><path style="opacity:1" fill="#3e7ed2" d="M 254.5,193.5 C 249.511,194.481 245.844,197.148 243.5,201.5C 240.569,203.091 237.902,205.091 235.5,207.5C 235.343,206.127 235.51,204.793 236,203.5C 249.81,189.545 266.644,181.712 286.5,180C 305.466,175.675 317.133,164.008 321.5,145C 320.99,143.174 320.156,143.007 319,144.5C 314.275,155.557 306.108,162.724 294.5,166C 280.448,170.18 267.948,167.347 257,157.5C 256.448,154.803 254.948,152.803 252.5,151.5C 251.571,150.311 251.238,148.978 251.5,147.5C 248.788,146.953 247.288,145.287 247,142.5C 243.589,129.863 245.589,118.196 253,107.5C 258.501,102.095 264.001,96.5949 269.5,91C 269.043,90.586 268.709,90.086 268.5,89.5C 251.304,88.5501 235.638,93.0501 221.5,103C 214.904,107.904 208.737,113.404 203,119.5C 196.952,128.365 190.118,136.365 182.5,143.5C 183.728,140.111 185.561,137.111 188,134.5C 188.49,133.207 188.657,131.873 188.5,130.5C 192.516,129.163 195.182,126.496 196.5,122.5C 200.959,118.902 204.459,114.569 207,109.5C 209.998,107.667 212.498,105.334 214.5,102.5C 215.5,101.167 216.5,99.8333 217.5,98.5C 221.164,97.1715 224.831,95.8381 228.5,94.5C 239.011,89.8321 250.011,86.6654 261.5,85C 277.133,82.7834 291.8,85.45 305.5,93C 329.014,111.232 334.181,133.732 321,160.5C 311.37,174.079 298.204,182.246 281.5,185C 275.103,185.182 268.77,185.848 262.5,187C 259.097,188.359 256.431,190.526 254.5,193.5 Z"/></g>
<g><path style="opacity:1" fill="#dd466b" d="M 168.5,165.5 C 168.528,170.862 168.194,176.195 167.5,181.5C 164.956,182.468 162.789,184.135 161,186.5C 154.583,197.003 147.916,207.337 141,217.5C 131.908,228.605 121.074,237.438 108.5,244C 103.1,246.524 97.4329,247.691 91.5,247.5C 91.3398,245.801 91.5065,244.134 92,242.5C 109.603,211.727 102.769,188.227 71.5,172C 70.7069,170.915 70.0402,169.748 69.5,168.5C 77.983,164.093 86.6497,159.926 95.5,156C 108.428,148.072 117.261,136.906 122,122.5C 124.383,112.283 126.05,101.95 127,91.5C 129.892,88.9176 132.725,89.0842 135.5,92C 141.76,98.0263 146.927,104.86 151,112.5C 158.548,129.729 164.381,147.396 168.5,165.5 Z"/></g>
<g><path style="opacity:1" fill="#315285" d="M 245.5,84.5 C 241.44,87.8636 236.773,90.1969 231.5,91.5C 232.1,90.1001 233.1,89.1001 234.5,88.5C 237.838,86.3341 241.505,85.0007 245.5,84.5 Z"/></g>
<g><path style="opacity:1" fill="#3580db" d="M 251.5,147.5 C 251.238,148.978 251.571,150.311 252.5,151.5C 254.948,152.803 256.448,154.803 257,157.5C 267.948,167.347 280.448,170.18 294.5,166C 306.108,162.724 314.275,155.557 319,144.5C 320.156,143.007 320.99,143.174 321.5,145C 317.133,164.008 305.466,175.675 286.5,180C 266.644,181.712 249.81,189.545 236,203.5C 235.51,204.793 235.343,206.127 235.5,207.5C 233.61,207.297 232.11,207.963 231,209.5C 229.076,213.017 227.409,216.684 226,220.5C 224.948,235.707 224.114,250.873 223.5,266C 221.167,266.667 218.833,266.667 216.5,266C 208.308,261.808 202.141,255.641 198,247.5C 193.22,243.967 189.886,239.3 188,233.5C 186.147,231.72 184.313,230.053 182.5,228.5C 179.152,217.507 176.152,206.507 173.5,195.5C 173.167,195.5 172.833,195.5 172.5,195.5C 172.5,195.167 172.5,194.833 172.5,194.5C 172.033,183.023 173.033,171.69 175.5,160.5C 177.235,154.64 179.568,148.973 182.5,143.5C 190.118,136.365 196.952,128.365 203,119.5C 208.737,113.404 214.904,107.904 221.5,103C 235.638,93.0501 251.304,88.5501 268.5,89.5C 268.709,90.086 269.043,90.586 269.5,91C 264.001,96.5949 258.501,102.095 253,107.5C 245.589,118.196 243.589,129.863 247,142.5C 247.288,145.287 248.788,146.953 251.5,147.5 Z"/></g>
<g><path style="opacity:1" fill="#843c4a" d="M 136.5,78.5 C 139.833,81.5 143.167,84.5 146.5,87.5C 149.153,90.507 151.487,93.8403 153.5,97.5C 147.498,91.496 141.831,85.1627 136.5,78.5 Z"/></g>
<g><path style="opacity:1" fill="#3d66a4" d="M 300.5,84.5 C 303.406,84.9565 306.072,85.9565 308.5,87.5C 310.354,88.241 312.021,89.241 313.5,90.5C 315.833,93.5 318.5,96.1667 321.5,98.5C 323.58,100.573 325.246,102.907 326.5,105.5C 322.506,101.675 318.34,98.0087 314,94.5C 312.073,93.139 309.906,92.3057 307.5,92C 306.197,88.956 303.864,87.7893 300.5,88.5C 300.5,87.1667 300.5,85.8333 300.5,84.5 Z"/></g>
<g><path style="opacity:0.933" fill="#1b2b44" d="M 313.5,90.5 C 317.167,92.1667 319.833,94.8333 321.5,98.5C 318.5,96.1667 315.833,93.5 313.5,90.5 Z"/></g>
<g><path style="opacity:1" fill="#e4416b" d="M 130.5,96.5 C 135.422,96.8995 139.255,99.2328 142,103.5C 155.346,124.546 162.346,147.546 163,172.5C 153.679,197.328 138.845,218.162 118.5,235C 112.463,239.189 105.796,241.356 98.5,241.5C 100.329,234.852 102.162,228.186 104,221.5C 105.94,209.593 103.607,198.593 97,188.5C 91.464,181.966 85.6307,175.8 79.5,170C 79.7804,168.605 80.4471,167.438 81.5,166.5C 96.1054,160.436 108.272,151.103 118,138.5C 124.875,125.284 129.041,111.284 130.5,96.5 Z"/></g>
<g><path style="opacity:1" fill="#253f66" d="M 234.5,88.5 C 233.1,89.1001 232.1,90.1001 231.5,91.5C 229.81,91.8564 228.81,92.8564 228.5,94.5C 224.831,95.8381 221.164,97.1715 217.5,98.5C 222.12,93.5796 227.787,90.2463 234.5,88.5 Z"/></g>
<g><path style="opacity:1" fill="#2985ea" d="M 174.5,182.5 C 174.988,174.57 176.655,166.903 179.5,159.5C 186.558,149.739 193.391,139.739 200,129.5C 209.146,117.685 220.146,108.018 233,100.5C 238.644,97.7895 244.478,96.7895 250.5,97.5C 250.833,98.1667 251.167,98.8333 251.5,99.5C 247.278,106.71 244.111,114.377 242,122.5C 239.372,144.763 248.205,160.263 268.5,169C 272.819,171.847 273.152,174.847 269.5,178C 255.674,182.829 243.508,190.329 233,200.5C 228.605,206.447 224.939,212.78 222,219.5C 220.415,230.511 218.749,241.511 217,252.5C 215.938,253.899 214.605,254.899 213,255.5C 205.184,249.692 198.851,242.692 194,234.5C 187.344,222.205 182.677,209.205 180,195.5C 177.735,191.249 175.902,186.916 174.5,182.5 Z"/></g>
<g><path style="opacity:1" fill="#5380c8" d="M 314.5,135.5 C 314.976,115.795 305.643,103.295 286.5,98C 281.472,97.4117 276.472,97.5784 271.5,98.5C 271.611,97.8826 271.944,97.3826 272.5,97C 280.868,96.2596 289.202,96.4263 297.5,97.5C 300.182,101.556 303.516,105.389 307.5,109C 308.449,109.617 309.282,109.451 310,108.5C 315.332,116.956 316.832,125.956 314.5,135.5 Z"/></g>
<g><path style="opacity:0.975" fill="#57262f" d="M 111.5,82.5 C 112.167,82.8333 112.833,83.1667 113.5,83.5C 114.512,87.5152 115.512,91.5152 116.5,95.5C 116.821,100.695 116.487,105.695 115.5,110.5C 115.666,104.824 115.499,99.1569 115,93.5C 114.768,92.2625 114.268,91.2625 113.5,90.5C 113.037,87.779 112.371,85.1123 111.5,82.5 Z"/></g>
<g><path style="opacity:0.996" fill="#8e4251" d="M 116.5,95.5 C 117.488,100.64 117.821,105.974 117.5,111.5C 117.982,114.831 116.982,117.497 114.5,119.5C 114.963,116.518 115.296,113.518 115.5,110.5C 116.487,105.695 116.821,100.695 116.5,95.5 Z"/></g>
<g><path style="opacity:1" fill="#494949" d="M 284.5,100.5 C 285.167,100.5 285.833,100.5 286.5,100.5C 290.29,102.558 294.29,104.391 298.5,106C 299.381,106.708 300.047,107.542 300.5,108.5C 301.951,111.669 304.118,114.336 307,116.5C 309.606,125.732 310.106,135.066 308.5,144.5C 308.5,144.833 308.5,145.167 308.5,145.5C 305.782,148.724 302.782,151.891 299.5,155C 295.425,155.873 291.758,157.539 288.5,160C 280.555,161.194 272.888,160.36 265.5,157.5C 260.904,154.739 257.07,151.073 254,146.5C 253.023,144.26 252.523,141.927 252.5,139.5C 252.336,132.798 252.669,126.131 253.5,119.5C 254.714,116.07 256.214,112.736 258,109.5C 261.129,107.357 264.296,105.357 267.5,103.5C 272.905,101.121 278.572,100.121 284.5,100.5 Z"/></g>
<g><path style="opacity:1" fill="#793644" d="M 156.5,103.5 C 158.424,106.268 160.59,108.935 163,111.5C 163.49,112.793 163.657,114.127 163.5,115.5C 159.617,112.399 157.283,108.399 156.5,103.5 Z"/></g>
<g><path style="opacity:0.976" fill="#22324d" d="M 326.5,105.5 C 328.975,106.687 329.975,108.687 329.5,111.5C 328.857,109.924 327.857,108.59 326.5,107.5C 326.5,106.833 326.5,106.167 326.5,105.5 Z"/></g>
<g><path style="opacity:0.98" fill="#1c2d49" d="M 217.5,98.5 C 216.5,99.8333 215.5,101.167 214.5,102.5C 207.912,106.419 202.245,111.419 197.5,117.5C 202.219,109.114 208.886,102.781 217.5,98.5 Z"/></g>
<g><path style="opacity:1" fill="#eb3b6a" d="M 136.5,108.5 C 138.463,109.96 140.296,111.627 142,113.5C 153.255,131.86 157.922,151.86 156,173.5C 154.716,178.024 153.05,182.357 151,186.5C 145.858,196.11 140.192,205.444 134,214.5C 128.912,219.85 123.412,224.683 117.5,229C 115.044,230.619 112.544,231.119 110,230.5C 112.88,209.208 106.88,190.874 92,175.5C 90.627,173.305 90.2937,170.971 91,168.5C 96.8648,163.642 103.032,159.142 109.5,155C 121.797,144.245 129.297,130.745 132,114.5C 133.332,112.34 134.832,110.34 136.5,108.5 Z"/></g>
<g><path style="opacity:1" fill="#7890c0" d="M 261.5,104.5 C 254.735,110.798 250.402,118.465 248.5,127.5C 248.945,119.859 251.611,113.026 256.5,107C 258.078,105.906 259.745,105.072 261.5,104.5 Z"/></g>
<g><path style="opacity:0.831" fill="#141c2c" d="M 329.5,111.5 C 333.008,113.425 334.341,116.425 333.5,120.5C 331.416,117.947 330.083,114.947 329.5,111.5 Z"/></g>
<g><path style="opacity:0.835" fill="#291217" d="M 113.5,90.5 C 114.268,91.2625 114.768,92.2625 115,93.5C 115.499,99.1569 115.666,104.824 115.5,110.5C 115.296,113.518 114.963,116.518 114.5,119.5C 113.312,121.946 111.979,124.28 110.5,126.5C 114.553,114.811 115.553,102.811 113.5,90.5 Z"/></g>
<g><path style="opacity:0.969" fill="#162741" d="M 194.5,120.5 C 193.557,123.109 191.89,125.109 189.5,126.5C 190.473,123.865 192.14,121.865 194.5,120.5 Z"/></g>
<g><path style="opacity:1" fill="#3967aa" d="M 214.5,102.5 C 212.498,105.334 209.998,107.667 207,109.5C 204.459,114.569 200.959,118.902 196.5,122.5C 195.182,126.496 192.516,129.163 188.5,130.5C 188.833,129.167 189.167,127.833 189.5,126.5C 191.89,125.109 193.557,123.109 194.5,120.5C 194.5,118.5 195.5,117.5 197.5,117.5C 202.245,111.419 207.912,106.419 214.5,102.5 Z"/></g>
<g><path style="opacity:1" fill="#6c2f3b" d="M 163.5,115.5 C 164.558,116.6 165.392,117.934 166,119.5C 166.678,124.352 167.844,129.018 169.5,133.5C 169.5,134.5 169.5,135.5 169.5,136.5C 166.551,129.864 164.551,122.864 163.5,115.5 Z"/></g>
<g><path style="opacity:1" fill="#a7465a" d="M 114.5,119.5 C 114.577,123.215 114.244,126.881 113.5,130.5C 110.749,133.513 108.082,136.679 105.5,140C 102.872,141.626 100.539,143.626 98.5,146C 97.552,146.483 96.552,146.649 95.5,146.5C 98.1395,144.527 100.473,142.194 102.5,139.5C 105.277,137.049 107.277,134.049 108.5,130.5C 110.104,129.713 110.771,128.38 110.5,126.5C 111.979,124.28 113.312,121.946 114.5,119.5 Z"/></g>
<g><path style="opacity:1" fill="#4167a3" d="M 326.5,107.5 C 327.857,108.59 328.857,109.924 329.5,111.5C 330.083,114.947 331.416,117.947 333.5,120.5C 333.5,128.5 333.5,136.5 333.5,144.5C 331.372,150.539 329.039,156.539 326.5,162.5C 325.194,164.473 323.527,166.139 321.5,167.5C 324.495,160.895 327.495,154.229 330.5,147.5C 331.665,140.189 331.831,132.856 331,125.5C 329.358,119.431 327.858,113.431 326.5,107.5 Z"/></g>
<g><path style="opacity:1" fill="#ba5167" d="M 136.5,78.5 C 141.831,85.1627 147.498,91.496 153.5,97.5C 155.025,99.2163 156.025,101.216 156.5,103.5C 157.283,108.399 159.617,112.399 163.5,115.5C 164.551,122.864 166.551,129.864 169.5,136.5C 169.942,140.154 170.276,143.821 170.5,147.5C 170.5,148.5 170.5,149.5 170.5,150.5C 168.617,144.303 166.784,137.97 165,131.5C 159.182,111.688 148.682,94.8549 133.5,81C 129.089,77.1371 124.089,75.6371 118.5,76.5C 117.654,85.5176 117.987,94.5176 119.5,103.5C 119.036,106.349 118.369,109.016 117.5,111.5C 117.821,105.974 117.488,100.64 116.5,95.5C 115.512,91.5152 114.512,87.5152 113.5,83.5C 111.881,78.7316 112.214,74.2316 114.5,70C 117.594,69.3482 120.594,69.6815 123.5,71C 127.551,73.964 131.884,76.464 136.5,78.5 Z"/></g>
<g><path style="opacity:0.976" fill="#431d24" d="M 108.5,130.5 C 107.277,134.049 105.277,137.049 102.5,139.5C 103.723,135.951 105.723,132.951 108.5,130.5 Z"/></g>
<g><path style="opacity:0.992" fill="#50212b" d="M 102.5,139.5 C 100.473,142.194 98.1395,144.527 95.5,146.5C 94.5084,146.328 93.8417,146.662 93.5,147.5C 92.8333,147.5 92.1667,147.5 91.5,147.5C 95.1614,144.84 98.8281,142.174 102.5,139.5 Z"/></g>
<g><path style="opacity:0.996" fill="#254878" d="M 188.5,130.5 C 188.657,131.873 188.49,133.207 188,134.5C 185.561,137.111 183.728,140.111 182.5,143.5C 179.568,148.973 177.235,154.64 175.5,160.5C 176.534,148.978 180.867,138.978 188.5,130.5 Z"/></g>
<g><path style="opacity:0.929" fill="#182439" d="M 333.5,144.5 C 333.1,151.384 330.767,157.384 326.5,162.5C 329.039,156.539 331.372,150.539 333.5,144.5 Z"/></g>
<g><path style="opacity:0.985" fill="#38121c" d="M 169.5,133.5 C 171.109,136.149 171.943,139.149 172,142.5C 172.5,150.827 172.666,159.16 172.5,167.5C 172.5,168.167 172.167,168.5 171.5,168.5C 171.825,161.313 171.491,154.313 170.5,147.5C 170.276,143.821 169.942,140.154 169.5,136.5C 169.5,135.5 169.5,134.5 169.5,133.5 Z"/></g>
<g><path style="opacity:0.976" fill="#3c1820" d="M 87.5,149.5 C 83.2894,153.085 78.2894,154.751 72.5,154.5C 77.5169,153.05 82.5169,151.383 87.5,149.5 Z"/></g>
<g><path style="opacity:1" fill="#8892aa" d="M 314.5,135.5 C 312.932,140.649 310.765,145.649 308,150.5C 305.253,153.754 302.086,156.42 298.5,158.5C 301.079,155.416 303.913,152.416 307,149.5C 307.41,148.099 307.91,146.766 308.5,145.5C 308.5,145.167 308.5,144.833 308.5,144.5C 310.067,143.319 310.901,141.653 311,139.5C 312.788,130.093 311.288,121.427 306.5,113.5C 302.171,105.663 295.504,101.33 286.5,100.5C 285.833,100.5 285.167,100.5 284.5,100.5C 281.36,99.3592 278.027,99.1925 274.5,100C 271.719,100.522 269.385,101.689 267.5,103.5C 264.296,105.357 261.129,107.357 258,109.5C 256.214,112.736 254.714,116.07 253.5,119.5C 252.074,123.391 250.74,127.391 249.5,131.5C 249.661,134.7 250.661,137.367 252.5,139.5C 252.523,141.927 253.023,144.26 254,146.5C 257.07,151.073 260.904,154.739 265.5,157.5C 266.975,159.41 268.975,160.576 271.5,161C 277.491,161.499 283.491,161.666 289.5,161.5C 284.084,163.117 278.417,163.784 272.5,163.5C 267.858,162.875 263.858,160.875 260.5,157.5C 257.449,154.121 254.449,150.788 251.5,147.5C 250.964,144.445 250.131,141.445 249,138.5C 248.501,134.848 248.335,131.182 248.5,127.5C 250.402,118.465 254.735,110.798 261.5,104.5C 264.072,101.268 267.405,99.2679 271.5,98.5C 276.472,97.5784 281.472,97.4117 286.5,98C 305.643,103.295 314.976,115.795 314.5,135.5 Z"/></g>
<g><path style="opacity:1" fill="#686869" d="M 253.5,119.5 C 252.669,126.131 252.336,132.798 252.5,139.5C 250.661,137.367 249.661,134.7 249.5,131.5C 250.74,127.391 252.074,123.391 253.5,119.5 Z"/></g>
<g><path style="opacity:1" fill="#5a5a5b" d="M 300.5,108.5 C 302.5,110.167 304.5,111.833 306.5,113.5C 311.288,121.427 312.788,130.093 311,139.5C 310.901,141.653 310.067,143.319 308.5,144.5C 310.106,135.066 309.606,125.732 307,116.5C 304.118,114.336 301.951,111.669 300.5,108.5 Z"/></g>
<g><path style="opacity:1" fill="#424242" d="M 277.5,109.5 C 291.278,109.94 299.611,116.94 302.5,130.5C 301.016,134.39 299.85,138.39 299,142.5C 291.129,151.823 281.629,153.99 270.5,149C 261.865,142.2 259.031,133.367 262,122.5C 264.962,120.213 267.129,117.38 268.5,114C 271.686,112.643 274.686,111.143 277.5,109.5 Z"/></g>
<g><path style="opacity:1" fill="#7a7c81" d="M 286.5,100.5 C 295.504,101.33 302.171,105.663 306.5,113.5C 304.5,111.833 302.5,110.167 300.5,108.5C 300.047,107.542 299.381,106.708 298.5,106C 294.29,104.391 290.29,102.558 286.5,100.5 Z"/></g>
<g><path style="opacity:1" fill="#7d7f83" d="M 284.5,100.5 C 278.572,100.121 272.905,101.121 267.5,103.5C 269.385,101.689 271.719,100.522 274.5,100C 278.027,99.1925 281.36,99.3592 284.5,100.5 Z"/></g>
<g><path style="opacity:1" fill="#9e4256" d="M 91.5,147.5 C 92.1667,147.5 92.8333,147.5 93.5,147.5C 89.3252,152.587 83.9919,155.587 77.5,156.5C 74.8333,156.5 72.1667,156.5 69.5,156.5C 69.5,156.167 69.5,155.833 69.5,155.5C 70.791,155.737 71.791,155.404 72.5,154.5C 78.2894,154.751 83.2894,153.085 87.5,149.5C 89.3797,149.771 90.713,149.104 91.5,147.5 Z"/></g>
<g><path style="opacity:0.98" fill="#4b232b" d="M 69.5,155.5 C 69.5,155.833 69.5,156.167 69.5,156.5C 64.1203,156.324 58.787,156.658 53.5,157.5C 48.663,158.253 43.9963,159.586 39.5,161.5C 40.0577,160.21 41.0577,159.377 42.5,159C 51.2086,155.847 60.2086,154.68 69.5,155.5 Z"/></g>
<g><path style="opacity:1" fill="#c3556c" d="M 69.5,156.5 C 72.1667,156.5 74.8333,156.5 77.5,156.5C 66.8543,158.871 56.1876,161.705 45.5,165C 21.1078,177.286 11.9411,196.786 18,223.5C 25.8749,242.695 40.0415,254.195 60.5,258C 75.1879,259.626 89.5212,258.126 103.5,253.5C 101.424,255.584 99.0903,257.251 96.5,258.5C 93.0977,258.342 89.7644,258.676 86.5,259.5C 61.7397,265.398 40.9064,259.065 24,240.5C 14.9882,227.774 11.9882,213.774 15,198.5C 16.6766,193.153 18.3433,187.819 20,182.5C 33.0139,167.408 49.5139,158.741 69.5,156.5 Z"/></g>
<g><path style="opacity:1" fill="#883f4e" d="M 53.5,157.5 C 47.4944,160.667 41.1611,163 34.5,164.5C 35.6594,162.75 37.326,161.75 39.5,161.5C 43.9963,159.586 48.663,158.253 53.5,157.5 Z"/></g>
<g><path style="opacity:1" fill="#7d7e82" d="M 308.5,145.5 C 307.91,146.766 307.41,148.099 307,149.5C 303.913,152.416 301.079,155.416 298.5,158.5C 297.833,158.5 297.5,158.833 297.5,159.5C 294.888,160.371 292.221,161.037 289.5,161.5C 283.491,161.666 277.491,161.499 271.5,161C 268.975,160.576 266.975,159.41 265.5,157.5C 272.888,160.36 280.555,161.194 288.5,160C 291.758,157.539 295.425,155.873 299.5,155C 302.782,151.891 305.782,148.724 308.5,145.5 Z"/></g>
<g><path style="opacity:1" fill="#6c8bc3" d="M 297.5,159.5 C 295.3,161.64 292.633,163.14 289.5,164C 283.651,164.818 277.985,164.652 272.5,163.5C 278.417,163.784 284.084,163.117 289.5,161.5C 292.221,161.037 294.888,160.371 297.5,159.5 Z"/></g>
<g><path style="opacity:1" fill="#c9546c" d="M 113.5,130.5 C 106.372,144.113 95.3721,153.28 80.5,158C 68.3206,160.696 56.3206,164.03 44.5,168C 34.6142,173.886 26.7808,181.719 21,191.5C 17.7823,200.343 17.1156,209.343 19,218.5C 24.4111,230.546 25.9111,230.046 23.5,217C 24.74,202.257 31.0734,190.257 42.5,181C 47.9536,178.249 53.787,176.749 60,176.5C 72.0427,176.194 81.2094,180.861 87.5,190.5C 84.7173,188.933 82.0507,187.1 79.5,185C 76.3681,183.218 73.0347,182.052 69.5,181.5C 53.747,177.871 41.4137,182.871 32.5,196.5C 30.4383,198.41 28.9383,200.743 28,203.5C 23.3333,230.636 34.4999,245.969 61.5,249.5C 68.7963,249.307 74.7963,246.641 79.5,241.5C 82.4744,238.862 85.4744,236.195 88.5,233.5C 95.0305,225.438 97.3638,216.105 95.5,205.5C 96.1174,205.611 96.6174,205.944 97,206.5C 98.9749,217.561 96.6415,227.561 90,236.5C 80.7773,245.361 69.9439,250.861 57.5,253C 58.6721,253.419 59.6721,254.085 60.5,255C 73.3463,257.498 86.013,256.831 98.5,253C 111.749,247.709 123.749,240.376 134.5,231C 140.692,224.109 146.526,216.942 152,209.5C 155.329,203.358 159.495,198.025 164.5,193.5C 164.5,194.167 164.5,194.833 164.5,195.5C 161.758,197.449 160.091,200.116 159.5,203.5C 158.504,203.414 157.671,203.748 157,204.5C 154.256,209.534 151.423,214.534 148.5,219.5C 141.85,225.982 135.017,232.315 128,238.5C 127.727,240.101 127.227,241.601 126.5,243C 118.989,247.093 111.322,250.593 103.5,253.5C 89.5212,258.126 75.1879,259.626 60.5,258C 40.0415,254.195 25.8749,242.695 18,223.5C 11.9411,196.786 21.1078,177.286 45.5,165C 56.1876,161.705 66.8543,158.871 77.5,156.5C 83.9919,155.587 89.3252,152.587 93.5,147.5C 93.8417,146.662 94.5084,146.328 95.5,146.5C 96.552,146.649 97.552,146.483 98.5,146C 100.539,143.626 102.872,141.626 105.5,140C 108.082,136.679 110.749,133.513 113.5,130.5 Z"/></g>
<g><path style="opacity:0.988" fill="#51252e" d="M 34.5,164.5 C 28.8651,169.133 23.5318,174.133 18.5,179.5C 22.2206,172.779 27.5539,167.779 34.5,164.5 Z"/></g>
<g><path style="opacity:0.976" fill="#233859" d="M 321.5,167.5 C 321.16,169.679 320.16,171.512 318.5,173C 315.437,176.198 311.771,178.364 307.5,179.5C 310.541,177.638 313.208,175.305 315.5,172.5C 318.115,171.55 320.115,169.883 321.5,167.5 Z"/></g>
<g><path style="opacity:1" fill="#3d66a5" d="M 315.5,172.5 C 313.208,175.305 310.541,177.638 307.5,179.5C 304.098,182.535 300.098,184.535 295.5,185.5C 292.193,186.051 288.86,186.384 285.5,186.5C 285.611,185.883 285.944,185.383 286.5,185C 290.838,184.891 295.004,184.057 299,182.5C 303.968,178.138 309.468,174.805 315.5,172.5 Z"/></g>
<g><path style="opacity:1" fill="#672032" d="M 170.5,147.5 C 171.491,154.313 171.825,161.313 171.5,168.5C 171.5,171.5 171.5,174.5 171.5,177.5C 170.833,177.5 170.5,177.833 170.5,178.5C 169.571,181.675 168.738,185.009 168,188.5C 167.617,189.056 167.117,189.389 166.5,189.5C 166.674,187.139 167.007,184.806 167.5,182.5C 168.832,178.736 169.665,174.736 170,170.5C 170.5,163.842 170.666,157.175 170.5,150.5C 170.5,149.5 170.5,148.5 170.5,147.5 Z"/></g>
<g><path style="opacity:0.999" fill="#22406c" d="M 175.5,160.5 C 173.033,171.69 172.033,183.023 172.5,194.5C 171.511,189.025 171.178,183.358 171.5,177.5C 171.5,174.5 171.5,171.5 171.5,168.5C 172.167,168.5 172.5,168.167 172.5,167.5C 173.131,165.025 174.131,162.691 175.5,160.5 Z"/></g>
<g><path style="opacity:1" fill="#494949" d="M 91.5,223.5 C 81.806,240.967 67.4727,246.634 48.5,240.5C 44.2233,237.727 40.39,234.393 37,230.5C 36.5779,228.645 36.0779,226.811 35.5,225C 35.1639,223.97 34.4972,223.47 33.5,223.5C 33.3339,217.824 33.5006,212.157 34,206.5C 36.1049,203.893 36.9383,200.893 36.5,197.5C 37.7684,193.233 40.4351,190.233 44.5,188.5C 49.6376,184.754 55.4709,183.087 62,183.5C 75.7681,183.071 85.4348,189.071 91,201.5C 92.7801,208.804 92.9468,216.137 91.5,223.5 Z"/></g>
<g><path style="opacity:1" fill="#d74a6b" d="M 168.5,165.5 C 164.381,147.396 158.548,129.729 151,112.5C 146.927,104.86 141.76,98.0263 135.5,92C 132.725,89.0842 129.892,88.9176 127,91.5C 126.05,101.95 124.383,112.283 122,122.5C 117.261,136.906 108.428,148.072 95.5,156C 86.6497,159.926 77.983,164.093 69.5,168.5C 70.0402,169.748 70.7069,170.915 71.5,172C 102.769,188.227 109.603,211.727 92,242.5C 91.5065,244.134 91.3398,245.801 91.5,247.5C 97.4329,247.691 103.1,246.524 108.5,244C 121.074,237.438 131.908,228.605 141,217.5C 147.916,207.337 154.583,197.003 161,186.5C 162.789,184.135 164.956,182.468 167.5,181.5C 167.5,181.833 167.5,182.167 167.5,182.5C 165.747,185.146 164.747,188.146 164.5,191.5C 162.61,191.297 161.11,191.963 160,193.5C 154,202.167 148,210.833 142,219.5C 129.628,234.604 114.128,245.104 95.5,251C 92.1667,251.667 88.8333,251.667 85.5,251C 83.842,250.275 83.342,249.108 84,247.5C 91.3297,239.845 96.3297,230.845 99,220.5C 100.746,196.241 89.9128,180.741 66.5,174C 59.8085,173.831 53.1419,173.331 46.5,172.5C 50.5791,169.86 54.9125,167.694 59.5,166C 105.462,158.709 126.962,131.876 124,85.5C 130.483,84.7314 135.816,87.0647 140,92.5C 145.411,98.9839 150.078,105.984 154,113.5C 159.013,126.545 164.013,139.545 169,152.5C 169.814,157.02 169.647,161.354 168.5,165.5 Z"/></g>
<g><path style="opacity:0.988" fill="#542730" d="M 18.5,179.5 C 17.752,183.006 16.4186,186.34 14.5,189.5C 13.1667,191.833 11.8333,194.167 10.5,196.5C 11.3104,189.883 13.9771,184.216 18.5,179.5 Z"/></g>
<g><path style="opacity:0.98" fill="#294065" d="M 285.5,187.5 C 279.325,188.339 272.992,189.006 266.5,189.5C 267.263,188.732 268.263,188.232 269.5,188C 274.823,187.501 280.156,187.334 285.5,187.5 Z"/></g>
<g><path style="opacity:0.88" fill="#152030" d="M 295.5,185.5 C 293.068,186.958 290.401,188.125 287.5,189C 278.007,189.087 268.673,190.254 259.5,192.5C 261.509,190.935 263.843,189.935 266.5,189.5C 272.992,189.006 279.325,188.339 285.5,187.5C 285.5,187.167 285.5,186.833 285.5,186.5C 288.86,186.384 292.193,186.051 295.5,185.5 Z"/></g>
<g><path style="opacity:1" fill="#1e88f3" d="M 238.5,100.5 C 241.167,100.5 243.833,100.5 246.5,100.5C 244.366,108.122 242.2,115.789 240,123.5C 238.222,144.444 246.389,160.277 264.5,171C 267.364,174.414 266.697,177.081 262.5,179C 231.74,191.318 215.907,214.151 215,247.5C 214.653,249.18 213.653,250.18 212,250.5C 208.401,248.571 205.067,246.237 202,243.5C 197.6,236.757 193.6,229.757 190,222.5C 185.534,208.969 181.534,195.303 178,181.5C 177.049,175.627 177.715,169.96 180,164.5C 184.827,158.337 188.827,151.671 192,144.5C 202.898,124.763 218.398,110.097 238.5,100.5 Z"/></g>
<g><path style="opacity:1" fill="#118bf9" d="M 231.5,110.5 C 232.708,111.234 234.041,111.567 235.5,111.5C 230.803,133.898 236.636,152.898 253,168.5C 255.706,171.323 255.872,174.156 253.5,177C 236.944,185.223 224.777,197.723 217,214.5C 214.491,221.885 211.991,229.219 209.5,236.5C 208.277,237.614 206.944,237.781 205.5,237C 196.757,227.131 191.257,215.631 189,202.5C 185.875,190.675 184.875,178.675 186,166.5C 189.041,162.36 190.875,157.694 191.5,152.5C 192.675,152.719 193.675,152.386 194.5,151.5C 202.388,133.622 214.722,119.955 231.5,110.5 Z"/></g>
<g><path style="opacity:1" fill="#048cfd" d="M 223.5,123.5 C 225.582,123.624 227.082,124.624 228,126.5C 228.559,134.404 230.226,142.071 233,149.5C 237.301,157.297 241.801,164.963 246.5,172.5C 242.323,177.84 237.323,182.34 231.5,186C 220.564,195.367 212.731,206.867 208,220.5C 207.261,221.574 206.261,222.241 205,222.5C 199.84,219.734 196.84,215.401 196,209.5C 193.971,200.524 192.138,191.524 190.5,182.5C 192.908,163.682 200.242,147.015 212.5,132.5C 216.421,129.72 220.087,126.72 223.5,123.5 Z"/></g>
<g><path style="opacity:0.963" fill="#142238" d="M 171.5,177.5 C 171.178,183.358 171.511,189.025 172.5,194.5C 172.5,194.833 172.5,195.167 172.5,195.5C 172.646,199.519 172.979,203.519 173.5,207.5C 171.909,203.796 171.076,199.796 171,195.5C 170.501,189.843 170.334,184.176 170.5,178.5C 170.5,177.833 170.833,177.5 171.5,177.5 Z"/></g>
<g><path style="opacity:1" fill="#424242" d="M 60.5,192.5 C 79.1794,195.593 85.3461,206.26 79,224.5C 69.5675,234.881 59.0675,236.214 47.5,228.5C 45.0012,223.696 43.3346,218.53 42.5,213C 43.6992,209.329 44.5325,205.496 45,201.5C 49.6478,197.297 54.8144,194.297 60.5,192.5 Z"/></g>
<g><path style="opacity:1" fill="#2f83e4" d="M 174.5,182.5 C 175.902,186.916 177.735,191.249 180,195.5C 182.677,209.205 187.344,222.205 194,234.5C 198.851,242.692 205.184,249.692 213,255.5C 214.605,254.899 215.938,253.899 217,252.5C 218.749,241.511 220.415,230.511 222,219.5C 224.939,212.78 228.605,206.447 233,200.5C 243.508,190.329 255.674,182.829 269.5,178C 273.152,174.847 272.819,171.847 268.5,169C 248.205,160.263 239.372,144.763 242,122.5C 244.111,114.377 247.278,106.71 251.5,99.5C 251.167,98.8333 250.833,98.1667 250.5,97.5C 244.478,96.7895 238.644,97.7895 233,100.5C 220.146,108.018 209.146,117.685 200,129.5C 193.391,139.739 186.558,149.739 179.5,159.5C 179.192,157.076 179.526,154.743 180.5,152.5C 186.549,145.275 192.049,137.608 197,129.5C 207.778,115.057 221.278,103.89 237.5,96C 244.701,93.1881 252.034,92.0214 259.5,92.5C 258.912,97.443 256.579,101.443 252.5,104.5C 239.003,125.204 241.003,144.204 258.5,161.5C 270.627,169.684 283.961,172.851 298.5,171C 295.289,172.852 291.956,174.519 288.5,176C 276.49,179.457 264.657,183.29 253,187.5C 237.849,195.652 227.849,207.985 223,224.5C 221.276,236.166 219.942,247.832 219,259.5C 216.853,260.476 214.686,260.309 212.5,259C 210.167,257.333 207.833,255.667 205.5,254C 202.453,250.075 199.286,246.241 196,242.5C 194.098,238.261 191.765,234.261 189,230.5C 184.333,217.833 179.667,205.167 175,192.5C 174.502,189.183 174.335,185.85 174.5,182.5 Z"/></g>
<g><path style="opacity:1" fill="#ae838a" d="M 69.5,181.5 C 63.4632,181.171 57.4632,181.504 51.5,182.5C 48.4027,183.67 46.0694,185.67 44.5,188.5C 40.4351,190.233 37.7684,193.233 36.5,197.5C 35.5041,197.414 34.6708,197.748 34,198.5C 33.9016,201.522 33.0682,204.189 31.5,206.5C 30.3357,212.349 30.3357,218.349 31.5,224.5C 30.1818,221.742 29.5152,218.576 29.5,215C 29.1594,208.594 30.1594,202.427 32.5,196.5C 41.4137,182.871 53.747,177.871 69.5,181.5 Z"/></g>
<g><path style="opacity:0.996" fill="#2b4c7d" d="M 254.5,193.5 C 251.437,194.729 249.104,196.896 247.5,200C 246.099,200.41 244.766,200.91 243.5,201.5C 245.844,197.148 249.511,194.481 254.5,193.5 Z"/></g>
<g><path style="opacity:1" fill="#853546" d="M 164.5,195.5 C 163.962,197.117 163.629,198.784 163.5,200.5C 161.025,201.687 160.025,203.687 160.5,206.5C 159.833,206.833 159.167,207.167 158.5,207.5C 158.833,206.167 159.167,204.833 159.5,203.5C 160.091,200.116 161.758,197.449 164.5,195.5 Z"/></g>
<g><path style="opacity:0.953" fill="#38151d" d="M 163.5,200.5 C 162.492,202.544 161.492,204.544 160.5,206.5C 160.025,203.687 161.025,201.687 163.5,200.5 Z"/></g>
<g><path style="opacity:1" fill="#3c70b9" d="M 173.5,195.5 C 176.152,206.507 179.152,217.507 182.5,228.5C 181.407,226.651 180.074,224.984 178.5,223.5C 178.072,220.215 177.072,217.215 175.5,214.5C 174.687,208.185 174.021,201.852 173.5,195.5 Z"/></g>
<g><path style="opacity:0.996" fill="#284774" d="M 172.5,195.5 C 172.833,195.5 173.167,195.5 173.5,195.5C 174.021,201.852 174.687,208.185 175.5,214.5C 174.883,214.389 174.383,214.056 174,213.5C 173.505,211.527 173.338,209.527 173.5,207.5C 172.979,203.519 172.646,199.519 172.5,195.5 Z"/></g>
<g><path style="opacity:0.949" fill="#192942" d="M 242.5,203.5 C 240.206,207.127 237.54,210.461 234.5,213.5C 236.033,209.296 238.7,205.963 242.5,203.5 Z"/></g>
<g><path style="opacity:1" fill="#31578e" d="M 243.5,201.5 C 243.167,202.167 242.833,202.833 242.5,203.5C 238.7,205.963 236.033,209.296 234.5,213.5C 232.584,219.07 230.251,224.403 227.5,229.5C 228.484,224.559 229.65,219.559 231,214.5C 233.02,212.449 234.52,210.116 235.5,207.5C 237.902,205.091 240.569,203.091 243.5,201.5 Z"/></g>
<g><path style="opacity:1" fill="#924957" d="M 14.5,189.5 C 14.2634,192.647 13.4301,195.647 12,198.5C 11.5003,206.493 11.3336,214.493 11.5,222.5C 10.0973,218.928 9.43066,215.095 9.5,211C 9.95805,206.171 10.2914,201.338 10.5,196.5C 11.8333,194.167 13.1667,191.833 14.5,189.5 Z"/></g>
<g><path style="opacity:1" fill="#696666" d="M 36.5,197.5 C 36.9383,200.893 36.1049,203.893 34,206.5C 33.5006,212.157 33.3339,217.824 33.5,223.5C 32.71,222.391 32.21,221.058 32,219.5C 31.501,215.179 31.3343,210.846 31.5,206.5C 33.0682,204.189 33.9016,201.522 34,198.5C 34.6708,197.748 35.5041,197.414 36.5,197.5 Z"/></g>
<g><path style="opacity:1" fill="#9d8689" d="M 31.5,206.5 C 31.3343,210.846 31.501,215.179 32,219.5C 32.21,221.058 32.71,222.391 33.5,223.5C 34.4972,223.47 35.1639,223.97 35.5,225C 36.0779,226.811 36.5779,228.645 37,230.5C 40.39,234.393 44.2233,237.727 48.5,240.5C 67.4727,246.634 81.806,240.967 91.5,223.5C 90.5115,226.817 89.5115,230.151 88.5,233.5C 85.4744,236.195 82.4744,238.862 79.5,241.5C 76.3408,243.08 73.0075,244.08 69.5,244.5C 64.1667,244.5 58.8333,244.5 53.5,244.5C 41.9974,242.327 34.6641,235.661 31.5,224.5C 30.3357,218.349 30.3357,212.349 31.5,206.5 Z"/></g>
<g><path style="opacity:1" fill="#9f878a" d="M 69.5,181.5 C 73.0347,182.052 76.3681,183.218 79.5,185C 82.0507,187.1 84.7173,188.933 87.5,190.5C 90.842,193.838 92.842,197.838 93.5,202.5C 94.4739,208.472 94.6406,214.472 94,220.5C 93.6232,221.942 92.7899,222.942 91.5,223.5C 92.9468,216.137 92.7801,208.804 91,201.5C 85.4348,189.071 75.7681,183.071 62,183.5C 55.4709,183.087 49.6376,184.754 44.5,188.5C 46.0694,185.67 48.4027,183.67 51.5,182.5C 57.4632,181.504 63.4632,181.171 69.5,181.5 Z"/></g>
<g><path style="opacity:0.996" fill="#7e3846" d="M 158.5,208.5 C 156.218,212.777 153.551,216.777 150.5,220.5C 151.731,217.039 153.231,213.706 155,210.5C 156.113,209.695 157.279,209.028 158.5,208.5 Z"/></g>
<g><path style="opacity:0.965" fill="#243c60" d="M 175.5,214.5 C 177.072,217.215 178.072,220.215 178.5,223.5C 176.528,220.916 175.528,217.916 175.5,214.5 Z"/></g>
<g><path style="opacity:1" fill="#b75569" d="M 69.5,156.5 C 49.5139,158.741 33.0139,167.408 20,182.5C 18.3433,187.819 16.6766,193.153 15,198.5C 11.9882,213.774 14.9882,227.774 24,240.5C 40.9064,259.065 61.7397,265.398 86.5,259.5C 85.6661,260.748 84.3328,261.415 82.5,261.5C 71.183,262.577 59.8497,262.744 48.5,262C 47.7562,260.961 46.7562,260.461 45.5,260.5C 42.994,259.25 40.3274,258.584 37.5,258.5C 37.5,258.167 37.5,257.833 37.5,257.5C 32.9774,251.298 27.3108,246.632 20.5,243.5C 20.0874,241.11 19.4207,238.777 18.5,236.5C 15.7693,232.33 13.4359,227.997 11.5,223.5C 11.5,223.167 11.5,222.833 11.5,222.5C 11.3336,214.493 11.5003,206.493 12,198.5C 13.4301,195.647 14.2634,192.647 14.5,189.5C 16.4186,186.34 17.752,183.006 18.5,179.5C 23.5318,174.133 28.8651,169.133 34.5,164.5C 41.1611,163 47.4944,160.667 53.5,157.5C 58.787,156.658 64.1203,156.324 69.5,156.5 Z"/></g>
<g><path style="opacity:1" fill="#c35b70" d="M 32.5,196.5 C 30.1594,202.427 29.1594,208.594 29.5,215C 29.5152,218.576 30.1818,221.742 31.5,224.5C 34.6641,235.661 41.9974,242.327 53.5,244.5C 53.9175,245.222 54.5842,245.722 55.5,246C 57.8333,246.167 60.1667,246.333 62.5,246.5C 65.2695,246.471 67.6028,245.805 69.5,244.5C 73.0075,244.08 76.3408,243.08 79.5,241.5C 74.7963,246.641 68.7963,249.307 61.5,249.5C 34.4999,245.969 23.3333,230.636 28,203.5C 28.9383,200.743 30.4383,198.41 32.5,196.5 Z"/></g>
<g><path style="opacity:1" fill="#b34f64" d="M 159.5,203.5 C 159.167,204.833 158.833,206.167 158.5,207.5C 158.5,207.833 158.5,208.167 158.5,208.5C 157.279,209.028 156.113,209.695 155,210.5C 153.231,213.706 151.731,217.039 150.5,220.5C 145.478,225.854 140.478,231.187 135.5,236.5C 132.376,240.964 128.376,244.297 123.5,246.5C 118.89,248.473 114.557,250.806 110.5,253.5C 110.027,254.906 109.027,255.573 107.5,255.5C 103.959,256.759 100.292,257.759 96.5,258.5C 99.0903,257.251 101.424,255.584 103.5,253.5C 111.322,250.593 118.989,247.093 126.5,243C 127.227,241.601 127.727,240.101 128,238.5C 135.017,232.315 141.85,225.982 148.5,219.5C 151.423,214.534 154.256,209.534 157,204.5C 157.671,203.748 158.504,203.414 159.5,203.5 Z"/></g>
<g><path style="opacity:0.961" fill="#361a1f" d="M 10.5,196.5 C 10.2914,201.338 9.95805,206.171 9.5,211C 9.43066,215.095 10.0973,218.928 11.5,222.5C 11.5,222.833 11.5,223.167 11.5,223.5C 11.5172,225.565 11.8505,227.565 12.5,229.5C 10.6885,227.615 9.52184,225.281 9,222.5C 8.33333,215.167 8.33333,207.833 9,200.5C 9.21003,198.942 9.71003,197.609 10.5,196.5 Z"/></g>
<g><path style="opacity:1" fill="#b8818a" d="M 93.5,202.5 C 94.1667,203.5 94.8333,204.5 95.5,205.5C 97.3638,216.105 95.0305,225.438 88.5,233.5C 89.5115,230.151 90.5115,226.817 91.5,223.5C 92.7899,222.942 93.6232,221.942 94,220.5C 94.6406,214.472 94.4739,208.472 93.5,202.5 Z"/></g>
<g><path style="opacity:0.984" fill="#713440" d="M 150.5,220.5 C 146.871,227.07 141.871,232.403 135.5,236.5C 140.478,231.187 145.478,225.854 150.5,220.5 Z"/></g>
<g><path style="opacity:0.976" fill="#411e25" d="M 12.5,230.5 C 14.9236,233.008 16.5903,236.008 17.5,239.5C 14.5848,237.349 12.9181,234.349 12.5,230.5 Z"/></g>
<g><path style="opacity:1" fill="#803c4a" d="M 11.5,223.5 C 13.4359,227.997 15.7693,232.33 18.5,236.5C 19.4207,238.777 20.0874,241.11 20.5,243.5C 18.5544,242.965 17.5544,241.632 17.5,239.5C 16.5903,236.008 14.9236,233.008 12.5,230.5C 12.5,230.167 12.5,229.833 12.5,229.5C 11.8505,227.565 11.5172,225.565 11.5,223.5 Z"/></g>
<g><path style="opacity:1" fill="#2a4976" d="M 178.5,223.5 C 180.074,224.984 181.407,226.651 182.5,228.5C 184.282,232.307 185.615,236.307 186.5,240.5C 182.306,235.6 179.639,229.933 178.5,223.5 Z"/></g>
<g><path style="opacity:0.984" fill="#2a4268" d="M 227.5,230.5 C 227.153,238.936 227.819,247.269 229.5,255.5C 227.836,254.051 227.002,252.051 227,249.5C 226.18,242.986 226.347,236.653 227.5,230.5 Z"/></g>
<g><path style="opacity:1" fill="#bc8a92" d="M 53.5,244.5 C 58.8333,244.5 64.1667,244.5 69.5,244.5C 67.6028,245.805 65.2695,246.471 62.5,246.5C 60.1667,246.333 57.8333,246.167 55.5,246C 54.5842,245.722 53.9175,245.222 53.5,244.5 Z"/></g>
<g><path style="opacity:0.992" fill="#6e313d" d="M 123.5,246.5 C 119.87,250.128 115.537,252.461 110.5,253.5C 114.557,250.806 118.89,248.473 123.5,246.5 Z"/></g>
<g><path style="opacity:0.941" fill="#15253c" d="M 187.5,244.5 C 189.587,245.585 190.92,247.251 191.5,249.5C 189.413,248.415 188.08,246.749 187.5,244.5 Z"/></g>
<g><path style="opacity:1" fill="#914654" d="M 20.5,243.5 C 27.3108,246.632 32.9774,251.298 37.5,257.5C 30.6618,254.335 24.9951,249.668 20.5,243.5 Z"/></g>
<g><path style="opacity:0.973" fill="#203453" d="M 191.5,249.5 C 193.5,250.833 195.167,252.5 196.5,254.5C 196.5,254.833 196.5,255.167 196.5,255.5C 194.086,254.089 192.419,252.089 191.5,249.5 Z"/></g>
<g><path style="opacity:1" fill="#3f78c6" d="M 235.5,207.5 C 234.52,210.116 233.02,212.449 231,214.5C 229.65,219.559 228.484,224.559 227.5,229.5C 227.5,229.833 227.5,230.167 227.5,230.5C 226.347,236.653 226.18,242.986 227,249.5C 227.002,252.051 227.836,254.051 229.5,255.5C 229.5,255.833 229.5,256.167 229.5,256.5C 229.166,259.491 230.166,261.824 232.5,263.5C 232.366,265.292 232.699,266.958 233.5,268.5C 234.124,272.013 233.124,274.847 230.5,277C 226.611,276.255 222.611,275.421 218.5,274.5C 216.308,272.02 213.975,269.52 211.5,267C 210.207,266.51 208.873,266.343 207.5,266.5C 204.906,262.728 202.073,259.061 199,255.5C 198.329,254.748 197.496,254.414 196.5,254.5C 195.167,252.5 193.5,250.833 191.5,249.5C 190.92,247.251 189.587,245.585 187.5,244.5C 187.768,242.901 187.434,241.568 186.5,240.5C 185.615,236.307 184.282,232.307 182.5,228.5C 184.313,230.053 186.147,231.72 188,233.5C 189.886,239.3 193.22,243.967 198,247.5C 202.141,255.641 208.308,261.808 216.5,266C 218.833,266.667 221.167,266.667 223.5,266C 224.114,250.873 224.948,235.707 226,220.5C 227.409,216.684 229.076,213.017 231,209.5C 232.11,207.963 233.61,207.297 235.5,207.5 Z"/></g>
<g><path style="opacity:1" fill="#2e5186" d="M 196.5,255.5 C 196.5,255.167 196.5,254.833 196.5,254.5C 197.496,254.414 198.329,254.748 199,255.5C 202.073,259.061 204.906,262.728 207.5,266.5C 203.473,263.14 199.806,259.473 196.5,255.5 Z"/></g>
<g><path style="opacity:1" fill="#9c495a" d="M 96.5,258.5 C 93.8607,259.459 91.1941,260.626 88.5,262C 83.9244,262.272 79.5911,263.105 75.5,264.5C 66.0995,264.886 56.7662,264.386 47.5,263C 46.6195,262.292 45.9528,261.458 45.5,260.5C 46.7562,260.461 47.7562,260.961 48.5,262C 59.8497,262.744 71.183,262.577 82.5,261.5C 84.3328,261.415 85.6661,260.748 86.5,259.5C 89.7644,258.676 93.0977,258.342 96.5,258.5 Z"/></g>
<g><path style="opacity:1" fill="#273f66" d="M 229.5,256.5 C 231.065,258.509 232.065,260.843 232.5,263.5C 230.166,261.824 229.166,259.491 229.5,256.5 Z"/></g>
<g><path style="opacity:0.949" fill="#4b212a" d="M 107.5,255.5 C 106.251,257.136 104.584,258.303 102.5,259C 98.0895,260.036 93.7562,261.369 89.5,263C 84.9147,264.225 80.248,264.725 75.5,264.5C 79.5911,263.105 83.9244,262.272 88.5,262C 91.1941,260.626 93.8607,259.459 96.5,258.5C 100.292,257.759 103.959,256.759 107.5,255.5 Z"/></g>
<g><path style="opacity:0.976" fill="#512830" d="M 37.5,258.5 C 40.3274,258.584 42.994,259.25 45.5,260.5C 45.9528,261.458 46.6195,262.292 47.5,263C 56.7662,264.386 66.0995,264.886 75.5,264.5C 66.3425,265.658 57.0092,265.824 47.5,265C 44.0121,263.001 40.6788,260.834 37.5,258.5 Z"/></g>
<g><path style="opacity:0.996" fill="#2c4367" d="M 232.5,263.5 C 235.654,268.3 238.988,272.967 242.5,277.5C 240.938,277.267 239.605,276.6 238.5,275.5C 236.649,273.224 234.982,270.891 233.5,268.5C 232.699,266.958 232.366,265.292 232.5,263.5 Z"/></g>
<g><path style="opacity:1" fill="#33568b" d="M 207.5,266.5 C 208.873,266.343 210.207,266.51 211.5,267C 213.975,269.52 216.308,272.02 218.5,274.5C 218.833,275.167 219.167,275.833 219.5,276.5C 217.956,276.297 216.622,275.63 215.5,274.5C 212.506,272.173 209.839,269.506 207.5,266.5 Z"/></g>
<g><path style="opacity:1" fill="#4a71af" d="M 233.5,268.5 C 234.982,270.891 236.649,273.224 238.5,275.5C 240.428,277.781 241.428,280.447 241.5,283.5C 237.426,283.218 233.426,282.552 229.5,281.5C 226.705,278.769 223.372,277.102 219.5,276.5C 219.167,275.833 218.833,275.167 218.5,274.5C 222.611,275.421 226.611,276.255 230.5,277C 233.124,274.847 234.124,272.013 233.5,268.5 Z"/></g>
<g><path style="opacity:1" fill="#304971" d="M 219.5,276.5 C 223.372,277.102 226.705,278.769 229.5,281.5C 228.833,281.5 228.167,281.5 227.5,281.5C 224.489,280.331 221.822,278.664 219.5,276.5 Z"/></g>
<g><path style="opacity:1" fill="#4e6693" d="M 238.5,275.5 C 239.605,276.6 240.938,277.267 242.5,277.5C 243.911,279.914 245.911,281.581 248.5,282.5C 249.5,283.833 250.5,285.167 251.5,286.5C 250.448,288.256 248.781,288.923 246.5,288.5C 241.239,286.579 235.906,284.746 230.5,283C 229.944,282.617 229.611,282.117 229.5,281.5C 233.426,282.552 237.426,283.218 241.5,283.5C 241.428,280.447 240.428,277.781 238.5,275.5 Z"/></g>
<g><path style="opacity:0.98" fill="#243045" d="M 227.5,281.5 C 228.167,281.5 228.833,281.5 229.5,281.5C 229.611,282.117 229.944,282.617 230.5,283C 235.906,284.746 241.239,286.579 246.5,288.5C 247.5,289.167 248.5,289.833 249.5,290.5C 242.584,289.215 235.918,287.048 229.5,284C 228.619,283.292 227.953,282.458 227.5,281.5 Z"/></g>
<g><path style="opacity:1" fill="#525e77" d="M 251.5,286.5 C 266.487,291.168 266.154,292.501 250.5,290.5C 250.167,290.5 249.833,290.5 249.5,290.5C 248.5,289.833 247.5,289.167 246.5,288.5C 248.781,288.923 250.448,288.256 251.5,286.5 Z"/></g>
<g><path style="opacity:0.998" fill="#3d4049" d="M 248.5,282.5 C 259.903,290.07 272.569,293.403 286.5,292.5C 286.5,293.5 286.5,294.5 286.5,295.5C 273.946,296.62 261.946,294.953 250.5,290.5C 266.154,292.501 266.487,291.168 251.5,286.5C 250.5,285.167 249.5,283.833 248.5,282.5 Z"/></g>
<g><path style="opacity:0.004" fill="#949595" d="M 295.5,291.5 C 299.5,292.167 299.5,292.833 295.5,293.5C 295.5,292.833 295.5,292.167 295.5,291.5 Z"/></g>
</svg>
