<?xml version="1.0" encoding="UTF-8"?>
<!DOCTYPE svg PUBLIC "-//W3C//DTD SVG 1.1//EN" "http://www.w3.org/Graphics/SVG/1.1/DTD/svg11.dtd">
<svg xmlns="http://www.w3.org/2000/svg" version="1.1" width="100%" viewBox="0 0 338 338" style="shape-rendering:geometricPrecision; text-rendering:geometricPrecision; image-rendering:optimizeQuality; fill-rule:evenodd; clip-rule:evenodd" xmlns:xlink="http://www.w3.org/1999/xlink">
<g><path style="opacity:0.172" fill="#040404" d="M 156.5,-0.5 C 158.833,-0.5 161.167,-0.5 163.5,-0.5C 165.123,0.77943 166.79,2.11276 168.5,3.5C 170.21,2.11276 171.877,0.77943 173.5,-0.5C 175.5,-0.5 177.5,-0.5 179.5,-0.5C 183.216,2.05182 186.049,5.38515 188,9.5C 194.396,40.3168 200.562,71.1501 206.5,102C 213.936,98.7939 220.602,94.1272 226.5,88C 238.441,80.3906 250.108,72.3906 261.5,64C 272.438,65.0104 275.938,70.8437 272,81.5C 263.605,94.605 254.939,107.605 246,120.5C 244.991,122.025 244.491,123.692 244.5,125.5C 243.5,125.5 242.5,125.5 241.5,125.5C 240.53,128.661 238.863,131.494 236.5,134C 264.568,140.414 292.901,146.08 321.5,151C 333.757,154.721 336.424,161.888 329.5,172.5C 334.775,182.128 332.109,188.628 321.5,192C 296.906,196.497 272.239,201.164 247.5,206C 244.5,207 241.5,208 238.5,209C 250.365,226.555 261.865,244.388 273,262.5C 274.481,269.718 271.647,274.552 264.5,277C 261.351,277.274 258.351,276.608 255.5,275C 239.302,262.633 222.968,250.466 206.5,238.5C 206.167,238.833 205.833,239.167 205.5,239.5C 200.079,264.651 195.245,289.985 191,315.5C 189.191,321.059 187.524,326.726 186,332.5C 184.195,334.826 182.028,336.492 179.5,337.5C 177.5,337.5 175.5,337.5 173.5,337.5C 172.166,335.841 170.499,334.508 168.5,333.5C 166.131,334.892 163.797,336.225 161.5,337.5C 160.167,337.5 158.833,337.5 157.5,337.5C 153.521,335.685 150.688,332.685 149,328.5C 144.568,308.902 140.902,289.235 138,269.5C 134.783,259.723 132.283,249.723 130.5,239.5C 115.793,249.038 101.793,259.538 88.5,271C 84.5311,272.984 80.5311,274.984 76.5,277C 70.6491,278.157 66.4824,275.991 64,270.5C 63.3333,268.833 63.3333,267.167 64,265.5C 65.7506,263.51 66.7506,261.177 67,258.5C 77.1531,243.03 87.4864,227.697 98,212.5C 98.49,211.207 98.6567,209.873 98.5,208.5C 85.782,205.988 73.1154,203.154 60.5,200C 46.8611,197.859 33.1945,195.526 19.5,193C 11.2295,191.89 5.8962,187.39 3.5,179.5C 4.24221,176.059 5.90888,173.225 8.5,171C 7.46447,169.099 6.2978,167.265 5,165.5C 4.33333,164.167 4.33333,162.833 5,161.5C 7.96901,156.527 12.1357,153.027 17.5,151C 45.1098,146.578 72.4431,141.078 99.5,134.5C 89.5966,118.431 79.0966,102.764 68,87.5C 66.4865,83.1465 64.9865,78.8132 63.5,74.5C 65.919,66.1243 71.2523,63.291 79.5,66C 95.808,77.4983 111.808,89.4983 127.5,102C 128.784,102.684 129.951,102.517 131,101.5C 133.898,85.1758 136.732,68.8425 139.5,52.5C 142.911,37.5385 146.077,22.5385 149,7.5C 151.028,4.30777 153.528,1.64111 156.5,-0.5 Z M 203.5,127.5 C 207.402,129.893 210.902,132.893 214,136.5C 214.667,137.5 214.667,138.5 214,139.5C 210.24,135.583 206.74,131.583 203.5,127.5 Z M 157.5,145.5 C 176.103,140.715 188.603,147.048 195,164.5C 195.667,169.833 195.667,175.167 195,180.5C 192.822,184.856 190.655,189.189 188.5,193.5C 184.897,195.301 181.231,197.135 177.5,199C 171.5,199.667 165.5,199.667 159.5,199C 155.67,197.298 152.004,195.465 148.5,193.5C 145.833,189.5 143.666,185.166 142,180.5C 138.865,164.897 144.032,153.23 157.5,145.5 Z"/></g>
<g><path style="opacity:0.761" fill="#776944" d="M 178.5,8.5 C 177.5,8.5 176.5,8.5 175.5,8.5C 175.167,8.5 174.833,8.5 174.5,8.5C 174.62,7.41383 175.287,6.74716 176.5,6.5C 177.713,6.74716 178.38,7.41383 178.5,8.5 Z"/></g>
<g><path style="opacity:0.937" fill="#9b885e" d="M 160.5,6.5 C 160.5,7.16667 160.5,7.83333 160.5,8.5C 159.833,8.5 159.167,8.5 158.5,8.5C 158.5,7.16667 159.167,6.5 160.5,6.5 Z"/></g>
<g><path style="opacity:0.901" fill="#594800" d="M 174.5,8.5 C 174.833,8.5 175.167,8.5 175.5,8.5C 175.168,43.3373 175.502,78.004 176.5,112.5C 178.5,113.167 180.5,113.833 182.5,114.5C 179.881,114.768 177.381,114.435 175,113.5C 174.5,78.5016 174.333,43.5016 174.5,8.5 Z"/></g>
<g><path style="opacity:0.804" fill="#44370f" d="M 178.5,10.5 C 180.369,12.6353 181.036,15.3019 180.5,18.5C 179.833,17.1667 179.167,15.8333 178.5,14.5C 178.5,13.1667 178.5,11.8333 178.5,10.5 Z"/></g>
<g><path style="opacity:0.992" fill="#927704" d="M 175.5,8.5 C 176.5,8.5 177.5,8.5 178.5,8.5C 178.5,9.16667 178.5,9.83333 178.5,10.5C 178.5,11.8333 178.5,13.1667 178.5,14.5C 176.507,46.8163 175.84,79.4829 176.5,112.5C 175.502,78.004 175.168,43.3373 175.5,8.5 Z"/></g>
<g><path style="opacity:0.992" fill="#cba604" d="M 158.5,8.5 C 159.167,8.5 159.833,8.5 160.5,8.5C 160.5,43.1667 160.5,77.8333 160.5,112.5C 160.167,112.5 159.833,112.5 159.5,112.5C 159.833,81.1596 159.5,49.8262 158.5,18.5C 157.355,26.4086 155.688,34.0753 153.5,41.5C 154.889,30.444 156.555,19.444 158.5,8.5 Z"/></g>
<g><path style="opacity:1" fill="#d7b002" d="M 178.5,14.5 C 178.5,16.1667 178.5,17.8333 178.5,19.5C 177.172,50.4023 177.172,81.4023 178.5,112.5C 177.833,112.5 177.167,112.5 176.5,112.5C 175.84,79.4829 176.507,46.8163 178.5,14.5 Z"/></g>
<g><path style="opacity:0.859" fill="#483a03" d="M 160.5,6.5 C 161.833,23.9873 162.5,41.8206 162.5,60C 162.333,77.8333 162.167,95.6667 162,113.5C 161.617,114.056 161.117,114.389 160.5,114.5C 160.5,113.833 160.5,113.167 160.5,112.5C 160.5,77.8333 160.5,43.1667 160.5,8.5C 160.5,7.83333 160.5,7.16667 160.5,6.5 Z"/></g>
<g><path style="opacity:1" fill="#edc303" d="M 159.5,112.5 C 157.833,112.5 156.167,112.5 154.5,112.5C 149.833,113.833 145.167,115.167 140.5,116.5C 140.5,113.167 140.5,109.833 140.5,106.5C 141.592,102.184 142.592,97.8511 143.5,93.5C 145.421,87.7774 146.421,81.7774 146.5,75.5C 149.14,69.2975 150.473,62.6308 150.5,55.5C 151.598,50.9077 152.265,46.241 152.5,41.5C 152.833,41.5 153.167,41.5 153.5,41.5C 155.688,34.0753 157.355,26.4086 158.5,18.5C 159.5,49.8262 159.833,81.1596 159.5,112.5 Z"/></g>
<g><path style="opacity:1" fill="#edc302" d="M 178.5,19.5 C 180.344,24.5509 181.344,29.8843 181.5,35.5C 181.379,39.5745 182.379,43.2412 184.5,46.5C 184.362,51.4141 185.028,56.0808 186.5,60.5C 186.145,64.0774 187.145,67.0774 189.5,69.5C 188.911,73.9707 189.577,77.9707 191.5,81.5C 190.911,85.9707 191.577,89.9707 193.5,93.5C 195.082,96.8756 195.749,100.542 195.5,104.5C 196.368,108.808 196.534,113.141 196,117.5C 192.4,115.448 188.567,114.114 184.5,113.5C 182.735,112.539 180.735,112.205 178.5,112.5C 177.172,81.4023 177.172,50.4023 178.5,19.5 Z"/></g>
<g><path style="opacity:0.941" fill="#6b5705" d="M 158.5,8.5 C 156.555,19.444 154.889,30.444 153.5,41.5C 153.167,41.5 152.833,41.5 152.5,41.5C 152.5,39.8333 152.5,38.1667 152.5,36.5C 153.871,26.9103 155.871,17.577 158.5,8.5 Z"/></g>
<g><path style="opacity:0.976" fill="#8f7401" d="M 178.5,14.5 C 179.167,15.8333 179.833,17.1667 180.5,18.5C 181.167,21.8333 181.833,25.1667 182.5,28.5C 182.5,30.8333 182.5,33.1667 182.5,35.5C 182.167,35.5 181.833,35.5 181.5,35.5C 181.344,29.8843 180.344,24.5509 178.5,19.5C 178.5,17.8333 178.5,16.1667 178.5,14.5 Z"/></g>
<g><path style="opacity:0.871" fill="#5a4800" d="M 182.5,28.5 C 183.795,32.2671 184.461,36.2671 184.5,40.5C 183.833,38.8333 183.167,37.1667 182.5,35.5C 182.5,33.1667 182.5,30.8333 182.5,28.5 Z"/></g>
<g><path style="opacity:1" fill="#c3a001" d="M 181.5,35.5 C 181.833,35.5 182.167,35.5 182.5,35.5C 183.167,37.1667 183.833,38.8333 184.5,40.5C 184.5,40.8333 184.5,41.1667 184.5,41.5C 184.5,43.1667 184.5,44.8333 184.5,46.5C 182.379,43.2412 181.379,39.5745 181.5,35.5 Z"/></g>
<g><path style="opacity:0.855" fill="#362b01" d="M 152.5,36.5 C 152.5,38.1667 152.5,39.8333 152.5,41.5C 151.833,42.8333 151.167,44.1667 150.5,45.5C 150.42,42.2186 151.087,39.2186 152.5,36.5 Z"/></g>
<g><path style="opacity:0.988" fill="#715d13" d="M 152.5,41.5 C 152.265,46.241 151.598,50.9077 150.5,55.5C 150.167,55.5 149.833,55.5 149.5,55.5C 149.253,52.0613 149.586,48.728 150.5,45.5C 151.167,44.1667 151.833,42.8333 152.5,41.5 Z"/></g>
<g><path style="opacity:0.943" fill="#564502" d="M 184.5,41.5 C 186.396,44.46 187.396,47.7934 187.5,51.5C 187.167,51.5 186.833,51.5 186.5,51.5C 185.833,49.8333 185.167,48.1667 184.5,46.5C 184.5,44.8333 184.5,43.1667 184.5,41.5 Z"/></g>
<g><path style="opacity:0.996" fill="#caa613" d="M 184.5,46.5 C 185.167,48.1667 185.833,49.8333 186.5,51.5C 186.5,54.5 186.5,57.5 186.5,60.5C 185.028,56.0808 184.362,51.4141 184.5,46.5 Z"/></g>
<g><path style="opacity:0.996" fill="#a28623" d="M 186.5,51.5 C 186.833,51.5 187.167,51.5 187.5,51.5C 187.401,54.2372 187.735,56.9039 188.5,59.5C 188.616,62.8599 188.949,66.1933 189.5,69.5C 187.145,67.0774 186.145,64.0774 186.5,60.5C 186.5,57.5 186.5,54.5 186.5,51.5 Z"/></g>
<g><path style="opacity:0.922" fill="#423505" d="M 188.5,59.5 C 190.42,64.542 191.42,69.8754 191.5,75.5C 190.833,73.5 190.167,71.5 189.5,69.5C 188.949,66.1933 188.616,62.8599 188.5,59.5 Z"/></g>
<g><path style="opacity:0.886" fill="#645109" d="M 148.5,59.5 C 148.678,63.1224 148.011,66.4557 146.5,69.5C 146.159,65.8405 146.825,62.5072 148.5,59.5 Z"/></g>
<g><path style="opacity:1" fill="#ab8c11" d="M 149.5,55.5 C 149.833,55.5 150.167,55.5 150.5,55.5C 150.473,62.6308 149.14,69.2975 146.5,75.5C 146.167,75.5 145.833,75.5 145.5,75.5C 145.205,73.2646 145.539,71.2646 146.5,69.5C 148.011,66.4557 148.678,63.1224 148.5,59.5C 148.232,57.901 148.566,56.5676 149.5,55.5 Z"/></g>
<g><path style="opacity:0.953" fill="#737373" d="M 260.5,81.5 C 261.597,79.2258 262.93,77.0591 264.5,75C 263.824,73.3167 262.824,73.1501 261.5,74.5C 261.384,71.0897 263.05,69.7564 266.5,70.5C 266.847,75.4753 264.847,79.142 260.5,81.5 Z"/></g>
<g><path style="opacity:0.982" fill="#808080" d="M 78.5,76.5 C 78.5,76.8333 78.5,77.1667 78.5,77.5C 77.5041,77.5858 76.6708,77.2524 76,76.5C 75.8333,77 75.6667,77.5 75.5,78C 76.6969,80.9495 78.0302,83.7829 79.5,86.5C 78.1943,85.0322 76.6943,83.6988 75,82.5C 73.1698,78.5458 71.6698,74.5458 70.5,70.5C 71.552,70.3505 72.552,70.5172 73.5,71C 74.3901,73.6654 76.0568,75.4987 78.5,76.5 Z"/></g>
<g><path style="opacity:0.773" fill="#474747" d="M 258.5,75.5 C 255.725,78.6046 252.392,80.9379 248.5,82.5C 251.275,79.3954 254.608,77.0621 258.5,75.5 Z"/></g>
<g><path style="opacity:0.69" fill="#383838" d="M 78.5,77.5 C 78.5,77.1667 78.5,76.8333 78.5,76.5C 82.1398,76.4754 84.4731,78.142 85.5,81.5C 83.6823,79.4331 81.349,78.0997 78.5,77.5 Z"/></g>
<g><path style="opacity:0.961" fill="#4c3e02" d="M 145.5,75.5 C 145.975,78.0821 145.308,80.0821 143.5,81.5C 143.025,78.9179 143.692,76.9179 145.5,75.5 Z"/></g>
<g><path style="opacity:1" fill="#bb9901" d="M 189.5,69.5 C 190.167,71.5 190.833,73.5 191.5,75.5C 191.5,77.5 191.5,79.5 191.5,81.5C 189.577,77.9707 188.911,73.9707 189.5,69.5 Z"/></g>
<g><path style="opacity:1" fill="#c4a001" d="M 145.5,75.5 C 145.833,75.5 146.167,75.5 146.5,75.5C 146.421,81.7774 145.421,87.7774 143.5,93.5C 143.5,91.5 143.5,89.5 143.5,87.5C 143.5,85.5 143.5,83.5 143.5,81.5C 145.308,80.0821 145.975,78.0821 145.5,75.5 Z"/></g>
<g><path style="opacity:0.757" fill="#4d4d4d" d="M 248.5,82.5 C 247.105,84.8612 245.105,86.5279 242.5,87.5C 242.414,86.5041 242.748,85.6708 243.5,85C 245.249,84.2152 246.916,83.3818 248.5,82.5 Z"/></g>
<g><path style="opacity:0.922" fill="#5a4908" d="M 191.5,75.5 C 193.102,81.4222 194.602,87.4222 196,93.5C 196.994,98.118 197.494,102.785 197.5,107.5C 196.833,106.5 196.167,105.5 195.5,104.5C 195.749,100.542 195.082,96.8756 193.5,93.5C 193.461,89.2671 192.795,85.2671 191.5,81.5C 191.5,79.5 191.5,77.5 191.5,75.5 Z"/></g>
<g><path style="opacity:1" fill="#c9a501" d="M 191.5,81.5 C 192.795,85.2671 193.461,89.2671 193.5,93.5C 191.577,89.9707 190.911,85.9707 191.5,81.5 Z"/></g>
<g><path style="opacity:0.993" fill="#989898" d="M 78.5,77.5 C 81.349,78.0997 83.6823,79.4331 85.5,81.5C 91.4888,85.8326 97.4888,90.1659 103.5,94.5C 103.539,95.5832 103.873,96.5832 104.5,97.5C 106.942,98.4464 108.942,99.9464 110.5,102C 110,102.5 109.5,103 109,103.5C 108.184,102.177 107.017,101.511 105.5,101.5C 102.9,100.532 100.566,99.1991 98.5,97.5C 96.2969,94.1375 93.2969,91.6375 89.5,90C 88.2506,89.2599 87.2506,89.4265 86.5,90.5C 86.762,91.9778 86.4287,93.3112 85.5,94.5C 83.4793,91.7653 81.4793,89.0986 79.5,86.5C 78.0302,83.7829 76.6969,80.9495 75.5,78C 75.6667,77.5 75.8333,77 76,76.5C 76.6708,77.2524 77.5041,77.5858 78.5,77.5 Z"/></g>
<g><path style="opacity:1" fill="#3c3c3c" d="M 86.5,90.5 C 87.2506,89.4265 88.2506,89.2599 89.5,90C 93.2969,91.6375 96.2969,94.1375 98.5,97.5C 96.4559,96.9688 94.7893,95.8022 93.5,94C 92.2506,93.2599 91.2506,93.4265 90.5,94.5C 89.1667,93.1667 87.8333,91.8333 86.5,90.5 Z"/></g>
<g><path style="opacity:0.953" fill="#686868" d="M 242.5,87.5 C 240.1,90.6738 237.1,93.0072 233.5,94.5C 235.567,91.1145 238.567,88.7811 242.5,87.5 Z"/></g>
<g><path style="opacity:0.796" fill="#5a5a5a" d="M 257.5,87.5 C 257.071,90.1473 255.738,92.1473 253.5,93.5C 254.298,91.0337 255.631,89.0337 257.5,87.5 Z"/></g>
<g><path style="opacity:0.996" fill="#757575" d="M 79.5,86.5 C 81.4793,89.0986 83.4793,91.7653 85.5,94.5C 86.4287,93.3112 86.762,91.9778 86.5,90.5C 87.8333,91.8333 89.1667,93.1667 90.5,94.5C 92.5943,98.3642 94.9277,102.031 97.5,105.5C 93.1298,103.444 90.1298,100.111 88.5,95.5C 88.1667,95.8333 87.8333,96.1667 87.5,96.5C 89.3407,99.3199 90.674,102.32 91.5,105.5C 86.254,100.02 82.254,93.687 79.5,86.5 Z"/></g>
<g><path style="opacity:1" fill="#0b0b0b" d="M 98.5,97.5 C 100.566,99.1991 102.9,100.532 105.5,101.5C 106.548,103.534 108.214,104.867 110.5,105.5C 111.386,106.325 111.719,107.325 111.5,108.5C 113.672,109.206 115.672,110.206 117.5,111.5C 117.833,111.5 118.167,111.5 118.5,111.5C 120.85,113.213 121.85,115.547 121.5,118.5C 118.286,123.907 113.953,125.241 108.5,122.5C 106.137,119.146 103.804,115.812 101.5,112.5C 101.419,109.487 100.086,107.487 97.5,106.5C 97.5,106.167 97.5,105.833 97.5,105.5C 94.9277,102.031 92.5943,98.3642 90.5,94.5C 91.2506,93.4265 92.2506,93.2599 93.5,94C 94.7893,95.8022 96.4559,96.9688 98.5,97.5 Z"/></g>
<g><path style="opacity:0.894" fill="#493c0d" d="M 142.5,90.5 C 141.862,95.3567 140.862,100.023 139.5,104.5C 139.577,100.123 140.077,95.7901 141,91.5C 141.383,90.944 141.883,90.6107 142.5,90.5 Z"/></g>
<g><path style="opacity:0.996" fill="#757575" d="M 233.5,94.5 C 233.586,95.4959 233.252,96.3292 232.5,97C 234.545,97.4901 236.545,97.3235 238.5,96.5C 238.167,97.1667 237.833,97.8333 237.5,98.5C 233.692,100.573 230.026,102.906 226.5,105.5C 226.369,104.761 226.536,104.094 227,103.5C 228.973,102.36 230.807,101.027 232.5,99.5C 232.167,98.5 231.5,97.8333 230.5,97.5C 229.378,98.6302 228.044,99.2969 226.5,99.5C 227.72,96.2812 230.053,94.6146 233.5,94.5 Z"/></g>
<g><path style="opacity:1" fill="#9b9b9b" d="M 260.5,81.5 C 260.025,83.7837 259.025,85.7837 257.5,87.5C 255.631,89.0337 254.298,91.0337 253.5,93.5C 250.882,98.4432 247.882,103.11 244.5,107.5C 241.791,109.903 239.791,112.903 238.5,116.5C 237.89,117.391 237.557,118.391 237.5,119.5C 233.943,121.402 231.943,124.402 231.5,128.5C 230.508,130.026 229.008,130.693 227,130.5C 224.144,130.129 221.311,129.629 218.5,129C 217.944,128.617 217.611,128.117 217.5,127.5C 215.833,125.167 213.833,123.167 211.5,121.5C 209.705,117.895 209.372,114.228 210.5,110.5C 211.167,110.167 211.833,109.833 212.5,109.5C 215.504,107.814 218.17,105.814 220.5,103.5C 222.772,102.559 224.772,101.226 226.5,99.5C 228.044,99.2969 229.378,98.6302 230.5,97.5C 231.5,97.8333 232.167,98.5 232.5,99.5C 230.807,101.027 228.973,102.36 227,103.5C 226.536,104.094 226.369,104.761 226.5,105.5C 222.98,106.353 220.313,108.353 218.5,111.5C 216.883,112.038 215.216,112.371 213.5,112.5C 212.821,119.466 215.821,123.466 222.5,124.5C 224.364,125.793 226.364,125.793 228.5,124.5C 231.069,121.603 232.736,118.27 233.5,114.5C 235.129,113.375 236.629,112.041 238,110.5C 239.727,107.609 241.227,104.609 242.5,101.5C 242.5,101.167 242.5,100.833 242.5,100.5C 244.262,99.7377 245.262,98.4044 245.5,96.5C 248.147,93.2363 250.814,89.903 253.5,86.5C 251.836,85.7769 250.169,86.1103 248.5,87.5C 247.183,89.1591 245.517,90.3257 243.5,91C 242.748,91.6708 242.414,92.5041 242.5,93.5C 241.167,94.5 239.833,95.5 238.5,96.5C 236.545,97.3235 234.545,97.4901 232.5,97C 233.252,96.3292 233.586,95.4959 233.5,94.5C 237.1,93.0072 240.1,90.6738 242.5,87.5C 245.105,86.5279 247.105,84.8612 248.5,82.5C 252.392,80.9379 255.725,78.6046 258.5,75.5C 259.791,75.7373 260.791,75.404 261.5,74.5C 262.824,73.1501 263.824,73.3167 264.5,75C 262.93,77.0591 261.597,79.2258 260.5,81.5 Z"/></g>
<g><path style="opacity:1" fill="#090909" d="M 242.5,100.5 C 242.5,100.833 242.5,101.167 242.5,101.5C 241.624,101.369 240.957,101.702 240.5,102.5C 238.274,106.664 235.94,110.664 233.5,114.5C 231.146,117.153 229.146,120.153 227.5,123.5C 225.955,124.452 224.288,124.785 222.5,124.5C 220.238,123.104 218.071,121.437 216,119.5C 215.018,116.225 215.851,113.559 218.5,111.5C 221.455,109.878 224.122,107.878 226.5,105.5C 230.026,102.906 233.692,100.573 237.5,98.5C 239.394,97.9524 241.06,96.9524 242.5,95.5C 243.434,97.0948 243.434,98.7615 242.5,100.5 Z"/></g>
<g><path style="opacity:1" fill="#232323" d="M 245.5,96.5 C 245.262,98.4044 244.262,99.7377 242.5,100.5C 243.434,98.7615 243.434,97.0948 242.5,95.5C 241.06,96.9524 239.394,97.9524 237.5,98.5C 237.833,97.8333 238.167,97.1667 238.5,96.5C 239.833,95.5 241.167,94.5 242.5,93.5C 246.074,91.9912 247.074,92.9912 245.5,96.5 Z"/></g>
<g><path style="opacity:1" fill="#545454" d="M 245.5,96.5 C 247.074,92.9912 246.074,91.9912 242.5,93.5C 242.414,92.5041 242.748,91.6708 243.5,91C 245.517,90.3257 247.183,89.1591 248.5,87.5C 250.169,86.1103 251.836,85.7769 253.5,86.5C 250.814,89.903 248.147,93.2363 245.5,96.5 Z"/></g>
<g><path style="opacity:0.996" fill="#7f7f7f" d="M 103.5,94.5 C 105.048,94.8212 105.715,95.8212 105.5,97.5C 106.552,97.3505 107.552,97.5172 108.5,98C 111.73,100.969 115.064,103.802 118.5,106.5C 116.506,105.65 114.506,105.15 112.5,105C 114.742,106.77 116.408,108.937 117.5,111.5C 115.672,110.206 113.672,109.206 111.5,108.5C 111.719,107.325 111.386,106.325 110.5,105.5C 108.214,104.867 106.548,103.534 105.5,101.5C 107.017,101.511 108.184,102.177 109,103.5C 109.5,103 110,102.5 110.5,102C 108.942,99.9464 106.942,98.4464 104.5,97.5C 103.873,96.5832 103.539,95.5832 103.5,94.5 Z"/></g>
<g><path style="opacity:0.996" fill="#a28734" d="M 143.5,87.5 C 143.5,89.5 143.5,91.5 143.5,93.5C 142.592,97.8511 141.592,102.184 140.5,106.5C 140.167,106.5 139.833,106.5 139.5,106.5C 139.5,105.833 139.5,105.167 139.5,104.5C 140.862,100.023 141.862,95.3567 142.5,90.5C 142.263,89.209 142.596,88.209 143.5,87.5 Z"/></g>
<g><path style="opacity:0.741" fill="#393939" d="M 220.5,103.5 C 218.17,105.814 215.504,107.814 212.5,109.5C 214.268,106.41 216.935,104.41 220.5,103.5 Z"/></g>
<g><path style="opacity:0.718" fill="#474747" d="M 119.5,106.5 C 121.5,106.5 122.5,107.5 122.5,109.5C 121.167,108.833 120.167,107.833 119.5,106.5 Z"/></g>
<g><path style="opacity:1" fill="#4b4b4b" d="M 242.5,101.5 C 241.227,104.609 239.727,107.609 238,110.5C 236.629,112.041 235.129,113.375 233.5,114.5C 235.94,110.664 238.274,106.664 240.5,102.5C 240.957,101.702 241.624,101.369 242.5,101.5 Z"/></g>
<g><path style="opacity:0.998" fill="#969696" d="M 97.5,105.5 C 97.5,105.833 97.5,106.167 97.5,106.5C 97.9287,109.147 99.2621,111.147 101.5,112.5C 103.804,115.812 106.137,119.146 108.5,122.5C 108.794,125.646 110.461,126.813 113.5,126C 118.013,125.317 120.68,122.817 121.5,118.5C 122.167,118.167 122.833,117.833 123.5,117.5C 123.203,120.559 121.87,123.059 119.5,125C 115.969,126.589 112.302,127.755 108.5,128.5C 109.32,130.111 110.654,130.778 112.5,130.5C 111.399,131.598 110.066,131.765 108.5,131C 106.841,128.156 104.841,125.656 102.5,123.5C 101.937,120.705 100.604,118.372 98.5,116.5C 97.8897,114.566 96.8897,112.899 95.5,111.5C 93.6264,109.918 92.2931,107.918 91.5,105.5C 90.674,102.32 89.3407,99.3199 87.5,96.5C 87.8333,96.1667 88.1667,95.8333 88.5,95.5C 90.1298,100.111 93.1298,103.444 97.5,105.5 Z"/></g>
<g><path style="opacity:1" fill="#505050" d="M 226.5,105.5 C 224.122,107.878 221.455,109.878 218.5,111.5C 220.313,108.353 222.98,106.353 226.5,105.5 Z"/></g>
<g><path style="opacity:1" fill="#525252" d="M 97.5,106.5 C 100.086,107.487 101.419,109.487 101.5,112.5C 99.2621,111.147 97.9287,109.147 97.5,106.5 Z"/></g>
<g><path style="opacity:0.827" fill="#4b4b4b" d="M 122.5,109.5 C 125.034,109.259 126.7,110.259 127.5,112.5C 125.326,112.25 123.659,111.25 122.5,109.5 Z"/></g>
<g><path style="opacity:0.902" fill="#645214" d="M 139.5,106.5 C 139.552,108.903 139.219,111.236 138.5,113.5C 138.167,113.5 137.833,113.5 137.5,113.5C 137.41,110.848 138.076,108.515 139.5,106.5 Z"/></g>
<g><path style="opacity:0.816" fill="#575757" d="M 244.5,107.5 C 243.281,111.046 241.281,114.046 238.5,116.5C 239.791,112.903 241.791,109.903 244.5,107.5 Z"/></g>
<g><path style="opacity:0.922" fill="#7b6517" d="M 154.5,112.5 C 156.167,112.5 157.833,112.5 159.5,112.5C 159.833,112.5 160.167,112.5 160.5,112.5C 160.5,113.167 160.5,113.833 160.5,114.5C 158.5,114.5 156.5,114.5 154.5,114.5C 153.833,114.5 153.167,114.5 152.5,114.5C 153.167,113.833 153.833,113.167 154.5,112.5 Z"/></g>
<g><path style="opacity:0.98" fill="#b3963e" d="M 176.5,112.5 C 177.167,112.5 177.833,112.5 178.5,112.5C 180.735,112.205 182.735,112.539 184.5,113.5C 184.5,113.833 184.5,114.167 184.5,114.5C 183.833,114.5 183.167,114.5 182.5,114.5C 180.5,113.833 178.5,113.167 176.5,112.5 Z"/></g>
<g><path style="opacity:0.829" fill="#474747" d="M 210.5,110.5 C 209.372,114.228 209.705,117.895 211.5,121.5C 209.452,119.544 208.452,117.044 208.5,114C 208.608,112.319 209.275,111.152 210.5,110.5 Z"/></g>
<g><path style="opacity:1" fill="#c9a513" d="M 139.5,106.5 C 139.833,106.5 140.167,106.5 140.5,106.5C 140.5,109.833 140.5,113.167 140.5,116.5C 145.167,115.167 149.833,113.833 154.5,112.5C 153.833,113.167 153.167,113.833 152.5,114.5C 149.603,115.129 146.936,116.129 144.5,117.5C 142.5,117.833 140.5,118.167 138.5,118.5C 138.5,116.833 138.5,115.167 138.5,113.5C 139.219,111.236 139.552,108.903 139.5,106.5 Z"/></g>
<g><path style="opacity:0.89" fill="#5e4c09" d="M 197.5,109.5 C 199.074,111.102 199.741,113.102 199.5,115.5C 199.167,115.5 198.833,115.5 198.5,115.5C 197.85,113.565 197.517,111.565 197.5,109.5 Z"/></g>
<g><path style="opacity:0.827" fill="#4b4b4b" d="M 95.5,111.5 C 96.8897,112.899 97.8897,114.566 98.5,116.5C 96.2591,115.7 95.2591,114.034 95.5,111.5 Z"/></g>
<g><path style="opacity:1" fill="#4a4a4a" d="M 118.5,111.5 C 121.621,112.288 123.288,114.288 123.5,117.5C 122.833,117.833 122.167,118.167 121.5,118.5C 121.85,115.547 120.85,113.213 118.5,111.5 Z"/></g>
<g><path style="opacity:0.859" fill="#514204" d="M 184.5,114.5 C 186.848,114.592 188.514,115.592 189.5,117.5C 188.514,115.592 186.848,114.592 184.5,114.5 Z"/></g>
<g><path style="opacity:0.998" fill="#a6a6a6" d="M 118.5,106.5 C 118.833,106.5 119.167,106.5 119.5,106.5C 120.167,107.833 121.167,108.833 122.5,109.5C 123.659,111.25 125.326,112.25 127.5,112.5C 128.746,115.293 128.413,117.96 126.5,120.5C 123.445,124.222 120.111,127.555 116.5,130.5C 115.167,130.5 113.833,130.5 112.5,130.5C 110.654,130.778 109.32,130.111 108.5,128.5C 112.302,127.755 115.969,126.589 119.5,125C 121.87,123.059 123.203,120.559 123.5,117.5C 123.288,114.288 121.621,112.288 118.5,111.5C 118.167,111.5 117.833,111.5 117.5,111.5C 116.408,108.937 114.742,106.77 112.5,105C 114.506,105.15 116.506,105.65 118.5,106.5 Z"/></g>
<g><path style="opacity:0.8" fill="#504109" d="M 152.5,114.5 C 153.167,114.5 153.833,114.5 154.5,114.5C 151.619,116.68 148.286,117.68 144.5,117.5C 146.936,116.129 149.603,115.129 152.5,114.5 Z"/></g>
<g><path style="opacity:0.996" fill="#bf9d07" d="M 195.5,104.5 C 196.167,105.5 196.833,106.5 197.5,107.5C 197.5,108.167 197.5,108.833 197.5,109.5C 197.517,111.565 197.85,113.565 198.5,115.5C 198.657,116.873 198.49,118.207 198,119.5C 197.329,118.748 196.496,118.414 195.5,118.5C 194.5,118.5 193.5,118.5 192.5,118.5C 191.791,117.596 190.791,117.263 189.5,117.5C 188.514,115.592 186.848,114.592 184.5,114.5C 184.5,114.167 184.5,113.833 184.5,113.5C 188.567,114.114 192.4,115.448 196,117.5C 196.534,113.141 196.368,108.808 195.5,104.5 Z"/></g>
<g><path style="opacity:0.953" fill="#745e00" d="M 137.5,113.5 C 137.833,113.5 138.167,113.5 138.5,113.5C 138.5,115.167 138.5,116.833 138.5,118.5C 140.5,118.167 142.5,117.833 144.5,117.5C 142.497,119.982 139.831,120.982 136.5,120.5C 136.448,118.097 136.781,115.764 137.5,113.5 Z"/></g>
<g><path style="opacity:0.906" fill="#4b3d01" d="M 192.5,118.5 C 193.5,118.5 194.5,118.5 195.5,118.5C 195.833,119.167 196.167,119.833 196.5,120.5C 194.847,120.34 193.514,119.674 192.5,118.5 Z"/></g>
<g><path style="opacity:0.925" fill="#886f00" d="M 198.5,115.5 C 198.833,115.5 199.167,115.5 199.5,115.5C 199.5,117.167 199.5,118.833 199.5,120.5C 198.5,120.5 197.5,120.5 196.5,120.5C 196.167,119.833 195.833,119.167 195.5,118.5C 196.496,118.414 197.329,118.748 198,119.5C 198.49,118.207 198.657,116.873 198.5,115.5 Z"/></g>
<g><path style="opacity:1" fill="#6f6f6f" d="M 218.5,111.5 C 215.851,113.559 215.018,116.225 216,119.5C 218.071,121.437 220.238,123.104 222.5,124.5C 215.821,123.466 212.821,119.466 213.5,112.5C 215.216,112.371 216.883,112.038 218.5,111.5 Z"/></g>
<g><path style="opacity:1" fill="#4f4f4f" d="M 233.5,114.5 C 232.736,118.27 231.069,121.603 228.5,124.5C 226.364,125.793 224.364,125.793 222.5,124.5C 224.288,124.785 225.955,124.452 227.5,123.5C 229.146,120.153 231.146,117.153 233.5,114.5 Z"/></g>
<g><path style="opacity:0.467" fill="#292001" d="M 199.5,115.5 C 200.468,117.607 200.802,119.941 200.5,122.5C 198.62,122.771 197.287,122.104 196.5,120.5C 197.5,120.5 198.5,120.5 199.5,120.5C 199.5,118.833 199.5,117.167 199.5,115.5 Z"/></g>
<g><path style="opacity:0.776" fill="#424242" d="M 237.5,119.5 C 235.86,122.782 233.86,125.782 231.5,128.5C 231.943,124.402 233.943,121.402 237.5,119.5 Z"/></g>
<g><path style="opacity:1" fill="#2f2f2f" d="M 121.5,118.5 C 120.68,122.817 118.013,125.317 113.5,126C 110.461,126.813 108.794,125.646 108.5,122.5C 113.953,125.241 118.286,123.907 121.5,118.5 Z"/></g>
<g><path style="opacity:0.82" fill="#514935" d="M 172.5,125.5 C 172.5,125.167 172.5,124.833 172.5,124.5C 176.16,124.159 179.493,124.825 182.5,126.5C 179.193,125.949 175.86,125.616 172.5,125.5 Z"/></g>
<g><path style="opacity:0.894" fill="#616161" d="M 126.5,120.5 C 124.798,125.535 121.465,128.869 116.5,130.5C 120.111,127.555 123.445,124.222 126.5,120.5 Z"/></g>
<g><path style="opacity:0.949" fill="#89722b" d="M 172.5,124.5 C 172.5,124.833 172.5,125.167 172.5,125.5C 169.287,125.19 166.287,125.523 163.5,126.5C 161.167,126.5 158.833,126.5 156.5,126.5C 156.5,126.167 156.5,125.833 156.5,125.5C 160.358,124.988 164.191,124.322 168,123.5C 169.707,123.508 171.207,123.842 172.5,124.5 Z"/></g>
<g><path style="opacity:0.51" fill="#373737" d="M 102.5,123.5 C 104.841,125.656 106.841,128.156 108.5,131C 110.066,131.765 111.399,131.598 112.5,130.5C 113.833,130.5 115.167,130.5 116.5,130.5C 116.082,131.222 115.416,131.722 114.5,132C 107.072,133.962 103.072,131.129 102.5,123.5 Z"/></g>
<g><path style="opacity:0.914" fill="#726136" d="M 156.5,125.5 C 156.5,125.833 156.5,126.167 156.5,126.5C 154.095,127.768 151.428,128.435 148.5,128.5C 150.416,126.023 153.083,125.023 156.5,125.5 Z"/></g>
<g><path style="opacity:0.996" fill="#b7993b" d="M 172.5,125.5 C 175.86,125.616 179.193,125.949 182.5,126.5C 182.5,126.833 182.5,127.167 182.5,127.5C 178.671,128.069 175.337,127.402 172.5,125.5 Z"/></g>
<g><path style="opacity:0.902" fill="#494949" d="M 211.5,121.5 C 213.833,123.167 215.833,125.167 217.5,127.5C 214.5,126.5 212.5,124.5 211.5,121.5 Z"/></g>
<g><path style="opacity:1" fill="#e9c016" d="M 172.5,125.5 C 175.337,127.402 178.671,128.069 182.5,127.5C 183.919,128.451 185.585,128.784 187.5,128.5C 188.262,130.262 189.596,131.262 191.5,131.5C 191.821,133.048 192.821,133.715 194.5,133.5C 195.634,136.034 197.634,137.367 200.5,137.5C 201.167,138.5 201.833,139.5 202.5,140.5C 204.423,143.298 206.256,146.298 208,149.5C 208.671,150.252 209.504,150.586 210.5,150.5C 210.833,152.5 211.167,154.5 211.5,156.5C 211.216,158.415 211.549,160.081 212.5,161.5C 213.745,169.882 213.412,178.215 211.5,186.5C 210.539,188.265 210.205,190.265 210.5,192.5C 210.167,192.5 209.833,192.5 209.5,192.5C 206.336,194.147 204.67,196.814 204.5,200.5C 204.167,201.167 203.833,201.833 203.5,202.5C 200.42,204.058 197.753,206.058 195.5,208.5C 194.833,208.5 194.5,208.833 194.5,209.5C 191.687,209.025 189.687,210.025 188.5,212.5C 188.167,213.167 187.833,213.833 187.5,214.5C 187.167,214.5 186.833,214.5 186.5,214.5C 181.651,215.216 176.985,216.216 172.5,217.5C 167.482,217.387 162.482,217.053 157.5,216.5C 156.292,215.766 154.959,215.433 153.5,215.5C 151.021,213.432 148.021,212.099 144.5,211.5C 143.064,209.917 141.398,208.417 139.5,207C 138.552,206.517 137.552,206.351 136.5,206.5C 136.167,205.833 135.833,205.167 135.5,204.5C 134.509,202.518 133.509,200.518 132.5,198.5C 131.095,196.093 129.095,194.426 126.5,193.5C 126.5,193.167 126.5,192.833 126.5,192.5C 125.211,186.345 123.211,180.679 120.5,175.5C 120.5,172.833 120.5,170.167 120.5,167.5C 123.25,162.285 125.25,156.618 126.5,150.5C 126.557,149.391 126.89,148.391 127.5,147.5C 129.86,146.135 131.527,144.135 132.5,141.5C 133.833,139.833 135.167,138.167 136.5,136.5C 138.179,136.715 139.179,136.048 139.5,134.5C 140.167,134.167 140.833,133.833 141.5,133.5C 148.581,130.362 155.914,128.029 163.5,126.5C 166.287,125.523 169.287,125.19 172.5,125.5 Z M 157.5,145.5 C 144.032,153.23 138.865,164.897 142,180.5C 143.666,185.166 145.833,189.5 148.5,193.5C 152.004,195.465 155.67,197.298 159.5,199C 165.5,199.667 171.5,199.667 177.5,199C 181.231,197.135 184.897,195.301 188.5,193.5C 190.655,189.189 192.822,184.856 195,180.5C 195.667,175.167 195.667,169.833 195,164.5C 188.603,147.048 176.103,140.715 157.5,145.5 Z"/></g>
<g><path style="opacity:0.804" fill="#554826" d="M 182.5,126.5 C 184.698,126.12 186.365,126.787 187.5,128.5C 185.585,128.784 183.919,128.451 182.5,127.5C 182.5,127.167 182.5,126.833 182.5,126.5 Z"/></g>
<g><path style="opacity:0.816" fill="#6f5e30" d="M 187.5,128.5 C 189.632,128.554 190.965,129.554 191.5,131.5C 189.596,131.262 188.262,130.262 187.5,128.5 Z"/></g>
<g><path style="opacity:0.765" fill="#544c3a" d="M 148.5,128.5 C 146.97,130.346 144.97,131.346 142.5,131.5C 143.784,129.386 145.784,128.386 148.5,128.5 Z"/></g>
<g><path style="opacity:0.996" fill="#d1ae3d" d="M 156.5,126.5 C 158.833,126.5 161.167,126.5 163.5,126.5C 155.914,128.029 148.581,130.362 141.5,133.5C 141.833,132.833 142.167,132.167 142.5,131.5C 144.97,131.346 146.97,130.346 148.5,128.5C 151.428,128.435 154.095,127.768 156.5,126.5 Z"/></g>
<g><path style="opacity:0.98" fill="#a18a4c" d="M 191.5,131.5 C 193.027,131.427 194.027,132.094 194.5,133.5C 192.821,133.715 191.821,133.048 191.5,131.5 Z"/></g>
<g><path style="opacity:0.694" fill="#40392d" d="M 142.5,131.5 C 142.167,132.167 141.833,132.833 141.5,133.5C 140.833,133.833 140.167,134.167 139.5,134.5C 138.833,134.5 138.167,134.5 137.5,134.5C 138.486,132.592 140.152,131.592 142.5,131.5 Z"/></g>
<g><path style="opacity:0.976" fill="#5b4e2e" d="M 176.5,134.5 C 176.5,134.833 176.5,135.167 176.5,135.5C 171.167,135.5 165.833,135.5 160.5,135.5C 160.5,135.167 160.5,134.833 160.5,134.5C 165.833,133.167 171.167,133.167 176.5,134.5 Z"/></g>
<g><path style="opacity:0.961" fill="#9e8537" d="M 160.5,134.5 C 160.5,134.833 160.5,135.167 160.5,135.5C 159.209,135.263 158.209,135.596 157.5,136.5C 156.167,136.5 154.833,136.5 153.5,136.5C 155.515,135.076 157.848,134.41 160.5,134.5 Z"/></g>
<g><path style="opacity:0.996" fill="#b4963a" d="M 176.5,135.5 C 176.5,135.167 176.5,134.833 176.5,134.5C 179.495,134.294 182.162,134.96 184.5,136.5C 183.833,136.5 183.167,136.5 182.5,136.5C 180.5,136.167 178.5,135.833 176.5,135.5 Z"/></g>
<g><path style="opacity:0.918" fill="#917e4e" d="M 137.5,134.5 C 138.167,134.5 138.833,134.5 139.5,134.5C 139.179,136.048 138.179,136.715 136.5,136.5C 136.5,136.167 136.5,135.833 136.5,135.5C 136.5,134.833 136.833,134.5 137.5,134.5 Z"/></g>
<g><path style="opacity:0.169" fill="#050403" d="M 160.5,135.5 C 165.833,135.5 171.167,135.5 176.5,135.5C 178.5,135.833 180.5,136.167 182.5,136.5C 182.577,137.75 183.244,138.583 184.5,139C 186.134,139.494 187.801,139.66 189.5,139.5C 189.5,140.5 189.5,141.5 189.5,142.5C 190.552,142.351 191.552,142.517 192.5,143C 194.734,145.063 196.734,147.229 198.5,149.5C 198.833,149.5 199.167,149.5 199.5,149.5C 199.054,152.01 199.72,154.01 201.5,155.5C 202.054,158.746 203.054,161.746 204.5,164.5C 204.659,171.59 203.993,178.59 202.5,185.5C 200.654,187.03 199.654,189.03 199.5,191.5C 198.89,192.391 198.557,193.391 198.5,194.5C 197.167,194.5 196.5,195.167 196.5,196.5C 194.468,197.048 193.468,198.381 193.5,200.5C 193.167,200.5 192.833,200.5 192.5,200.5C 190.5,200.5 189.5,201.5 189.5,203.5C 186.386,203.555 184.052,204.888 182.5,207.5C 181.5,207.5 180.5,207.5 179.5,207.5C 177.447,207.402 175.78,208.069 174.5,209.5C 169.833,209.5 165.167,209.5 160.5,209.5C 159.5,209.5 158.5,209.5 157.5,209.5C 151.764,205.781 146.098,201.781 140.5,197.5C 137.114,192.093 134.114,186.427 131.5,180.5C 131.5,175.167 131.5,169.833 131.5,164.5C 132.795,162.021 133.795,159.354 134.5,156.5C 134.5,156.167 134.5,155.833 134.5,155.5C 136.218,153.777 137.551,151.777 138.5,149.5C 139.5,149.167 140.167,148.5 140.5,147.5C 143.089,146.581 145.089,144.914 146.5,142.5C 150.201,140.495 153.868,138.495 157.5,136.5C 158.209,135.596 159.209,135.263 160.5,135.5 Z M 157.5,145.5 C 144.032,153.23 138.865,164.897 142,180.5C 143.666,185.166 145.833,189.5 148.5,193.5C 152.004,195.465 155.67,197.298 159.5,199C 165.5,199.667 171.5,199.667 177.5,199C 181.231,197.135 184.897,195.301 188.5,193.5C 190.655,189.189 192.822,184.856 195,180.5C 195.667,175.167 195.667,169.833 195,164.5C 188.603,147.048 176.103,140.715 157.5,145.5 Z"/></g>
<g><path style="opacity:0.714" fill="#64562f" d="M 194.5,133.5 C 197.513,133.581 199.513,134.914 200.5,137.5C 197.634,137.367 195.634,136.034 194.5,133.5 Z"/></g>
<g><path style="opacity:0.878" fill="#766434" d="M 182.5,136.5 C 183.167,136.5 183.833,136.5 184.5,136.5C 186.072,137.687 187.739,138.687 189.5,139.5C 187.801,139.66 186.134,139.494 184.5,139C 183.244,138.583 182.577,137.75 182.5,136.5 Z"/></g>
<g><path style="opacity:0.729" fill="#50431e" d="M 200.5,137.5 C 202.5,137.5 203.5,138.5 203.5,140.5C 203.167,140.5 202.833,140.5 202.5,140.5C 201.833,139.5 201.167,138.5 200.5,137.5 Z"/></g>
<g><path style="opacity:0.733" fill="#564924" d="M 136.5,135.5 C 136.5,135.833 136.5,136.167 136.5,136.5C 135.167,138.167 133.833,139.833 132.5,141.5C 130.833,142.833 129.167,144.167 127.5,145.5C 129.593,141.288 132.593,137.955 136.5,135.5 Z"/></g>
<g><path style="opacity:0.667" fill="#352e1e" d="M 153.5,136.5 C 154.833,136.5 156.167,136.5 157.5,136.5C 153.868,138.495 150.201,140.495 146.5,142.5C 147.544,140.157 149.21,138.49 151.5,137.5C 152.167,137.167 152.833,136.833 153.5,136.5 Z"/></g>
<g><path style="opacity:0.684" fill="#3c3c3c" d="M 110.5,141.5 C 109.167,142.167 107.833,142.833 106.5,143.5C 105.833,143.5 105.167,143.5 104.5,143.5C 102.833,143.5 101.167,143.5 99.5,143.5C 102.909,142.097 106.575,141.43 110.5,141.5 Z"/></g>
<g><path style="opacity:0.647" fill="#888888" d="M 110.5,141.5 C 112.5,141.5 114.5,141.5 116.5,141.5C 116.768,143.099 116.434,144.432 115.5,145.5C 115.5,144.5 115.5,143.5 115.5,142.5C 112.545,143.159 109.545,143.492 106.5,143.5C 107.833,142.833 109.167,142.167 110.5,141.5 Z"/></g>
<g><path style="opacity:0.992" fill="#9d874d" d="M 189.5,139.5 C 193.88,141.549 196.88,144.882 198.5,149.5C 196.734,147.229 194.734,145.063 192.5,143C 191.552,142.517 190.552,142.351 189.5,142.5C 189.5,141.5 189.5,140.5 189.5,139.5 Z"/></g>
<g><path style="opacity:0.514" fill="#404040" d="M 220.5,141.5 C 220.5,142.833 220.5,144.167 220.5,145.5C 219.414,145.38 218.747,144.713 218.5,143.5C 218.747,142.287 219.414,141.62 220.5,141.5 Z"/></g>
<g><path style="opacity:0.89" fill="#686868" d="M 224.5,141.5 C 228.837,141.584 232.837,142.584 236.5,144.5C 233.65,144.364 230.817,144.031 228,143.5C 226.319,143.392 225.152,142.725 224.5,141.5 Z"/></g>
<g><path style="opacity:0.71" fill="#414141" d="M 93.5,144.5 C 93.5,145.167 93.5,145.833 93.5,146.5C 92.8333,146.5 92.1667,146.5 91.5,146.5C 88.5176,146.963 85.5176,147.296 82.5,147.5C 85.6373,145.129 89.3039,144.129 93.5,144.5 Z"/></g>
<g><path style="opacity:0.922" fill="#909090" d="M 99.5,143.5 C 101.167,143.5 102.833,143.5 104.5,143.5C 101.146,145.258 97.479,146.258 93.5,146.5C 93.5,145.833 93.5,145.167 93.5,144.5C 95.7354,144.795 97.7354,144.461 99.5,143.5 Z"/></g>
<g><path style="opacity:0.945" fill="#ad9557" d="M 132.5,141.5 C 131.527,144.135 129.86,146.135 127.5,147.5C 127.5,146.833 127.5,146.167 127.5,145.5C 129.167,144.167 130.833,142.833 132.5,141.5 Z"/></g>
<g><path style="opacity:0.976" fill="#a48b45" d="M 151.5,137.5 C 149.21,138.49 147.544,140.157 146.5,142.5C 143.638,143.247 141.638,144.914 140.5,147.5C 140.167,148.5 139.5,149.167 138.5,149.5C 137.5,150.167 136.5,150.833 135.5,151.5C 137.46,148.561 139.46,145.561 141.5,142.5C 144.67,140.476 148.003,138.81 151.5,137.5 Z"/></g>
<g><path style="opacity:0.71" fill="#373329" d="M 146.5,142.5 C 145.089,144.914 143.089,146.581 140.5,147.5C 141.638,144.914 143.638,143.247 146.5,142.5 Z"/></g>
<g><path style="opacity:0.518" fill="#2e2e2e" d="M 247.5,146.5 C 247.5,146.167 247.5,145.833 247.5,145.5C 250.698,144.964 253.365,145.631 255.5,147.5C 254.833,147.5 254.167,147.5 253.5,147.5C 251.379,147.675 249.379,147.341 247.5,146.5 Z"/></g>
<g><path style="opacity:0.8" fill="#5e5e5e" d="M 81.5,147.5 C 78.1244,149.082 74.4578,149.749 70.5,149.5C 73.9458,148.313 77.6125,147.646 81.5,147.5 Z"/></g>
<g><path style="opacity:0.992" fill="#878787" d="M 115.5,145.5 C 114.937,148.374 113.937,151.04 112.5,153.5C 112.167,153.5 111.833,153.5 111.5,153.5C 111.523,151.073 112.023,148.74 113,146.5C 113.671,145.748 114.504,145.414 115.5,145.5 Z"/></g>
<g><path style="opacity:0.831" fill="#827041" d="M 202.5,140.5 C 202.833,140.5 203.167,140.5 203.5,140.5C 206.637,143.299 208.971,146.632 210.5,150.5C 209.504,150.586 208.671,150.252 208,149.5C 206.256,146.298 204.423,143.298 202.5,140.5 Z"/></g>
<g><path style="opacity:0.984" fill="#9e9e9e" d="M 91.5,146.5 C 91.3893,147.117 91.056,147.617 90.5,148C 80.5395,149.827 70.5395,151.327 60.5,152.5C 61.8333,151.833 63.1667,151.167 64.5,150.5C 66.7354,150.795 68.7354,150.461 70.5,149.5C 74.4578,149.749 78.1244,149.082 81.5,147.5C 81.8333,147.5 82.1667,147.5 82.5,147.5C 85.5176,147.296 88.5176,146.963 91.5,146.5 Z"/></g>
<g><path style="opacity:0.776" fill="#55492d" d="M 127.5,145.5 C 127.5,146.167 127.5,146.833 127.5,147.5C 126.89,148.391 126.557,149.391 126.5,150.5C 125.833,150.5 125.167,150.5 124.5,150.5C 125.11,148.566 126.11,146.899 127.5,145.5 Z"/></g>
<g><path style="opacity:1" fill="#ededed" d="M 227.5,153.5 C 227.5,153.167 227.5,152.833 227.5,152.5C 226.962,150.883 226.629,149.216 226.5,147.5C 233.841,148.183 241.174,149.016 248.5,150C 263.652,154.025 278.985,156.858 294.5,158.5C 294.5,159.5 294.5,160.5 294.5,161.5C 272.831,161.667 251.164,161.5 229.5,161C 228.877,158.393 228.21,155.893 227.5,153.5 Z"/></g>
<g><path style="opacity:0.939" fill="#808080" d="M 253.5,147.5 C 254.167,147.5 254.833,147.5 255.5,147.5C 256.5,147.5 257.5,147.5 258.5,147.5C 260.5,148.167 262.5,148.833 264.5,149.5C 262.5,149.5 260.5,149.5 258.5,149.5C 256.219,149.923 254.552,149.256 253.5,147.5 Z"/></g>
<g><path style="opacity:1" fill="#cccccc" d="M 247.5,146.5 C 249.379,147.341 251.379,147.675 253.5,147.5C 254.552,149.256 256.219,149.923 258.5,149.5C 262.054,151.006 265.887,152.34 270,153.5C 272.099,152.713 274.266,152.38 276.5,152.5C 277.167,152.5 277.833,152.5 278.5,152.5C 281.544,154.011 284.878,154.678 288.5,154.5C 291.946,155.687 295.613,156.354 299.5,156.5C 299.833,156.5 300.167,156.5 300.5,156.5C 302.302,157.458 304.302,158.125 306.5,158.5C 310.515,160.373 314.849,161.373 319.5,161.5C 320.167,161.5 320.833,161.5 321.5,161.5C 290.338,162.498 259.004,162.832 227.5,162.5C 227.5,159.5 227.5,156.5 227.5,153.5C 228.21,155.893 228.877,158.393 229.5,161C 251.164,161.5 272.831,161.667 294.5,161.5C 294.5,160.5 294.5,159.5 294.5,158.5C 278.985,156.858 263.652,154.025 248.5,150C 241.174,149.016 233.841,148.183 226.5,147.5C 226.629,149.216 226.962,150.883 227.5,152.5C 225.018,150.497 224.018,147.831 224.5,144.5C 230.074,145.048 235.574,146.048 241,147.5C 243.099,146.713 245.266,146.38 247.5,146.5 Z"/></g>
<g><path style="opacity:0.702" fill="#353535" d="M 258.5,147.5 C 264.37,147.126 269.703,148.459 274.5,151.5C 270.96,151.247 267.627,150.581 264.5,149.5C 262.5,148.833 260.5,148.167 258.5,147.5 Z"/></g>
<g><path style="opacity:0.986" fill="#aeaeae" d="M 258.5,149.5 C 260.5,149.5 262.5,149.5 264.5,149.5C 267.627,150.581 270.96,151.247 274.5,151.5C 275.492,151.328 276.158,151.662 276.5,152.5C 274.266,152.38 272.099,152.713 270,153.5C 265.887,152.34 262.054,151.006 258.5,149.5 Z"/></g>
<g><path style="opacity:1" fill="#cccccc" d="M 115.5,145.5 C 114.504,145.414 113.671,145.748 113,146.5C 112.023,148.74 111.523,151.073 111.5,153.5C 110.596,154.209 110.263,155.209 110.5,156.5C 108.692,157.918 108.025,159.918 108.5,162.5C 77.4982,162.667 46.4982,162.5 15.5,162C 21.0811,161.315 26.4144,160.148 31.5,158.5C 34.4951,158.706 37.1617,158.04 39.5,156.5C 43.4169,156.024 47.0835,155.024 50.5,153.5C 51.1667,153.5 51.8333,153.5 52.5,153.5C 55.2788,153.721 57.9455,153.388 60.5,152.5C 70.5395,151.327 80.5395,149.827 90.5,148C 91.056,147.617 91.3893,147.117 91.5,146.5C 92.1667,146.5 92.8333,146.5 93.5,146.5C 97.479,146.258 101.146,145.258 104.5,143.5C 105.167,143.5 105.833,143.5 106.5,143.5C 109.545,143.492 112.545,143.159 115.5,142.5C 115.5,143.5 115.5,144.5 115.5,145.5 Z"/></g>
<g><path style="opacity:1" fill="#ededed" d="M 107.5,146.5 C 108.5,146.5 109.5,146.5 110.5,146.5C 108.401,151.238 107.401,156.238 107.5,161.5C 84.4903,161.833 61.4903,161.5 38.5,160.5C 61.8132,156.305 84.8132,151.638 107.5,146.5 Z"/></g>
<g><path style="opacity:0.898" fill="#6c5e3a" d="M 138.5,149.5 C 137.551,151.777 136.218,153.777 134.5,155.5C 134.5,154.5 134.5,153.5 134.5,152.5C 135.167,152.5 135.5,152.167 135.5,151.5C 136.5,150.833 137.5,150.167 138.5,149.5 Z"/></g>
<g><path style="opacity:0.843" fill="#60512b" d="M 210.5,150.5 C 212.308,151.918 212.975,153.918 212.5,156.5C 212.167,156.5 211.833,156.5 211.5,156.5C 211.167,154.5 210.833,152.5 210.5,150.5 Z"/></g>
<g><path style="opacity:0.871" fill="#545454" d="M 64.5,150.5 C 63.1667,151.167 61.8333,151.833 60.5,152.5C 57.9455,153.388 55.2788,153.721 52.5,153.5C 52.6107,152.883 52.944,152.383 53.5,152C 57.1135,151.064 60.7802,150.564 64.5,150.5 Z"/></g>
<g><path style="opacity:0.733" fill="#443c27" d="M 124.5,150.5 C 124.072,153.785 123.072,156.785 121.5,159.5C 120.925,155.845 121.925,152.845 124.5,150.5 Z"/></g>
<g><path style="opacity:0.922" fill="#6a5b34" d="M 199.5,149.5 C 199.833,149.5 200.167,149.5 200.5,149.5C 201.15,151.435 201.483,153.435 201.5,155.5C 199.72,154.01 199.054,152.01 199.5,149.5 Z"/></g>
<g><path style="opacity:0.996" fill="#caa732" d="M 200.5,149.5 C 202.821,151.09 203.821,153.423 203.5,156.5C 202.833,156.167 202.167,155.833 201.5,155.5C 201.483,153.435 201.15,151.435 200.5,149.5 Z"/></g>
<g><path style="opacity:0.912" fill="#777777" d="M 278.5,152.5 C 282.078,152.549 285.411,153.215 288.5,154.5C 284.878,154.678 281.544,154.011 278.5,152.5 Z"/></g>
<g><path style="opacity:0.629" fill="#2b2b2b" d="M 220.5,145.5 C 223.012,147.465 224.345,150.132 224.5,153.5C 224.753,157.04 225.419,160.373 226.5,163.5C 226.5,163.833 226.5,164.167 226.5,164.5C 225.307,164.03 224.64,163.03 224.5,161.5C 223.167,156.166 221.833,150.832 220.5,145.5 Z"/></g>
<g><path style="opacity:0.996" fill="#7d7d7d" d="M 224.5,153.5 C 226.402,156.337 227.069,159.671 226.5,163.5C 225.419,160.373 224.753,157.04 224.5,153.5 Z"/></g>
<g><path style="opacity:0.922" fill="#5f5f5f" d="M 50.5,153.5 C 47.0835,155.024 43.4169,156.024 39.5,156.5C 39.6107,155.883 39.944,155.383 40.5,155C 43.8273,154.39 47.1606,153.89 50.5,153.5 Z"/></g>
<g><path style="opacity:1" fill="#d3ae2e" d="M 134.5,152.5 C 134.5,153.5 134.5,154.5 134.5,155.5C 134.5,155.833 134.5,156.167 134.5,156.5C 132.464,158.206 131.464,160.539 131.5,163.5C 131.167,163.5 130.833,163.5 130.5,163.5C 130.804,160.478 131.304,157.478 132,154.5C 132.708,153.619 133.542,152.953 134.5,152.5 Z"/></g>
<g><path style="opacity:0.898" fill="#676767" d="M 288.5,154.5 C 292.458,154.251 296.124,154.918 299.5,156.5C 295.613,156.354 291.946,155.687 288.5,154.5 Z"/></g>
<g><path style="opacity:0.949" fill="#7b7b7b" d="M 39.5,156.5 C 37.1617,158.04 34.4951,158.706 31.5,158.5C 29.0971,158.448 26.7638,158.781 24.5,159.5C 24.6107,158.883 24.944,158.383 25.5,158C 30.1709,157.462 34.8376,156.962 39.5,156.5 Z"/></g>
<g><path style="opacity:0.918" fill="#5e5e5e" d="M 111.5,153.5 C 111.833,153.5 112.167,153.5 112.5,153.5C 111.756,157.119 111.423,160.785 111.5,164.5C 110.833,164.5 110.167,164.5 109.5,164.5C 109.5,164.167 109.5,163.833 109.5,163.5C 110.468,161.393 110.802,159.059 110.5,156.5C 110.263,155.209 110.596,154.209 111.5,153.5 Z"/></g>
<g><path style="opacity:0.702" fill="#4e4e4e" d="M 300.5,156.5 C 304.835,156.917 309.168,157.417 313.5,158C 314.416,158.278 315.082,158.778 315.5,159.5C 312.518,159.037 309.518,158.704 306.5,158.5C 304.302,158.125 302.302,157.458 300.5,156.5 Z"/></g>
<g><path style="opacity:0.965" fill="#9b9b9b" d="M 306.5,158.5 C 309.518,158.704 312.518,159.037 315.5,159.5C 316.167,159.5 316.833,159.5 317.5,159.5C 318.167,160.167 318.833,160.833 319.5,161.5C 314.849,161.373 310.515,160.373 306.5,158.5 Z"/></g>
<g><path style="opacity:0.992" fill="#b89a41" d="M 124.5,150.5 C 125.167,150.5 125.833,150.5 126.5,150.5C 125.25,156.618 123.25,162.285 120.5,167.5C 121.388,164.946 121.721,162.279 121.5,159.5C 123.072,156.785 124.072,153.785 124.5,150.5 Z"/></g>
<g><path style="opacity:0.949" fill="#b1953f" d="M 211.5,156.5 C 211.833,156.5 212.167,156.5 212.5,156.5C 213.404,157.209 213.737,158.209 213.5,159.5C 213.5,160.167 213.5,160.833 213.5,161.5C 213.167,161.5 212.833,161.5 212.5,161.5C 211.549,160.081 211.216,158.415 211.5,156.5 Z"/></g>
<g><path style="opacity:0.894" fill="#626262" d="M 317.5,159.5 C 321.013,159.307 324.346,159.974 327.5,161.5C 328.653,162.687 328.653,163.687 327.5,164.5C 327.167,164.5 326.833,164.5 326.5,164.5C 326.19,162.856 325.19,161.856 323.5,161.5C 322.833,161.5 322.167,161.5 321.5,161.5C 320.833,161.5 320.167,161.5 319.5,161.5C 318.833,160.833 318.167,160.167 317.5,159.5 Z"/></g>
<g><path style="opacity:0.957" fill="#70613a" d="M 134.5,156.5 C 133.795,159.354 132.795,162.021 131.5,164.5C 131.5,164.167 131.5,163.833 131.5,163.5C 131.464,160.539 132.464,158.206 134.5,156.5 Z"/></g>
<g><path style="opacity:0.878" fill="#5a4d2b" d="M 201.5,155.5 C 202.167,155.833 202.833,156.167 203.5,156.5C 204.404,157.209 204.737,158.209 204.5,159.5C 204.5,160.167 204.5,160.833 204.5,161.5C 204.5,162.5 204.5,163.5 204.5,164.5C 203.054,161.746 202.054,158.746 201.5,155.5 Z"/></g>
<g><path style="opacity:1" fill="#b2b2b2" d="M 110.5,156.5 C 110.802,159.059 110.468,161.393 109.5,163.5C 77.1492,164.159 45.1492,163.493 13.5,161.5C 15.1667,160.833 16.8333,160.167 18.5,159.5C 20.5,159.5 22.5,159.5 24.5,159.5C 26.7638,158.781 29.0971,158.448 31.5,158.5C 26.4144,160.148 21.0811,161.315 15.5,162C 46.4982,162.5 77.4982,162.667 108.5,162.5C 108.025,159.918 108.692,157.918 110.5,156.5 Z"/></g>
<g><path style="opacity:1" fill="#b3b3b3" d="M 220.5,141.5 C 221.833,141.5 223.167,141.5 224.5,141.5C 225.152,142.725 226.319,143.392 228,143.5C 230.817,144.031 233.65,144.364 236.5,144.5C 240.179,144.724 243.846,145.058 247.5,145.5C 247.5,145.833 247.5,146.167 247.5,146.5C 245.266,146.38 243.099,146.713 241,147.5C 235.574,146.048 230.074,145.048 224.5,144.5C 224.018,147.831 225.018,150.497 227.5,152.5C 227.5,152.833 227.5,153.167 227.5,153.5C 227.5,156.5 227.5,159.5 227.5,162.5C 259.004,162.832 290.338,162.498 321.5,161.5C 322.167,161.5 322.833,161.5 323.5,161.5C 291.517,163.493 259.184,164.159 226.5,163.5C 227.069,159.671 226.402,156.337 224.5,153.5C 224.345,150.132 223.012,147.465 220.5,145.5C 220.5,144.167 220.5,142.833 220.5,141.5 Z"/></g>
<g><path style="opacity:0.968" fill="#8a8a8a" d="M 13.5,161.5 C 45.1492,163.493 77.1492,164.159 109.5,163.5C 109.5,163.833 109.5,164.167 109.5,164.5C 77.1667,164.5 44.8333,164.5 12.5,164.5C 12.2627,163.209 12.596,162.209 13.5,161.5 Z"/></g>
<g><path style="opacity:0.964" fill="#8a8a8a" d="M 323.5,161.5 C 325.19,161.856 326.19,162.856 326.5,164.5C 293.167,164.5 259.833,164.5 226.5,164.5C 226.5,164.167 226.5,163.833 226.5,163.5C 259.184,164.159 291.517,163.493 323.5,161.5 Z"/></g>
<g><path style="opacity:0.904" fill="#313131" d="M 18.5,159.5 C 16.8333,160.167 15.1667,160.833 13.5,161.5C 12.596,162.209 12.2627,163.209 12.5,164.5C 44.8333,164.5 77.1667,164.5 109.5,164.5C 77.0043,165.498 44.3376,165.832 11.5,165.5C 11.5,163.5 11.5,161.5 11.5,159.5C 13.8333,159.5 16.1667,159.5 18.5,159.5 Z"/></g>
<g><path style="opacity:0.51" fill="#382f18" d="M 121.5,159.5 C 121.721,162.279 121.388,164.946 120.5,167.5C 120.5,170.167 120.5,172.833 120.5,175.5C 120.5,176.167 120.5,176.833 120.5,177.5C 119.883,177.389 119.383,177.056 119,176.5C 117.974,170.426 118.807,164.759 121.5,159.5 Z"/></g>
<g><path style="opacity:0.756" fill="#171717" d="M 109.5,164.5 C 110.167,164.5 110.833,164.5 111.5,164.5C 111.389,165.117 111.056,165.617 110.5,166C 77.3308,166.831 44.3308,166.664 11.5,165.5C 44.3376,165.832 77.0043,165.498 109.5,164.5 Z"/></g>
<g><path style="opacity:0.756" fill="#1f1f1f" d="M 226.5,164.5 C 259.833,164.5 293.167,164.5 326.5,164.5C 326.833,164.5 327.167,164.5 327.5,164.5C 311.014,165.833 294.18,166.5 277,166.5C 259.82,166.5 242.986,165.833 226.5,164.5 Z"/></g>
<g><path style="opacity:0.997" fill="#cba726" d="M 212.5,161.5 C 212.833,161.5 213.167,161.5 213.5,161.5C 213.678,164.977 214.345,168.31 215.5,171.5C 214.005,175.287 213.338,179.287 213.5,183.5C 212.833,184.5 212.167,185.5 211.5,186.5C 213.412,178.215 213.745,169.882 212.5,161.5 Z"/></g>
<g><path style="opacity:0.949" fill="#9d832c" d="M 204.5,161.5 C 205.222,161.918 205.722,162.584 206,163.5C 206.499,169.157 206.666,174.824 206.5,180.5C 206.573,182.027 205.906,183.027 204.5,183.5C 205.726,177.024 205.726,170.691 204.5,164.5C 204.5,163.5 204.5,162.5 204.5,161.5 Z"/></g>
<g><path style="opacity:0.996" fill="#d2ae2a" d="M 204.5,159.5 C 206.357,160.602 207.691,162.269 208.5,164.5C 207.925,169.988 207.258,175.321 206.5,180.5C 206.666,174.824 206.499,169.157 206,163.5C 205.722,162.584 205.222,161.918 204.5,161.5C 204.5,160.833 204.5,160.167 204.5,159.5 Z"/></g>
<g><path style="opacity:0.996" fill="#9e842f" d="M 130.5,163.5 C 130.833,163.5 131.167,163.5 131.5,163.5C 131.5,163.833 131.5,164.167 131.5,164.5C 131.5,169.833 131.5,175.167 131.5,180.5C 130.186,178.085 129.519,175.252 129.5,172C 129.502,168.979 129.836,166.146 130.5,163.5 Z"/></g>
<g><path style="opacity:0.729" fill="#383121" d="M 204.5,164.5 C 205.726,170.691 205.726,177.024 204.5,183.5C 203.833,184.167 203.167,184.833 202.5,185.5C 203.993,178.59 204.659,171.59 204.5,164.5 Z"/></g>
<g><path style="opacity:0.952" fill="#767676" d="M 11.5,178.5 C 44.8333,178.5 78.1667,178.5 111.5,178.5C 111.616,181.86 111.949,185.193 112.5,188.5C 112.963,191.221 113.629,193.888 114.5,196.5C 113.21,195.942 112.377,194.942 112,193.5C 110.961,189.001 109.794,184.668 108.5,180.5C 92.6702,179.833 76.6702,179.5 60.5,179.5C 44.1524,179.501 28.1524,180.167 12.5,181.5C 11.596,180.791 11.2627,179.791 11.5,178.5 Z"/></g>
<g><path style="opacity:0.952" fill="#797979" d="M 325.5,182.5 C 322.763,182.401 320.096,182.735 317.5,183.5C 318.99,181.72 320.99,181.054 323.5,181.5C 324.043,181.44 324.376,181.107 324.5,180.5C 291.767,179.175 259.1,179.175 226.5,180.5C 259.15,178.507 292.15,177.84 325.5,178.5C 325.5,179.833 325.5,181.167 325.5,182.5 Z"/></g>
<g><path style="opacity:0.996" fill="#a4a4a4" d="M 108.5,180.5 C 77.1649,180.333 45.8316,180.5 14.5,181C 20.3668,181.854 26.0334,183.02 31.5,184.5C 29.1667,184.5 26.8333,184.5 24.5,184.5C 20.5,183.5 16.5,182.5 12.5,181.5C 28.1524,180.167 44.1524,179.501 60.5,179.5C 76.6702,179.5 92.6702,179.833 108.5,180.5 Z"/></g>
<g><path style="opacity:0.996" fill="#a8a8a8" d="M 323.5,181.5 C 292.003,180.336 260.336,180.169 228.5,181C 227.577,183.041 227.244,185.208 227.5,187.5C 227.741,189.898 227.074,191.898 225.5,193.5C 223.832,197.285 225.165,199.285 229.5,199.5C 227.833,200.167 226.167,200.833 224.5,201.5C 223.167,201.5 221.833,201.5 220.5,201.5C 220.5,200.167 220.5,198.833 220.5,197.5C 221.458,197.047 222.292,196.381 223,195.5C 224.958,190.671 226.124,185.671 226.5,180.5C 259.1,179.175 291.767,179.175 324.5,180.5C 324.376,181.107 324.043,181.44 323.5,181.5 Z"/></g>
<g><path style="opacity:0.953" fill="#655732" d="M 131.5,180.5 C 134.114,186.427 137.114,192.093 140.5,197.5C 139.833,197.167 139.167,196.833 138.5,196.5C 136.597,194.372 134.931,192.039 133.5,189.5C 132.677,186.539 132.01,183.539 131.5,180.5 Z"/></g>
<g><path style="opacity:0.694" fill="#584b27" d="M 213.5,159.5 C 214.693,159.97 215.36,160.97 215.5,162.5C 216.804,168.331 216.804,174.164 215.5,180C 215.392,181.681 214.725,182.848 213.5,183.5C 213.338,179.287 214.005,175.287 215.5,171.5C 214.345,168.31 213.678,164.977 213.5,161.5C 213.5,160.833 213.5,160.167 213.5,159.5 Z"/></g>
<g><path style="opacity:0.863" fill="#595959" d="M 226.5,180.5 C 226.124,185.671 224.958,190.671 223,195.5C 222.292,196.381 221.458,197.047 220.5,197.5C 222.914,191.921 224.914,186.254 226.5,180.5 Z"/></g>
<g><path style="opacity:1" fill="#ededed" d="M 225.5,193.5 C 227.074,191.898 227.741,189.898 227.5,187.5C 228.738,185.786 229.405,183.786 229.5,181.5C 252.843,181.167 276.176,181.5 299.5,182.5C 274.924,187.281 250.257,191.948 225.5,196.5C 225.5,195.5 225.5,194.5 225.5,193.5 Z"/></g>
<g><path style="opacity:0.608" fill="#3a3a3a" d="M 11.5,178.5 C 11.2627,179.791 11.596,180.791 12.5,181.5C 16.5,182.5 20.5,183.5 24.5,184.5C 24.5,184.833 24.5,185.167 24.5,185.5C 20.1275,184.977 15.7942,184.143 11.5,183C 10.1991,181.384 10.1991,179.884 11.5,178.5 Z"/></g>
<g><path style="opacity:0.864" fill="#6f6f6f" d="M 24.5,185.5 C 24.5,185.167 24.5,184.833 24.5,184.5C 26.8333,184.5 29.1667,184.5 31.5,184.5C 33.1667,185.167 34.8333,185.833 36.5,186.5C 36.1667,186.5 35.8333,186.5 35.5,186.5C 31.8455,186.058 28.1788,185.724 24.5,185.5 Z"/></g>
<g><path style="opacity:0.467" fill="#2c2c2c" d="M 325.5,182.5 C 323.502,183.148 321.502,183.981 319.5,185C 317.19,185.497 314.857,185.663 312.5,185.5C 312.833,184.833 313.167,184.167 313.5,183.5C 314.833,183.5 316.167,183.5 317.5,183.5C 320.096,182.735 322.763,182.401 325.5,182.5 Z"/></g>
<g><path style="opacity:0.851" fill="#797979" d="M 313.5,183.5 C 313.167,184.167 312.833,184.833 312.5,185.5C 308.802,185.552 305.135,185.886 301.5,186.5C 300.833,186.5 300.167,186.5 299.5,186.5C 303.977,185.138 308.643,184.138 313.5,183.5 Z"/></g>
<g><path style="opacity:0.996" fill="#8b7843" d="M 204.5,183.5 C 204.843,185.483 204.176,186.817 202.5,187.5C 202.5,186.833 202.5,186.167 202.5,185.5C 203.167,184.833 203.833,184.167 204.5,183.5 Z"/></g>
<g><path style="opacity:0.804" fill="#3c3c3c" d="M 35.5,186.5 C 35.8333,186.5 36.1667,186.5 36.5,186.5C 37.8333,186.5 39.1667,186.5 40.5,186.5C 40.8333,187.167 41.1667,187.833 41.5,188.5C 38.9899,188.946 36.9899,188.28 35.5,186.5 Z"/></g>
<g><path style="opacity:0.976" fill="#8f8f8f" d="M 40.5,186.5 C 47.3993,187.23 54.066,188.563 60.5,190.5C 56.1434,190.414 51.81,190.08 47.5,189.5C 45.6208,188.659 43.6208,188.325 41.5,188.5C 41.1667,187.833 40.8333,187.167 40.5,186.5 Z"/></g>
<g><path style="opacity:0.988" fill="#b7993b" d="M 120.5,175.5 C 123.211,180.679 125.211,186.345 126.5,192.5C 125.833,192.5 125.167,192.5 124.5,192.5C 124.5,192.167 124.5,191.833 124.5,191.5C 124.204,189.597 123.537,187.93 122.5,186.5C 121.833,183.5 121.167,180.5 120.5,177.5C 120.5,176.833 120.5,176.167 120.5,175.5 Z"/></g>
<g><path style="opacity:1" fill="#cbcbcb" d="M 323.5,181.5 C 320.99,181.054 318.99,181.72 317.5,183.5C 316.167,183.5 314.833,183.5 313.5,183.5C 308.643,184.138 303.977,185.138 299.5,186.5C 297.379,186.325 295.379,186.659 293.5,187.5C 290.15,187.614 286.817,187.947 283.5,188.5C 281.667,188.585 280.334,189.252 279.5,190.5C 277.143,190.337 274.81,190.503 272.5,191C 271.944,191.383 271.611,191.883 271.5,192.5C 270.833,192.5 270.167,192.5 269.5,192.5C 264.248,192.862 259.248,193.862 254.5,195.5C 254.167,195.5 253.833,195.5 253.5,195.5C 245.409,196.526 237.409,197.859 229.5,199.5C 225.165,199.285 223.832,197.285 225.5,193.5C 225.5,194.5 225.5,195.5 225.5,196.5C 250.257,191.948 274.924,187.281 299.5,182.5C 276.176,181.5 252.843,181.167 229.5,181.5C 229.405,183.786 228.738,185.786 227.5,187.5C 227.244,185.208 227.577,183.041 228.5,181C 260.336,180.169 292.003,180.336 323.5,181.5 Z"/></g>
<g><path style="opacity:0.812" fill="#332c1b" d="M 202.5,185.5 C 202.5,186.167 202.5,186.833 202.5,187.5C 202.167,188.167 201.833,188.833 201.5,189.5C 200.833,190.167 200.167,190.833 199.5,191.5C 199.654,189.03 200.654,187.03 202.5,185.5 Z"/></g>
<g><path style="opacity:0.876" fill="#9a9a9a" d="M 293.5,187.5 C 291.833,188.167 290.167,188.833 288.5,189.5C 285.482,189.704 282.482,190.037 279.5,190.5C 280.334,189.252 281.667,188.585 283.5,188.5C 286.817,187.947 290.15,187.614 293.5,187.5 Z"/></g>
<g><path style="opacity:0.678" fill="#4a4a4a" d="M 299.5,186.5 C 300.167,186.5 300.833,186.5 301.5,186.5C 301.389,187.117 301.056,187.617 300.5,188C 296.534,188.828 292.534,189.328 288.5,189.5C 290.167,188.833 291.833,188.167 293.5,187.5C 295.379,186.659 297.379,186.325 299.5,186.5 Z"/></g>
<g><path style="opacity:0.671" fill="#473d25" d="M 122.5,186.5 C 123.537,187.93 124.204,189.597 124.5,191.5C 122.787,190.365 122.12,188.698 122.5,186.5 Z"/></g>
<g><path style="opacity:0.996" fill="#caa83a" d="M 133.5,189.5 C 134.931,192.039 136.597,194.372 138.5,196.5C 135.131,195.441 133.464,193.108 133.5,189.5 Z"/></g>
<g><path style="opacity:0.69" fill="#6d5d36" d="M 213.5,183.5 C 213.862,187.081 212.862,190.081 210.5,192.5C 210.205,190.265 210.539,188.265 211.5,186.5C 212.167,185.5 212.833,184.5 213.5,183.5 Z"/></g>
<g><path style="opacity:0.965" fill="#777777" d="M 279.5,190.5 C 279.5,190.833 279.5,191.167 279.5,191.5C 276.763,191.401 274.096,191.735 271.5,192.5C 271.611,191.883 271.944,191.383 272.5,191C 274.81,190.503 277.143,190.337 279.5,190.5 Z"/></g>
<g><path style="opacity:0.792" fill="#424242" d="M 288.5,189.5 C 285.829,191.118 282.829,191.785 279.5,191.5C 279.5,191.167 279.5,190.833 279.5,190.5C 282.482,190.037 285.482,189.704 288.5,189.5 Z"/></g>
<g><path style="opacity:0.761" fill="#414141" d="M 47.5,189.5 C 51.81,190.08 56.1434,190.414 60.5,190.5C 61.8333,191.167 63.1667,191.833 64.5,192.5C 59.1674,192.067 53.834,191.567 48.5,191C 47.944,190.617 47.6107,190.117 47.5,189.5 Z"/></g>
<g><path style="opacity:0.953" fill="#756438" d="M 201.5,189.5 C 201.741,192.034 200.741,193.7 198.5,194.5C 198.557,193.391 198.89,192.391 199.5,191.5C 200.167,190.833 200.833,190.167 201.5,189.5 Z"/></g>
<g><path style="opacity:0.594" fill="#373737" d="M 64.5,192.5 C 67.0821,192.025 69.0821,192.692 70.5,194.5C 67.9899,194.946 65.9899,194.28 64.5,192.5 Z"/></g>
<g><path style="opacity:0.761" fill="#2b2b2b" d="M 112.5,188.5 C 114.584,191.053 115.917,194.053 116.5,197.5C 115.833,197.167 115.167,196.833 114.5,196.5C 113.629,193.888 112.963,191.221 112.5,188.5 Z"/></g>
<g><path style="opacity:0.829" fill="#727272" d="M 269.5,192.5 C 264.816,194.451 259.816,195.451 254.5,195.5C 259.248,193.862 264.248,192.862 269.5,192.5 Z"/></g>
<g><path style="opacity:0.994" fill="#949494" d="M 60.5,190.5 C 69.7026,192.676 79.036,194.176 88.5,195C 89.056,195.383 89.3893,195.883 89.5,196.5C 87.2362,195.781 84.9029,195.448 82.5,195.5C 78.5,195.167 74.5,194.833 70.5,194.5C 69.0821,192.692 67.0821,192.025 64.5,192.5C 63.1667,191.833 61.8333,191.167 60.5,190.5 Z"/></g>
<g><path style="opacity:1" fill="#c9c9c9" d="M 108.5,180.5 C 109.794,184.668 110.961,189.001 112,193.5C 112.377,194.942 113.21,195.942 114.5,196.5C 115.038,198.117 115.371,199.784 115.5,201.5C 114.167,201.5 112.833,201.5 111.5,201.5C 111.5,201.167 111.5,200.833 111.5,200.5C 105.079,198.549 98.412,197.216 91.5,196.5C 90.8333,196.5 90.1667,196.5 89.5,196.5C 89.3893,195.883 89.056,195.383 88.5,195C 79.036,194.176 69.7026,192.676 60.5,190.5C 54.066,188.563 47.3993,187.23 40.5,186.5C 39.1667,186.5 37.8333,186.5 36.5,186.5C 34.8333,185.833 33.1667,185.167 31.5,184.5C 26.0334,183.02 20.3668,181.854 14.5,181C 45.8316,180.5 77.1649,180.333 108.5,180.5 Z"/></g>
<g><path style="opacity:1" fill="#ededed" d="M 36.5,181.5 C 59.8357,181.333 83.169,181.5 106.5,182C 107.65,186.932 108.983,191.765 110.5,196.5C 87.0621,191.899 63.5621,187.566 40,183.5C 38.3189,183.392 37.1522,182.725 36.5,181.5 Z"/></g>
<g><path style="opacity:0.996" fill="#b79b49" d="M 209.5,192.5 C 209.5,193.167 209.5,193.833 209.5,194.5C 208.182,196.751 206.516,198.751 204.5,200.5C 204.67,196.814 206.336,194.147 209.5,192.5 Z"/></g>
<g><path style="opacity:0.808" fill="#444444" d="M 82.5,195.5 C 84.9029,195.448 87.2362,195.781 89.5,196.5C 90.1667,196.5 90.8333,196.5 91.5,196.5C 91.8333,197.167 92.1667,197.833 92.5,198.5C 89.9621,198.493 87.4621,198.159 85,197.5C 83.6244,197.316 82.7911,196.649 82.5,195.5 Z"/></g>
<g><path style="opacity:0.827" fill="#4f493a" d="M 196.5,196.5 C 196.262,198.404 195.262,199.738 193.5,200.5C 193.468,198.381 194.468,197.048 196.5,196.5 Z"/></g>
<g><path style="opacity:0.928" fill="#969696" d="M 91.5,196.5 C 98.412,197.216 105.079,198.549 111.5,200.5C 105.82,199.942 100.153,199.275 94.5,198.5C 93.8333,198.5 93.1667,198.5 92.5,198.5C 92.1667,197.833 91.8333,197.167 91.5,196.5 Z"/></g>
<g><path style="opacity:1" fill="#d6b134" d="M 126.5,193.5 C 129.095,194.426 131.095,196.093 132.5,198.5C 133.509,200.518 134.509,202.518 135.5,204.5C 134.833,204.5 134.167,204.5 133.5,204.5C 133.322,203.305 132.989,202.138 132.5,201C 129.931,198.933 127.931,196.433 126.5,193.5 Z"/></g>
<g><path style="opacity:0.996" fill="#bca259" d="M 138.5,196.5 C 139.167,196.833 139.833,197.167 140.5,197.5C 140.5,198.167 140.5,198.833 140.5,199.5C 138.952,199.179 138.285,198.179 138.5,196.5 Z"/></g>
<g><path style="opacity:0.576" fill="#3c3422" d="M 209.5,194.5 C 209.151,198.53 207.151,201.53 203.5,203.5C 203.5,203.167 203.5,202.833 203.5,202.5C 203.833,201.833 204.167,201.167 204.5,200.5C 206.516,198.751 208.182,196.751 209.5,194.5 Z"/></g>
<g><path style="opacity:0.782" fill="#505050" d="M 94.5,198.5 C 100.153,199.275 105.82,199.942 111.5,200.5C 111.5,200.833 111.5,201.167 111.5,201.5C 105.54,201.452 99.873,200.452 94.5,198.5 Z"/></g>
<g><path style="opacity:0.89" fill="#71623b" d="M 124.5,192.5 C 125.167,192.5 125.833,192.5 126.5,192.5C 126.5,192.833 126.5,193.167 126.5,193.5C 127.931,196.433 129.931,198.933 132.5,201C 132.989,202.138 133.322,203.305 133.5,204.5C 129.541,201.263 126.541,197.263 124.5,192.5 Z"/></g>
<g><path style="opacity:1" fill="#a9914f" d="M 198.5,194.5 C 198.256,199.073 195.923,201.74 191.5,202.5C 191.833,201.833 192.167,201.167 192.5,200.5C 192.833,200.5 193.167,200.5 193.5,200.5C 195.262,199.738 196.262,198.404 196.5,196.5C 196.5,195.167 197.167,194.5 198.5,194.5 Z"/></g>
<g><path style="opacity:0.767" fill="#606060" d="M 253.5,195.5 C 244.319,199.207 234.652,201.207 224.5,201.5C 226.167,200.833 227.833,200.167 229.5,199.5C 237.409,197.859 245.409,196.526 253.5,195.5 Z"/></g>
<g><path style="opacity:0.514" fill="#5b5b5b" d="M 114.5,196.5 C 115.167,196.833 115.833,197.167 116.5,197.5C 116.5,199.167 116.5,200.833 116.5,202.5C 114.585,202.784 112.919,202.451 111.5,201.5C 112.833,201.5 114.167,201.5 115.5,201.5C 115.371,199.784 115.038,198.117 114.5,196.5 Z"/></g>
<g><path style="opacity:0.867" fill="#726135" d="M 140.5,197.5 C 146.098,201.781 151.764,205.781 157.5,209.5C 154.37,208.748 151.37,207.582 148.5,206C 145.986,203.585 143.319,201.419 140.5,199.5C 140.5,198.833 140.5,198.167 140.5,197.5 Z"/></g>
<g><path style="opacity:0.933" fill="#50421b" d="M 192.5,200.5 C 192.167,201.167 191.833,201.833 191.5,202.5C 190.833,202.833 190.167,203.167 189.5,203.5C 189.5,201.5 190.5,200.5 192.5,200.5 Z"/></g>
<g><path style="opacity:0.957" fill="#a38831" d="M 203.5,202.5 C 203.5,202.833 203.5,203.167 203.5,203.5C 201.52,204.484 199.853,205.817 198.5,207.5C 197.391,207.557 196.391,207.89 195.5,208.5C 197.753,206.058 200.42,204.058 203.5,202.5 Z"/></g>
<g><path style="opacity:0.898" fill="#5c4f2c" d="M 189.5,203.5 C 188.173,205.182 186.506,206.515 184.5,207.5C 183.833,207.5 183.167,207.5 182.5,207.5C 184.052,204.888 186.386,203.555 189.5,203.5 Z"/></g>
<g><path style="opacity:0.71" fill="#50431c" d="M 133.5,204.5 C 134.167,204.5 134.833,204.5 135.5,204.5C 135.833,205.167 136.167,205.833 136.5,206.5C 136.5,206.833 136.5,207.167 136.5,207.5C 134.856,207.19 133.856,206.19 133.5,204.5 Z"/></g>
<g><path style="opacity:0.973" fill="#b1974f" d="M 136.5,207.5 C 136.5,207.167 136.5,206.833 136.5,206.5C 137.552,206.351 138.552,206.517 139.5,207C 141.398,208.417 143.064,209.917 144.5,211.5C 143.167,211.167 141.833,210.833 140.5,210.5C 139.738,208.738 138.404,207.738 136.5,207.5 Z"/></g>
<g><path style="opacity:0.78" fill="#483e27" d="M 179.5,207.5 C 179.5,208.167 179.5,208.833 179.5,209.5C 178.5,209.5 177.5,209.5 176.5,209.5C 175.833,209.5 175.167,209.5 174.5,209.5C 175.78,208.069 177.447,207.402 179.5,207.5 Z"/></g>
<g><path style="opacity:1" fill="#bb9d3d" d="M 179.5,207.5 C 180.5,207.5 181.5,207.5 182.5,207.5C 183.167,207.5 183.833,207.5 184.5,207.5C 183.365,209.213 181.698,209.88 179.5,209.5C 179.5,208.833 179.5,208.167 179.5,207.5 Z"/></g>
<g><path style="opacity:0.667" fill="#60553c" d="M 198.5,207.5 C 197.952,209.532 196.619,210.532 194.5,210.5C 194.5,210.167 194.5,209.833 194.5,209.5C 194.5,208.833 194.833,208.5 195.5,208.5C 196.391,207.89 197.391,207.557 198.5,207.5 Z"/></g>
<g><path style="opacity:0.678" fill="#3b3b3b" d="M 116.5,212.5 C 113.465,211.266 110.465,211.266 107.5,212.5C 108.334,211.252 109.667,210.585 111.5,210.5C 112.833,210.667 114.167,210.833 115.5,211C 116.056,211.383 116.389,211.883 116.5,212.5 Z"/></g>
<g><path style="opacity:0.992" fill="#8d7633" d="M 160.5,209.5 C 165.167,209.5 169.833,209.5 174.5,209.5C 175.167,209.5 175.833,209.5 176.5,209.5C 174.257,210.812 171.59,211.478 168.5,211.5C 165.41,211.478 162.743,210.812 160.5,209.5 Z"/></g>
<g><path style="opacity:0.776" fill="#616161" d="M 232.5,215.5 C 230.983,213.85 229.15,212.517 227,211.5C 223.892,212.193 220.892,213.193 218,214.5C 216.262,216.74 214.095,218.407 211.5,219.5C 211.848,216.981 213.181,215.147 215.5,214C 220.113,211.077 225.113,210.077 230.5,211C 231.582,212.33 232.249,213.83 232.5,215.5 Z"/></g>
<g><path style="opacity:0.984" fill="#c6a644" d="M 194.5,209.5 C 194.5,209.833 194.5,210.167 194.5,210.5C 192.5,211.167 190.5,211.833 188.5,212.5C 189.687,210.025 191.687,209.025 194.5,209.5 Z"/></g>
<g><path style="opacity:0.812" fill="#6c5c31" d="M 194.5,210.5 C 192.879,212.942 190.546,214.275 187.5,214.5C 187.833,213.833 188.167,213.167 188.5,212.5C 190.5,211.833 192.5,211.167 194.5,210.5 Z"/></g>
<g><path style="opacity:0.678" fill="#3c331d" d="M 140.5,210.5 C 141.833,210.833 143.167,211.167 144.5,211.5C 145.167,212.5 145.833,213.5 146.5,214.5C 143.465,214.653 141.465,213.32 140.5,210.5 Z"/></g>
<g><path style="opacity:0.961" fill="#be9d2f" d="M 144.5,211.5 C 148.021,212.099 151.021,213.432 153.5,215.5C 151.883,214.962 150.216,214.629 148.5,214.5C 147.833,214.5 147.167,214.5 146.5,214.5C 145.833,213.5 145.167,212.5 144.5,211.5 Z"/></g>
<g><path style="opacity:0.965" fill="#796736" d="M 148.5,214.5 C 150.216,214.629 151.883,214.962 153.5,215.5C 154.959,215.433 156.292,215.766 157.5,216.5C 157.5,216.833 157.5,217.167 157.5,217.5C 155.473,217.662 153.473,217.495 151.5,217C 149.881,216.764 148.881,215.931 148.5,214.5 Z"/></g>
<g><path style="opacity:0.949" fill="#a38a3e" d="M 186.5,214.5 C 185.833,215.167 185.167,215.833 184.5,216.5C 180.519,217.021 176.519,217.354 172.5,217.5C 176.985,216.216 181.651,215.216 186.5,214.5 Z"/></g>
<g><path style="opacity:0.643" fill="#3b3b3b" d="M 107.5,212.5 C 106.066,215.047 104.4,217.381 102.5,219.5C 102.608,217.217 103.441,215.217 105,213.5C 105.671,212.748 106.504,212.414 107.5,212.5 Z"/></g>
<g><path style="opacity:0.963" fill="#9e821f" d="M 157.5,217.5 C 157.5,217.167 157.5,216.833 157.5,216.5C 162.482,217.053 167.482,217.387 172.5,217.5C 172.5,218.167 172.5,218.833 172.5,219.5C 169.5,219.5 166.5,219.5 163.5,219.5C 162.365,217.787 160.698,217.12 158.5,217.5C 158.167,217.5 157.833,217.5 157.5,217.5 Z"/></g>
<g><path style="opacity:1" fill="#0b0b0b" d="M 226.5,216.5 C 227.667,218.041 229,219.375 230.5,220.5C 230.351,221.552 230.517,222.552 231,223.5C 234.09,227.739 236.923,232.072 239.5,236.5C 239.5,238.5 240.5,239.5 242.5,239.5C 243.008,242.852 244.342,245.852 246.5,248.5C 246.043,249.298 245.376,249.631 244.5,249.5C 241.833,247.5 239.167,245.5 236.5,243.5C 235.375,241.871 234.041,240.371 232.5,239C 229.691,237.677 227.025,236.177 224.5,234.5C 224.027,233.094 223.027,232.427 221.5,232.5C 220.089,230.086 218.089,228.419 215.5,227.5C 216.167,220.833 219.833,217.167 226.5,216.5 Z"/></g>
<g><path style="opacity:1" fill="#0b0b0b" d="M 114.5,217.5 C 116.179,217.285 117.179,217.952 117.5,219.5C 118.114,221.283 119.28,222.616 121,223.5C 121.494,225.134 121.66,226.801 121.5,228.5C 120.205,229.488 118.872,230.488 117.5,231.5C 116.448,231.351 115.448,231.517 114.5,232C 112.101,233.98 110.101,236.147 108.5,238.5C 102.682,240.976 97.6818,244.642 93.5,249.5C 93.1667,249.5 92.8333,249.5 92.5,249.5C 91.596,248.791 91.2627,247.791 91.5,246.5C 93.2451,244.967 94.2451,242.967 94.5,240.5C 96.3998,238.381 98.0664,236.047 99.5,233.5C 102.167,229.99 104.667,226.324 107,222.5C 108.886,219.758 111.386,218.091 114.5,217.5 Z"/></g>
<g><path style="opacity:0.749" fill="#5b5443" d="M 158.5,217.5 C 160.698,217.12 162.365,217.787 163.5,219.5C 161.302,219.88 159.635,219.213 158.5,217.5 Z"/></g>
<g><path style="opacity:0.612" fill="#393324" d="M 184.5,216.5 C 180.988,218.95 176.988,219.95 172.5,219.5C 172.5,218.833 172.5,218.167 172.5,217.5C 176.519,217.354 180.519,217.021 184.5,216.5 Z"/></g>
<g><path style="opacity:1" fill="#5b5b5b" d="M 226.5,216.5 C 219.833,217.167 216.167,220.833 215.5,227.5C 214.351,227.209 213.684,226.376 213.5,225C 215.721,219.78 219.555,216.28 225,214.5C 226.03,214.836 226.53,215.503 226.5,216.5 Z"/></g>
<g><path style="opacity:1" fill="#434343" d="M 117.5,219.5 C 119.167,220.167 120.833,220.833 122.5,221.5C 122.328,222.492 122.662,223.158 123.5,223.5C 123.923,225.781 123.256,227.448 121.5,228.5C 121.66,226.801 121.494,225.134 121,223.5C 119.28,222.616 118.114,221.283 117.5,219.5 Z"/></g>
<g><path style="opacity:1" fill="#7c7c7c" d="M 122.5,216.5 C 123.496,216.414 124.329,216.748 125,217.5C 126.552,220.822 127.718,224.322 128.5,228C 127.961,231.371 125.961,233.204 122.5,233.5C 124.327,232.068 125.994,230.401 127.5,228.5C 126.846,226.885 126.346,225.218 126,223.5C 125.023,222.226 124.189,222.226 123.5,223.5C 122.662,223.158 122.328,222.492 122.5,221.5C 123.72,219.95 123.72,218.284 122.5,216.5 Z"/></g>
<g><path style="opacity:1" fill="#5a5a5a" d="M 114.5,217.5 C 111.386,218.091 108.886,219.758 107,222.5C 104.667,226.324 102.167,229.99 99.5,233.5C 102.606,228.392 105.272,223.059 107.5,217.5C 110.005,216.583 112.338,216.583 114.5,217.5 Z"/></g>
<g><path style="opacity:0.886" fill="#515151" d="M 211.5,219.5 C 209.462,223.02 209.128,226.687 210.5,230.5C 209.128,226.687 209.462,223.02 211.5,219.5 Z"/></g>
<g><path style="opacity:0.988" fill="#7b7b7b" d="M 232.5,215.5 C 234.047,216.768 235.047,218.435 235.5,220.5C 235.833,221.833 236.167,223.167 236.5,224.5C 235.637,223.537 234.97,223.537 234.5,224.5C 235.366,227.531 236.866,230.197 239,232.5C 239.49,233.793 239.657,235.127 239.5,236.5C 236.923,232.072 234.09,227.739 231,223.5C 230.517,222.552 230.351,221.552 230.5,220.5C 231.156,221.278 231.989,221.944 233,222.5C 233.5,222.167 234,221.833 234.5,221.5C 233.253,219.677 232.586,217.677 232.5,215.5 Z"/></g>
<g><path style="opacity:0.824" fill="#555555" d="M 102.5,219.5 C 102.13,222.267 100.796,224.267 98.5,225.5C 98.8449,222.802 100.178,220.802 102.5,219.5 Z"/></g>
<g><path style="opacity:0.647" fill="#2c2c2c" d="M 141.5,223.5 C 142.873,223.343 144.207,223.51 145.5,224C 147.431,224.902 149.097,226.069 150.5,227.5C 148.079,227.122 145.746,226.455 143.5,225.5C 142.5,225.167 141.833,224.5 141.5,223.5 Z"/></g>
<g><path style="opacity:0.661" fill="#545454" d="M 197.5,232.5 C 197.833,229.833 198.167,227.167 198.5,224.5C 196.708,224.366 195.042,224.699 193.5,225.5C 194.356,222.487 196.189,221.82 199,223.5C 199.927,226.863 199.427,229.863 197.5,232.5 Z"/></g>
<g><path style="opacity:1" fill="#a0a0a0" d="M 232.5,215.5 C 232.586,217.677 233.253,219.677 234.5,221.5C 234,221.833 233.5,222.167 233,222.5C 231.989,221.944 231.156,221.278 230.5,220.5C 229,219.375 227.667,218.041 226.5,216.5C 226.53,215.503 226.03,214.836 225,214.5C 219.555,216.28 215.721,219.78 213.5,225C 213.684,226.376 214.351,227.209 215.5,227.5C 216.911,229.914 218.911,231.581 221.5,232.5C 221.973,233.906 222.973,234.573 224.5,234.5C 227.434,238.922 231.434,241.922 236.5,243.5C 236.511,245.017 237.177,246.184 238.5,247C 240.405,248.421 242.405,249.588 244.5,250.5C 245.5,251.167 246.5,251.833 247.5,252.5C 250.512,255.369 249.845,256.702 245.5,256.5C 245.5,256.167 245.5,255.833 245.5,255.5C 243.049,252.723 240.049,250.723 236.5,249.5C 234.777,247.782 232.777,246.449 230.5,245.5C 230.027,244.094 229.027,243.427 227.5,243.5C 227.5,242.833 227.167,242.5 226.5,242.5C 225.833,241.167 224.833,240.167 223.5,239.5C 223.167,239.5 222.833,239.5 222.5,239.5C 220.761,236.757 218.427,234.757 215.5,233.5C 213.668,232.752 212.001,231.752 210.5,230.5C 209.128,226.687 209.462,223.02 211.5,219.5C 214.095,218.407 216.262,216.74 218,214.5C 220.892,213.193 223.892,212.193 227,211.5C 229.15,212.517 230.983,213.85 232.5,215.5 Z"/></g>
<g><path style="opacity:0.886" fill="#4d4d4d" d="M 235.5,220.5 C 237.408,221.486 238.408,223.152 238.5,225.5C 237.833,225.167 237.167,224.833 236.5,224.5C 236.167,223.167 235.833,221.833 235.5,220.5 Z"/></g>
<g><path style="opacity:0.998" fill="#bababa" d="M 141.5,223.5 C 141.833,224.5 142.5,225.167 143.5,225.5C 144.167,226.5 144.833,227.5 145.5,228.5C 144.5,228.5 143.5,228.5 142.5,228.5C 142.636,231.551 142.302,234.551 141.5,237.5C 142.754,239.334 143.421,241.334 143.5,243.5C 142.833,242.5 142.167,241.5 141.5,240.5C 139.98,235.052 138.98,229.386 138.5,223.5C 139.5,223.5 140.5,223.5 141.5,223.5 Z"/></g>
<g><path style="opacity:0.996" fill="#9f9f9f" d="M 236.5,224.5 C 237.167,224.833 237.833,225.167 238.5,225.5C 242.016,230.268 245.016,235.268 247.5,240.5C 248.529,243.891 250.529,246.557 253.5,248.5C 255.279,249.67 256.279,251.336 256.5,253.5C 257.34,255.853 258.674,257.853 260.5,259.5C 260.5,259.833 260.5,260.167 260.5,260.5C 261.038,262.117 261.371,263.784 261.5,265.5C 259.11,263.817 256.444,262.484 253.5,261.5C 252.993,260.141 251.993,259.141 250.5,258.5C 251.833,257.833 253.167,257.167 254.5,256.5C 252.781,254.456 251.114,252.456 249.5,250.5C 246.977,246.888 244.644,243.222 242.5,239.5C 241.833,238.167 240.833,237.167 239.5,236.5C 239.657,235.127 239.49,233.793 239,232.5C 236.866,230.197 235.366,227.531 234.5,224.5C 234.97,223.537 235.637,223.537 236.5,224.5 Z"/></g>
<g><path style="opacity:0.98" fill="#7e7e7e" d="M 192.5,225.5 C 191.9,226.9 190.9,227.9 189.5,228.5C 185.246,229.646 180.913,230.313 176.5,230.5C 176.5,230.167 176.5,229.833 176.5,229.5C 182.094,229.101 187.428,227.768 192.5,225.5 Z"/></g>
<g><path style="opacity:1" fill="#454545" d="M 215.5,227.5 C 218.089,228.419 220.089,230.086 221.5,232.5C 218.911,231.581 216.911,229.914 215.5,227.5 Z"/></g>
<g><path style="opacity:1" fill="#eeeeee" d="M 184.5,279.5 C 184.5,279.833 184.5,280.167 184.5,280.5C 183.073,282.148 182.24,284.148 182,286.5C 181.108,292.186 180.108,297.853 179,303.5C 178.5,280.169 178.333,256.836 178.5,233.5C 182.332,233.413 185.665,232.413 188.5,230.5C 189.583,230.461 190.583,230.127 191.5,229.5C 191.833,230.333 192.167,231.167 192.5,232C 189.379,247.77 186.712,263.603 184.5,279.5 Z"/></g>
<g><path style="opacity:0.978" fill="#afafaf" d="M 197.5,232.5 C 197.5,233.167 197.5,233.833 197.5,234.5C 195.923,238.253 194.923,242.253 194.5,246.5C 193.833,247.5 193.167,248.5 192.5,249.5C 192.425,245.374 193.425,241.54 195.5,238C 194.633,234.895 194.299,231.728 194.5,228.5C 192.833,228.5 191.167,228.5 189.5,228.5C 190.9,227.9 191.9,226.9 192.5,225.5C 192.833,225.5 193.167,225.5 193.5,225.5C 195.042,224.699 196.708,224.366 198.5,224.5C 198.167,227.167 197.833,229.833 197.5,232.5 Z"/></g>
<g><path style="opacity:0.992" fill="#a5a5a5" d="M 143.5,225.5 C 145.746,226.455 148.079,227.122 150.5,227.5C 151.833,228.167 153.167,228.833 154.5,229.5C 156.265,230.461 158.265,230.795 160.5,230.5C 160.5,263.833 160.5,297.167 160.5,330.5C 159.833,330.5 159.167,330.5 158.5,330.5C 157.284,327.129 156.284,323.795 155.5,320.5C 155.5,318.833 155.5,317.167 155.5,315.5C 157.265,318.393 158.432,321.726 159,325.5C 159.667,294.5 159.667,263.5 159,232.5C 154.922,231.198 150.755,230.198 146.5,229.5C 146.5,228.833 146.167,228.5 145.5,228.5C 144.833,227.5 144.167,226.5 143.5,225.5 Z"/></g>
<g><path style="opacity:0.976" fill="#595959" d="M 154.5,229.5 C 157.059,229.198 159.393,229.532 161.5,230.5C 161.832,264.004 161.498,297.338 160.5,330.5C 160.5,297.167 160.5,263.833 160.5,230.5C 158.265,230.795 156.265,230.461 154.5,229.5 Z"/></g>
<g><path style="opacity:0.9" fill="#454545" d="M 176.5,229.5 C 176.5,229.833 176.5,230.167 176.5,230.5C 175.336,263.331 175.169,296.331 176,329.5C 176.671,330.252 177.504,330.586 178.5,330.5C 177.432,331.434 176.099,331.768 174.5,331.5C 173.84,297.15 174.507,263.15 176.5,229.5 Z"/></g>
<g><path style="opacity:0.992" fill="#757575" d="M 176.5,230.5 C 175.84,263.517 176.507,296.184 178.5,328.5C 178.5,328.833 178.5,329.167 178.5,329.5C 178.5,329.833 178.5,330.167 178.5,330.5C 177.504,330.586 176.671,330.252 176,329.5C 175.169,296.331 175.336,263.331 176.5,230.5 Z"/></g>
<g><path style="opacity:1" fill="#4c4c4c" d="M 221.5,232.5 C 223.027,232.427 224.027,233.094 224.5,234.5C 222.973,234.573 221.973,233.906 221.5,232.5 Z"/></g>
<g><path style="opacity:0.859" fill="#585858" d="M 96.5,228.5 C 95.9082,233.366 93.5749,237.033 89.5,239.5C 91.0485,236.582 92.5485,233.582 94,230.5C 94.7083,229.619 95.5416,228.953 96.5,228.5 Z"/></g>
<g><path style="opacity:0.745" fill="#474747" d="M 141.5,223.5 C 140.5,223.5 139.5,223.5 138.5,223.5C 138.98,229.386 139.98,235.052 141.5,240.5C 141.401,243.237 141.735,245.904 142.5,248.5C 141.883,248.389 141.383,248.056 141,247.5C 140.049,240.142 138.549,232.975 136.5,226C 137.009,222.633 138.676,221.799 141.5,223.5 Z"/></g>
<g><path style="opacity:1" fill="#cbcbcb" d="M 145.5,228.5 C 146.167,228.5 146.5,228.833 146.5,229.5C 150.755,230.198 154.922,231.198 159,232.5C 159.667,263.5 159.667,294.5 159,325.5C 158.432,321.726 157.265,318.393 155.5,315.5C 155.784,313.585 155.451,311.919 154.5,310.5C 154.975,307.918 154.308,305.918 152.5,304.5C 152.5,302.5 152.5,300.5 152.5,298.5C 151.164,290.494 149.83,282.494 148.5,274.5C 147.462,264.042 145.795,253.709 143.5,243.5C 143.421,241.334 142.754,239.334 141.5,237.5C 142.302,234.551 142.636,231.551 142.5,228.5C 143.5,228.5 144.5,228.5 145.5,228.5 Z"/></g>
<g><path style="opacity:1" fill="#ededed" d="M 146.5,229.5 C 150.098,231.74 154.098,233.074 158.5,233.5C 158.667,256.836 158.5,280.169 158,303.5C 153.055,278.823 148.221,254.156 143.5,229.5C 144.5,229.5 145.5,229.5 146.5,229.5 Z"/></g>
<g><path style="opacity:0.858" fill="#2a2a2a" d="M 161.5,230.5 C 162.498,263.996 162.832,297.663 162.5,331.5C 160.901,331.768 159.568,331.434 158.5,330.5C 159.167,330.5 159.833,330.5 160.5,330.5C 161.498,297.338 161.832,264.004 161.5,230.5 Z"/></g>
<g><path style="opacity:1" fill="#b4b4b4" d="M 189.5,228.5 C 189.167,229.167 188.833,229.833 188.5,230.5C 184.928,230.938 181.428,231.604 178,232.5C 177.833,247.167 177.667,261.833 177.5,276.5C 177.501,291.516 178.167,306.182 179.5,320.5C 179.5,320.833 179.5,321.167 179.5,321.5C 179.702,323.95 179.369,326.283 178.5,328.5C 176.507,296.184 175.84,263.517 176.5,230.5C 180.913,230.313 185.246,229.646 189.5,228.5 Z"/></g>
<g><path style="opacity:0.749" fill="#575757" d="M 215.5,233.5 C 218.427,234.757 220.761,236.757 222.5,239.5C 219.331,238.517 216.998,236.517 215.5,233.5 Z"/></g>
<g><path style="opacity:1" fill="#4b4b4b" d="M 239.5,236.5 C 240.833,237.167 241.833,238.167 242.5,239.5C 240.5,239.5 239.5,238.5 239.5,236.5 Z"/></g>
<g><path style="opacity:1" fill="#d1d1d1" d="M 189.5,228.5 C 191.167,228.5 192.833,228.5 194.5,228.5C 194.299,231.728 194.633,234.895 195.5,238C 193.425,241.54 192.425,245.374 192.5,249.5C 190.611,257.72 189.278,266.054 188.5,274.5C 187.025,276.007 185.691,277.673 184.5,279.5C 186.712,263.603 189.379,247.77 192.5,232C 192.167,231.167 191.833,230.333 191.5,229.5C 190.583,230.127 189.583,230.461 188.5,230.5C 188.833,229.833 189.167,229.167 189.5,228.5 Z"/></g>
<g><path style="opacity:0.749" fill="#565656" d="M 118.5,236.5 C 113.302,242.111 107.302,246.777 100.5,250.5C 106.099,245.361 112.099,240.695 118.5,236.5 Z"/></g>
<g><path style="opacity:0.592" fill="#3c3c3c" d="M 197.5,234.5 C 197.664,237.187 197.497,239.854 197,242.5C 196.901,244.653 196.067,246.319 194.5,247.5C 194.5,247.167 194.5,246.833 194.5,246.5C 194.923,242.253 195.923,238.253 197.5,234.5 Z"/></g>
<g><path style="opacity:0.808" fill="#505050" d="M 223.5,239.5 C 224.833,240.167 225.833,241.167 226.5,242.5C 224.5,242.5 223.5,241.5 223.5,239.5 Z"/></g>
<g><path style="opacity:1" fill="#484848" d="M 224.5,234.5 C 227.025,236.177 229.691,237.677 232.5,239C 234.041,240.371 235.375,241.871 236.5,243.5C 231.434,241.922 227.434,238.922 224.5,234.5 Z"/></g>
<g><path style="opacity:0.996" fill="#a0a0a0" d="M 116.5,212.5 C 119.366,212.633 121.366,213.966 122.5,216.5C 123.72,218.284 123.72,219.95 122.5,221.5C 120.833,220.833 119.167,220.167 117.5,219.5C 117.179,217.952 116.179,217.285 114.5,217.5C 112.338,216.583 110.005,216.583 107.5,217.5C 105.272,223.059 102.606,228.392 99.5,233.5C 98.0664,236.047 96.3998,238.381 94.5,240.5C 90.8109,245.17 87.4775,250.17 84.5,255.5C 86.3448,256.395 87.6782,255.728 88.5,253.5C 90.1667,252.5 91.5,251.167 92.5,249.5C 92.8333,249.5 93.1667,249.5 93.5,249.5C 98.7861,246.212 103.786,242.546 108.5,238.5C 109.766,237.91 111.099,237.41 112.5,237C 113.692,234.645 115.359,232.812 117.5,231.5C 118.872,230.488 120.205,229.488 121.5,228.5C 123.256,227.448 123.923,225.781 123.5,223.5C 124.189,222.226 125.023,222.226 126,223.5C 126.346,225.218 126.846,226.885 127.5,228.5C 125.994,230.401 124.327,232.068 122.5,233.5C 120.859,234.147 119.526,235.147 118.5,236.5C 112.099,240.695 106.099,245.361 100.5,250.5C 96.8886,252.644 93.2219,254.81 89.5,257C 87.9586,258.371 86.6253,259.871 85.5,261.5C 82.5988,262.41 79.9322,263.744 77.5,265.5C 76.8333,265.167 76.1667,264.833 75.5,264.5C 76.1272,263.583 76.4606,262.583 76.5,261.5C 78.2435,259.138 80.0768,256.805 82,254.5C 82.6077,252.846 83.1077,251.179 83.5,249.5C 83.5,249.167 83.5,248.833 83.5,248.5C 86.5429,246.637 88.5429,243.971 89.5,240.5C 89.5,240.167 89.5,239.833 89.5,239.5C 93.5749,237.033 95.9082,233.366 96.5,228.5C 97.9063,228.027 98.573,227.027 98.5,225.5C 100.796,224.267 102.13,222.267 102.5,219.5C 104.4,217.381 106.066,215.047 107.5,212.5C 110.465,211.266 113.465,211.266 116.5,212.5 Z"/></g>
<g><path style="opacity:1" fill="#585858" d="M 117.5,231.5 C 115.359,232.812 113.692,234.645 112.5,237C 111.099,237.41 109.766,237.91 108.5,238.5C 110.101,236.147 112.101,233.98 114.5,232C 115.448,231.517 116.448,231.351 117.5,231.5 Z"/></g>
<g><path style="opacity:0.929" fill="#6c6c6c" d="M 247.5,240.5 C 250.03,242.717 252.03,245.384 253.5,248.5C 250.529,246.557 248.529,243.891 247.5,240.5 Z"/></g>
<g><path style="opacity:1" fill="#4c4c4c" d="M 108.5,238.5 C 103.786,242.546 98.7861,246.212 93.5,249.5C 97.6818,244.642 102.682,240.976 108.5,238.5 Z"/></g>
<g><path style="opacity:0.847" fill="#494949" d="M 227.5,243.5 C 229.027,243.427 230.027,244.094 230.5,245.5C 228.973,245.573 227.973,244.906 227.5,243.5 Z"/></g>
<g><path style="opacity:1" fill="#6d6d6d" d="M 236.5,243.5 C 239.167,245.5 241.833,247.5 244.5,249.5C 244.5,249.833 244.5,250.167 244.5,250.5C 242.405,249.588 240.405,248.421 238.5,247C 237.177,246.184 236.511,245.017 236.5,243.5 Z"/></g>
<g><path style="opacity:0.808" fill="#515151" d="M 89.5,240.5 C 88.5429,243.971 86.5429,246.637 83.5,248.5C 84.9597,245.434 86.9597,242.768 89.5,240.5 Z"/></g>
<g><path style="opacity:1" fill="#3e3e3e" d="M 242.5,239.5 C 244.644,243.222 246.977,246.888 249.5,250.5C 249.5,251.833 248.833,252.5 247.5,252.5C 246.5,251.833 245.5,251.167 244.5,250.5C 244.5,250.167 244.5,249.833 244.5,249.5C 245.376,249.631 246.043,249.298 246.5,248.5C 244.342,245.852 243.008,242.852 242.5,239.5 Z"/></g>
<g><path style="opacity:1" fill="#636363" d="M 94.5,240.5 C 94.2451,242.967 93.2451,244.967 91.5,246.5C 90.6491,248.71 89.3157,250.71 87.5,252.5C 87.6236,253.107 87.9569,253.44 88.5,253.5C 87.6782,255.728 86.3448,256.395 84.5,255.5C 87.4775,250.17 90.8109,245.17 94.5,240.5 Z"/></g>
<g><path style="opacity:1" fill="#363636" d="M 91.5,246.5 C 91.2627,247.791 91.596,248.791 92.5,249.5C 91.5,251.167 90.1667,252.5 88.5,253.5C 87.9569,253.44 87.6236,253.107 87.5,252.5C 89.3157,250.71 90.6491,248.71 91.5,246.5 Z"/></g>
<g><path style="opacity:0.969" fill="#6e6e6e" d="M 236.5,249.5 C 240.049,250.723 243.049,252.723 245.5,255.5C 244.305,255.322 243.138,254.989 242,254.5C 240.101,252.746 238.268,251.079 236.5,249.5 Z"/></g>
<g><path style="opacity:0.773" fill="#4d4d4d" d="M 100.5,250.5 C 96.0414,254.897 91.0414,258.564 85.5,261.5C 86.6253,259.871 87.9586,258.371 89.5,257C 93.2219,254.81 96.8886,252.644 100.5,250.5 Z"/></g>
<g><path style="opacity:1" fill="#808080" d="M 249.5,250.5 C 251.114,252.456 252.781,254.456 254.5,256.5C 253.167,257.167 251.833,257.833 250.5,258.5C 251.993,259.141 252.993,260.141 253.5,261.5C 250.507,260.281 247.84,258.614 245.5,256.5C 249.845,256.702 250.512,255.369 247.5,252.5C 248.833,252.5 249.5,251.833 249.5,250.5 Z"/></g>
<g><path style="opacity:0.957" fill="#626262" d="M 83.5,249.5 C 83.1077,251.179 82.6077,252.846 82,254.5C 80.0768,256.805 78.2435,259.138 76.5,261.5C 75.8333,261.833 75.1667,262.167 74.5,262.5C 76.3375,257.335 79.3375,253.001 83.5,249.5 Z"/></g>
<g><path style="opacity:0.827" fill="#626262" d="M 256.5,253.5 C 259.034,254.634 260.367,256.634 260.5,259.5C 258.674,257.853 257.34,255.853 256.5,253.5 Z"/></g>
<g><path style="opacity:0.706" fill="#424242" d="M 143.5,258.5 C 144.649,258.791 145.316,259.624 145.5,261C 146.31,264.792 146.644,268.625 146.5,272.5C 145.503,267.872 144.503,263.205 143.5,258.5 Z"/></g>
<g><path style="opacity:0.847" fill="#363636" d="M 193.5,258.5 C 193.975,261.082 193.308,263.082 191.5,264.5C 191.025,261.918 191.692,259.918 193.5,258.5 Z"/></g>
<g><path style="opacity:0.988" fill="#a0a0a0" d="M 141.5,240.5 C 142.167,241.5 142.833,242.5 143.5,243.5C 145.795,253.709 147.462,264.042 148.5,274.5C 147.833,274.5 147.167,274.5 146.5,274.5C 146.5,273.833 146.5,273.167 146.5,272.5C 146.644,268.625 146.31,264.792 145.5,261C 145.316,259.624 144.649,258.791 143.5,258.5C 143.384,255.14 143.051,251.807 142.5,248.5C 141.735,245.904 141.401,243.237 141.5,240.5 Z"/></g>
<g><path style="opacity:0.945" fill="#7c7c7c" d="M 76.5,261.5 C 76.4606,262.583 76.1272,263.583 75.5,264.5C 76.1667,264.833 76.8333,265.167 77.5,265.5C 79.9322,263.744 82.5988,262.41 85.5,261.5C 82.931,264.728 79.5977,266.728 75.5,267.5C 75.5,268.5 75.5,269.5 75.5,270.5C 73.8333,270.5 72.1667,270.5 70.5,270.5C 71.1682,267.5 72.5016,264.833 74.5,262.5C 75.1667,262.167 75.8333,261.833 76.5,261.5 Z"/></g>
<g><path style="opacity:0.996" fill="#8a8a8a" d="M 260.5,260.5 C 261.728,261.306 262.728,262.306 263.5,263.5C 263.703,265.044 264.37,266.378 265.5,267.5C 264.311,268.429 262.978,268.762 261.5,268.5C 257.897,267.23 255.231,264.897 253.5,261.5C 256.444,262.484 259.11,263.817 261.5,265.5C 261.371,263.784 261.038,262.117 260.5,260.5 Z"/></g>
<g><path style="opacity:0.89" fill="#8b8b8b" d="M 194.5,246.5 C 194.5,246.833 194.5,247.167 194.5,247.5C 194.058,251.154 193.724,254.821 193.5,258.5C 191.692,259.918 191.025,261.918 191.5,264.5C 191.795,266.735 191.461,268.735 190.5,270.5C 189.833,271.833 189.167,273.167 188.5,274.5C 189.278,266.054 190.611,257.72 192.5,249.5C 193.167,248.5 193.833,247.5 194.5,246.5 Z"/></g>
<g><path style="opacity:0.522" fill="#4a4a4a" d="M 263.5,263.5 C 264.75,263.577 265.583,264.244 266,265.5C 266.494,267.134 266.66,268.801 266.5,270.5C 264.219,270.923 262.552,270.256 261.5,268.5C 262.978,268.762 264.311,268.429 265.5,267.5C 264.37,266.378 263.703,265.044 263.5,263.5 Z"/></g>
<g><path style="opacity:0.735" fill="#383838" d="M 190.5,270.5 C 190.1,276.725 189.1,282.725 187.5,288.5C 187.5,287.833 187.5,287.167 187.5,286.5C 187.833,282.5 188.167,278.5 188.5,274.5C 189.167,273.167 189.833,271.833 190.5,270.5 Z"/></g>
<g><path style="opacity:0.995" fill="#b0b0b0" d="M 188.5,274.5 C 188.167,278.5 187.833,282.5 187.5,286.5C 187.167,286.5 186.833,286.5 186.5,286.5C 185.833,284.5 185.167,282.5 184.5,280.5C 184.5,280.167 184.5,279.833 184.5,279.5C 185.691,277.673 187.025,276.007 188.5,274.5 Z"/></g>
<g><path style="opacity:0.475" fill="#434343" d="M 146.5,274.5 C 147.167,274.5 147.833,274.5 148.5,274.5C 149.83,282.494 151.164,290.494 152.5,298.5C 151.279,296.378 150.279,294.044 149.5,291.5C 148.073,285.892 147.073,280.226 146.5,274.5 Z"/></g>
<g><path style="opacity:0.878" fill="#6b6b6b" d="M 186.5,286.5 C 186.833,286.5 187.167,286.5 187.5,286.5C 187.5,287.167 187.5,287.833 187.5,288.5C 186.833,289.833 186.167,291.167 185.5,292.5C 185.205,290.265 185.539,288.265 186.5,286.5 Z"/></g>
<g><path style="opacity:1" fill="#a7a7a7" d="M 185.5,292.5 C 184.735,295.096 184.401,297.763 184.5,300.5C 182.763,305.23 181.763,310.23 181.5,315.5C 181.167,315.5 180.833,315.5 180.5,315.5C 180.502,310.979 180.836,306.479 181.5,302C 181.871,298.228 183.204,295.062 185.5,292.5 Z"/></g>
<g><path style="opacity:1" fill="#cfcfcf" d="M 188.5,230.5 C 185.665,232.413 182.332,233.413 178.5,233.5C 178.333,256.836 178.5,280.169 179,303.5C 180.108,297.853 181.108,292.186 182,286.5C 182.24,284.148 183.073,282.148 184.5,280.5C 185.167,282.5 185.833,284.5 186.5,286.5C 185.539,288.265 185.205,290.265 185.5,292.5C 183.204,295.062 181.871,298.228 181.5,302C 180.836,306.479 180.502,310.979 180.5,315.5C 179.549,316.919 179.216,318.585 179.5,320.5C 178.167,306.182 177.501,291.516 177.5,276.5C 177.667,261.833 177.833,247.167 178,232.5C 181.428,231.604 184.928,230.938 188.5,230.5 Z"/></g>
<g><path style="opacity:0.878" fill="#555555" d="M 152.5,304.5 C 154.308,305.918 154.975,307.918 154.5,310.5C 152.692,309.082 152.025,307.082 152.5,304.5 Z"/></g>
<g><path style="opacity:0.525" fill="#383838" d="M 184.5,300.5 C 184.332,304.01 183.999,307.51 183.5,311C 183.431,312.986 182.765,314.486 181.5,315.5C 181.763,310.23 182.763,305.23 184.5,300.5 Z"/></g>
<g><path style="opacity:0.902" fill="#6c6c6c" d="M 180.5,315.5 C 180.833,315.5 181.167,315.5 181.5,315.5C 181.795,317.735 181.461,319.735 180.5,321.5C 180.167,321.5 179.833,321.5 179.5,321.5C 179.5,321.167 179.5,320.833 179.5,320.5C 179.216,318.585 179.549,316.919 180.5,315.5 Z"/></g>
<g><path style="opacity:0.384" fill="#2a2a2a" d="M 155.5,320.5 C 156.284,323.795 157.284,327.129 158.5,330.5C 157.85,330.196 157.183,329.863 156.5,329.5C 155.516,326.572 155.183,323.572 155.5,320.5 Z"/></g>
<g><path style="opacity:0.396" fill="#3a3a3a" d="M 179.5,321.5 C 179.833,321.5 180.167,321.5 180.5,321.5C 181.036,324.698 180.369,327.365 178.5,329.5C 178.5,329.167 178.5,328.833 178.5,328.5C 179.369,326.283 179.702,323.95 179.5,321.5 Z"/></g>
</svg>
