<?xml version="1.0" encoding="UTF-8"?>
<!DOCTYPE svg PUBLIC "-//W3C//DTD SVG 1.1//EN" "http://www.w3.org/Graphics/SVG/1.1/DTD/svg11.dtd">
<svg xmlns="http://www.w3.org/2000/svg" version="1.1" width="100%" viewBox="0 0 335 335" style="shape-rendering:geometricPrecision; text-rendering:geometricPrecision; image-rendering:optimizeQuality; fill-rule:evenodd; clip-rule:evenodd" xmlns:xlink="http://www.w3.org/1999/xlink">
<g><path style="opacity:0.298" fill="#070504" d="M 145.5,-0.5 C 147.5,-0.5 149.5,-0.5 151.5,-0.5C 157.763,3.6679 161.263,9.6679 162,17.5C 162.333,23.8333 162.667,30.1667 163,36.5C 170.572,37.7299 176.239,41.7299 180,48.5C 182.317,55.3864 184.317,62.3864 186,69.5C 188.161,74.4924 190.828,79.1591 194,83.5C 201.636,92.1367 209.636,100.47 218,108.5C 220.833,112.667 223.667,116.833 226.5,121C 229.811,120.785 233.144,120.785 236.5,121C 239.344,123.181 242.178,125.347 245,127.5C 250.113,122.718 255.447,122.385 261,126.5C 261.973,128.392 262.64,130.392 263,132.5C 263.043,141.945 264.043,151.279 266,160.5C 269.798,173.561 273.798,186.561 278,199.5C 281.534,224.695 276.534,248.028 263,269.5C 262.097,270.701 260.931,271.535 259.5,272C 255.833,272.333 252.167,272.667 248.5,273C 245.882,277.554 242.548,281.554 238.5,285C 227.041,291.472 215.375,297.472 203.5,303C 194.079,320.261 179.746,330.761 160.5,334.5C 152.167,334.5 143.833,334.5 135.5,334.5C 115.041,330.687 97.8743,321.02 84,305.5C 79.4326,308.24 74.9326,308.074 70.5,305C 57.2806,292.655 52.4473,277.489 56,259.5C 58.8553,246.933 62.522,234.6 67,222.5C 69.8276,214.369 70.8276,206.035 70,197.5C 65.6868,188.897 62.3534,179.897 60,170.5C 58.5328,163.223 58.1994,155.889 59,148.5C 59.3603,146.579 60.1936,144.912 61.5,143.5C 63.8333,141.667 66.1667,139.833 68.5,138C 64.2438,131.384 64.5772,125.05 69.5,119C 72.3751,117.698 75.3751,116.865 78.5,116.5C 78.3276,100.515 83.4943,86.5146 94,74.5C 105,63.5 116,52.5 127,41.5C 134.99,30.9082 139.323,18.9082 140,5.5C 141.36,2.97739 143.193,0.977392 145.5,-0.5 Z M 155.5,56.5 C 156.991,59.1864 157.657,62.1864 157.5,65.5C 157.327,69.5408 156.827,73.5408 156,77.5C 155.009,76.5704 154.509,75.4038 154.5,74C 155.383,68.0778 155.717,62.2445 155.5,56.5 Z M 127.5,134.5 C 128.793,133.355 129.959,133.689 131,135.5C 131.667,136.5 131.667,137.5 131,138.5C 129.595,137.269 128.429,135.936 127.5,134.5 Z M 100.5,180.5 C 105.46,184.288 110.293,188.288 115,192.5C 115.449,195.094 114.449,197.094 112,198.5C 110.631,192.429 107.298,187.763 102,184.5C 101.209,183.255 100.709,181.922 100.5,180.5 Z"/></g>
<g><path style="opacity:1" fill="#5a524b" d="M 150.5,43.5 C 151.219,41.2362 151.552,38.9029 151.5,36.5C 148.289,36.988 145.456,36.3213 143,34.5C 142.623,35.9423 141.79,36.9423 140.5,37.5C 142.615,32.6611 144.448,27.6611 146,22.5C 146.803,16.828 147.637,11.1613 148.5,5.5C 151.217,9.03056 152.717,13.0306 153,17.5C 153.667,24.1667 153.667,30.8333 153,37.5C 152.963,39.9739 152.13,41.9739 150.5,43.5 Z"/></g>
<g><path style="opacity:1" fill="#857363" d="M 150.5,43.5 C 149.008,47.8178 147.008,51.8178 144.5,55.5C 144.5,54.5 144.5,53.5 144.5,52.5C 141.449,52.6355 138.449,52.3022 135.5,51.5C 133.803,51.8988 132.137,52.3988 130.5,53C 127.167,56.3333 123.833,59.6667 120.5,63C 119.552,63.4828 118.552,63.6495 117.5,63.5C 126.596,56.0724 134.263,47.4058 140.5,37.5C 141.79,36.9423 142.623,35.9423 143,34.5C 145.456,36.3213 148.289,36.988 151.5,36.5C 151.552,38.9029 151.219,41.2362 150.5,43.5 Z"/></g>
<g><path style="opacity:1" fill="#987e69" d="M 177.5,73.5 C 174.694,71.7007 173.361,69.0341 173.5,65.5C 171.712,65.2148 170.045,65.5481 168.5,66.5C 167.972,68.3361 167.306,70.0028 166.5,71.5C 166.666,65.4908 166.499,59.4908 166,53.5C 164.591,51.1076 163.091,48.7742 161.5,46.5C 161.887,45.2801 162.72,44.6135 164,44.5C 166.988,47.4877 169.988,50.4877 173,53.5C 173.311,60.4647 174.811,67.1314 177.5,73.5 Z"/></g>
<g><path style="opacity:1" fill="#a58266" d="M 144.5,55.5 C 137.392,64.0616 130.059,72.3949 122.5,80.5C 122.5,79.5 122.5,78.5 122.5,77.5C 117.156,77.334 111.823,77.5006 106.5,78C 104.807,78.8466 103.14,79.6799 101.5,80.5C 106.231,74.4237 111.565,68.7571 117.5,63.5C 118.552,63.6495 119.552,63.4828 120.5,63C 123.833,59.6667 127.167,56.3333 130.5,53C 132.137,52.3988 133.803,51.8988 135.5,51.5C 138.449,52.3022 141.449,52.6355 144.5,52.5C 144.5,53.5 144.5,54.5 144.5,55.5 Z"/></g>
<g><path style="opacity:0.898" fill="#7a6a5e" d="M 144.5,74.5 C 144.66,72.8008 144.494,71.1341 144,69.5C 142.334,72.3312 140.168,74.6645 137.5,76.5C 140.845,71.4918 144.179,66.4918 147.5,61.5C 147.833,62.1667 148.167,62.8333 148.5,63.5C 146.912,67.1942 145.578,70.8609 144.5,74.5 Z"/></g>
<g><path style="opacity:1" fill="#b28661" d="M 177.5,73.5 C 180.567,80.6654 184.567,87.332 189.5,93.5C 187.734,91.2294 185.734,89.0627 183.5,87C 178.177,86.5006 172.844,86.334 167.5,86.5C 167.423,90.962 168.09,95.2953 169.5,99.5C 167.438,97.6387 166.105,95.3053 165.5,92.5C 165.472,87.1383 165.806,81.8049 166.5,76.5C 166.5,74.8333 166.5,73.1667 166.5,71.5C 167.306,70.0028 167.972,68.3361 168.5,66.5C 170.045,65.5481 171.712,65.2148 173.5,65.5C 173.361,69.0341 174.694,71.7007 177.5,73.5 Z"/></g>
<g><path style="opacity:1" fill="#b88860" d="M 122.5,80.5 C 121.89,81.391 121.557,82.391 121.5,83.5C 119.178,84.8021 117.845,86.8021 117.5,89.5C 117.047,91.5652 116.047,93.2318 114.5,94.5C 115.008,92.1346 115.675,89.8013 116.5,87.5C 110.537,86.5041 104.537,86.1707 98.5,86.5C 99.5294,84.4832 100.529,82.4832 101.5,80.5C 103.14,79.6799 104.807,78.8466 106.5,78C 111.823,77.5006 117.156,77.334 122.5,77.5C 122.5,78.5 122.5,79.5 122.5,80.5 Z"/></g>
<g><path style="opacity:0.89" fill="#51443a" d="M 166.5,76.5 C 165.806,81.8049 165.472,87.1383 165.5,92.5C 164.836,90.0221 164.503,87.3555 164.5,84.5C 164.522,81.4098 165.188,78.7432 166.5,76.5 Z"/></g>
<g><path style="opacity:0.914" fill="#957a67" d="M 149.5,96.5 C 146.63,93.7617 144.63,90.4284 143.5,86.5C 143.245,83.01 144.578,80.3433 147.5,78.5C 147.833,79 148.167,79.5 148.5,80C 147.396,82.0089 146.729,84.1756 146.5,86.5C 146.51,90.1588 147.51,93.4922 149.5,96.5 Z"/></g>
<g><path style="opacity:0.957" fill="#745e4e" d="M 101.5,80.5 C 100.529,82.4832 99.5294,84.4832 98.5,86.5C 97.1667,87.8333 95.8333,89.1667 94.5,90.5C 96.0621,86.6082 98.3954,83.2749 101.5,80.5 Z"/></g>
<g><path style="opacity:1" fill="#aa7f5d" d="M 144.5,74.5 C 142.99,78.8534 141.324,83.1867 139.5,87.5C 137.935,89.5093 136.935,91.8427 136.5,94.5C 135.659,101.465 135.326,108.465 135.5,115.5C 134.662,115.158 134.328,114.492 134.5,113.5C 134.334,107.158 134.5,100.825 135,94.5C 135.273,92.8988 135.773,91.3988 136.5,90C 130.363,88.2686 125.863,90.1019 123,95.5C 122.51,96.7932 122.343,98.1266 122.5,99.5C 120.908,102.966 120.242,106.633 120.5,110.5C 118.632,100.727 121.132,92.0607 128,84.5C 131.04,81.6225 134.206,78.9558 137.5,76.5C 140.168,74.6645 142.334,72.3312 144,69.5C 144.494,71.1341 144.66,72.8008 144.5,74.5 Z"/></g>
<g><path style="opacity:0.925" fill="#57463a" d="M 121.5,83.5 C 120.66,85.8525 119.326,87.8525 117.5,89.5C 117.845,86.8021 119.178,84.8021 121.5,83.5 Z"/></g>
<g><path style="opacity:1" fill="#c38959" d="M 134.5,113.5 C 133.732,112.737 133.232,111.737 133,110.5C 132.501,106.848 132.335,103.182 132.5,99.5C 129.167,99.5 125.833,99.5 122.5,99.5C 122.343,98.1266 122.51,96.7932 123,95.5C 125.863,90.1019 130.363,88.2686 136.5,90C 135.773,91.3988 135.273,92.8988 135,94.5C 134.5,100.825 134.334,107.158 134.5,113.5 Z"/></g>
<g><path style="opacity:0.925" fill="#42362c" d="M 139.5,87.5 C 139.834,90.491 138.834,92.8243 136.5,94.5C 136.935,91.8427 137.935,89.5093 139.5,87.5 Z"/></g>
<g><path style="opacity:0.988" fill="#7c614c" d="M 94.5,90.5 C 94.1039,93.721 92.7705,96.3877 90.5,98.5C 90.8961,95.279 92.2295,92.6123 94.5,90.5 Z"/></g>
<g><path style="opacity:1" fill="#c78957" d="M 98.5,86.5 C 104.537,86.1707 110.537,86.5041 116.5,87.5C 115.675,89.8013 115.008,92.1346 114.5,94.5C 114.5,95.1667 114.5,95.8333 114.5,96.5C 113.414,96.62 112.747,97.2867 112.5,98.5C 111.831,101.852 111.164,105.185 110.5,108.5C 109.549,107.081 109.216,105.415 109.5,103.5C 103.463,103.171 97.4632,103.504 91.5,104.5C 91.1445,105.522 90.4778,106.189 89.5,106.5C 89.5172,104.435 89.8505,102.435 90.5,100.5C 90.5,99.8333 90.5,99.1667 90.5,98.5C 92.7705,96.3877 94.1039,93.721 94.5,90.5C 95.8333,89.1667 97.1667,87.8333 98.5,86.5 Z"/></g>
<g><path style="opacity:1" fill="#c38755" d="M 189.5,93.5 C 190.473,93.9867 191.473,94.4867 192.5,95C 196.193,98.6412 199.527,102.475 202.5,106.5C 200.355,106.262 198.688,105.262 197.5,103.5C 189.862,102.503 182.196,102.169 174.5,102.5C 175.937,104.96 176.937,107.626 177.5,110.5C 174.063,107.396 171.396,103.729 169.5,99.5C 168.09,95.2953 167.423,90.962 167.5,86.5C 172.844,86.334 178.177,86.5006 183.5,87C 185.734,89.0627 187.734,91.2294 189.5,93.5 Z"/></g>
<g><path style="opacity:1" fill="#ba8357" d="M 143.5,86.5 C 144.63,90.4284 146.63,93.7617 149.5,96.5C 152.854,99.8543 156.188,103.188 159.5,106.5C 155.566,105.64 151.566,105.307 147.5,105.5C 147.756,108.598 148.422,111.598 149.5,114.5C 143.176,106.982 140.676,98.3154 142,88.5C 142.278,87.5842 142.778,86.9175 143.5,86.5 Z"/></g>
<g><path style="opacity:1" fill="#ce864d" d="M 122.5,99.5 C 125.833,99.5 129.167,99.5 132.5,99.5C 132.335,103.182 132.501,106.848 133,110.5C 133.232,111.737 133.732,112.737 134.5,113.5C 134.328,114.492 134.662,115.158 135.5,115.5C 136.104,118.251 137.438,120.584 139.5,122.5C 140.805,125.871 139.471,127.204 135.5,126.5C 131.454,122.783 127.454,119.116 123.5,115.5C 122.075,114.078 121.075,112.411 120.5,110.5C 120.242,106.633 120.908,102.966 122.5,99.5 Z"/></g>
<g><path style="opacity:1" fill="#cb864e" d="M 202.5,106.5 C 204.19,106.856 205.19,107.856 205.5,109.5C 205.5,110.167 205.5,110.833 205.5,111.5C 197.5,111.5 189.5,111.5 181.5,111.5C 181.517,113.565 181.85,115.565 182.5,117.5C 180.065,115.729 178.398,113.396 177.5,110.5C 176.937,107.626 175.937,104.96 174.5,102.5C 182.196,102.169 189.862,102.503 197.5,103.5C 198.688,105.262 200.355,106.262 202.5,106.5 Z"/></g>
<g><path style="opacity:1" fill="#d0874d" d="M 110.5,108.5 C 110.54,113.193 110.873,117.859 111.5,122.5C 109.96,120.162 109.294,117.495 109.5,114.5C 102.833,114.5 96.1667,114.5 89.5,114.5C 89.5,118.5 89.5,122.5 89.5,126.5C 88.4297,119.992 88.4297,113.325 89.5,106.5C 90.4778,106.189 91.1445,105.522 91.5,104.5C 97.4632,103.504 103.463,103.171 109.5,103.5C 109.216,105.415 109.549,107.081 110.5,108.5 Z"/></g>
<g><path style="opacity:0.976" fill="#8d6549" d="M 114.5,96.5 C 112.236,106.721 111.903,117.054 113.5,127.5C 111.744,126.448 111.077,124.781 111.5,122.5C 110.873,117.859 110.54,113.193 110.5,108.5C 111.164,105.185 111.831,101.852 112.5,98.5C 112.747,97.2867 113.414,96.62 114.5,96.5 Z"/></g>
<g><path style="opacity:1" fill="#a8734f" d="M 205.5,109.5 C 208.084,112.751 211.084,115.751 214.5,118.5C 216.709,122.069 218.875,125.736 221,129.5C 221.49,130.793 221.657,132.127 221.5,133.5C 220.201,130.605 218.535,127.938 216.5,125.5C 213.565,120.235 209.899,115.568 205.5,111.5C 205.5,110.833 205.5,110.167 205.5,109.5 Z"/></g>
<g><path style="opacity:1" fill="#cf844a" d="M 159.5,106.5 C 164.741,109.404 169.407,113.071 173.5,117.5C 173.5,118.167 173.5,118.833 173.5,119.5C 167.132,119.17 160.798,119.504 154.5,120.5C 155.309,122.071 155.643,123.738 155.5,125.5C 153.541,121.858 151.541,118.191 149.5,114.5C 148.422,111.598 147.756,108.598 147.5,105.5C 151.566,105.307 155.566,105.64 159.5,106.5 Z"/></g>
<g><path style="opacity:0.976" fill="#a5714c" d="M 90.5,100.5 C 89.8505,102.435 89.5172,104.435 89.5,106.5C 88.4297,113.325 88.4297,119.992 89.5,126.5C 90.4015,129.872 90.4015,133.205 89.5,136.5C 86.1204,135.787 84.1204,133.787 83.5,130.5C 84.8149,131.476 86.1482,132.476 87.5,133.5C 87.8333,132.5 88.1667,131.5 88.5,130.5C 87.4253,122.189 87.2587,113.855 88,105.5C 88.0496,103.256 88.8829,101.589 90.5,100.5 Z"/></g>
<g><path style="opacity:0.992" fill="#a1704e" d="M 123.5,115.5 C 127.454,119.116 131.454,122.783 135.5,126.5C 130.229,124.201 126.229,120.535 123.5,115.5 Z"/></g>
<g><path style="opacity:0.973" fill="#815e47" d="M 173.5,117.5 C 174.906,117.973 175.573,118.973 175.5,120.5C 174.833,120.167 174.167,119.833 173.5,119.5C 173.5,118.833 173.5,118.167 173.5,117.5 Z"/></g>
<g><path style="opacity:1" fill="#d68344" d="M 205.5,111.5 C 209.899,115.568 213.565,120.235 216.5,125.5C 207.494,125.334 198.494,125.5 189.5,126C 190.355,128.436 191.021,130.936 191.5,133.5C 190.833,133.5 190.167,133.5 189.5,133.5C 187.946,127.843 185.613,122.509 182.5,117.5C 181.85,115.565 181.517,113.565 181.5,111.5C 189.5,111.5 197.5,111.5 205.5,111.5 Z"/></g>
<g><path style="opacity:0.973" fill="#896249" d="M 175.5,120.5 C 177.262,121.262 178.262,122.596 178.5,124.5C 176.738,123.738 175.738,122.404 175.5,120.5 Z"/></g>
<g><path style="opacity:1" fill="#db813d" d="M 111.5,122.5 C 111.077,124.781 111.744,126.448 113.5,127.5C 114.043,130.218 114.709,132.885 115.5,135.5C 104.279,137.132 92.9456,137.799 81.5,137.5C 81.9628,140.221 82.6295,142.888 83.5,145.5C 82.0256,144.564 81.0256,143.23 80.5,141.5C 80.573,139.973 79.9063,138.973 78.5,138.5C 78.5,138.167 78.5,137.833 78.5,137.5C 77.6988,133.765 76.6988,130.099 75.5,126.5C 76.8333,126.5 78.1667,126.5 79.5,126.5C 81.3407,127.402 82.674,128.736 83.5,130.5C 84.1204,133.787 86.1204,135.787 89.5,136.5C 90.4015,133.205 90.4015,129.872 89.5,126.5C 89.5,122.5 89.5,118.5 89.5,114.5C 96.1667,114.5 102.833,114.5 109.5,114.5C 109.294,117.495 109.96,120.162 111.5,122.5 Z"/></g>
<g><path style="opacity:1" fill="#b47951" d="M 139.5,122.5 C 142.23,125.42 145.563,127.42 149.5,128.5C 146.216,129.657 142.882,129.824 139.5,129C 137.68,128.8 136.347,127.966 135.5,126.5C 139.471,127.204 140.805,125.871 139.5,122.5 Z"/></g>
<g><path style="opacity:1" fill="#da8140" d="M 173.5,119.5 C 174.167,119.833 174.833,120.167 175.5,120.5C 175.738,122.404 176.738,123.738 178.5,124.5C 179.338,124.842 179.672,125.508 179.5,126.5C 179.755,128.967 180.755,130.967 182.5,132.5C 182.557,133.609 182.89,134.609 183.5,135.5C 183.5,137.5 183.5,139.5 183.5,141.5C 182.508,141.672 181.842,141.338 181.5,140.5C 181.425,137.794 181.092,135.127 180.5,132.5C 173.313,132.175 166.313,132.509 159.5,133.5C 158.985,131.249 157.985,129.249 156.5,127.5C 156.672,126.508 156.338,125.842 155.5,125.5C 155.643,123.738 155.309,122.071 154.5,120.5C 160.798,119.504 167.132,119.17 173.5,119.5 Z"/></g>
<g><path style="opacity:0.929" fill="#9a6b4d" d="M 79.5,126.5 C 78.1667,126.5 76.8333,126.5 75.5,126.5C 76.6988,130.099 77.6988,133.765 78.5,137.5C 75.628,134.046 74.4613,130.046 75,125.5C 76.9151,124.084 78.4151,124.418 79.5,126.5 Z"/></g>
<g><path style="opacity:0.663" fill="#634f43" d="M 235.5,130.5 C 234.167,129.167 232.833,129.167 231.5,130.5C 232.833,126.5 234.167,126.5 235.5,130.5 Z"/></g>
<g><path style="opacity:0.937" fill="#aa704c" d="M 235.5,130.5 C 237.288,135.322 238.288,140.322 238.5,145.5C 239.114,149.135 239.448,152.802 239.5,156.5C 238.322,151.962 237.322,147.295 236.5,142.5C 234.45,128.557 232.117,128.223 229.5,141.5C 229.116,137.511 229.783,133.845 231.5,130.5C 232.833,129.167 234.167,129.167 235.5,130.5 Z"/></g>
<g><path style="opacity:0.945" fill="#7f5941" d="M 179.5,126.5 C 181.245,128.033 182.245,130.033 182.5,132.5C 180.755,130.967 179.755,128.967 179.5,126.5 Z"/></g>
<g><path style="opacity:1" fill="#dd7f3a" d="M 216.5,125.5 C 218.535,127.938 220.201,130.605 221.5,133.5C 222.167,137.167 222.833,140.833 223.5,144.5C 221.896,143.713 221.229,142.38 221.5,140.5C 214.833,140.5 208.167,140.5 201.5,140.5C 201.5,142.833 201.5,145.167 201.5,147.5C 201.167,147.5 200.833,147.5 200.5,147.5C 199.962,145.883 199.629,144.216 199.5,142.5C 198.972,138.987 197.138,137.987 194,139.5C 193.51,140.793 193.343,142.127 193.5,143.5C 191.598,140.663 190.931,137.329 191.5,133.5C 191.021,130.936 190.355,128.436 189.5,126C 198.494,125.5 207.494,125.334 216.5,125.5 Z"/></g>
<g><path style="opacity:0.992" fill="#956548" d="M 113.5,127.5 C 115.819,132.088 118.152,136.754 120.5,141.5C 118.487,139.832 116.82,137.832 115.5,135.5C 114.709,132.885 114.043,130.218 113.5,127.5 Z"/></g>
<g><path style="opacity:0.843" fill="#664938" d="M 140.5,135.5 C 142.304,134.838 144.304,134.505 146.5,134.5C 148.952,134.539 150.952,135.206 152.5,136.5C 151.833,136.5 151.167,136.5 150.5,136.5C 147.375,135.521 144.042,135.187 140.5,135.5 Z"/></g>
<g><path style="opacity:0.988" fill="#a37051" d="M 189.5,133.5 C 190.167,133.5 190.833,133.5 191.5,133.5C 190.931,137.329 191.598,140.663 193.5,143.5C 193.029,144.901 192.362,146.234 191.5,147.5C 190.653,142.846 189.987,138.179 189.5,133.5 Z"/></g>
<g><path style="opacity:0.969" fill="#ae7757" d="M 140.5,135.5 C 144.042,135.187 147.375,135.521 150.5,136.5C 147.813,136.336 145.146,136.503 142.5,137C 144.996,138.331 146.996,140.164 148.5,142.5C 146.093,140.787 143.426,139.453 140.5,138.5C 139.438,137.575 139.438,136.575 140.5,135.5 Z"/></g>
<g><path style="opacity:1" fill="#df7e37" d="M 181.5,140.5 C 171.736,140.553 162.069,140.719 152.5,141C 151.978,141.561 151.645,142.228 151.5,143C 153.2,145.231 154.2,147.731 154.5,150.5C 154.167,150.5 153.833,150.5 153.5,150.5C 152.925,148.589 151.925,146.922 150.5,145.5C 150.573,143.973 149.906,142.973 148.5,142.5C 146.996,140.164 144.996,138.331 142.5,137C 145.146,136.503 147.813,136.336 150.5,136.5C 151.167,136.5 151.833,136.5 152.5,136.5C 152.833,136.5 153.167,136.5 153.5,136.5C 155.102,138.074 157.102,138.741 159.5,138.5C 159.5,136.833 159.5,135.167 159.5,133.5C 166.313,132.509 173.313,132.175 180.5,132.5C 181.092,135.127 181.425,137.794 181.5,140.5 Z"/></g>
<g><path style="opacity:1" fill="#dd7e3a" d="M 236.5,142.5 C 234.712,142.215 233.045,142.548 231.5,143.5C 231.234,146.65 230.234,149.317 228.5,151.5C 228.5,151.167 228.5,150.833 228.5,150.5C 228.963,147.518 229.296,144.518 229.5,141.5C 232.117,128.223 234.45,128.557 236.5,142.5 Z"/></g>
<g><path style="opacity:0.914" fill="#99735c" d="M 254.5,148.5 C 253.675,144.353 253.175,140.019 253,135.5C 252.283,136.044 251.783,136.711 251.5,137.5C 251.167,138.5 250.5,139.167 249.5,139.5C 250.694,136.549 251.694,133.549 252.5,130.5C 253.675,130.281 254.675,130.614 255.5,131.5C 254.546,137.104 254.212,142.771 254.5,148.5 Z"/></g>
<g><path style="opacity:0.996" fill="#ad7756" d="M 156.5,127.5 C 157.985,129.249 158.985,131.249 159.5,133.5C 159.5,135.167 159.5,136.833 159.5,138.5C 157.102,138.741 155.102,138.074 153.5,136.5C 154.822,136.33 155.989,136.663 157,137.5C 157.543,134.132 157.376,130.799 156.5,127.5 Z"/></g>
<g><path style="opacity:0.969" fill="#83583f" d="M 199.5,142.5 C 198.141,141.993 197.141,140.993 196.5,139.5C 195.141,140.624 194.141,141.958 193.5,143.5C 193.343,142.127 193.51,140.793 194,139.5C 197.138,137.987 198.972,138.987 199.5,142.5 Z"/></g>
<g><path style="opacity:0.975" fill="#c58057" d="M 254.5,148.5 C 255.051,151.807 255.384,155.14 255.5,158.5C 254.235,157.486 253.569,155.986 253.5,154C 253.074,148.322 252.407,142.822 251.5,137.5C 251.783,136.711 252.283,136.044 253,135.5C 253.175,140.019 253.675,144.353 254.5,148.5 Z"/></g>
<g><path style="opacity:0.918" fill="#704f3c" d="M 78.5,138.5 C 79.9063,138.973 80.573,139.973 80.5,141.5C 79.0937,141.027 78.427,140.027 78.5,138.5 Z"/></g>
<g><path style="opacity:0.992" fill="#9c6546" d="M 120.5,141.5 C 122.262,142.262 123.262,143.596 123.5,145.5C 121.738,144.738 120.738,143.404 120.5,141.5 Z"/></g>
<g><path style="opacity:1" fill="#e27b2f" d="M 181.5,140.5 C 181.842,141.338 182.508,141.672 183.5,141.5C 184.055,145.012 183.388,148.012 181.5,150.5C 172.833,149.167 164.167,149.167 155.5,150.5C 155.167,150.5 154.833,150.5 154.5,150.5C 154.2,147.731 153.2,145.231 151.5,143C 151.645,142.228 151.978,141.561 152.5,141C 162.069,140.719 171.736,140.553 181.5,140.5 Z"/></g>
<g><path style="opacity:1" fill="#e17b30" d="M 115.5,135.5 C 116.82,137.832 118.487,139.832 120.5,141.5C 120.738,143.404 121.738,144.738 123.5,145.5C 125.395,146.973 127.061,148.64 128.5,150.5C 128.5,151.167 128.5,151.833 128.5,152.5C 127.527,152.013 126.527,151.513 125.5,151C 113.326,150.174 101.326,150.34 89.5,151.5C 87.4848,149.424 85.4848,147.424 83.5,145.5C 82.6295,142.888 81.9628,140.221 81.5,137.5C 92.9456,137.799 104.279,137.132 115.5,135.5 Z"/></g>
<g><path style="opacity:0.906" fill="#71503c" d="M 148.5,142.5 C 149.906,142.973 150.573,143.973 150.5,145.5C 149.094,145.027 148.427,144.027 148.5,142.5 Z"/></g>
<g><path style="opacity:0.988" fill="#8b5c3f" d="M 221.5,133.5 C 224.203,137.301 225.536,141.634 225.5,146.5C 224.833,145.833 224.167,145.167 223.5,144.5C 222.833,140.833 222.167,137.167 221.5,133.5 Z"/></g>
<g><path style="opacity:1" fill="#e3792c" d="M 223.5,144.5 C 223.5,147.5 223.5,150.5 223.5,153.5C 225.698,153.88 227.365,153.213 228.5,151.5C 230.234,149.317 231.234,146.65 231.5,143.5C 233.045,142.548 234.712,142.215 236.5,142.5C 237.322,147.295 238.322,151.962 239.5,156.5C 239.5,159.833 239.5,163.167 239.5,166.5C 239.167,166.5 238.833,166.5 238.5,166.5C 238.74,163.421 238.407,160.421 237.5,157.5C 226.52,156.501 215.52,156.168 204.5,156.5C 205.08,160.649 204.414,164.316 202.5,167.5C 202.5,162.167 202.5,156.833 202.5,151.5C 202.768,149.901 202.434,148.568 201.5,147.5C 201.5,145.167 201.5,142.833 201.5,140.5C 208.167,140.5 214.833,140.5 221.5,140.5C 221.229,142.38 221.896,143.713 223.5,144.5 Z"/></g>
<g><path style="opacity:0.976" fill="#a46a49" d="M 200.5,147.5 C 200.833,147.5 201.167,147.5 201.5,147.5C 202.434,148.568 202.768,149.901 202.5,151.5C 202.167,151.5 201.833,151.5 201.5,151.5C 200.566,150.432 200.232,149.099 200.5,147.5 Z"/></g>
<g><path style="opacity:1" fill="#c77d53" d="M 223.5,144.5 C 224.167,145.167 224.833,145.833 225.5,146.5C 225.338,148.527 225.505,150.527 226,152.5C 226.417,151.244 227.25,150.577 228.5,150.5C 228.5,150.833 228.5,151.167 228.5,151.5C 227.365,153.213 225.698,153.88 223.5,153.5C 223.5,150.5 223.5,147.5 223.5,144.5 Z"/></g>
<g><path style="opacity:0.98" fill="#9b684f" d="M 128.5,150.5 C 129.906,150.973 130.573,151.973 130.5,153.5C 129.833,153.167 129.167,152.833 128.5,152.5C 128.5,151.833 128.5,151.167 128.5,150.5 Z"/></g>
<g><path style="opacity:0.988" fill="#c27448" d="M 153.5,150.5 C 153.833,150.5 154.167,150.5 154.5,150.5C 154.833,150.5 155.167,150.5 155.5,150.5C 155.666,155.844 155.499,161.177 155,166.5C 154.617,167.056 154.117,167.389 153.5,167.5C 154.716,161.812 154.716,156.145 153.5,150.5 Z"/></g>
<g><path style="opacity:0.945" fill="#ac6b46" d="M 79.5,169.5 C 78.2058,168.71 77.0391,167.71 76,166.5C 73.0999,162.8 70.9332,158.8 69.5,154.5C 69.1667,155.333 68.8333,156.167 68.5,157C 69.6953,165.359 71.362,173.526 73.5,181.5C 68.3376,170.856 66.5043,159.522 68,147.5C 68.414,147.043 68.914,146.709 69.5,146.5C 70.2612,151.419 71.7612,156.086 74,160.5C 75.9298,163.479 77.7631,166.479 79.5,169.5 Z"/></g>
<g><path style="opacity:0.996" fill="#ba6f42" d="M 83.5,145.5 C 85.4848,147.424 87.4848,149.424 89.5,151.5C 90.8333,154.167 92.1667,156.833 93.5,159.5C 89.2699,155.483 85.9365,150.817 83.5,145.5 Z"/></g>
<g><path style="opacity:0.996" fill="#c2754b" d="M 248.5,140.5 C 245.943,153.158 245.943,165.825 248.5,178.5C 247.833,177.5 247.167,176.5 246.5,175.5C 246.5,174.5 246.5,173.5 246.5,172.5C 245.628,166.211 245.295,159.878 245.5,153.5C 245.124,148.739 246.124,144.405 248.5,140.5 Z"/></g>
<g><path style="opacity:1" fill="#bf7041" d="M 131.5,153.5 C 136.75,158.482 142.083,163.482 147.5,168.5C 143.213,166.35 139.213,163.683 135.5,160.5C 133.384,158.6 132.051,156.267 131.5,153.5 Z"/></g>
<g><path style="opacity:1" fill="#e77425" d="M 181.5,150.5 C 181.623,156.6 180.957,162.6 179.5,168.5C 181.527,168.662 183.527,168.495 185.5,168C 186.252,167.329 186.586,166.496 186.5,165.5C 186.833,164.833 187.167,164.167 187.5,163.5C 188.482,162.859 189.482,162.193 190.5,161.5C 192.27,164.193 192.937,167.193 192.5,170.5C 191.007,173.583 190.007,176.917 189.5,180.5C 189.5,181.167 189.5,181.833 189.5,182.5C 189.167,183.167 188.833,183.833 188.5,184.5C 187.094,184.973 186.427,185.973 186.5,187.5C 185.876,189.754 184.543,191.421 182.5,192.5C 179.235,192.082 176.235,190.915 173.5,189C 171.25,186.578 168.917,184.411 166.5,182.5C 165.5,181.167 164.5,179.833 163.5,178.5C 161.761,175.757 159.427,173.757 156.5,172.5C 154.721,171.33 153.721,169.664 153.5,167.5C 154.117,167.389 154.617,167.056 155,166.5C 155.499,161.177 155.666,155.844 155.5,150.5C 164.167,149.167 172.833,149.167 181.5,150.5 Z"/></g>
<g><path style="opacity:0.872" fill="#533423" d="M 201.5,151.5 C 201.833,151.5 202.167,151.5 202.5,151.5C 202.5,156.833 202.5,162.167 202.5,167.5C 202.5,169.167 202.5,170.833 202.5,172.5C 201.833,173.167 201.167,173.833 200.5,174.5C 201.313,166.862 201.646,159.196 201.5,151.5 Z"/></g>
<g><path style="opacity:1" fill="#e77424" d="M 128.5,152.5 C 129.167,152.833 129.833,153.167 130.5,153.5C 130.833,153.5 131.167,153.5 131.5,153.5C 132.051,156.267 133.384,158.6 135.5,160.5C 139.213,163.683 143.213,166.35 147.5,168.5C 148.5,169.167 149.5,169.833 150.5,170.5C 155.153,175.147 160.153,179.481 165.5,183.5C 165.833,184.167 166.167,184.833 166.5,185.5C 163.36,183.853 160.36,182.019 157.5,180C 144.504,179.5 131.504,179.333 118.5,179.5C 116.784,179.371 115.117,179.038 113.5,178.5C 111.856,178.19 110.856,177.19 110.5,175.5C 109.221,172.348 106.888,170.348 103.5,169.5C 100.785,166.118 97.7852,163.118 94.5,160.5C 94.5,159.833 94.1667,159.5 93.5,159.5C 92.1667,156.833 90.8333,154.167 89.5,151.5C 101.326,150.34 113.326,150.174 125.5,151C 126.527,151.513 127.527,152.013 128.5,152.5 Z"/></g>
<g><path style="opacity:0.984" fill="#996140" d="M 192.5,172.5 C 192.5,171.833 192.5,171.167 192.5,170.5C 192.937,167.193 192.27,164.193 190.5,161.5C 189.482,162.193 188.482,162.859 187.5,163.5C 188.63,161.685 189.296,159.685 189.5,157.5C 190.5,157.5 191.5,157.5 192.5,157.5C 193.619,162.653 193.619,167.653 192.5,172.5 Z"/></g>
<g><path style="opacity:1" fill="#e87422" d="M 238.5,166.5 C 237.78,170.73 237.113,175.063 236.5,179.5C 224.833,179.5 213.167,179.5 201.5,179.5C 201.993,177.194 202.326,174.861 202.5,172.5C 202.5,170.833 202.5,169.167 202.5,167.5C 204.414,164.316 205.08,160.649 204.5,156.5C 215.52,156.168 226.52,156.501 237.5,157.5C 238.407,160.421 238.74,163.421 238.5,166.5 Z"/></g>
<g><path style="opacity:1" fill="#e57228" d="M 251.5,137.5 C 252.407,142.822 253.074,148.322 253.5,154C 253.569,155.986 254.235,157.486 255.5,158.5C 255.5,158.833 255.5,159.167 255.5,159.5C 255.892,166.229 257.892,172.229 261.5,177.5C 261.5,178.167 261.5,178.833 261.5,179.5C 261.755,181.967 262.755,183.967 264.5,185.5C 264.721,188.067 265.388,190.401 266.5,192.5C 266.5,194.5 266.5,196.5 266.5,198.5C 262.039,195.779 257.039,194.779 251.5,195.5C 250.92,199.142 250.42,202.809 250,206.5C 249.617,207.056 249.117,207.389 248.5,207.5C 248.963,204.518 249.296,201.518 249.5,198.5C 249.5,196.5 249.5,194.5 249.5,192.5C 249.002,187.848 248.669,183.181 248.5,178.5C 245.943,165.825 245.943,153.158 248.5,140.5C 249.167,140.5 249.5,140.167 249.5,139.5C 250.5,139.167 251.167,138.5 251.5,137.5 Z"/></g>
<g><path style="opacity:0.969" fill="#875c47" d="M 94.5,160.5 C 97.7852,163.118 100.785,166.118 103.5,169.5C 99.5,167.5 96.5,164.5 94.5,160.5 Z"/></g>
<g><path style="opacity:0.931" fill="#583723" d="M 238.5,145.5 C 239.222,145.918 239.722,146.584 240,147.5C 240.667,156.167 240.667,164.833 240,173.5C 239.768,174.737 239.268,175.737 238.5,176.5C 239.051,173.193 239.384,169.86 239.5,166.5C 239.5,163.167 239.5,159.833 239.5,156.5C 239.448,152.802 239.114,149.135 238.5,145.5 Z"/></g>
<g><path style="opacity:0.988" fill="#985e3f" d="M 255.5,159.5 C 257.648,165.277 259.648,171.277 261.5,177.5C 257.892,172.229 255.892,166.229 255.5,159.5 Z"/></g>
<g><path style="opacity:0.996" fill="#9b5f3c" d="M 183.5,135.5 C 185.164,145.512 184.497,155.512 181.5,165.5C 181.833,166.167 182.167,166.833 182.5,167.5C 183.86,166.82 185.193,166.153 186.5,165.5C 186.586,166.496 186.252,167.329 185.5,168C 183.527,168.495 181.527,168.662 179.5,168.5C 180.957,162.6 181.623,156.6 181.5,150.5C 183.388,148.012 184.055,145.012 183.5,141.5C 183.5,139.5 183.5,137.5 183.5,135.5 Z"/></g>
<g><path style="opacity:1" fill="#c77344" d="M 238.5,166.5 C 238.833,166.5 239.167,166.5 239.5,166.5C 239.384,169.86 239.051,173.193 238.5,176.5C 238.721,179.279 238.388,181.946 237.5,184.5C 237.167,184.5 236.833,184.5 236.5,184.5C 236.5,182.833 236.5,181.167 236.5,179.5C 237.113,175.063 237.78,170.73 238.5,166.5 Z"/></g>
<g><path style="opacity:0.796" fill="#3b2b22" d="M 245.5,153.5 C 245.295,159.878 245.628,166.211 246.5,172.5C 245.883,172.389 245.383,172.056 245,171.5C 244.181,165.319 244.347,159.319 245.5,153.5 Z"/></g>
<g><path style="opacity:1" fill="#c16d3e" d="M 103.5,169.5 C 106.888,170.348 109.221,172.348 110.5,175.5C 108.012,173.745 105.678,171.745 103.5,169.5 Z"/></g>
<g><path style="opacity:0.976" fill="#493125" d="M 153.5,167.5 C 153.721,169.664 154.721,171.33 156.5,172.5C 158.239,175.243 160.573,177.243 163.5,178.5C 164.5,179.833 165.5,181.167 166.5,182.5C 166.5,183.167 166.167,183.5 165.5,183.5C 160.153,179.481 155.153,175.147 150.5,170.5C 151.1,169.1 152.1,168.1 153.5,167.5 Z"/></g>
<g><path style="opacity:0.984" fill="#ba6e46" d="M 192.5,170.5 C 192.5,171.167 192.5,171.833 192.5,172.5C 192.326,174.861 191.993,177.194 191.5,179.5C 190.833,179.833 190.167,180.167 189.5,180.5C 190.007,176.917 191.007,173.583 192.5,170.5 Z"/></g>
<g><path style="opacity:1" fill="#ad6a48" d="M 156.5,172.5 C 159.427,173.757 161.761,175.757 163.5,178.5C 160.573,177.243 158.239,175.243 156.5,172.5 Z"/></g>
<g><path style="opacity:1" fill="#c26c3c" d="M 79.5,169.5 C 82.8292,173.83 86.1625,178.163 89.5,182.5C 84.2933,179.624 80.9599,175.291 79.5,169.5 Z"/></g>
<g><path style="opacity:0.796" fill="#432d23" d="M 200.5,176.5 C 200.243,180.171 199.243,183.505 197.5,186.5C 197.804,183.478 198.304,180.478 199,177.5C 199.383,176.944 199.883,176.611 200.5,176.5 Z"/></g>
<g><path style="opacity:1" fill="#e86f22" d="M 79.5,169.5 C 80.9599,175.291 84.2933,179.624 89.5,182.5C 90.3382,182.842 90.6716,183.508 90.5,184.5C 90.7247,187.546 92.058,189.879 94.5,191.5C 94.5,191.833 94.5,192.167 94.5,192.5C 94.5,193.5 94.5,194.5 94.5,195.5C 90.6002,196.43 86.6002,196.763 82.5,196.5C 82.6567,197.873 82.49,199.207 82,200.5C 81.6174,199.944 81.1174,199.611 80.5,199.5C 80.8412,195.84 80.1745,192.507 78.5,189.5C 77.6618,189.158 77.3284,188.492 77.5,187.5C 77.1298,184.733 75.7964,182.733 73.5,181.5C 71.362,173.526 69.6953,165.359 68.5,157C 68.8333,156.167 69.1667,155.333 69.5,154.5C 70.9332,158.8 73.0999,162.8 76,166.5C 77.0391,167.71 78.2058,168.71 79.5,169.5 Z"/></g>
<g><path style="opacity:1" fill="#e86d20" d="M 118.5,179.5 C 131.504,179.333 144.504,179.5 157.5,180C 160.36,182.019 163.36,183.853 166.5,185.5C 169.167,187.833 171.833,190.167 174.5,192.5C 174.5,193.167 174.5,193.833 174.5,194.5C 173.527,194.013 172.527,193.513 171.5,193C 158.833,192.333 146.167,192.333 133.5,193C 134.252,193.671 134.586,194.504 134.5,195.5C 134.167,195.5 133.833,195.5 133.5,195.5C 132.415,193.413 130.749,192.08 128.5,191.5C 127.833,190.167 126.833,189.167 125.5,188.5C 123.136,185.476 120.803,182.476 118.5,179.5 Z"/></g>
<g><path style="opacity:1" fill="#e86d1f" d="M 201.5,179.5 C 213.167,179.5 224.833,179.5 236.5,179.5C 236.5,181.167 236.5,182.833 236.5,184.5C 235.85,186.435 235.517,188.435 235.5,190.5C 233.777,191.605 232.777,193.272 232.5,195.5C 220.167,195.5 207.833,195.5 195.5,195.5C 195.263,194.209 195.596,193.209 196.5,192.5C 199.526,188.767 201.192,184.434 201.5,179.5 Z"/></g>
<g><path style="opacity:0.996" fill="#ba693e" d="M 113.5,178.5 C 115.117,179.038 116.784,179.371 118.5,179.5C 120.803,182.476 123.136,185.476 125.5,188.5C 120.885,185.884 116.885,182.55 113.5,178.5 Z"/></g>
<g><path style="opacity:0.902" fill="#614131" d="M 191.5,179.5 C 191.573,181.027 190.906,182.027 189.5,182.5C 189.5,181.833 189.5,181.167 189.5,180.5C 190.167,180.167 190.833,179.833 191.5,179.5 Z"/></g>
<g><path style="opacity:0.89" fill="#69402b" d="M 261.5,179.5 C 263.245,181.033 264.245,183.033 264.5,185.5C 262.755,183.967 261.755,181.967 261.5,179.5 Z"/></g>
<g><path style="opacity:1" fill="#d1703c" d="M 202.5,172.5 C 202.326,174.861 201.993,177.194 201.5,179.5C 201.192,184.434 199.526,188.767 196.5,192.5C 196.5,191.833 196.5,191.167 196.5,190.5C 196.833,189.167 197.167,187.833 197.5,186.5C 199.243,183.505 200.243,180.171 200.5,176.5C 200.5,175.833 200.5,175.167 200.5,174.5C 201.167,173.833 201.833,173.167 202.5,172.5 Z"/></g>
<g><path style="opacity:0.976" fill="#b56a44" d="M 73.5,181.5 C 75.7964,182.733 77.1298,184.733 77.5,187.5C 75.2621,186.147 73.9287,184.147 73.5,181.5 Z"/></g>
<g><path style="opacity:0.953" fill="#9a5d41" d="M 188.5,184.5 C 188.573,186.027 187.906,187.027 186.5,187.5C 186.427,185.973 187.094,184.973 188.5,184.5 Z"/></g>
<g><path style="opacity:1" fill="#895339" d="M 166.5,182.5 C 168.917,184.411 171.25,186.578 173.5,189C 176.235,190.915 179.235,192.082 182.5,192.5C 182.53,193.497 182.03,194.164 181,194.5C 178.942,193.888 177.109,192.888 175.5,191.5C 174.893,191.624 174.56,191.957 174.5,192.5C 171.833,190.167 169.167,187.833 166.5,185.5C 166.167,184.833 165.833,184.167 165.5,183.5C 166.167,183.5 166.5,183.167 166.5,182.5 Z"/></g>
<g><path style="opacity:0.847" fill="#65402f" d="M 236.5,184.5 C 236.833,184.5 237.167,184.5 237.5,184.5C 237.741,186.898 237.074,188.898 235.5,190.5C 235.517,188.435 235.85,186.435 236.5,184.5 Z"/></g>
<g><path style="opacity:0.992" fill="#b36642" d="M 90.5,184.5 C 92.942,186.121 94.2753,188.454 94.5,191.5C 92.058,189.879 90.7247,187.546 90.5,184.5 Z"/></g>
<g><path style="opacity:0.894" fill="#754c3a" d="M 125.5,188.5 C 126.833,189.167 127.833,190.167 128.5,191.5C 126.5,191.5 125.5,190.5 125.5,188.5 Z"/></g>
<g><path style="opacity:0.992" fill="#a86242" d="M 128.5,191.5 C 130.749,192.08 132.415,193.413 133.5,195.5C 132.833,195.5 132.167,195.5 131.5,195.5C 130.5,194.167 129.5,192.833 128.5,191.5 Z"/></g>
<g><path style="opacity:0.769" fill="#4e372b" d="M 246.5,175.5 C 247.167,176.5 247.833,177.5 248.5,178.5C 248.669,183.181 249.002,187.848 249.5,192.5C 248.213,191.129 247.547,189.295 247.5,187C 247.11,183.165 246.777,179.332 246.5,175.5 Z"/></g>
<g><path style="opacity:0.996" fill="#9d5e44" d="M 174.5,192.5 C 175.906,192.973 176.573,193.973 176.5,195.5C 175.833,195.167 175.167,194.833 174.5,194.5C 174.5,193.833 174.5,193.167 174.5,192.5 Z"/></g>
<g><path style="opacity:0.965" fill="#955a40" d="M 94.5,192.5 C 96.1765,193.183 96.8432,194.517 96.5,196.5C 95.5084,196.672 94.8417,196.338 94.5,195.5C 94.5,194.5 94.5,193.5 94.5,192.5 Z"/></g>
<g><path style="opacity:0.957" fill="#855038" d="M 196.5,190.5 C 196.5,191.167 196.5,191.833 196.5,192.5C 195.596,193.209 195.263,194.209 195.5,195.5C 194.833,195.833 194.167,196.167 193.5,196.5C 193.755,194.033 194.755,192.033 196.5,190.5 Z"/></g>
<g><path style="opacity:1" fill="#e6661f" d="M 195.5,195.5 C 207.833,195.5 220.167,195.5 232.5,195.5C 232.5,196.5 232.5,197.5 232.5,198.5C 230.621,199.895 229.621,201.895 229.5,204.5C 229.5,204.833 229.5,205.167 229.5,205.5C 228.1,206.1 227.1,207.1 226.5,208.5C 214.919,208.179 203.419,208.512 192,209.5C 190.731,208.095 190.231,206.429 190.5,204.5C 190.5,203.833 190.5,203.167 190.5,202.5C 192.245,200.967 193.245,198.967 193.5,196.5C 194.167,196.167 194.833,195.833 195.5,195.5 Z"/></g>
<g><path style="opacity:1" fill="#e6671e" d="M 174.5,194.5 C 175.167,194.833 175.833,195.167 176.5,195.5C 176.833,195.5 177.167,195.5 177.5,195.5C 177.5,196.167 177.5,196.833 177.5,197.5C 180.076,200.979 182.409,204.645 184.5,208.5C 171.35,208.564 158.35,208.564 145.5,208.5C 145.649,207.448 145.483,206.448 145,205.5C 141.302,202.3 137.802,198.967 134.5,195.5C 134.586,194.504 134.252,193.671 133.5,193C 146.167,192.333 158.833,192.333 171.5,193C 172.527,193.513 173.527,194.013 174.5,194.5 Z"/></g>
<g><path style="opacity:0.984" fill="#7d4c38" d="M 177.5,195.5 C 178.906,195.973 179.573,196.973 179.5,198.5C 178.833,198.167 178.167,197.833 177.5,197.5C 177.5,196.833 177.5,196.167 177.5,195.5 Z"/></g>
<g><path style="opacity:0.93" fill="#241a16" d="M 131.5,195.5 C 132.167,195.5 132.833,195.5 133.5,195.5C 137.018,200.263 141.018,204.597 145.5,208.5C 148.65,212.119 151.316,216.119 153.5,220.5C 152.041,220.433 150.708,220.766 149.5,221.5C 149.975,218.687 148.975,216.687 146.5,215.5C 144.745,213.012 142.745,210.678 140.5,208.5C 139.189,205.189 136.855,202.855 133.5,201.5C 132.211,200.363 131.211,199.03 130.5,197.5C 131.338,197.158 131.672,196.492 131.5,195.5 Z"/></g>
<g><path style="opacity:0.937" fill="#a56246" d="M 235.5,190.5 C 235.097,193.486 234.097,196.152 232.5,198.5C 232.5,197.5 232.5,196.5 232.5,195.5C 232.777,193.272 233.777,191.605 235.5,190.5 Z"/></g>
<g><path style="opacity:1" fill="#c7673d" d="M 177.5,197.5 C 178.167,197.833 178.833,198.167 179.5,198.5C 182.185,201.19 184.518,204.19 186.5,207.5C 186.5,207.833 186.5,208.167 186.5,208.5C 185.833,208.5 185.167,208.5 184.5,208.5C 182.409,204.645 180.076,200.979 177.5,197.5 Z"/></g>
<g><path style="opacity:0.996" fill="#b06341" d="M 266.5,192.5 C 267.657,195.273 268.324,198.273 268.5,201.5C 268.167,201.5 267.833,201.5 267.5,201.5C 266.596,200.791 266.263,199.791 266.5,198.5C 266.5,196.5 266.5,194.5 266.5,192.5 Z"/></g>
<g><path style="opacity:0.923" fill="#844d36" d="M 78.5,189.5 C 80.1745,192.507 80.8412,195.84 80.5,199.5C 80.5523,206.206 80.0523,212.872 79,219.5C 78.7216,220.416 78.2216,221.082 77.5,221.5C 79.3862,210.872 79.7196,200.205 78.5,189.5 Z"/></g>
<g><path style="opacity:0.839" fill="#7c5341" d="M 100.5,216.5 C 100.5,214.833 100.5,213.167 100.5,211.5C 101.833,206.167 101.833,200.833 100.5,195.5C 100.281,194.325 100.614,193.325 101.5,192.5C 102.665,200.145 102.831,207.812 102,215.5C 101.617,216.056 101.117,216.389 100.5,216.5 Z"/></g>
<g><path style="opacity:0.988" fill="#9c5c42" d="M 130.5,197.5 C 131.211,199.03 132.211,200.363 133.5,201.5C 131.289,200.963 129.289,199.963 127.5,198.5C 123.812,201.521 120.479,204.854 117.5,208.5C 117.709,207.078 118.209,205.745 119,204.5C 121.54,202.295 123.707,199.795 125.5,197C 127.265,196.36 128.932,196.527 130.5,197.5 Z"/></g>
<g><path style="opacity:1" fill="#c4663d" d="M 133.5,195.5 C 133.833,195.5 134.167,195.5 134.5,195.5C 137.802,198.967 141.302,202.3 145,205.5C 145.483,206.448 145.649,207.448 145.5,208.5C 141.018,204.597 137.018,200.263 133.5,195.5 Z"/></g>
<g><path style="opacity:0.969" fill="#804c37" d="M 193.5,196.5 C 193.245,198.967 192.245,200.967 190.5,202.5C 190.755,200.033 191.755,198.033 193.5,196.5 Z"/></g>
<g><path style="opacity:0.992" fill="#9c593c" d="M 133.5,201.5 C 136.855,202.855 139.189,205.189 140.5,208.5C 137.758,206.425 135.424,204.091 133.5,201.5 Z"/></g>
<g><path style="opacity:0.98" fill="#b96846" d="M 232.5,198.5 C 232.371,200.216 232.038,201.883 231.5,203.5C 230.833,203.833 230.167,204.167 229.5,204.5C 229.621,201.895 230.621,199.895 232.5,198.5 Z"/></g>
<g><path style="opacity:1" fill="#c77858" d="M 100.5,195.5 C 101.833,200.833 101.833,206.167 100.5,211.5C 100.5,209.167 100.5,206.833 100.5,204.5C 99.1667,204.5 97.8333,204.5 96.5,204.5C 96.5,202.167 96.5,199.833 96.5,197.5C 99.2506,205.48 100.584,204.813 100.5,195.5 Z"/></g>
<g><path style="opacity:0.914" fill="#633d2d" d="M 249.5,198.5 C 249.296,201.518 248.963,204.518 248.5,207.5C 248.5,207.833 248.5,208.167 248.5,208.5C 247.833,208.833 247.167,209.167 246.5,209.5C 247.134,205.627 248.134,201.961 249.5,198.5 Z"/></g>
<g><path style="opacity:0.864" fill="#4c2413" d="M 269.5,202.5 C 270.657,210.656 270.823,218.99 270,227.5C 269.722,228.416 269.222,229.082 268.5,229.5C 269.383,220.533 269.716,211.533 269.5,202.5 Z"/></g>
<g><path style="opacity:0.984" fill="#794632" d="M 190.5,202.5 C 190.5,203.167 190.5,203.833 190.5,204.5C 189.566,205.568 189.232,206.901 189.5,208.5C 188.596,209.209 188.263,210.209 188.5,211.5C 187.094,211.027 186.427,210.027 186.5,208.5C 186.5,208.167 186.5,207.833 186.5,207.5C 187.593,205.651 188.926,203.984 190.5,202.5 Z"/></g>
<g><path style="opacity:0.78" fill="#4c3228" d="M 231.5,203.5 C 231.408,205.848 230.408,207.514 228.5,208.5C 228.557,207.391 228.89,206.391 229.5,205.5C 229.5,205.167 229.5,204.833 229.5,204.5C 230.167,204.167 230.833,203.833 231.5,203.5 Z"/></g>
<g><path style="opacity:1" fill="#e46121" d="M 133.5,201.5 C 135.424,204.091 137.758,206.425 140.5,208.5C 142.745,210.678 144.745,213.012 146.5,215.5C 146.92,217.094 147.586,218.594 148.5,220C 148.022,221.642 147.022,222.809 145.5,223.5C 140.712,222.172 135.546,221.505 130,221.5C 124.833,221.667 119.667,221.833 114.5,222C 113.956,222.717 113.289,223.217 112.5,223.5C 113.377,218.116 115.043,213.116 117.5,208.5C 120.479,204.854 123.812,201.521 127.5,198.5C 129.289,199.963 131.289,200.963 133.5,201.5 Z"/></g>
<g><path style="opacity:1" fill="#e36020" d="M 145.5,208.5 C 158.35,208.564 171.35,208.564 184.5,208.5C 185.167,208.5 185.833,208.5 186.5,208.5C 186.427,210.027 187.094,211.027 188.5,211.5C 189.401,212.29 190.068,213.29 190.5,214.5C 190.025,217.313 191.025,219.313 193.5,220.5C 193.5,220.833 193.5,221.167 193.5,221.5C 181.162,221.333 168.829,221.5 156.5,222C 157.464,223.725 158.131,225.559 158.5,227.5C 157.833,227.167 157.167,226.833 156.5,226.5C 156.385,224.053 155.385,222.053 153.5,220.5C 151.316,216.119 148.65,212.119 145.5,208.5 Z"/></g>
<g><path style="opacity:1" fill="#e36021" d="M 190.5,204.5 C 190.231,206.429 190.731,208.095 192,209.5C 203.419,208.512 214.919,208.179 226.5,208.5C 226.5,209.5 226.5,210.5 226.5,211.5C 225.89,212.391 225.557,213.391 225.5,214.5C 223.554,215.035 222.554,216.368 222.5,218.5C 218.872,221.727 216.205,225.727 214.5,230.5C 212.5,231.833 210.833,233.5 209.5,235.5C 208.167,235.833 206.833,236.167 205.5,236.5C 204.5,236.167 203.833,235.5 203.5,234.5C 203.443,233.391 203.11,232.391 202.5,231.5C 202.25,229.326 201.25,227.659 199.5,226.5C 199.5,226.167 199.5,225.833 199.5,225.5C 199.573,223.973 198.906,222.973 197.5,222.5C 196.833,220.833 196.167,219.167 195.5,217.5C 195.408,215.152 194.408,213.486 192.5,212.5C 191.5,211.167 190.5,209.833 189.5,208.5C 189.232,206.901 189.566,205.568 190.5,204.5 Z"/></g>
<g><path style="opacity:1" fill="#e5621e" d="M 266.5,198.5 C 266.263,199.791 266.596,200.791 267.5,201.5C 267.5,208.167 267.5,214.833 267.5,221.5C 259.5,221.5 251.5,221.5 243.5,221.5C 244.341,219.621 244.675,217.621 244.5,215.5C 245.167,215.5 245.5,215.167 245.5,214.5C 247.379,213.105 248.379,211.105 248.5,208.5C 248.5,208.167 248.5,207.833 248.5,207.5C 249.117,207.389 249.617,207.056 250,206.5C 250.42,202.809 250.92,199.142 251.5,195.5C 257.039,194.779 262.039,195.779 266.5,198.5 Z"/></g>
<g><path style="opacity:0.984" fill="#c16745" d="M 229.5,205.5 C 228.89,206.391 228.557,207.391 228.5,208.5C 228.068,209.71 227.401,210.71 226.5,211.5C 226.5,210.5 226.5,209.5 226.5,208.5C 227.1,207.1 228.1,206.1 229.5,205.5 Z"/></g>
<g><path style="opacity:0.992" fill="#442c24" d="M 189.5,208.5 C 190.5,209.833 191.5,211.167 192.5,212.5C 192.75,214.674 193.75,216.341 195.5,217.5C 196.167,219.167 196.833,220.833 197.5,222.5C 197.427,224.027 198.094,225.027 199.5,225.5C 199.5,225.833 199.5,226.167 199.5,226.5C 199.75,228.674 200.75,230.341 202.5,231.5C 203.11,232.391 203.443,233.391 203.5,234.5C 202.542,234.047 201.708,233.381 201,232.5C 200.517,233.448 200.351,234.448 200.5,235.5C 199.558,232.345 198.224,229.345 196.5,226.5C 196.245,224.033 195.245,222.033 193.5,220.5C 193.245,218.033 192.245,216.033 190.5,214.5C 190.068,213.29 189.401,212.29 188.5,211.5C 188.263,210.209 188.596,209.209 189.5,208.5 Z"/></g>
<g><path style="opacity:1" fill="#bc6646" d="M 192.5,212.5 C 194.408,213.486 195.408,215.152 195.5,217.5C 193.75,216.341 192.75,214.674 192.5,212.5 Z"/></g>
<g><path style="opacity:1" fill="#c36541" d="M 248.5,208.5 C 248.379,211.105 247.379,213.105 245.5,214.5C 246.301,212.958 246.634,211.292 246.5,209.5C 247.167,209.167 247.833,208.833 248.5,208.5 Z"/></g>
<g><path style="opacity:0.965" fill="#a55f47" d="M 225.5,214.5 C 224.974,216.23 223.974,217.564 222.5,218.5C 222.554,216.368 223.554,215.035 225.5,214.5 Z"/></g>
<g><path style="opacity:1" fill="#c2623d" d="M 190.5,214.5 C 192.245,216.033 193.245,218.033 193.5,220.5C 191.025,219.313 190.025,217.313 190.5,214.5 Z"/></g>
<g><path style="opacity:0.965" fill="#9d573f" d="M 117.5,208.5 C 115.043,213.116 113.377,218.116 112.5,223.5C 112.843,225.483 112.176,226.817 110.5,227.5C 110.296,220.101 112.629,213.768 117.5,208.5 Z"/></g>
<g><path style="opacity:0.346" fill="#080504" d="M 153.5,220.5 C 155.385,222.053 156.385,224.053 156.5,226.5C 159.334,232.51 161.168,238.844 162,245.5C 162.383,246.056 162.883,246.389 163.5,246.5C 164.655,252.832 164.655,259.166 163.5,265.5C 162.583,264.873 161.583,264.539 160.5,264.5C 160.167,264.5 159.833,264.5 159.5,264.5C 159.027,263.094 158.027,262.427 156.5,262.5C 152.183,259.848 148.516,256.515 145.5,252.5C 145.5,251.167 144.833,250.5 143.5,250.5C 142.725,245.203 142.392,239.87 142.5,234.5C 143.038,232.883 143.371,231.216 143.5,229.5C 145.488,226.872 147.488,224.205 149.5,221.5C 150.708,220.766 152.041,220.433 153.5,220.5 Z"/></g>
<g><path style="opacity:1" fill="#e35e20" d="M 94.5,195.5 C 94.8417,196.338 95.5084,196.672 96.5,196.5C 96.5,196.833 96.5,197.167 96.5,197.5C 96.5,199.833 96.5,202.167 96.5,204.5C 97.8333,204.5 99.1667,204.5 100.5,204.5C 100.5,206.833 100.5,209.167 100.5,211.5C 100.5,213.167 100.5,214.833 100.5,216.5C 100.5,217.167 100.5,217.833 100.5,218.5C 99.0244,223.066 98.0244,227.733 97.5,232.5C 89.7237,234.198 81.7237,235.198 73.5,235.5C 73.8333,234.167 74.1667,232.833 74.5,231.5C 76.6928,229.478 77.6928,226.811 77.5,223.5C 77.5,222.833 77.5,222.167 77.5,221.5C 78.2216,221.082 78.7216,220.416 79,219.5C 80.0523,212.872 80.5523,206.206 80.5,199.5C 81.1174,199.611 81.6174,199.944 82,200.5C 82.49,199.207 82.6567,197.873 82.5,196.5C 86.6002,196.763 90.6002,196.43 94.5,195.5 Z"/></g>
<g><path style="opacity:1" fill="#e35a1e" d="M 193.5,221.5 C 193.273,223.933 194.273,225.599 196.5,226.5C 196.833,229.167 197.167,231.833 197.5,234.5C 185.42,234.812 173.42,234.479 161.5,233.5C 159.912,231.887 158.912,229.887 158.5,227.5C 158.131,225.559 157.464,223.725 156.5,222C 168.829,221.5 181.162,221.333 193.5,221.5 Z"/></g>
<g><path style="opacity:0.898" fill="#6d4234" d="M 77.5,221.5 C 77.5,222.167 77.5,222.833 77.5,223.5C 76.8333,224.5 76.1667,225.5 75.5,226.5C 75.1201,224.302 75.7868,222.635 77.5,221.5 Z"/></g>
<g><path style="opacity:0.973" fill="#a15940" d="M 222.5,218.5 C 220.327,222.852 217.66,226.852 214.5,230.5C 216.205,225.727 218.872,221.727 222.5,218.5 Z"/></g>
<g><path style="opacity:0.992" fill="#a95c42" d="M 244.5,215.5 C 244.675,217.621 244.341,219.621 243.5,221.5C 240.878,223.782 238.212,226.115 235.5,228.5C 238.749,224.333 241.749,219.999 244.5,215.5 Z"/></g>
<g><path style="opacity:1" fill="#be6141" d="M 193.5,220.5 C 195.245,222.033 196.245,224.033 196.5,226.5C 194.273,225.599 193.273,223.933 193.5,221.5C 193.5,221.167 193.5,220.833 193.5,220.5 Z"/></g>
<g><path style="opacity:1" fill="#b46a52" d="M 197.5,222.5 C 198.906,222.973 199.573,223.973 199.5,225.5C 198.094,225.027 197.427,224.027 197.5,222.5 Z"/></g>
<g><path style="opacity:0.973" fill="#a85b42" d="M 146.5,215.5 C 148.975,216.687 149.975,218.687 149.5,221.5C 147.488,224.205 145.488,226.872 143.5,229.5C 144.167,227.5 144.833,225.5 145.5,223.5C 147.022,222.809 148.022,221.642 148.5,220C 147.586,218.594 146.92,217.094 146.5,215.5 Z"/></g>
<g><path style="opacity:0.996" fill="#ad6048" d="M 199.5,226.5 C 201.25,227.659 202.25,229.326 202.5,231.5C 200.75,230.341 199.75,228.674 199.5,226.5 Z"/></g>
<g><path style="opacity:1" fill="#ce6a49" d="M 77.5,223.5 C 77.6928,226.811 76.6928,229.478 74.5,231.5C 74.6287,229.784 74.962,228.117 75.5,226.5C 76.1667,225.5 76.8333,224.5 77.5,223.5 Z"/></g>
<g><path style="opacity:0.988" fill="#935340" d="M 235.5,228.5 C 233.451,231.55 230.784,233.883 227.5,235.5C 229.523,232.48 232.19,230.146 235.5,228.5 Z"/></g>
<g><path style="opacity:1" fill="#e0561f" d="M 145.5,223.5 C 144.833,225.5 144.167,227.5 143.5,229.5C 143.371,231.216 143.038,232.883 142.5,234.5C 141.223,235.694 140.556,237.36 140.5,239.5C 140.694,243.27 141.36,246.937 142.5,250.5C 132.773,249.861 123.44,250.528 114.5,252.5C 113.833,252.167 113.167,251.833 112.5,251.5C 113.055,247.988 112.388,244.988 110.5,242.5C 109.167,237.5 109.167,232.5 110.5,227.5C 112.176,226.817 112.843,225.483 112.5,223.5C 113.289,223.217 113.956,222.717 114.5,222C 119.667,221.833 124.833,221.667 130,221.5C 135.546,221.505 140.712,222.172 145.5,223.5 Z"/></g>
<g><path style="opacity:0.992" fill="#98533e" d="M 156.5,226.5 C 157.167,226.833 157.833,227.167 158.5,227.5C 158.912,229.887 159.912,231.887 161.5,233.5C 162.352,237.794 163.018,242.127 163.5,246.5C 162.883,246.389 162.383,246.056 162,245.5C 161.168,238.844 159.334,232.51 156.5,226.5 Z"/></g>
<g><path style="opacity:1" fill="#e0511f" d="M 161.5,233.5 C 173.42,234.479 185.42,234.812 197.5,234.5C 198.399,238.624 200.066,242.291 202.5,245.5C 202.322,249.122 202.989,252.456 204.5,255.5C 204.82,258.898 204.487,262.232 203.5,265.5C 200.984,266.33 198.65,267.33 196.5,268.5C 196.167,268.5 195.833,268.5 195.5,268.5C 193.167,268.5 190.833,268.5 188.5,268.5C 183.453,268.663 178.453,268.329 173.5,267.5C 170.525,267.693 168.025,266.693 166,264.5C 165.667,259.5 165.333,254.5 165,249.5C 164.768,248.263 164.268,247.263 163.5,246.5C 163.018,242.127 162.352,237.794 161.5,233.5 Z"/></g>
<g><path style="opacity:1" fill="#df551f" d="M 267.5,201.5 C 267.833,201.5 268.167,201.5 268.5,201.5C 268.5,202.167 268.833,202.5 269.5,202.5C 269.716,211.533 269.383,220.533 268.5,229.5C 268.5,230.167 268.5,230.833 268.5,231.5C 266.464,233.206 265.464,235.539 265.5,238.5C 265.5,238.833 265.5,239.167 265.5,239.5C 263.307,241.522 262.307,244.189 262.5,247.5C 261.414,247.62 260.747,248.287 260.5,249.5C 259.829,252.185 259.162,254.852 258.5,257.5C 258.5,257.833 258.5,258.167 258.5,258.5C 257.25,258.577 256.417,259.244 256,260.5C 255.501,256.514 255.334,252.514 255.5,248.5C 249.5,247.833 243.5,247.167 237.5,246.5C 237.5,245.167 237.5,243.833 237.5,242.5C 234.813,242.336 232.146,242.503 229.5,243C 228.584,243.278 227.918,243.778 227.5,244.5C 224.17,245.666 220.837,245.666 217.5,244.5C 217.863,243.817 218.196,243.15 218.5,242.5C 222.363,241.306 225.363,238.973 227.5,235.5C 230.784,233.883 233.451,231.55 235.5,228.5C 238.212,226.115 240.878,223.782 243.5,221.5C 251.5,221.5 259.5,221.5 267.5,221.5C 267.5,214.833 267.5,208.167 267.5,201.5 Z"/></g>
<g><path style="opacity:0.847" fill="#5a3529" d="M 214.5,230.5 C 213.581,233.089 211.914,235.089 209.5,236.5C 209.5,236.167 209.5,235.833 209.5,235.5C 210.833,233.5 212.5,231.833 214.5,230.5 Z"/></g>
<g><path style="opacity:1" fill="#c25d3e" d="M 196.5,226.5 C 198.224,229.345 199.558,232.345 200.5,235.5C 202.011,238.544 202.678,241.878 202.5,245.5C 200.066,242.291 198.399,238.624 197.5,234.5C 197.167,231.833 196.833,229.167 196.5,226.5 Z"/></g>
<g><path style="opacity:0.933" fill="#a46655" d="M 209.5,235.5 C 209.5,235.833 209.5,236.167 209.5,236.5C 207.998,239.022 206.665,239.022 205.5,236.5C 206.833,236.167 208.167,235.833 209.5,235.5 Z"/></g>
<g><path style="opacity:0.976" fill="#9b5641" d="M 227.5,235.5 C 225.363,238.973 222.363,241.306 218.5,242.5C 221.208,239.791 224.208,237.458 227.5,235.5 Z"/></g>
<g><path style="opacity:0.933" fill="#a35a45" d="M 268.5,231.5 C 268.448,234.346 267.448,236.68 265.5,238.5C 265.464,235.539 266.464,233.206 268.5,231.5 Z"/></g>
<g><path style="opacity:0.976" fill="#8a503f" d="M 74.5,231.5 C 74.1667,232.833 73.8333,234.167 73.5,235.5C 73.3404,237.153 72.6737,238.486 71.5,239.5C 71.3072,236.189 72.3072,233.522 74.5,231.5 Z"/></g>
<g><path style="opacity:1" fill="#be5e43" d="M 265.5,239.5 C 265.397,242.636 264.397,245.302 262.5,247.5C 262.307,244.189 263.307,241.522 265.5,239.5 Z"/></g>
<g><path style="opacity:1" fill="#c05e44" d="M 110.5,242.5 C 112.388,244.988 113.055,247.988 112.5,251.5C 110.882,248.829 110.215,245.829 110.5,242.5 Z"/></g>
<g><path style="opacity:0.992" fill="#c55f43" d="M 237.5,246.5 C 236.833,246.5 236.167,246.5 235.5,246.5C 234.082,244.692 232.082,244.025 229.5,244.5C 228.833,244.5 228.167,244.5 227.5,244.5C 227.918,243.778 228.584,243.278 229.5,243C 232.146,242.503 234.813,242.336 237.5,242.5C 237.5,243.833 237.5,245.167 237.5,246.5 Z"/></g>
<g><path style="opacity:0.906" fill="#5c372c" d="M 71.5,239.5 C 71.1128,242.206 70.1128,244.539 68.5,246.5C 68.643,243.615 69.643,241.282 71.5,239.5 Z"/></g>
<g><path style="opacity:0.976" fill="#984f3b" d="M 142.5,234.5 C 142.392,239.87 142.725,245.203 143.5,250.5C 143.167,250.5 142.833,250.5 142.5,250.5C 141.36,246.937 140.694,243.27 140.5,239.5C 140.556,237.36 141.223,235.694 142.5,234.5 Z"/></g>
<g><path style="opacity:0.915" fill="#a3604f" d="M 218.5,242.5 C 218.196,243.15 217.863,243.817 217.5,244.5C 220.837,245.666 224.17,245.666 227.5,244.5C 228.167,244.5 228.833,244.5 229.5,244.5C 224.562,247.397 219.229,248.063 213.5,246.5C 214.605,244.389 216.271,243.055 218.5,242.5 Z"/></g>
<g><path style="opacity:1" fill="#e04f1e" d="M 97.5,232.5 C 97.2705,242.532 97.6039,252.532 98.5,262.5C 87.8333,261.167 77.1667,261.167 66.5,262.5C 66.8333,259.833 67.1667,257.167 67.5,254.5C 67.8333,251.833 68.1667,249.167 68.5,246.5C 70.1128,244.539 71.1128,242.206 71.5,239.5C 72.6737,238.486 73.3404,237.153 73.5,235.5C 81.7237,235.198 89.7237,234.198 97.5,232.5 Z"/></g>
<g><path style="opacity:0.992" fill="#a3503b" d="M 235.5,247.5 C 235.446,249.632 234.446,250.965 232.5,251.5C 232.554,249.368 233.554,248.035 235.5,247.5 Z"/></g>
<g><path style="opacity:0.969" fill="#a25945" d="M 100.5,218.5 C 99.5035,227.637 98.8368,236.804 98.5,246C 98.3438,251.959 99.0105,257.792 100.5,263.5C 99.8333,263.167 99.1667,262.833 98.5,262.5C 97.6039,252.532 97.2705,242.532 97.5,232.5C 98.0244,227.733 99.0244,223.066 100.5,218.5 Z"/></g>
<g><path style="opacity:0.963" fill="#5f372c" d="M 252.5,251.5 C 254.275,255.386 255.108,259.72 255,264.5C 255.852,263.429 256.685,262.429 257.5,261.5C 257.756,263.912 256.756,265.579 254.5,266.5C 253.672,261.868 253.172,257.202 253,252.5C 251.483,254.24 249.983,255.906 248.5,257.5C 248.633,254.634 249.966,252.634 252.5,251.5 Z"/></g>
<g><path style="opacity:0.984" fill="#a35643" d="M 262.5,247.5 C 262.365,251.43 261.032,254.764 258.5,257.5C 259.162,254.852 259.829,252.185 260.5,249.5C 260.747,248.287 261.414,247.62 262.5,247.5 Z"/></g>
<g><path style="opacity:0.988" fill="#af5b47" d="M 112.5,251.5 C 113.167,251.833 113.833,252.167 114.5,252.5C 114.5,253.5 114.5,254.5 114.5,255.5C 113.326,254.486 112.66,253.153 112.5,251.5 Z"/></g>
<g><path style="opacity:0.965" fill="#874b3d" d="M 202.5,245.5 C 203.117,245.611 203.617,245.944 204,246.5C 204.498,249.482 204.665,252.482 204.5,255.5C 202.989,252.456 202.322,249.122 202.5,245.5 Z"/></g>
<g><path style="opacity:0.839" fill="#714036" d="M 114.5,255.5 C 116.065,257.509 117.065,259.843 117.5,262.5C 115.552,260.68 114.552,258.346 114.5,255.5 Z"/></g>
<g><path style="opacity:0.973" fill="#a25140" d="M 248.5,257.5 C 246.471,259.858 244.471,262.192 242.5,264.5C 243.092,260.911 245.092,258.578 248.5,257.5 Z"/></g>
<g><path style="opacity:1" fill="#dd4a1f" d="M 235.5,246.5 C 236.167,246.5 236.833,246.5 237.5,246.5C 243.5,247.167 249.5,247.833 255.5,248.5C 254.5,248.5 253.5,248.5 252.5,248.5C 252.5,249.5 252.5,250.5 252.5,251.5C 249.966,252.634 248.633,254.634 248.5,257.5C 245.092,258.578 243.092,260.911 242.5,264.5C 240.224,264.756 239.057,266.09 239,268.5C 237.629,270.041 236.129,271.375 234.5,272.5C 207.499,272.618 180.332,272.284 153,271.5C 144.472,271.502 136.305,272.169 128.5,273.5C 127.833,273.5 127.167,273.5 126.5,273.5C 126.269,270.937 124.935,269.27 122.5,268.5C 120.367,266.909 118.701,264.909 117.5,262.5C 117.065,259.843 116.065,257.509 114.5,255.5C 114.5,254.5 114.5,253.5 114.5,252.5C 123.44,250.528 132.773,249.861 142.5,250.5C 142.833,250.5 143.167,250.5 143.5,250.5C 144.833,250.5 145.5,251.167 145.5,252.5C 146.886,258.214 150.552,261.548 156.5,262.5C 156.973,263.906 157.973,264.573 159.5,264.5C 159.833,264.5 160.167,264.5 160.5,264.5C 161.687,266.975 163.687,267.975 166.5,267.5C 166.611,268.117 166.944,268.617 167.5,269C 177.585,271.258 187.585,271.758 197.5,270.5C 201.56,270.515 205.56,270.015 209.5,269C 210.056,268.617 210.389,268.117 210.5,267.5C 211.167,267.5 211.833,267.5 212.5,267.5C 214.674,267.25 216.341,266.25 217.5,264.5C 219.027,264.573 220.027,263.906 220.5,262.5C 221.391,261.89 222.391,261.557 223.5,261.5C 227.5,259.5 230.5,256.5 232.5,252.5C 232.5,252.167 232.5,251.833 232.5,251.5C 234.446,250.965 235.446,249.632 235.5,247.5C 235.5,247.167 235.5,246.833 235.5,246.5 Z"/></g>
<g><path style="opacity:0.996" fill="#b15b47" d="M 145.5,252.5 C 148.516,256.515 152.183,259.848 156.5,262.5C 150.552,261.548 146.886,258.214 145.5,252.5 Z"/></g>
<g><path style="opacity:0.98" fill="#984c3a" d="M 232.5,252.5 C 230.5,256.5 227.5,259.5 223.5,261.5C 226.167,258.167 229.167,255.167 232.5,252.5 Z"/></g>
<g><path style="opacity:0.953" fill="#884738" d="M 143.5,250.5 C 144.833,250.5 145.5,251.167 145.5,252.5C 144.167,252.5 143.5,251.833 143.5,250.5 Z"/></g>
<g><path style="opacity:0.988" fill="#ae5947" d="M 67.5,254.5 C 67.1667,257.167 66.8333,259.833 66.5,262.5C 66.8432,264.483 66.1765,265.817 64.5,266.5C 64.6361,263.65 64.9695,260.817 65.5,258C 65.6083,256.319 66.2749,255.152 67.5,254.5 Z"/></g>
<g><path style="opacity:0.973" fill="#9c5444" d="M 163.5,246.5 C 164.268,247.263 164.768,248.263 165,249.5C 165.333,254.5 165.667,259.5 166,264.5C 168.025,266.693 170.525,267.693 173.5,267.5C 171.312,268.623 168.979,268.623 166.5,267.5C 163.687,267.975 161.687,266.975 160.5,264.5C 161.583,264.539 162.583,264.873 163.5,265.5C 164.655,259.166 164.655,252.832 163.5,246.5 Z"/></g>
<g><path style="opacity:0.882" fill="#ae5741" d="M 255.5,248.5 C 255.334,252.514 255.501,256.514 256,260.5C 256.417,259.244 257.25,258.577 258.5,258.5C 257.89,259.391 257.557,260.391 257.5,261.5C 256.685,262.429 255.852,263.429 255,264.5C 255.108,259.72 254.275,255.386 252.5,251.5C 252.5,250.5 252.5,249.5 252.5,248.5C 253.5,248.5 254.5,248.5 255.5,248.5 Z"/></g>
<g><path style="opacity:0.969" fill="#914b3d" d="M 156.5,262.5 C 158.027,262.427 159.027,263.094 159.5,264.5C 157.973,264.573 156.973,263.906 156.5,262.5 Z"/></g>
<g><path style="opacity:0.965" fill="#784e45" d="M 220.5,262.5 C 220.027,263.906 219.027,264.573 217.5,264.5C 217.973,263.094 218.973,262.427 220.5,262.5 Z"/></g>
<g><path style="opacity:0.973" fill="#985547" d="M 204.5,255.5 C 205.808,259.019 205.808,262.685 204.5,266.5C 201.979,267.785 199.313,268.452 196.5,268.5C 198.65,267.33 200.984,266.33 203.5,265.5C 204.487,262.232 204.82,258.898 204.5,255.5 Z"/></g>
<g><path style="opacity:0.988" fill="#a05748" d="M 217.5,264.5 C 216.341,266.25 214.674,267.25 212.5,267.5C 213.486,265.592 215.152,264.592 217.5,264.5 Z"/></g>
<g><path style="opacity:0.976" fill="#984e41" d="M 100.5,264.5 C 102.493,268.122 104.493,271.789 106.5,275.5C 102.254,273.119 100.254,269.453 100.5,264.5 Z"/></g>
<g><path style="opacity:1" fill="#c66b59" d="M 166.5,267.5 C 168.979,268.623 171.312,268.623 173.5,267.5C 178.453,268.329 183.453,268.663 188.5,268.5C 190.988,270.388 193.988,271.055 197.5,270.5C 187.585,271.758 177.585,271.258 167.5,269C 166.944,268.617 166.611,268.117 166.5,267.5 Z"/></g>
<g><path style="opacity:1" fill="#8a493c" d="M 210.5,267.5 C 210.389,268.117 210.056,268.617 209.5,269C 205.56,270.015 201.56,270.515 197.5,270.5C 193.988,271.055 190.988,270.388 188.5,268.5C 190.833,268.5 193.167,268.5 195.5,268.5C 200.413,269.42 205.413,269.087 210.5,267.5 Z"/></g>
<g><path style="opacity:0.988" fill="#a95140" d="M 122.5,268.5 C 124.935,269.27 126.269,270.937 126.5,273.5C 124.413,272.415 123.08,270.749 122.5,268.5 Z"/></g>
<g><path style="opacity:1" fill="#db441e" d="M 98.5,262.5 C 99.1667,262.833 99.8333,263.167 100.5,263.5C 100.5,263.833 100.5,264.167 100.5,264.5C 100.254,269.453 102.254,273.119 106.5,275.5C 106.833,278.5 108.5,280.167 111.5,280.5C 113.046,282.931 115.379,284.264 118.5,284.5C 118.5,284.833 118.5,285.167 118.5,285.5C 107.686,284.251 97.0193,284.251 86.5,285.5C 84.6689,282.512 83.5023,279.179 83,275.5C 81.9887,274.663 80.8221,274.33 79.5,274.5C 79.5,275.5 79.5,276.5 79.5,277.5C 78.6554,278.671 77.9887,280.005 77.5,281.5C 76.6753,285.647 76.1753,289.981 76,294.5C 73.9663,293.279 72.133,291.945 70.5,290.5C 70.2503,288.326 69.2503,286.659 67.5,285.5C 67.5,285.167 67.5,284.833 67.5,284.5C 66.4887,281.06 65.4887,277.726 64.5,274.5C 64.5,271.833 64.5,269.167 64.5,266.5C 66.1765,265.817 66.8432,264.483 66.5,262.5C 77.1667,261.167 87.8333,261.167 98.5,262.5 Z"/></g>
<g><path style="opacity:1" fill="#dc401d" d="M 234.5,272.5 C 234.489,274.017 233.823,275.184 232.5,276C 230.286,277.273 227.953,278.273 225.5,279C 224.619,279.708 223.953,280.542 223.5,281.5C 215.042,285.701 206.709,290.034 198.5,294.5C 197.833,294.5 197.167,294.5 196.5,294.5C 186.831,295.778 177.164,295.778 167.5,294.5C 167.167,294.5 166.833,294.5 166.5,294.5C 160.616,292.758 154.616,290.591 148.5,288C 142.945,284.271 137.279,280.771 131.5,277.5C 130.5,276.167 129.5,274.833 128.5,273.5C 136.305,272.169 144.472,271.502 153,271.5C 180.332,272.284 207.499,272.618 234.5,272.5 Z"/></g>
<g><path style="opacity:0.992" fill="#a44a38" d="M 126.5,273.5 C 127.167,273.5 127.833,273.5 128.5,273.5C 129.5,274.833 130.5,276.167 131.5,277.5C 129.251,276.92 127.585,275.587 126.5,273.5 Z"/></g>
<g><path style="opacity:0.953" fill="#9c4e40" d="M 242.5,264.5 C 238.936,273.324 232.603,278.991 223.5,281.5C 223.953,280.542 224.619,279.708 225.5,279C 227.953,278.273 230.286,277.273 232.5,276C 233.823,275.184 234.489,274.017 234.5,272.5C 236.129,271.375 237.629,270.041 239,268.5C 239.057,266.09 240.224,264.756 242.5,264.5 Z"/></g>
<g><path style="opacity:1" fill="#be5644" d="M 86.5,285.5 C 86.5172,287.565 86.8505,289.565 87.5,291.5C 86.5028,291.53 85.8361,291.03 85.5,290C 84.1939,284.998 82.5272,280.832 80.5,277.5C 80.1667,277.5 79.8333,277.5 79.5,277.5C 79.5,276.5 79.5,275.5 79.5,274.5C 80.8221,274.33 81.9887,274.663 83,275.5C 83.5023,279.179 84.6689,282.512 86.5,285.5 Z"/></g>
<g><path style="opacity:0.937" fill="#894d42" d="M 64.5,274.5 C 65.4887,277.726 66.4887,281.06 67.5,284.5C 66.4138,284.38 65.7472,283.713 65.5,282.5C 64.7308,279.885 64.3975,277.219 64.5,274.5 Z"/></g>
<g><path style="opacity:0.992" fill="#a44b3b" d="M 106.5,275.5 C 108.5,276.833 110.167,278.5 111.5,280.5C 108.5,280.167 106.833,278.5 106.5,275.5 Z"/></g>
<g><path style="opacity:0.992" fill="#a64d40" d="M 223.5,281.5 C 216.516,288.161 208.182,292.494 198.5,294.5C 206.709,290.034 215.042,285.701 223.5,281.5 Z"/></g>
<g><path style="opacity:0.933" fill="#8e463a" d="M 111.5,280.5 C 114.132,281.472 116.465,282.805 118.5,284.5C 115.379,284.264 113.046,282.931 111.5,280.5 Z"/></g>
<g><path style="opacity:0.976" fill="#a34637" d="M 118.5,284.5 C 120.848,284.592 122.514,285.592 123.5,287.5C 121.597,287.204 119.93,286.537 118.5,285.5C 118.5,285.167 118.5,284.833 118.5,284.5 Z"/></g>
<g><path style="opacity:0.996" fill="#af5041" d="M 131.5,277.5 C 137.279,280.771 142.945,284.271 148.5,288C 154.616,290.591 160.616,292.758 166.5,294.5C 155.6,292.924 145.6,289.09 136.5,283C 134.314,281.588 132.648,279.755 131.5,277.5 Z"/></g>
<g><path style="opacity:0.957" fill="#944f46" d="M 67.5,285.5 C 69.2503,286.659 70.2503,288.326 70.5,290.5C 68.5923,289.514 67.5923,287.848 67.5,285.5 Z"/></g>
<g><path style="opacity:0.992" fill="#9a564c" d="M 125.5,287.5 C 130.181,289.05 134.848,290.383 139.5,291.5C 135.731,291.756 132.064,291.423 128.5,290.5C 126.5,290.5 125.5,289.5 125.5,287.5 Z"/></g>
<g><path style="opacity:1" fill="#c35140" d="M 128.5,290.5 C 132.064,291.423 135.731,291.756 139.5,291.5C 142.877,291.068 145.877,291.735 148.5,293.5C 143.826,293.333 139.159,292.999 134.5,292.5C 132.048,292.461 130.048,291.794 128.5,290.5 Z"/></g>
<g><path style="opacity:0.949" fill="#a3584d" d="M 79.5,277.5 C 79.8333,277.5 80.1667,277.5 80.5,277.5C 79.9101,278.766 79.4101,280.099 79,281.5C 78.6667,287.5 78.3333,293.5 78,299.5C 76.2417,297.917 74.7417,296.25 73.5,294.5C 74.7206,295.028 75.8873,295.695 77,296.5C 77.4993,291.511 77.6659,286.511 77.5,281.5C 77.9887,280.005 78.6554,278.671 79.5,277.5 Z"/></g>
<g><path style="opacity:0.992" fill="#cd4c38" d="M 77.5,281.5 C 77.6659,286.511 77.4993,291.511 77,296.5C 75.8873,295.695 74.7206,295.028 73.5,294.5C 72.0256,293.564 71.0256,292.23 70.5,290.5C 72.133,291.945 73.9663,293.279 76,294.5C 76.1753,289.981 76.6753,285.647 77.5,281.5 Z"/></g>
<g><path style="opacity:0.973" fill="#a95044" d="M 87.5,291.5 C 89.4077,292.486 90.4077,294.152 90.5,296.5C 88.5923,295.514 87.5923,293.848 87.5,291.5 Z"/></g>
<g><path style="opacity:0.988" fill="#8a4339" d="M 167.5,294.5 C 177.164,295.778 186.831,295.778 196.5,294.5C 195.737,295.268 194.737,295.768 193.5,296C 185.167,296.667 176.833,296.667 168.5,296C 167.944,295.617 167.611,295.117 167.5,294.5 Z"/></g>
<g><path style="opacity:0.996" fill="#af5043" d="M 149.5,293.5 C 152.456,294.137 155.456,294.637 158.5,295C 160.491,295.374 162.158,296.207 163.5,297.5C 160.161,297.11 156.827,296.61 153.5,296C 151.68,295.8 150.347,294.966 149.5,293.5 Z"/></g>
<g><path style="opacity:1" fill="#d8351c" d="M 118.5,285.5 C 119.93,286.537 121.597,287.204 123.5,287.5C 124.167,287.5 124.833,287.5 125.5,287.5C 125.5,289.5 126.5,290.5 128.5,290.5C 130.048,291.794 132.048,292.461 134.5,292.5C 139.159,292.999 143.826,293.333 148.5,293.5C 148.833,293.5 149.167,293.5 149.5,293.5C 150.347,294.966 151.68,295.8 153.5,296C 156.827,296.61 160.161,297.11 163.5,297.5C 163.833,297.5 164.167,297.5 164.5,297.5C 164.918,298.222 165.584,298.722 166.5,299C 172.465,299.963 178.465,300.463 184.5,300.5C 187.469,299.671 190.469,299.505 193.5,300C 192.748,300.671 192.414,301.504 192.5,302.5C 189.353,304.313 187.353,306.98 186.5,310.5C 185.833,310.833 185.167,311.167 184.5,311.5C 181.545,313.122 178.878,315.122 176.5,317.5C 171.306,317.992 166.973,319.992 163.5,323.5C 162.5,323.5 161.5,323.5 160.5,323.5C 157.518,323.963 154.518,324.296 151.5,324.5C 148.5,324.5 145.5,324.5 142.5,324.5C 138.07,322.954 133.404,321.954 128.5,321.5C 126.194,321.007 123.861,320.674 121.5,320.5C 120.508,320.672 119.842,320.338 119.5,319.5C 116.223,317.245 112.89,314.912 109.5,312.5C 107.929,311.691 106.262,311.357 104.5,311.5C 104.5,311.167 104.5,310.833 104.5,310.5C 102.176,307.687 99.5095,305.354 96.5,303.5C 94.845,300.847 92.845,298.514 90.5,296.5C 90.4077,294.152 89.4077,292.486 87.5,291.5C 86.8505,289.565 86.5172,287.565 86.5,285.5C 97.0193,284.251 107.686,284.251 118.5,285.5 Z"/></g>
<g><path style="opacity:0.996" fill="#af4d41" d="M 90.5,296.5 C 92.845,298.514 94.845,300.847 96.5,303.5C 93.088,302.419 91.088,300.085 90.5,296.5 Z"/></g>
<g><path style="opacity:0.996" fill="#b74f42" d="M 164.5,297.5 C 168.179,297.724 171.846,298.058 175.5,298.5C 178.5,299.167 181.5,299.833 184.5,300.5C 178.465,300.463 172.465,299.963 166.5,299C 165.584,298.722 164.918,298.222 164.5,297.5 Z"/></g>
<g><path style="opacity:0.988" fill="#8e463d" d="M 192.5,302.5 C 192.414,301.504 192.748,300.671 193.5,300C 190.469,299.505 187.469,299.671 184.5,300.5C 181.5,299.833 178.5,299.167 175.5,298.5C 182.191,298.546 188.857,298.212 195.5,297.5C 195.741,300.034 194.741,301.7 192.5,302.5 Z"/></g>
<g><path style="opacity:1" fill="#bf5348" d="M 96.5,303.5 C 99.5095,305.354 102.176,307.687 104.5,310.5C 100.993,309.087 98.3266,306.754 96.5,303.5 Z"/></g>
<g><path style="opacity:0.969" fill="#ac4e45" d="M 192.5,302.5 C 190.878,305.455 188.878,308.122 186.5,310.5C 187.353,306.98 189.353,304.313 192.5,302.5 Z"/></g>
<g><path style="opacity:1" fill="#a84a42" d="M 104.5,311.5 C 106.262,311.357 107.929,311.691 109.5,312.5C 112.89,314.912 116.223,317.245 119.5,319.5C 113.911,317.968 108.911,315.301 104.5,311.5 Z"/></g>
<g><path style="opacity:0.98" fill="#b25149" d="M 184.5,311.5 C 182.687,314.647 180.02,316.647 176.5,317.5C 178.878,315.122 181.545,313.122 184.5,311.5 Z"/></g>
<g><path style="opacity:0.941" fill="#7a3a35" d="M 121.5,320.5 C 123.861,320.674 126.194,321.007 128.5,321.5C 128.5,321.833 128.5,322.167 128.5,322.5C 126.473,322.662 124.473,322.495 122.5,322C 121.944,321.617 121.611,321.117 121.5,320.5 Z"/></g>
<g><path style="opacity:1" fill="#c7483f" d="M 128.5,321.5 C 133.404,321.954 138.07,322.954 142.5,324.5C 139.482,324.296 136.482,323.963 133.5,323.5C 131.585,323.784 129.919,323.451 128.5,322.5C 128.5,322.167 128.5,321.833 128.5,321.5 Z"/></g>
<g><path style="opacity:0.953" fill="#ad4840" d="M 176.5,317.5 C 175.942,318.79 174.942,319.623 173.5,320C 170.252,321.46 166.919,322.626 163.5,323.5C 166.973,319.992 171.306,317.992 176.5,317.5 Z"/></g>
<g><path style="opacity:0.914" fill="#7d3832" d="M 133.5,323.5 C 136.482,323.963 139.482,324.296 142.5,324.5C 145.5,324.5 148.5,324.5 151.5,324.5C 151.5,324.833 151.5,325.167 151.5,325.5C 145.824,325.666 140.157,325.499 134.5,325C 133.944,324.617 133.611,324.117 133.5,323.5 Z"/></g>
<g><path style="opacity:0.886" fill="#7b433f" d="M 160.5,323.5 C 158.012,325.388 155.012,326.055 151.5,325.5C 151.5,325.167 151.5,324.833 151.5,324.5C 154.518,324.296 157.518,323.963 160.5,323.5 Z"/></g>
</svg>
