<?xml version="1.0" encoding="UTF-8"?>
<!DOCTYPE svg PUBLIC "-//W3C//DTD SVG 1.1//EN" "http://www.w3.org/Graphics/SVG/1.1/DTD/svg11.dtd">
<svg xmlns="http://www.w3.org/2000/svg" version="1.1" width="100%" viewBox="0 0 356 356" style="shape-rendering:geometricPrecision; text-rendering:geometricPrecision; image-rendering:optimizeQuality; fill-rule:evenodd; clip-rule:evenodd" xmlns:xlink="http://www.w3.org/1999/xlink">
<g><path style="opacity:0.01" fill="#000000" d="M 355.5,247.5 C 355.5,248.833 355.5,250.167 355.5,251.5C 352.783,265.714 344.116,271.881 329.5,270C 319.941,266.924 310.607,263.258 301.5,259C 277.746,246.629 253.746,234.629 229.5,223C 227.5,222.333 225.5,222.333 223.5,223C 222.171,230.573 220.337,238.073 218,245.5C 216,248.833 214,252.167 212,255.5C 212.565,264.128 209.731,271.295 203.5,277C 197.997,279.036 192.664,281.37 187.5,284C 178.885,287.923 170.885,286.923 163.5,281C 148.744,279.03 141.911,270.53 143,255.5C 135.963,246.029 132.296,235.362 132,223.5C 130.915,222.707 129.748,222.04 128.5,221.5C 100.47,235.014 72.4699,248.848 44.5,263C 38.3095,265.73 31.9761,268.063 25.5,270C 13.6977,271.93 5.03107,267.763 -0.5,257.5C -0.5,253.167 -0.5,248.833 -0.5,244.5C 1.70778,236.723 4.54111,229.057 8,221.5C 15.0958,210.313 21.4291,198.646 27,186.5C 37.9778,172.195 48.1444,157.361 57.5,142C 61.7034,137.729 66.7034,134.729 72.5,133C 83.9302,132.957 95.2635,132.29 106.5,131C 112.478,120.916 120.978,113.749 132,109.5C 132.445,103.832 134.278,98.665 137.5,94C 141.609,90.6123 146.275,88.279 151.5,87C 162.113,68.1698 176.447,64.5032 194.5,76C 197.333,79.3281 199.666,82.9948 201.5,87C 213.269,89.9372 219.936,97.4372 221.5,109.5C 233.333,113.173 242.333,120.339 248.5,131C 259.737,132.29 271.07,132.957 282.5,133C 289.05,134.89 294.55,138.39 299,143.5C 307.942,157.441 317.276,171.108 327,184.5C 335,199.833 343,215.167 351,230.5C 352.581,236.276 354.081,241.942 355.5,247.5 Z"/></g>
<g><path style="opacity:0.063" fill="#272601" d="M 200.5,89.5 C 200.577,90.7498 201.244,91.5831 202.5,92C 199.758,93.0704 197.258,94.5704 195,96.5C 194.819,93.3054 194.319,90.3054 193.5,87.5C 187.934,75.4083 178.934,72.2416 166.5,78C 164.343,81.1557 161.843,83.989 159,86.5C 158.502,89.4816 158.335,92.4816 158.5,95.5C 155.757,94.6118 153.09,93.4451 150.5,92C 151.942,91.6232 152.942,90.7899 153.5,89.5C 156.021,85.6457 158.688,81.8124 161.5,78C 170.944,71.1413 180.611,70.808 190.5,77C 194.131,81.1091 197.465,85.2758 200.5,89.5 Z"/></g>
<g><path style="opacity:0.518" fill="#4f4c01" d="M 193.5,87.5 C 193.048,93.3803 193.882,99.0469 196,104.5C 196.986,103.829 198.153,103.829 199.5,104.5C 197.197,106.967 194.697,109.3 192,111.5C 191.59,112.901 191.09,114.234 190.5,115.5C 189.116,116.801 187.616,116.801 186,115.5C 186.627,111.889 186.96,108.223 187,104.5C 184.888,101.273 183.055,97.9396 181.5,94.5C 182.895,96.0544 183.561,95.721 183.5,93.5C 179.974,85.43 175.474,84.7633 170,91.5C 169.333,92.8333 169.333,94.1667 170,95.5C 170.417,94.244 171.25,93.5774 172.5,93.5C 169.503,97.913 167.17,102.746 165.5,108C 167.043,110.33 167.543,112.83 167,115.5C 165.644,116.38 164.144,116.714 162.5,116.5C 162.102,113.576 160.769,111.242 158.5,109.5C 159.583,109.539 160.583,109.873 161.5,110.5C 162.76,108.647 162.76,106.814 161.5,105C 162.167,104.667 162.833,104.333 163.5,104C 162.069,103.535 160.903,102.701 160,101.5C 159.061,96.319 159.394,91.319 161,86.5C 161.687,88.5675 161.52,90.5675 160.5,92.5C 161.123,94.7105 162.123,96.7105 163.5,98.5C 165.04,94.3848 166.874,90.3848 169,86.5C 176.227,81.447 182.394,82.7803 187.5,90.5C 188.795,89.9017 190.128,89.4017 191.5,89C 189.008,87.7508 189.175,86.5842 192,85.5C 192.278,86.4158 192.778,87.0825 193.5,87.5 Z"/></g>
<g><path style="opacity:1" fill="#0d0c02" d="M 181.5,94.5 C 178.85,88.405 175.85,88.0716 172.5,93.5C 171.25,93.5774 170.417,94.244 170,95.5C 169.333,94.1667 169.333,92.8333 170,91.5C 175.474,84.7633 179.974,85.43 183.5,93.5C 183.561,95.721 182.895,96.0544 181.5,94.5 Z"/></g>
<g><path style="opacity:0.337" fill="#444102" d="M 193.5,87.5 C 192.778,87.0825 192.278,86.4158 192,85.5C 189.175,86.5842 189.008,87.7508 191.5,89C 190.128,89.4017 188.795,89.9017 187.5,90.5C 182.394,82.7803 176.227,81.447 169,86.5C 166.874,90.3848 165.04,94.3848 163.5,98.5C 162.123,96.7105 161.123,94.7105 160.5,92.5C 161.52,90.5675 161.687,88.5675 161,86.5C 159.394,91.319 159.061,96.319 160,101.5C 160.903,102.701 162.069,103.535 163.5,104C 162.833,104.333 162.167,104.667 161.5,105C 162.76,106.814 162.76,108.647 161.5,110.5C 160.583,109.873 159.583,109.539 158.5,109.5C 147.513,99.1596 145.179,100.826 151.5,114.5C 151.5,116.167 151.5,117.833 151.5,119.5C 146.821,119.334 142.155,119.501 137.5,120C 138.572,121.284 139.905,121.617 141.5,121C 140.167,122 140.167,123 141.5,124C 140.551,124.617 139.718,124.451 139,123.5C 136.007,125.981 132.507,127.481 128.5,128C 126.938,129.634 125.271,131.134 123.5,132.5C 121.777,134.253 120.277,136.253 119,138.5C 117.495,136.702 117.328,134.868 118.5,133C 117.756,131.961 116.756,131.461 115.5,131.5C 119.111,124.661 124.777,120.161 132.5,118C 135.482,117.502 138.482,117.335 141.5,117.5C 141.046,113.634 139.712,110.134 137.5,107C 138.731,105.817 138.731,104.651 137.5,103.5C 136.83,105.291 136.163,106.958 135.5,108.5C 135.684,97.2991 141.684,90.9658 153.5,89.5C 152.942,90.7899 151.942,91.6232 150.5,92C 153.09,93.4451 155.757,94.6118 158.5,95.5C 158.335,92.4816 158.502,89.4816 159,86.5C 161.843,83.989 164.343,81.1557 166.5,78C 178.934,72.2416 187.934,75.4083 193.5,87.5 Z"/></g>
<g><path style="opacity:0.261" fill="#3c3a01" d="M 193.5,87.5 C 194.319,90.3054 194.819,93.3054 195,96.5C 197.258,94.5704 199.758,93.0704 202.5,92C 201.244,91.5831 200.577,90.7498 200.5,89.5C 211.78,91.3918 217.446,98.0584 217.5,109.5C 216.609,108.89 215.609,108.557 214.5,108.5C 214.66,106.801 214.494,105.134 214,103.5C 213.29,104.973 212.124,105.64 210.5,105.5C 210.279,108.392 209.446,111.059 208,113.5C 206.418,110.211 205.251,106.544 204.5,102.5C 202.716,102.893 201.05,103.559 199.5,104.5C 198.153,103.829 196.986,103.829 196,104.5C 193.882,99.0469 193.048,93.3803 193.5,87.5 Z"/></g>
<g><path style="opacity:0.961" fill="#a59e00" d="M 158.5,109.5 C 160.769,111.242 162.102,113.576 162.5,116.5C 159.542,115.459 156.542,115.459 153.5,116.5C 152.833,115.833 152.167,115.167 151.5,114.5C 145.179,100.826 147.513,99.1596 158.5,109.5 Z"/></g>
<g><path style="opacity:0.999" fill="#c4bb00" d="M 181.5,94.5 C 183.055,97.9396 184.888,101.273 187,104.5C 186.96,108.223 186.627,111.889 186,115.5C 187.616,116.801 189.116,116.801 190.5,115.5C 192.257,116.787 193.924,118.287 195.5,120C 194.5,120.333 193.5,120.667 192.5,121C 183.99,121.171 175.657,121.671 167.5,122.5C 163.538,123.376 159.538,124.042 155.5,124.5C 155.405,122.214 154.738,120.214 153.5,118.5C 153.5,117.833 153.5,117.167 153.5,116.5C 156.542,115.459 159.542,115.459 162.5,116.5C 164.144,116.714 165.644,116.38 167,115.5C 167.543,112.83 167.043,110.33 165.5,108C 167.17,102.746 169.503,97.913 172.5,93.5C 175.85,88.0716 178.85,88.405 181.5,94.5 Z"/></g>
<g><path style="opacity:0.989" fill="#b0a900" d="M 204.5,102.5 C 204.5,103.833 204.5,105.167 204.5,106.5C 202.321,110.203 200.655,114.203 199.5,118.5C 198.262,120.214 197.595,122.214 197.5,124.5C 187.583,122.913 177.583,122.247 167.5,122.5C 175.657,121.671 183.99,121.171 192.5,121C 193.5,120.667 194.5,120.333 195.5,120C 193.924,118.287 192.257,116.787 190.5,115.5C 191.09,114.234 191.59,112.901 192,111.5C 194.697,109.3 197.197,106.967 199.5,104.5C 201.05,103.559 202.716,102.893 204.5,102.5 Z"/></g>
<g><path style="opacity:0.974" fill="#6c6802" d="M 153.5,118.5 C 154.738,120.214 155.405,122.214 155.5,124.5C 159.538,124.042 163.538,123.376 167.5,122.5C 177.583,122.247 187.583,122.913 197.5,124.5C 197.595,122.214 198.262,120.214 199.5,118.5C 199.425,121.206 199.092,123.873 198.5,126.5C 202.514,126.334 206.514,126.501 210.5,127C 206.312,127.176 202.312,127.676 198.5,128.5C 195.72,131.064 192.72,133.397 189.5,135.5C 189.134,134.305 188.301,133.639 187,133.5C 181.025,134.789 175.191,134.789 169.5,133.5C 167.708,133.366 166.042,133.699 164.5,134.5C 163.448,134.649 162.448,134.483 161.5,134C 160.5,131.667 158.833,130 156.5,129C 149.508,128.5 142.508,128.334 135.5,128.5C 141.109,126.979 146.943,125.979 153,125.5C 153.5,125.167 154,124.833 154.5,124.5C 153.652,122.591 153.318,120.591 153.5,118.5 Z"/></g>
<g><path style="opacity:1" fill="#070601" d="M 169.5,133.5 C 169.5,130.167 169.5,126.833 169.5,123.5C 174.5,123.5 179.5,123.5 184.5,123.5C 184.5,126.833 184.5,130.167 184.5,133.5C 179.5,133.5 174.5,133.5 169.5,133.5 Z"/></g>
<g><path style="opacity:1" fill="#bbb400" d="M 169.5,133.5 C 175.191,134.789 181.025,134.789 187,133.5C 188.301,133.639 189.134,134.305 189.5,135.5C 189.5,136.833 189.5,138.167 189.5,139.5C 181.5,139.5 173.5,139.5 165.5,139.5C 164.962,137.883 164.629,136.216 164.5,134.5C 166.042,133.699 167.708,133.366 169.5,133.5 Z"/></g>
<g><path style="opacity:1" fill="#494903" d="M 150.5,139.5 C 150.5,139.833 150.5,140.167 150.5,140.5C 150.5,140.833 150.5,141.167 150.5,141.5C 147.167,141.5 143.833,141.5 140.5,141.5C 140.5,142.5 140.5,143.5 140.5,144.5C 141.791,144.263 142.791,144.596 143.5,145.5C 143.167,145.5 142.833,145.5 142.5,145.5C 141.5,145.5 140.5,145.5 139.5,145.5C 139.5,143.5 139.5,141.5 139.5,139.5C 143.167,139.5 146.833,139.5 150.5,139.5 Z"/></g>
<g><path style="opacity:1" fill="#120f02" d="M 165.5,139.5 C 173.5,139.5 181.5,139.5 189.5,139.5C 189.47,140.497 189.97,141.164 191,141.5C 193.291,142.072 195.625,142.406 198,142.5C 201.577,142.293 204.744,141.293 207.5,139.5C 209.833,139.5 212.167,139.5 214.5,139.5C 214.579,140.93 214.246,142.264 213.5,143.5C 211.369,144.169 209.369,144.835 207.5,145.5C 201.979,145.782 196.646,146.449 191.5,147.5C 175.444,147.862 159.444,147.195 143.5,145.5C 142.791,144.596 141.791,144.263 140.5,144.5C 140.5,143.5 140.5,142.5 140.5,141.5C 143.833,141.5 147.167,141.5 150.5,141.5C 152.808,141.914 155.142,142.247 157.5,142.5C 159.883,142.639 161.883,141.972 163.5,140.5C 163.842,139.662 164.508,139.328 165.5,139.5 Z"/></g>
<g><path style="opacity:1" fill="#083f02" d="M 150.5,141.5 C 150.5,141.167 150.5,140.833 150.5,140.5C 154.845,141.726 159.178,141.726 163.5,140.5C 161.883,141.972 159.883,142.639 157.5,142.5C 155.142,142.247 152.808,141.914 150.5,141.5 Z"/></g>
<g><path style="opacity:0.99" fill="#7e6c08" d="M 209.5,147.5 C 209.5,146.167 208.833,145.5 207.5,145.5C 209.369,144.835 211.369,144.169 213.5,143.5C 214.246,142.264 214.579,140.93 214.5,139.5C 212.167,139.5 209.833,139.5 207.5,139.5C 209.048,138.206 211.048,137.539 213.5,137.5C 217.302,136.876 220.302,138.043 222.5,141C 218.994,144.72 214.661,146.886 209.5,147.5 Z"/></g>
<g><path style="opacity:0.993" fill="#727803" d="M 150.5,139.5 C 146.833,139.5 143.167,139.5 139.5,139.5C 139.5,141.5 139.5,143.5 139.5,145.5C 136.951,145.559 134.951,144.559 133.5,142.5C 132.253,140.994 132.253,139.494 133.5,138C 136.333,137.833 139.167,137.667 142,137.5C 145.252,137.519 148.085,138.186 150.5,139.5 Z"/></g>
<g><path style="opacity:0.732" fill="#554f02" d="M 204.5,106.5 C 204.112,110.552 203.445,114.552 202.5,118.5C 209.142,119.331 215.809,119.831 222.5,120C 220.607,122.216 218.607,123.549 216.5,124C 228.159,125.991 234.659,132.824 236,144.5C 236.853,146.125 237.853,146.458 239,145.5C 240.552,146.966 242.386,147.966 244.5,148.5C 248.232,148.632 252.065,148.298 256,147.5C 264.154,148.183 272.32,148.683 280.5,149C 286.102,151.765 290.102,155.932 292.5,161.5C 288.309,157.474 283.976,153.641 279.5,150C 264.489,149.833 249.489,149.333 234.5,148.5C 233.756,145.557 233.256,142.557 233,139.5C 232.617,138.944 232.117,138.611 231.5,138.5C 229.41,134.916 226.41,132.082 222.5,130C 214.571,128.637 206.571,128.137 198.5,128.5C 202.312,127.676 206.312,127.176 210.5,127C 206.514,126.501 202.514,126.334 198.5,126.5C 199.092,123.873 199.425,121.206 199.5,118.5C 200.655,114.203 202.321,110.203 204.5,106.5 Z"/></g>
<g><path style="opacity:0.839" fill="#565301" d="M 151.5,114.5 C 152.167,115.167 152.833,115.833 153.5,116.5C 153.5,117.167 153.5,117.833 153.5,118.5C 153.318,120.591 153.652,122.591 154.5,124.5C 154,124.833 153.5,125.167 153,125.5C 146.943,125.979 141.109,126.979 135.5,128.5C 131.186,129.924 127.52,132.257 124.5,135.5C 123.778,135.918 123.278,136.584 123,137.5C 122.8,141.753 122.3,145.92 121.5,150C 110.172,150.5 98.8382,150.667 87.5,150.5C 82.8333,150.5 78.1667,150.5 73.5,150.5C 73.6107,149.883 73.944,149.383 74.5,149C 76.6667,148.833 78.8333,148.667 81,148.5C 92.8222,149.517 104.656,149.684 116.5,149C 118.478,148.519 119.811,147.353 120.5,145.5C 121.041,141.023 122.041,136.689 123.5,132.5C 125.271,131.134 126.938,129.634 128.5,128C 132.507,127.481 136.007,125.981 139,123.5C 139.718,124.451 140.551,124.617 141.5,124C 140.167,123 140.167,122 141.5,121C 139.905,121.617 138.572,121.284 137.5,120C 142.155,119.501 146.821,119.334 151.5,119.5C 151.5,117.833 151.5,116.167 151.5,114.5 Z"/></g>
<g><path style="opacity:1" fill="#a42225" d="M 198.5,128.5 C 206.571,128.137 214.571,128.637 222.5,130C 226.41,132.082 229.41,134.916 231.5,138.5C 231.653,144.925 228.986,149.592 223.5,152.5C 222.5,153.167 221.5,153.833 220.5,154.5C 217.219,154.42 214.219,155.087 211.5,156.5C 207.84,156.159 204.507,156.825 201.5,158.5C 200.833,158.5 200.167,158.5 199.5,158.5C 194.703,158.561 190.369,159.561 186.5,161.5C 184.236,162.219 181.903,162.552 179.5,162.5C 175.316,162.851 171.316,163.518 167.5,164.5C 162.297,164.462 157.63,165.796 153.5,168.5C 148.349,168.814 145.849,171.481 146,176.5C 148.627,177.783 151.127,179.283 153.5,181C 154.793,181.49 156.127,181.657 157.5,181.5C 157.833,181.5 158.167,181.5 158.5,181.5C 160.598,182.935 162.931,184.102 165.5,185C 164.263,185.232 163.263,185.732 162.5,186.5C 153.399,190.418 145.565,188.752 139,181.5C 135.995,174.159 137.495,167.992 143.5,163C 151.401,159.047 159.401,155.714 167.5,153C 181.614,151.96 195.614,150.126 209.5,147.5C 214.661,146.886 218.994,144.72 222.5,141C 220.302,138.043 217.302,136.876 213.5,137.5C 211.048,137.539 209.048,138.206 207.5,139.5C 204.744,141.293 201.577,142.293 198,142.5C 195.625,142.406 193.291,142.072 191,141.5C 189.97,141.164 189.47,140.497 189.5,139.5C 189.5,138.167 189.5,136.833 189.5,135.5C 192.72,133.397 195.72,131.064 198.5,128.5 Z"/></g>
<g><path style="opacity:1" fill="#346f03" d="M 198.5,130.5 C 200.635,130.147 201.968,130.98 202.5,133C 201.381,134.876 199.714,135.709 197.5,135.5C 197.366,133.708 197.699,132.042 198.5,130.5 Z"/></g>
<g><path style="opacity:1" fill="#878d00" d="M 142.5,145.5 C 142.833,145.5 143.167,145.5 143.5,145.5C 159.444,147.195 175.444,147.862 191.5,147.5C 180.674,148.33 169.674,148.83 158.5,149C 165.138,150.454 165.138,151.621 158.5,152.5C 159.263,151.732 160.263,151.232 161.5,151C 155.524,149.686 149.524,148.353 143.5,147C 142.944,146.617 142.611,146.117 142.5,145.5 Z"/></g>
<g><path style="opacity:1" fill="#177301" d="M 135.5,128.5 C 142.508,128.334 149.508,128.5 156.5,129C 158.833,130 160.5,131.667 161.5,134C 162.448,134.483 163.448,134.649 164.5,134.5C 164.629,136.216 164.962,137.883 165.5,139.5C 164.508,139.328 163.842,139.662 163.5,140.5C 159.178,141.726 154.845,141.726 150.5,140.5C 150.5,140.167 150.5,139.833 150.5,139.5C 148.085,138.186 145.252,137.519 142,137.5C 139.167,137.667 136.333,137.833 133.5,138C 132.253,139.494 132.253,140.994 133.5,142.5C 134.951,144.559 136.951,145.559 139.5,145.5C 140.5,145.5 141.5,145.5 142.5,145.5C 142.611,146.117 142.944,146.617 143.5,147C 149.524,148.353 155.524,149.686 161.5,151C 160.263,151.232 159.263,151.732 158.5,152.5C 154.07,153.42 149.737,154.754 145.5,156.5C 141.911,155.352 138.244,154.685 134.5,154.5C 131.813,152.167 128.813,150.167 125.5,148.5C 124.561,144.235 124.228,139.902 124.5,135.5C 127.52,132.257 131.186,129.924 135.5,128.5 Z"/></g>
<g><path style="opacity:1" fill="#8d3317" d="M 153.5,130.5 C 156.757,130.174 158.257,131.507 158,134.5C 153.8,135.997 152.3,134.664 153.5,130.5 Z"/></g>
<g><path style="opacity:0.959" fill="#7e5812" d="M 73.5,151.5 C 73.5,151.167 73.5,150.833 73.5,150.5C 78.1667,150.5 82.8333,150.5 87.5,150.5C 98.7046,150.841 109.705,151.841 120.5,153.5C 104.849,152.65 89.1823,151.983 73.5,151.5 Z"/></g>
<g><path style="opacity:1" fill="#0e7200" d="M 295.5,172.5 C 294.036,173.16 292.369,173.493 290.5,173.5C 284.416,172.596 278.416,171.263 272.5,169.5C 263.171,168.716 253.838,168.049 244.5,167.5C 244.5,166.5 244.5,165.5 244.5,164.5C 239.155,164.313 233.822,163.98 228.5,163.5C 228.722,160.61 228.055,157.943 226.5,155.5C 231.333,154.657 236,153.657 240.5,152.5C 253.868,152.212 267.202,152.212 280.5,152.5C 286.311,158.633 291.311,165.3 295.5,172.5 Z"/></g>
<g><path style="opacity:1" fill="#a21d25" d="M 73.5,151.5 C 89.1823,151.983 104.849,152.65 120.5,153.5C 123.305,154.319 126.305,154.819 129.5,155C 127.396,157.042 126.229,159.542 126,162.5C 121.31,163.941 116.477,164.608 111.5,164.5C 111.5,165.5 111.5,166.5 111.5,167.5C 100.498,168.417 89.4977,169.417 78.5,170.5C 72.3405,172.702 66.0072,174.035 59.5,174.5C 60.3195,172.188 61.1529,169.854 62,167.5C 66.496,163.13 69.996,158.13 72.5,152.5C 72.5,151.833 72.8333,151.5 73.5,151.5 Z"/></g>
<g><path style="opacity:0.965" fill="#756907" d="M 124.5,135.5 C 124.228,139.902 124.561,144.235 125.5,148.5C 128.813,150.167 131.813,152.167 134.5,154.5C 127.216,168.253 128.216,181.253 137.5,193.5C 136.778,193.918 136.278,194.584 136,195.5C 135.617,194.944 135.117,194.611 134.5,194.5C 131.614,192.549 129.614,189.883 128.5,186.5C 128.411,183.216 127.078,180.716 124.5,179C 125.056,178.617 125.389,178.117 125.5,177.5C 124.643,174.451 124.643,171.451 125.5,168.5C 124.333,168.167 123.167,167.833 122,167.5C 105.531,170.884 89.0306,174.218 72.5,177.5C 72.2907,178.086 71.9574,178.586 71.5,179C 65.235,180.42 58.9017,181.254 52.5,181.5C 56.1532,179.832 60.1532,178.499 64.5,177.5C 65.7112,176.726 65.7112,175.893 64.5,175C 62.6799,175.476 61.0133,175.309 59.5,174.5C 66.0072,174.035 72.3405,172.702 78.5,170.5C 89.4977,169.417 100.498,168.417 111.5,167.5C 111.5,166.5 111.5,165.5 111.5,164.5C 116.477,164.608 121.31,163.941 126,162.5C 126.229,159.542 127.396,157.042 129.5,155C 126.305,154.819 123.305,154.319 120.5,153.5C 109.705,151.841 98.7046,150.841 87.5,150.5C 98.8382,150.667 110.172,150.5 121.5,150C 122.3,145.92 122.8,141.753 123,137.5C 123.278,136.584 123.778,135.918 124.5,135.5 Z"/></g>
<g><path style="opacity:1" fill="#c2b701" d="M 207.5,145.5 C 208.833,145.5 209.5,146.167 209.5,147.5C 195.614,150.126 181.614,151.96 167.5,153C 159.401,155.714 151.401,159.047 143.5,163C 137.495,167.992 135.995,174.159 139,181.5C 145.565,188.752 153.399,190.418 162.5,186.5C 163.5,186.5 164.5,186.5 165.5,186.5C 165.5,187.5 165.5,188.5 165.5,189.5C 159.448,190.688 153.781,192.854 148.5,196C 147.748,196.671 147.414,197.504 147.5,198.5C 146.518,199.141 145.518,199.807 144.5,200.5C 141.95,198.962 139.617,197.296 137.5,195.5C 137.5,194.833 137.5,194.167 137.5,193.5C 128.216,181.253 127.216,168.253 134.5,154.5C 138.244,154.685 141.911,155.352 145.5,156.5C 149.737,154.754 154.07,153.42 158.5,152.5C 165.138,151.621 165.138,150.454 158.5,149C 169.674,148.83 180.674,148.33 191.5,147.5C 196.646,146.449 201.979,145.782 207.5,145.5 Z"/></g>
<g><path style="opacity:1" fill="#af7a0f" d="M 211.5,156.5 C 208.373,157.581 205.04,158.247 201.5,158.5C 204.507,156.825 207.84,156.159 211.5,156.5 Z"/></g>
<g><path style="opacity:1" fill="#050401" d="M 186.5,161.5 C 186.723,168.84 187.056,176.173 187.5,183.5C 186.833,183.5 186.167,183.5 185.5,183.5C 182.161,183.89 178.827,184.39 175.5,185C 174.944,185.383 174.611,185.883 174.5,186.5C 171.833,186.833 169.167,187.167 166.5,187.5C 166.5,184.5 166.5,181.5 166.5,178.5C 167.222,178.082 167.722,177.416 168,176.5C 168.499,172.848 168.665,169.182 168.5,165.5C 171.813,164.955 175.146,164.455 178.5,164C 179.056,163.617 179.389,163.117 179.5,162.5C 181.903,162.552 184.236,162.219 186.5,161.5 Z"/></g>
<g><path style="opacity:1" fill="#530d0f" d="M 179.5,162.5 C 179.389,163.117 179.056,163.617 178.5,164C 175.146,164.455 171.813,164.955 168.5,165.5C 168.5,164.833 168.167,164.5 167.5,164.5C 171.316,163.518 175.316,162.851 179.5,162.5 Z"/></g>
<g><path style="opacity:1" fill="#c3bc00" d="M 220.5,154.5 C 221.687,155.534 222.52,156.867 223,158.5C 224.902,168.257 224.735,177.923 222.5,187.5C 219.457,188.205 217.79,190.205 217.5,193.5C 216.752,195.332 215.752,196.999 214.5,198.5C 212.716,198.893 211.05,199.559 209.5,200.5C 207.133,198.138 204.467,196.138 201.5,194.5C 197.911,195.648 194.244,196.315 190.5,196.5C 190.5,195.167 190.5,193.833 190.5,192.5C 196.533,191.014 202.533,189.181 208.5,187C 220.158,179.197 220.491,170.864 209.5,162C 188.112,161.826 187.445,164.493 207.5,170C 209.19,173.525 208.524,176.525 205.5,179C 201.655,180.735 197.655,181.901 193.5,182.5C 192.167,182.5 190.833,182.5 189.5,182.5C 188.953,175.485 188.287,168.485 187.5,161.5C 191.774,161.13 195.774,160.13 199.5,158.5C 200.167,158.5 200.833,158.5 201.5,158.5C 205.04,158.247 208.373,157.581 211.5,156.5C 214.219,155.087 217.219,154.42 220.5,154.5 Z"/></g>
<g><path style="opacity:1" fill="#bda005" d="M 167.5,164.5 C 167.806,167.385 167.473,170.052 166.5,172.5C 166.5,170.167 166.5,167.833 166.5,165.5C 162.029,165.672 161.696,166.506 165.5,168C 161.462,167.556 157.462,167.723 153.5,168.5C 157.63,165.796 162.297,164.462 167.5,164.5 Z"/></g>
<g><path style="opacity:1" fill="#cac200" d="M 166.5,172.5 C 166.5,174.5 166.5,176.5 166.5,178.5C 165.566,179.568 165.232,180.901 165.5,182.5C 163.194,182.007 160.861,181.674 158.5,181.5C 158.167,181.5 157.833,181.5 157.5,181.5C 156.097,180.069 154.431,178.902 152.5,178C 156.511,177.834 157.011,177 154,175.5C 152.644,176.38 151.144,176.714 149.5,176.5C 149.714,174.856 149.38,173.356 148.5,172C 149.955,170.374 151.622,169.208 153.5,168.5C 157.462,167.723 161.462,167.556 165.5,168C 161.696,166.506 162.029,165.672 166.5,165.5C 166.5,167.833 166.5,170.167 166.5,172.5 Z"/></g>
<g><path style="opacity:1" fill="#a29703" d="M 199.5,158.5 C 195.774,160.13 191.774,161.13 187.5,161.5C 188.287,168.485 188.953,175.485 189.5,182.5C 190.833,182.5 192.167,182.5 193.5,182.5C 191.735,183.461 189.735,183.795 187.5,183.5C 187.056,176.173 186.723,168.84 186.5,161.5C 190.369,159.561 194.703,158.561 199.5,158.5 Z"/></g>
<g><path style="opacity:0.989" fill="#727502" d="M 240.5,152.5 C 236,153.657 231.333,154.657 226.5,155.5C 228.055,157.943 228.722,160.61 228.5,163.5C 233.822,163.98 239.155,164.313 244.5,164.5C 244.5,165.5 244.5,166.5 244.5,167.5C 253.838,168.049 263.171,168.716 272.5,169.5C 278.416,171.263 284.416,172.596 290.5,173.5C 292.369,173.493 294.036,173.16 295.5,172.5C 296.338,172.842 296.672,173.508 296.5,174.5C 293.167,174.5 289.833,174.5 286.5,174.5C 286.5,175.5 286.5,176.5 286.5,177.5C 289.811,177.307 292.478,178.307 294.5,180.5C 290.865,179.886 287.198,179.552 283.5,179.5C 283.5,178.5 283.5,177.5 283.5,176.5C 279.154,176.666 274.821,176.499 270.5,176C 256.88,172.841 243.213,170.008 229.5,167.5C 228.81,171.925 229.81,175.759 232.5,179C 247.822,184.332 263.155,189.665 278.5,195C 283.484,198.773 289.151,200.773 295.5,201C 299.266,204.551 303.766,206.384 309,206.5C 311.195,209.071 314.029,210.404 317.5,210.5C 316.737,211.268 315.737,211.768 314.5,212C 316.863,214.18 319.53,215.847 322.5,217C 323.252,217.671 323.586,218.504 323.5,219.5C 292.988,206.164 262.154,193.497 231,181.5C 228.5,184.499 226,187.499 223.5,190.5C 222.85,190.196 222.183,189.863 221.5,189.5C 220.591,191.375 219.257,192.708 217.5,193.5C 217.79,190.205 219.457,188.205 222.5,187.5C 224.735,177.923 224.902,168.257 223,158.5C 222.52,156.867 221.687,155.534 220.5,154.5C 221.5,153.833 222.5,153.167 223.5,152.5C 229.102,152.02 234.769,152.02 240.5,152.5 Z"/></g>
<g><path style="opacity:1" fill="#107200" d="M 294.5,180.5 C 296.893,181.21 299.393,181.877 302,182.5C 306.795,189.099 311.295,195.765 315.5,202.5C 317.046,204.882 317.713,207.549 317.5,210.5C 314.029,210.404 311.195,209.071 309,206.5C 303.766,206.384 299.266,204.551 295.5,201C 289.151,200.773 283.484,198.773 278.5,195C 263.155,189.665 247.822,184.332 232.5,179C 229.81,175.759 228.81,171.925 229.5,167.5C 243.213,170.008 256.88,172.841 270.5,176C 274.821,176.499 279.154,176.666 283.5,176.5C 283.5,177.5 283.5,178.5 283.5,179.5C 287.198,179.552 290.865,179.886 294.5,180.5 Z"/></g>
<g><path style="opacity:1" fill="#c1a607" d="M 153.5,168.5 C 151.622,169.208 149.955,170.374 148.5,172C 149.38,173.356 149.714,174.856 149.5,176.5C 151.144,176.714 152.644,176.38 154,175.5C 157.011,177 156.511,177.834 152.5,178C 154.431,178.902 156.097,180.069 157.5,181.5C 156.127,181.657 154.793,181.49 153.5,181C 151.127,179.283 148.627,177.783 146,176.5C 145.849,171.481 148.349,168.814 153.5,168.5 Z"/></g>
<g><path style="opacity:1" fill="#3f3b04" d="M 167.5,164.5 C 168.167,164.5 168.5,164.833 168.5,165.5C 168.665,169.182 168.499,172.848 168,176.5C 167.722,177.416 167.222,178.082 166.5,178.5C 166.5,176.5 166.5,174.5 166.5,172.5C 167.473,170.052 167.806,167.385 167.5,164.5 Z"/></g>
<g><path style="opacity:0.944" fill="#636401" d="M 296.5,174.5 C 295.261,175.212 294.761,176.212 295,177.5C 297.224,179.054 299.724,180.054 302.5,180.5C 304.031,183.365 306.197,185.698 309,187.5C 310.442,191.511 312.442,195.178 315,198.5C 315.49,199.793 315.657,201.127 315.5,202.5C 311.295,195.765 306.795,189.099 302,182.5C 299.393,181.877 296.893,181.21 294.5,180.5C 292.478,178.307 289.811,177.307 286.5,177.5C 286.5,176.5 286.5,175.5 286.5,174.5C 289.833,174.5 293.167,174.5 296.5,174.5 Z"/></g>
<g><path style="opacity:0.067" fill="#282601" d="M 214.5,108.5 C 215.609,108.557 216.609,108.89 217.5,109.5C 217.414,110.496 217.748,111.329 218.5,112C 231.003,114.843 240.336,121.843 246.5,133C 257.109,134.237 267.775,134.903 278.5,135C 280.058,135.21 281.391,135.71 282.5,136.5C 290.13,138.612 296.297,142.946 301,149.5C 304.401,154.577 307.401,159.911 310,165.5C 321.094,177.332 329.428,190.999 335,206.5C 347.363,221.256 352.696,238.256 351,257.5C 347.934,263.957 342.768,267.29 335.5,267.5C 328.816,266.704 322.482,265.037 316.5,262.5C 318.467,262.261 320.301,262.594 322,263.5C 322.464,262.906 322.631,262.239 322.5,261.5C 323.167,261.167 323.833,260.833 324.5,260.5C 326.472,261.451 328.472,262.451 330.5,263.5C 344.329,266.172 350.162,260.506 348,246.5C 345.337,236.671 341.504,227.338 336.5,218.5C 333.636,215.889 331.303,212.889 329.5,209.5C 327.254,203.412 324.754,197.412 322,191.5C 313.596,180.369 305.929,168.703 299,156.5C 295.647,152.807 292.647,148.807 290,144.5C 288.421,142.959 286.587,141.792 284.5,141C 270.172,140.972 255.839,141.138 241.5,141.5C 241.771,135.238 239.771,129.738 235.5,125C 231.545,122.738 227.545,120.572 223.5,118.5C 219.482,117.965 215.482,117.298 211.5,116.5C 212.199,113.69 213.199,111.023 214.5,108.5 Z"/></g>
<g><path style="opacity:0.087" fill="#1d1c00" d="M 282.5,136.5 C 282.539,137.756 282.039,138.756 281,139.5C 268.559,139.302 256.059,138.969 243.5,138.5C 243.669,136.883 244.003,135.216 244.5,133.5C 246.197,134.364 247.363,135.697 248,137.5C 259.419,136.512 270.919,136.179 282.5,136.5 Z"/></g>
<g><path style="opacity:1" fill="#a41e25" d="M 125.5,177.5 C 106.306,184.38 87.3063,191.713 68.5,199.5C 64.5556,200.556 60.5556,201.223 56.5,201.5C 56.5,202.5 56.5,203.5 56.5,204.5C 51.588,204.53 47.2547,206.03 43.5,209C 41.26,209.977 38.9267,210.477 36.5,210.5C 38.3541,205.302 40.6875,200.302 43.5,195.5C 44.325,194.614 45.325,194.281 46.5,194.5C 47.7347,189.788 49.7347,185.454 52.5,181.5C 58.9017,181.254 65.235,180.42 71.5,179C 71.9574,178.586 72.2907,178.086 72.5,177.5C 89.0306,174.218 105.531,170.884 122,167.5C 123.167,167.833 124.333,168.167 125.5,168.5C 124.643,171.451 124.643,174.451 125.5,177.5 Z"/></g>
<g><path style="opacity:1" fill="#9f800b" d="M 166.5,178.5 C 166.5,181.5 166.5,184.5 166.5,187.5C 166.672,188.492 166.338,189.158 165.5,189.5C 165.5,188.5 165.5,187.5 165.5,186.5C 164.5,186.5 163.5,186.5 162.5,186.5C 163.263,185.732 164.263,185.232 165.5,185C 162.931,184.102 160.598,182.935 158.5,181.5C 160.861,181.674 163.194,182.007 165.5,182.5C 165.232,180.901 165.566,179.568 166.5,178.5 Z"/></g>
<g><path style="opacity:1" fill="#093603" d="M 185.5,183.5 C 182.13,185.139 178.463,186.139 174.5,186.5C 174.611,185.883 174.944,185.383 175.5,185C 178.827,184.39 182.161,183.89 185.5,183.5 Z"/></g>
<g><path style="opacity:0.137" fill="#292701" d="M 115.5,131.5 C 113.977,134.63 113.311,137.963 113.5,141.5C 102.324,141.529 91.157,141.195 80,140.5C 75.7189,140.399 71.5523,140.899 67.5,142C 63.2771,147.224 59.4437,152.724 56,158.5C 52.0322,161.43 49.8655,165.43 49.5,170.5C 46.9121,171.584 44.7455,173.251 43,175.5C 37.1747,184.476 31.8414,193.809 27,203.5C 26.6667,205.5 26.3333,207.5 26,209.5C 24.414,210.376 22.914,211.376 21.5,212.5C 18.5322,217.489 16.3656,222.822 15,228.5C 13.907,230.349 12.5737,232.016 11,233.5C 9.61867,238.71 7.78534,243.71 5.5,248.5C 4.05056,258.848 8.71722,264.182 19.5,264.5C 21.6965,264.495 23.6965,264.162 25.5,263.5C 27.6351,261.929 29.9684,260.596 32.5,259.5C 33.5,259.5 34.5,259.5 35.5,259.5C 34.913,260.767 34.913,261.767 35.5,262.5C 37.0709,261.691 38.7376,261.357 40.5,261.5C 34.1613,264.798 27.3279,266.798 20,267.5C 6.17868,266.539 0.512009,259.206 3,245.5C 5.54478,230.501 11.5448,217.168 21,205.5C 26.2668,191.345 33.9335,178.679 44,167.5C 48.5432,156.56 55.3766,147.393 64.5,140C 67.1667,138.667 69.8333,137.333 72.5,136C 83.4633,134.847 94.4633,134.181 105.5,134C 109.947,130.13 113.947,125.796 117.5,121C 122.723,117.221 128.39,114.221 134.5,112C 135.337,110.989 135.67,109.822 135.5,108.5C 136.163,106.958 136.83,105.291 137.5,103.5C 138.731,104.651 138.731,105.817 137.5,107C 139.712,110.134 141.046,113.634 141.5,117.5C 138.482,117.335 135.482,117.502 132.5,118C 124.777,120.161 119.111,124.661 115.5,131.5 Z"/></g>
<g><path style="opacity:0.082" fill="#1d1c00" d="M 111.5,130.5 C 112.112,133.304 112.112,136.304 111.5,139.5C 99.4824,139.466 87.4824,138.966 75.5,138C 85.3404,136.691 95.3404,136.025 105.5,136C 107.996,134.669 109.996,132.836 111.5,130.5 Z"/></g>
<g><path style="opacity:1" fill="#0e7200" d="M 323.5,219.5 C 329.02,229.656 334.02,239.989 338.5,250.5C 338.5,251.5 338.5,252.5 338.5,253.5C 335.285,253.095 332.285,252.095 329.5,250.5C 317.933,245.049 306.6,239.049 295.5,232.5C 291.147,231.154 287.147,228.987 283.5,226C 279.254,224.376 274.92,223.043 270.5,222C 269.643,221.311 268.977,220.478 268.5,219.5C 264.041,217.351 259.707,215.018 255.5,212.5C 252.627,211.225 249.627,210.392 246.5,210C 239.5,205.015 232,200.848 224,197.5C 222.831,196.991 221.998,196.158 221.5,195C 222.582,193.67 223.249,192.17 223.5,190.5C 226,187.499 228.5,184.499 231,181.5C 262.154,193.497 292.988,206.164 323.5,219.5 Z"/></g>
<g><path style="opacity:1" fill="#a31d25" d="M 128.5,186.5 C 129.614,189.883 131.614,192.549 134.5,194.5C 134.586,195.496 134.252,196.329 133.5,197C 129.278,199.072 124.944,200.739 120.5,202C 116.001,204.315 111.668,206.982 107.5,210C 104.899,210.92 102.232,211.587 99.5,212C 78.9642,223.525 57.9642,234.191 36.5,244C 33.2781,246.451 29.9448,248.618 26.5,250.5C 24.847,250.66 23.5137,251.326 22.5,252.5C 20.5,252.833 18.5,253.167 16.5,253.5C 16.6287,251.784 16.962,250.117 17.5,248.5C 20.3155,243.863 22.3155,238.863 23.5,233.5C 26.0694,228.411 28.9027,223.411 32,218.5C 32.6708,217.748 33.5041,217.414 34.5,217.5C 43.5225,213.769 52.5225,209.935 61.5,206C 65.2489,205.292 68.9156,204.292 72.5,203C 83.047,197.966 93.7136,193.133 104.5,188.5C 109.512,187.162 114.512,185.828 119.5,184.5C 119.5,183.5 119.5,182.5 119.5,181.5C 121.833,181.5 124.167,181.5 126.5,181.5C 126.12,183.698 126.787,185.365 128.5,186.5 Z"/></g>
<g><path style="opacity:1" fill="#167201" d="M 190.5,196.5 C 189.584,196.018 188.584,195.685 187.5,195.5C 179.909,197.315 172.242,198.648 164.5,199.5C 162.901,199.232 161.568,199.566 160.5,200.5C 159.833,200.5 159.167,200.5 158.5,200.5C 154.736,201.423 153.236,203.756 154,207.5C 156.983,210.332 160.483,211.999 164.5,212.5C 164.557,213.609 164.89,214.609 165.5,215.5C 162.568,215.284 159.902,215.951 157.5,217.5C 147.192,214.855 143.859,208.521 147.5,198.5C 147.414,197.504 147.748,196.671 148.5,196C 153.781,192.854 159.448,190.688 165.5,189.5C 166.338,189.158 166.672,188.492 166.5,187.5C 169.167,187.167 171.833,186.833 174.5,186.5C 178.463,186.139 182.13,185.139 185.5,183.5C 186.167,183.5 186.833,183.5 187.5,183.5C 189.735,183.795 191.735,183.461 193.5,182.5C 197.655,181.901 201.655,180.735 205.5,179C 208.524,176.525 209.19,173.525 207.5,170C 187.445,164.493 188.112,161.826 209.5,162C 220.491,170.864 220.158,179.197 208.5,187C 202.533,189.181 196.533,191.014 190.5,192.5C 190.5,193.833 190.5,195.167 190.5,196.5 Z"/></g>
<g><path style="opacity:0.474" fill="#494602" d="M 204.5,102.5 C 205.251,106.544 206.418,110.211 208,113.5C 209.446,111.059 210.279,108.392 210.5,105.5C 212.124,105.64 213.29,104.973 214,103.5C 214.494,105.134 214.66,106.801 214.5,108.5C 213.199,111.023 212.199,113.69 211.5,116.5C 215.482,117.298 219.482,117.965 223.5,118.5C 227.545,120.572 231.545,122.738 235.5,125C 239.771,129.738 241.771,135.238 241.5,141.5C 255.839,141.138 270.172,140.972 284.5,141C 286.587,141.792 288.421,142.959 290,144.5C 292.647,148.807 295.647,152.807 299,156.5C 305.929,168.703 313.596,180.369 322,191.5C 324.754,197.412 327.254,203.412 329.5,209.5C 331.303,212.889 333.636,215.889 336.5,218.5C 341.504,227.338 345.337,236.671 348,246.5C 350.162,260.506 344.329,266.172 330.5,263.5C 328.472,262.451 326.472,261.451 324.5,260.5C 322.469,260.028 320.802,259.028 319.5,257.5C 321.331,258.052 322.997,258.052 324.5,257.5C 321.478,256.996 320.311,255.329 321,252.5C 326.95,253.062 333.117,253.728 339.5,254.5C 339.768,252.901 339.434,251.568 338.5,250.5C 338.664,247.813 338.497,245.146 338,242.5C 335.668,235.809 333.335,229.142 331,222.5C 328.283,219.108 325.116,216.108 321.5,213.5C 320.531,205.559 317.864,198.226 313.5,191.5C 305.422,181.839 298.422,171.839 292.5,161.5C 290.102,155.932 286.102,151.765 280.5,149C 272.32,148.683 264.154,148.183 256,147.5C 252.065,148.298 248.232,148.632 244.5,148.5C 242.386,147.966 240.552,146.966 239,145.5C 237.853,146.458 236.853,146.125 236,144.5C 234.659,132.824 228.159,125.991 216.5,124C 218.607,123.549 220.607,122.216 222.5,120C 215.809,119.831 209.142,119.331 202.5,118.5C 203.445,114.552 204.112,110.552 204.5,106.5C 204.5,105.167 204.5,103.833 204.5,102.5 Z"/></g>
<g><path style="opacity:1" fill="#060501" d="M 190.5,196.5 C 190.5,197.833 190.5,199.167 190.5,200.5C 190.5,203.833 190.5,207.167 190.5,210.5C 181.913,212.004 173.58,214.337 165.5,217.5C 165.5,216.833 165.5,216.167 165.5,215.5C 164.89,214.609 164.557,213.609 164.5,212.5C 164.5,208.167 164.5,203.833 164.5,199.5C 172.242,198.648 179.909,197.315 187.5,195.5C 188.584,195.685 189.584,196.018 190.5,196.5 Z"/></g>
<g><path style="opacity:0.988" fill="#816e0b" d="M 125.5,177.5 C 125.389,178.117 125.056,178.617 124.5,179C 127.078,180.716 128.411,183.216 128.5,186.5C 126.787,185.365 126.12,183.698 126.5,181.5C 124.167,181.5 121.833,181.5 119.5,181.5C 119.5,182.5 119.5,183.5 119.5,184.5C 114.512,185.828 109.512,187.162 104.5,188.5C 93.7136,193.133 83.047,197.966 72.5,203C 68.9156,204.292 65.2489,205.292 61.5,206C 52.5225,209.935 43.5225,213.769 34.5,217.5C 35.287,215.896 36.6203,215.229 38.5,215.5C 38.6347,213.446 37.968,211.779 36.5,210.5C 38.9267,210.477 41.26,209.977 43.5,209C 47.2547,206.03 51.588,204.53 56.5,204.5C 56.5,203.5 56.5,202.5 56.5,201.5C 60.5556,201.223 64.5556,200.556 68.5,199.5C 87.3063,191.713 106.306,184.38 125.5,177.5 Z"/></g>
<g><path style="opacity:0.455" fill="#4a4702" d="M 115.5,131.5 C 116.756,131.461 117.756,131.961 118.5,133C 117.328,134.868 117.495,136.702 119,138.5C 120.277,136.253 121.777,134.253 123.5,132.5C 122.041,136.689 121.041,141.023 120.5,145.5C 119.811,147.353 118.478,148.519 116.5,149C 104.656,149.684 92.8222,149.517 81,148.5C 78.8333,148.667 76.6667,148.833 74.5,149C 73.944,149.383 73.6107,149.883 73.5,150.5C 73.5,150.833 73.5,151.167 73.5,151.5C 72.8333,151.5 72.5,151.833 72.5,152.5C 70.2843,153.203 68.451,154.536 67,156.5C 63.581,161.803 59.9143,166.803 56,171.5C 56,172.833 56,174.167 56,175.5C 55.0862,174.346 54.2529,174.513 53.5,176C 53.8333,176.333 54.1667,176.667 54.5,177C 51.8505,177.794 49.6839,179.294 48,181.5C 46.2515,184.662 44.2515,187.662 42,190.5C 40.1539,193.569 39.1539,196.902 39,200.5C 37.3619,203.304 35.5285,205.971 33.5,208.5C 33.7093,209.086 34.0426,209.586 34.5,210C 33.1687,211.999 31.3354,213.833 29,215.5C 26.0992,221.045 24.2659,227.045 23.5,233.5C 22.3155,238.863 20.3155,243.863 17.5,248.5C 15.7202,249.99 15.0535,251.99 15.5,254.5C 17.5,254.5 19.5,254.5 21.5,254.5C 27.0479,254.361 32.2145,253.028 37,250.5C 37.8333,251.333 38.6667,252.167 39.5,253C 38.5509,253.617 37.7175,253.451 37,252.5C 36.3551,253.646 35.5217,254.646 34.5,255.5C 35.325,256.386 36.325,256.719 37.5,256.5C 35.58,257.065 33.9133,258.065 32.5,259.5C 29.9684,260.596 27.6351,261.929 25.5,263.5C 22.7294,263.579 20.0627,263.079 17.5,262C 20.5285,261.461 23.5285,260.794 26.5,260C 25.5419,258.853 25.8753,257.853 27.5,257C 27,256.5 26.5,256 26,255.5C 15.8583,258.885 12.0249,255.551 14.5,245.5C 12.5011,241.855 10.6678,242.189 9,246.5C 8.07572,249.531 7.40906,252.531 7,255.5C 6.70964,253.08 6.20964,250.746 5.5,248.5C 7.78534,243.71 9.61867,238.71 11,233.5C 12.5737,232.016 13.907,230.349 15,228.5C 16.3656,222.822 18.5322,217.489 21.5,212.5C 22.914,211.376 24.414,210.376 26,209.5C 26.3333,207.5 26.6667,205.5 27,203.5C 31.8414,193.809 37.1747,184.476 43,175.5C 44.7455,173.251 46.9121,171.584 49.5,170.5C 49.8655,165.43 52.0322,161.43 56,158.5C 59.4437,152.724 63.2771,147.224 67.5,142C 71.5523,140.899 75.7189,140.399 80,140.5C 91.157,141.195 102.324,141.529 113.5,141.5C 113.311,137.963 113.977,134.63 115.5,131.5 Z"/></g>
<g><path style="opacity:0.55" fill="#4f4b02" d="M 295.5,232.5 C 295.539,233.583 295.873,234.583 296.5,235.5C 306.184,243.342 317.184,248.342 329.5,250.5C 332.285,252.095 335.285,253.095 338.5,253.5C 338.5,252.5 338.5,251.5 338.5,250.5C 339.434,251.568 339.768,252.901 339.5,254.5C 333.117,253.728 326.95,253.062 321,252.5C 320.311,255.329 321.478,256.996 324.5,257.5C 322.997,258.052 321.331,258.052 319.5,257.5C 303.291,250.375 287.625,242.208 272.5,233C 265.852,230.011 259.186,227.011 252.5,224C 251.207,223.51 249.873,223.343 248.5,223.5C 239.593,217.212 229.926,212.212 219.5,208.5C 218.683,214.466 216.016,219.466 211.5,223.5C 213.547,228.245 214.047,233.245 213,238.5C 210.091,244.238 206.257,249.238 201.5,253.5C 202.521,254.901 203.521,256.235 204.5,257.5C 204.5,258.5 204.5,259.5 204.5,260.5C 203.5,260.5 202.5,260.5 201.5,260.5C 201.344,256.865 200.178,256.532 198,259.5C 197.505,261.473 197.338,263.473 197.5,265.5C 194.212,265.073 191.212,265.74 188.5,267.5C 187.833,267.167 187.167,266.833 186.5,266.5C 185.085,269.013 182.585,271.013 179,272.5C 177.765,273.615 176.598,273.615 175.5,272.5C 174.713,273.242 174.047,274.075 173.5,275C 175.199,275.958 177.033,276.458 179,276.5C 182.136,276.158 184.969,275.158 187.5,273.5C 187.5,274.5 187.5,275.5 187.5,276.5C 181.267,280.48 174.934,280.48 168.5,276.5C 167.873,275.583 167.539,274.583 167.5,273.5C 166.71,272.206 165.71,271.039 164.5,270C 165.749,268.176 166.915,268.343 168,270.5C 168.667,269.5 168.667,268.5 168,267.5C 164.949,265.981 161.782,264.981 158.5,264.5C 163.801,263.099 168.634,260.766 173,257.5C 174.03,257.836 174.53,258.503 174.5,259.5C 175.105,262.127 175.605,264.793 176,267.5C 177.011,268.337 178.178,268.67 179.5,268.5C 179.153,263.921 179.82,259.588 181.5,255.5C 183.375,253.922 184.708,254.255 185.5,256.5C 184.261,257.212 183.761,258.212 184,259.5C 187.065,261.407 190.232,263.074 193.5,264.5C 194.932,264.267 195.432,263.6 195,262.5C 192.597,261.219 190.763,259.386 189.5,257C 188.552,256.517 187.552,256.351 186.5,256.5C 186.164,254.525 186.664,252.525 188,250.5C 194.29,246.544 199.624,241.544 204,235.5C 204.859,231.929 204.026,228.929 201.5,226.5C 200.758,224.574 199.758,222.741 198.5,221C 199.609,219.187 198.942,218.354 196.5,218.5C 199.128,216.519 202.128,215.019 205.5,214C 209.096,210.265 210.429,205.765 209.5,200.5C 211.05,199.559 212.716,198.893 214.5,198.5C 219.485,197.551 223.818,199.051 227.5,203C 242.016,209.508 256.183,216.675 270,224.5C 278.899,226.365 287.399,229.031 295.5,232.5 Z"/></g>
<g><path style="opacity:0.945" fill="#616302" d="M 223.5,190.5 C 223.249,192.17 222.582,193.67 221.5,195C 221.998,196.158 222.831,196.991 224,197.5C 232,200.848 239.5,205.015 246.5,210C 249.627,210.392 252.627,211.225 255.5,212.5C 259.707,215.018 264.041,217.351 268.5,219.5C 268.977,220.478 269.643,221.311 270.5,222C 274.92,223.043 279.254,224.376 283.5,226C 287.147,228.987 291.147,231.154 295.5,232.5C 287.399,229.031 278.899,226.365 270,224.5C 256.183,216.675 242.016,209.508 227.5,203C 223.818,199.051 219.485,197.551 214.5,198.5C 215.752,196.999 216.752,195.332 217.5,193.5C 219.257,192.708 220.591,191.375 221.5,189.5C 222.183,189.863 222.85,190.196 223.5,190.5 Z"/></g>
<g><path style="opacity:1" fill="#c1b401" d="M 191.5,200.5 C 194.4,200.28 197.067,200.946 199.5,202.5C 200.735,204.316 200.735,205.983 199.5,207.5C 196.692,207.693 194.025,208.36 191.5,209.5C 191.5,206.5 191.5,203.5 191.5,200.5 Z"/></g>
<g><path style="opacity:0.761" fill="#5b5304" d="M 72.5,152.5 C 69.996,158.13 66.496,163.13 62,167.5C 61.1529,169.854 60.3195,172.188 59.5,174.5C 61.0133,175.309 62.6799,175.476 64.5,175C 65.7112,175.893 65.7112,176.726 64.5,177.5C 60.1532,178.499 56.1532,179.832 52.5,181.5C 49.7347,185.454 47.7347,189.788 46.5,194.5C 45.325,194.281 44.325,194.614 43.5,195.5C 40.6875,200.302 38.3541,205.302 36.5,210.5C 37.968,211.779 38.6347,213.446 38.5,215.5C 36.6203,215.229 35.287,215.896 34.5,217.5C 33.5041,217.414 32.6708,217.748 32,218.5C 28.9027,223.411 26.0694,228.411 23.5,233.5C 24.2659,227.045 26.0992,221.045 29,215.5C 31.3354,213.833 33.1687,211.999 34.5,210C 34.0426,209.586 33.7093,209.086 33.5,208.5C 35.5285,205.971 37.3619,203.304 39,200.5C 39.1539,196.902 40.1539,193.569 42,190.5C 44.2515,187.662 46.2515,184.662 48,181.5C 49.6839,179.294 51.8505,177.794 54.5,177C 54.1667,176.667 53.8333,176.333 53.5,176C 54.2529,174.513 55.0862,174.346 56,175.5C 56,174.167 56,172.833 56,171.5C 59.9143,166.803 63.581,161.803 67,156.5C 68.451,154.536 70.2843,153.203 72.5,152.5 Z"/></g>
<g><path style="opacity:0.475" fill="#4e4a02" d="M 141.5,202.5 C 142.963,205.203 143.796,208.203 144,211.5C 147.198,212.23 148.698,214.23 148.5,217.5C 151.036,218.349 153.536,219.349 156,220.5C 155.981,222.107 155.815,223.774 155.5,225.5C 151.829,228.249 150.663,231.916 152,236.5C 155.841,240.673 160.007,244.507 164.5,248C 166.881,248.738 168.881,248.238 170.5,246.5C 171.5,246.833 172.167,247.5 172.5,248.5C 172.5,249.167 172.5,249.833 172.5,250.5C 172.489,252.017 171.823,253.184 170.5,254C 166.877,257.471 162.877,260.304 158.5,262.5C 157.815,260.586 157.315,258.586 157,256.5C 153.895,257.684 151.895,260.351 151,264.5C 150.309,260.979 150.809,257.645 152.5,254.5C 152.611,253.883 152.944,253.383 153.5,253C 143.661,246.821 139.661,237.987 141.5,226.5C 142.415,225.672 143.081,224.672 143.5,223.5C 139.368,221.043 136.368,217.709 134.5,213.5C 135.441,208.866 134.107,207.699 130.5,210C 99.3419,225.659 68.3419,241.159 37.5,256.5C 36.325,256.719 35.325,256.386 34.5,255.5C 35.5217,254.646 36.3551,253.646 37,252.5C 37.7175,253.451 38.5509,253.617 39.5,253C 38.6667,252.167 37.8333,251.333 37,250.5C 32.2145,253.028 27.0479,254.361 21.5,254.5C 21.8333,253.833 22.1667,253.167 22.5,252.5C 23.5137,251.326 24.847,250.66 26.5,250.5C 35.0524,248.219 43.3858,245.386 51.5,242C 66.805,234.512 81.4717,226.012 95.5,216.5C 98.8482,215.713 102.182,214.879 105.5,214C 112.379,210.061 119.379,206.394 126.5,203C 131.544,200.067 136.544,199.9 141.5,202.5 Z"/></g>
<g><path style="opacity:0.769" fill="#5a5801" d="M 231.5,138.5 C 232.117,138.611 232.617,138.944 233,139.5C 233.256,142.557 233.756,145.557 234.5,148.5C 249.489,149.333 264.489,149.833 279.5,150C 283.976,153.641 288.309,157.474 292.5,161.5C 298.422,171.839 305.422,181.839 313.5,191.5C 317.864,198.226 320.531,205.559 321.5,213.5C 325.116,216.108 328.283,219.108 331,222.5C 333.335,229.142 335.668,235.809 338,242.5C 338.497,245.146 338.664,247.813 338.5,250.5C 334.02,239.989 329.02,229.656 323.5,219.5C 323.586,218.504 323.252,217.671 322.5,217C 319.53,215.847 316.863,214.18 314.5,212C 315.737,211.768 316.737,211.268 317.5,210.5C 317.713,207.549 317.046,204.882 315.5,202.5C 315.657,201.127 315.49,199.793 315,198.5C 312.442,195.178 310.442,191.511 309,187.5C 306.197,185.698 304.031,183.365 302.5,180.5C 299.724,180.054 297.224,179.054 295,177.5C 294.761,176.212 295.261,175.212 296.5,174.5C 296.672,173.508 296.338,172.842 295.5,172.5C 291.311,165.3 286.311,158.633 280.5,152.5C 267.202,152.212 253.868,152.212 240.5,152.5C 234.769,152.02 229.102,152.02 223.5,152.5C 228.986,149.592 231.653,144.925 231.5,138.5 Z"/></g>
<g><path style="opacity:0.996" fill="#7e8201" d="M 160.5,200.5 C 161.568,199.566 162.901,199.232 164.5,199.5C 164.5,203.833 164.5,208.167 164.5,212.5C 160.483,211.999 156.983,210.332 154,207.5C 153.236,203.756 154.736,201.423 158.5,200.5C 157.19,202.148 155.857,203.814 154.5,205.5C 157.626,205.984 160.293,207.317 162.5,209.5C 163.484,206.572 163.817,203.572 163.5,200.5C 162.5,200.5 161.5,200.5 160.5,200.5 Z"/></g>
<g><path style="opacity:1" fill="#c4bf00" d="M 158.5,200.5 C 159.167,200.5 159.833,200.5 160.5,200.5C 161.5,200.5 162.5,200.5 163.5,200.5C 163.817,203.572 163.484,206.572 162.5,209.5C 160.293,207.317 157.626,205.984 154.5,205.5C 155.857,203.814 157.19,202.148 158.5,200.5 Z"/></g>
<g><path style="opacity:0.996" fill="#837308" d="M 190.5,200.5 C 190.833,200.5 191.167,200.5 191.5,200.5C 191.5,203.5 191.5,206.5 191.5,209.5C 194.025,208.36 196.692,207.693 199.5,207.5C 198.025,209.69 196.025,211.023 193.5,211.5C 192.391,211.443 191.391,211.11 190.5,210.5C 190.5,207.167 190.5,203.833 190.5,200.5 Z"/></g>
<g><path style="opacity:0.835" fill="#665807" d="M 137.5,193.5 C 137.5,194.167 137.5,194.833 137.5,195.5C 138.75,197.823 140.083,200.156 141.5,202.5C 136.544,199.9 131.544,200.067 126.5,203C 119.379,206.394 112.379,210.061 105.5,214C 102.182,214.879 98.8482,215.713 95.5,216.5C 81.4717,226.012 66.805,234.512 51.5,242C 43.3858,245.386 35.0524,248.219 26.5,250.5C 29.9448,248.618 33.2781,246.451 36.5,244C 57.9642,234.191 78.9642,223.525 99.5,212C 102.232,211.587 104.899,210.92 107.5,210C 111.668,206.982 116.001,204.315 120.5,202C 124.944,200.739 129.278,199.072 133.5,197C 134.252,196.329 134.586,195.496 134.5,194.5C 135.117,194.611 135.617,194.944 136,195.5C 136.278,194.584 136.778,193.918 137.5,193.5 Z"/></g>
<g><path style="opacity:0.804" fill="#656504" d="M 137.5,195.5 C 139.617,197.296 141.95,198.962 144.5,200.5C 145.518,199.807 146.518,199.141 147.5,198.5C 143.859,208.521 147.192,214.855 157.5,217.5C 159.902,215.951 162.568,215.284 165.5,215.5C 165.5,216.167 165.5,216.833 165.5,217.5C 165.5,217.833 165.5,218.167 165.5,218.5C 162.447,221.192 159.114,223.525 155.5,225.5C 155.815,223.774 155.981,222.107 156,220.5C 153.536,219.349 151.036,218.349 148.5,217.5C 148.698,214.23 147.198,212.23 144,211.5C 143.796,208.203 142.963,205.203 141.5,202.5C 140.083,200.156 138.75,197.823 137.5,195.5 Z"/></g>
<g><path style="opacity:1" fill="#a11e24" d="M 209.5,200.5 C 210.429,205.765 209.096,210.265 205.5,214C 202.128,215.019 199.128,216.519 196.5,218.5C 192.566,218.604 189.566,220.271 187.5,223.5C 181.415,225.794 175.081,227.127 168.5,227.5C 164.33,226.993 161.33,228.659 159.5,232.5C 162.182,237.182 165.849,240.849 170.5,243.5C 170.5,244.5 170.5,245.5 170.5,246.5C 168.881,248.238 166.881,248.738 164.5,248C 160.007,244.507 155.841,240.673 152,236.5C 150.663,231.916 151.829,228.249 155.5,225.5C 159.114,223.525 162.447,221.192 165.5,218.5C 167.792,218.244 169.959,218.577 172,219.5C 174.439,217.596 176.939,215.762 179.5,214C 184.336,213.32 189.003,212.486 193.5,211.5C 196.025,211.023 198.025,209.69 199.5,207.5C 200.735,205.983 200.735,204.316 199.5,202.5C 197.067,200.946 194.4,200.28 191.5,200.5C 191.167,200.5 190.833,200.5 190.5,200.5C 190.5,199.167 190.5,197.833 190.5,196.5C 194.244,196.315 197.911,195.648 201.5,194.5C 204.467,196.138 207.133,198.138 209.5,200.5 Z"/></g>
<g><path style="opacity:1" fill="#7d131b" d="M 190.5,210.5 C 191.391,211.11 192.391,211.443 193.5,211.5C 189.003,212.486 184.336,213.32 179.5,214C 176.939,215.762 174.439,217.596 172,219.5C 169.959,218.577 167.792,218.244 165.5,218.5C 165.5,218.167 165.5,217.833 165.5,217.5C 173.58,214.337 181.913,212.004 190.5,210.5 Z"/></g>
<g><path style="opacity:0.059" fill="#2d2b01" d="M 248.5,223.5 C 245.794,223.425 243.127,223.092 240.5,222.5C 244.025,226.637 249.025,229.47 255.5,231C 259.233,233.523 262.899,236.023 266.5,238.5C 252.785,231.644 238.785,225.311 224.5,219.5C 222.171,220.998 220.337,222.998 219,225.5C 218.727,230.229 218.061,234.896 217,239.5C 213.965,245.996 210.798,252.33 207.5,258.5C 207.44,259.043 207.107,259.376 206.5,259.5C 205.818,258.757 205.151,258.091 204.5,257.5C 203.521,256.235 202.521,254.901 201.5,253.5C 206.257,249.238 210.091,244.238 213,238.5C 214.047,233.245 213.547,228.245 211.5,223.5C 216.016,219.466 218.683,214.466 219.5,208.5C 229.926,212.212 239.593,217.212 248.5,223.5 Z"/></g>
<g><path style="opacity:0.075" fill="#1e1d00" d="M 240.5,222.5 C 236.592,222.802 232.592,221.302 228.5,218C 225.5,217.667 222.5,217.333 219.5,217C 222.401,213.245 226.068,212.578 230.5,215C 234.869,216.213 238.203,218.713 240.5,222.5 Z"/></g>
<g><path style="opacity:0.13" fill="#312f01" d="M 134.5,213.5 C 133.527,212.016 132.193,211.516 130.5,212C 125.381,215.893 119.714,218.726 113.5,220.5C 112.319,221.515 111.319,222.681 110.5,224C 110.833,224.5 111.167,225 111.5,225.5C 117.226,221.473 123.559,218.806 130.5,217.5C 132.915,217.719 133.915,219.052 133.5,221.5C 130.733,219.082 127.733,218.916 124.5,221C 98.5311,233.984 72.5311,246.984 46.5,260C 44.5643,260.813 42.5643,261.313 40.5,261.5C 62.9588,249.77 85.6255,238.27 108.5,227C 109.993,225.844 109.826,225.01 108,224.5C 84.0145,236.576 59.8479,248.243 35.5,259.5C 34.5,259.5 33.5,259.5 32.5,259.5C 33.9133,258.065 35.58,257.065 37.5,256.5C 68.3419,241.159 99.3419,225.659 130.5,210C 134.107,207.699 135.441,208.866 134.5,213.5 Z"/></g>
<g><path style="opacity:1" fill="#070401" d="M 187.5,223.5 C 187.451,227.078 186.785,230.411 185.5,233.5C 184.675,236.372 183.841,239.372 183,242.5C 179.689,244.903 176.189,246.903 172.5,248.5C 172.167,247.5 171.5,246.833 170.5,246.5C 170.5,245.5 170.5,244.5 170.5,243.5C 169.963,238.149 169.296,232.816 168.5,227.5C 175.081,227.127 181.415,225.794 187.5,223.5 Z"/></g>
<g><path style="opacity:0.128" fill="#2f2d01" d="M 248.5,223.5 C 249.873,223.343 251.207,223.51 252.5,224C 259.186,227.011 265.852,230.011 272.5,233C 287.625,242.208 303.291,250.375 319.5,257.5C 320.802,259.028 322.469,260.028 324.5,260.5C 323.833,260.833 323.167,261.167 322.5,261.5C 301.495,251.331 280.495,241.164 259.5,231C 256.327,228.913 252.994,227.079 249.5,225.5C 248.702,225.043 248.369,224.376 248.5,223.5 Z"/></g>
<g><path style="opacity:0.973" fill="#6f6d04" d="M 196.5,218.5 C 198.942,218.354 199.609,219.187 198.5,221C 199.758,222.741 200.758,224.574 201.5,226.5C 200.024,225.267 198.357,224.267 196.5,223.5C 188.485,224.295 187.651,226.962 194,231.5C 194.667,232.833 194.667,234.167 194,235.5C 191.614,238.386 188.781,240.72 185.5,242.5C 185.5,239.5 185.5,236.5 185.5,233.5C 186.785,230.411 187.451,227.078 187.5,223.5C 189.566,220.271 192.566,218.604 196.5,218.5 Z"/></g>
<g><path style="opacity:1" fill="#167101" d="M 201.5,226.5 C 202.059,228.679 202.726,230.846 203.5,233C 198.779,240.722 192.445,246.722 184.5,251C 182.859,252.129 181.859,253.629 181.5,255.5C 178.976,256.592 176.643,257.926 174.5,259.5C 174.53,258.503 174.03,257.836 173,257.5C 168.634,260.766 163.801,263.099 158.5,264.5C 158.5,263.833 158.5,263.167 158.5,262.5C 162.877,260.304 166.877,257.471 170.5,254C 171.823,253.184 172.489,252.017 172.5,250.5C 177.08,248.257 181.414,245.59 185.5,242.5C 188.781,240.72 191.614,238.386 194,235.5C 194.667,234.167 194.667,232.833 194,231.5C 187.651,226.962 188.485,224.295 196.5,223.5C 198.357,224.267 200.024,225.267 201.5,226.5 Z"/></g>
<g><path style="opacity:0.967" fill="#716805" d="M 168.5,227.5 C 169.296,232.816 169.963,238.149 170.5,243.5C 165.849,240.849 162.182,237.182 159.5,232.5C 161.33,228.659 164.33,226.993 168.5,227.5 Z"/></g>
<g><path style="opacity:0.076" fill="#1f1e00" d="M 240.5,222.5 C 243.127,223.092 245.794,223.425 248.5,223.5C 248.369,224.376 248.702,225.043 249.5,225.5C 252.994,227.079 256.327,228.913 259.5,231C 280.495,241.164 301.495,251.331 322.5,261.5C 322.631,262.239 322.464,262.906 322,263.5C 320.301,262.594 318.467,262.261 316.5,262.5C 310.69,259.401 305.523,256.068 301,252.5C 300.586,252.957 300.086,253.291 299.5,253.5C 296.111,251.301 292.444,249.968 288.5,249.5C 288.5,249.167 288.5,248.833 288.5,248.5C 281.696,244.1 274.363,240.766 266.5,238.5C 262.899,236.023 259.233,233.523 255.5,231C 249.025,229.47 244.025,226.637 240.5,222.5 Z"/></g>
<g><path style="opacity:0.937" fill="#606801" d="M 201.5,226.5 C 204.026,228.929 204.859,231.929 204,235.5C 199.624,241.544 194.29,246.544 188,250.5C 186.664,252.525 186.164,254.525 186.5,256.5C 186.167,256.5 185.833,256.5 185.5,256.5C 184.708,254.255 183.375,253.922 181.5,255.5C 181.859,253.629 182.859,252.129 184.5,251C 192.445,246.722 198.779,240.722 203.5,233C 202.726,230.846 202.059,228.679 201.5,226.5 Z"/></g>
<g><path style="opacity:0.031" fill="#383502" d="M 266.5,238.5 C 274.363,240.766 281.696,244.1 288.5,248.5C 280.861,245.678 273.527,242.344 266.5,238.5 Z"/></g>
<g><path style="opacity:0.07" fill="#1f1e00" d="M 40.5,261.5 C 38.7376,261.357 37.0709,261.691 35.5,262.5C 34.913,261.767 34.913,260.767 35.5,259.5C 59.8479,248.243 84.0145,236.576 108,224.5C 109.826,225.01 109.993,225.844 108.5,227C 85.6255,238.27 62.9588,249.77 40.5,261.5 Z"/></g>
<g><path style="opacity:1" fill="#204502" d="M 185.5,233.5 C 185.5,236.5 185.5,239.5 185.5,242.5C 181.414,245.59 177.08,248.257 172.5,250.5C 172.5,249.833 172.5,249.167 172.5,248.5C 176.189,246.903 179.689,244.903 183,242.5C 183.841,239.372 184.675,236.372 185.5,233.5 Z"/></g>
<g><path style="opacity:0.071" fill="#242301" d="M 134.5,213.5 C 136.368,217.709 139.368,221.043 143.5,223.5C 143.081,224.672 142.415,225.672 141.5,226.5C 139.661,237.987 143.661,246.821 153.5,253C 152.944,253.383 152.611,253.883 152.5,254.5C 151.542,254.953 150.708,255.619 150,256.5C 149.012,259.424 148.346,262.424 148,265.5C 147.809,263.292 147.309,261.292 146.5,259.5C 146.33,258.178 146.663,257.011 147.5,256C 140.111,247.164 136.277,236.997 136,225.5C 134.905,224.307 134.072,222.973 133.5,221.5C 133.915,219.052 132.915,217.719 130.5,217.5C 123.559,218.806 117.226,221.473 111.5,225.5C 111.167,225 110.833,224.5 110.5,224C 111.319,222.681 112.319,221.515 113.5,220.5C 119.714,218.726 125.381,215.893 130.5,212C 132.193,211.516 133.527,212.016 134.5,213.5 Z"/></g>
<g><path style="opacity:0.376" fill="#413e01" d="M 25.5,263.5 C 23.6965,264.162 21.6965,264.495 19.5,264.5C 8.71722,264.182 4.05056,258.848 5.5,248.5C 6.20964,250.746 6.70964,253.08 7,255.5C 7.40906,252.531 8.07572,249.531 9,246.5C 10.6678,242.189 12.5011,241.855 14.5,245.5C 12.0249,255.551 15.8583,258.885 26,255.5C 26.5,256 27,256.5 27.5,257C 25.8753,257.853 25.5419,258.853 26.5,260C 23.5285,260.794 20.5285,261.461 17.5,262C 20.0627,263.079 22.7294,263.579 25.5,263.5 Z"/></g>
<g><path style="opacity:0.871" fill="#5e6001" d="M 295.5,232.5 C 306.6,239.049 317.933,245.049 329.5,250.5C 317.184,248.342 306.184,243.342 296.5,235.5C 295.873,234.583 295.539,233.583 295.5,232.5 Z"/></g>
<g><path style="opacity:0.902" fill="#7e4616" d="M 17.5,248.5 C 16.962,250.117 16.6287,251.784 16.5,253.5C 18.5,253.167 20.5,252.833 22.5,252.5C 22.1667,253.167 21.8333,253.833 21.5,254.5C 19.5,254.5 17.5,254.5 15.5,254.5C 15.0535,251.99 15.7202,249.99 17.5,248.5 Z"/></g>
<g><path style="opacity:0.039" fill="#333002" d="M 288.5,249.5 C 292.444,249.968 296.111,251.301 299.5,253.5C 300.086,253.291 300.586,252.957 301,252.5C 305.523,256.068 310.69,259.401 316.5,262.5C 306.597,259.213 297.264,254.88 288.5,249.5 Z"/></g>
<g><path style="opacity:0.364" fill="#3f3c01" d="M 152.5,254.5 C 150.809,257.645 150.309,260.979 151,264.5C 151.895,260.351 153.895,257.684 157,256.5C 157.315,258.586 157.815,260.586 158.5,262.5C 158.5,263.167 158.5,263.833 158.5,264.5C 161.782,264.981 164.949,265.981 168,267.5C 168.667,268.5 168.667,269.5 168,270.5C 166.915,268.343 165.749,268.176 164.5,270C 165.71,271.039 166.71,272.206 167.5,273.5C 164.213,274.161 160.88,274.661 157.5,275C 158.858,275.934 160.192,276.768 161.5,277.5C 154.67,277.006 149.836,273.672 147,267.5C 146.503,264.854 146.336,262.187 146.5,259.5C 147.309,261.292 147.809,263.292 148,265.5C 148.346,262.424 149.012,259.424 150,256.5C 150.708,255.619 151.542,254.953 152.5,254.5 Z"/></g>
<g><path style="opacity:0.998" fill="#9c2a21" d="M 185.5,256.5 C 185.833,256.5 186.167,256.5 186.5,256.5C 187.552,256.351 188.552,256.517 189.5,257C 190.763,259.386 192.597,261.219 195,262.5C 195.432,263.6 194.932,264.267 193.5,264.5C 190.232,263.074 187.065,261.407 184,259.5C 183.761,258.212 184.261,257.212 185.5,256.5 Z"/></g>
<g><path style="opacity:1" fill="#090903" d="M 181.5,255.5 C 179.82,259.588 179.153,263.921 179.5,268.5C 178.178,268.67 177.011,268.337 176,267.5C 175.605,264.793 175.105,262.127 174.5,259.5C 176.643,257.926 178.976,256.592 181.5,255.5 Z"/></g>
<g><path style="opacity:0.18" fill="#3f3c01" d="M 204.5,257.5 C 205.151,258.091 205.818,258.757 206.5,259.5C 207.107,259.376 207.44,259.043 207.5,258.5C 208.643,263.316 207.81,267.983 205,272.5C 202.603,274.782 199.769,276.116 196.5,276.5C 195.508,274.974 194.008,274.307 192,274.5C 190.213,274.759 188.713,275.425 187.5,276.5C 187.5,275.5 187.5,274.5 187.5,273.5C 184.969,275.158 182.136,276.158 179,276.5C 177.033,276.458 175.199,275.958 173.5,275C 174.047,274.075 174.713,273.242 175.5,272.5C 176.598,273.615 177.765,273.615 179,272.5C 182.585,271.013 185.085,269.013 186.5,266.5C 187.167,266.833 187.833,267.167 188.5,267.5C 191.212,265.74 194.212,265.073 197.5,265.5C 197.338,263.473 197.505,261.473 198,259.5C 200.178,256.532 201.344,256.865 201.5,260.5C 202.5,260.5 203.5,260.5 204.5,260.5C 204.5,259.5 204.5,258.5 204.5,257.5 Z"/></g>
<g><path style="opacity:0.058" fill="#292701" d="M 167.5,273.5 C 167.539,274.583 167.873,275.583 168.5,276.5C 174.934,280.48 181.267,280.48 187.5,276.5C 188.713,275.425 190.213,274.759 192,274.5C 194.008,274.307 195.508,274.974 196.5,276.5C 194.708,277.309 192.708,277.809 190.5,278C 187.25,281.457 183.25,282.957 178.5,282.5C 173.547,282.686 169.214,281.186 165.5,278C 164.207,277.51 162.873,277.343 161.5,277.5C 160.192,276.768 158.858,275.934 157.5,275C 160.88,274.661 164.213,274.161 167.5,273.5 Z"/></g>
</svg>
