<?xml version="1.0" encoding="UTF-8"?>
<!DOCTYPE svg PUBLIC "-//W3C//DTD SVG 1.1//EN" "http://www.w3.org/Graphics/SVG/1.1/DTD/svg11.dtd">
<svg xmlns="http://www.w3.org/2000/svg" version="1.1" width="100%" viewBox="0 0 338 338" style="shape-rendering:geometricPrecision; text-rendering:geometricPrecision; image-rendering:optimizeQuality; fill-rule:evenodd; clip-rule:evenodd" xmlns:xlink="http://www.w3.org/1999/xlink">
<g><path style="opacity:0.326" fill="#030303" d="M 337.5,138.5 C 337.5,147.167 337.5,155.833 337.5,164.5C 336.329,171.838 333.829,178.838 330,185.5C 322.413,193.887 314.247,194.554 305.5,187.5C 303.66,193.854 301.66,200.187 299.5,206.5C 318.23,231.045 320.396,257.045 306,284.5C 294.358,303.74 277.858,316.906 256.5,324C 189.171,338.475 122.838,334.808 57.5,313C 39.5161,307.76 23.3494,299.26 9,287.5C 7,284.833 5,282.167 3,279.5C 1.51368,276.15 0.347016,272.816 -0.5,269.5C -0.5,266.167 -0.5,262.833 -0.5,259.5C 2.83717,248.809 7.33717,238.476 13,228.5C 15.4179,218.822 18.7512,209.488 23,200.5C 25.448,198.369 27.948,196.369 30.5,194.5C 25.5947,185.817 22.7614,176.483 22,166.5C 20.6521,156.196 20.3188,145.863 21,135.5C 20.62,123.083 25.7867,113.916 36.5,108C 23.2103,102.043 14.0436,92.2092 9,78.5C 3.63321,66.7072 1.29988,54.3738 2,41.5C 3.64687,35.1829 7.4802,30.6829 13.5,28C 41.5778,18.5363 68.0778,21.703 93,37.5C 95.2672,30.3995 100.101,26.3995 107.5,25.5C 126.259,30.9753 144.592,37.642 162.5,45.5C 163.099,35.1263 163.933,24.793 165,14.5C 167.928,8.19381 172.928,4.86047 180,4.5C 200.288,6.95787 220.122,11.4579 239.5,18C 267.091,31.576 290.591,50.4094 310,74.5C 323.365,94.1173 332.532,115.451 337.5,138.5 Z M 174.5,129.5 C 189.059,133.861 201.892,141.195 213,151.5C 219.406,159.392 220.239,167.892 215.5,177C 212.508,179.11 209.175,180.443 205.5,181C 183.597,183.399 162.263,181.066 141.5,174C 136.718,171.927 134.551,168.427 135,163.5C 143.744,156.878 152.578,150.378 161.5,144C 166.411,139.594 170.745,134.76 174.5,129.5 Z"/></g>
<g><path style="opacity:0.953" fill="#595959" d="M 194.5,15.5 C 196.898,15.2594 198.898,15.9261 200.5,17.5C 198.102,17.7406 196.102,17.0739 194.5,15.5 Z"/></g>
<g><path style="opacity:1" fill="#838380" d="M 30.5,31.5 C 51.7919,29.1562 71.1252,33.9895 88.5,46C 98.5997,55.6998 104.266,67.5331 105.5,81.5C 105.851,89.9822 102.517,96.4822 95.5,101C 84.7009,106.048 73.3676,107.714 61.5,106C 50.8909,103.853 40.8909,100.186 31.5,95C 22.3341,85.5024 16.1674,74.3358 13,61.5C 11.7478,56.2352 10.9145,50.9018 10.5,45.5C 10.288,42.9886 10.9546,40.8219 12.5,39C 18.2941,35.797 24.2941,33.297 30.5,31.5 Z"/></g>
<g><path style="opacity:1" fill="#c2d089" d="M 71.5,38.5 C 71.8333,39.1667 72.1667,39.8333 72.5,40.5C 56.8862,35.4626 40.8862,34.1292 24.5,36.5C 30.3126,34.1706 36.4793,33.1706 43,33.5C 52.8549,33.8475 62.3549,35.5142 71.5,38.5 Z"/></g>
<g><path style="opacity:1" fill="#1c8672" d="M 94.5,63.5 C 92.2869,64.6053 90.1203,64.6053 88,63.5C 87.1729,64.6621 86.3396,65.8288 85.5,67C 85.6667,67.5 85.8333,68 86,68.5C 86.9653,66.7397 88.132,66.4063 89.5,67.5C 88.3147,68.853 86.9814,70.0197 85.5,71C 87.0846,71.0848 88.4179,71.2514 89.5,71.5C 86.6213,72.8026 85.9546,74.8026 87.5,77.5C 86.7376,77.9106 85.7376,78.0773 84.5,78C 85.8213,79.5445 85.4879,80.7112 83.5,81.5C 83.0024,80.3966 82.6691,79.3966 82.5,78.5C 81.8333,79.1667 81.1667,79.8333 80.5,80.5C 80.1667,80.1667 79.8333,79.8333 79.5,79.5C 80.5312,78.2997 81.3645,76.9663 82,75.5C 82.6667,76.8333 83.3333,76.8333 84,75.5C 84.0343,73.8204 84.201,72.3204 84.5,71C 83.5165,70.4092 82.8499,70.7425 82.5,72C 83.4944,74.9175 82.9944,75.0842 81,72.5C 79.6667,75.1667 78.3333,75.1667 77,72.5C 76.4646,74.2705 75.6313,74.6039 74.5,73.5C 75.624,72.086 76.624,70.586 77.5,69C 74.8333,68 74.8333,67 77.5,66C 74.9003,66.4657 72.7336,67.9657 71,70.5C 70.6666,68.9532 71.1666,67.6199 72.5,66.5C 72.3333,66.1667 72.1667,65.8333 72,65.5C 71,66.5 70,67.5 69,68.5C 69.0773,67.2624 68.9106,66.2624 68.5,65.5C 67.3147,66.853 65.9814,68.0197 64.5,69C 68.1073,68.408 68.274,69.2414 65,71.5C 61.8333,70.3333 61.6667,68.8333 64.5,67C 63.3333,66.5 62.5,65.6667 62,64.5C 58.4335,67.3409 57.9335,67.0075 60.5,63.5C 58.5906,61.0865 56.2573,59.2532 53.5,58C 55.4552,57.0467 57.1218,55.7134 58.5,54C 56.5681,51.9319 54.5681,49.9319 52.5,48C 54.2251,48.4087 55.8918,48.2421 57.5,47.5C 56.7542,46.2638 56.4208,44.9305 56.5,43.5C 55.1667,43.5 53.8333,43.5 52.5,43.5C 52.719,44.675 52.3857,45.675 51.5,46.5C 49.6973,44.7953 49.0306,42.962 49.5,41C 47.8876,40.2797 46.3876,40.4464 45,41.5C 44.6258,40.5838 44.1258,39.7504 43.5,39C 39.5,38.3333 35.5,38.3333 31.5,39C 34.5385,42.1964 34.0385,43.0298 30,41.5C 29.9974,44.716 28.8308,47.3826 26.5,49.5C 27.5881,53.3863 28.4215,53.3863 29,49.5C 29.3333,50.1667 29.6667,50.8333 30,51.5C 33.2073,48.8498 33.7073,49.0165 31.5,52C 33.3008,52.3173 33.6341,52.984 32.5,54C 33.3081,54.3076 33.9747,54.8076 34.5,55.5C 33.3595,56.4255 33.3595,57.2588 34.5,58C 33.8333,58.3333 33.1667,58.6667 32.5,59C 33.7659,59.3095 34.9326,59.8095 36,60.5C 36.3333,59.5 36.6667,58.5 37,57.5C 38,58.5 39,59.5 40,60.5C 41,59.8333 42,59.1667 43,58.5C 42.29,60.22 41.1233,61.8867 39.5,63.5C 41.7313,66.9499 43.898,66.6166 46,62.5C 47.8272,64.5861 47.8272,66.5861 46,68.5C 44.9354,66.6037 44.1021,66.437 43.5,68C 44.0069,70.3413 45.1735,70.8413 47,69.5C 48.1097,71.3969 48.2764,73.2302 47.5,75C 49.0761,74.8481 50.4095,74.0148 51.5,72.5C 52.6825,74.6454 54.1825,74.6454 56,72.5C 55.621,74.075 55.7877,75.575 56.5,77C 54.7295,77.5354 54.3961,78.3687 55.5,79.5C 57.1634,78.1246 58.4968,78.458 59.5,80.5C 62.6765,76.3905 63.8431,76.7238 63,81.5C 61.3908,80.8499 59.8908,81.3499 58.5,83C 60.7064,82.7145 62.8731,82.5479 65,82.5C 65.658,84.108 65.158,85.2747 63.5,86C 64,86.1667 64.5,86.3333 65,86.5C 66.0567,85.3726 67.2234,84.8726 68.5,85C 67.6243,86.5848 66.2909,87.5848 64.5,88C 65.5,88.3333 66.5,88.6667 67.5,89C 65.981,90.3513 64.6477,91.8513 63.5,93.5C 64.2624,93.9106 65.2624,94.0773 66.5,94C 67.199,95.481 67.199,97.3143 66.5,99.5C 70.7649,100.439 75.0983,100.772 79.5,100.5C 74.3497,101.651 69.0164,101.817 63.5,101C 59.6224,99.5302 55.6224,98.6969 51.5,98.5C 42.569,96.2771 35.069,91.6104 29,84.5C 20.9997,71.9953 16.833,58.3287 16.5,43.5C 20.7906,40.7904 25.4573,38.9571 30.5,38C 42.2592,37.0648 53.9259,37.7315 65.5,40C 78.7338,43.5943 88.4005,51.4276 94.5,63.5 Z"/></g>
<g><path style="opacity:1" fill="#aac267" d="M 72.5,40.5 C 94.2362,50.9585 103.57,68.2918 100.5,92.5C 100.573,94.0269 99.9063,95.0269 98.5,95.5C 98.8333,93.5 99.1667,91.5 99.5,89.5C 99.666,84.1563 99.4994,78.8229 99,73.5C 98.1555,69.7708 96.6555,66.4374 94.5,63.5C 88.4005,51.4276 78.7338,43.5943 65.5,40C 53.9259,37.7315 42.2592,37.0648 30.5,38C 25.4573,38.9571 20.7906,40.7904 16.5,43.5C 15.3143,42.2946 15.3143,40.9613 16.5,39.5C 18.6845,37.4152 21.3511,36.4152 24.5,36.5C 40.8862,34.1292 56.8862,35.4626 72.5,40.5 Z"/></g>
<g><path style="opacity:1" fill="#ccd6a2" d="M 71.5,38.5 C 93.5339,47.3759 104.034,63.7092 103,87.5C 102.626,89.4913 101.793,91.158 100.5,92.5C 103.57,68.2918 94.2362,50.9585 72.5,40.5C 72.1667,39.8333 71.8333,39.1667 71.5,38.5 Z"/></g>
<g><path style="opacity:0.996" fill="#8a8b88" d="M 290.5,149.5 C 286.302,142.129 281.802,134.796 277,127.5C 258.656,107.297 237.156,91.6303 212.5,80.5C 208.615,77.7271 204.282,75.7271 199.5,74.5C 194.489,71.6665 189.156,69.3332 183.5,67.5C 175.057,63.1135 166.39,58.9468 157.5,55C 150.136,52.4949 142.802,49.9949 135.5,47.5C 126.611,43.0073 117.278,39.3407 107.5,36.5C 106.584,36.5427 105.917,36.8761 105.5,37.5C 104.387,38.9464 104.22,40.6131 105,42.5C 115.217,58.167 118.05,75.167 113.5,93.5C 110.908,97.4325 107.908,101.099 104.5,104.5C 98.1062,107.745 91.4395,110.411 84.5,112.5C 82.5,112.5 80.5,112.5 78.5,112.5C 89.7007,110.316 99.5341,105.316 108,97.5C 112.799,87.7055 114.466,77.3721 113,66.5C 110.162,57.3366 106.662,48.5033 102.5,40C 102.849,34.9097 105.515,33.2431 110.5,35C 153.103,50.3069 194.437,68.3069 234.5,89C 249.718,98.712 263.551,110.212 276,123.5C 283.18,130.86 288.013,139.527 290.5,149.5 Z"/></g>
<g><path style="opacity:1" fill="#c8d499" d="M 135.5,47.5 C 142.802,49.9949 150.136,52.4949 157.5,55C 166.39,58.9468 175.057,63.1135 183.5,67.5C 181.146,67.162 178.813,66.662 176.5,66C 162.836,59.6786 149.169,53.5119 135.5,47.5 Z"/></g>
<g><path style="opacity:1" fill="#69743b" d="M 105.5,37.5 C 106.82,42.4779 108.987,47.1446 112,51.5C 116.072,60.7264 117.572,70.393 116.5,80.5C 116.626,85.2216 115.626,89.5549 113.5,93.5C 118.05,75.167 115.217,58.167 105,42.5C 104.22,40.6131 104.387,38.9464 105.5,37.5 Z"/></g>
<g><path style="opacity:1" fill="#a9c269" d="M 106.5,37.5 C 115.974,41.2882 125.641,44.6216 135.5,47.5C 149.169,53.5119 162.836,59.6786 176.5,66C 178.813,66.662 181.146,67.162 183.5,67.5C 187.96,71.3875 193.293,73.7208 199.5,74.5C 201.467,76.4887 203.8,77.9887 206.5,79C 208.436,79.813 210.436,80.313 212.5,80.5C 221.44,85.7388 230.44,91.0721 239.5,96.5C 242.103,98.6207 244.436,100.954 246.5,103.5C 235.257,96.1234 223.591,89.29 211.5,83C 192.602,74.6036 173.602,66.437 154.5,58.5C 138.839,51.9514 123.173,45.6181 107.5,39.5C 106.662,39.1583 106.328,38.4916 106.5,37.5 Z"/></g>
<g><path style="opacity:1" fill="#c6d295" d="M 105.5,37.5 C 105.917,36.8761 106.584,36.5427 107.5,36.5C 117.278,39.3407 126.611,43.0073 135.5,47.5C 125.641,44.6216 115.974,41.2882 106.5,37.5C 106.167,37.5 105.833,37.5 105.5,37.5 Z"/></g>
<g><path style="opacity:1" fill="#c8d499" d="M 183.5,67.5 C 189.156,69.3332 194.489,71.6665 199.5,74.5C 193.293,73.7208 187.96,71.3875 183.5,67.5 Z"/></g>
<g><path style="opacity:1" fill="#1b8571" d="M 154.5,58.5 C 173.602,66.437 192.602,74.6036 211.5,83C 223.591,89.29 235.257,96.1234 246.5,103.5C 259.508,114.009 271.008,126.009 281,139.5C 282.565,143.402 284.398,147.069 286.5,150.5C 290.286,166.441 290.453,182.441 287,198.5C 285.408,202.021 283.575,205.354 281.5,208.5C 278.288,212.774 274.288,216.107 269.5,218.5C 269.021,215.265 270.021,212.265 272.5,209.5C 271.234,208.276 270.067,206.943 269,205.5C 268.075,206.047 267.242,206.713 266.5,207.5C 267.13,212.837 266.464,212.837 264.5,207.5C 265.718,206.197 265.385,205.197 263.5,204.5C 265.688,201.478 268.355,198.978 271.5,197C 269.808,195.599 269.141,193.766 269.5,191.5C 267.519,192.348 265.519,192.848 263.5,193C 266.167,192.333 266.167,191.667 263.5,191C 264.126,190.25 264.626,189.416 265,188.5C 266.488,189.196 267.988,188.862 269.5,187.5C 266.884,186.921 266.884,185.421 269.5,183C 266.972,181.983 266.972,180.816 269.5,179.5C 269.154,178.304 268.654,178.304 268,179.5C 267.333,178.5 267.333,177.5 268,176.5C 268.333,176.833 268.667,177.167 269,177.5C 269.221,174.057 270.221,173.724 272,176.5C 272.01,173.6 270.677,172.934 268,174.5C 267.667,173.5 267.333,172.5 267,171.5C 266.346,172.696 265.846,172.696 265.5,171.5C 265.977,170.522 266.643,169.689 267.5,169C 266.167,168.333 265.167,167.333 264.5,166C 266.555,163.945 268.221,161.612 269.5,159C 267.598,157.349 265.598,157.016 263.5,158C 265.024,155.642 267.024,153.809 269.5,152.5C 268.132,151.406 266.965,151.74 266,153.5C 266.947,151.651 267.613,149.651 268,147.5C 267.692,148.308 267.192,148.975 266.5,149.5C 264.623,148.197 262.957,146.697 261.5,145C 262.833,143.333 264.167,141.667 265.5,140C 263.431,139.676 263.098,138.842 264.5,137.5C 256.584,135.497 255.918,132.33 262.5,128C 262,127.833 261.5,127.667 261,127.5C 259.674,128.799 258.34,130.132 257,131.5C 257.156,128.741 258.656,126.907 261.5,126C 261,125.5 260.5,125 260,124.5C 258.333,125.5 257,126.833 256,128.5C 254.194,126.048 252.694,126.381 251.5,129.5C 250.494,129.062 250.494,128.396 251.5,127.5C 250.667,127.167 249.833,126.833 249,126.5C 247.45,126.95 245.95,127.117 244.5,127C 245.815,125.605 245.481,124.605 243.5,124C 245.199,123.607 246.699,124.107 248,125.5C 248.5,125.167 249,124.833 249.5,124.5C 247.682,123.226 246.015,121.726 244.5,120C 245.956,119.577 246.456,118.744 246,117.5C 244.992,117.018 243.825,116.852 242.5,117C 243.634,115.984 243.301,115.317 241.5,115C 244.244,111.288 243.744,110.788 240,113.5C 239.521,110.527 239.021,107.86 238.5,105.5C 237.859,107.296 236.859,108.796 235.5,110C 237.932,111.087 237.598,111.587 234.5,111.5C 234.36,109.876 235.027,108.71 236.5,108C 234.847,106.195 233.18,104.362 231.5,102.5C 229.717,103.348 229.217,104.681 230,106.5C 230.718,105.549 231.551,105.383 232.5,106C 231,107.5 229.5,109 228,110.5C 227.383,109.551 227.549,108.718 228.5,108C 227.324,106.326 225.99,104.826 224.5,103.5C 226.981,102.14 226.648,101.14 223.5,100.5C 223.716,102.899 222.549,104.899 220,106.5C 219.342,104.892 219.842,103.725 221.5,103C 220.833,102.667 220.167,102.333 219.5,102C 220.453,100.045 221.787,98.3782 223.5,97C 221.406,96.5547 219.906,97.388 219,99.5C 218.667,101.5 218.333,103.5 218,105.5C 215.31,106.459 214.976,105.792 217,103.5C 217.667,101.5 217.667,99.5 217,97.5C 216.646,99.8075 215.646,100.141 214,98.5C 212.395,99.1007 211.062,100.101 210,101.5C 209.51,100.207 209.343,98.8734 209.5,97.5C 210.978,97.762 212.311,97.4287 213.5,96.5C 212.284,95.9041 210.951,95.7374 209.5,96C 211.616,94.8293 212.282,93.3293 211.5,91.5C 210.803,93.3845 209.803,93.7178 208.5,92.5C 207.205,93.0983 205.872,93.5983 204.5,94C 204.833,94.3333 205.167,94.6667 205.5,95C 203.5,97 201.5,97 199.5,95C 201.774,92.4645 201.107,90.4645 197.5,89C 199.26,88.0347 199.594,86.868 198.5,85.5C 197.139,87.0284 195.972,88.6951 195,90.5C 193.716,89.4281 193.383,88.0948 194,86.5C 192.984,87.6341 192.317,87.3008 192,85.5C 189.266,88.2926 188.266,87.9593 189,84.5C 186.664,85.2921 186.164,86.6254 187.5,88.5C 186.855,89.646 186.022,90.646 185,91.5C 185.984,89.4021 185.651,87.4021 184,85.5C 182.482,85.9426 181.315,85.2759 180.5,83.5C 180.264,84.2472 179.93,85.0805 179.5,86C 183.346,87.1416 184.179,89.3082 182,92.5C 180.354,90.9452 180.021,89.2785 181,87.5C 178.264,89.0293 178.098,90.5293 180.5,92C 179,92.8333 177.833,94 177,95.5C 176.5,94.3333 175.667,93.5 174.5,93C 176.513,91.2087 176.513,89.8753 174.5,89C 175.448,88.5172 176.448,88.3505 177.5,88.5C 176.886,85.7237 176.719,83.0571 177,80.5C 175.575,81.2123 174.075,81.379 172.5,81C 171.024,83.6432 169.024,85.8099 166.5,87.5C 165.92,86.4264 166.42,85.4264 168,84.5C 168.667,83.5 168.667,82.5 168,81.5C 166.31,83.6033 164.476,85.6033 162.5,87.5C 162.167,87.1667 161.833,86.8333 161.5,86.5C 163.005,84.4962 164.672,82.6629 166.5,81C 163.862,79.2355 164.196,77.9022 167.5,77C 165.421,76.1923 163.421,76.359 161.5,77.5C 162.447,80.4491 161.28,82.4491 158,83.5C 157.517,82.552 157.351,81.552 157.5,80.5C 158.675,80.719 159.675,80.3857 160.5,79.5C 159.726,78.2888 158.893,78.2888 158,79.5C 157.667,78.8333 157.333,78.1667 157,77.5C 156.163,79.0074 154.996,79.5074 153.5,79C 156.445,76.5112 159.445,74.6778 162.5,73.5C 162.333,73.1667 162.167,72.8333 162,72.5C 158.256,75.2116 157.756,74.7116 160.5,71C 160.167,70.8333 159.833,70.6667 159.5,70.5C 158.333,72.1667 157.167,73.8333 156,75.5C 155.749,73.567 155.249,71.7337 154.5,70C 156.941,69.964 158.941,69.1307 160.5,67.5C 160.167,67.1667 159.833,66.8333 159.5,66.5C 157.477,68.1733 155.144,68.8399 152.5,68.5C 152.351,67.448 152.517,66.448 153,65.5C 154.557,66.2052 155.723,65.5385 156.5,63.5C 155.645,62.707 154.811,63.0403 154,64.5C 153.167,63.6667 152.333,62.8333 151.5,62C 152.71,60.9609 153.71,59.7942 154.5,58.5 Z"/></g>
<g><path style="opacity:1" fill="#768f3e" d="M 105.5,37.5 C 105.833,37.5 106.167,37.5 106.5,37.5C 106.328,38.4916 106.662,39.1583 107.5,39.5C 113.408,48.6547 117.075,58.6547 118.5,69.5C 117.833,73.1667 117.167,76.8333 116.5,80.5C 117.572,70.393 116.072,60.7264 112,51.5C 108.987,47.1446 106.82,42.4779 105.5,37.5 Z"/></g>
<g><path style="opacity:1" fill="#187f6d" d="M 94.5,63.5 C 96.6555,66.4374 98.1555,69.7708 99,73.5C 99.4994,78.8229 99.666,84.1563 99.5,89.5C 94.3617,95.74 87.695,99.4067 79.5,100.5C 75.0983,100.772 70.7649,100.439 66.5,99.5C 67.199,97.3143 67.199,95.481 66.5,94C 65.2624,94.0773 64.2624,93.9106 63.5,93.5C 64.6477,91.8513 65.981,90.3513 67.5,89C 66.5,88.6667 65.5,88.3333 64.5,88C 66.2909,87.5848 67.6243,86.5848 68.5,85C 67.2234,84.8726 66.0567,85.3726 65,86.5C 64.5,86.3333 64,86.1667 63.5,86C 65.158,85.2747 65.658,84.108 65,82.5C 62.8731,82.5479 60.7064,82.7145 58.5,83C 59.8908,81.3499 61.3908,80.8499 63,81.5C 63.8431,76.7238 62.6765,76.3905 59.5,80.5C 58.4968,78.458 57.1634,78.1246 55.5,79.5C 54.3961,78.3687 54.7295,77.5354 56.5,77C 55.7877,75.575 55.621,74.075 56,72.5C 54.1825,74.6454 52.6825,74.6454 51.5,72.5C 50.4095,74.0148 49.0761,74.8481 47.5,75C 48.2764,73.2302 48.1097,71.3969 47,69.5C 45.1735,70.8413 44.0069,70.3413 43.5,68C 44.1021,66.437 44.9354,66.6037 46,68.5C 47.8272,66.5861 47.8272,64.5861 46,62.5C 43.898,66.6166 41.7313,66.9499 39.5,63.5C 41.1233,61.8867 42.29,60.22 43,58.5C 42,59.1667 41,59.8333 40,60.5C 39,59.5 38,58.5 37,57.5C 36.6667,58.5 36.3333,59.5 36,60.5C 34.9326,59.8095 33.7659,59.3095 32.5,59C 33.1667,58.6667 33.8333,58.3333 34.5,58C 33.3595,57.2588 33.3595,56.4255 34.5,55.5C 33.9747,54.8076 33.3081,54.3076 32.5,54C 33.6341,52.984 33.3008,52.3173 31.5,52C 33.7073,49.0165 33.2073,48.8498 30,51.5C 29.6667,50.8333 29.3333,50.1667 29,49.5C 28.4215,53.3863 27.5881,53.3863 26.5,49.5C 28.8308,47.3826 29.9974,44.716 30,41.5C 34.0385,43.0298 34.5385,42.1964 31.5,39C 35.5,38.3333 39.5,38.3333 43.5,39C 44.1258,39.7504 44.6258,40.5838 45,41.5C 46.3876,40.4464 47.8876,40.2797 49.5,41C 49.0306,42.962 49.6973,44.7953 51.5,46.5C 52.3857,45.675 52.719,44.675 52.5,43.5C 53.8333,43.5 55.1667,43.5 56.5,43.5C 56.4208,44.9305 56.7542,46.2638 57.5,47.5C 55.8918,48.2421 54.2251,48.4087 52.5,48C 54.5681,49.9319 56.5681,51.9319 58.5,54C 57.1218,55.7134 55.4552,57.0467 53.5,58C 56.2573,59.2532 58.5906,61.0865 60.5,63.5C 57.9335,67.0075 58.4335,67.3409 62,64.5C 62.5,65.6667 63.3333,66.5 64.5,67C 61.6667,68.8333 61.8333,70.3333 65,71.5C 68.274,69.2414 68.1073,68.408 64.5,69C 65.9814,68.0197 67.3147,66.853 68.5,65.5C 68.9106,66.2624 69.0773,67.2624 69,68.5C 70,67.5 71,66.5 72,65.5C 72.1667,65.8333 72.3333,66.1667 72.5,66.5C 71.1666,67.6199 70.6666,68.9532 71,70.5C 72.7336,67.9657 74.9003,66.4657 77.5,66C 74.8333,67 74.8333,68 77.5,69C 76.624,70.586 75.624,72.086 74.5,73.5C 75.6313,74.6039 76.4646,74.2705 77,72.5C 78.3333,75.1667 79.6667,75.1667 81,72.5C 82.9944,75.0842 83.4944,74.9175 82.5,72C 82.8499,70.7425 83.5165,70.4092 84.5,71C 84.201,72.3204 84.0343,73.8204 84,75.5C 83.3333,76.8333 82.6667,76.8333 82,75.5C 81.3645,76.9663 80.5312,78.2997 79.5,79.5C 79.8333,79.8333 80.1667,80.1667 80.5,80.5C 81.1667,79.8333 81.8333,79.1667 82.5,78.5C 82.6691,79.3966 83.0024,80.3966 83.5,81.5C 85.4879,80.7112 85.8213,79.5445 84.5,78C 85.7376,78.0773 86.7376,77.9106 87.5,77.5C 85.9546,74.8026 86.6213,72.8026 89.5,71.5C 88.4179,71.2514 87.0846,71.0848 85.5,71C 86.9814,70.0197 88.3147,68.853 89.5,67.5C 88.132,66.4063 86.9653,66.7397 86,68.5C 85.8333,68 85.6667,67.5 85.5,67C 86.3396,65.8288 87.1729,64.6621 88,63.5C 90.1203,64.6053 92.2869,64.6053 94.5,63.5 Z"/></g>
<g><path style="opacity:1" fill="#6b763c" d="M 14.5,40.5 C 14.2631,61.8335 21.5964,79.8335 36.5,94.5C 33.0108,93.5231 30.1775,91.5231 28,88.5C 17.8569,73.9263 13.3569,57.9263 14.5,40.5 Z"/></g>
<g><path style="opacity:1" fill="#839e44" d="M 16.5,39.5 C 15.3143,40.9613 15.3143,42.2946 16.5,43.5C 16.833,58.3287 20.9997,71.9953 29,84.5C 35.069,91.6104 42.569,96.2771 51.5,98.5C 46.2785,97.9448 41.2785,96.6115 36.5,94.5C 21.5964,79.8335 14.2631,61.8335 14.5,40.5C 14.8417,39.6618 15.5084,39.3284 16.5,39.5 Z"/></g>
<g><path style="opacity:1" fill="#c9d59b" d="M 199.5,74.5 C 204.282,75.7271 208.615,77.7271 212.5,80.5C 210.436,80.313 208.436,79.813 206.5,79C 203.8,77.9887 201.467,76.4887 199.5,74.5 Z"/></g>
<g><path style="opacity:1" fill="#869f45" d="M 118.5,69.5 C 118.663,76.5473 118.163,83.5473 117,90.5C 116.613,93.5994 115.446,96.266 113.5,98.5C 113.565,98.0618 113.399,97.7284 113,97.5C 110.564,100.447 107.731,102.78 104.5,104.5C 107.908,101.099 110.908,97.4325 113.5,93.5C 115.626,89.5549 116.626,85.2216 116.5,80.5C 117.167,76.8333 117.833,73.1667 118.5,69.5 Z"/></g>
<g><path style="opacity:1" fill="#858582" d="M 194.5,15.5 C 196.102,17.0739 198.102,17.7406 200.5,17.5C 217.739,19.7278 234.072,24.8945 249.5,33C 269.763,45.9195 287.596,61.7528 303,80.5C 312.544,94.3896 319.878,109.39 325,125.5C 329.615,141.855 329.615,158.189 325,174.5C 323.789,177.759 321.956,180.592 319.5,183C 316.653,183.944 314.153,183.444 312,181.5C 311.501,156.668 303.834,134.335 289,114.5C 258.334,83.8526 222.168,62.3526 180.5,50C 177.751,48.8773 175.251,47.3773 173,45.5C 172.051,35.4002 172.385,25.4002 174,15.5C 175.739,14.1057 177.739,13.4391 180,13.5C 184.797,14.4932 189.63,15.1598 194.5,15.5 Z"/></g>
<g><path style="opacity:1" fill="#67703f" d="M 253.5,81.5 C 258.782,84.1454 263.782,87.312 268.5,91C 269.252,91.6708 269.586,92.5041 269.5,93.5C 263.878,89.8777 258.545,85.8777 253.5,81.5 Z"/></g>
<g><path style="opacity:1" fill="#7d9640" d="M 176.5,16.5 C 176.833,16.5 177.167,16.5 177.5,16.5C 177.263,17.791 177.596,18.791 178.5,19.5C 178.169,27.5277 178.502,35.5277 179.5,43.5C 221.983,56.3153 259.149,77.982 291,108.5C 306.638,128.745 315.805,151.411 318.5,176.5C 317.766,177.708 317.433,179.041 317.5,180.5C 316.778,180.082 316.278,179.416 316,178.5C 315.714,170.739 314.714,163.072 313,155.5C 312.295,152.524 311.129,149.858 309.5,147.5C 303.34,124.031 290.007,106.031 269.5,93.5C 269.586,92.5041 269.252,91.6708 268.5,91C 263.782,87.312 258.782,84.1454 253.5,81.5C 250.197,77.8442 246.197,75.1775 241.5,73.5C 236.632,71.6185 232.299,68.9518 228.5,65.5C 222.936,62.7178 217.269,59.8844 211.5,57C 206.003,54.5814 200.336,52.7481 194.5,51.5C 188.671,49.1528 182.838,46.4861 177,43.5C 176.5,34.5062 176.334,25.5062 176.5,16.5 Z"/></g>
<g><path style="opacity:1" fill="#68723e" d="M 241.5,73.5 C 246.197,75.1775 250.197,77.8442 253.5,81.5C 248.803,79.8225 244.803,77.1558 241.5,73.5 Z"/></g>
<g><path style="opacity:1" fill="#abc56c" d="M 239.5,33.5 C 242.407,33.5752 245.073,34.4086 247.5,36C 266.576,49.0802 283.743,64.2468 299,81.5C 310.062,96.6202 317.562,113.287 321.5,131.5C 315.54,112.25 306.374,94.5832 294,78.5C 277.974,60.6154 259.807,45.6154 239.5,33.5 Z"/></g>
<g><path style="opacity:1" fill="#6c7640" d="M 194.5,51.5 C 200.336,52.7481 206.003,54.5814 211.5,57C 217.269,59.8844 222.936,62.7178 228.5,65.5C 216.639,61.8958 205.305,57.2292 194.5,51.5 Z"/></g>
<g><path style="opacity:1" fill="#1a826f" d="M 178.5,19.5 C 183.887,19.4054 189.22,19.9054 194.5,21C 204.105,23.4803 213.772,25.647 223.5,27.5C 228.681,29.6745 234.014,31.6745 239.5,33.5C 259.807,45.6154 277.974,60.6154 294,78.5C 306.374,94.5832 315.54,112.25 321.5,131.5C 322.574,142.473 322.74,153.473 322,164.5C 321.116,168.596 319.95,172.596 318.5,176.5C 315.805,151.411 306.638,128.745 291,108.5C 259.149,77.982 221.983,56.3153 179.5,43.5C 178.502,35.5277 178.169,27.5277 178.5,19.5 Z"/></g>
<g><path style="opacity:1" fill="#6c7641" d="M 176.5,16.5 C 176.334,25.5062 176.5,34.5062 177,43.5C 182.838,46.4861 188.671,49.1528 194.5,51.5C 187.548,50.4412 181.048,48.1079 175,44.5C 174.333,35.8333 174.333,27.1667 175,18.5C 175.278,17.5842 175.778,16.9175 176.5,16.5 Z"/></g>
<g><path style="opacity:1" fill="#a7c365" d="M 223.5,27.5 C 229.728,27.3506 235.061,29.3506 239.5,33.5C 234.014,31.6745 228.681,29.6745 223.5,27.5 Z"/></g>
<g><path style="opacity:1" fill="#afc56b" d="M 178.5,19.5 C 183.975,18.5111 189.642,18.1778 195.5,18.5C 202.381,21.0484 209.714,22.7151 217.5,23.5C 218.5,23.5 219.5,23.5 220.5,23.5C 222.229,24.2362 223.229,25.5695 223.5,27.5C 213.772,25.647 204.105,23.4803 194.5,21C 189.22,19.9054 183.887,19.4054 178.5,19.5 Z"/></g>
<g><path style="opacity:1" fill="#c6d390" d="M 195.5,18.5 C 203.149,19.2478 210.482,20.9144 217.5,23.5C 209.714,22.7151 202.381,21.0484 195.5,18.5 Z"/></g>
<g><path style="opacity:1" fill="#bbca7d" d="M 177.5,16.5 C 182.179,16.3342 186.845,16.5008 191.5,17C 193.058,17.21 194.391,17.71 195.5,18.5C 189.642,18.1778 183.975,18.5111 178.5,19.5C 177.596,18.791 177.263,17.791 177.5,16.5 Z"/></g>
<g><path style="opacity:1" fill="#727c47" d="M 36.5,94.5 C 41.2785,96.6115 46.2785,97.9448 51.5,98.5C 53.5707,99.9451 55.904,100.945 58.5,101.5C 59.5,102.167 60.5,102.833 61.5,103.5C 54.6826,102.295 48.0159,100.462 41.5,98C 39.4156,97.3028 37.7489,96.1361 36.5,94.5 Z"/></g>
<g><path style="opacity:1" fill="#91a949" d="M 99.5,89.5 C 99.1667,91.5 98.8333,93.5 98.5,95.5C 94.3755,99.467 89.3755,101.8 83.5,102.5C 75.1329,102.705 66.7996,102.371 58.5,101.5C 55.904,100.945 53.5707,99.9451 51.5,98.5C 55.6224,98.6969 59.6224,99.5302 63.5,101C 69.0164,101.817 74.3497,101.651 79.5,100.5C 87.695,99.4067 94.3617,95.74 99.5,89.5 Z"/></g>
<g><path style="opacity:1" fill="#818e47" d="M 58.5,101.5 C 66.7996,102.371 75.1329,102.705 83.5,102.5C 76.3684,104.684 69.0351,105.018 61.5,103.5C 60.5,102.833 59.5,102.167 58.5,101.5 Z"/></g>
<g><path style="opacity:1" fill="#cdd8a1" d="M 220.5,23.5 C 227.239,25.3652 233.905,27.5318 240.5,30C 269.201,46.7024 292.701,68.8691 311,96.5C 316.473,107.789 321.139,119.455 325,131.5C 326.478,142.127 326.812,152.794 326,163.5C 325.428,167.163 324.262,170.497 322.5,173.5C 324.433,161.917 324.933,150.25 324,138.5C 323.844,135.809 323.011,133.476 321.5,131.5C 317.562,113.287 310.062,96.6202 299,81.5C 283.743,64.2468 266.576,49.0802 247.5,36C 245.073,34.4086 242.407,33.5752 239.5,33.5C 235.061,29.3506 229.728,27.3506 223.5,27.5C 223.229,25.5695 222.229,24.2362 220.5,23.5 Z"/></g>
<g><path style="opacity:1" fill="#9fb555" d="M 113.5,98.5 C 112.094,101.414 110.094,103.914 107.5,106C 97.6716,113.25 86.6716,117.083 74.5,117.5C 75.9133,116.065 77.58,115.065 79.5,114.5C 81.1667,113.833 82.8333,113.167 84.5,112.5C 91.4395,110.411 98.1062,107.745 104.5,104.5C 107.731,102.78 110.564,100.447 113,97.5C 113.399,97.7284 113.565,98.0618 113.5,98.5 Z"/></g>
<g><path style="opacity:1" fill="#989b8c" d="M 78.5,112.5 C 80.5,112.5 82.5,112.5 84.5,112.5C 82.8333,113.167 81.1667,113.833 79.5,114.5C 74.1839,115.296 68.8506,115.963 63.5,116.5C 66.4083,115.184 69.4083,114.184 72.5,113.5C 74.3792,112.659 76.3792,112.325 78.5,112.5 Z"/></g>
<g><path style="opacity:1" fill="#a9c269" d="M 246.5,103.5 C 250.202,105.024 253.536,107.19 256.5,110C 264.042,117.374 271.375,124.874 278.5,132.5C 282.266,138.031 284.933,144.031 286.5,150.5C 284.398,147.069 282.565,143.402 281,139.5C 271.008,126.009 259.508,114.009 246.5,103.5 Z"/></g>
<g><path style="opacity:1" fill="#b6c576" d="M 79.5,114.5 C 77.58,115.065 75.9133,116.065 74.5,117.5C 62.8416,118.291 51.175,118.958 39.5,119.5C 47.3081,118.075 55.3081,117.075 63.5,116.5C 68.8506,115.963 74.1839,115.296 79.5,114.5 Z"/></g>
<g><path style="opacity:1" fill="#a0ba57" d="M 74.5,117.5 C 63.0885,120.217 51.4218,122.217 39.5,123.5C 37.9617,125.243 36.9617,127.243 36.5,129.5C 36.6716,130.492 36.3382,131.158 35.5,131.5C 35.5004,127.507 36.5004,123.841 38.5,120.5C 38.5,119.833 38.8333,119.5 39.5,119.5C 51.175,118.958 62.8416,118.291 74.5,117.5 Z"/></g>
<g><path style="opacity:1" fill="#667139" d="M 269.5,93.5 C 290.007,106.031 303.34,124.031 309.5,147.5C 304.915,135.387 298.749,124.054 291,113.5C 284.238,106.233 277.072,99.5659 269.5,93.5 Z"/></g>
<g><path style="opacity:1" fill="#6b773b" d="M 34.5,126.5 C 32.3627,144.721 33.5294,162.721 38,180.5C 40,183.833 42,187.167 44,190.5C 47.3709,193.703 50.5375,197.036 53.5,200.5C 39.8882,191.285 33.0549,178.285 33,161.5C 32.3333,150.833 32.3333,140.167 33,129.5C 33.2321,128.263 33.7321,127.263 34.5,126.5 Z"/></g>
<g><path style="opacity:1" fill="#ccd79f" d="M 212.5,80.5 C 237.156,91.6303 258.656,107.297 277,127.5C 281.802,134.796 286.302,142.129 290.5,149.5C 293.753,164.735 294.253,180.068 292,195.5C 290.981,198.872 289.481,201.872 287.5,204.5C 287.819,200.864 288.985,197.531 291,194.5C 291.87,182.124 291.536,169.791 290,157.5C 289.478,154.719 288.311,152.385 286.5,150.5C 284.933,144.031 282.266,138.031 278.5,132.5C 271.375,124.874 264.042,117.374 256.5,110C 253.536,107.19 250.202,105.024 246.5,103.5C 244.436,100.954 242.103,98.6207 239.5,96.5C 230.44,91.0721 221.44,85.7388 212.5,80.5 Z"/></g>
<g><path style="opacity:1" fill="#1a8673" d="M 73.5,207.5 C 49.7102,200.874 37.2102,185.207 36,160.5C 35.5002,150.839 35.3335,141.172 35.5,131.5C 36.3382,131.158 36.6716,130.492 36.5,129.5C 38.1132,129.056 39.2798,128.056 40,126.5C 41.5826,128.993 43.0826,128.826 44.5,126C 46.2182,125.654 47.8849,125.154 49.5,124.5C 50.5,125.5 51.5,126.5 52.5,127.5C 52.1203,129.021 51.9536,130.687 52,132.5C 49.7323,133.076 48.7323,134.41 49,136.5C 49.9653,134.74 51.132,134.406 52.5,135.5C 51.9747,136.192 51.3081,136.692 50.5,137C 51.4162,137.374 52.2496,137.874 53,138.5C 53.1962,136.714 54.0295,135.381 55.5,134.5C 55.4496,135.848 55.783,137.348 56.5,139C 54.027,141.473 51.527,143.973 49,146.5C 48.3828,145.551 48.5494,144.718 49.5,144C 48.6683,143.312 48.0016,143.479 47.5,144.5C 47.0233,145.478 46.3567,146.311 45.5,147C 48.028,148.017 48.028,149.184 45.5,150.5C 46.7185,150.109 47.5518,150.776 48,152.5C 48.2163,150.616 48.883,148.949 50,147.5C 50.1492,150.279 50.9826,150.779 52.5,149C 54.8333,148.333 57.1667,148.333 59.5,149C 57.5448,149.953 55.8782,151.287 54.5,153C 54.8887,154.618 56.222,155.785 58.5,156.5C 55.972,157.517 55.972,158.684 58.5,160C 56.9926,160.837 56.4926,162.004 57,163.5C 58.3402,162.132 59.6736,160.799 61,159.5C 61.5,159.667 62,159.833 62.5,160C 61.6433,160.689 60.9767,161.522 60.5,162.5C 62.2313,164.345 63.898,166.178 65.5,168C 65.2409,169.261 64.5742,170.261 63.5,171C 64.4491,171.617 65.2825,171.451 66,170.5C 68.2149,174.109 67.8816,174.775 65,172.5C 62.7095,174.94 62.2095,177.607 63.5,180.5C 64.2508,179.624 64.7508,178.624 65,177.5C 65.3333,178.167 65.6667,178.833 66,179.5C 66.7175,178.549 67.5509,178.383 68.5,179C 68.3775,180.789 68.3775,182.622 68.5,184.5C 66.8608,185.916 66.0275,187.583 66,189.5C 67.9812,185.639 69.8145,185.639 71.5,189.5C 71.0233,190.478 70.3567,191.311 69.5,192C 69.8333,192.167 70.1667,192.333 70.5,192.5C 72.1133,190.877 73.78,189.71 75.5,189C 74.5467,190.955 73.2134,192.622 71.5,194C 73.9913,194.626 73.9913,195.459 71.5,196.5C 72.0253,197.192 72.6919,197.692 73.5,198C 73.1667,198.333 72.8333,198.667 72.5,199C 75.458,201.117 76.1247,200.451 74.5,197C 77.1539,193.665 78.1539,189.831 77.5,185.5C 78.552,185.351 79.552,185.517 80.5,186C 78.7174,187.067 78.2174,188.567 79,190.5C 79.9138,189.346 80.7471,189.513 81.5,191C 79.6992,191.317 79.3659,191.984 80.5,193C 77.8333,194.667 77.8333,196.333 80.5,198C 79.2068,198.49 77.8734,198.657 76.5,198.5C 75.8363,200.867 74.503,202.867 72.5,204.5C 73.1272,205.417 73.4606,206.417 73.5,207.5 Z"/></g>
<g><path style="opacity:1" fill="#a8c16b" d="M 321.5,131.5 C 323.011,133.476 323.844,135.809 324,138.5C 324.933,150.25 324.433,161.917 322.5,173.5C 322.312,176.206 321.312,178.539 319.5,180.5C 318.833,180.5 318.167,180.5 317.5,180.5C 317.433,179.041 317.766,177.708 318.5,176.5C 319.95,172.596 321.116,168.596 322,164.5C 322.74,153.473 322.574,142.473 321.5,131.5 Z"/></g>
<g><path style="opacity:1" fill="#6c773e" d="M 309.5,147.5 C 311.129,149.858 312.295,152.524 313,155.5C 314.714,163.072 315.714,170.739 316,178.5C 316.278,179.416 316.778,180.082 317.5,180.5C 318.167,180.5 318.833,180.5 319.5,180.5C 317.454,181.965 315.62,181.632 314,179.5C 314.129,168.571 312.629,157.905 309.5,147.5 Z"/></g>
<g><path style="opacity:1" fill="#afc770" d="M 286.5,150.5 C 288.311,152.385 289.478,154.719 290,157.5C 291.536,169.791 291.87,182.124 291,194.5C 288.985,197.531 287.819,200.864 287.5,204.5C 285.938,208.392 283.605,211.725 280.5,214.5C 280.833,212.5 281.167,210.5 281.5,208.5C 283.575,205.354 285.408,202.021 287,198.5C 290.453,182.441 290.286,166.441 286.5,150.5 Z"/></g>
<g><path style="opacity:1" fill="#8e8f88" d="M 290.5,149.5 C 305.112,201.397 285.445,230.231 231.5,236C 222.173,236.5 212.839,236.666 203.5,236.5C 203.5,235.833 203.5,235.167 203.5,234.5C 218.669,235.257 233.669,234.09 248.5,231C 252.163,230.428 255.497,229.262 258.5,227.5C 266.831,224.831 274.165,220.498 280.5,214.5C 283.605,211.725 285.938,208.392 287.5,204.5C 289.481,201.872 290.981,198.872 292,195.5C 294.253,180.068 293.753,164.735 290.5,149.5 Z"/></g>
<g><path style="opacity:1" fill="#819c43" d="M 38.5,120.5 C 36.5004,123.841 35.5004,127.507 35.5,131.5C 35.3335,141.172 35.5002,150.839 36,160.5C 37.2102,185.207 49.7102,200.874 73.5,207.5C 84.5515,211.668 95.5515,215.668 106.5,219.5C 102.116,218.99 97.7823,218.157 93.5,217C 79.7099,212.571 66.3765,207.071 53.5,200.5C 50.5375,197.036 47.3709,193.703 44,190.5C 42,187.167 40,183.833 38,180.5C 33.5294,162.721 32.3627,144.721 34.5,126.5C 34.8449,123.802 36.1782,121.802 38.5,120.5 Z"/></g>
<g><path style="opacity:1" fill="#187f6d" d="M 107.5,39.5 C 123.173,45.6181 138.839,51.9514 154.5,58.5C 153.71,59.7942 152.71,60.9609 151.5,62C 152.333,62.8333 153.167,63.6667 154,64.5C 154.811,63.0403 155.645,62.707 156.5,63.5C 155.723,65.5385 154.557,66.2052 153,65.5C 152.517,66.448 152.351,67.448 152.5,68.5C 155.144,68.8399 157.477,68.1733 159.5,66.5C 159.833,66.8333 160.167,67.1667 160.5,67.5C 158.941,69.1307 156.941,69.964 154.5,70C 155.249,71.7337 155.749,73.567 156,75.5C 157.167,73.8333 158.333,72.1667 159.5,70.5C 159.833,70.6667 160.167,70.8333 160.5,71C 157.756,74.7116 158.256,75.2116 162,72.5C 162.167,72.8333 162.333,73.1667 162.5,73.5C 159.445,74.6778 156.445,76.5112 153.5,79C 154.996,79.5074 156.163,79.0074 157,77.5C 157.333,78.1667 157.667,78.8333 158,79.5C 158.893,78.2888 159.726,78.2888 160.5,79.5C 159.675,80.3857 158.675,80.719 157.5,80.5C 157.351,81.552 157.517,82.552 158,83.5C 161.28,82.4491 162.447,80.4491 161.5,77.5C 163.421,76.359 165.421,76.1923 167.5,77C 164.196,77.9022 163.862,79.2355 166.5,81C 164.672,82.6629 163.005,84.4962 161.5,86.5C 161.833,86.8333 162.167,87.1667 162.5,87.5C 164.476,85.6033 166.31,83.6033 168,81.5C 168.667,82.5 168.667,83.5 168,84.5C 166.42,85.4264 165.92,86.4264 166.5,87.5C 169.024,85.8099 171.024,83.6432 172.5,81C 174.075,81.379 175.575,81.2123 177,80.5C 176.719,83.0571 176.886,85.7237 177.5,88.5C 176.448,88.3505 175.448,88.5172 174.5,89C 176.513,89.8753 176.513,91.2087 174.5,93C 175.667,93.5 176.5,94.3333 177,95.5C 177.833,94 179,92.8333 180.5,92C 178.098,90.5293 178.264,89.0293 181,87.5C 180.021,89.2785 180.354,90.9452 182,92.5C 184.179,89.3082 183.346,87.1416 179.5,86C 179.93,85.0805 180.264,84.2472 180.5,83.5C 181.315,85.2759 182.482,85.9426 184,85.5C 185.651,87.4021 185.984,89.4021 185,91.5C 186.022,90.646 186.855,89.646 187.5,88.5C 186.164,86.6254 186.664,85.2921 189,84.5C 188.266,87.9593 189.266,88.2926 192,85.5C 192.317,87.3008 192.984,87.6341 194,86.5C 193.383,88.0948 193.716,89.4281 195,90.5C 195.972,88.6951 197.139,87.0284 198.5,85.5C 199.594,86.868 199.26,88.0347 197.5,89C 201.107,90.4645 201.774,92.4645 199.5,95C 201.5,97 203.5,97 205.5,95C 205.167,94.6667 204.833,94.3333 204.5,94C 205.872,93.5983 207.205,93.0983 208.5,92.5C 209.803,93.7178 210.803,93.3845 211.5,91.5C 212.282,93.3293 211.616,94.8293 209.5,96C 210.951,95.7374 212.284,95.9041 213.5,96.5C 212.311,97.4287 210.978,97.762 209.5,97.5C 209.343,98.8734 209.51,100.207 210,101.5C 211.062,100.101 212.395,99.1007 214,98.5C 215.646,100.141 216.646,99.8075 217,97.5C 217.667,99.5 217.667,101.5 217,103.5C 214.976,105.792 215.31,106.459 218,105.5C 218.333,103.5 218.667,101.5 219,99.5C 219.906,97.388 221.406,96.5547 223.5,97C 221.787,98.3782 220.453,100.045 219.5,102C 220.167,102.333 220.833,102.667 221.5,103C 219.842,103.725 219.342,104.892 220,106.5C 222.549,104.899 223.716,102.899 223.5,100.5C 226.648,101.14 226.981,102.14 224.5,103.5C 225.99,104.826 227.324,106.326 228.5,108C 227.549,108.718 227.383,109.551 228,110.5C 229.5,109 231,107.5 232.5,106C 231.551,105.383 230.718,105.549 230,106.5C 229.217,104.681 229.717,103.348 231.5,102.5C 233.18,104.362 234.847,106.195 236.5,108C 235.027,108.71 234.36,109.876 234.5,111.5C 237.598,111.587 237.932,111.087 235.5,110C 236.859,108.796 237.859,107.296 238.5,105.5C 239.021,107.86 239.521,110.527 240,113.5C 243.744,110.788 244.244,111.288 241.5,115C 243.301,115.317 243.634,115.984 242.5,117C 243.825,116.852 244.992,117.018 246,117.5C 246.456,118.744 245.956,119.577 244.5,120C 246.015,121.726 247.682,123.226 249.5,124.5C 249,124.833 248.5,125.167 248,125.5C 246.699,124.107 245.199,123.607 243.5,124C 245.481,124.605 245.815,125.605 244.5,127C 245.95,127.117 247.45,126.95 249,126.5C 249.833,126.833 250.667,127.167 251.5,127.5C 250.494,128.396 250.494,129.062 251.5,129.5C 252.694,126.381 254.194,126.048 256,128.5C 257,126.833 258.333,125.5 260,124.5C 260.5,125 261,125.5 261.5,126C 258.656,126.907 257.156,128.741 257,131.5C 258.34,130.132 259.674,128.799 261,127.5C 261.5,127.667 262,127.833 262.5,128C 255.918,132.33 256.584,135.497 264.5,137.5C 263.098,138.842 263.431,139.676 265.5,140C 264.167,141.667 262.833,143.333 261.5,145C 262.957,146.697 264.623,148.197 266.5,149.5C 267.192,148.975 267.692,148.308 268,147.5C 267.613,149.651 266.947,151.651 266,153.5C 266.965,151.74 268.132,151.406 269.5,152.5C 267.024,153.809 265.024,155.642 263.5,158C 265.598,157.016 267.598,157.349 269.5,159C 268.221,161.612 266.555,163.945 264.5,166C 265.167,167.333 266.167,168.333 267.5,169C 266.643,169.689 265.977,170.522 265.5,171.5C 265.846,172.696 266.346,172.696 267,171.5C 267.333,172.5 267.667,173.5 268,174.5C 270.677,172.934 272.01,173.6 272,176.5C 270.221,173.724 269.221,174.057 269,177.5C 268.667,177.167 268.333,176.833 268,176.5C 267.333,177.5 267.333,178.5 268,179.5C 268.654,178.304 269.154,178.304 269.5,179.5C 266.972,180.816 266.972,181.983 269.5,183C 266.884,185.421 266.884,186.921 269.5,187.5C 267.988,188.862 266.488,189.196 265,188.5C 264.626,189.416 264.126,190.25 263.5,191C 266.167,191.667 266.167,192.333 263.5,193C 265.519,192.848 267.519,192.348 269.5,191.5C 269.141,193.766 269.808,195.599 271.5,197C 268.355,198.978 265.688,201.478 263.5,204.5C 265.385,205.197 265.718,206.197 264.5,207.5C 266.464,212.837 267.13,212.837 266.5,207.5C 267.242,206.713 268.075,206.047 269,205.5C 270.067,206.943 271.234,208.276 272.5,209.5C 270.021,212.265 269.021,215.265 269.5,218.5C 265.127,221.686 260.46,224.353 255.5,226.5C 235.405,231.014 215.071,232.514 194.5,231C 166.346,228.647 138.346,225.147 110.5,220.5C 109.432,219.566 108.099,219.232 106.5,219.5C 95.5515,215.668 84.5515,211.668 73.5,207.5C 73.4606,206.417 73.1272,205.417 72.5,204.5C 74.503,202.867 75.8363,200.867 76.5,198.5C 77.8734,198.657 79.2068,198.49 80.5,198C 77.8333,196.333 77.8333,194.667 80.5,193C 79.3659,191.984 79.6992,191.317 81.5,191C 80.7471,189.513 79.9138,189.346 79,190.5C 78.2174,188.567 78.7174,187.067 80.5,186C 79.552,185.517 78.552,185.351 77.5,185.5C 78.1539,189.831 77.1539,193.665 74.5,197C 76.1247,200.451 75.458,201.117 72.5,199C 72.8333,198.667 73.1667,198.333 73.5,198C 72.6919,197.692 72.0253,197.192 71.5,196.5C 73.9913,195.459 73.9913,194.626 71.5,194C 73.2134,192.622 74.5467,190.955 75.5,189C 73.78,189.71 72.1133,190.877 70.5,192.5C 70.1667,192.333 69.8333,192.167 69.5,192C 70.3567,191.311 71.0233,190.478 71.5,189.5C 69.8145,185.639 67.9812,185.639 66,189.5C 66.0275,187.583 66.8608,185.916 68.5,184.5C 68.3775,182.622 68.3775,180.789 68.5,179C 67.5509,178.383 66.7175,178.549 66,179.5C 65.6667,178.833 65.3333,178.167 65,177.5C 64.7508,178.624 64.2508,179.624 63.5,180.5C 62.2095,177.607 62.7095,174.94 65,172.5C 67.8816,174.775 68.2149,174.109 66,170.5C 65.2825,171.451 64.4491,171.617 63.5,171C 64.5742,170.261 65.2409,169.261 65.5,168C 63.898,166.178 62.2313,164.345 60.5,162.5C 60.9767,161.522 61.6433,160.689 62.5,160C 62,159.833 61.5,159.667 61,159.5C 59.6736,160.799 58.3402,162.132 57,163.5C 56.4926,162.004 56.9926,160.837 58.5,160C 55.972,158.684 55.972,157.517 58.5,156.5C 56.222,155.785 54.8887,154.618 54.5,153C 55.8782,151.287 57.5448,149.953 59.5,149C 57.1667,148.333 54.8333,148.333 52.5,149C 50.9826,150.779 50.1492,150.279 50,147.5C 48.883,148.949 48.2163,150.616 48,152.5C 47.5518,150.776 46.7185,150.109 45.5,150.5C 48.028,149.184 48.028,148.017 45.5,147C 46.3567,146.311 47.0233,145.478 47.5,144.5C 48.0016,143.479 48.6683,143.312 49.5,144C 48.5494,144.718 48.3828,145.551 49,146.5C 51.527,143.973 54.027,141.473 56.5,139C 55.783,137.348 55.4496,135.848 55.5,134.5C 54.0295,135.381 53.1962,136.714 53,138.5C 52.2496,137.874 51.4162,137.374 50.5,137C 51.3081,136.692 51.9747,136.192 52.5,135.5C 51.132,134.406 49.9653,134.74 49,136.5C 48.7323,134.41 49.7323,133.076 52,132.5C 51.9536,130.687 52.1203,129.021 52.5,127.5C 51.5,126.5 50.5,125.5 49.5,124.5C 47.8849,125.154 46.2182,125.654 44.5,126C 43.0826,128.826 41.5826,128.993 40,126.5C 39.2798,128.056 38.1132,129.056 36.5,129.5C 36.9617,127.243 37.9617,125.243 39.5,123.5C 51.4218,122.217 63.0885,120.217 74.5,117.5C 86.6716,117.083 97.6716,113.25 107.5,106C 110.094,103.914 112.094,101.414 113.5,98.5C 115.446,96.266 116.613,93.5994 117,90.5C 118.163,83.5473 118.663,76.5473 118.5,69.5C 117.075,58.6547 113.408,48.6547 107.5,39.5 Z M 174.5,129.5 C 170.745,134.76 166.411,139.594 161.5,144C 152.578,150.378 143.744,156.878 135,163.5C 134.551,168.427 136.718,171.927 141.5,174C 162.263,181.066 183.597,183.399 205.5,181C 209.175,180.443 212.508,179.11 215.5,177C 220.239,167.892 219.406,159.392 213,151.5C 201.892,141.195 189.059,133.861 174.5,129.5 Z"/></g>
<g><path style="opacity:1" fill="#1b8571" d="M 140.5,140.5 C 136.68,143.47 132.68,146.304 128.5,149C 114.678,161.766 115.344,173.766 130.5,185C 151.205,194.007 172.871,197.84 195.5,196.5C 193.369,197.314 191.036,197.814 188.5,198C 188.833,198.333 189.167,198.667 189.5,199C 187.121,201.148 184.955,200.982 183,198.5C 182.808,200.577 182.308,202.577 181.5,204.5C 180.355,203.224 180.355,201.891 181.5,200.5C 181.167,199.5 180.5,198.833 179.5,198.5C 179.906,200.374 179.072,202.04 177,203.5C 175.667,202.833 174.667,201.833 174,200.5C 172.182,202.645 170.682,202.645 169.5,200.5C 169.07,204.359 167.07,205.026 163.5,202.5C 163.06,203.698 162.727,204.865 162.5,206C 163.678,206.967 165.011,207.467 166.5,207.5C 165.675,208.386 164.675,208.719 163.5,208.5C 163.719,209.675 163.386,210.675 162.5,211.5C 162.868,209.494 162.368,207.494 161,205.5C 159.209,207.513 157.875,207.513 157,205.5C 156.282,206.451 155.449,206.617 154.5,206C 156.833,205 159.167,204 161.5,203C 157.699,202.625 153.866,202.792 150,203.5C 150.152,201.924 150.985,200.591 152.5,199.5C 151.738,199.089 150.738,198.923 149.5,199C 150.96,198.189 151.293,197.355 150.5,196.5C 149.029,197.381 148.196,198.714 148,200.5C 146.021,200.123 144.188,198.789 142.5,196.5C 141.304,196.846 141.304,197.346 142.5,198C 139.574,198.218 136.74,198.718 134,199.5C 132.615,198.449 131.615,197.116 131,195.5C 129.89,197.037 128.39,197.703 126.5,197.5C 126.719,196.325 126.386,195.325 125.5,194.5C 125.251,195.582 125.085,196.915 125,198.5C 124.692,197.692 124.192,197.025 123.5,196.5C 118.819,200.316 118.486,199.816 122.5,195C 122.167,194.833 121.833,194.667 121.5,194.5C 118.167,194.833 114.833,195.167 111.5,195.5C 111.195,193.532 110.862,191.532 110.5,189.5C 109.251,191.475 107.751,191.809 106,190.5C 105.465,192.271 104.631,192.604 103.5,191.5C 104.115,189.884 105.115,188.551 106.5,187.5C 105.833,187.167 105.167,186.833 104.5,186.5C 105.025,185.808 105.692,185.308 106.5,185C 104.633,184.289 103.133,184.789 102,186.5C 101.837,184.613 102.671,183.113 104.5,182C 103.262,182.077 102.262,181.911 101.5,181.5C 103.167,179.5 104.833,177.5 106.5,175.5C 105.478,174.646 104.645,173.646 104,172.5C 103.167,175 102,175.167 100.5,173C 101.833,172 103.167,171 104.5,170C 103.521,168.221 103.854,166.555 105.5,165C 103.099,164.195 103.266,163.362 106,162.5C 106.684,161.216 106.517,160.049 105.5,159C 106.071,157.795 106.738,156.628 107.5,155.5C 108.396,154.494 109.062,154.494 109.5,155.5C 106.69,159.189 107.357,160.022 111.5,158C 110.549,157.282 110.383,156.449 111,155.5C 111.903,156.701 113.069,157.535 114.5,158C 112.203,159.263 111.37,161.097 112,163.5C 114.312,160.354 116.812,157.354 119.5,154.5C 118.167,153.167 118.167,151.833 119.5,150.5C 118.02,149.887 116.687,149.554 115.5,149.5C 119.735,147.449 121.902,148.782 122,153.5C 122.465,152.069 123.299,150.903 124.5,150C 124.198,148.345 122.864,147.012 120.5,146C 122.11,144.505 123.776,144.339 125.5,145.5C 127.403,143.438 129.737,142.104 132.5,141.5C 131.726,140.289 130.893,140.289 130,141.5C 128.77,140.725 128.437,139.725 129,138.5C 131.176,138.428 133.176,138.762 135,139.5C 135.451,137.071 136.285,136.904 137.5,139C 136.327,142.11 136.827,142.277 139,139.5C 139.383,140.056 139.883,140.389 140.5,140.5 Z"/></g>
<g><path style="opacity:1" fill="#a8c161" d="M 174.5,112.5 C 174.5,112.833 174.5,113.167 174.5,113.5C 172.302,113.12 170.635,113.787 169.5,115.5C 167.36,119.103 165.193,122.77 163,126.5C 154.156,135.334 144.322,142.834 133.5,149C 128.84,152.813 125.173,157.313 122.5,162.5C 120.06,170.498 122.394,176.998 129.5,182C 137.038,187.124 145.372,189.957 154.5,190.5C 154.918,191.222 155.584,191.722 156.5,192C 172.429,194.299 188.429,194.965 204.5,194C 206.653,193.901 208.319,193.067 209.5,191.5C 212.936,190.808 216.27,189.808 219.5,188.5C 221.258,188.123 222.925,187.456 224.5,186.5C 225.107,186.624 225.44,186.957 225.5,187.5C 222.525,190.661 218.858,192.828 214.5,194C 208.182,195.017 201.848,195.85 195.5,196.5C 172.871,197.84 151.205,194.007 130.5,185C 115.344,173.766 114.678,161.766 128.5,149C 132.68,146.304 136.68,143.47 140.5,140.5C 152.258,134.074 160.924,124.741 166.5,112.5C 169.126,111.551 171.792,111.551 174.5,112.5 Z"/></g>
<g><path style="opacity:1" fill="#bcca85" d="M 154.5,190.5 C 171.619,192.56 188.619,192.893 205.5,191.5C 206.833,191.5 208.167,191.5 209.5,191.5C 208.319,193.067 206.653,193.901 204.5,194C 188.429,194.965 172.429,194.299 156.5,192C 155.584,191.722 154.918,191.222 154.5,190.5 Z"/></g>
<g><path style="opacity:1" fill="#cbd897" d="M 122.5,162.5 C 121.734,168.465 123.401,173.632 127.5,178C 130.557,180.723 133.89,183.056 137.5,185C 143.389,186.575 149.056,188.409 154.5,190.5C 145.372,189.957 137.038,187.124 129.5,182C 122.394,176.998 120.06,170.498 122.5,162.5 Z"/></g>
<g><path style="opacity:1" fill="#6d7b38" d="M 228.5,151.5 C 229.79,152.058 230.623,153.058 231,154.5C 231.167,157.167 231.333,159.833 231.5,162.5C 231.6,168.825 230.6,174.825 228.5,180.5C 229.259,174.518 229.926,168.518 230.5,162.5C 230.545,158.681 229.878,155.014 228.5,151.5 Z"/></g>
<g><path style="opacity:1" fill="#6c773f" d="M 213.5,135.5 C 216.989,136.477 219.823,138.477 222,141.5C 224.437,144.72 226.603,148.053 228.5,151.5C 223.491,146.125 218.491,140.792 213.5,135.5 Z"/></g>
<g><path style="opacity:1" fill="#8e8f89" d="M 169.5,115.5 C 173.162,115.723 176.495,116.723 179.5,118.5C 178.833,118.5 178.5,118.833 178.5,119.5C 175.886,118.455 173.22,117.955 170.5,118C 167.024,125.483 162.024,131.816 155.5,137C 148.441,142.391 141.107,147.391 133.5,152C 122.318,160.294 121.651,169.294 131.5,179C 143.043,185.303 155.376,188.969 168.5,190C 178.807,191.078 189.14,191.578 199.5,191.5C 201.5,191.5 203.5,191.5 205.5,191.5C 188.619,192.893 171.619,192.56 154.5,190.5C 149.056,188.409 143.389,186.575 137.5,185C 133.89,183.056 130.557,180.723 127.5,178C 123.401,173.632 121.734,168.465 122.5,162.5C 125.173,157.313 128.84,152.813 133.5,149C 144.322,142.834 154.156,135.334 163,126.5C 165.193,122.77 167.36,119.103 169.5,115.5 Z"/></g>
<g><path style="opacity:1" fill="#87a347" d="M 206.5,128.5 C 218.485,134.319 227.318,143.319 233,155.5C 233.904,165.922 232.404,175.922 228.5,185.5C 227.5,186.167 226.5,186.833 225.5,187.5C 225.44,186.957 225.107,186.624 224.5,186.5C 222.925,187.456 221.258,188.123 219.5,188.5C 222.474,185.862 225.474,183.195 228.5,180.5C 230.6,174.825 231.6,168.825 231.5,162.5C 231.333,159.833 231.167,157.167 231,154.5C 230.623,153.058 229.79,152.058 228.5,151.5C 226.603,148.053 224.437,144.72 222,141.5C 219.823,138.477 216.989,136.477 213.5,135.5C 213.631,134.761 213.464,134.094 213,133.5C 210.648,131.97 208.481,130.303 206.5,128.5 Z"/></g>
<g><path style="opacity:0.996" fill="#838480" d="M 179.5,118.5 C 191.143,123.655 202.477,129.322 213.5,135.5C 218.491,140.792 223.491,146.125 228.5,151.5C 229.878,155.014 230.545,158.681 230.5,162.5C 229.926,168.518 229.259,174.518 228.5,180.5C 225.474,183.195 222.474,185.862 219.5,188.5C 216.27,189.808 212.936,190.808 209.5,191.5C 208.167,191.5 206.833,191.5 205.5,191.5C 203.5,191.5 201.5,191.5 199.5,191.5C 209.298,191.06 217.798,187.393 225,180.5C 227.283,172.307 227.95,163.974 227,155.5C 222.904,148.501 217.738,142.334 211.5,137C 200.407,131.123 189.407,125.29 178.5,119.5C 178.5,118.833 178.833,118.5 179.5,118.5 Z"/></g>
<g><path style="opacity:1" fill="#6e7940" d="M 174.5,113.5 C 175.791,113.263 176.791,113.596 177.5,114.5C 186.742,119.954 196.409,124.62 206.5,128.5C 208.481,130.303 210.648,131.97 213,133.5C 213.464,134.094 213.631,134.761 213.5,135.5C 202.477,129.322 191.143,123.655 179.5,118.5C 176.495,116.723 173.162,115.723 169.5,115.5C 170.635,113.787 172.302,113.12 174.5,113.5 Z"/></g>
<g><path style="opacity:1" fill="#859e41" d="M 177.5,114.5 C 187.867,117.851 197.533,122.518 206.5,128.5C 196.409,124.62 186.742,119.954 177.5,114.5 Z"/></g>
<g><path style="opacity:0.296" fill="#040404" d="M 178.5,119.5 C 189.407,125.29 200.407,131.123 211.5,137C 217.738,142.334 222.904,148.501 227,155.5C 227.95,163.974 227.283,172.307 225,180.5C 217.798,187.393 209.298,191.06 199.5,191.5C 189.14,191.578 178.807,191.078 168.5,190C 155.376,188.969 143.043,185.303 131.5,179C 121.651,169.294 122.318,160.294 133.5,152C 141.107,147.391 148.441,142.391 155.5,137C 162.024,131.816 167.024,125.483 170.5,118C 173.22,117.955 175.886,118.455 178.5,119.5 Z M 174.5,129.5 C 170.745,134.76 166.411,139.594 161.5,144C 152.578,150.378 143.744,156.878 135,163.5C 134.551,168.427 136.718,171.927 141.5,174C 162.263,181.066 183.597,183.399 205.5,181C 209.175,180.443 212.508,179.11 215.5,177C 220.239,167.892 219.406,159.392 213,151.5C 201.892,141.195 189.059,133.861 174.5,129.5 Z"/></g>
<g><path style="opacity:1" fill="#1b8672" d="M 228.5,185.5 C 232.404,175.922 233.904,165.922 233,155.5C 227.318,143.319 218.485,134.319 206.5,128.5C 197.533,122.518 187.867,117.851 177.5,114.5C 176.791,113.596 175.791,113.263 174.5,113.5C 174.5,113.167 174.5,112.833 174.5,112.5C 176.262,112.357 177.929,112.691 179.5,113.5C 183.131,111.495 185.798,109.162 187.5,106.5C 189.32,107.742 190.987,109.242 192.5,111C 190.993,111.837 190.493,113.004 191,114.5C 193,112.5 195,110.5 197,108.5C 198.077,111.953 200.244,113.12 203.5,112C 202.643,112.689 201.977,113.522 201.5,114.5C 202.711,115.72 202.711,116.887 201.5,118C 203.422,119.46 204.089,121.127 203.5,123C 205.201,123.345 206.534,122.678 207.5,121C 205.109,120.309 205.109,119.309 207.5,118C 205.77,116.148 204.604,116.314 204,118.5C 203.202,116.741 203.369,115.074 204.5,113.5C 205.833,116.167 207.167,116.167 208.5,113.5C 209.693,115.527 211.36,117.027 213.5,118C 214.212,119.425 214.379,120.925 214,122.5C 216.043,120.792 217.71,118.792 219,116.5C 218.852,117.825 219.018,118.992 219.5,120C 218.044,120.423 217.544,121.256 218,122.5C 220.129,121.137 220.629,121.471 219.5,123.5C 220,124.5 220.5,125.5 221,126.5C 221.113,124.026 222.113,122.026 224,120.5C 223.016,122.598 223.349,124.598 225,126.5C 228.566,123.659 229.066,123.992 226.5,127.5C 228,129.167 229.5,130.833 231,132.5C 231.811,131.04 232.645,130.707 233.5,131.5C 233.431,133.278 233.097,135.111 232.5,137C 234.076,136.848 235.409,136.015 236.5,134.5C 238.394,135.601 239.061,136.934 238.5,138.5C 239.243,137.092 240.077,135.759 241,134.5C 240.689,135.935 240.855,137.268 241.5,138.5C 240.833,139.5 240.167,140.5 239.5,141.5C 240.025,142.192 240.692,142.692 241.5,143C 241.165,144.503 241.165,145.836 241.5,147C 243.5,147.667 244.833,149 245.5,151C 244.289,152.113 244.289,153.28 245.5,154.5C 243.643,158.447 244.477,158.447 248,154.5C 248.333,155.167 248.667,155.833 249,156.5C 249.718,155.549 250.551,155.383 251.5,156C 250.833,158.333 250.167,160.667 249.5,163C 250.634,164.016 250.301,164.683 248.5,165C 250.053,166.097 251.386,167.43 252.5,169C 248.528,169.764 246.861,171.931 247.5,175.5C 246.418,177.784 244.752,178.95 242.5,179C 243.696,178.346 243.696,177.846 242.5,177.5C 241.201,178.09 240.368,179.09 240,180.5C 239.667,179.5 239.333,178.5 239,177.5C 238.667,177.833 238.333,178.167 238,178.5C 237.57,181.192 237.737,183.859 238.5,186.5C 237.448,186.649 236.448,186.483 235.5,186C 236.833,184.16 236.666,183.66 235,184.5C 234.692,183.692 234.192,183.025 233.5,182.5C 232.274,184.278 230.607,185.278 228.5,185.5 Z"/></g>
<g><path style="opacity:1" fill="#acc36e" d="M 36.5,205.5 C 39.4749,206.655 42.1416,208.322 44.5,210.5C 44.4142,211.496 44.7476,212.329 45.5,213C 56.8296,220.273 68.8296,226.106 81.5,230.5C 84.6565,232.677 87.9898,234.677 91.5,236.5C 85.0464,234.8 78.7131,232.633 72.5,230C 62.632,225.108 52.9654,219.941 43.5,214.5C 41.5,212.833 39.5,211.167 37.5,209.5C 37.1667,208.167 36.8333,206.833 36.5,205.5 Z"/></g>
<g><path style="opacity:1" fill="#9fb552" d="M 281.5,208.5 C 281.167,210.5 280.833,212.5 280.5,214.5C 274.165,220.498 266.831,224.831 258.5,227.5C 257.209,227.737 256.209,227.404 255.5,226.5C 260.46,224.353 265.127,221.686 269.5,218.5C 274.288,216.107 278.288,212.774 281.5,208.5 Z"/></g>
<g><path style="opacity:1" fill="#c8d39c" d="M 44.5,210.5 C 54.6798,217.254 65.3465,222.921 76.5,227.5C 78.2608,228.313 79.9275,229.313 81.5,230.5C 68.8296,226.106 56.8296,220.273 45.5,213C 44.7476,212.329 44.4142,211.496 44.5,210.5 Z"/></g>
<g><path style="opacity:1" fill="#848482" d="M 303.5,233.5 C 303.5,234.833 303.5,236.167 303.5,237.5C 302.167,234.5 300.833,231.5 299.5,228.5C 298.688,224.043 296.688,220.21 293.5,217C 292.251,216.26 291.251,216.427 290.5,217.5C 278.701,232.071 263.368,240.404 244.5,242.5C 235.572,244.252 226.572,245.585 217.5,246.5C 212.167,246.5 206.833,246.5 201.5,246.5C 220.878,244.419 240.212,241.253 259.5,237C 271.673,232.585 281.673,225.252 289.5,215C 293.26,213.824 296.093,214.99 298,218.5C 300.41,223.314 302.244,228.314 303.5,233.5 Z"/></g>
<g><path style="opacity:1" fill="#ced9a1" d="M 290.5,217.5 C 291.251,216.427 292.251,216.26 293.5,217C 296.688,220.21 298.688,224.043 299.5,228.5C 297.524,225.911 295.524,223.245 293.5,220.5C 293.144,218.81 292.144,217.81 290.5,217.5 Z"/></g>
<g><path style="opacity:1" fill="#737e44" d="M 53.5,200.5 C 66.3765,207.071 79.7099,212.571 93.5,217C 97.7823,218.157 102.116,218.99 106.5,219.5C 108.099,219.232 109.432,219.566 110.5,220.5C 118.403,222.251 126.403,224.084 134.5,226C 149.407,227.527 164.074,229.693 178.5,232.5C 151.209,230.264 124.209,226.097 97.5,220C 87.6931,215.761 77.6931,212.095 67.5,209C 62.2697,206.894 57.603,204.061 53.5,200.5 Z"/></g>
<g><path style="opacity:1" fill="#869b46" d="M 110.5,220.5 C 138.346,225.147 166.346,228.647 194.5,231C 215.071,232.514 235.405,231.014 255.5,226.5C 256.209,227.404 257.209,227.737 258.5,227.5C 255.497,229.262 252.163,230.428 248.5,231C 233.669,234.09 218.669,235.257 203.5,234.5C 195.139,234.109 186.805,233.442 178.5,232.5C 164.074,229.693 149.407,227.527 134.5,226C 126.403,224.084 118.403,222.251 110.5,220.5 Z"/></g>
<g><path style="opacity:1" fill="#82827e" d="M 72.5,113.5 C 69.4083,114.184 66.4083,115.184 63.5,116.5C 55.3081,117.075 47.3081,118.075 39.5,119.5C 38.8333,119.5 38.5,119.833 38.5,120.5C 36.1782,121.802 34.8449,123.802 34.5,126.5C 33.7321,127.263 33.2321,128.263 33,129.5C 32.3333,140.167 32.3333,150.833 33,161.5C 33.0549,178.285 39.8882,191.285 53.5,200.5C 57.603,204.061 62.2697,206.894 67.5,209C 77.6931,212.095 87.6931,215.761 97.5,220C 124.209,226.097 151.209,230.264 178.5,232.5C 186.805,233.442 195.139,234.109 203.5,234.5C 203.5,235.167 203.5,235.833 203.5,236.5C 173.258,235.136 143.258,231.636 113.5,226C 89.8817,221.182 67.8817,212.515 47.5,200C 41.6435,194.459 37.1435,187.959 34,180.5C 29.0851,161.96 28.4185,143.294 32,124.5C 33.8333,121.333 36.3333,118.833 39.5,117C 50.5334,115.96 61.5334,114.793 72.5,113.5 Z"/></g>
<g><path style="opacity:1" fill="#94958e" d="M 76.5,227.5 C 77.8333,227.5 79.1667,227.5 80.5,227.5C 99.5866,234.407 119.253,239.073 139.5,241.5C 140.833,242.167 142.167,242.833 143.5,243.5C 122.375,241.313 101.708,236.98 81.5,230.5C 79.9275,229.313 78.2608,228.313 76.5,227.5 Z"/></g>
<g><path style="opacity:1" fill="#b6cd74" d="M 293.5,220.5 C 295.524,223.245 297.524,225.911 299.5,228.5C 300.011,233.54 300.844,238.54 302,243.5C 302.499,249.491 302.666,255.491 302.5,261.5C 300.266,271.3 295.933,279.967 289.5,287.5C 292.798,281.33 295.965,274.996 299,268.5C 300.149,265.607 300.649,262.607 300.5,259.5C 300.666,252.825 300.5,246.158 300,239.5C 298.122,233.362 295.955,227.362 293.5,221.5C 293.5,221.167 293.5,220.833 293.5,220.5 Z"/></g>
<g><path style="opacity:0.965" fill="#565656" d="M 303.5,233.5 C 304.924,235.515 305.59,237.848 305.5,240.5C 304.833,239.5 304.167,238.5 303.5,237.5C 303.5,236.167 303.5,234.833 303.5,233.5 Z"/></g>
<g><path style="opacity:1" fill="#c1d083" d="M 81.5,230.5 C 101.708,236.98 122.375,241.313 143.5,243.5C 145.948,244.473 148.615,244.806 151.5,244.5C 167.859,247.807 184.526,249.141 201.5,248.5C 198.305,250.03 194.805,250.696 191,250.5C 180.514,249.709 170.014,249.376 159.5,249.5C 159.389,248.883 159.056,248.383 158.5,248C 144.834,246.152 131.167,244.152 117.5,242C 109.308,239.462 100.975,237.629 92.5,236.5C 92.1667,236.5 91.8333,236.5 91.5,236.5C 87.9898,234.677 84.6565,232.677 81.5,230.5 Z"/></g>
<g><path style="opacity:1" fill="#9dba5d" d="M 92.5,236.5 C 100.975,237.629 109.308,239.462 117.5,242C 131.167,244.152 144.834,246.152 158.5,248C 159.056,248.383 159.389,248.883 159.5,249.5C 146.067,248.428 132.734,246.595 119.5,244C 110.085,242.566 101.085,240.066 92.5,236.5 Z"/></g>
<g><path style="opacity:1" fill="#7d8b44" d="M 29.5,215.5 C 26.3784,230.869 20.7118,245.203 12.5,258.5C 14.796,250.896 17.9627,243.563 22,236.5C 25.0314,229.565 27.5314,222.565 29.5,215.5 Z"/></g>
<g><path style="opacity:1" fill="#1b8672" d="M 37.5,209.5 C 39.5,211.167 41.5,212.833 43.5,214.5C 42.5041,214.414 41.6708,214.748 41,215.5C 39.8162,213.346 38.6496,213.68 37.5,216.5C 37.9186,217.672 38.5853,218.672 39.5,219.5C 40.451,218.674 41.451,218.508 42.5,219C 39.2925,221.914 36.9591,225.414 35.5,229.5C 36.6869,229.554 38.0202,229.887 39.5,230.5C 38.1667,231.5 36.8333,232.5 35.5,233.5C 38.1197,235.465 37.7864,236.965 34.5,238C 35.8333,238.667 37.1667,239.333 38.5,240C 37.3333,240.5 36.5,241.333 36,242.5C 35.195,240.099 34.3617,240.266 33.5,243C 33.8333,243.333 34.1667,243.667 34.5,244C 30.5,244.667 30.5,245.333 34.5,246C 33.5494,246.718 33.3828,247.551 34,248.5C 35.5329,246.154 37.3662,245.154 39.5,245.5C 36.972,246.816 36.972,247.983 39.5,249C 37.5,251 35.5,253 33.5,255C 35.8041,254.427 37.9708,253.26 40,251.5C 40.7504,252.126 41.5838,252.626 42.5,253C 40.8988,253.273 39.3988,253.773 38,254.5C 37.7188,256.905 38.3854,256.905 40,254.5C 40.5,255 41,255.5 41.5,256C 40.0186,256.98 38.6853,258.147 37.5,259.5C 38.2624,259.911 39.2624,260.077 40.5,260C 40.5,261 40.5,262 40.5,263C 41.8333,263.333 43.1667,263.667 44.5,264C 42.5448,264.953 40.8782,266.287 39.5,268C 40.549,268.492 41.549,268.326 42.5,267.5C 43.4032,269.857 45.0698,271.357 47.5,272C 45.6037,273.065 45.437,273.898 47,274.5C 48.221,273.728 49.221,272.728 50,271.5C 51.8656,273.341 53.8656,275.008 56,276.5C 58.2403,273.833 59.7403,274.333 60.5,278C 57.7019,280.066 58.0352,281.566 61.5,282.5C 62.5195,281.313 63.6861,280.313 65,279.5C 67.6769,281.845 70.0103,284.512 72,287.5C 73.1545,286.257 74.4878,285.257 76,284.5C 76.3333,285.167 76.6667,285.833 77,286.5C 78.8402,285.167 79.3402,285.334 78.5,287C 79.8333,287.333 81.1667,287.667 82.5,288C 80.1224,288.974 80.4557,289.641 83.5,290C 81.9707,292.736 80.4707,292.902 79,290.5C 77.3221,291.466 76.6554,292.799 77,294.5C 78.1131,293.289 79.2798,293.289 80.5,294.5C 82.4799,293.516 84.1466,292.183 85.5,290.5C 86.4274,292.113 87.2607,293.779 88,295.5C 88.6838,294.216 88.5171,293.049 87.5,292C 88.7155,289.904 89.5488,290.071 90,292.5C 90.3333,291.5 90.6667,290.5 91,289.5C 91.1625,292.789 90.4958,295.789 89,298.5C 90.0616,297.101 91.395,296.101 93,295.5C 95.202,297.274 97.202,299.274 99,301.5C 99.2833,298.258 100.117,297.924 101.5,300.5C 102.967,299.305 104.467,299.305 106,300.5C 105.973,299.212 106.973,298.212 109,297.5C 108.923,298.738 109.089,299.738 109.5,300.5C 110.934,298.78 111.767,296.78 112,294.5C 112.96,296.379 113.46,298.379 113.5,300.5C 114.478,300.023 115.311,299.357 116,298.5C 117.167,300.333 118.667,301.833 120.5,303C 119.04,303.811 118.707,304.645 119.5,305.5C 120.425,304.359 121.259,304.359 122,305.5C 122.57,302.156 123.736,301.823 125.5,304.5C 126.167,302.5 126.833,300.5 127.5,298.5C 128.72,299.711 129.887,299.711 131,298.5C 131.483,299.448 131.649,300.448 131.5,301.5C 130.022,301.238 128.689,301.571 127.5,302.5C 128.909,302.654 130.576,302.821 132.5,303C 131.257,304.154 130.257,305.488 129.5,307C 130.03,308.744 130.03,310.244 129.5,311.5C 130.99,309.874 132.49,308.208 134,306.5C 137.157,307.079 140.157,308.079 143,309.5C 145.198,307.78 146.198,305.78 146,303.5C 147.691,305.709 147.524,307.542 145.5,309C 145.833,309.167 146.167,309.333 146.5,309.5C 147.967,308.305 149.467,308.305 151,309.5C 152.645,307.855 154.312,306.188 156,304.5C 156.617,305.449 156.451,306.282 155.5,307C 157.955,308.864 160.122,308.698 162,306.5C 162.177,309.183 162.011,311.85 161.5,314.5C 159.146,314.838 156.813,315.338 154.5,316C 155.056,316.383 155.389,316.883 155.5,317.5C 116.641,315.526 79.3077,307.026 43.5,292C 32.6668,287.831 23.5001,281.331 16,272.5C 13.1397,267.67 12.8063,262.67 15,257.5C 24.0203,242.607 30.187,226.607 33.5,209.5C 34.8333,209.5 36.1667,209.5 37.5,209.5 Z"/></g>
<g><path style="opacity:1" fill="#a1b959" d="M 290.5,217.5 C 292.144,217.81 293.144,218.81 293.5,220.5C 293.5,220.833 293.5,221.167 293.5,221.5C 292.883,221.389 292.383,221.056 292,220.5C 285.862,227.483 279.029,233.483 271.5,238.5C 244.361,247.992 216.361,252.325 187.5,251.5C 177.944,251.724 168.611,251.058 159.5,249.5C 170.014,249.376 180.514,249.709 191,250.5C 194.805,250.696 198.305,250.03 201.5,248.5C 216.333,249.023 230.667,247.023 244.5,242.5C 263.368,240.404 278.701,232.071 290.5,217.5 Z"/></g>
<g><path style="opacity:1" fill="#cdd99e" d="M 299.5,228.5 C 300.833,231.5 302.167,234.5 303.5,237.5C 304.517,244.805 304.683,252.139 304,259.5C 303.722,260.416 303.222,261.082 302.5,261.5C 302.666,255.491 302.499,249.491 302,243.5C 300.844,238.54 300.011,233.54 299.5,228.5 Z"/></g>
<g><path style="opacity:1" fill="#1c8773" d="M 293.5,221.5 C 295.955,227.362 298.122,233.362 300,239.5C 300.5,246.158 300.666,252.825 300.5,259.5C 296.29,274.245 288.29,286.578 276.5,296.5C 276.631,295.761 276.464,295.094 276,294.5C 275.333,295.833 274.667,295.833 274,294.5C 273.349,292.765 273.515,291.098 274.5,289.5C 272.457,287.539 273.123,286.039 276.5,285C 273.716,284.583 271.716,285.75 270.5,288.5C 270.167,288.333 269.833,288.167 269.5,288C 270.427,285.03 272.427,283.197 275.5,282.5C 274.02,281.887 272.687,281.554 271.5,281.5C 272.737,280.719 273.737,279.719 274.5,278.5C 273.571,275.538 274.738,273.538 278,272.5C 279.152,274.512 280.318,274.678 281.5,273C 278.345,272.019 278.012,270.685 280.5,269C 278.613,268.837 277.113,269.671 276,271.5C 275.833,271.167 275.667,270.833 275.5,270.5C 276.682,268.239 278.349,266.405 280.5,265C 277.737,265.083 275.07,264.917 272.5,264.5C 275.6,263.946 278.6,262.779 281.5,261C 278.473,261.824 275.806,261.658 273.5,260.5C 275.5,258.5 277.5,256.5 279.5,254.5C 278.603,254.331 277.603,253.998 276.5,253.5C 277.951,252.094 279.284,250.594 280.5,249C 279.004,248.493 277.837,248.993 277,250.5C 276.226,248.061 274.726,246.227 272.5,245C 273.646,244.355 274.646,243.522 275.5,242.5C 275.998,243.603 276.331,244.603 276.5,245.5C 278.957,243.999 278.957,242.332 276.5,240.5C 274.805,239.826 273.138,239.159 271.5,238.5C 279.029,233.483 285.862,227.483 292,220.5C 292.383,221.056 292.883,221.389 293.5,221.5 Z"/></g>
<g><path style="opacity:1" fill="#868783" d="M 80.5,227.5 C 79.1667,227.5 77.8333,227.5 76.5,227.5C 65.3465,222.921 54.6798,217.254 44.5,210.5C 42.1416,208.322 39.4749,206.655 36.5,205.5C 34.6096,205.297 33.1096,205.963 32,207.5C 30.2932,209.909 29.4598,212.575 29.5,215.5C 27.5314,222.565 25.0314,229.565 22,236.5C 17.9627,243.563 14.796,250.896 12.5,258.5C 11.8826,258.611 11.3826,258.944 11,259.5C 10.0874,265.185 11.0874,270.518 14,275.5C 20.3074,282.661 27.8074,287.994 36.5,291.5C 64.3417,305.606 94.0083,314.439 125.5,318C 134.512,318.788 143.512,319.621 152.5,320.5C 172.823,321.658 193.157,321.491 213.5,320C 218.076,319.728 222.409,318.895 226.5,317.5C 240.433,316.35 253.766,313.017 266.5,307.5C 275.965,302.929 283.632,296.263 289.5,287.5C 295.933,279.967 300.266,271.3 302.5,261.5C 303.222,261.082 303.722,260.416 304,259.5C 304.683,252.139 304.517,244.805 303.5,237.5C 304.167,238.5 304.833,239.5 305.5,240.5C 307.221,269.89 295.555,292.39 270.5,308C 258.188,314.215 245.188,318.215 231.5,320C 173.602,328.343 116.936,323.343 61.5,305C 46.8925,300.196 33.2258,293.529 20.5,285C 9.87777,277.668 6.37777,267.834 10,255.5C 18.5621,240.377 24.8954,224.377 29,207.5C 30.9066,203.99 33.7399,202.824 37.5,204C 51.2546,212.878 65.5879,220.711 80.5,227.5 Z"/></g>
<g><path style="opacity:1" fill="#6c773f" d="M 12.5,258.5 C 11.6432,264.675 12.8099,270.342 16,275.5C 22.2686,281.699 29.1019,287.032 36.5,291.5C 27.8074,287.994 20.3074,282.661 14,275.5C 11.0874,270.518 10.0874,265.185 11,259.5C 11.3826,258.944 11.8826,258.611 12.5,258.5 Z"/></g>
<g><path style="opacity:1" fill="#a8c15e" d="M 300.5,259.5 C 300.649,262.607 300.149,265.607 299,268.5C 295.965,274.996 292.798,281.33 289.5,287.5C 283.632,296.263 275.965,302.929 266.5,307.5C 266.5,306.5 266.5,305.5 266.5,304.5C 269.833,301.833 273.167,299.167 276.5,296.5C 288.29,286.578 296.29,274.245 300.5,259.5 Z"/></g>
<g><path style="opacity:1" fill="#18806d" d="M 43.5,214.5 C 52.9654,219.941 62.632,225.108 72.5,230C 78.7131,232.633 85.0464,234.8 91.5,236.5C 91.8333,236.5 92.1667,236.5 92.5,236.5C 101.085,240.066 110.085,242.566 119.5,244C 132.734,246.595 146.067,248.428 159.5,249.5C 168.611,251.058 177.944,251.724 187.5,251.5C 216.361,252.325 244.361,247.992 271.5,238.5C 273.138,239.159 274.805,239.826 276.5,240.5C 278.957,242.332 278.957,243.999 276.5,245.5C 276.331,244.603 275.998,243.603 275.5,242.5C 274.646,243.522 273.646,244.355 272.5,245C 274.726,246.227 276.226,248.061 277,250.5C 277.837,248.993 279.004,248.493 280.5,249C 279.284,250.594 277.951,252.094 276.5,253.5C 277.603,253.998 278.603,254.331 279.5,254.5C 277.5,256.5 275.5,258.5 273.5,260.5C 275.806,261.658 278.473,261.824 281.5,261C 278.6,262.779 275.6,263.946 272.5,264.5C 275.07,264.917 277.737,265.083 280.5,265C 278.349,266.405 276.682,268.239 275.5,270.5C 275.667,270.833 275.833,271.167 276,271.5C 277.113,269.671 278.613,268.837 280.5,269C 278.012,270.685 278.345,272.019 281.5,273C 280.318,274.678 279.152,274.512 278,272.5C 274.738,273.538 273.571,275.538 274.5,278.5C 273.737,279.719 272.737,280.719 271.5,281.5C 272.687,281.554 274.02,281.887 275.5,282.5C 272.427,283.197 270.427,285.03 269.5,288C 269.833,288.167 270.167,288.333 270.5,288.5C 271.716,285.75 273.716,284.583 276.5,285C 273.123,286.039 272.457,287.539 274.5,289.5C 273.515,291.098 273.349,292.765 274,294.5C 274.667,295.833 275.333,295.833 276,294.5C 276.464,295.094 276.631,295.761 276.5,296.5C 273.167,299.167 269.833,301.833 266.5,304.5C 253.289,310.218 239.622,313.885 225.5,315.5C 202.223,317.347 178.89,318.014 155.5,317.5C 155.389,316.883 155.056,316.383 154.5,316C 156.813,315.338 159.146,314.838 161.5,314.5C 162.011,311.85 162.177,309.183 162,306.5C 160.122,308.698 157.955,308.864 155.5,307C 156.451,306.282 156.617,305.449 156,304.5C 154.312,306.188 152.645,307.855 151,309.5C 149.467,308.305 147.967,308.305 146.5,309.5C 146.167,309.333 145.833,309.167 145.5,309C 147.524,307.542 147.691,305.709 146,303.5C 146.198,305.78 145.198,307.78 143,309.5C 140.157,308.079 137.157,307.079 134,306.5C 132.49,308.208 130.99,309.874 129.5,311.5C 130.03,310.244 130.03,308.744 129.5,307C 130.257,305.488 131.257,304.154 132.5,303C 130.576,302.821 128.909,302.654 127.5,302.5C 128.689,301.571 130.022,301.238 131.5,301.5C 131.649,300.448 131.483,299.448 131,298.5C 129.887,299.711 128.72,299.711 127.5,298.5C 126.833,300.5 126.167,302.5 125.5,304.5C 123.736,301.823 122.57,302.156 122,305.5C 121.259,304.359 120.425,304.359 119.5,305.5C 118.707,304.645 119.04,303.811 120.5,303C 118.667,301.833 117.167,300.333 116,298.5C 115.311,299.357 114.478,300.023 113.5,300.5C 113.46,298.379 112.96,296.379 112,294.5C 111.767,296.78 110.934,298.78 109.5,300.5C 109.089,299.738 108.923,298.738 109,297.5C 106.973,298.212 105.973,299.212 106,300.5C 104.467,299.305 102.967,299.305 101.5,300.5C 100.117,297.924 99.2833,298.258 99,301.5C 97.202,299.274 95.202,297.274 93,295.5C 91.395,296.101 90.0616,297.101 89,298.5C 90.4958,295.789 91.1625,292.789 91,289.5C 90.6667,290.5 90.3333,291.5 90,292.5C 89.5488,290.071 88.7155,289.904 87.5,292C 88.5171,293.049 88.6838,294.216 88,295.5C 87.2607,293.779 86.4274,292.113 85.5,290.5C 84.1466,292.183 82.4799,293.516 80.5,294.5C 79.2798,293.289 78.1131,293.289 77,294.5C 76.6554,292.799 77.3221,291.466 79,290.5C 80.4707,292.902 81.9707,292.736 83.5,290C 80.4557,289.641 80.1224,288.974 82.5,288C 81.1667,287.667 79.8333,287.333 78.5,287C 79.3402,285.334 78.8402,285.167 77,286.5C 76.6667,285.833 76.3333,285.167 76,284.5C 74.4878,285.257 73.1545,286.257 72,287.5C 70.0103,284.512 67.6769,281.845 65,279.5C 63.6861,280.313 62.5195,281.313 61.5,282.5C 58.0352,281.566 57.7019,280.066 60.5,278C 59.7403,274.333 58.2403,273.833 56,276.5C 53.8656,275.008 51.8656,273.341 50,271.5C 49.221,272.728 48.221,273.728 47,274.5C 45.437,273.898 45.6037,273.065 47.5,272C 45.0698,271.357 43.4032,269.857 42.5,267.5C 41.549,268.326 40.549,268.492 39.5,268C 40.8782,266.287 42.5448,264.953 44.5,264C 43.1667,263.667 41.8333,263.333 40.5,263C 40.5,262 40.5,261 40.5,260C 39.2624,260.077 38.2624,259.911 37.5,259.5C 38.6853,258.147 40.0186,256.98 41.5,256C 41,255.5 40.5,255 40,254.5C 38.3854,256.905 37.7188,256.905 38,254.5C 39.3988,253.773 40.8988,253.273 42.5,253C 41.5838,252.626 40.7504,252.126 40,251.5C 37.9708,253.26 35.8041,254.427 33.5,255C 35.5,253 37.5,251 39.5,249C 36.972,247.983 36.972,246.816 39.5,245.5C 37.3662,245.154 35.5329,246.154 34,248.5C 33.3828,247.551 33.5494,246.718 34.5,246C 30.5,245.333 30.5,244.667 34.5,244C 34.1667,243.667 33.8333,243.333 33.5,243C 34.3617,240.266 35.195,240.099 36,242.5C 36.5,241.333 37.3333,240.5 38.5,240C 37.1667,239.333 35.8333,238.667 34.5,238C 37.7864,236.965 38.1197,235.465 35.5,233.5C 36.8333,232.5 38.1667,231.5 39.5,230.5C 38.0202,229.887 36.6869,229.554 35.5,229.5C 36.9591,225.414 39.2925,221.914 42.5,219C 41.451,218.508 40.451,218.674 39.5,219.5C 38.5853,218.672 37.9186,217.672 37.5,216.5C 38.6496,213.68 39.8162,213.346 41,215.5C 41.6708,214.748 42.5041,214.414 43.5,214.5 Z"/></g>
<g><path style="opacity:1" fill="#b8c581" d="M 244.5,242.5 C 230.667,247.023 216.333,249.023 201.5,248.5C 206.833,247.833 212.167,247.167 217.5,246.5C 226.572,245.585 235.572,244.252 244.5,242.5 Z"/></g>
<g><path style="opacity:1" fill="#979891" d="M 151.5,244.5 C 154.833,244.5 158.167,244.5 161.5,244.5C 174.77,246.098 188.103,246.764 201.5,246.5C 206.833,246.5 212.167,246.5 217.5,246.5C 212.167,247.167 206.833,247.833 201.5,248.5C 184.526,249.141 167.859,247.807 151.5,244.5 Z"/></g>
<g><path style="opacity:0.971" fill="#6e6e6d" d="M 139.5,241.5 C 147.066,241.772 154.399,242.772 161.5,244.5C 158.167,244.5 154.833,244.5 151.5,244.5C 148.615,244.806 145.948,244.473 143.5,243.5C 142.167,242.833 140.833,242.167 139.5,241.5 Z"/></g>
<g><path style="opacity:1" fill="#768247" d="M 36.5,291.5 C 51.9036,297.469 67.5702,302.969 83.5,308C 94.4976,310.332 105.498,312.666 116.5,315C 128.585,316.041 140.585,317.541 152.5,319.5C 152.5,319.833 152.5,320.167 152.5,320.5C 143.512,319.621 134.512,318.788 125.5,318C 94.0083,314.439 64.3417,305.606 36.5,291.5 Z"/></g>
<g><path style="opacity:1" fill="#8fa64c" d="M 266.5,304.5 C 266.5,305.5 266.5,306.5 266.5,307.5C 253.766,313.017 240.433,316.35 226.5,317.5C 225.167,317.5 223.833,317.5 222.5,317.5C 224.631,316.686 226.964,316.186 229.5,316C 228.207,315.51 226.873,315.343 225.5,315.5C 239.622,313.885 253.289,310.218 266.5,304.5 Z"/></g>
<g><path style="opacity:1" fill="#88a245" d="M 36.5,205.5 C 36.8333,206.833 37.1667,208.167 37.5,209.5C 36.1667,209.5 34.8333,209.5 33.5,209.5C 30.187,226.607 24.0203,242.607 15,257.5C 12.8063,262.67 13.1397,267.67 16,272.5C 23.5001,281.331 32.6668,287.831 43.5,292C 79.3077,307.026 116.641,315.526 155.5,317.5C 178.89,318.014 202.223,317.347 225.5,315.5C 226.873,315.343 228.207,315.51 229.5,316C 226.964,316.186 224.631,316.686 222.5,317.5C 199.214,319.285 175.88,319.952 152.5,319.5C 140.585,317.541 128.585,316.041 116.5,315C 105.498,312.666 94.4976,310.332 83.5,308C 67.5702,302.969 51.9036,297.469 36.5,291.5C 29.1019,287.032 22.2686,281.699 16,275.5C 12.8099,270.342 11.6432,264.675 12.5,258.5C 20.7118,245.203 26.3784,230.869 29.5,215.5C 29.4598,212.575 30.2932,209.909 32,207.5C 33.1096,205.963 34.6096,205.297 36.5,205.5 Z"/></g>
<g><path style="opacity:1" fill="#83914c" d="M 222.5,317.5 C 223.833,317.5 225.167,317.5 226.5,317.5C 222.409,318.895 218.076,319.728 213.5,320C 193.157,321.491 172.823,321.658 152.5,320.5C 152.5,320.167 152.5,319.833 152.5,319.5C 175.88,319.952 199.214,319.285 222.5,317.5 Z"/></g>
</svg>
