<?xml version="1.0" encoding="UTF-8"?>
<!DOCTYPE svg PUBLIC "-//W3C//DTD SVG 1.1//EN" "http://www.w3.org/Graphics/SVG/1.1/DTD/svg11.dtd">
<svg xmlns="http://www.w3.org/2000/svg" version="1.1" width="100%" viewBox="0 0 293 293" style="shape-rendering:geometricPrecision; text-rendering:geometricPrecision; image-rendering:optimizeQuality; fill-rule:evenodd; clip-rule:evenodd" xmlns:xlink="http://www.w3.org/1999/xlink">
<g><path style="opacity:0.361" fill="#3d3d3d" d="M -0.5,16.5 C 35.5,16.5 71.5,16.5 107.5,16.5C 107.5,17.1667 107.5,17.8333 107.5,18.5C 93.8333,18.5 80.1667,18.5 66.5,18.5C 44.8333,18.5 23.1667,18.5 1.5,18.5C 1.5,19.5 1.5,20.5 1.5,21.5C 1.5,22.1667 1.5,22.8333 1.5,23.5C 0.833333,23.5 0.166667,23.5 -0.5,23.5C -0.5,21.1667 -0.5,18.8333 -0.5,16.5 Z"/></g>
<g><path style="opacity:0.993" fill="#1f1f1f" d="M 107.5,16.5 C 120.011,16.1714 132.345,16.5048 144.5,17.5C 132.247,18.4792 119.913,18.8126 107.5,18.5C 107.5,17.8333 107.5,17.1667 107.5,16.5 Z"/></g>
<g><path style="opacity:0.437" fill="#686868" d="M 144.5,17.5 C 193.833,17.5 243.167,17.5 292.5,17.5C 292.5,19.5 292.5,21.5 292.5,23.5C 291.833,23.5 291.5,23.8333 291.5,24.5C 290.833,24.5 290.167,24.5 289.5,24.5C 290.301,22.9582 290.634,21.2915 290.5,19.5C 215.833,19.5 141.167,19.5 66.5,19.5C 66.5,19.1667 66.5,18.8333 66.5,18.5C 80.1667,18.5 93.8333,18.5 107.5,18.5C 119.913,18.8126 132.247,18.4792 144.5,17.5 Z"/></g>
<g><path style="opacity:1" fill="#acacac" d="M 66.5,18.5 C 66.5,18.8333 66.5,19.1667 66.5,19.5C 44.8072,18.8445 23.4738,19.5112 2.5,21.5C 2.16667,21.5 1.83333,21.5 1.5,21.5C 1.5,20.5 1.5,19.5 1.5,18.5C 23.1667,18.5 44.8333,18.5 66.5,18.5 Z"/></g>
<g><path style="opacity:1" fill="#c9c9c9" d="M 66.5,19.5 C 141.167,19.5 215.833,19.5 290.5,19.5C 290.634,21.2915 290.301,22.9582 289.5,24.5C 289.5,24.8333 289.5,25.1667 289.5,25.5C 288.173,26.8001 286.84,28.1335 285.5,29.5C 284.708,28.3002 284.708,26.9669 285.5,25.5C 286.404,24.791 286.737,23.791 286.5,22.5C 267.5,22.5 248.5,22.5 229.5,22.5C 173.665,22.503 117.832,22.1696 62,21.5C 43.5,21.8333 25,22.1667 6.5,22.5C 6.62358,23.1067 6.95691,23.44 7.5,23.5C 7.55688,24.609 7.89022,25.609 8.5,26.5C 8.73731,27.791 8.40397,28.791 7.5,29.5C 5.83333,26.8333 4.16667,24.1667 2.5,21.5C 23.4738,19.5112 44.8072,18.8445 66.5,19.5 Z"/></g>
<g><path style="opacity:1" fill="#7a7a7a" d="M 229.5,22.5 C 229.5,22.8333 229.5,23.1667 229.5,23.5C 181.833,23.5 134.167,23.5 86.5,23.5C 60.1667,22.1667 33.8333,22.1667 7.5,23.5C 6.95691,23.44 6.62358,23.1067 6.5,22.5C 25,22.1667 43.5,21.8333 62,21.5C 117.832,22.1696 173.665,22.503 229.5,22.5 Z"/></g>
<g><path style="opacity:1" fill="#484848" d="M 86.5,23.5 C 60.8333,23.5 35.1667,23.5 9.5,23.5C 9.5,24.5 9.5,25.5 9.5,26.5C 9.16667,26.5 8.83333,26.5 8.5,26.5C 7.89022,25.609 7.55688,24.609 7.5,23.5C 33.8333,22.1667 60.1667,22.1667 86.5,23.5 Z"/></g>
<g><path style="opacity:1" fill="#8c8c8c" d="M 229.5,23.5 C 229.5,23.1667 229.5,22.8333 229.5,22.5C 248.5,22.5 267.5,22.5 286.5,22.5C 286.737,23.791 286.404,24.791 285.5,25.5C 267.53,23.5131 249.197,22.8465 230.5,23.5C 230.167,23.5 229.833,23.5 229.5,23.5 Z"/></g>
<g><path style="opacity:0.757" fill="#6d6e6e" d="M 1.5,21.5 C 1.83333,21.5 2.16667,21.5 2.5,21.5C 4.16667,24.1667 5.83333,26.8333 7.5,29.5C 7.5,29.8333 7.5,30.1667 7.5,30.5C 6.83333,30.1667 6.16667,29.8333 5.5,29.5C 3.26205,28.1473 1.92872,26.1473 1.5,23.5C 1.5,22.8333 1.5,22.1667 1.5,21.5 Z"/></g>
<g><path style="opacity:1" fill="#070707" d="M 86.5,23.5 C 134.167,23.5 181.833,23.5 229.5,23.5C 229.833,23.5 230.167,23.5 230.5,23.5C 248.5,24.1667 266.5,24.8333 284.5,25.5C 283.662,25.8417 283.328,26.5084 283.5,27.5C 279.079,33.3344 275.412,39.6678 272.5,46.5C 272.5,46.8333 272.5,47.1667 272.5,47.5C 270.75,48.6594 269.75,50.326 269.5,52.5C 267.406,54.5593 265.572,56.8926 264,59.5C 263.51,60.7932 263.343,62.1266 263.5,63.5C 260.586,67.658 257.919,71.9914 255.5,76.5C 253.058,78.1209 251.725,80.4542 251.5,83.5C 251.5,83.8333 251.5,84.1667 251.5,84.5C 249.031,85.6067 248.031,87.6067 248.5,90.5C 247.662,90.8417 247.328,91.5084 247.5,92.5C 243.959,95.379 241.626,99.0457 240.5,103.5C 239.542,103.953 238.708,104.619 238,105.5C 237.362,108.764 236.196,111.764 234.5,114.5C 232.058,116.121 230.725,118.454 230.5,121.5C 228.738,122.262 227.738,123.596 227.5,125.5C 224.888,127.052 223.555,129.386 223.5,132.5C 222.656,134.843 221.656,137.176 220.5,139.5C 218.1,141.296 216.433,143.63 215.5,146.5C 213.75,147.659 212.75,149.326 212.5,151.5C 212.672,152.492 212.338,153.158 211.5,153.5C 209.787,154.635 209.12,156.302 209.5,158.5C 209.167,158.5 208.833,158.5 208.5,158.5C 206.992,160.181 205.992,162.181 205.5,164.5C 203.058,166.121 201.725,168.454 201.5,171.5C 199.025,172.687 198.025,174.687 198.5,177.5C 197.206,178.29 196.039,179.29 195,180.5C 193.346,183.293 192.179,186.293 191.5,189.5C 190.662,189.842 190.328,190.508 190.5,191.5C 187.556,193.716 185.889,196.716 185.5,200.5C 183.621,201.895 182.621,203.895 182.5,206.5C 180.738,207.262 179.738,208.596 179.5,210.5C 177.488,212.139 175.821,214.139 174.5,216.5C 173.691,218.071 173.357,219.738 173.5,221.5C 172.662,221.842 172.328,222.508 172.5,223.5C 169.15,227.036 166.316,231.036 164,235.5C 159.171,243.161 155.004,251.161 151.5,259.5C 151.5,259.833 151.5,260.167 151.5,260.5C 150.504,260.414 149.671,260.748 149,261.5C 148.925,264.447 147.758,265.447 145.5,264.5C 144.126,262.142 142.793,259.808 141.5,257.5C 140.492,255.456 139.492,253.456 138.5,251.5C 136.271,247.006 133.938,242.506 131.5,238C 129.586,235.385 127.586,232.885 125.5,230.5C 125.672,229.508 125.338,228.842 124.5,228.5C 124.428,225.447 123.428,222.781 121.5,220.5C 121.573,218.973 120.906,217.973 119.5,217.5C 118.727,214.484 117.061,212.15 114.5,210.5C 114.5,210.167 114.5,209.833 114.5,209.5C 112.496,202.101 108.83,195.768 103.5,190.5C 103.5,189.833 103.5,189.167 103.5,188.5C 103.408,186.152 102.408,184.486 100.5,183.5C 98.4003,178.963 96.067,174.629 93.5,170.5C 93.573,168.973 92.9063,167.973 91.5,167.5C 90.2531,163.429 88.2531,159.762 85.5,156.5C 85.2451,154.033 84.2451,152.033 82.5,150.5C 81.8333,150.5 81.5,150.167 81.5,149.5C 81.6567,148.127 81.49,146.793 81,145.5C 79.0539,142.58 76.8872,139.913 74.5,137.5C 73.5294,135.517 72.5294,133.517 71.5,131.5C 68.8114,124.108 65.1447,117.442 60.5,111.5C 59.3282,107.342 57.3282,103.675 54.5,100.5C 53.0023,95.6783 50.3356,91.6783 46.5,88.5C 46.539,85.911 45.539,83.911 43.5,82.5C 43.573,80.9731 42.9063,79.9731 41.5,79.5C 37.8301,73.492 34.1635,67.492 30.5,61.5C 28.9875,55.7917 25.9875,51.1251 21.5,47.5C 21.5,47.1667 21.5,46.8333 21.5,46.5C 21.2753,43.4542 19.942,41.1209 17.5,39.5C 15.4375,37.5844 14.1042,35.251 13.5,32.5C 13.5,31.1667 12.8333,30.5 11.5,30.5C 11.3404,28.847 10.6737,27.5137 9.5,26.5C 9.5,25.5 9.5,24.5 9.5,23.5C 35.1667,23.5 60.8333,23.5 86.5,23.5 Z"/></g>
<g><path style="opacity:1" fill="#383838" d="M 230.5,23.5 C 249.197,22.8465 267.53,23.5131 285.5,25.5C 285.167,25.5 284.833,25.5 284.5,25.5C 266.5,24.8333 248.5,24.1667 230.5,23.5 Z"/></g>
<g><path style="opacity:0.486" fill="#242424" d="M 289.5,24.5 C 290.167,24.5 290.833,24.5 291.5,24.5C 291.614,27.216 290.614,29.216 288.5,30.5C 288.629,28.7839 288.962,27.1172 289.5,25.5C 289.5,25.1667 289.5,24.8333 289.5,24.5 Z"/></g>
<g><path style="opacity:1" fill="#939393" d="M 284.5,25.5 C 284.833,25.5 285.167,25.5 285.5,25.5C 284.708,26.9669 284.708,28.3002 285.5,29.5C 286.84,28.1335 288.173,26.8001 289.5,25.5C 288.962,27.1172 288.629,28.7839 288.5,30.5C 286.738,31.2623 285.738,32.5956 285.5,34.5C 285.5,34.8333 285.5,35.1667 285.5,35.5C 284.833,35.5 284.167,35.5 283.5,35.5C 284.218,33.8632 284.384,32.1966 284,30.5C 283.617,31.056 283.117,31.3893 282.5,31.5C 282.833,30.1667 283.167,28.8333 283.5,27.5C 283.328,26.5084 283.662,25.8417 284.5,25.5 Z"/></g>
<g><path style="opacity:0.627" fill="#303030" d="M 5.5,29.5 C 6.16667,29.8333 6.83333,30.1667 7.5,30.5C 8.33825,30.8417 8.67158,31.5084 8.5,32.5C 9.038,34.1172 9.37133,35.7839 9.5,37.5C 6.59259,35.6855 5.25926,33.0188 5.5,29.5 Z"/></g>
<g><path style="opacity:1" fill="#646464" d="M 11.5,30.5 C 12.8333,30.5 13.5,31.1667 13.5,32.5C 12.1667,32.5 11.5,31.8333 11.5,30.5 Z"/></g>
<g><path style="opacity:1" fill="#292929" d="M 141.5,31.5 C 112.5,32.1667 83.5,32.8333 54.5,33.5C 53.3143,34.7054 53.3143,36.0387 54.5,37.5C 52.2554,36.1722 51.9221,34.3388 53.5,32C 82.8314,31.5 112.165,31.3334 141.5,31.5 Z"/></g>
<g><path style="opacity:1" fill="#6e6e6e" d="M 141.5,31.5 C 178.835,31.3333 216.168,31.5 253.5,32C 254.8,33.5788 254.466,34.7455 252.5,35.5C 252.5,34.5 252.5,33.5 252.5,32.5C 186.502,33.1021 120.502,33.4355 54.5,33.5C 83.5,32.8333 112.5,32.1667 141.5,31.5 Z"/></g>
<g><path style="opacity:1" fill="#666666" d="M 283.5,27.5 C 283.167,28.8333 282.833,30.1667 282.5,31.5C 279.939,37.0522 276.606,42.0522 272.5,46.5C 275.412,39.6678 279.079,33.3344 283.5,27.5 Z"/></g>
<g><path style="opacity:1" fill="#bfbfbf" d="M 252.5,35.5 C 225.916,34.2229 199.249,34.2229 172.5,35.5C 165.5,35.5 158.5,35.5 151.5,35.5C 119.122,35.005 86.7884,35.6716 54.5,37.5C 53.3143,36.0387 53.3143,34.7054 54.5,33.5C 120.502,33.4355 186.502,33.1021 252.5,32.5C 252.5,33.5 252.5,34.5 252.5,35.5 Z"/></g>
<g><path style="opacity:0.243" fill="#252525" d="M 288.5,30.5 C 288.912,32.9726 287.912,34.3059 285.5,34.5C 285.738,32.5956 286.738,31.2623 288.5,30.5 Z"/></g>
<g><path style="opacity:1" fill="#969696" d="M 172.5,35.5 C 199.249,34.2229 225.916,34.2229 252.5,35.5C 251.567,38.3702 249.9,40.7036 247.5,42.5C 249.074,38.9912 248.074,37.9912 244.5,39.5C 244.574,37.5891 245.574,36.4224 247.5,36C 230.17,35.5001 212.837,35.3334 195.5,35.5C 189.833,35.5 184.167,35.5 178.5,35.5C 176.5,35.5 174.5,35.5 172.5,35.5 Z"/></g>
<g><path style="opacity:1" fill="#b7b7b7" d="M 8.5,26.5 C 8.83333,26.5 9.16667,26.5 9.5,26.5C 10.6737,27.5137 11.3404,28.847 11.5,30.5C 11.5,31.8333 12.1667,32.5 13.5,32.5C 14.1042,35.251 15.4375,37.5844 17.5,39.5C 17.7247,42.5458 19.058,44.8791 21.5,46.5C 21.5,46.8333 21.5,47.1667 21.5,47.5C 21.5,47.8333 21.5,48.1667 21.5,48.5C 20.506,49.9989 20.506,51.6656 21.5,53.5C 20.8333,53.1667 20.1667,52.8333 19.5,52.5C 19.9118,50.0274 18.9118,48.6941 16.5,48.5C 16.3713,46.7839 16.038,45.1172 15.5,43.5C 13.4026,39.6277 11.0692,35.961 8.5,32.5C 8.67158,31.5084 8.33825,30.8417 7.5,30.5C 7.5,30.1667 7.5,29.8333 7.5,29.5C 8.40397,28.791 8.73731,27.791 8.5,26.5 Z"/></g>
<g><path style="opacity:1" fill="#999c9c" d="M 151.5,35.5 C 149.735,36.4614 147.735,36.7947 145.5,36.5C 120.831,36.3334 96.1644,36.5 71.5,37C 73.441,38.9028 75.7743,39.7361 78.5,39.5C 80.403,39.7959 82.0697,40.4625 83.5,41.5C 81.1305,41.1489 78.7972,40.9822 76.5,41C 77.056,41.3826 77.3893,41.8826 77.5,42.5C 77.1667,42.5 76.8333,42.5 76.5,42.5C 74.2646,42.7947 72.2646,42.4614 70.5,41.5C 68.4006,40.3882 66.0673,39.7215 63.5,39.5C 60.2727,39.3239 57.2727,38.6572 54.5,37.5C 86.7884,35.6716 119.122,35.005 151.5,35.5 Z"/></g>
<g><path style="opacity:1" fill="#020404" d="M 195.5,35.5 C 212.837,35.3334 230.17,35.5001 247.5,36C 245.574,36.4224 244.574,37.5891 244.5,39.5C 244.5,39.8333 244.5,40.1667 244.5,40.5C 242.224,40.7565 241.057,42.0898 241,44.5C 239.306,45.6988 237.806,47.0322 236.5,48.5C 229.941,45.721 223.275,43.221 216.5,41C 213.832,40.433 211.166,39.933 208.5,39.5C 204.127,38.1693 199.793,36.8359 195.5,35.5 Z"/></g>
<g><path style="opacity:1" fill="#546464" d="M 145.5,36.5 C 136.682,37.4933 127.682,37.8266 118.5,37.5C 112.833,37.5 107.167,37.5 101.5,37.5C 92.8269,37.3336 84.1603,37.5002 75.5,38C 76.7375,38.2321 77.7375,38.7321 78.5,39.5C 75.7743,39.7361 73.441,38.9028 71.5,37C 96.1644,36.5 120.831,36.3334 145.5,36.5 Z"/></g>
<g><path style="opacity:1" fill="#5a5a5a" d="M 8.5,32.5 C 11.0692,35.961 13.4026,39.6277 15.5,43.5C 14.8333,43.5 14.1667,43.5 13.5,43.5C 12.6851,42.1634 11.5185,41.1634 10,40.5C 9.51722,39.552 9.35055,38.552 9.5,37.5C 9.37133,35.7839 9.038,34.1172 8.5,32.5 Z"/></g>
<g><path style="opacity:1" fill="#366565" d="M 151.5,35.5 C 158.5,35.5 165.5,35.5 172.5,35.5C 174.5,35.5 176.5,35.5 178.5,35.5C 179.347,36.9663 180.68,37.7996 182.5,38C 192.25,39.5938 201.916,41.5938 211.5,44C 212.056,44.3826 212.389,44.8826 212.5,45.5C 200.816,43.8639 189.15,42.0305 177.5,40C 159.838,38.1063 142.171,38.1063 124.5,40C 118.637,40.587 112.97,41.9203 107.5,44C 104.518,44.498 101.518,44.6646 98.5,44.5C 95.8728,43.9084 93.2062,43.5751 90.5,43.5C 89.209,43.7373 88.209,43.404 87.5,42.5C 98.1436,41.7696 108.477,40.103 118.5,37.5C 127.682,37.8266 136.682,37.4933 145.5,36.5C 147.735,36.7947 149.735,36.4614 151.5,35.5 Z"/></g>
<g><path style="opacity:1" fill="#070909" d="M 101.5,37.5 C 97.0992,39.407 92.4326,40.7403 87.5,41.5C 86.1667,41.5 84.8333,41.5 83.5,41.5C 82.0697,40.4625 80.403,39.7959 78.5,39.5C 77.7375,38.7321 76.7375,38.2321 75.5,38C 84.1603,37.5002 92.8269,37.3336 101.5,37.5 Z"/></g>
<g><path style="opacity:1" fill="#1c3b3b" d="M 101.5,37.5 C 107.167,37.5 112.833,37.5 118.5,37.5C 108.477,40.103 98.1436,41.7696 87.5,42.5C 87.5,42.1667 87.5,41.8333 87.5,41.5C 92.4326,40.7403 97.0992,39.407 101.5,37.5 Z"/></g>
<g><path style="opacity:1" fill="#214646" d="M 178.5,35.5 C 184.167,35.5 189.833,35.5 195.5,35.5C 199.793,36.8359 204.127,38.1693 208.5,39.5C 209.122,41.335 210.456,42.5017 212.5,43C 220.313,46.1196 228.313,48.6196 236.5,50.5C 236.167,51.5 235.5,52.1667 234.5,52.5C 229.465,52.2925 225.132,50.4591 221.5,47C 218.487,46.4978 215.487,45.9978 212.5,45.5C 212.389,44.8826 212.056,44.3826 211.5,44C 201.916,41.5938 192.25,39.5938 182.5,38C 180.68,37.7996 179.347,36.9663 178.5,35.5 Z"/></g>
<g><path style="opacity:1" fill="#515151" d="M 63.5,39.5 C 66.0673,39.7215 68.4006,40.3882 70.5,41.5C 67.7718,41.8294 65.4385,41.1628 63.5,39.5 Z"/></g>
<g><path style="opacity:1" fill="#407c7c" d="M 212.5,45.5 C 212.628,47.0898 213.295,48.4231 214.5,49.5C 220.408,51.1205 225.741,53.7871 230.5,57.5C 229.876,59.754 228.543,61.4206 226.5,62.5C 217.549,55.189 207.549,49.689 196.5,46C 188.103,45.2671 179.77,44.1004 171.5,42.5C 150.593,40.3539 129.926,41.6873 109.5,46.5C 105.882,45.6536 102.215,45.3203 98.5,45.5C 98.5,45.1667 98.5,44.8333 98.5,44.5C 101.518,44.6646 104.518,44.498 107.5,44C 112.97,41.9203 118.637,40.587 124.5,40C 142.171,38.1063 159.838,38.1063 177.5,40C 189.15,42.0305 200.816,43.8639 212.5,45.5 Z"/></g>
<g><path style="opacity:1" fill="#c2c2c2" d="M 283.5,35.5 C 279.725,40.7154 276.725,46.382 274.5,52.5C 271.621,56.9255 269.287,61.5921 267.5,66.5C 267.5,66.8333 267.5,67.1667 267.5,67.5C 264.53,67.7458 263.197,69.4124 263.5,72.5C 263.167,73.1667 262.833,73.8333 262.5,74.5C 261.833,74.5 261.167,74.5 260.5,74.5C 259.759,71.8939 260.593,69.5606 263,67.5C 263.49,66.2068 263.657,64.8734 263.5,63.5C 266.295,60.3451 268.295,56.6785 269.5,52.5C 271.25,51.3406 272.25,49.674 272.5,47.5C 272.5,47.1667 272.5,46.8333 272.5,46.5C 276.606,42.0522 279.939,37.0522 282.5,31.5C 283.117,31.3893 283.617,31.056 284,30.5C 284.384,32.1966 284.218,33.8632 283.5,35.5 Z"/></g>
<g><path style="opacity:1" fill="#666666" d="M 76.5,42.5 C 76.8333,42.5 77.1667,42.5 77.5,42.5C 80.7846,42.9281 83.7846,43.9281 86.5,45.5C 83.4781,45.196 80.4781,44.696 77.5,44C 76.944,43.6174 76.6107,43.1174 76.5,42.5 Z"/></g>
<g><path style="opacity:0.431" fill="#4c4c4c" d="M 283.5,35.5 C 284.167,35.5 284.833,35.5 285.5,35.5C 285.108,37.1789 284.608,38.8455 284,40.5C 281.446,44.4168 278.946,48.4168 276.5,52.5C 275.833,52.5 275.167,52.5 274.5,52.5C 276.725,46.382 279.725,40.7154 283.5,35.5 Z"/></g>
<g><path style="opacity:1" fill="#6e6e6e" d="M 17.5,39.5 C 19.942,41.1209 21.2753,43.4542 21.5,46.5C 19.058,44.8791 17.7247,42.5458 17.5,39.5 Z"/></g>
<g><path style="opacity:1" fill="#c4c5c5" d="M 83.5,41.5 C 84.8333,41.5 86.1667,41.5 87.5,41.5C 87.5,41.8333 87.5,42.1667 87.5,42.5C 88.209,43.404 89.209,43.7373 90.5,43.5C 90.1788,45.0481 89.1788,45.7148 87.5,45.5C 87.1667,45.5 86.8333,45.5 86.5,45.5C 83.7846,43.9281 80.7846,42.9281 77.5,42.5C 77.3893,41.8826 77.056,41.3826 76.5,41C 78.7972,40.9822 81.1305,41.1489 83.5,41.5 Z"/></g>
<g><path style="opacity:1" fill="#4c9191" d="M 226.5,62.5 C 225.194,64.8162 223.861,67.1495 222.5,69.5C 221.504,69.5858 220.671,69.2524 220,68.5C 218.311,63.4748 215.144,59.6415 210.5,57C 192.654,48.4967 173.821,44.6633 154,45.5C 141.734,45.3041 129.568,46.3041 117.5,48.5C 114.483,48.2317 111.483,47.8984 108.5,47.5C 104.96,47.2474 101.627,46.5808 98.5,45.5C 102.215,45.3203 105.882,45.6536 109.5,46.5C 129.926,41.6873 150.593,40.3539 171.5,42.5C 179.77,44.1004 188.103,45.2671 196.5,46C 207.549,49.689 217.549,55.189 226.5,62.5 Z"/></g>
<g><path style="opacity:1" fill="#5c5c5c" d="M 246.5,43.5 C 245.66,45.8525 244.326,47.8525 242.5,49.5C 242.845,46.8021 244.178,44.8021 246.5,43.5 Z"/></g>
<g><path style="opacity:0.373" fill="#242424" d="M 13.5,43.5 C 14.1667,43.5 14.8333,43.5 15.5,43.5C 16.038,45.1172 16.3713,46.7839 16.5,48.5C 14.5923,47.5144 13.5923,45.8477 13.5,43.5 Z"/></g>
<g><path style="opacity:1" fill="#183333" d="M 208.5,39.5 C 211.166,39.933 213.832,40.433 216.5,41C 223.275,43.221 229.941,45.721 236.5,48.5C 236.5,49.1667 236.5,49.8333 236.5,50.5C 228.313,48.6196 220.313,46.1196 212.5,43C 210.456,42.5017 209.122,41.335 208.5,39.5 Z"/></g>
<g><path style="opacity:1" fill="#a9afaf" d="M 90.5,43.5 C 93.2062,43.5751 95.8728,43.9084 98.5,44.5C 98.5,44.8333 98.5,45.1667 98.5,45.5C 101.627,46.5808 104.96,47.2474 108.5,47.5C 108.5,47.8333 108.5,48.1667 108.5,48.5C 107.508,48.3284 106.842,48.6618 106.5,49.5C 105.5,49.5 104.5,49.5 103.5,49.5C 97.5839,50.0212 92.2506,48.6878 87.5,45.5C 89.1788,45.7148 90.1788,45.0481 90.5,43.5 Z"/></g>
<g><path style="opacity:1" fill="#727373" d="M 244.5,40.5 C 242.828,44.659 240.161,47.9923 236.5,50.5C 236.5,49.8333 236.5,49.1667 236.5,48.5C 237.806,47.0322 239.306,45.6988 241,44.5C 241.057,42.0898 242.224,40.7565 244.5,40.5 Z"/></g>
<g><path style="opacity:1" fill="#7e7e7e" d="M 21.5,47.5 C 25.9875,51.1251 28.9875,55.7917 30.5,61.5C 26.9617,57.584 23.9617,53.2506 21.5,48.5C 21.5,48.1667 21.5,47.8333 21.5,47.5 Z"/></g>
<g><path style="opacity:1" fill="#5f5f5f" d="M 272.5,47.5 C 272.25,49.674 271.25,51.3406 269.5,52.5C 269.75,50.326 270.75,48.6594 272.5,47.5 Z"/></g>
<g><path style="opacity:0.341" fill="#323232" d="M 16.5,48.5 C 18.9118,48.6941 19.9118,50.0274 19.5,52.5C 17.0882,52.3059 16.0882,50.9726 16.5,48.5 Z"/></g>
<g><path style="opacity:1" fill="#464646" d="M 46.5,50.5 C 43.5,50.5 40.5,50.5 37.5,50.5C 37.5,51.5 37.5,52.5 37.5,53.5C 36.5489,52.0813 36.2155,50.4147 36.5,48.5C 40.1224,48.322 43.4557,48.9886 46.5,50.5 Z"/></g>
<g><path style="opacity:1" fill="#cdcdcd" d="M 21.5,48.5 C 23.9617,53.2506 26.9617,57.584 30.5,61.5C 30.3433,62.8734 30.51,64.2068 31,65.5C 33.3012,66.8774 33.8012,68.544 32.5,70.5C 30.7304,68.8867 29.5637,66.8867 29,64.5C 28.3292,63.7476 27.4959,63.4142 26.5,63.5C 25.6803,59.6978 24.0136,56.3645 21.5,53.5C 20.506,51.6656 20.506,49.9989 21.5,48.5 Z"/></g>
<g><path style="opacity:1" fill="#777777" d="M 103.5,49.5 C 104.5,49.5 105.5,49.5 106.5,49.5C 109.984,50.6567 113.317,51.99 116.5,53.5C 111.736,53.2311 107.403,51.8978 103.5,49.5 Z"/></g>
<g><path style="opacity:1" fill="#65bebe" d="M 189.5,84.5 C 188.4,83.3951 187.733,82.0618 187.5,80.5C 198.72,72.536 198.053,65.7027 185.5,60C 178.815,57.0625 171.815,55.3958 164.5,55C 154.172,54.5002 143.839,54.3335 133.5,54.5C 131.304,54.41 129.137,54.0767 127,53.5C 125.624,53.3158 124.791,52.6491 124.5,51.5C 139.492,50.6044 154.492,50.4378 169.5,51C 178.866,51.9249 187.866,54.2583 196.5,58C 201.909,60.4089 205.576,64.4089 207.5,70C 204.024,77.912 198.024,82.7453 189.5,84.5 Z"/></g>
<g><path style="opacity:1" fill="#366868" d="M 212.5,45.5 C 215.487,45.9978 218.487,46.4978 221.5,47C 225.132,50.4591 229.465,52.2925 234.5,52.5C 233.855,54.8263 232.522,56.493 230.5,57.5C 225.741,53.7871 220.408,51.1205 214.5,49.5C 213.295,48.4231 212.628,47.0898 212.5,45.5 Z"/></g>
<g><path style="opacity:1" fill="#888888" d="M 47.5,51.5 C 52.1811,51.6686 56.8478,52.0019 61.5,52.5C 61.5,52.8333 61.5,53.1667 61.5,53.5C 56.6093,53.4681 51.9426,52.8015 47.5,51.5 Z"/></g>
<g><path style="opacity:1" fill="#3a3a3a" d="M 61.5,53.5 C 61.5,53.1667 61.5,52.8333 61.5,52.5C 65.4885,52.1164 69.1552,52.783 72.5,54.5C 68.7657,54.6773 65.0991,54.3439 61.5,53.5 Z"/></g>
<g><path style="opacity:0.549" fill="#494949" d="M 19.5,52.5 C 20.1667,52.8333 20.8333,53.1667 21.5,53.5C 24.0136,56.3645 25.6803,59.6978 26.5,63.5C 25.5041,63.5858 24.6708,63.2524 24,62.5C 22.0033,59.3246 20.5033,55.9912 19.5,52.5 Z"/></g>
<g><path style="opacity:1" fill="#838484" d="M 117.5,53.5 C 126.45,54.2113 134.783,56.5447 142.5,60.5C 134.442,58.9744 126.442,57.1411 118.5,55C 117.944,54.6174 117.611,54.1174 117.5,53.5 Z"/></g>
<g><path style="opacity:1" fill="#262626" d="M 83.5,55.5 C 88.8741,55.523 94.2074,56.023 99.5,57C 100.056,57.3826 100.389,57.8826 100.5,58.5C 96.1412,58.5343 91.8079,58.201 87.5,57.5C 85.6672,57.4146 84.3339,56.7479 83.5,55.5 Z"/></g>
<g><path style="opacity:1" fill="#4a4a4a" d="M 239.5,53.5 C 238.243,56.4274 236.243,58.7607 233.5,60.5C 234.757,57.5726 236.757,55.2393 239.5,53.5 Z"/></g>
<g><path style="opacity:1" fill="#515151" d="M 37.5,53.5 C 39.4077,54.4856 40.4077,56.1523 40.5,58.5C 38.7497,57.3406 37.7497,55.674 37.5,53.5 Z"/></g>
<g><path style="opacity:0.157" fill="#2e2e2e" d="M 274.5,52.5 C 275.167,52.5 275.833,52.5 276.5,52.5C 274.33,55.5061 272.664,58.8395 271.5,62.5C 270.333,64.0792 269,65.4125 267.5,66.5C 269.287,61.5921 271.621,56.9255 274.5,52.5 Z"/></g>
<g><path style="opacity:1" fill="#5eb0b0" d="M 192.5,90.5 C 190.461,89.089 189.461,87.089 189.5,84.5C 198.024,82.7453 204.024,77.912 207.5,70C 205.576,64.4089 201.909,60.4089 196.5,58C 187.866,54.2583 178.866,51.9249 169.5,51C 154.492,50.4378 139.492,50.6044 124.5,51.5C 122.585,51.7845 120.919,51.4511 119.5,50.5C 141.867,46.3346 164.2,46.5013 186.5,51C 197.229,52.6626 206.063,57.4959 213,65.5C 214.938,70.7046 213.771,75.2046 209.5,79C 204.611,82.612 199.277,85.4453 193.5,87.5C 192.614,88.325 192.281,89.325 192.5,90.5 Z"/></g>
<g><path style="opacity:1" fill="#6c6c6c" d="M 269.5,52.5 C 268.295,56.6785 266.295,60.3451 263.5,63.5C 263.343,62.1266 263.51,60.7932 264,59.5C 265.572,56.8926 267.406,54.5593 269.5,52.5 Z"/></g>
<g><path style="opacity:1" fill="#abaeae" d="M 46.5,50.5 C 47.1667,50.5 47.5,50.8333 47.5,51.5C 51.9426,52.8015 56.6093,53.4681 61.5,53.5C 65.0991,54.3439 68.7657,54.6773 72.5,54.5C 76.1185,55.2436 79.7852,55.577 83.5,55.5C 84.3339,56.7479 85.6672,57.4146 87.5,57.5C 91.8079,58.201 96.1412,58.5343 100.5,58.5C 102.277,59.6005 104.277,60.4338 106.5,61C 114.182,62.2163 121.849,63.3829 129.5,64.5C 128.392,68.1311 126.226,71.1311 123,73.5C 121.906,75.0779 121.072,76.7446 120.5,78.5C 119.167,79.8333 117.833,81.1667 116.5,82.5C 116.672,81.5084 116.338,80.8417 115.5,80.5C 115.5,79.8333 115.5,79.1667 115.5,78.5C 116.11,77.609 116.443,76.609 116.5,75.5C 117.833,74.5 119.167,73.5 120.5,72.5C 123.364,70.9767 125.031,68.6433 125.5,65.5C 123.5,65.5 121.5,65.5 119.5,65.5C 118.167,65.5 116.833,65.5 115.5,65.5C 104.951,63.8412 94.2848,62.1745 83.5,60.5C 76.5876,58.8618 69.5876,57.8618 62.5,57.5C 62.5,57.1667 62.5,56.8333 62.5,56.5C 58.0808,55.0285 53.4141,54.3618 48.5,54.5C 46.5156,53.3058 44.5156,53.3058 42.5,54.5C 43.0351,56.261 44.0351,57.5943 45.5,58.5C 46.7734,61.6086 48.2734,64.6086 50,67.5C 52.4549,68.7426 53.6216,70.7426 53.5,73.5C 53.8333,74.5 54.5,75.1667 55.5,75.5C 56.1098,76.391 56.4431,77.391 56.5,78.5C 55.2058,77.7101 54.0391,76.7101 53,75.5C 52.5357,76.0944 52.369,76.7611 52.5,77.5C 52.1667,77.5 51.8333,77.5 51.5,77.5C 51.2503,75.326 50.2503,73.6594 48.5,72.5C 48.1039,69.279 46.7705,66.6123 44.5,64.5C 43.1535,62.4632 41.8202,60.4632 40.5,58.5C 40.4077,56.1523 39.4077,54.4856 37.5,53.5C 37.5,52.5 37.5,51.5 37.5,50.5C 40.5,50.5 43.5,50.5 46.5,50.5 Z"/></g>
<g><path style="opacity:1" fill="#0a0d0d" d="M 48.5,55.5 C 53.1522,55.9981 57.8189,56.3314 62.5,56.5C 62.5,56.8333 62.5,57.1667 62.5,57.5C 64.2646,58.4614 66.2646,58.7947 68.5,58.5C 64.4804,61.3583 61.3138,65.025 59,69.5C 57.549,71.4641 55.7157,72.7974 53.5,73.5C 53.6216,70.7426 52.4549,68.7426 50,67.5C 48.2734,64.6086 46.7734,61.6086 45.5,58.5C 45.5858,57.5041 45.2524,56.6708 44.5,56C 45.7932,55.51 47.1266,55.3433 48.5,55.5 Z"/></g>
<g><path style="opacity:1" fill="#565656" d="M 48.5,54.5 C 48.5,54.8333 48.5,55.1667 48.5,55.5C 47.1266,55.3433 45.7932,55.51 44.5,56C 45.2524,56.6708 45.5858,57.5041 45.5,58.5C 44.0351,57.5943 43.0351,56.261 42.5,54.5C 44.5156,53.3058 46.5156,53.3058 48.5,54.5 Z"/></g>
<g><path style="opacity:1" fill="#8f8f8f" d="M 48.5,55.5 C 48.5,55.1667 48.5,54.8333 48.5,54.5C 53.4141,54.3618 58.0808,55.0285 62.5,56.5C 57.8189,56.3314 53.1522,55.9981 48.5,55.5 Z"/></g>
<g><path style="opacity:1" fill="#57a3a3" d="M 222.5,69.5 C 217.584,75.0222 212.917,80.6889 208.5,86.5C 208.631,85.6236 208.298,84.9569 207.5,84.5C 202.631,86.8993 197.631,88.8993 192.5,90.5C 192.281,89.325 192.614,88.325 193.5,87.5C 199.277,85.4453 204.611,82.612 209.5,79C 213.771,75.2046 214.938,70.7046 213,65.5C 206.063,57.4959 197.229,52.6626 186.5,51C 164.2,46.5013 141.867,46.3346 119.5,50.5C 115.803,49.9922 112.136,49.3255 108.5,48.5C 108.5,48.1667 108.5,47.8333 108.5,47.5C 111.483,47.8984 114.483,48.2317 117.5,48.5C 129.568,46.3041 141.734,45.3041 154,45.5C 173.821,44.6633 192.654,48.4967 210.5,57C 215.144,59.6415 218.311,63.4748 220,68.5C 220.671,69.2524 221.504,69.5858 222.5,69.5 Z"/></g>
<g><path style="opacity:1" fill="#696969" d="M 253.5,64.5 C 254.014,62.6336 254.68,60.8003 255.5,59C 255.167,58.5 254.833,58 254.5,57.5C 250.281,61.4223 245.948,65.089 241.5,68.5C 244.812,64.3056 248.479,60.3056 252.5,56.5C 254.045,55.5481 255.712,55.2148 257.5,55.5C 257.691,59.2883 256.358,62.2883 253.5,64.5 Z"/></g>
<g><path style="opacity:1" fill="#70d1d1" d="M 133.5,54.5 C 143.839,54.3335 154.172,54.5002 164.5,55C 171.815,55.3958 178.815,57.0625 185.5,60C 198.053,65.7027 198.72,72.536 187.5,80.5C 185.167,78.8333 183.167,76.8333 181.5,74.5C 181.021,70.7077 179.354,67.541 176.5,65C 170.834,64.2062 165.501,62.5396 160.5,60C 156.713,59.8404 153.046,59.1737 149.5,58C 149.833,57.6667 150.167,57.3333 150.5,57C 147.183,56.5017 143.85,56.335 140.5,56.5C 137.848,56.5905 135.515,55.9238 133.5,54.5 Z"/></g>
<g><path style="opacity:1" fill="#737373" d="M 100.5,58.5 C 110.315,60.0466 119.981,61.7133 129.5,63.5C 129.5,63.8333 129.5,64.1667 129.5,64.5C 121.849,63.3829 114.182,62.2163 106.5,61C 104.277,60.4338 102.277,59.6005 100.5,58.5 Z"/></g>
<g><path style="opacity:1" fill="#8d8f8f" d="M 147.5,61.5 C 150.495,61.2938 153.162,61.9605 155.5,63.5C 155.167,63.5 154.833,63.5 154.5,63.5C 151.848,63.5905 149.515,62.9238 147.5,61.5 Z"/></g>
<g><path style="opacity:1" fill="#366a6a" d="M 83.5,60.5 C 94.2848,62.1745 104.951,63.8412 115.5,65.5C 113.143,65.3367 110.81,65.5034 108.5,66C 109.5,67 110.5,68 111.5,69C 110.833,69.3333 110.167,69.6667 109.5,70C 111.957,71.8522 114.291,73.6856 116.5,75.5C 116.443,76.609 116.11,77.609 115.5,78.5C 110.398,75.2451 105.398,71.7451 100.5,68C 92.1667,64.6667 83.8333,64.6667 75.5,68C 70.6871,73.144 65.5205,77.9774 60,82.5C 59.3292,81.7476 58.4959,81.4142 57.5,81.5C 57.5,81.1667 57.5,80.8333 57.5,80.5C 61.3037,77.5277 64.637,74.0277 67.5,70C 72.7639,66.5419 78.0973,63.3752 83.5,60.5 Z"/></g>
<g><path style="opacity:1" fill="#85e1e1" d="M 140.5,56.5 C 143.85,56.335 147.183,56.5017 150.5,57C 150.167,57.3333 149.833,57.6667 149.5,58C 153.046,59.1737 156.713,59.8404 160.5,60C 165.501,62.5396 170.834,64.2062 176.5,65C 179.354,67.541 181.021,70.7077 181.5,74.5C 176.367,70.4294 171.034,66.596 165.5,63C 156.704,62.1149 148.371,59.9483 140.5,56.5 Z"/></g>
<g><path style="opacity:1" fill="#5b5b5b" d="M 233.5,60.5 C 232.214,63.117 230.547,65.4504 228.5,67.5C 229.01,64.3257 230.677,61.9923 233.5,60.5 Z"/></g>
<g><path style="opacity:1" fill="#595959" d="M 26.5,63.5 C 27.4959,63.4142 28.3292,63.7476 29,64.5C 29.5637,66.8867 30.7304,68.8867 32.5,70.5C 33.2341,71.7079 33.5674,73.0413 33.5,74.5C 29.2588,72.1636 26.9254,68.4969 26.5,63.5 Z"/></g>
<g><path style="opacity:1" fill="#868686" d="M 119.5,66.5 C 119.5,66.1667 119.5,65.8333 119.5,65.5C 121.5,65.5 123.5,65.5 125.5,65.5C 125.031,68.6433 123.364,70.9767 120.5,72.5C 120.5,72.1667 120.5,71.8333 120.5,71.5C 121.476,70.1851 122.476,68.8518 123.5,67.5C 122.311,66.5713 120.978,66.238 119.5,66.5 Z"/></g>
<g><path style="opacity:1" fill="#6a6b6b" d="M 154.5,63.5 C 154.833,63.5 155.167,63.5 155.5,63.5C 159.679,63.742 163.345,65.0753 166.5,67.5C 163.784,67.3215 161.117,66.8215 158.5,66C 156.68,65.7996 155.347,64.9663 154.5,63.5 Z"/></g>
<g><path style="opacity:1" fill="#141a1a" d="M 119.5,66.5 C 120.978,66.238 122.311,66.5713 123.5,67.5C 122.476,68.8518 121.476,70.1851 120.5,71.5C 117.958,71.2941 116.291,69.9608 115.5,67.5C 116.689,66.5713 118.022,66.238 119.5,66.5 Z"/></g>
<g><path style="opacity:1" fill="#5e5e5e" d="M 44.5,64.5 C 46.7705,66.6123 48.1039,69.279 48.5,72.5C 46.2295,70.3877 44.8961,67.721 44.5,64.5 Z"/></g>
<g><path style="opacity:1" fill="#444444" d="M 129.5,63.5 C 131.344,64.2039 131.844,65.5372 131,67.5C 127.268,71.0622 123.768,74.7288 120.5,78.5C 121.072,76.7446 121.906,75.0779 123,73.5C 126.226,71.1311 128.392,68.1311 129.5,64.5C 129.5,64.1667 129.5,63.8333 129.5,63.5 Z"/></g>
<g><path style="opacity:1" fill="#1c3a3a" d="M 68.5,58.5 C 69.9217,58.7086 71.255,59.2086 72.5,60C 67.43,62.6142 63.5966,66.4475 61,71.5C 59.549,73.4641 57.7157,74.7974 55.5,75.5C 54.5,75.1667 53.8333,74.5 53.5,73.5C 55.7157,72.7974 57.549,71.4641 59,69.5C 61.3138,65.025 64.4804,61.3583 68.5,58.5 Z"/></g>
<g><path style="opacity:1" fill="#284a4a" d="M 115.5,65.5 C 116.833,65.5 118.167,65.5 119.5,65.5C 119.5,65.8333 119.5,66.1667 119.5,66.5C 118.022,66.238 116.689,66.5713 115.5,67.5C 116.291,69.9608 117.958,71.2941 120.5,71.5C 120.5,71.8333 120.5,72.1667 120.5,72.5C 119.167,73.5 117.833,74.5 116.5,75.5C 114.291,73.6856 111.957,71.8522 109.5,70C 110.167,69.6667 110.833,69.3333 111.5,69C 110.5,68 109.5,67 108.5,66C 110.81,65.5034 113.143,65.3367 115.5,65.5 Z"/></g>
<g><path style="opacity:1" fill="#858787" d="M 166.5,67.5 C 168.967,67.7549 170.967,68.7549 172.5,70.5C 169.687,70.9754 167.687,69.9754 166.5,67.5 Z"/></g>
<g><path style="opacity:0.18" fill="#4c4c4c" d="M 267.5,67.5 C 266.864,69.7946 265.531,71.4613 263.5,72.5C 263.197,69.4124 264.53,67.7458 267.5,67.5 Z"/></g>
<g><path style="opacity:1" fill="#458484" d="M 115.5,80.5 C 114.167,82.5 112.833,84.5 111.5,86.5C 111.167,86.5 110.833,86.5 110.5,86.5C 101.791,73.2384 90.1244,69.7384 75.5,76C 71.1667,79 67.5,82.6667 64.5,87C 63.552,87.4828 62.552,87.6495 61.5,87.5C 60.8902,86.609 60.5569,85.609 60.5,84.5C 64.9268,80.2497 69.5934,76.0831 74.5,72C 88.5229,65.5632 100.523,68.2298 110.5,80C 111.416,80.3742 112.25,80.8742 113,81.5C 113.671,80.7476 114.504,80.4142 115.5,80.5 Z"/></g>
<g><path style="opacity:1" fill="#8c8d8d" d="M 172.5,70.5 C 174.749,71.0798 176.415,72.4131 177.5,74.5C 175.251,73.9202 173.585,72.5869 172.5,70.5 Z"/></g>
<g><path style="opacity:1" fill="#626262" d="M 240.5,70.5 C 237.5,73.5 234.5,76.5 231.5,79.5C 233.167,75.1667 236.167,72.1667 240.5,70.5 Z"/></g>
<g><path style="opacity:1" fill="#2e5959" d="M 62.5,57.5 C 69.5876,57.8618 76.5876,58.8618 83.5,60.5C 78.0973,63.3752 72.7639,66.5419 67.5,70C 64.637,74.0277 61.3037,77.5277 57.5,80.5C 57.1667,79.8333 56.8333,79.1667 56.5,78.5C 56.4431,77.391 56.1098,76.391 55.5,75.5C 57.7157,74.7974 59.549,73.4641 61,71.5C 63.5966,66.4475 67.43,62.6142 72.5,60C 71.255,59.2086 69.9217,58.7086 68.5,58.5C 66.2646,58.7947 64.2646,58.4614 62.5,57.5 Z"/></g>
<g><path style="opacity:1" fill="#4c9090" d="M 110.5,86.5 C 110.189,87.4778 109.522,88.1445 108.5,88.5C 98.1695,76.1189 86.1695,74.2856 72.5,83C 69.2166,85.772 66.5499,88.9386 64.5,92.5C 63.2632,91.0351 62.2632,89.3684 61.5,87.5C 62.552,87.6495 63.552,87.4828 64.5,87C 67.5,82.6667 71.1667,79 75.5,76C 90.1244,69.7384 101.791,73.2384 110.5,86.5 Z"/></g>
<g><path style="opacity:1" fill="#3d7777" d="M 115.5,78.5 C 115.5,79.1667 115.5,79.8333 115.5,80.5C 114.504,80.4142 113.671,80.7476 113,81.5C 112.25,80.8742 111.416,80.3742 110.5,80C 100.523,68.2298 88.5229,65.5632 74.5,72C 69.5934,76.0831 64.9268,80.2497 60.5,84.5C 59.1667,83.8333 58.1667,82.8333 57.5,81.5C 58.4959,81.4142 59.3292,81.7476 60,82.5C 65.5205,77.9774 70.6871,73.144 75.5,68C 83.8333,64.6667 92.1667,64.6667 100.5,68C 105.398,71.7451 110.398,75.2451 115.5,78.5 Z"/></g>
<g><path style="opacity:1" fill="#616161" d="M 249.5,71.5 C 249.539,74.089 248.539,76.089 246.5,77.5C 246.992,75.1815 247.992,73.1815 249.5,71.5 Z"/></g>
<g><path style="opacity:1" fill="#a0a0a0" d="M 263.5,63.5 C 263.657,64.8734 263.49,66.2068 263,67.5C 260.593,69.5606 259.759,71.8939 260.5,74.5C 260.539,77.089 259.539,79.089 257.5,80.5C 258.218,78.8632 258.384,77.1966 258,75.5C 257.623,76.9423 256.79,77.9423 255.5,78.5C 255.5,77.8333 255.5,77.1667 255.5,76.5C 257.919,71.9914 260.586,67.658 263.5,63.5 Z"/></g>
<g><path style="opacity:1" fill="#575757" d="M 48.5,72.5 C 50.2503,73.6594 51.2503,75.326 51.5,77.5C 49.5923,76.5144 48.5923,74.8477 48.5,72.5 Z"/></g>
<g><path style="opacity:1" fill="#444545" d="M 243.5,71.5 C 244.239,71.369 244.906,71.5357 245.5,72C 244.267,74.3143 242.933,76.4809 241.5,78.5C 241.631,77.7611 241.464,77.0944 241,76.5C 239.296,78.3734 237.463,80.0401 235.5,81.5C 235.167,81.5 234.833,81.5 234.5,81.5C 237.529,78.141 240.529,74.8076 243.5,71.5 Z"/></g>
<g><path style="opacity:1" fill="#0d0f0f" d="M 241.5,78.5 C 240.167,80.1667 238.833,81.8333 237.5,83.5C 236.5,83.1667 235.833,82.5 235.5,81.5C 237.463,80.0401 239.296,78.3734 241,76.5C 241.464,77.0944 241.631,77.7611 241.5,78.5 Z"/></g>
<g><path style="opacity:0.25" fill="#2a2b2b" d="M 260.5,74.5 C 261.167,74.5 261.833,74.5 262.5,74.5C 262.785,76.288 262.452,77.9547 261.5,79.5C 260.032,82.1536 258.365,84.487 256.5,86.5C 256.629,84.7839 256.962,83.1172 257.5,81.5C 257.5,81.1667 257.5,80.8333 257.5,80.5C 259.539,79.089 260.539,77.089 260.5,74.5 Z"/></g>
<g><path style="opacity:1" fill="#254141" d="M 174.5,81.5 C 160.345,70.408 145.679,69.908 130.5,80C 125.428,84.7214 121.595,90.2214 119,96.5C 117.183,110.795 121.35,122.961 131.5,133C 139.702,137.065 148.369,138.399 157.5,137C 158.056,136.617 158.389,136.117 158.5,135.5C 163.043,135.394 167.376,134.394 171.5,132.5C 163.652,139.633 154.319,142.133 143.5,140C 138.7,139.22 134.366,137.386 130.5,134.5C 116.004,121.838 112.504,106.505 120,88.5C 130.05,72.6999 144.217,67.5332 162.5,73C 164.49,74.7506 166.823,75.7506 169.5,76C 171.194,77.9355 172.861,79.7688 174.5,81.5 Z"/></g>
<g><path style="opacity:1" fill="#bfcece" d="M 106.5,49.5 C 106.842,48.6618 107.508,48.3284 108.5,48.5C 112.136,49.3255 115.803,49.9922 119.5,50.5C 120.919,51.4511 122.585,51.7845 124.5,51.5C 124.791,52.6491 125.624,53.3158 127,53.5C 129.137,54.0767 131.304,54.41 133.5,54.5C 135.515,55.9238 137.848,56.5905 140.5,56.5C 148.371,59.9483 156.704,62.1149 165.5,63C 171.034,66.596 176.367,70.4294 181.5,74.5C 183.167,76.8333 185.167,78.8333 187.5,80.5C 187.733,82.0618 188.4,83.3951 189.5,84.5C 189.461,87.089 190.461,89.089 192.5,90.5C 192.386,93.216 193.386,95.216 195.5,96.5C 195.366,98.2915 195.699,99.9582 196.5,101.5C 196.833,102.833 197.167,104.167 197.5,105.5C 196.791,106.404 195.791,106.737 194.5,106.5C 194.59,103.848 193.924,101.515 192.5,99.5C 191.069,98.2196 190.402,96.5529 190.5,94.5C 190.108,89.8153 188.108,86.1486 184.5,83.5C 184.573,81.9731 183.906,80.9731 182.5,80.5C 180.886,78.5441 179.219,76.5441 177.5,74.5C 176.415,72.4131 174.749,71.0798 172.5,70.5C 170.967,68.7549 168.967,67.7549 166.5,67.5C 163.345,65.0753 159.679,63.742 155.5,63.5C 153.162,61.9605 150.495,61.2938 147.5,61.5C 145.883,60.962 144.216,60.6287 142.5,60.5C 134.783,56.5447 126.45,54.2113 117.5,53.5C 117.167,53.5 116.833,53.5 116.5,53.5C 113.317,51.99 109.984,50.6567 106.5,49.5 Z"/></g>
<g><path style="opacity:1" fill="#539d9d" d="M 110.5,86.5 C 110.833,86.5 111.167,86.5 111.5,86.5C 110.043,88.6282 109.043,90.9616 108.5,93.5C 104.728,90.9059 101.061,88.0726 97.5,85C 88.3252,81.0433 79.9919,82.3767 72.5,89C 71.0229,91.4449 69.1896,93.6116 67,95.5C 66.3292,94.7476 65.4959,94.4142 64.5,94.5C 64.5,93.8333 64.5,93.1667 64.5,92.5C 66.5499,88.9386 69.2166,85.772 72.5,83C 86.1695,74.2856 98.1695,76.1189 108.5,88.5C 109.522,88.1445 110.189,87.4778 110.5,86.5 Z"/></g>
<g><path style="opacity:1" fill="#bababa" d="M 30.5,61.5 C 34.1635,67.492 37.8301,73.492 41.5,79.5C 41.427,81.0269 42.0937,82.0269 43.5,82.5C 45.539,83.911 46.539,85.911 46.5,88.5C 47.1465,90.1561 47.8131,91.8228 48.5,93.5C 48.4573,94.4164 48.1239,95.0831 47.5,95.5C 46.9744,93.7697 45.9744,92.4363 44.5,91.5C 42.1892,87.6602 40.0226,83.6602 38,79.5C 36.9509,77.3825 35.4509,75.7158 33.5,74.5C 33.5674,73.0413 33.2341,71.7079 32.5,70.5C 33.8012,68.544 33.3012,66.8774 31,65.5C 30.51,64.2068 30.3433,62.8734 30.5,61.5 Z"/></g>
<g><path style="opacity:1" fill="#6e6e6e" d="M 41.5,79.5 C 42.9063,79.9731 43.573,80.9731 43.5,82.5C 42.0937,82.0269 41.427,81.0269 41.5,79.5 Z"/></g>
<g><path style="opacity:1" fill="#5c5c5c" d="M 255.5,76.5 C 255.5,77.1667 255.5,77.8333 255.5,78.5C 254.872,80.6616 253.539,82.3282 251.5,83.5C 251.725,80.4542 253.058,78.1209 255.5,76.5 Z"/></g>
<g><path style="opacity:1" fill="#3f3f3f" d="M 120.5,78.5 C 119.575,82.272 117.575,85.272 114.5,87.5C 114.893,85.7162 115.559,84.0495 116.5,82.5C 117.833,81.1667 119.167,79.8333 120.5,78.5 Z"/></g>
<g><path style="opacity:1" fill="#5c5d5d" d="M 182.5,80.5 C 183.906,80.9731 184.573,81.9731 184.5,83.5C 183.094,83.0269 182.427,82.0269 182.5,80.5 Z"/></g>
<g><path style="opacity:1" fill="#535353" d="M 51.5,77.5 C 51.8333,77.5 52.1667,77.5 52.5,77.5C 53.7729,79.7128 54.7729,82.0462 55.5,84.5C 53.412,82.6644 52.0787,80.3311 51.5,77.5 Z"/></g>
<g><path style="opacity:1" fill="#484848" d="M 246.5,77.5 C 245.892,80.4062 244.559,82.7396 242.5,84.5C 243.079,81.6689 244.412,79.3356 246.5,77.5 Z"/></g>
<g><path style="opacity:0.643" fill="#585858" d="M 33.5,74.5 C 35.4509,75.7158 36.9509,77.3825 38,79.5C 40.0226,83.6602 42.1892,87.6602 44.5,91.5C 43.8333,91.5 43.1667,91.5 42.5,91.5C 39.9001,88.547 37.5667,85.3803 35.5,82C 34.5212,79.5667 33.8545,77.0667 33.5,74.5 Z"/></g>
<g><path style="opacity:1" fill="#5c5c5c" d="M 230.5,80.5 C 227.167,83.8333 223.833,87.1667 220.5,90.5C 222.5,85.8333 225.833,82.5 230.5,80.5 Z"/></g>
<g><path style="opacity:1" fill="#5aa9a9" d="M 108.5,93.5 C 108.5,94.1667 108.5,94.8333 108.5,95.5C 107.833,96.5 107.167,97.5 106.5,98.5C 94.6987,85.4129 82.6987,85.2463 70.5,98C 69.552,98.4828 68.552,98.6495 67.5,98.5C 66.7888,96.9699 65.7888,95.6366 64.5,94.5C 65.4959,94.4142 66.3292,94.7476 67,95.5C 69.1896,93.6116 71.0229,91.4449 72.5,89C 79.9919,82.3767 88.3252,81.0433 97.5,85C 101.061,88.0726 104.728,90.9059 108.5,93.5 Z"/></g>
<g><path style="opacity:1" fill="#848686" d="M 184.5,83.5 C 188.108,86.1486 190.108,89.8153 190.5,94.5C 189.542,94.0472 188.708,93.3805 188,92.5C 187.362,89.2357 186.196,86.2357 184.5,83.5 Z"/></g>
<g><path style="opacity:1" fill="#509292" d="M 208.5,86.5 C 206.397,89.7198 204.064,92.7198 201.5,95.5C 199.32,94.2056 197.32,94.5389 195.5,96.5C 193.386,95.216 192.386,93.216 192.5,90.5C 197.631,88.8993 202.631,86.8993 207.5,84.5C 208.298,84.9569 208.631,85.6236 208.5,86.5 Z"/></g>
<g><path style="opacity:1" fill="#b3bcbc" d="M 247.5,42.5 C 246.833,42.5 246.5,42.8333 246.5,43.5C 244.178,44.8021 242.845,46.8021 242.5,49.5C 240.554,50.0347 239.554,51.368 239.5,53.5C 236.757,55.2393 234.757,57.5726 233.5,60.5C 230.677,61.9923 229.01,64.3257 228.5,67.5C 225.094,70.8986 222.094,74.5653 219.5,78.5C 214.79,83.8767 210.457,89.5434 206.5,95.5C 204.738,96.2623 203.738,97.5956 203.5,99.5C 201.738,100.262 200.738,101.596 200.5,103.5C 199.5,104.167 198.5,104.833 197.5,105.5C 197.167,104.167 196.833,102.833 196.5,101.5C 198.156,99.5398 199.823,97.5398 201.5,95.5C 204.064,92.7198 206.397,89.7198 208.5,86.5C 212.917,80.6889 217.584,75.0222 222.5,69.5C 223.861,67.1495 225.194,64.8162 226.5,62.5C 228.543,61.4206 229.876,59.754 230.5,57.5C 232.522,56.493 233.855,54.8263 234.5,52.5C 235.5,52.1667 236.167,51.5 236.5,50.5C 240.161,47.9923 242.828,44.659 244.5,40.5C 244.5,40.1667 244.5,39.8333 244.5,39.5C 248.074,37.9912 249.074,38.9912 247.5,42.5 Z"/></g>
<g><path style="opacity:1" fill="#5a5a5a" d="M 55.5,85.5 C 57.4456,86.0347 58.4456,87.368 58.5,89.5C 56.5544,88.9653 55.5544,87.632 55.5,85.5 Z"/></g>
<g><path style="opacity:1" fill="#2a4a4a" d="M 234.5,81.5 C 234.833,81.5 235.167,81.5 235.5,81.5C 235.833,82.5 236.5,83.1667 237.5,83.5C 237.167,84.8333 236.833,86.1667 236.5,87.5C 232.811,90.4838 231.144,89.4838 231.5,84.5C 231.5,82.5 232.5,81.5 234.5,81.5 Z"/></g>
<g><path style="opacity:1" fill="#575757" d="M 219.5,78.5 C 216.31,85.0258 211.976,90.6924 206.5,95.5C 210.457,89.5434 214.79,83.8767 219.5,78.5 Z"/></g>
<g><path style="opacity:1" fill="#bcc0c0" d="M 253.5,64.5 C 252.115,65.5736 250.949,66.9069 250,68.5C 249.577,67.0439 248.744,66.5439 247.5,67C 245.959,68.3712 244.625,69.8712 243.5,71.5C 240.529,74.8076 237.529,78.141 234.5,81.5C 232.5,81.5 231.5,82.5 231.5,84.5C 230.167,85.1667 229.167,86.1667 228.5,87.5C 224.124,90.5088 220.457,94.1754 217.5,98.5C 215.833,99.8333 214.167,101.167 212.5,102.5C 209.5,104.5 206.5,106.5 203.5,108.5C 205.5,106.167 207.5,103.833 209.5,101.5C 213.167,98.5 216.5,95.1667 219.5,91.5C 219.5,90.8333 219.833,90.5 220.5,90.5C 223.833,87.1667 227.167,83.8333 230.5,80.5C 230.5,79.8333 230.833,79.5 231.5,79.5C 234.5,76.5 237.5,73.5 240.5,70.5C 240.833,69.8333 241.167,69.1667 241.5,68.5C 245.948,65.089 250.281,61.4223 254.5,57.5C 254.833,58 255.167,58.5 255.5,59C 254.68,60.8003 254.014,62.6336 253.5,64.5 Z"/></g>
<g><path style="opacity:1" fill="#454545" d="M 242.5,84.5 C 242.306,88.7165 240.64,92.0499 237.5,94.5C 238.102,90.6284 239.769,87.2951 242.5,84.5 Z"/></g>
<g><path style="opacity:1" fill="#7f7f7f" d="M 251.5,84.5 C 251.088,86.8867 250.088,88.8867 248.5,90.5C 248.031,87.6067 249.031,85.6067 251.5,84.5 Z"/></g>
<g><path style="opacity:0.198" fill="#1b1c1b" d="M 42.5,91.5 C 43.1667,91.5 43.8333,91.5 44.5,91.5C 44.5,92.1667 44.5,92.8333 44.5,93.5C 43.1667,93.5 42.5,92.8333 42.5,91.5 Z"/></g>
<g><path style="opacity:1" fill="#60b6b6" d="M 106.5,98.5 C 105.94,100.801 105.44,103.134 105,105.5C 98.8047,95.4348 90.3047,92.6014 79.5,97C 76.6032,99.41 73.6032,101.577 70.5,103.5C 69.2485,101.999 68.2485,100.332 67.5,98.5C 68.552,98.6495 69.552,98.4828 70.5,98C 82.6987,85.2463 94.6987,85.4129 106.5,98.5 Z"/></g>
<g><path style="opacity:1" fill="#3e6f6f" d="M 231.5,84.5 C 231.144,89.4838 232.811,90.4838 236.5,87.5C 235.014,91.137 233.014,94.4704 230.5,97.5C 228.191,96.6123 226.524,94.9456 225.5,92.5C 226.952,91.0603 227.952,89.3936 228.5,87.5C 229.167,86.1667 230.167,85.1667 231.5,84.5 Z"/></g>
<g><path style="opacity:1" fill="#bfd2d2" d="M 115.5,80.5 C 116.338,80.8417 116.672,81.5084 116.5,82.5C 115.559,84.0495 114.893,85.7162 114.5,87.5C 111.819,90.1918 110.486,93.5252 110.5,97.5C 108.571,103.915 108.071,110.582 109,117.5C 109.417,118.756 110.25,119.423 111.5,119.5C 112.427,125.134 113.093,130.801 113.5,136.5C 112.361,130.681 110.528,125.014 108,119.5C 107.302,111.472 107.468,103.472 108.5,95.5C 108.5,94.8333 108.5,94.1667 108.5,93.5C 109.043,90.9616 110.043,88.6282 111.5,86.5C 112.833,84.5 114.167,82.5 115.5,80.5 Z"/></g>
<g><path style="opacity:1" fill="#686868" d="M 58.5,89.5 C 60.2503,90.6594 61.2503,92.326 61.5,94.5C 59.5923,93.5144 58.5923,91.8477 58.5,89.5 Z"/></g>
<g><path style="opacity:1" fill="#7b7c7c" d="M 114.5,87.5 C 113.833,89.8333 113.167,92.1667 112.5,94.5C 111.833,95.5 111.167,96.5 110.5,97.5C 110.486,93.5252 111.819,90.1918 114.5,87.5 Z"/></g>
<g><path style="opacity:1" fill="#c9c9c9" d="M 257.5,80.5 C 257.5,80.8333 257.5,81.1667 257.5,81.5C 254.331,85.833 251.664,90.4997 249.5,95.5C 246.298,97.7924 245.631,96.7924 247.5,92.5C 247.328,91.5084 247.662,90.8417 248.5,90.5C 250.088,88.8867 251.088,86.8867 251.5,84.5C 251.5,84.1667 251.5,83.8333 251.5,83.5C 253.539,82.3282 254.872,80.6616 255.5,78.5C 256.79,77.9423 257.623,76.9423 258,75.5C 258.384,77.1966 258.218,78.8632 257.5,80.5 Z"/></g>
<g><path style="opacity:0.388" fill="#5b5b5b" d="M 257.5,81.5 C 256.962,83.1172 256.629,84.7839 256.5,86.5C 254.997,89.5876 253.331,92.5876 251.5,95.5C 250.833,95.5 250.167,95.5 249.5,95.5C 251.664,90.4997 254.331,85.833 257.5,81.5 Z"/></g>
<g><path style="opacity:1" fill="#9a9a9a" d="M 46.5,88.5 C 50.3356,91.6783 53.0023,95.6783 54.5,100.5C 52.8073,99.5251 51.3073,98.1918 50,96.5C 49.5357,97.0944 49.369,97.7611 49.5,98.5C 48.5987,97.7095 47.9321,96.7095 47.5,95.5C 48.1239,95.0831 48.4573,94.4164 48.5,93.5C 47.8131,91.8228 47.1465,90.1561 46.5,88.5 Z"/></g>
<g><path style="opacity:1" fill="#447171" d="M 201.5,95.5 C 199.823,97.5398 198.156,99.5398 196.5,101.5C 195.699,99.9582 195.366,98.2915 195.5,96.5C 197.32,94.5389 199.32,94.2056 201.5,95.5 Z"/></g>
<g><path style="opacity:1" fill="#5c5c5c" d="M 219.5,91.5 C 216.5,95.1667 213.167,98.5 209.5,101.5C 211.833,97.1667 215.167,93.8333 219.5,91.5 Z"/></g>
<g><path style="opacity:1" fill="#5b5b5b" d="M 206.5,95.5 C 206.262,97.4044 205.262,98.7377 203.5,99.5C 203.738,97.5956 204.738,96.2623 206.5,95.5 Z"/></g>
<g><path style="opacity:0.404" fill="#474747" d="M 44.5,91.5 C 45.9744,92.4363 46.9744,93.7697 47.5,95.5C 47.9321,96.7095 48.5987,97.7095 49.5,98.5C 52.8385,104.864 56.1718,111.197 59.5,117.5C 60.8832,119.978 61.8832,122.645 62.5,125.5C 61.5416,125.047 60.7083,124.381 60,123.5C 56.1863,115.203 51.6863,107.37 46.5,100C 45.7259,97.8458 45.0592,95.6792 44.5,93.5C 44.5,92.8333 44.5,92.1667 44.5,91.5 Z"/></g>
<g><path style="opacity:1" fill="#a0a0a0" d="M 247.5,92.5 C 245.631,96.7924 246.298,97.7924 249.5,95.5C 248.214,98.117 246.547,100.45 244.5,102.5C 244.631,101.761 244.464,101.094 244,100.5C 242.961,101.71 241.794,102.71 240.5,103.5C 241.626,99.0457 243.959,95.379 247.5,92.5 Z"/></g>
<g><path style="opacity:1" fill="#c9c9c9" d="M 54.5,100.5 C 55.2173,104.88 57.2173,108.546 60.5,111.5C 61.5448,114.114 62.0448,116.78 62,119.5C 61.2917,118.619 60.4584,117.953 59.5,117.5C 56.1718,111.197 52.8385,104.864 49.5,98.5C 49.369,97.7611 49.5357,97.0944 50,96.5C 51.3073,98.1918 52.8073,99.5251 54.5,100.5 Z"/></g>
<g><path style="opacity:1" fill="#539797" d="M 228.5,87.5 C 227.952,89.3936 226.952,91.0603 225.5,92.5C 226.524,94.9456 228.191,96.6123 230.5,97.5C 228.178,101.472 225.845,105.472 223.5,109.5C 221.031,106.856 218.698,104.023 216.5,101C 217.252,100.329 217.586,99.4959 217.5,98.5C 220.457,94.1754 224.124,90.5088 228.5,87.5 Z"/></g>
<g><path style="opacity:1" fill="#666666" d="M 62.5,96.5 C 64.2503,97.6594 65.2503,99.326 65.5,101.5C 63.5923,100.514 62.5923,98.8477 62.5,96.5 Z"/></g>
<g><path style="opacity:1" fill="#6cc7c7" d="M 106.5,98.5 C 107.167,97.5 107.833,96.5 108.5,95.5C 107.468,103.472 107.302,111.472 108,119.5C 110.528,125.014 112.361,130.681 113.5,136.5C 114.581,139.627 115.247,142.96 115.5,146.5C 114.442,145.4 113.608,144.066 113,142.5C 112.429,151.448 110.596,160.115 107.5,168.5C 105.331,166.66 103.998,164.326 103.5,161.5C 105.305,153.94 106.638,146.273 107.5,138.5C 107.077,130.475 105.243,122.808 102,115.5C 97.9772,107.906 91.8105,104.739 83.5,106C 81.0905,107.201 79.0905,108.867 77.5,111C 76.552,111.483 75.552,111.649 74.5,111.5C 72.6395,109.112 71.3061,106.446 70.5,103.5C 73.6032,101.577 76.6032,99.41 79.5,97C 90.3047,92.6014 98.8047,95.4348 105,105.5C 105.44,103.134 105.94,100.801 106.5,98.5 Z"/></g>
<g><path style="opacity:1" fill="#5a5a5a" d="M 192.5,99.5 C 193.924,101.515 194.59,103.848 194.5,106.5C 193.076,104.485 192.41,102.152 192.5,99.5 Z"/></g>
<g><path style="opacity:1" fill="#b6c2c2" d="M 56.5,78.5 C 56.8333,79.1667 57.1667,79.8333 57.5,80.5C 57.5,80.8333 57.5,81.1667 57.5,81.5C 58.1667,82.8333 59.1667,83.8333 60.5,84.5C 60.5569,85.609 60.8902,86.609 61.5,87.5C 62.2632,89.3684 63.2632,91.0351 64.5,92.5C 64.5,93.1667 64.5,93.8333 64.5,94.5C 65.7888,95.6366 66.7888,96.9699 67.5,98.5C 68.2485,100.332 69.2485,101.999 70.5,103.5C 71.3061,106.446 72.6395,109.112 74.5,111.5C 76.6623,116.496 79.3289,121.162 82.5,125.5C 83.1098,126.391 83.4431,127.391 83.5,128.5C 84.1667,130.833 84.8333,133.167 85.5,135.5C 84.8333,135.167 84.1667,134.833 83.5,134.5C 81.8052,131.483 80.1385,128.483 78.5,125.5C 78.573,123.973 77.9063,122.973 76.5,122.5C 73.2364,115.251 69.5698,108.251 65.5,101.5C 65.2503,99.326 64.2503,97.6594 62.5,96.5C 61.6618,96.1583 61.3284,95.4916 61.5,94.5C 61.2503,92.326 60.2503,90.6594 58.5,89.5C 58.4456,87.368 57.4456,86.0347 55.5,85.5C 55.5,85.1667 55.5,84.8333 55.5,84.5C 54.7729,82.0462 53.7729,79.7128 52.5,77.5C 52.369,76.7611 52.5357,76.0944 53,75.5C 54.0391,76.7101 55.2058,77.7101 56.5,78.5 Z"/></g>
<g><path style="opacity:1" fill="#434343" d="M 112.5,94.5 C 111.046,104.231 111.379,113.898 113.5,123.5C 112.833,122.167 112.167,120.833 111.5,119.5C 110.65,112.201 110.317,104.868 110.5,97.5C 111.167,96.5 111.833,95.5 112.5,94.5 Z"/></g>
<g><path style="opacity:1" fill="#616161" d="M 200.5,103.5 C 199.901,105.934 198.401,107.601 196,108.5C 194.97,108.164 194.47,107.497 194.5,106.5C 195.791,106.737 196.791,106.404 197.5,105.5C 198.5,104.833 199.5,104.167 200.5,103.5 Z"/></g>
<g><path style="opacity:1" fill="#60b1b1" d="M 217.5,98.5 C 217.586,99.4959 217.252,100.329 216.5,101C 218.698,104.023 221.031,106.856 223.5,109.5C 223.5,110.167 223.5,110.833 223.5,111.5C 221.508,114.16 219.508,116.827 217.5,119.5C 215.08,115.9 212.414,112.4 209.5,109C 210.337,107.989 210.67,106.822 210.5,105.5C 211.167,104.5 211.833,103.5 212.5,102.5C 214.167,101.167 215.833,99.8333 217.5,98.5 Z"/></g>
<g><path style="opacity:1" fill="#c1c1c1" d="M 244.5,102.5 C 243.434,104.701 242.767,107.035 242.5,109.5C 241.5,110.167 240.5,110.833 239.5,111.5C 238.903,111.265 238.57,110.765 238.5,110C 239.274,107.846 239.941,105.679 240.5,103.5C 241.794,102.71 242.961,101.71 244,100.5C 244.464,101.094 244.631,101.761 244.5,102.5 Z"/></g>
<g><path style="opacity:1" fill="#254242" d="M 174.5,81.5 C 179.805,85.86 182.971,91.5267 184,98.5C 184.667,103.833 184.667,109.167 184,114.5C 182.249,116.49 181.249,118.823 181,121.5C 179.212,126.441 176.046,130.107 171.5,132.5C 178.848,124.97 182.181,115.803 181.5,105C 181.387,101.641 181.054,98.3077 180.5,95C 178.129,90.7161 176.129,86.2161 174.5,81.5 Z"/></g>
<g><path style="opacity:1" fill="#acb3b3" d="M 253.5,64.5 C 252.937,67.2948 251.604,69.6282 249.5,71.5C 247.992,73.1815 246.992,75.1815 246.5,77.5C 244.412,79.3356 243.079,81.6689 242.5,84.5C 239.769,87.2951 238.102,90.6284 237.5,94.5C 236.012,96.9669 234.346,99.3002 232.5,101.5C 230.058,103.121 228.725,105.454 228.5,108.5C 227.611,111.993 225.945,114.993 223.5,117.5C 223.5,115.5 223.5,113.5 223.5,111.5C 223.5,110.833 223.5,110.167 223.5,109.5C 225.845,105.472 228.178,101.472 230.5,97.5C 233.014,94.4704 235.014,91.137 236.5,87.5C 236.833,86.1667 237.167,84.8333 237.5,83.5C 238.833,81.8333 240.167,80.1667 241.5,78.5C 242.933,76.4809 244.267,74.3143 245.5,72C 244.906,71.5357 244.239,71.369 243.5,71.5C 244.625,69.8712 245.959,68.3712 247.5,67C 248.744,66.5439 249.577,67.0439 250,68.5C 250.949,66.9069 252.115,65.5736 253.5,64.5 Z"/></g>
<g><path style="opacity:1" fill="#656565" d="M 232.5,101.5 C 232.275,104.546 230.942,106.879 228.5,108.5C 228.725,105.454 230.058,103.121 232.5,101.5 Z"/></g>
<g><path style="opacity:0.466" fill="#3c3c3c" d="M 249.5,95.5 C 250.167,95.5 250.833,95.5 251.5,95.5C 249.263,99.6531 247.096,103.986 245,108.5C 244.329,109.252 243.496,109.586 242.5,109.5C 242.767,107.035 243.434,104.701 244.5,102.5C 246.547,100.45 248.214,98.117 249.5,95.5 Z"/></g>
<g><path style="opacity:1" fill="#74d8d8" d="M 103.5,161.5 C 101.507,158.574 99.5066,155.574 97.5,152.5C 96.7542,151.264 96.4208,149.93 96.5,148.5C 98.4245,140.187 97.5912,132.187 94,124.5C 90.9738,121.136 87.4738,120.636 83.5,123C 82.7476,123.671 82.4142,124.504 82.5,125.5C 79.3289,121.162 76.6623,116.496 74.5,111.5C 75.552,111.649 76.552,111.483 77.5,111C 79.0905,108.867 81.0905,107.201 83.5,106C 91.8105,104.739 97.9772,107.906 102,115.5C 105.243,122.808 107.077,130.475 107.5,138.5C 106.638,146.273 105.305,153.94 103.5,161.5 Z"/></g>
<g><path style="opacity:1" fill="#797979" d="M 54.5,100.5 C 57.3282,103.675 59.3282,107.342 60.5,111.5C 57.2173,108.546 55.2173,104.88 54.5,100.5 Z"/></g>
<g><path style="opacity:1" fill="#737373" d="M 209.5,101.5 C 207.5,103.833 205.5,106.167 203.5,108.5C 201.105,111.861 198.105,114.528 194.5,116.5C 194.369,115.761 194.536,115.094 195,114.5C 199.853,110.053 204.686,105.719 209.5,101.5 Z"/></g>
<g><path style="opacity:1" fill="#959595" d="M 240.5,103.5 C 239.941,105.679 239.274,107.846 238.5,110C 238.57,110.765 238.903,111.265 239.5,111.5C 239.498,115.165 238.165,118.165 235.5,120.5C 236.928,117.988 237.428,115.322 237,112.5C 236.292,113.381 235.458,114.047 234.5,114.5C 236.196,111.764 237.362,108.764 238,105.5C 238.708,104.619 239.542,103.953 240.5,103.5 Z"/></g>
<g><path style="opacity:1" fill="#6fcccc" d="M 210.5,105.5 C 210.67,106.822 210.337,107.989 209.5,109C 212.414,112.4 215.08,115.9 217.5,119.5C 216.389,123.941 214.389,127.941 211.5,131.5C 207.554,126.543 203.554,121.543 199.5,116.5C 202.473,112.194 206.139,108.527 210.5,105.5 Z"/></g>
<g><path style="opacity:0.218" fill="#2a2b2a" d="M 242.5,109.5 C 242.208,115.085 239.875,119.418 235.5,122.5C 235.5,121.833 235.5,121.167 235.5,120.5C 238.165,118.165 239.498,115.165 239.5,111.5C 240.5,110.833 241.5,110.167 242.5,109.5 Z"/></g>
<g><path style="opacity:1" fill="#abb3b3" d="M 110.5,97.5 C 110.317,104.868 110.65,112.201 111.5,119.5C 110.25,119.423 109.417,118.756 109,117.5C 108.071,110.582 108.571,103.915 110.5,97.5 Z"/></g>
<g><path style="opacity:1" fill="#676767" d="M 223.5,117.5 C 223.573,119.027 222.906,120.027 221.5,120.5C 221.427,118.973 222.094,117.973 223.5,117.5 Z"/></g>
<g><path style="opacity:1" fill="#77dddd" d="M 199.5,116.5 C 203.554,121.543 207.554,126.543 211.5,131.5C 209.566,136.329 206.899,140.663 203.5,144.5C 202.411,136.498 198.411,130.331 191.5,126C 192.985,123.683 194.652,121.516 196.5,119.5C 197.167,118.167 198.167,117.167 199.5,116.5 Z"/></g>
<g><path style="opacity:1" fill="#787878" d="M 234.5,114.5 C 233.532,117.1 232.199,119.434 230.5,121.5C 230.725,118.454 232.058,116.121 234.5,114.5 Z"/></g>
<g><path style="opacity:0.651" fill="#787878" d="M 235.5,120.5 C 235.5,121.167 235.5,121.833 235.5,122.5C 235.167,123.167 234.833,123.833 234.5,124.5C 233.833,124.5 233.167,124.5 232.5,124.5C 232.738,122.596 233.738,121.262 235.5,120.5 Z"/></g>
<g><path style="opacity:1" fill="#646464" d="M 230.5,121.5 C 230.262,123.404 229.262,124.738 227.5,125.5C 227.738,123.596 228.738,122.262 230.5,121.5 Z"/></g>
<g><path style="opacity:1" fill="#5a5a5a" d="M 76.5,122.5 C 77.9063,122.973 78.573,123.973 78.5,125.5C 77.0937,125.027 76.427,124.027 76.5,122.5 Z"/></g>
<g><path style="opacity:1" fill="#82efef" d="M 96.5,148.5 C 94.461,147.328 93.1276,145.662 92.5,143.5C 90.2513,137.995 87.2513,132.995 83.5,128.5C 83.4431,127.391 83.1098,126.391 82.5,125.5C 82.4142,124.504 82.7476,123.671 83.5,123C 87.4738,120.636 90.9738,121.136 94,124.5C 97.5912,132.187 98.4245,140.187 96.5,148.5 Z"/></g>
<g><path style="opacity:1" fill="#a6a6a6" d="M 60.5,111.5 C 65.1447,117.442 68.8114,124.108 71.5,131.5C 69.9256,131.063 68.7589,130.063 68,128.5C 67.5172,129.448 67.3505,130.448 67.5,131.5C 66.8333,131.167 66.1667,130.833 65.5,130.5C 66.0838,127.715 65.0838,126.048 62.5,125.5C 61.8832,122.645 60.8832,119.978 59.5,117.5C 60.4584,117.953 61.2917,118.619 62,119.5C 62.0448,116.78 61.5448,114.114 60.5,111.5 Z"/></g>
<g><path style="opacity:1" fill="#7d7e7e" d="M 221.5,120.5 C 220.388,125.264 218.054,129.264 214.5,132.5C 216.043,127.976 218.377,123.976 221.5,120.5 Z"/></g>
<g><path style="opacity:0.222" fill="#313131" d="M 232.5,124.5 C 233.167,124.5 233.833,124.5 234.5,124.5C 234.408,126.848 233.408,128.514 231.5,129.5C 231.5,128.5 231.5,127.5 231.5,126.5C 232.338,126.158 232.672,125.492 232.5,124.5 Z"/></g>
<g><path style="opacity:1" fill="#747575" d="M 194.5,116.5 C 188.756,122.419 183.089,128.585 177.5,135C 175.183,137.157 172.516,138.657 169.5,139.5C 178.232,132.095 186.565,124.428 194.5,116.5 Z"/></g>
<g><path style="opacity:0.271" fill="#323232" d="M 62.5,125.5 C 65.0838,126.048 66.0838,127.715 65.5,130.5C 63.5923,129.514 62.5923,127.848 62.5,125.5 Z"/></g>
<g><path style="opacity:1" fill="#737373" d="M 231.5,126.5 C 231.5,127.5 231.5,128.5 231.5,129.5C 230.728,130.694 229.728,131.694 228.5,132.5C 228.992,130.181 229.992,128.181 231.5,126.5 Z"/></g>
<g><path style="opacity:1" fill="#444444" d="M 227.5,125.5 C 226.416,128.004 225.083,130.337 223.5,132.5C 223.555,129.386 224.888,127.052 227.5,125.5 Z"/></g>
<g><path style="opacity:1" fill="#346464" d="M 174.5,81.5 C 176.129,86.2161 178.129,90.7161 180.5,95C 181.054,98.3077 181.387,101.641 181.5,105C 182.181,115.803 178.848,124.97 171.5,132.5C 167.376,134.394 163.043,135.394 158.5,135.5C 158.389,136.117 158.056,136.617 157.5,137C 148.369,138.399 139.702,137.065 131.5,133C 121.35,122.961 117.183,110.795 119,96.5C 121.595,90.2214 125.428,84.7214 130.5,80C 145.679,69.908 160.345,70.408 174.5,81.5 Z"/></g>
<g><path style="opacity:1" fill="#3e7979" d="M 156.5,77.5 C 150.435,77.2614 144.435,77.7614 138.5,79C 134.007,82.4934 129.841,86.3267 126,90.5C 125.037,95.6479 124.204,100.815 123.5,106C 124.278,109.473 125.112,112.973 126,116.5C 126.377,117.942 127.21,118.942 128.5,119.5C 131.25,122.431 133.916,125.598 136.5,129C 140.187,131.285 144.187,132.452 148.5,132.5C 161.744,134.617 170.91,129.283 176,116.5C 177.355,110.215 177.689,103.882 177,97.5C 175.025,94.4775 173.859,91.1441 173.5,87.5C 174.458,87.9528 175.292,88.6195 176,89.5C 179.334,96.4189 180.334,103.752 179,111.5C 178.213,115.179 177.379,118.846 176.5,122.5C 171.105,127.846 165.105,132.179 158.5,135.5C 149.482,136.761 141.148,135.095 133.5,130.5C 131.146,127.312 128.312,124.645 125,122.5C 117.272,104.045 121.439,89.2118 137.5,78C 143.351,75.8817 149.351,75.215 155.5,76C 156.056,76.3826 156.389,76.8826 156.5,77.5 Z"/></g>
<g><path style="opacity:1" fill="#54a1a1" d="M 158.5,81.5 C 167.091,84.4308 172.091,90.4308 173.5,99.5C 174.717,107.64 172.884,114.973 168,121.5C 166.143,124.2 163.643,125.866 160.5,126.5C 162.412,124.083 164.578,121.75 167,119.5C 172.309,111.65 172.809,103.65 168.5,95.5C 165.011,88.0663 159.011,84.0663 150.5,83.5C 147.135,84.0752 143.802,84.7419 140.5,85.5C 137.053,88.5265 133.719,91.5265 130.5,94.5C 130.709,93.0783 131.209,91.745 132,90.5C 139.225,83.3052 148.058,80.3052 158.5,81.5 Z"/></g>
<g><path style="opacity:1" fill="#4d9595" d="M 158.5,81.5 C 148.058,80.3052 139.225,83.3052 132,90.5C 131.209,91.745 130.709,93.0783 130.5,94.5C 128.883,95.5893 128.05,97.256 128,99.5C 126.31,108.429 128.31,116.429 134,123.5C 142.5,127.334 151.333,128.334 160.5,126.5C 163.643,125.866 166.143,124.2 168,121.5C 172.884,114.973 174.717,107.64 173.5,99.5C 174.809,101.571 175.475,104.071 175.5,107C 175.927,111.568 174.927,115.735 172.5,119.5C 169.436,122.891 166.436,126.225 163.5,129.5C 158.869,132.02 153.869,133.02 148.5,132.5C 144.187,132.452 140.187,131.285 136.5,129C 133.916,125.598 131.25,122.431 128.5,119.5C 126.632,111.946 126.132,104.279 127,96.5C 131.451,86.0346 139.285,80.3679 150.5,79.5C 153.438,79.5676 156.105,80.2342 158.5,81.5 Z"/></g>
<g><path style="opacity:1" fill="#5aabab" d="M 168.5,95.5 C 172.809,103.65 172.309,111.65 167,119.5C 164.578,121.75 162.412,124.083 160.5,126.5C 151.333,128.334 142.5,127.334 134,123.5C 128.31,116.429 126.31,108.429 128,99.5C 128.05,97.256 128.883,95.5893 130.5,94.5C 133.719,91.5265 137.053,88.5265 140.5,85.5C 143.802,84.7419 147.135,84.0752 150.5,83.5C 159.011,84.0663 165.011,88.0663 168.5,95.5 Z"/></g>
<g><path style="opacity:1" fill="#63bcbc" d="M 168.5,95.5 C 171.068,105.952 168.401,114.785 160.5,122C 151.25,126.059 142.75,124.893 135,118.5C 126.747,103.995 130.247,93.495 145.5,87C 151.226,85.8956 156.56,86.8956 161.5,90C 163.501,92.3245 165.834,94.1579 168.5,95.5 Z"/></g>
<g><path style="opacity:1" fill="#71d5d5" d="M 147.5,90.5 C 161.114,91.0449 166.614,98.0449 164,111.5C 158.671,120.829 151.171,122.995 141.5,118C 134.003,110.331 133.669,102.331 140.5,94C 142.925,92.7874 145.259,91.6207 147.5,90.5 Z"/></g>
<g><path style="opacity:1" fill="#458686" d="M 156.5,77.5 C 163.167,79.1747 168.834,82.5081 173.5,87.5C 173.859,91.1441 175.025,94.4775 177,97.5C 177.689,103.882 177.355,110.215 176,116.5C 170.91,129.283 161.744,134.617 148.5,132.5C 153.869,133.02 158.869,132.02 163.5,129.5C 166.436,126.225 169.436,122.891 172.5,119.5C 174.927,115.735 175.927,111.568 175.5,107C 175.475,104.071 174.809,101.571 173.5,99.5C 172.091,90.4308 167.091,84.4308 158.5,81.5C 156.105,80.2342 153.438,79.5676 150.5,79.5C 139.285,80.3679 131.451,86.0346 127,96.5C 126.132,104.279 126.632,111.946 128.5,119.5C 127.21,118.942 126.377,117.942 126,116.5C 125.112,112.973 124.278,109.473 123.5,106C 124.204,100.815 125.037,95.6479 126,90.5C 129.841,86.3267 134.007,82.4934 138.5,79C 144.435,77.7614 150.435,77.2614 156.5,77.5 Z"/></g>
<g><path style="opacity:1" fill="#7ce8e8" d="M 148.5,96.5 C 157.378,97.2507 160.545,101.917 158,110.5C 151.333,116.5 146,115.5 142,107.5C 141.118,101.939 143.285,98.2726 148.5,96.5 Z"/></g>
<g><path style="opacity:1" fill="#5f5f5f" d="M 114.5,131.5 C 116.213,132.635 116.88,134.302 116.5,136.5C 115.463,135.07 114.796,133.403 114.5,131.5 Z"/></g>
<g><path style="opacity:0.602" fill="#222222" d="M 231.5,129.5 C 231.882,133.72 230.216,136.72 226.5,138.5C 227.167,136.5 227.833,134.5 228.5,132.5C 229.728,131.694 230.728,130.694 231.5,129.5 Z"/></g>
<g><path style="opacity:1" fill="#c2d4d4" d="M 212.5,102.5 C 211.833,103.5 211.167,104.5 210.5,105.5C 206.139,108.527 202.473,112.194 199.5,116.5C 198.167,117.167 197.167,118.167 196.5,119.5C 193.397,121.423 190.397,123.59 187.5,126C 182.939,131.388 178.272,136.554 173.5,141.5C 170.853,141.929 168.853,143.262 167.5,145.5C 162.676,146.668 158.009,148.002 153.5,149.5C 151.833,149.5 150.167,149.5 148.5,149.5C 145.167,149.5 141.833,149.5 138.5,149.5C 138.389,148.883 138.056,148.383 137.5,148C 142.019,147.825 146.353,147.325 150.5,146.5C 157.116,146.775 162.783,144.775 167.5,140.5C 168.167,140.167 168.833,139.833 169.5,139.5C 172.516,138.657 175.183,137.157 177.5,135C 183.089,128.585 188.756,122.419 194.5,116.5C 198.105,114.528 201.105,111.861 203.5,108.5C 206.5,106.5 209.5,104.5 212.5,102.5 Z"/></g>
<g><path style="opacity:1" fill="#545555" d="M 83.5,134.5 C 84.1667,134.833 84.8333,135.167 85.5,135.5C 85.5,136.167 85.5,136.833 85.5,137.5C 84.0937,137.027 83.427,136.027 83.5,134.5 Z"/></g>
<g><path style="opacity:1" fill="#82ecec" d="M 196.5,119.5 C 194.652,121.516 192.985,123.683 191.5,126C 198.411,130.331 202.411,136.498 203.5,144.5C 200.658,150.857 197.325,156.857 193.5,162.5C 182.394,162.397 176.394,156.73 175.5,145.5C 177.353,141.936 176.686,140.603 173.5,141.5C 178.272,136.554 182.939,131.388 187.5,126C 190.397,123.59 193.397,121.423 196.5,119.5 Z"/></g>
<g><path style="opacity:1" fill="#84f7f7" d="M 186.5,136.5 C 195.13,136.628 197.964,140.961 195,149.5C 190.03,155.308 186.03,154.641 183,147.5C 182.268,143.198 183.434,139.531 186.5,136.5 Z"/></g>
<g><path style="opacity:0.249" fill="#1a1a1a" d="M 224.5,139.5 C 225.167,139.5 225.833,139.5 226.5,139.5C 226.5,140.833 225.833,141.5 224.5,141.5C 224.5,140.833 224.5,140.167 224.5,139.5 Z"/></g>
<g><path style="opacity:1" fill="#3a3a3a" d="M 85.5,137.5 C 86.9063,137.973 87.573,138.973 87.5,140.5C 87.5,141.167 87.5,141.833 87.5,142.5C 85.7868,141.365 85.1201,139.698 85.5,137.5 Z"/></g>
<g><path style="opacity:1" fill="#c3edec" d="M 83.5,128.5 C 87.2513,132.995 90.2513,137.995 92.5,143.5C 91.609,142.89 90.609,142.557 89.5,142.5C 89.5,141.167 88.8333,140.5 87.5,140.5C 87.573,138.973 86.9063,137.973 85.5,137.5C 85.5,136.833 85.5,136.167 85.5,135.5C 84.8333,133.167 84.1667,130.833 83.5,128.5 Z"/></g>
<g><path style="opacity:1" fill="#b8c0c0" d="M 111.5,119.5 C 112.167,120.833 112.833,122.167 113.5,123.5C 113.575,126.206 113.908,128.873 114.5,131.5C 114.796,133.403 115.463,135.07 116.5,136.5C 117.581,139.627 118.247,142.96 118.5,146.5C 118.259,148.898 118.926,150.898 120.5,152.5C 121.451,153.919 121.784,155.585 121.5,157.5C 121.723,161.162 122.723,164.495 124.5,167.5C 124.953,171.748 125.953,175.748 127.5,179.5C 128.451,180.919 128.784,182.585 128.5,184.5C 129.613,189.118 130.113,193.784 130,198.5C 129.272,195.813 128.105,193.48 126.5,191.5C 126.5,190.833 126.5,190.167 126.5,189.5C 125.446,184.402 124.113,179.402 122.5,174.5C 122.122,170.322 121.122,166.322 119.5,162.5C 119.039,156.836 117.706,151.503 115.5,146.5C 115.247,142.96 114.581,139.627 113.5,136.5C 113.093,130.801 112.427,125.134 111.5,119.5 Z"/></g>
<g><path style="opacity:1" fill="#8a8a8a" d="M 74.5,137.5 C 76.8872,139.913 79.0539,142.58 81,145.5C 81.49,146.793 81.6567,148.127 81.5,149.5C 78.1512,146.142 75.8179,142.142 74.5,137.5 Z"/></g>
<g><path style="opacity:1" fill="#64b3b3" d="M 115.5,146.5 C 117.706,151.503 119.039,156.836 119.5,162.5C 118.732,161.737 118.232,160.737 118,159.5C 116.056,165.165 114.222,170.832 112.5,176.5C 110.831,173.966 109.164,171.299 107.5,168.5C 110.596,160.115 112.429,151.448 113,142.5C 113.608,144.066 114.442,145.4 115.5,146.5 Z"/></g>
<g><path style="opacity:1" fill="#c5c5c5" d="M 235.5,120.5 C 233.738,121.262 232.738,122.596 232.5,124.5C 232.672,125.492 232.338,126.158 231.5,126.5C 229.992,128.181 228.992,130.181 228.5,132.5C 227.833,134.5 227.167,136.5 226.5,138.5C 226.5,138.833 226.5,139.167 226.5,139.5C 225.833,139.5 225.167,139.5 224.5,139.5C 211.71,160.61 199.377,181.944 187.5,203.5C 186.883,203.611 186.383,203.944 186,204.5C 185.51,203.207 185.343,201.873 185.5,200.5C 188.393,198.252 190.06,195.252 190.5,191.5C 190.328,190.508 190.662,189.842 191.5,189.5C 194.623,186.024 196.957,182.024 198.5,177.5C 200.245,175.967 201.245,173.967 201.5,171.5C 203.942,169.879 205.275,167.546 205.5,164.5C 207.614,163.216 208.614,161.216 208.5,158.5C 208.833,158.5 209.167,158.5 209.5,158.5C 211.213,157.365 211.88,155.698 211.5,153.5C 212.338,153.158 212.672,152.492 212.5,151.5C 214.408,150.514 215.408,148.848 215.5,146.5C 217.9,144.704 219.567,142.37 220.5,139.5C 221.656,137.176 222.656,134.843 223.5,132.5C 225.083,130.337 226.416,128.004 227.5,125.5C 229.262,124.738 230.262,123.404 230.5,121.5C 232.199,119.434 233.532,117.1 234.5,114.5C 235.458,114.047 236.292,113.381 237,112.5C 237.428,115.322 236.928,117.988 235.5,120.5 Z"/></g>
<g><path style="opacity:1" fill="#898d8d" d="M 87.5,140.5 C 88.8333,140.5 89.5,141.167 89.5,142.5C 90.1098,143.391 90.4431,144.391 90.5,145.5C 89.2719,144.694 88.2719,143.694 87.5,142.5C 87.5,141.833 87.5,141.167 87.5,140.5 Z"/></g>
<g><path style="opacity:1" fill="#727272" d="M 220.5,139.5 C 219.567,142.37 217.9,144.704 215.5,146.5C 216.433,143.63 218.1,141.296 220.5,139.5 Z"/></g>
<g><path style="opacity:1" fill="#646464" d="M 133.5,144.5 C 134.5,145.167 135.5,145.833 136.5,146.5C 131.817,145.926 127.15,145.26 122.5,144.5C 122.5,145.5 122.5,146.5 122.5,147.5C 121.566,146.432 121.232,145.099 121.5,143.5C 125.5,143.833 129.5,144.167 133.5,144.5 Z"/></g>
<g><path style="opacity:1" fill="#3e3e3e" d="M 167.5,140.5 C 162.783,144.775 157.116,146.775 150.5,146.5C 145.833,146.5 141.167,146.5 136.5,146.5C 135.5,145.833 134.5,145.167 133.5,144.5C 145.35,146.788 156.683,145.455 167.5,140.5 Z"/></g>
<g><path style="opacity:1" fill="#78dfdf" d="M 193.5,162.5 C 192.241,166.025 190.241,169.025 187.5,171.5C 183.097,170.296 179.263,167.963 176,164.5C 172.443,158.267 169.61,151.934 167.5,145.5C 168.853,143.262 170.853,141.929 173.5,141.5C 176.686,140.603 177.353,141.936 175.5,145.5C 176.394,156.73 182.394,162.397 193.5,162.5 Z"/></g>
<g><path style="opacity:1" fill="#74d3d3" d="M 167.5,145.5 C 169.61,151.934 172.443,158.267 176,164.5C 179.263,167.963 183.097,170.296 187.5,171.5C 187.208,175.066 185.874,178.066 183.5,180.5C 183.67,179.178 183.337,178.011 182.5,177C 171.512,171.22 165.345,162.053 164,149.5C 162.293,148.862 160.46,148.862 158.5,149.5C 156.833,149.5 155.167,149.5 153.5,149.5C 158.009,148.002 162.676,146.668 167.5,145.5 Z"/></g>
<g><path style="opacity:1" fill="#909292" d="M 208.5,142.5 C 208.002,145.326 206.669,147.66 204.5,149.5C 205.079,146.669 206.412,144.336 208.5,142.5 Z"/></g>
<g><path style="opacity:0.294" fill="#1b1b1b" d="M 221.5,146.5 C 221.88,148.698 221.213,150.365 219.5,151.5C 219.796,149.597 220.463,147.93 221.5,146.5 Z"/></g>
<g><path style="opacity:1" fill="#69c7c7" d="M 183.5,180.5 C 182.974,182.23 181.974,183.564 180.5,184.5C 166.866,176.919 159.533,165.252 158.5,149.5C 160.46,148.862 162.293,148.862 164,149.5C 165.345,162.053 171.512,171.22 182.5,177C 183.337,178.011 183.67,179.178 183.5,180.5 Z"/></g>
<g><path style="opacity:1" fill="#62b9b9" d="M 148.5,149.5 C 150.167,149.5 151.833,149.5 153.5,149.5C 155.167,149.5 156.833,149.5 158.5,149.5C 159.533,165.252 166.866,176.919 180.5,184.5C 180.167,185.833 179.833,187.167 179.5,188.5C 177.926,189.984 176.593,191.651 175.5,193.5C 169.221,188.606 163.721,182.94 159,176.5C 154.929,168.621 152.263,160.288 151,151.5C 150.005,150.934 149.172,150.267 148.5,149.5 Z"/></g>
<g><path style="opacity:1" fill="#606060" d="M 215.5,146.5 C 215.408,148.848 214.408,150.514 212.5,151.5C 212.75,149.326 213.75,147.659 215.5,146.5 Z"/></g>
<g><path style="opacity:1" fill="#808181" d="M 118.5,146.5 C 120.28,147.99 120.946,149.99 120.5,152.5C 118.926,150.898 118.259,148.898 118.5,146.5 Z"/></g>
<g><path style="opacity:1" fill="#4b9090" d="M 138.5,150.5 C 139.5,150.5 140.5,150.5 141.5,150.5C 143.844,167.04 150.344,181.707 161,194.5C 164.145,196.976 167.312,199.31 170.5,201.5C 170.008,203.819 169.008,205.819 167.5,207.5C 167.762,206.022 167.429,204.689 166.5,203.5C 156.953,196.447 149.786,187.447 145,176.5C 142.196,167.951 140.029,159.284 138.5,150.5 Z"/></g>
<g><path style="opacity:1" fill="#529d9d" d="M 141.5,150.5 C 143.144,150.286 144.644,150.62 146,151.5C 148.34,165.175 153.674,177.509 162,188.5C 164.743,190.788 167.577,192.955 170.5,195C 171.823,195.816 172.489,196.983 172.5,198.5C 172.573,200.027 171.906,201.027 170.5,201.5C 167.312,199.31 164.145,196.976 161,194.5C 150.344,181.707 143.844,167.04 141.5,150.5 Z"/></g>
<g><path style="opacity:1" fill="#bddada" d="M 223.5,111.5 C 223.5,113.5 223.5,115.5 223.5,117.5C 222.094,117.973 221.427,118.973 221.5,120.5C 218.377,123.976 216.043,127.976 214.5,132.5C 212.858,136.121 210.858,139.454 208.5,142.5C 206.412,144.336 205.079,146.669 204.5,149.5C 204.443,150.609 204.11,151.609 203.5,152.5C 201.069,154.046 199.736,156.379 199.5,159.5C 198.89,160.391 198.557,161.391 198.5,162.5C 195.539,164.412 193.539,167.079 192.5,170.5C 192.34,172.153 191.674,173.486 190.5,174.5C 187.357,177.004 185.691,180.337 185.5,184.5C 183.631,186.034 182.298,188.034 181.5,190.5C 178.477,193.178 177.81,192.512 179.5,188.5C 179.833,187.167 180.167,185.833 180.5,184.5C 181.974,183.564 182.974,182.23 183.5,180.5C 185.874,178.066 187.208,175.066 187.5,171.5C 190.241,169.025 192.241,166.025 193.5,162.5C 197.325,156.857 200.658,150.857 203.5,144.5C 206.899,140.663 209.566,136.329 211.5,131.5C 214.389,127.941 216.389,123.941 217.5,119.5C 219.508,116.827 221.508,114.16 223.5,111.5 Z"/></g>
<g><path style="opacity:1" fill="#646565" d="M 123.5,151.5 C 125.245,153.033 126.245,155.033 126.5,157.5C 124.755,155.967 123.755,153.967 123.5,151.5 Z"/></g>
<g><path style="opacity:1" fill="#717171" d="M 82.5,150.5 C 84.2451,152.033 85.2451,154.033 85.5,156.5C 83.0246,155.313 82.0246,153.313 82.5,150.5 Z"/></g>
<g><path style="opacity:1" fill="#717373" d="M 92.5,150.5 C 95.632,152.203 97.2986,154.87 97.5,158.5C 95.1029,156.338 93.4362,153.671 92.5,150.5 Z"/></g>
<g><path style="opacity:0.435" fill="#4b4c4c" d="M 65.5,130.5 C 66.1667,130.833 66.8333,131.167 67.5,131.5C 72.9346,140.253 78.1013,149.253 83,158.5C 83.49,159.793 83.6567,161.127 83.5,162.5C 78.1161,156.488 73.9494,149.488 71,141.5C 67.6595,138.64 65.8262,134.973 65.5,130.5 Z"/></g>
<g><path style="opacity:1" fill="#656666" d="M 203.5,152.5 C 203.275,155.546 201.942,157.879 199.5,159.5C 199.736,156.379 201.069,154.046 203.5,152.5 Z"/></g>
<g><path style="opacity:1" fill="#777777" d="M 211.5,153.5 C 211.88,155.698 211.213,157.365 209.5,158.5C 209.12,156.302 209.787,154.635 211.5,153.5 Z"/></g>
<g><path style="opacity:1" fill="#696969" d="M 121.5,157.5 C 123.68,160.381 124.68,163.714 124.5,167.5C 122.723,164.495 121.723,161.162 121.5,157.5 Z"/></g>
<g><path style="opacity:1" fill="#747474" d="M 208.5,158.5 C 208.614,161.216 207.614,163.216 205.5,164.5C 205.992,162.181 206.992,160.181 208.5,158.5 Z"/></g>
<g><path style="opacity:1" fill="#454545" d="M 126.5,159.5 C 128.585,161.684 129.585,164.351 129.5,167.5C 127.415,165.316 126.415,162.649 126.5,159.5 Z"/></g>
<g><path style="opacity:1" fill="#6b6c6c" d="M 198.5,162.5 C 196.963,165.602 194.963,168.268 192.5,170.5C 193.539,167.079 195.539,164.412 198.5,162.5 Z"/></g>
<g><path style="opacity:1" fill="#b4c3c3" d="M 89.5,142.5 C 90.609,142.557 91.609,142.89 92.5,143.5C 93.1276,145.662 94.461,147.328 96.5,148.5C 96.4208,149.93 96.7542,151.264 97.5,152.5C 99.5066,155.574 101.507,158.574 103.5,161.5C 103.998,164.326 105.331,166.66 107.5,168.5C 109.164,171.299 110.831,173.966 112.5,176.5C 112.889,180.284 114.556,183.284 117.5,185.5C 118.167,187.5 118.833,189.5 119.5,191.5C 119.869,193.993 119.203,194.66 117.5,193.5C 116.094,193.027 115.427,192.027 115.5,190.5C 115.408,188.152 114.408,186.486 112.5,185.5C 111.443,182.923 110.11,180.59 108.5,178.5C 108.573,176.973 107.906,175.973 106.5,175.5C 106.573,173.973 105.906,172.973 104.5,172.5C 104.834,169.509 103.834,167.176 101.5,165.5C 99.4242,163.693 98.0909,161.359 97.5,158.5C 97.2986,154.87 95.632,152.203 92.5,150.5C 91.8333,148.833 91.1667,147.167 90.5,145.5C 90.4431,144.391 90.1098,143.391 89.5,142.5 Z"/></g>
<g><path style="opacity:0.357" fill="#494949" d="M 224.5,139.5 C 224.5,140.167 224.5,140.833 224.5,141.5C 224.25,143.674 223.25,145.341 221.5,146.5C 220.463,147.93 219.796,149.597 219.5,151.5C 214.849,160.956 209.515,170.123 203.5,179C 202.451,184.15 199.951,188.316 196,191.5C 194.045,197.442 191.212,202.775 187.5,207.5C 187.5,206.167 187.5,204.833 187.5,203.5C 199.377,181.944 211.71,160.61 224.5,139.5 Z"/></g>
<g><path style="opacity:1" fill="#606060" d="M 91.5,167.5 C 92.9063,167.973 93.573,168.973 93.5,170.5C 92.0937,170.027 91.427,169.027 91.5,167.5 Z"/></g>
<g><path style="opacity:1" fill="#4f4f4f" d="M 101.5,165.5 C 103.834,167.176 104.834,169.509 104.5,172.5C 102.182,170.815 101.182,168.481 101.5,165.5 Z"/></g>
<g><path style="opacity:1" fill="#666666" d="M 205.5,164.5 C 205.275,167.546 203.942,169.879 201.5,171.5C 201.725,168.454 203.058,166.121 205.5,164.5 Z"/></g>
<g><path style="opacity:1" fill="#509292" d="M 119.5,162.5 C 121.122,166.322 122.122,170.322 122.5,174.5C 121.25,174.577 120.417,175.244 120,176.5C 118.57,179.353 117.737,182.353 117.5,185.5C 114.556,183.284 112.889,180.284 112.5,176.5C 114.222,170.832 116.056,165.165 118,159.5C 118.232,160.737 118.732,161.737 119.5,162.5 Z"/></g>
<g><path style="opacity:1" fill="#bebebe" d="M 71.5,131.5 C 72.5294,133.517 73.5294,135.517 74.5,137.5C 75.8179,142.142 78.1512,146.142 81.5,149.5C 81.5,150.167 81.8333,150.5 82.5,150.5C 82.0246,153.313 83.0246,155.313 85.5,156.5C 88.2531,159.762 90.2531,163.429 91.5,167.5C 91.427,169.027 92.0937,170.027 93.5,170.5C 96.067,174.629 98.4003,178.963 100.5,183.5C 100.75,185.674 101.75,187.341 103.5,188.5C 103.5,189.167 103.5,189.833 103.5,190.5C 105.54,193.604 107.207,196.937 108.5,200.5C 108.333,201.167 108.167,201.833 108,202.5C 107.292,201.619 106.458,200.953 105.5,200.5C 105.269,197.937 103.935,196.27 101.5,195.5C 100.94,190.38 98.7732,186.046 95,182.5C 92.3789,174.898 88.5456,168.231 83.5,162.5C 83.6567,161.127 83.49,159.793 83,158.5C 78.1013,149.253 72.9346,140.253 67.5,131.5C 67.3505,130.448 67.5172,129.448 68,128.5C 68.7589,130.063 69.9256,131.063 71.5,131.5 Z"/></g>
<g><path style="opacity:0.647" fill="#464646" d="M 83.5,162.5 C 88.5456,168.231 92.3789,174.898 95,182.5C 98.7732,186.046 100.94,190.38 101.5,195.5C 99.5832,193.704 97.7499,191.704 96,189.5C 93.4534,181.818 89.7867,174.818 85,168.5C 84.187,166.564 83.687,164.564 83.5,162.5 Z"/></g>
<g><path style="opacity:1" fill="#404040" d="M 124.5,167.5 C 125.117,167.611 125.617,167.944 126,168.5C 126.936,172.114 127.436,175.78 127.5,179.5C 125.953,175.748 124.953,171.748 124.5,167.5 Z"/></g>
<g><path style="opacity:1" fill="#59a7a7" d="M 137.5,149.5 C 137.833,149.5 138.167,149.5 138.5,149.5C 141.833,149.5 145.167,149.5 148.5,149.5C 149.172,150.267 150.005,150.934 151,151.5C 152.263,160.288 154.929,168.621 159,176.5C 163.721,182.94 169.221,188.606 175.5,193.5C 174.737,195.368 173.737,197.035 172.5,198.5C 172.489,196.983 171.823,195.816 170.5,195C 167.577,192.955 164.743,190.788 162,188.5C 153.674,177.509 148.34,165.175 146,151.5C 144.644,150.62 143.144,150.286 141.5,150.5C 140.5,150.5 139.5,150.5 138.5,150.5C 137.833,150.5 137.5,150.167 137.5,149.5 Z"/></g>
<g><path style="opacity:1" fill="#555656" d="M 106.5,175.5 C 107.906,175.973 108.573,176.973 108.5,178.5C 107.094,178.027 106.427,177.027 106.5,175.5 Z"/></g>
<g><path style="opacity:1" fill="#757575" d="M 201.5,171.5 C 201.245,173.967 200.245,175.967 198.5,177.5C 198.025,174.687 199.025,172.687 201.5,171.5 Z"/></g>
<g><path style="opacity:1" fill="#8c8f8f" d="M 190.5,174.5 C 188.829,177.929 187.162,181.262 185.5,184.5C 185.691,180.337 187.357,177.004 190.5,174.5 Z"/></g>
<g><path style="opacity:1" fill="#447474" d="M 122.5,174.5 C 124.113,179.402 125.446,184.402 126.5,189.5C 125.59,187.981 124.757,186.315 124,184.5C 121.977,186.769 121.144,189.436 121.5,192.5C 120.833,192.167 120.167,191.833 119.5,191.5C 118.833,189.5 118.167,187.5 117.5,185.5C 117.737,182.353 118.57,179.353 120,176.5C 120.417,175.244 121.25,174.577 122.5,174.5 Z"/></g>
<g><path style="opacity:1" fill="#4d4d4d" d="M 133.5,177.5 C 136,180.66 137.333,184.327 137.5,188.5C 135.358,185.2 134.025,181.533 133.5,177.5 Z"/></g>
<g><path style="opacity:1" fill="#448484" d="M 133.5,149.5 C 134.833,149.5 136.167,149.5 137.5,149.5C 137.5,150.167 137.833,150.5 138.5,150.5C 140.029,159.284 142.196,167.951 145,176.5C 149.786,187.447 156.953,196.447 166.5,203.5C 167.429,204.689 167.762,206.022 167.5,207.5C 167.5,208.167 167.167,208.5 166.5,208.5C 147.76,194.699 137.593,176.032 136,152.5C 135.302,151.309 134.469,150.309 133.5,149.5 Z"/></g>
<g><path style="opacity:1" fill="#555555" d="M 198.5,177.5 C 196.957,182.024 194.623,186.024 191.5,189.5C 192.179,186.293 193.346,183.293 195,180.5C 196.039,179.29 197.206,178.29 198.5,177.5 Z"/></g>
<g><path style="opacity:1" fill="#535353" d="M 100.5,183.5 C 102.408,184.486 103.408,186.152 103.5,188.5C 101.75,187.341 100.75,185.674 100.5,183.5 Z"/></g>
<g><path style="opacity:1" fill="#5e5e5e" d="M 112.5,185.5 C 114.408,186.486 115.408,188.152 115.5,190.5C 113.75,189.341 112.75,187.674 112.5,185.5 Z"/></g>
<g><path style="opacity:1" fill="#6c6d6d" d="M 185.5,184.5 C 185.071,187.147 183.738,189.147 181.5,190.5C 182.298,188.034 183.631,186.034 185.5,184.5 Z"/></g>
<g><path style="opacity:1" fill="#2d4d4d" d="M 126.5,189.5 C 126.5,190.167 126.5,190.833 126.5,191.5C 127.15,193.435 127.483,195.435 127.5,197.5C 126.525,193.582 125.525,193.582 124.5,197.5C 122.75,196.341 121.75,194.674 121.5,192.5C 121.144,189.436 121.977,186.769 124,184.5C 124.757,186.315 125.59,187.981 126.5,189.5 Z"/></g>
<g><path style="opacity:1" fill="#8e9292" d="M 119.5,191.5 C 120.167,191.833 120.833,192.167 121.5,192.5C 121.75,194.674 122.75,196.341 124.5,197.5C 124.5,198.167 124.5,198.833 124.5,199.5C 121.956,196.693 120.956,197.36 121.5,201.5C 118.863,199.518 117.53,196.852 117.5,193.5C 119.203,194.66 119.869,193.993 119.5,191.5 Z"/></g>
<g><path style="opacity:1" fill="#3b7171" d="M 133.5,149.5 C 134.469,150.309 135.302,151.309 136,152.5C 137.593,176.032 147.76,194.699 166.5,208.5C 166.5,209.167 166.5,209.833 166.5,210.5C 165.11,211.899 164.11,213.566 163.5,215.5C 163.167,215.5 162.833,215.5 162.5,215.5C 157.916,210.741 153.416,205.741 149,200.5C 148.536,201.094 148.369,201.761 148.5,202.5C 146.588,199.319 144.755,195.985 143,192.5C 138.207,178.113 133.04,163.947 127.5,150C 127.833,149.5 128.167,149 128.5,148.5C 130.071,149.309 131.738,149.643 133.5,149.5 Z"/></g>
<g><path style="opacity:1" fill="#888888" d="M 190.5,191.5 C 190.06,195.252 188.393,198.252 185.5,200.5C 185.889,196.716 187.556,193.716 190.5,191.5 Z"/></g>
<g><path style="opacity:1" fill="#0d1212" d="M 127.5,197.5 C 128.044,201.64 127.044,202.307 124.5,199.5C 124.5,198.833 124.5,198.167 124.5,197.5C 125.525,193.582 126.525,193.582 127.5,197.5 Z"/></g>
<g><path style="opacity:1" fill="#898989" d="M 128.5,184.5 C 129.117,184.611 129.617,184.944 130,185.5C 131.416,190.412 132.249,195.412 132.5,200.5C 131.883,200.389 131.383,200.056 131,199.5C 130.51,200.793 130.343,202.127 130.5,203.5C 129.203,201.629 128.203,199.629 127.5,197.5C 127.483,195.435 127.15,193.435 126.5,191.5C 128.105,193.48 129.272,195.813 130,198.5C 130.113,193.784 129.613,189.118 128.5,184.5 Z"/></g>
<g><path style="opacity:0.173" fill="#4b4b4b" d="M 101.5,195.5 C 103.935,196.27 105.269,197.937 105.5,200.5C 107.428,202.781 108.428,205.447 108.5,208.5C 104.405,205.322 102.072,200.989 101.5,195.5 Z"/></g>
<g><path style="opacity:1" fill="#aeb3b3" d="M 136.5,146.5 C 141.167,146.5 145.833,146.5 150.5,146.5C 146.353,147.325 142.019,147.825 137.5,148C 138.056,148.383 138.389,148.883 138.5,149.5C 138.167,149.5 137.833,149.5 137.5,149.5C 136.167,149.5 134.833,149.5 133.5,149.5C 131.738,149.643 130.071,149.309 128.5,148.5C 128.167,149 127.833,149.5 127.5,150C 133.04,163.947 138.207,178.113 143,192.5C 144.755,195.985 146.588,199.319 148.5,202.5C 149.017,206.222 149.85,209.888 151,213.5C 151.2,215.32 152.034,216.653 153.5,217.5C 153.4,220.108 154.067,222.442 155.5,224.5C 155.604,226.973 156.604,227.639 158.5,226.5C 159.692,230.105 158.359,232.105 154.5,232.5C 154.5,231.5 154.5,230.5 154.5,229.5C 154.245,227.033 153.245,225.033 151.5,223.5C 151.672,222.508 151.338,221.842 150.5,221.5C 150.585,218.351 149.585,215.684 147.5,213.5C 147.245,211.033 146.245,209.033 144.5,207.5C 144.5,206.833 144.5,206.167 144.5,205.5C 144.59,202.848 143.924,200.515 142.5,198.5C 141.278,194.945 139.611,191.611 137.5,188.5C 137.333,184.327 136,180.66 133.5,177.5C 132.53,173.917 131.196,170.583 129.5,167.5C 129.585,164.351 128.585,161.684 126.5,159.5C 126.5,158.833 126.5,158.167 126.5,157.5C 126.245,155.033 125.245,153.033 123.5,151.5C 123.567,150.041 123.234,148.708 122.5,147.5C 122.5,146.5 122.5,145.5 122.5,144.5C 127.15,145.26 131.817,145.926 136.5,146.5 Z"/></g>
<g><path style="opacity:1" fill="#3a3a3a" d="M 127.5,197.5 C 128.203,199.629 129.203,201.629 130.5,203.5C 130.66,205.199 130.494,206.866 130,208.5C 128.343,205.354 126.509,202.354 124.5,199.5C 127.044,202.307 128.044,201.64 127.5,197.5 Z"/></g>
<g><path style="opacity:1" fill="#929292" d="M 103.5,190.5 C 108.83,195.768 112.496,202.101 114.5,209.5C 113.017,207.906 111.517,206.24 110,204.5C 109.591,206.695 110.091,208.695 111.5,210.5C 110.833,210.5 110.167,210.5 109.5,210.5C 109.167,209.833 108.833,209.167 108.5,208.5C 108.428,205.447 107.428,202.781 105.5,200.5C 106.458,200.953 107.292,201.619 108,202.5C 108.167,201.833 108.333,201.167 108.5,200.5C 107.207,196.937 105.54,193.604 103.5,190.5 Z"/></g>
<g><path style="opacity:1" fill="#2f5757" d="M 162.5,215.5 C 162.567,216.959 162.234,218.292 161.5,219.5C 160.272,220.306 159.272,221.306 158.5,222.5C 158.166,219.832 156.833,217.832 154.5,216.5C 153.893,216.624 153.56,216.957 153.5,217.5C 152.034,216.653 151.2,215.32 151,213.5C 149.85,209.888 149.017,206.222 148.5,202.5C 148.369,201.761 148.536,201.094 149,200.5C 153.416,205.741 157.916,210.741 162.5,215.5 Z"/></g>
<g><path style="opacity:1" fill="#717171" d="M 175.5,201.5 C 174.921,204.331 173.588,206.664 171.5,208.5C 172.079,205.669 173.412,203.336 175.5,201.5 Z"/></g>
<g><path style="opacity:1" fill="#515151" d="M 142.5,198.5 C 143.924,200.515 144.59,202.848 144.5,205.5C 143.883,205.389 143.383,205.056 143,204.5C 142.505,202.527 142.338,200.527 142.5,198.5 Z"/></g>
<g><path style="opacity:1" fill="#9a9a9a" d="M 185.5,200.5 C 185.343,201.873 185.51,203.207 186,204.5C 186.383,203.944 186.883,203.611 187.5,203.5C 187.5,204.833 187.5,206.167 187.5,207.5C 186.167,207.5 185.5,208.167 185.5,209.5C 185.672,210.492 185.338,211.158 184.5,211.5C 183.833,211.5 183.167,211.5 182.5,211.5C 183.153,210.193 183.82,208.86 184.5,207.5C 184.043,206.702 183.376,206.369 182.5,206.5C 182.621,203.895 183.621,201.895 185.5,200.5 Z"/></g>
<g><path style="opacity:1" fill="#b2c1c1" d="M 179.5,188.5 C 177.81,192.512 178.477,193.178 181.5,190.5C 179.754,194.327 177.754,197.993 175.5,201.5C 173.412,203.336 172.079,205.669 171.5,208.5C 170.173,209.8 168.84,211.133 167.5,212.5C 166.702,212.043 166.369,211.376 166.5,210.5C 166.5,209.833 166.5,209.167 166.5,208.5C 167.167,208.5 167.5,208.167 167.5,207.5C 169.008,205.819 170.008,203.819 170.5,201.5C 171.906,201.027 172.573,200.027 172.5,198.5C 173.737,197.035 174.737,195.368 175.5,193.5C 176.593,191.651 177.926,189.984 179.5,188.5 Z"/></g>
<g><path style="opacity:1" fill="#575757" d="M 123.5,204.5 C 126.244,207.646 128.244,211.313 129.5,215.5C 128.624,215.631 127.957,215.298 127.5,214.5C 125.694,211.359 124.361,208.026 123.5,204.5 Z"/></g>
<g><path style="opacity:0.353" fill="#313131" d="M 187.5,207.5 C 187.5,208.833 186.833,209.5 185.5,209.5C 185.5,208.167 186.167,207.5 187.5,207.5 Z"/></g>
<g><path style="opacity:1" fill="#cbcbcb" d="M 114.5,209.5 C 114.5,209.833 114.5,210.167 114.5,210.5C 115.433,213.37 117.1,215.704 119.5,217.5C 119.5,218.167 119.5,218.833 119.5,219.5C 119.649,220.552 119.483,221.552 119,222.5C 118.292,221.619 117.458,220.953 116.5,220.5C 115.345,216.856 113.678,213.523 111.5,210.5C 110.091,208.695 109.591,206.695 110,204.5C 111.517,206.24 113.017,207.906 114.5,209.5 Z"/></g>
<g><path style="opacity:1" fill="#808080" d="M 114.5,210.5 C 117.061,212.15 118.727,214.484 119.5,217.5C 117.1,215.704 115.433,213.37 114.5,210.5 Z"/></g>
<g><path style="opacity:1" fill="#505050" d="M 144.5,207.5 C 146.245,209.033 147.245,211.033 147.5,213.5C 145.755,211.967 144.755,209.967 144.5,207.5 Z"/></g>
<g><path style="opacity:1" fill="#868b8b" d="M 171.5,208.5 C 169.822,211.702 168.322,215.035 167,218.5C 166.292,219.381 165.458,220.047 164.5,220.5C 165.014,218.634 165.68,216.8 166.5,215C 166.333,214.5 166.167,214 166,213.5C 165.292,214.381 164.458,215.047 163.5,215.5C 164.11,213.566 165.11,211.899 166.5,210.5C 166.369,211.376 166.702,212.043 167.5,212.5C 168.84,211.133 170.173,209.8 171.5,208.5 Z"/></g>
<g><path style="opacity:1" fill="#a8a8a8" d="M 124.5,199.5 C 126.509,202.354 128.343,205.354 130,208.5C 130.494,206.866 130.66,205.199 130.5,203.5C 130.343,202.127 130.51,200.793 131,199.5C 131.383,200.056 131.883,200.389 132.5,200.5C 134.911,206.178 136.577,212.178 137.5,218.5C 135.834,217.334 134.167,217.334 132.5,218.5C 134.264,220.13 135.264,222.13 135.5,224.5C 135.167,224.5 134.833,224.5 134.5,224.5C 132.516,221.675 130.849,218.675 129.5,215.5C 128.244,211.313 126.244,207.646 123.5,204.5C 123.068,203.29 122.401,202.29 121.5,201.5C 120.956,197.36 121.956,196.693 124.5,199.5 Z"/></g>
<g><path style="opacity:1" fill="#787878" d="M 179.5,210.5 C 179.108,212.179 178.608,213.846 178,215.5C 176.235,217.392 174.735,219.392 173.5,221.5C 173.357,219.738 173.691,218.071 174.5,216.5C 175.821,214.139 177.488,212.139 179.5,210.5 Z"/></g>
<g><path style="opacity:1" fill="#6a6a6a" d="M 147.5,213.5 C 149.585,215.684 150.585,218.351 150.5,221.5C 148.733,219.208 147.733,216.542 147.5,213.5 Z"/></g>
<g><path style="opacity:1" fill="#1d2a2a" d="M 158.5,222.5 C 158.368,225.007 157.368,225.674 155.5,224.5C 154.067,222.442 153.4,220.108 153.5,217.5C 153.56,216.957 153.893,216.624 154.5,216.5C 156.833,217.832 158.166,219.832 158.5,222.5 Z"/></g>
<g><path style="opacity:1" fill="#b5b8b8" d="M 164.5,220.5 C 164.672,221.492 164.338,222.158 163.5,222.5C 160.298,224.792 159.631,223.792 161.5,219.5C 162.234,218.292 162.567,216.959 162.5,215.5C 162.833,215.5 163.167,215.5 163.5,215.5C 164.458,215.047 165.292,214.381 166,213.5C 166.167,214 166.333,214.5 166.5,215C 165.68,216.8 165.014,218.634 164.5,220.5 Z"/></g>
<g><path style="opacity:1" fill="#545454" d="M 119.5,217.5 C 120.906,217.973 121.573,218.973 121.5,220.5C 120.833,220.167 120.167,219.833 119.5,219.5C 119.5,218.833 119.5,218.167 119.5,217.5 Z"/></g>
<g><path style="opacity:1" fill="#d9d9d9" d="M 137.5,218.5 C 138.01,221.388 137.344,223.721 135.5,225.5C 135.5,225.167 135.5,224.833 135.5,224.5C 135.264,222.13 134.264,220.13 132.5,218.5C 134.167,217.334 135.834,217.334 137.5,218.5 Z"/></g>
<g><path style="opacity:1" fill="#a0a0a0" d="M 119.5,219.5 C 120.167,219.833 120.833,220.167 121.5,220.5C 123.428,222.781 124.428,225.447 124.5,228.5C 123.15,227.517 122.15,226.184 121.5,224.5C 120.566,226.095 120.566,227.761 121.5,229.5C 119.981,226.487 118.314,223.487 116.5,220.5C 117.458,220.953 118.292,221.619 119,222.5C 119.483,221.552 119.649,220.552 119.5,219.5 Z"/></g>
<g><path style="opacity:0.427" fill="#404040" d="M 109.5,210.5 C 110.167,210.5 110.833,210.5 111.5,210.5C 113.678,213.523 115.345,216.856 116.5,220.5C 118.314,223.487 119.981,226.487 121.5,229.5C 122.338,229.842 122.672,230.508 122.5,231.5C 122.5,232.167 122.167,232.5 121.5,232.5C 120.38,230.876 119.047,229.376 117.5,228C 114.543,222.293 111.876,216.46 109.5,210.5 Z"/></g>
<g><path style="opacity:1" fill="#949494" d="M 137.5,218.5 C 138.434,219.568 138.768,220.901 138.5,222.5C 138.5,223.833 138.5,225.167 138.5,226.5C 137.209,226.737 136.209,226.404 135.5,225.5C 137.344,223.721 138.01,221.388 137.5,218.5 Z"/></g>
<g><path style="opacity:1" fill="#878888" d="M 161.5,219.5 C 159.631,223.792 160.298,224.792 163.5,222.5C 161.407,225.482 159.907,228.816 159,232.5C 157.384,233.801 155.884,233.801 154.5,232.5C 158.359,232.105 159.692,230.105 158.5,226.5C 156.604,227.639 155.604,226.973 155.5,224.5C 157.368,225.674 158.368,225.007 158.5,222.5C 159.272,221.306 160.272,220.306 161.5,219.5 Z"/></g>
<g><path style="opacity:1" fill="#555555" d="M 138.5,222.5 C 139.451,223.919 139.784,225.585 139.5,227.5C 137.833,227.5 136.167,227.5 134.5,227.5C 134.5,226.5 134.5,225.5 134.5,224.5C 134.833,224.5 135.167,224.5 135.5,224.5C 135.5,224.833 135.5,225.167 135.5,225.5C 136.209,226.404 137.209,226.737 138.5,226.5C 138.5,225.167 138.5,223.833 138.5,222.5 Z"/></g>
<g><path style="opacity:0.38" fill="#474747" d="M 182.5,211.5 C 183.167,211.5 183.833,211.5 184.5,211.5C 182.233,217.276 179.566,222.942 176.5,228.5C 173.856,231.773 171.69,235.439 170,239.5C 169.329,240.252 168.496,240.586 167.5,240.5C 172.239,230.687 177.239,221.021 182.5,211.5 Z"/></g>
<g><path style="opacity:1" fill="#727272" d="M 151.5,223.5 C 153.245,225.033 154.245,227.033 154.5,229.5C 152.755,227.967 151.755,225.967 151.5,223.5 Z"/></g>
<g><path style="opacity:1" fill="#d1d1d1" d="M 124.5,228.5 C 125.338,228.842 125.672,229.508 125.5,230.5C 126.218,232.137 126.384,233.803 126,235.5C 125.502,233.456 124.335,232.122 122.5,231.5C 122.672,230.508 122.338,229.842 121.5,229.5C 120.566,227.761 120.566,226.095 121.5,224.5C 122.15,226.184 123.15,227.517 124.5,228.5 Z"/></g>
<g><path style="opacity:1" fill="#a0a0a0" d="M 125.5,230.5 C 127.586,232.885 129.586,235.385 131.5,238C 133.938,242.506 136.271,247.006 138.5,251.5C 135.542,248.94 133.042,245.94 131,242.5C 130.616,244.197 130.782,245.863 131.5,247.5C 129.933,246.319 129.099,244.653 129,242.5C 128.329,241.748 127.496,241.414 126.5,241.5C 126.5,241.167 126.5,240.833 126.5,240.5C 126.262,238.596 125.262,237.262 123.5,236.5C 123.473,234.801 122.806,233.467 121.5,232.5C 122.167,232.5 122.5,232.167 122.5,231.5C 124.335,232.122 125.502,233.456 126,235.5C 126.384,233.803 126.218,232.137 125.5,230.5 Z"/></g>
<g><path style="opacity:0.369" fill="#2b2b2b" d="M 123.5,236.5 C 125.262,237.262 126.262,238.596 126.5,240.5C 124.088,240.306 123.088,238.973 123.5,236.5 Z"/></g>
<g><path style="opacity:1" fill="#7a7a7a" d="M 172.5,223.5 C 172.108,225.179 171.608,226.846 171,228.5C 164.596,237.683 158.929,247.35 154,257.5C 153.292,258.381 152.458,259.047 151.5,259.5C 155.004,251.161 159.171,243.161 164,235.5C 166.316,231.036 169.15,227.036 172.5,223.5 Z"/></g>
<g><path style="opacity:0.139" fill="#404040" d="M 126.5,241.5 C 127.496,241.414 128.329,241.748 129,242.5C 129.099,244.653 129.933,246.319 131.5,247.5C 133.074,249.102 133.741,251.102 133.5,253.5C 131.839,251.672 130.172,249.672 128.5,247.5C 127.253,245.677 126.586,243.677 126.5,241.5 Z"/></g>
<g><path style="opacity:0.548" fill="#4a4a4a" d="M 167.5,241.5 C 165.124,246.829 162.624,252.162 160,257.5C 159.184,258.823 158.017,259.489 156.5,259.5C 157.11,258.609 157.443,257.609 157.5,256.5C 159.307,252.886 161.14,249.22 163,245.5C 164.049,243.616 165.549,242.282 167.5,241.5 Z"/></g>
<g><path style="opacity:1" fill="#c6c6c6" d="M 182.5,206.5 C 183.376,206.369 184.043,206.702 184.5,207.5C 183.82,208.86 183.153,210.193 182.5,211.5C 177.239,221.021 172.239,230.687 167.5,240.5C 167.5,240.833 167.5,241.167 167.5,241.5C 165.549,242.282 164.049,243.616 163,245.5C 161.14,249.22 159.307,252.886 157.5,256.5C 155.229,258.612 153.896,261.279 153.5,264.5C 150.973,266.51 149.139,269.177 148,272.5C 146.989,273.337 145.822,273.67 144.5,273.5C 143.837,268.104 141.504,263.771 137.5,260.5C 137.5,260.167 137.5,259.833 137.5,259.5C 137.145,256.774 135.812,254.774 133.5,253.5C 133.741,251.102 133.074,249.102 131.5,247.5C 130.782,245.863 130.616,244.197 131,242.5C 133.042,245.94 135.542,248.94 138.5,251.5C 138.025,254.313 139.025,256.313 141.5,257.5C 142.793,259.808 144.126,262.142 145.5,264.5C 145.461,265.756 145.961,266.756 147,267.5C 149.511,265.778 151.011,263.445 151.5,260.5C 151.5,260.167 151.5,259.833 151.5,259.5C 152.458,259.047 153.292,258.381 154,257.5C 158.929,247.35 164.596,237.683 171,228.5C 171.608,226.846 172.108,225.179 172.5,223.5C 172.328,222.508 172.662,221.842 173.5,221.5C 174.735,219.392 176.235,217.392 178,215.5C 178.608,213.846 179.108,212.179 179.5,210.5C 179.738,208.596 180.738,207.262 182.5,206.5 Z"/></g>
<g><path style="opacity:1" fill="#767676" d="M 138.5,251.5 C 139.492,253.456 140.492,255.456 141.5,257.5C 139.025,256.313 138.025,254.313 138.5,251.5 Z"/></g>
<g><path style="opacity:0.482" fill="#464646" d="M 133.5,253.5 C 135.812,254.774 137.145,256.774 137.5,259.5C 134.224,258.878 132.891,256.878 133.5,253.5 Z"/></g>
<g><path style="opacity:0.502" fill="#757575" d="M 157.5,256.5 C 157.443,257.609 157.11,258.609 156.5,259.5C 156.741,262.034 155.741,263.7 153.5,264.5C 153.896,261.279 155.229,258.612 157.5,256.5 Z"/></g>
<g><path style="opacity:1" fill="#7a7a7a" d="M 151.5,260.5 C 151.011,263.445 149.511,265.778 147,267.5C 145.961,266.756 145.461,265.756 145.5,264.5C 147.758,265.447 148.925,264.447 149,261.5C 149.671,260.748 150.504,260.414 151.5,260.5 Z"/></g>
<g><path style="opacity:0.557" fill="#4c4c4c" d="M 137.5,260.5 C 141.504,263.771 143.837,268.104 144.5,273.5C 143.624,273.631 142.957,273.298 142.5,272.5C 140.98,268.4 139.314,264.4 137.5,260.5 Z"/></g>
<g><path style="opacity:0.563" fill="#4c4c4c" d="M 153.5,264.5 C 153.825,269.738 151.658,273.404 147,275.5C 145.624,275.316 144.791,274.649 144.5,273.5C 145.822,273.67 146.989,273.337 148,272.5C 149.139,269.177 150.973,266.51 153.5,264.5 Z"/></g>
</svg>
