<?xml version="1.0" encoding="UTF-8"?>
<!DOCTYPE svg PUBLIC "-//W3C//DTD SVG 1.1//EN" "http://www.w3.org/Graphics/SVG/1.1/DTD/svg11.dtd">
<svg xmlns="http://www.w3.org/2000/svg" version="1.1" width="100%" viewBox="0 0 70 70" style="shape-rendering:geometricPrecision; text-rendering:geometricPrecision; image-rendering:optimizeQuality; fill-rule:evenodd; clip-rule:evenodd" xmlns:xlink="http://www.w3.org/1999/xlink">
<g><path style="opacity:0.698" fill="#f2f1f0" d="M 7.5,-0.5 C 9.83333,-0.5 12.1667,-0.5 14.5,-0.5C 17.4289,0.53768 20.4289,1.70435 23.5,3C 25.4875,4.31892 26.6541,6.15226 27,8.5C 28.7261,7.42378 30.5594,7.25711 32.5,8C 41.6639,17.1639 50.6639,26.1639 59.5,35C 63.4451,38.4351 66.7784,42.2685 69.5,46.5C 69.5,47.5 69.5,48.5 69.5,49.5C 62.4918,56.2103 55.4918,62.8769 48.5,69.5C 48.1667,69.5 47.8333,69.5 47.5,69.5C 40.1455,64.6424 34.3122,58.3091 30,50.5C 29.6667,50.8333 29.3333,51.1667 29,51.5C 21.685,46.1832 15.0184,40.1832 9,33.5C 7.41782,31.3763 7.25116,29.2096 8.5,27C 6.37623,25.8783 4.5429,24.3783 3,22.5C 1.77236,19.4016 0.605695,16.4016 -0.5,13.5C -0.5,11.5 -0.5,9.5 -0.5,7.5C 1.83333,4.5 4.5,1.83333 7.5,-0.5 Z"/></g>
<g><path style="opacity:1" fill="#e79b4f" d="M 16.5,5.5 C 21.4701,6.37775 24.4701,9.37775 25.5,14.5C 25.5654,14.9382 25.3988,15.2716 25,15.5C 22.61,13.1071 19.9433,11.1071 17,9.5C 15.7017,12.1592 13.7017,14.1592 11,15.5C 9.73869,15.2409 8.73869,14.5742 8,13.5C 7.58605,13.9574 7.08605,14.2907 6.5,14.5C 5.85892,13.0065 4.85892,12.0065 3.5,11.5C 3.26269,10.209 3.59603,9.20895 4.5,8.5C 5.74975,8.57735 6.58309,9.24402 7,10.5C 8.91025,9.0089 10.0769,7.5089 10.5,6C 10.1667,5.66667 9.83333,5.33333 9.5,5C 11.7513,5.20681 14.0846,5.37348 16.5,5.5 Z"/></g>
<g><path style="opacity:1" fill="#d1853a" d="M 25.5,14.5 C 28.314,10.6484 30.9807,10.6484 33.5,14.5C 31.6092,16.4782 29.6092,18.4782 27.5,20.5C 25.8035,19.6364 24.6368,18.3031 24,16.5C 23.3333,17.8333 22.6667,17.8333 22,16.5C 21.8849,18.1068 22.3849,19.6068 23.5,21C 23.3699,22.0588 22.8699,22.8921 22,23.5C 19.418,21.7722 17.918,19.4389 17.5,16.5C 18.675,16.719 19.675,16.3857 20.5,15.5C 16.765,15.0239 14.4317,16.8572 13.5,21C 14.836,21.4303 16.1693,22.597 17.5,24.5C 18.086,24.2907 18.586,23.9574 19,23.5C 21.133,27.4174 20.133,30.4174 16,32.5C 13.676,31.2247 13.176,29.558 14.5,27.5C 14.6107,26.8826 14.944,26.3826 15.5,26C 12.8726,24.1031 10.0393,22.6031 7,21.5C 5.96833,19.0056 4.80167,16.6723 3.5,14.5C 3.5,13.5 3.5,12.5 3.5,11.5C 4.85892,12.0065 5.85892,13.0065 6.5,14.5C 7.08605,14.2907 7.58605,13.9574 8,13.5C 8.73869,14.5742 9.73869,15.2409 11,15.5C 13.7017,14.1592 15.7017,12.1592 17,9.5C 19.9433,11.1071 22.61,13.1071 25,15.5C 25.3988,15.2716 25.5654,14.9382 25.5,14.5 Z"/></g>
<g><path style="opacity:1" fill="#97510a" d="M 33.5,14.5 C 34.5,14.8333 35.1667,15.5 35.5,16.5C 33.5066,18.4668 31.5066,20.4668 29.5,22.5C 31.5,25.1667 33.5,25.1667 35.5,22.5C 36.3473,24.061 36.0139,25.561 34.5,27C 35.1667,27.3333 35.8333,27.6667 36.5,28C 35.8288,28.9862 35.8288,30.1529 36.5,31.5C 39.3325,33.6467 41.9992,33.6467 44.5,31.5C 44.5,32.1667 44.5,32.8333 44.5,33.5C 42.8635,37.6726 39.8635,40.506 35.5,42C 34.7476,42.6708 34.4142,43.5041 34.5,44.5C 33.5,43.1667 32.5,43.1667 31.5,44.5C 32.4749,42.8073 33.8082,41.3073 35.5,40C 34.646,38.9783 33.646,38.1449 32.5,37.5C 30.4414,39.8973 28.1081,41.8973 25.5,43.5C 23.8333,42.5 22.5,41.1667 21.5,39.5C 23.0443,39.7031 24.3777,40.3698 25.5,41.5C 27.0627,40.0552 28.396,38.3885 29.5,36.5C 28.9234,34.4501 27.5901,33.4501 25.5,33.5C 25.9342,30.8338 24.9342,29.6671 22.5,30C 21.4206,32.043 19.754,33.3763 17.5,34C 18.8228,34.8159 19.4894,35.9826 19.5,37.5C 17.1971,35.033 14.6971,32.6997 12,30.5C 11.4808,28.5106 12.3141,27.5106 14.5,27.5C 13.176,29.558 13.676,31.2247 16,32.5C 20.133,30.4174 21.133,27.4174 19,23.5C 18.586,23.9574 18.086,24.2907 17.5,24.5C 16.1693,22.597 14.836,21.4303 13.5,21C 14.4317,16.8572 16.765,15.0239 20.5,15.5C 19.675,16.3857 18.675,16.719 17.5,16.5C 17.918,19.4389 19.418,21.7722 22,23.5C 22.8699,22.8921 23.3699,22.0588 23.5,21C 22.3849,19.6068 21.8849,18.1068 22,16.5C 22.6667,17.8333 23.3333,17.8333 24,16.5C 24.6368,18.3031 25.8035,19.6364 27.5,20.5C 29.6092,18.4782 31.6092,16.4782 33.5,14.5 Z"/></g>
<g><path style="opacity:1" fill="#cb7e32" d="M 35.5,16.5 C 39.3188,20.0893 43.1521,23.756 47,27.5C 47.2793,29.4122 46.4459,30.7456 44.5,31.5C 41.9992,33.6467 39.3325,33.6467 36.5,31.5C 35.8288,30.1529 35.8288,28.9862 36.5,28C 35.8333,27.6667 35.1667,27.3333 34.5,27C 36.0139,25.561 36.3473,24.061 35.5,22.5C 33.5,25.1667 31.5,25.1667 29.5,22.5C 31.5066,20.4668 33.5066,18.4668 35.5,16.5 Z"/></g>
<g><path style="opacity:1" fill="#d08332" d="M 36.5,31.5 C 37.0476,33.3936 38.0476,35.0603 39.5,36.5C 38.1866,38.8853 36.5199,39.0519 34.5,37C 33.2283,35.6932 32.2283,34.1932 31.5,32.5C 30.2638,31.7542 28.9305,31.4208 27.5,31.5C 25.6386,29.2546 24.6386,26.5879 24.5,23.5C 25.552,23.3505 26.552,23.5172 27.5,24C 30.2778,26.8969 33.2778,29.3969 36.5,31.5 Z"/></g>
<g><path style="opacity:1" fill="#2b1a12" d="M 3.5,14.5 C 4.80167,16.6723 5.96833,19.0056 7,21.5C 10.0393,22.6031 12.8726,24.1031 15.5,26C 14.944,26.3826 14.6107,26.8826 14.5,27.5C 12.3141,27.5106 11.4808,28.5106 12,30.5C 14.6971,32.6997 17.1971,35.033 19.5,37.5C 19.8333,38.5 20.5,39.1667 21.5,39.5C 22.5,41.1667 23.8333,42.5 25.5,43.5C 27.1853,46.8555 29.1853,47.1888 31.5,44.5C 32.5,43.1667 33.5,43.1667 34.5,44.5C 34.5,45.1667 34.8333,45.5 35.5,45.5C 35.5,45.8333 35.5,46.1667 35.5,46.5C 33.8958,47.287 33.2291,48.6203 33.5,50.5C 32.2101,49.9423 31.3768,48.9423 31,47.5C 29.9505,48.5171 28.7839,48.6838 27.5,48C 22,42.5 16.5,37 11,31.5C 10.1751,29.2992 10.6751,27.4659 12.5,26C 6.31166,24.6465 3.31166,20.8132 3.5,14.5 Z"/></g>
<g><path style="opacity:1" fill="#d88839" d="M 21.5,39.5 C 20.5,39.1667 19.8333,38.5 19.5,37.5C 19.4894,35.9826 18.8228,34.8159 17.5,34C 19.754,33.3763 21.4206,32.043 22.5,30C 24.9342,29.6671 25.9342,30.8338 25.5,33.5C 27.5901,33.4501 28.9234,34.4501 29.5,36.5C 28.396,38.3885 27.0627,40.0552 25.5,41.5C 24.3777,40.3698 23.0443,39.7031 21.5,39.5 Z"/></g>
<g><path style="opacity:1" fill="#2d1c13" d="M 35.5,53.5 C 35.8333,53.5 36.1667,53.5 36.5,53.5C 39.6015,57.1045 42.9349,60.6045 46.5,64C 49.4904,64.8469 50.8238,63.6802 50.5,60.5C 51.8775,59.7656 53.3775,59.0989 55,58.5C 55.7401,57.2506 55.5735,56.2506 54.5,55.5C 56.2184,54.776 58.0517,54.1094 60,53.5C 60.5791,52.0715 60.4124,50.7382 59.5,49.5C 60.1667,49.5 60.8333,49.5 61.5,49.5C 63.1002,50.512 64.4335,50.012 65.5,48C 61.8862,42.5473 57.2195,38.3806 51.5,35.5C 51.1344,34.3054 50.301,33.6387 49,33.5C 47.437,34.7221 45.937,34.7221 44.5,33.5C 44.5,32.8333 44.5,32.1667 44.5,31.5C 46.4459,30.7456 47.2793,29.4122 47,27.5C 43.1521,23.756 39.3188,20.0893 35.5,16.5C 35.1667,15.5 34.5,14.8333 33.5,14.5C 30.9807,10.6484 28.314,10.6484 25.5,14.5C 24.4701,9.37775 21.4701,6.37775 16.5,5.5C 14.2046,3.61501 11.538,3.11501 8.5,4C 6.24896,4.74753 4.91563,6.24753 4.5,8.5C 3.59603,9.20895 3.26269,10.209 3.5,11.5C 3.5,12.5 3.5,13.5 3.5,14.5C 1.70326,4.47844 6.03659,0.645109 16.5,3C 21.0912,3.92691 24.0912,6.59358 25.5,11C 27.7687,10.6256 30.102,10.6256 32.5,11C 37.6667,16.1667 42.8333,21.3333 48,26.5C 48.7203,28.1124 48.5536,29.6124 47.5,31C 54.791,34.2788 60.9577,39.1121 66,45.5C 66.6667,46.8333 66.6667,48.1667 66,49.5C 63.5,51.3333 61.3333,53.5 59.5,56C 58.552,56.4828 57.552,56.6495 56.5,56.5C 56.6495,57.552 56.4828,58.552 56,59.5C 53.5,61.8333 51,64.1667 48.5,66.5C 43.1241,63.1241 38.7908,58.7908 35.5,53.5 Z"/></g>
<g><path style="opacity:1" fill="#a2631c" d="M 16.5,5.5 C 14.0846,5.37348 11.7513,5.20681 9.5,5C 9.83333,5.33333 10.1667,5.66667 10.5,6C 10.0769,7.5089 8.91025,9.0089 7,10.5C 6.58309,9.24402 5.74975,8.57735 4.5,8.5C 4.91563,6.24753 6.24896,4.74753 8.5,4C 11.538,3.11501 14.2046,3.61501 16.5,5.5 Z"/></g>
<g><path style="opacity:1" fill="#cb7623" d="M 44.5,33.5 C 45.937,34.7221 47.437,34.7221 49,33.5C 50.301,33.6387 51.1344,34.3054 51.5,35.5C 53.5299,38.1056 55.1966,40.939 56.5,44C 57.8333,44 59.1667,44 60.5,44C 59.3659,45.016 59.6992,45.6827 61.5,46C 60.3157,47.1455 60.3157,48.3121 61.5,49.5C 60.8333,49.5 60.1667,49.5 59.5,49.5C 58.2588,46.6955 56.2588,44.5288 53.5,43C 52.2575,42.6886 51.2575,43.1886 50.5,44.5C 49.4104,43.6086 49.4104,42.6086 50.5,41.5C 49.2338,40.2764 48.0672,38.9431 47,37.5C 44.6667,39.8333 42.3333,42.1667 40,44.5C 37.8784,41.8165 36.3784,42.1499 35.5,45.5C 34.8333,45.5 34.5,45.1667 34.5,44.5C 34.4142,43.5041 34.7476,42.6708 35.5,42C 39.8635,40.506 42.8635,37.6726 44.5,33.5 Z"/></g>
<g><path style="opacity:1" fill="#d78f47" d="M 31.5,44.5 C 29.1853,47.1888 27.1853,46.8555 25.5,43.5C 28.1081,41.8973 30.4414,39.8973 32.5,37.5C 33.646,38.1449 34.646,38.9783 35.5,40C 33.8082,41.3073 32.4749,42.8073 31.5,44.5 Z"/></g>
<g><path style="opacity:1" fill="#e79849" d="M 59.5,49.5 C 60.4124,50.7382 60.5791,52.0715 60,53.5C 58.0517,54.1094 56.2184,54.776 54.5,55.5C 54.1662,58.2748 52.8329,58.9415 50.5,57.5C 50.9767,56.5224 51.6433,55.6891 52.5,55C 51.8333,54.6667 51.1667,54.3333 50.5,54C 51.3366,52.9887 51.67,51.8221 51.5,50.5C 53.2799,52.136 54.9465,52.3026 56.5,51C 54.1088,50.3086 54.1088,49.3086 56.5,48C 54.8333,48.3333 53.1667,48.6667 51.5,49C 50.0248,46.6908 48.3581,44.5241 46.5,42.5C 45.5,42.8333 44.8333,43.5 44.5,44.5C 45.4667,47.1292 47.1334,49.1292 49.5,50.5C 50.895,51.6477 50.7284,52.6477 49,53.5C 47.4708,52.2713 46.3041,50.7713 45.5,49C 44.0039,48.4926 42.8373,48.9926 42,50.5C 40.2866,49.1218 38.9533,47.4552 38,45.5C 37.3292,46.2524 36.4959,46.5858 35.5,46.5C 35.5,46.1667 35.5,45.8333 35.5,45.5C 36.3784,42.1499 37.8784,41.8165 40,44.5C 42.3333,42.1667 44.6667,39.8333 47,37.5C 48.0672,38.9431 49.2338,40.2764 50.5,41.5C 49.4104,42.6086 49.4104,43.6086 50.5,44.5C 51.2575,43.1886 52.2575,42.6886 53.5,43C 56.2588,44.5288 58.2588,46.6955 59.5,49.5 Z"/></g>
<g><path style="opacity:1" fill="#dd9f62" d="M 51.5,35.5 C 57.2195,38.3806 61.8862,42.5473 65.5,48C 64.4335,50.012 63.1002,50.512 61.5,49.5C 60.3157,48.3121 60.3157,47.1455 61.5,46C 59.6992,45.6827 59.3659,45.016 60.5,44C 59.1667,44 57.8333,44 56.5,44C 55.1966,40.939 53.5299,38.1056 51.5,35.5 Z"/></g>
<g><path style="opacity:1" fill="#a75d12" d="M 49.5,50.5 C 50.1667,50.5 50.8333,50.5 51.5,50.5C 51.67,51.8221 51.3366,52.9887 50.5,54C 51.1667,54.3333 51.8333,54.6667 52.5,55C 51.6433,55.6891 50.9767,56.5224 50.5,57.5C 52.8329,58.9415 54.1662,58.2748 54.5,55.5C 55.5735,56.2506 55.7401,57.2506 55,58.5C 53.3775,59.0989 51.8775,59.7656 50.5,60.5C 49.7811,58.9087 48.7811,57.4087 47.5,56C 42.9738,55.8414 40.1404,53.6748 39,49.5C 37.2942,50.3079 36.4609,51.6412 36.5,53.5C 36.1667,53.5 35.8333,53.5 35.5,53.5C 35.573,51.9731 34.9063,50.9731 33.5,50.5C 33.2291,48.6203 33.8958,47.287 35.5,46.5C 36.4959,46.5858 37.3292,46.2524 38,45.5C 38.9533,47.4552 40.2866,49.1218 42,50.5C 42.8373,48.9926 44.0039,48.4926 45.5,49C 46.3041,50.7713 47.4708,52.2713 49,53.5C 50.7284,52.6477 50.895,51.6477 49.5,50.5 Z"/></g>
<g><path style="opacity:1" fill="#8d4b08" d="M 51.5,50.5 C 50.8333,50.5 50.1667,50.5 49.5,50.5C 47.1334,49.1292 45.4667,47.1292 44.5,44.5C 44.8333,43.5 45.5,42.8333 46.5,42.5C 48.3581,44.5241 50.0248,46.6908 51.5,49C 53.1667,48.6667 54.8333,48.3333 56.5,48C 54.1088,49.3086 54.1088,50.3086 56.5,51C 54.9465,52.3026 53.2799,52.136 51.5,50.5 Z"/></g>
<g><path style="opacity:1" fill="#1b0600" d="M 33.5,50.5 C 34.9063,50.9731 35.573,51.9731 35.5,53.5C 34.0937,53.0269 33.427,52.0269 33.5,50.5 Z"/></g>
<g><path style="opacity:1" fill="#e1903f" d="M 50.5,60.5 C 50.8238,63.6802 49.4904,64.8469 46.5,64C 42.9349,60.6045 39.6015,57.1045 36.5,53.5C 36.4609,51.6412 37.2942,50.3079 39,49.5C 40.1404,53.6748 42.9738,55.8414 47.5,56C 48.7811,57.4087 49.7811,58.9087 50.5,60.5 Z"/></g>
</svg>
