<?xml version="1.0" encoding="UTF-8"?>
<!DOCTYPE svg PUBLIC "-//W3C//DTD SVG 1.1//EN" "http://www.w3.org/Graphics/SVG/1.1/DTD/svg11.dtd">
<svg xmlns="http://www.w3.org/2000/svg" version="1.1" width="100%" viewBox="0 0 67 67" style="shape-rendering:geometricPrecision; text-rendering:geometricPrecision; image-rendering:optimizeQuality; fill-rule:evenodd; clip-rule:evenodd" xmlns:xlink="http://www.w3.org/1999/xlink">
<g><path style="opacity:0.726" fill="#f3f1f0" d="M 9.5,-0.5 C 10.5,-0.5 11.5,-0.5 12.5,-0.5C 24.9197,9.22265 37.5864,18.7226 50.5,28C 52.3333,29.8333 54.1667,31.6667 56,33.5C 59.0239,39.5657 62.5239,45.2324 66.5,50.5C 66.5,52.5 66.5,54.5 66.5,56.5C 62.8333,59.5 59.5,62.8333 56.5,66.5C 54.5,66.5 52.5,66.5 50.5,66.5C 45.2324,62.5239 39.5657,59.0239 33.5,56C 31.6667,54.1667 29.8333,52.3333 28,50.5C 18.4788,37.4326 8.97876,24.4326 -0.5,11.5C -0.5,10.8333 -0.5,10.1667 -0.5,9.5C 3.16667,6.5 6.5,3.16667 9.5,-0.5 Z"/></g>
<g><path style="opacity:1" fill="#342218" d="M 61.5,57.5 C 61.5,57.1667 61.5,56.8333 61.5,56.5C 61.4208,55.0695 61.7542,53.7362 62.5,52.5C 59.6667,47.5 56.8333,42.5 54,37.5C 53.3292,36.7476 52.4959,36.4142 51.5,36.5C 51.5,35.1667 50.8333,34.5 49.5,34.5C 49.1412,32.629 48.1412,31.129 46.5,30C 41.1216,25.6514 35.4549,21.8181 29.5,18.5C 25.0414,14.1031 20.0414,10.4365 14.5,7.5C 13.5944,5.08634 11.9278,4.25301 9.5,5C 7.44293,6.71939 5.77626,8.71939 4.5,11C 7.62673,16.6144 11.2934,21.781 15.5,26.5C 19.5879,31.0126 22.9212,36.0126 25.5,41.5C 17.5364,32.2639 10.0364,22.5972 3,12.5C 2.33333,11.5 2.33333,10.5 3,9.5C 5.16667,7.33333 7.33333,5.16667 9.5,3C 10.5,2.33333 11.5,2.33333 12.5,3C 25.6667,12.8333 38.8333,22.6667 52,32.5C 56.0635,38.2362 59.7302,44.2362 63,50.5C 63.6667,52.5 63.6667,54.5 63,56.5C 62.6174,57.056 62.1174,57.3893 61.5,57.5 Z"/></g>
<g><path style="opacity:1" fill="#f0aa64" d="M 14.5,7.5 C 20.0414,10.4365 25.0414,14.1031 29.5,18.5C 24.7712,15.7173 19.9379,13.0507 15,10.5C 14.51,11.7932 14.3433,13.1266 14.5,14.5C 12.497,15.5316 10.497,15.1982 8.5,13.5C 9.64055,12.5745 9.64055,11.7412 8.5,11C 10.6181,9.9179 12.6181,8.75124 14.5,7.5 Z"/></g>
<g><path style="opacity:1" fill="#dc8a3a" d="M 29.5,18.5 C 30.7856,20.8769 32.4522,23.0435 34.5,25C 33.9056,25.4643 33.2389,25.631 32.5,25.5C 29.5178,23.5258 26.5178,21.5258 23.5,19.5C 22.4173,20.365 22.2506,21.365 23,22.5C 26.0688,24.5135 27.7354,27.1801 28,30.5C 27.34,28.6763 26.1733,27.343 24.5,26.5C 23.8333,25.1667 22.8333,24.1667 21.5,23.5C 20.0425,21.9892 18.2092,20.9892 16,20.5C 14.7047,18.435 14.2047,16.435 14.5,14.5C 14.3433,13.1266 14.51,11.7932 15,10.5C 19.9379,13.0507 24.7712,15.7173 29.5,18.5 Z"/></g>
<g><path style="opacity:1" fill="#a96015" d="M 32.5,25.5 C 35.2709,27.767 37.9375,30.267 40.5,33C 41.9961,33.5074 43.1627,33.0074 44,31.5C 44.4935,33.1341 44.6602,34.8008 44.5,36.5C 42.3894,36.7721 40.2228,37.1054 38,37.5C 37.4257,35.508 36.259,34.008 34.5,33C 37.7423,32.7167 38.0756,31.8834 35.5,30.5C 31.2275,32.0278 30.0608,34.6945 32,38.5C 31.3829,36.9052 31.7163,35.5719 33,34.5C 33.893,39.3271 36.7263,41.9938 41.5,42.5C 41.5,43.5 41.5,44.5 41.5,45.5C 44.3356,45.2022 44.8356,45.8689 43,47.5C 40.5325,46.8957 38.5325,45.5624 37,43.5C 34.7079,44.9078 32.5412,44.7411 30.5,43C 31.428,42.6121 32.0946,41.9454 32.5,41C 29.6909,37.5197 26.8576,34.0197 24,30.5C 23.235,28.9343 23.4017,27.6009 24.5,26.5C 26.1733,27.343 27.34,28.6763 28,30.5C 27.7354,27.1801 26.0688,24.5135 23,22.5C 22.2506,21.365 22.4173,20.365 23.5,19.5C 26.5178,21.5258 29.5178,23.5258 32.5,25.5 Z"/></g>
<g><path style="opacity:1" fill="#e29850" d="M 29.5,18.5 C 35.4549,21.8181 41.1216,25.6514 46.5,30C 48.1412,31.129 49.1412,32.629 49.5,34.5C 48.5,34.5 47.5,34.5 46.5,34.5C 46.8693,36.9935 46.2027,37.6602 44.5,36.5C 44.6602,34.8008 44.4935,33.1341 44,31.5C 43.1627,33.0074 41.9961,33.5074 40.5,33C 37.9375,30.267 35.2709,27.767 32.5,25.5C 33.2389,25.631 33.9056,25.4643 34.5,25C 32.4522,23.0435 30.7856,20.8769 29.5,18.5 Z"/></g>
<g><path style="opacity:1" fill="#ab6217" d="M 14.5,7.5 C 12.6181,8.75124 10.6181,9.9179 8.5,11C 9.64055,11.7412 9.64055,12.5745 8.5,13.5C 10.497,15.1982 12.497,15.5316 14.5,14.5C 14.2047,16.435 14.7047,18.435 16,20.5C 18.2092,20.9892 20.0425,21.9892 21.5,23.5C 21.631,24.2389 21.4643,24.9056 21,25.5C 20.2825,24.5494 19.4491,24.3828 18.5,25C 20.597,26.9995 21.597,29.1662 21.5,31.5C 20.0803,29.7798 18.747,27.9465 17.5,26C 16.5632,25.3083 15.8966,25.475 15.5,26.5C 11.2934,21.781 7.62673,16.6144 4.5,11C 5.77626,8.71939 7.44293,6.71939 9.5,5C 11.9278,4.25301 13.5944,5.08634 14.5,7.5 Z"/></g>
<g><path style="opacity:1" fill="#341e14" d="M 25.5,41.5 C 29.1653,46.006 33.1653,50.1726 37.5,54C 42.5,56.8333 47.5,59.6667 52.5,62.5C 53.7362,61.7542 55.0695,61.4208 56.5,61.5C 56.8333,61.5 57.1667,61.5 57.5,61.5C 57.3893,62.1174 57.056,62.6174 56.5,63C 54.5,63.6667 52.5,63.6667 50.5,63C 43.7317,59.2278 37.2317,55.0611 31,50.5C 29.1444,47.4443 27.3111,44.4443 25.5,41.5 Z"/></g>
<g><path style="opacity:1" fill="#bf7122" d="M 21.5,23.5 C 22.8333,24.1667 23.8333,25.1667 24.5,26.5C 23.4017,27.6009 23.235,28.9343 24,30.5C 26.8576,34.0197 29.6909,37.5197 32.5,41C 32.0946,41.9454 31.428,42.6121 30.5,43C 32.5412,44.7411 34.7079,44.9078 37,43.5C 38.5325,45.5624 40.5325,46.8957 43,47.5C 44.8356,45.8689 44.3356,45.2022 41.5,45.5C 41.5,44.5 41.5,43.5 41.5,42.5C 36.7263,41.9938 33.893,39.3271 33,34.5C 31.7163,35.5719 31.3829,36.9052 32,38.5C 30.0608,34.6945 31.2275,32.0278 35.5,30.5C 38.0756,31.8834 37.7423,32.7167 34.5,33C 36.259,34.008 37.4257,35.508 38,37.5C 40.2228,37.1054 42.3894,36.7721 44.5,36.5C 46.2027,37.6602 46.8693,36.9935 46.5,34.5C 47.5,34.5 48.5,34.5 49.5,34.5C 50.8333,34.5 51.5,35.1667 51.5,36.5C 50.2055,38.3284 49.2055,40.3284 48.5,42.5C 50.1992,42.3398 51.8659,42.5065 53.5,43C 52.8333,43.3333 52.1667,43.6667 51.5,44C 53.6051,45.1934 55.2718,46.8601 56.5,49C 53.999,50.4177 54.3323,51.4177 57.5,52C 56.7476,52.6708 56.4142,53.5041 56.5,54.5C 55.5222,54.811 54.8555,55.4777 54.5,56.5C 56.0049,57.8415 56.6715,59.5082 56.5,61.5C 55.0695,61.4208 53.7362,61.7542 52.5,62.5C 47.5,59.6667 42.5,56.8333 37.5,54C 33.1653,50.1726 29.1653,46.006 25.5,41.5C 22.9212,36.0126 19.5879,31.0126 15.5,26.5C 15.8966,25.475 16.5632,25.3083 17.5,26C 18.747,27.9465 20.0803,29.7798 21.5,31.5C 21.597,29.1662 20.597,26.9995 18.5,25C 19.4491,24.3828 20.2825,24.5494 21,25.5C 21.4643,24.9056 21.631,24.2389 21.5,23.5 Z"/></g>
<g><path style="opacity:1" fill="#e19b54" d="M 51.5,36.5 C 52.4959,36.4142 53.3292,36.7476 54,37.5C 56.8333,42.5 59.6667,47.5 62.5,52.5C 61.7542,53.7362 61.4208,55.0695 61.5,56.5C 59.302,56.8799 57.6354,56.2132 56.5,54.5C 56.4142,53.5041 56.7476,52.6708 57.5,52C 54.3323,51.4177 53.999,50.4177 56.5,49C 55.2718,46.8601 53.6051,45.1934 51.5,44C 52.1667,43.6667 52.8333,43.3333 53.5,43C 51.8659,42.5065 50.1992,42.3398 48.5,42.5C 49.2055,40.3284 50.2055,38.3284 51.5,36.5 Z"/></g>
<g><path style="opacity:1" fill="#77400b" d="M 56.5,54.5 C 57.6354,56.2132 59.302,56.8799 61.5,56.5C 61.5,56.8333 61.5,57.1667 61.5,57.5C 60.1667,57.5 58.8333,57.5 57.5,57.5C 57.5,58.8333 57.5,60.1667 57.5,61.5C 57.1667,61.5 56.8333,61.5 56.5,61.5C 56.6715,59.5082 56.0049,57.8415 54.5,56.5C 54.8555,55.4777 55.5222,54.811 56.5,54.5 Z"/></g>
<g><path style="opacity:1" fill="#221411" d="M 61.5,57.5 C 60.1667,58.8333 58.8333,60.1667 57.5,61.5C 57.5,60.1667 57.5,58.8333 57.5,57.5C 58.8333,57.5 60.1667,57.5 61.5,57.5 Z"/></g>
</svg>
