<?xml version="1.0" encoding="UTF-8"?>
<!DOCTYPE svg PUBLIC "-//W3C//DTD SVG 1.1//EN" "http://www.w3.org/Graphics/SVG/1.1/DTD/svg11.dtd">
<svg xmlns="http://www.w3.org/2000/svg" version="1.1" width="100%" viewBox="0 0 51 49" style="shape-rendering:geometricPrecision; text-rendering:geometricPrecision; image-rendering:optimizeQuality; fill-rule:evenodd; clip-rule:evenodd" xmlns:xlink="http://www.w3.org/1999/xlink">
<g><path style="opacity:0.72" fill="#f3f2f0" d="M 9.5,-0.5 C 11.1667,-0.5 12.8333,-0.5 14.5,-0.5C 17.9052,2.2653 21.5719,4.7653 25.5,7C 26.5,7.66667 27.5,7.66667 28.5,7C 29.3992,5.76375 30.5659,4.93042 32,4.5C 40.5167,7.18046 45.6833,12.8471 47.5,21.5C 47.1755,24.3258 46.1755,26.8258 44.5,29C 46.847,30.8725 48.847,33.0392 50.5,35.5C 50.5,35.8333 50.5,36.1667 50.5,36.5C 46.636,40.2775 42.9694,44.2775 39.5,48.5C 37.8333,48.5 36.1667,48.5 34.5,48.5C 32.8767,47.2206 31.21,45.8872 29.5,44.5C 17.3095,48.3808 9.30948,44.2142 5.5,32C 5.64312,29.849 6.64312,28.1824 8.5,27C 5.58733,21.9859 2.58733,17.1526 -0.5,12.5C -0.5,12.1667 -0.5,11.8333 -0.5,11.5C 0.384409,8.97683 1.21774,6.31017 2,3.5C 4.25524,1.50123 6.75524,0.167899 9.5,-0.5 Z"/></g>
<g><path style="opacity:1" fill="#2f1e16" d="M 14.5,3.5 C 19.9887,5.83163 25.1554,8.83163 30,12.5C 30.4922,11.451 30.3256,10.451 29.5,9.5C 29.8869,8.28014 30.7202,7.61348 32,7.5C 44.0738,11.6341 47.2405,19.3008 41.5,30.5C 38.7704,29.0086 38.937,27.6752 42,26.5C 42.6917,25.5632 42.525,24.8966 41.5,24.5C 41.8333,23.8333 42.1667,23.1667 42.5,22.5C 43.0967,22.2648 43.4301,21.7648 43.5,21C 43,19.5 42.5,18 42,16.5C 41.3292,15.7476 40.4959,15.4142 39.5,15.5C 38.2854,11.4392 35.6187,9.60589 31.5,10C 32.056,10.3826 32.3893,10.8826 32.5,11.5C 32.1667,12.1667 31.8333,12.8333 31.5,13.5C 30.71,14.6085 30.21,15.9419 30,17.5C 29.8371,15.324 29.0037,13.4907 27.5,12C 24.1667,10.3333 20.8333,8.66667 17.5,7C 16.2899,5.9609 15.2899,4.79423 14.5,3.5 Z"/></g>
<g><path style="opacity:1" fill="#d09559" d="M 39.5,15.5 C 38.8333,15.5 38.1667,15.5 37.5,15.5C 35.8333,14.1667 34.1667,12.8333 32.5,11.5C 32.3893,10.8826 32.056,10.3826 31.5,10C 35.6187,9.60589 38.2854,11.4392 39.5,15.5 Z"/></g>
<g><path style="opacity:1" fill="#bb6e1f" d="M 14.5,3.5 C 15.2899,4.79423 16.2899,5.9609 17.5,7C 20.8333,8.66667 24.1667,10.3333 27.5,12C 29.0037,13.4907 29.8371,15.324 30,17.5C 30.21,15.9419 30.71,14.6085 31.5,13.5C 31.8333,12.8333 32.1667,12.1667 32.5,11.5C 34.1667,12.8333 35.8333,14.1667 37.5,15.5C 37.6567,16.8734 37.49,18.2068 37,19.5C 35.8687,18.3961 35.0354,18.7295 34.5,20.5C 35.7287,21.2811 37.062,21.7811 38.5,22C 37.8333,22.3333 37.1667,22.6667 36.5,23C 37.756,23.4169 38.4226,24.2502 38.5,25.5C 35.9561,24.5321 33.7895,22.8655 32,20.5C 32,21.8333 32,23.1667 32,24.5C 30.5295,23.7334 29.0295,23.0668 27.5,22.5C 26.2106,20.752 24.7106,20.4186 23,21.5C 19.4958,18.4956 16.3292,15.1623 13.5,11.5C 11.8987,12.0347 11.3987,13.0347 12,14.5C 14.4147,17.1735 16.9147,19.8401 19.5,22.5C 20.4287,23.6888 20.762,25.0222 20.5,26.5C 18.1667,26.5 15.8333,26.5 13.5,26.5C 13.2865,24.8561 13.6198,23.3561 14.5,22C 13.1085,19.7723 11.1085,18.6056 8.5,18.5C 8.77089,16.6203 8.10422,15.287 6.5,14.5C 4.9735,13.5081 4.30684,12.0081 4.5,10C 4.60324,8.43853 4.93658,6.93853 5.5,5.5C 8.39077,4.32194 11.3908,3.65527 14.5,3.5 Z"/></g>
<g><path style="opacity:1" fill="#3e2a1d" d="M 14.5,3.5 C 11.3908,3.65527 8.39077,4.32194 5.5,5.5C 4.93658,6.93853 4.60324,8.43853 4.5,10C 4.30684,12.0081 4.9735,13.5081 6.5,14.5C 8.17969,18.5069 9.84635,22.5069 11.5,26.5C 8.04676,22.0154 5.04676,17.182 2.5,12C 3.06288,9.27339 3.72954,6.60673 4.5,4C 7.92642,2.42445 11.2598,2.25779 14.5,3.5 Z"/></g>
<g><path style="opacity:1" fill="#f3a559" d="M 31.5,13.5 C 32.6431,13.9081 33.6431,14.5748 34.5,15.5C 34.4669,16.989 33.9669,18.3224 33,19.5C 31.6814,17.7505 31.1814,15.7505 31.5,13.5 Z"/></g>
<g><path style="opacity:1" fill="#dea973" d="M 39.5,15.5 C 40.4959,15.4142 41.3292,15.7476 42,16.5C 42.5,18 43,19.5 43.5,21C 43.4301,21.7648 43.0967,22.2648 42.5,22.5C 41.6557,20.1572 40.6557,17.8239 39.5,15.5 Z"/></g>
<g><path style="opacity:1" fill="#834e0e" d="M 6.5,14.5 C 8.10422,15.287 8.77089,16.6203 8.5,18.5C 11.1085,18.6056 13.1085,19.7723 14.5,22C 13.6198,23.3561 13.2865,24.8561 13.5,26.5C 15.8333,26.5 18.1667,26.5 20.5,26.5C 20.427,28.0269 21.0937,29.0269 22.5,29.5C 22.5,30.1667 22.5,30.8333 22.5,31.5C 19.5,31.5 16.5,31.5 13.5,31.5C 14.9516,30.6981 16.6183,30.1981 18.5,30C 16.0706,28.9805 13.7373,27.8138 11.5,26.5C 9.84635,22.5069 8.17969,18.5069 6.5,14.5 Z"/></g>
<g><path style="opacity:1" fill="#f5a85b" d="M 27.5,22.5 C 26.0639,23.4286 24.7305,24.5952 23.5,26C 24.4491,26.6172 25.2825,26.4506 26,25.5C 26.4696,26.5768 26.3029,27.5768 25.5,28.5C 23.8041,26.871 22.8041,27.2043 22.5,29.5C 21.0937,29.0269 20.427,28.0269 20.5,26.5C 20.762,25.0222 20.4287,23.6888 19.5,22.5C 16.9147,19.8401 14.4147,17.1735 12,14.5C 11.3987,13.0347 11.8987,12.0347 13.5,11.5C 16.3292,15.1623 19.4958,18.4956 23,21.5C 24.7106,20.4186 26.2106,20.752 27.5,22.5 Z"/></g>
<g><path style="opacity:1" fill="#da8736" d="M 37.5,15.5 C 38.1667,15.5 38.8333,15.5 39.5,15.5C 40.6557,17.8239 41.6557,20.1572 42.5,22.5C 42.1667,23.1667 41.8333,23.8333 41.5,24.5C 40.791,25.404 39.791,25.7373 38.5,25.5C 38.4226,24.2502 37.756,23.4169 36.5,23C 37.1667,22.6667 37.8333,22.3333 38.5,22C 37.062,21.7811 35.7287,21.2811 34.5,20.5C 35.0354,18.7295 35.8687,18.3961 37,19.5C 37.49,18.2068 37.6567,16.8734 37.5,15.5 Z"/></g>
<g><path style="opacity:1" fill="#e38b32" d="M 38.5,25.5 C 39.0352,28.2385 38.0352,30.0718 35.5,31C 35.8333,31.3333 36.1667,31.6667 36.5,32C 34.567,32.2511 32.7337,32.7511 31,33.5C 30.1301,32.8921 29.6301,32.0588 29.5,31C 30.8932,29.6992 31.3932,28.1992 31,26.5C 30,27.8333 29,27.8333 28,26.5C 28.0773,27.7376 27.9106,28.7376 27.5,29.5C 26.8165,29.1373 26.1499,28.8039 25.5,28.5C 26.3029,27.5768 26.4696,26.5768 26,25.5C 25.2825,26.4506 24.4491,26.6172 23.5,26C 24.7305,24.5952 26.0639,23.4286 27.5,22.5C 29.0295,23.0668 30.5295,23.7334 32,24.5C 32,23.1667 32,21.8333 32,20.5C 33.7895,22.8655 35.9561,24.5321 38.5,25.5 Z"/></g>
<g><path style="opacity:1" fill="#be742b" d="M 41.5,24.5 C 42.525,24.8966 42.6917,25.5632 42,26.5C 38.937,27.6752 38.7704,29.0086 41.5,30.5C 43.7053,32.3634 45.0387,34.6967 45.5,37.5C 43.8561,37.7135 42.3561,37.3802 41,36.5C 40.5172,37.448 40.3505,38.448 40.5,39.5C 36.9007,39.2619 36.5673,40.2619 39.5,42.5C 39.1131,43.7199 38.2798,44.3865 37,44.5C 34.683,43.0148 32.5164,41.3481 30.5,39.5C 31.6256,38.1417 31.6256,36.8084 30.5,35.5C 29.8076,36.0253 29.3076,36.6919 29,37.5C 28.0187,34.2527 25.852,32.2527 22.5,31.5C 22.5,30.8333 22.5,30.1667 22.5,29.5C 22.8041,27.2043 23.8041,26.871 25.5,28.5C 26.1499,28.8039 26.8165,29.1373 27.5,29.5C 27.9106,28.7376 28.0773,27.7376 28,26.5C 29,27.8333 30,27.8333 31,26.5C 31.3932,28.1992 30.8932,29.6992 29.5,31C 29.6301,32.0588 30.1301,32.8921 31,33.5C 32.7337,32.7511 34.567,32.2511 36.5,32C 36.1667,31.6667 35.8333,31.3333 35.5,31C 38.0352,30.0718 39.0352,28.2385 38.5,25.5C 39.791,25.7373 40.791,25.404 41.5,24.5 Z"/></g>
<g><path style="opacity:1" fill="#2c1c14" d="M 11.5,26.5 C 13.7373,27.8138 16.0706,28.9805 18.5,30C 16.6183,30.1981 14.9516,30.6981 13.5,31.5C 12.0222,31.238 10.6888,31.5713 9.5,32.5C 10.5207,33.9014 11.5207,35.2347 12.5,36.5C 14.3092,37.4812 15.6426,38.9812 16.5,41C 18.9406,42.3923 21.274,42.559 23.5,41.5C 24.8333,41.5 26.1667,41.5 27.5,41.5C 27.4017,38.7524 28.4017,38.0857 30.5,39.5C 32.5164,41.3481 34.683,43.0148 37,44.5C 38.2798,44.3865 39.1131,43.7199 39.5,42.5C 36.5673,40.2619 36.9007,39.2619 40.5,39.5C 40.3505,38.448 40.5172,37.448 41,36.5C 42.3561,37.3802 43.8561,37.7135 45.5,37.5C 45.0387,34.6967 43.7053,32.3634 41.5,30.5C 44.2719,31.4364 46.2719,33.2697 47.5,36C 46.5226,38.7607 44.5226,40.094 41.5,40C 41.2081,43.0669 39.7081,45.2336 37,46.5C 34.3838,44.8878 32.0505,42.8878 30,40.5C 25.5832,44.8582 20.7498,45.3582 15.5,42C 11.9959,39.1681 9.32921,35.6681 7.5,31.5C 8.61974,29.4038 10.1197,29.0705 12,30.5C 12.195,29.1807 12.0283,27.8474 11.5,26.5 Z"/></g>
<g><path style="opacity:1" fill="#cc7d2b" d="M 23.5,41.5 C 21.274,42.559 18.9406,42.3923 16.5,41C 15.6426,38.9812 14.3092,37.4812 12.5,36.5C 12.3691,35.6236 12.7025,34.9569 13.5,34.5C 15.0009,35.7515 16.6675,36.7515 18.5,37.5C 19.1667,36.5 19.8333,35.5 20.5,34.5C 21.8335,36.1824 23.0001,37.849 24,39.5C 24.8928,38.2888 25.7261,38.2888 26.5,39.5C 25.3984,40.1757 24.3984,40.8423 23.5,41.5 Z"/></g>
<g><path style="opacity:1" fill="#a55d13" d="M 13.5,31.5 C 16.5,31.5 19.5,31.5 22.5,31.5C 25.852,32.2527 28.0187,34.2527 29,37.5C 29.3076,36.6919 29.8076,36.0253 30.5,35.5C 31.6256,36.8084 31.6256,38.1417 30.5,39.5C 28.4017,38.0857 27.4017,38.7524 27.5,41.5C 26.1667,41.5 24.8333,41.5 23.5,41.5C 24.3984,40.8423 25.3984,40.1757 26.5,39.5C 25.7261,38.2888 24.8928,38.2888 24,39.5C 23.0001,37.849 21.8335,36.1824 20.5,34.5C 19.8333,35.5 19.1667,36.5 18.5,37.5C 16.6675,36.7515 15.0009,35.7515 13.5,34.5C 12.7025,34.9569 12.3691,35.6236 12.5,36.5C 11.5207,35.2347 10.5207,33.9014 9.5,32.5C 10.6888,31.5713 12.0222,31.238 13.5,31.5 Z"/></g>
</svg>
