<?xml version="1.0" encoding="UTF-8"?>
<!DOCTYPE svg PUBLIC "-//W3C//DTD SVG 1.1//EN" "http://www.w3.org/Graphics/SVG/1.1/DTD/svg11.dtd">
<svg xmlns="http://www.w3.org/2000/svg" version="1.1" height="100%" width="100%" viewBox="0 0 27 65" style="shape-rendering:geometricPrecision; text-rendering:geometricPrecision; image-rendering:optimizeQuality; fill-rule:evenodd; clip-rule:evenodd" xmlns:xlink="http://www.w3.org/1999/xlink">
<g><path opacity="1.0" stroke="none" d="M 7.5,18.5 C 7.42702,20.0269 8.09368,21.0269 9.5,21.5C 9.28366,23.6807 10.117,25.3474 12,26.5C 13.1882,25.4366 13.6882,24.1033 13.5,22.5C 13.8333,22.5 14.1667,22.5 14.5,22.5C 14.281,23.675 14.6143,24.675 15.5,25.5C 16.1067,25.3764 16.44,25.0431 16.5,24.5C 16.8333,23.5 17.5,22.8333 18.5,22.5C 19.4584,22.0472 20.2917,21.3805 21,20.5C 21.4643,21.0944 21.631,21.7611 21.5,22.5C 20.1359,24.22 19.1359,26.22 18.5,28.5C 18.6236,29.1067 18.9569,29.44 19.5,29.5C 20.8333,29.5 21.5,30.1667 21.5,31.5C 20.2426,32.6226 20.5759,33.2893 22.5,33.5C 23.8333,33.8333 25.1667,34.1667 26.5,34.5C 26.5,35.5 26.5,36.5 26.5,37.5C 24.8333,37.5 23.1667,37.5 21.5,37.5C 21.7148,39.1788 21.0481,40.1788 19.5,40.5C 18.791,39.596 17.791,39.2627 16.5,39.5C 16.9227,41.7812 16.256,43.4479 14.5,44.5C 14.2056,41.5189 12.8722,40.8522 10.5,42.5C 9.73993,40.0155 8.73993,40.0155 7.5,42.5C 6.73769,44.2624 5.40435,45.2624 3.5,45.5C 4.45517,43.2543 5.12184,40.921 5.5,38.5C 4.03201,37.2209 3.36534,35.5542 3.5,33.5C 2.94227,32.2101 1.94227,31.3768 0.5,31C 2.2556,30.7978 3.92226,30.2978 5.5,29.5C 5.37642,28.8933 5.04309,28.56 4.5,28.5C 5.10787,27.2003 5.77453,25.8669 6.5,24.5C 6.16667,23.1667 5.83333,21.8333 5.5,20.5C 5.74716,19.2867 6.41383,18.62 7.5,18.5 Z"/></g>
<g><path opacity="1.0" stroke="none" d="M 7.5,18.5 C 8.90632,18.9731 9.57298,19.9731 9.5,21.5C 8.09368,21.0269 7.42702,20.0269 7.5,18.5 Z"/></g>
<g><path opacity="1.0" stroke="none" d="M 21.5,22.5 C 21.631,21.7611 21.4643,21.0944 21,20.5C 20.2917,21.3805 19.4584,22.0472 18.5,22.5C 18.6941,20.0882 20.0274,19.0882 22.5,19.5C 22.7373,20.791 22.404,21.791 21.5,22.5 Z"/></g>
<g><path opacity="1.0" stroke="none" d="M 9.5,21.5 C 10.3149,22.4293 11.1482,23.4293 12,24.5C 12.2784,23.5842 12.7784,22.9175 13.5,22.5C 13.6882,24.1033 13.1882,25.4366 12,26.5C 10.117,25.3474 9.28366,23.6807 9.5,21.5 Z"/></g>
<g><path opacity="1.0" stroke="none" d="M 14.5,22.5 C 15.1667,23.1667 15.8333,23.8333 16.5,24.5C 16.44,25.0431 16.1067,25.3764 15.5,25.5C 14.6143,24.675 14.281,23.675 14.5,22.5 Z"/></g>
<g><path opacity="1.0" stroke="none" d="M 21.5,22.5 C 21.233,24.9653 20.5664,27.2986 19.5,29.5C 18.9569,29.44 18.6236,29.1067 18.5,28.5C 19.1359,26.22 20.1359,24.22 21.5,22.5 Z"/></g>
<g><path opacity="1.0" stroke="none" d="M 4.5,28.5 C 5.04309,28.56 5.37642,28.8933 5.5,29.5C 3.92226,30.2978 2.2556,30.7978 0.5,31C 1.94227,31.3768 2.94227,32.2101 3.5,33.5C 2.16667,33.1667 0.833333,32.8333 -0.5,32.5C -0.5,31.5 -0.5,30.5 -0.5,29.5C 1.41467,29.7845 3.08134,29.4511 4.5,28.5 Z"/></g>
<g><path opacity="1.0" stroke="none" d="M 21.5,31.5 C 21.8333,32.1667 22.1667,32.8333 22.5,33.5C 20.5759,33.2893 20.2426,32.6226 21.5,31.5 Z"/></g>
<g><path opacity="1.0" stroke="none" d="M 5.5,38.5 C 5.12184,40.921 4.45517,43.2543 3.5,45.5C 2.59697,42.9075 3.26364,40.5742 5.5,38.5 Z"/></g>
<g><path opacity="1.0" stroke="none" d="M 10.5,42.5 C 9.5,42.5 8.5,42.5 7.5,42.5C 8.73993,40.0155 9.73993,40.0155 10.5,42.5 Z"/></g>
<g><path opacity="1.0" stroke="none" d="M 14.5,44.5 C 13.0048,44.0113 11.6715,43.3446 10.5,42.5C 12.8722,40.8522 14.2056,41.5189 14.5,44.5 Z"/></g>
<g><path opacity="1.0" stroke="none" d="M 19.5,40.5 C 17.744,41.5521 17.0773,43.2188 17.5,45.5C 16.209,45.7373 15.209,45.404 14.5,44.5C 16.256,43.4479 16.9227,41.7812 16.5,39.5C 17.791,39.2627 18.791,39.596 19.5,40.5 Z"/></g>
</svg>
