<?xml version="1.0" encoding="UTF-8"?>
<!DOCTYPE svg PUBLIC "-//W3C//DTD SVG 1.1//EN" "http://www.w3.org/Graphics/SVG/1.1/DTD/svg11.dtd">
<svg xmlns="http://www.w3.org/2000/svg" version="1.1" height="100%" width="100%" viewBox="0 0 52 65" style="shape-rendering:geometricPrecision; text-rendering:geometricPrecision; image-rendering:optimizeQuality; fill-rule:evenodd; clip-rule:evenodd" xmlns:xlink="http://www.w3.org/1999/xlink">
<g><path opacity="1.0" stroke="none" d="M 4.5,-0.5 C 5.16667,-0.5 5.83333,-0.5 6.5,-0.5C 7.10978,0.391047 7.44312,1.39105 7.5,2.5C 7.06029,4.84386 6.06029,6.84386 4.5,8.5C 5.5884,5.55584 5.5884,2.55584 4.5,-0.5 Z"/></g>
<g><path opacity="1.0" stroke="none" d="M 7.5,2.5 C 8.71237,3.22987 9.71237,4.22987 10.5,5.5C 11.6868,4.34732 12.6868,4.34732 13.5,5.5C 13.5,5.83333 13.5,6.16667 13.5,6.5C 9.21548,6.51618 8.21548,7.84951 10.5,10.5C 9.65882,11.9264 8.65882,13.2597 7.5,14.5C 6.5,13.1667 5.5,11.8333 4.5,10.5C 4.5,9.83333 4.5,9.16667 4.5,8.5C 6.06029,6.84386 7.06029,4.84386 7.5,2.5 Z"/></g>
<g><path opacity="1.0" stroke="none" d="M 16.5,4.5 C 16.0269,5.90632 15.0269,6.57298 13.5,6.5C 13.5,6.16667 13.5,5.83333 13.5,5.5C 14.391,4.89022 15.391,4.55688 16.5,4.5 Z"/></g>
<g><path opacity="1.0" stroke="none" d="M 13.5,6.5 C 13.1249,8.69764 12.4582,10.6976 11.5,12.5C 11.6716,11.5084 11.3382,10.8417 10.5,10.5C 8.21548,7.84951 9.21548,6.51618 13.5,6.5 Z"/></g>
<g><path opacity="1.0" stroke="none" d="M 17.5,3.5 C 17.8652,5.58801 17.8652,7.92134 17.5,10.5C 15.8784,11.1224 14.5451,12.1224 13.5,13.5C 12.8333,13.5 12.1667,13.5 11.5,13.5C 11.5,13.1667 11.5,12.8333 11.5,12.5C 12.4582,10.6976 13.1249,8.69764 13.5,6.5C 15.0269,6.57298 16.0269,5.90632 16.5,4.5C 16.5,3.83333 16.8333,3.5 17.5,3.5 Z"/></g>
<g><path opacity="1.0" stroke="none" d="M 10.5,10.5 C 11.3382,10.8417 11.6716,11.5084 11.5,12.5C 11.5,12.8333 11.5,13.1667 11.5,13.5C 10.2086,14.4728 10.2086,15.4728 11.5,16.5C 10.2724,18.1759 8.93906,18.5092 7.5,17.5C 8.09065,16.8485 8.75731,16.1818 9.5,15.5C 9.04311,14.7025 8.37644,14.3691 7.5,14.5C 8.65882,13.2597 9.65882,11.9264 10.5,10.5 Z"/></g>
<g><path opacity="1.0" stroke="none" d="M 4.5,8.5 C 4.5,9.16667 4.5,9.83333 4.5,10.5C 3.73747,11.2679 2.73747,11.7679 1.5,12C 3.15536,13.4443 3.82202,15.2776 3.5,17.5C 3.5,17.8333 3.5,18.1667 3.5,18.5C 3.02325,15.9748 1.68992,13.9748 -0.5,12.5C -0.5,11.5 -0.5,10.5 -0.5,9.5C 0.495904,9.41423 1.32924,9.74756 2,10.5C 2.7083,9.61947 3.54163,8.9528 4.5,8.5 Z"/></g>
<g><path opacity="1.0" stroke="none" d="M 4.5,10.5 C 5.5,11.8333 6.5,13.1667 7.5,14.5C 8.37644,14.3691 9.04311,14.7025 9.5,15.5C 8.75731,16.1818 8.09065,16.8485 7.5,17.5C 6.37505,18.3478 6.37505,19.3478 7.5,20.5C 6.16667,19.5 4.83333,18.5 3.5,17.5C 3.82202,15.2776 3.15536,13.4443 1.5,12C 2.73747,11.7679 3.73747,11.2679 4.5,10.5 Z"/></g>
<g><path opacity="1.0" stroke="none" d="M 17.5,10.5 C 17.0798,12.674 17.0798,14.674 17.5,16.5C 18.1924,15.9747 18.6924,15.3081 19,14.5C 20.3561,15.3802 21.8561,15.7135 23.5,15.5C 23.1627,18.3357 21.8293,19.0024 19.5,17.5C 18.7784,17.9175 18.2784,18.5842 18,19.5C 17.3292,18.7476 16.4959,18.4142 15.5,18.5C 15.9227,16.2188 15.256,14.5521 13.5,13.5C 14.5451,12.1224 15.8784,11.1224 17.5,10.5 Z"/></g>
<g><path opacity="1.0" stroke="none" d="M 17.5,3.5 C 18.472,2.24863 19.1386,2.58196 19.5,4.5C 17.6945,9.42474 19.0278,13.0914 23.5,15.5C 21.8561,15.7135 20.3561,15.3802 19,14.5C 18.6924,15.3081 18.1924,15.9747 17.5,16.5C 17.0798,14.674 17.0798,12.674 17.5,10.5C 17.8652,7.92134 17.8652,5.58801 17.5,3.5 Z"/></g>
<g><path opacity="1.0" stroke="none" d="M 11.5,13.5 C 12.1667,13.5 12.8333,13.5 13.5,13.5C 15.256,14.5521 15.9227,16.2188 15.5,18.5C 14.7784,18.0825 14.2784,17.4158 14,16.5C 13.5065,18.1341 13.3398,19.8008 13.5,21.5C 12.0413,21.4326 10.7079,21.7659 9.5,22.5C 9.5,21.1667 8.83333,20.5 7.5,20.5C 6.37505,19.3478 6.37505,18.3478 7.5,17.5C 8.93906,18.5092 10.2724,18.1759 11.5,16.5C 10.2086,15.4728 10.2086,14.4728 11.5,13.5 Z"/></g>
<g><path opacity="1.0" stroke="none" d="M 15.5,18.5 C 16.4959,18.4142 17.3292,18.7476 18,19.5C 18.2784,18.5842 18.7784,17.9175 19.5,17.5C 19.5,18.5 19.5,19.5 19.5,20.5C 18.5,20.5 17.5,20.5 16.5,20.5C 16.5,22.1667 16.5,23.8333 16.5,25.5C 13.9369,24.9117 11.6036,23.9117 9.5,22.5C 10.7079,21.7659 12.0413,21.4326 13.5,21.5C 13.3398,19.8008 13.5065,18.1341 14,16.5C 14.2784,17.4158 14.7784,18.0825 15.5,18.5 Z"/></g>
<g><path opacity="1.0" stroke="none" d="M 3.5,17.5 C 4.83333,18.5 6.16667,19.5 7.5,20.5C 8.83333,20.5 9.5,21.1667 9.5,22.5C 8.88258,22.3893 8.38258,22.056 8,21.5C 2.93195,27.0333 1.43195,26.0333 3.5,18.5C 3.5,18.1667 3.5,17.8333 3.5,17.5 Z"/></g>
<g><path opacity="1.0" stroke="none" d="M 34.5,20.5 C 35.9063,20.9731 36.573,21.9731 36.5,23.5C 35.0937,23.0269 34.427,22.0269 34.5,20.5 Z"/></g>
<g><path opacity="1.0" stroke="none" d="M 45.5,29.5 C 44.8333,28.1667 44.1667,26.8333 43.5,25.5C 42.0413,25.5674 40.7079,25.2341 39.5,24.5C 40.3132,23.3473 41.3132,23.3473 42.5,24.5C 43.6951,22.703 45.3618,21.703 47.5,21.5C 46.8333,24.1667 46.1667,26.8333 45.5,29.5 Z"/></g>
<g><path opacity="1.0" stroke="none" d="M 36.5,23.5 C 37.2216,23.9175 37.7216,24.5842 38,25.5C 38.3826,24.944 38.8826,24.6107 39.5,24.5C 40.7079,25.2341 42.0413,25.5674 43.5,25.5C 42.8333,26.5 42.1667,27.5 41.5,28.5C 40.8444,27.7222 40.0111,27.0556 39,26.5C 37.9701,26.8361 37.4701,27.5028 37.5,28.5C 36.8333,28.5 36.1667,28.5 35.5,28.5C 36.3007,26.9582 36.634,25.2915 36.5,23.5 Z"/></g>
<g><path opacity="1.0" stroke="none" d="M 34.5,20.5 C 34.427,22.0269 35.0937,23.0269 36.5,23.5C 36.634,25.2915 36.3007,26.9582 35.5,28.5C 35.7373,29.791 35.404,30.791 34.5,31.5C 31.919,30.1756 31.919,28.6756 34.5,27C 34.4301,26.2352 34.0967,25.7352 33.5,25.5C 31.82,23.2736 32.1534,21.6069 34.5,20.5 Z"/></g>
<g><path opacity="1.0" stroke="none" d="M 43.5,25.5 C 44.1667,26.8333 44.8333,28.1667 45.5,29.5C 46.3446,30.6715 47.0113,32.0048 47.5,33.5C 45.6916,33.5086 44.0249,33.0086 42.5,32C 43.1667,31.6667 43.8333,31.3333 44.5,31C 43.0577,30.6232 42.0577,29.7899 41.5,28.5C 42.1667,27.5 42.8333,26.5 43.5,25.5 Z"/></g>
<g><path opacity="1.0" stroke="none" d="M 33.5,25.5 C 34.0967,25.7352 34.4301,26.2352 34.5,27C 31.919,28.6756 31.919,30.1756 34.5,31.5C 34.1583,32.3382 33.4916,32.6716 32.5,32.5C 31.2015,30.9014 29.5348,30.4014 27.5,31C 28.056,31.3826 28.3893,31.8826 28.5,32.5C 26.9519,32.1788 26.2852,31.1788 26.5,29.5C 29.9229,29.876 32.2562,28.5426 33.5,25.5 Z"/></g>
<g><path opacity="1.0" stroke="none" d="M 41.5,28.5 C 42.0577,29.7899 43.0577,30.6232 44.5,31C 43.8333,31.3333 43.1667,31.6667 42.5,32C 44.0249,33.0086 45.6916,33.5086 47.5,33.5C 48.9587,33.4326 50.2921,33.7659 51.5,34.5C 51.5,35.1667 51.5,35.8333 51.5,36.5C 49.8333,36.5 48.1667,36.5 46.5,36.5C 46.5,37.5 46.5,38.5 46.5,39.5C 45.1667,39.5 43.8333,39.5 42.5,39.5C 40.461,38.3282 39.1276,36.6616 38.5,34.5C 39.4731,32.9317 39.6397,31.265 39,29.5C 38.6174,30.056 38.1174,30.3893 37.5,30.5C 37.5,29.8333 37.5,29.1667 37.5,28.5C 37.4701,27.5028 37.9701,26.8361 39,26.5C 40.0111,27.0556 40.8444,27.7222 41.5,28.5 Z"/></g>
<g><path opacity="1.0" stroke="none" d="M 35.5,28.5 C 36.1667,28.5 36.8333,28.5 37.5,28.5C 37.5,29.1667 37.5,29.8333 37.5,30.5C 37.5,31.5 37.5,32.5 37.5,33.5C 36.5,33.5 35.5,33.5 34.5,33.5C 33.5084,33.6716 32.8417,33.3382 32.5,32.5C 33.4916,32.6716 34.1583,32.3382 34.5,31.5C 35.404,30.791 35.7373,29.791 35.5,28.5 Z"/></g>
<g><path opacity="1.0" stroke="none" d="M 38.5,34.5 C 37.596,35.209 37.2627,36.209 37.5,37.5C 36.6588,36.0736 35.6588,34.7403 34.5,33.5C 35.5,33.5 36.5,33.5 37.5,33.5C 37.5,32.5 37.5,31.5 37.5,30.5C 38.1174,30.3893 38.6174,30.056 39,29.5C 39.6397,31.265 39.4731,32.9317 38.5,34.5 Z"/></g>
<g><path opacity="1.0" stroke="none" d="M 32.5,32.5 C 32.8417,33.3382 33.5084,33.6716 34.5,33.5C 35.6588,34.7403 36.6588,36.0736 37.5,37.5C 37.5,38.1667 37.5,38.8333 37.5,39.5C 35.8212,39.2852 34.8212,39.9519 34.5,41.5C 32.3123,40.4643 32.3123,38.9643 34.5,37C 33.552,36.5172 32.552,36.3505 31.5,36.5C 31.7373,35.209 31.404,34.209 30.5,33.5C 29.8333,33.1667 29.1667,32.8333 28.5,32.5C 28.3893,31.8826 28.056,31.3826 27.5,31C 29.5348,30.4014 31.2015,30.9014 32.5,32.5 Z"/></g>
<g><path opacity="1.0" stroke="none" d="M 30.5,33.5 C 31.404,34.209 31.7373,35.209 31.5,36.5C 32.552,36.3505 33.552,36.5172 34.5,37C 32.3123,38.9643 32.3123,40.4643 34.5,41.5C 33.713,43.1042 32.3797,43.7709 30.5,43.5C 31.6267,40.1906 31.6267,36.8573 30.5,33.5 Z"/></g>
<g><path opacity="1.0" stroke="none" d="M 38.5,34.5 C 39.1276,36.6616 40.461,38.3282 42.5,39.5C 42.8432,41.4832 42.1765,42.8166 40.5,43.5C 40.6567,42.1266 40.49,40.7932 40,39.5C 39.2303,40.5981 38.397,40.5981 37.5,39.5C 37.5,38.8333 37.5,38.1667 37.5,37.5C 37.2627,36.209 37.596,35.209 38.5,34.5 Z"/></g>
<g><path opacity="1.0" stroke="none" d="M 37.5,39.5 C 38.397,40.5981 39.2303,40.5981 40,39.5C 40.49,40.7932 40.6567,42.1266 40.5,43.5C 38.5023,43.6618 36.5023,42.9951 34.5,41.5C 34.8212,39.9519 35.8212,39.2852 37.5,39.5 Z"/></g>
<g><path opacity="1.0" stroke="none" d="M 7.5,41.5 C 6.53178,43.6074 6.19845,45.9407 6.5,48.5C 5.39105,48.5569 4.39105,48.8902 3.5,49.5C 4.7454,46.6516 5.7454,43.6516 6.5,40.5C 7.10667,40.6236 7.44001,40.9569 7.5,41.5 Z"/></g>
<g><path opacity="1.0" stroke="none" d="M 51.5,36.5 C 51.5,36.8333 51.5,37.1667 51.5,37.5C 50.1667,37.5 48.8333,37.5 47.5,37.5C 47.5,38.5 47.5,39.5 47.5,40.5C 46.1667,40.5 44.8333,40.5 43.5,40.5C 43.7852,42.288 43.4519,43.9547 42.5,45.5C 41.4777,45.1445 40.811,44.4778 40.5,43.5C 42.1765,42.8166 42.8432,41.4832 42.5,39.5C 43.8333,39.5 45.1667,39.5 46.5,39.5C 46.5,38.5 46.5,37.5 46.5,36.5C 48.1667,36.5 49.8333,36.5 51.5,36.5 Z"/></g>
<g><path opacity="1.0" stroke="none" d="M 7.5,41.5 C 8.71237,42.2299 9.71237,43.2299 10.5,44.5C 12.1284,43.4647 13.795,43.4647 15.5,44.5C 15.5,45.5 15.5,46.5 15.5,47.5C 14.5,47.5 13.5,47.5 12.5,47.5C 12.5654,47.0618 12.3988,46.7284 12,46.5C 11.0053,47.0659 10.172,47.7326 9.5,48.5C 8.07619,46.4855 7.40953,44.1522 7.5,41.5 Z"/></g>
<g><path opacity="1.0" stroke="none" d="M 18.5,49.5 C 18.38,50.5862 17.7133,51.2528 16.5,51.5C 15.2613,51.0576 14.2613,50.3909 13.5,49.5C 12.6618,49.1583 12.3284,48.4916 12.5,47.5C 13.5,47.5 14.5,47.5 15.5,47.5C 15.5,46.5 15.5,45.5 15.5,44.5C 16.4271,42.5241 17.7605,42.1908 19.5,43.5C 18.2151,45.5766 17.8818,47.5766 18.5,49.5 Z"/></g>
<g><path opacity="1.0" stroke="none" d="M 12.5,47.5 C 12.3284,48.4916 12.6618,49.1583 13.5,49.5C 13.1961,50.1499 12.8627,50.8165 12.5,51.5C 13.6016,52.1757 14.6016,52.8423 15.5,53.5C 15.5,53.8333 15.5,54.1667 15.5,54.5C 12.8333,56.5 12.8333,58.5 15.5,60.5C 15.1667,61.5 14.5,62.1667 13.5,62.5C 13.0248,60.2163 12.0248,58.2163 10.5,56.5C 9.82881,55.1529 9.82881,53.9862 10.5,53C 9.26253,52.7679 8.26253,52.2679 7.5,51.5C 10.2476,51.5983 10.9143,50.5983 9.5,48.5C 10.172,47.7326 11.0053,47.0659 12,46.5C 12.3988,46.7284 12.5654,47.0618 12.5,47.5 Z"/></g>
<g><path opacity="1.0" stroke="none" d="M -0.5,49.5 C 0.833333,49.5 2.16667,49.5 3.5,49.5C 4.00686,51.8175 4.3402,54.4842 4.5,57.5C 2.49163,56.6993 1.99163,55.366 3,53.5C 1.88732,52.695 0.72065,52.0283 -0.5,51.5C -0.5,50.8333 -0.5,50.1667 -0.5,49.5 Z"/></g>
<g><path opacity="1.0" stroke="none" d="M 7.5,41.5 C 7.40953,44.1522 8.07619,46.4855 9.5,48.5C 10.9143,50.5983 10.2476,51.5983 7.5,51.5C 7.37379,50.561 7.04046,49.561 6.5,48.5C 6.19845,45.9407 6.53178,43.6074 7.5,41.5 Z"/></g>
<g><path opacity="1.0" stroke="none" d="M 6.5,48.5 C 7.04046,49.561 7.37379,50.561 7.5,51.5C 8.26253,52.2679 9.26253,52.7679 10.5,53C 9.82881,53.9862 9.82881,55.1529 10.5,56.5C 8.4862,56.3915 6.81953,57.0582 5.5,58.5C 5.5,57.8333 5.16667,57.5 4.5,57.5C 4.3402,54.4842 4.00686,51.8175 3.5,49.5C 4.39105,48.8902 5.39105,48.5569 6.5,48.5 Z"/></g>
<g><path opacity="1.0" stroke="none" d="M 13.5,49.5 C 14.2613,50.3909 15.2613,51.0576 16.5,51.5C 17.7133,51.2528 18.38,50.5862 18.5,49.5C 19.3446,50.6715 20.0113,52.0048 20.5,53.5C 18.64,52.9285 16.9733,52.9285 15.5,53.5C 14.6016,52.8423 13.6016,52.1757 12.5,51.5C 12.8627,50.8165 13.1961,50.1499 13.5,49.5 Z"/></g>
<g><path opacity="1.0" stroke="none" d="M 20.5,53.5 C 20.6107,54.1174 20.944,54.6174 21.5,55C 19.6498,55.6897 18.3164,56.8564 17.5,58.5C 16.3157,57.3121 16.3157,56.1455 17.5,55C 16.9056,54.5357 16.2389,54.369 15.5,54.5C 15.5,54.1667 15.5,53.8333 15.5,53.5C 16.9733,52.9285 18.64,52.9285 20.5,53.5 Z"/></g>
<g><path opacity="1.0" stroke="none" d="M 20.5,53.5 C 22.8004,53.5216 23.967,54.5216 24,56.5C 23,57.8333 22,57.8333 21,56.5C 20.0922,58.4386 18.5922,59.4386 16.5,59.5C 16.817,62.5345 15.817,63.5345 13.5,62.5C 14.5,62.1667 15.1667,61.5 15.5,60.5C 15.5,59.1667 16.1667,58.5 17.5,58.5C 18.3164,56.8564 19.6498,55.6897 21.5,55C 20.944,54.6174 20.6107,54.1174 20.5,53.5 Z"/></g>
<g><path opacity="1.0" stroke="none" d="M 10.5,56.5 C 12.0248,58.2163 13.0248,60.2163 13.5,62.5C 12.1264,62.2079 10.7931,61.8746 9.5,61.5C 8.55247,60.0221 7.21914,59.0221 5.5,58.5C 6.81953,57.0582 8.4862,56.3915 10.5,56.5 Z"/></g>
<g><path opacity="1.0" stroke="none" d="M 15.5,54.5 C 16.2389,54.369 16.9056,54.5357 17.5,55C 16.3157,56.1455 16.3157,57.3121 17.5,58.5C 16.1667,58.5 15.5,59.1667 15.5,60.5C 12.8333,58.5 12.8333,56.5 15.5,54.5 Z"/></g>
<g><path opacity="1.0" stroke="none" d="M 4.5,57.5 C 5.16667,57.5 5.5,57.8333 5.5,58.5C 7.21914,59.0221 8.55247,60.0221 9.5,61.5C 7.86398,60.7545 6.19731,61.0878 4.5,62.5C 3.56614,60.9052 3.56614,59.2385 4.5,57.5 Z"/></g>
</svg>
