<?xml version="1.0" encoding="UTF-8"?>
<!DOCTYPE svg PUBLIC "-//W3C//DTD SVG 1.1//EN" "http://www.w3.org/Graphics/SVG/1.1/DTD/svg11.dtd">
<svg xmlns="http://www.w3.org/2000/svg" version="1.1" height="100%" width="100%" viewBox="0 0 27 65" style="shape-rendering:geometricPrecision; text-rendering:geometricPrecision; image-rendering:optimizeQuality; fill-rule:evenodd; clip-rule:evenodd" xmlns:xlink="http://www.w3.org/1999/xlink">
<g><path opacity="1.0" stroke="none" d="M 6.5,-0.5 C 7.16667,-0.5 7.83333,-0.5 8.5,-0.5C 8.5,0.166667 8.5,0.833333 8.5,1.5C 8.42702,3.02694 9.09368,4.02694 10.5,4.5C 11.032,7.4596 11.6987,7.79294 12.5,5.5C 13.1174,5.38929 13.6174,5.05596 14,4.5C 14.2492,5.62402 14.7492,6.62402 15.5,7.5C 17.6114,6.39542 18.9447,4.72876 19.5,2.5C 20.5862,2.61998 21.2528,3.28665 21.5,4.5C 21.1992,6.42158 20.5325,8.08825 19.5,9.5C 18.9569,9.55999 18.6236,9.89333 18.5,10.5C 19.376,11.2508 20.376,11.7508 21.5,12C 20.2264,12.9772 20.2264,13.8106 21.5,14.5C 21.8333,14.5 22.1667,14.5 22.5,14.5C 23.287,16.1042 24.6203,16.7709 26.5,16.5C 26.5,17.1667 26.5,17.8333 26.5,18.5C 26.1667,18.5 25.8333,18.5 25.5,18.5C 23.712,18.2148 22.0453,18.5481 20.5,19.5C 20.6236,20.1067 20.9569,20.44 21.5,20.5C 20.9473,22.5518 19.9473,22.8852 18.5,21.5C 18.44,20.9569 18.1067,20.6236 17.5,20.5C 16.9986,22.6551 15.9986,24.3218 14.5,25.5C 13.2921,24.7659 11.9587,24.4326 10.5,24.5C 10.719,23.325 10.3857,22.325 9.5,21.5C 8.70245,21.9569 8.36912,22.6236 8.5,23.5C 6.62901,23.8588 5.12901,24.8588 4,26.5C 3.53566,25.9056 3.36899,25.2389 3.5,24.5C 3.26269,23.209 3.59603,22.209 4.5,21.5C 5.88516,20.0527 5.55182,19.0527 3.5,18.5C 3.5,17.8333 3.5,17.1667 3.5,16.5C 5.79294,15.6987 5.4596,15.032 2.5,14.5C 2.02694,13.0937 1.02694,12.427 -0.5,12.5C -0.5,12.1667 -0.5,11.8333 -0.5,11.5C 1.60395,11.7989 3.60395,11.4656 5.5,10.5C 4.37073,8.47062 4.87073,8.13729 7,9.5C 7.38761,6.15081 7.22094,2.81747 6.5,-0.5 Z"/></g>
<g><path opacity="1.0" stroke="none" d="M 8.5,1.5 C 9.90632,1.97306 10.573,2.97306 10.5,4.5C 9.09368,4.02694 8.42702,3.02694 8.5,1.5 Z"/></g>
<g><path opacity="1.0" stroke="none" d="M 10.5,4.5 C 11.1667,4.83333 11.8333,5.16667 12.5,5.5C 11.6987,7.79294 11.032,7.4596 10.5,4.5 Z"/></g>
<g><path opacity="1.0" stroke="none" d="M 5.5,-0.5 C 5.83333,-0.5 6.16667,-0.5 6.5,-0.5C 7.22094,2.81747 7.38761,6.15081 7,9.5C 4.87073,8.13729 4.37073,8.47062 5.5,10.5C 3.60395,11.4656 1.60395,11.7989 -0.5,11.5C -0.5,11.1667 -0.5,10.8333 -0.5,10.5C 0.833333,10.5 2.16667,10.5 3.5,10.5C 3.5,9.5 3.5,8.5 3.5,7.5C 4.5,7.5 5.5,7.5 6.5,7.5C 5.90843,4.87283 5.5751,2.20616 5.5,-0.5 Z"/></g>
<g><path opacity="1.0" stroke="none" d="M 19.5,2.5 C 18.9447,4.72876 17.6114,6.39542 15.5,7.5C 14.7492,6.62402 14.2492,5.62402 14,4.5C 13.6174,5.05596 13.1174,5.38929 12.5,5.5C 13.4577,2.8753 14.6243,2.8753 16,5.5C 17.0391,4.2899 18.2058,3.2899 19.5,2.5 Z"/></g>
<g><path opacity="1.0" stroke="none" d="M 19.5,9.5 C 20.209,10.404 21.209,10.7373 22.5,10.5C 22.5674,11.9587 22.2341,13.2921 21.5,14.5C 20.2264,13.8106 20.2264,12.9772 21.5,12C 20.376,11.7508 19.376,11.2508 18.5,10.5C 18.6236,9.89333 18.9569,9.55999 19.5,9.5 Z"/></g>
<g><path opacity="1.0" stroke="none" d="M -0.5,13.5 C -0.5,13.1667 -0.5,12.8333 -0.5,12.5C 1.02694,12.427 2.02694,13.0937 2.5,14.5C 1.39105,14.4431 0.391047,14.1098 -0.5,13.5 Z"/></g>
<g><path opacity="1.0" stroke="none" d="M 2.5,14.5 C 5.4596,15.032 5.79294,15.6987 3.5,16.5C 3.16667,15.8333 2.83333,15.1667 2.5,14.5 Z"/></g>
<g><path opacity="1.0" stroke="none" d="M 22.5,14.5 C 23.8333,14.8333 25.1667,15.1667 26.5,15.5C 26.5,15.8333 26.5,16.1667 26.5,16.5C 24.6203,16.7709 23.287,16.1042 22.5,14.5 Z"/></g>
<g><path opacity="1.0" stroke="none" d="M 3.5,18.5 C 5.55182,19.0527 5.88516,20.0527 4.5,21.5C 4.44312,20.391 4.10978,19.391 3.5,18.5 Z"/></g>
<g><path opacity="1.0" stroke="none" d="M 25.5,18.5 C 24.1667,19.1667 22.8333,19.8333 21.5,20.5C 20.9569,20.44 20.6236,20.1067 20.5,19.5C 22.0453,18.5481 23.712,18.2148 25.5,18.5 Z"/></g>
<g><path opacity="1.0" stroke="none" d="M 18.5,21.5 C 17.5489,22.9187 17.2155,24.5853 17.5,26.5C 16.209,26.7373 15.209,26.404 14.5,25.5C 15.9986,24.3218 16.9986,22.6551 17.5,20.5C 18.1067,20.6236 18.44,20.9569 18.5,21.5 Z"/></g>
<g><path opacity="1.0" stroke="none" d="M 10.5,24.5 C 9.83333,24.1667 9.16667,23.8333 8.5,23.5C 8.36912,22.6236 8.70245,21.9569 9.5,21.5C 10.3857,22.325 10.719,23.325 10.5,24.5 Z"/></g>
<g><path opacity="1.0" stroke="none" d="M 8.5,23.5 C 7.29211,26.0442 5.29211,27.3775 2.5,27.5C 2.26269,26.209 2.59603,25.209 3.5,24.5C 3.36899,25.2389 3.53566,25.9056 4,26.5C 5.12901,24.8588 6.62901,23.8588 8.5,23.5 Z"/></g>
<g><path opacity="1.0" stroke="none" d="M 7.5,36.5 C 7.42702,38.0269 8.09368,39.0269 9.5,39.5C 10.3149,40.4293 11.1482,41.4293 12,42.5C 12.4169,41.244 13.2502,40.5774 14.5,40.5C 14.281,41.675 14.6143,42.675 15.5,43.5C 16.1067,43.3764 16.44,43.0431 16.5,42.5C 16.8333,41.5 17.5,40.8333 18.5,40.5C 19.4584,40.0472 20.2917,39.3805 21,38.5C 21.4643,39.0944 21.631,39.7611 21.5,40.5C 20.1359,42.22 19.1359,44.22 18.5,46.5C 18.6236,47.1067 18.9569,47.44 19.5,47.5C 20.8333,47.5 21.5,48.1667 21.5,49.5C 20.2426,50.6226 20.5759,51.2893 22.5,51.5C 23.8333,51.8333 25.1667,52.1667 26.5,52.5C 26.5,53.1667 26.5,53.8333 26.5,54.5C 24.5,54.5 22.5,54.5 20.5,54.5C 20.2627,55.791 20.596,56.791 21.5,57.5C 21.1583,58.3382 20.4916,58.6716 19.5,58.5C 18.791,57.596 17.791,57.2627 16.5,57.5C 16.9227,59.7812 16.256,61.4479 14.5,62.5C 13.968,59.5404 13.3013,59.2071 12.5,61.5C 11.5084,61.6716 10.8417,61.3382 10.5,60.5C 9.73993,58.0155 8.73993,58.0155 7.5,60.5C 7.16667,61.5 6.5,62.1667 5.5,62.5C 4.16667,62.5 3.5,61.8333 3.5,60.5C 3.75115,58.8297 4.41782,57.3297 5.5,56C 4.03499,54.2258 2.70166,52.3925 1.5,50.5C 1.38929,49.8826 1.05596,49.3826 0.5,49C 2.13414,48.5065 3.80081,48.3398 5.5,48.5C 5.95496,46.6334 6.62162,44.8001 7.5,43C 7.47196,41.9302 7.13863,41.0968 6.5,40.5C 5.87605,40.0831 5.54272,39.4164 5.5,38.5C 5.74716,37.2867 6.41383,36.62 7.5,36.5 Z"/></g>
<g><path opacity="1.0" stroke="none" d="M 21.5,40.5 C 21.631,39.7611 21.4643,39.0944 21,38.5C 20.2917,39.3805 19.4584,40.0472 18.5,40.5C 18.6941,38.0882 20.0274,37.0882 22.5,37.5C 22.7373,38.791 22.404,39.791 21.5,40.5 Z"/></g>
<g><path opacity="1.0" stroke="none" d="M 7.5,36.5 C 8.90632,36.9731 9.57298,37.9731 9.5,39.5C 8.09368,39.0269 7.42702,38.0269 7.5,36.5 Z"/></g>
<g><path opacity="1.0" stroke="none" d="M 14.5,40.5 C 15.1667,41.1667 15.8333,41.8333 16.5,42.5C 16.44,43.0431 16.1067,43.3764 15.5,43.5C 14.6143,42.675 14.281,41.675 14.5,40.5 Z"/></g>
<g><path opacity="1.0" stroke="none" d="M 21.5,40.5 C 21.233,42.9653 20.5664,45.2986 19.5,47.5C 18.9569,47.44 18.6236,47.1067 18.5,46.5C 19.1359,44.22 20.1359,42.22 21.5,40.5 Z"/></g>
<g><path opacity="1.0" stroke="none" d="M 6.5,40.5 C 7.13863,41.0968 7.47196,41.9302 7.5,43C 6.62162,44.8001 5.95496,46.6334 5.5,48.5C 3.80081,48.3398 2.13414,48.5065 0.5,49C 1.05596,49.3826 1.38929,49.8826 1.5,50.5C 0.833333,50.5 0.166667,50.5 -0.5,50.5C -0.5,49.5 -0.5,48.5 -0.5,47.5C 1.16667,47.5 2.83333,47.5 4.5,47.5C 5.44896,45.2627 6.11562,42.9294 6.5,40.5 Z"/></g>
<g><path opacity="1.0" stroke="none" d="M 21.5,49.5 C 21.8333,50.1667 22.1667,50.8333 22.5,51.5C 20.5759,51.2893 20.2426,50.6226 21.5,49.5 Z"/></g>
<g><path opacity="1.0" stroke="none" d="M 26.5,54.5 C 26.5,54.8333 26.5,55.1667 26.5,55.5C 24.2188,55.0773 22.5521,55.744 21.5,57.5C 20.596,56.791 20.2627,55.791 20.5,54.5C 22.5,54.5 24.5,54.5 26.5,54.5 Z"/></g>
<g><path opacity="1.0" stroke="none" d="M 19.5,58.5 C 17.744,59.5521 17.0773,61.2188 17.5,63.5C 16.209,63.7373 15.209,63.404 14.5,62.5C 16.256,61.4479 16.9227,59.7812 16.5,57.5C 17.791,57.2627 18.791,57.596 19.5,58.5 Z"/></g>
<g><path opacity="1.0" stroke="none" d="M 10.5,60.5 C 9.5,60.5 8.5,60.5 7.5,60.5C 8.73993,58.0155 9.73993,58.0155 10.5,60.5 Z"/></g>
<g><path opacity="1.0" stroke="none" d="M 14.5,62.5 C 13.8333,62.1667 13.1667,61.8333 12.5,61.5C 13.3013,59.2071 13.968,59.5404 14.5,62.5 Z"/></g>
<g><path opacity="1.0" stroke="none" d="M 3.5,60.5 C 3.5,61.8333 4.16667,62.5 5.5,62.5C 4.79105,63.404 3.79105,63.7373 2.5,63.5C 2.26269,62.209 2.59603,61.209 3.5,60.5 Z"/></g>
</svg>
