<?xml version="1.0" encoding="UTF-8"?>
<!DOCTYPE svg PUBLIC "-//W3C//DTD SVG 1.1//EN" "http://www.w3.org/Graphics/SVG/1.1/DTD/svg11.dtd">
<svg xmlns="http://www.w3.org/2000/svg" version="1.1" width="100%" viewBox="0 0 77 77" style="shape-rendering:geometricPrecision; text-rendering:geometricPrecision; image-rendering:optimizeQuality; fill-rule:evenodd; clip-rule:evenodd" xmlns:xlink="http://www.w3.org/1999/xlink">
<g><path style="opacity:0.715" fill="#f1f0ef" d="M 2.5,-0.5 C 3.16667,-0.5 3.83333,-0.5 4.5,-0.5C 21.7303,4.03272 36.897,12.366 50,24.5C 50.7429,26.4406 50.5762,28.2739 49.5,30C 51.1667,31.6667 52.8333,33.3333 54.5,35C 58.6909,33.7225 63.0242,33.0559 67.5,33C 70.7322,36.0623 73.7322,39.229 76.5,42.5C 76.5,42.8333 76.5,43.1667 76.5,43.5C 75.7656,44.8775 75.0989,46.3775 74.5,48C 75.5762,49.7261 75.7429,51.5594 75,53.5C 71.3258,60.1851 66.4924,66.0185 60.5,71C 56.9586,71.6648 54.292,73.4981 52.5,76.5C 51.5,76.5 50.5,76.5 49.5,76.5C 48.1667,75.1667 46.8333,75.1667 45.5,76.5C 44.1667,76.5 42.8333,76.5 41.5,76.5C 37.3015,73.4649 33.9682,69.6316 31.5,65C 32.8418,61.9848 34.1752,58.9848 35.5,56C 33.8333,54.3333 32.1667,52.6667 30.5,51C 28.1261,51.4024 25.7928,51.2357 23.5,50.5C 12.1057,38.0432 4.10571,23.7099 -0.5,7.5C -0.5,5.5 -0.5,3.5 -0.5,1.5C 0.709515,1.06795 1.70951,0.40128 2.5,-0.5 Z"/></g>
<g><path style="opacity:1" fill="#372014" d="M 24.5,10.5 C 18.0593,9.31302 11.8926,7.31302 6,4.5C 5.2352,4.56993 4.7352,4.90326 4.5,5.5C 4.17948,9.71515 5.51282,13.2151 8.5,16C 7.66337,17.0113 7.33003,18.1779 7.5,19.5C 4.45558,14.3384 2.78891,8.67175 2.5,2.5C 10.4042,3.79945 17.7376,6.46611 24.5,10.5 Z"/></g>
<g><path style="opacity:1" fill="#31241c" d="M 24.5,10.5 C 30.3377,12.246 35.3377,15.246 39.5,19.5C 35.5168,17.5084 31.5168,15.5084 27.5,13.5C 26.2299,12.7124 25.2299,11.7124 24.5,10.5 Z"/></g>
<g><path style="opacity:1" fill="#d28333" d="M 16.5,12.5 C 20.7035,13.935 24.7035,15.935 28.5,18.5C 30.1563,16.9776 31.323,17.311 32,19.5C 32.3333,18.8333 32.6667,18.1667 33,17.5C 33.9025,18.7014 35.0692,19.5348 36.5,20C 35.9341,20.9947 35.2674,21.828 34.5,22.5C 32.5107,21.5186 30.5107,20.5186 28.5,19.5C 26.0847,19.7189 25.0847,21.0523 25.5,23.5C 28.5497,22.9232 30.5497,24.0899 31.5,27C 29.5911,27.4479 28.4244,26.6145 28,24.5C 27.2825,25.4506 26.4491,25.6172 25.5,25C 24.3236,21.9212 22.3236,20.7546 19.5,21.5C 20.9473,23.4032 22.614,25.0699 24.5,26.5C 23.4425,26.9059 22.1092,26.9059 20.5,26.5C 18.249,21.0546 14.9157,16.2212 10.5,12C 10.6667,11.5 10.8333,11 11,10.5C 12.3333,11.1667 13.3333,12.1667 14,13.5C 14.6708,12.7476 15.5041,12.4142 16.5,12.5 Z"/></g>
<g><path style="opacity:1" fill="#eab47e" d="M 4.5,5.5 C 4.7352,4.90326 5.2352,4.56993 6,4.5C 11.8926,7.31302 18.0593,9.31302 24.5,10.5C 25.2299,11.7124 26.2299,12.7124 27.5,13.5C 31.5168,15.5084 35.5168,17.5084 39.5,19.5C 41.1226,21.951 43.2893,23.951 46,25.5C 46.1805,27.4884 46.0138,29.4884 45.5,31.5C 44.2616,29.7857 43.595,27.7857 43.5,25.5C 41.3392,25.4906 40.0059,24.8239 39.5,23.5C 38.2867,23.7472 37.62,24.4138 37.5,25.5C 36.1667,24.8333 35.1667,23.8333 34.5,22.5C 35.2674,21.828 35.9341,20.9947 36.5,20C 35.0692,19.5348 33.9025,18.7014 33,17.5C 32.6667,18.1667 32.3333,18.8333 32,19.5C 31.323,17.311 30.1563,16.9776 28.5,18.5C 24.7035,15.935 20.7035,13.935 16.5,12.5C 14.1318,11.217 11.9651,9.55035 10,7.5C 9.58605,7.95735 9.08605,8.29069 8.5,8.5C 7.14819,7.47565 5.81486,6.47565 4.5,5.5 Z"/></g>
<g><path style="opacity:1" fill="#331c12" d="M 7.5,19.5 C 8.16667,19.8333 8.83333,20.1667 9.5,20.5C 12.0777,25.8222 14.7444,31.1555 17.5,36.5C 17.8333,37.5 18.5,38.1667 19.5,38.5C 21.2396,41.4245 23.2396,44.2578 25.5,47C 27.2816,47.1218 28.9482,46.6218 30.5,45.5C 32.9635,47.4611 35.2968,49.6278 37.5,52C 38.9506,51.7374 40.2839,51.9041 41.5,52.5C 38.9306,56.9668 36.9306,61.6335 35.5,66.5C 34.8761,66.0831 34.5427,65.4164 34.5,64.5C 36.0149,61.1688 37.1816,57.8355 38,54.5C 35.8333,52.3333 33.6667,50.1667 31.5,48C 27.7489,49.4371 24.5822,48.6038 22,45.5C 15.6299,37.645 10.7966,28.9783 7.5,19.5 Z"/></g>
<g><path style="opacity:1" fill="#da7d23" d="M 17.5,36.5 C 14.7444,31.1555 12.0777,25.8222 9.5,20.5C 9.33788,18.4727 9.50454,16.4727 10,14.5C 13.1002,21.1525 16.9335,27.3192 21.5,33C 20.8971,35.0714 19.5638,36.2381 17.5,36.5 Z"/></g>
<g><path style="opacity:1" fill="#ae6212" d="M 4.5,5.5 C 5.81486,6.47565 7.14819,7.47565 8.5,8.5C 9.08605,8.29069 9.58605,7.95735 10,7.5C 11.9651,9.55035 14.1318,11.217 16.5,12.5C 15.5041,12.4142 14.6708,12.7476 14,13.5C 13.3333,12.1667 12.3333,11.1667 11,10.5C 10.8333,11 10.6667,11.5 10.5,12C 14.9157,16.2212 18.249,21.0546 20.5,26.5C 22.1092,26.9059 23.4425,26.9059 24.5,26.5C 22.614,25.0699 20.9473,23.4032 19.5,21.5C 22.3236,20.7546 24.3236,21.9212 25.5,25C 26.4491,25.6172 27.2825,25.4506 28,24.5C 28.4244,26.6145 29.5911,27.4479 31.5,27C 30.5497,24.0899 28.5497,22.9232 25.5,23.5C 25.0847,21.0523 26.0847,19.7189 28.5,19.5C 30.5107,20.5186 32.5107,21.5186 34.5,22.5C 35.1667,23.8333 36.1667,24.8333 37.5,25.5C 39.1271,27.6298 40.9604,29.6298 43,31.5C 45.3531,35.634 44.5197,36.4673 40.5,34C 41.4506,33.2825 41.6172,32.4491 41,31.5C 39.3333,30.5 38,29.1667 37,27.5C 34.8707,28.8627 34.3707,28.5294 35.5,26.5C 34.8551,25.354 34.0217,24.354 33,23.5C 34.0133,27.2877 32.5133,29.7877 28.5,31C 29.5,32 30.5,33 31.5,34C 28.8514,33.8645 27.1848,32.3645 26.5,29.5C 26.1667,29.6667 25.8333,29.8333 25.5,30C 25.8333,31 26.1667,32 26.5,33C 25.6919,33.3076 25.0253,33.8076 24.5,34.5C 25.6046,36.6114 27.2712,37.9447 29.5,38.5C 29.1667,39.1667 28.8333,39.8333 28.5,40.5C 26.1878,38.8545 24.1878,36.8545 22.5,34.5C 21.4756,35.8518 20.4756,37.1851 19.5,38.5C 18.5,38.1667 17.8333,37.5 17.5,36.5C 19.5638,36.2381 20.8971,35.0714 21.5,33C 16.9335,27.3192 13.1002,21.1525 10,14.5C 9.50454,16.4727 9.33788,18.4727 9.5,20.5C 8.83333,20.1667 8.16667,19.8333 7.5,19.5C 7.33003,18.1779 7.66337,17.0113 8.5,16C 5.51282,13.2151 4.17948,9.71515 4.5,5.5 Z"/></g>
<g><path style="opacity:1" fill="#d28030" d="M 37.5,25.5 C 37.62,24.4138 38.2867,23.7472 39.5,23.5C 40.0059,24.8239 41.3392,25.4906 43.5,25.5C 43.595,27.7857 44.2616,29.7857 45.5,31.5C 49.0446,33.9249 51.0446,37.2583 51.5,41.5C 52.6085,42.29 53.9419,42.79 55.5,43C 55.1667,43.3333 54.8333,43.6667 54.5,44C 56.6089,45.1411 58.4422,46.6411 60,48.5C 61.6667,45.8333 63.3333,45.8333 65,48.5C 65.8928,47.2888 66.7261,47.2888 67.5,48.5C 65.7256,49.1867 64.0589,50.0201 62.5,51C 63.4491,51.6172 64.2825,51.4506 65,50.5C 66.129,52.1412 67.629,53.1412 69.5,53.5C 68.1995,54.8816 67.3661,56.5483 67,58.5C 65.9887,59.3366 64.8221,59.67 63.5,59.5C 63.5,60.8333 63.5,62.1667 63.5,63.5C 62.5,63.5 61.5,63.5 60.5,63.5C 60.5858,62.5041 60.2524,61.6708 59.5,61C 58.062,60.7811 56.7287,60.2811 55.5,59.5C 56.3629,58.2736 56.3629,56.9403 55.5,55.5C 60.719,56.0934 61.3856,55.0934 57.5,52.5C 56.914,52.7093 56.414,53.0426 56,53.5C 55.1376,51.913 54.4709,50.2464 54,48.5C 53.586,48.9574 53.086,49.2907 52.5,49.5C 49.8819,45.717 46.2152,43.8837 41.5,44C 43.9288,43.5488 44.0955,42.7155 42,41.5C 41.3333,42.1667 40.6667,42.8333 40,43.5C 40.0773,42.2624 39.9106,41.2624 39.5,40.5C 38.5745,41.6405 37.7412,41.6405 37,40.5C 36.3828,41.4491 36.5494,42.2825 37.5,43C 36.9747,43.6924 36.3081,44.1924 35.5,44.5C 35.0424,41.3082 33.3757,39.1415 30.5,38C 30.8333,37.6667 31.1667,37.3333 31.5,37C 30.184,36.4719 29.5173,36.9719 29.5,38.5C 27.2712,37.9447 25.6046,36.6114 24.5,34.5C 25.0253,33.8076 25.6919,33.3076 26.5,33C 26.1667,32 25.8333,31 25.5,30C 25.8333,29.8333 26.1667,29.6667 26.5,29.5C 27.1848,32.3645 28.8514,33.8645 31.5,34C 30.5,33 29.5,32 28.5,31C 32.5133,29.7877 34.0133,27.2877 33,23.5C 34.0217,24.354 34.8551,25.354 35.5,26.5C 34.3707,28.5294 34.8707,28.8627 37,27.5C 38,29.1667 39.3333,30.5 41,31.5C 41.6172,32.4491 41.4506,33.2825 40.5,34C 44.5197,36.4673 45.3531,35.634 43,31.5C 40.9604,29.6298 39.1271,27.6298 37.5,25.5 Z"/></g>
<g><path style="opacity:1" fill="#39281e" d="M 39.5,19.5 C 42.5672,21.1215 45.4005,23.1215 48,25.5C 47.6948,27.4432 47.6948,29.4432 48,31.5C 50.3551,33.8551 52.6884,36.1884 55,38.5C 58.2074,37.2642 61.3741,35.9308 64.5,34.5C 67.8333,37.1667 70.8333,40.1667 73.5,43.5C 72.2117,46.0335 72.2117,48.5335 73.5,51C 70.8483,55.2844 68.0149,59.4511 65,63.5C 61.0956,67.0788 56.9289,70.2455 52.5,73C 50.2028,73.0178 47.8695,72.8511 45.5,72.5C 47.631,71.6862 49.9644,71.1862 52.5,71C 53.9774,68.8515 55.9774,67.5182 58.5,67C 59.0848,65.6976 59.7515,64.531 60.5,63.5C 61.5,63.5 62.5,63.5 63.5,63.5C 63.5,62.1667 63.5,60.8333 63.5,59.5C 64.8221,59.67 65.9887,59.3366 67,58.5C 67.3661,56.5483 68.1995,54.8816 69.5,53.5C 70.4778,53.189 71.1445,52.5223 71.5,51.5C 70.6518,49.5914 70.3184,47.5914 70.5,45.5C 71.5735,44.7494 71.7401,43.7494 71,42.5C 69.1667,40.6667 67.3333,38.8333 65.5,37C 62.6131,36.9335 59.9465,37.7668 57.5,39.5C 55.5,40.1667 53.5,40.8333 51.5,41.5C 51.0446,37.2583 49.0446,33.9249 45.5,31.5C 46.0138,29.4884 46.1805,27.4884 46,25.5C 43.2893,23.951 41.1226,21.951 39.5,19.5 Z"/></g>
<g><path style="opacity:1" fill="#d77e26" d="M 28.5,40.5 C 29.9418,41.8195 30.6085,43.4862 30.5,45.5C 28.9482,46.6218 27.2816,47.1218 25.5,47C 23.2396,44.2578 21.2396,41.4245 19.5,38.5C 20.4756,37.1851 21.4756,35.8518 22.5,34.5C 24.1878,36.8545 26.1878,38.8545 28.5,40.5 Z"/></g>
<g><path style="opacity:1" fill="#95530c" d="M 55.5,55.5 C 53.2417,55.7751 52.9084,56.7751 54.5,58.5C 53.1521,60.4613 51.8187,60.6279 50.5,59C 52.9574,57.8456 52.9574,56.5123 50.5,55C 52.9659,54.0703 52.7993,53.237 50,52.5C 48.699,54.1554 47.199,55.4887 45.5,56.5C 44.9035,55.0646 44.9035,53.398 45.5,51.5C 44.448,51.3505 43.448,51.5172 42.5,52C 43.5171,53.0495 43.6838,54.2161 43,55.5C 40.6426,58.8814 38.8093,62.548 37.5,66.5C 36.8333,66.5 36.1667,66.5 35.5,66.5C 36.9306,61.6335 38.9306,56.9668 41.5,52.5C 40.2839,51.9041 38.9506,51.7374 37.5,52C 35.2968,49.6278 32.9635,47.4611 30.5,45.5C 30.6085,43.4862 29.9418,41.8195 28.5,40.5C 28.8333,39.8333 29.1667,39.1667 29.5,38.5C 29.5173,36.9719 30.184,36.4719 31.5,37C 31.1667,37.3333 30.8333,37.6667 30.5,38C 33.3757,39.1415 35.0424,41.3082 35.5,44.5C 36.3081,44.1924 36.9747,43.6924 37.5,43C 36.5494,42.2825 36.3828,41.4491 37,40.5C 37.7412,41.6405 38.5745,41.6405 39.5,40.5C 39.9106,41.2624 40.0773,42.2624 40,43.5C 40.6667,42.8333 41.3333,42.1667 42,41.5C 44.0955,42.7155 43.9288,43.5488 41.5,44C 46.2152,43.8837 49.8819,45.717 52.5,49.5C 53.086,49.2907 53.586,48.9574 54,48.5C 54.4709,50.2464 55.1376,51.913 56,53.5C 56.414,53.0426 56.914,52.7093 57.5,52.5C 61.3856,55.0934 60.719,56.0934 55.5,55.5 Z"/></g>
<g><path style="opacity:1" fill="#f6b375" d="M 70.5,45.5 C 68.2011,44.9095 65.5344,44.0762 62.5,43C 61.1134,41.317 59.4467,40.1504 57.5,39.5C 59.9465,37.7668 62.6131,36.9335 65.5,37C 67.3333,38.8333 69.1667,40.6667 71,42.5C 71.7401,43.7494 71.5735,44.7494 70.5,45.5 Z"/></g>
<g><path style="opacity:1" fill="#d68129" d="M 37.5,44.5 C 40.6537,45.4739 41.6537,47.4739 40.5,50.5C 39.3523,48.8513 38.019,47.3513 36.5,46C 37.056,45.6174 37.3893,45.1174 37.5,44.5 Z"/></g>
<g><path style="opacity:1" fill="#ec9e52" d="M 57.5,39.5 C 59.4467,40.1504 61.1134,41.317 62.5,43C 65.5344,44.0762 68.2011,44.9095 70.5,45.5C 70.3184,47.5914 70.6518,49.5914 71.5,51.5C 71.1445,52.5223 70.4778,53.189 69.5,53.5C 67.629,53.1412 66.129,52.1412 65,50.5C 64.2825,51.4506 63.4491,51.6172 62.5,51C 64.0589,50.0201 65.7256,49.1867 67.5,48.5C 66.7261,47.2888 65.8928,47.2888 65,48.5C 63.3333,45.8333 61.6667,45.8333 60,48.5C 58.4422,46.6411 56.6089,45.1411 54.5,44C 54.8333,43.6667 55.1667,43.3333 55.5,43C 53.9419,42.79 52.6085,42.29 51.5,41.5C 53.5,40.8333 55.5,40.1667 57.5,39.5 Z"/></g>
<g><path style="opacity:1" fill="#ab6112" d="M 55.5,55.5 C 56.3629,56.9403 56.3629,58.2736 55.5,59.5C 56.7287,60.2811 58.062,60.7811 59.5,61C 60.2524,61.6708 60.5858,62.5041 60.5,63.5C 59.7515,64.531 59.0848,65.6976 58.5,67C 55.9774,67.5182 53.9774,68.8515 52.5,71C 49.9644,71.1862 47.631,71.6862 45.5,72.5C 43.0672,72.7271 41.4006,71.7271 40.5,69.5C 48.2781,71.4038 49.9448,69.2372 45.5,63C 48.0613,60.8441 48.0613,58.6774 45.5,56.5C 47.199,55.4887 48.699,54.1554 50,52.5C 52.7993,53.237 52.9659,54.0703 50.5,55C 52.9574,56.5123 52.9574,57.8456 50.5,59C 51.8187,60.6279 53.1521,60.4613 54.5,58.5C 52.9084,56.7751 53.2417,55.7751 55.5,55.5 Z"/></g>
<g><path style="opacity:1" fill="#2f1201" d="M 35.5,66.5 C 36.1667,66.5 36.8333,66.5 37.5,66.5C 38.1667,67.8333 39.1667,68.8333 40.5,69.5C 41.4006,71.7271 43.0672,72.7271 45.5,72.5C 44.3991,73.5983 43.0657,73.765 41.5,73C 39.2941,70.9633 37.2941,68.7966 35.5,66.5 Z"/></g>
<g><path style="opacity:1" fill="#e37b13" d="M 45.5,56.5 C 48.0613,58.6774 48.0613,60.8441 45.5,63C 49.9448,69.2372 48.2781,71.4038 40.5,69.5C 39.1667,68.8333 38.1667,67.8333 37.5,66.5C 38.8093,62.548 40.6426,58.8814 43,55.5C 43.6838,54.2161 43.5171,53.0495 42.5,52C 43.448,51.5172 44.448,51.3505 45.5,51.5C 44.9035,53.398 44.9035,55.0646 45.5,56.5 Z"/></g>
</svg>
