<?xml version="1.0" encoding="UTF-8"?>
<!DOCTYPE svg PUBLIC "-//W3C//DTD SVG 1.1//EN" "http://www.w3.org/Graphics/SVG/1.1/DTD/svg11.dtd">
<svg xmlns="http://www.w3.org/2000/svg" version="1.1" height="100%" width="100%" viewBox="0 0 32 80" style="shape-rendering:geometricPrecision; text-rendering:geometricPrecision; image-rendering:optimizeQuality; fill-rule:evenodd; clip-rule:evenodd" xmlns:xlink="http://www.w3.org/1999/xlink">
<g><path opacity="1.0" stroke="none" d="M 19.5,-0.5 C 21.5,-0.5 23.5,-0.5 25.5,-0.5C 26.209,0.403972 27.209,0.737305 28.5,0.5C 28.7678,2.09903 28.4345,3.43236 27.5,4.5C 27.1667,4.5 26.8333,4.5 26.5,4.5C 26.5858,3.5041 26.2524,2.67076 25.5,2C 20.8452,1.50085 16.1785,1.33418 11.5,1.5C 14.1667,0.833333 16.8333,0.166667 19.5,-0.5 Z"/></g>
<g><path opacity="1.0" stroke="none" d="M 10.5,1.5 C 10.8333,1.5 11.1667,1.5 11.5,1.5C 16.1785,1.33418 20.8452,1.50085 25.5,2C 26.2524,2.67076 26.5858,3.5041 26.5,4.5C 20.9738,4.17859 15.6405,4.51192 10.5,5.5C 10.1667,5.5 9.83333,5.5 9.5,5.5C 0.25272,4.35976 0.25272,3.52643 9.5,3C 10.056,2.61742 10.3893,2.11742 10.5,1.5 Z"/></g>
<g><path opacity="1.0" stroke="none" d="M 10.5,1.5 C 10.3893,2.11742 10.056,2.61742 9.5,3C 0.25272,3.52643 0.25272,4.35976 9.5,5.5C 7.47269,7.08813 5.13935,7.58813 2.5,7C 0.893387,5.95101 0.22672,4.45101 0.5,2.5C 3.90227,2.65757 7.23561,2.32423 10.5,1.5 Z"/></g>
<g><path opacity="1.0" stroke="none" d="M 10.5,5.5 C 15.6405,4.51192 20.9738,4.17859 26.5,4.5C 26.8333,4.5 27.1667,4.5 27.5,4.5C 25.3926,5.46822 23.0593,5.80155 20.5,5.5C 18.5853,5.21552 16.9187,5.54885 15.5,6.5C 15.1667,6.5 14.8333,6.5 14.5,6.5C 13.4324,5.56552 12.099,5.23219 10.5,5.5 Z"/></g>
<g><path opacity="1.0" stroke="none" d="M 14.5,6.5 C 14.8333,6.5 15.1667,6.5 15.5,6.5C 16.9778,6.23798 18.3112,6.57131 19.5,7.5C 17.9547,8.45189 16.288,8.78522 14.5,8.5C 14.5,7.83333 14.5,7.16667 14.5,6.5 Z"/></g>
<g><path opacity="1.0" stroke="none" d="M 15.5,6.5 C 16.9187,5.54885 18.5853,5.21552 20.5,5.5C 20.7678,7.09903 20.4345,8.43236 19.5,9.5C 17.5853,9.78448 15.9187,9.45115 14.5,8.5C 16.288,8.78522 17.9547,8.45189 19.5,7.5C 18.3112,6.57131 16.9778,6.23798 15.5,6.5 Z"/></g>
<g><path opacity="1.0" stroke="none" d="M 14.5,6.5 C 14.5,7.16667 14.5,7.83333 14.5,8.5C 15.9187,9.45115 17.5853,9.78448 19.5,9.5C 19.5,9.83333 19.5,10.1667 19.5,10.5C 16.9407,10.8016 14.6074,10.4682 12.5,9.5C 13.1667,8.5 13.8333,7.5 14.5,6.5 Z"/></g>
<g><path opacity="1.0" stroke="none" d="M 23.5,12.5 C 23.6107,13.1174 23.944,13.6174 24.5,14C 19.0166,16.546 13.5166,18.046 8,18.5C 7.29602,16.273 6.12936,15.9397 4.5,17.5C 3.76109,17.631 3.09442,17.4643 2.5,17C 5.46367,16.1597 5.797,15.1597 3.5,14C 4.32791,13.0853 5.32791,12.4186 6.5,12C 12.2493,11.2153 17.916,11.3819 23.5,12.5 Z"/></g>
<g><path opacity="1.0" stroke="none" d="M 12.5,9.5 C 14.6074,10.4682 16.9407,10.8016 19.5,10.5C 22.4282,10.5651 25.0948,11.2318 27.5,12.5C 26.1667,12.5 24.8333,12.5 23.5,12.5C 17.916,11.3819 12.2493,11.2153 6.5,12C 5.32791,12.4186 4.32791,13.0853 3.5,14C 5.797,15.1597 5.46367,16.1597 2.5,17C 3.09442,17.4643 3.76109,17.631 4.5,17.5C 5.59026,18.8571 6.92359,19.8571 8.5,20.5C 5.07618,20.0654 2.07618,18.732 -0.5,16.5C -0.5,15.5 -0.5,14.5 -0.5,13.5C 3.56932,11.2981 7.90265,9.96478 12.5,9.5 Z"/></g>
<g><path opacity="1.0" stroke="none" d="M 23.5,12.5 C 24.8333,12.5 26.1667,12.5 27.5,12.5C 27.8333,12.5 28.1667,12.5 28.5,12.5C 29.3629,13.9403 29.3629,15.2736 28.5,16.5C 22.3452,18.7309 16.0119,20.0642 9.5,20.5C 9.16667,20.5 8.83333,20.5 8.5,20.5C 6.92359,19.8571 5.59026,18.8571 4.5,17.5C 6.12936,15.9397 7.29602,16.273 8,18.5C 13.5166,18.046 19.0166,16.546 24.5,14C 23.944,13.6174 23.6107,13.1174 23.5,12.5 Z"/></g>
<g><path opacity="1.0" stroke="none" d="M 28.5,12.5 C 29.391,13.1098 30.391,13.4431 31.5,13.5C 31.5,14.5 31.5,15.5 31.5,16.5C 27.609,17.7995 23.9423,19.4661 20.5,21.5C 18.0504,21.298 15.717,21.6314 13.5,22.5C 12.1667,21.8333 10.8333,21.1667 9.5,20.5C 16.0119,20.0642 22.3452,18.7309 28.5,16.5C 29.3629,15.2736 29.3629,13.9403 28.5,12.5 Z"/></g>
<g><path opacity="1.0" stroke="none" d="M 11.5,25.5 C 10.8333,25.5 10.1667,25.5 9.5,25.5C 7.19438,25.0074 4.86105,24.6741 2.5,24.5C 2.5,25.5 2.5,26.5 2.5,27.5C 4.73535,27.2053 6.73535,27.5386 8.5,28.5C 6.14316,28.6633 3.80982,28.4966 1.5,28C -0.11048,24.5948 1.05619,23.0948 5,23.5C 7.48387,23.4967 9.65054,24.1634 11.5,25.5 Z"/></g>
<g><path opacity="1.0" stroke="none" d="M 20.5,21.5 C 20.7148,23.1788 20.0481,24.1788 18.5,24.5C 16.8333,24.5 15.1667,24.5 13.5,24.5C 13.5,23.8333 13.5,23.1667 13.5,22.5C 15.717,21.6314 18.0504,21.298 20.5,21.5 Z"/></g>
<g><path opacity="1.0" stroke="none" d="M 9.5,25.5 C 14.9851,26.3272 20.6518,26.8272 26.5,27C 26.9574,27.414 27.2907,27.914 27.5,28.5C 21.5365,29.1748 15.5365,29.1748 9.5,28.5C 9.16667,28.5 8.83333,28.5 8.5,28.5C 6.73535,27.5386 4.73535,27.2053 2.5,27.5C 2.5,26.5 2.5,25.5 2.5,24.5C 4.86105,24.6741 7.19438,25.0074 9.5,25.5 Z"/></g>
<g><path opacity="1.0" stroke="none" d="M 13.5,24.5 C 15.1667,24.5 16.8333,24.5 18.5,24.5C 21.0436,25.4808 23.7103,25.6475 26.5,25C 28.1554,26.4443 28.822,28.2776 28.5,30.5C 21.9384,30.6631 15.605,29.9965 9.5,28.5C 15.5365,29.1748 21.5365,29.1748 27.5,28.5C 27.2907,27.914 26.9574,27.414 26.5,27C 20.6518,26.8272 14.9851,26.3272 9.5,25.5C 10.1667,25.5 10.8333,25.5 11.5,25.5C 12.4916,25.6716 13.1583,25.3382 13.5,24.5 Z"/></g>
<g><path opacity="1.0" stroke="none" d="M 18.5,53.5 C 16.8333,53.5 15.1667,53.5 13.5,53.5C 12.8333,53.5 12.1667,53.5 11.5,53.5C 15.2984,52.5166 19.2984,52.1832 23.5,52.5C 23.5,51.5 23.5,50.5 23.5,49.5C 18.8592,50.1266 14.1925,50.4599 9.5,50.5C 15.9373,48.9611 22.6039,48.2945 29.5,48.5C 29.5479,51.2919 28.2146,53.1253 25.5,54C 23.2028,54.0178 20.8695,53.8511 18.5,53.5 Z"/></g>
<g><path opacity="1.0" stroke="none" d="M 11.5,53.5 C 8.54483,54.1587 5.54483,54.4921 2.5,54.5C 2.5,53.5 2.5,52.5 2.5,51.5C 5.0593,51.8016 7.39263,51.4682 9.5,50.5C 14.1925,50.4599 18.8592,50.1266 23.5,49.5C 23.5,50.5 23.5,51.5 23.5,52.5C 19.2984,52.1832 15.2984,52.5166 11.5,53.5 Z"/></g>
<g><path opacity="1.0" stroke="none" d="M 9.5,50.5 C 7.39263,51.4682 5.0593,51.8016 2.5,51.5C 2.5,52.5 2.5,53.5 2.5,54.5C 5.54483,54.4921 8.54483,54.1587 11.5,53.5C 9.88253,54.9723 7.88253,55.639 5.5,55.5C 1.31324,56.1593 -0.0200957,54.6593 1.5,51C 4.14603,50.5026 6.8127,50.3359 9.5,50.5 Z"/></g>
<g><path opacity="1.0" stroke="none" d="M 13.5,53.5 C 15.1667,53.5 16.8333,53.5 18.5,53.5C 19.968,54.7791 20.6347,56.4458 20.5,58.5C 19.209,58.2627 18.209,58.596 17.5,59.5C 15.8333,59.5 14.1667,59.5 12.5,59.5C 10.0185,58.7417 7.35188,58.7417 4.5,59.5C 7.17091,57.8819 10.1709,57.2153 13.5,57.5C 13.5,56.1667 13.5,54.8333 13.5,53.5 Z"/></g>
<g><path opacity="1.0" stroke="none" d="M 14.5,55.5 C 16.288,55.2148 17.9547,55.5481 19.5,56.5C 18.6667,56.8333 17.8333,57.1667 17,57.5C 15.6244,57.3158 14.7911,56.6491 14.5,55.5 Z"/></g>
<g><path opacity="1.0" stroke="none" d="M 12.5,59.5 C 12.0618,59.4346 11.7284,59.6012 11.5,60C 12.5,61 13.5,62 14.5,63C 12.8988,63.2734 11.3988,63.7734 10,64.5C 8.8831,64.3349 7.71644,64.0016 6.5,63.5C 5.81815,64.2427 5.15149,64.9094 4.5,65.5C 3.16667,65.5 1.83333,65.5 0.5,65.5C 1.47456,63.2048 2.80789,61.2048 4.5,59.5C 7.35188,58.7417 10.0185,58.7417 12.5,59.5 Z"/></g>
<g><path opacity="1.0" stroke="none" d="M 12.5,59.5 C 14.1667,59.5 15.8333,59.5 17.5,59.5C 18.5,59.5 19.5,59.5 20.5,59.5C 22.0269,59.427 23.0269,60.0937 23.5,61.5C 22.5,61.5 21.5,61.5 20.5,61.5C 19.797,63.8726 18.4637,65.8726 16.5,67.5C 13.1501,67.665 9.81677,67.4983 6.5,67C 5.5842,66.7216 4.91753,66.2216 4.5,65.5C 5.15149,64.9094 5.81815,64.2427 6.5,63.5C 7.71644,64.0016 8.8831,64.3349 10,64.5C 11.3988,63.7734 12.8988,63.2734 14.5,63C 13.5,62 12.5,61 11.5,60C 11.7284,59.6012 12.0618,59.4346 12.5,59.5 Z"/></g>
<g><path opacity="1.0" stroke="none" d="M 20.5,59.5 C 20.5,59.1667 20.5,58.8333 20.5,58.5C 23.6702,59.2655 26.6702,60.2655 29.5,61.5C 27.5,61.5 25.5,61.5 23.5,61.5C 23.0269,60.0937 22.0269,59.427 20.5,59.5 Z"/></g>
<g><path opacity="1.0" stroke="none" d="M 4.5,59.5 C 2.80789,61.2048 1.47456,63.2048 0.5,65.5C 0.166667,65.5 -0.166667,65.5 -0.5,65.5C -0.5,64.5 -0.5,63.5 -0.5,62.5C 0.659375,60.7497 2.32604,59.7497 4.5,59.5 Z"/></g>
<g><path opacity="1.0" stroke="none" d="M 23.5,61.5 C 25.5,61.5 27.5,61.5 29.5,61.5C 29.3491,64.7181 28.5158,65.0515 27,62.5C 26.51,63.7932 26.3433,65.1266 26.5,66.5C 23.1667,66.8333 19.8333,67.1667 16.5,67.5C 18.4637,65.8726 19.797,63.8726 20.5,61.5C 21.5,61.5 22.5,61.5 23.5,61.5 Z"/></g>
<g><path opacity="1.0" stroke="none" d="M 29.5,61.5 C 30.8009,62.8845 30.8009,64.3845 29.5,66C 26.382,67.0221 23.382,68.1887 20.5,69.5C 18.1667,69.5 15.8333,69.5 13.5,69.5C 8.47077,70.138 4.13743,68.8047 0.5,65.5C 1.83333,65.5 3.16667,65.5 4.5,65.5C 4.91753,66.2216 5.5842,66.7216 6.5,67C 9.81677,67.4983 13.1501,67.665 16.5,67.5C 19.8333,67.1667 23.1667,66.8333 26.5,66.5C 26.3433,65.1266 26.51,63.7932 27,62.5C 28.5158,65.0515 29.3491,64.7181 29.5,61.5 Z"/></g>
<g><path opacity="1.0" stroke="none" d="M 13.5,69.5 C 15.8333,69.5 18.1667,69.5 20.5,69.5C 20.5,70.5 20.5,71.5 20.5,72.5C 18.1667,72.5 15.8333,72.5 13.5,72.5C 13.5,71.5 13.5,70.5 13.5,69.5 Z"/></g>
<g><path opacity="1.0" stroke="none" d="M 13.5,72.5 C 15.8333,72.5 18.1667,72.5 20.5,72.5C 22.631,73.3138 24.9644,73.8138 27.5,74C 28.056,74.3826 28.3893,74.8826 28.5,75.5C 22.3664,74.9143 16.3664,74.2476 10.5,73.5C 11.791,73.7373 12.791,73.404 13.5,72.5 Z"/></g>
<g><path opacity="1.0" stroke="none" d="M 10.5,73.5 C 7.75312,73.1866 5.08645,73.52 2.5,74.5C 4.96877,75.1681 7.30211,75.8347 9.5,76.5C 6.8127,76.6641 4.14603,76.4974 1.5,76C 0.252311,72.9658 1.41898,71.4658 5,71.5C 7.11142,71.7006 8.94475,72.3673 10.5,73.5 Z"/></g>
<g><path opacity="1.0" stroke="none" d="M 10.5,73.5 C 16.3664,74.2476 22.3664,74.9143 28.5,75.5C 28.5,76.5 28.5,77.5 28.5,78.5C 27.209,78.2627 26.209,78.596 25.5,79.5C 23.1667,79.5 20.8333,79.5 18.5,79.5C 16.0314,78.6829 13.3647,78.1829 10.5,78C 9.94404,77.6174 9.61071,77.1174 9.5,76.5C 7.30211,75.8347 4.96877,75.1681 2.5,74.5C 5.08645,73.52 7.75312,73.1866 10.5,73.5 Z"/></g>
</svg>
