<?xml version="1.0" encoding="UTF-8"?>
<!DOCTYPE svg PUBLIC "-//W3C//DTD SVG 1.1//EN" "http://www.w3.org/Graphics/SVG/1.1/DTD/svg11.dtd">
<svg xmlns="http://www.w3.org/2000/svg" version="1.1" width="100%" viewBox="0 0 32 32" style="shape-rendering:geometricPrecision; text-rendering:geometricPrecision; image-rendering:optimizeQuality; fill-rule:evenodd; clip-rule:evenodd" xmlns:xlink="http://www.w3.org/1999/xlink">
<g><path style="opacity:0.696" fill="#efeeec" d="M 2.5,-0.5 C 4.16667,-0.5 5.83333,-0.5 7.5,-0.5C 8.45196,0.451959 9.45196,1.45196 10.5,2.5C 13.9646,-0.12167 17.4646,-0.12167 21,2.5C 22.045,1.62656 22.8783,0.626561 23.5,-0.5C 25.1667,-0.5 26.8333,-0.5 28.5,-0.5C 29.5,0.5 30.5,1.5 31.5,2.5C 31.5,6.5 31.5,10.5 31.5,14.5C 30.1049,18.5911 29.2715,22.9244 29,27.5C 26.7592,30.2272 24.0926,30.8938 21,29.5C 20.0053,30.0659 19.172,30.7326 18.5,31.5C 16.8333,31.5 15.1667,31.5 13.5,31.5C 12.7387,30.6091 11.7387,29.9424 10.5,29.5C 7.20675,30.9689 4.37342,30.3022 2,27.5C 1.56331,22.2939 0.729975,17.2939 -0.5,12.5C -0.5,11.8333 -0.5,11.1667 -0.5,10.5C 0.833333,10.1667 0.833333,9.83333 -0.5,9.5C -0.5,8.83333 -0.5,8.16667 -0.5,7.5C 0.0823394,4.72758 1.08234,2.06092 2.5,-0.5 Z"/></g>
<g><path style="opacity:1" fill="#2c1b12" d="M 3.5,1.5 C 4.82207,1.33003 5.98873,1.66337 7,2.5C 8.61042,4.59683 9.77708,6.93016 10.5,9.5C 10.9963,4.50199 13.6629,2.66866 18.5,4C 19.717,5.64769 20.5503,7.48102 21,9.5C 21.7267,7.04697 22.7267,4.71364 24,2.5C 25.3333,1.16667 26.6667,1.16667 28,2.5C 28.8279,10.5877 28.3279,18.5877 26.5,26.5C 24.0314,28.0066 21.8647,27.6732 20,25.5C 17.2595,29.4615 14.4261,29.4615 11.5,25.5C 9.54847,27.533 7.3818,27.8663 5,26.5C 4.89905,23.0791 4.06571,19.9124 2.5,17C 2.28991,11.9097 2.62324,6.74302 3.5,1.5 Z"/></g>
<g><path style="opacity:1" fill="#ae7b48" d="M 8.5,11.5 C 7.16667,12.1667 6.16667,13.1667 5.5,14.5C 5.5,15.8333 5.5,17.1667 5.5,18.5C 4.18635,13.6523 4.18635,8.6523 5.5,3.5C 7.98644,5.57804 8.98644,8.24471 8.5,11.5 Z"/></g>
<g><path style="opacity:1" fill="#e9a35d" d="M 19.5,9.5 C 18.3509,9.79106 17.6842,10.6244 17.5,12C 18.125,13.8405 18.2917,15.6739 18,17.5C 17.6174,18.056 17.1174,18.3893 16.5,18.5C 15.8826,18.3893 15.3826,18.056 15,17.5C 15.1249,11.0911 13.9583,10.4244 11.5,15.5C 10.9984,16.521 10.3317,16.6877 9.5,16C 10.2666,14.5295 10.9332,13.0295 11.5,11.5C 13.1675,9.52135 13.8342,7.18802 13.5,4.5C 17.3103,3.97596 19.3103,5.64263 19.5,9.5 Z"/></g>
<g><path style="opacity:1" fill="#8d5519" d="M 26.5,12.5 C 26.6621,10.4727 26.4955,8.4727 26,6.5C 25.5036,12.9806 24.3369,19.314 22.5,25.5C 21.4176,23.6728 21.4176,21.6728 22.5,19.5C 22.2528,18.2867 21.5862,17.62 20.5,17.5C 22.6618,15.8311 22.9952,13.8311 21.5,11.5C 22.9462,8.87312 24.6128,6.20645 26.5,3.5C 27.8032,6.6447 27.8032,9.6447 26.5,12.5 Z"/></g>
<g><path style="opacity:1" fill="#d58637" d="M 19.5,9.5 C 19.8333,10.5 20.5,11.1667 21.5,11.5C 22.9952,13.8311 22.6618,15.8311 20.5,17.5C 19.4386,20.8635 18.4386,24.1968 17.5,27.5C 16.209,27.7373 15.209,27.404 14.5,26.5C 14.1315,23.4669 14.7982,20.8002 16.5,18.5C 17.1174,18.3893 17.6174,18.056 18,17.5C 18.2917,15.6739 18.125,13.8405 17.5,12C 17.6842,10.6244 18.3509,9.79106 19.5,9.5 Z"/></g>
<g><path style="opacity:1" fill="#9c560c" d="M 8.5,11.5 C 9.5,11.5 10.5,11.5 11.5,11.5C 10.9332,13.0295 10.2666,14.5295 9.5,16C 10.3317,16.6877 10.9984,16.521 11.5,15.5C 13.9583,10.4244 15.1249,11.0911 15,17.5C 15.3826,18.056 15.8826,18.3893 16.5,18.5C 14.7982,20.8002 14.1315,23.4669 14.5,26.5C 12.5033,23.8402 11.0033,20.8402 10,17.5C 9.50649,19.1341 9.33982,20.8008 9.5,22.5C 8.65682,20.5128 7.99015,18.3461 7.5,16C 7.16389,14.9701 6.49722,14.4701 5.5,14.5C 6.16667,13.1667 7.16667,12.1667 8.5,11.5 Z"/></g>
<g><path style="opacity:1" fill="#e79b4d" d="M 5.5,14.5 C 6.49722,14.4701 7.16389,14.9701 7.5,16C 7.99015,18.3461 8.65682,20.5128 9.5,22.5C 9.5,23.5 9.5,24.5 9.5,25.5C 8.16667,25.5 6.83333,25.5 5.5,25.5C 6.54628,23.1183 6.54628,20.7849 5.5,18.5C 5.5,17.1667 5.5,15.8333 5.5,14.5 Z"/></g>
<g><path style="opacity:1" fill="#d99a5a" d="M 26.5,12.5 C 26.2605,16.8422 25.9272,21.1756 25.5,25.5C 24.5,25.5 23.5,25.5 22.5,25.5C 24.3369,19.314 25.5036,12.9806 26,6.5C 26.4955,8.4727 26.6621,10.4727 26.5,12.5 Z"/></g>
</svg>
