<?xml version="1.0" encoding="UTF-8"?>
<!DOCTYPE svg PUBLIC "-//W3C//DTD SVG 1.1//EN" "http://www.w3.org/Graphics/SVG/1.1/DTD/svg11.dtd">
<svg xmlns="http://www.w3.org/2000/svg" version="1.1" width="100%" viewBox="0 0 80 80" style="shape-rendering:geometricPrecision; text-rendering:geometricPrecision; image-rendering:optimizeQuality; fill-rule:evenodd; clip-rule:evenodd" xmlns:xlink="http://www.w3.org/1999/xlink">
<g><path style="opacity:0.716" fill="#f2f1f0" d="M 7.5,-0.5 C 8.83333,-0.5 10.1667,-0.5 11.5,-0.5C 11.7828,0.28913 12.2828,0.955796 13,1.5C 14.3561,0.619828 15.8561,0.286495 17.5,0.5C 16.8902,1.39105 16.5569,2.39105 16.5,3.5C 13.2136,3.07123 10.0469,3.07123 7,3.5C 6.39924,6.20573 4.89924,8.20573 2.5,9.5C 3.02483,12.7783 3.1915,16.1116 3,19.5C 5.93027,22.5878 9.43027,24.7544 13.5,26C 20.1147,33.3898 25.6147,41.5565 30,50.5C 28.6287,55.0084 29.4621,59.0084 32.5,62.5C 32.7073,65.2406 33.7073,67.5739 35.5,69.5C 36.1293,71.9971 37.796,73.3304 40.5,73.5C 42.9826,76.7414 46.3159,78.4081 50.5,78.5C 50.5,78.8333 50.5,79.1667 50.5,79.5C 48.1667,79.5 45.8333,79.5 43.5,79.5C 40.2331,77.1889 36.8998,74.8556 33.5,72.5C 31.1667,67.1667 28.8333,61.8333 26.5,56.5C 27.0402,55.2519 27.7069,54.0852 28.5,53C 24.407,44.1398 19.0737,36.1398 12.5,29C 5.61799,27.2818 1.28466,23.1152 -0.5,16.5C -0.5,16.1667 -0.5,15.8333 -0.5,15.5C -0.114589,9.09076 2.55208,3.75743 7.5,-0.5 Z"/></g>
<g><path style="opacity:0.734" fill="#f1f0ef" d="M 17.5,0.5 C 23.6568,2.50707 27.1568,6.8404 28,13.5C 36.5529,21.1922 46.3863,26.3589 57.5,29C 62.3174,30.9096 66.9841,33.0763 71.5,35.5C 74.19,39.5654 76.8567,43.5654 79.5,47.5C 79.5,49.5 79.5,51.5 79.5,53.5C 78.2206,55.1233 76.8872,56.79 75.5,58.5C 76.8793,61.2585 78.2126,63.9252 79.5,66.5C 79.5,68.1667 79.5,69.8333 79.5,71.5C 76.5,73.8333 73.8333,76.5 71.5,79.5C 69.1667,79.5 66.8333,79.5 64.5,79.5C 62.5654,78.19 60.5654,76.8567 58.5,75.5C 56.812,76.5213 55.4787,77.8546 54.5,79.5C 53.1667,79.5 51.8333,79.5 50.5,79.5C 50.5,79.1667 50.5,78.8333 50.5,78.5C 52.8478,76.3198 55.3478,74.3198 58,72.5C 60.5666,73.8676 63.0666,75.3676 65.5,77C 67.1667,77.6667 68.8333,77.6667 70.5,77C 71.7808,74.5967 73.6142,72.7633 76,71.5C 76.6667,69.1667 76.6667,66.8333 76,64.5C 74.4445,62.5566 73.2779,60.3899 72.5,58C 73.3146,56.3566 74.3146,54.8566 75.5,53.5C 76.6291,51.3718 76.7958,49.0385 76,46.5C 73.7098,43.4201 71.5431,40.2534 69.5,37C 64.577,34.9536 59.7437,32.787 55,30.5C 53.5349,31.3295 52.0349,31.4962 50.5,31C 41.2178,26.8748 32.8845,21.3748 25.5,14.5C 24.5383,11.1211 23.205,7.95448 21.5,5C 19.9751,3.99136 18.3084,3.49136 16.5,3.5C 16.5569,2.39105 16.8902,1.39105 17.5,0.5 Z"/></g>
<g><path style="opacity:1" fill="#c97926" d="M 25.5,31.5 C 26.1389,33.7604 27.3055,35.7604 29,37.5C 31.5402,36.1235 33.5402,36.7902 35,39.5C 34.8877,41.1783 34.3877,42.845 33.5,44.5C 33.7472,45.7133 34.4138,46.38 35.5,46.5C 37.2667,48.7713 39.2667,50.938 41.5,53C 41.4301,53.7648 41.0967,54.2648 40.5,54.5C 40.5654,54.0618 40.3988,53.7284 40,53.5C 39.2515,55.3325 38.2515,56.9991 37,58.5C 35.7225,56.2528 34.2225,54.2528 32.5,52.5C 28.5867,44.3335 23.92,36.6668 18.5,29.5C 18.369,28.7611 18.5357,28.0944 19,27.5C 20.7849,28.2401 22.6183,28.9067 24.5,29.5C 25.2975,29.9569 25.6309,30.6236 25.5,31.5 Z"/></g>
<g><path style="opacity:1" fill="#7d4305" d="M 25.5,31.5 C 26.2216,31.9175 26.7216,32.5842 27,33.5C 27.3418,31.3808 28.1751,31.0474 29.5,32.5C 30.1499,32.8039 30.8165,33.1373 31.5,33.5C 31.8333,32.8333 32.1667,32.1667 32.5,31.5C 33.8333,32.1667 35.1667,32.8333 36.5,33.5C 38.7065,35.7303 40.2065,38.0636 41,40.5C 42.0875,38.0684 42.5875,38.4017 42.5,41.5C 43.5,41.5 44.5,41.5 45.5,41.5C 45.5674,40.0413 45.2341,38.7079 44.5,37.5C 45.3764,37.3691 46.0431,37.7025 46.5,38.5C 48.0198,40.6621 49.0198,42.9954 49.5,45.5C 48.6236,45.3691 47.9569,45.7025 47.5,46.5C 48.3128,47.8139 49.3128,48.9805 50.5,50C 47.1514,50.0891 46.6514,51.2557 49,53.5C 51.6179,57.1077 52.4512,57.1077 51.5,53.5C 51.9767,52.5224 52.6433,51.6891 53.5,51C 52.1667,50.3333 51.1667,49.3333 50.5,48C 53.2497,48.2342 55.2497,49.7342 56.5,52.5C 57.9647,51.3913 58.9647,51.8913 59.5,54C 59.1667,54.3333 58.8333,54.6667 58.5,55C 61.8203,55.8122 62.8203,57.6455 61.5,60.5C 60.596,59.791 60.2627,58.791 60.5,57.5C 58.8333,57.5 57.1667,57.5 55.5,57.5C 54.9066,60.5959 55.9066,62.9292 58.5,64.5C 58.1924,65.3081 57.6924,65.9747 57,66.5C 56.0467,64.5448 54.7134,62.8782 53,61.5C 51.4345,62.0606 50.1011,61.3939 49,59.5C 48.3828,58.5509 48.5494,57.7175 49.5,57C 46.674,52.4962 43.0073,49.1628 38.5,47C 39.6853,44.2224 38.6853,42.7224 35.5,42.5C 35.5,43.8333 35.5,45.1667 35.5,46.5C 34.4138,46.38 33.7472,45.7133 33.5,44.5C 34.3877,42.845 34.8877,41.1783 35,39.5C 33.5402,36.7902 31.5402,36.1235 29,37.5C 27.3055,35.7604 26.1389,33.7604 25.5,31.5 Z"/></g>
<g><path style="opacity:1" fill="#311f15" d="M 16.5,3.5 C 18.3084,3.49136 19.9751,3.99136 21.5,5C 23.205,7.95448 24.5383,11.1211 25.5,14.5C 32.8845,21.3748 41.2178,26.8748 50.5,31C 52.0349,31.4962 53.5349,31.3295 55,30.5C 59.7437,32.787 64.577,34.9536 69.5,37C 71.5431,40.2534 73.7098,43.4201 76,46.5C 76.7958,49.0385 76.6291,51.3718 75.5,53.5C 75.5,53.1667 75.5,52.8333 75.5,52.5C 74.6505,46.9672 72.3172,42.1339 68.5,38C 64.0162,36.1975 59.5162,34.3642 55,32.5C 54.1268,32.7355 53.2935,33.0688 52.5,33.5C 50.9246,32.5435 49.258,31.8769 47.5,31.5C 41.3951,27.9407 35.3951,24.1073 29.5,20C 26.4472,17.5467 24.1139,14.7134 22.5,11.5C 22.2013,7.86783 20.2013,5.86783 16.5,5.5C 13.9597,6.06121 11.4597,5.39455 9,3.5C 8.50776,4.54896 8.67443,5.54896 9.5,6.5C 8.5,7.5 7.5,8.5 6.5,9.5C 5.91395,9.29069 5.41395,8.95735 5,8.5C 4.95247,12.2592 5.11913,15.9259 5.5,19.5C 7.47841,22.0123 10.1451,23.5123 13.5,24C 15.4019,25.7297 17.0686,27.563 18.5,29.5C 23.92,36.6668 28.5867,44.3335 32.5,52.5C 31.372,55.7814 31.372,59.1148 32.5,62.5C 29.4621,59.0084 28.6287,55.0084 30,50.5C 25.6147,41.5565 20.1147,33.3898 13.5,26C 9.43027,24.7544 5.93027,22.5878 3,19.5C 3.1915,16.1116 3.02483,12.7783 2.5,9.5C 4.89924,8.20573 6.39924,6.20573 7,3.5C 10.0469,3.07123 13.2136,3.07123 16.5,3.5 Z"/></g>
<g><path style="opacity:1" fill="#834706" d="M 61.5,43.5 C 61.3894,45.6477 62.056,45.981 63.5,44.5C 65.9042,45.0079 66.5709,46.1745 65.5,48C 66.1667,48.6667 66.8333,49.3333 67.5,50C 65.7216,50.704 63.8882,51.204 62,51.5C 58.9925,49.3209 56.1592,46.9876 53.5,44.5C 54.3201,42.8599 55.1534,41.1932 56,39.5C 57.2568,41.7458 59.0901,43.0791 61.5,43.5 Z"/></g>
<g><path style="opacity:1" fill="#c89055" d="M 47.5,31.5 C 49.258,31.8769 50.9246,32.5435 52.5,33.5C 53.2935,33.0688 54.1268,32.7355 55,32.5C 59.5162,34.3642 64.0162,36.1975 68.5,38C 72.3172,42.1339 74.6505,46.9672 75.5,52.5C 74.41,48.7579 72.0766,45.7579 68.5,43.5C 68.719,42.325 68.3857,41.325 67.5,40.5C 62.2726,37.4078 56.6059,35.2411 50.5,34C 49.0577,33.6232 48.0577,32.7899 47.5,31.5 Z"/></g>
<g><path style="opacity:1" fill="#d8822d" d="M 44.5,31.5 C 45.5,31.5 46.5,31.5 47.5,31.5C 48.0577,32.7899 49.0577,33.6232 50.5,34C 56.6059,35.2411 62.2726,37.4078 67.5,40.5C 68.3857,41.325 68.719,42.325 68.5,43.5C 66.1667,43.5 63.8333,43.5 61.5,43.5C 59.0901,43.0791 57.2568,41.7458 56,39.5C 55.1534,41.1932 54.3201,42.8599 53.5,44.5C 52.0413,44.4326 50.7079,44.7659 49.5,45.5C 49.0198,42.9954 48.0198,40.6621 46.5,38.5C 46.0431,37.7025 45.3764,37.3691 44.5,37.5C 43.7249,35.3881 43.7249,33.3881 44.5,31.5 Z"/></g>
<g><path style="opacity:1" fill="#ca7521" d="M 36.5,29.5 C 38.7851,32.4518 41.4517,35.1185 44.5,37.5C 45.2341,38.7079 45.5674,40.0413 45.5,41.5C 44.5,41.5 43.5,41.5 42.5,41.5C 42.5875,38.4017 42.0875,38.0684 41,40.5C 40.2065,38.0636 38.7065,35.7303 36.5,33.5C 35.1667,32.8333 33.8333,32.1667 32.5,31.5C 32.1667,32.1667 31.8333,32.8333 31.5,33.5C 30.8165,33.1373 30.1499,32.8039 29.5,32.5C 29.702,30.0504 29.3686,27.717 28.5,25.5C 28.9382,25.5654 29.2716,25.3988 29.5,25C 27.9926,24.1627 27.4926,22.9961 28,21.5C 31.1608,23.9138 33.9942,26.5805 36.5,29.5 Z"/></g>
<g><path style="opacity:1" fill="#904908" d="M 36.5,29.5 C 38.3977,30.0893 40.3977,30.256 42.5,30C 40.7295,30.5354 40.3961,31.3687 41.5,32.5C 42.4168,31.8728 43.4168,31.5394 44.5,31.5C 43.7249,33.3881 43.7249,35.3881 44.5,37.5C 41.4517,35.1185 38.7851,32.4518 36.5,29.5 Z"/></g>
<g><path style="opacity:1" fill="#e19c56" d="M 22.5,11.5 C 24.1139,14.7134 26.4472,17.5467 29.5,20C 35.3951,24.1073 41.3951,27.9407 47.5,31.5C 46.5,31.5 45.5,31.5 44.5,31.5C 43.4168,31.5394 42.4168,31.8728 41.5,32.5C 40.3961,31.3687 40.7295,30.5354 42.5,30C 40.3977,30.256 38.3977,30.0893 36.5,29.5C 33.9942,26.5805 31.1608,23.9138 28,21.5C 27.4926,22.9961 27.9926,24.1627 29.5,25C 29.2716,25.3988 28.9382,25.5654 28.5,25.5C 27.1283,24.4884 25.795,23.4884 24.5,22.5C 25.1408,21.5178 25.8075,20.5178 26.5,19.5C 24.812,18.4787 23.4787,17.1454 22.5,15.5C 22.5,14.1667 22.5,12.8333 22.5,11.5 Z"/></g>
<g><path style="opacity:1" fill="#9f5a12" d="M 24.5,22.5 C 25.795,23.4884 27.1283,24.4884 28.5,25.5C 29.3686,27.717 29.702,30.0504 29.5,32.5C 28.1751,31.0474 27.3418,31.3808 27,33.5C 26.7216,32.5842 26.2216,31.9175 25.5,31.5C 25.6309,30.6236 25.2975,29.9569 24.5,29.5C 22.6183,28.9067 20.7849,28.2401 19,27.5C 18.5357,28.0944 18.369,28.7611 18.5,29.5C 17.0686,27.563 15.4019,25.7297 13.5,24C 10.1451,23.5123 7.47841,22.0123 5.5,19.5C 8.47498,19.7134 11.1416,20.7134 13.5,22.5C 13.8333,22.1667 14.1667,21.8333 14.5,21.5C 13.5,20.6667 12.5,19.8333 11.5,19C 12.549,18.5078 13.549,18.6744 14.5,19.5C 16.5046,16.9722 18.1713,17.3055 19.5,20.5C 18.3595,21.4255 18.3595,22.2588 19.5,23C 17.0712,23.4512 16.9045,24.2845 19,25.5C 19.7175,24.5494 20.5509,24.3828 21.5,25C 22.6853,26.353 24.0186,27.5197 25.5,28.5C 26.5827,27.635 26.7494,26.635 26,25.5C 25.3333,24.1667 24.6667,24.1667 24,25.5C 23.5,24.5 23,23.5 22.5,22.5C 22.9698,21.537 23.6365,21.537 24.5,22.5 Z"/></g>
<g><path style="opacity:1" fill="#cd7e30" d="M 16.5,5.5 C 15.0813,6.45115 13.4147,6.78448 11.5,6.5C 13.0751,9.85291 12.4084,12.6862 9.5,15C 10,15.5 10.5,16 11,16.5C 12.5707,14.0771 14.7374,12.7438 17.5,12.5C 17.281,13.675 17.6143,14.675 18.5,15.5C 18.7486,14.4179 18.9152,13.0846 19,11.5C 19.7403,13.3187 20.9069,14.6521 22.5,15.5C 23.4787,17.1454 24.812,18.4787 26.5,19.5C 25.8075,20.5178 25.1408,21.5178 24.5,22.5C 23.6365,21.537 22.9698,21.537 22.5,22.5C 23,23.5 23.5,24.5 24,25.5C 24.6667,24.1667 25.3333,24.1667 26,25.5C 26.7494,26.635 26.5827,27.635 25.5,28.5C 24.0186,27.5197 22.6853,26.353 21.5,25C 20.5509,24.3828 19.7175,24.5494 19,25.5C 16.9045,24.2845 17.0712,23.4512 19.5,23C 18.3595,22.2588 18.3595,21.4255 19.5,20.5C 18.1713,17.3055 16.5046,16.9722 14.5,19.5C 13.549,18.6744 12.549,18.5078 11.5,19C 12.5,19.8333 13.5,20.6667 14.5,21.5C 14.1667,21.8333 13.8333,22.1667 13.5,22.5C 11.1416,20.7134 8.47498,19.7134 5.5,19.5C 5.11913,15.9259 4.95247,12.2592 5,8.5C 5.41395,8.95735 5.91395,9.29069 6.5,9.5C 7.5,8.5 8.5,7.5 9.5,6.5C 8.67443,5.54896 8.50776,4.54896 9,3.5C 11.4597,5.39455 13.9597,6.06121 16.5,5.5 Z"/></g>
<g><path style="opacity:1" fill="#e79342" d="M 16.5,5.5 C 20.2013,5.86783 22.2013,7.86783 22.5,11.5C 22.5,12.8333 22.5,14.1667 22.5,15.5C 20.9069,14.6521 19.7403,13.3187 19,11.5C 18.9152,13.0846 18.7486,14.4179 18.5,15.5C 17.6143,14.675 17.281,13.675 17.5,12.5C 14.7374,12.7438 12.5707,14.0771 11,16.5C 10.5,16 10,15.5 9.5,15C 12.4084,12.6862 13.0751,9.85291 11.5,6.5C 13.4147,6.78448 15.0813,6.45115 16.5,5.5 Z"/></g>
<g><path style="opacity:1" fill="#d17923" d="M 68.5,43.5 C 72.0766,45.7579 74.41,48.7579 75.5,52.5C 75.5,52.8333 75.5,53.1667 75.5,53.5C 74.1667,53.5 72.8333,53.5 71.5,53.5C 71.4809,55.0603 71.1476,56.5603 70.5,58C 72.698,61.398 74.3646,65.0646 75.5,69C 75.3552,69.772 75.0219,70.4387 74.5,71C 72.7928,71.1953 71.1261,71.1953 69.5,71C 70.3802,72.3561 70.7135,73.8561 70.5,75.5C 67.4867,75.8928 64.8201,75.2261 62.5,73.5C 64.3864,72.9348 66.0531,71.9348 67.5,70.5C 66.689,69.7836 66.0223,68.9503 65.5,68C 66.6155,66.7651 66.6155,65.5984 65.5,64.5C 67.9935,62.7522 67.8268,61.0856 65,59.5C 63.3333,61.1667 61.6667,62.8333 60,64.5C 59.516,62.8067 60.016,61.4733 61.5,60.5C 62.8203,57.6455 61.8203,55.8122 58.5,55C 58.8333,54.6667 59.1667,54.3333 59.5,54C 58.9647,51.8913 57.9647,51.3913 56.5,52.5C 55.2497,49.7342 53.2497,48.2342 50.5,48C 51.1667,49.3333 52.1667,50.3333 53.5,51C 52.6433,51.6891 51.9767,52.5224 51.5,53.5C 52.4512,57.1077 51.6179,57.1077 49,53.5C 46.6514,51.2557 47.1514,50.0891 50.5,50C 49.3128,48.9805 48.3128,47.8139 47.5,46.5C 47.9569,45.7025 48.6236,45.3691 49.5,45.5C 50.7079,44.7659 52.0413,44.4326 53.5,44.5C 56.1592,46.9876 58.9925,49.3209 62,51.5C 63.8882,51.204 65.7216,50.704 67.5,50C 66.8333,49.3333 66.1667,48.6667 65.5,48C 66.5709,46.1745 65.9042,45.0079 63.5,44.5C 62.056,45.981 61.3894,45.6477 61.5,43.5C 63.8333,43.5 66.1667,43.5 68.5,43.5 Z"/></g>
<g><path style="opacity:1" fill="#d58e40" d="M 42.5,57.5 C 43.552,57.3505 44.552,57.5172 45.5,58C 45.3602,59.5971 45.3602,61.0971 45.5,62.5C 46.2888,64.4879 47.4555,64.8213 49,63.5C 49.4828,64.448 49.6495,65.448 49.5,66.5C 45.6425,65.3137 42.6425,62.9803 40.5,59.5C 41.5,59.1667 42.1667,58.5 42.5,57.5 Z"/></g>
<g><path style="opacity:1" fill="#2d1812" d="M 32.5,62.5 C 34.2927,64.4261 35.2927,66.7594 35.5,69.5C 33.7073,67.5739 32.7073,65.2406 32.5,62.5 Z"/></g>
<g><path style="opacity:1" fill="#352013" d="M 75.5,53.5 C 74.3146,54.8566 73.3146,56.3566 72.5,58C 73.2779,60.3899 74.4445,62.5566 76,64.5C 76.6667,66.8333 76.6667,69.1667 76,71.5C 73.6142,72.7633 71.7808,74.5967 70.5,77C 68.8333,77.6667 67.1667,77.6667 65.5,77C 63.0666,75.3676 60.5666,73.8676 58,72.5C 55.3478,74.3198 52.8478,76.3198 50.5,78.5C 46.3159,78.4081 42.9826,76.7414 40.5,73.5C 42.4233,73.795 44.0899,74.6283 45.5,76C 47.4727,76.4955 49.4727,76.6621 51.5,76.5C 51.5,75.1667 51.5,73.8333 51.5,72.5C 52.8333,72.5 54.1667,72.5 55.5,72.5C 55.281,71.325 55.6143,70.325 56.5,69.5C 58.5286,70.8435 60.5286,72.1769 62.5,73.5C 64.8201,75.2261 67.4867,75.8928 70.5,75.5C 70.7135,73.8561 70.3802,72.3561 69.5,71C 71.1261,71.1953 72.7928,71.1953 74.5,71C 75.0219,70.4387 75.3552,69.772 75.5,69C 74.3646,65.0646 72.698,61.398 70.5,58C 71.1476,56.5603 71.4809,55.0603 71.5,53.5C 72.8333,53.5 74.1667,53.5 75.5,53.5 Z"/></g>
<g><path style="opacity:1" fill="#945307" d="M 61.5,60.5 C 60.016,61.4733 59.516,62.8067 60,64.5C 61.6667,62.8333 63.3333,61.1667 65,59.5C 67.8268,61.0856 67.9935,62.7522 65.5,64.5C 66.6155,65.5984 66.6155,66.7651 65.5,68C 66.0223,68.9503 66.689,69.7836 67.5,70.5C 66.0531,71.9348 64.3864,72.9348 62.5,73.5C 60.5286,72.1769 58.5286,70.8435 56.5,69.5C 55.6143,70.325 55.281,71.325 55.5,72.5C 54.1667,72.5 52.8333,72.5 51.5,72.5C 50.5084,72.6716 49.8417,72.3382 49.5,71.5C 50.625,70.3478 50.625,69.3478 49.5,68.5C 47.983,67.2651 46.3163,67.2651 44.5,68.5C 43.32,64.9806 41.32,61.9806 38.5,59.5C 39.2565,58.2267 39.9232,58.2267 40.5,59.5C 42.6425,62.9803 45.6425,65.3137 49.5,66.5C 49.6495,65.448 49.4828,64.448 49,63.5C 47.4555,64.8213 46.2888,64.4879 45.5,62.5C 45.3602,61.0971 45.3602,59.5971 45.5,58C 44.552,57.5172 43.552,57.3505 42.5,57.5C 41.0937,57.0269 40.427,56.0269 40.5,54.5C 41.0967,54.2648 41.4301,53.7648 41.5,53C 39.2667,50.938 37.2667,48.7713 35.5,46.5C 35.5,45.1667 35.5,43.8333 35.5,42.5C 38.6853,42.7224 39.6853,44.2224 38.5,47C 43.0073,49.1628 46.674,52.4962 49.5,57C 48.5494,57.7175 48.3828,58.5509 49,59.5C 50.1011,61.3939 51.4345,62.0606 53,61.5C 54.7134,62.8782 56.0467,64.5448 57,66.5C 57.6924,65.9747 58.1924,65.3081 58.5,64.5C 55.9066,62.9292 54.9066,60.5959 55.5,57.5C 57.1667,57.5 58.8333,57.5 60.5,57.5C 60.2627,58.791 60.596,59.791 61.5,60.5 Z"/></g>
<g><path style="opacity:1" fill="#f9a047" d="M 49.5,68.5 C 50.625,69.3478 50.625,70.3478 49.5,71.5C 44.1667,70.5 44.1667,69.5 49.5,68.5 Z"/></g>
<g><path style="opacity:1" fill="#261611" d="M 35.5,69.5 C 37.3885,70.604 39.0552,71.9373 40.5,73.5C 37.796,73.3304 36.1293,71.9971 35.5,69.5 Z"/></g>
<g><path style="opacity:1" fill="#b86612" d="M 32.5,52.5 C 34.2225,54.2528 35.7225,56.2528 37,58.5C 38.2515,56.9991 39.2515,55.3325 40,53.5C 40.3988,53.7284 40.5654,54.0618 40.5,54.5C 40.427,56.0269 41.0937,57.0269 42.5,57.5C 42.1667,58.5 41.5,59.1667 40.5,59.5C 39.9232,58.2267 39.2565,58.2267 38.5,59.5C 41.32,61.9806 43.32,64.9806 44.5,68.5C 46.3163,67.2651 47.983,67.2651 49.5,68.5C 44.1667,69.5 44.1667,70.5 49.5,71.5C 49.8417,72.3382 50.5084,72.6716 51.5,72.5C 51.5,73.8333 51.5,75.1667 51.5,76.5C 49.4727,76.6621 47.4727,76.4955 45.5,76C 44.0899,74.6283 42.4233,73.795 40.5,73.5C 39.0552,71.9373 37.3885,70.604 35.5,69.5C 35.2927,66.7594 34.2927,64.4261 32.5,62.5C 31.372,59.1148 31.372,55.7814 32.5,52.5 Z"/></g>
</svg>
