<?xml version="1.0" encoding="UTF-8"?>
<!DOCTYPE svg PUBLIC "-//W3C//DTD SVG 1.1//EN" "http://www.w3.org/Graphics/SVG/1.1/DTD/svg11.dtd">
<svg xmlns="http://www.w3.org/2000/svg" version="1.1" height="100%" width="100%" viewBox="0 0 32 84" style="shape-rendering:geometricPrecision; text-rendering:geometricPrecision; image-rendering:optimizeQuality; fill-rule:evenodd; clip-rule:evenodd" xmlns:xlink="http://www.w3.org/1999/xlink">
<g><path opacity="1.0" stroke="none" d="M 8.5,-0.5 C 10.5,-0.5 12.5,-0.5 14.5,-0.5C 14.9731,0.906316 15.9731,1.57298 17.5,1.5C 16.0878,2.1656 14.7545,2.49894 13.5,2.5C 13.1667,2.5 12.8333,2.5 12.5,2.5C 12.44,1.95691 12.1067,1.62358 11.5,1.5C 10.5344,3.39605 10.2011,5.39605 10.5,7.5C 10.1667,7.5 9.83333,7.5 9.5,7.5C 9.75293,5.17267 9.08626,3.17267 7.5,1.5C 7.86273,0.816537 8.19607,0.14987 8.5,-0.5 Z"/></g>
<g><path opacity="1.0" stroke="none" d="M 17.5,1.5 C 20.1667,1.83333 22.8333,2.16667 25.5,2.5C 25.5,2.83333 25.5,3.16667 25.5,3.5C 24.8333,3.5 24.1667,3.5 23.5,3.5C 22.5,3.5 21.5,3.5 20.5,3.5C 18.8333,3.5 17.1667,3.5 15.5,3.5C 14.5084,3.67158 13.8417,3.33825 13.5,2.5C 14.7545,2.49894 16.0878,2.1656 17.5,1.5 Z"/></g>
<g><path opacity="1.0" stroke="none" d="M 12.5,2.5 C 12.5,4.16667 12.5,5.83333 12.5,7.5C 11.8333,7.5 11.1667,7.5 10.5,7.5C 10.2011,5.39605 10.5344,3.39605 11.5,1.5C 12.1067,1.62358 12.44,1.95691 12.5,2.5 Z"/></g>
<g><path opacity="1.0" stroke="none" d="M 15.5,3.5 C 17.1667,3.5 18.8333,3.5 20.5,3.5C 20.5,4.16667 20.5,4.83333 20.5,5.5C 18.8333,5.5 17.1667,5.5 15.5,5.5C 15.1667,5.5 14.8333,5.5 14.5,5.5C 14.8333,4.83333 15.1667,4.16667 15.5,3.5 Z"/></g>
<g><path opacity="1.0" stroke="none" d="M 20.5,3.5 C 21.5,3.5 22.5,3.5 23.5,3.5C 24.3414,5.3792 24.6747,7.3792 24.5,9.5C 24.1667,9.5 23.8333,9.5 23.5,9.5C 23.2624,7.59565 22.2624,6.26231 20.5,5.5C 20.5,4.83333 20.5,4.16667 20.5,3.5 Z"/></g>
<g><path opacity="1.0" stroke="none" d="M 20.5,5.5 C 22.2624,6.26231 23.2624,7.59565 23.5,9.5C 22.1667,9.16667 20.8333,8.83333 19.5,8.5C 19.5569,7.39105 19.8902,6.39105 20.5,5.5 Z"/></g>
<g><path opacity="1.0" stroke="none" d="M 12.5,2.5 C 12.8333,2.5 13.1667,2.5 13.5,2.5C 13.8417,3.33825 14.5084,3.67158 15.5,3.5C 15.1667,4.16667 14.8333,4.83333 14.5,5.5C 14.5,7.16667 14.5,8.83333 14.5,10.5C 13.8333,10.5 13.1667,10.5 12.5,10.5C 12.5,9.5 12.5,8.5 12.5,7.5C 12.5,5.83333 12.5,4.16667 12.5,2.5 Z"/></g>
<g><path opacity="1.0" stroke="none" d="M 14.5,5.5 C 14.8333,5.5 15.1667,5.5 15.5,5.5C 16.3715,8.06176 16.3715,10.7284 15.5,13.5C 16.5,13.5 17.5,13.5 18.5,13.5C 19.1667,13.5 19.5,13.8333 19.5,14.5C 17.8333,14.5 16.1667,14.5 14.5,14.5C 14.5,13.1667 14.5,11.8333 14.5,10.5C 14.5,8.83333 14.5,7.16667 14.5,5.5 Z"/></g>
<g><path opacity="1.0" stroke="none" d="M 15.5,5.5 C 17.1667,5.5 18.8333,5.5 20.5,5.5C 19.8902,6.39105 19.5569,7.39105 19.5,8.5C 18.8843,9.79778 18.8843,10.7978 19.5,11.5C 19.1667,12.1667 18.8333,12.8333 18.5,13.5C 17.5,13.5 16.5,13.5 15.5,13.5C 16.3715,10.7284 16.3715,8.06176 15.5,5.5 Z"/></g>
<g><path opacity="1.0" stroke="none" d="M 23.5,3.5 C 24.1667,3.5 24.8333,3.5 25.5,3.5C 27.3435,5.27887 28.0102,7.61221 27.5,10.5C 27.1583,11.3382 26.4916,11.6716 25.5,11.5C 25.5,11.1667 25.5,10.8333 25.5,10.5C 25.5,9.83333 25.1667,9.5 24.5,9.5C 24.6747,7.3792 24.3414,5.3792 23.5,3.5 Z"/></g>
<g><path opacity="1.0" stroke="none" d="M 25.5,3.5 C 25.5,3.16667 25.5,2.83333 25.5,2.5C 26.8333,2.5 28.1667,2.5 29.5,2.5C 28.9898,5.38779 29.6565,7.72113 31.5,9.5C 31.5,11.5 31.5,13.5 31.5,15.5C 31.1667,15.5 30.8333,15.5 30.5,15.5C 30.1667,15.5 29.8333,15.5 29.5,15.5C 29.8799,13.302 29.2132,11.6354 27.5,10.5C 28.0102,7.61221 27.3435,5.27887 25.5,3.5 Z"/></g>
<g><path opacity="1.0" stroke="none" d="M 10.5,7.5 C 11.1667,7.5 11.8333,7.5 12.5,7.5C 12.5,8.5 12.5,9.5 12.5,10.5C 12.5,11.5 12.5,12.5 12.5,13.5C 11.8333,13.1667 11.1667,12.8333 10.5,12.5C 10.5,10.8333 10.5,9.16667 10.5,7.5 Z"/></g>
<g><path opacity="1.0" stroke="none" d="M 19.5,8.5 C 20.8333,8.83333 22.1667,9.16667 23.5,9.5C 23.8333,9.5 24.1667,9.5 24.5,9.5C 25.1667,9.5 25.5,9.83333 25.5,10.5C 23.5648,11.1495 21.5648,11.4828 19.5,11.5C 18.8843,10.7978 18.8843,9.79778 19.5,8.5 Z"/></g>
<g><path opacity="1.0" stroke="none" d="M 25.5,10.5 C 25.5,10.8333 25.5,11.1667 25.5,11.5C 24.5525,12.9779 23.2191,13.9779 21.5,14.5C 20.8333,14.5 20.1667,14.5 19.5,14.5C 19.5,13.8333 19.1667,13.5 18.5,13.5C 18.8333,12.8333 19.1667,12.1667 19.5,11.5C 21.5648,11.4828 23.5648,11.1495 25.5,10.5 Z"/></g>
<g><path opacity="1.0" stroke="none" d="M 27.5,10.5 C 29.2132,11.6354 29.8799,13.302 29.5,15.5C 26.8333,15.1667 24.1667,14.8333 21.5,14.5C 23.2191,13.9779 24.5525,12.9779 25.5,11.5C 26.4916,11.6716 27.1583,11.3382 27.5,10.5 Z"/></g>
<g><path opacity="1.0" stroke="none" d="M 12.5,10.5 C 13.1667,10.5 13.8333,10.5 14.5,10.5C 14.5,11.8333 14.5,13.1667 14.5,14.5C 16.1667,14.5 17.8333,14.5 19.5,14.5C 20.1667,14.5 20.8333,14.5 21.5,14.5C 18.8333,15.1667 16.1667,15.8333 13.5,16.5C 13.5,18.1667 13.5,19.8333 13.5,21.5C 12.8333,21.5 12.5,21.1667 12.5,20.5C 12.5,18.1667 12.5,15.8333 12.5,13.5C 12.5,12.5 12.5,11.5 12.5,10.5 Z"/></g>
<g><path opacity="1.0" stroke="none" d="M 21.5,14.5 C 24.1667,14.8333 26.8333,15.1667 29.5,15.5C 29.8333,15.5 30.1667,15.5 30.5,15.5C 30.5,16.5 30.5,17.5 30.5,18.5C 27.9122,18.4567 25.7456,17.4567 24,15.5C 23.6012,15.7284 23.4346,16.0618 23.5,16.5C 20.1667,16.5 16.8333,16.5 13.5,16.5C 16.1667,15.8333 18.8333,15.1667 21.5,14.5 Z"/></g>
<g><path opacity="1.0" stroke="none" d="M 9.5,7.5 C 9.83333,7.5 10.1667,7.5 10.5,7.5C 10.5,9.16667 10.5,10.8333 10.5,12.5C 10.5,15.1667 10.5,17.8333 10.5,20.5C 10.6716,21.4916 10.3382,22.1583 9.5,22.5C 9.5,21.1667 9.5,19.8333 9.5,18.5C 8.47944,14.896 8.47944,11.2293 9.5,7.5 Z"/></g>
<g><path opacity="1.0" stroke="none" d="M 10.5,12.5 C 11.1667,12.8333 11.8333,13.1667 12.5,13.5C 12.5,15.8333 12.5,18.1667 12.5,20.5C 11.8333,20.5 11.1667,20.5 10.5,20.5C 10.5,17.8333 10.5,15.1667 10.5,12.5 Z"/></g>
<g><path opacity="1.0" stroke="none" d="M 13.5,16.5 C 16.8333,16.5 20.1667,16.5 23.5,16.5C 20.7131,17.4767 17.7131,17.81 14.5,17.5C 15.0115,20.0215 16.0115,22.3549 17.5,24.5C 16.391,24.4431 15.391,24.1098 14.5,23.5C 14.1667,22.8333 13.8333,22.1667 13.5,21.5C 13.5,19.8333 13.5,18.1667 13.5,16.5 Z"/></g>
<g><path opacity="1.0" stroke="none" d="M 9.5,18.5 C 9.5,19.8333 9.5,21.1667 9.5,22.5C 7.87841,23.1224 6.54508,24.1224 5.5,25.5C 4.83333,25.5 4.16667,25.5 3.5,25.5C 5.72276,23.4088 7.72276,21.0755 9.5,18.5 Z"/></g>
<g><path opacity="1.0" stroke="none" d="M 9.5,22.5 C 9.51234,25.142 8.17901,26.4754 5.5,26.5C 5.5,26.1667 5.5,25.8333 5.5,25.5C 6.54508,24.1224 7.87841,23.1224 9.5,22.5 Z"/></g>
<g><path opacity="1.0" stroke="none" d="M 10.5,20.5 C 11.1667,20.5 11.8333,20.5 12.5,20.5C 12.5,21.1667 12.8333,21.5 13.5,21.5C 13.8333,22.1667 14.1667,22.8333 14.5,23.5C 15.038,25.1172 15.3713,26.7839 15.5,28.5C 12.8333,28.5 10.1667,28.5 7.5,28.5C 6.32496,28.719 5.32496,28.3857 4.5,27.5C 4.62358,26.8933 4.95691,26.56 5.5,26.5C 8.17901,26.4754 9.51234,25.142 9.5,22.5C 10.3382,22.1583 10.6716,21.4916 10.5,20.5 Z"/></g>
<g><path opacity="1.0" stroke="none" d="M 14.5,23.5 C 15.391,24.1098 16.391,24.4431 17.5,24.5C 18.1408,25.4822 18.8075,26.4822 19.5,27.5C 19.1667,27.8333 18.8333,28.1667 18.5,28.5C 14.9062,29.4259 11.2396,29.7592 7.5,29.5C 7.5,29.1667 7.5,28.8333 7.5,28.5C 10.1667,28.5 12.8333,28.5 15.5,28.5C 15.3713,26.7839 15.038,25.1172 14.5,23.5 Z"/></g>
<g><path opacity="1.0" stroke="none" d="M 3.5,25.5 C 4.16667,25.5 4.83333,25.5 5.5,25.5C 5.5,25.8333 5.5,26.1667 5.5,26.5C 4.95691,26.56 4.62358,26.8933 4.5,27.5C 5.32496,28.3857 6.32496,28.719 7.5,28.5C 7.5,28.8333 7.5,29.1667 7.5,29.5C 5.90097,29.2322 4.56764,29.5655 3.5,30.5C 2.66175,30.8417 2.32842,31.5084 2.5,32.5C 1.83333,32.5 1.16667,32.5 0.5,32.5C 0.36596,30.7085 0.699293,29.0418 1.5,27.5C 1.83333,26.5 2.5,25.8333 3.5,25.5 Z"/></g>
<g><path opacity="1.0" stroke="none" d="M 17.5,24.5 C 20.204,24.6696 21.8707,26.0029 22.5,28.5C 22.7678,30.099 22.4345,31.4324 21.5,32.5C 21.719,31.325 21.3857,30.325 20.5,29.5C 19.2638,30.2458 17.9305,30.5792 16.5,30.5C 13.5,30.5 10.5,30.5 7.5,30.5C 6.16667,30.5 4.83333,30.5 3.5,30.5C 4.56764,29.5655 5.90097,29.2322 7.5,29.5C 11.2396,29.7592 14.9062,29.4259 18.5,28.5C 18.8333,28.1667 19.1667,27.8333 19.5,27.5C 18.8075,26.4822 18.1408,25.4822 17.5,24.5 Z"/></g>
<g><path opacity="1.0" stroke="none" d="M -0.5,27.5 C 0.166667,27.5 0.833333,27.5 1.5,27.5C 0.699293,29.0418 0.36596,30.7085 0.5,32.5C 0.166667,32.5 -0.166667,32.5 -0.5,32.5C -0.5,30.8333 -0.5,29.1667 -0.5,27.5 Z"/></g>
<g><path opacity="1.0" stroke="none" d="M 3.5,30.5 C 4.83333,30.5 6.16667,30.5 7.5,30.5C 9.16667,31.1667 10.8333,31.8333 12.5,32.5C 9.16667,32.5 5.83333,32.5 2.5,32.5C 2.32842,31.5084 2.66175,30.8417 3.5,30.5 Z"/></g>
<g><path opacity="1.0" stroke="none" d="M 7.5,30.5 C 10.5,30.5 13.5,30.5 16.5,30.5C 15.5,31.1667 14.5,31.8333 13.5,32.5C 13.1667,32.5 12.8333,32.5 12.5,32.5C 10.8333,31.8333 9.16667,31.1667 7.5,30.5 Z"/></g>
<g><path opacity="1.0" stroke="none" d="M 21.5,32.5 C 21.1667,32.5 20.8333,32.5 20.5,32.5C 18.1667,32.5 15.8333,32.5 13.5,32.5C 14.5,31.8333 15.5,31.1667 16.5,30.5C 17.9305,30.5792 19.2638,30.2458 20.5,29.5C 21.3857,30.325 21.719,31.325 21.5,32.5 Z"/></g>
<g><path opacity="1.0" stroke="none" d="M 22.5,28.5 C 23.4511,29.9187 23.7845,31.5853 23.5,33.5C 22.5,33.5 21.5,33.5 20.5,33.5C 20.5,33.1667 20.5,32.8333 20.5,32.5C 20.8333,32.5 21.1667,32.5 21.5,32.5C 22.4345,31.4324 22.7678,30.099 22.5,28.5 Z"/></g>
<g><path opacity="1.0" stroke="none" d="M 0.5,32.5 C 1.16667,32.5 1.83333,32.5 2.5,32.5C 5.83333,32.5 9.16667,32.5 12.5,32.5C 12.8333,32.5 13.1667,32.5 13.5,32.5C 15.8333,32.5 18.1667,32.5 20.5,32.5C 20.5,32.8333 20.5,33.1667 20.5,33.5C 14.6812,34.6525 8.6812,34.8192 2.5,34C 1.5842,33.7216 0.917533,33.2216 0.5,32.5 Z"/></g>
<g><path opacity="1.0" stroke="none" d="M 21.5,50.5 C 21.7352,49.9033 22.2352,49.5699 23,49.5C 25.0299,49.9537 26.8632,50.6204 28.5,51.5C 26.0971,51.552 23.7638,51.2186 21.5,50.5 Z"/></g>
<g><path opacity="1.0" stroke="none" d="M 11.5,48.5 C 11.7352,47.9033 12.2352,47.5699 13,47.5C 14.987,49.6283 17.487,50.6283 20.5,50.5C 20.5,50.8333 20.5,51.1667 20.5,51.5C 17.7892,51.8151 15.4559,51.1484 13.5,49.5C 13.1583,48.6618 12.4916,48.3284 11.5,48.5 Z"/></g>
<g><path opacity="1.0" stroke="none" d="M 12.5,49.5 C 12.5,50.8333 12.5,52.1667 12.5,53.5C 11.8333,54.5 11.1667,55.5 10.5,56.5C 9.98983,53.6122 10.6565,51.2789 12.5,49.5 Z"/></g>
<g><path opacity="1.0" stroke="none" d="M 12.5,49.5 C 12.8333,49.5 13.1667,49.5 13.5,49.5C 15.4559,51.1484 17.7892,51.8151 20.5,51.5C 19.791,52.404 18.791,52.7373 17.5,52.5C 16.8333,52.5 16.1667,52.5 15.5,52.5C 14.6618,52.8417 14.3284,53.5084 14.5,54.5C 13.8333,54.5 13.1667,54.5 12.5,54.5C 12.5,54.1667 12.5,53.8333 12.5,53.5C 12.5,52.1667 12.5,50.8333 12.5,49.5 Z"/></g>
<g><path opacity="1.0" stroke="none" d="M 10.5,48.5 C 9.62356,48.3691 8.95689,48.7025 8.5,49.5C 9.37422,51.7466 9.70755,54.0799 9.5,56.5C 9.5,56.8333 9.5,57.1667 9.5,57.5C 8.41925,54.3733 7.75258,51.0399 7.5,47.5C 8.79105,47.2627 9.79105,47.596 10.5,48.5 Z"/></g>
<g><path opacity="1.0" stroke="none" d="M 10.5,48.5 C 10.8333,48.5 11.1667,48.5 11.5,48.5C 12.4916,48.3284 13.1583,48.6618 13.5,49.5C 13.1667,49.5 12.8333,49.5 12.5,49.5C 10.6565,51.2789 9.98983,53.6122 10.5,56.5C 10.1667,56.5 9.83333,56.5 9.5,56.5C 9.70755,54.0799 9.37422,51.7466 8.5,49.5C 8.95689,48.7025 9.62356,48.3691 10.5,48.5 Z"/></g>
<g><path opacity="1.0" stroke="none" d="M 20.5,51.5 C 21.4916,51.3284 22.1583,51.6618 22.5,52.5C 20.8739,54.2432 18.8739,54.7432 16.5,54C 17.056,53.6174 17.3893,53.1174 17.5,52.5C 18.791,52.7373 19.791,52.404 20.5,51.5 Z"/></g>
<g><path opacity="1.0" stroke="none" d="M 15.5,52.5 C 16.1667,52.5 16.8333,52.5 17.5,52.5C 17.3893,53.1174 17.056,53.6174 16.5,54C 18.8739,54.7432 20.8739,54.2432 22.5,52.5C 23.5,52.5 24.5,52.5 25.5,52.5C 26.038,54.1172 26.3713,55.7839 26.5,57.5C 25.448,57.3505 24.448,57.5172 23.5,58C 24.2524,58.6708 24.5858,59.5041 24.5,60.5C 23.5,60.5 22.5,60.5 21.5,60.5C 22.4935,58.1457 21.4935,57.1457 18.5,57.5C 18.3068,61.449 17.8068,61.449 17,57.5C 16.51,58.7932 16.3433,60.1266 16.5,61.5C 15.5233,58.7131 15.19,55.7131 15.5,52.5 Z"/></g>
<g><path opacity="1.0" stroke="none" d="M 20.5,51.5 C 20.5,51.1667 20.5,50.8333 20.5,50.5C 20.8333,50.5 21.1667,50.5 21.5,50.5C 23.7638,51.2186 26.0971,51.552 28.5,51.5C 29.4682,53.6074 29.8016,55.9407 29.5,58.5C 28.8333,58.5 28.1667,58.5 27.5,58.5C 27.9746,55.9179 27.3079,53.9179 25.5,52.5C 24.5,52.5 23.5,52.5 22.5,52.5C 22.1583,51.6618 21.4916,51.3284 20.5,51.5 Z"/></g>
<g><path opacity="1.0" stroke="none" d="M 12.5,54.5 C 13.1667,54.5 13.8333,54.5 14.5,54.5C 14.5,56.1667 14.5,57.8333 14.5,59.5C 13.8333,59.8333 13.1667,60.1667 12.5,60.5C 12.5,58.5 12.5,56.5 12.5,54.5 Z"/></g>
<g><path opacity="1.0" stroke="none" d="M 15.5,52.5 C 15.19,55.7131 15.5233,58.7131 16.5,61.5C 16.8333,61.5 17.1667,61.5 17.5,61.5C 17.5,61.8333 17.5,62.1667 17.5,62.5C 16.5,62.5 15.5,62.5 14.5,62.5C 14.5,61.5 14.5,60.5 14.5,59.5C 14.5,57.8333 14.5,56.1667 14.5,54.5C 14.3284,53.5084 14.6618,52.8417 15.5,52.5 Z"/></g>
<g><path opacity="1.0" stroke="none" d="M 9.5,56.5 C 9.83333,56.5 10.1667,56.5 10.5,56.5C 10.5,57.5 10.5,58.5 10.5,59.5C 10.5,62.5 10.5,65.5 10.5,68.5C 10.5,69.1667 10.5,69.8333 10.5,70.5C 10.1667,71.5 9.5,72.1667 8.5,72.5C 9.038,70.8828 9.37133,69.2161 9.5,67.5C 8.25252,64.1328 8.25252,60.7995 9.5,57.5C 9.5,57.1667 9.5,56.8333 9.5,56.5 Z"/></g>
<g><path opacity="1.0" stroke="none" d="M 12.5,53.5 C 12.5,53.8333 12.5,54.1667 12.5,54.5C 12.5,56.5 12.5,58.5 12.5,60.5C 11.8333,60.1667 11.1667,59.8333 10.5,59.5C 10.5,58.5 10.5,57.5 10.5,56.5C 11.1667,55.5 11.8333,54.5 12.5,53.5 Z"/></g>
<g><path opacity="1.0" stroke="none" d="M 21.5,60.5 C 20.4324,61.4345 19.099,61.7678 17.5,61.5C 17.1667,61.5 16.8333,61.5 16.5,61.5C 16.3433,60.1266 16.51,58.7932 17,57.5C 17.8068,61.449 18.3068,61.449 18.5,57.5C 21.4935,57.1457 22.4935,58.1457 21.5,60.5 Z"/></g>
<g><path opacity="1.0" stroke="none" d="M 25.5,52.5 C 27.3079,53.9179 27.9746,55.9179 27.5,58.5C 27.5,58.8333 27.5,59.1667 27.5,59.5C 26.609,60.1098 25.609,60.4431 24.5,60.5C 24.5858,59.5041 24.2524,58.6708 23.5,58C 24.448,57.5172 25.448,57.3505 26.5,57.5C 26.3713,55.7839 26.038,54.1172 25.5,52.5 Z"/></g>
<g><path opacity="1.0" stroke="none" d="M 14.5,59.5 C 14.5,60.5 14.5,61.5 14.5,62.5C 15.5,62.5 16.5,62.5 17.5,62.5C 20.1667,62.5 22.8333,62.5 25.5,62.5C 25.5,62.8333 25.5,63.1667 25.5,63.5C 21.0293,62.9106 17.0293,63.5772 13.5,65.5C 13.5,66.1667 13.5,66.8333 13.5,67.5C 13.5,68.1667 13.5,68.8333 13.5,69.5C 12.8333,69.5 12.5,69.1667 12.5,68.5C 12.5,65.8333 12.5,63.1667 12.5,60.5C 13.1667,60.1667 13.8333,59.8333 14.5,59.5 Z"/></g>
<g><path opacity="1.0" stroke="none" d="M 27.5,59.5 C 27.573,61.0269 26.9063,62.0269 25.5,62.5C 22.8333,62.5 20.1667,62.5 17.5,62.5C 17.5,62.1667 17.5,61.8333 17.5,61.5C 19.099,61.7678 20.4324,61.4345 21.5,60.5C 22.5,60.5 23.5,60.5 24.5,60.5C 25.609,60.4431 26.609,60.1098 27.5,59.5 Z"/></g>
<g><path opacity="1.0" stroke="none" d="M 27.5,58.5 C 28.1667,58.5 28.8333,58.5 29.5,58.5C 29.5,60.5 29.5,62.5 29.5,64.5C 28.1667,64.5 26.8333,64.5 25.5,64.5C 25.5,64.1667 25.5,63.8333 25.5,63.5C 25.5,63.1667 25.5,62.8333 25.5,62.5C 26.9063,62.0269 27.573,61.0269 27.5,59.5C 27.5,59.1667 27.5,58.8333 27.5,58.5 Z"/></g>
<g><path opacity="1.0" stroke="none" d="M 25.5,63.5 C 25.5,63.8333 25.5,64.1667 25.5,64.5C 21.4557,65.1328 17.4557,65.4661 13.5,65.5C 17.0293,63.5772 21.0293,62.9106 25.5,63.5 Z"/></g>
<g><path opacity="1.0" stroke="none" d="M 29.5,58.5 C 30.1667,58.5 30.8333,58.5 31.5,58.5C 31.5,59.5 31.5,60.5 31.5,61.5C 30.1667,61.8333 30.1667,62.1667 31.5,62.5C 31.5,63.5 31.5,64.5 31.5,65.5C 29.2646,65.7947 27.2646,65.4614 25.5,64.5C 26.8333,64.5 28.1667,64.5 29.5,64.5C 29.5,62.5 29.5,60.5 29.5,58.5 Z"/></g>
<g><path opacity="1.0" stroke="none" d="M 10.5,59.5 C 11.1667,59.8333 11.8333,60.1667 12.5,60.5C 12.5,63.1667 12.5,65.8333 12.5,68.5C 11.8333,68.5 11.1667,68.5 10.5,68.5C 10.5,65.5 10.5,62.5 10.5,59.5 Z"/></g>
<g><path opacity="1.0" stroke="none" d="M 10.5,68.5 C 11.1667,68.5 11.8333,68.5 12.5,68.5C 12.5,69.1667 12.8333,69.5 13.5,69.5C 13.3284,70.4916 13.6618,71.1583 14.5,71.5C 14.5,72.1667 14.5,72.8333 14.5,73.5C 12.8595,72.853 11.5261,71.853 10.5,70.5C 10.5,69.8333 10.5,69.1667 10.5,68.5 Z"/></g>
<g><path opacity="1.0" stroke="none" d="M 13.5,67.5 C 14.6737,68.5137 15.3404,69.847 15.5,71.5C 15.1667,71.5 14.8333,71.5 14.5,71.5C 13.6618,71.1583 13.3284,70.4916 13.5,69.5C 13.5,68.8333 13.5,68.1667 13.5,67.5 Z"/></g>
<g><path opacity="1.0" stroke="none" d="M 15.5,71.5 C 20.2306,71.5251 22.8973,73.8585 23.5,78.5C 22.5,77.1667 21.5,75.8333 20.5,74.5C 18.8869,73.3077 17.2202,72.3077 15.5,71.5 Z"/></g>
<g><path opacity="1.0" stroke="none" d="M 9.5,67.5 C 9.37133,69.2161 9.038,70.8828 8.5,72.5C 6.83333,73.1667 5.16667,73.8333 3.5,74.5C 3.5,73.8333 3.5,73.1667 3.5,72.5C 4.55198,72.6495 5.55198,72.4828 6.5,72C 7.05273,70.1222 8.05273,68.6222 9.5,67.5 Z"/></g>
<g><path opacity="1.0" stroke="none" d="M 3.5,72.5 C 3.5,73.1667 3.5,73.8333 3.5,74.5C 3.16667,74.5 2.83333,74.5 2.5,74.5C 1.83333,74.8333 1.16667,75.1667 0.5,75.5C 0.810179,73.8564 1.81018,72.8564 3.5,72.5 Z"/></g>
<g><path opacity="1.0" stroke="none" d="M 10.5,70.5 C 11.5261,71.853 12.8595,72.853 14.5,73.5C 14.5,73.8333 14.5,74.1667 14.5,74.5C 12.5,75.8333 10.5,75.8333 8.5,74.5C 8.5,73.8333 8.5,73.1667 8.5,72.5C 9.5,72.1667 10.1667,71.5 10.5,70.5 Z"/></g>
<g><path opacity="1.0" stroke="none" d="M 14.5,71.5 C 14.8333,71.5 15.1667,71.5 15.5,71.5C 17.2202,72.3077 18.8869,73.3077 20.5,74.5C 20.6716,75.4916 20.3382,76.1583 19.5,76.5C 18.0697,75.4625 16.403,74.7959 14.5,74.5C 14.5,74.1667 14.5,73.8333 14.5,73.5C 14.5,72.8333 14.5,72.1667 14.5,71.5 Z"/></g>
<g><path opacity="1.0" stroke="none" d="M 8.5,74.5 C 10.5,75.8333 12.5,75.8333 14.5,74.5C 16.403,74.7959 18.0697,75.4625 19.5,76.5C 19.1667,76.5 18.8333,76.5 18.5,76.5C 18.1667,76.5 17.8333,76.5 17.5,76.5C 13.1539,76.6657 8.82056,76.499 4.5,76C 5.56341,74.8118 6.89674,74.3118 8.5,74.5 Z"/></g>
<g><path opacity="1.0" stroke="none" d="M 2.5,74.5 C 3.62665,76.9167 3.62665,78.9167 2.5,80.5C 3.16667,80.5 3.83333,80.5 4.5,80.5C 4.5,81.1667 4.83333,81.5 5.5,81.5C 5.5,81.8333 5.5,82.1667 5.5,82.5C 3.88277,81.962 2.2161,81.6287 0.5,81.5C 0.737305,80.209 0.403972,79.209 -0.5,78.5C -0.5,78.1667 -0.5,77.8333 -0.5,77.5C 0.338246,77.1583 0.67158,76.4916 0.5,75.5C 1.16667,75.1667 1.83333,74.8333 2.5,74.5 Z"/></g>
<g><path opacity="1.0" stroke="none" d="M 8.5,72.5 C 8.5,73.1667 8.5,73.8333 8.5,74.5C 6.89674,74.3118 5.56341,74.8118 4.5,76C 8.82056,76.499 13.1539,76.6657 17.5,76.5C 14.5234,76.9016 11.8567,77.9016 9.5,79.5C 6.9407,79.1984 4.60737,79.5318 2.5,80.5C 3.62665,78.9167 3.62665,76.9167 2.5,74.5C 2.83333,74.5 3.16667,74.5 3.5,74.5C 5.16667,73.8333 6.83333,73.1667 8.5,72.5 Z"/></g>
<g><path opacity="1.0" stroke="none" d="M 17.5,76.5 C 17.8333,76.5 18.1667,76.5 18.5,76.5C 18.8417,77.3382 19.5084,77.6716 20.5,77.5C 17.1244,79.0823 13.4578,79.7489 9.5,79.5C 11.8567,77.9016 14.5234,76.9016 17.5,76.5 Z"/></g>
<g><path opacity="1.0" stroke="none" d="M 20.5,77.5 C 21.625,78.3478 21.625,79.3478 20.5,80.5C 15.1667,80.5 9.83333,80.5 4.5,80.5C 3.83333,80.5 3.16667,80.5 2.5,80.5C 4.60737,79.5318 6.9407,79.1984 9.5,79.5C 13.4578,79.7489 17.1244,79.0823 20.5,77.5 Z"/></g>
<g><path opacity="1.0" stroke="none" d="M 4.5,80.5 C 9.83333,80.5 15.1667,80.5 20.5,80.5C 20.5,80.8333 20.5,81.1667 20.5,81.5C 19.2905,81.9321 18.2905,82.5987 17.5,83.5C 17.1667,83.5 16.8333,83.5 16.5,83.5C 16.5,82.1667 15.8333,81.5 14.5,81.5C 11.5,81.5 8.5,81.5 5.5,81.5C 4.83333,81.5 4.5,81.1667 4.5,80.5 Z"/></g>
<g><path opacity="1.0" stroke="none" d="M 20.5,74.5 C 21.5,75.8333 22.5,77.1667 23.5,78.5C 23.1436,80.1898 22.1436,81.1898 20.5,81.5C 20.5,81.1667 20.5,80.8333 20.5,80.5C 21.625,79.3478 21.625,78.3478 20.5,77.5C 19.5084,77.6716 18.8417,77.3382 18.5,76.5C 18.8333,76.5 19.1667,76.5 19.5,76.5C 20.3382,76.1583 20.6716,75.4916 20.5,74.5 Z"/></g>
<g><path opacity="1.0" stroke="none" d="M 5.5,82.5 C 5.5,82.1667 5.5,81.8333 5.5,81.5C 8.5,81.5 11.5,81.5 14.5,81.5C 14.1667,82.1667 13.8333,82.8333 13.5,83.5C 11.8333,83.5 10.1667,83.5 8.5,83.5C 7.79105,82.596 6.79105,82.2627 5.5,82.5 Z"/></g>
<g><path opacity="1.0" stroke="none" d="M 14.5,81.5 C 15.8333,81.5 16.5,82.1667 16.5,83.5C 15.5,83.5 14.5,83.5 13.5,83.5C 13.8333,82.8333 14.1667,82.1667 14.5,81.5 Z"/></g>
</svg>
