<?xml version="1.0" encoding="UTF-8"?>
<!DOCTYPE svg PUBLIC "-//W3C//DTD SVG 1.1//EN" "http://www.w3.org/Graphics/SVG/1.1/DTD/svg11.dtd">
<svg xmlns="http://www.w3.org/2000/svg" version="1.1" width="100%" viewBox="0 0 39 44" style="shape-rendering:geometricPrecision; text-rendering:geometricPrecision; image-rendering:optimizeQuality; fill-rule:evenodd; clip-rule:evenodd" xmlns:xlink="http://www.w3.org/1999/xlink">
<g><path style="opacity:0.688" fill="#f4f3f3" d="M 10.5,-0.5 C 13.5,-0.5 16.5,-0.5 19.5,-0.5C 22.228,1.63108 25.3946,2.96441 29,3.5C 32.8814,0.513463 35.7147,1.3468 37.5,6C 36.2665,10.3872 36.5998,14.5539 38.5,18.5C 38.5,19.1667 38.5,19.8333 38.5,20.5C 37.3734,21.1217 36.3734,21.955 35.5,23C 30.493,24.3418 25.493,24.6751 20.5,24C 23.3747,26.0311 26.2081,28.1978 29,30.5C 33.5102,38.8298 31.0102,43.1631 21.5,43.5C 19.1667,43.5 16.8333,43.5 14.5,43.5C 11.3586,42.6787 8.02523,42.1787 4.5,42C 2.54826,41.6339 0.88159,40.8005 -0.5,39.5C -0.5,37.5 -0.5,35.5 -0.5,33.5C 1.35318,29.2259 4.68651,26.8926 9.5,26.5C 9.76475,19.1292 9.43142,11.7959 8.5,4.5C 8.90244,2.69982 9.56911,1.03315 10.5,-0.5 Z"/></g>
<g><path style="opacity:1" fill="#422a19" d="M 19.5,4.5 C 24.5086,5.72505 29.5086,5.72505 34.5,4.5C 34.3243,9.87971 34.6576,15.213 35.5,20.5C 33.5,20.5 31.5,20.5 29.5,20.5C 29.5,20.1667 29.5,19.8333 29.5,19.5C 30.8333,19.5 32.1667,19.5 33.5,19.5C 33.0375,14.8376 32.5375,10.1709 32,5.5C 31.196,6.80449 30.0293,7.47116 28.5,7.5C 25.5514,6.69779 22.5514,6.36446 19.5,6.5C 19.5,5.83333 19.5,5.16667 19.5,4.5 Z"/></g>
<g><path style="opacity:1" fill="#f3a55b" d="M 19.5,6.5 C 22.5514,6.36446 25.5514,6.69779 28.5,7.5C 30.0293,7.47116 31.196,6.80449 32,5.5C 32.5375,10.1709 33.0375,14.8376 33.5,19.5C 32.1667,19.5 30.8333,19.5 29.5,19.5C 29.6697,16.7338 30.3364,14.0672 31.5,11.5C 31.1667,10.5 30.8333,9.5 30.5,8.5C 29.376,9.91399 28.376,11.414 27.5,13C 25.8659,13.4935 24.1992,13.6602 22.5,13.5C 22.5,14.8333 22.5,16.1667 22.5,17.5C 21.8333,17.5 21.5,17.8333 21.5,18.5C 17.352,18.8338 15.6853,21.1672 16.5,25.5C 16.6309,26.3764 16.2975,27.0431 15.5,27.5C 14.6143,26.675 14.281,25.675 14.5,24.5C 14.6662,18.4908 14.4995,12.4908 14,6.5C 12.5108,5.57613 12.3441,4.57613 13.5,3.5C 14.8159,6.02797 15.9826,6.02797 17,3.5C 17.6838,4.78387 17.5171,5.95054 16.5,7C 17.7494,7.74012 18.7494,7.57346 19.5,6.5 Z"/></g>
<g><path style="opacity:1" fill="#f4851e" d="M 29.5,19.5 C 27.0194,19.6766 25.1861,18.6766 24,16.5C 23.6174,17.056 23.1174,17.3893 22.5,17.5C 22.5,16.1667 22.5,14.8333 22.5,13.5C 24.1992,13.6602 25.8659,13.4935 27.5,13C 28.376,11.414 29.376,9.91399 30.5,8.5C 30.8333,9.5 31.1667,10.5 31.5,11.5C 30.3364,14.0672 29.6697,16.7338 29.5,19.5 Z"/></g>
<g><path style="opacity:1" fill="#9b591a" d="M 29.5,19.5 C 29.5,19.8333 29.5,20.1667 29.5,20.5C 26.5794,20.7174 23.9128,20.0507 21.5,18.5C 21.5,17.8333 21.8333,17.5 22.5,17.5C 23.1174,17.3893 23.6174,17.056 24,16.5C 25.1861,18.6766 27.0194,19.6766 29.5,19.5 Z"/></g>
<g><path style="opacity:1" fill="#372214" d="M 19.5,4.5 C 19.5,5.16667 19.5,5.83333 19.5,6.5C 18.7494,7.57346 17.7494,7.74012 16.5,7C 17.5171,5.95054 17.6838,4.78387 17,3.5C 15.9826,6.02797 14.8159,6.02797 13.5,3.5C 12.3441,4.57613 12.5108,5.57613 14,6.5C 14.4995,12.4908 14.6662,18.4908 14.5,24.5C 13.2745,25.937 12.2745,27.6036 11.5,29.5C 9.25487,30.2082 7.25487,31.2082 5.5,32.5C 3.99225,34.1708 3.65892,36.0041 4.5,38C 11.4921,38.4996 18.4921,38.6663 25.5,38.5C 26.4778,38.189 27.1445,37.5223 27.5,36.5C 26.5923,32.3339 23.9256,30.1672 19.5,30C 18.2189,28.5913 17.2189,27.0913 16.5,25.5C 15.6853,21.1672 17.352,18.8338 21.5,18.5C 23.9128,20.0507 26.5794,20.7174 29.5,20.5C 25.9943,21.498 22.3276,21.498 18.5,20.5C 18.5751,23.2062 18.9084,25.8728 19.5,28.5C 24.7261,28.7819 28.0594,31.4486 29.5,36.5C 28.6872,37.8139 27.6872,38.9805 26.5,40C 18.7682,40.8561 11.1016,40.5228 3.5,39C 0.993748,36.451 1.16041,33.951 4,31.5C 5.79976,29.683 7.96642,28.5163 10.5,28C 11.1258,27.2496 11.6258,26.4162 12,25.5C 12.6912,17.8053 12.5246,10.1387 11.5,2.5C 14.6981,1.96438 17.3647,2.63105 19.5,4.5 Z"/></g>
<g><path style="opacity:1" fill="#a76219" d="M 14.5,24.5 C 14.281,25.675 14.6143,26.675 15.5,27.5C 16.2975,27.0431 16.6309,26.3764 16.5,25.5C 17.2189,27.0913 18.2189,28.5913 19.5,30C 23.9256,30.1672 26.5923,32.3339 27.5,36.5C 27.1445,37.5223 26.4778,38.189 25.5,38.5C 24.4479,36.744 22.7812,36.0773 20.5,36.5C 20.3068,32.551 19.8068,32.551 19,36.5C 18.3333,32.5 17.6667,32.5 17,36.5C 16.3333,32.5 15.6667,32.5 15,36.5C 14.3333,35.1667 13.6667,35.1667 13,36.5C 12.6411,33.4557 11.9745,33.1224 11,35.5C 9.65445,33.6583 7.82112,32.6583 5.5,32.5C 7.25487,31.2082 9.25487,30.2082 11.5,29.5C 12.2745,27.6036 13.2745,25.937 14.5,24.5 Z"/></g>
<g><path style="opacity:1" fill="#d58f4a" d="M 5.5,32.5 C 7.82112,32.6583 9.65445,33.6583 11,35.5C 11.9745,33.1224 12.6411,33.4557 13,36.5C 13.6667,35.1667 14.3333,35.1667 15,36.5C 15.6667,32.5 16.3333,32.5 17,36.5C 17.6667,32.5 18.3333,32.5 19,36.5C 19.8068,32.551 20.3068,32.551 20.5,36.5C 22.7812,36.0773 24.4479,36.744 25.5,38.5C 18.4921,38.6663 11.4921,38.4996 4.5,38C 3.65892,36.0041 3.99225,34.1708 5.5,32.5 Z"/></g>
</svg>
