<?xml version="1.0" encoding="UTF-8"?>
<!DOCTYPE svg PUBLIC "-//W3C//DTD SVG 1.1//EN" "http://www.w3.org/Graphics/SVG/1.1/DTD/svg11.dtd">
<svg xmlns="http://www.w3.org/2000/svg" version="1.1" width="100%" viewBox="0 0 44 44" style="shape-rendering:geometricPrecision; text-rendering:geometricPrecision; image-rendering:optimizeQuality; fill-rule:evenodd; clip-rule:evenodd" xmlns:xlink="http://www.w3.org/1999/xlink">
<g><path style="opacity:0.622" fill="#efeeee" d="M 17.5,-0.5 C 20.1667,-0.5 22.8333,-0.5 25.5,-0.5C 29.3116,3.01946 33.9783,4.51946 39.5,4C 41.3502,4.68972 42.6836,5.85639 43.5,7.5C 43.5,10.8333 43.5,14.1667 43.5,17.5C 41.4384,21.5516 38.1051,23.5516 33.5,23.5C 34.4496,26.0679 34.4496,28.5679 33.5,31C 37.3191,34.7512 37.9858,38.9179 35.5,43.5C 26.1667,43.5 16.8333,43.5 7.5,43.5C 5.22469,39.0161 5.89136,34.8494 9.5,31C 8.55037,28.5679 8.55037,26.0679 9.5,23.5C 4.89493,23.5516 1.5616,21.5516 -0.5,17.5C -0.5,14.1667 -0.5,10.8333 -0.5,7.5C 0.316435,5.85639 1.64977,4.68972 3.5,4C 9.02171,4.51946 13.6884,3.01946 17.5,-0.5 Z"/></g>
<g><path style="opacity:1" fill="#8f4720" d="M 39.5,17.5 C 36.1538,19.3236 32.4872,19.9903 28.5,19.5C 28.5,19.1667 28.5,18.8333 28.5,18.5C 31.6041,19.0289 33.9375,18.0289 35.5,15.5C 35,15.1667 34.5,14.8333 34,14.5C 29.2483,14.169 24.415,14.169 19.5,14.5C 21.5,14.5 23.5,14.5 25.5,14.5C 25.8342,11.812 25.1675,9.47865 23.5,7.5C 24.1515,6.90935 24.8182,6.24269 25.5,5.5C 26.2978,7.07774 26.7978,8.7444 27,10.5C 27.5,10 28,9.5 28.5,9C 31.8333,8.33333 35.1667,8.33333 38.5,9C 39.4438,11.7191 39.7771,14.5525 39.5,17.5 Z"/></g>
<g><path style="opacity:1" fill="#863e18" d="M 23.5,7.5 C 20.1216,6.89108 18.1216,8.22441 17.5,11.5C 14.3646,13.2144 11.0313,14.5477 7.5,15.5C 9.41776,18.1059 12.0844,19.1059 15.5,18.5C 15.5,18.8333 15.5,19.1667 15.5,19.5C 5.59379,22.0916 1.92713,18.5916 4.5,9C 7.83333,8.33333 11.1667,8.33333 14.5,9C 15,9.5 15.5,10 16,10.5C 16.4935,8.86586 16.6602,7.19919 16.5,5.5C 18.8056,5.00745 21.139,4.67412 23.5,4.5C 23.5,5.5 23.5,6.5 23.5,7.5 Z"/></g>
<g><path style="opacity:1" fill="#34221c" d="M 39.5,17.5 C 39.7771,14.5525 39.4438,11.7191 38.5,9C 35.1667,8.33333 31.8333,8.33333 28.5,9C 28,9.5 27.5,10 27,10.5C 26.7978,8.7444 26.2978,7.07774 25.5,5.5C 24.8182,6.24269 24.1515,6.90935 23.5,7.5C 23.5,6.5 23.5,5.5 23.5,4.5C 21.139,4.67412 18.8056,5.00745 16.5,5.5C 16.6602,7.19919 16.4935,8.86586 16,10.5C 15.5,10 15,9.5 14.5,9C 11.1667,8.33333 7.83333,8.33333 4.5,9C 1.92713,18.5916 5.59379,22.0916 15.5,19.5C 13.2513,23.2418 12.5846,27.2418 13.5,31.5C 11.6386,33.7454 10.6386,36.4121 10.5,39.5C 13.1873,39.6641 15.854,39.4974 18.5,39C 17.1667,38 17.1667,37 18.5,36C 17.6195,35.2917 16.9528,34.4584 16.5,33.5C 17.1667,32.8333 17.8333,32.1667 18.5,31.5C 19.1587,34.4552 19.4921,37.4552 19.5,40.5C 15.8333,40.5 12.1667,40.5 8.5,40.5C 10.8492,34.2248 12.1825,27.5581 12.5,20.5C 3.555,21.3016 0.221669,17.3016 2.5,8.5C 3.30806,8.19238 3.97473,7.69238 4.5,7C 8.21098,6.82528 11.8776,6.32528 15.5,5.5C 19.5,1.5 23.5,1.5 27.5,5.5C 31.1224,6.32528 34.789,6.82528 38.5,7C 41.2646,9.55251 42.0979,12.7192 41,16.5C 40.6174,17.056 40.1174,17.3893 39.5,17.5 Z"/></g>
<g><path style="opacity:1" fill="#d98e5c" d="M 23.5,7.5 C 25.1675,9.47865 25.8342,11.812 25.5,14.5C 23.5,14.5 21.5,14.5 19.5,14.5C 17.9519,14.1788 17.2852,13.1788 17.5,11.5C 18.1216,8.22441 20.1216,6.89108 23.5,7.5 Z"/></g>
<g><path style="opacity:1" fill="#d87434" d="M 17.5,11.5 C 17.2852,13.1788 17.9519,14.1788 19.5,14.5C 24.415,14.169 29.2483,14.169 34,14.5C 34.5,14.8333 35,15.1667 35.5,15.5C 33.9375,18.0289 31.6041,19.0289 28.5,18.5C 24.1348,17.2271 19.8015,17.2271 15.5,18.5C 12.0844,19.1059 9.41776,18.1059 7.5,15.5C 11.0313,14.5477 14.3646,13.2144 17.5,11.5 Z"/></g>
<g><path style="opacity:1" fill="#ae5420" d="M 28.5,18.5 C 28.5,18.8333 28.5,19.1667 28.5,19.5C 28.0618,19.4346 27.7284,19.6012 27.5,20C 28.5156,20.5194 29.1822,21.3527 29.5,22.5C 28.9315,25.4116 28.9315,28.4116 29.5,31.5C 28.5,31.5 27.5,31.5 26.5,31.5C 24.9805,29.4116 23.9805,27.0783 23.5,24.5C 22.1667,20.5 20.8333,20.5 19.5,24.5C 18.5318,26.6074 18.1984,28.9407 18.5,31.5C 17.8333,32.1667 17.1667,32.8333 16.5,33.5C 16.1788,31.9519 15.1788,31.2852 13.5,31.5C 12.5846,27.2418 13.2513,23.2418 15.5,19.5C 15.5,19.1667 15.5,18.8333 15.5,18.5C 19.8015,17.2271 24.1348,17.2271 28.5,18.5 Z"/></g>
<g><path style="opacity:1" fill="#dca278" d="M 23.5,24.5 C 22.1667,24.5 20.8333,24.5 19.5,24.5C 20.8333,20.5 22.1667,20.5 23.5,24.5 Z"/></g>
<g><path style="opacity:1" fill="#331c14" d="M 39.5,17.5 C 39.5858,18.4959 39.2524,19.3292 38.5,20C 35.854,20.4974 33.1873,20.6641 30.5,20.5C 30.7646,24.8533 31.2646,29.1866 32,33.5C 34.1025,35.3025 34.9358,37.6359 34.5,40.5C 30.8333,40.5 27.1667,40.5 23.5,40.5C 23.3444,37.9339 23.6777,35.4339 24.5,33C 23.2779,30.9662 22.2779,28.7995 21.5,26.5C 20.9348,28.5435 19.9348,30.2102 18.5,31.5C 18.1984,28.9407 18.5318,26.6074 19.5,24.5C 20.8333,24.5 22.1667,24.5 23.5,24.5C 23.9805,27.0783 24.9805,29.4116 26.5,31.5C 25.2838,34.0699 24.6171,36.5699 24.5,39C 27.146,39.4974 29.8127,39.6641 32.5,39.5C 31.7834,36.6771 30.7834,34.0104 29.5,31.5C 28.9315,28.4116 28.9315,25.4116 29.5,22.5C 29.1822,21.3527 28.5156,20.5194 27.5,20C 27.7284,19.6012 28.0618,19.4346 28.5,19.5C 32.4872,19.9903 36.1538,19.3236 39.5,17.5 Z"/></g>
<g><path style="opacity:1" fill="#c77e4d" d="M 13.5,31.5 C 15.1788,31.2852 16.1788,31.9519 16.5,33.5C 16.9528,34.4584 17.6195,35.2917 18.5,36C 17.1667,37 17.1667,38 18.5,39C 15.854,39.4974 13.1873,39.6641 10.5,39.5C 10.6386,36.4121 11.6386,33.7454 13.5,31.5 Z"/></g>
<g><path style="opacity:1" fill="#c87d4a" d="M 26.5,31.5 C 27.5,31.5 28.5,31.5 29.5,31.5C 30.7834,34.0104 31.7834,36.6771 32.5,39.5C 29.8127,39.6641 27.146,39.4974 24.5,39C 24.6171,36.5699 25.2838,34.0699 26.5,31.5 Z"/></g>
</svg>
