<?xml version="1.0" encoding="UTF-8"?>
<!DOCTYPE svg PUBLIC "-//W3C//DTD SVG 1.1//EN" "http://www.w3.org/Graphics/SVG/1.1/DTD/svg11.dtd">
<svg xmlns="http://www.w3.org/2000/svg" version="1.1" width="100%" viewBox="0 0 33 37" style="shape-rendering:geometricPrecision; text-rendering:geometricPrecision; image-rendering:optimizeQuality; fill-rule:evenodd; clip-rule:evenodd" xmlns:xlink="http://www.w3.org/1999/xlink">
<g><path style="opacity:0.707" fill="#f2f2f1" d="M 6.5,-0.5 C 7.5,-0.5 8.5,-0.5 9.5,-0.5C 13.3068,3.13486 17.3068,6.63486 21.5,10C 23.2182,10.346 24.8849,10.846 26.5,11.5C 27.7679,15.6192 29.7679,19.2859 32.5,22.5C 32.5,25.5 32.5,28.5 32.5,31.5C 29.9088,33.961 26.9088,35.6276 23.5,36.5C 18.5,36.5 13.5,36.5 8.5,36.5C 2.16467,34.4985 -0.00199573,30.1652 2,23.5C 2.9299,21.4476 4.4299,19.9476 6.5,19C 4.30366,15.3233 1.97032,11.8233 -0.5,8.5C -0.5,7.83333 -0.5,7.16667 -0.5,6.5C 1.5,3.83333 3.83333,1.5 6.5,-0.5 Z"/></g>
<g><path style="opacity:1" fill="#342117" d="M 10.5,20.5 C 7.91641,16.2205 5.24975,11.8871 2.5,7.5C 3.05407,5.37173 4.3874,3.87173 6.5,3C 7.5,2.33333 8.5,2.33333 9.5,3C 12.2602,5.77446 15.2602,8.10779 18.5,10C 19.8932,11.1711 20.7265,12.6711 21,14.5C 22.3561,13.6198 23.8561,13.2865 25.5,13.5C 25.6524,17.4693 27.1524,20.8027 30,23.5C 30.769,26.0991 30.6023,28.5991 29.5,31C 21.3681,35.0274 13.0348,35.5274 4.5,32.5C 4.33537,29.4816 4.50204,26.4816 5,23.5C 6.58329,22.0289 8.41663,21.0289 10.5,20.5 Z"/></g>
<g><path style="opacity:1" fill="#b35c1a" d="M 6.5,24.5 C 8.32239,24.8308 9.98906,25.4975 11.5,26.5C 11.1961,27.1499 10.8627,27.8165 10.5,28.5C 12.6551,29.0014 14.3218,30.0014 15.5,31.5C 12.1667,31.5 8.83333,31.5 5.5,31.5C 5.19845,28.9407 5.53178,26.6074 6.5,24.5 Z"/></g>
<g><path style="opacity:1" fill="#e09a5e" d="M 17.5,23.5 C 18.404,24.209 18.7373,25.209 18.5,26.5C 20.1439,26.2865 21.6439,26.6198 23,27.5C 23.4828,26.552 23.6495,25.552 23.5,24.5C 25.1667,24.5 26.8333,24.5 28.5,24.5C 28.5,26.5 28.5,28.5 28.5,30.5C 25.1794,31.1628 21.8461,31.8295 18.5,32.5C 17.2739,32.4805 16.2739,32.1471 15.5,31.5C 14.3218,30.0014 12.6551,29.0014 10.5,28.5C 10.8627,27.8165 11.1961,27.1499 11.5,26.5C 11.281,25.325 11.6143,24.325 12.5,23.5C 12.6691,24.3966 13.0024,25.3966 13.5,26.5C 14.2508,25.624 14.7508,24.624 15,23.5C 16.1139,27.4557 16.9473,27.4557 17.5,23.5 Z"/></g>
<g><path style="opacity:1" fill="#53250d" d="M 11.5,13.5 C 12.7255,14.937 13.7255,16.6036 14.5,18.5C 15.086,18.2907 15.586,17.9574 16,17.5C 16.3153,19.5856 16.8153,21.5856 17.5,23.5C 16.9473,27.4557 16.1139,27.4557 15,23.5C 14.7508,24.624 14.2508,25.624 13.5,26.5C 13.0024,25.3966 12.6691,24.3966 12.5,23.5C 11.6143,24.325 11.281,25.325 11.5,26.5C 9.98906,25.4975 8.32239,24.8308 6.5,24.5C 7.26253,23.7321 8.26253,23.2321 9.5,23C 10.2524,22.3292 10.5858,21.4959 10.5,20.5C 11.8799,20.0377 12.5466,19.0377 12.5,17.5C 11.563,15.712 10.2297,14.3786 8.5,13.5C 9.5,12.1667 10.5,12.1667 11.5,13.5 Z"/></g>
<g><path style="opacity:1" fill="#9f521b" d="M 14.5,10.5 C 15.7079,11.2341 17.0413,11.5674 18.5,11.5C 18.6785,14.2165 19.1785,16.8832 20,19.5C 20.1968,17.1391 21.3635,15.4724 23.5,14.5C 24.6719,18.1774 26.3386,21.5107 28.5,24.5C 26.8333,24.5 25.1667,24.5 23.5,24.5C 23.6495,25.552 23.4828,26.552 23,27.5C 21.6439,26.6198 20.1439,26.2865 18.5,26.5C 18.7373,25.209 18.404,24.209 17.5,23.5C 16.8153,21.5856 16.3153,19.5856 16,17.5C 15.586,17.9574 15.086,18.2907 14.5,18.5C 13.7255,16.6036 12.7255,14.937 11.5,13.5C 13.5,13.5 14.5,12.5 14.5,10.5 Z"/></g>
<g><path style="opacity:1" fill="#ce7f43" d="M 14.5,10.5 C 14.5,12.5 13.5,13.5 11.5,13.5C 10.5,12.1667 9.5,12.1667 8.5,13.5C 7.01542,11.8379 5.68209,10.0046 4.5,8C 5.20841,5.27653 6.87508,4.27653 9.5,5C 11.7425,6.42214 13.4091,8.25548 14.5,10.5 Z"/></g>
</svg>
