<?xml version="1.0" encoding="UTF-8"?>
<!DOCTYPE svg PUBLIC "-//W3C//DTD SVG 1.1//EN" "http://www.w3.org/Graphics/SVG/1.1/DTD/svg11.dtd">
<svg xmlns="http://www.w3.org/2000/svg" version="1.1" width="100%" viewBox="0 0 42 42" style="shape-rendering:geometricPrecision; text-rendering:geometricPrecision; image-rendering:optimizeQuality; fill-rule:evenodd; clip-rule:evenodd" xmlns:xlink="http://www.w3.org/1999/xlink">
<g><path style="opacity:0.717" fill="#f3f2f1" d="M 14.5,-0.5 C 18.5,-0.5 22.5,-0.5 26.5,-0.5C 29.4758,2.30209 32.6425,4.96876 36,7.5C 38.4383,11.3174 40.2716,15.3174 41.5,19.5C 41.5,20.5 41.5,21.5 41.5,22.5C 39.0884,26.2938 37.5884,30.2938 37,34.5C 33.1377,37.4981 28.971,39.8314 24.5,41.5C 23.1667,41.5 21.8333,41.5 20.5,41.5C 16.8499,41.2241 13.1832,39.8908 9.5,37.5C 7.32742,34.8278 4.82742,32.4945 2,30.5C 0.499884,27.8665 0.333218,25.1999 1.5,22.5C 1.14451,21.4777 0.477842,20.811 -0.5,20.5C -0.5,18.5 -0.5,16.5 -0.5,14.5C 2.83333,7.83333 7.83333,2.83333 14.5,-0.5 Z"/></g>
<g><path style="opacity:1" fill="#352116" d="M 32.5,34.5 C 32.5,34.1667 32.5,33.8333 32.5,33.5C 33.9907,29.7545 35.324,25.9211 36.5,22C 37.0746,15.618 34.7413,10.7847 29.5,7.5C 28.791,6.59603 27.791,6.26269 26.5,6.5C 26.7373,5.20895 26.404,4.20895 25.5,3.5C 17.5442,2.47968 10.8775,4.81302 5.5,10.5C 8.59097,4.94609 13.4243,1.94609 20,1.5C 22.4979,1.91719 24.9979,2.25053 27.5,2.5C 27.5,3.5 27.5,4.5 27.5,5.5C 31.2285,6.12359 34.0619,8.12359 36,11.5C 36.1397,14.0432 36.8063,16.3766 38,18.5C 37.9924,22.8832 37.3257,27.2165 36,31.5C 34.9609,32.7101 33.7942,33.7101 32.5,34.5 Z"/></g>
<g><path style="opacity:1" fill="#c87b30" d="M 25.5,3.5 C 25.6349,6.4175 24.9682,9.08417 23.5,11.5C 22.2921,10.7659 20.9587,10.4326 19.5,10.5C 19.719,9.32496 19.3857,8.32496 18.5,7.5C 16.7801,8.93404 14.7801,9.76737 12.5,10C 13.056,10.3826 13.3893,10.8826 13.5,11.5C 11.7484,13.2459 10.4151,15.2459 9.5,17.5C 8.53261,18.8062 7.19928,19.4729 5.5,19.5C 4.72225,18.8444 4.05558,18.0111 3.5,17C 4.27409,14.8458 4.94076,12.6792 5.5,10.5C 10.8775,4.81302 17.5442,2.47968 25.5,3.5 Z"/></g>
<g><path style="opacity:1" fill="#6e3d0e" d="M 25.5,3.5 C 26.404,4.20895 26.7373,5.20895 26.5,6.5C 27.791,6.26269 28.791,6.59603 29.5,7.5C 28.5,7.5 27.5,7.5 26.5,7.5C 26.6287,9.2161 26.962,10.8828 27.5,12.5C 26.2954,10.8624 24.9621,10.5291 23.5,11.5C 24.9682,9.08417 25.6349,6.4175 25.5,3.5 Z"/></g>
<g><path style="opacity:1" fill="#21120a" d="M 16.5,22.5 C 14.8762,22.3601 13.7096,23.0267 13,24.5C 11.9887,23.6634 10.8221,23.33 9.5,23.5C 9.5,21.5 9.5,19.5 9.5,17.5C 10.4151,15.2459 11.7484,13.2459 13.5,11.5C 18.4291,10.2667 20.2624,12.2667 19,17.5C 17.117,18.6526 16.2837,20.3193 16.5,22.5 Z"/></g>
<g><path style="opacity:0.841" fill="#e3e2df" d="M 14.5,12.5 C 17.6802,12.1762 18.8469,13.5096 18,16.5C 16.4708,17.7287 15.3041,19.2287 14.5,21C 13.2068,21.49 11.8734,21.6567 10.5,21.5C 11.0231,18.122 12.3565,15.122 14.5,12.5 Z"/></g>
<g><path style="opacity:1" fill="#7f4811" d="M 23.5,11.5 C 23.5,11.8333 23.5,12.1667 23.5,12.5C 22.5489,13.9187 22.2155,15.5853 22.5,17.5C 21.6981,16.0484 21.1981,14.3817 21,12.5C 21.2616,16.7419 19.7616,20.0753 16.5,22.5C 16.2837,20.3193 17.117,18.6526 19,17.5C 20.2624,12.2667 18.4291,10.2667 13.5,11.5C 13.3893,10.8826 13.056,10.3826 12.5,10C 14.7801,9.76737 16.7801,8.93404 18.5,7.5C 19.3857,8.32496 19.719,9.32496 19.5,10.5C 20.9587,10.4326 22.2921,10.7659 23.5,11.5 Z"/></g>
<g><path style="opacity:1" fill="#27160f" d="M 27.5,12.5 C 31.5581,14.9563 33.2247,18.6229 32.5,23.5C 31.1779,23.33 30.0113,23.6634 29,24.5C 27.8904,22.9632 26.3904,22.2965 24.5,22.5C 24.7709,20.6203 24.1042,19.287 22.5,18.5C 22.5,18.1667 22.5,17.8333 22.5,17.5C 22.2155,15.5853 22.5489,13.9187 23.5,12.5C 23.5,12.1667 23.5,11.8333 23.5,11.5C 24.9621,10.5291 26.2954,10.8624 27.5,12.5 Z"/></g>
<g><path style="opacity:0.887" fill="#e4e3e1" d="M 23.5,12.5 C 28.083,13.7498 30.4164,16.7498 30.5,21.5C 25.7423,20.5431 23.409,17.5431 23.5,12.5 Z"/></g>
<g><path style="opacity:1" fill="#bc7326" d="M 29.5,7.5 C 34.7413,10.7847 37.0746,15.618 36.5,22C 35.324,25.9211 33.9907,29.7545 32.5,33.5C 31.1266,33.6567 29.7932,33.49 28.5,33C 27.4019,32.2303 27.4019,31.397 28.5,30.5C 30.769,28.7576 32.1024,26.4243 32.5,23.5C 33.2247,18.6229 31.5581,14.9563 27.5,12.5C 26.962,10.8828 26.6287,9.2161 26.5,7.5C 27.5,7.5 28.5,7.5 29.5,7.5 Z"/></g>
<g><path style="opacity:1" fill="#cc741d" d="M 22.5,17.5 C 22.5,17.8333 22.5,18.1667 22.5,18.5C 23.038,20.1172 23.3713,21.7839 23.5,23.5C 20.9407,23.8016 18.6074,23.4682 16.5,22.5C 19.7616,20.0753 21.2616,16.7419 21,12.5C 21.1981,14.3817 21.6981,16.0484 22.5,17.5 Z"/></g>
<g><path style="opacity:1" fill="#9a5b17" d="M 9.5,17.5 C 9.5,19.5 9.5,21.5 9.5,23.5C 10.8221,23.33 11.9887,23.6634 13,24.5C 13.7096,23.0267 14.8762,22.3601 16.5,22.5C 18.6074,23.4682 20.9407,23.8016 23.5,23.5C 23.3713,21.7839 23.038,20.1172 22.5,18.5C 24.1042,19.287 24.7709,20.6203 24.5,22.5C 26.3904,22.2965 27.8904,22.9632 29,24.5C 30.0113,23.6634 31.1779,23.33 32.5,23.5C 32.1024,26.4243 30.769,28.7576 28.5,30.5C 27.4019,31.397 27.4019,32.2303 28.5,33C 29.7932,33.49 31.1266,33.6567 32.5,33.5C 32.5,33.8333 32.5,34.1667 32.5,34.5C 28.5977,34.6905 24.9311,35.6905 21.5,37.5C 18.992,35.7629 15.992,34.9296 12.5,35C 10.971,31.9712 8.63771,29.8045 5.5,28.5C 4.9338,25.5826 4.9338,22.5826 5.5,19.5C 7.19928,19.4729 8.53261,18.8062 9.5,17.5 Z"/></g>
<g><path style="opacity:1" fill="#2d1c14" d="M 28.5,30.5 C 25.703,31.2407 22.8697,31.9073 20,32.5C 12.7348,31.6439 11.9015,29.1439 17.5,25C 20.6033,24.1835 23.6033,24.6835 26.5,26.5C 27.7051,27.5769 28.3718,28.9102 28.5,30.5 Z"/></g>
<g><path style="opacity:0.943" fill="#efedec" d="M 17.5,26.5 C 20.8066,26.0632 23.8066,26.7298 26.5,28.5C 23.3853,30.3498 20.052,30.8498 16.5,30C 16.0426,29.586 15.7093,29.086 15.5,28.5C 16.2427,27.8182 16.9094,27.1515 17.5,26.5 Z"/></g>
<g><path style="opacity:1" fill="#2b1d15" d="M 5.5,10.5 C 4.94076,12.6792 4.27409,14.8458 3.5,17C 4.05558,18.0111 4.72225,18.8444 5.5,19.5C 4.9338,22.5826 4.9338,25.5826 5.5,28.5C 8.63771,29.8045 10.971,31.9712 12.5,35C 15.992,34.9296 18.992,35.7629 21.5,37.5C 18.8127,37.6641 16.146,37.4974 13.5,37C 10.9619,34.3902 8.12858,32.2235 5,30.5C 3.25225,27.7606 3.08558,24.9273 4.5,22C 0.620314,17.954 0.953647,14.1206 5.5,10.5 Z"/></g>
<g><path style="opacity:1" fill="#1e0f06" d="M 32.5,34.5 C 29.5027,35.9353 26.336,37.2686 23,38.5C 22.2352,38.4301 21.7352,38.0967 21.5,37.5C 24.9311,35.6905 28.5977,34.6905 32.5,34.5 Z"/></g>
</svg>
