<?xml version="1.0" encoding="UTF-8"?>
<!DOCTYPE svg PUBLIC "-//W3C//DTD SVG 1.1//EN" "http://www.w3.org/Graphics/SVG/1.1/DTD/svg11.dtd">
<svg xmlns="http://www.w3.org/2000/svg" version="1.1" width="100%" viewBox="0 0 56 64" style="shape-rendering:geometricPrecision; text-rendering:geometricPrecision; image-rendering:optimizeQuality; fill-rule:evenodd; clip-rule:evenodd" xmlns:xlink="http://www.w3.org/1999/xlink">
<g><path style="opacity:0.696" fill="#f2f1f0" d="M 27.5,-0.5 C 29.8333,-0.5 32.1667,-0.5 34.5,-0.5C 36.0808,1.14166 36.7475,3.14166 36.5,5.5C 42.4824,4.82727 45.8158,7.49394 46.5,13.5C 47.6721,13.9186 48.6721,14.5853 49.5,15.5C 50.6917,20.2671 52.1917,24.9338 54,29.5C 54.3826,30.056 54.8826,30.3893 55.5,30.5C 55.5,33.8333 55.5,37.1667 55.5,40.5C 53.2125,41.6187 51.3792,43.2853 50,45.5C 49.5523,50.5298 48.8856,55.5298 48,60.5C 46.955,61.3734 46.1217,62.3734 45.5,63.5C 43.8333,63.5 42.1667,63.5 40.5,63.5C 36.1482,62.7537 31.6482,62.087 27,61.5C 24.9701,61.9537 23.1368,62.6204 21.5,63.5C 18.8333,63.5 16.1667,63.5 13.5,63.5C 7.19634,59.3923 4.36301,53.3923 5,45.5C 3.30288,42.98 1.46955,40.6467 -0.5,38.5C -0.5,35.5 -0.5,32.5 -0.5,29.5C 2.8434,21.3255 6.8434,13.4922 11.5,6C 14.6693,5.02185 17.5027,5.52185 20,7.5C 21.0255,4.30716 23.1922,2.97383 26.5,3.5C 26.4326,2.04125 26.7659,0.707917 27.5,-0.5 Z"/></g>
<g><path style="opacity:1" fill="#2c1c15" d="M 48.5,24.5 C 48.1667,24.5 47.8333,24.5 47.5,24.5C 47.6716,23.5084 47.3382,22.8417 46.5,22.5C 47.0031,18.5762 45.3364,16.2428 41.5,15.5C 41.9492,13.0225 41.2825,11.0225 39.5,9.5C 38.7025,9.95689 38.3691,10.6236 38.5,11.5C 37.7784,11.9175 37.2784,12.5842 37,13.5C 36.6174,12.944 36.1174,12.6107 35.5,12.5C 34.1664,9.57267 32.8331,6.57267 31.5,3.5C 29.8287,5.50976 29.162,7.8431 29.5,10.5C 28.5,10.5 27.5,10.5 26.5,10.5C 26.719,9.32496 26.3857,8.32496 25.5,7.5C 23.8991,10.8021 21.5658,13.4688 18.5,15.5C 17.7022,13.9223 17.2022,12.2556 17,10.5C 15.9887,9.66337 14.8221,9.33003 13.5,9.5C 13.151,13.6674 12.3177,17.6674 11,21.5C 9.92883,18.8875 9.09549,18.8875 8.5,21.5C 7.69088,23.2922 7.19088,25.2922 7,27.5C 4.40079,28.8635 3.23413,31.0301 3.5,34C 3.60826,35.6811 4.27493,36.8478 5.5,37.5C 5.5,37.8333 5.5,38.1667 5.5,38.5C 6.29977,40.7409 7.96644,41.7409 10.5,41.5C 10.5,46.1667 10.5,50.8333 10.5,55.5C 11.5,55.5 12.5,55.5 13.5,55.5C 13.2627,56.791 13.596,57.791 14.5,58.5C 15.0968,59.1386 15.9302,59.472 17,59.5C 18.6067,58.9265 20.1067,58.2598 21.5,57.5C 22.1667,58.8333 22.8333,58.8333 23.5,57.5C 24.7593,48.2833 26.4259,48.2833 28.5,57.5C 30.5,57.5 32.5,57.5 34.5,57.5C 34.8417,58.3382 35.5084,58.6716 36.5,58.5C 37.3446,57.3285 38.0113,55.9952 38.5,54.5C 39.609,54.5569 40.609,54.8902 41.5,55.5C 41.5,56.8333 41.5,58.1667 41.5,59.5C 42.5,59.5 43.5,59.5 44.5,59.5C 44.5,57.5 44.5,55.5 44.5,53.5C 44.8693,49.2325 45.8693,45.2325 47.5,41.5C 48.2216,41.0825 48.7216,40.4158 49,39.5C 49.3988,39.7284 49.5654,40.0618 49.5,40.5C 46.6763,46.686 45.343,53.3526 45.5,60.5C 39.8508,60.7072 34.1841,60.2072 28.5,59C 27.9288,57.7949 27.2621,56.6283 26.5,55.5C 25.7564,56.9905 25.0897,58.4905 24.5,60C 20.8333,60.6667 17.1667,60.6667 13.5,60C 12.4045,58.3247 10.9045,57.158 9,56.5C 9.68201,49.413 7.68201,43.413 3,38.5C 2.33333,35.5 2.33333,32.5 3,29.5C 3.66667,28.1667 4.66667,27.1667 6,26.5C 6.33333,23.8333 6.66667,21.1667 7,18.5C 8.01127,17.6634 9.17793,17.33 10.5,17.5C 10.2572,14.1174 10.9239,10.9508 12.5,8C 17.3621,6.52409 19.5288,8.35742 19,13.5C 21.741,11.9326 22.9077,9.59926 22.5,6.5C 26.4825,7.42223 28.8158,5.92223 29.5,2C 30.7932,1.50999 32.1266,1.34332 33.5,1.5C 33.933,4.16562 34.433,6.83228 35,9.5C 37.1912,8.9732 39.5246,8.9732 42,9.5C 41.6655,13.1054 43.1655,15.4388 46.5,16.5C 47.5488,19.0795 48.2155,21.7462 48.5,24.5 Z"/></g>
<g><path style="opacity:1" fill="#da7f26" d="M 29.5,21.5 C 28.3065,21.9704 27.6399,22.9704 27.5,24.5C 27.6779,28.2175 28.5113,28.2175 30,24.5C 30.5051,28.3231 29.0051,30.9898 25.5,32.5C 26.209,33.404 27.209,33.7373 28.5,33.5C 28.5,34.5 28.5,35.5 28.5,36.5C 23.706,37.0969 19.3727,36.4302 15.5,34.5C 16.1667,32.5 16.8333,30.5 17.5,28.5C 16.5,28.5 15.5,28.5 14.5,28.5C 14.5,26.1667 14.5,23.8333 14.5,21.5C 18.0087,21.4576 21.342,22.1242 24.5,23.5C 24.7683,20.8806 24.435,18.3806 23.5,16C 28.4929,14.4914 30.4929,16.3248 29.5,21.5 Z"/></g>
<g><path style="opacity:1" fill="#97540f" d="M 38.5,11.5 C 37.7458,17.2087 37.5791,22.8754 38,28.5C 37.6667,28.1667 37.3333,27.8333 37,27.5C 36.5831,28.756 35.7498,29.4226 34.5,29.5C 34.9861,26.6183 34.9861,23.9517 34.5,21.5C 35.1587,18.5448 35.4921,15.5448 35.5,12.5C 36.1174,12.6107 36.6174,12.944 37,13.5C 37.2784,12.5842 37.7784,11.9175 38.5,11.5 Z"/></g>
<g><path style="opacity:1" fill="#b06416" d="M 35.5,12.5 C 35.4921,15.5448 35.1587,18.5448 34.5,21.5C 33.0689,21.1193 32.2355,20.1193 32,18.5C 31.7645,20.1193 30.9311,21.1193 29.5,21.5C 30.4929,16.3248 28.4929,14.4914 23.5,16C 24.435,18.3806 24.7683,20.8806 24.5,23.5C 21.342,22.1242 18.0087,21.4576 14.5,21.5C 14.5,23.8333 14.5,26.1667 14.5,28.5C 15.5,28.5 16.5,28.5 17.5,28.5C 16.8333,30.5 16.1667,32.5 15.5,34.5C 15.1667,34.5 14.8333,34.5 14.5,34.5C 14.8432,32.5168 14.1765,31.1834 12.5,30.5C 12.6633,28.1432 12.4966,25.8098 12,23.5C 9.0543,26.5429 7.88763,25.8762 8.5,21.5C 9.09549,18.8875 9.92883,18.8875 11,21.5C 12.3177,17.6674 13.151,13.6674 13.5,9.5C 14.8221,9.33003 15.9887,9.66337 17,10.5C 17.2022,12.2556 17.7022,13.9223 18.5,15.5C 21.5658,13.4688 23.8991,10.8021 25.5,7.5C 26.3857,8.32496 26.719,9.32496 26.5,10.5C 27.5,10.5 28.5,10.5 29.5,10.5C 29.162,7.8431 29.8287,5.50976 31.5,3.5C 32.8331,6.57267 34.1664,9.57267 35.5,12.5 Z"/></g>
<g><path style="opacity:1" fill="#e0984f" d="M 41.5,15.5 C 42.2072,19.2452 42.3739,22.9119 42,26.5C 43.4685,25.0107 44.9685,23.6774 46.5,22.5C 47.3382,22.8417 47.6716,23.5084 47.5,24.5C 46.3838,27.2448 45.3838,30.0782 44.5,33C 44.8333,33.5 45.1667,34 45.5,34.5C 47.3414,32.4883 48.3414,30.155 48.5,27.5C 49.4924,30.1103 50.4924,32.7769 51.5,35.5C 51.3601,37.0296 50.6935,38.0296 49.5,38.5C 49.6621,36.4727 49.4955,34.4727 49,32.5C 48.51,33.7932 48.3433,35.1266 48.5,36.5C 46.5,36.5 44.5,36.5 42.5,36.5C 42.7845,34.5853 42.4511,32.9187 41.5,31.5C 38.1667,31.5 34.8333,31.5 31.5,31.5C 30.9557,27.3601 31.9557,26.6935 34.5,29.5C 35.7498,29.4226 36.5831,28.756 37,27.5C 37.3333,27.8333 37.6667,28.1667 38,28.5C 37.5791,22.8754 37.7458,17.2087 38.5,11.5C 38.3691,10.6236 38.7025,9.95689 39.5,9.5C 41.2825,11.0225 41.9492,13.0225 41.5,15.5 Z"/></g>
<g><path style="opacity:1" fill="#8e5215" d="M 41.5,15.5 C 45.3364,16.2428 47.0031,18.5762 46.5,22.5C 44.9685,23.6774 43.4685,25.0107 42,26.5C 42.3739,22.9119 42.2072,19.2452 41.5,15.5 Z"/></g>
<g><path style="opacity:1" fill="#8e4e09" d="M 8.5,21.5 C 7.88763,25.8762 9.0543,26.5429 12,23.5C 12.4966,25.8098 12.6633,28.1432 12.5,30.5C 10.7954,31.2374 8.7954,31.7374 6.5,32C 5.59391,33.6995 5.26057,35.5328 5.5,37.5C 4.27493,36.8478 3.60826,35.6811 3.5,34C 3.23413,31.0301 4.40079,28.8635 7,27.5C 7.19088,25.2922 7.69088,23.2922 8.5,21.5 Z"/></g>
<g><path style="opacity:1" fill="#8c4e0b" d="M 47.5,24.5 C 47.8333,24.5 48.1667,24.5 48.5,24.5C 48.5,25.5 48.5,26.5 48.5,27.5C 48.3414,30.155 47.3414,32.4883 45.5,34.5C 45.1667,34 44.8333,33.5 44.5,33C 45.3838,30.0782 46.3838,27.2448 47.5,24.5 Z"/></g>
<g><path style="opacity:1" fill="#f3ac66" d="M 34.5,21.5 C 34.9861,23.9517 34.9861,26.6183 34.5,29.5C 31.9557,26.6935 30.9557,27.3601 31.5,31.5C 34.8333,31.5 38.1667,31.5 41.5,31.5C 41.7852,33.288 41.4519,34.9547 40.5,36.5C 39.5713,35.3112 39.238,33.9778 39.5,32.5C 35.1617,32.6219 34.8284,32.9553 38.5,33.5C 38.5,34.5 38.5,35.5 38.5,36.5C 35.8333,36.5 33.1667,36.5 30.5,36.5C 30.5,35.1667 30.5,33.8333 30.5,32.5C 28.8333,32.5 27.1667,32.5 25.5,32.5C 29.0051,30.9898 30.5051,28.3231 30,24.5C 28.5113,28.2175 27.6779,28.2175 27.5,24.5C 27.6399,22.9704 28.3065,21.9704 29.5,21.5C 30.9311,21.1193 31.7645,20.1193 32,18.5C 32.2355,20.1193 33.0689,21.1193 34.5,21.5 Z"/></g>
<g><path style="opacity:1" fill="#3d2a19" d="M 48.5,24.5 C 50.0906,28.3555 51.7572,32.1889 53.5,36C 54.0676,39.2634 52.7343,40.7634 49.5,40.5C 49.5654,40.0618 49.3988,39.7284 49,39.5C 48.7216,40.4158 48.2216,41.0825 47.5,41.5C 47.5,40.5 47.5,39.5 47.5,38.5C 48.1667,38.5 48.8333,38.5 49.5,38.5C 50.6935,38.0296 51.3601,37.0296 51.5,35.5C 50.4924,32.7769 49.4924,30.1103 48.5,27.5C 48.5,26.5 48.5,25.5 48.5,24.5 Z"/></g>
<g><path style="opacity:1" fill="#e07f1d" d="M 12.5,30.5 C 14.1765,31.1834 14.8432,32.5168 14.5,34.5C 13.695,36.2128 12.695,37.8794 11.5,39.5C 10.5481,37.9547 10.2148,36.288 10.5,34.5C 9.5,34.5 8.5,34.5 7.5,34.5C 7.66018,36.1992 7.49351,37.8659 7,39.5C 6.61742,38.944 6.11742,38.6107 5.5,38.5C 5.5,38.1667 5.5,37.8333 5.5,37.5C 5.26057,35.5328 5.59391,33.6995 6.5,32C 8.7954,31.7374 10.7954,31.2374 12.5,30.5 Z"/></g>
<g><path style="opacity:1" fill="#965813" d="M 41.5,31.5 C 42.4511,32.9187 42.7845,34.5853 42.5,36.5C 44.5,36.5 46.5,36.5 48.5,36.5C 48.3433,35.1266 48.51,33.7932 49,32.5C 49.4955,34.4727 49.6621,36.4727 49.5,38.5C 48.8333,38.5 48.1667,38.5 47.5,38.5C 47.44,37.9569 47.1067,37.6236 46.5,37.5C 45.5009,40.1741 43.8342,40.8408 41.5,39.5C 40.4777,39.8555 39.811,40.5222 39.5,41.5C 38.5,41.5 37.5,41.5 36.5,41.5C 36.2044,47.2733 36.2044,52.9399 36.5,58.5C 35.5084,58.6716 34.8417,58.3382 34.5,57.5C 33.9592,54.0598 33.6258,50.7264 33.5,47.5C 33.6621,45.4727 33.4955,43.4727 33,41.5C 30.9838,42.9552 30.1505,44.9552 30.5,47.5C 30.1667,47.5 29.8333,47.5 29.5,47.5C 28.596,46.791 28.2627,45.791 28.5,44.5C 27.1667,44.5 25.8333,44.5 24.5,44.5C 24.2254,39.7797 25.0588,39.4463 27,43.5C 27.977,41.26 28.477,38.9267 28.5,36.5C 28.5,35.5 28.5,34.5 28.5,33.5C 27.209,33.7373 26.209,33.404 25.5,32.5C 27.1667,32.5 28.8333,32.5 30.5,32.5C 30.5,33.8333 30.5,35.1667 30.5,36.5C 33.1667,36.5 35.8333,36.5 38.5,36.5C 38.5,35.5 38.5,34.5 38.5,33.5C 34.8284,32.9553 35.1617,32.6219 39.5,32.5C 39.238,33.9778 39.5713,35.3112 40.5,36.5C 41.4519,34.9547 41.7852,33.288 41.5,31.5 Z"/></g>
<g><path style="opacity:1" fill="#7c4405" d="M 14.5,34.5 C 14.8333,34.5 15.1667,34.5 15.5,34.5C 19.3727,36.4302 23.706,37.0969 28.5,36.5C 28.477,38.9267 27.977,41.26 27,43.5C 25.0588,39.4463 24.2254,39.7797 24.5,44.5C 23.2502,44.5774 22.4169,45.244 22,46.5C 21.7811,45.062 21.2811,43.7287 20.5,42.5C 19.7193,43.7366 18.7193,44.7366 17.5,45.5C 16.4763,44.1468 15.143,43.4802 13.5,43.5C 13.7509,48.5068 14.0843,53.5068 14.5,58.5C 13.596,57.791 13.2627,56.791 13.5,55.5C 12.5,55.5 11.5,55.5 10.5,55.5C 10.5,50.8333 10.5,46.1667 10.5,41.5C 7.96644,41.7409 6.29977,40.7409 5.5,38.5C 6.11742,38.6107 6.61742,38.944 7,39.5C 7.49351,37.8659 7.66018,36.1992 7.5,34.5C 8.5,34.5 9.5,34.5 10.5,34.5C 10.2148,36.288 10.5481,37.9547 11.5,39.5C 12.695,37.8794 13.695,36.2128 14.5,34.5 Z"/></g>
<g><path style="opacity:1" fill="#753f08" d="M 47.5,38.5 C 47.5,39.5 47.5,40.5 47.5,41.5C 45.8693,45.2325 44.8693,49.2325 44.5,53.5C 44.8204,50.1016 44.487,46.7683 43.5,43.5C 42.8333,43.1667 42.1667,42.8333 41.5,42.5C 39.8525,45.4538 40.5192,47.6205 43.5,49C 41.9837,50.897 41.317,53.0637 41.5,55.5C 40.609,54.8902 39.609,54.5569 38.5,54.5C 38.7395,50.1578 39.0728,45.8244 39.5,41.5C 39.811,40.5222 40.4777,39.8555 41.5,39.5C 43.8342,40.8408 45.5009,40.1741 46.5,37.5C 47.1067,37.6236 47.44,37.9569 47.5,38.5 Z"/></g>
<g><path style="opacity:1" fill="#e89440" d="M 33.5,47.5 C 32.5,47.5 31.5,47.5 30.5,47.5C 30.1505,44.9552 30.9838,42.9552 33,41.5C 33.4955,43.4727 33.6621,45.4727 33.5,47.5 Z"/></g>
<g><path style="opacity:1" fill="#d0802f" d="M 44.5,53.5 C 44.5,55.5 44.5,57.5 44.5,59.5C 43.5,59.5 42.5,59.5 41.5,59.5C 41.5,58.1667 41.5,56.8333 41.5,55.5C 41.317,53.0637 41.9837,50.897 43.5,49C 40.5192,47.6205 39.8525,45.4538 41.5,42.5C 42.1667,42.8333 42.8333,43.1667 43.5,43.5C 44.487,46.7683 44.8204,50.1016 44.5,53.5 Z"/></g>
<g><path style="opacity:1" fill="#6a3d09" d="M 29.5,47.5 C 29.8333,47.5 30.1667,47.5 30.5,47.5C 31.5,47.5 32.5,47.5 33.5,47.5C 33.6258,50.7264 33.9592,54.0598 34.5,57.5C 32.5,57.5 30.5,57.5 28.5,57.5C 26.4259,48.2833 24.7593,48.2833 23.5,57.5C 23.7399,54.4212 23.4066,51.4212 22.5,48.5C 22.8333,48.1667 23.1667,47.8333 23.5,47.5C 24.6113,48.6113 25.9446,49.278 27.5,49.5C 28.7133,49.2528 29.38,48.5862 29.5,47.5 Z"/></g>
<g><path style="opacity:1" fill="#be7120" d="M 24.5,44.5 C 25.8333,44.5 27.1667,44.5 28.5,44.5C 28.2627,45.791 28.596,46.791 29.5,47.5C 29.38,48.5862 28.7133,49.2528 27.5,49.5C 25.9446,49.278 24.6113,48.6113 23.5,47.5C 23.1667,47.8333 22.8333,48.1667 22.5,48.5C 23.4066,51.4212 23.7399,54.4212 23.5,57.5C 22.8333,58.8333 22.1667,58.8333 21.5,57.5C 19.7006,54.4954 19.0339,51.162 19.5,47.5C 18.5,47.5 17.5,47.5 16.5,47.5C 16.1961,51.2154 16.8627,54.7154 18.5,58C 17.2068,58.49 15.8734,58.6567 14.5,58.5C 14.0843,53.5068 13.7509,48.5068 13.5,43.5C 15.143,43.4802 16.4763,44.1468 17.5,45.5C 18.7193,44.7366 19.7193,43.7366 20.5,42.5C 21.2811,43.7287 21.7811,45.062 22,46.5C 22.4169,45.244 23.2502,44.5774 24.5,44.5 Z"/></g>
<g><path style="opacity:1" fill="#6a3902" d="M 21.5,57.5 C 20.1067,58.2598 18.6067,58.9265 17,59.5C 15.9302,59.472 15.0968,59.1386 14.5,58.5C 15.8734,58.6567 17.2068,58.49 18.5,58C 16.8627,54.7154 16.1961,51.2154 16.5,47.5C 17.5,47.5 18.5,47.5 19.5,47.5C 19.0339,51.162 19.7006,54.4954 21.5,57.5 Z"/></g>
<g><path style="opacity:1" fill="#d49b60" d="M 39.5,41.5 C 39.0728,45.8244 38.7395,50.1578 38.5,54.5C 38.0113,55.9952 37.3446,57.3285 36.5,58.5C 36.2044,52.9399 36.2044,47.2733 36.5,41.5C 37.5,41.5 38.5,41.5 39.5,41.5 Z"/></g>
</svg>
