<?xml version="1.0" encoding="UTF-8"?>
<!DOCTYPE svg PUBLIC "-//W3C//DTD SVG 1.1//EN" "http://www.w3.org/Graphics/SVG/1.1/DTD/svg11.dtd">
<svg xmlns="http://www.w3.org/2000/svg" version="1.1" width="100%" height="100%" viewBox="0 0 128 128" style="shape-rendering:geometricPrecision; text-rendering:geometricPrecision; image-rendering:optimizeQuality; fill-rule:evenodd; clip-rule:evenodd" xmlns:xlink="http://www.w3.org/1999/xlink">
<g><path style="opacity:0.752" fill="#010703" d="M 54.5,1.5 C 100.808,3.97001 123.308,28.3033 122,74.5C 112.781,110.363 89.6147,126.863 52.5,124C 21.001,116.186 4.83436,96.0197 4,63.5C 6.33333,60.8333 8.66667,60.8333 11,63.5C 13.5065,93.5055 29.6731,110.172 59.5,113.5C 81.7896,112.612 97.2896,101.945 106,81.5C 112.065,55.8023 103.565,36.6356 80.5,24C 77.2799,22.6476 73.9466,21.8143 70.5,21.5C 70.1718,26.8746 70.5052,32.2079 71.5,37.5C 87.6376,44.7017 93.8043,57.0351 90,74.5C 83.4177,90.2136 71.5844,96.7136 54.5,94C 35.6893,87.2158 28.856,74.0491 34,54.5C 37.1841,45.4786 43.3508,39.8119 52.5,37.5C 52.3335,26.1618 52.5001,14.8284 53,3.5C 53.7172,2.9558 54.2172,2.28913 54.5,1.5 Z M 57.5,51.5 C 73.2669,51.3676 78.4336,58.7009 73,73.5C 65.3631,81.2943 57.6965,81.2943 50,73.5C 45.4787,63.5274 47.9787,56.1941 57.5,51.5 Z"/></g>
<g><path style="opacity:1" fill="#00a04e" d="M 55.5,4.5 C 88.3792,4.50798 109.546,20.1747 119,51.5C 123.977,82.383 112.477,104.55 84.5,118C 60.3996,127.047 39.233,122.547 21,104.5C 10.9922,92.9761 6.49218,79.6427 7.5,64.5C 10.413,90.2027 24.0797,107.036 48.5,115C 72.0094,118.484 90.5094,110.65 104,91.5C 116.179,66.3971 111.679,44.8971 90.5,27C 83.821,22.4955 76.4876,19.6622 68.5,18.5C 68.5,25.5 68.5,32.5 68.5,39.5C 84.1969,44.8742 90.6969,55.8742 88,72.5C 81.5772,88.8731 69.7439,95.0397 52.5,91C 38.6978,84.5676 32.8645,73.7343 35,58.5C 38.0202,48.9811 44.1869,42.6478 53.5,39.5C 55.4784,28.2146 56.1451,16.5479 55.5,4.5 Z M 57.5,51.5 C 47.9787,56.1941 45.4787,63.5274 50,73.5C 57.6965,81.2943 65.3631,81.2943 73,73.5C 78.4336,58.7009 73.2669,51.3676 57.5,51.5 Z"/></g>
<g><path style="opacity:1" fill="#004f26" d="M 55.5,4.5 C 56.1451,16.5479 55.4784,28.2146 53.5,39.5C 54.1473,27.7349 54.8139,16.0682 55.5,4.5 Z"/></g>
<g><path style="opacity:0.771" fill="#010703" d="M 55.5,49.5 C 71.5402,47.7082 78.7069,54.7082 77,70.5C 73.0991,79.3689 66.2657,82.8689 56.5,81C 47.309,76.7829 43.809,69.6163 46,59.5C 48.0223,54.98 51.189,51.6467 55.5,49.5 Z M 57.5,51.5 C 47.9787,56.1941 45.4787,63.5274 50,73.5C 57.6965,81.2943 65.3631,81.2943 73,73.5C 78.4336,58.7009 73.2669,51.3676 57.5,51.5 Z"/></g>
</svg>
