<?xml version="1.0" encoding="UTF-8"?>
<!DOCTYPE svg PUBLIC "-//W3C//DTD SVG 1.1//EN" "http://www.w3.org/Graphics/SVG/1.1/DTD/svg11.dtd">
<svg xmlns="http://www.w3.org/2000/svg" version="1.1" width="100%" height="100%" viewBox="0 0 128 128" style="shape-rendering:geometricPrecision; text-rendering:geometricPrecision; image-rendering:optimizeQuality; fill-rule:evenodd; clip-rule:evenodd" xmlns:xlink="http://www.w3.org/1999/xlink">
<g><path style="opacity:0.734" fill="#070300" d="M 62.5,8.5 C 67.355,11.8405 71.855,15.8405 76,20.5C 77.6725,29.7027 79.5059,38.8694 81.5,48C 81.0459,49.6217 80.0459,50.7884 78.5,51.5C 68.0349,41.9504 57.8682,42.2837 48,52.5C 46.5362,51.541 45.7028,50.2077 45.5,48.5C 47.4408,39.1884 49.2742,29.8551 51,20.5C 55.037,16.631 58.8704,12.631 62.5,8.5 Z"/></g>
<g><path style="opacity:1" fill="#ed821d" d="M 62.5,11.5 C 66.7372,14.2281 70.5706,17.5615 74,21.5C 75.9929,30.4517 77.3262,39.4517 78,48.5C 68.3333,39.1667 58.6667,39.1667 49,48.5C 49.6738,39.4517 51.0071,30.4517 53,21.5C 56.3709,18.2975 59.5375,14.9641 62.5,11.5 Z"/></g>
<g><path style="opacity:0.73" fill="#130902" d="M 59.5,49.5 C 64.1619,48.8042 68.3286,49.8042 72,52.5C 79.1563,63.9798 85.6563,75.8131 91.5,88C 90.7775,92.1136 88.7775,95.4469 85.5,98C 71.9028,99.6121 58.2361,99.9455 44.5,99C 37.3335,96.1659 34.8335,90.9992 37,83.5C 43.2525,73.3304 49.2525,62.9971 55,52.5C 56.6516,51.6006 58.1516,50.6006 59.5,49.5 Z M 62.5,68.5 C 63.4959,68.4142 64.3292,68.7476 65,69.5C 67.7072,74.4155 70.5406,79.2488 73.5,84C 67.1405,84.8306 60.8072,84.6639 54.5,83.5C 57.4464,78.6049 60.1131,73.6049 62.5,68.5 Z"/></g>
<g><path style="opacity:1" fill="#f0841e" d="M 60.5,51.5 C 65.3473,50.8404 69.1806,52.5071 72,56.5C 75.4141,62.9969 79.0808,69.3303 83,75.5C 85.3666,79.5011 87.1999,83.6677 88.5,88C 88.5924,90.8139 87.5924,93.1473 85.5,95C 71.5941,96.6309 57.5941,96.9642 43.5,96C 39.3589,93.2154 37.8589,89.3821 39,84.5C 44.9189,74.9977 50.5856,65.331 56,55.5C 57.3968,53.9297 58.8968,52.5964 60.5,51.5 Z M 62.5,68.5 C 60.1131,73.6049 57.4464,78.6049 54.5,83.5C 60.8072,84.6639 67.1405,84.8306 73.5,84C 70.5406,79.2488 67.7072,74.4155 65,69.5C 64.3292,68.7476 63.4959,68.4142 62.5,68.5 Z"/></g>
<g><path style="opacity:0.847" fill="#0e0601" d="M 62.5,63.5 C 64.0744,63.9371 65.2411,64.9371 66,66.5C 69.4553,73.2471 73.2886,79.7471 77.5,86C 68.4815,86.832 59.4815,86.6653 50.5,85.5C 54.9584,78.3857 58.9584,71.0524 62.5,63.5 Z M 62.5,68.5 C 60.1131,73.6049 57.4464,78.6049 54.5,83.5C 60.8072,84.6639 67.1405,84.8306 73.5,84C 70.5406,79.2488 67.7072,74.4155 65,69.5C 64.3292,68.7476 63.4959,68.4142 62.5,68.5 Z"/></g>
<g><path style="opacity:0.718" fill="#100801" d="M 29.5,77.5 C 31.1958,77.6854 32.5291,78.5187 33.5,80C 28.7786,91.8886 32.4453,99.8886 44.5,104C 48.4349,106.462 48.1016,108.462 43.5,110C 35,112.833 26.5,115.667 18,118.5C 13.132,117.075 8.29865,115.575 3.5,114C 2.92459,108.418 3.75792,102.918 6,97.5C 14.0248,90.9686 21.8581,84.302 29.5,77.5 Z"/></g>
<g><path style="opacity:0.722" fill="#0d0601" d="M 96.5,77.5 C 104.793,83.9542 112.959,90.6208 121,97.5C 123.242,102.918 124.075,108.418 123.5,114C 118.738,115.698 113.905,117.198 109,118.5C 100.5,115.667 92,112.833 83.5,110C 78.8984,108.462 78.5651,106.462 82.5,104C 94.2599,100.389 98.2599,92.7223 94.5,81C 94.9783,79.6974 95.645,78.5307 96.5,77.5 Z"/></g>
<g><path style="opacity:1" fill="#ef831e" d="M 28.5,80.5 C 29.2389,80.369 29.9056,80.5357 30.5,81C 26.9818,93.9591 31.6485,102.626 44.5,107C 35.5967,110.134 26.5967,112.968 17.5,115.5C 13.7022,114.967 10.0355,113.967 6.5,112.5C 6.16667,111.333 5.83333,110.167 5.5,109C 6.34576,105.47 7.34576,101.97 8.5,98.5C 15.5565,92.7687 22.2231,86.7687 28.5,80.5 Z"/></g>
<g><path style="opacity:1" fill="#ee831e" d="M 97.5,81.5 C 104.752,86.7408 111.752,92.4075 118.5,98.5C 120.444,102.999 121.778,107.665 122.5,112.5C 117.925,113.749 113.259,114.749 108.5,115.5C 99.6728,113.169 91.0061,110.335 82.5,107C 95.259,103.073 100.259,94.5725 97.5,81.5 Z"/></g>
</svg>
