<?xml version="1.0" encoding="UTF-8"?>
<!DOCTYPE svg PUBLIC "-//W3C//DTD SVG 1.1//EN" "http://www.w3.org/Graphics/SVG/1.1/DTD/svg11.dtd">
<svg xmlns="http://www.w3.org/2000/svg" version="1.1" width="100%" height="100%" viewBox="0 0 128 128" style="shape-rendering:geometricPrecision; text-rendering:geometricPrecision; image-rendering:optimizeQuality; fill-rule:evenodd; clip-rule:evenodd" xmlns:xlink="http://www.w3.org/1999/xlink">
<g><path style="opacity:0.722" fill="#120d02" d="M 51.5,8.5 C 59.5069,8.33362 67.5069,8.50029 75.5,9C 79.043,13.9161 82.2097,19.0828 85,24.5C 85.8651,26.8878 85.0317,28.3878 82.5,29C 86.0283,29.7574 88.8617,31.5907 91,34.5C 93.254,38.0066 95.254,41.6733 97,45.5C 97.6667,46.5 97.6667,47.5 97,48.5C 84.3849,49.759 72.2183,52.9257 60.5,58C 49.4125,61.0948 39.0792,59.4281 29.5,53C 27.7888,51.8668 27.2888,50.3668 28,48.5C 30.1023,44.0713 32.6023,39.9046 35.5,36C 48.1605,35.4185 60.4938,33.0851 72.5,29C 63.5195,27.0043 54.5195,25.1709 45.5,23.5C 44.7132,22.7579 44.0465,21.9246 43.5,21C 46.0663,16.6839 48.7329,12.5172 51.5,8.5 Z"/></g>
<g><path style="opacity:1" fill="#f7c407" d="M 51.5,11.5 C 59.5277,11.169 67.5277,11.5023 75.5,12.5C 78.0407,17.0825 80.7074,21.5825 83.5,26C 78.1667,26.6667 72.8333,26.6667 67.5,26C 60.9354,24.1537 54.2687,22.8204 47.5,22C 47.0426,21.586 46.7093,21.086 46.5,20.5C 48.4325,17.6339 50.0991,14.6339 51.5,11.5 Z"/></g>
<g><path style="opacity:1" fill="#f9c607" d="M 66.5,32.5 C 73.175,32.3337 79.8417,32.5004 86.5,33C 89.7494,37.4968 92.7494,42.1635 95.5,47C 81.4528,47.5118 68.1194,50.8451 55.5,57C 46.0536,57.7428 37.387,55.4095 29.5,50C 31.8793,46.7443 33.8793,43.2443 35.5,39.5C 46.1548,38.0388 56.4882,35.7054 66.5,32.5 Z"/></g>
<g><path style="opacity:0.717" fill="#130e02" d="M 47.5,62.5 C 56.8483,63.6706 65.8483,66.1706 74.5,70C 78.819,70.7599 83.1523,71.4265 87.5,72C 95.5752,72.5173 103.575,72.1839 111.5,71C 114.76,76.1874 117.76,81.5208 120.5,87C 120.046,88.6217 119.046,89.7884 117.5,90.5C 105.67,87.6729 93.67,86.8396 81.5,88C 72.1885,89.7957 62.8551,91.4623 53.5,93C 66.7781,96.4073 80.2781,98.574 94,99.5C 103.944,98.7924 113.777,97.6258 123.5,96C 124.517,97.0495 124.684,98.2161 124,99.5C 120.779,106.123 116.945,112.289 112.5,118C 79.5,118.667 46.5,118.667 13.5,118C 9.24845,111.499 5.24845,104.832 1.5,98C 2.16667,97.3333 2.83333,96.6667 3.5,96C 9.69872,96.5408 15.8654,97.3741 22,98.5C 30.2948,97.3854 38.4615,95.5521 46.5,93C 40.432,91.983 34.432,90.6497 28.5,89C 21.3871,88.3429 14.3871,88.6763 7.5,90C 6.64332,89.3109 5.97665,88.4776 5.5,87.5C 8.52102,80.7747 12.521,74.7747 17.5,69.5C 20.773,70.5851 24.1064,70.7517 27.5,70C 34.1594,67.157 40.8261,64.657 47.5,62.5 Z"/></g>
<g><path style="opacity:1" fill="#f8c507" d="M 43.5,65.5 C 54.7065,65.6228 65.3731,68.1228 75.5,73C 86.7347,75.0498 97.9014,74.8831 109,72.5C 112.401,76.7537 115.234,81.4204 117.5,86.5C 116.833,86.8333 116.167,87.1667 115.5,87.5C 104.64,84.8319 93.6402,83.9986 82.5,85C 71.4977,87.8673 60.331,89.7007 49,90.5C 42.3471,90.2121 35.8471,89.0454 29.5,87C 22.9616,86.2248 16.4616,86.3914 10,87.5C 9.5,87.3333 9,87.1667 8.5,87C 10.9675,82.3696 13.6342,77.8696 16.5,73.5C 26.4328,73.6302 35.4328,70.9635 43.5,65.5 Z"/></g>
<g><path style="opacity:1" fill="#fbc707" d="M 41.5,96.5 C 54.4088,96.1526 67.0754,97.6526 79.5,101C 88.8333,101.667 98.1667,101.667 107.5,101C 112.463,99.474 117.463,98.474 122.5,98C 119.167,103.667 115.833,109.333 112.5,115C 79.8333,115.667 47.1667,115.667 14.5,115C 11.3738,109.915 8.37376,104.749 5.5,99.5C 8.19026,98.3977 10.8569,98.5644 13.5,100C 23.2063,100.878 32.5397,99.711 41.5,96.5 Z"/></g>
</svg>
