<?xml version="1.0" encoding="UTF-8"?>
<!DOCTYPE svg PUBLIC "-//W3C//DTD SVG 1.1//EN" "http://www.w3.org/Graphics/SVG/1.1/DTD/svg11.dtd">
<svg xmlns="http://www.w3.org/2000/svg" version="1.1" width="100%" height="100%" viewBox="0 0 128 128" style="shape-rendering:geometricPrecision; text-rendering:geometricPrecision; image-rendering:optimizeQuality; fill-rule:evenodd; clip-rule:evenodd" xmlns:xlink="http://www.w3.org/1999/xlink">
<g><path style="opacity:0.743" fill="#060206" d="M 58.5,5.5 C 73.884,5.04362 79.0507,12.0436 74,26.5C 72.3333,27.8333 70.6667,29.1667 69,30.5C 68.1694,36.8595 68.3361,43.1928 69.5,49.5C 80.9943,54.8338 84.4943,63.5005 80,75.5C 77.5811,79.7516 74.0811,82.7516 69.5,84.5C 68.5052,89.7921 68.1718,95.1254 68.5,100.5C 74.5,100.5 80.5,100.5 86.5,100.5C 90.6661,86.1683 95.3328,72.0016 100.5,58C 97.3548,56.0218 94.6881,53.5218 92.5,50.5C 92.9767,49.5224 93.6433,48.6891 94.5,48C 103.833,47.3333 113.167,47.3333 122.5,48C 124.325,49.4659 124.825,51.2992 124,53.5C 117,75.1667 110,96.8333 103,118.5C 102.535,119.931 101.701,121.097 100.5,122C 75.5044,121.944 50.5044,121.61 25.5,121C 16.7673,97.4728 9.26733,73.6395 3,49.5C 3.5,49 4,48.5 4.5,48C 13.8333,47.3333 23.1667,47.3333 32.5,48C 34.0074,48.8373 34.5074,50.0039 34,51.5C 31.7802,54.021 29.2802,56.1877 26.5,58C 31.6672,72.0016 36.3339,86.1683 40.5,100.5C 46.5,100.5 52.5,100.5 58.5,100.5C 58.8282,95.1254 58.4948,89.7921 57.5,84.5C 45.4933,78.3157 42.3267,68.9824 48,56.5C 50.4636,53.2017 53.6303,50.8684 57.5,49.5C 58.6639,43.1928 58.8306,36.8595 58,30.5C 47.9337,22.0084 48.1003,13.675 58.5,5.5 Z"/></g>
<g><path style="opacity:1" fill="#a34b9a" d="M 66.5,28.5 C 65.8345,32.1515 65.5012,35.9848 65.5,40C 65.5102,44.229 66.1768,48.0623 67.5,51.5C 78.9688,56.0556 82.1355,64.0556 77,75.5C 74.3936,79.2896 70.8936,81.623 66.5,82.5C 65.5088,89.3134 65.1755,96.3134 65.5,103.5C 73.3516,103.825 81.0182,103.492 88.5,102.5C 92.7561,87.3968 97.4228,72.3968 102.5,57.5C 100.859,54.8239 98.5259,52.8239 95.5,51.5C 99.6533,50.8343 103.987,50.5009 108.5,50.5C 113.222,50.5079 117.555,51.1745 121.5,52.5C 114.303,74.7573 107.303,97.0907 100.5,119.5C 75.8333,119.5 51.1667,119.5 26.5,119.5C 20.1026,96.9747 13.1026,74.6414 5.5,52.5C 13.7688,50.5302 22.4355,49.8636 31.5,50.5C 28.7984,52.5349 26.4651,54.8682 24.5,57.5C 29.3367,72.6767 34.3367,87.6767 39.5,102.5C 46.6476,103.492 53.9809,103.825 61.5,103.5C 61.8245,96.3134 61.4912,89.3134 60.5,82.5C 52.5325,80.1926 48.1992,74.8592 47.5,66.5C 47.9312,58.0715 52.2645,53.0715 60.5,51.5C 60.6664,43.8261 60.4997,36.1594 60,28.5C 49.847,21.3082 50.0136,14.4748 60.5,8C 69.8455,7.01392 74.3455,11.1806 74,20.5C 72.6759,24.3225 70.1759,26.9892 66.5,28.5 Z"/></g>
<g><path style="opacity:1" fill="#4d2349" d="M 66.5,28.5 C 66.201,36.253 66.5343,43.9196 67.5,51.5C 66.1768,48.0623 65.5102,44.229 65.5,40C 65.5012,35.9848 65.8345,32.1515 66.5,28.5 Z"/></g>
<g><path style="opacity:1" fill="#221020" d="M 31.5,50.5 C 22.4355,49.8636 13.7688,50.5302 5.5,52.5C 4.59603,51.791 4.26269,50.791 4.5,49.5C 13.6822,49.1734 22.6822,49.5067 31.5,50.5 Z"/></g>
<g><path style="opacity:1" fill="#210f1f" d="M 121.5,52.5 C 117.555,51.1745 113.222,50.5079 108.5,50.5C 103.987,50.5009 99.6533,50.8343 95.5,51.5C 94.9569,51.44 94.6236,51.1067 94.5,50.5C 103.81,49.5017 113.143,49.1684 122.5,49.5C 122.737,50.791 122.404,51.791 121.5,52.5 Z"/></g>
<g><path style="opacity:1" fill="#462043" d="M 60.5,82.5 C 61.4912,89.3134 61.8245,96.3134 61.5,103.5C 53.9809,103.825 46.6476,103.492 39.5,102.5C 46.5,102.5 53.5,102.5 60.5,102.5C 60.5,95.8333 60.5,89.1667 60.5,82.5 Z"/></g>
<g><path style="opacity:1" fill="#472144" d="M 66.5,82.5 C 66.5,89.1667 66.5,95.8333 66.5,102.5C 73.8333,102.5 81.1667,102.5 88.5,102.5C 81.0182,103.492 73.3516,103.825 65.5,103.5C 65.1755,96.3134 65.5088,89.3134 66.5,82.5 Z"/></g>
</svg>
