<?xml version="1.0" encoding="UTF-8"?>
<!DOCTYPE svg PUBLIC "-//W3C//DTD SVG 1.1//EN" "http://www.w3.org/Graphics/SVG/1.1/DTD/svg11.dtd">
<svg xmlns="http://www.w3.org/2000/svg" version="1.1" width="100%" height="100%" viewBox="0 0 128 128" style="shape-rendering:geometricPrecision; text-rendering:geometricPrecision; image-rendering:optimizeQuality; fill-rule:evenodd; clip-rule:evenodd" xmlns:xlink="http://www.w3.org/1999/xlink">
<g><path style="opacity:0.88" fill="#010101" d="M 104.5,1.5 C 108.182,1.3347 111.848,1.50137 115.5,2C 116,2.5 116.5,3 117,3.5C 117.667,32.5 117.667,61.5 117,90.5C 116.5,91 116,91.5 115.5,92C 111.245,92.7961 107.079,92.6295 103,91.5C 102.833,76.6667 102.667,61.8333 102.5,47C 102.516,31.6129 103.182,16.4462 104.5,1.5 Z"/></g>
<g><path style="opacity:1" fill="#869695" d="M 104.5,4.5 C 108.167,4.5 111.833,4.5 115.5,4.5C 115.5,32.8333 115.5,61.1667 115.5,89.5C 111.833,89.5 108.167,89.5 104.5,89.5C 104.5,61.1667 104.5,32.8333 104.5,4.5 Z"/></g>
<g><path style="opacity:0.617" fill="#0d0e0e" d="M 51.5,13.5 C 59.5069,13.3336 67.5069,13.5003 75.5,14C 76,14.5 76.5,15 77,15.5C 77.6667,47.5 77.6667,79.5 77,111.5C 76.5,112 76,112.5 75.5,113C 67.5,113.667 59.5,113.667 51.5,113C 51,112.5 50.5,112 50,111.5C 49.3333,79.5 49.3333,47.5 50,15.5C 50.7172,14.9558 51.2172,14.2891 51.5,13.5 Z"/></g>
<g><path style="opacity:0.786" fill="#0a0b0b" d="M 86.5,13.5 C 89.1194,13.2317 91.6194,13.565 94,14.5C 94.5,51.1652 94.6667,87.8318 94.5,124.5C 91.2234,124.784 88.0567,124.451 85,123.5C 84.3333,87.5 84.3333,51.5 85,15.5C 85.7172,14.9558 86.2172,14.2891 86.5,13.5 Z"/></g>
<g><path style="opacity:1" fill="#899a98" d="M 52.5,16.5 C 59.8333,16.5 67.1667,16.5 74.5,16.5C 74.5,47.8333 74.5,79.1667 74.5,110.5C 67.1667,110.5 59.8333,110.5 52.5,110.5C 52.5,79.1667 52.5,47.8333 52.5,16.5 Z"/></g>
<g><path style="opacity:1" fill="#879695" d="M 87.5,16.5 C 89.1667,16.5 90.8333,16.5 92.5,16.5C 92.5,51.8333 92.5,87.1667 92.5,122.5C 90.8333,122.5 89.1667,122.5 87.5,122.5C 87.5,87.1667 87.5,51.8333 87.5,16.5 Z"/></g>
<g><path style="opacity:0.763" fill="#000000" d="M 10.5,19.5 C 13.4475,19.2229 16.2809,19.5562 19,20.5C 19.6667,41.5 19.6667,62.5 19,83.5C 16,84.8333 13,84.8333 10,83.5C 9.17893,62.0938 9.34559,40.7605 10.5,19.5 Z"/></g>
<g><path style="opacity:1" fill="#4e5857" d="M 11.5,21.5 C 13.5,21.5 15.5,21.5 17.5,21.5C 17.5,41.8333 17.5,62.1667 17.5,82.5C 15.5,82.5 13.5,82.5 11.5,82.5C 11.5,62.1667 11.5,41.8333 11.5,21.5 Z"/></g>
<g><path style="opacity:1" fill="#899a98" d="M 12.5,22.5 C 13.8333,22.5 15.1667,22.5 16.5,22.5C 16.5,42.1667 16.5,61.8333 16.5,81.5C 15.1667,81.5 13.8333,81.5 12.5,81.5C 12.5,61.8333 12.5,42.1667 12.5,22.5 Z"/></g>
<g><path style="opacity:0.685" fill="#050606" d="M 28.5,25.5 C 33.0986,25.2 37.5986,25.5333 42,26.5C 42.6667,47.8333 42.6667,69.1667 42,90.5C 41.5,91 41,91.5 40.5,92C 36.5,92.6667 32.5,92.6667 28.5,92C 28,91.5 27.5,91 27,90.5C 26.3333,69.5 26.3333,48.5 27,27.5C 27.7172,26.9558 28.2172,26.2891 28.5,25.5 Z"/></g>
<g><path style="opacity:1" fill="#839392" d="M 29.5,27.5 C 33.1667,27.5 36.8333,27.5 40.5,27.5C 40.5,48.1667 40.5,68.8333 40.5,89.5C 36.8333,89.5 33.1667,89.5 29.5,89.5C 29.5,68.8333 29.5,48.1667 29.5,27.5 Z"/></g>
</svg>
