<?xml version="1.0" encoding="UTF-8"?>
<!DOCTYPE svg PUBLIC "-//W3C//DTD SVG 1.1//EN" "http://www.w3.org/Graphics/SVG/1.1/DTD/svg11.dtd">
<svg xmlns="http://www.w3.org/2000/svg" version="1.1" width="100%" height="100%" viewBox="0 0 128 128" style="shape-rendering:geometricPrecision; text-rendering:geometricPrecision; image-rendering:optimizeQuality; fill-rule:evenodd; clip-rule:evenodd" xmlns:xlink="http://www.w3.org/1999/xlink">
<g><path style="opacity:0.738" fill="#0b0206" d="M 60.5,2.5 C 63.3646,2.05484 65.8646,2.7215 68,4.5C 72.0254,14.0839 76.5254,23.4173 81.5,32.5C 75.823,38.1759 69.823,43.5092 63.5,48.5C 57.177,43.5092 51.177,38.1759 45.5,32.5C 51.0561,22.7211 56.0561,12.7211 60.5,2.5 Z"/></g>
<g><path style="opacity:1" fill="#e83693" d="M 61.5,4.5 C 63.1439,4.28649 64.6439,4.61983 66,5.5C 69.5003,14.6663 73.6669,23.4996 78.5,32C 74.0108,36.9851 69.0108,41.4851 63.5,45.5C 58.1793,41.511 53.1793,37.1777 48.5,32.5C 53.392,23.3851 57.7253,14.0517 61.5,4.5 Z"/></g>
<g><path style="opacity:0.725" fill="#0c0307" d="M 42.5,36.5 C 43.552,36.3505 44.552,36.5172 45.5,37C 49.3333,41.5 53.1667,46 57,50.5C 57.6667,51.8333 57.6667,53.1667 57,54.5C 47.8333,62.3333 38.6667,70.1667 29.5,78C 28.1667,78.6667 26.8333,78.6667 25.5,78C 18.1591,73.7806 10.6591,69.9473 3,66.5C 2.2419,64.2305 2.40857,62.0639 3.5,60C 12.5,55.6667 21.5,51.3333 30.5,47C 34.6932,43.6349 38.6932,40.1349 42.5,36.5 Z"/></g>
<g><path style="opacity:0.725" fill="#0e0308" d="M 81.5,36.5 C 82.8734,36.3433 84.2068,36.51 85.5,37C 89.2467,41.4177 93.5801,45.0844 98.5,48C 106.955,51.7274 115.288,55.7274 123.5,60C 124.591,62.0639 124.758,64.2305 124,66.5C 116.341,69.9473 108.841,73.7806 101.5,78C 100.167,78.6667 98.8333,78.6667 97.5,78C 88.3333,70.1667 79.1667,62.3333 70,54.5C 69.3333,53.1667 69.3333,51.8333 70,50.5C 74.0455,45.9596 77.8788,41.2929 81.5,36.5 Z"/></g>
<g><path style="opacity:1" fill="#e83693" d="M 42.5,39.5 C 43.2389,39.369 43.9056,39.5357 44.5,40C 47.7836,43.4055 50.9502,46.9055 54,50.5C 54.6667,51.5 54.6667,52.5 54,53.5C 45.9271,60.7844 37.7604,67.9511 29.5,75C 28.1667,75.6667 26.8333,75.6667 25.5,75C 18.9546,71.5604 12.2879,68.3938 5.5,65.5C 4.16667,64.1667 4.16667,62.8333 5.5,61.5C 14.9553,57.2725 24.2887,52.7725 33.5,48C 37,45.6658 40,42.8325 42.5,39.5 Z"/></g>
<g><path style="opacity:1" fill="#e83693" d="M 82.5,39.5 C 94.3424,48.5958 107.342,55.9291 121.5,61.5C 122.833,62.8333 122.833,64.1667 121.5,65.5C 114.712,68.3938 108.045,71.5604 101.5,75C 100.167,75.6667 98.8333,75.6667 97.5,75C 89.2396,67.9511 81.0729,60.7844 73,53.5C 72.3333,52.5 72.3333,51.5 73,50.5C 76.6473,47.1751 79.814,43.5085 82.5,39.5 Z"/></g>
<g><path style="opacity:0.738" fill="#0f0408" d="M 62.5,59.5 C 65.3943,60.8823 67.8943,62.8823 70,65.5C 75.8333,72.6667 81.6667,79.8333 87.5,87C 79.5893,97.9823 73.0893,109.816 68,122.5C 65.5823,124.68 62.9156,125.013 60,123.5C 55.3942,114.622 51.0608,105.622 47,96.5C 44.5,93.3333 42,90.1667 39.5,87C 46.8176,77.525 54.4843,68.3583 62.5,59.5 Z"/></g>
<g><path style="opacity:1" fill="#e93794" d="M 62.5,62.5 C 70.2587,70.1023 77.5921,78.269 84.5,87C 82.2121,89.7433 80.0455,92.5767 78,95.5C 74.1059,104.289 69.9392,112.955 65.5,121.5C 64.1667,122.833 62.8333,122.833 61.5,121.5C 56.577,109.148 50.2436,97.6481 42.5,87C 49.3792,78.9594 56.0458,70.7927 62.5,62.5 Z"/></g>
</svg>
