<?xml version="1.0" encoding="UTF-8"?>
<!DOCTYPE svg PUBLIC "-//W3C//DTD SVG 1.1//EN" "http://www.w3.org/Graphics/SVG/1.1/DTD/svg11.dtd">
<svg xmlns="http://www.w3.org/2000/svg" version="1.1" width="100%" height="100%" viewBox="0 0 128 128" style="shape-rendering:geometricPrecision; text-rendering:geometricPrecision; image-rendering:optimizeQuality; fill-rule:evenodd; clip-rule:evenodd" xmlns:xlink="http://www.w3.org/1999/xlink">
<g><path style="opacity:0.856" fill="#000000" d="M 39.5,2.5 C 48.0851,2.18344 56.5851,2.51677 65,3.5C 65.8157,12.0787 65.649,20.5787 64.5,29C 55.9213,29.8157 47.4213,29.649 39,28.5C 38.1977,19.7551 38.3643,11.0884 39.5,2.5 Z"/></g>
<g><path style="opacity:1" fill="#006596" d="M 63.5,5.5 C 56.1667,5.5 48.8333,5.5 41.5,5.5C 41.5,12.5 41.5,19.5 41.5,26.5C 48.8333,26.5 56.1667,26.5 63.5,26.5C 56.0182,27.492 48.3516,27.8254 40.5,27.5C 40.5,19.8333 40.5,12.1667 40.5,4.5C 48.3516,4.17464 56.0182,4.50797 63.5,5.5 Z"/></g>
<g><path style="opacity:1" fill="#008ed3" d="M 63.5,5.5 C 63.5,12.5 63.5,19.5 63.5,26.5C 56.1667,26.5 48.8333,26.5 41.5,26.5C 41.5,19.5 41.5,12.5 41.5,5.5C 48.8333,5.5 56.1667,5.5 63.5,5.5 Z"/></g>
<g><path style="opacity:0.865" fill="#000000" d="M 3.5,38.5 C 12.0851,38.1834 20.5851,38.5168 29,39.5C 29.8157,48.0787 29.649,56.5787 28.5,65C 19.9213,65.8157 11.4213,65.649 3,64.5C 2.19768,55.7551 2.36435,47.0884 3.5,38.5 Z"/></g>
<g><path style="opacity:0.869" fill="#000000" d="M 39.5,38.5 C 55.7442,38.1752 71.9109,38.5086 88,39.5C 88.8242,55.7408 88.6575,71.9075 87.5,88C 71.2592,88.8242 55.0925,88.6575 39,87.5C 38.1828,71.0926 38.3494,54.7593 39.5,38.5 Z"/></g>
<g><path style="opacity:1" fill="#008ed5" d="M 41.5,41.5 C 56.1667,41.5 70.8333,41.5 85.5,41.5C 85.5,56.1667 85.5,70.8333 85.5,85.5C 85.5,70.8333 85.5,56.1667 85.5,41.5C 70.8333,41.5 56.1667,41.5 41.5,41.5 Z"/></g>
<g><path style="opacity:1" fill="#0079b5" d="M 41.5,41.5 C 41.5,41.1667 41.5,40.8333 41.5,40.5C 56.5,40.5 71.5,40.5 86.5,40.5C 86.5,55.5 86.5,70.5 86.5,85.5C 86.1667,85.5 85.8333,85.5 85.5,85.5C 85.5,70.8333 85.5,56.1667 85.5,41.5C 70.8333,41.5 56.1667,41.5 41.5,41.5 Z"/></g>
<g><path style="opacity:0.866" fill="#000000" d="M 98.5,61.5 C 107.085,61.1834 115.585,61.5168 124,62.5C 124.816,71.0787 124.649,79.5787 123.5,88C 114.921,88.8157 106.421,88.649 98,87.5C 97.1977,78.7551 97.3643,70.0884 98.5,61.5 Z"/></g>
<g><path style="opacity:1" fill="#006fa6" d="M 4.5,40.5 C 12.1667,40.5 19.8333,40.5 27.5,40.5C 27.5,48.1667 27.5,55.8333 27.5,63.5C 19.8333,63.5 12.1667,63.5 4.5,63.5C 4.5,55.8333 4.5,48.1667 4.5,40.5 Z"/></g>
<g><path style="opacity:1" fill="#008ed5" d="M 5.5,41.5 C 12.5,41.5 19.5,41.5 26.5,41.5C 26.5,48.5 26.5,55.5 26.5,62.5C 19.5,62.5 12.5,62.5 5.5,62.5C 5.5,55.5 5.5,48.5 5.5,41.5 Z"/></g>
<g><path style="opacity:1" fill="#006fa6" d="M 99.5,63.5 C 107.167,63.5 114.833,63.5 122.5,63.5C 122.5,71.1667 122.5,78.8333 122.5,86.5C 114.833,86.5 107.167,86.5 99.5,86.5C 99.5,78.8333 99.5,71.1667 99.5,63.5 Z"/></g>
<g><path style="opacity:1" fill="#008ed5" d="M 100.5,64.5 C 107.5,64.5 114.5,64.5 121.5,64.5C 121.5,71.5 121.5,78.5 121.5,85.5C 114.5,85.5 107.5,85.5 100.5,85.5C 100.5,78.5 100.5,71.5 100.5,64.5 Z"/></g>
<g><path style="opacity:1" fill="#00608f" d="M 41.5,40.5 C 41.5,40.8333 41.5,41.1667 41.5,41.5C 41.5,56.1667 41.5,70.8333 41.5,85.5C 56.1667,85.5 70.8333,85.5 85.5,85.5C 85.8333,85.5 86.1667,85.5 86.5,85.5C 71.3424,86.4962 56.0091,86.8295 40.5,86.5C 40.1705,70.9909 40.5038,55.6576 41.5,40.5 Z"/></g>
<g><path style="opacity:0.865" fill="#000000" d="M 62.5,97.5 C 71.0851,97.1834 79.5851,97.5168 88,98.5C 88.8157,107.079 88.649,115.579 87.5,124C 78.9213,124.816 70.4213,124.649 62,123.5C 61.1977,114.755 61.3643,106.088 62.5,97.5 Z"/></g>
<g><path style="opacity:0.865" fill="#000000" d="M 98.5,97.5 C 107.085,97.1834 115.585,97.5168 124,98.5C 124.816,107.079 124.649,115.579 123.5,124C 114.921,124.816 106.421,124.649 98,123.5C 97.1977,114.755 97.3643,106.088 98.5,97.5 Z"/></g>
<g><path style="opacity:1" fill="#006ca1" d="M 63.5,99.5 C 71.1667,99.5 78.8333,99.5 86.5,99.5C 86.5,107.167 86.5,114.833 86.5,122.5C 78.8333,122.5 71.1667,122.5 63.5,122.5C 63.5,114.833 63.5,107.167 63.5,99.5 Z"/></g>
<g><path style="opacity:1" fill="#008ed5" d="M 64.5,100.5 C 71.5,100.5 78.5,100.5 85.5,100.5C 85.5,107.5 85.5,114.5 85.5,121.5C 78.5,121.5 71.5,121.5 64.5,121.5C 64.5,114.5 64.5,107.5 64.5,100.5 Z"/></g>
<g><path style="opacity:1" fill="#006ca1" d="M 99.5,99.5 C 107.167,99.5 114.833,99.5 122.5,99.5C 122.5,107.167 122.5,114.833 122.5,122.5C 114.833,122.5 107.167,122.5 99.5,122.5C 99.5,114.833 99.5,107.167 99.5,99.5 Z"/></g>
<g><path style="opacity:1" fill="#008ed5" d="M 100.5,100.5 C 107.5,100.5 114.5,100.5 121.5,100.5C 121.5,107.5 121.5,114.5 121.5,121.5C 114.5,121.5 107.5,121.5 100.5,121.5C 100.5,114.5 100.5,107.5 100.5,100.5 Z"/></g>
</svg>
