<?xml version="1.0" encoding="UTF-8"?>
<!DOCTYPE svg PUBLIC "-//W3C//DTD SVG 1.1//EN" "http://www.w3.org/Graphics/SVG/1.1/DTD/svg11.dtd">
<svg xmlns="http://www.w3.org/2000/svg" version="1.1" width="100%" height="100%" viewBox="0 0 128 128" style="shape-rendering:geometricPrecision; text-rendering:geometricPrecision; image-rendering:optimizeQuality; fill-rule:evenodd; clip-rule:evenodd" xmlns:xlink="http://www.w3.org/1999/xlink">
<g><path style="opacity:0.75" fill="#080100" d="M 39.5,2.5 C 40.8221,2.33003 41.9887,2.66337 43,3.5C 43.6667,6.5 43.6667,9.5 43,12.5C 35.6667,17.8333 28.3333,23.1667 21,28.5C 20.9445,43.8345 20.9445,59.1679 21,74.5C 15.8348,78.0836 10.5015,81.417 5,84.5C 4.33333,83.8333 3.66667,83.1667 3,82.5C 2.83404,62.4812 3.50071,42.4812 5,22.5C 5.58308,20.9984 6.41641,19.6651 7.5,18.5C 18.2585,13.1207 28.9252,7.78739 39.5,2.5 Z"/></g>
<g><path style="opacity:0.755" fill="#100301" d="M 84.5,2.5 C 96.492,6.99393 108.159,12.3273 119.5,18.5C 120.584,19.6651 121.417,20.9984 122,22.5C 123.732,42.8227 124.232,63.156 123.5,83.5C 122.914,83.7093 122.414,84.0426 122,84.5C 116.498,81.417 111.165,78.0836 106,74.5C 105.947,59.1267 106.28,43.7933 107,28.5C 99.0574,23.5564 91.3907,18.223 84,12.5C 83.2534,9.07639 83.42,5.74306 84.5,2.5 Z"/></g>
<g><path style="opacity:1" fill="#e21a22" d="M 6.5,80.5 C 5.51192,75.3595 5.17859,70.0262 5.5,64.5C 5.25067,50.0498 6.084,35.7165 8,21.5C 18.6064,14.9464 29.773,9.61307 41.5,5.5C 41.7564,7.7925 41.4231,9.95917 40.5,12C 32.7249,16.7764 25.2249,21.943 18,27.5C 18.5546,42.816 18.8879,58.1494 19,73.5C 14.7253,75.7187 10.5586,78.052 6.5,80.5 Z"/></g>
<g><path style="opacity:1" fill="#e51b23" d="M 121.5,64.5 C 121.821,70.0262 121.488,75.3595 120.5,80.5C 116.7,78.7664 113.034,76.7664 109.5,74.5C 108.724,58.4786 108.391,42.4786 108.5,26.5C 101.167,21.5 93.8333,16.5 86.5,11.5C 85.3526,9.23512 85.1859,6.90179 86,4.5C 97.0354,10.1729 108.035,15.8396 119,21.5C 120.461,35.7395 121.294,50.0729 121.5,64.5 Z"/></g>
<g><path style="opacity:0.785" fill="#080100" d="M 63.5,32.5 C 68.3567,34.5145 72.8567,37.1811 77,40.5C 77.6667,49.5 77.6667,58.5 77,67.5C 72.6667,70.1667 68.3333,72.8333 64,75.5C 59.6667,72.8333 55.3333,70.1667 51,67.5C 50.3333,58.5 50.3333,49.5 51,40.5C 55.3161,37.9337 59.4828,35.2671 63.5,32.5 Z"/></g>
<g><path style="opacity:1" fill="#e51b22" d="M 62.5,35.5 C 66.7145,36.9406 70.7145,38.9406 74.5,41.5C 75.8333,49.8333 75.8333,58.1667 74.5,66.5C 71.1667,68.5 67.8333,70.5 64.5,72.5C 60.535,70.3652 56.7016,68.0319 53,65.5C 52.1684,57.4792 52.3351,49.4792 53.5,41.5C 56.7376,39.7247 59.7376,37.7247 62.5,35.5 Z"/></g>
<g><path style="opacity:1" fill="#8a1015" d="M 5.5,64.5 C 5.17859,70.0262 5.51192,75.3595 6.5,80.5C 6.44001,81.0431 6.10667,81.3764 5.5,81.5C 4.18429,75.6796 4.18429,70.0129 5.5,64.5 Z"/></g>
<g><path style="opacity:1" fill="#8e1116" d="M 121.5,64.5 C 122.816,70.0129 122.816,75.6796 121.5,81.5C 120.893,81.3764 120.56,81.0431 120.5,80.5C 121.488,75.3595 121.821,70.0262 121.5,64.5 Z"/></g>
<g><path style="opacity:0.749" fill="#0f0201" d="M 23.5,80.5 C 26.4245,80.4598 29.0912,81.2932 31.5,83C 42.0032,89.4193 52.6698,95.5859 63.5,101.5C 76.1899,94.4615 88.8566,87.4615 101.5,80.5C 105.933,82.4242 110.266,84.5909 114.5,87C 120.525,89.6661 120.859,92.6661 115.5,96C 101.003,104.081 86.6695,112.414 72.5,121C 66.5,125.667 60.5,125.667 54.5,121C 38.9176,111.959 23.4176,102.793 8,93.5C 7.36976,91.0966 8.20309,89.2633 10.5,88C 15.0018,85.6364 19.3351,83.1364 23.5,80.5 Z"/></g>
<g><path style="opacity:1" fill="#e71b23" d="M 24.5,82.5 C 37.6075,89.5561 50.6075,96.8894 63.5,104.5C 76.1667,97.1667 88.8333,89.8333 101.5,82.5C 106.964,85.4676 112.297,88.6342 117.5,92C 99.6248,102.436 81.6248,112.603 63.5,122.5C 45.3752,112.603 27.3752,102.436 9.5,92C 14.5644,88.8087 19.5644,85.6421 24.5,82.5 Z"/></g>
</svg>
