<?xml version="1.0" encoding="UTF-8" standalone="no"?>
<!DOCTYPE svg PUBLIC "-//W3C//DTD SVG 1.1//EN" "http://www.w3.org/Graphics/SVG/1.1/DTD/svg11.dtd">
<svg width="100%" height="100%" viewBox="0 0 170 180" version="1.1" xmlns="http://www.w3.org/2000/svg" xmlns:xlink="http://www.w3.org/1999/xlink" xml:space="preserve" xmlns:serif="http://www.serif.com/" style="fill-rule:evenodd;clip-rule:evenodd;stroke-miterlimit:10;">
    <g transform="matrix(-7.22385e-14,17.1414,17.1414,7.22385e-14,153.191,70.6304)">
        <ellipse cx="0.609" cy="-0.063" rx="0.637" ry="0.637" style="fill:url(#nomad_Radial1);"/>
    </g>
    <g transform="matrix(-6.75016e-14,10.827,10.827,6.75016e-14,83.3639,7.33552)">
        <circle cx="0.609" cy="-0.063" r="0.637" style="fill:url(#nomad_Radial2);"/>
    </g>
    <g transform="matrix(2.60532e-14,21.6851,21.6851,-2.60532e-14,21.7796,100.797)">
        <circle cx="0.609" cy="-0.063" r="0.637" style="fill:url(#nomad_Radial3);"/>
    </g>
    <g transform="matrix(-1.46845e-13,32.8519,32.8519,1.46845e-13,85.8798,131.896)">
        <ellipse cx="0.609" cy="-0.063" rx="0.637" ry="0.637" style="fill:url(#nomad_Radial4);"/>
    </g>
    <g transform="matrix(1.38556e-13,10.2534,10.2534,-1.38556e-13,132.792,27.3965)">
        <circle cx="0.593" cy="-0.074" r="0.737" style="fill:url(#nomad_Radial5);"/>
    </g>
    <g transform="matrix(1.33333,0,0,1.33333,155.603,88.4507)">
        <path d="M0,1.645C-0.81,1.95 -1.693,2.11 -2.615,2.11C-2.848,2.11 -3.081,2.102 -3.305,2.078C-7.204,1.725 -10.268,-1.548 -10.268,-5.535C-10.268,-9.297 -7.533,-12.434 -3.939,-13.068C-3.506,-13.14 -3.064,-13.18 -2.615,-13.18C-1.917,-13.18 -1.251,-13.084 -0.61,-12.915C2.631,-12.025 5.03,-9.057 5.03,-5.535C5.03,-2.238 2.928,0.578 0,1.645M-6.418,19.069L-7.886,18.371C-8.961,20.642 -10.204,22.816 -11.592,24.877C-16.422,32.097 -23.056,38.018 -30.837,41.989C-32.57,42.879 -34.367,43.673 -36.212,44.355C-37.737,35.988 -45.085,29.618 -53.893,29.618C-62.694,29.618 -70.034,35.98 -71.558,44.347C-73.756,43.545 -75.882,42.574 -77.92,41.475C-82.46,39.037 -86.592,35.916 -90.17,32.258C-91.189,31.223 -92.167,30.14 -93.09,29.017C-90.282,26.65 -88.501,23.112 -88.501,19.166C-88.501,12.058 -94.285,6.274 -101.393,6.274C-102.219,6.274 -103.021,6.354 -103.807,6.506C-104.441,3.314 -104.77,0.008 -104.77,-3.369L-104.77,-3.521L-106.399,-3.529C-106.375,-10.998 -104.786,-18.098 -101.946,-24.523L-100.454,-23.866C-98.657,-27.949 -96.331,-31.743 -93.571,-35.177C-87.466,-42.782 -79.227,-48.598 -69.769,-51.703C-67.371,-52.497 -64.9,-53.107 -62.365,-53.54C-61.362,-50.251 -58.297,-47.86 -54.696,-47.86C-51.005,-47.86 -47.885,-50.363 -46.954,-53.764C-44.957,-53.5 -43.007,-53.115 -41.09,-52.617L-40.681,-54.198C-34.552,-52.593 -28.848,-49.922 -23.794,-46.368C-24.981,-44.972 -25.703,-43.159 -25.703,-41.178C-25.703,-36.749 -22.101,-33.147 -17.681,-33.147C-16.157,-33.147 -14.737,-33.573 -13.526,-34.311C-12.571,-33.067 -11.664,-31.776 -10.83,-30.444C-8.078,-26.088 -5.969,-21.291 -4.645,-16.188C-9.667,-15.242 -13.477,-10.822 -13.477,-5.535C-13.477,0.073 -9.202,4.693 -3.738,5.263C-3.899,6.186 -4.083,7.1 -4.292,8.007L-2.703,8.368C-3.554,12.098 -4.813,15.684 -6.418,19.069M-39.172,48.727C-39.75,56.34 -46.128,62.357 -53.893,62.357C-61.651,62.357 -68.028,56.34 -68.606,48.727C-68.638,48.35 -68.654,47.973 -68.654,47.596C-68.654,46.842 -68.598,46.104 -68.486,45.382C-67.419,38.282 -61.274,32.827 -53.893,32.827C-46.505,32.827 -40.36,38.282 -39.293,45.382C-39.181,46.104 -39.124,46.842 -39.124,47.596C-39.124,47.973 -39.14,48.35 -39.172,48.727M-97.847,28.174C-98.946,28.608 -100.141,28.848 -101.393,28.848C-106.736,28.848 -111.076,24.508 -111.076,19.166C-111.076,15.556 -109.086,12.403 -106.15,10.734C-105.211,10.205 -104.185,9.828 -103.086,9.635C-102.532,9.531 -101.97,9.483 -101.393,9.483C-96.058,9.483 -91.71,13.831 -91.71,19.166C-91.71,22.086 -93.01,24.709 -95.063,26.482C-95.882,27.196 -96.82,27.773 -97.847,28.174M-59.316,-57.222C-58.747,-59.236 -56.894,-60.712 -54.696,-60.712C-52.546,-60.712 -50.724,-59.3 -50.107,-57.358C-49.954,-56.893 -49.874,-56.404 -49.874,-55.89C-49.874,-55.265 -49.995,-54.663 -50.219,-54.109C-50.925,-52.329 -52.658,-51.069 -54.696,-51.069C-56.677,-51.069 -58.378,-52.272 -59.116,-53.981C-59.372,-54.567 -59.509,-55.208 -59.509,-55.89C-59.509,-56.356 -59.445,-56.797 -59.316,-57.222M-22.109,-43.071C-21.668,-44.098 -20.882,-44.94 -19.887,-45.453C-19.221,-45.798 -18.475,-45.991 -17.681,-45.991C-15.018,-45.991 -12.86,-43.833 -12.86,-41.178C-12.86,-40.448 -13.02,-39.766 -13.309,-39.148C-13.782,-38.137 -14.584,-37.319 -15.595,-36.83C-16.221,-36.525 -16.935,-36.356 -17.681,-36.356C-20.336,-36.356 -22.494,-38.522 -22.494,-41.178C-22.494,-41.851 -22.358,-42.493 -22.109,-43.071M-2.615,-16.389C-2.744,-16.389 -2.88,-16.389 -3.008,-16.381C-4.38,-21.732 -6.57,-26.762 -9.45,-31.31L-8.086,-32.169C-9.033,-33.669 -10.052,-35.129 -11.143,-36.525C-10.204,-37.84 -9.651,-39.445 -9.651,-41.178C-9.651,-45.606 -13.253,-49.2 -17.681,-49.2C-19.534,-49.2 -21.243,-48.566 -22.607,-47.507C-27.877,-51.262 -33.846,-54.093 -40.28,-55.762C-42.389,-56.307 -44.547,-56.733 -46.745,-57.021C-47.299,-60.92 -50.652,-63.921 -54.696,-63.921C-58.811,-63.921 -62.22,-60.792 -62.67,-56.781C-65.453,-56.332 -68.157,-55.65 -70.78,-54.791L-70.275,-53.251C-80.038,-50.042 -88.541,-44.042 -94.839,-36.196L-96.106,-37.207C-99.042,-33.557 -101.513,-29.513 -103.431,-25.173C-106.359,-18.547 -107.995,-11.223 -108.019,-3.529L-108.019,-3.369C-108.019,0.361 -107.642,4.004 -106.92,7.525C-111.268,9.595 -114.285,14.031 -114.285,19.166C-114.285,26.273 -108.5,32.057 -101.393,32.057C-99.411,32.057 -97.526,31.608 -95.849,30.798C-94.791,32.097 -93.667,33.341 -92.496,34.536L-91.341,33.405C-87.643,37.175 -83.375,40.392 -78.69,42.911L-79.452,44.331C-77.029,45.639 -74.486,46.77 -71.863,47.693C-71.807,57.56 -63.769,65.566 -53.893,65.566C-44.01,65.566 -35.972,57.56 -35.916,47.693C-33.661,46.898 -31.479,45.96 -29.369,44.885L-30.099,43.441C-22.069,39.341 -15.218,33.236 -10.228,25.784L-8.889,26.682C-7.413,24.484 -6.097,22.174 -4.958,19.759C-3.297,16.269 -2.006,12.579 -1.123,8.729C-0.85,7.533 -0.618,6.322 -0.425,5.095C4.516,4.076 8.239,-0.304 8.239,-5.535C8.239,-11.519 3.369,-16.389 -2.615,-16.389" style="fill:rgb(209,211,212);fill-rule:nonzero;"/>
    </g>
    <g transform="matrix(1.33333,0,0,1.33333,155.603,88.4507)">
        <path d="M0,1.645C-0.81,1.95 -1.693,2.11 -2.615,2.11C-2.848,2.11 -3.081,2.102 -3.305,2.078C-7.204,1.725 -10.268,-1.548 -10.268,-5.535C-10.268,-9.297 -7.533,-12.434 -3.939,-13.068C-3.506,-13.14 -3.064,-13.18 -2.615,-13.18C-1.917,-13.18 -1.251,-13.084 -0.61,-12.915C2.631,-12.025 5.03,-9.057 5.03,-5.535C5.03,-2.238 2.928,0.578 0,1.645ZM-6.418,19.069L-7.886,18.371C-8.961,20.642 -10.204,22.816 -11.592,24.877C-16.422,32.097 -23.056,38.018 -30.837,41.989C-32.57,42.879 -34.367,43.673 -36.212,44.355C-37.737,35.988 -45.085,29.618 -53.893,29.618C-62.694,29.618 -70.034,35.98 -71.558,44.347C-73.756,43.545 -75.882,42.574 -77.92,41.475C-82.46,39.037 -86.592,35.916 -90.17,32.258C-91.189,31.223 -92.167,30.14 -93.09,29.017C-90.282,26.65 -88.501,23.112 -88.501,19.166C-88.501,12.058 -94.285,6.274 -101.393,6.274C-102.219,6.274 -103.021,6.354 -103.807,6.506C-104.441,3.314 -104.77,0.008 -104.77,-3.369L-104.77,-3.521L-106.399,-3.529C-106.375,-10.998 -104.786,-18.098 -101.946,-24.523L-100.454,-23.866C-98.657,-27.949 -96.331,-31.743 -93.571,-35.177C-87.466,-42.782 -79.227,-48.598 -69.769,-51.703C-67.371,-52.497 -64.9,-53.107 -62.365,-53.54C-61.362,-50.251 -58.297,-47.86 -54.696,-47.86C-51.005,-47.86 -47.885,-50.363 -46.954,-53.764C-44.957,-53.5 -43.007,-53.115 -41.09,-52.617L-40.681,-54.198C-34.552,-52.593 -28.848,-49.922 -23.794,-46.368C-24.981,-44.972 -25.703,-43.159 -25.703,-41.178C-25.703,-36.749 -22.101,-33.147 -17.681,-33.147C-16.157,-33.147 -14.737,-33.573 -13.526,-34.311C-12.571,-33.067 -11.664,-31.776 -10.83,-30.444C-8.078,-26.088 -5.969,-21.291 -4.645,-16.188C-9.667,-15.242 -13.477,-10.822 -13.477,-5.535C-13.477,0.073 -9.202,4.693 -3.738,5.263C-3.899,6.186 -4.083,7.1 -4.292,8.007L-2.703,8.368C-3.554,12.098 -4.813,15.684 -6.418,19.069ZM-39.172,48.727C-39.75,56.34 -46.128,62.357 -53.893,62.357C-61.651,62.357 -68.028,56.34 -68.606,48.727C-68.638,48.35 -68.654,47.973 -68.654,47.596C-68.654,46.842 -68.598,46.104 -68.486,45.382C-67.419,38.282 -61.274,32.827 -53.893,32.827C-46.505,32.827 -40.36,38.282 -39.293,45.382C-39.181,46.104 -39.124,46.842 -39.124,47.596C-39.124,47.973 -39.14,48.35 -39.172,48.727ZM-97.847,28.174C-98.946,28.608 -100.141,28.848 -101.393,28.848C-106.736,28.848 -111.076,24.508 -111.076,19.166C-111.076,15.556 -109.086,12.403 -106.15,10.734C-105.211,10.205 -104.185,9.828 -103.086,9.635C-102.532,9.531 -101.97,9.483 -101.393,9.483C-96.058,9.483 -91.71,13.831 -91.71,19.166C-91.71,22.086 -93.01,24.709 -95.063,26.482C-95.882,27.196 -96.82,27.773 -97.847,28.174ZM-59.316,-57.222C-58.747,-59.236 -56.894,-60.712 -54.696,-60.712C-52.546,-60.712 -50.724,-59.3 -50.107,-57.358C-49.954,-56.893 -49.874,-56.404 -49.874,-55.89C-49.874,-55.265 -49.995,-54.663 -50.219,-54.109C-50.925,-52.329 -52.658,-51.069 -54.696,-51.069C-56.677,-51.069 -58.378,-52.272 -59.116,-53.981C-59.372,-54.567 -59.509,-55.208 -59.509,-55.89C-59.509,-56.356 -59.445,-56.797 -59.316,-57.222ZM-22.109,-43.071C-21.668,-44.098 -20.882,-44.94 -19.887,-45.453C-19.221,-45.798 -18.475,-45.991 -17.681,-45.991C-15.018,-45.991 -12.86,-43.833 -12.86,-41.178C-12.86,-40.448 -13.02,-39.766 -13.309,-39.148C-13.782,-38.137 -14.584,-37.319 -15.595,-36.83C-16.221,-36.525 -16.935,-36.356 -17.681,-36.356C-20.336,-36.356 -22.494,-38.522 -22.494,-41.178C-22.494,-41.851 -22.358,-42.493 -22.109,-43.071ZM-2.615,-16.389C-2.744,-16.389 -2.88,-16.389 -3.008,-16.381C-4.38,-21.732 -6.57,-26.762 -9.45,-31.31L-8.086,-32.169C-9.033,-33.669 -10.052,-35.129 -11.143,-36.525C-10.204,-37.84 -9.651,-39.445 -9.651,-41.178C-9.651,-45.606 -13.253,-49.2 -17.681,-49.2C-19.534,-49.2 -21.243,-48.566 -22.607,-47.507C-27.877,-51.262 -33.846,-54.093 -40.28,-55.762C-42.389,-56.307 -44.547,-56.733 -46.745,-57.021C-47.299,-60.92 -50.652,-63.921 -54.696,-63.921C-58.811,-63.921 -62.22,-60.792 -62.67,-56.781C-65.453,-56.332 -68.157,-55.65 -70.78,-54.791L-70.275,-53.251C-80.038,-50.042 -88.541,-44.042 -94.839,-36.196L-96.106,-37.207C-99.042,-33.557 -101.513,-29.513 -103.431,-25.173C-106.359,-18.547 -107.995,-11.223 -108.019,-3.529L-108.019,-3.369C-108.019,0.361 -107.642,4.004 -106.92,7.525C-111.268,9.595 -114.285,14.031 -114.285,19.166C-114.285,26.273 -108.5,32.057 -101.393,32.057C-99.411,32.057 -97.526,31.608 -95.849,30.798C-94.791,32.097 -93.667,33.341 -92.496,34.536L-91.341,33.405C-87.643,37.175 -83.375,40.392 -78.69,42.911L-79.452,44.331C-77.029,45.639 -74.486,46.77 -71.863,47.693C-71.807,57.56 -63.769,65.566 -53.893,65.566C-44.01,65.566 -35.972,57.56 -35.916,47.693C-33.661,46.898 -31.479,45.96 -29.369,44.885L-30.099,43.441C-22.069,39.341 -15.218,33.236 -10.228,25.784L-8.889,26.682C-7.413,24.484 -6.097,22.174 -4.958,19.759C-3.297,16.269 -2.006,12.579 -1.123,8.729C-0.85,7.533 -0.618,6.322 -0.425,5.095C4.516,4.076 8.239,-0.304 8.239,-5.535C8.239,-11.519 3.369,-16.389 -2.615,-16.389Z" style="fill:none;fill-rule:nonzero;stroke:rgb(35,31,32);stroke-width:0.48px;"/>
    </g>
    <g transform="matrix(1.89478e-14,56.2087,56.2087,-1.89478e-14,87.2373,41.582)">
        <ellipse cx="0.593" cy="-0.074" rx="0.737" ry="0.737" style="fill:url(#nomad_Radial6);"/>
    </g>
    <g transform="matrix(1.33333,0,0,1.33333,83.0823,38.2368)">
        <path d="M0,55.03C-15.195,55.03 -27.515,42.71 -27.515,27.515C-27.515,12.32 -15.195,-0.001 0,-0.001C15.195,-0.001 27.516,12.32 27.516,27.515C27.516,42.71 15.195,55.03 0,55.03M0,-3.568C-17.172,-3.568 -31.083,10.343 -31.083,27.515C-31.083,44.686 -17.172,58.598 0,58.598C17.172,58.598 31.083,44.686 31.083,27.515C31.083,10.343 17.172,-3.568 0,-3.568" style="fill:rgb(209,211,212);fill-rule:nonzero;"/>
    </g>
    <g transform="matrix(1.33333,0,0,1.33333,83.0823,38.2368)">
        <path d="M0,55.03C-15.195,55.03 -27.515,42.71 -27.515,27.515C-27.515,12.32 -15.195,-0.001 0,-0.001C15.195,-0.001 27.516,12.32 27.516,27.515C27.516,42.71 15.195,55.03 0,55.03ZM0,-3.568C-17.172,-3.568 -31.083,10.343 -31.083,27.515C-31.083,44.686 -17.172,58.598 0,58.598C17.172,58.598 31.083,44.686 31.083,27.515C31.083,10.343 17.172,-3.568 0,-3.568Z" style="fill:none;fill-rule:nonzero;stroke:rgb(35,31,32);stroke-width:0.48px;"/>
    </g>
    <defs>
        <radialGradient id="nomad_Radial1" cx="0" cy="0" r="1" gradientUnits="userSpaceOnUse" gradientTransform="matrix(0.669485,0.742825,0.742825,-0.669485,0.248169,-0.557754)"><stop offset="0" style="stop-color:rgb(181,100,146);stop-opacity:1"/><stop offset="0" style="stop-color:rgb(181,100,146);stop-opacity:1"/><stop offset="0.51" style="stop-color:rgb(150,93,132);stop-opacity:1"/><stop offset="1" style="stop-color:rgb(101,87,106);stop-opacity:1"/></radialGradient>
        <radialGradient id="nomad_Radial2" cx="0" cy="0" r="1" gradientUnits="userSpaceOnUse" gradientTransform="matrix(0.669485,0.742825,0.742825,-0.669485,0.248184,-0.55779)"><stop offset="0" style="stop-color:rgb(181,100,146);stop-opacity:1"/><stop offset="0" style="stop-color:rgb(181,100,146);stop-opacity:1"/><stop offset="0.51" style="stop-color:rgb(150,93,132);stop-opacity:1"/><stop offset="1" style="stop-color:rgb(101,87,106);stop-opacity:1"/></radialGradient>
        <radialGradient id="nomad_Radial3" cx="0" cy="0" r="1" gradientUnits="userSpaceOnUse" gradientTransform="matrix(0.669485,0.742825,0.742825,-0.669485,0.24816,-0.557736)"><stop offset="0" style="stop-color:rgb(181,100,146);stop-opacity:1"/><stop offset="0" style="stop-color:rgb(181,100,146);stop-opacity:1"/><stop offset="0.51" style="stop-color:rgb(150,93,132);stop-opacity:1"/><stop offset="1" style="stop-color:rgb(101,87,106);stop-opacity:1"/></radialGradient>
        <radialGradient id="nomad_Radial4" cx="0" cy="0" r="1" gradientUnits="userSpaceOnUse" gradientTransform="matrix(0.669485,0.742825,0.742825,-0.669485,0.24818,-0.55778)"><stop offset="0" style="stop-color:rgb(181,100,146);stop-opacity:1"/><stop offset="0" style="stop-color:rgb(181,100,146);stop-opacity:1"/><stop offset="0.51" style="stop-color:rgb(150,93,132);stop-opacity:1"/><stop offset="1" style="stop-color:rgb(101,87,106);stop-opacity:1"/></radialGradient>
        <radialGradient id="nomad_Radial5" cx="0" cy="0" r="1" gradientUnits="userSpaceOnUse" gradientTransform="matrix(0.669485,0.742825,0.742825,-0.669485,0.251014,-0.564149)"><stop offset="0" style="stop-color:rgb(8,119,141);stop-opacity:1"/><stop offset="0" style="stop-color:rgb(8,119,141);stop-opacity:1"/><stop offset="0.51" style="stop-color:rgb(63,117,138);stop-opacity:1"/><stop offset="1" style="stop-color:rgb(53,81,97);stop-opacity:1"/></radialGradient>
        <radialGradient id="nomad_Radial6" cx="0" cy="0" r="1" gradientUnits="userSpaceOnUse" gradientTransform="matrix(0.669485,0.742825,0.742825,-0.669485,0.251012,-0.564144)"><stop offset="0" style="stop-color:rgb(8,119,141);stop-opacity:1"/><stop offset="0" style="stop-color:rgb(8,119,141);stop-opacity:1"/><stop offset="0.51" style="stop-color:rgb(63,117,138);stop-opacity:1"/><stop offset="1" style="stop-color:rgb(53,81,97);stop-opacity:1"/></radialGradient>
    </defs>
</svg>
